<?xml version="1.0" encoding="utf-8" standalone="no"?>
<!DOCTYPE svg PUBLIC "-//W3C//DTD SVG 1.1//EN"
  "http://www.w3.org/Graphics/SVG/1.1/DTD/svg11.dtd">
<svg xmlns:xlink="http://www.w3.org/1999/xlink" width="1008pt" height="216pt" viewBox="0 0 1008 216" xmlns="http://www.w3.org/2000/svg" version="1.1">
 <metadata>
  <rdf:RDF xmlns:dc="http://purl.org/dc/elements/1.1/" xmlns:cc="http://creativecommons.org/ns#" xmlns:rdf="http://www.w3.org/1999/02/22-rdf-syntax-ns#">
   <cc:Work>
    <dc:type rdf:resource="http://purl.org/dc/dcmitype/StillImage"/>
    <dc:date>2024-04-13T04:39:57.176725</dc:date>
    <dc:format>image/svg+xml</dc:format>
    <dc:creator>
     <cc:Agent>
      <dc:title>Matplotlib v3.8.3, https://matplotlib.org/</dc:title>
     </cc:Agent>
    </dc:creator>
   </cc:Work>
  </rdf:RDF>
 </metadata>
 <defs>
  <style type="text/css">*{stroke-linejoin: round; stroke-linecap: butt}</style>
 </defs>
 <g id="figure_1">
  <g id="patch_1">
   <path d="M 0 216 
L 1008 216 
L 1008 0 
L 0 0 
z
" style="fill: #ffffff"/>
  </g>
  <g id="axes_1">
   <g id="patch_2">
    <path d="M 126 192.24 
L 907.2 192.24 
L 907.2 25.92 
L 126 25.92 
z
" style="fill: #ffffff"/>
   </g>
   <g id="matplotlib.axis_1">
    <g id="xtick_1">
     <g id="line2d_1">
      <path d="M 161.509091 192.24 
L 161.509091 25.92 
" clip-path="url(#pbd0e007a2d)" style="fill: none; stroke: #b0b0b0; stroke-width: 0.8; stroke-linecap: square"/>
     </g>
     <g id="line2d_2">
      <defs>
       <path id="m9ef28ddc52" d="M 0 0 
L 0 3.5 
" style="stroke: #000000; stroke-width: 0.8"/>
      </defs>
      <g>
       <use xlink:href="#m9ef28ddc52" x="161.509091" y="192.24" style="stroke: #000000; stroke-width: 0.8"/>
      </g>
     </g>
     <g id="text_1">
      <!-- 0 -->
      <g transform="translate(157.009091 211.73875) scale(0.18 -0.18)">
       <defs>
        <path id="TimesNewRomanPSMT-30" d="M 231 2094 
Q 231 2819 450 3342 
Q 669 3866 1031 4122 
Q 1313 4325 1613 4325 
Q 2100 4325 2488 3828 
Q 2972 3213 2972 2159 
Q 2972 1422 2759 906 
Q 2547 391 2217 158 
Q 1888 -75 1581 -75 
Q 975 -75 572 641 
Q 231 1244 231 2094 
z
M 844 2016 
Q 844 1141 1059 588 
Q 1238 122 1591 122 
Q 1759 122 1940 273 
Q 2122 425 2216 781 
Q 2359 1319 2359 2297 
Q 2359 3022 2209 3506 
Q 2097 3866 1919 4016 
Q 1791 4119 1609 4119 
Q 1397 4119 1231 3928 
Q 1006 3669 925 3112 
Q 844 2556 844 2016 
z
" transform="scale(0.015625)"/>
       </defs>
       <use xlink:href="#TimesNewRomanPSMT-30"/>
      </g>
     </g>
    </g>
    <g id="xtick_2">
     <g id="line2d_3">
      <path d="M 309.463636 192.24 
L 309.463636 25.92 
" clip-path="url(#pbd0e007a2d)" style="fill: none; stroke: #b0b0b0; stroke-width: 0.8; stroke-linecap: square"/>
     </g>
     <g id="line2d_4">
      <g>
       <use xlink:href="#m9ef28ddc52" x="309.463636" y="192.24" style="stroke: #000000; stroke-width: 0.8"/>
      </g>
     </g>
     <g id="text_2">
      <!-- 100 -->
      <g transform="translate(295.963636 211.73875) scale(0.18 -0.18)">
       <defs>
        <path id="TimesNewRomanPSMT-31" d="M 750 3822 
L 1781 4325 
L 1884 4325 
L 1884 747 
Q 1884 391 1914 303 
Q 1944 216 2037 169 
Q 2131 122 2419 116 
L 2419 0 
L 825 0 
L 825 116 
Q 1125 122 1212 167 
Q 1300 213 1334 289 
Q 1369 366 1369 747 
L 1369 3034 
Q 1369 3497 1338 3628 
Q 1316 3728 1258 3775 
Q 1200 3822 1119 3822 
Q 1003 3822 797 3725 
L 750 3822 
z
" transform="scale(0.015625)"/>
       </defs>
       <use xlink:href="#TimesNewRomanPSMT-31"/>
       <use xlink:href="#TimesNewRomanPSMT-30" x="50"/>
       <use xlink:href="#TimesNewRomanPSMT-30" x="100"/>
      </g>
     </g>
    </g>
    <g id="xtick_3">
     <g id="line2d_5">
      <path d="M 457.418182 192.24 
L 457.418182 25.92 
" clip-path="url(#pbd0e007a2d)" style="fill: none; stroke: #b0b0b0; stroke-width: 0.8; stroke-linecap: square"/>
     </g>
     <g id="line2d_6">
      <g>
       <use xlink:href="#m9ef28ddc52" x="457.418182" y="192.24" style="stroke: #000000; stroke-width: 0.8"/>
      </g>
     </g>
     <g id="text_3">
      <!-- 200 -->
      <g transform="translate(443.918182 211.73875) scale(0.18 -0.18)">
       <defs>
        <path id="TimesNewRomanPSMT-32" d="M 2934 816 
L 2638 0 
L 138 0 
L 138 116 
Q 1241 1122 1691 1759 
Q 2141 2397 2141 2925 
Q 2141 3328 1894 3587 
Q 1647 3847 1303 3847 
Q 991 3847 742 3664 
Q 494 3481 375 3128 
L 259 3128 
Q 338 3706 661 4015 
Q 984 4325 1469 4325 
Q 1984 4325 2329 3994 
Q 2675 3663 2675 3213 
Q 2675 2891 2525 2569 
Q 2294 2063 1775 1497 
Q 997 647 803 472 
L 1909 472 
Q 2247 472 2383 497 
Q 2519 522 2628 598 
Q 2738 675 2819 816 
L 2934 816 
z
" transform="scale(0.015625)"/>
       </defs>
       <use xlink:href="#TimesNewRomanPSMT-32"/>
       <use xlink:href="#TimesNewRomanPSMT-30" x="50"/>
       <use xlink:href="#TimesNewRomanPSMT-30" x="100"/>
      </g>
     </g>
    </g>
    <g id="xtick_4">
     <g id="line2d_7">
      <path d="M 605.372727 192.24 
L 605.372727 25.92 
" clip-path="url(#pbd0e007a2d)" style="fill: none; stroke: #b0b0b0; stroke-width: 0.8; stroke-linecap: square"/>
     </g>
     <g id="line2d_8">
      <g>
       <use xlink:href="#m9ef28ddc52" x="605.372727" y="192.24" style="stroke: #000000; stroke-width: 0.8"/>
      </g>
     </g>
     <g id="text_4">
      <!-- 300 -->
      <g transform="translate(591.872727 211.73875) scale(0.18 -0.18)">
       <defs>
        <path id="TimesNewRomanPSMT-33" d="M 325 3431 
Q 506 3859 782 4092 
Q 1059 4325 1472 4325 
Q 1981 4325 2253 3994 
Q 2459 3747 2459 3466 
Q 2459 3003 1878 2509 
Q 2269 2356 2469 2072 
Q 2669 1788 2669 1403 
Q 2669 853 2319 450 
Q 1863 -75 997 -75 
Q 569 -75 414 31 
Q 259 138 259 259 
Q 259 350 332 419 
Q 406 488 509 488 
Q 588 488 669 463 
Q 722 447 909 348 
Q 1097 250 1169 231 
Q 1284 197 1416 197 
Q 1734 197 1970 444 
Q 2206 691 2206 1028 
Q 2206 1275 2097 1509 
Q 2016 1684 1919 1775 
Q 1784 1900 1550 2001 
Q 1316 2103 1072 2103 
L 972 2103 
L 972 2197 
Q 1219 2228 1467 2375 
Q 1716 2522 1828 2728 
Q 1941 2934 1941 3181 
Q 1941 3503 1739 3701 
Q 1538 3900 1238 3900 
Q 753 3900 428 3381 
L 325 3431 
z
" transform="scale(0.015625)"/>
       </defs>
       <use xlink:href="#TimesNewRomanPSMT-33"/>
       <use xlink:href="#TimesNewRomanPSMT-30" x="50"/>
       <use xlink:href="#TimesNewRomanPSMT-30" x="100"/>
      </g>
     </g>
    </g>
    <g id="xtick_5">
     <g id="line2d_9">
      <path d="M 753.327273 192.24 
L 753.327273 25.92 
" clip-path="url(#pbd0e007a2d)" style="fill: none; stroke: #b0b0b0; stroke-width: 0.8; stroke-linecap: square"/>
     </g>
     <g id="line2d_10">
      <g>
       <use xlink:href="#m9ef28ddc52" x="753.327273" y="192.24" style="stroke: #000000; stroke-width: 0.8"/>
      </g>
     </g>
     <g id="text_5">
      <!-- 400 -->
      <g transform="translate(739.827273 211.73875) scale(0.18 -0.18)">
       <defs>
        <path id="TimesNewRomanPSMT-34" d="M 2978 1563 
L 2978 1119 
L 2409 1119 
L 2409 0 
L 1894 0 
L 1894 1119 
L 100 1119 
L 100 1519 
L 2066 4325 
L 2409 4325 
L 2409 1563 
L 2978 1563 
z
M 1894 1563 
L 1894 3666 
L 406 1563 
L 1894 1563 
z
" transform="scale(0.015625)"/>
       </defs>
       <use xlink:href="#TimesNewRomanPSMT-34"/>
       <use xlink:href="#TimesNewRomanPSMT-30" x="50"/>
       <use xlink:href="#TimesNewRomanPSMT-30" x="100"/>
      </g>
     </g>
    </g>
    <g id="xtick_6">
     <g id="line2d_11">
      <path d="M 901.281818 192.24 
L 901.281818 25.92 
" clip-path="url(#pbd0e007a2d)" style="fill: none; stroke: #b0b0b0; stroke-width: 0.8; stroke-linecap: square"/>
     </g>
     <g id="line2d_12">
      <g>
       <use xlink:href="#m9ef28ddc52" x="901.281818" y="192.24" style="stroke: #000000; stroke-width: 0.8"/>
      </g>
     </g>
     <g id="text_6">
      <!-- 500 -->
      <g transform="translate(887.781818 211.73875) scale(0.18 -0.18)">
       <defs>
        <path id="TimesNewRomanPSMT-35" d="M 2778 4238 
L 2534 3706 
L 1259 3706 
L 981 3138 
Q 1809 3016 2294 2522 
Q 2709 2097 2709 1522 
Q 2709 1188 2573 903 
Q 2438 619 2231 419 
Q 2025 219 1772 97 
Q 1413 -75 1034 -75 
Q 653 -75 479 54 
Q 306 184 306 341 
Q 306 428 378 495 
Q 450 563 559 563 
Q 641 563 702 538 
Q 763 513 909 409 
Q 1144 247 1384 247 
Q 1750 247 2026 523 
Q 2303 800 2303 1197 
Q 2303 1581 2056 1914 
Q 1809 2247 1375 2428 
Q 1034 2569 447 2591 
L 1259 4238 
L 2778 4238 
z
" transform="scale(0.015625)"/>
       </defs>
       <use xlink:href="#TimesNewRomanPSMT-35"/>
       <use xlink:href="#TimesNewRomanPSMT-30" x="50"/>
       <use xlink:href="#TimesNewRomanPSMT-30" x="100"/>
      </g>
     </g>
    </g>
    <g id="text_7">
     <!-- Time (s) -->
     <g transform="translate(482.795313 233.476562) scale(0.2 -0.2)">
      <defs>
       <path id="TimesNewRomanPSMT-54" d="M 3703 4238 
L 3750 3244 
L 3631 3244 
Q 3597 3506 3538 3619 
Q 3441 3800 3280 3886 
Q 3119 3972 2856 3972 
L 2259 3972 
L 2259 734 
Q 2259 344 2344 247 
Q 2463 116 2709 116 
L 2856 116 
L 2856 0 
L 1059 0 
L 1059 116 
L 1209 116 
Q 1478 116 1591 278 
Q 1659 378 1659 734 
L 1659 3972 
L 1150 3972 
Q 853 3972 728 3928 
Q 566 3869 450 3700 
Q 334 3531 313 3244 
L 194 3244 
L 244 4238 
L 3703 4238 
z
" transform="scale(0.015625)"/>
       <path id="TimesNewRomanPSMT-69" d="M 928 4444 
Q 1059 4444 1151 4351 
Q 1244 4259 1244 4128 
Q 1244 3997 1151 3903 
Q 1059 3809 928 3809 
Q 797 3809 703 3903 
Q 609 3997 609 4128 
Q 609 4259 701 4351 
Q 794 4444 928 4444 
z
M 1188 2947 
L 1188 647 
Q 1188 378 1227 289 
Q 1266 200 1342 156 
Q 1419 113 1622 113 
L 1622 0 
L 231 0 
L 231 113 
Q 441 113 512 153 
Q 584 194 626 287 
Q 669 381 669 647 
L 669 1750 
Q 669 2216 641 2353 
Q 619 2453 572 2492 
Q 525 2531 444 2531 
Q 356 2531 231 2484 
L 188 2597 
L 1050 2947 
L 1188 2947 
z
" transform="scale(0.015625)"/>
       <path id="TimesNewRomanPSMT-6d" d="M 1050 2338 
Q 1363 2650 1419 2697 
Q 1559 2816 1721 2881 
Q 1884 2947 2044 2947 
Q 2313 2947 2506 2790 
Q 2700 2634 2766 2338 
Q 3088 2713 3309 2830 
Q 3531 2947 3766 2947 
Q 3994 2947 4170 2830 
Q 4347 2713 4450 2447 
Q 4519 2266 4519 1878 
L 4519 647 
Q 4519 378 4559 278 
Q 4591 209 4675 161 
Q 4759 113 4950 113 
L 4950 0 
L 3538 0 
L 3538 113 
L 3597 113 
Q 3781 113 3884 184 
Q 3956 234 3988 344 
Q 4000 397 4000 647 
L 4000 1878 
Q 4000 2228 3916 2372 
Q 3794 2572 3525 2572 
Q 3359 2572 3192 2489 
Q 3025 2406 2788 2181 
L 2781 2147 
L 2788 2013 
L 2788 647 
Q 2788 353 2820 281 
Q 2853 209 2943 161 
Q 3034 113 3253 113 
L 3253 0 
L 1806 0 
L 1806 113 
Q 2044 113 2133 169 
Q 2222 225 2256 338 
Q 2272 391 2272 647 
L 2272 1878 
Q 2272 2228 2169 2381 
Q 2031 2581 1784 2581 
Q 1616 2581 1450 2491 
Q 1191 2353 1050 2181 
L 1050 647 
Q 1050 366 1089 281 
Q 1128 197 1204 155 
Q 1281 113 1516 113 
L 1516 0 
L 100 0 
L 100 113 
Q 297 113 375 155 
Q 453 197 493 289 
Q 534 381 534 647 
L 534 1741 
Q 534 2213 506 2350 
Q 484 2453 437 2492 
Q 391 2531 309 2531 
Q 222 2531 100 2484 
L 53 2597 
L 916 2947 
L 1050 2947 
L 1050 2338 
z
" transform="scale(0.015625)"/>
       <path id="TimesNewRomanPSMT-65" d="M 681 1784 
Q 678 1147 991 784 
Q 1303 422 1725 422 
Q 2006 422 2214 576 
Q 2422 731 2563 1106 
L 2659 1044 
Q 2594 616 2278 264 
Q 1963 -88 1488 -88 
Q 972 -88 605 314 
Q 238 716 238 1394 
Q 238 2128 614 2539 
Q 991 2950 1559 2950 
Q 2041 2950 2350 2633 
Q 2659 2316 2659 1784 
L 681 1784 
z
M 681 1966 
L 2006 1966 
Q 1991 2241 1941 2353 
Q 1863 2528 1708 2628 
Q 1553 2728 1384 2728 
Q 1125 2728 920 2526 
Q 716 2325 681 1966 
z
" transform="scale(0.015625)"/>
       <path id="TimesNewRomanPSMT-20" transform="scale(0.015625)"/>
       <path id="TimesNewRomanPSMT-28" d="M 1988 -1253 
L 1988 -1369 
Q 1516 -1131 1200 -813 
Q 750 -359 506 256 
Q 263 872 263 1534 
Q 263 2503 741 3301 
Q 1219 4100 1988 4444 
L 1988 4313 
Q 1603 4100 1356 3731 
Q 1109 3363 987 2797 
Q 866 2231 866 1616 
Q 866 947 969 400 
Q 1050 -31 1165 -292 
Q 1281 -553 1476 -793 
Q 1672 -1034 1988 -1253 
z
" transform="scale(0.015625)"/>
       <path id="TimesNewRomanPSMT-73" d="M 2050 2947 
L 2050 1972 
L 1947 1972 
Q 1828 2431 1642 2597 
Q 1456 2763 1169 2763 
Q 950 2763 815 2647 
Q 681 2531 681 2391 
Q 681 2216 781 2091 
Q 878 1963 1175 1819 
L 1631 1597 
Q 2266 1288 2266 781 
Q 2266 391 1970 151 
Q 1675 -88 1309 -88 
Q 1047 -88 709 6 
Q 606 38 541 38 
Q 469 38 428 -44 
L 325 -44 
L 325 978 
L 428 978 
Q 516 541 762 319 
Q 1009 97 1316 97 
Q 1531 97 1667 223 
Q 1803 350 1803 528 
Q 1803 744 1651 891 
Q 1500 1038 1047 1263 
Q 594 1488 453 1669 
Q 313 1847 313 2119 
Q 313 2472 555 2709 
Q 797 2947 1181 2947 
Q 1350 2947 1591 2875 
Q 1750 2828 1803 2828 
Q 1853 2828 1881 2850 
Q 1909 2872 1947 2947 
L 2050 2947 
z
" transform="scale(0.015625)"/>
       <path id="TimesNewRomanPSMT-29" d="M 144 4313 
L 144 4444 
Q 619 4209 934 3891 
Q 1381 3434 1625 2820 
Q 1869 2206 1869 1541 
Q 1869 572 1392 -226 
Q 916 -1025 144 -1369 
L 144 -1253 
Q 528 -1038 776 -670 
Q 1025 -303 1145 264 
Q 1266 831 1266 1447 
Q 1266 2113 1163 2663 
Q 1084 3094 967 3353 
Q 850 3613 656 3853 
Q 463 4094 144 4313 
z
" transform="scale(0.015625)"/>
      </defs>
      <use xlink:href="#TimesNewRomanPSMT-54"/>
      <use xlink:href="#TimesNewRomanPSMT-69" x="57.583984"/>
      <use xlink:href="#TimesNewRomanPSMT-6d" x="85.367188"/>
      <use xlink:href="#TimesNewRomanPSMT-65" x="163.150391"/>
      <use xlink:href="#TimesNewRomanPSMT-20" x="207.535156"/>
      <use xlink:href="#TimesNewRomanPSMT-28" x="232.535156"/>
      <use xlink:href="#TimesNewRomanPSMT-73" x="265.835938"/>
      <use xlink:href="#TimesNewRomanPSMT-29" x="304.751953"/>
     </g>
    </g>
   </g>
   <g id="matplotlib.axis_2">
    <g id="ytick_1">
     <g id="line2d_13">
      <path d="M 126 189.099597 
L 907.2 189.099597 
" clip-path="url(#pbd0e007a2d)" style="fill: none; stroke: #b0b0b0; stroke-width: 0.8; stroke-linecap: square"/>
     </g>
     <g id="line2d_14">
      <defs>
       <path id="mff7e020fb2" d="M 0 0 
L -3.5 0 
" style="stroke: #000000; stroke-width: 0.8"/>
      </defs>
      <g>
       <use xlink:href="#mff7e020fb2" x="126" y="189.099597" style="stroke: #000000; stroke-width: 0.8"/>
      </g>
     </g>
     <g id="text_8">
      <!-- 0 -->
      <g transform="translate(110 195.348972) scale(0.18 -0.18)">
       <use xlink:href="#TimesNewRomanPSMT-30"/>
      </g>
     </g>
    </g>
    <g id="ytick_2">
     <g id="line2d_15">
      <path d="M 126 157.975677 
L 907.2 157.975677 
" clip-path="url(#pbd0e007a2d)" style="fill: none; stroke: #b0b0b0; stroke-width: 0.8; stroke-linecap: square"/>
     </g>
     <g id="line2d_16">
      <g>
       <use xlink:href="#mff7e020fb2" x="126" y="157.975677" style="stroke: #000000; stroke-width: 0.8"/>
      </g>
     </g>
     <g id="text_9">
      <!-- 1000 -->
      <g transform="translate(83 164.225052) scale(0.18 -0.18)">
       <use xlink:href="#TimesNewRomanPSMT-31"/>
       <use xlink:href="#TimesNewRomanPSMT-30" x="50"/>
       <use xlink:href="#TimesNewRomanPSMT-30" x="100"/>
       <use xlink:href="#TimesNewRomanPSMT-30" x="150"/>
      </g>
     </g>
    </g>
    <g id="ytick_3">
     <g id="line2d_17">
      <path d="M 126 126.851757 
L 907.2 126.851757 
" clip-path="url(#pbd0e007a2d)" style="fill: none; stroke: #b0b0b0; stroke-width: 0.8; stroke-linecap: square"/>
     </g>
     <g id="line2d_18">
      <g>
       <use xlink:href="#mff7e020fb2" x="126" y="126.851757" style="stroke: #000000; stroke-width: 0.8"/>
      </g>
     </g>
     <g id="text_10">
      <!-- 2000 -->
      <g transform="translate(83 133.101132) scale(0.18 -0.18)">
       <use xlink:href="#TimesNewRomanPSMT-32"/>
       <use xlink:href="#TimesNewRomanPSMT-30" x="50"/>
       <use xlink:href="#TimesNewRomanPSMT-30" x="100"/>
       <use xlink:href="#TimesNewRomanPSMT-30" x="150"/>
      </g>
     </g>
    </g>
    <g id="ytick_4">
     <g id="line2d_19">
      <path d="M 126 95.727837 
L 907.2 95.727837 
" clip-path="url(#pbd0e007a2d)" style="fill: none; stroke: #b0b0b0; stroke-width: 0.8; stroke-linecap: square"/>
     </g>
     <g id="line2d_20">
      <g>
       <use xlink:href="#mff7e020fb2" x="126" y="95.727837" style="stroke: #000000; stroke-width: 0.8"/>
      </g>
     </g>
     <g id="text_11">
      <!-- 3000 -->
      <g transform="translate(83 101.977212) scale(0.18 -0.18)">
       <use xlink:href="#TimesNewRomanPSMT-33"/>
       <use xlink:href="#TimesNewRomanPSMT-30" x="50"/>
       <use xlink:href="#TimesNewRomanPSMT-30" x="100"/>
       <use xlink:href="#TimesNewRomanPSMT-30" x="150"/>
      </g>
     </g>
    </g>
    <g id="ytick_5">
     <g id="line2d_21">
      <path d="M 126 64.603917 
L 907.2 64.603917 
" clip-path="url(#pbd0e007a2d)" style="fill: none; stroke: #b0b0b0; stroke-width: 0.8; stroke-linecap: square"/>
     </g>
     <g id="line2d_22">
      <g>
       <use xlink:href="#mff7e020fb2" x="126" y="64.603917" style="stroke: #000000; stroke-width: 0.8"/>
      </g>
     </g>
     <g id="text_12">
      <!-- 4000 -->
      <g transform="translate(83 70.853292) scale(0.18 -0.18)">
       <use xlink:href="#TimesNewRomanPSMT-34"/>
       <use xlink:href="#TimesNewRomanPSMT-30" x="50"/>
       <use xlink:href="#TimesNewRomanPSMT-30" x="100"/>
       <use xlink:href="#TimesNewRomanPSMT-30" x="150"/>
      </g>
     </g>
    </g>
    <g id="ytick_6">
     <g id="line2d_23">
      <path d="M 126 33.479996 
L 907.2 33.479996 
" clip-path="url(#pbd0e007a2d)" style="fill: none; stroke: #b0b0b0; stroke-width: 0.8; stroke-linecap: square"/>
     </g>
     <g id="line2d_24">
      <g>
       <use xlink:href="#mff7e020fb2" x="126" y="33.479996" style="stroke: #000000; stroke-width: 0.8"/>
      </g>
     </g>
     <g id="text_13">
      <!-- 5000 -->
      <g transform="translate(83 39.729371) scale(0.18 -0.18)">
       <use xlink:href="#TimesNewRomanPSMT-35"/>
       <use xlink:href="#TimesNewRomanPSMT-30" x="50"/>
       <use xlink:href="#TimesNewRomanPSMT-30" x="100"/>
       <use xlink:href="#TimesNewRomanPSMT-30" x="150"/>
      </g>
     </g>
    </g>
    <g id="text_14">
     <!-- Bitrate (kbps) -->
     <g transform="translate(74.721875 164.344062) rotate(-90) scale(0.2 -0.2)">
      <defs>
       <path id="TimesNewRomanPSMT-42" d="M 2956 2163 
Q 3397 2069 3616 1863 
Q 3919 1575 3919 1159 
Q 3919 844 3719 555 
Q 3519 266 3170 133 
Q 2822 0 2106 0 
L 106 0 
L 106 116 
L 266 116 
Q 531 116 647 284 
Q 719 394 719 750 
L 719 3488 
Q 719 3881 628 3984 
Q 506 4122 266 4122 
L 106 4122 
L 106 4238 
L 1938 4238 
Q 2450 4238 2759 4163 
Q 3228 4050 3475 3764 
Q 3722 3478 3722 3106 
Q 3722 2788 3528 2536 
Q 3334 2284 2956 2163 
z
M 1319 2331 
Q 1434 2309 1582 2298 
Q 1731 2288 1909 2288 
Q 2366 2288 2595 2386 
Q 2825 2484 2947 2687 
Q 3069 2891 3069 3131 
Q 3069 3503 2766 3765 
Q 2463 4028 1881 4028 
Q 1569 4028 1319 3959 
L 1319 2331 
z
M 1319 306 
Q 1681 222 2034 222 
Q 2600 222 2897 476 
Q 3194 731 3194 1106 
Q 3194 1353 3059 1581 
Q 2925 1809 2622 1940 
Q 2319 2072 1872 2072 
Q 1678 2072 1540 2065 
Q 1403 2059 1319 2044 
L 1319 306 
z
" transform="scale(0.015625)"/>
       <path id="TimesNewRomanPSMT-74" d="M 1031 3803 
L 1031 2863 
L 1700 2863 
L 1700 2644 
L 1031 2644 
L 1031 788 
Q 1031 509 1111 412 
Q 1191 316 1316 316 
Q 1419 316 1516 380 
Q 1613 444 1666 569 
L 1788 569 
Q 1678 263 1478 108 
Q 1278 -47 1066 -47 
Q 922 -47 784 33 
Q 647 113 581 261 
Q 516 409 516 719 
L 516 2644 
L 63 2644 
L 63 2747 
Q 234 2816 414 2980 
Q 594 3144 734 3369 
Q 806 3488 934 3803 
L 1031 3803 
z
" transform="scale(0.015625)"/>
       <path id="TimesNewRomanPSMT-72" d="M 1038 2947 
L 1038 2303 
Q 1397 2947 1775 2947 
Q 1947 2947 2059 2842 
Q 2172 2738 2172 2600 
Q 2172 2478 2090 2393 
Q 2009 2309 1897 2309 
Q 1788 2309 1652 2417 
Q 1516 2525 1450 2525 
Q 1394 2525 1328 2463 
Q 1188 2334 1038 2041 
L 1038 669 
Q 1038 431 1097 309 
Q 1138 225 1241 169 
Q 1344 113 1538 113 
L 1538 0 
L 72 0 
L 72 113 
Q 291 113 397 181 
Q 475 231 506 341 
Q 522 394 522 644 
L 522 1753 
Q 522 2253 501 2348 
Q 481 2444 426 2487 
Q 372 2531 291 2531 
Q 194 2531 72 2484 
L 41 2597 
L 906 2947 
L 1038 2947 
z
" transform="scale(0.015625)"/>
       <path id="TimesNewRomanPSMT-61" d="M 1822 413 
Q 1381 72 1269 19 
Q 1100 -59 909 -59 
Q 613 -59 420 144 
Q 228 347 228 678 
Q 228 888 322 1041 
Q 450 1253 767 1440 
Q 1084 1628 1822 1897 
L 1822 2009 
Q 1822 2438 1686 2597 
Q 1550 2756 1291 2756 
Q 1094 2756 978 2650 
Q 859 2544 859 2406 
L 866 2225 
Q 866 2081 792 2003 
Q 719 1925 600 1925 
Q 484 1925 411 2006 
Q 338 2088 338 2228 
Q 338 2497 613 2722 
Q 888 2947 1384 2947 
Q 1766 2947 2009 2819 
Q 2194 2722 2281 2516 
Q 2338 2381 2338 1966 
L 2338 994 
Q 2338 584 2353 492 
Q 2369 400 2405 369 
Q 2441 338 2488 338 
Q 2538 338 2575 359 
Q 2641 400 2828 588 
L 2828 413 
Q 2478 -56 2159 -56 
Q 2006 -56 1915 50 
Q 1825 156 1822 413 
z
M 1822 616 
L 1822 1706 
Q 1350 1519 1213 1441 
Q 966 1303 859 1153 
Q 753 1003 753 825 
Q 753 600 887 451 
Q 1022 303 1197 303 
Q 1434 303 1822 616 
z
" transform="scale(0.015625)"/>
       <path id="TimesNewRomanPSMT-6b" d="M 1047 4444 
L 1047 1597 
L 1775 2259 
Q 2006 2472 2044 2528 
Q 2069 2566 2069 2603 
Q 2069 2666 2017 2711 
Q 1966 2756 1847 2763 
L 1847 2863 
L 3091 2863 
L 3091 2763 
Q 2834 2756 2664 2684 
Q 2494 2613 2291 2428 
L 1556 1750 
L 2291 822 
Q 2597 438 2703 334 
Q 2853 188 2966 144 
Q 3044 113 3238 113 
L 3238 0 
L 1847 0 
L 1847 113 
Q 1966 116 2008 148 
Q 2050 181 2050 241 
Q 2050 313 1925 472 
L 1047 1594 
L 1047 644 
Q 1047 366 1086 278 
Q 1125 191 1197 153 
Q 1269 116 1509 113 
L 1509 0 
L 53 0 
L 53 113 
Q 272 113 381 166 
Q 447 200 481 272 
Q 528 375 528 628 
L 528 3234 
Q 528 3731 506 3842 
Q 484 3953 434 3995 
Q 384 4038 303 4038 
Q 238 4038 106 3984 
L 53 4094 
L 903 4444 
L 1047 4444 
z
" transform="scale(0.015625)"/>
       <path id="TimesNewRomanPSMT-62" d="M 984 2369 
Q 1400 2947 1881 2947 
Q 2322 2947 2650 2570 
Q 2978 2194 2978 1541 
Q 2978 778 2472 313 
Q 2038 -88 1503 -88 
Q 1253 -88 995 3 
Q 738 94 469 275 
L 469 3241 
Q 469 3728 445 3840 
Q 422 3953 372 3993 
Q 322 4034 247 4034 
Q 159 4034 28 3984 
L -16 4094 
L 844 4444 
L 984 4444 
L 984 2369 
z
M 984 2169 
L 984 456 
Q 1144 300 1314 220 
Q 1484 141 1663 141 
Q 1947 141 2192 453 
Q 2438 766 2438 1363 
Q 2438 1913 2192 2208 
Q 1947 2503 1634 2503 
Q 1469 2503 1303 2419 
Q 1178 2356 984 2169 
z
" transform="scale(0.015625)"/>
       <path id="TimesNewRomanPSMT-70" d="M -6 2578 
L 875 2934 
L 994 2934 
L 994 2266 
Q 1216 2644 1439 2795 
Q 1663 2947 1909 2947 
Q 2341 2947 2628 2609 
Q 2981 2197 2981 1534 
Q 2981 794 2556 309 
Q 2206 -88 1675 -88 
Q 1444 -88 1275 -22 
Q 1150 25 994 166 
L 994 -706 
Q 994 -1000 1030 -1079 
Q 1066 -1159 1155 -1206 
Q 1244 -1253 1478 -1253 
L 1478 -1369 
L -22 -1369 
L -22 -1253 
L 56 -1253 
Q 228 -1256 350 -1188 
Q 409 -1153 442 -1076 
Q 475 -1000 475 -688 
L 475 2019 
Q 475 2297 450 2372 
Q 425 2447 370 2484 
Q 316 2522 222 2522 
Q 147 2522 31 2478 
L -6 2578 
z
M 994 2081 
L 994 1013 
Q 994 666 1022 556 
Q 1066 375 1236 237 
Q 1406 100 1666 100 
Q 1978 100 2172 344 
Q 2425 663 2425 1241 
Q 2425 1897 2138 2250 
Q 1938 2494 1663 2494 
Q 1513 2494 1366 2419 
Q 1253 2363 994 2081 
z
" transform="scale(0.015625)"/>
      </defs>
      <use xlink:href="#TimesNewRomanPSMT-42"/>
      <use xlink:href="#TimesNewRomanPSMT-69" x="66.699219"/>
      <use xlink:href="#TimesNewRomanPSMT-74" x="94.482422"/>
      <use xlink:href="#TimesNewRomanPSMT-72" x="122.265625"/>
      <use xlink:href="#TimesNewRomanPSMT-61" x="155.566406"/>
      <use xlink:href="#TimesNewRomanPSMT-74" x="199.951172"/>
      <use xlink:href="#TimesNewRomanPSMT-65" x="227.734375"/>
      <use xlink:href="#TimesNewRomanPSMT-20" x="272.119141"/>
      <use xlink:href="#TimesNewRomanPSMT-28" x="297.119141"/>
      <use xlink:href="#TimesNewRomanPSMT-6b" x="330.419922"/>
      <use xlink:href="#TimesNewRomanPSMT-62" x="380.419922"/>
      <use xlink:href="#TimesNewRomanPSMT-70" x="430.419922"/>
      <use xlink:href="#TimesNewRomanPSMT-73" x="480.419922"/>
      <use xlink:href="#TimesNewRomanPSMT-29" x="519.335938"/>
     </g>
    </g>
   </g>
   <g id="line2d_25">
    <path d="M 161.509091 176.650029 
L 163.071647 176.540609 
L 164.634203 176.212686 
L 166.267785 175.637327 
L 167.901367 174.826171 
L 169.605973 173.731292 
L 171.381605 172.325228 
L 173.228263 170.58137 
L 175.216971 168.390798 
L 177.347729 165.696147 
L 179.620538 162.442455 
L 182.035398 158.579423 
L 184.592308 154.064065 
L 187.43332 148.578498 
L 190.558432 142.039037 
L 194.109696 134.064098 
L 198.300188 124.075502 
L 204.053236 109.728661 
L 214.636004 83.273698 
L 218.897521 73.276497 
L 222.448785 65.48757 
L 225.573897 59.145881 
L 228.414909 53.865685 
L 231.042844 49.440792 
L 233.457704 45.797696 
L 235.730513 42.763632 
L 237.861272 40.28472 
L 239.84998 38.302987 
L 241.767662 36.704982 
L 243.543294 35.505827 
L 245.247901 34.612908 
L 246.881483 33.997665 
L 248.515064 33.619873 
L 250.07762 33.481866 
L 251.640177 33.562691 
L 253.202733 33.862102 
L 254.836315 34.407836 
L 256.469896 35.189649 
L 258.174503 36.254319 
L 259.950135 37.629475 
L 261.796792 39.341924 
L 263.7855 41.499662 
L 265.845234 44.066095 
L 268.047017 47.167386 
L 270.390852 50.854352 
L 272.947762 55.300683 
L 275.717748 60.575819 
L 278.771835 66.884994 
L 282.181049 74.450532 
L 286.22949 84.003341 
L 291.485361 97.018904 
L 304.411963 129.262989 
L 308.53143 138.793218 
L 312.011668 146.294738 
L 315.065756 152.366724 
L 317.835742 157.398267 
L 320.392652 161.597793 
L 322.807512 165.139816 
L 325.009295 167.987755 
L 327.069029 170.306581 
L 329.057737 172.21679 
L 330.904394 173.693029 
L 332.680026 174.836247 
L 334.384633 175.674676 
L 336.018215 176.237159 
L 337.651796 176.561842 
L 339.214352 176.648884 
L 340.776909 176.517091 
L 342.339465 176.166866 
L 343.973046 175.568342 
L 345.606628 174.734252 
L 347.311235 173.615771 
L 349.086867 172.185569 
L 351.00455 170.343555 
L 352.993258 168.116004 
L 355.124016 165.383248 
L 357.396825 162.090874 
L 359.811685 158.189241 
L 362.43962 153.503791 
L 365.280632 147.968815 
L 368.405744 141.382134 
L 371.957008 133.363307 
L 376.218525 123.163156 
L 382.184649 108.24649 
L 391.915113 83.917374 
L 396.247656 73.720599 
L 399.869945 65.750329 
L 402.995058 59.387885 
L 405.836069 54.086247 
L 408.464005 49.639532 
L 410.878864 45.974863 
L 413.151673 42.919312 
L 415.282432 40.419338 
L 417.27114 38.417255 
L 419.188823 36.79909 
L 420.964455 35.58088 
L 422.669061 34.669388 
L 424.302643 34.036152 
L 425.936225 33.640238 
L 427.498781 33.484833 
L 429.061337 33.548252 
L 430.623893 33.830301 
L 432.257475 34.357987 
L 433.891056 35.12192 
L 435.595663 36.168173 
L 437.371295 37.52448 
L 439.217953 39.217767 
L 441.206661 41.355465 
L 443.266394 43.901894 
L 445.468178 46.98277 
L 447.812012 50.649237 
L 450.368922 55.074819 
L 453.138908 60.329566 
L 456.192996 66.619011 
L 459.602209 74.166199 
L 463.579625 83.530939 
L 468.764471 96.348807 
L 482.18825 129.812527 
L 486.236691 139.149768 
L 489.645905 146.478397 
L 492.699992 152.535306 
L 495.469978 157.551468 
L 498.026888 161.735488 
L 500.370723 165.164266 
L 502.572506 168.009192 
L 504.63224 170.325081 
L 506.620948 172.232361 
L 508.467605 173.705811 
L 510.243237 174.846295 
L 511.947844 175.682063 
L 513.581425 176.241969 
L 515.215007 176.56406 
L 516.777563 176.648615 
L 518.340119 176.514337 
L 519.902676 176.161635 
L 521.536257 175.560538 
L 523.169839 174.723902 
L 524.874446 173.6028 
L 526.650078 172.169919 
L 528.56776 170.325081 
L 530.556468 168.094691 
L 532.687227 165.359012 
L 534.960036 162.063672 
L 537.374896 158.159079 
L 540.002831 153.470661 
L 542.843843 147.932798 
L 545.968955 141.343363 
L 549.520219 133.321983 
L 553.781736 123.119631 
L 559.818886 108.021783 
L 569.407299 84.046337 
L 573.739841 73.841979 
L 577.362131 65.863174 
L 580.558269 59.353259 
L 583.39928 54.054678 
L 586.027215 49.611074 
L 588.442075 45.949483 
L 590.714884 42.896998 
L 592.845643 40.400031 
L 594.834351 38.400852 
L 596.752033 36.785565 
L 598.527665 35.570076 
L 600.232272 34.661236 
L 601.865854 34.03057 
L 603.499435 33.637244 
L 605.061992 33.484325 
L 606.624548 33.55023 
L 608.187104 33.834759 
L 609.820686 34.365025 
L 611.454267 35.131513 
L 613.158874 36.180398 
L 614.934506 37.5394 
L 616.781164 39.235426 
L 618.769872 41.375989 
L 620.829605 43.925279 
L 623.031389 47.009075 
L 625.375223 50.678475 
L 627.932133 55.107026 
L 630.702119 60.364692 
L 633.756207 66.656963 
L 637.16542 74.206781 
L 641.142836 83.573843 
L 646.327682 96.393457 
L 659.751461 129.854732 
L 663.799902 139.189318 
L 667.209115 146.515079 
L 670.263203 152.568966 
L 673.033189 157.582047 
L 675.590099 161.76296 
L 677.933933 165.188692 
L 680.135717 168.030604 
L 682.19545 170.343555 
L 684.184158 172.247905 
L 686.030816 173.718565 
L 687.806448 174.856315 
L 689.511055 175.689421 
L 691.144636 176.246751 
L 692.778218 176.56625 
L 694.340774 176.648319 
L 695.90333 176.511554 
L 697.465887 176.156375 
L 699.099468 175.552706 
L 700.73305 174.713523 
L 702.437656 173.589802 
L 704.213289 172.154242 
L 706.130971 170.306581 
L 708.119679 168.073354 
L 710.250438 165.334752 
L 712.523247 162.036446 
L 714.938107 158.128897 
L 717.566042 153.437511 
L 720.407053 147.896764 
L 723.532166 141.304578 
L 727.08343 133.280647 
L 731.344947 123.076099 
L 737.382096 107.976838 
L 746.97051 84.003341 
L 751.303052 73.801507 
L 754.925342 65.825543 
L 758.121479 59.318651 
L 760.962491 54.023129 
L 763.590426 49.582639 
L 766.005286 45.924127 
L 768.278095 42.874709 
L 770.408854 40.380748 
L 772.397562 38.384475 
L 774.315244 36.772067 
L 776.090876 35.559299 
L 777.795483 34.653112 
L 779.429065 34.025016 
L 781.062646 33.634278 
L 782.625203 33.483844 
L 784.187759 33.552236 
L 785.750315 33.839246 
L 787.383897 34.37209 
L 789.017478 35.141133 
L 790.722085 36.19265 
L 792.497717 37.554345 
L 794.344374 39.25311 
L 796.333082 41.396538 
L 798.392816 43.948688 
L 800.594599 47.035403 
L 802.938434 50.707734 
L 805.495344 55.139253 
L 808.26533 60.399836 
L 811.319417 66.69493 
L 814.728631 74.247376 
L 818.706047 83.616755 
L 823.890893 96.43811 
L 837.243646 129.72809 
L 841.292087 139.070629 
L 844.701301 146.404982 
L 847.755388 152.467929 
L 850.525374 157.49025 
L 853.082285 161.680477 
L 855.426119 165.115342 
L 857.627903 167.966294 
L 859.687636 170.288056 
L 861.676344 172.201193 
L 863.523001 173.68022 
L 865.298633 174.826171 
L 867.00324 175.667262 
L 868.636822 176.232321 
L 870.270403 176.559596 
L 871.690909 176.650029 
L 871.690909 176.650029 
" clip-path="url(#pbd0e007a2d)" style="fill: none; stroke: #0000ff; stroke-opacity: 0.3; stroke-width: 1.5; stroke-linecap: square"/>
   </g>
   <g id="line2d_26">
    <path d="M 162.988636 178.76023 
L 165.947727 178.76023 
L 167.427273 180.733487 
L 170.386364 182.584323 
L 171.865909 181.536484 
L 174.825 181.536484 
L 179.263636 180.750605 
L 182.222727 179.178847 
L 183.702273 176.224668 
L 186.661364 168.086801 
L 188.140909 166.186167 
L 189.620455 166.186167 
L 191.1 165.954812 
L 192.579545 164.897192 
L 194.059091 162.517546 
L 195.538636 159.047229 
L 197.018182 156.403178 
L 199.977273 153.678847 
L 202.936364 146.94778 
L 204.415909 139.936253 
L 207.375 129.839653 
L 226.609091 129.839653 
L 229.568182 121.614638 
L 231.047727 114.760459 
L 234.006818 98.31043 
L 235.486364 84.602073 
L 238.445455 68.152043 
L 265.077273 68.152043 
L 266.556818 72.264551 
L 268.036364 84.602073 
L 269.515909 101.73752 
L 270.995455 114.760459 
L 272.475 122.985474 
L 275.434091 129.839653 
L 293.188636 129.839653 
L 294.668182 131.52242 
L 297.627273 138.253486 
L 299.106818 139.936253 
L 302.065909 147.003457 
L 303.545455 155.753429 
L 306.504545 165.954812 
L 309.463636 165.492103 
L 312.422727 165.954812 
L 313.902273 166.340403 
L 315.381818 168.014277 
L 316.861364 169.987534 
L 318.340909 172.854392 
L 319.820455 174.201614 
L 321.3 175.249452 
L 322.779545 175.249452 
L 327.218182 174.201614 
L 331.656818 178.392968 
L 336.095455 184.68 
L 347.931818 184.68 
L 349.411364 183.806801 
L 352.370455 181.711124 
L 353.85 181.274524 
L 356.809091 180.750605 
L 358.288636 179.964726 
L 359.768182 178.131008 
L 361.247727 173.430432 
L 364.206818 165.414985 
L 365.686364 162.587319 
L 367.165909 158.885648 
L 368.645455 156.109394 
L 370.125 155.081152 
L 371.604545 155.081152 
L 373.084091 153.678847 
L 374.563636 151.99608 
L 376.043182 148.630547 
L 377.522727 146.667319 
L 379.002273 142.340205 
L 381.961364 132.243605 
L 383.440909 129.839653 
L 404.154545 129.839653 
L 407.113636 121.614638 
L 408.593182 111.33337 
L 410.072727 103.108355 
L 413.031818 82.252068 
L 414.511364 74.027054 
L 415.990909 68.152043 
L 484.05 68.152043 
L 487.009091 84.953773 
L 488.488636 111.83654 
L 489.968182 130.318443 
L 491.447727 155.521037 
L 494.406818 168.96242 
L 532.875 168.96242 
L 537.313636 166.186167 
L 538.793182 166.186167 
L 541.752273 164.335331 
L 547.670455 153.678847 
L 550.629545 149.47193 
L 552.109091 148.770777 
L 555.068182 146.246627 
L 556.547727 142.340205 
L 559.506818 132.243605 
L 560.986364 129.839653 
L 581.7 129.839653 
L 583.179545 126.902148 
L 584.659091 122.78964 
L 586.138636 115.935462 
L 590.577273 104.479191 
L 592.056818 94.883341 
L 593.536364 86.658326 
L 595.015909 80.489565 
L 599.454545 80.489565 
L 600.934091 82.252068 
L 603.893182 87.735411 
L 605.372727 90.085416 
L 608.331818 90.085416 
L 609.811364 88.71458 
L 611.290909 90.085416 
L 612.770455 87.343744 
L 614.25 83.916655 
L 615.729545 79.11873 
L 617.209091 78.433312 
L 620.168182 79.804147 
L 621.647727 79.804147 
L 624.606818 78.433312 
L 629.045455 80.489565 
L 630.525 80.489565 
L 634.963636 78.433312 
L 639.402273 78.433312 
L 640.881818 80.146856 
L 642.361364 83.573946 
L 643.840909 92.998442 
L 645.320455 104.307837 
L 646.8 113.903687 
L 649.759091 122.300056 
L 651.238636 126.412563 
L 652.718182 129.839653 
L 671.952273 129.839653 
L 676.390909 140.807722 
L 677.870455 140.807722 
L 679.35 143.245071 
L 680.829545 148.729106 
L 682.309091 157.259826 
L 683.788636 164.22368 
L 685.268182 173.363738 
L 686.747727 179.45711 
L 688.227273 184.68 
L 695.625 184.68 
L 700.063636 181.536484 
L 701.543182 181.274524 
L 703.022727 180.575965 
L 704.502273 179.528127 
L 705.981818 177.8441 
L 707.461364 175.224504 
L 708.940909 172.080988 
L 710.420455 169.835619 
L 711.9 168.191239 
L 713.379545 167.420057 
L 714.859091 166.494639 
L 716.338636 166.109049 
L 717.818182 164.897192 
L 719.297727 162.517546 
L 720.777273 159.047229 
L 722.256818 155.000872 
L 723.736364 150.313313 
L 725.215909 146.106397 
L 726.695455 139.094869 
L 728.175 134.046569 
L 729.654545 129.839653 
L 748.888636 129.839653 
L 750.368182 126.412563 
L 753.327273 116.131295 
L 754.806818 114.417751 
L 756.286364 109.277116 
L 757.765909 102.080229 
L 760.725 81.517692 
L 762.204545 73.292678 
L 763.684091 68.152043 
L 840.620455 68.152043 
L 842.1 74.625819 
L 845.059091 105.699941 
L 846.538636 118.647491 
L 848.018182 126.416022 
L 849.497727 138.623712 
L 850.977273 158.045038 
L 852.456818 173.582099 
L 853.936364 184.68 
L 856.895455 184.68 
L 856.895455 184.68 
" clip-path="url(#pbd0e007a2d)" style="fill: none; stroke: #1f77b4; stroke-opacity: 0.7; stroke-width: 1.5; stroke-linecap: square"/>
   </g>
   <g id="line2d_27">
    <path d="M 162.988636 171.495129 
L 164.468182 171.495129 
L 168.906818 168.059827 
L 173.345455 155.571354 
L 176.304545 164.970778 
L 177.784091 165.572507 
L 180.743182 157.376541 
L 182.222727 158.148933 
L 183.702273 162.744899 
L 185.181818 160.93608 
L 186.661364 158.35487 
L 188.140909 151.950086 
L 189.620455 154.385014 
L 191.1 157.810259 
L 192.579545 155.915331 
L 194.059091 151.585475 
L 195.538636 143.321498 
L 197.018182 140.377693 
L 199.977273 127.418842 
L 201.456818 116.751637 
L 202.936364 109.556046 
L 204.415909 105.432275 
L 205.895455 98.880541 
L 208.854545 81.50434 
L 210.334091 79.367972 
L 214.772727 85.777075 
L 216.252273 88.127079 
L 217.731818 88.127079 
L 219.211364 85.189574 
L 220.690909 79.902064 
L 222.170455 76.964559 
L 226.609091 75.862995 
L 231.047727 68.152043 
L 238.445455 68.152043 
L 241.404545 75.111226 
L 242.884091 79.428229 
L 244.363636 80.318143 
L 245.843182 80.671352 
L 248.802273 79.807951 
L 250.281818 79.807951 
L 251.761364 78.911343 
L 254.720455 76.69117 
L 256.2 76.477692 
L 259.159091 80.068115 
L 260.638636 84.246214 
L 263.597727 84.764148 
L 265.077273 82.640228 
L 266.556818 83.85047 
L 268.036364 85.564015 
L 269.515909 87.872372 
L 270.995455 90.556655 
L 272.475 92.852909 
L 273.954545 92.485906 
L 276.913636 87.123369 
L 278.393182 86.452908 
L 279.872727 86.019119 
L 281.352273 85.402173 
L 282.831818 83.871338 
L 284.311364 82.121513 
L 285.790909 80.554843 
L 287.270455 79.902064 
L 288.75 80.314346 
L 291.709091 80.34716 
L 293.188636 78.247156 
L 294.668182 76.543027 
L 297.627273 72.250316 
L 299.106818 70.021365 
L 300.586364 68.152043 
L 313.902273 68.152043 
L 315.381818 75.006222 
L 318.340909 75.006222 
L 319.820455 68.152043 
L 322.779545 68.152043 
L 327.218182 97.291814 
L 328.697727 104.535906 
L 330.177273 114.627837 
L 331.656818 120.9102 
L 333.136364 118.806742 
L 334.615909 113.855445 
L 336.095455 112.713716 
L 339.054545 121.114581 
L 340.534091 122.845849 
L 343.493182 117.90752 
L 347.931818 112.597001 
L 349.411364 119.448413 
L 352.370455 119.476708 
L 353.85 112.639443 
L 358.288636 121.682073 
L 362.727273 117.690949 
L 364.206818 121.918961 
L 365.686364 115.687261 
L 367.165909 107.399307 
L 368.645455 86.658326 
L 370.125 76.377058 
L 371.604545 68.152043 
L 373.084091 72.264551 
L 376.043182 85.972908 
L 377.522727 91.874893 
L 381.961364 105.821324 
L 383.440909 102.455791 
L 384.920455 90.865243 
L 386.4 76.377058 
L 387.879545 68.152043 
L 390.838636 68.152043 
L 392.318182 73.75262 
L 395.277273 84.033888 
L 396.756818 83.573946 
L 401.195455 83.573946 
L 402.675 85.906165 
L 404.154545 90.003571 
L 405.634091 91.30213 
L 407.113636 88.753459 
L 408.593182 81.800144 
L 410.072727 77.645677 
L 411.552273 72.721496 
L 414.511364 68.152043 
L 417.470455 68.152043 
L 418.95 72.352476 
L 420.429545 78.041551 
L 421.909091 84.233914 
L 423.388636 85.722557 
L 424.868182 85.722557 
L 426.347727 85.219269 
L 430.786364 82.640228 
L 432.265909 85.797361 
L 435.225 87.966881 
L 436.704545 85.894509 
L 438.184091 86.786858 
L 439.663636 90.26694 
L 441.143182 92.733898 
L 442.622727 94.308506 
L 444.102273 93.295382 
L 445.581818 93.790515 
L 448.540909 89.980286 
L 450.020455 87.580039 
L 451.5 88.581326 
L 454.459091 86.845258 
L 455.938636 84.975937 
L 457.418182 85.59535 
L 458.897727 86.780888 
L 460.377273 84.600013 
L 461.856818 81.799725 
L 463.336364 78.433312 
L 467.775 74.320804 
L 472.213636 68.152043 
L 475.172727 73.292678 
L 476.652273 77.405185 
L 479.611364 79.11873 
L 481.090909 78.433312 
L 482.570455 78.433312 
L 489.968182 95.568759 
L 491.447727 104.136482 
L 492.927273 109.277116 
L 494.406818 109.277116 
L 497.365909 98.995848 
L 500.325 105.096136 
L 501.804545 105.096136 
L 504.763636 98.995848 
L 512.161364 98.995848 
L 513.640909 103.202765 
L 516.6 103.202765 
L 518.079545 98.995848 
L 519.559091 98.995848 
L 521.038636 106.268471 
L 523.997727 114.688529 
L 525.477273 111.625935 
L 526.956818 111.76288 
L 531.395455 105.767524 
L 532.875 108.705029 
L 534.354545 113.908467 
L 535.834091 115.712913 
L 537.313636 114.579854 
L 538.793182 111.180863 
L 543.231818 108.77654 
L 544.711364 109.25533 
L 546.190909 107.591311 
L 547.670455 105.733386 
L 549.15 99.598977 
L 552.109091 91.809681 
L 556.547727 76.964559 
L 563.945455 76.964559 
L 565.425 77.454143 
L 568.384091 71.579133 
L 569.863636 68.152043 
L 572.822727 74.591237 
L 574.302273 81.835329 
L 575.781818 86.438211 
L 577.261364 87.419047 
L 578.740909 84.375387 
L 580.220455 80.753341 
L 581.7 81.353402 
L 584.659091 72.952538 
L 586.138636 68.152043 
L 593.536364 68.152043 
L 595.015909 71.37164 
L 596.495455 76.922072 
L 597.975 81.778701 
L 599.454545 83.415733 
L 600.934091 82.721928 
L 605.372727 68.152043 
L 609.811364 82.721928 
L 611.290909 82.721928 
L 612.770455 83.415733 
L 614.25 85.160833 
L 615.729545 84.037923 
L 617.209091 82.221208 
L 618.688636 75.619479 
L 621.647727 68.152043 
L 623.127273 68.152043 
L 624.606818 70.208297 
L 627.565909 70.208297 
L 629.045455 68.152043 
L 633.484091 74.320804 
L 637.922727 68.152043 
L 657.156818 68.152043 
L 658.636364 71.206903 
L 661.595455 73.842062 
L 663.075 72.104781 
L 664.554545 72.656523 
L 667.513636 72.656523 
L 668.993182 70.787202 
L 671.952273 68.152043 
L 673.431818 70.021365 
L 676.390909 83.729723 
L 677.870455 88.71458 
L 686.747727 88.71458 
L 688.227273 89.104493 
L 689.706818 87.390949 
L 691.186364 84.649277 
L 692.665909 77.405185 
L 694.145455 72.264551 
L 695.625 68.152043 
L 697.104545 75.922649 
L 700.063636 85.523637 
L 701.543182 82.553526 
L 704.502273 86.393921 
L 705.981818 89.994292 
L 708.940909 86.834176 
L 710.420455 78.433312 
L 713.379545 68.152043 
L 716.338636 72.721496 
L 717.818182 72.721496 
L 720.777273 68.152043 
L 821.386364 68.152043 
L 822.865909 69.620796 
L 825.825 75.104139 
L 827.304545 76.377058 
L 828.784091 76.572892 
L 830.263636 77.25831 
L 831.743182 79.657272 
L 833.222727 82.327731 
L 834.702273 83.470095 
L 836.181818 82.898913 
L 837.661364 79.861266 
L 839.140909 77.720776 
L 840.620455 73.151323 
L 843.579545 68.152043 
L 856.895455 68.152043 
L 856.895455 68.152043 
" clip-path="url(#pbd0e007a2d)" style="fill: none; stroke: #ff7f0e; stroke-opacity: 0.7; stroke-width: 1.5; stroke-linecap: square"/>
   </g>
   <g id="line2d_28">
    <path d="M 162.988636 175.151634 
L 165.947727 175.151634 
L 167.427273 176.088316 
L 168.906818 175.525121 
L 170.386364 173.46205 
L 171.865909 170.462297 
L 173.345455 166.485187 
L 174.825 164.007953 
L 176.304545 161.2317 
L 179.263636 160.633659 
L 180.743182 158.36191 
L 183.702273 149.948077 
L 185.181818 148.01291 
L 186.661364 147.544124 
L 189.620455 135.42862 
L 191.1 129.839653 
L 195.538636 134.046569 
L 199.977273 129.839653 
L 210.334091 129.839653 
L 211.813636 121.027137 
L 214.772727 100.464601 
L 216.252273 98.995848 
L 217.731818 105.850027 
L 220.690909 109.962534 
L 222.170455 105.164609 
L 225.129545 109.277116 
L 226.609091 109.79118 
L 229.568182 106.706799 
L 232.527273 96.996713 
L 234.006818 87.082633 
L 236.965909 76.964559 
L 238.445455 87.735411 
L 239.925 87.735411 
L 241.404545 84.797906 
L 242.884091 71.089549 
L 244.363636 68.152043 
L 248.802273 78.433312 
L 250.281818 80.881233 
L 253.240909 74.027054 
L 254.720455 68.152043 
L 256.2 76.964559 
L 259.159091 98.212513 
L 260.638636 99.681266 
L 262.118182 98.204981 
L 265.077273 77.642445 
L 266.556818 68.152043 
L 272.475 68.152043 
L 273.954545 72.352476 
L 275.434091 82.884622 
L 276.913636 102.581347 
L 278.393182 119.105673 
L 279.872727 125.086496 
L 281.352273 121.902739 
L 282.831818 117.690949 
L 284.311364 118.07654 
L 285.790909 119.586544 
L 288.75 129.842819 
L 290.229545 133.756282 
L 294.668182 133.23216 
L 296.147727 134.765213 
L 299.106818 145.400372 
L 300.586364 149.184898 
L 302.065909 149.527426 
L 305.025 141.933519 
L 306.504545 137.794038 
L 309.463636 143.807253 
L 310.943182 147.470057 
L 313.902273 150.457089 
L 315.381818 151.294408 
L 316.861364 151.294408 
L 318.340909 151.975676 
L 319.820455 153.969336 
L 321.3 165.108242 
L 322.779545 172.941095 
L 324.259091 179.461556 
L 325.738636 176.836772 
L 330.177273 179.461556 
L 333.136364 182.961268 
L 334.615909 183.66121 
L 337.575 181.561383 
L 342.013636 180.211494 
L 344.972727 183.211247 
L 346.452273 180.961433 
L 349.411364 171.898147 
L 350.890909 169.42219 
L 353.85 166.034178 
L 355.329545 165.367953 
L 358.288636 162.829048 
L 359.768182 161.863169 
L 361.247727 158.990547 
L 362.727273 152.709608 
L 364.206818 145.537101 
L 365.686364 140.874565 
L 367.165909 134.211082 
L 370.125 123.392555 
L 373.084091 119.045952 
L 374.563636 114.245457 
L 377.522727 108.991073 
L 379.002273 109.672242 
L 381.961364 110.486045 
L 384.920455 99.697315 
L 386.4 94.440084 
L 387.879545 95.958672 
L 389.359091 94.050171 
L 390.838636 89.399998 
L 392.318182 83.231237 
L 393.797727 80.489565 
L 396.756818 88.71458 
L 398.236364 89.742707 
L 401.195455 83.573946 
L 404.154545 85.042698 
L 405.634091 85.61388 
L 407.113636 85.450685 
L 408.593182 84.716309 
L 411.552273 73.292678 
L 413.031818 68.152043 
L 424.868182 68.152043 
L 426.347727 69.086704 
L 429.306818 73.199211 
L 430.786364 76.377058 
L 432.265909 78.433312 
L 433.745455 79.540525 
L 436.704545 77.642445 
L 441.143182 77.642445 
L 442.622727 78.591485 
L 445.581818 79.11873 
L 447.061364 76.93396 
L 450.020455 73.017286 
L 451.5 72.558301 
L 455.938636 68.152043 
L 458.897727 71.579133 
L 460.377273 71.579133 
L 463.336364 68.152043 
L 464.815909 71.089549 
L 466.295455 74.516638 
L 467.775 74.516638 
L 469.254545 71.579133 
L 470.734091 68.152043 
L 476.652273 68.152043 
L 481.090909 98.995848 
L 482.570455 98.995848 
L 484.05 109.277116 
L 487.009091 109.277116 
L 488.488636 98.995848 
L 492.927273 129.839653 
L 507.722727 129.839653 
L 512.161364 76.964559 
L 515.120455 111.700385 
L 516.6 125.56461 
L 518.079545 122.466742 
L 519.559091 113.666886 
L 522.518182 103.886194 
L 523.997727 110.078557 
L 525.477273 115.219191 
L 526.956818 116.159393 
L 528.436364 107.194552 
L 529.915909 99.281439 
L 531.395455 95.568759 
L 535.834091 108.025243 
L 537.313636 105.015445 
L 540.272727 98.161266 
L 541.752273 97.743975 
L 546.190909 88.71458 
L 550.629545 78.433312 
L 552.109091 85.28749 
L 555.068182 94.883341 
L 556.547727 92.827087 
L 558.027273 96.025704 
L 560.986364 100.138211 
L 562.465909 98.995848 
L 563.945455 101.052102 
L 566.904545 90.770834 
L 568.384091 83.573946 
L 569.863636 92.141669 
L 572.822727 90.085416 
L 574.302273 80.489565 
L 578.740909 88.71458 
L 580.220455 85.972908 
L 581.7 81.689047 
L 583.179545 74.834868 
L 584.659091 70.72236 
L 586.138636 68.152043 
L 592.056818 68.152043 
L 595.015909 74.027054 
L 596.495455 79.167688 
L 597.975 81.370817 
L 599.454545 84.859104 
L 602.413636 89.265362 
L 603.893182 89.265362 
L 606.852273 84.859104 
L 608.331818 83.573946 
L 612.770455 83.573946 
L 615.729545 85.630199 
L 617.209091 86.364576 
L 620.168182 85.777075 
L 623.127273 94.58959 
L 624.606818 97.853485 
L 627.565909 95.568759 
L 630.525 107.640362 
L 632.004545 109.834454 
L 634.963636 102.151036 
L 636.443182 103.17654 
L 639.402273 101.073082 
L 640.881818 98.995848 
L 642.361364 100.138211 
L 645.320455 113.67971 
L 646.8 117.366742 
L 649.759091 113.484033 
L 654.197727 107.008034 
L 655.677273 112.188833 
L 657.156818 118.280785 
L 658.636364 126.089595 
L 660.115909 127.689365 
L 661.595455 128.377981 
L 663.075 127.349739 
L 664.554545 130.148587 
L 667.513636 140.222362 
L 668.993182 142.460402 
L 673.431818 137.664206 
L 676.390909 144.376368 
L 677.870455 152.200921 
L 680.829545 157.436195 
L 682.309091 155.58536 
L 683.788636 156.510777 
L 685.268182 158.025129 
L 686.747727 160.310662 
L 688.227273 163.93319 
L 689.706818 166.877859 
L 691.186364 166.877859 
L 692.665909 163.71804 
L 694.145455 159.77438 
L 695.625 158.004207 
L 697.104545 157.13144 
L 700.063636 150.87368 
L 701.543182 140.272094 
L 704.502273 125.326684 
L 705.981818 129.439192 
L 707.461364 134.519307 
L 708.940909 134.519307 
L 710.420455 130.4068 
L 711.9 120.955997 
L 713.379545 116.585309 
L 714.859091 109.277116 
L 717.818182 103.402106 
L 720.777273 113.41561 
L 722.256818 114.067056 
L 723.736364 109.711751 
L 725.215909 104.37861 
L 728.175 102.422938 
L 731.134091 110.41948 
L 732.613636 105.850027 
L 735.572727 88.71458 
L 737.052273 94.711986 
L 738.531818 99.424234 
L 740.011364 98.445066 
L 741.490909 91.468491 
L 742.970455 85.777075 
L 747.409091 73.292678 
L 751.847727 95.283168 
L 753.327273 95.140373 
L 754.806818 98.481785 
L 757.765909 99.18278 
L 759.245455 96.191866 
L 763.684091 94.58959 
L 766.643182 95.242369 
L 768.122727 94.654868 
L 769.602273 93.740978 
L 771.081818 91.79896 
L 774.040909 89.742707 
L 777 98.443469 
L 778.479545 100.242691 
L 781.438636 95.140373 
L 782.918182 94.369277 
L 785.877273 90.087145 
L 787.356818 88.717174 
L 788.836364 96.255906 
L 791.795455 115.445877 
L 793.275 113.903687 
L 796.234091 106.706799 
L 800.672727 109.277116 
L 805.111364 109.277808 
L 809.55 102.851324 
L 812.509091 108.506021 
L 813.988636 107.220863 
L 816.947727 98.995848 
L 819.906818 98.995848 
L 822.865909 105.659331 
L 824.345455 111.267565 
L 825.825 113.894758 
L 827.304545 118.273967 
L 828.784091 118.377549 
L 830.263636 118.130431 
L 831.743182 116.131295 
L 833.222727 121.635618 
L 834.702273 126.205071 
L 836.181818 122.666742 
L 837.661364 113.624091 
L 839.140909 105.516309 
L 843.579545 134.965315 
L 845.059091 134.915681 
L 846.538636 136.762462 
L 848.018182 139.998406 
L 849.497727 140.479884 
L 850.977273 139.114581 
L 852.456818 134.285763 
L 855.415909 130.137059 
L 856.895455 132.646108 
L 856.895455 132.646108 
" clip-path="url(#pbd0e007a2d)" style="fill: none; stroke: #2ca02c; stroke-opacity: 0.7; stroke-width: 1.5; stroke-linecap: square"/>
   </g>
   <g id="patch_3">
    <path d="M 126 192.24 
L 126 25.92 
" style="fill: none; stroke: #000000; stroke-width: 0.8; stroke-linejoin: miter; stroke-linecap: square"/>
   </g>
   <g id="patch_4">
    <path d="M 907.2 192.24 
L 907.2 25.92 
" style="fill: none; stroke: #000000; stroke-width: 0.8; stroke-linejoin: miter; stroke-linecap: square"/>
   </g>
   <g id="patch_5">
    <path d="M 126 192.24 
L 907.2 192.24 
" style="fill: none; stroke: #000000; stroke-width: 0.8; stroke-linejoin: miter; stroke-linecap: square"/>
   </g>
   <g id="patch_6">
    <path d="M 126 25.92 
L 907.2 25.92 
" style="fill: none; stroke: #000000; stroke-width: 0.8; stroke-linejoin: miter; stroke-linecap: square"/>
   </g>
   <g id="legend_1">
    <g id="patch_7">
     <path d="M 787.842 185.04 
L 897.12 185.04 
Q 900 185.04 900 182.16 
L 900 102.132 
Q 900 99.252 897.12 99.252 
L 787.842 99.252 
Q 784.962 99.252 784.962 102.132 
L 784.962 182.16 
Q 784.962 185.04 787.842 185.04 
z
" style="fill: #ffffff; opacity: 0.8; stroke: #cccccc; stroke-linejoin: miter"/>
    </g>
    <g id="line2d_29">
     <path d="M 790.722 110.052 
L 805.122 110.052 
L 819.522 110.052 
" style="fill: none; stroke: #0000ff; stroke-opacity: 0.3; stroke-width: 1.5; stroke-linecap: square"/>
    </g>
    <g id="text_15">
     <!-- Bandwidth -->
     <g transform="translate(831.042 115.092) scale(0.144 -0.144)">
      <defs>
       <path id="TimesNewRomanPSMT-6e" d="M 1034 2341 
Q 1538 2947 1994 2947 
Q 2228 2947 2397 2830 
Q 2566 2713 2666 2444 
Q 2734 2256 2734 1869 
L 2734 647 
Q 2734 375 2778 278 
Q 2813 200 2889 156 
Q 2966 113 3172 113 
L 3172 0 
L 1756 0 
L 1756 113 
L 1816 113 
Q 2016 113 2095 173 
Q 2175 234 2206 353 
Q 2219 400 2219 647 
L 2219 1819 
Q 2219 2209 2117 2386 
Q 2016 2563 1775 2563 
Q 1403 2563 1034 2156 
L 1034 647 
Q 1034 356 1069 288 
Q 1113 197 1189 155 
Q 1266 113 1500 113 
L 1500 0 
L 84 0 
L 84 113 
L 147 113 
Q 366 113 442 223 
Q 519 334 519 647 
L 519 1709 
Q 519 2225 495 2337 
Q 472 2450 423 2490 
Q 375 2531 294 2531 
Q 206 2531 84 2484 
L 38 2597 
L 900 2947 
L 1034 2947 
L 1034 2341 
z
" transform="scale(0.015625)"/>
       <path id="TimesNewRomanPSMT-64" d="M 2222 322 
Q 2013 103 1813 7 
Q 1613 -88 1381 -88 
Q 913 -88 563 304 
Q 213 697 213 1313 
Q 213 1928 600 2439 
Q 988 2950 1597 2950 
Q 1975 2950 2222 2709 
L 2222 3238 
Q 2222 3728 2198 3840 
Q 2175 3953 2125 3993 
Q 2075 4034 2000 4034 
Q 1919 4034 1784 3984 
L 1744 4094 
L 2597 4444 
L 2738 4444 
L 2738 1134 
Q 2738 631 2761 520 
Q 2784 409 2836 365 
Q 2888 322 2956 322 
Q 3041 322 3181 375 
L 3216 266 
L 2366 -88 
L 2222 -88 
L 2222 322 
z
M 2222 541 
L 2222 2016 
Q 2203 2228 2109 2403 
Q 2016 2578 1861 2667 
Q 1706 2756 1559 2756 
Q 1284 2756 1069 2509 
Q 784 2184 784 1559 
Q 784 928 1059 592 
Q 1334 256 1672 256 
Q 1956 256 2222 541 
z
" transform="scale(0.015625)"/>
       <path id="TimesNewRomanPSMT-77" d="M 41 2863 
L 1241 2863 
L 1241 2747 
Q 1075 2734 1023 2687 
Q 972 2641 972 2553 
Q 972 2456 1025 2319 
L 1638 672 
L 2253 2013 
L 2091 2434 
Q 2016 2622 1894 2694 
Q 1825 2738 1638 2747 
L 1638 2863 
L 3000 2863 
L 3000 2747 
Q 2775 2738 2681 2666 
Q 2619 2616 2619 2506 
Q 2619 2444 2644 2378 
L 3294 734 
L 3897 2319 
Q 3959 2488 3959 2588 
Q 3959 2647 3898 2694 
Q 3838 2741 3659 2747 
L 3659 2863 
L 4563 2863 
L 4563 2747 
Q 4291 2706 4163 2378 
L 3206 -88 
L 3078 -88 
L 2363 1741 
L 1528 -88 
L 1413 -88 
L 494 2319 
Q 403 2547 315 2626 
Q 228 2706 41 2747 
L 41 2863 
z
" transform="scale(0.015625)"/>
       <path id="TimesNewRomanPSMT-68" d="M 1041 4444 
L 1041 2350 
Q 1388 2731 1591 2839 
Q 1794 2947 1997 2947 
Q 2241 2947 2416 2812 
Q 2591 2678 2675 2391 
Q 2734 2191 2734 1659 
L 2734 647 
Q 2734 375 2778 275 
Q 2809 200 2884 156 
Q 2959 113 3159 113 
L 3159 0 
L 1753 0 
L 1753 113 
L 1819 113 
Q 2019 113 2097 173 
Q 2175 234 2206 353 
Q 2216 403 2216 647 
L 2216 1659 
Q 2216 2128 2167 2275 
Q 2119 2422 2012 2495 
Q 1906 2569 1756 2569 
Q 1603 2569 1437 2487 
Q 1272 2406 1041 2159 
L 1041 647 
Q 1041 353 1073 281 
Q 1106 209 1195 161 
Q 1284 113 1503 113 
L 1503 0 
L 84 0 
L 84 113 
Q 275 113 384 172 
Q 447 203 484 290 
Q 522 378 522 647 
L 522 3238 
Q 522 3728 498 3840 
Q 475 3953 426 3993 
Q 378 4034 297 4034 
Q 231 4034 84 3984 
L 41 4094 
L 897 4444 
L 1041 4444 
z
" transform="scale(0.015625)"/>
      </defs>
      <use xlink:href="#TimesNewRomanPSMT-42"/>
      <use xlink:href="#TimesNewRomanPSMT-61" x="66.699219"/>
      <use xlink:href="#TimesNewRomanPSMT-6e" x="111.083984"/>
      <use xlink:href="#TimesNewRomanPSMT-64" x="161.083984"/>
      <use xlink:href="#TimesNewRomanPSMT-77" x="211.083984"/>
      <use xlink:href="#TimesNewRomanPSMT-69" x="283.300781"/>
      <use xlink:href="#TimesNewRomanPSMT-64" x="311.083984"/>
      <use xlink:href="#TimesNewRomanPSMT-74" x="361.083984"/>
      <use xlink:href="#TimesNewRomanPSMT-68" x="388.867188"/>
     </g>
    </g>
    <g id="line2d_30">
     <path d="M 790.722 130.41225 
L 805.122 130.41225 
L 819.522 130.41225 
" style="fill: none; stroke: #1f77b4; stroke-opacity: 0.7; stroke-width: 1.5; stroke-linecap: square"/>
    </g>
    <g id="text_16">
     <!-- bola -->
     <g transform="translate(831.042 135.45225) scale(0.144 -0.144)">
      <defs>
       <path id="TimesNewRomanPSMT-6f" d="M 1600 2947 
Q 2250 2947 2644 2453 
Q 2978 2031 2978 1484 
Q 2978 1100 2793 706 
Q 2609 313 2286 112 
Q 1963 -88 1566 -88 
Q 919 -88 538 428 
Q 216 863 216 1403 
Q 216 1797 411 2186 
Q 606 2575 925 2761 
Q 1244 2947 1600 2947 
z
M 1503 2744 
Q 1338 2744 1170 2645 
Q 1003 2547 900 2300 
Q 797 2053 797 1666 
Q 797 1041 1045 587 
Q 1294 134 1700 134 
Q 2003 134 2200 384 
Q 2397 634 2397 1244 
Q 2397 2006 2069 2444 
Q 1847 2744 1503 2744 
z
" transform="scale(0.015625)"/>
       <path id="TimesNewRomanPSMT-6c" d="M 1184 4444 
L 1184 647 
Q 1184 378 1223 290 
Q 1263 203 1344 158 
Q 1425 113 1647 113 
L 1647 0 
L 244 0 
L 244 113 
Q 441 113 512 153 
Q 584 194 625 287 
Q 666 381 666 647 
L 666 3247 
Q 666 3731 644 3842 
Q 622 3953 573 3993 
Q 525 4034 450 4034 
Q 369 4034 244 3984 
L 191 4094 
L 1044 4444 
L 1184 4444 
z
" transform="scale(0.015625)"/>
      </defs>
      <use xlink:href="#TimesNewRomanPSMT-62"/>
      <use xlink:href="#TimesNewRomanPSMT-6f" x="50"/>
      <use xlink:href="#TimesNewRomanPSMT-6c" x="100"/>
      <use xlink:href="#TimesNewRomanPSMT-61" x="127.783203"/>
     </g>
    </g>
    <g id="line2d_31">
     <path d="M 790.722 150.7725 
L 805.122 150.7725 
L 819.522 150.7725 
" style="fill: none; stroke: #ff7f0e; stroke-opacity: 0.7; stroke-width: 1.5; stroke-linecap: square"/>
    </g>
    <g id="text_17">
     <!-- comyco -->
     <g transform="translate(831.042 155.8125) scale(0.144 -0.144)">
      <defs>
       <path id="TimesNewRomanPSMT-63" d="M 2631 1088 
Q 2516 522 2178 217 
Q 1841 -88 1431 -88 
Q 944 -88 581 321 
Q 219 731 219 1428 
Q 219 2103 620 2525 
Q 1022 2947 1584 2947 
Q 2006 2947 2278 2723 
Q 2550 2500 2550 2259 
Q 2550 2141 2473 2067 
Q 2397 1994 2259 1994 
Q 2075 1994 1981 2113 
Q 1928 2178 1911 2362 
Q 1894 2547 1784 2644 
Q 1675 2738 1481 2738 
Q 1169 2738 978 2506 
Q 725 2200 725 1697 
Q 725 1184 976 792 
Q 1228 400 1656 400 
Q 1963 400 2206 609 
Q 2378 753 2541 1131 
L 2631 1088 
z
" transform="scale(0.015625)"/>
       <path id="TimesNewRomanPSMT-79" d="M 38 2863 
L 1372 2863 
L 1372 2747 
L 1306 2747 
Q 1166 2747 1095 2686 
Q 1025 2625 1025 2534 
Q 1025 2413 1128 2197 
L 1825 753 
L 2466 2334 
Q 2519 2463 2519 2588 
Q 2519 2644 2497 2672 
Q 2472 2706 2419 2726 
Q 2366 2747 2231 2747 
L 2231 2863 
L 3163 2863 
L 3163 2747 
Q 3047 2734 2984 2696 
Q 2922 2659 2847 2556 
Q 2819 2513 2741 2316 
L 1575 -541 
Q 1406 -956 1132 -1168 
Q 859 -1381 606 -1381 
Q 422 -1381 303 -1275 
Q 184 -1169 184 -1031 
Q 184 -900 270 -820 
Q 356 -741 506 -741 
Q 609 -741 788 -809 
Q 913 -856 944 -856 
Q 1038 -856 1148 -759 
Q 1259 -663 1372 -384 
L 1575 113 
L 547 2272 
Q 500 2369 397 2513 
Q 319 2622 269 2659 
Q 197 2709 38 2747 
L 38 2863 
z
" transform="scale(0.015625)"/>
      </defs>
      <use xlink:href="#TimesNewRomanPSMT-63"/>
      <use xlink:href="#TimesNewRomanPSMT-6f" x="44.384766"/>
      <use xlink:href="#TimesNewRomanPSMT-6d" x="94.384766"/>
      <use xlink:href="#TimesNewRomanPSMT-79" x="172.167969"/>
      <use xlink:href="#TimesNewRomanPSMT-63" x="222.167969"/>
      <use xlink:href="#TimesNewRomanPSMT-6f" x="266.552734"/>
     </g>
    </g>
    <g id="line2d_32">
     <path d="M 790.722 171.15975 
L 805.122 171.15975 
L 819.522 171.15975 
" style="fill: none; stroke: #2ca02c; stroke-opacity: 0.7; stroke-width: 1.5; stroke-linecap: square"/>
    </g>
    <g id="text_18">
     <!-- pensieve -->
     <g transform="translate(831.042 176.19975) scale(0.144 -0.144)">
      <defs>
       <path id="TimesNewRomanPSMT-76" d="M 53 2863 
L 1400 2863 
L 1400 2747 
L 1313 2747 
Q 1191 2747 1127 2687 
Q 1063 2628 1063 2528 
Q 1063 2419 1128 2269 
L 1794 688 
L 2463 2328 
Q 2534 2503 2534 2594 
Q 2534 2638 2509 2666 
Q 2475 2713 2422 2730 
Q 2369 2747 2206 2747 
L 2206 2863 
L 3141 2863 
L 3141 2747 
Q 2978 2734 2916 2681 
Q 2806 2588 2719 2369 
L 1703 -88 
L 1575 -88 
L 553 2328 
Q 484 2497 421 2570 
Q 359 2644 263 2694 
Q 209 2722 53 2747 
L 53 2863 
z
" transform="scale(0.015625)"/>
      </defs>
      <use xlink:href="#TimesNewRomanPSMT-70"/>
      <use xlink:href="#TimesNewRomanPSMT-65" x="50"/>
      <use xlink:href="#TimesNewRomanPSMT-6e" x="94.384766"/>
      <use xlink:href="#TimesNewRomanPSMT-73" x="144.384766"/>
      <use xlink:href="#TimesNewRomanPSMT-69" x="183.300781"/>
      <use xlink:href="#TimesNewRomanPSMT-65" x="211.083984"/>
      <use xlink:href="#TimesNewRomanPSMT-76" x="255.46875"/>
      <use xlink:href="#TimesNewRomanPSMT-65" x="305.46875"/>
     </g>
    </g>
   </g>
  </g>
 </g>
 <defs>
  <clipPath id="pbd0e007a2d">
   <rect x="126" y="25.92" width="781.2" height="166.32"/>
  </clipPath>
 </defs>
</svg>
