<?xml version="1.0" encoding="utf-8" standalone="no"?>
<!DOCTYPE svg PUBLIC "-//W3C//DTD SVG 1.1//EN"
  "http://www.w3.org/Graphics/SVG/1.1/DTD/svg11.dtd">
<svg xmlns:xlink="http://www.w3.org/1999/xlink" width="1008pt" height="216pt" viewBox="0 0 1008 216" xmlns="http://www.w3.org/2000/svg" version="1.1">
 <metadata>
  <rdf:RDF xmlns:dc="http://purl.org/dc/elements/1.1/" xmlns:cc="http://creativecommons.org/ns#" xmlns:rdf="http://www.w3.org/1999/02/22-rdf-syntax-ns#">
   <cc:Work>
    <dc:type rdf:resource="http://purl.org/dc/dcmitype/StillImage"/>
    <dc:date>2024-04-13T04:39:27.045218</dc:date>
    <dc:format>image/svg+xml</dc:format>
    <dc:creator>
     <cc:Agent>
      <dc:title>Matplotlib v3.8.3, https://matplotlib.org/</dc:title>
     </cc:Agent>
    </dc:creator>
   </cc:Work>
  </rdf:RDF>
 </metadata>
 <defs>
  <style type="text/css">*{stroke-linejoin: round; stroke-linecap: butt}</style>
 </defs>
 <g id="figure_1">
  <g id="patch_1">
   <path d="M 0 216 
L 1008 216 
L 1008 0 
L 0 0 
z
" style="fill: #ffffff"/>
  </g>
  <g id="axes_1">
   <g id="patch_2">
    <path d="M 126 192.24 
L 907.2 192.24 
L 907.2 25.92 
L 126 25.92 
z
" style="fill: #ffffff"/>
   </g>
   <g id="matplotlib.axis_1">
    <g id="xtick_1">
     <g id="line2d_1">
      <path d="M 159.994844 192.24 
L 159.994844 25.92 
" clip-path="url(#p76ce18ebce)" style="fill: none; stroke: #b0b0b0; stroke-width: 0.8; stroke-linecap: square"/>
     </g>
     <g id="line2d_2">
      <defs>
       <path id="m74c32759d7" d="M 0 0 
L 0 3.5 
" style="stroke: #000000; stroke-width: 0.8"/>
      </defs>
      <g>
       <use xlink:href="#m74c32759d7" x="159.994844" y="192.24" style="stroke: #000000; stroke-width: 0.8"/>
      </g>
     </g>
     <g id="text_1">
      <!-- 0 -->
      <g transform="translate(155.494844 211.73875) scale(0.18 -0.18)">
       <defs>
        <path id="TimesNewRomanPSMT-30" d="M 231 2094 
Q 231 2819 450 3342 
Q 669 3866 1031 4122 
Q 1313 4325 1613 4325 
Q 2100 4325 2488 3828 
Q 2972 3213 2972 2159 
Q 2972 1422 2759 906 
Q 2547 391 2217 158 
Q 1888 -75 1581 -75 
Q 975 -75 572 641 
Q 231 1244 231 2094 
z
M 844 2016 
Q 844 1141 1059 588 
Q 1238 122 1591 122 
Q 1759 122 1940 273 
Q 2122 425 2216 781 
Q 2359 1319 2359 2297 
Q 2359 3022 2209 3506 
Q 2097 3866 1919 4016 
Q 1791 4119 1609 4119 
Q 1397 4119 1231 3928 
Q 1006 3669 925 3112 
Q 844 2556 844 2016 
z
" transform="scale(0.015625)"/>
       </defs>
       <use xlink:href="#TimesNewRomanPSMT-30"/>
      </g>
     </g>
    </g>
    <g id="xtick_2">
     <g id="line2d_3">
      <path d="M 311.419539 192.24 
L 311.419539 25.92 
" clip-path="url(#p76ce18ebce)" style="fill: none; stroke: #b0b0b0; stroke-width: 0.8; stroke-linecap: square"/>
     </g>
     <g id="line2d_4">
      <g>
       <use xlink:href="#m74c32759d7" x="311.419539" y="192.24" style="stroke: #000000; stroke-width: 0.8"/>
      </g>
     </g>
     <g id="text_2">
      <!-- 100 -->
      <g transform="translate(297.919539 211.73875) scale(0.18 -0.18)">
       <defs>
        <path id="TimesNewRomanPSMT-31" d="M 750 3822 
L 1781 4325 
L 1884 4325 
L 1884 747 
Q 1884 391 1914 303 
Q 1944 216 2037 169 
Q 2131 122 2419 116 
L 2419 0 
L 825 0 
L 825 116 
Q 1125 122 1212 167 
Q 1300 213 1334 289 
Q 1369 366 1369 747 
L 1369 3034 
Q 1369 3497 1338 3628 
Q 1316 3728 1258 3775 
Q 1200 3822 1119 3822 
Q 1003 3822 797 3725 
L 750 3822 
z
" transform="scale(0.015625)"/>
       </defs>
       <use xlink:href="#TimesNewRomanPSMT-31"/>
       <use xlink:href="#TimesNewRomanPSMT-30" x="50"/>
       <use xlink:href="#TimesNewRomanPSMT-30" x="100"/>
      </g>
     </g>
    </g>
    <g id="xtick_3">
     <g id="line2d_5">
      <path d="M 462.844233 192.24 
L 462.844233 25.92 
" clip-path="url(#p76ce18ebce)" style="fill: none; stroke: #b0b0b0; stroke-width: 0.8; stroke-linecap: square"/>
     </g>
     <g id="line2d_6">
      <g>
       <use xlink:href="#m74c32759d7" x="462.844233" y="192.24" style="stroke: #000000; stroke-width: 0.8"/>
      </g>
     </g>
     <g id="text_3">
      <!-- 200 -->
      <g transform="translate(449.344233 211.73875) scale(0.18 -0.18)">
       <defs>
        <path id="TimesNewRomanPSMT-32" d="M 2934 816 
L 2638 0 
L 138 0 
L 138 116 
Q 1241 1122 1691 1759 
Q 2141 2397 2141 2925 
Q 2141 3328 1894 3587 
Q 1647 3847 1303 3847 
Q 991 3847 742 3664 
Q 494 3481 375 3128 
L 259 3128 
Q 338 3706 661 4015 
Q 984 4325 1469 4325 
Q 1984 4325 2329 3994 
Q 2675 3663 2675 3213 
Q 2675 2891 2525 2569 
Q 2294 2063 1775 1497 
Q 997 647 803 472 
L 1909 472 
Q 2247 472 2383 497 
Q 2519 522 2628 598 
Q 2738 675 2819 816 
L 2934 816 
z
" transform="scale(0.015625)"/>
       </defs>
       <use xlink:href="#TimesNewRomanPSMT-32"/>
       <use xlink:href="#TimesNewRomanPSMT-30" x="50"/>
       <use xlink:href="#TimesNewRomanPSMT-30" x="100"/>
      </g>
     </g>
    </g>
    <g id="xtick_4">
     <g id="line2d_7">
      <path d="M 614.268928 192.24 
L 614.268928 25.92 
" clip-path="url(#p76ce18ebce)" style="fill: none; stroke: #b0b0b0; stroke-width: 0.8; stroke-linecap: square"/>
     </g>
     <g id="line2d_8">
      <g>
       <use xlink:href="#m74c32759d7" x="614.268928" y="192.24" style="stroke: #000000; stroke-width: 0.8"/>
      </g>
     </g>
     <g id="text_4">
      <!-- 300 -->
      <g transform="translate(600.768928 211.73875) scale(0.18 -0.18)">
       <defs>
        <path id="TimesNewRomanPSMT-33" d="M 325 3431 
Q 506 3859 782 4092 
Q 1059 4325 1472 4325 
Q 1981 4325 2253 3994 
Q 2459 3747 2459 3466 
Q 2459 3003 1878 2509 
Q 2269 2356 2469 2072 
Q 2669 1788 2669 1403 
Q 2669 853 2319 450 
Q 1863 -75 997 -75 
Q 569 -75 414 31 
Q 259 138 259 259 
Q 259 350 332 419 
Q 406 488 509 488 
Q 588 488 669 463 
Q 722 447 909 348 
Q 1097 250 1169 231 
Q 1284 197 1416 197 
Q 1734 197 1970 444 
Q 2206 691 2206 1028 
Q 2206 1275 2097 1509 
Q 2016 1684 1919 1775 
Q 1784 1900 1550 2001 
Q 1316 2103 1072 2103 
L 972 2103 
L 972 2197 
Q 1219 2228 1467 2375 
Q 1716 2522 1828 2728 
Q 1941 2934 1941 3181 
Q 1941 3503 1739 3701 
Q 1538 3900 1238 3900 
Q 753 3900 428 3381 
L 325 3431 
z
" transform="scale(0.015625)"/>
       </defs>
       <use xlink:href="#TimesNewRomanPSMT-33"/>
       <use xlink:href="#TimesNewRomanPSMT-30" x="50"/>
       <use xlink:href="#TimesNewRomanPSMT-30" x="100"/>
      </g>
     </g>
    </g>
    <g id="xtick_5">
     <g id="line2d_9">
      <path d="M 765.693623 192.24 
L 765.693623 25.92 
" clip-path="url(#p76ce18ebce)" style="fill: none; stroke: #b0b0b0; stroke-width: 0.8; stroke-linecap: square"/>
     </g>
     <g id="line2d_10">
      <g>
       <use xlink:href="#m74c32759d7" x="765.693623" y="192.24" style="stroke: #000000; stroke-width: 0.8"/>
      </g>
     </g>
     <g id="text_5">
      <!-- 400 -->
      <g transform="translate(752.193623 211.73875) scale(0.18 -0.18)">
       <defs>
        <path id="TimesNewRomanPSMT-34" d="M 2978 1563 
L 2978 1119 
L 2409 1119 
L 2409 0 
L 1894 0 
L 1894 1119 
L 100 1119 
L 100 1519 
L 2066 4325 
L 2409 4325 
L 2409 1563 
L 2978 1563 
z
M 1894 1563 
L 1894 3666 
L 406 1563 
L 1894 1563 
z
" transform="scale(0.015625)"/>
       </defs>
       <use xlink:href="#TimesNewRomanPSMT-34"/>
       <use xlink:href="#TimesNewRomanPSMT-30" x="50"/>
       <use xlink:href="#TimesNewRomanPSMT-30" x="100"/>
      </g>
     </g>
    </g>
    <g id="text_6">
     <!-- Time (s) -->
     <g transform="translate(482.795313 233.476562) scale(0.2 -0.2)">
      <defs>
       <path id="TimesNewRomanPSMT-54" d="M 3703 4238 
L 3750 3244 
L 3631 3244 
Q 3597 3506 3538 3619 
Q 3441 3800 3280 3886 
Q 3119 3972 2856 3972 
L 2259 3972 
L 2259 734 
Q 2259 344 2344 247 
Q 2463 116 2709 116 
L 2856 116 
L 2856 0 
L 1059 0 
L 1059 116 
L 1209 116 
Q 1478 116 1591 278 
Q 1659 378 1659 734 
L 1659 3972 
L 1150 3972 
Q 853 3972 728 3928 
Q 566 3869 450 3700 
Q 334 3531 313 3244 
L 194 3244 
L 244 4238 
L 3703 4238 
z
" transform="scale(0.015625)"/>
       <path id="TimesNewRomanPSMT-69" d="M 928 4444 
Q 1059 4444 1151 4351 
Q 1244 4259 1244 4128 
Q 1244 3997 1151 3903 
Q 1059 3809 928 3809 
Q 797 3809 703 3903 
Q 609 3997 609 4128 
Q 609 4259 701 4351 
Q 794 4444 928 4444 
z
M 1188 2947 
L 1188 647 
Q 1188 378 1227 289 
Q 1266 200 1342 156 
Q 1419 113 1622 113 
L 1622 0 
L 231 0 
L 231 113 
Q 441 113 512 153 
Q 584 194 626 287 
Q 669 381 669 647 
L 669 1750 
Q 669 2216 641 2353 
Q 619 2453 572 2492 
Q 525 2531 444 2531 
Q 356 2531 231 2484 
L 188 2597 
L 1050 2947 
L 1188 2947 
z
" transform="scale(0.015625)"/>
       <path id="TimesNewRomanPSMT-6d" d="M 1050 2338 
Q 1363 2650 1419 2697 
Q 1559 2816 1721 2881 
Q 1884 2947 2044 2947 
Q 2313 2947 2506 2790 
Q 2700 2634 2766 2338 
Q 3088 2713 3309 2830 
Q 3531 2947 3766 2947 
Q 3994 2947 4170 2830 
Q 4347 2713 4450 2447 
Q 4519 2266 4519 1878 
L 4519 647 
Q 4519 378 4559 278 
Q 4591 209 4675 161 
Q 4759 113 4950 113 
L 4950 0 
L 3538 0 
L 3538 113 
L 3597 113 
Q 3781 113 3884 184 
Q 3956 234 3988 344 
Q 4000 397 4000 647 
L 4000 1878 
Q 4000 2228 3916 2372 
Q 3794 2572 3525 2572 
Q 3359 2572 3192 2489 
Q 3025 2406 2788 2181 
L 2781 2147 
L 2788 2013 
L 2788 647 
Q 2788 353 2820 281 
Q 2853 209 2943 161 
Q 3034 113 3253 113 
L 3253 0 
L 1806 0 
L 1806 113 
Q 2044 113 2133 169 
Q 2222 225 2256 338 
Q 2272 391 2272 647 
L 2272 1878 
Q 2272 2228 2169 2381 
Q 2031 2581 1784 2581 
Q 1616 2581 1450 2491 
Q 1191 2353 1050 2181 
L 1050 647 
Q 1050 366 1089 281 
Q 1128 197 1204 155 
Q 1281 113 1516 113 
L 1516 0 
L 100 0 
L 100 113 
Q 297 113 375 155 
Q 453 197 493 289 
Q 534 381 534 647 
L 534 1741 
Q 534 2213 506 2350 
Q 484 2453 437 2492 
Q 391 2531 309 2531 
Q 222 2531 100 2484 
L 53 2597 
L 916 2947 
L 1050 2947 
L 1050 2338 
z
" transform="scale(0.015625)"/>
       <path id="TimesNewRomanPSMT-65" d="M 681 1784 
Q 678 1147 991 784 
Q 1303 422 1725 422 
Q 2006 422 2214 576 
Q 2422 731 2563 1106 
L 2659 1044 
Q 2594 616 2278 264 
Q 1963 -88 1488 -88 
Q 972 -88 605 314 
Q 238 716 238 1394 
Q 238 2128 614 2539 
Q 991 2950 1559 2950 
Q 2041 2950 2350 2633 
Q 2659 2316 2659 1784 
L 681 1784 
z
M 681 1966 
L 2006 1966 
Q 1991 2241 1941 2353 
Q 1863 2528 1708 2628 
Q 1553 2728 1384 2728 
Q 1125 2728 920 2526 
Q 716 2325 681 1966 
z
" transform="scale(0.015625)"/>
       <path id="TimesNewRomanPSMT-20" transform="scale(0.015625)"/>
       <path id="TimesNewRomanPSMT-28" d="M 1988 -1253 
L 1988 -1369 
Q 1516 -1131 1200 -813 
Q 750 -359 506 256 
Q 263 872 263 1534 
Q 263 2503 741 3301 
Q 1219 4100 1988 4444 
L 1988 4313 
Q 1603 4100 1356 3731 
Q 1109 3363 987 2797 
Q 866 2231 866 1616 
Q 866 947 969 400 
Q 1050 -31 1165 -292 
Q 1281 -553 1476 -793 
Q 1672 -1034 1988 -1253 
z
" transform="scale(0.015625)"/>
       <path id="TimesNewRomanPSMT-73" d="M 2050 2947 
L 2050 1972 
L 1947 1972 
Q 1828 2431 1642 2597 
Q 1456 2763 1169 2763 
Q 950 2763 815 2647 
Q 681 2531 681 2391 
Q 681 2216 781 2091 
Q 878 1963 1175 1819 
L 1631 1597 
Q 2266 1288 2266 781 
Q 2266 391 1970 151 
Q 1675 -88 1309 -88 
Q 1047 -88 709 6 
Q 606 38 541 38 
Q 469 38 428 -44 
L 325 -44 
L 325 978 
L 428 978 
Q 516 541 762 319 
Q 1009 97 1316 97 
Q 1531 97 1667 223 
Q 1803 350 1803 528 
Q 1803 744 1651 891 
Q 1500 1038 1047 1263 
Q 594 1488 453 1669 
Q 313 1847 313 2119 
Q 313 2472 555 2709 
Q 797 2947 1181 2947 
Q 1350 2947 1591 2875 
Q 1750 2828 1803 2828 
Q 1853 2828 1881 2850 
Q 1909 2872 1947 2947 
L 2050 2947 
z
" transform="scale(0.015625)"/>
       <path id="TimesNewRomanPSMT-29" d="M 144 4313 
L 144 4444 
Q 619 4209 934 3891 
Q 1381 3434 1625 2820 
Q 1869 2206 1869 1541 
Q 1869 572 1392 -226 
Q 916 -1025 144 -1369 
L 144 -1253 
Q 528 -1038 776 -670 
Q 1025 -303 1145 264 
Q 1266 831 1266 1447 
Q 1266 2113 1163 2663 
Q 1084 3094 967 3353 
Q 850 3613 656 3853 
Q 463 4094 144 4313 
z
" transform="scale(0.015625)"/>
      </defs>
      <use xlink:href="#TimesNewRomanPSMT-54"/>
      <use xlink:href="#TimesNewRomanPSMT-69" x="57.583984"/>
      <use xlink:href="#TimesNewRomanPSMT-6d" x="85.367188"/>
      <use xlink:href="#TimesNewRomanPSMT-65" x="163.150391"/>
      <use xlink:href="#TimesNewRomanPSMT-20" x="207.535156"/>
      <use xlink:href="#TimesNewRomanPSMT-28" x="232.535156"/>
      <use xlink:href="#TimesNewRomanPSMT-73" x="265.835938"/>
      <use xlink:href="#TimesNewRomanPSMT-29" x="304.751953"/>
     </g>
    </g>
   </g>
   <g id="matplotlib.axis_2">
    <g id="ytick_1">
     <g id="line2d_11">
      <path d="M 126 184.68 
L 907.2 184.68 
" clip-path="url(#p76ce18ebce)" style="fill: none; stroke: #b0b0b0; stroke-width: 0.8; stroke-linecap: square"/>
     </g>
     <g id="line2d_12">
      <defs>
       <path id="m4b70a2ad95" d="M 0 0 
L -3.5 0 
" style="stroke: #000000; stroke-width: 0.8"/>
      </defs>
      <g>
       <use xlink:href="#m4b70a2ad95" x="126" y="184.68" style="stroke: #000000; stroke-width: 0.8"/>
      </g>
     </g>
     <g id="text_7">
      <!-- 0 -->
      <g transform="translate(110 190.929375) scale(0.18 -0.18)">
       <use xlink:href="#TimesNewRomanPSMT-30"/>
      </g>
     </g>
    </g>
    <g id="ytick_2">
     <g id="line2d_13">
      <path d="M 126 160.386941 
L 907.2 160.386941 
" clip-path="url(#p76ce18ebce)" style="fill: none; stroke: #b0b0b0; stroke-width: 0.8; stroke-linecap: square"/>
     </g>
     <g id="line2d_14">
      <g>
       <use xlink:href="#m4b70a2ad95" x="126" y="160.386941" style="stroke: #000000; stroke-width: 0.8"/>
      </g>
     </g>
     <g id="text_8">
      <!-- 5 -->
      <g transform="translate(110 166.636316) scale(0.18 -0.18)">
       <defs>
        <path id="TimesNewRomanPSMT-35" d="M 2778 4238 
L 2534 3706 
L 1259 3706 
L 981 3138 
Q 1809 3016 2294 2522 
Q 2709 2097 2709 1522 
Q 2709 1188 2573 903 
Q 2438 619 2231 419 
Q 2025 219 1772 97 
Q 1413 -75 1034 -75 
Q 653 -75 479 54 
Q 306 184 306 341 
Q 306 428 378 495 
Q 450 563 559 563 
Q 641 563 702 538 
Q 763 513 909 409 
Q 1144 247 1384 247 
Q 1750 247 2026 523 
Q 2303 800 2303 1197 
Q 2303 1581 2056 1914 
Q 1809 2247 1375 2428 
Q 1034 2569 447 2591 
L 1259 4238 
L 2778 4238 
z
" transform="scale(0.015625)"/>
       </defs>
       <use xlink:href="#TimesNewRomanPSMT-35"/>
      </g>
     </g>
    </g>
    <g id="ytick_3">
     <g id="line2d_15">
      <path d="M 126 136.093882 
L 907.2 136.093882 
" clip-path="url(#p76ce18ebce)" style="fill: none; stroke: #b0b0b0; stroke-width: 0.8; stroke-linecap: square"/>
     </g>
     <g id="line2d_16">
      <g>
       <use xlink:href="#m4b70a2ad95" x="126" y="136.093882" style="stroke: #000000; stroke-width: 0.8"/>
      </g>
     </g>
     <g id="text_9">
      <!-- 10 -->
      <g transform="translate(101 142.343257) scale(0.18 -0.18)">
       <use xlink:href="#TimesNewRomanPSMT-31"/>
       <use xlink:href="#TimesNewRomanPSMT-30" x="50"/>
      </g>
     </g>
    </g>
    <g id="ytick_4">
     <g id="line2d_17">
      <path d="M 126 111.800823 
L 907.2 111.800823 
" clip-path="url(#p76ce18ebce)" style="fill: none; stroke: #b0b0b0; stroke-width: 0.8; stroke-linecap: square"/>
     </g>
     <g id="line2d_18">
      <g>
       <use xlink:href="#m4b70a2ad95" x="126" y="111.800823" style="stroke: #000000; stroke-width: 0.8"/>
      </g>
     </g>
     <g id="text_10">
      <!-- 15 -->
      <g transform="translate(101 118.050198) scale(0.18 -0.18)">
       <use xlink:href="#TimesNewRomanPSMT-31"/>
       <use xlink:href="#TimesNewRomanPSMT-35" x="50"/>
      </g>
     </g>
    </g>
    <g id="ytick_5">
     <g id="line2d_19">
      <path d="M 126 87.507763 
L 907.2 87.507763 
" clip-path="url(#p76ce18ebce)" style="fill: none; stroke: #b0b0b0; stroke-width: 0.8; stroke-linecap: square"/>
     </g>
     <g id="line2d_20">
      <g>
       <use xlink:href="#m4b70a2ad95" x="126" y="87.507763" style="stroke: #000000; stroke-width: 0.8"/>
      </g>
     </g>
     <g id="text_11">
      <!-- 20 -->
      <g transform="translate(101 93.757138) scale(0.18 -0.18)">
       <use xlink:href="#TimesNewRomanPSMT-32"/>
       <use xlink:href="#TimesNewRomanPSMT-30" x="50"/>
      </g>
     </g>
    </g>
    <g id="ytick_6">
     <g id="line2d_21">
      <path d="M 126 63.214704 
L 907.2 63.214704 
" clip-path="url(#p76ce18ebce)" style="fill: none; stroke: #b0b0b0; stroke-width: 0.8; stroke-linecap: square"/>
     </g>
     <g id="line2d_22">
      <g>
       <use xlink:href="#m4b70a2ad95" x="126" y="63.214704" style="stroke: #000000; stroke-width: 0.8"/>
      </g>
     </g>
     <g id="text_12">
      <!-- 25 -->
      <g transform="translate(101 69.464079) scale(0.18 -0.18)">
       <use xlink:href="#TimesNewRomanPSMT-32"/>
       <use xlink:href="#TimesNewRomanPSMT-35" x="50"/>
      </g>
     </g>
    </g>
    <g id="ytick_7">
     <g id="line2d_23">
      <path d="M 126 38.921645 
L 907.2 38.921645 
" clip-path="url(#p76ce18ebce)" style="fill: none; stroke: #b0b0b0; stroke-width: 0.8; stroke-linecap: square"/>
     </g>
     <g id="line2d_24">
      <g>
       <use xlink:href="#m4b70a2ad95" x="126" y="38.921645" style="stroke: #000000; stroke-width: 0.8"/>
      </g>
     </g>
     <g id="text_13">
      <!-- 30 -->
      <g transform="translate(101 45.17102) scale(0.18 -0.18)">
       <use xlink:href="#TimesNewRomanPSMT-33"/>
       <use xlink:href="#TimesNewRomanPSMT-30" x="50"/>
      </g>
     </g>
    </g>
    <g id="text_14">
     <!-- Buffer (s) -->
     <g transform="translate(92.721875 148.055) rotate(-90) scale(0.2 -0.2)">
      <defs>
       <path id="TimesNewRomanPSMT-42" d="M 2956 2163 
Q 3397 2069 3616 1863 
Q 3919 1575 3919 1159 
Q 3919 844 3719 555 
Q 3519 266 3170 133 
Q 2822 0 2106 0 
L 106 0 
L 106 116 
L 266 116 
Q 531 116 647 284 
Q 719 394 719 750 
L 719 3488 
Q 719 3881 628 3984 
Q 506 4122 266 4122 
L 106 4122 
L 106 4238 
L 1938 4238 
Q 2450 4238 2759 4163 
Q 3228 4050 3475 3764 
Q 3722 3478 3722 3106 
Q 3722 2788 3528 2536 
Q 3334 2284 2956 2163 
z
M 1319 2331 
Q 1434 2309 1582 2298 
Q 1731 2288 1909 2288 
Q 2366 2288 2595 2386 
Q 2825 2484 2947 2687 
Q 3069 2891 3069 3131 
Q 3069 3503 2766 3765 
Q 2463 4028 1881 4028 
Q 1569 4028 1319 3959 
L 1319 2331 
z
M 1319 306 
Q 1681 222 2034 222 
Q 2600 222 2897 476 
Q 3194 731 3194 1106 
Q 3194 1353 3059 1581 
Q 2925 1809 2622 1940 
Q 2319 2072 1872 2072 
Q 1678 2072 1540 2065 
Q 1403 2059 1319 2044 
L 1319 306 
z
" transform="scale(0.015625)"/>
       <path id="TimesNewRomanPSMT-75" d="M 2709 2863 
L 2709 1128 
Q 2709 631 2732 520 
Q 2756 409 2807 365 
Q 2859 322 2928 322 
Q 3025 322 3147 375 
L 3191 266 
L 2334 -88 
L 2194 -88 
L 2194 519 
Q 1825 119 1631 15 
Q 1438 -88 1222 -88 
Q 981 -88 804 51 
Q 628 191 559 409 
Q 491 628 491 1028 
L 491 2306 
Q 491 2509 447 2587 
Q 403 2666 317 2708 
Q 231 2750 6 2747 
L 6 2863 
L 1009 2863 
L 1009 947 
Q 1009 547 1148 422 
Q 1288 297 1484 297 
Q 1619 297 1789 381 
Q 1959 466 2194 703 
L 2194 2325 
Q 2194 2569 2105 2655 
Q 2016 2741 1734 2747 
L 1734 2863 
L 2709 2863 
z
" transform="scale(0.015625)"/>
       <path id="TimesNewRomanPSMT-66" d="M 1319 2638 
L 1319 756 
Q 1319 356 1406 250 
Q 1522 113 1716 113 
L 1975 113 
L 1975 0 
L 266 0 
L 266 113 
L 394 113 
Q 519 113 622 175 
Q 725 238 764 344 
Q 803 450 803 756 
L 803 2638 
L 247 2638 
L 247 2863 
L 803 2863 
L 803 3050 
Q 803 3478 940 3775 
Q 1078 4072 1361 4255 
Q 1644 4438 1997 4438 
Q 2325 4438 2600 4225 
Q 2781 4084 2781 3909 
Q 2781 3816 2700 3733 
Q 2619 3650 2525 3650 
Q 2453 3650 2373 3701 
Q 2294 3753 2178 3923 
Q 2063 4094 1966 4153 
Q 1869 4213 1750 4213 
Q 1606 4213 1506 4136 
Q 1406 4059 1362 3898 
Q 1319 3738 1319 3069 
L 1319 2863 
L 2056 2863 
L 2056 2638 
L 1319 2638 
z
" transform="scale(0.015625)"/>
       <path id="TimesNewRomanPSMT-72" d="M 1038 2947 
L 1038 2303 
Q 1397 2947 1775 2947 
Q 1947 2947 2059 2842 
Q 2172 2738 2172 2600 
Q 2172 2478 2090 2393 
Q 2009 2309 1897 2309 
Q 1788 2309 1652 2417 
Q 1516 2525 1450 2525 
Q 1394 2525 1328 2463 
Q 1188 2334 1038 2041 
L 1038 669 
Q 1038 431 1097 309 
Q 1138 225 1241 169 
Q 1344 113 1538 113 
L 1538 0 
L 72 0 
L 72 113 
Q 291 113 397 181 
Q 475 231 506 341 
Q 522 394 522 644 
L 522 1753 
Q 522 2253 501 2348 
Q 481 2444 426 2487 
Q 372 2531 291 2531 
Q 194 2531 72 2484 
L 41 2597 
L 906 2947 
L 1038 2947 
z
" transform="scale(0.015625)"/>
      </defs>
      <use xlink:href="#TimesNewRomanPSMT-42"/>
      <use xlink:href="#TimesNewRomanPSMT-75" x="66.699219"/>
      <use xlink:href="#TimesNewRomanPSMT-66" x="116.699219"/>
      <use xlink:href="#TimesNewRomanPSMT-66" x="148.25"/>
      <use xlink:href="#TimesNewRomanPSMT-65" x="181.550781"/>
      <use xlink:href="#TimesNewRomanPSMT-72" x="225.935547"/>
      <use xlink:href="#TimesNewRomanPSMT-20" x="259.236328"/>
      <use xlink:href="#TimesNewRomanPSMT-28" x="284.236328"/>
      <use xlink:href="#TimesNewRomanPSMT-73" x="317.537109"/>
      <use xlink:href="#TimesNewRomanPSMT-29" x="356.453125"/>
     </g>
    </g>
   </g>
   <g id="line2d_25">
    <path d="M 161.509091 171.259542 
L 163.023338 165.369933 
L 164.537585 162.880704 
L 166.051832 152.573321 
L 167.566079 144.572159 
L 169.080326 134.954375 
L 170.594573 127.856915 
L 172.10882 121.651172 
L 173.623066 112.114689 
L 175.137313 105.21708 
L 176.65156 99.047938 
L 178.165807 98.352185 
L 179.680054 99.390308 
L 181.194301 100.674278 
L 182.708548 100.889136 
L 184.222795 99.340859 
L 185.737042 97.546735 
L 188.765536 95.503203 
L 190.279783 94.367907 
L 194.822524 87.774602 
L 196.336771 86.187594 
L 197.851018 84.855177 
L 200.879512 78.528509 
L 202.393758 72.545614 
L 203.908005 68.488889 
L 205.422252 63.121419 
L 206.936499 60.564494 
L 208.450746 57.717023 
L 209.964993 55.669095 
L 211.47924 54.145573 
L 212.993487 51.876278 
L 214.507734 48.803229 
L 216.021981 45.256249 
L 217.536228 42.257838 
L 219.050475 40.577082 
L 220.564722 39.370257 
L 222.078969 39.081979 
L 223.593216 39.103033 
L 225.107463 38.739933 
L 228.135957 37.558886 
L 229.650204 37.338952 
L 234.192944 37.363111 
L 237.221438 38.659172 
L 238.735685 40.177111 
L 240.249932 41.054576 
L 241.764179 42.083576 
L 244.792673 42.391639 
L 250.849661 42.488271 
L 252.363908 42.542931 
L 256.906649 42.177887 
L 259.935142 42.654679 
L 261.449389 43.032787 
L 262.963636 43.172499 
L 264.477883 43.953116 
L 265.99213 45.126201 
L 267.506377 46.629995 
L 269.020624 48.370674 
L 270.534871 50.978668 
L 273.563365 57.062784 
L 275.077612 58.863817 
L 276.591859 60.400272 
L 278.106106 61.053324 
L 279.620353 61.547985 
L 281.1346 61.542532 
L 285.677341 60.284152 
L 288.705834 61.279627 
L 290.220081 63.002437 
L 291.734328 64.447118 
L 293.248575 66.91146 
L 294.762822 68.513183 
L 297.791316 73.138581 
L 299.305563 76.686663 
L 302.334057 84.970596 
L 303.848304 88.132257 
L 306.876798 91.319506 
L 308.391045 93.699524 
L 309.905292 96.599144 
L 311.419539 99.048451 
L 312.933786 102.282721 
L 314.448033 106.547287 
L 315.96228 111.458129 
L 317.476526 114.847728 
L 318.990773 117.504093 
L 320.50502 120.495054 
L 322.019267 122.914087 
L 323.533514 126.058581 
L 325.047761 128.774221 
L 328.076255 135.824067 
L 329.590502 140.328648 
L 331.104749 144.274812 
L 332.618996 146.767928 
L 334.133243 148.318797 
L 335.64749 148.978839 
L 337.161737 149.379108 
L 338.675984 148.793078 
L 340.190231 148.888226 
L 344.732972 146.541112 
L 349.275712 148.91673 
L 350.789959 149.883918 
L 353.818453 142.439877 
L 355.3327 136.906242 
L 359.875441 123.184874 
L 361.389688 122.135738 
L 362.903935 118.344725 
L 364.418182 113.149735 
L 365.932429 104.660121 
L 367.446676 93.927771 
L 370.47517 69.307152 
L 371.989417 58.553181 
L 373.503664 50.8575 
L 375.01791 46.002937 
L 378.046404 43.005147 
L 381.074898 41.401481 
L 382.589145 42.311283 
L 384.103392 42.261725 
L 385.617639 41.964054 
L 387.131886 40.756581 
L 388.646133 40.508468 
L 393.188874 43.650694 
L 394.703121 43.362093 
L 396.217368 42.120231 
L 397.731615 40.687589 
L 399.245862 37.701891 
L 400.760109 35.654229 
L 402.274355 33.826176 
L 403.788602 35.221812 
L 406.817096 35.58 
L 408.331343 34.344698 
L 411.359837 34.307179 
L 412.874084 35.382794 
L 415.902578 36.535095 
L 417.416825 36.03563 
L 421.959566 38.878704 
L 423.473813 38.885692 
L 426.502307 39.363779 
L 428.016554 39.457955 
L 429.530801 39.313087 
L 431.045047 39.030964 
L 434.073541 38.756452 
L 435.587788 38.997494 
L 438.616282 38.756506 
L 440.130529 38.394972 
L 444.67327 35.656658 
L 446.187517 36.409095 
L 449.216011 37.201859 
L 450.730258 36.845803 
L 452.244505 37.273226 
L 455.272999 38.636715 
L 456.787246 38.848442 
L 458.301493 38.763254 
L 459.815739 38.988694 
L 462.844233 38.903992 
L 464.35848 38.636202 
L 467.386974 40.28597 
L 468.901221 41.78882 
L 471.929715 41.478571 
L 473.443962 40.645481 
L 477.986703 42.933887 
L 481.015197 44.613671 
L 482.529444 45.307157 
L 484.043691 45.218406 
L 485.557938 45.578591 
L 487.072185 46.25491 
L 488.586431 47.615051 
L 490.100678 48.615008 
L 496.157666 51.416051 
L 497.671913 51.580272 
L 499.18616 52.378272 
L 500.700407 54.30455 
L 502.214654 56.56178 
L 503.728901 59.178737 
L 505.243148 61.053837 
L 506.757395 63.200776 
L 508.271642 64.354211 
L 509.785889 65.132992 
L 511.300136 65.144761 
L 514.32863 68.360406 
L 515.842877 70.776324 
L 517.357123 71.966036 
L 518.87137 73.798461 
L 520.385617 74.743623 
L 521.899864 75.313053 
L 523.414111 75.239769 
L 524.928358 75.817674 
L 526.442605 75.545267 
L 527.956852 74.360414 
L 530.985346 70.794463 
L 534.01384 65.929157 
L 535.528087 64.241599 
L 540.070828 62.859459 
L 541.585075 62.198688 
L 544.613569 58.567928 
L 546.127815 56.897213 
L 549.156309 56.115301 
L 550.670556 56.428519 
L 552.184803 54.51617 
L 553.69905 51.971391 
L 555.213297 47.716542 
L 556.727544 44.803805 
L 558.241791 42.523496 
L 559.756038 41.555985 
L 562.784532 41.387877 
L 565.813026 42.331743 
L 567.327273 41.450067 
L 570.355767 38.742848 
L 574.898507 38.678391 
L 577.927001 38.690699 
L 583.983989 38.900996 
L 585.498236 39.550188 
L 587.012483 41.008176 
L 588.52673 42.709365 
L 590.040977 43.522616 
L 591.555224 43.527069 
L 593.069471 43.288323 
L 596.097965 43.448495 
L 600.640706 45.679704 
L 602.154953 45.39472 
L 605.183446 44.522977 
L 606.697693 44.458195 
L 608.21194 44.276888 
L 612.754681 38.816375 
L 614.268928 39.514261 
L 617.297422 41.340829 
L 618.811669 41.53153 
L 620.325916 41.482134 
L 624.868657 43.778314 
L 626.382904 44.692057 
L 627.897151 45.314931 
L 629.411398 45.192494 
L 630.925645 43.159488 
L 632.439891 41.417352 
L 633.954138 40.420527 
L 636.982632 42.615972 
L 638.496879 44.008288 
L 640.011126 44.871177 
L 641.525373 46.096843 
L 643.03962 46.662062 
L 644.553867 46.687326 
L 646.068114 46.293131 
L 649.096608 48.247265 
L 650.610855 49.867693 
L 653.639349 52.294569 
L 655.153596 52.987326 
L 656.667843 52.428667 
L 658.18209 50.908974 
L 661.210583 46.114658 
L 662.72483 44.52654 
L 664.239077 43.774427 
L 667.267571 43.23253 
L 670.296065 42.615162 
L 673.324559 42.632329 
L 677.8673 45.306833 
L 680.895794 47.84238 
L 682.410041 50.360842 
L 683.924288 51.61153 
L 685.438535 53.327915 
L 686.952782 54.728734 
L 689.981275 59.517571 
L 691.495522 60.910319 
L 693.009769 61.869409 
L 694.524016 62.4959 
L 696.038263 65.246576 
L 697.55251 68.347018 
L 700.581004 76.456527 
L 702.095251 80.499864 
L 703.609498 85.244136 
L 705.123745 88.85781 
L 708.152239 97.400221 
L 709.666486 101.466123 
L 711.180733 103.485362 
L 712.69498 103.645616 
L 714.209227 102.671329 
L 715.723474 102.005699 
L 718.751967 101.696853 
L 720.266214 102.228763 
L 721.780461 101.573823 
L 723.294708 100.279165 
L 724.808955 97.874961 
L 726.323202 96.384987 
L 727.837449 93.69696 
L 729.351696 91.466086 
L 730.865943 88.889402 
L 732.38019 86.684537 
L 733.894437 82.822712 
L 735.408684 79.579319 
L 736.922931 76.663612 
L 738.437178 74.003792 
L 739.951425 69.6901 
L 742.979919 58.554972 
L 744.494166 53.745594 
L 746.008412 48.381362 
L 747.522659 44.596504 
L 749.036906 38.963105 
L 752.0654 33.532473 
L 755.093894 34.915558 
L 756.608141 36.282231 
L 759.636635 36.409851 
L 761.150882 35.79853 
L 762.665129 36.361535 
L 765.693623 36.896954 
L 767.20787 35.606129 
L 770.236364 33.615069 
L 773.264858 33.840509 
L 776.293351 35.404658 
L 777.807598 36.959738 
L 779.321845 37.789103 
L 780.836092 38.215203 
L 783.864586 37.408674 
L 788.407327 33.921324 
L 794.464315 33.884398 
L 795.978562 34.172838 
L 799.007056 34.131486 
L 800.521303 33.82901 
L 802.03555 34.169059 
L 805.064043 34.310499 
L 806.57829 33.854113 
L 809.606784 33.48 
L 811.121031 33.900108 
L 814.149525 34.126195 
L 815.663772 33.819131 
L 817.178019 35.187694 
L 820.206513 35.3009 
L 821.72076 33.98894 
L 824.749254 34.001896 
L 827.777748 35.144803 
L 829.291995 36.607326 
L 832.320488 38.478216 
L 836.863229 40.359794 
L 838.377476 40.341332 
L 841.40597 41.527481 
L 842.920217 42.557183 
L 845.948711 43.957866 
L 847.462958 44.221581 
L 852.005699 45.351532 
L 853.519946 46.816889 
L 855.034193 48.544018 
L 856.54844 50.911404 
L 858.062687 51.818021 
L 861.09118 53.18329 
L 864.119674 55.52144 
L 867.148168 60.481288 
L 868.662415 64.000126 
L 870.176662 66.567416 
L 871.690909 70.308602 
L 871.690909 70.308602 
" clip-path="url(#p76ce18ebce)" style="fill: none; stroke: #1f77b4; stroke-opacity: 0.7; stroke-width: 1.5; stroke-linecap: square"/>
   </g>
   <g id="line2d_26">
    <path d="M 161.509091 179.797055 
L 163.023338 173.35639 
L 164.537585 167.644177 
L 169.080326 144.165627 
L 172.10882 130.61391 
L 175.137313 104.825714 
L 176.65156 93.395817 
L 178.165807 84.455126 
L 179.680054 77.196741 
L 181.194301 70.692313 
L 182.708548 64.942049 
L 184.222795 60.087789 
L 185.737042 56.573399 
L 187.251289 54.167748 
L 188.765536 52.462452 
L 190.279783 51.151167 
L 191.79403 50.011933 
L 193.308277 49.358794 
L 194.822524 48.993064 
L 196.336771 48.752139 
L 197.851018 48.321975 
L 199.365265 47.56631 
L 202.393758 45.642198 
L 203.908005 45.342315 
L 205.422252 45.598813 
L 206.936499 46.532303 
L 208.450746 47.98857 
L 211.47924 52.070954 
L 214.507734 56.635322 
L 216.021981 58.610592 
L 217.536228 60.055296 
L 219.050475 61.07455 
L 220.564722 61.668356 
L 222.078969 62.055478 
L 223.593216 62.24763 
L 225.107463 61.855711 
L 226.62171 60.601429 
L 228.135957 58.564161 
L 231.16445 53.867609 
L 234.192944 48.938085 
L 235.707191 46.421424 
L 237.221438 44.186775 
L 238.735685 42.512432 
L 240.249932 41.920766 
L 241.764179 42.216378 
L 243.278426 43.275014 
L 249.335414 48.267121 
L 250.849661 49.318652 
L 252.363908 49.910223 
L 253.878155 50.073723 
L 258.420896 49.374357 
L 259.935142 49.270718 
L 261.449389 49.720695 
L 262.963636 50.661498 
L 264.477883 52.985451 
L 265.99213 56.460881 
L 267.506377 61.249784 
L 270.534871 71.869199 
L 272.049118 77.69984 
L 275.077612 90.76098 
L 276.591859 96.229366 
L 278.106106 100.101268 
L 279.620353 102.576582 
L 282.648847 107.049281 
L 284.163094 109.048058 
L 285.677341 110.454343 
L 288.705834 112.806062 
L 293.248575 117.136491 
L 294.762822 118.318291 
L 296.277069 119.340108 
L 297.791316 119.962236 
L 299.305563 120.318138 
L 305.362551 120.925172 
L 306.876798 120.938238 
L 308.391045 121.071026 
L 309.905292 121.72595 
L 311.419539 122.859835 
L 314.448033 125.283667 
L 317.476526 127.428394 
L 320.50502 130.056862 
L 325.047761 133.245395 
L 326.562008 135.205135 
L 329.590502 140.119738 
L 331.104749 142.486976 
L 332.618996 145.181258 
L 334.133243 148.10873 
L 337.161737 154.438078 
L 340.190231 160.17984 
L 341.704478 162.721965 
L 344.732972 168.096516 
L 346.247218 170.433374 
L 347.761465 172.079755 
L 349.275712 173.323884 
L 352.304206 175.210656 
L 353.818453 176.072089 
L 355.3327 176.445513 
L 356.846947 176.30849 
L 358.361194 175.844485 
L 361.389688 175.260994 
L 362.903935 174.580717 
L 364.418182 173.317211 
L 365.932429 171.798895 
L 367.446676 170.830978 
L 368.960923 170.31477 
L 370.47517 170.066807 
L 373.503664 169.021209 
L 375.01791 168.974689 
L 378.046404 169.643825 
L 381.074898 169.044352 
L 382.589145 168.586792 
L 384.103392 167.979399 
L 385.617639 166.808836 
L 388.646133 163.5286 
L 390.16038 162.193712 
L 391.674627 161.757866 
L 393.188874 161.679995 
L 394.703121 162.466448 
L 396.217368 163.92734 
L 402.274355 171.965685 
L 403.788602 173.443616 
L 405.302849 174.644293 
L 406.817096 175.130002 
L 409.84559 175.78016 
L 411.359837 176.528513 
L 414.388331 178.781752 
L 415.902578 179.770448 
L 417.416825 180.432002 
L 418.931072 180.866214 
L 420.445319 181.0107 
L 421.959566 181.022205 
L 426.502307 180.599381 
L 431.045047 180.631731 
L 434.073541 180.504107 
L 438.616282 180.617783 
L 443.159023 180.40962 
L 447.701764 180.348333 
L 449.216011 180.034542 
L 450.730258 179.468249 
L 455.272999 177.118733 
L 456.787246 175.83557 
L 458.301493 174.072679 
L 459.815739 172.733531 
L 461.329986 171.992071 
L 462.844233 171.509114 
L 464.35848 170.829857 
L 465.872727 169.687522 
L 467.386974 168.799892 
L 468.901221 168.110416 
L 470.415468 167.711926 
L 473.443962 165.945355 
L 474.958209 165.328134 
L 476.472456 165.405223 
L 477.986703 166.472068 
L 479.50095 167.685968 
L 481.015197 168.620146 
L 482.529444 168.3433 
L 484.043691 167.327886 
L 487.072185 164.196713 
L 488.586431 162.83637 
L 490.100678 160.445456 
L 491.614925 157.153936 
L 493.129172 153.445137 
L 494.643419 151.265272 
L 496.157666 150.040755 
L 497.671913 149.28826 
L 499.18616 148.294586 
L 500.700407 146.857291 
L 502.214654 145.682037 
L 503.728901 144.820172 
L 505.243148 144.433329 
L 506.757395 143.630394 
L 508.271642 142.601196 
L 514.32863 137.689162 
L 515.842877 136.152609 
L 517.357123 134.185947 
L 518.87137 131.66538 
L 521.899864 125.769332 
L 524.928358 119.898509 
L 526.442605 117.671645 
L 527.956852 116.659434 
L 529.471099 117.064319 
L 530.985346 118.886298 
L 532.499593 121.518046 
L 535.528087 127.388869 
L 540.070828 136.093882 
L 546.127815 148.479472 
L 550.670556 159.799724 
L 552.184803 162.623033 
L 553.69905 164.672216 
L 555.213297 166.064022 
L 556.727544 166.657759 
L 558.241791 166.313216 
L 559.756038 165.202109 
L 564.298779 160.632815 
L 565.813026 159.452197 
L 567.327273 158.479309 
L 568.84152 158.138606 
L 570.355767 158.222358 
L 571.870014 158.730566 
L 573.384261 158.883223 
L 574.898507 158.680328 
L 576.412754 158.021714 
L 577.927001 156.944392 
L 579.441248 155.154876 
L 580.955495 152.672015 
L 583.983989 146.907755 
L 588.52673 139.353504 
L 591.555224 133.038663 
L 593.069471 129.962997 
L 596.097965 124.83452 
L 597.612212 122.490084 
L 599.126459 120.585804 
L 600.640706 119.15407 
L 602.154953 118.460821 
L 603.669199 117.569597 
L 605.183446 116.480398 
L 606.697693 114.489549 
L 608.21194 112.095215 
L 609.726187 109.255022 
L 611.240434 105.943232 
L 612.754681 102.159845 
L 614.268928 97.985482 
L 621.840163 78.821729 
L 624.868657 70.01376 
L 627.897151 61.374619 
L 629.411398 57.761414 
L 630.925645 54.664489 
L 633.954138 49.236286 
L 635.468385 47.178009 
L 636.982632 45.804092 
L 643.03962 42.712857 
L 644.553867 42.198042 
L 649.096608 41.529534 
L 652.125102 40.642508 
L 653.639349 40.481328 
L 655.153596 40.66763 
L 662.72483 42.334363 
L 664.239077 42.334363 
L 667.267571 41.934447 
L 668.781818 41.899119 
L 671.810312 42.663607 
L 674.838806 43.841925 
L 676.353053 44.6082 
L 679.381547 46.475803 
L 680.895794 47.264902 
L 683.924288 48.155718 
L 685.438535 48.872802 
L 686.952782 49.925139 
L 688.467028 51.279189 
L 689.981275 52.391707 
L 691.495522 52.989744 
L 693.009769 53.040611 
L 694.524016 52.784415 
L 696.038263 52.784213 
L 697.55251 53.131723 
L 699.066757 54.072701 
L 700.581004 55.318465 
L 702.095251 57.091287 
L 703.609498 59.58869 
L 705.123745 62.777135 
L 708.152239 70.32569 
L 711.180733 78.929766 
L 714.209227 87.305321 
L 715.723474 91.354165 
L 717.23772 95.807892 
L 720.266214 106.132442 
L 721.780461 110.383728 
L 724.808955 116.25455 
L 727.837449 121.720488 
L 729.351696 123.542468 
L 730.865943 124.757121 
L 732.38019 126.174216 
L 733.894437 128.40108 
L 738.437178 137.106093 
L 739.951425 140.547609 
L 742.979919 148.442853 
L 744.494166 151.88437 
L 747.522659 157.903438 
L 749.036906 160.722336 
L 750.551153 162.972813 
L 752.0654 164.506623 
L 753.579647 165.373716 
L 755.093894 165.978977 
L 756.608141 165.995976 
L 758.122388 164.879962 
L 759.636635 162.685131 
L 761.150882 160.049695 
L 762.665129 158.143791 
L 764.179376 157.066056 
L 765.693623 157.06783 
L 767.20787 157.444165 
L 768.722117 158.368657 
L 770.236364 159.882326 
L 771.750611 162.12814 
L 773.264858 164.805009 
L 774.779104 166.872253 
L 776.293351 168.17302 
L 777.807598 168.331687 
L 779.321845 168.12619 
L 780.836092 167.709361 
L 782.350339 167.586503 
L 783.864586 167.614647 
L 786.89308 168.171145 
L 792.950068 170.180802 
L 794.464315 170.465815 
L 795.978562 170.613241 
L 800.521303 170.417213 
L 803.549796 170.709855 
L 820.206513 174.849551 
L 821.72076 175.309436 
L 823.235007 175.93428 
L 827.777748 178.50123 
L 830.806242 180.476513 
L 833.834735 182.559512 
L 835.348982 183.290084 
L 836.863229 183.751203 
L 839.891723 184.379148 
L 842.920217 184.68 
L 867.148168 184.68 
L 868.662415 184.475397 
L 870.176662 184.066191 
L 871.690909 183.452381 
L 871.690909 183.452381 
" clip-path="url(#p76ce18ebce)" style="fill: none; stroke: #ff7f0e; stroke-opacity: 0.7; stroke-width: 1.5; stroke-linecap: square"/>
   </g>
   <g id="line2d_27">
    <path d="M 161.509091 181.354164 
L 163.023338 165.08577 
L 164.537585 153.455824 
L 166.051832 131.943419 
L 167.566079 117.001832 
L 169.080326 105.804806 
L 170.594573 96.234777 
L 172.10882 90.428111 
L 173.623066 86.210269 
L 175.137313 83.727235 
L 176.65156 81.755618 
L 178.165807 80.657764 
L 179.680054 81.210659 
L 182.708548 86.049754 
L 184.222795 87.89186 
L 187.251289 87.842764 
L 188.765536 88.054474 
L 191.79403 91.438912 
L 193.308277 92.791304 
L 196.336771 92.535071 
L 200.879512 95.160853 
L 202.393758 95.158706 
L 205.422252 95.468006 
L 206.936499 95.318998 
L 208.450746 93.94001 
L 209.964993 92.295559 
L 211.47924 88.556149 
L 214.507734 75.949782 
L 216.021981 72.177947 
L 217.536228 73.459452 
L 219.050475 72.553423 
L 220.564722 71.040983 
L 222.078969 68.247038 
L 223.593216 66.745652 
L 225.107463 64.948601 
L 226.62171 62.670266 
L 228.135957 59.146679 
L 229.650204 56.339903 
L 231.16445 52.687523 
L 232.678697 49.436541 
L 234.192944 44.776784 
L 235.707191 41.443917 
L 237.221438 39.849879 
L 238.735685 40.049519 
L 241.764179 39.825463 
L 243.278426 39.513794 
L 247.821167 39.878198 
L 255.392402 39.748786 
L 258.420896 43.162941 
L 259.935142 47.970107 
L 261.449389 50.947187 
L 262.963636 51.879629 
L 264.477883 49.711981 
L 265.99213 46.712255 
L 269.020624 44.190056 
L 270.534871 43.884042 
L 272.049118 55.450276 
L 275.077612 81.023792 
L 276.591859 82.47178 
L 278.106106 85.795435 
L 279.620353 88.66416 
L 281.1346 94.494037 
L 284.163094 100.709699 
L 285.677341 101.767049 
L 287.191588 103.739517 
L 288.705834 107.779256 
L 290.220081 110.908325 
L 291.734328 116.72619 
L 294.762822 125.215042 
L 296.277069 125.708874 
L 297.791316 126.461527 
L 300.81981 128.784013 
L 302.334057 129.192603 
L 303.848304 131.010722 
L 305.362551 136.424543 
L 306.876798 140.78451 
L 308.391045 142.998497 
L 309.905292 141.027984 
L 311.419539 140.111325 
L 312.933786 139.522527 
L 314.448033 140.99972 
L 317.476526 146.946413 
L 318.990773 150.343303 
L 320.50502 152.272817 
L 322.019267 155.265401 
L 323.533514 156.807175 
L 325.047761 159.635147 
L 328.076255 169.801313 
L 329.590502 174.280348 
L 331.104749 173.023678 
L 332.618996 171.563749 
L 334.133243 165.908541 
L 338.675984 155.615933 
L 340.190231 152.045367 
L 341.704478 148.044614 
L 344.732972 147.18424 
L 347.761465 147.623213 
L 350.789959 141.297039 
L 352.304206 138.024209 
L 353.818453 136.422216 
L 356.846947 131.992287 
L 358.361194 131.099909 
L 359.875441 130.529944 
L 361.389688 128.641712 
L 362.903935 127.032886 
L 364.418182 124.598656 
L 365.932429 122.613608 
L 367.446676 116.384319 
L 368.960923 111.270994 
L 370.47517 107.026754 
L 373.503664 111.425007 
L 375.01791 110.70061 
L 376.532157 107.777086 
L 378.046404 100.492694 
L 381.074898 88.75133 
L 382.589145 87.241517 
L 385.617639 79.604935 
L 387.131886 71.948277 
L 390.16038 64.271542 
L 391.674627 65.143337 
L 393.188874 64.251458 
L 394.703121 60.29274 
L 396.217368 55.462227 
L 397.731615 52.395388 
L 402.274355 63.993182 
L 403.788602 62.025144 
L 406.817096 52.522822 
L 408.331343 49.201073 
L 411.359837 48.006234 
L 412.874084 46.429422 
L 415.902578 42.451435 
L 417.416825 42.039253 
L 420.445319 41.707444 
L 421.959566 41.249038 
L 426.502307 38.895561 
L 428.016554 38.732827 
L 431.045047 38.748283 
L 434.073541 40.491496 
L 435.587788 41.138712 
L 437.102035 40.748228 
L 441.644776 38.97665 
L 443.159023 38.707774 
L 447.701764 38.863162 
L 452.244505 38.748444 
L 461.329986 38.723355 
L 462.844233 38.678714 
L 468.901221 38.863804 
L 473.443962 38.925827 
L 476.472456 38.899476 
L 477.986703 39.032895 
L 481.015197 39.043979 
L 482.529444 38.921645 
L 485.557938 40.136295 
L 487.072185 42.242419 
L 490.100678 43.136572 
L 491.614925 42.084849 
L 493.129172 47.305603 
L 496.157666 55.719387 
L 497.671913 54.705526 
L 502.214654 71.784046 
L 503.728901 71.85851 
L 505.243148 70.810543 
L 506.757395 65.888923 
L 508.271642 58.665381 
L 509.785889 52.014918 
L 511.300136 49.238109 
L 512.814383 48.688759 
L 514.32863 50.398635 
L 517.357123 54.329243 
L 518.87137 54.584671 
L 520.385617 55.328901 
L 523.414111 57.35105 
L 524.928358 59.20069 
L 526.442605 60.42958 
L 527.956852 61.361877 
L 529.471099 60.711378 
L 530.985346 59.41409 
L 534.01384 55.228368 
L 535.528087 54.136202 
L 540.070828 53.05189 
L 541.585075 53.201301 
L 543.099322 52.957497 
L 547.642062 46.461466 
L 552.184803 42.383716 
L 553.69905 42.832258 
L 556.727544 42.090856 
L 558.241791 41.271614 
L 562.784532 39.412777 
L 564.298779 39.435461 
L 565.813026 39.579944 
L 568.84152 39.415144 
L 570.355767 39.199603 
L 574.898507 39.866992 
L 579.441248 41.892326 
L 580.955495 42.148474 
L 583.983989 44.419206 
L 585.498236 45.298423 
L 590.040977 48.382591 
L 591.555224 48.687431 
L 594.583718 51.307207 
L 596.097965 52.26311 
L 597.612212 52.164821 
L 602.154953 52.554432 
L 606.697693 51.867301 
L 608.21194 52.898425 
L 609.726187 53.260702 
L 611.240434 53.245256 
L 612.754681 52.198686 
L 614.268928 51.820963 
L 618.811669 49.73492 
L 620.325916 49.374619 
L 623.35441 43.267475 
L 624.868657 40.574204 
L 626.382904 43.691605 
L 629.411398 50.762958 
L 630.925645 50.604506 
L 633.954138 48.884575 
L 635.468385 48.601337 
L 636.982632 50.016438 
L 640.011126 56.885347 
L 641.525373 59.547431 
L 644.553867 59.940613 
L 646.068114 59.494474 
L 647.582361 59.629415 
L 649.096608 61.924824 
L 650.610855 62.256247 
L 652.125102 62.452729 
L 653.639349 60.488743 
L 655.153596 60.536471 
L 659.696336 71.96556 
L 661.210583 71.901792 
L 664.239077 72.008065 
L 668.781818 87.321132 
L 670.296065 87.816004 
L 673.324559 89.21681 
L 674.838806 90.740284 
L 677.8673 93.376169 
L 680.895794 95.267757 
L 682.410041 96.935556 
L 683.924288 93.724878 
L 685.438535 89.391288 
L 686.952782 83.277314 
L 688.467028 81.096022 
L 689.981275 80.037643 
L 691.495522 80.945207 
L 693.009769 83.377461 
L 694.524016 86.120156 
L 696.038263 88.107515 
L 697.55251 88.570184 
L 699.066757 89.410862 
L 700.581004 91.372302 
L 702.095251 95.226141 
L 703.609498 99.632484 
L 705.123745 104.871032 
L 706.637992 108.801363 
L 708.152239 114.206956 
L 709.666486 117.777033 
L 711.180733 120.505719 
L 712.69498 118.901631 
L 714.209227 117.027865 
L 715.723474 115.411307 
L 717.23772 116.937088 
L 720.266214 120.820707 
L 721.780461 122.312703 
L 723.294708 122.445199 
L 724.808955 122.414929 
L 726.323202 121.390075 
L 727.837449 121.618897 
L 732.38019 131.265446 
L 733.894437 129.684456 
L 736.922931 125.435671 
L 738.437178 123.883866 
L 741.465672 119.876745 
L 742.979919 118.966757 
L 746.008412 118.663738 
L 747.522659 118.134306 
L 750.551153 111.387569 
L 752.0654 108.543632 
L 753.579647 110.263843 
L 755.093894 102.517977 
L 756.608141 92.908865 
L 758.122388 81.579542 
L 759.636635 79.716295 
L 761.150882 81.696135 
L 764.179376 77.307745 
L 767.20787 68.718146 
L 770.236364 60.621817 
L 771.750611 62.731197 
L 773.264858 64.080459 
L 774.779104 64.955244 
L 776.293351 59.088799 
L 777.807598 53.982472 
L 779.321845 49.350623 
L 782.350339 53.047076 
L 783.864586 53.380115 
L 785.378833 51.864928 
L 786.89308 49.094948 
L 788.407327 47.446854 
L 789.921574 44.498201 
L 791.435821 42.80434 
L 792.950068 41.50378 
L 794.464315 41.536388 
L 795.978562 43.168838 
L 797.492809 42.082238 
L 799.007056 40.394855 
L 800.521303 37.107629 
L 802.03555 36.539453 
L 806.57829 37.232371 
L 811.121031 37.279075 
L 812.635278 37.311042 
L 815.663772 37.648912 
L 818.692266 38.171842 
L 820.206513 38.385662 
L 823.235007 38.251815 
L 824.749254 38.14807 
L 827.777748 38.482706 
L 829.291995 38.881392 
L 833.834735 39.83313 
L 839.891723 41.377946 
L 842.920217 41.643835 
L 845.948711 42.652121 
L 847.462958 43.39781 
L 850.491452 42.619393 
L 852.005699 41.988639 
L 853.519946 44.870402 
L 856.54844 51.596274 
L 858.062687 52.197375 
L 861.09118 52.437232 
L 868.662415 60.706331 
L 870.176662 62.396594 
L 871.690909 62.508745 
L 871.690909 62.508745 
" clip-path="url(#p76ce18ebce)" style="fill: none; stroke: #2ca02c; stroke-opacity: 0.7; stroke-width: 1.5; stroke-linecap: square"/>
   </g>
   <g id="patch_3">
    <path d="M 126 192.24 
L 126 25.92 
" style="fill: none; stroke: #000000; stroke-width: 0.8; stroke-linejoin: miter; stroke-linecap: square"/>
   </g>
   <g id="patch_4">
    <path d="M 907.2 192.24 
L 907.2 25.92 
" style="fill: none; stroke: #000000; stroke-width: 0.8; stroke-linejoin: miter; stroke-linecap: square"/>
   </g>
   <g id="patch_5">
    <path d="M 126 192.24 
L 907.2 192.24 
" style="fill: none; stroke: #000000; stroke-width: 0.8; stroke-linejoin: miter; stroke-linecap: square"/>
   </g>
   <g id="patch_6">
    <path d="M 126 25.92 
L 907.2 25.92 
" style="fill: none; stroke: #000000; stroke-width: 0.8; stroke-linejoin: miter; stroke-linecap: square"/>
   </g>
   <g id="legend_1">
    <g id="patch_7">
     <path d="M 800.658 185.04 
L 897.12 185.04 
Q 900 185.04 900 182.16 
L 900 122.49225 
Q 900 119.61225 897.12 119.61225 
L 800.658 119.61225 
Q 797.778 119.61225 797.778 122.49225 
L 797.778 182.16 
Q 797.778 185.04 800.658 185.04 
z
" style="fill: #ffffff; opacity: 0.8; stroke: #cccccc; stroke-linejoin: miter"/>
    </g>
    <g id="line2d_28">
     <path d="M 803.538 130.41225 
L 817.938 130.41225 
L 832.338 130.41225 
" style="fill: none; stroke: #1f77b4; stroke-opacity: 0.7; stroke-width: 1.5; stroke-linecap: square"/>
    </g>
    <g id="text_15">
     <!-- bola -->
     <g transform="translate(843.858 135.45225) scale(0.144 -0.144)">
      <defs>
       <path id="TimesNewRomanPSMT-62" d="M 984 2369 
Q 1400 2947 1881 2947 
Q 2322 2947 2650 2570 
Q 2978 2194 2978 1541 
Q 2978 778 2472 313 
Q 2038 -88 1503 -88 
Q 1253 -88 995 3 
Q 738 94 469 275 
L 469 3241 
Q 469 3728 445 3840 
Q 422 3953 372 3993 
Q 322 4034 247 4034 
Q 159 4034 28 3984 
L -16 4094 
L 844 4444 
L 984 4444 
L 984 2369 
z
M 984 2169 
L 984 456 
Q 1144 300 1314 220 
Q 1484 141 1663 141 
Q 1947 141 2192 453 
Q 2438 766 2438 1363 
Q 2438 1913 2192 2208 
Q 1947 2503 1634 2503 
Q 1469 2503 1303 2419 
Q 1178 2356 984 2169 
z
" transform="scale(0.015625)"/>
       <path id="TimesNewRomanPSMT-6f" d="M 1600 2947 
Q 2250 2947 2644 2453 
Q 2978 2031 2978 1484 
Q 2978 1100 2793 706 
Q 2609 313 2286 112 
Q 1963 -88 1566 -88 
Q 919 -88 538 428 
Q 216 863 216 1403 
Q 216 1797 411 2186 
Q 606 2575 925 2761 
Q 1244 2947 1600 2947 
z
M 1503 2744 
Q 1338 2744 1170 2645 
Q 1003 2547 900 2300 
Q 797 2053 797 1666 
Q 797 1041 1045 587 
Q 1294 134 1700 134 
Q 2003 134 2200 384 
Q 2397 634 2397 1244 
Q 2397 2006 2069 2444 
Q 1847 2744 1503 2744 
z
" transform="scale(0.015625)"/>
       <path id="TimesNewRomanPSMT-6c" d="M 1184 4444 
L 1184 647 
Q 1184 378 1223 290 
Q 1263 203 1344 158 
Q 1425 113 1647 113 
L 1647 0 
L 244 0 
L 244 113 
Q 441 113 512 153 
Q 584 194 625 287 
Q 666 381 666 647 
L 666 3247 
Q 666 3731 644 3842 
Q 622 3953 573 3993 
Q 525 4034 450 4034 
Q 369 4034 244 3984 
L 191 4094 
L 1044 4444 
L 1184 4444 
z
" transform="scale(0.015625)"/>
       <path id="TimesNewRomanPSMT-61" d="M 1822 413 
Q 1381 72 1269 19 
Q 1100 -59 909 -59 
Q 613 -59 420 144 
Q 228 347 228 678 
Q 228 888 322 1041 
Q 450 1253 767 1440 
Q 1084 1628 1822 1897 
L 1822 2009 
Q 1822 2438 1686 2597 
Q 1550 2756 1291 2756 
Q 1094 2756 978 2650 
Q 859 2544 859 2406 
L 866 2225 
Q 866 2081 792 2003 
Q 719 1925 600 1925 
Q 484 1925 411 2006 
Q 338 2088 338 2228 
Q 338 2497 613 2722 
Q 888 2947 1384 2947 
Q 1766 2947 2009 2819 
Q 2194 2722 2281 2516 
Q 2338 2381 2338 1966 
L 2338 994 
Q 2338 584 2353 492 
Q 2369 400 2405 369 
Q 2441 338 2488 338 
Q 2538 338 2575 359 
Q 2641 400 2828 588 
L 2828 413 
Q 2478 -56 2159 -56 
Q 2006 -56 1915 50 
Q 1825 156 1822 413 
z
M 1822 616 
L 1822 1706 
Q 1350 1519 1213 1441 
Q 966 1303 859 1153 
Q 753 1003 753 825 
Q 753 600 887 451 
Q 1022 303 1197 303 
Q 1434 303 1822 616 
z
" transform="scale(0.015625)"/>
      </defs>
      <use xlink:href="#TimesNewRomanPSMT-62"/>
      <use xlink:href="#TimesNewRomanPSMT-6f" x="50"/>
      <use xlink:href="#TimesNewRomanPSMT-6c" x="100"/>
      <use xlink:href="#TimesNewRomanPSMT-61" x="127.783203"/>
     </g>
    </g>
    <g id="line2d_29">
     <path d="M 803.538 150.7725 
L 817.938 150.7725 
L 832.338 150.7725 
" style="fill: none; stroke: #ff7f0e; stroke-opacity: 0.7; stroke-width: 1.5; stroke-linecap: square"/>
    </g>
    <g id="text_16">
     <!-- comyco -->
     <g transform="translate(843.858 155.8125) scale(0.144 -0.144)">
      <defs>
       <path id="TimesNewRomanPSMT-63" d="M 2631 1088 
Q 2516 522 2178 217 
Q 1841 -88 1431 -88 
Q 944 -88 581 321 
Q 219 731 219 1428 
Q 219 2103 620 2525 
Q 1022 2947 1584 2947 
Q 2006 2947 2278 2723 
Q 2550 2500 2550 2259 
Q 2550 2141 2473 2067 
Q 2397 1994 2259 1994 
Q 2075 1994 1981 2113 
Q 1928 2178 1911 2362 
Q 1894 2547 1784 2644 
Q 1675 2738 1481 2738 
Q 1169 2738 978 2506 
Q 725 2200 725 1697 
Q 725 1184 976 792 
Q 1228 400 1656 400 
Q 1963 400 2206 609 
Q 2378 753 2541 1131 
L 2631 1088 
z
" transform="scale(0.015625)"/>
       <path id="TimesNewRomanPSMT-79" d="M 38 2863 
L 1372 2863 
L 1372 2747 
L 1306 2747 
Q 1166 2747 1095 2686 
Q 1025 2625 1025 2534 
Q 1025 2413 1128 2197 
L 1825 753 
L 2466 2334 
Q 2519 2463 2519 2588 
Q 2519 2644 2497 2672 
Q 2472 2706 2419 2726 
Q 2366 2747 2231 2747 
L 2231 2863 
L 3163 2863 
L 3163 2747 
Q 3047 2734 2984 2696 
Q 2922 2659 2847 2556 
Q 2819 2513 2741 2316 
L 1575 -541 
Q 1406 -956 1132 -1168 
Q 859 -1381 606 -1381 
Q 422 -1381 303 -1275 
Q 184 -1169 184 -1031 
Q 184 -900 270 -820 
Q 356 -741 506 -741 
Q 609 -741 788 -809 
Q 913 -856 944 -856 
Q 1038 -856 1148 -759 
Q 1259 -663 1372 -384 
L 1575 113 
L 547 2272 
Q 500 2369 397 2513 
Q 319 2622 269 2659 
Q 197 2709 38 2747 
L 38 2863 
z
" transform="scale(0.015625)"/>
      </defs>
      <use xlink:href="#TimesNewRomanPSMT-63"/>
      <use xlink:href="#TimesNewRomanPSMT-6f" x="44.384766"/>
      <use xlink:href="#TimesNewRomanPSMT-6d" x="94.384766"/>
      <use xlink:href="#TimesNewRomanPSMT-79" x="172.167969"/>
      <use xlink:href="#TimesNewRomanPSMT-63" x="222.167969"/>
      <use xlink:href="#TimesNewRomanPSMT-6f" x="266.552734"/>
     </g>
    </g>
    <g id="line2d_30">
     <path d="M 803.538 171.15975 
L 817.938 171.15975 
L 832.338 171.15975 
" style="fill: none; stroke: #2ca02c; stroke-opacity: 0.7; stroke-width: 1.5; stroke-linecap: square"/>
    </g>
    <g id="text_17">
     <!-- pensieve -->
     <g transform="translate(843.858 176.19975) scale(0.144 -0.144)">
      <defs>
       <path id="TimesNewRomanPSMT-70" d="M -6 2578 
L 875 2934 
L 994 2934 
L 994 2266 
Q 1216 2644 1439 2795 
Q 1663 2947 1909 2947 
Q 2341 2947 2628 2609 
Q 2981 2197 2981 1534 
Q 2981 794 2556 309 
Q 2206 -88 1675 -88 
Q 1444 -88 1275 -22 
Q 1150 25 994 166 
L 994 -706 
Q 994 -1000 1030 -1079 
Q 1066 -1159 1155 -1206 
Q 1244 -1253 1478 -1253 
L 1478 -1369 
L -22 -1369 
L -22 -1253 
L 56 -1253 
Q 228 -1256 350 -1188 
Q 409 -1153 442 -1076 
Q 475 -1000 475 -688 
L 475 2019 
Q 475 2297 450 2372 
Q 425 2447 370 2484 
Q 316 2522 222 2522 
Q 147 2522 31 2478 
L -6 2578 
z
M 994 2081 
L 994 1013 
Q 994 666 1022 556 
Q 1066 375 1236 237 
Q 1406 100 1666 100 
Q 1978 100 2172 344 
Q 2425 663 2425 1241 
Q 2425 1897 2138 2250 
Q 1938 2494 1663 2494 
Q 1513 2494 1366 2419 
Q 1253 2363 994 2081 
z
" transform="scale(0.015625)"/>
       <path id="TimesNewRomanPSMT-6e" d="M 1034 2341 
Q 1538 2947 1994 2947 
Q 2228 2947 2397 2830 
Q 2566 2713 2666 2444 
Q 2734 2256 2734 1869 
L 2734 647 
Q 2734 375 2778 278 
Q 2813 200 2889 156 
Q 2966 113 3172 113 
L 3172 0 
L 1756 0 
L 1756 113 
L 1816 113 
Q 2016 113 2095 173 
Q 2175 234 2206 353 
Q 2219 400 2219 647 
L 2219 1819 
Q 2219 2209 2117 2386 
Q 2016 2563 1775 2563 
Q 1403 2563 1034 2156 
L 1034 647 
Q 1034 356 1069 288 
Q 1113 197 1189 155 
Q 1266 113 1500 113 
L 1500 0 
L 84 0 
L 84 113 
L 147 113 
Q 366 113 442 223 
Q 519 334 519 647 
L 519 1709 
Q 519 2225 495 2337 
Q 472 2450 423 2490 
Q 375 2531 294 2531 
Q 206 2531 84 2484 
L 38 2597 
L 900 2947 
L 1034 2947 
L 1034 2341 
z
" transform="scale(0.015625)"/>
       <path id="TimesNewRomanPSMT-76" d="M 53 2863 
L 1400 2863 
L 1400 2747 
L 1313 2747 
Q 1191 2747 1127 2687 
Q 1063 2628 1063 2528 
Q 1063 2419 1128 2269 
L 1794 688 
L 2463 2328 
Q 2534 2503 2534 2594 
Q 2534 2638 2509 2666 
Q 2475 2713 2422 2730 
Q 2369 2747 2206 2747 
L 2206 2863 
L 3141 2863 
L 3141 2747 
Q 2978 2734 2916 2681 
Q 2806 2588 2719 2369 
L 1703 -88 
L 1575 -88 
L 553 2328 
Q 484 2497 421 2570 
Q 359 2644 263 2694 
Q 209 2722 53 2747 
L 53 2863 
z
" transform="scale(0.015625)"/>
      </defs>
      <use xlink:href="#TimesNewRomanPSMT-70"/>
      <use xlink:href="#TimesNewRomanPSMT-65" x="50"/>
      <use xlink:href="#TimesNewRomanPSMT-6e" x="94.384766"/>
      <use xlink:href="#TimesNewRomanPSMT-73" x="144.384766"/>
      <use xlink:href="#TimesNewRomanPSMT-69" x="183.300781"/>
      <use xlink:href="#TimesNewRomanPSMT-65" x="211.083984"/>
      <use xlink:href="#TimesNewRomanPSMT-76" x="255.46875"/>
      <use xlink:href="#TimesNewRomanPSMT-65" x="305.46875"/>
     </g>
    </g>
   </g>
  </g>
 </g>
 <defs>
  <clipPath id="p76ce18ebce">
   <rect x="126" y="25.92" width="781.2" height="166.32"/>
  </clipPath>
 </defs>
</svg>
