<?xml version="1.0" encoding="utf-8" standalone="no"?>
<!DOCTYPE svg PUBLIC "-//W3C//DTD SVG 1.1//EN"
  "http://www.w3.org/Graphics/SVG/1.1/DTD/svg11.dtd">
<svg xmlns:xlink="http://www.w3.org/1999/xlink" width="1080pt" height="432pt" viewBox="0 0 1080 432" xmlns="http://www.w3.org/2000/svg" version="1.1">
 <metadata>
  <rdf:RDF xmlns:dc="http://purl.org/dc/elements/1.1/" xmlns:cc="http://creativecommons.org/ns#" xmlns:rdf="http://www.w3.org/1999/02/22-rdf-syntax-ns#">
   <cc:Work>
    <dc:type rdf:resource="http://purl.org/dc/dcmitype/StillImage"/>
    <dc:date>2024-04-12T06:21:49.341662</dc:date>
    <dc:format>image/svg+xml</dc:format>
    <dc:creator>
     <cc:Agent>
      <dc:title>Matplotlib v3.8.3, https://matplotlib.org/</dc:title>
     </cc:Agent>
    </dc:creator>
   </cc:Work>
  </rdf:RDF>
 </metadata>
 <defs>
  <style type="text/css">*{stroke-linejoin: round; stroke-linecap: butt}</style>
 </defs>
 <g id="figure_1">
  <g id="patch_1">
   <path d="M 0 432 
L 1080 432 
L 1080 0 
L 0 0 
z
" style="fill: #ffffff"/>
  </g>
  <g id="axes_1">
   <g id="patch_2">
    <path d="M 135 384.48 
L 972 384.48 
L 972 51.84 
L 135 51.84 
z
" style="fill: #ffffff"/>
   </g>
   <g id="matplotlib.axis_1">
    <g id="xtick_1">
     <g id="line2d_1">
      <defs>
       <path id="m799947f3e0" d="M 0 0 
L 0 3.5 
" style="stroke: #000000; stroke-width: 0.8"/>
      </defs>
      <g>
       <use xlink:href="#m799947f3e0" x="173.045455" y="384.48" style="stroke: #000000; stroke-width: 0.8"/>
      </g>
     </g>
     <g id="text_1">
      <!-- 0 -->
      <g transform="translate(170.545455 398.628438) scale(0.1 -0.1)">
       <defs>
        <path id="Times New Roman-30" d="M 1600 4225
Q 1250 4225 1012 3687 
Q 775 3150 775 2250 
Q 775 1300 1012 775 
Q 1250 250 1600 250 
Q 1975 250 2187 775 
Q 2400 1300 2400 2250 
Q 2400 3150 2200 3687 
Q 2000 4225 1600 4225 
z
M 1600 50 
Q 1050 50 675 625 
Q 300 1200 300 2250 
Q 300 3225 662 3825 
Q 1025 4425 1600 4425 
Q 2150 4425 2512 3850 
Q 2875 3275 2875 2250 
Q 2875 1225 2512 637 
Q 2150 50 1600 50 
z
" transform="scale(0.015625)"/>
       </defs>
       <use xlink:href="#Times New Roman-30"/>
      </g>
     </g>
    </g>
    <g id="xtick_2">
     <g id="line2d_2">
      <g>
       <use xlink:href="#m799947f3e0" x="327.075635" y="384.48" style="stroke: #000000; stroke-width: 0.8"/>
      </g>
     </g>
     <g id="text_2">
      <!-- 100 -->
      <g transform="translate(319.575635 398.628438) scale(0.1 -0.1)">
       <defs>
        <path id="Times New Roman-31" d="M 1825 4450
L 1825 650 
Q 1825 450 1950 350 
Q 2075 250 2300 250 
L 2550 250 
L 2550 100 
L 725 100 
L 725 250 
L 950 250 
Q 1200 250 1312 350 
Q 1425 450 1425 650 
L 1425 3675 
Q 1425 3775 1362 3837 
Q 1300 3900 1175 3900 
L 725 3900 
L 725 4050 
L 950 4050 
Q 1250 4050 1437 4150 
Q 1625 4250 1725 4450 
L 1825 4450 
z
" transform="scale(0.015625)"/>
       </defs>
       <use xlink:href="#Times New Roman-31"/>
       <use xlink:href="#Times New Roman-30" x="50"/>
       <use xlink:href="#Times New Roman-30" x="100"/>
      </g>
     </g>
    </g>
    <g id="xtick_3">
     <g id="line2d_3">
      <g>
       <use xlink:href="#m799947f3e0" x="481.105815" y="384.48" style="stroke: #000000; stroke-width: 0.8"/>
      </g>
     </g>
     <g id="text_3">
      <!-- 200 -->
      <g transform="translate(473.605815 398.628438) scale(0.1 -0.1)">
       <defs>
        <path id="Times New Roman-32" d="M 2325 3325
Q 2325 3775 2125 4012 
Q 1925 4250 1525 4250 
Q 1225 4250 1012 4087 
Q 800 3925 800 3675 
Q 800 3525 900 3425 
Q 975 3325 975 3225 
Q 975 3100 912 3037 
Q 850 2975 725 2975 
Q 575 2975 487 3062 
Q 400 3150 400 3350 
Q 400 3875 775 4150 
Q 1150 4425 1575 4425 
Q 2175 4425 2462 4125 
Q 2750 3825 2750 3375 
Q 2750 3075 2612 2775 
Q 2475 2475 2175 2200 
Q 1450 1500 1062 1062 
Q 675 625 600 475 
L 2075 475 
Q 2300 475 2450 650 
Q 2600 825 2650 1175 
L 2800 1175 
L 2650 100 
L 325 100 
L 325 425 
Q 450 650 737 1000 
Q 1025 1350 1500 1825 
Q 1925 2250 2125 2625 
Q 2325 3000 2325 3325 
z
" transform="scale(0.015625)"/>
       </defs>
       <use xlink:href="#Times New Roman-32"/>
       <use xlink:href="#Times New Roman-30" x="50"/>
       <use xlink:href="#Times New Roman-30" x="100"/>
      </g>
     </g>
    </g>
    <g id="xtick_4">
     <g id="line2d_4">
      <g>
       <use xlink:href="#m799947f3e0" x="635.135996" y="384.48" style="stroke: #000000; stroke-width: 0.8"/>
      </g>
     </g>
     <g id="text_4">
      <!-- 300 -->
      <g transform="translate(627.635996 398.628438) scale(0.1 -0.1)">
       <defs>
        <path id="Times New Roman-33" d="M 2800 1250
Q 2800 775 2450 412 
Q 2100 50 1475 50 
Q 1025 50 700 300 
Q 375 550 375 875 
Q 375 1025 475 1137 
Q 575 1250 675 1250 
Q 825 1250 887 1137 
Q 950 1025 950 950 
Q 950 825 900 750 
Q 850 650 850 575 
Q 850 425 1037 325 
Q 1225 225 1450 225 
Q 1900 225 2125 487 
Q 2350 750 2350 1300 
Q 2350 1750 2112 2025 
Q 1875 2300 1225 2300 
L 1225 2475 
Q 1725 2475 1962 2712 
Q 2200 2950 2200 3375 
Q 2200 3725 2012 3987 
Q 1825 4250 1425 4250 
Q 1250 4250 1050 4162 
Q 850 4075 850 3875 
Q 850 3675 900 3625 
Q 950 3575 950 3500 
Q 950 3375 900 3300 
Q 850 3225 725 3225 
Q 625 3225 537 3300 
Q 450 3375 450 3575 
Q 450 3950 775 4187 
Q 1100 4425 1525 4425 
Q 2025 4425 2325 4112 
Q 2625 3800 2625 3450 
Q 2625 3075 2437 2812 
Q 2250 2550 1850 2425 
Q 2400 2225 2600 1900 
Q 2800 1575 2800 1250 
z
" transform="scale(0.015625)"/>
       </defs>
       <use xlink:href="#Times New Roman-33"/>
       <use xlink:href="#Times New Roman-30" x="50"/>
       <use xlink:href="#Times New Roman-30" x="100"/>
      </g>
     </g>
    </g>
    <g id="xtick_5">
     <g id="line2d_5">
      <g>
       <use xlink:href="#m799947f3e0" x="789.166176" y="384.48" style="stroke: #000000; stroke-width: 0.8"/>
      </g>
     </g>
     <g id="text_5">
      <!-- 400 -->
      <g transform="translate(781.666176 398.628438) scale(0.1 -0.1)">
       <defs>
        <path id="Times New Roman-34" d="M 2300 575
Q 2300 400 2400 325 
Q 2500 250 2675 250 
L 2900 250 
L 2900 100 
L 1250 100 
L 1250 250 
L 1525 250 
Q 1725 250 1812 325 
Q 1900 400 1900 575 
L 1900 1400 
L 225 1400 
L 225 1525 
L 2050 4425 
L 2300 4425 
L 2300 1550 
L 2975 1550 
L 2975 1400 
L 2300 1400 
L 2300 575 
z
M 1875 3800 
L 450 1550 
L 1900 1550 
L 1900 3800 
L 1875 3800 
z
" transform="scale(0.015625)"/>
       </defs>
       <use xlink:href="#Times New Roman-34"/>
       <use xlink:href="#Times New Roman-30" x="50"/>
       <use xlink:href="#Times New Roman-30" x="100"/>
      </g>
     </g>
    </g>
    <g id="xtick_6">
     <g id="line2d_6">
      <g>
       <use xlink:href="#m799947f3e0" x="943.196356" y="384.48" style="stroke: #000000; stroke-width: 0.8"/>
      </g>
     </g>
     <g id="text_6">
      <!-- 500 -->
      <g transform="translate(935.696356 398.628438) scale(0.1 -0.1)">
       <defs>
        <path id="Times New Roman-35" d="M 1725 2850
Q 2200 2850 2500 2487 
Q 2800 2125 2800 1525 
Q 2800 850 2487 450 
Q 2175 50 1525 50 
Q 1075 50 725 312 
Q 375 575 375 950 
Q 375 1100 462 1212 
Q 550 1325 700 1325 
Q 850 1325 900 1225 
Q 950 1125 950 1050 
Q 950 900 875 825 
Q 800 725 800 625 
Q 800 425 1037 325 
Q 1275 225 1550 225 
Q 1950 225 2162 550 
Q 2375 875 2375 1475 
Q 2375 1975 2187 2287 
Q 2000 2600 1625 2600 
Q 1350 2600 1150 2500 
Q 950 2400 775 2075 
L 550 2100 
L 675 4375 
L 2725 4375 
L 2650 4000 
L 850 4000 
L 750 2350 
Q 1000 2700 1237 2775 
Q 1475 2850 1725 2850 
z
" transform="scale(0.015625)"/>
       </defs>
       <use xlink:href="#Times New Roman-35"/>
       <use xlink:href="#Times New Roman-30" x="50"/>
       <use xlink:href="#Times New Roman-30" x="100"/>
      </g>
     </g>
    </g>
   </g>
   <g id="matplotlib.axis_2">
    <g id="ytick_1">
     <g id="line2d_7">
      <defs>
       <path id="m70ec60e4a3" d="M 0 0 
L -3.5 0 
" style="stroke: #000000; stroke-width: 0.8"/>
      </defs>
      <g>
       <use xlink:href="#m70ec60e4a3" x="135" y="378.393432" style="stroke: #000000; stroke-width: 0.8"/>
      </g>
     </g>
     <g id="text_7">
      <!-- 0 -->
      <g transform="translate(123 381.96765) scale(0.1 -0.1)">
       <use xlink:href="#Times New Roman-30"/>
      </g>
     </g>
    </g>
    <g id="ytick_2">
     <g id="line2d_8">
      <g>
       <use xlink:href="#m70ec60e4a3" x="135" y="314.32654" style="stroke: #000000; stroke-width: 0.8"/>
      </g>
     </g>
     <g id="text_8">
      <!-- 1000 -->
      <g transform="translate(108 317.900759) scale(0.1 -0.1)">
       <use xlink:href="#Times New Roman-31"/>
       <use xlink:href="#Times New Roman-30" x="50"/>
       <use xlink:href="#Times New Roman-30" x="100"/>
       <use xlink:href="#Times New Roman-30" x="150"/>
      </g>
     </g>
    </g>
    <g id="ytick_3">
     <g id="line2d_9">
      <g>
       <use xlink:href="#m70ec60e4a3" x="135" y="250.259648" style="stroke: #000000; stroke-width: 0.8"/>
      </g>
     </g>
     <g id="text_9">
      <!-- 2000 -->
      <g transform="translate(108 253.833867) scale(0.1 -0.1)">
       <use xlink:href="#Times New Roman-32"/>
       <use xlink:href="#Times New Roman-30" x="50"/>
       <use xlink:href="#Times New Roman-30" x="100"/>
       <use xlink:href="#Times New Roman-30" x="150"/>
      </g>
     </g>
    </g>
    <g id="ytick_4">
     <g id="line2d_10">
      <g>
       <use xlink:href="#m70ec60e4a3" x="135" y="186.192757" style="stroke: #000000; stroke-width: 0.8"/>
      </g>
     </g>
     <g id="text_10">
      <!-- 3000 -->
      <g transform="translate(108 189.766975) scale(0.1 -0.1)">
       <use xlink:href="#Times New Roman-33"/>
       <use xlink:href="#Times New Roman-30" x="50"/>
       <use xlink:href="#Times New Roman-30" x="100"/>
       <use xlink:href="#Times New Roman-30" x="150"/>
      </g>
     </g>
    </g>
    <g id="ytick_5">
     <g id="line2d_11">
      <g>
       <use xlink:href="#m70ec60e4a3" x="135" y="122.125865" style="stroke: #000000; stroke-width: 0.8"/>
      </g>
     </g>
     <g id="text_11">
      <!-- 4000 -->
      <g transform="translate(108 125.700084) scale(0.1 -0.1)">
       <use xlink:href="#Times New Roman-34"/>
       <use xlink:href="#Times New Roman-30" x="50"/>
       <use xlink:href="#Times New Roman-30" x="100"/>
       <use xlink:href="#Times New Roman-30" x="150"/>
      </g>
     </g>
    </g>
    <g id="ytick_6">
     <g id="line2d_12">
      <g>
       <use xlink:href="#m70ec60e4a3" x="135" y="58.058973" style="stroke: #000000; stroke-width: 0.8"/>
      </g>
     </g>
     <g id="text_12">
      <!-- 5000 -->
      <g transform="translate(108 61.633192) scale(0.1 -0.1)">
       <use xlink:href="#Times New Roman-35"/>
       <use xlink:href="#Times New Roman-30" x="50"/>
       <use xlink:href="#Times New Roman-30" x="100"/>
       <use xlink:href="#Times New Roman-30" x="150"/>
      </g>
     </g>
    </g>
    <g id="text_13">
     <!-- Bitrate (kbps) -->
     <g transform="translate(102.710938 253.16) rotate(-90) scale(0.1 -0.1)">
      <defs>
       <path id="Times New Roman-42" d="M 100 100
L 100 250 
L 300 250 
Q 425 250 475 300 
Q 525 350 525 450 
L 525 4025 
Q 525 4125 475 4175 
Q 425 4225 300 4225 
L 150 4225 
L 150 4375 
L 1600 4375 
Q 2200 4375 2487 4137 
Q 2775 3900 2775 3400 
Q 2775 3050 2625 2825 
Q 2475 2600 2000 2425 
Q 2575 2250 2775 1925 
Q 2975 1600 2975 1200 
Q 2975 700 2625 400 
Q 2275 100 1675 100 
L 100 100 
z
M 1600 250 
Q 2025 250 2262 512 
Q 2500 775 2500 1250 
Q 2500 1800 2250 2062 
Q 2000 2325 1500 2325 
L 925 2325 
L 925 450 
Q 925 350 987 300 
Q 1050 250 1150 250 
L 1600 250 
z
M 2350 3400 
Q 2350 3850 2100 4037 
Q 1850 4225 1450 4225 
L 1150 4225 
Q 1050 4225 987 4175 
Q 925 4125 925 4025 
L 925 2475 
L 1575 2475 
Q 1850 2475 2100 2700 
Q 2350 2925 2350 3400 
z
" transform="scale(0.015625)"/>
       <path id="Times New Roman-69" d="M 1425 2525
Q 1425 2625 1375 2687 
Q 1325 2750 1200 2750 
L 675 2750 
L 675 2900 
L 925 2900 
Q 1150 2900 1350 2937 
Q 1550 2975 1725 3075 
L 1775 3075 
L 1775 450 
Q 1775 350 1837 300 
Q 1900 250 2000 250 
L 2525 250 
L 2525 100 
L 675 100 
L 675 250 
L 1200 250 
Q 1325 250 1375 300 
Q 1425 350 1425 450 
L 1425 2525 
z
M 1725 3025 
L 1725 3025 
z
M 1625 4425 
Q 1750 4425 1850 4337 
Q 1950 4250 1950 4125 
Q 1950 4000 1850 3900 
Q 1750 3800 1625 3800 
Q 1500 3800 1400 3900 
Q 1300 4000 1300 4125 
Q 1300 4250 1400 4337 
Q 1500 4425 1625 4425 
z
" transform="scale(0.015625)"/>
       <path id="Times New Roman-74" d="M 1500 900
Q 1500 550 1625 425 
Q 1750 300 2000 300 
Q 2250 300 2400 462 
Q 2550 625 2600 925 
L 2725 875 
Q 2675 525 2462 300 
Q 2250 75 1900 75 
Q 1525 75 1337 300 
Q 1150 525 1150 1000 
L 1150 2750 
L 400 2750 
L 400 2900 
L 600 2900 
Q 900 2900 1087 3087 
Q 1275 3275 1325 3675 
L 1350 3875 
L 1500 3875 
L 1500 2900 
L 2500 2900 
L 2500 2750 
L 1500 2750 
L 1500 900 
z
" transform="scale(0.015625)"/>
       <path id="Times New Roman-72" d="M 1275 2125
Q 1525 2525 1812 2737 
Q 2100 2950 2400 2950 
Q 2650 2950 2787 2837 
Q 2925 2725 2925 2575 
Q 2925 2450 2862 2375 
Q 2800 2300 2675 2300 
Q 2550 2300 2487 2375 
Q 2425 2450 2450 2575 
Q 2450 2650 2425 2700 
Q 2400 2750 2275 2750 
Q 2075 2750 1787 2500 
Q 1500 2250 1275 1800 
L 1275 450 
Q 1275 350 1337 300 
Q 1400 250 1500 250 
L 2050 250 
L 2050 100 
L 200 100 
L 200 250 
L 700 250 
Q 825 250 875 300 
Q 925 350 925 450 
L 925 2525 
Q 925 2625 875 2687 
Q 825 2750 700 2750 
L 225 2750 
L 225 2900 
L 425 2900 
Q 600 2900 837 2937 
Q 1075 2975 1200 3025 
L 1275 3025 
L 1275 2125 
z
" transform="scale(0.015625)"/>
       <path id="Times New Roman-61" d="M 1225 75
Q 775 75 525 287 
Q 275 500 275 775 
Q 275 1225 662 1512 
Q 1050 1800 2200 1925 
L 2200 2225 
Q 2200 2475 2087 2637 
Q 1975 2800 1575 2800 
Q 1150 2800 975 2662 
Q 800 2525 850 2375 
Q 875 2325 875 2275 
Q 875 2225 837 2150 
Q 800 2075 650 2075 
Q 550 2075 487 2137 
Q 425 2200 425 2325 
Q 425 2550 750 2750 
Q 1075 2950 1550 2950 
Q 2050 2950 2300 2762 
Q 2550 2575 2550 2225 
L 2550 575 
Q 2550 375 2587 337 
Q 2625 300 2725 300 
Q 2850 300 2900 412 
Q 2950 525 2950 725 
L 3075 725 
Q 3075 375 2950 237 
Q 2825 100 2625 100 
Q 2450 100 2350 175 
Q 2250 250 2200 425 
Q 1950 250 1737 162 
Q 1525 75 1225 75 
z
M 700 850 
Q 700 625 837 437 
Q 975 250 1275 250 
Q 1500 250 1725 337 
Q 1950 425 2200 600 
L 2200 1775 
Q 1350 1675 1025 1437 
Q 700 1200 700 850 
z
" transform="scale(0.015625)"/>
       <path id="Times New Roman-65" d="M 2400 1650
Q 2425 2200 2212 2487 
Q 2000 2775 1650 2775 
Q 1275 2775 1037 2475 
Q 800 2175 800 1650 
L 2400 1650 
z
M 800 1500 
Q 800 825 1062 537 
Q 1325 250 1750 250 
Q 2075 250 2300 437 
Q 2525 625 2625 900 
L 2750 850 
Q 2675 575 2412 312 
Q 2150 50 1700 50 
Q 1125 50 762 425 
Q 400 800 400 1500 
Q 400 2125 762 2537 
Q 1125 2950 1650 2950 
Q 2125 2950 2475 2625 
Q 2825 2300 2825 1500 
L 800 1500 
z
" transform="scale(0.015625)"/>
       <path id="Times New Roman-20" d="M 0 0
Q 0 0 0 0 
z
" transform="scale(0.015625)"/>
       <path id="Times New Roman-28" d="M 2900 5025
Q 2325 4425 2037 3737 
Q 1750 3050 1750 2300 
Q 1750 1525 2037 850 
Q 2325 175 2900 -425 
L 2775 -550 
Q 2075 75 1725 787 
Q 1375 1500 1375 2300 
Q 1375 3075 1725 3787 
Q 2075 4500 2775 5150 
L 2900 5025 
z
" transform="scale(0.015625)"/>
       <path id="Times New Roman-6b" d="M 1675 1900
L 2625 425 
Q 2700 325 2762 287 
Q 2825 250 2900 250 
L 3000 250 
L 3000 100 
L 1975 100 
L 1975 250 
L 2050 250 
Q 2175 250 2225 287 
Q 2275 325 2200 425 
L 1425 1650 
L 925 1125 
L 925 450 
Q 925 350 987 300 
Q 1050 250 1150 250 
L 1275 250 
L 1275 100 
L 225 100 
L 225 250 
L 350 250 
Q 475 250 525 300 
Q 575 350 575 450 
L 575 4025 
Q 575 4125 525 4175 
Q 475 4225 350 4225 
L 200 4225 
L 200 4375 
L 425 4375 
Q 575 4375 687 4425 
Q 800 4475 875 4575 
L 925 4575 
L 925 1400 
L 1975 2525 
Q 2025 2625 2012 2687 
Q 2000 2750 1900 2750 
L 1750 2750 
L 1750 2900 
L 2800 2900 
L 2800 2750 
L 2675 2750 
Q 2600 2750 2487 2712 
Q 2375 2675 2275 2575 
L 1675 1900 
z
M 2450 2750 
L 2450 2750 
z
M 2175 2750 
L 2175 2750 
z
M 2300 250 
L 2300 250 
z
M 2750 250 
L 2750 250 
z
" transform="scale(0.015625)"/>
       <path id="Times New Roman-62" d="M 875 2325
Q 1000 2600 1275 2762 
Q 1550 2925 1800 2925 
Q 2325 2925 2587 2562 
Q 2850 2200 2850 1500 
Q 2850 800 2512 437 
Q 2175 75 1675 75 
Q 1425 75 1212 162 
Q 1000 250 850 400 
L 625 100 
L 525 100 
L 525 4025 
Q 525 4125 475 4175 
Q 425 4225 300 4225 
L 150 4225 
L 150 4375 
L 375 4375 
Q 500 4375 625 4425 
Q 750 4475 875 4575 
L 875 2325 
z
M 875 925 
Q 875 650 1062 450 
Q 1250 250 1625 250 
Q 2075 250 2262 562 
Q 2450 875 2450 1500 
Q 2450 2100 2287 2412 
Q 2125 2725 1775 2725 
Q 1475 2725 1250 2550 
Q 1025 2375 875 1925 
L 875 925 
z
" transform="scale(0.015625)"/>
       <path id="Times New Roman-70" d="M 1150 -675
L 1325 -675 
L 1325 -825 
L 175 -825 
L 175 -675 
L 325 -675 
Q 450 -675 500 -625 
Q 550 -575 550 -450 
L 550 2500 
Q 550 2600 500 2662 
Q 450 2725 325 2725 
L 175 2725 
L 175 2875 
L 400 2875 
Q 525 2875 637 2900 
Q 750 2925 850 3000 
L 900 3000 
L 900 2425 
Q 1075 2675 1287 2800 
Q 1500 2925 1750 2925 
Q 2250 2925 2575 2587 
Q 2900 2250 2900 1525 
Q 2900 825 2550 450 
Q 2200 75 1725 75 
Q 1450 75 1262 162 
Q 1075 250 900 425 
L 900 -450 
Q 900 -575 975 -625 
Q 1050 -675 1150 -675 
z
M 900 750 
Q 1025 500 1212 375 
Q 1400 250 1650 250 
Q 2000 250 2250 562 
Q 2500 875 2500 1525 
Q 2500 2125 2312 2425 
Q 2125 2725 1750 2725 
Q 1525 2725 1300 2587 
Q 1075 2450 900 2150 
L 900 750 
z
" transform="scale(0.015625)"/>
       <path id="Times New Roman-73" d="M 625 2175
Q 625 2550 912 2750 
Q 1200 2950 1600 2950 
Q 1825 2950 2025 2900 
Q 2225 2825 2300 2825 
Q 2375 2825 2425 2850 
Q 2475 2875 2550 2950 
L 2650 2125 
L 2500 2100 
Q 2400 2425 2162 2612 
Q 1925 2800 1625 2800 
Q 1300 2800 1112 2675 
Q 925 2550 925 2325 
Q 925 2125 1012 2012 
Q 1100 1900 1325 1850 
Q 1500 1775 1775 1700 
Q 2025 1600 2250 1500 
Q 2450 1400 2587 1237 
Q 2725 1075 2725 875 
Q 2725 500 2462 287 
Q 2200 75 1700 75 
Q 1375 75 1225 150 
Q 1050 200 950 200 
Q 875 200 787 162 
Q 700 125 600 75 
L 525 1000 
L 675 1025 
Q 750 625 1000 425 
Q 1250 225 1700 225 
Q 2050 225 2237 350 
Q 2425 475 2425 725 
Q 2425 900 2325 1012 
Q 2225 1125 2125 1175 
Q 1875 1275 1575 1400 
Q 1275 1500 1050 1600 
Q 825 1700 725 1850 
Q 625 2000 625 2175 
z
" transform="scale(0.015625)"/>
       <path id="Times New Roman-29" d="M 275 5025
L 400 5150 
Q 1100 4500 1450 3787 
Q 1800 3075 1800 2300 
Q 1800 1500 1450 787 
Q 1100 75 400 -550 
L 275 -425 
Q 850 175 1137 850 
Q 1425 1525 1425 2300 
Q 1425 3050 1137 3737 
Q 850 4425 275 5025 
z
" transform="scale(0.015625)"/>
      </defs>
      <use xlink:href="#Times New Roman-42"/>
      <use xlink:href="#Times New Roman-69" x="50"/>
      <use xlink:href="#Times New Roman-74" x="100"/>
      <use xlink:href="#Times New Roman-72" x="150"/>
      <use xlink:href="#Times New Roman-61" x="200"/>
      <use xlink:href="#Times New Roman-74" x="250"/>
      <use xlink:href="#Times New Roman-65" x="300"/>
      <use xlink:href="#Times New Roman-20" x="350"/>
      <use xlink:href="#Times New Roman-28" x="400"/>
      <use xlink:href="#Times New Roman-6b" x="450"/>
      <use xlink:href="#Times New Roman-62" x="500"/>
      <use xlink:href="#Times New Roman-70" x="550"/>
      <use xlink:href="#Times New Roman-73" x="600"/>
      <use xlink:href="#Times New Roman-29" x="650"/>
     </g>
    </g>
   </g>
   <g id="line2d_13">
    <path d="M 173.045455 336.942153 
L 176.126058 336.942153 
L 179.206662 308.368319 
L 180.746964 129.429491 
L 180.746964 129.429491 
L 182.287265 129.429491 
L 185.367869 218.930938 
L 188.448473 218.930938 
L 188.448473 218.930938 
L 189.988774 129.429491 
L 189.988774 129.429491 
L 191.529076 256.41007 
L 196.149982 256.41007 
L 196.149982 256.41007 
L 197.690283 129.429491 
L 197.690283 129.429491 
L 199.230585 129.429491 
L 199.230585 256.41007 
L 205.391792 256.41007 
L 211.553 129.429491 
L 211.553 256.41007 
L 213.093301 256.41007 
L 213.093301 256.41007 
L 214.633603 308.368319 
L 219.254509 308.368319 
L 220.79481 256.41007 
L 251.600847 256.41007 
L 253.141148 369.36 
L 267.003865 369.36 
L 267.003865 129.429491 
L 268.544166 129.429491 
L 268.544166 256.41007 
L 276.245675 256.41007 
L 277.785977 129.429491 
L 279.326279 256.41007 
L 290.108392 256.41007 
L 291.648693 129.429491 
L 302.430806 129.429491 
L 303.971108 256.41007 
L 305.51141 336.942153 
L 308.592013 336.942153 
L 310.132315 308.368319 
L 310.132315 308.368319 
L 311.672617 308.368319 
L 314.75322 256.41007 
L 316.293522 256.41007 
L 317.833824 129.429491 
L 317.833824 129.429491 
L 319.374126 129.429491 
L 319.374126 256.41007 
L 322.454729 256.41007 
L 327.075635 129.429491 
L 327.075635 129.429491 
L 330.156238 129.429491 
L 331.69654 256.41007 
L 334.777144 256.41007 
L 336.317446 129.429491 
L 393.308612 129.429491 
L 394.848914 256.41007 
L 397.929518 256.41007 
L 399.46982 129.429491 
L 399.46982 218.930938 
L 401.010121 256.41007 
L 401.010121 256.41007 
L 405.631027 256.41007 
L 411.792234 129.429491 
L 413.332536 129.429491 
L 413.332536 129.429491 
L 413.332536 256.41007 
L 421.034045 256.41007 
L 421.034045 256.41007 
L 422.574347 308.368319 
L 428.735554 308.368319 
L 430.275856 256.41007 
L 436.437063 256.41007 
L 437.977365 308.368319 
L 442.59827 308.368319 
L 450.299779 256.41007 
L 450.299779 336.942153 
L 453.380383 336.942153 
L 458.001288 353.151076 
L 459.54159 353.151076 
L 461.081892 369.36 
L 464.162495 369.36 
L 464.162495 369.36 
L 465.702797 336.942153 
L 465.702797 336.942153 
L 481.105815 336.942153 
L 482.646117 308.368319 
L 484.186419 308.368319 
L 484.186419 256.41007 
L 498.049135 256.41007 
L 498.049135 129.429491 
L 561.201509 129.429491 
L 562.741811 233.217855 
L 564.282113 256.41007 
L 571.983622 256.41007 
L 575.064225 129.429491 
L 575.064225 129.429491 
L 576.604527 129.429491 
L 576.604527 256.41007 
L 578.144829 256.41007 
L 578.144829 256.41007 
L 579.685131 129.429491 
L 579.685131 129.429491 
L 595.088149 129.429491 
L 596.62845 308.368319 
L 602.789658 308.368319 
L 602.789658 308.368319 
L 604.32996 336.942153 
L 608.950865 336.942153 
L 619.732978 308.368319 
L 621.273279 308.368319 
L 622.813581 369.36 
L 641.297203 369.36 
L 641.297203 308.368319 
L 641.297203 308.368319 
L 642.837505 308.368319 
L 642.837505 336.942153 
L 650.539014 336.942153 
L 652.079315 256.41007 
L 665.942032 256.41007 
L 670.562937 129.429491 
L 673.643541 129.429491 
L 675.183842 256.41007 
L 678.264446 256.41007 
L 679.804748 129.429491 
L 685.965955 129.429491 
L 687.506257 308.368319 
L 690.586861 308.368319 
L 690.586861 308.368319 
L 692.127162 256.41007 
L 695.207766 129.429491 
L 696.748068 129.429491 
L 698.28837 218.930938 
L 698.28837 218.930938 
L 699.828671 218.930938 
L 699.828671 129.429491 
L 762.981045 129.429491 
L 764.521347 256.41007 
L 769.142252 256.41007 
L 773.763158 129.429491 
L 773.763158 129.429491 
L 775.30346 256.41007 
L 786.085572 256.41007 
L 792.24678 129.429491 
L 796.867685 129.429491 
L 796.867685 336.942153 
L 818.43191 336.942153 
L 819.972212 353.151076 
L 819.972212 353.151076 
L 821.512514 353.151076 
L 821.512514 336.942153 
L 829.214023 336.942153 
L 830.754325 369.36 
L 830.754325 369.36 
L 832.294626 369.36 
L 832.294626 336.942153 
L 833.834928 369.36 
L 838.455834 369.36 
L 841.536437 336.942153 
L 841.536437 336.942153 
L 849.237946 336.942153 
L 850.778248 308.368319 
L 852.31855 308.368319 
L 852.31855 256.41007 
L 864.640964 256.41007 
L 866.181266 129.429491 
L 930.873942 129.429491 
L 932.414244 256.41007 
L 933.954545 256.41007 
L 933.954545 256.41007 
" clip-path="url(#pbe34d748f6)" style="fill: none; stroke: #ff0000; stroke-width: 1.5; stroke-linecap: square"/>
   </g>
   <g id="line2d_14">
    <path d="M 173.045455 280.563288 
L 174.585756 243.228307 
L 180.746964 169.229267 
L 180.746964 144.681682 
L 182.287265 124.966164 
L 185.367869 108.565039 
L 186.908171 104.755195 
L 188.448473 104.251202 
L 188.448473 106.570424 
L 189.988774 114.600141 
L 189.988774 125.312125 
L 191.529076 136.33163 
L 196.149982 144.545006 
L 196.149982 151.878529 
L 197.690283 155.607222 
L 197.690283 154.236191 
L 199.230585 150.733868 
L 199.230585 148.401833 
L 200.770887 148.986977 
L 200.770887 149.580664 
L 202.311189 151.12254 
L 203.851491 153.326441 
L 205.391792 158.114374 
L 211.553 165.136105 
L 211.553 172.93091 
L 213.093301 181.742243 
L 213.093301 192.244942 
L 214.633603 202.128328 
L 216.173905 210.901221 
L 219.254509 224.363811 
L 220.79481 229.267063 
L 222.335112 235.293622 
L 222.335112 241.029745 
L 223.875414 247.086202 
L 223.875414 251.468377 
L 225.415716 256.418612 
L 225.415716 259.67321 
L 226.956018 262.227344 
L 226.956018 264.273213 
L 228.496319 267.698656 
L 228.496319 271.551212 
L 230.036621 275.79244 
L 231.576923 279.657809 
L 234.657527 288.417889 
L 236.197828 293.210093 
L 250.060545 300.372771 
L 251.600847 309.940094 
L 253.141148 321.335458 
L 254.68145 331.77409 
L 256.221752 341.388395 
L 257.762054 347.940303 
L 259.302356 351.600658 
L 260.842657 352.493323 
L 262.382959 353.112636 
L 265.463563 354.765562 
L 265.463563 355.688125 
L 267.003865 355.995646 
L 267.003865 355.974291 
L 268.544166 354.808273 
L 268.544166 353.176703 
L 270.084468 350.917277 
L 270.084468 349.055066 
L 271.62477 347.141602 
L 271.62477 345.625352 
L 274.705374 342.084589 
L 276.245675 339.556082 
L 277.785977 336.468058 
L 279.326279 332.72228 
L 282.406883 324.244095 
L 285.487486 319.443349 
L 287.027788 314.044646 
L 290.108392 300.569243 
L 291.648693 293.419378 
L 297.809901 284.85577 
L 299.350202 275.707018 
L 303.971108 265.264114 
L 305.51141 261.313323 
L 307.051711 255.585743 
L 308.592013 247.53467 
L 310.132315 243.199477 
L 310.132315 241.764378 
L 311.672617 240.457414 
L 314.75322 235.959918 
L 316.293522 227.955828 
L 317.833824 214.335207 
L 317.833824 195.379949 
L 319.374126 180.093589 
L 319.374126 175.429519 
L 320.914428 176.621163 
L 322.454729 175.280029 
L 327.075635 170.120509 
L 327.075635 163.090235 
L 328.615937 152.019477 
L 328.615937 141.798672 
L 330.156238 132.68836 
L 331.69654 134.836736 
L 333.236842 133.71343 
L 334.777144 134.687247 
L 336.317446 131.295973 
L 339.398049 130.040262 
L 340.938351 120.767647 
L 340.938351 110.65362 
L 342.478653 100.360206 
L 342.478653 94.7992 
L 345.559257 81.054716 
L 347.099558 81.430575 
L 351.720464 80.76428 
L 353.260766 85.616279 
L 353.260766 91.805141 
L 354.801067 99.394932 
L 356.341369 98.254541 
L 357.881671 94.265309 
L 359.421973 85.957969 
L 360.962275 80.34998 
L 365.58318 75.869569 
L 367.123482 78.650072 
L 368.663784 85.518043 
L 368.663784 92.232253 
L 370.204085 97.212386 
L 370.204085 101.17172 
L 371.744387 101.77822 
L 376.365293 101.654357 
L 377.905594 104.725297 
L 377.905594 109.825022 
L 380.986198 122.928837 
L 384.066802 129.062174 
L 385.607103 135.353542 
L 387.147405 140.209813 
L 388.687707 146.454199 
L 391.768311 153.672402 
L 391.768311 163.299521 
L 394.848914 178.632863 
L 397.929518 191.47614 
L 399.46982 200.761568 
L 399.46982 212.56696 
L 401.010121 225.61098 
L 401.010121 234.576073 
L 402.550423 241.072456 
L 402.550423 243.199477 
L 404.090725 241.567907 
L 405.631027 239.035129 
L 411.792234 241.290283 
L 413.332536 248.704958 
L 413.332536 266.61379 
L 414.872838 275.173127 
L 414.872838 281.729306 
L 416.413139 285.57759 
L 416.413139 287.73878 
L 417.953441 289.852987 
L 419.493743 292.552339 
L 419.493743 295.836835 
L 421.034045 299.514275 
L 421.034045 303.217341 
L 424.114649 310.294597 
L 428.735554 320.92543 
L 430.275856 324.75663 
L 436.437063 329.446326 
L 439.517667 339.487744 
L 441.057968 343.865648 
L 442.59827 347.530274 
L 450.299779 349.875123 
L 450.299779 351.024056 
L 451.840081 351.139376 
L 451.840081 350.942904 
L 453.380383 350.913006 
L 458.001288 350.233897 
L 459.54159 348.820155 
L 461.081892 346.167785 
L 462.622194 343.139557 
L 464.162495 338.86416 
L 464.162495 334.550322 
L 465.702797 330.129707 
L 465.702797 326.751246 
L 467.243099 322.996926 
L 471.864004 318.576311 
L 471.864004 313.365537 
L 473.404306 307.30908 
L 476.48491 300.74863 
L 479.565513 286.055956 
L 479.565513 279.435711 
L 484.186419 261.018615 
L 484.186419 255.470422 
L 485.726721 249.823993 
L 485.726721 244.984808 
L 490.347626 231.731503 
L 496.508833 225.679318 
L 498.049135 217.119981 
L 498.049135 205.489704 
L 499.589437 195.187748 
L 499.589437 186.961559 
L 501.129739 180.409652 
L 502.67004 174.993864 
L 505.750644 169.616516 
L 507.290946 163.833411 
L 507.290946 155.543156 
L 508.831248 147.351136 
L 510.37155 140.363573 
L 513.452153 134.221694 
L 514.992455 128.511198 
L 518.073059 121.737192 
L 518.073059 115.911376 
L 519.61336 109.897631 
L 521.153662 105.203663 
L 522.693964 100.009974 
L 525.774568 96.435041 
L 530.395473 86.637078 
L 531.935775 83.980438 
L 531.935775 82.178022 
L 533.476077 80.358523 
L 535.016378 77.830016 
L 536.55668 76.66827 
L 538.096982 74.212372 
L 539.637284 72.563717 
L 541.177586 69.155359 
L 542.717887 69.223697 
L 545.798491 75.280154 
L 545.798491 89.626866 
L 547.338793 102.235231 
L 548.879095 110.683518 
L 550.419396 112.298004 
L 551.959698 108.07386 
L 553.5 98.177661 
L 553.5 89.532902 
L 555.040302 86.995853 
L 556.580604 90.506718 
L 561.201509 103.563551 
L 562.741811 119.366717 
L 564.282113 136.318817 
L 567.362716 162.46238 
L 568.903018 171.888755 
L 570.44332 176.262388 
L 570.44332 180.571955 
L 571.983622 183.655708 
L 575.064225 188.464996 
L 575.064225 194.346336 
L 576.604527 198.369737 
L 576.604527 207.386084 
L 578.144829 212.011714 
L 578.144829 211.576059 
L 579.685131 206.907718 
L 579.685131 203.089332 
L 581.225432 199.582737 
L 582.765734 199.2923 
L 588.926941 203.738543 
L 590.467243 212.464453 
L 592.007545 222.31367 
L 595.088149 233.132433 
L 598.168752 256.055566 
L 598.168752 265.02066 
L 599.709054 272.22605 
L 599.709054 282.562175 
L 601.249356 285.953449 
L 601.249356 288.494769 
L 602.789658 290.878058 
L 602.789658 293.158839 
L 604.32996 295.601923 
L 605.870261 298.467849 
L 607.410563 302.145288 
L 608.950865 306.330992 
L 619.732978 312.481414 
L 621.273279 320.019951 
L 622.813581 328.809929 
L 624.353883 336.907984 
L 625.894185 344.02368 
L 627.434487 348.824426 
L 627.434487 351.562217 
L 628.974788 352.527492 
L 633.595694 353.432971 
L 636.676297 352.963147 
L 639.756901 351.797129 
L 639.756901 350.985615 
L 641.297203 350.020341 
L 641.297203 346.970757 
L 642.837505 346.385613 
L 642.837505 347.115975 
L 644.377806 349.208827 
L 645.918108 353.08701 
L 648.998712 354.838171 
L 650.539014 352.723964 
L 652.079315 345.117088 
L 653.619617 335.750509 
L 655.159919 323.898134 
L 656.700221 313.310012 
L 658.240523 304.097193 
L 659.780824 298.672863 
L 662.861428 286.457442 
L 664.40173 279.521133 
L 665.942032 273.268205 
L 670.562937 265.32391 
L 672.103239 256.973859 
L 672.103239 248.183881 
L 679.804748 209.128704 
L 684.425653 206.369556 
L 685.965955 209.83344 
L 687.506257 214.433442 
L 689.046559 215.270583 
L 690.586861 209.560088 
L 690.586861 198.339839 
L 692.127162 180.866662 
L 695.207766 163.337961 
L 696.748068 150.127368 
L 698.28837 142.136091 
L 698.28837 135.08019 
L 699.828671 128.788822 
L 699.828671 124.49634 
L 702.909275 116.757059 
L 704.449577 111.020937 
L 707.53018 98.190474 
L 709.070482 91.442095 
L 710.610784 87.422965 
L 713.691388 84.334941 
L 715.231689 85.381367 
L 715.231689 87.696317 
L 716.771991 90.459736 
L 718.312293 90.980813 
L 719.852595 89.515817 
L 721.392897 84.697987 
L 722.933198 77.945336 
L 722.933198 73.157404 
L 724.4735 70.586186 
L 726.013802 70.423883 
L 727.554104 69.266408 
L 730.634707 68.732517 
L 732.175009 66.96 
L 733.715311 67.092405 
L 735.255613 69.441524 
L 736.795915 73.678481 
L 739.876518 83.45936 
L 741.41682 87.358898 
L 742.957122 90.720275 
L 747.578027 96.631513 
L 749.118329 104.31954 
L 750.658631 113.622053 
L 750.658631 122.937379 
L 752.198933 133.431536 
L 752.198933 140.76933 
L 753.739234 144.715851 
L 755.279536 147.244358 
L 759.900442 151.139625 
L 759.900442 156.815951 
L 761.440743 163.615584 
L 761.440743 171.124224 
L 762.981045 177.63342 
L 764.521347 182.908261 
L 767.601951 189.592573 
L 769.142252 194.858871 
L 773.763158 202.70493 
L 773.763158 211.678566 
L 778.384063 241.798547 
L 778.384063 250.550085 
L 779.924365 258.455939 
L 779.924365 264.055386 
L 781.464667 268.817691 
L 781.464667 271.491416 
L 783.004969 273.738029 
L 784.545271 275.352514 
L 786.085572 278.226982 
L 792.24678 283.271182 
L 793.787081 290.421047 
L 796.867685 299.501461 
L 796.867685 308.983361 
L 798.407987 318.204723 
L 798.407987 325.36313 
L 799.948289 330.467126 
L 801.48859 333.461185 
L 803.028892 335.942709 
L 804.569194 338.210677 
L 804.569194 340.478645 
L 806.109496 342.763698 
L 806.109496 344.839465 
L 807.649798 346.620525 
L 810.730401 349.153302 
L 818.43191 350.13139 
L 819.972212 350.797686 
L 819.972212 351.109478 
L 821.512514 351.058225 
L 821.512514 350.742161 
L 823.052816 350.16983 
L 827.673721 349.012355 
L 829.214023 347.265465 
L 830.754325 344.877905 
L 830.754325 342.400652 
L 832.294626 339.581709 
L 832.294626 337.155709 
L 833.834928 334.452086 
L 836.915532 331.022372 
L 838.455834 326.294235 
L 841.536437 320.220694 
L 841.536437 313.557737 
L 843.076739 306.2114 
L 846.157343 299.11706 
L 847.697644 291.928755 
L 847.697644 285.611759 
L 852.31855 267.779808 
L 852.31855 262.13765 
L 853.858852 256.75176 
L 853.858852 251.464106 
L 858.479757 237.74952 
L 863.100662 230.714975 
L 864.640964 222.629733 
L 866.181266 212.152661 
L 867.721568 203.119229 
L 867.721568 194.833245 
L 869.26187 188.763975 
L 870.802172 182.194983 
L 873.882775 175.403892 
L 875.423077 167.416886 
L 875.423077 158.861821 
L 878.503681 142.153175 
L 881.584284 134.845278 
L 883.124586 128.635061 
L 884.664888 121.937935 
L 886.20519 117.085936 
L 889.285793 112.712303 
L 889.285793 111.529201 
L 890.826095 108.898187 
L 893.906699 106.963367 
L 896.987302 99.599946 
L 896.987302 94.051753 
L 898.527604 88.682947 
L 901.608208 84.151283 
L 901.608208 80.324354 
L 903.148509 77.889812 
L 906.229113 77.018502 
L 906.229113 77.949607 
L 907.769415 78.833731 
L 909.309717 77.949607 
L 910.850018 76.561492 
L 912.39032 73.793802 
L 913.930622 72.008471 
L 915.470924 69.46288 
L 918.551527 72.175045 
L 920.091829 79.380435 
L 921.632131 84.091487 
L 923.172433 91.360943 
L 926.253036 94.560017 
L 929.33364 104.306727 
L 930.873942 117.158545 
L 932.414244 132.017793 
L 933.954545 142.751133 
L 933.954545 142.751133 
" clip-path="url(#pbe34d748f6)" style="fill: none; stroke: #008000; stroke-width: 1.5; stroke-linecap: square"/>
   </g>
   <g id="patch_3">
    <path d="M 135 384.48 
L 135 51.84 
" style="fill: none; stroke: #000000; stroke-width: 0.8; stroke-linejoin: miter; stroke-linecap: square"/>
   </g>
   <g id="patch_4">
    <path d="M 972 384.48 
L 972 51.84 
" style="fill: none; stroke: #000000; stroke-width: 0.8; stroke-linejoin: miter; stroke-linecap: square"/>
   </g>
   <g id="patch_5">
    <path d="M 135 384.48 
L 972 384.48 
" style="fill: none; stroke: #000000; stroke-width: 0.8; stroke-linejoin: miter; stroke-linecap: square"/>
   </g>
   <g id="patch_6">
    <path d="M 135 51.84 
L 972 51.84 
" style="fill: none; stroke: #000000; stroke-width: 0.8; stroke-linejoin: miter; stroke-linecap: square"/>
   </g>
  </g>
  <g id="axes_2">
   <g id="matplotlib.axis_3">
    <g id="ytick_7">
     <g id="line2d_15">
      <path d="M 135 369.36 
L 972 369.36 
" clip-path="url(#pbe34d748f6)" style="fill: none; stroke: #b0b0b0; stroke-width: 0.8; stroke-linecap: square"/>
     </g>
     <g id="line2d_16">
      <defs>
       <path id="maa0b646930" d="M 0 0 
L 3.5 0 
" style="stroke: #000000; stroke-width: 0.8"/>
      </defs>
      <g>
       <use xlink:href="#maa0b646930" x="972" y="369.36" style="stroke: #000000; stroke-width: 0.8"/>
      </g>
     </g>
     <g id="text_14">
      <!-- 0 -->
      <g transform="translate(979 372.934219) scale(0.1 -0.1)">
       <use xlink:href="#Times New Roman-30"/>
      </g>
     </g>
    </g>
    <g id="ytick_8">
     <g id="line2d_17">
      <path d="M 135 319.509089 
L 972 319.509089 
" clip-path="url(#pbe34d748f6)" style="fill: none; stroke: #b0b0b0; stroke-width: 0.8; stroke-linecap: square"/>
     </g>
     <g id="line2d_18">
      <g>
       <use xlink:href="#maa0b646930" x="972" y="319.509089" style="stroke: #000000; stroke-width: 0.8"/>
      </g>
     </g>
     <g id="text_15">
      <!-- 5 -->
      <g transform="translate(979 323.083308) scale(0.1 -0.1)">
       <use xlink:href="#Times New Roman-35"/>
      </g>
     </g>
    </g>
    <g id="ytick_9">
     <g id="line2d_19">
      <path d="M 135 269.658178 
L 972 269.658178 
" clip-path="url(#pbe34d748f6)" style="fill: none; stroke: #b0b0b0; stroke-width: 0.8; stroke-linecap: square"/>
     </g>
     <g id="line2d_20">
      <g>
       <use xlink:href="#maa0b646930" x="972" y="269.658178" style="stroke: #000000; stroke-width: 0.8"/>
      </g>
     </g>
     <g id="text_16">
      <!-- 10 -->
      <g transform="translate(979 273.232397) scale(0.1 -0.1)">
       <use xlink:href="#Times New Roman-31"/>
       <use xlink:href="#Times New Roman-30" x="50"/>
      </g>
     </g>
    </g>
    <g id="ytick_10">
     <g id="line2d_21">
      <path d="M 135 219.807267 
L 972 219.807267 
" clip-path="url(#pbe34d748f6)" style="fill: none; stroke: #b0b0b0; stroke-width: 0.8; stroke-linecap: square"/>
     </g>
     <g id="line2d_22">
      <g>
       <use xlink:href="#maa0b646930" x="972" y="219.807267" style="stroke: #000000; stroke-width: 0.8"/>
      </g>
     </g>
     <g id="text_17">
      <!-- 15 -->
      <g transform="translate(979 223.381486) scale(0.1 -0.1)">
       <use xlink:href="#Times New Roman-31"/>
       <use xlink:href="#Times New Roman-35" x="50"/>
      </g>
     </g>
    </g>
    <g id="ytick_11">
     <g id="line2d_23">
      <path d="M 135 169.956356 
L 972 169.956356 
" clip-path="url(#pbe34d748f6)" style="fill: none; stroke: #b0b0b0; stroke-width: 0.8; stroke-linecap: square"/>
     </g>
     <g id="line2d_24">
      <g>
       <use xlink:href="#maa0b646930" x="972" y="169.956356" style="stroke: #000000; stroke-width: 0.8"/>
      </g>
     </g>
     <g id="text_18">
      <!-- 20 -->
      <g transform="translate(979 173.530575) scale(0.1 -0.1)">
       <use xlink:href="#Times New Roman-32"/>
       <use xlink:href="#Times New Roman-30" x="50"/>
      </g>
     </g>
    </g>
    <g id="ytick_12">
     <g id="line2d_25">
      <path d="M 135 120.105445 
L 972 120.105445 
" clip-path="url(#pbe34d748f6)" style="fill: none; stroke: #b0b0b0; stroke-width: 0.8; stroke-linecap: square"/>
     </g>
     <g id="line2d_26">
      <g>
       <use xlink:href="#maa0b646930" x="972" y="120.105445" style="stroke: #000000; stroke-width: 0.8"/>
      </g>
     </g>
     <g id="text_19">
      <!-- 25 -->
      <g transform="translate(979 123.679664) scale(0.1 -0.1)">
       <use xlink:href="#Times New Roman-32"/>
       <use xlink:href="#Times New Roman-35" x="50"/>
      </g>
     </g>
    </g>
    <g id="ytick_13">
     <g id="line2d_27">
      <path d="M 135 70.254534 
L 972 70.254534 
" clip-path="url(#pbe34d748f6)" style="fill: none; stroke: #b0b0b0; stroke-width: 0.8; stroke-linecap: square"/>
     </g>
     <g id="line2d_28">
      <g>
       <use xlink:href="#maa0b646930" x="972" y="70.254534" style="stroke: #000000; stroke-width: 0.8"/>
      </g>
     </g>
     <g id="text_20">
      <!-- 30 -->
      <g transform="translate(979 73.828752) scale(0.1 -0.1)">
       <use xlink:href="#Times New Roman-33"/>
       <use xlink:href="#Times New Roman-30" x="50"/>
      </g>
     </g>
    </g>
    <g id="text_21">
     <!-- buffer (s) -->
     <g transform="translate(1000.617188 243.16) rotate(-90) scale(0.1 -0.1)">
      <defs>
       <path id="Times New Roman-75" d="M 1450 325
Q 1750 325 1962 475 
Q 2175 625 2275 950 
L 2275 2525 
Q 2275 2625 2225 2687 
Q 2175 2750 2050 2750 
L 1900 2750 
L 1900 2900 
L 2050 2900 
Q 2200 2900 2325 2925 
Q 2450 2950 2575 3050 
L 2625 3050 
L 2625 600 
Q 2625 500 2687 450 
Q 2750 400 2850 400 
L 3000 400 
L 3000 250 
L 2850 250 
Q 2725 250 2600 212 
Q 2475 175 2325 100 
L 2275 100 
L 2275 625 
Q 2150 350 1900 212 
Q 1650 75 1325 75 
Q 925 75 725 300 
Q 525 525 525 1025 
L 525 2525 
Q 525 2625 475 2687 
Q 425 2750 300 2750 
L 150 2750 
L 150 2900 
L 300 2900 
Q 450 2900 575 2925 
Q 700 2950 825 3050 
L 875 3050 
L 875 975 
Q 875 625 1025 475 
Q 1175 325 1450 325 
z
" transform="scale(0.015625)"/>
       <path id="Times New Roman-66" d="M 1125 3325
Q 1125 3850 1450 4112 
Q 1775 4375 2175 4375 
Q 2600 4375 2812 4225 
Q 3025 4075 3025 3875 
Q 3025 3775 2975 3700 
Q 2925 3625 2775 3625 
Q 2675 3625 2612 3675 
Q 2550 3725 2550 3850 
Q 2550 3875 2575 3925 
Q 2575 3975 2575 4000 
Q 2575 4100 2500 4162 
Q 2425 4225 2150 4225 
Q 1850 4225 1662 4037 
Q 1475 3850 1475 3400 
L 1475 2900 
L 2525 2900 
L 2525 2750 
L 1475 2750 
L 1475 450 
Q 1475 350 1537 300 
Q 1600 250 1700 250 
L 2300 250 
L 2300 100 
L 475 100 
L 475 250 
L 900 250 
Q 1025 250 1075 300 
Q 1125 350 1125 450 
L 1125 2750 
L 350 2750 
L 350 2900 
L 1125 2900 
L 1125 3325 
z
" transform="scale(0.015625)"/>
      </defs>
      <use xlink:href="#Times New Roman-62"/>
      <use xlink:href="#Times New Roman-75" x="50"/>
      <use xlink:href="#Times New Roman-66" x="100"/>
      <use xlink:href="#Times New Roman-66" x="150"/>
      <use xlink:href="#Times New Roman-65" x="200"/>
      <use xlink:href="#Times New Roman-72" x="250"/>
      <use xlink:href="#Times New Roman-20" x="300"/>
      <use xlink:href="#Times New Roman-28" x="350"/>
      <use xlink:href="#Times New Roman-73" x="400"/>
      <use xlink:href="#Times New Roman-29" x="450"/>
     </g>
    </g>
   </g>
   <g id="line2d_29">
    <path d="M 173.045455 369.36 
L 174.585756 349.419636 
L 176.126058 340.972671 
L 179.206662 320.893829 
L 180.746964 308.283181 
L 180.746964 287.027308 
L 182.287265 275.326191 
L 185.367869 261.557396 
L 186.908171 250.687128 
L 188.448473 231.646848 
L 188.448473 220.79966 
L 189.988774 215.676093 
L 189.988774 221.399718 
L 191.529076 214.314426 
L 196.149982 213.69129 
L 196.149982 206.167496 
L 197.690283 208.38309 
L 197.690283 214.637532 
L 199.230585 215.929963 
L 199.230585 226.42635 
L 200.770887 217.194701 
L 200.770887 221.524344 
L 202.311189 217.314711 
L 203.851491 222.050546 
L 205.391792 215.736096 
L 211.553 225.369927 
L 211.553 243.967086 
L 213.093301 255.183541 
L 213.093301 258.649423 
L 214.633603 251.86416 
L 216.173905 251.171788 
L 217.714207 264.567214 
L 219.254509 276.610506 
L 220.79481 287.301662 
L 222.335112 273.067362 
L 222.335112 300.420142 
L 223.875414 254.094816 
L 223.875414 274.765672 
L 225.415716 254.245309 
L 225.415716 261.815262 
L 226.956018 214.703753 
L 226.956018 210.354846 
L 228.496319 225.494752 
L 228.496319 259.55954 
L 230.036621 236.285751 
L 231.576923 251.425658 
L 233.117225 247.640682 
L 236.197828 293.060401 
L 250.060545 326.063554 
L 251.600847 337.305788 
L 253.141148 333.291713 
L 254.68145 307.535405 
L 256.221752 293.339042 
L 257.762054 284.198017 
L 259.302356 277.001078 
L 260.842657 269.108017 
L 262.382959 258.580834 
L 263.923261 242.821475 
L 265.463563 220.873227 
L 265.463563 202.782961 
L 267.003865 184.246676 
L 267.003865 193.271948 
L 268.544166 177.992898 
L 268.544166 206.470854 
L 270.084468 173.835637 
L 270.084468 220.411979 
L 271.62477 168.131953 
L 271.62477 232.064463 
L 273.165072 161.531989 
L 274.705374 186.091987 
L 276.245675 133.606725 
L 277.785977 158.185994 
L 282.406883 123.082643 
L 285.487486 138.96108 
L 287.027788 156.801243 
L 288.56809 176.603133 
L 291.648693 164.971257 
L 297.809901 176.464662 
L 299.350202 182.003653 
L 302.430806 191.696883 
L 303.971108 246.394413 
L 305.51141 292.991168 
L 307.051711 327.540619 
L 308.592013 291.537181 
L 310.132315 264.191728 
L 310.132315 231.373212 
L 311.672617 221.952473 
L 314.75322 218.487293 
L 316.293522 228.111289 
L 317.833824 221.742519 
L 317.833824 219.180736 
L 319.374126 213.085471 
L 319.374126 208.703822 
L 320.914428 201.526213 
L 322.454729 199.728417 
L 327.075635 202.520992 
L 327.075635 207.136817 
L 328.615937 209.036024 
L 328.615937 210.859274 
L 330.156238 209.10526 
L 331.69654 208.31385 
L 333.236842 209.649519 
L 334.777144 210.802015 
L 336.317446 211.77134 
L 339.398049 215.882345 
L 340.938351 218.976408 
L 340.938351 226.038621 
L 342.478653 219.391833 
L 342.478653 225.89905 
L 344.018955 229.081778 
L 345.559257 235.586805 
L 347.099558 230.598429 
L 351.720464 233.50859 
L 353.260766 235.312048 
L 353.260766 244.54808 
L 354.801067 246.255934 
L 356.341369 249.440852 
L 357.881671 245.384623 
L 359.421973 244.533545 
L 360.962275 246.887618 
L 365.58318 252.236278 
L 367.123482 252.348825 
L 368.663784 247.225258 
L 368.663784 244.109576 
L 370.204085 239.262961 
L 370.204085 240.812111 
L 371.744387 237.748284 
L 373.284689 238.656913 
L 376.365293 239.254122 
L 377.905594 239.202267 
L 377.905594 243.555679 
L 379.445896 244.59424 
L 380.986198 246.809837 
L 384.066802 247.50221 
L 385.607103 248.194584 
L 387.147405 247.921054 
L 388.687707 247.78258 
L 391.768311 248.890376 
L 391.768311 247.778095 
L 393.308612 243.9008 
L 394.848914 235.872685 
L 396.389216 235.04974 
L 397.929518 231.099886 
L 399.46982 231.648237 
L 399.46982 233.19141 
L 401.010121 235.756517 
L 401.010121 238.58172 
L 402.550423 229.772919 
L 404.090725 226.503108 
L 405.631027 228.437233 
L 411.792234 236.526871 
L 413.332536 244.035818 
L 413.332536 302.107422 
L 414.872838 307.461779 
L 414.872838 318.675418 
L 416.413139 278.240785 
L 416.413139 291.162984 
L 417.953441 281.932741 
L 419.493743 291.948378 
L 419.493743 313.137131 
L 421.034045 303.906888 
L 421.034045 334.325883 
L 422.574347 320.478405 
L 424.114649 340.141822 
L 425.65495 323.2479 
L 430.275856 309.5389 
L 436.437063 327.956044 
L 437.977365 347.896411 
L 439.517667 369.36 
L 450.299779 369.36 
L 450.299779 317.524281 
L 451.840081 301.674274 
L 451.840081 271.117508 
L 453.380383 303.01286 
L 458.001288 318.862867 
L 459.54159 324.863439 
L 461.081892 299.972602 
L 462.622194 240.821602 
L 464.162495 199.963614 
L 464.162495 191.420028 
L 465.702797 179.118053 
L 465.702797 212.859748 
L 467.243099 191.319692 
L 471.864004 189.657995 
L 471.864004 141.84597 
L 473.404306 143.369195 
L 476.48491 141.406774 
L 478.025212 142.412036 
L 479.565513 135.072872 
L 479.565513 126.845511 
L 482.646117 117.716396 
L 484.186419 115.166502 
L 484.186419 112.90475 
L 485.726721 106.76355 
L 485.726721 101.394966 
L 487.267022 95.554156 
L 488.807324 95.382319 
L 490.347626 95.073435 
L 496.508833 101.652777 
L 498.049135 106.396434 
L 498.049135 111.105391 
L 499.589437 107.134589 
L 499.589437 102.782159 
L 501.129739 99.686355 
L 502.67004 97.283739 
L 505.750644 100.944608 
L 507.290946 101.964105 
L 507.290946 106.677968 
L 508.831248 107.093649 
L 510.37155 108.476769 
L 513.452153 107.711061 
L 514.992455 108.817789 
L 518.073059 110.482697 
L 518.073059 109.927712 
L 519.61336 108.681439 
L 521.153662 98.082952 
L 522.693964 97.320471 
L 525.774568 94.81863 
L 527.314869 99.182542 
L 528.855171 92.40119 
L 531.935775 74.814736 
L 531.935775 72.528324 
L 533.476077 71.153033 
L 535.016378 72.399309 
L 536.55668 70.254534 
L 550.419396 70.254534 
L 551.959698 88.360105 
L 553.5 88.360105 
L 553.5 125.471336 
L 555.040302 122.044087 
L 556.580604 122.044087 
L 561.201509 128.344689 
L 562.741811 200.074613 
L 564.282113 280.113017 
L 565.822414 310.785175 
L 567.362716 293.752777 
L 568.903018 278.591438 
L 570.44332 266.541253 
L 570.44332 243.969901 
L 571.983622 240.021722 
L 575.064225 240.732842 
L 575.064225 253.472487 
L 575.064225 247.379599 
L 576.604527 237.067748 
L 576.604527 237.745117 
L 578.144829 239.995364 
L 578.144829 245.260388 
L 579.685131 235.236036 
L 579.685131 233.324474 
L 581.225432 228.277646 
L 582.765734 228.208343 
L 588.926941 238.947639 
L 590.467243 251.241025 
L 592.007545 265.088501 
L 595.088149 265.319581 
L 596.62845 265.643264 
L 598.168752 272.08234 
L 598.168752 289.783742 
L 599.709054 291.398705 
L 599.709054 299.22253 
L 599.709054 273.535461 
L 601.249356 279.282165 
L 601.249356 261.834344 
L 602.789658 270.69673 
L 602.789658 261.488157 
L 604.32996 266.750198 
L 605.870261 268.411894 
L 608.950865 284.198017 
L 619.732978 315.216365 
L 621.273279 329.756213 
L 622.813581 338.064698 
L 624.353883 317.155006 
L 625.894185 304.85841 
L 627.434487 267.954889 
L 627.434487 253.276567 
L 628.974788 237.739738 
L 632.055392 247.917631 
L 633.595694 236.556279 
L 635.135996 228.801694 
L 636.676297 217.41995 
L 638.216599 198.302833 
L 639.756901 171.112066 
L 639.756901 139.511248 
L 641.297203 116.076877 
L 641.297203 125.612114 
L 641.297203 122.787229 
L 642.837505 119.482298 
L 642.837505 88.533191 
L 645.918108 77.233651 
L 648.998712 95.159136 
L 652.079315 119.122121 
L 653.619617 109.228173 
L 656.700221 128.852989 
L 658.240523 138.163219 
L 659.780824 127.264918 
L 661.321126 132.57639 
L 662.861428 139.833115 
L 664.40173 149.035095 
L 665.942032 143.972555 
L 670.562937 149.003268 
L 672.103239 154.332357 
L 672.103239 165.881788 
L 673.643541 166.62579 
L 675.183842 166.35924 
L 676.724144 179.836909 
L 678.264446 188.098156 
L 679.804748 191.14298 
L 684.425653 180.064999 
L 685.965955 239.470673 
L 687.506257 290.637096 
L 689.046559 327.333756 
L 690.586861 291.53803 
L 690.586861 246.805889 
L 692.127162 230.603494 
L 695.207766 222.225769 
L 696.748068 233.375543 
L 698.28837 218.415926 
L 698.28837 210.845975 
L 699.828671 200.739555 
L 699.828671 210.114023 
L 701.368973 199.959207 
L 702.909275 204.433363 
L 704.449577 195.703062 
L 705.989879 199.293816 
L 707.53018 200.274609 
L 709.070482 202.154547 
L 710.610784 204.933633 
L 715.231689 209.004455 
L 715.231689 216.829912 
L 716.771991 217.669557 
L 718.312293 217.751203 
L 721.392897 226.116721 
L 722.933198 240.850934 
L 722.933198 235.032628 
L 724.4735 240.710582 
L 726.013802 236.554464 
L 727.554104 240.985452 
L 730.634707 246.295527 
L 732.175009 251.0988 
L 733.715311 255.395271 
L 736.795915 263.01138 
L 738.336216 267.027147 
L 739.876518 261.811266 
L 741.41682 261.072734 
L 742.957122 264.811553 
L 747.578027 272.473821 
L 749.118329 274.089359 
L 750.658631 270.895341 
L 750.658631 267.571947 
L 752.198933 262.032956 
L 752.198933 258.766833 
L 753.739234 252.21337 
L 755.279536 252.074897 
L 759.900442 255.764009 
L 759.900442 258.994078 
L 761.440743 258.846592 
L 761.440743 260.367224 
L 762.981045 259.466588 
L 764.521347 259.063194 
L 766.061649 258.0982 
L 767.601951 259.68978 
L 769.142252 263.837934 
L 773.763158 267.499614 
L 773.763158 268.916563 
L 775.30346 269.197994 
L 776.843762 267.475677 
L 778.384063 266.33895 
L 778.384063 274.738337 
L 779.924365 281.965799 
L 779.924365 285.471986 
L 781.464667 275.963385 
L 781.464667 274.606332 
L 783.004969 277.412753 
L 784.545271 283.616421 
L 786.085572 279.545263 
L 792.24678 283.962609 
L 793.787081 292.021842 
L 796.867685 298.807106 
L 796.867685 298.66863 
L 798.407987 299.453319 
L 798.407987 296.545349 
L 799.948289 297.076169 
L 801.48859 291.721813 
L 803.028892 302.384369 
L 804.569194 326.155872 
L 804.569194 332.179522 
L 806.109496 348.934971 
L 806.109496 324.84036 
L 807.649798 331.556386 
L 809.190099 315.493312 
L 810.730401 321.170775 
L 818.43191 334.879779 
L 819.972212 331.279434 
L 819.972212 292.252635 
L 821.512514 266.219322 
L 821.512514 250.617835 
L 823.052816 275.381737 
L 827.673721 301.415049 
L 829.214023 314.904799 
L 830.754325 305.765465 
L 830.754325 250.934001 
L 832.294626 241.970031 
L 832.294626 218.360082 
L 833.834928 190.391274 
L 836.915532 139.707242 
L 838.455834 125.513584 
L 841.536437 129.390054 
L 841.536437 126.416251 
L 843.076739 125.862351 
L 846.157343 121.562823 
L 847.697644 120.659332 
L 847.697644 111.796946 
L 849.237946 107.642704 
L 850.778248 104.457784 
L 852.31855 103.626936 
L 852.31855 101.826764 
L 853.858852 97.845615 
L 853.858852 92.791288 
L 855.399153 88.706283 
L 856.939455 87.113823 
L 858.479757 87.183059 
L 863.100662 89.606368 
L 864.640964 95.87235 
L 866.181266 99.128513 
L 867.721568 98.297664 
L 867.721568 94.697322 
L 869.26187 93.656756 
L 870.802172 91.441161 
L 873.882775 92.827914 
L 875.423077 93.939722 
L 875.423077 98.97097 
L 876.963379 99.476706 
L 878.503681 100.857443 
L 881.584284 100.811286 
L 883.124586 101.826767 
L 884.664888 102.03448 
L 886.20519 102.726852 
L 889.285793 101.896004 
L 889.285793 95.872352 
L 890.826095 93.518282 
L 893.906699 91.164213 
L 895.447 92.964385 
L 896.987302 86.317597 
L 896.987302 79.047673 
L 898.527604 73.122124 
L 901.608208 67.721609 
L 901.608208 66.96 
L 903.148509 67.346561 
L 906.229113 70.254534 
L 906.229113 70.254534 
L 929.33364 70.254534 
L 930.873942 169.956356 
L 933.954545 330.033165 
L 933.954545 330.033165 
" clip-path="url(#pbe34d748f6)" style="fill: none; stroke: #1f77b4; stroke-width: 1.5; stroke-linecap: square"/>
   </g>
   <g id="patch_7">
    <path d="M 135 384.48 
L 135 51.84 
" style="fill: none; stroke: #000000; stroke-width: 0.8; stroke-linejoin: miter; stroke-linecap: square"/>
   </g>
   <g id="patch_8">
    <path d="M 972 384.48 
L 972 51.84 
" style="fill: none; stroke: #000000; stroke-width: 0.8; stroke-linejoin: miter; stroke-linecap: square"/>
   </g>
   <g id="patch_9">
    <path d="M 135 384.48 
L 972 384.48 
" style="fill: none; stroke: #000000; stroke-width: 0.8; stroke-linejoin: miter; stroke-linecap: square"/>
   </g>
   <g id="patch_10">
    <path d="M 135 51.84 
L 972 51.84 
" style="fill: none; stroke: #000000; stroke-width: 0.8; stroke-linejoin: miter; stroke-linecap: square"/>
   </g>
   <g id="text_22">
    <!-- ./comyco/log_comyco_1_wave -->
    <g transform="translate(475.5 45.84) scale(0.12 -0.12)">
     <defs>
      <path id="Times New Roman-2e" d="M 800 25
Q 650 25 537 125 
Q 425 225 425 400 
Q 425 575 537 675 
Q 650 775 800 775 
Q 950 775 1062 662 
Q 1175 550 1175 400 
Q 1175 225 1062 125 
Q 950 25 800 25 
z
" transform="scale(0.015625)"/>
      <path id="Times New Roman-2f" d="M 400 -475
L 225 -375 
L 2775 4975 
L 2950 4875 
L 400 -475 
z
" transform="scale(0.015625)"/>
      <path id="Times New Roman-63" d="M 2150 2225
Q 2150 2300 2175 2325 
Q 2175 2350 2200 2425 
Q 2225 2525 2100 2662 
Q 1975 2800 1675 2800 
Q 1300 2800 1037 2437 
Q 775 2075 775 1475 
Q 775 925 1000 587 
Q 1225 250 1750 250 
Q 2100 250 2337 475 
Q 2575 700 2675 1000 
L 2800 950 
Q 2700 575 2425 312 
Q 2150 50 1675 50 
Q 1075 50 725 425 
Q 375 800 375 1500 
Q 375 2125 750 2537 
Q 1125 2950 1725 2950 
Q 2150 2950 2387 2725 
Q 2625 2500 2625 2275 
Q 2625 2125 2562 2062 
Q 2500 2000 2375 2000 
Q 2275 2000 2212 2062 
Q 2150 2125 2150 2225 
z
" transform="scale(0.015625)"/>
      <path id="Times New Roman-6f" d="M 2900 1500
Q 2900 875 2525 462 
Q 2150 50 1600 50 
Q 1025 50 662 475 
Q 300 900 300 1500 
Q 300 2050 662 2500 
Q 1025 2950 1600 2950 
Q 2200 2950 2550 2500 
Q 2900 2050 2900 1500 
z
M 700 1475 
Q 700 825 962 512 
Q 1225 200 1600 200 
Q 2025 200 2262 537 
Q 2500 875 2500 1475 
Q 2500 2125 2237 2462 
Q 1975 2800 1600 2800 
Q 1250 2800 975 2462 
Q 700 2125 700 1475 
z
" transform="scale(0.015625)"/>
      <path id="Times New Roman-6d" d="M 175 2900
Q 300 2900 425 2925 
Q 550 2950 625 3000 
L 675 3000 
L 675 2575 
Q 800 2775 950 2862 
Q 1100 2950 1275 2950 
Q 1500 2950 1625 2862 
Q 1750 2775 1775 2575 
Q 1900 2775 2062 2862 
Q 2225 2950 2400 2950 
Q 2700 2950 2812 2775 
Q 2925 2600 2925 2325 
L 2925 425 
Q 2925 325 2975 287 
Q 3025 250 3125 250 
L 3175 250 
L 3175 100 
L 2325 100 
L 2325 250 
L 2375 250 
Q 2475 250 2525 287 
Q 2575 325 2575 425 
L 2575 2300 
Q 2575 2575 2512 2662 
Q 2450 2750 2325 2750 
Q 2150 2750 2012 2625 
Q 1875 2500 1800 2275 
L 1800 425 
Q 1800 325 1850 287 
Q 1900 250 2000 250 
L 2050 250 
L 2050 100 
L 1200 100 
L 1200 250 
L 1250 250 
Q 1350 250 1400 287 
Q 1450 325 1450 425 
L 1450 2300 
Q 1450 2525 1400 2637 
Q 1350 2750 1200 2750 
Q 1025 2750 887 2625 
Q 750 2500 675 2250 
L 675 425 
Q 675 325 725 287 
Q 775 250 875 250 
L 925 250 
L 925 100 
L 75 100 
L 75 250 
L 125 250 
Q 225 250 275 287 
Q 325 325 325 425 
L 325 2600 
Q 325 2675 300 2712 
Q 275 2750 200 2750 
L 100 2750 
L 100 2900 
L 175 2900 
z
" transform="scale(0.015625)"/>
      <path id="Times New Roman-79" d="M 1650 800
L 1700 800 
L 2250 2475 
Q 2300 2600 2237 2675 
Q 2175 2750 2075 2750 
L 1925 2750 
L 1925 2900 
L 2975 2900 
L 2975 2750 
L 2825 2750 
Q 2725 2750 2625 2675 
Q 2525 2600 2475 2475 
L 1625 0 
Q 1500 -375 1312 -587 
Q 1125 -800 825 -800 
Q 650 -800 550 -737 
Q 450 -675 450 -550 
Q 450 -475 512 -400 
Q 575 -325 700 -325 
Q 800 -325 900 -425 
Q 1000 -500 1050 -500 
Q 1125 -500 1175 -475 
Q 1225 -450 1250 -375 
Q 1325 -250 1400 -62 
Q 1475 125 1525 325 
L 675 2525 
Q 650 2625 562 2687 
Q 475 2750 375 2750 
L 275 2750 
L 275 2900 
L 1325 2900 
L 1325 2750 
L 1225 2750 
Q 1125 2750 1075 2687 
Q 1025 2625 1050 2500 
L 1650 800 
z
M 950 2750 
L 950 2750 
z
M 600 2750 
L 600 2750 
z
M 2575 2750 
L 2575 2750 
z
M 2325 2750 
L 2325 2750 
z
" transform="scale(0.015625)"/>
      <path id="Times New Roman-6c" d="M 925 4375
Q 1150 4375 1350 4425 
Q 1550 4475 1725 4575 
L 1775 4575 
L 1775 450 
Q 1775 350 1837 300 
Q 1900 250 2000 250 
L 2575 250 
L 2575 100 
L 625 100 
L 625 250 
L 1200 250 
Q 1325 250 1375 300 
Q 1425 350 1425 450 
L 1425 4025 
Q 1425 4125 1375 4175 
Q 1325 4225 1200 4225 
L 650 4225 
L 650 4375 
L 925 4375 
z
" transform="scale(0.015625)"/>
      <path id="Times New Roman-67" d="M 875 1975
Q 875 1675 1050 1462 
Q 1225 1250 1525 1250 
Q 1850 1250 2012 1437 
Q 2175 1625 2175 1975 
Q 2175 2400 1987 2587 
Q 1800 2775 1525 2775 
Q 1250 2775 1062 2587 
Q 875 2400 875 1975 
z
M 2100 625 
Q 2475 575 2650 412 
Q 2825 250 2825 -25 
Q 2825 -400 2512 -625 
Q 2200 -850 1525 -850 
Q 1000 -850 675 -637 
Q 350 -425 350 -150 
Q 350 25 475 200 
Q 600 375 875 475 
Q 725 550 637 637 
Q 550 725 550 850 
Q 550 1000 650 1112 
Q 750 1225 900 1300 
Q 750 1425 637 1600 
Q 525 1775 525 1975 
Q 525 2350 787 2637 
Q 1050 2925 1525 2925 
Q 1725 2925 1912 2875 
Q 2100 2825 2225 2700 
Q 2400 2825 2537 2887 
Q 2675 2950 2775 2950 
Q 2900 2950 2950 2862 
Q 3000 2775 3000 2700 
Q 3000 2600 2962 2537 
Q 2925 2475 2825 2475 
Q 2750 2475 2700 2512 
Q 2650 2550 2625 2625 
Q 2600 2700 2512 2687 
Q 2425 2675 2325 2600 
Q 2425 2500 2475 2325 
Q 2525 2150 2525 1975 
Q 2525 1675 2287 1387 
Q 2050 1100 1525 1100 
Q 1375 1100 1250 1137 
Q 1125 1175 1050 1225 
Q 950 1175 900 1100 
Q 850 1025 850 975 
Q 850 875 900 825 
Q 950 775 1050 775 
Q 1375 725 1637 687 
Q 1900 650 2100 625 
z
M 1075 425 
Q 850 325 762 187 
Q 675 50 675 -150 
Q 675 -350 900 -525 
Q 1125 -700 1575 -700 
Q 2000 -700 2250 -562 
Q 2500 -425 2500 -150 
Q 2500 25 2437 125 
Q 2375 225 2250 250 
Q 2000 300 1700 350 
Q 1400 375 1075 425 
z
" transform="scale(0.015625)"/>
      <path id="Times New Roman-5f" d="M 0 -875
L 0 -725 
L 3175 -725 
L 3175 -875 
L 0 -875 
z
" transform="scale(0.015625)"/>
      <path id="Times New Roman-77" d="M 2325 2900
L 3175 2900 
L 3175 2750 
L 3075 2750 
Q 2975 2750 2900 2675 
Q 2825 2600 2775 2425 
L 2175 75 
L 2025 75 
L 1575 1975 
L 1100 75 
L 950 75 
L 375 2375 
Q 350 2550 275 2650 
Q 200 2750 125 2750 
L 25 2750 
L 25 2900 
L 925 2900 
L 925 2750 
L 825 2750 
Q 725 2750 700 2662 
Q 675 2575 700 2425 
L 1075 800 
L 1125 800 
L 1500 2300 
Q 1475 2525 1400 2637 
Q 1325 2750 1225 2750 
L 1150 2750 
L 1150 2900 
L 2000 2900 
L 2000 2750 
L 1925 2750 
Q 1825 2750 1800 2662 
Q 1775 2575 1800 2425 
L 2175 800 
L 2200 800 
L 2625 2550 
Q 2650 2650 2600 2700 
Q 2550 2750 2450 2750 
L 2325 2750 
L 2325 2900 
z
M 1725 2750 
L 1725 2750 
z
M 625 2750 
L 625 2750 
z
M 275 2750 
L 275 2750 
z
M 2875 2750 
L 2875 2750 
z
M 2675 2750 
L 2675 2750 
z
" transform="scale(0.015625)"/>
      <path id="Times New Roman-76" d="M 1625 75
L 1475 75 
L 625 2525 
Q 600 2625 525 2687 
Q 450 2750 350 2750 
L 225 2750 
L 225 2900 
L 1300 2900 
L 1300 2750 
L 1200 2750 
Q 1050 2750 1025 2700 
Q 1000 2650 1000 2600 
Q 1000 2500 1025 2425 
L 1625 675 
L 1675 675 
L 2275 2400 
Q 2325 2525 2325 2575 
Q 2325 2600 2275 2675 
Q 2225 2750 2075 2750 
L 2025 2750 
L 2025 2900 
L 2925 2900 
L 2925 2750 
L 2875 2750 
Q 2725 2750 2637 2662 
Q 2550 2575 2475 2400 
L 1625 75 
z
M 2600 2750 
L 2600 2750 
z
M 2400 2750 
L 2400 2750 
z
M 925 2750 
L 925 2750 
z
M 550 2750 
L 550 2750 
z
" transform="scale(0.015625)"/>
     </defs>
     <use xlink:href="#Times New Roman-2e"/>
     <use xlink:href="#Times New Roman-2f" x="50"/>
     <use xlink:href="#Times New Roman-63" x="100"/>
     <use xlink:href="#Times New Roman-6f" x="150"/>
     <use xlink:href="#Times New Roman-6d" x="200"/>
     <use xlink:href="#Times New Roman-79" x="250"/>
     <use xlink:href="#Times New Roman-63" x="300"/>
     <use xlink:href="#Times New Roman-6f" x="350"/>
     <use xlink:href="#Times New Roman-2f" x="400"/>
     <use xlink:href="#Times New Roman-6c" x="450"/>
     <use xlink:href="#Times New Roman-6f" x="500"/>
     <use xlink:href="#Times New Roman-67" x="550"/>
     <use xlink:href="#Times New Roman-5f" x="600"/>
     <use xlink:href="#Times New Roman-63" x="650"/>
     <use xlink:href="#Times New Roman-6f" x="700"/>
     <use xlink:href="#Times New Roman-6d" x="750"/>
     <use xlink:href="#Times New Roman-79" x="800"/>
     <use xlink:href="#Times New Roman-63" x="850"/>
     <use xlink:href="#Times New Roman-6f" x="900"/>
     <use xlink:href="#Times New Roman-5f" x="950"/>
     <use xlink:href="#Times New Roman-31" x="1000"/>
     <use xlink:href="#Times New Roman-5f" x="1050"/>
     <use xlink:href="#Times New Roman-77" x="1100"/>
     <use xlink:href="#Times New Roman-61" x="1150"/>
     <use xlink:href="#Times New Roman-76" x="1200"/>
     <use xlink:href="#Times New Roman-65" x="1250"/>
    </g>
   </g>
   <g id="legend_1">
    <g id="patch_11">
     <path d="M 142 73.2775 
L 204 73.2775 
Q 206 73.2775 206 71.2775 
L 206 58.84 
Q 206 56.84 204 56.84 
L 142 56.84 
Q 140 56.84 140 58.84 
L 140 71.2775 
Q 140 73.2775 142 73.2775 
z
" style="fill: #ffffff; opacity: 0.8; stroke: #cccccc; stroke-linejoin: miter"/>
    </g>
    <g id="line2d_30">
     <path d="M 144 64.488437 
L 154 64.488437 
L 164 64.488437 
" style="fill: none; stroke: #1f77b4; stroke-width: 1.5; stroke-linecap: square"/>
    </g>
    <g id="text_23">
     <!-- buffer -->
     <g transform="translate(172 67.988437) scale(0.1 -0.1)">
      <use xlink:href="#Times New Roman-62"/>
      <use xlink:href="#Times New Roman-75" x="50"/>
      <use xlink:href="#Times New Roman-66" x="100"/>
      <use xlink:href="#Times New Roman-66" x="150"/>
      <use xlink:href="#Times New Roman-65" x="200"/>
      <use xlink:href="#Times New Roman-72" x="250"/>
     </g>
    </g>
   </g>
  </g>
 </g>
 <defs>
  <clipPath id="pbe34d748f6">
   <rect x="135" y="51.84" width="837" height="332.64"/>
  </clipPath>
 </defs>
</svg>
