<?xml version="1.0" encoding="utf-8" standalone="no"?>
<!DOCTYPE svg PUBLIC "-//W3C//DTD SVG 1.1//EN"
  "http://www.w3.org/Graphics/SVG/1.1/DTD/svg11.dtd">
<svg xmlns:xlink="http://www.w3.org/1999/xlink" width="1080pt" height="432pt" viewBox="0 0 1080 432" xmlns="http://www.w3.org/2000/svg" version="1.1">
 <metadata>
  <rdf:RDF xmlns:dc="http://purl.org/dc/elements/1.1/" xmlns:cc="http://creativecommons.org/ns#" xmlns:rdf="http://www.w3.org/1999/02/22-rdf-syntax-ns#">
   <cc:Work>
    <dc:type rdf:resource="http://purl.org/dc/dcmitype/StillImage"/>
    <dc:date>2024-04-12T06:21:51.844610</dc:date>
    <dc:format>image/svg+xml</dc:format>
    <dc:creator>
     <cc:Agent>
      <dc:title>Matplotlib v3.8.3, https://matplotlib.org/</dc:title>
     </cc:Agent>
    </dc:creator>
   </cc:Work>
  </rdf:RDF>
 </metadata>
 <defs>
  <style type="text/css">*{stroke-linejoin: round; stroke-linecap: butt}</style>
 </defs>
 <g id="figure_1">
  <g id="patch_1">
   <path d="M 0 432 
L 1080 432 
L 1080 0 
L 0 0 
z
" style="fill: #ffffff"/>
  </g>
  <g id="axes_1">
   <g id="patch_2">
    <path d="M 135 384.48 
L 972 384.48 
L 972 51.84 
L 135 51.84 
z
" style="fill: #ffffff"/>
   </g>
   <g id="matplotlib.axis_1">
    <g id="xtick_1">
     <g id="line2d_1">
      <defs>
       <path id="mf1aa9a1c19" d="M 0 0 
L 0 3.5 
" style="stroke: #000000; stroke-width: 0.8"/>
      </defs>
      <g>
       <use xlink:href="#mf1aa9a1c19" x="173.045455" y="384.48" style="stroke: #000000; stroke-width: 0.8"/>
      </g>
     </g>
     <g id="text_1">
      <!-- 0 -->
      <g transform="translate(170.545455 398.628438) scale(0.1 -0.1)">
       <defs>
        <path id="Times New Roman-30" d="M 1600 4225
Q 1250 4225 1012 3687 
Q 775 3150 775 2250 
Q 775 1300 1012 775 
Q 1250 250 1600 250 
Q 1975 250 2187 775 
Q 2400 1300 2400 2250 
Q 2400 3150 2200 3687 
Q 2000 4225 1600 4225 
z
M 1600 50 
Q 1050 50 675 625 
Q 300 1200 300 2250 
Q 300 3225 662 3825 
Q 1025 4425 1600 4425 
Q 2150 4425 2512 3850 
Q 2875 3275 2875 2250 
Q 2875 1225 2512 637 
Q 2150 50 1600 50 
z
" transform="scale(0.015625)"/>
       </defs>
       <use xlink:href="#Times New Roman-30"/>
      </g>
     </g>
    </g>
    <g id="xtick_2">
     <g id="line2d_2">
      <g>
       <use xlink:href="#mf1aa9a1c19" x="299.863636" y="384.48" style="stroke: #000000; stroke-width: 0.8"/>
      </g>
     </g>
     <g id="text_2">
      <!-- 100 -->
      <g transform="translate(292.363636 398.628438) scale(0.1 -0.1)">
       <defs>
        <path id="Times New Roman-31" d="M 1825 4450
L 1825 650 
Q 1825 450 1950 350 
Q 2075 250 2300 250 
L 2550 250 
L 2550 100 
L 725 100 
L 725 250 
L 950 250 
Q 1200 250 1312 350 
Q 1425 450 1425 650 
L 1425 3675 
Q 1425 3775 1362 3837 
Q 1300 3900 1175 3900 
L 725 3900 
L 725 4050 
L 950 4050 
Q 1250 4050 1437 4150 
Q 1625 4250 1725 4450 
L 1825 4450 
z
" transform="scale(0.015625)"/>
       </defs>
       <use xlink:href="#Times New Roman-31"/>
       <use xlink:href="#Times New Roman-30" x="50"/>
       <use xlink:href="#Times New Roman-30" x="100"/>
      </g>
     </g>
    </g>
    <g id="xtick_3">
     <g id="line2d_3">
      <g>
       <use xlink:href="#mf1aa9a1c19" x="426.681818" y="384.48" style="stroke: #000000; stroke-width: 0.8"/>
      </g>
     </g>
     <g id="text_3">
      <!-- 200 -->
      <g transform="translate(419.181818 398.628438) scale(0.1 -0.1)">
       <defs>
        <path id="Times New Roman-32" d="M 2325 3325
Q 2325 3775 2125 4012 
Q 1925 4250 1525 4250 
Q 1225 4250 1012 4087 
Q 800 3925 800 3675 
Q 800 3525 900 3425 
Q 975 3325 975 3225 
Q 975 3100 912 3037 
Q 850 2975 725 2975 
Q 575 2975 487 3062 
Q 400 3150 400 3350 
Q 400 3875 775 4150 
Q 1150 4425 1575 4425 
Q 2175 4425 2462 4125 
Q 2750 3825 2750 3375 
Q 2750 3075 2612 2775 
Q 2475 2475 2175 2200 
Q 1450 1500 1062 1062 
Q 675 625 600 475 
L 2075 475 
Q 2300 475 2450 650 
Q 2600 825 2650 1175 
L 2800 1175 
L 2650 100 
L 325 100 
L 325 425 
Q 450 650 737 1000 
Q 1025 1350 1500 1825 
Q 1925 2250 2125 2625 
Q 2325 3000 2325 3325 
z
" transform="scale(0.015625)"/>
       </defs>
       <use xlink:href="#Times New Roman-32"/>
       <use xlink:href="#Times New Roman-30" x="50"/>
       <use xlink:href="#Times New Roman-30" x="100"/>
      </g>
     </g>
    </g>
    <g id="xtick_4">
     <g id="line2d_4">
      <g>
       <use xlink:href="#mf1aa9a1c19" x="553.5" y="384.48" style="stroke: #000000; stroke-width: 0.8"/>
      </g>
     </g>
     <g id="text_4">
      <!-- 300 -->
      <g transform="translate(546 398.628438) scale(0.1 -0.1)">
       <defs>
        <path id="Times New Roman-33" d="M 2800 1250
Q 2800 775 2450 412 
Q 2100 50 1475 50 
Q 1025 50 700 300 
Q 375 550 375 875 
Q 375 1025 475 1137 
Q 575 1250 675 1250 
Q 825 1250 887 1137 
Q 950 1025 950 950 
Q 950 825 900 750 
Q 850 650 850 575 
Q 850 425 1037 325 
Q 1225 225 1450 225 
Q 1900 225 2125 487 
Q 2350 750 2350 1300 
Q 2350 1750 2112 2025 
Q 1875 2300 1225 2300 
L 1225 2475 
Q 1725 2475 1962 2712 
Q 2200 2950 2200 3375 
Q 2200 3725 2012 3987 
Q 1825 4250 1425 4250 
Q 1250 4250 1050 4162 
Q 850 4075 850 3875 
Q 850 3675 900 3625 
Q 950 3575 950 3500 
Q 950 3375 900 3300 
Q 850 3225 725 3225 
Q 625 3225 537 3300 
Q 450 3375 450 3575 
Q 450 3950 775 4187 
Q 1100 4425 1525 4425 
Q 2025 4425 2325 4112 
Q 2625 3800 2625 3450 
Q 2625 3075 2437 2812 
Q 2250 2550 1850 2425 
Q 2400 2225 2600 1900 
Q 2800 1575 2800 1250 
z
" transform="scale(0.015625)"/>
       </defs>
       <use xlink:href="#Times New Roman-33"/>
       <use xlink:href="#Times New Roman-30" x="50"/>
       <use xlink:href="#Times New Roman-30" x="100"/>
      </g>
     </g>
    </g>
    <g id="xtick_5">
     <g id="line2d_5">
      <g>
       <use xlink:href="#mf1aa9a1c19" x="680.318182" y="384.48" style="stroke: #000000; stroke-width: 0.8"/>
      </g>
     </g>
     <g id="text_5">
      <!-- 400 -->
      <g transform="translate(672.818182 398.628438) scale(0.1 -0.1)">
       <defs>
        <path id="Times New Roman-34" d="M 2300 575
Q 2300 400 2400 325 
Q 2500 250 2675 250 
L 2900 250 
L 2900 100 
L 1250 100 
L 1250 250 
L 1525 250 
Q 1725 250 1812 325 
Q 1900 400 1900 575 
L 1900 1400 
L 225 1400 
L 225 1525 
L 2050 4425 
L 2300 4425 
L 2300 1550 
L 2975 1550 
L 2975 1400 
L 2300 1400 
L 2300 575 
z
M 1875 3800 
L 450 1550 
L 1900 1550 
L 1900 3800 
L 1875 3800 
z
" transform="scale(0.015625)"/>
       </defs>
       <use xlink:href="#Times New Roman-34"/>
       <use xlink:href="#Times New Roman-30" x="50"/>
       <use xlink:href="#Times New Roman-30" x="100"/>
      </g>
     </g>
    </g>
    <g id="xtick_6">
     <g id="line2d_6">
      <g>
       <use xlink:href="#mf1aa9a1c19" x="807.136364" y="384.48" style="stroke: #000000; stroke-width: 0.8"/>
      </g>
     </g>
     <g id="text_6">
      <!-- 500 -->
      <g transform="translate(799.636364 398.628438) scale(0.1 -0.1)">
       <defs>
        <path id="Times New Roman-35" d="M 1725 2850
Q 2200 2850 2500 2487 
Q 2800 2125 2800 1525 
Q 2800 850 2487 450 
Q 2175 50 1525 50 
Q 1075 50 725 312 
Q 375 575 375 950 
Q 375 1100 462 1212 
Q 550 1325 700 1325 
Q 850 1325 900 1225 
Q 950 1125 950 1050 
Q 950 900 875 825 
Q 800 725 800 625 
Q 800 425 1037 325 
Q 1275 225 1550 225 
Q 1950 225 2162 550 
Q 2375 875 2375 1475 
Q 2375 1975 2187 2287 
Q 2000 2600 1625 2600 
Q 1350 2600 1150 2500 
Q 950 2400 775 2075 
L 550 2100 
L 675 4375 
L 2725 4375 
L 2650 4000 
L 850 4000 
L 750 2350 
Q 1000 2700 1237 2775 
Q 1475 2850 1725 2850 
z
" transform="scale(0.015625)"/>
       </defs>
       <use xlink:href="#Times New Roman-35"/>
       <use xlink:href="#Times New Roman-30" x="50"/>
       <use xlink:href="#Times New Roman-30" x="100"/>
      </g>
     </g>
    </g>
    <g id="xtick_7">
     <g id="line2d_7">
      <g>
       <use xlink:href="#mf1aa9a1c19" x="933.954545" y="384.48" style="stroke: #000000; stroke-width: 0.8"/>
      </g>
     </g>
     <g id="text_7">
      <!-- 600 -->
      <g transform="translate(926.454545 398.628438) scale(0.1 -0.1)">
       <defs>
        <path id="Times New Roman-36" d="M 775 1800
Q 775 1050 1037 637 
Q 1300 225 1675 225 
Q 2050 225 2250 500 
Q 2450 775 2450 1525 
Q 2450 2025 2237 2300 
Q 2025 2575 1725 2575 
Q 1450 2575 1212 2412 
Q 975 2250 775 1800 
z
M 1750 2825 
Q 2350 2825 2612 2425 
Q 2875 2025 2875 1525 
Q 2875 775 2512 412 
Q 2150 50 1675 50 
Q 1000 50 650 562 
Q 300 1075 300 2050 
Q 300 3200 725 3812 
Q 1150 4425 1875 4425 
Q 2225 4425 2437 4225 
Q 2650 4025 2650 3875 
Q 2650 3725 2587 3650 
Q 2525 3575 2375 3575 
Q 2250 3575 2187 3637 
Q 2125 3700 2125 3825 
Q 2125 3875 2150 3925 
Q 2150 3975 2150 4025 
Q 2150 4125 2075 4187 
Q 2000 4250 1800 4250 
Q 1375 4250 1075 3862 
Q 775 3475 775 2175 
Q 925 2500 1187 2662 
Q 1450 2825 1750 2825 
z
" transform="scale(0.015625)"/>
       </defs>
       <use xlink:href="#Times New Roman-36"/>
       <use xlink:href="#Times New Roman-30" x="50"/>
       <use xlink:href="#Times New Roman-30" x="100"/>
      </g>
     </g>
    </g>
   </g>
   <g id="matplotlib.axis_2">
    <g id="ytick_1">
     <g id="line2d_8">
      <defs>
       <path id="mb681f5241b" d="M 0 0 
L -3.5 0 
" style="stroke: #000000; stroke-width: 0.8"/>
      </defs>
      <g>
       <use xlink:href="#mb681f5241b" x="135" y="378.134657" style="stroke: #000000; stroke-width: 0.8"/>
      </g>
     </g>
     <g id="text_8">
      <!-- 0 -->
      <g transform="translate(123 381.708876) scale(0.1 -0.1)">
       <use xlink:href="#Times New Roman-30"/>
      </g>
     </g>
    </g>
    <g id="ytick_2">
     <g id="line2d_9">
      <g>
       <use xlink:href="#mb681f5241b" x="135" y="315.903045" style="stroke: #000000; stroke-width: 0.8"/>
      </g>
     </g>
     <g id="text_9">
      <!-- 1000 -->
      <g transform="translate(108 319.477264) scale(0.1 -0.1)">
       <use xlink:href="#Times New Roman-31"/>
       <use xlink:href="#Times New Roman-30" x="50"/>
       <use xlink:href="#Times New Roman-30" x="100"/>
       <use xlink:href="#Times New Roman-30" x="150"/>
      </g>
     </g>
    </g>
    <g id="ytick_3">
     <g id="line2d_10">
      <g>
       <use xlink:href="#mb681f5241b" x="135" y="253.671432" style="stroke: #000000; stroke-width: 0.8"/>
      </g>
     </g>
     <g id="text_10">
      <!-- 2000 -->
      <g transform="translate(108 257.245651) scale(0.1 -0.1)">
       <use xlink:href="#Times New Roman-32"/>
       <use xlink:href="#Times New Roman-30" x="50"/>
       <use xlink:href="#Times New Roman-30" x="100"/>
       <use xlink:href="#Times New Roman-30" x="150"/>
      </g>
     </g>
    </g>
    <g id="ytick_4">
     <g id="line2d_11">
      <g>
       <use xlink:href="#mb681f5241b" x="135" y="191.43982" style="stroke: #000000; stroke-width: 0.8"/>
      </g>
     </g>
     <g id="text_11">
      <!-- 3000 -->
      <g transform="translate(108 195.014039) scale(0.1 -0.1)">
       <use xlink:href="#Times New Roman-33"/>
       <use xlink:href="#Times New Roman-30" x="50"/>
       <use xlink:href="#Times New Roman-30" x="100"/>
       <use xlink:href="#Times New Roman-30" x="150"/>
      </g>
     </g>
    </g>
    <g id="ytick_5">
     <g id="line2d_12">
      <g>
       <use xlink:href="#mb681f5241b" x="135" y="129.208208" style="stroke: #000000; stroke-width: 0.8"/>
      </g>
     </g>
     <g id="text_12">
      <!-- 4000 -->
      <g transform="translate(108 132.782426) scale(0.1 -0.1)">
       <use xlink:href="#Times New Roman-34"/>
       <use xlink:href="#Times New Roman-30" x="50"/>
       <use xlink:href="#Times New Roman-30" x="100"/>
       <use xlink:href="#Times New Roman-30" x="150"/>
      </g>
     </g>
    </g>
    <g id="ytick_6">
     <g id="line2d_13">
      <g>
       <use xlink:href="#mb681f5241b" x="135" y="66.976595" style="stroke: #000000; stroke-width: 0.8"/>
      </g>
     </g>
     <g id="text_13">
      <!-- 5000 -->
      <g transform="translate(108 70.550814) scale(0.1 -0.1)">
       <use xlink:href="#Times New Roman-35"/>
       <use xlink:href="#Times New Roman-30" x="50"/>
       <use xlink:href="#Times New Roman-30" x="100"/>
       <use xlink:href="#Times New Roman-30" x="150"/>
      </g>
     </g>
    </g>
    <g id="text_14">
     <!-- Bitrate (kbps) -->
     <g transform="translate(102.710938 253.16) rotate(-90) scale(0.1 -0.1)">
      <defs>
       <path id="Times New Roman-42" d="M 100 100
L 100 250 
L 300 250 
Q 425 250 475 300 
Q 525 350 525 450 
L 525 4025 
Q 525 4125 475 4175 
Q 425 4225 300 4225 
L 150 4225 
L 150 4375 
L 1600 4375 
Q 2200 4375 2487 4137 
Q 2775 3900 2775 3400 
Q 2775 3050 2625 2825 
Q 2475 2600 2000 2425 
Q 2575 2250 2775 1925 
Q 2975 1600 2975 1200 
Q 2975 700 2625 400 
Q 2275 100 1675 100 
L 100 100 
z
M 1600 250 
Q 2025 250 2262 512 
Q 2500 775 2500 1250 
Q 2500 1800 2250 2062 
Q 2000 2325 1500 2325 
L 925 2325 
L 925 450 
Q 925 350 987 300 
Q 1050 250 1150 250 
L 1600 250 
z
M 2350 3400 
Q 2350 3850 2100 4037 
Q 1850 4225 1450 4225 
L 1150 4225 
Q 1050 4225 987 4175 
Q 925 4125 925 4025 
L 925 2475 
L 1575 2475 
Q 1850 2475 2100 2700 
Q 2350 2925 2350 3400 
z
" transform="scale(0.015625)"/>
       <path id="Times New Roman-69" d="M 1425 2525
Q 1425 2625 1375 2687 
Q 1325 2750 1200 2750 
L 675 2750 
L 675 2900 
L 925 2900 
Q 1150 2900 1350 2937 
Q 1550 2975 1725 3075 
L 1775 3075 
L 1775 450 
Q 1775 350 1837 300 
Q 1900 250 2000 250 
L 2525 250 
L 2525 100 
L 675 100 
L 675 250 
L 1200 250 
Q 1325 250 1375 300 
Q 1425 350 1425 450 
L 1425 2525 
z
M 1725 3025 
L 1725 3025 
z
M 1625 4425 
Q 1750 4425 1850 4337 
Q 1950 4250 1950 4125 
Q 1950 4000 1850 3900 
Q 1750 3800 1625 3800 
Q 1500 3800 1400 3900 
Q 1300 4000 1300 4125 
Q 1300 4250 1400 4337 
Q 1500 4425 1625 4425 
z
" transform="scale(0.015625)"/>
       <path id="Times New Roman-74" d="M 1500 900
Q 1500 550 1625 425 
Q 1750 300 2000 300 
Q 2250 300 2400 462 
Q 2550 625 2600 925 
L 2725 875 
Q 2675 525 2462 300 
Q 2250 75 1900 75 
Q 1525 75 1337 300 
Q 1150 525 1150 1000 
L 1150 2750 
L 400 2750 
L 400 2900 
L 600 2900 
Q 900 2900 1087 3087 
Q 1275 3275 1325 3675 
L 1350 3875 
L 1500 3875 
L 1500 2900 
L 2500 2900 
L 2500 2750 
L 1500 2750 
L 1500 900 
z
" transform="scale(0.015625)"/>
       <path id="Times New Roman-72" d="M 1275 2125
Q 1525 2525 1812 2737 
Q 2100 2950 2400 2950 
Q 2650 2950 2787 2837 
Q 2925 2725 2925 2575 
Q 2925 2450 2862 2375 
Q 2800 2300 2675 2300 
Q 2550 2300 2487 2375 
Q 2425 2450 2450 2575 
Q 2450 2650 2425 2700 
Q 2400 2750 2275 2750 
Q 2075 2750 1787 2500 
Q 1500 2250 1275 1800 
L 1275 450 
Q 1275 350 1337 300 
Q 1400 250 1500 250 
L 2050 250 
L 2050 100 
L 200 100 
L 200 250 
L 700 250 
Q 825 250 875 300 
Q 925 350 925 450 
L 925 2525 
Q 925 2625 875 2687 
Q 825 2750 700 2750 
L 225 2750 
L 225 2900 
L 425 2900 
Q 600 2900 837 2937 
Q 1075 2975 1200 3025 
L 1275 3025 
L 1275 2125 
z
" transform="scale(0.015625)"/>
       <path id="Times New Roman-61" d="M 1225 75
Q 775 75 525 287 
Q 275 500 275 775 
Q 275 1225 662 1512 
Q 1050 1800 2200 1925 
L 2200 2225 
Q 2200 2475 2087 2637 
Q 1975 2800 1575 2800 
Q 1150 2800 975 2662 
Q 800 2525 850 2375 
Q 875 2325 875 2275 
Q 875 2225 837 2150 
Q 800 2075 650 2075 
Q 550 2075 487 2137 
Q 425 2200 425 2325 
Q 425 2550 750 2750 
Q 1075 2950 1550 2950 
Q 2050 2950 2300 2762 
Q 2550 2575 2550 2225 
L 2550 575 
Q 2550 375 2587 337 
Q 2625 300 2725 300 
Q 2850 300 2900 412 
Q 2950 525 2950 725 
L 3075 725 
Q 3075 375 2950 237 
Q 2825 100 2625 100 
Q 2450 100 2350 175 
Q 2250 250 2200 425 
Q 1950 250 1737 162 
Q 1525 75 1225 75 
z
M 700 850 
Q 700 625 837 437 
Q 975 250 1275 250 
Q 1500 250 1725 337 
Q 1950 425 2200 600 
L 2200 1775 
Q 1350 1675 1025 1437 
Q 700 1200 700 850 
z
" transform="scale(0.015625)"/>
       <path id="Times New Roman-65" d="M 2400 1650
Q 2425 2200 2212 2487 
Q 2000 2775 1650 2775 
Q 1275 2775 1037 2475 
Q 800 2175 800 1650 
L 2400 1650 
z
M 800 1500 
Q 800 825 1062 537 
Q 1325 250 1750 250 
Q 2075 250 2300 437 
Q 2525 625 2625 900 
L 2750 850 
Q 2675 575 2412 312 
Q 2150 50 1700 50 
Q 1125 50 762 425 
Q 400 800 400 1500 
Q 400 2125 762 2537 
Q 1125 2950 1650 2950 
Q 2125 2950 2475 2625 
Q 2825 2300 2825 1500 
L 800 1500 
z
" transform="scale(0.015625)"/>
       <path id="Times New Roman-20" d="M 0 0
Q 0 0 0 0 
z
" transform="scale(0.015625)"/>
       <path id="Times New Roman-28" d="M 2900 5025
Q 2325 4425 2037 3737 
Q 1750 3050 1750 2300 
Q 1750 1525 2037 850 
Q 2325 175 2900 -425 
L 2775 -550 
Q 2075 75 1725 787 
Q 1375 1500 1375 2300 
Q 1375 3075 1725 3787 
Q 2075 4500 2775 5150 
L 2900 5025 
z
" transform="scale(0.015625)"/>
       <path id="Times New Roman-6b" d="M 1675 1900
L 2625 425 
Q 2700 325 2762 287 
Q 2825 250 2900 250 
L 3000 250 
L 3000 100 
L 1975 100 
L 1975 250 
L 2050 250 
Q 2175 250 2225 287 
Q 2275 325 2200 425 
L 1425 1650 
L 925 1125 
L 925 450 
Q 925 350 987 300 
Q 1050 250 1150 250 
L 1275 250 
L 1275 100 
L 225 100 
L 225 250 
L 350 250 
Q 475 250 525 300 
Q 575 350 575 450 
L 575 4025 
Q 575 4125 525 4175 
Q 475 4225 350 4225 
L 200 4225 
L 200 4375 
L 425 4375 
Q 575 4375 687 4425 
Q 800 4475 875 4575 
L 925 4575 
L 925 1400 
L 1975 2525 
Q 2025 2625 2012 2687 
Q 2000 2750 1900 2750 
L 1750 2750 
L 1750 2900 
L 2800 2900 
L 2800 2750 
L 2675 2750 
Q 2600 2750 2487 2712 
Q 2375 2675 2275 2575 
L 1675 1900 
z
M 2450 2750 
L 2450 2750 
z
M 2175 2750 
L 2175 2750 
z
M 2300 250 
L 2300 250 
z
M 2750 250 
L 2750 250 
z
" transform="scale(0.015625)"/>
       <path id="Times New Roman-62" d="M 875 2325
Q 1000 2600 1275 2762 
Q 1550 2925 1800 2925 
Q 2325 2925 2587 2562 
Q 2850 2200 2850 1500 
Q 2850 800 2512 437 
Q 2175 75 1675 75 
Q 1425 75 1212 162 
Q 1000 250 850 400 
L 625 100 
L 525 100 
L 525 4025 
Q 525 4125 475 4175 
Q 425 4225 300 4225 
L 150 4225 
L 150 4375 
L 375 4375 
Q 500 4375 625 4425 
Q 750 4475 875 4575 
L 875 2325 
z
M 875 925 
Q 875 650 1062 450 
Q 1250 250 1625 250 
Q 2075 250 2262 562 
Q 2450 875 2450 1500 
Q 2450 2100 2287 2412 
Q 2125 2725 1775 2725 
Q 1475 2725 1250 2550 
Q 1025 2375 875 1925 
L 875 925 
z
" transform="scale(0.015625)"/>
       <path id="Times New Roman-70" d="M 1150 -675
L 1325 -675 
L 1325 -825 
L 175 -825 
L 175 -675 
L 325 -675 
Q 450 -675 500 -625 
Q 550 -575 550 -450 
L 550 2500 
Q 550 2600 500 2662 
Q 450 2725 325 2725 
L 175 2725 
L 175 2875 
L 400 2875 
Q 525 2875 637 2900 
Q 750 2925 850 3000 
L 900 3000 
L 900 2425 
Q 1075 2675 1287 2800 
Q 1500 2925 1750 2925 
Q 2250 2925 2575 2587 
Q 2900 2250 2900 1525 
Q 2900 825 2550 450 
Q 2200 75 1725 75 
Q 1450 75 1262 162 
Q 1075 250 900 425 
L 900 -450 
Q 900 -575 975 -625 
Q 1050 -675 1150 -675 
z
M 900 750 
Q 1025 500 1212 375 
Q 1400 250 1650 250 
Q 2000 250 2250 562 
Q 2500 875 2500 1525 
Q 2500 2125 2312 2425 
Q 2125 2725 1750 2725 
Q 1525 2725 1300 2587 
Q 1075 2450 900 2150 
L 900 750 
z
" transform="scale(0.015625)"/>
       <path id="Times New Roman-73" d="M 625 2175
Q 625 2550 912 2750 
Q 1200 2950 1600 2950 
Q 1825 2950 2025 2900 
Q 2225 2825 2300 2825 
Q 2375 2825 2425 2850 
Q 2475 2875 2550 2950 
L 2650 2125 
L 2500 2100 
Q 2400 2425 2162 2612 
Q 1925 2800 1625 2800 
Q 1300 2800 1112 2675 
Q 925 2550 925 2325 
Q 925 2125 1012 2012 
Q 1100 1900 1325 1850 
Q 1500 1775 1775 1700 
Q 2025 1600 2250 1500 
Q 2450 1400 2587 1237 
Q 2725 1075 2725 875 
Q 2725 500 2462 287 
Q 2200 75 1700 75 
Q 1375 75 1225 150 
Q 1050 200 950 200 
Q 875 200 787 162 
Q 700 125 600 75 
L 525 1000 
L 675 1025 
Q 750 625 1000 425 
Q 1250 225 1700 225 
Q 2050 225 2237 350 
Q 2425 475 2425 725 
Q 2425 900 2325 1012 
Q 2225 1125 2125 1175 
Q 1875 1275 1575 1400 
Q 1275 1500 1050 1600 
Q 825 1700 725 1850 
Q 625 2000 625 2175 
z
" transform="scale(0.015625)"/>
       <path id="Times New Roman-29" d="M 275 5025
L 400 5150 
Q 1100 4500 1450 3787 
Q 1800 3075 1800 2300 
Q 1800 1500 1450 787 
Q 1100 75 400 -550 
L 275 -425 
Q 850 175 1137 850 
Q 1425 1525 1425 2300 
Q 1425 3050 1137 3737 
Q 850 4425 275 5025 
z
" transform="scale(0.015625)"/>
      </defs>
      <use xlink:href="#Times New Roman-42"/>
      <use xlink:href="#Times New Roman-69" x="50"/>
      <use xlink:href="#Times New Roman-74" x="100"/>
      <use xlink:href="#Times New Roman-72" x="150"/>
      <use xlink:href="#Times New Roman-61" x="200"/>
      <use xlink:href="#Times New Roman-74" x="250"/>
      <use xlink:href="#Times New Roman-65" x="300"/>
      <use xlink:href="#Times New Roman-20" x="350"/>
      <use xlink:href="#Times New Roman-28" x="400"/>
      <use xlink:href="#Times New Roman-6b" x="450"/>
      <use xlink:href="#Times New Roman-62" x="500"/>
      <use xlink:href="#Times New Roman-70" x="550"/>
      <use xlink:href="#Times New Roman-73" x="600"/>
      <use xlink:href="#Times New Roman-29" x="650"/>
     </g>
    </g>
   </g>
   <g id="line2d_14">
    <path d="M 173.045455 337.870804 
L 174.313636 337.870804 
L 175.581818 369.36 
L 199.677273 369.36 
L 200.945455 337.870804 
L 202.213636 337.870804 
L 202.213636 310.115505 
L 203.481818 310.115505 
L 203.481818 136.302611 
L 204.75 136.302611 
L 204.75 259.645667 
L 213.627273 259.645667 
L 216.163636 136.302611 
L 218.7 136.302611 
L 219.968182 259.645667 
L 223.772727 259.645667 
L 226.309091 136.302611 
L 226.309091 136.302611 
L 332.836364 136.302611 
L 334.104545 310.115505 
L 339.177273 310.115505 
L 340.445455 259.645667 
L 350.590909 259.645667 
L 351.859091 136.302611 
L 379.759091 136.302611 
L 379.759091 136.302611 
L 381.027273 259.645667 
L 382.295455 310.115505 
L 387.368182 310.115505 
L 388.636364 136.302611 
L 406.390909 136.302611 
L 406.390909 136.302611 
L 407.659091 337.870804 
L 407.659091 337.870804 
L 408.927273 337.870804 
L 408.927273 136.302611 
L 427.95 136.302611 
L 427.95 136.302611 
L 429.218182 259.645667 
L 433.022727 259.645667 
L 434.290909 136.302611 
L 479.945455 136.302611 
L 479.945455 259.645667 
L 481.213636 259.645667 
L 481.213636 259.645667 
L 482.481818 369.36 
L 486.286364 369.36 
L 487.554545 337.870804 
L 497.7 337.870804 
L 497.7 259.645667 
L 500.236364 259.645667 
L 500.236364 259.645667 
L 501.504545 310.115505 
L 501.504545 310.115505 
L 504.040909 310.115505 
L 505.309091 337.870804 
L 515.454545 337.870804 
L 517.990909 136.302611 
L 517.990909 136.302611 
L 758.945455 136.302611 
L 760.213636 259.645667 
L 762.75 259.645667 
L 764.018182 136.302611 
L 772.895455 136.302611 
L 772.895455 136.302611 
L 774.163636 259.645667 
L 785.577273 259.645667 
L 786.845455 252.862421 
L 788.113636 136.302611 
L 798.259091 136.302611 
L 799.527273 252.862421 
L 802.063636 252.862421 
L 803.331818 136.302611 
L 903.518182 136.302611 
L 903.518182 136.302611 
L 904.786364 259.645667 
L 904.786364 259.645667 
L 906.054545 259.645667 
L 906.054545 136.302611 
L 906.054545 259.645667 
L 907.322727 259.645667 
L 907.322727 259.645667 
L 908.590909 136.302611 
L 908.590909 136.302611 
L 927.613636 136.302611 
L 928.881818 259.645667 
L 933.954545 259.645667 
L 933.954545 259.645667 
" clip-path="url(#p8f147435ff)" style="fill: none; stroke: #ff0000; stroke-width: 1.5; stroke-linecap: square"/>
   </g>
   <g id="line2d_15">
    <path d="M 173.045455 355.48235 
L 176.85 354.936095 
L 178.118182 354.846897 
L 180.654545 355.308102 
L 181.922727 355.378631 
L 184.459091 354.73972 
L 185.727273 353.702526 
L 186.995455 351.89781 
L 188.263636 349.703108 
L 190.8 344.633306 
L 190.8 342.260207 
L 192.068182 341.355774 
L 193.336364 342.397117 
L 194.604545 346.450469 
L 195.872727 351.250601 
L 197.140909 357.287067 
L 198.409091 357.71854 
L 199.677273 355.669045 
L 200.945455 349.59524 
L 202.213636 347.574787 
L 202.213636 346.396535 
L 203.481818 349.624281 
L 203.481818 352.420555 
L 204.75 356.486354 
L 204.75 357.494506 
L 206.018182 351.478783 
L 207.286364 339.248197 
L 211.090909 320.114051 
L 212.359091 298.89722 
L 213.627273 274.361369 
L 216.163636 253.161133 
L 217.431818 236.424978 
L 217.431818 225.874646 
L 218.7 217.767941 
L 219.968182 210.930761 
L 222.504545 204.035498 
L 223.772727 197.185872 
L 226.309091 190.73038 
L 226.309091 183.532256 
L 228.845455 167.638303 
L 230.113636 160.950479 
L 232.65 157.556781 
L 233.918182 154.088406 
L 233.918182 150.777684 
L 235.186364 145.645651 
L 237.722727 140.613188 
L 237.722727 133.406767 
L 240.259091 118.417246 
L 241.527273 119.242852 
L 242.795455 118.769892 
L 244.063636 119.819532 
L 244.063636 115.973618 
L 245.331818 113.546585 
L 246.6 106.024858 
L 249.136364 110.069912 
L 250.404545 127.241689 
L 252.940909 149.562094 
L 252.940909 161.771936 
L 254.209091 159.552342 
L 255.477273 148.064386 
L 255.477273 122.926963 
L 256.745455 98.801842 
L 256.745455 83.629775 
L 258.013636 82.455672 
L 258.013636 81.883141 
L 259.281818 82.526201 
L 259.281818 86.616892 
L 260.55 88.749362 
L 260.55 88.334484 
L 261.818182 86.816033 
L 264.354545 86.235205 
L 264.354545 85.98213 
L 265.622727 85.679269 
L 265.622727 83.555097 
L 266.890909 81.443371 
L 268.159091 83.326914 
L 268.159091 84.99887 
L 269.427273 93.59513 
L 269.427273 108.659329 
L 270.695455 124.096918 
L 271.963636 133.074865 
L 273.231818 136.149107 
L 273.231818 132.709773 
L 274.5 122.9726 
L 274.5 112.974054 
L 275.768182 111.297949 
L 275.768182 117.276333 
L 277.036364 123.391626 
L 277.036364 127.67731 
L 278.304545 130.846973 
L 278.304545 132.091606 
L 279.572727 133.66814 
L 279.572727 136.344099 
L 280.840909 141.07785 
L 280.840909 145.566824 
L 282.109091 149.047646 
L 282.109091 150.69056 
L 282.109091 149.860805 
L 283.377273 151.785837 
L 283.377273 166.920565 
L 284.645455 171.388794 
L 284.645455 173.355313 
L 284.645455 172.820122 
L 285.913636 170.99881 
L 285.913636 169.484507 
L 287.181818 171.33486 
L 287.181818 179.819104 
L 288.45 183.718951 
L 288.45 186.884466 
L 289.718182 189.050126 
L 289.718182 190.493899 
L 290.986364 191.70949 
L 290.986364 193.696753 
L 292.254545 196.982582 
L 292.254545 200.554677 
L 293.522727 205.325767 
L 293.522727 210.275255 
L 294.790909 215.726744 
L 299.863636 235.022693 
L 301.131818 240.461736 
L 302.4 247.037543 
L 306.204545 268.341498 
L 332.836364 278.945765 
L 334.104545 292.748736 
L 335.372727 309.273304 
L 336.640909 324.171552 
L 337.909091 337.41029 
L 339.177273 345.12701 
L 340.445455 347.715845 
L 341.713636 345.575078 
L 342.981818 343.011135 
L 344.25 340.061357 
L 345.518182 336.775528 
L 348.054545 329.204015 
L 350.590909 320.433506 
L 353.127273 310.414217 
L 354.395455 307.49348 
L 355.663636 307.812935 
L 374.686364 299.071468 
L 375.954545 280.762928 
L 377.222727 252.704768 
L 378.490909 221.464499 
L 378.490909 189.942113 
L 379.759091 171.26848 
L 379.759091 166.352183 
L 381.027273 168.874637 
L 382.295455 169.691946 
L 386.1 165.758908 
L 387.368182 157.224879 
L 389.904545 127.366152 
L 391.172727 117.807376 
L 391.172727 116.604232 
L 392.440909 116.687207 
L 393.709091 116.218396 
L 394.977273 112.633855 
L 396.245455 106.04975 
L 397.513636 98.104848 
L 397.513636 92.454217 
L 398.781818 92.101571 
L 400.05 93.524601 
L 401.318182 93.147063 
L 401.318182 89.317744 
L 402.586364 83.642221 
L 402.586364 76.439949 
L 403.854545 71.42823 
L 403.854545 68.221227 
L 405.122727 70.610921 
L 405.122727 84.019759 
L 406.390909 89.471249 
L 406.390909 92.205291 
L 407.659091 89.334339 
L 407.659091 83.654667 
L 408.927273 75.216061 
L 408.927273 69.623513 
L 410.195455 66.96 
L 410.195455 67.208926 
L 411.463636 67.694333 
L 411.463636 68.283459 
L 412.731818 68.992899 
L 412.731818 69.619364 
L 414 74.328223 
L 414 82.949376 
L 415.268182 91.80286 
L 415.268182 96.723306 
L 416.536364 97.988682 
L 416.536364 95.246342 
L 417.804545 88.799147 
L 417.804545 82.252382 
L 419.072727 79.966407 
L 419.072727 81.530495 
L 420.340909 83.401592 
L 420.340909 85.081846 
L 421.609091 87.035918 
L 421.609091 88.799147 
L 422.877273 90.915022 
L 422.877273 92.856648 
L 424.145455 95.188259 
L 424.145455 97.312432 
L 425.413636 99.805845 
L 425.413636 102.058629 
L 426.681818 104.776076 
L 426.681818 107.281936 
L 427.95 112.974054 
L 427.95 121.097354 
L 429.218182 129.643829 
L 430.486364 135.4936 
L 431.754545 139.426638 
L 433.022727 141.07785 
L 434.290909 140.940941 
L 435.559091 141.35167 
L 436.827273 145.127054 
L 440.631818 165.883371 
L 441.9 176.417109 
L 479.945455 196.999177 
L 479.945455 227.073641 
L 481.213636 263.147233 
L 481.213636 298.025977 
L 482.481818 328.424045 
L 483.75 347.176505 
L 485.018182 354.830993 
L 486.286364 354.714827 
L 487.554545 354.059321 
L 488.822727 352.827135 
L 491.359091 351.267196 
L 492.627273 349.271636 
L 493.895455 347.002256 
L 495.163636 344.317999 
L 496.431818 341.20227 
L 496.431818 337.899846 
L 497.7 334.908579 
L 497.7 332.481546 
L 498.968182 330.120894 
L 498.968182 327.926192 
L 500.236364 325.557242 
L 500.236364 323.188292 
L 501.504545 320.636796 
L 501.504545 318.765699 
L 502.772727 316.716205 
L 504.040909 314.322362 
L 505.309091 311.078021 
L 514.186364 304.128824 
L 515.454545 295.350018 
L 517.990909 283.754194 
L 517.990909 273.403002 
L 519.259091 260.442232 
L 521.795455 239.017962 
L 524.331818 230.76605 
L 524.331818 221.049621 
L 525.6 212.088269 
L 528.136364 204.280276 
L 528.136364 197.111194 
L 529.404545 190.481453 
L 531.940909 183.947134 
L 534.477273 171.135719 
L 535.745455 163.472933 
L 535.745455 156.129603 
L 537.013636 149.213597 
L 537.013636 145.583419 
L 538.281818 141.227206 
L 538.281818 136.812911 
L 542.086364 120.640989 
L 547.159091 117.143572 
L 548.427273 114.998656 
L 549.695455 111.376776 
L 549.695455 105.182656 
L 550.963636 99.233314 
L 553.5 99.183529 
L 554.768182 102.178944 
L 556.036364 106.750893 
L 557.304545 109.256753 
L 558.572727 110.202673 
L 559.840909 105.655617 
L 562.377273 91.163948 
L 563.645455 89.832192 
L 564.913636 89.757514 
L 566.181818 89.238917 
L 567.45 88.492138 
L 569.986364 91.889984 
L 571.254545 94.773382 
L 572.522727 97.241903 
L 573.790909 103.066782 
L 573.790909 109.19867 
L 575.059091 114.413679 
L 577.595455 118.550007 
L 581.4 144.351233 
L 583.936364 155.818445 
L 583.936364 158.797265 
L 585.204545 157.067226 
L 587.740909 156.420017 
L 587.740909 158.98396 
L 589.009091 162.083094 
L 590.277273 164.423003 
L 591.545455 170.15246 
L 594.081818 178.043428 
L 594.081818 186.859573 
L 595.35 194.364706 
L 597.886364 202.587576 
L 597.886364 210.374825 
L 599.154545 216.875954 
L 601.690909 222.489246 
L 601.690909 228.865912 
L 602.959091 235.479058 
L 605.495455 246.854997 
L 605.495455 252.854124 
L 606.763636 258.936227 
L 608.031818 263.56211 
L 608.031818 267.910025 
L 610.568182 275.502282 
L 610.568182 279.111716 
L 611.836364 283.094539 
L 611.836364 287.363627 
L 614.372727 294.66547 
L 614.372727 297.893216 
L 615.640909 301.170748 
L 615.640909 304.228394 
L 616.909091 307.505926 
L 616.909091 310.866433 
L 618.177273 314.330659 
L 621.981818 323.706889 
L 624.518182 330.332481 
L 627.054545 334.240627 
L 629.590909 341.920008 
L 630.859091 345.09382 
L 632.127273 347.678506 
L 633.395455 349.653323 
L 634.663636 351.059757 
L 635.931818 352.001529 
L 641.004545 352.225563 
L 642.272727 351.748454 
L 643.540909 350.391805 
L 644.809091 348.508261 
L 647.345455 343.587815 
L 649.881818 337.44348 
L 652.418182 329.996431 
L 654.954545 325.449374 
L 656.222727 320.259258 
L 658.759091 308.140688 
L 661.295455 301.017243 
L 663.831818 286.03602 
L 666.368182 278.481102 
L 667.636364 270.60258 
L 668.904545 261.786435 
L 670.172727 254.210773 
L 672.709091 247.473164 
L 673.977273 241.739558 
L 673.977273 235.831704 
L 675.245455 230.79924 
L 676.513636 224.20269 
L 677.781818 216.295126 
L 680.318182 197.22736 
L 682.854545 188.498339 
L 682.854545 181.72754 
L 684.122727 176.454448 
L 686.659091 172.143871 
L 686.659091 166.845887 
L 687.927273 161.381951 
L 689.195455 154.31244 
L 689.195455 145.981701 
L 690.463636 138.144667 
L 690.463636 132.767856 
L 691.731818 128.025807 
L 694.268182 121.24671 
L 695.536364 118.26789 
L 696.804545 112.434714 
L 698.072727 108.08265 
L 700.609091 103.187096 
L 701.877273 98.835032 
L 701.877273 92.616019 
L 703.145455 90.292706 
L 703.145455 89.110305 
L 704.413636 88.633196 
L 705.681818 86.766248 
L 706.95 85.737352 
L 712.022727 82.650664 
L 713.290909 84.372405 
L 715.827273 86.056807 
L 717.095455 92.989409 
L 718.363636 97.320729 
L 718.363636 104.128868 
L 719.631818 102.904979 
L 720.9 100.531881 
L 722.168182 96.005568 
L 722.168182 97.5904 
L 723.436364 97.532317 
L 727.240909 99.233314 
L 728.509091 102.266068 
L 729.777273 104.195248 
L 731.045455 108.534866 
L 733.581818 115.006954 
L 733.581818 125.125814 
L 734.85 132.166284 
L 734.85 137.978716 
L 736.118182 140.84137 
L 737.386364 144.384423 
L 738.654545 146.255521 
L 739.922727 149.250936 
L 741.190909 154.316589 
L 742.459091 160.884098 
L 744.995455 173.010965 
L 747.531818 187.299343 
L 747.531818 192.763279 
L 748.8 198.74996 
L 748.8 204.744939 
L 750.068182 210.225469 
L 751.336364 214.32031 
L 751.336364 218.871515 
L 752.604545 223.132306 
L 753.872727 226.857905 
L 755.140909 231.039869 
L 756.409091 235.976911 
L 760.213636 257.30161 
L 764.018182 276.610005 
L 766.554545 288.575069 
L 769.090909 301.929974 
L 771.627273 313.065283 
L 771.627273 317.276289 
L 772.895455 321.238368 
L 772.895455 324.627917 
L 774.163636 328.150226 
L 776.7 333.543633 
L 779.236364 338.435037 
L 780.504545 341.102699 
L 785.577273 344.193536 
L 786.845455 347.276075 
L 788.113636 349.740447 
L 789.381818 351.499527 
L 790.65 352.416406 
L 790.65 352.64044 
L 791.918182 352.441299 
L 795.722727 351.640586 
L 796.990909 350.171919 
L 798.259091 347.798821 
L 799.527273 345.172647 
L 802.063636 338.206855 
L 804.6 330.444498 
L 804.6 326.523907 
L 805.868182 323.05968 
L 810.940909 318.375714 
L 812.209091 312.928374 
L 814.745455 297.316537 
L 814.745455 288.492094 
L 816.013636 281.136317 
L 817.281818 274.975388 
L 817.281818 270.996713 
L 819.818182 262.624487 
L 821.086364 257.015344 
L 822.354545 250.651125 
L 823.622727 243.581614 
L 823.622727 237.727693 
L 828.695455 214.307863 
L 833.768182 206.010315 
L 835.036364 197.658832 
L 835.036364 189.435962 
L 836.304545 184.133829 
L 838.840909 169.1692 
L 840.109091 161.402695 
L 840.109091 155.718874 
L 842.645455 141.409752 
L 843.913636 135.431369 
L 846.45 129.137678 
L 848.986364 113.654453 
L 851.522727 107.60554 
L 852.790909 106.435586 
L 854.059091 103.751329 
L 855.327273 104.278224 
L 856.595455 100.594112 
L 857.863636 98.818437 
L 859.131818 91.387982 
L 860.4 87.678978 
L 861.668182 80.717335 
L 862.936364 79.149098 
L 864.204545 75.659979 
L 865.472727 77.232365 
L 866.740909 76.933653 
L 868.009091 80.76712 
L 869.277273 81.58028 
L 870.545455 85.210458 
L 871.813636 84.484422 
L 873.081818 87.430052 
L 874.35 86.919753 
L 875.618182 91.238626 
L 876.886364 92.520598 
L 878.154545 98.7728 
L 878.154545 102.80126 
L 879.422727 108.140732 
L 880.690909 109.995234 
L 881.959091 112.700235 
L 883.227273 113.546585 
L 884.495455 116.807522 
L 887.031818 120.458443 
L 888.3 128.664718 
L 888.3 138.40604 
L 889.568182 148.039493 
L 890.836364 153.511727 
L 894.640909 159.577234 
L 894.640909 165.115848 
L 895.909091 172.75789 
L 897.177273 178.889778 
L 897.177273 185.772594 
L 898.445455 191.730234 
L 898.445455 195.696462 
L 899.713636 197.60075 
L 900.981818 201.371985 
L 902.25 206.367109 
L 902.25 211.727326 
L 903.518182 215.494413 
L 903.518182 218.697266 
L 904.786364 221.572367 
L 904.786364 226.513557 
L 906.054545 230.425851 
L 906.054545 240.942993 
L 907.322727 245.461008 
L 907.322727 248.954276 
L 908.590909 250.891754 
L 908.590909 251.804484 
L 909.859091 252.169576 
L 909.859091 253.54282 
L 911.127273 257.13151 
L 911.127273 261.964832 
L 912.395455 267.221329 
L 916.2 280.260926 
L 917.468182 284.351617 
L 917.468182 288.363482 
L 918.736364 293.010109 
L 918.736364 297.553017 
L 920.004545 301.971461 
L 923.809091 313.633665 
L 926.345455 321.927065 
L 928.881818 329.880265 
L 931.418182 337.368802 
L 932.686364 340.571656 
L 933.954545 343.376227 
L 933.954545 343.376227 
" clip-path="url(#p8f147435ff)" style="fill: none; stroke: #008000; stroke-width: 1.5; stroke-linecap: square"/>
   </g>
   <g id="patch_3">
    <path d="M 135 384.48 
L 135 51.84 
" style="fill: none; stroke: #000000; stroke-width: 0.8; stroke-linejoin: miter; stroke-linecap: square"/>
   </g>
   <g id="patch_4">
    <path d="M 972 384.48 
L 972 51.84 
" style="fill: none; stroke: #000000; stroke-width: 0.8; stroke-linejoin: miter; stroke-linecap: square"/>
   </g>
   <g id="patch_5">
    <path d="M 135 384.48 
L 972 384.48 
" style="fill: none; stroke: #000000; stroke-width: 0.8; stroke-linejoin: miter; stroke-linecap: square"/>
   </g>
   <g id="patch_6">
    <path d="M 135 51.84 
L 972 51.84 
" style="fill: none; stroke: #000000; stroke-width: 0.8; stroke-linejoin: miter; stroke-linecap: square"/>
   </g>
  </g>
  <g id="axes_2">
   <g id="matplotlib.axis_3">
    <g id="ytick_7">
     <g id="line2d_16">
      <path d="M 135 369.36 
L 972 369.36 
" clip-path="url(#p8f147435ff)" style="fill: none; stroke: #b0b0b0; stroke-width: 0.8; stroke-linecap: square"/>
     </g>
     <g id="line2d_17">
      <defs>
       <path id="m99519667ad" d="M 0 0 
L 3.5 0 
" style="stroke: #000000; stroke-width: 0.8"/>
      </defs>
      <g>
       <use xlink:href="#m99519667ad" x="972" y="369.36" style="stroke: #000000; stroke-width: 0.8"/>
      </g>
     </g>
     <g id="text_15">
      <!-- 0 -->
      <g transform="translate(979 372.934219) scale(0.1 -0.1)">
       <use xlink:href="#Times New Roman-30"/>
      </g>
     </g>
    </g>
    <g id="ytick_8">
     <g id="line2d_18">
      <path d="M 135 319.232871 
L 972 319.232871 
" clip-path="url(#p8f147435ff)" style="fill: none; stroke: #b0b0b0; stroke-width: 0.8; stroke-linecap: square"/>
     </g>
     <g id="line2d_19">
      <g>
       <use xlink:href="#m99519667ad" x="972" y="319.232871" style="stroke: #000000; stroke-width: 0.8"/>
      </g>
     </g>
     <g id="text_16">
      <!-- 5 -->
      <g transform="translate(979 322.807089) scale(0.1 -0.1)">
       <use xlink:href="#Times New Roman-35"/>
      </g>
     </g>
    </g>
    <g id="ytick_9">
     <g id="line2d_20">
      <path d="M 135 269.105741 
L 972 269.105741 
" clip-path="url(#p8f147435ff)" style="fill: none; stroke: #b0b0b0; stroke-width: 0.8; stroke-linecap: square"/>
     </g>
     <g id="line2d_21">
      <g>
       <use xlink:href="#m99519667ad" x="972" y="269.105741" style="stroke: #000000; stroke-width: 0.8"/>
      </g>
     </g>
     <g id="text_17">
      <!-- 10 -->
      <g transform="translate(979 272.67996) scale(0.1 -0.1)">
       <use xlink:href="#Times New Roman-31"/>
       <use xlink:href="#Times New Roman-30" x="50"/>
      </g>
     </g>
    </g>
    <g id="ytick_10">
     <g id="line2d_22">
      <path d="M 135 218.978612 
L 972 218.978612 
" clip-path="url(#p8f147435ff)" style="fill: none; stroke: #b0b0b0; stroke-width: 0.8; stroke-linecap: square"/>
     </g>
     <g id="line2d_23">
      <g>
       <use xlink:href="#m99519667ad" x="972" y="218.978612" style="stroke: #000000; stroke-width: 0.8"/>
      </g>
     </g>
     <g id="text_18">
      <!-- 15 -->
      <g transform="translate(979 222.552831) scale(0.1 -0.1)">
       <use xlink:href="#Times New Roman-31"/>
       <use xlink:href="#Times New Roman-35" x="50"/>
      </g>
     </g>
    </g>
    <g id="ytick_11">
     <g id="line2d_24">
      <path d="M 135 168.851483 
L 972 168.851483 
" clip-path="url(#p8f147435ff)" style="fill: none; stroke: #b0b0b0; stroke-width: 0.8; stroke-linecap: square"/>
     </g>
     <g id="line2d_25">
      <g>
       <use xlink:href="#m99519667ad" x="972" y="168.851483" style="stroke: #000000; stroke-width: 0.8"/>
      </g>
     </g>
     <g id="text_19">
      <!-- 20 -->
      <g transform="translate(979 172.425701) scale(0.1 -0.1)">
       <use xlink:href="#Times New Roman-32"/>
       <use xlink:href="#Times New Roman-30" x="50"/>
      </g>
     </g>
    </g>
    <g id="ytick_12">
     <g id="line2d_26">
      <path d="M 135 118.724353 
L 972 118.724353 
" clip-path="url(#p8f147435ff)" style="fill: none; stroke: #b0b0b0; stroke-width: 0.8; stroke-linecap: square"/>
     </g>
     <g id="line2d_27">
      <g>
       <use xlink:href="#m99519667ad" x="972" y="118.724353" style="stroke: #000000; stroke-width: 0.8"/>
      </g>
     </g>
     <g id="text_20">
      <!-- 25 -->
      <g transform="translate(979 122.298572) scale(0.1 -0.1)">
       <use xlink:href="#Times New Roman-32"/>
       <use xlink:href="#Times New Roman-35" x="50"/>
      </g>
     </g>
    </g>
    <g id="ytick_13">
     <g id="line2d_28">
      <path d="M 135 68.597224 
L 972 68.597224 
" clip-path="url(#p8f147435ff)" style="fill: none; stroke: #b0b0b0; stroke-width: 0.8; stroke-linecap: square"/>
     </g>
     <g id="line2d_29">
      <g>
       <use xlink:href="#m99519667ad" x="972" y="68.597224" style="stroke: #000000; stroke-width: 0.8"/>
      </g>
     </g>
     <g id="text_21">
      <!-- 30 -->
      <g transform="translate(979 72.171443) scale(0.1 -0.1)">
       <use xlink:href="#Times New Roman-33"/>
       <use xlink:href="#Times New Roman-30" x="50"/>
      </g>
     </g>
    </g>
    <g id="text_22">
     <!-- buffer (s) -->
     <g transform="translate(1000.617188 243.16) rotate(-90) scale(0.1 -0.1)">
      <defs>
       <path id="Times New Roman-75" d="M 1450 325
Q 1750 325 1962 475 
Q 2175 625 2275 950 
L 2275 2525 
Q 2275 2625 2225 2687 
Q 2175 2750 2050 2750 
L 1900 2750 
L 1900 2900 
L 2050 2900 
Q 2200 2900 2325 2925 
Q 2450 2950 2575 3050 
L 2625 3050 
L 2625 600 
Q 2625 500 2687 450 
Q 2750 400 2850 400 
L 3000 400 
L 3000 250 
L 2850 250 
Q 2725 250 2600 212 
Q 2475 175 2325 100 
L 2275 100 
L 2275 625 
Q 2150 350 1900 212 
Q 1650 75 1325 75 
Q 925 75 725 300 
Q 525 525 525 1025 
L 525 2525 
Q 525 2625 475 2687 
Q 425 2750 300 2750 
L 150 2750 
L 150 2900 
L 300 2900 
Q 450 2900 575 2925 
Q 700 2950 825 3050 
L 875 3050 
L 875 975 
Q 875 625 1025 475 
Q 1175 325 1450 325 
z
" transform="scale(0.015625)"/>
       <path id="Times New Roman-66" d="M 1125 3325
Q 1125 3850 1450 4112 
Q 1775 4375 2175 4375 
Q 2600 4375 2812 4225 
Q 3025 4075 3025 3875 
Q 3025 3775 2975 3700 
Q 2925 3625 2775 3625 
Q 2675 3625 2612 3675 
Q 2550 3725 2550 3850 
Q 2550 3875 2575 3925 
Q 2575 3975 2575 4000 
Q 2575 4100 2500 4162 
Q 2425 4225 2150 4225 
Q 1850 4225 1662 4037 
Q 1475 3850 1475 3400 
L 1475 2900 
L 2525 2900 
L 2525 2750 
L 1475 2750 
L 1475 450 
Q 1475 350 1537 300 
Q 1600 250 1700 250 
L 2300 250 
L 2300 100 
L 475 100 
L 475 250 
L 900 250 
Q 1025 250 1075 300 
Q 1125 350 1125 450 
L 1125 2750 
L 350 2750 
L 350 2900 
L 1125 2900 
L 1125 3325 
z
" transform="scale(0.015625)"/>
      </defs>
      <use xlink:href="#Times New Roman-62"/>
      <use xlink:href="#Times New Roman-75" x="50"/>
      <use xlink:href="#Times New Roman-66" x="100"/>
      <use xlink:href="#Times New Roman-66" x="150"/>
      <use xlink:href="#Times New Roman-65" x="200"/>
      <use xlink:href="#Times New Roman-72" x="250"/>
      <use xlink:href="#Times New Roman-20" x="300"/>
      <use xlink:href="#Times New Roman-28" x="350"/>
      <use xlink:href="#Times New Roman-73" x="400"/>
      <use xlink:href="#Times New Roman-29" x="450"/>
     </g>
    </g>
   </g>
   <g id="line2d_30">
    <path d="M 173.045455 369.36 
L 174.313636 345.549611 
L 175.581818 327.517766 
L 176.85 291.036352 
L 180.654545 198.580815 
L 181.922727 170.871651 
L 185.727273 144.484117 
L 186.995455 139.888198 
L 188.263636 131.106416 
L 189.531818 119.967055 
L 190.8 105.000175 
L 190.8 101.250175 
L 192.068182 88.439906 
L 193.336364 82.87128 
L 194.604545 70.757224 
L 195.872727 71.314193 
L 197.140909 71.24281 
L 198.409091 70.687604 
L 199.677273 70.2734 
L 202.213636 71.037473 
L 202.213636 82.977861 
L 203.481818 87.0855 
L 203.481818 95.660516 
L 204.75 83.995089 
L 204.75 85.58092 
L 206.018182 79.957069 
L 207.286364 80.374795 
L 211.090909 86.772173 
L 212.359091 94.217744 
L 213.627273 102.711509 
L 216.163636 105.865753 
L 217.431818 109.667883 
L 217.431818 116.908467 
L 218.7 116.49265 
L 219.968182 116.217983 
L 222.504545 115.24329 
L 226.309091 119.699035 
L 226.309091 119.002824 
L 227.577273 115.800259 
L 228.845455 108.14195 
L 232.65 105.635595 
L 233.918182 103.3381 
L 233.918182 99.585002 
L 235.186364 95.129258 
L 237.722727 93.249492 
L 237.722727 87.325269 
L 238.990909 82.869522 
L 240.259091 79.896445 
L 241.527273 78.434402 
L 242.795455 79.826824 
L 244.063636 80.154301 
L 244.063636 81.514061 
L 245.331818 80.195559 
L 246.6 79.679848 
L 249.136364 80.896066 
L 250.404545 83.885472 
L 252.940909 85.756514 
L 252.940909 85.408409 
L 254.209091 83.876748 
L 255.477273 83.844216 
L 255.477273 100.506846 
L 256.745455 100.228359 
L 256.745455 114.129356 
L 258.013636 102.860076 
L 258.013636 113.024745 
L 259.281818 98.422981 
L 259.281818 99.109866 
L 259.281818 184.325989 
L 260.55 188.345358 
L 260.55 277.088947 
L 261.818182 181.290428 
L 261.818182 273.561482 
L 263.086364 273.561482 
L 264.354545 295.700965 
L 264.354545 295.700965 
L 265.622727 219.814058 
L 265.622727 293.473093 
L 266.890909 215.358314 
L 266.890909 291.245221 
L 268.159091 291.245221 
L 268.159091 289.017349 
L 269.427273 206.446825 
L 269.427273 206.446825 
L 271.963636 369.36 
L 274.5 227.611613 
L 274.5 283.529044 
L 275.768182 208.895316 
L 275.768182 266.875844 
L 277.036364 213.959226 
L 277.036364 274.002851 
L 278.304545 219.124013 
L 278.304545 270.71085 
L 279.572727 213.869791 
L 279.572727 267.418849 
L 280.840909 224.061317 
L 280.840909 279.572595 
L 282.109091 232.296442 
L 282.109091 320.325844 
L 283.377273 253.211185 
L 283.377273 244.864491 
L 283.377273 295.172745 
L 284.645455 287.286818 
L 284.645455 282.19292 
L 285.913636 304.5106 
L 285.913636 269.213095 
L 287.181818 264.562457 
L 287.181818 256.23327 
L 288.45 268.42965 
L 288.45 297.217908 
L 289.718182 274.833731 
L 290.986364 290.79423 
L 290.986364 286.143592 
L 292.254545 285.257072 
L 292.254545 255.344659 
L 293.522727 245.600123 
L 294.790909 274.182756 
L 296.059091 306.972766 
L 306.204545 296.334525 
L 332.836364 320.23309 
L 335.372727 369.36 
L 517.990909 369.36 
L 517.990909 353.694165 
L 519.259091 336.702773 
L 520.527273 316.094948 
L 521.795455 313.659315 
L 524.331818 311.435305 
L 524.331818 305.935246 
L 525.6 303.707376 
L 528.136364 299.808598 
L 528.136364 292.131994 
L 529.404545 283.982237 
L 531.940909 274.096054 
L 533.209091 274.044726 
L 534.477273 264.789227 
L 535.745455 260.333483 
L 535.745455 251.978961 
L 537.013636 244.599135 
L 537.013636 246.827007 
L 538.281818 242.097556 
L 538.281818 237.509137 
L 539.55 224.783883 
L 540.818182 225.49953 
L 542.086364 230.747575 
L 547.159091 239.017084 
L 548.427273 244.284067 
L 549.695455 245.016862 
L 549.695455 198.298967 
L 550.963636 192.450802 
L 553.5 184.720614 
L 554.768182 212.640835 
L 559.840909 148.516696 
L 561.109091 135.706429 
L 563.645455 114.833362 
L 566.181818 95.058323 
L 567.45 81.525542 
L 568.718182 72.474815 
L 569.986364 67.183622 
L 571.254545 68.597224 
L 573.790909 68.597224 
L 573.790909 66.96 
L 577.595455 66.96 
L 578.863636 68.597224 
L 624.518182 68.597224 
L 628.322727 78.746404 
L 629.590909 78.730919 
L 630.859091 71.959637 
L 632.127273 68.581739 
L 635.931818 68.597224 
L 641.004545 86.698683 
L 642.272727 100.48364 
L 643.540909 109.952094 
L 646.077273 84.053078 
L 648.613636 114.129357 
L 649.881818 130.420675 
L 652.418182 109.534372 
L 654.954545 121.613618 
L 656.222727 134.91123 
L 657.490909 149.42721 
L 658.759091 142.63916 
L 661.295455 146.050589 
L 662.563636 150.332282 
L 663.831818 155.484238 
L 666.368182 155.971586 
L 667.636364 158.477944 
L 668.904545 159.034911 
L 670.172727 159.939983 
L 672.709091 158.686805 
L 673.977273 157.851355 
L 673.977273 153.161335 
L 675.245455 148.287862 
L 676.513636 145.082969 
L 677.781818 142.532402 
L 679.05 139.165182 
L 680.318182 138.977441 
L 682.854545 134.723553 
L 682.854545 136.41522 
L 684.122727 134.377415 
L 686.659091 134.17556 
L 686.659091 130.281432 
L 687.927273 125.825685 
L 689.195455 126.79784 
L 689.195455 135.446539 
L 690.463636 134.880206 
L 690.463636 139.302537 
L 691.731818 133.351081 
L 693 136.006045 
L 696.804545 160.92111 
L 698.072727 152.569805 
L 700.609091 162.894016 
L 701.877273 179.373571 
L 701.877273 190.414294 
L 703.145455 180.712243 
L 703.145455 178.680181 
L 704.413636 182.838656 
L 705.681818 189.816094 
L 706.95 183.719907 
L 712.022727 184.320391 
L 713.290909 191.896028 
L 715.827273 202.05634 
L 717.095455 203.042472 
L 718.363636 194.715801 
L 718.363636 189.287541 
L 719.631818 181.54817 
L 720.9 180.615247 
L 722.168182 175.604713 
L 722.168182 179.225007 
L 723.436364 179.294628 
L 724.704545 178.876902 
L 727.240909 178.944429 
L 728.509091 179.501397 
L 729.777273 181.10268 
L 731.045455 182.149089 
L 733.581818 183.39808 
L 733.581818 184.579543 
L 734.85 181.933943 
L 734.85 182.543467 
L 736.118182 181.455809 
L 737.386364 180.620357 
L 743.727273 194.544557 
L 744.995455 197.262711 
L 746.263636 217.744237 
L 747.531818 223.72757 
L 747.531818 243.31599 
L 748.8 221.924177 
L 748.8 228.99979 
L 750.068182 219.698422 
L 751.336364 252.122846 
L 751.336364 242.821477 
L 752.604545 263.327188 
L 753.872727 254.369284 
L 755.140909 270.567774 
L 757.677273 243.694062 
L 760.213636 292.568014 
L 761.481818 318.675895 
L 765.286364 288.390755 
L 766.554545 312.015488 
L 767.822727 339.005236 
L 769.090909 355.783899 
L 770.359091 340.235203 
L 771.627273 340.235203 
L 771.627273 336.290013 
L 772.895455 332.344823 
L 772.895455 332.344823 
L 774.163636 349.866114 
L 775.431818 369.36 
L 933.954545 369.36 
L 933.954545 369.36 
" clip-path="url(#p8f147435ff)" style="fill: none; stroke: #1f77b4; stroke-width: 1.5; stroke-linecap: square"/>
   </g>
   <g id="patch_7">
    <path d="M 135 384.48 
L 135 51.84 
" style="fill: none; stroke: #000000; stroke-width: 0.8; stroke-linejoin: miter; stroke-linecap: square"/>
   </g>
   <g id="patch_8">
    <path d="M 972 384.48 
L 972 51.84 
" style="fill: none; stroke: #000000; stroke-width: 0.8; stroke-linejoin: miter; stroke-linecap: square"/>
   </g>
   <g id="patch_9">
    <path d="M 135 384.48 
L 972 384.48 
" style="fill: none; stroke: #000000; stroke-width: 0.8; stroke-linejoin: miter; stroke-linecap: square"/>
   </g>
   <g id="patch_10">
    <path d="M 135 51.84 
L 972 51.84 
" style="fill: none; stroke: #000000; stroke-width: 0.8; stroke-linejoin: miter; stroke-linecap: square"/>
   </g>
   <g id="text_23">
    <!-- ./comyco/log_comyco_7_wave -->
    <g transform="translate(475.5 45.84) scale(0.12 -0.12)">
     <defs>
      <path id="Times New Roman-2e" d="M 800 25
Q 650 25 537 125 
Q 425 225 425 400 
Q 425 575 537 675 
Q 650 775 800 775 
Q 950 775 1062 662 
Q 1175 550 1175 400 
Q 1175 225 1062 125 
Q 950 25 800 25 
z
" transform="scale(0.015625)"/>
      <path id="Times New Roman-2f" d="M 400 -475
L 225 -375 
L 2775 4975 
L 2950 4875 
L 400 -475 
z
" transform="scale(0.015625)"/>
      <path id="Times New Roman-63" d="M 2150 2225
Q 2150 2300 2175 2325 
Q 2175 2350 2200 2425 
Q 2225 2525 2100 2662 
Q 1975 2800 1675 2800 
Q 1300 2800 1037 2437 
Q 775 2075 775 1475 
Q 775 925 1000 587 
Q 1225 250 1750 250 
Q 2100 250 2337 475 
Q 2575 700 2675 1000 
L 2800 950 
Q 2700 575 2425 312 
Q 2150 50 1675 50 
Q 1075 50 725 425 
Q 375 800 375 1500 
Q 375 2125 750 2537 
Q 1125 2950 1725 2950 
Q 2150 2950 2387 2725 
Q 2625 2500 2625 2275 
Q 2625 2125 2562 2062 
Q 2500 2000 2375 2000 
Q 2275 2000 2212 2062 
Q 2150 2125 2150 2225 
z
" transform="scale(0.015625)"/>
      <path id="Times New Roman-6f" d="M 2900 1500
Q 2900 875 2525 462 
Q 2150 50 1600 50 
Q 1025 50 662 475 
Q 300 900 300 1500 
Q 300 2050 662 2500 
Q 1025 2950 1600 2950 
Q 2200 2950 2550 2500 
Q 2900 2050 2900 1500 
z
M 700 1475 
Q 700 825 962 512 
Q 1225 200 1600 200 
Q 2025 200 2262 537 
Q 2500 875 2500 1475 
Q 2500 2125 2237 2462 
Q 1975 2800 1600 2800 
Q 1250 2800 975 2462 
Q 700 2125 700 1475 
z
" transform="scale(0.015625)"/>
      <path id="Times New Roman-6d" d="M 175 2900
Q 300 2900 425 2925 
Q 550 2950 625 3000 
L 675 3000 
L 675 2575 
Q 800 2775 950 2862 
Q 1100 2950 1275 2950 
Q 1500 2950 1625 2862 
Q 1750 2775 1775 2575 
Q 1900 2775 2062 2862 
Q 2225 2950 2400 2950 
Q 2700 2950 2812 2775 
Q 2925 2600 2925 2325 
L 2925 425 
Q 2925 325 2975 287 
Q 3025 250 3125 250 
L 3175 250 
L 3175 100 
L 2325 100 
L 2325 250 
L 2375 250 
Q 2475 250 2525 287 
Q 2575 325 2575 425 
L 2575 2300 
Q 2575 2575 2512 2662 
Q 2450 2750 2325 2750 
Q 2150 2750 2012 2625 
Q 1875 2500 1800 2275 
L 1800 425 
Q 1800 325 1850 287 
Q 1900 250 2000 250 
L 2050 250 
L 2050 100 
L 1200 100 
L 1200 250 
L 1250 250 
Q 1350 250 1400 287 
Q 1450 325 1450 425 
L 1450 2300 
Q 1450 2525 1400 2637 
Q 1350 2750 1200 2750 
Q 1025 2750 887 2625 
Q 750 2500 675 2250 
L 675 425 
Q 675 325 725 287 
Q 775 250 875 250 
L 925 250 
L 925 100 
L 75 100 
L 75 250 
L 125 250 
Q 225 250 275 287 
Q 325 325 325 425 
L 325 2600 
Q 325 2675 300 2712 
Q 275 2750 200 2750 
L 100 2750 
L 100 2900 
L 175 2900 
z
" transform="scale(0.015625)"/>
      <path id="Times New Roman-79" d="M 1650 800
L 1700 800 
L 2250 2475 
Q 2300 2600 2237 2675 
Q 2175 2750 2075 2750 
L 1925 2750 
L 1925 2900 
L 2975 2900 
L 2975 2750 
L 2825 2750 
Q 2725 2750 2625 2675 
Q 2525 2600 2475 2475 
L 1625 0 
Q 1500 -375 1312 -587 
Q 1125 -800 825 -800 
Q 650 -800 550 -737 
Q 450 -675 450 -550 
Q 450 -475 512 -400 
Q 575 -325 700 -325 
Q 800 -325 900 -425 
Q 1000 -500 1050 -500 
Q 1125 -500 1175 -475 
Q 1225 -450 1250 -375 
Q 1325 -250 1400 -62 
Q 1475 125 1525 325 
L 675 2525 
Q 650 2625 562 2687 
Q 475 2750 375 2750 
L 275 2750 
L 275 2900 
L 1325 2900 
L 1325 2750 
L 1225 2750 
Q 1125 2750 1075 2687 
Q 1025 2625 1050 2500 
L 1650 800 
z
M 950 2750 
L 950 2750 
z
M 600 2750 
L 600 2750 
z
M 2575 2750 
L 2575 2750 
z
M 2325 2750 
L 2325 2750 
z
" transform="scale(0.015625)"/>
      <path id="Times New Roman-6c" d="M 925 4375
Q 1150 4375 1350 4425 
Q 1550 4475 1725 4575 
L 1775 4575 
L 1775 450 
Q 1775 350 1837 300 
Q 1900 250 2000 250 
L 2575 250 
L 2575 100 
L 625 100 
L 625 250 
L 1200 250 
Q 1325 250 1375 300 
Q 1425 350 1425 450 
L 1425 4025 
Q 1425 4125 1375 4175 
Q 1325 4225 1200 4225 
L 650 4225 
L 650 4375 
L 925 4375 
z
" transform="scale(0.015625)"/>
      <path id="Times New Roman-67" d="M 875 1975
Q 875 1675 1050 1462 
Q 1225 1250 1525 1250 
Q 1850 1250 2012 1437 
Q 2175 1625 2175 1975 
Q 2175 2400 1987 2587 
Q 1800 2775 1525 2775 
Q 1250 2775 1062 2587 
Q 875 2400 875 1975 
z
M 2100 625 
Q 2475 575 2650 412 
Q 2825 250 2825 -25 
Q 2825 -400 2512 -625 
Q 2200 -850 1525 -850 
Q 1000 -850 675 -637 
Q 350 -425 350 -150 
Q 350 25 475 200 
Q 600 375 875 475 
Q 725 550 637 637 
Q 550 725 550 850 
Q 550 1000 650 1112 
Q 750 1225 900 1300 
Q 750 1425 637 1600 
Q 525 1775 525 1975 
Q 525 2350 787 2637 
Q 1050 2925 1525 2925 
Q 1725 2925 1912 2875 
Q 2100 2825 2225 2700 
Q 2400 2825 2537 2887 
Q 2675 2950 2775 2950 
Q 2900 2950 2950 2862 
Q 3000 2775 3000 2700 
Q 3000 2600 2962 2537 
Q 2925 2475 2825 2475 
Q 2750 2475 2700 2512 
Q 2650 2550 2625 2625 
Q 2600 2700 2512 2687 
Q 2425 2675 2325 2600 
Q 2425 2500 2475 2325 
Q 2525 2150 2525 1975 
Q 2525 1675 2287 1387 
Q 2050 1100 1525 1100 
Q 1375 1100 1250 1137 
Q 1125 1175 1050 1225 
Q 950 1175 900 1100 
Q 850 1025 850 975 
Q 850 875 900 825 
Q 950 775 1050 775 
Q 1375 725 1637 687 
Q 1900 650 2100 625 
z
M 1075 425 
Q 850 325 762 187 
Q 675 50 675 -150 
Q 675 -350 900 -525 
Q 1125 -700 1575 -700 
Q 2000 -700 2250 -562 
Q 2500 -425 2500 -150 
Q 2500 25 2437 125 
Q 2375 225 2250 250 
Q 2000 300 1700 350 
Q 1400 375 1075 425 
z
" transform="scale(0.015625)"/>
      <path id="Times New Roman-5f" d="M 0 -875
L 0 -725 
L 3175 -725 
L 3175 -875 
L 0 -875 
z
" transform="scale(0.015625)"/>
      <path id="Times New Roman-37" d="M 2825 4200
Q 2300 3350 1987 2537 
Q 1675 1725 1675 1125 
Q 1675 1025 1700 850 
Q 1700 650 1700 400 
Q 1700 200 1637 125 
Q 1575 50 1425 50 
Q 1300 50 1212 137 
Q 1125 225 1125 450 
Q 1125 925 1337 1625 
Q 1550 2325 2475 4000 
L 1225 4000 
Q 950 4000 787 3825 
Q 625 3650 550 3300 
L 400 3325 
L 575 4375 
L 2825 4375 
L 2825 4200 
z
" transform="scale(0.015625)"/>
      <path id="Times New Roman-77" d="M 2325 2900
L 3175 2900 
L 3175 2750 
L 3075 2750 
Q 2975 2750 2900 2675 
Q 2825 2600 2775 2425 
L 2175 75 
L 2025 75 
L 1575 1975 
L 1100 75 
L 950 75 
L 375 2375 
Q 350 2550 275 2650 
Q 200 2750 125 2750 
L 25 2750 
L 25 2900 
L 925 2900 
L 925 2750 
L 825 2750 
Q 725 2750 700 2662 
Q 675 2575 700 2425 
L 1075 800 
L 1125 800 
L 1500 2300 
Q 1475 2525 1400 2637 
Q 1325 2750 1225 2750 
L 1150 2750 
L 1150 2900 
L 2000 2900 
L 2000 2750 
L 1925 2750 
Q 1825 2750 1800 2662 
Q 1775 2575 1800 2425 
L 2175 800 
L 2200 800 
L 2625 2550 
Q 2650 2650 2600 2700 
Q 2550 2750 2450 2750 
L 2325 2750 
L 2325 2900 
z
M 1725 2750 
L 1725 2750 
z
M 625 2750 
L 625 2750 
z
M 275 2750 
L 275 2750 
z
M 2875 2750 
L 2875 2750 
z
M 2675 2750 
L 2675 2750 
z
" transform="scale(0.015625)"/>
      <path id="Times New Roman-76" d="M 1625 75
L 1475 75 
L 625 2525 
Q 600 2625 525 2687 
Q 450 2750 350 2750 
L 225 2750 
L 225 2900 
L 1300 2900 
L 1300 2750 
L 1200 2750 
Q 1050 2750 1025 2700 
Q 1000 2650 1000 2600 
Q 1000 2500 1025 2425 
L 1625 675 
L 1675 675 
L 2275 2400 
Q 2325 2525 2325 2575 
Q 2325 2600 2275 2675 
Q 2225 2750 2075 2750 
L 2025 2750 
L 2025 2900 
L 2925 2900 
L 2925 2750 
L 2875 2750 
Q 2725 2750 2637 2662 
Q 2550 2575 2475 2400 
L 1625 75 
z
M 2600 2750 
L 2600 2750 
z
M 2400 2750 
L 2400 2750 
z
M 925 2750 
L 925 2750 
z
M 550 2750 
L 550 2750 
z
" transform="scale(0.015625)"/>
     </defs>
     <use xlink:href="#Times New Roman-2e"/>
     <use xlink:href="#Times New Roman-2f" x="50"/>
     <use xlink:href="#Times New Roman-63" x="100"/>
     <use xlink:href="#Times New Roman-6f" x="150"/>
     <use xlink:href="#Times New Roman-6d" x="200"/>
     <use xlink:href="#Times New Roman-79" x="250"/>
     <use xlink:href="#Times New Roman-63" x="300"/>
     <use xlink:href="#Times New Roman-6f" x="350"/>
     <use xlink:href="#Times New Roman-2f" x="400"/>
     <use xlink:href="#Times New Roman-6c" x="450"/>
     <use xlink:href="#Times New Roman-6f" x="500"/>
     <use xlink:href="#Times New Roman-67" x="550"/>
     <use xlink:href="#Times New Roman-5f" x="600"/>
     <use xlink:href="#Times New Roman-63" x="650"/>
     <use xlink:href="#Times New Roman-6f" x="700"/>
     <use xlink:href="#Times New Roman-6d" x="750"/>
     <use xlink:href="#Times New Roman-79" x="800"/>
     <use xlink:href="#Times New Roman-63" x="850"/>
     <use xlink:href="#Times New Roman-6f" x="900"/>
     <use xlink:href="#Times New Roman-5f" x="950"/>
     <use xlink:href="#Times New Roman-37" x="1000"/>
     <use xlink:href="#Times New Roman-5f" x="1050"/>
     <use xlink:href="#Times New Roman-77" x="1100"/>
     <use xlink:href="#Times New Roman-61" x="1150"/>
     <use xlink:href="#Times New Roman-76" x="1200"/>
     <use xlink:href="#Times New Roman-65" x="1250"/>
    </g>
   </g>
   <g id="legend_1">
    <g id="patch_11">
     <path d="M 903 73.2775 
L 965 73.2775 
Q 967 73.2775 967 71.2775 
L 967 58.84 
Q 967 56.84 965 56.84 
L 903 56.84 
Q 901 56.84 901 58.84 
L 901 71.2775 
Q 901 73.2775 903 73.2775 
z
" style="fill: #ffffff; opacity: 0.8; stroke: #cccccc; stroke-linejoin: miter"/>
    </g>
    <g id="line2d_31">
     <path d="M 905 64.488437 
L 915 64.488437 
L 925 64.488437 
" style="fill: none; stroke: #1f77b4; stroke-width: 1.5; stroke-linecap: square"/>
    </g>
    <g id="text_24">
     <!-- buffer -->
     <g transform="translate(933 67.988437) scale(0.1 -0.1)">
      <use xlink:href="#Times New Roman-62"/>
      <use xlink:href="#Times New Roman-75" x="50"/>
      <use xlink:href="#Times New Roman-66" x="100"/>
      <use xlink:href="#Times New Roman-66" x="150"/>
      <use xlink:href="#Times New Roman-65" x="200"/>
      <use xlink:href="#Times New Roman-72" x="250"/>
     </g>
    </g>
   </g>
  </g>
 </g>
 <defs>
  <clipPath id="p8f147435ff">
   <rect x="135" y="51.84" width="837" height="332.64"/>
  </clipPath>
 </defs>
</svg>
