<?xml version="1.0" encoding="utf-8" standalone="no"?>
<!DOCTYPE svg PUBLIC "-//W3C//DTD SVG 1.1//EN"
  "http://www.w3.org/Graphics/SVG/1.1/DTD/svg11.dtd">
<svg xmlns:xlink="http://www.w3.org/1999/xlink" width="1080pt" height="432pt" viewBox="0 0 1080 432" xmlns="http://www.w3.org/2000/svg" version="1.1">
 <metadata>
  <rdf:RDF xmlns:dc="http://purl.org/dc/elements/1.1/" xmlns:cc="http://creativecommons.org/ns#" xmlns:rdf="http://www.w3.org/1999/02/22-rdf-syntax-ns#">
   <cc:Work>
    <dc:type rdf:resource="http://purl.org/dc/dcmitype/StillImage"/>
    <dc:date>2024-04-12T06:21:51.130770</dc:date>
    <dc:format>image/svg+xml</dc:format>
    <dc:creator>
     <cc:Agent>
      <dc:title>Matplotlib v3.8.3, https://matplotlib.org/</dc:title>
     </cc:Agent>
    </dc:creator>
   </cc:Work>
  </rdf:RDF>
 </metadata>
 <defs>
  <style type="text/css">*{stroke-linejoin: round; stroke-linecap: butt}</style>
 </defs>
 <g id="figure_1">
  <g id="patch_1">
   <path d="M 0 432 
L 1080 432 
L 1080 0 
L 0 0 
z
" style="fill: #ffffff"/>
  </g>
  <g id="axes_1">
   <g id="patch_2">
    <path d="M 135 384.48 
L 972 384.48 
L 972 51.84 
L 135 51.84 
z
" style="fill: #ffffff"/>
   </g>
   <g id="matplotlib.axis_1">
    <g id="xtick_1">
     <g id="line2d_1">
      <defs>
       <path id="m3c8ab7f142" d="M 0 0 
L 0 3.5 
" style="stroke: #000000; stroke-width: 0.8"/>
      </defs>
      <g>
       <use xlink:href="#m3c8ab7f142" x="173.045455" y="384.48" style="stroke: #000000; stroke-width: 0.8"/>
      </g>
     </g>
     <g id="text_1">
      <!-- 0 -->
      <g transform="translate(170.545455 398.628438) scale(0.1 -0.1)">
       <defs>
        <path id="Times New Roman-30" d="M 1600 4225
Q 1250 4225 1012 3687 
Q 775 3150 775 2250 
Q 775 1300 1012 775 
Q 1250 250 1600 250 
Q 1975 250 2187 775 
Q 2400 1300 2400 2250 
Q 2400 3150 2200 3687 
Q 2000 4225 1600 4225 
z
M 1600 50 
Q 1050 50 675 625 
Q 300 1200 300 2250 
Q 300 3225 662 3825 
Q 1025 4425 1600 4425 
Q 2150 4425 2512 3850 
Q 2875 3275 2875 2250 
Q 2875 1225 2512 637 
Q 2150 50 1600 50 
z
" transform="scale(0.015625)"/>
       </defs>
       <use xlink:href="#Times New Roman-30"/>
      </g>
     </g>
    </g>
    <g id="xtick_2">
     <g id="line2d_2">
      <g>
       <use xlink:href="#m3c8ab7f142" x="299.863636" y="384.48" style="stroke: #000000; stroke-width: 0.8"/>
      </g>
     </g>
     <g id="text_2">
      <!-- 100 -->
      <g transform="translate(292.363636 398.628438) scale(0.1 -0.1)">
       <defs>
        <path id="Times New Roman-31" d="M 1825 4450
L 1825 650 
Q 1825 450 1950 350 
Q 2075 250 2300 250 
L 2550 250 
L 2550 100 
L 725 100 
L 725 250 
L 950 250 
Q 1200 250 1312 350 
Q 1425 450 1425 650 
L 1425 3675 
Q 1425 3775 1362 3837 
Q 1300 3900 1175 3900 
L 725 3900 
L 725 4050 
L 950 4050 
Q 1250 4050 1437 4150 
Q 1625 4250 1725 4450 
L 1825 4450 
z
" transform="scale(0.015625)"/>
       </defs>
       <use xlink:href="#Times New Roman-31"/>
       <use xlink:href="#Times New Roman-30" x="50"/>
       <use xlink:href="#Times New Roman-30" x="100"/>
      </g>
     </g>
    </g>
    <g id="xtick_3">
     <g id="line2d_3">
      <g>
       <use xlink:href="#m3c8ab7f142" x="426.681818" y="384.48" style="stroke: #000000; stroke-width: 0.8"/>
      </g>
     </g>
     <g id="text_3">
      <!-- 200 -->
      <g transform="translate(419.181818 398.628438) scale(0.1 -0.1)">
       <defs>
        <path id="Times New Roman-32" d="M 2325 3325
Q 2325 3775 2125 4012 
Q 1925 4250 1525 4250 
Q 1225 4250 1012 4087 
Q 800 3925 800 3675 
Q 800 3525 900 3425 
Q 975 3325 975 3225 
Q 975 3100 912 3037 
Q 850 2975 725 2975 
Q 575 2975 487 3062 
Q 400 3150 400 3350 
Q 400 3875 775 4150 
Q 1150 4425 1575 4425 
Q 2175 4425 2462 4125 
Q 2750 3825 2750 3375 
Q 2750 3075 2612 2775 
Q 2475 2475 2175 2200 
Q 1450 1500 1062 1062 
Q 675 625 600 475 
L 2075 475 
Q 2300 475 2450 650 
Q 2600 825 2650 1175 
L 2800 1175 
L 2650 100 
L 325 100 
L 325 425 
Q 450 650 737 1000 
Q 1025 1350 1500 1825 
Q 1925 2250 2125 2625 
Q 2325 3000 2325 3325 
z
" transform="scale(0.015625)"/>
       </defs>
       <use xlink:href="#Times New Roman-32"/>
       <use xlink:href="#Times New Roman-30" x="50"/>
       <use xlink:href="#Times New Roman-30" x="100"/>
      </g>
     </g>
    </g>
    <g id="xtick_4">
     <g id="line2d_4">
      <g>
       <use xlink:href="#m3c8ab7f142" x="553.5" y="384.48" style="stroke: #000000; stroke-width: 0.8"/>
      </g>
     </g>
     <g id="text_4">
      <!-- 300 -->
      <g transform="translate(546 398.628438) scale(0.1 -0.1)">
       <defs>
        <path id="Times New Roman-33" d="M 2800 1250
Q 2800 775 2450 412 
Q 2100 50 1475 50 
Q 1025 50 700 300 
Q 375 550 375 875 
Q 375 1025 475 1137 
Q 575 1250 675 1250 
Q 825 1250 887 1137 
Q 950 1025 950 950 
Q 950 825 900 750 
Q 850 650 850 575 
Q 850 425 1037 325 
Q 1225 225 1450 225 
Q 1900 225 2125 487 
Q 2350 750 2350 1300 
Q 2350 1750 2112 2025 
Q 1875 2300 1225 2300 
L 1225 2475 
Q 1725 2475 1962 2712 
Q 2200 2950 2200 3375 
Q 2200 3725 2012 3987 
Q 1825 4250 1425 4250 
Q 1250 4250 1050 4162 
Q 850 4075 850 3875 
Q 850 3675 900 3625 
Q 950 3575 950 3500 
Q 950 3375 900 3300 
Q 850 3225 725 3225 
Q 625 3225 537 3300 
Q 450 3375 450 3575 
Q 450 3950 775 4187 
Q 1100 4425 1525 4425 
Q 2025 4425 2325 4112 
Q 2625 3800 2625 3450 
Q 2625 3075 2437 2812 
Q 2250 2550 1850 2425 
Q 2400 2225 2600 1900 
Q 2800 1575 2800 1250 
z
" transform="scale(0.015625)"/>
       </defs>
       <use xlink:href="#Times New Roman-33"/>
       <use xlink:href="#Times New Roman-30" x="50"/>
       <use xlink:href="#Times New Roman-30" x="100"/>
      </g>
     </g>
    </g>
    <g id="xtick_5">
     <g id="line2d_5">
      <g>
       <use xlink:href="#m3c8ab7f142" x="680.318182" y="384.48" style="stroke: #000000; stroke-width: 0.8"/>
      </g>
     </g>
     <g id="text_5">
      <!-- 400 -->
      <g transform="translate(672.818182 398.628438) scale(0.1 -0.1)">
       <defs>
        <path id="Times New Roman-34" d="M 2300 575
Q 2300 400 2400 325 
Q 2500 250 2675 250 
L 2900 250 
L 2900 100 
L 1250 100 
L 1250 250 
L 1525 250 
Q 1725 250 1812 325 
Q 1900 400 1900 575 
L 1900 1400 
L 225 1400 
L 225 1525 
L 2050 4425 
L 2300 4425 
L 2300 1550 
L 2975 1550 
L 2975 1400 
L 2300 1400 
L 2300 575 
z
M 1875 3800 
L 450 1550 
L 1900 1550 
L 1900 3800 
L 1875 3800 
z
" transform="scale(0.015625)"/>
       </defs>
       <use xlink:href="#Times New Roman-34"/>
       <use xlink:href="#Times New Roman-30" x="50"/>
       <use xlink:href="#Times New Roman-30" x="100"/>
      </g>
     </g>
    </g>
    <g id="xtick_6">
     <g id="line2d_6">
      <g>
       <use xlink:href="#m3c8ab7f142" x="807.136364" y="384.48" style="stroke: #000000; stroke-width: 0.8"/>
      </g>
     </g>
     <g id="text_6">
      <!-- 500 -->
      <g transform="translate(799.636364 398.628438) scale(0.1 -0.1)">
       <defs>
        <path id="Times New Roman-35" d="M 1725 2850
Q 2200 2850 2500 2487 
Q 2800 2125 2800 1525 
Q 2800 850 2487 450 
Q 2175 50 1525 50 
Q 1075 50 725 312 
Q 375 575 375 950 
Q 375 1100 462 1212 
Q 550 1325 700 1325 
Q 850 1325 900 1225 
Q 950 1125 950 1050 
Q 950 900 875 825 
Q 800 725 800 625 
Q 800 425 1037 325 
Q 1275 225 1550 225 
Q 1950 225 2162 550 
Q 2375 875 2375 1475 
Q 2375 1975 2187 2287 
Q 2000 2600 1625 2600 
Q 1350 2600 1150 2500 
Q 950 2400 775 2075 
L 550 2100 
L 675 4375 
L 2725 4375 
L 2650 4000 
L 850 4000 
L 750 2350 
Q 1000 2700 1237 2775 
Q 1475 2850 1725 2850 
z
" transform="scale(0.015625)"/>
       </defs>
       <use xlink:href="#Times New Roman-35"/>
       <use xlink:href="#Times New Roman-30" x="50"/>
       <use xlink:href="#Times New Roman-30" x="100"/>
      </g>
     </g>
    </g>
    <g id="xtick_7">
     <g id="line2d_7">
      <g>
       <use xlink:href="#m3c8ab7f142" x="933.954545" y="384.48" style="stroke: #000000; stroke-width: 0.8"/>
      </g>
     </g>
     <g id="text_7">
      <!-- 600 -->
      <g transform="translate(926.454545 398.628438) scale(0.1 -0.1)">
       <defs>
        <path id="Times New Roman-36" d="M 775 1800
Q 775 1050 1037 637 
Q 1300 225 1675 225 
Q 2050 225 2250 500 
Q 2450 775 2450 1525 
Q 2450 2025 2237 2300 
Q 2025 2575 1725 2575 
Q 1450 2575 1212 2412 
Q 975 2250 775 1800 
z
M 1750 2825 
Q 2350 2825 2612 2425 
Q 2875 2025 2875 1525 
Q 2875 775 2512 412 
Q 2150 50 1675 50 
Q 1000 50 650 562 
Q 300 1075 300 2050 
Q 300 3200 725 3812 
Q 1150 4425 1875 4425 
Q 2225 4425 2437 4225 
Q 2650 4025 2650 3875 
Q 2650 3725 2587 3650 
Q 2525 3575 2375 3575 
Q 2250 3575 2187 3637 
Q 2125 3700 2125 3825 
Q 2125 3875 2150 3925 
Q 2150 3975 2150 4025 
Q 2150 4125 2075 4187 
Q 2000 4250 1800 4250 
Q 1375 4250 1075 3862 
Q 775 3475 775 2175 
Q 925 2500 1187 2662 
Q 1450 2825 1750 2825 
z
" transform="scale(0.015625)"/>
       </defs>
       <use xlink:href="#Times New Roman-36"/>
       <use xlink:href="#Times New Roman-30" x="50"/>
       <use xlink:href="#Times New Roman-30" x="100"/>
      </g>
     </g>
    </g>
   </g>
   <g id="matplotlib.axis_2">
    <g id="ytick_1">
     <g id="line2d_8">
      <defs>
       <path id="md71ead3286" d="M 0 0 
L -3.5 0 
" style="stroke: #000000; stroke-width: 0.8"/>
      </defs>
      <g>
       <use xlink:href="#md71ead3286" x="135" y="378.189167" style="stroke: #000000; stroke-width: 0.8"/>
      </g>
     </g>
     <g id="text_8">
      <!-- 0 -->
      <g transform="translate(123 381.763385) scale(0.1 -0.1)">
       <use xlink:href="#Times New Roman-30"/>
      </g>
     </g>
    </g>
    <g id="ytick_2">
     <g id="line2d_9">
      <g>
       <use xlink:href="#md71ead3286" x="135" y="315.570964" style="stroke: #000000; stroke-width: 0.8"/>
      </g>
     </g>
     <g id="text_9">
      <!-- 1000 -->
      <g transform="translate(108 319.145182) scale(0.1 -0.1)">
       <use xlink:href="#Times New Roman-31"/>
       <use xlink:href="#Times New Roman-30" x="50"/>
       <use xlink:href="#Times New Roman-30" x="100"/>
       <use xlink:href="#Times New Roman-30" x="150"/>
      </g>
     </g>
    </g>
    <g id="ytick_3">
     <g id="line2d_10">
      <g>
       <use xlink:href="#md71ead3286" x="135" y="252.952761" style="stroke: #000000; stroke-width: 0.8"/>
      </g>
     </g>
     <g id="text_10">
      <!-- 2000 -->
      <g transform="translate(108 256.52698) scale(0.1 -0.1)">
       <use xlink:href="#Times New Roman-32"/>
       <use xlink:href="#Times New Roman-30" x="50"/>
       <use xlink:href="#Times New Roman-30" x="100"/>
       <use xlink:href="#Times New Roman-30" x="150"/>
      </g>
     </g>
    </g>
    <g id="ytick_4">
     <g id="line2d_11">
      <g>
       <use xlink:href="#md71ead3286" x="135" y="190.334558" style="stroke: #000000; stroke-width: 0.8"/>
      </g>
     </g>
     <g id="text_11">
      <!-- 3000 -->
      <g transform="translate(108 193.908777) scale(0.1 -0.1)">
       <use xlink:href="#Times New Roman-33"/>
       <use xlink:href="#Times New Roman-30" x="50"/>
       <use xlink:href="#Times New Roman-30" x="100"/>
       <use xlink:href="#Times New Roman-30" x="150"/>
      </g>
     </g>
    </g>
    <g id="ytick_5">
     <g id="line2d_12">
      <g>
       <use xlink:href="#md71ead3286" x="135" y="127.716355" style="stroke: #000000; stroke-width: 0.8"/>
      </g>
     </g>
     <g id="text_12">
      <!-- 4000 -->
      <g transform="translate(108 131.290574) scale(0.1 -0.1)">
       <use xlink:href="#Times New Roman-34"/>
       <use xlink:href="#Times New Roman-30" x="50"/>
       <use xlink:href="#Times New Roman-30" x="100"/>
       <use xlink:href="#Times New Roman-30" x="150"/>
      </g>
     </g>
    </g>
    <g id="ytick_6">
     <g id="line2d_13">
      <g>
       <use xlink:href="#md71ead3286" x="135" y="65.098152" style="stroke: #000000; stroke-width: 0.8"/>
      </g>
     </g>
     <g id="text_13">
      <!-- 5000 -->
      <g transform="translate(108 68.672371) scale(0.1 -0.1)">
       <use xlink:href="#Times New Roman-35"/>
       <use xlink:href="#Times New Roman-30" x="50"/>
       <use xlink:href="#Times New Roman-30" x="100"/>
       <use xlink:href="#Times New Roman-30" x="150"/>
      </g>
     </g>
    </g>
    <g id="text_14">
     <!-- Bitrate (kbps) -->
     <g transform="translate(102.710938 253.16) rotate(-90) scale(0.1 -0.1)">
      <defs>
       <path id="Times New Roman-42" d="M 100 100
L 100 250 
L 300 250 
Q 425 250 475 300 
Q 525 350 525 450 
L 525 4025 
Q 525 4125 475 4175 
Q 425 4225 300 4225 
L 150 4225 
L 150 4375 
L 1600 4375 
Q 2200 4375 2487 4137 
Q 2775 3900 2775 3400 
Q 2775 3050 2625 2825 
Q 2475 2600 2000 2425 
Q 2575 2250 2775 1925 
Q 2975 1600 2975 1200 
Q 2975 700 2625 400 
Q 2275 100 1675 100 
L 100 100 
z
M 1600 250 
Q 2025 250 2262 512 
Q 2500 775 2500 1250 
Q 2500 1800 2250 2062 
Q 2000 2325 1500 2325 
L 925 2325 
L 925 450 
Q 925 350 987 300 
Q 1050 250 1150 250 
L 1600 250 
z
M 2350 3400 
Q 2350 3850 2100 4037 
Q 1850 4225 1450 4225 
L 1150 4225 
Q 1050 4225 987 4175 
Q 925 4125 925 4025 
L 925 2475 
L 1575 2475 
Q 1850 2475 2100 2700 
Q 2350 2925 2350 3400 
z
" transform="scale(0.015625)"/>
       <path id="Times New Roman-69" d="M 1425 2525
Q 1425 2625 1375 2687 
Q 1325 2750 1200 2750 
L 675 2750 
L 675 2900 
L 925 2900 
Q 1150 2900 1350 2937 
Q 1550 2975 1725 3075 
L 1775 3075 
L 1775 450 
Q 1775 350 1837 300 
Q 1900 250 2000 250 
L 2525 250 
L 2525 100 
L 675 100 
L 675 250 
L 1200 250 
Q 1325 250 1375 300 
Q 1425 350 1425 450 
L 1425 2525 
z
M 1725 3025 
L 1725 3025 
z
M 1625 4425 
Q 1750 4425 1850 4337 
Q 1950 4250 1950 4125 
Q 1950 4000 1850 3900 
Q 1750 3800 1625 3800 
Q 1500 3800 1400 3900 
Q 1300 4000 1300 4125 
Q 1300 4250 1400 4337 
Q 1500 4425 1625 4425 
z
" transform="scale(0.015625)"/>
       <path id="Times New Roman-74" d="M 1500 900
Q 1500 550 1625 425 
Q 1750 300 2000 300 
Q 2250 300 2400 462 
Q 2550 625 2600 925 
L 2725 875 
Q 2675 525 2462 300 
Q 2250 75 1900 75 
Q 1525 75 1337 300 
Q 1150 525 1150 1000 
L 1150 2750 
L 400 2750 
L 400 2900 
L 600 2900 
Q 900 2900 1087 3087 
Q 1275 3275 1325 3675 
L 1350 3875 
L 1500 3875 
L 1500 2900 
L 2500 2900 
L 2500 2750 
L 1500 2750 
L 1500 900 
z
" transform="scale(0.015625)"/>
       <path id="Times New Roman-72" d="M 1275 2125
Q 1525 2525 1812 2737 
Q 2100 2950 2400 2950 
Q 2650 2950 2787 2837 
Q 2925 2725 2925 2575 
Q 2925 2450 2862 2375 
Q 2800 2300 2675 2300 
Q 2550 2300 2487 2375 
Q 2425 2450 2450 2575 
Q 2450 2650 2425 2700 
Q 2400 2750 2275 2750 
Q 2075 2750 1787 2500 
Q 1500 2250 1275 1800 
L 1275 450 
Q 1275 350 1337 300 
Q 1400 250 1500 250 
L 2050 250 
L 2050 100 
L 200 100 
L 200 250 
L 700 250 
Q 825 250 875 300 
Q 925 350 925 450 
L 925 2525 
Q 925 2625 875 2687 
Q 825 2750 700 2750 
L 225 2750 
L 225 2900 
L 425 2900 
Q 600 2900 837 2937 
Q 1075 2975 1200 3025 
L 1275 3025 
L 1275 2125 
z
" transform="scale(0.015625)"/>
       <path id="Times New Roman-61" d="M 1225 75
Q 775 75 525 287 
Q 275 500 275 775 
Q 275 1225 662 1512 
Q 1050 1800 2200 1925 
L 2200 2225 
Q 2200 2475 2087 2637 
Q 1975 2800 1575 2800 
Q 1150 2800 975 2662 
Q 800 2525 850 2375 
Q 875 2325 875 2275 
Q 875 2225 837 2150 
Q 800 2075 650 2075 
Q 550 2075 487 2137 
Q 425 2200 425 2325 
Q 425 2550 750 2750 
Q 1075 2950 1550 2950 
Q 2050 2950 2300 2762 
Q 2550 2575 2550 2225 
L 2550 575 
Q 2550 375 2587 337 
Q 2625 300 2725 300 
Q 2850 300 2900 412 
Q 2950 525 2950 725 
L 3075 725 
Q 3075 375 2950 237 
Q 2825 100 2625 100 
Q 2450 100 2350 175 
Q 2250 250 2200 425 
Q 1950 250 1737 162 
Q 1525 75 1225 75 
z
M 700 850 
Q 700 625 837 437 
Q 975 250 1275 250 
Q 1500 250 1725 337 
Q 1950 425 2200 600 
L 2200 1775 
Q 1350 1675 1025 1437 
Q 700 1200 700 850 
z
" transform="scale(0.015625)"/>
       <path id="Times New Roman-65" d="M 2400 1650
Q 2425 2200 2212 2487 
Q 2000 2775 1650 2775 
Q 1275 2775 1037 2475 
Q 800 2175 800 1650 
L 2400 1650 
z
M 800 1500 
Q 800 825 1062 537 
Q 1325 250 1750 250 
Q 2075 250 2300 437 
Q 2525 625 2625 900 
L 2750 850 
Q 2675 575 2412 312 
Q 2150 50 1700 50 
Q 1125 50 762 425 
Q 400 800 400 1500 
Q 400 2125 762 2537 
Q 1125 2950 1650 2950 
Q 2125 2950 2475 2625 
Q 2825 2300 2825 1500 
L 800 1500 
z
" transform="scale(0.015625)"/>
       <path id="Times New Roman-20" d="M 0 0
Q 0 0 0 0 
z
" transform="scale(0.015625)"/>
       <path id="Times New Roman-28" d="M 2900 5025
Q 2325 4425 2037 3737 
Q 1750 3050 1750 2300 
Q 1750 1525 2037 850 
Q 2325 175 2900 -425 
L 2775 -550 
Q 2075 75 1725 787 
Q 1375 1500 1375 2300 
Q 1375 3075 1725 3787 
Q 2075 4500 2775 5150 
L 2900 5025 
z
" transform="scale(0.015625)"/>
       <path id="Times New Roman-6b" d="M 1675 1900
L 2625 425 
Q 2700 325 2762 287 
Q 2825 250 2900 250 
L 3000 250 
L 3000 100 
L 1975 100 
L 1975 250 
L 2050 250 
Q 2175 250 2225 287 
Q 2275 325 2200 425 
L 1425 1650 
L 925 1125 
L 925 450 
Q 925 350 987 300 
Q 1050 250 1150 250 
L 1275 250 
L 1275 100 
L 225 100 
L 225 250 
L 350 250 
Q 475 250 525 300 
Q 575 350 575 450 
L 575 4025 
Q 575 4125 525 4175 
Q 475 4225 350 4225 
L 200 4225 
L 200 4375 
L 425 4375 
Q 575 4375 687 4425 
Q 800 4475 875 4575 
L 925 4575 
L 925 1400 
L 1975 2525 
Q 2025 2625 2012 2687 
Q 2000 2750 1900 2750 
L 1750 2750 
L 1750 2900 
L 2800 2900 
L 2800 2750 
L 2675 2750 
Q 2600 2750 2487 2712 
Q 2375 2675 2275 2575 
L 1675 1900 
z
M 2450 2750 
L 2450 2750 
z
M 2175 2750 
L 2175 2750 
z
M 2300 250 
L 2300 250 
z
M 2750 250 
L 2750 250 
z
" transform="scale(0.015625)"/>
       <path id="Times New Roman-62" d="M 875 2325
Q 1000 2600 1275 2762 
Q 1550 2925 1800 2925 
Q 2325 2925 2587 2562 
Q 2850 2200 2850 1500 
Q 2850 800 2512 437 
Q 2175 75 1675 75 
Q 1425 75 1212 162 
Q 1000 250 850 400 
L 625 100 
L 525 100 
L 525 4025 
Q 525 4125 475 4175 
Q 425 4225 300 4225 
L 150 4225 
L 150 4375 
L 375 4375 
Q 500 4375 625 4425 
Q 750 4475 875 4575 
L 875 2325 
z
M 875 925 
Q 875 650 1062 450 
Q 1250 250 1625 250 
Q 2075 250 2262 562 
Q 2450 875 2450 1500 
Q 2450 2100 2287 2412 
Q 2125 2725 1775 2725 
Q 1475 2725 1250 2550 
Q 1025 2375 875 1925 
L 875 925 
z
" transform="scale(0.015625)"/>
       <path id="Times New Roman-70" d="M 1150 -675
L 1325 -675 
L 1325 -825 
L 175 -825 
L 175 -675 
L 325 -675 
Q 450 -675 500 -625 
Q 550 -575 550 -450 
L 550 2500 
Q 550 2600 500 2662 
Q 450 2725 325 2725 
L 175 2725 
L 175 2875 
L 400 2875 
Q 525 2875 637 2900 
Q 750 2925 850 3000 
L 900 3000 
L 900 2425 
Q 1075 2675 1287 2800 
Q 1500 2925 1750 2925 
Q 2250 2925 2575 2587 
Q 2900 2250 2900 1525 
Q 2900 825 2550 450 
Q 2200 75 1725 75 
Q 1450 75 1262 162 
Q 1075 250 900 425 
L 900 -450 
Q 900 -575 975 -625 
Q 1050 -675 1150 -675 
z
M 900 750 
Q 1025 500 1212 375 
Q 1400 250 1650 250 
Q 2000 250 2250 562 
Q 2500 875 2500 1525 
Q 2500 2125 2312 2425 
Q 2125 2725 1750 2725 
Q 1525 2725 1300 2587 
Q 1075 2450 900 2150 
L 900 750 
z
" transform="scale(0.015625)"/>
       <path id="Times New Roman-73" d="M 625 2175
Q 625 2550 912 2750 
Q 1200 2950 1600 2950 
Q 1825 2950 2025 2900 
Q 2225 2825 2300 2825 
Q 2375 2825 2425 2850 
Q 2475 2875 2550 2950 
L 2650 2125 
L 2500 2100 
Q 2400 2425 2162 2612 
Q 1925 2800 1625 2800 
Q 1300 2800 1112 2675 
Q 925 2550 925 2325 
Q 925 2125 1012 2012 
Q 1100 1900 1325 1850 
Q 1500 1775 1775 1700 
Q 2025 1600 2250 1500 
Q 2450 1400 2587 1237 
Q 2725 1075 2725 875 
Q 2725 500 2462 287 
Q 2200 75 1700 75 
Q 1375 75 1225 150 
Q 1050 200 950 200 
Q 875 200 787 162 
Q 700 125 600 75 
L 525 1000 
L 675 1025 
Q 750 625 1000 425 
Q 1250 225 1700 225 
Q 2050 225 2237 350 
Q 2425 475 2425 725 
Q 2425 900 2325 1012 
Q 2225 1125 2125 1175 
Q 1875 1275 1575 1400 
Q 1275 1500 1050 1600 
Q 825 1700 725 1850 
Q 625 2000 625 2175 
z
" transform="scale(0.015625)"/>
       <path id="Times New Roman-29" d="M 275 5025
L 400 5150 
Q 1100 4500 1450 3787 
Q 1800 3075 1800 2300 
Q 1800 1500 1450 787 
Q 1100 75 400 -550 
L 275 -425 
Q 850 175 1137 850 
Q 1425 1525 1425 2300 
Q 1425 3050 1137 3737 
Q 850 4425 275 5025 
z
" transform="scale(0.015625)"/>
      </defs>
      <use xlink:href="#Times New Roman-42"/>
      <use xlink:href="#Times New Roman-69" x="50"/>
      <use xlink:href="#Times New Roman-74" x="100"/>
      <use xlink:href="#Times New Roman-72" x="150"/>
      <use xlink:href="#Times New Roman-61" x="200"/>
      <use xlink:href="#Times New Roman-74" x="250"/>
      <use xlink:href="#Times New Roman-65" x="300"/>
      <use xlink:href="#Times New Roman-20" x="350"/>
      <use xlink:href="#Times New Roman-28" x="400"/>
      <use xlink:href="#Times New Roman-6b" x="450"/>
      <use xlink:href="#Times New Roman-62" x="500"/>
      <use xlink:href="#Times New Roman-70" x="550"/>
      <use xlink:href="#Times New Roman-73" x="600"/>
      <use xlink:href="#Times New Roman-29" x="650"/>
     </g>
    </g>
   </g>
   <g id="line2d_14">
    <path d="M 173.045455 353.517595 
L 174.313636 353.517595 
L 175.581818 369.36 
L 184.459091 369.36 
L 185.727273 337.675189 
L 197.140909 337.675189 
L 198.409091 309.747471 
L 202.213636 309.747471 
L 203.481818 258.964108 
L 206.018182 258.964108 
L 207.286364 134.85483 
L 254.209091 134.85483 
L 254.209091 134.85483 
L 255.477273 337.675189 
L 256.745455 337.675189 
L 256.745455 337.675189 
L 258.013636 134.85483 
L 258.013636 134.85483 
L 261.818182 134.85483 
L 261.818182 134.85483 
L 263.086364 309.747471 
L 264.354545 309.747471 
L 264.354545 309.747471 
L 265.622727 134.85483 
L 265.622727 134.85483 
L 266.890909 258.964108 
L 266.890909 258.964108 
L 268.159091 258.964108 
L 268.159091 134.85483 
L 269.427273 134.85483 
L 269.427273 134.85483 
L 270.695455 258.964108 
L 270.695455 258.964108 
L 271.963636 258.964108 
L 271.963636 134.85483 
L 278.304545 134.85483 
L 278.304545 134.85483 
L 279.572727 258.964108 
L 279.572727 258.964108 
L 280.840909 258.964108 
L 280.840909 134.85483 
L 331.568182 134.85483 
L 331.568182 258.964108 
L 334.104545 258.964108 
L 334.104545 258.964108 
L 334.104545 134.85483 
L 335.372727 258.964108 
L 335.372727 258.964108 
L 340.445455 258.964108 
L 340.445455 309.747471 
L 344.25 309.747471 
L 345.518182 337.675189 
L 363.272727 337.675189 
L 364.540909 134.85483 
L 396.245455 134.85483 
L 396.245455 134.85483 
L 397.513636 309.747471 
L 397.513636 309.747471 
L 398.781818 309.747471 
L 398.781818 134.85483 
L 403.854545 134.85483 
L 403.854545 134.85483 
L 405.122727 258.964108 
L 405.122727 258.964108 
L 406.390909 134.85483 
L 406.390909 134.85483 
L 411.463636 134.85483 
L 411.463636 134.85483 
L 412.731818 258.964108 
L 412.731818 258.964108 
L 414 258.964108 
L 414 134.85483 
L 416.536364 134.85483 
L 416.536364 134.85483 
L 417.804545 258.964108 
L 424.145455 258.964108 
L 425.413636 134.85483 
L 472.336364 134.85483 
L 473.604545 258.964108 
L 474.872727 258.964108 
L 474.872727 258.964108 
L 476.140909 134.85483 
L 478.677273 337.675189 
L 483.75 337.675189 
L 483.75 258.964108 
L 488.822727 258.964108 
L 488.822727 309.747471 
L 504.040909 309.747471 
L 504.040909 134.85483 
L 752.604545 134.85483 
L 753.872727 258.964108 
L 761.481818 258.964108 
L 762.75 252.138724 
L 764.018182 134.85483 
L 777.968182 134.85483 
L 779.236364 258.964108 
L 784.309091 258.964108 
L 785.577273 252.138724 
L 786.845455 134.85483 
L 786.845455 134.85483 
L 933.954545 134.85483 
L 933.954545 134.85483 
" clip-path="url(#p4870159082)" style="fill: none; stroke: #ff0000; stroke-width: 1.5; stroke-linecap: square"/>
   </g>
   <g id="line2d_15">
    <path d="M 173.045455 354.957813 
L 174.313636 352.12434 
L 175.581818 350.647594 
L 176.85 347.563647 
L 178.118182 345.549428 
L 179.386364 342.147173 
L 180.654545 338.12604 
L 185.727273 318.664303 
L 188.263636 311.459035 
L 190.8 306.111441 
L 190.8 300.070871 
L 192.068182 293.153647 
L 193.336364 287.271711 
L 194.604545 283.322589 
L 195.872727 286.891827 
L 197.140909 296.226114 
L 198.409091 308.052605 
L 199.677273 315.692026 
L 200.945455 320.759925 
L 202.213636 318.488972 
L 203.481818 315.959197 
L 204.75 306.098917 
L 204.75 296.818899 
L 207.286364 259.485927 
L 209.822727 232.480783 
L 211.090909 210.656252 
L 211.090909 190.885598 
L 212.359091 181.60558 
L 214.895455 172.438276 
L 216.163636 165.95103 
L 219.968182 140.937145 
L 222.504545 128.54709 
L 223.772727 124.389241 
L 226.309091 119.446578 
L 227.577273 116.699726 
L 228.845455 112.224612 
L 230.113636 109.231462 
L 230.113636 106.142297 
L 231.381818 103.015561 
L 233.918182 98.987124 
L 233.918182 96.02737 
L 235.186364 92.908983 
L 237.722727 85.611875 
L 238.990909 82.326507 
L 240.259091 80.86959 
L 242.795455 80.68591 
L 242.795455 83.194813 
L 244.063636 84.338639 
L 245.331818 85.140152 
L 246.6 84.346988 
L 247.868182 83.286653 
L 247.868182 79.800906 
L 249.136364 79.404324 
L 249.136364 81.278696 
L 250.404545 83.729155 
L 250.404545 84.37621 
L 251.672727 85.578479 
L 251.672727 87.310916 
L 252.940909 87.78264 
L 254.209091 89.039178 
L 254.209091 92.800445 
L 255.477273 97.258861 
L 256.745455 99.463022 
L 256.745455 100.185218 
L 258.013636 100.435691 
L 258.013636 99.888826 
L 259.281818 99.513116 
L 259.281818 100.552579 
L 260.55 103.337001 
L 260.55 105.808333 
L 261.818182 108.634501 
L 261.818182 111.093309 
L 264.354545 120.886796 
L 264.354545 126.338755 
L 265.622727 129.97061 
L 265.622727 133.715179 
L 266.890909 135.593725 
L 266.890909 137.096562 
L 268.159091 139.384213 
L 268.159091 143.98039 
L 269.427273 150.158719 
L 269.427273 156.303652 
L 270.695455 162.239858 
L 270.695455 165.930157 
L 271.963636 168.267903 
L 271.963636 169.006798 
L 273.231818 170.87282 
L 273.231818 174.058 
L 274.5 178.867078 
L 274.5 186.715226 
L 275.768182 188.635517 
L 275.768182 189.867009 
L 277.036364 191.336449 
L 277.036364 196.492015 
L 278.304545 200.224059 
L 278.304545 211.098754 
L 279.572727 215.92453 
L 279.572727 219.577259 
L 280.840909 221.426583 
L 280.840909 222.119558 
L 282.109091 222.165478 
L 282.109091 223.367747 
L 283.377273 226.970381 
L 283.377273 231.971488 
L 284.645455 237.448494 
L 289.718182 256.317446 
L 290.986364 261.376996 
L 293.522727 274.409932 
L 325.227273 283.973819 
L 326.495455 295.579059 
L 327.763636 308.766452 
L 329.031818 319.89162 
L 330.3 329.00883 
L 331.568182 333.337835 
L 332.836364 330.035769 
L 332.836364 327.067666 
L 334.104545 324.646429 
L 334.104545 322.396348 
L 335.372727 321.870355 
L 335.372727 321.344362 
L 336.640909 320.004332 
L 336.640909 317.850266 
L 337.909091 314.301901 
L 337.909091 310.519762 
L 339.177273 306.090568 
L 339.177273 302.237461 
L 340.445455 298.593082 
L 340.445455 296.150972 
L 341.713636 293.433342 
L 342.981818 290.419319 
L 344.25 286.102837 
L 345.518182 280.980668 
L 362.004545 268.66993 
L 363.272727 249.909516 
L 365.809091 200.470358 
L 367.077273 178.257594 
L 367.077273 164.823902 
L 368.345455 159.434562 
L 369.613636 158.123754 
L 370.881818 154.516946 
L 372.15 146.977714 
L 373.418182 136.741725 
L 374.686364 124.635539 
L 375.954545 117.72249 
L 375.954545 116.753995 
L 377.222727 118.027232 
L 378.490909 116.870882 
L 379.759091 113.059521 
L 381.027273 106.534704 
L 381.027273 97.308956 
L 382.295455 88.204269 
L 382.295455 82.460092 
L 383.563636 82.935991 
L 383.563636 86.876763 
L 384.831818 90.942772 
L 386.1 92.320372 
L 387.368182 90.583761 
L 388.636364 86.054377 
L 391.172727 71.347449 
L 392.440909 71.24726 
L 394.977273 74.453312 
L 394.977273 78.118564 
L 396.245455 77.993327 
L 396.245455 78.114389 
L 397.513636 74.307202 
L 397.513636 70.570983 
L 398.781818 66.96 
L 398.781818 67.569484 
L 400.05 68.425266 
L 400.05 70.245368 
L 401.318182 71.088627 
L 401.318182 72.541369 
L 402.586364 73.301137 
L 402.586364 75.179683 
L 403.854545 76.248367 
L 403.854545 78.460877 
L 405.122727 85.044137 
L 405.122727 114.787783 
L 406.390909 126.97746 
L 406.390909 133.702655 
L 407.659091 129.682567 
L 407.659091 120.189647 
L 408.927273 105.549511 
L 408.927273 96.507443 
L 410.195455 93.430802 
L 410.195455 95.710104 
L 411.463636 98.365116 
L 411.463636 100.702862 
L 412.731818 103.374572 
L 412.731818 105.720668 
L 414 108.467519 
L 414 110.955549 
L 415.268182 113.944525 
L 415.268182 116.666329 
L 416.536364 122.756993 
L 416.536364 131.423353 
L 417.804545 140.540563 
L 419.072727 146.806558 
L 420.340909 151.060421 
L 421.609091 152.968189 
L 422.877273 152.888873 
L 424.145455 153.435738 
L 425.413636 157.472525 
L 430.486364 186.573291 
L 433.022727 201.568264 
L 434.290909 211.41602 
L 472.336364 228.73204 
L 473.604545 252.919364 
L 474.872727 281.318807 
L 474.872727 308.315601 
L 476.140909 331.492685 
L 478.677273 344.926377 
L 479.945455 348.933942 
L 481.213636 346.199614 
L 481.213636 342.985213 
L 482.481818 339.269866 
L 482.481818 335.963625 
L 483.75 333.008046 
L 483.75 330.745442 
L 485.018182 329.952278 
L 485.018182 331.054358 
L 486.286364 331.91014 
L 487.554545 331.087754 
L 487.554545 328.219841 
L 488.822727 323.978501 
L 488.822727 318.426354 
L 490.090909 312.782366 
L 491.359091 308.69966 
L 502.772727 302.717534 
L 504.040909 293.270534 
L 504.040909 280.016348 
L 507.845455 236.108464 
L 510.381818 225.292213 
L 510.381818 217.17272 
L 511.65 209.132542 
L 514.186364 201.564089 
L 514.186364 194.884814 
L 515.454545 188.865117 
L 517.990909 183.141814 
L 520.527273 169.837533 
L 521.795455 162.006083 
L 521.795455 154.241426 
L 523.063636 145.992521 
L 523.063636 140.540563 
L 524.331818 135.184619 
L 524.331818 130.847265 
L 525.6 126.451467 
L 526.868182 122.544091 
L 528.136364 119.768018 
L 533.209091 116.97942 
L 534.477273 116.123638 
L 534.477273 114.353631 
L 535.745455 111.155928 
L 538.281818 105.344958 
L 540.818182 96.273668 
L 543.354545 112.395768 
L 544.622727 122.143335 
L 545.890909 120.21052 
L 545.890909 117.81433 
L 547.159091 105.382529 
L 549.695455 98.669858 
L 550.963636 92.967427 
L 552.231818 98.264927 
L 553.5 101.391663 
L 554.768182 103.825423 
L 556.036364 102.852754 
L 557.304545 101.333219 
L 558.572727 106.968857 
L 559.840909 119.922476 
L 559.840909 136.270002 
L 561.109091 145.967474 
L 563.645455 152.771985 
L 564.913636 151.532145 
L 566.181818 147.779227 
L 567.45 140.995589 
L 568.718182 139.722352 
L 569.986364 142.206207 
L 569.986364 147.466136 
L 571.254545 152.095709 
L 573.790909 156.604219 
L 573.790909 162.623916 
L 575.059091 168.188587 
L 577.595455 173.40677 
L 577.595455 177.468604 
L 578.863636 182.390395 
L 580.131818 186.802891 
L 581.4 191.799824 
L 583.936364 198.257848 
L 583.936364 206.790622 
L 585.204545 214.847497 
L 587.740909 223.89374 
L 587.740909 232.777176 
L 589.009091 240.579404 
L 591.545455 251.616906 
L 591.545455 256.914406 
L 594.081818 264.47451 
L 595.35 268.252475 
L 595.35 272.26004 
L 596.618182 275.591328 
L 596.618182 279.406864 
L 597.886364 283.535491 
L 597.886364 287.334329 
L 599.154545 291.037152 
L 599.154545 294.222331 
L 600.422727 297.440907 
L 600.422727 299.878842 
L 601.690909 302.354348 
L 601.690909 304.399876 
L 604.227273 310.507238 
L 609.3 326.053251 
L 611.836364 333.951494 
L 613.104545 337.658491 
L 614.372727 340.927161 
L 615.640909 343.770028 
L 616.909091 346.057679 
L 618.177273 347.965447 
L 620.713636 351.008692 
L 627.054545 351.764285 
L 628.322727 351.718365 
L 629.590909 350.637157 
L 630.859091 348.829579 
L 632.127273 346.41669 
L 635.931818 343.106275 
L 637.2 338.952601 
L 637.2 334.235363 
L 638.468182 329.676758 
L 638.468182 325.41872 
L 641.004545 318.23015 
L 642.272727 315.170207 
L 646.077273 310.486366 
L 647.345455 303.744472 
L 649.881818 287.543056 
L 652.418182 270.778076 
L 654.954545 262.879833 
L 656.222727 255.733009 
L 658.759091 250.669284 
L 660.027273 245.580511 
L 661.295455 239.585862 
L 661.295455 231.157452 
L 662.563636 222.294889 
L 665.1 202.436569 
L 666.368182 193.340232 
L 667.636364 186.777844 
L 670.172727 180.653784 
L 670.172727 174.993098 
L 671.440909 170.192369 
L 673.977273 164.919917 
L 673.977273 159.476308 
L 675.245455 154.233077 
L 676.513636 147.357598 
L 676.513636 139.384213 
L 677.781818 132.162247 
L 677.781818 128.092064 
L 679.05 124.238957 
L 680.318182 121.972179 
L 681.586364 121.734229 
L 682.854545 121.788498 
L 684.122727 117.534635 
L 685.390909 111.898997 
L 687.927273 105.265642 
L 689.195455 97.384098 
L 689.195455 88.137476 
L 690.463636 83.708282 
L 690.463636 83.161416 
L 691.731818 83.35762 
L 693 82.167874 
L 694.268182 81.737896 
L 699.340909 79.404324 
L 700.609091 78.373211 
L 703.145455 79.279088 
L 705.681818 88.137476 
L 705.681818 91.69419 
L 706.95 92.66686 
L 708.218182 91.443717 
L 709.486364 93.259645 
L 709.486364 100.786353 
L 710.754545 110.67168 
L 712.022727 117.755886 
L 715.827273 123.66287 
L 717.095455 121.016207 
L 718.363636 118.106548 
L 719.631818 118.494781 
L 722.168182 129.515585 
L 723.436364 136.432809 
L 723.436364 144.063881 
L 725.972727 156.178415 
L 727.240909 159.689209 
L 728.509091 163.867931 
L 729.777273 167.583278 
L 732.313636 178.98814 
L 736.118182 208.376949 
L 736.118182 218.725651 
L 737.386364 220.950685 
L 737.386364 225.300562 
L 738.654545 229.717233 
L 738.654545 233.090267 
L 739.922727 234.99386 
L 739.922727 235.970704 
L 741.190909 237.339956 
L 741.190909 240.571055 
L 747.531818 264.391019 
L 752.604545 271.124563 
L 753.872727 280.141585 
L 756.409091 299.891366 
L 757.677273 308.478409 
L 758.945455 315.474949 
L 760.213636 321.415329 
L 762.75 331.338227 
L 765.286364 338.802317 
L 766.554545 341.457329 
L 767.822727 343.770028 
L 769.090909 345.740414 
L 769.090909 347.898655 
L 770.359091 349.78555 
L 775.431818 351.238292 
L 776.7 352.169216 
L 777.968182 352.352896 
L 779.236364 352.006409 
L 780.504545 351.259165 
L 784.309091 349.664488 
L 785.577273 347.155585 
L 786.845455 343.895264 
L 786.845455 340.61407 
L 788.113636 338.151088 
L 790.65 335.358316 
L 791.918182 332.006155 
L 793.186364 327.547739 
L 793.186364 323.085148 
L 794.454545 317.190688 
L 796.990909 310.799457 
L 799.527273 297.40751 
L 803.331818 289.688773 
L 803.331818 274.409932 
L 804.6 271.304069 
L 804.6 271.863458 
L 805.868182 272.255865 
L 807.136364 270.556825 
L 809.672727 264.391019 
L 810.940909 254.322012 
L 812.209091 240.491738 
L 812.209091 228.510789 
L 813.477273 218.754873 
L 814.745455 212.117343 
L 816.013636 206.419087 
L 819.818182 200.111347 
L 821.086364 191.248784 
L 821.086364 179.927413 
L 822.354545 171.720253 
L 823.622727 165.20796 
L 824.890909 159.785224 
L 826.159091 153.502531 
L 827.427273 149.50749 
L 828.695455 143.228971 
L 831.231818 127.20706 
L 833.768182 116.111115 
L 835.036364 111.076611 
L 837.572727 102.660725 
L 838.840909 99.070614 
L 841.377273 95.300999 
L 842.645455 93.877478 
L 845.181818 91.46459 
L 845.181818 90.608808 
L 847.718182 88.400473 
L 848.986364 84.530668 
L 848.986364 80.45631 
L 850.254545 77.404716 
L 851.522727 75.012701 
L 854.059091 73.889748 
L 855.327273 74.319726 
L 857.863636 79.341706 
L 859.131818 80.368645 
L 860.4 84.18418 
L 861.668182 86.964429 
L 862.936364 95.230031 
L 864.204545 100.373073 
L 865.472727 109.849294 
L 865.472727 113.89443 
L 866.740909 119.137661 
L 868.009091 119.584338 
L 869.277273 120.548658 
L 870.545455 119.826461 
L 871.813636 122.598361 
L 874.35 129.540632 
L 875.618182 135.243063 
L 878.154545 141.621771 
L 879.422727 150.684712 
L 880.690909 158.315783 
L 881.959091 167.629198 
L 884.495455 183.517523 
L 884.495455 194.22941 
L 885.763636 198.05747 
L 885.763636 202.8415 
L 887.031818 205.922316 
L 888.3 210.117735 
L 888.3 214.417519 
L 889.568182 219.005346 
L 890.836364 222.841754 
L 890.836364 228.899022 
L 892.104545 230.819313 
L 892.104545 234.196522 
L 893.372727 236.680377 
L 893.372727 241.58547 
L 894.640909 244.820744 
L 894.640909 253.670783 
L 895.909091 257.686697 
L 895.909091 260.892749 
L 897.177273 262.95915 
L 897.177273 264.211514 
L 898.445455 265.113216 
L 898.445455 266.803907 
L 899.713636 269.709392 
L 899.713636 272.894571 
L 902.25 281.226967 
L 909.859091 310.791108 
L 922.540909 317.516303 
L 923.809091 325.134851 
L 925.077273 333.508992 
L 926.345455 340.835321 
L 927.613636 347.15976 
L 928.881818 350.937725 
L 930.15 352.423863 
L 931.418182 351.76011 
L 932.686364 350.858408 
L 932.686364 349.856517 
L 933.954545 348.95064 
L 933.954545 348.95064 
" clip-path="url(#p4870159082)" style="fill: none; stroke: #008000; stroke-width: 1.5; stroke-linecap: square"/>
   </g>
   <g id="patch_3">
    <path d="M 135 384.48 
L 135 51.84 
" style="fill: none; stroke: #000000; stroke-width: 0.8; stroke-linejoin: miter; stroke-linecap: square"/>
   </g>
   <g id="patch_4">
    <path d="M 972 384.48 
L 972 51.84 
" style="fill: none; stroke: #000000; stroke-width: 0.8; stroke-linejoin: miter; stroke-linecap: square"/>
   </g>
   <g id="patch_5">
    <path d="M 135 384.48 
L 972 384.48 
" style="fill: none; stroke: #000000; stroke-width: 0.8; stroke-linejoin: miter; stroke-linecap: square"/>
   </g>
   <g id="patch_6">
    <path d="M 135 51.84 
L 972 51.84 
" style="fill: none; stroke: #000000; stroke-width: 0.8; stroke-linejoin: miter; stroke-linecap: square"/>
   </g>
  </g>
  <g id="axes_2">
   <g id="matplotlib.axis_3">
    <g id="ytick_7">
     <g id="line2d_16">
      <path d="M 135 369.36 
L 972 369.36 
" clip-path="url(#p4870159082)" style="fill: none; stroke: #b0b0b0; stroke-width: 0.8; stroke-linecap: square"/>
     </g>
     <g id="line2d_17">
      <defs>
       <path id="m0870cc18e1" d="M 0 0 
L 3.5 0 
" style="stroke: #000000; stroke-width: 0.8"/>
      </defs>
      <g>
       <use xlink:href="#m0870cc18e1" x="972" y="369.36" style="stroke: #000000; stroke-width: 0.8"/>
      </g>
     </g>
     <g id="text_15">
      <!-- 0 -->
      <g transform="translate(979 372.934219) scale(0.1 -0.1)">
       <use xlink:href="#Times New Roman-30"/>
      </g>
     </g>
    </g>
    <g id="ytick_8">
     <g id="line2d_18">
      <path d="M 135 319.468158 
L 972 319.468158 
" clip-path="url(#p4870159082)" style="fill: none; stroke: #b0b0b0; stroke-width: 0.8; stroke-linecap: square"/>
     </g>
     <g id="line2d_19">
      <g>
       <use xlink:href="#m0870cc18e1" x="972" y="319.468158" style="stroke: #000000; stroke-width: 0.8"/>
      </g>
     </g>
     <g id="text_16">
      <!-- 5 -->
      <g transform="translate(979 323.042377) scale(0.1 -0.1)">
       <use xlink:href="#Times New Roman-35"/>
      </g>
     </g>
    </g>
    <g id="ytick_9">
     <g id="line2d_20">
      <path d="M 135 269.576317 
L 972 269.576317 
" clip-path="url(#p4870159082)" style="fill: none; stroke: #b0b0b0; stroke-width: 0.8; stroke-linecap: square"/>
     </g>
     <g id="line2d_21">
      <g>
       <use xlink:href="#m0870cc18e1" x="972" y="269.576317" style="stroke: #000000; stroke-width: 0.8"/>
      </g>
     </g>
     <g id="text_17">
      <!-- 10 -->
      <g transform="translate(979 273.150536) scale(0.1 -0.1)">
       <use xlink:href="#Times New Roman-31"/>
       <use xlink:href="#Times New Roman-30" x="50"/>
      </g>
     </g>
    </g>
    <g id="ytick_10">
     <g id="line2d_22">
      <path d="M 135 219.684475 
L 972 219.684475 
" clip-path="url(#p4870159082)" style="fill: none; stroke: #b0b0b0; stroke-width: 0.8; stroke-linecap: square"/>
     </g>
     <g id="line2d_23">
      <g>
       <use xlink:href="#m0870cc18e1" x="972" y="219.684475" style="stroke: #000000; stroke-width: 0.8"/>
      </g>
     </g>
     <g id="text_18">
      <!-- 15 -->
      <g transform="translate(979 223.258694) scale(0.1 -0.1)">
       <use xlink:href="#Times New Roman-31"/>
       <use xlink:href="#Times New Roman-35" x="50"/>
      </g>
     </g>
    </g>
    <g id="ytick_11">
     <g id="line2d_24">
      <path d="M 135 169.792634 
L 972 169.792634 
" clip-path="url(#p4870159082)" style="fill: none; stroke: #b0b0b0; stroke-width: 0.8; stroke-linecap: square"/>
     </g>
     <g id="line2d_25">
      <g>
       <use xlink:href="#m0870cc18e1" x="972" y="169.792634" style="stroke: #000000; stroke-width: 0.8"/>
      </g>
     </g>
     <g id="text_19">
      <!-- 20 -->
      <g transform="translate(979 173.366852) scale(0.1 -0.1)">
       <use xlink:href="#Times New Roman-32"/>
       <use xlink:href="#Times New Roman-30" x="50"/>
      </g>
     </g>
    </g>
    <g id="ytick_12">
     <g id="line2d_26">
      <path d="M 135 119.900792 
L 972 119.900792 
" clip-path="url(#p4870159082)" style="fill: none; stroke: #b0b0b0; stroke-width: 0.8; stroke-linecap: square"/>
     </g>
     <g id="line2d_27">
      <g>
       <use xlink:href="#m0870cc18e1" x="972" y="119.900792" style="stroke: #000000; stroke-width: 0.8"/>
      </g>
     </g>
     <g id="text_20">
      <!-- 25 -->
      <g transform="translate(979 123.475011) scale(0.1 -0.1)">
       <use xlink:href="#Times New Roman-32"/>
       <use xlink:href="#Times New Roman-35" x="50"/>
      </g>
     </g>
    </g>
    <g id="ytick_13">
     <g id="line2d_28">
      <path d="M 135 70.00895 
L 972 70.00895 
" clip-path="url(#p4870159082)" style="fill: none; stroke: #b0b0b0; stroke-width: 0.8; stroke-linecap: square"/>
     </g>
     <g id="line2d_29">
      <g>
       <use xlink:href="#m0870cc18e1" x="972" y="70.00895" style="stroke: #000000; stroke-width: 0.8"/>
      </g>
     </g>
     <g id="text_21">
      <!-- 30 -->
      <g transform="translate(979 73.583169) scale(0.1 -0.1)">
       <use xlink:href="#Times New Roman-33"/>
       <use xlink:href="#Times New Roman-30" x="50"/>
      </g>
     </g>
    </g>
    <g id="text_22">
     <!-- buffer (s) -->
     <g transform="translate(1000.617188 243.16) rotate(-90) scale(0.1 -0.1)">
      <defs>
       <path id="Times New Roman-75" d="M 1450 325
Q 1750 325 1962 475 
Q 2175 625 2275 950 
L 2275 2525 
Q 2275 2625 2225 2687 
Q 2175 2750 2050 2750 
L 1900 2750 
L 1900 2900 
L 2050 2900 
Q 2200 2900 2325 2925 
Q 2450 2950 2575 3050 
L 2625 3050 
L 2625 600 
Q 2625 500 2687 450 
Q 2750 400 2850 400 
L 3000 400 
L 3000 250 
L 2850 250 
Q 2725 250 2600 212 
Q 2475 175 2325 100 
L 2275 100 
L 2275 625 
Q 2150 350 1900 212 
Q 1650 75 1325 75 
Q 925 75 725 300 
Q 525 525 525 1025 
L 525 2525 
Q 525 2625 475 2687 
Q 425 2750 300 2750 
L 150 2750 
L 150 2900 
L 300 2900 
Q 450 2900 575 2925 
Q 700 2950 825 3050 
L 875 3050 
L 875 975 
Q 875 625 1025 475 
Q 1175 325 1450 325 
z
" transform="scale(0.015625)"/>
       <path id="Times New Roman-66" d="M 1125 3325
Q 1125 3850 1450 4112 
Q 1775 4375 2175 4375 
Q 2600 4375 2812 4225 
Q 3025 4075 3025 3875 
Q 3025 3775 2975 3700 
Q 2925 3625 2775 3625 
Q 2675 3625 2612 3675 
Q 2550 3725 2550 3850 
Q 2550 3875 2575 3925 
Q 2575 3975 2575 4000 
Q 2575 4100 2500 4162 
Q 2425 4225 2150 4225 
Q 1850 4225 1662 4037 
Q 1475 3850 1475 3400 
L 1475 2900 
L 2525 2900 
L 2525 2750 
L 1475 2750 
L 1475 450 
Q 1475 350 1537 300 
Q 1600 250 1700 250 
L 2300 250 
L 2300 100 
L 475 100 
L 475 250 
L 900 250 
Q 1025 250 1075 300 
Q 1125 350 1125 450 
L 1125 2750 
L 350 2750 
L 350 2900 
L 1125 2900 
L 1125 3325 
z
" transform="scale(0.015625)"/>
      </defs>
      <use xlink:href="#Times New Roman-62"/>
      <use xlink:href="#Times New Roman-75" x="50"/>
      <use xlink:href="#Times New Roman-66" x="100"/>
      <use xlink:href="#Times New Roman-66" x="150"/>
      <use xlink:href="#Times New Roman-65" x="200"/>
      <use xlink:href="#Times New Roman-72" x="250"/>
      <use xlink:href="#Times New Roman-20" x="300"/>
      <use xlink:href="#Times New Roman-28" x="350"/>
      <use xlink:href="#Times New Roman-73" x="400"/>
      <use xlink:href="#Times New Roman-29" x="450"/>
     </g>
    </g>
   </g>
   <g id="line2d_30">
    <path d="M 173.045455 369.36 
L 174.313636 332.90915 
L 175.581818 303.944856 
L 176.85 242.725211 
L 178.118182 188.446123 
L 179.386364 145.160332 
L 180.654545 118.37631 
L 181.922727 104.517464 
L 183.190909 94.954861 
L 184.459091 88.371909 
L 185.727273 86.847437 
L 186.995455 84.28355 
L 188.263636 85.184374 
L 190.8 83.937078 
L 190.8 83.937078 
L 193.336364 76.037538 
L 194.604545 73.196475 
L 195.872727 72.503531 
L 197.140909 73.889415 
L 198.409091 73.821198 
L 199.677273 72.989667 
L 200.945455 72.366019 
L 202.213636 73.127177 
L 203.481818 74.860611 
L 204.75 73.546177 
L 204.75 76.826104 
L 206.018182 77.356282 
L 207.286364 78.878599 
L 209.822727 80.449267 
L 211.090909 82.343309 
L 211.090909 86.223786 
L 212.359091 83.452017 
L 216.163636 84.770175 
L 217.431818 87.193645 
L 218.7 87.954314 
L 219.968182 86.918997 
L 221.236364 86.993252 
L 222.504545 78.191058 
L 223.772727 78.11401 
L 226.309091 76.314288 
L 227.577273 80.127299 
L 228.845455 74.033063 
L 230.113636 70.14753 
L 230.113636 68.623061 
L 231.381818 70.00895 
L 247.868182 70.00895 
L 247.868182 76.037868 
L 249.136364 76.037868 
L 249.136364 78.115265 
L 250.404545 72.086348 
L 250.404545 70.212226 
L 251.672727 68.134828 
L 251.672727 68.134828 
L 252.940909 70.00895 
L 254.209091 70.00895 
L 254.209091 169.792634 
L 255.477273 269.576317 
L 256.745455 281.688945 
L 256.745455 281.688945 
L 258.013636 191.024379 
L 258.013636 278.695434 
L 259.281818 185.037358 
L 259.281818 261.635193 
L 260.55 164.983606 
L 260.55 243.258361 
L 261.818182 157.679995 
L 261.818182 237.63167 
L 263.086364 234.998489 
L 264.354545 253.881682 
L 264.354545 251.248502 
L 265.622727 185.489319 
L 265.622727 245.601541 
L 266.890909 242.96836 
L 266.890909 239.954579 
L 268.159091 169.484425 
L 269.427273 181.782596 
L 269.427273 246.986389 
L 270.695455 244.353208 
L 270.695455 240.957792 
L 271.963636 182.958527 
L 273.231818 176.167694 
L 273.231818 228.900597 
L 274.5 240.45541 
L 274.5 295.26714 
L 274.5 267.168332 
L 275.768182 219.164757 
L 275.768182 250.901513 
L 277.036364 283.071358 
L 277.036364 234.634694 
L 278.304545 188.398122 
L 278.304545 219.684465 
L 278.304545 218.367875 
L 279.572727 260.983822 
L 279.572727 253.066957 
L 280.840909 230.303805 
L 282.109091 239.88373 
L 282.109091 231.966865 
L 283.377273 229.333684 
L 283.377273 196.003163 
L 284.645455 218.783639 
L 285.913636 216.150458 
L 287.181818 244.214618 
L 293.522727 224.465763 
L 325.227273 271.447252 
L 327.763636 369.36 
L 474.872727 369.36 
L 474.872727 369.36 
L 476.140909 356.055506 
L 479.945455 356.055506 
L 481.213636 351.466688 
L 481.213636 351.466688 
L 482.481818 351.466688 
L 482.481818 352.698585 
L 483.75 352.698585 
L 483.75 337.269067 
L 485.018182 353.930482 
L 485.018182 339.732862 
L 486.286364 355.16238 
L 487.554545 355.16238 
L 487.554545 369.36 
L 504.040909 369.36 
L 504.040909 355.427597 
L 505.309091 337.411094 
L 506.577273 315.652705 
L 507.845455 310.459899 
L 510.381818 307.965307 
L 510.381818 302.352473 
L 511.65 299.857881 
L 514.186364 295.977406 
L 514.186364 288.283514 
L 515.454545 280.174247 
L 517.990909 270.334465 
L 519.259091 270.333259 
L 521.795455 251.839039 
L 521.795455 248.146787 
L 523.063636 240.653708 
L 523.063636 247.67003 
L 524.331818 238.199819 
L 524.331818 237.341825 
L 525.6 227.060947 
L 526.868182 229.03248 
L 528.136364 230.588247 
L 533.209091 236.341904 
L 534.477273 219.610702 
L 534.477273 223.079884 
L 535.745455 219.334534 
L 538.281818 234.509969 
L 539.55 223.45868 
L 543.354545 177.590921 
L 545.890909 157.472432 
L 545.890909 136.596011 
L 547.159091 127.598534 
L 549.695455 117.070491 
L 550.963636 117.172428 
L 553.5 94.74077 
L 554.768182 79.463396 
L 556.036364 70.177972 
L 557.304545 66.96 
L 558.572727 70.00895 
L 599.154545 70.00895 
L 599.154545 72.518939 
L 600.422727 72.518939 
L 600.422727 69.916553 
L 601.690909 67.406565 
L 601.690909 67.406565 
L 602.959091 70.00895 
L 609.3 70.00895 
L 610.568182 82.535597 
L 611.836364 91.53885 
L 613.104545 97.01871 
L 615.640909 75.878353 
L 616.909091 70.398493 
L 618.177273 68.442025 
L 619.445455 70.00895 
L 620.713636 70.00895 
L 627.054545 88.053162 
L 628.322727 103.491912 
L 629.590909 116.325199 
L 632.127273 100.692425 
L 635.931818 112.703924 
L 637.2 122.923512 
L 637.2 145.738292 
L 638.468182 136.943544 
L 638.468182 144.486406 
L 639.736364 139.592673 
L 641.004545 146.639175 
L 642.272727 139.298574 
L 646.077273 147.432157 
L 648.613636 164.387677 
L 649.881818 165.416841 
L 651.15 167.752347 
L 652.418182 171.394195 
L 654.954545 168.201762 
L 656.222727 170.301086 
L 658.759091 173.034304 
L 660.027273 175.336163 
L 661.295455 170.147069 
L 661.295455 165.504357 
L 662.563636 159.960818 
L 665.1 151.93655 
L 666.368182 147.845874 
L 667.636364 147.655154 
L 670.172727 146.434128 
L 670.172727 144.494192 
L 671.440909 142.142018 
L 673.977273 138.260935 
L 673.977273 137.983455 
L 675.245455 133.408313 
L 676.513636 134.31377 
L 676.513636 142.873924 
L 677.781818 142.040285 
L 677.781818 146.752293 
L 679.05 141.000872 
L 680.318182 144.326994 
L 684.122727 168.337443 
L 685.390909 160.126077 
L 687.927273 169.896564 
L 689.195455 177.830755 
L 689.195455 196.429326 
L 690.463636 187.282488 
L 690.463636 193.297226 
L 691.731818 189.472184 
L 693 196.2353 
L 694.268182 190.497738 
L 699.340909 190.689658 
L 700.609091 197.6468 
L 703.145455 207.209403 
L 704.413636 208.320215 
L 705.681818 200.287515 
L 705.681818 195.298331 
L 706.95 187.538606 
L 708.218182 187.046011 
L 709.486364 181.636854 
L 709.486364 186.440024 
L 712.022727 187.393358 
L 714.559091 187.57814 
L 715.827273 188.224885 
L 717.095455 190.996655 
L 718.363636 192.105364 
L 719.631818 192.52113 
L 720.9 193.352659 
L 722.168182 192.521126 
L 723.436364 191.828185 
L 723.436364 194.230387 
L 724.704545 194.738544 
L 725.972727 194.184189 
L 728.509091 201.2522 
L 729.777273 204.578323 
L 733.581818 216.636918 
L 734.85 224.443136 
L 736.118182 230.217188 
L 736.118182 304.750696 
L 737.386364 300.131082 
L 737.386364 293.566799 
L 737.386364 293.566799 
L 738.654545 310.715826 
L 738.654545 320.651789 
L 739.922727 281.483278 
L 739.922727 295.15632 
L 741.190909 265.527507 
L 741.190909 282.937628 
L 742.459091 277.283219 
L 743.727273 295.603214 
L 747.531818 270.158375 
L 752.604545 300.398379 
L 755.140909 369.36 
L 932.686364 369.36 
L 932.686364 369.36 
L 933.954545 355.63974 
L 933.954545 355.63974 
" clip-path="url(#p4870159082)" style="fill: none; stroke: #1f77b4; stroke-width: 1.5; stroke-linecap: square"/>
   </g>
   <g id="patch_7">
    <path d="M 135 384.48 
L 135 51.84 
" style="fill: none; stroke: #000000; stroke-width: 0.8; stroke-linejoin: miter; stroke-linecap: square"/>
   </g>
   <g id="patch_8">
    <path d="M 972 384.48 
L 972 51.84 
" style="fill: none; stroke: #000000; stroke-width: 0.8; stroke-linejoin: miter; stroke-linecap: square"/>
   </g>
   <g id="patch_9">
    <path d="M 135 384.48 
L 972 384.48 
" style="fill: none; stroke: #000000; stroke-width: 0.8; stroke-linejoin: miter; stroke-linecap: square"/>
   </g>
   <g id="patch_10">
    <path d="M 135 51.84 
L 972 51.84 
" style="fill: none; stroke: #000000; stroke-width: 0.8; stroke-linejoin: miter; stroke-linecap: square"/>
   </g>
   <g id="text_23">
    <!-- ./comyco/log_comyco_5_wave -->
    <g transform="translate(475.5 45.84) scale(0.12 -0.12)">
     <defs>
      <path id="Times New Roman-2e" d="M 800 25
Q 650 25 537 125 
Q 425 225 425 400 
Q 425 575 537 675 
Q 650 775 800 775 
Q 950 775 1062 662 
Q 1175 550 1175 400 
Q 1175 225 1062 125 
Q 950 25 800 25 
z
" transform="scale(0.015625)"/>
      <path id="Times New Roman-2f" d="M 400 -475
L 225 -375 
L 2775 4975 
L 2950 4875 
L 400 -475 
z
" transform="scale(0.015625)"/>
      <path id="Times New Roman-63" d="M 2150 2225
Q 2150 2300 2175 2325 
Q 2175 2350 2200 2425 
Q 2225 2525 2100 2662 
Q 1975 2800 1675 2800 
Q 1300 2800 1037 2437 
Q 775 2075 775 1475 
Q 775 925 1000 587 
Q 1225 250 1750 250 
Q 2100 250 2337 475 
Q 2575 700 2675 1000 
L 2800 950 
Q 2700 575 2425 312 
Q 2150 50 1675 50 
Q 1075 50 725 425 
Q 375 800 375 1500 
Q 375 2125 750 2537 
Q 1125 2950 1725 2950 
Q 2150 2950 2387 2725 
Q 2625 2500 2625 2275 
Q 2625 2125 2562 2062 
Q 2500 2000 2375 2000 
Q 2275 2000 2212 2062 
Q 2150 2125 2150 2225 
z
" transform="scale(0.015625)"/>
      <path id="Times New Roman-6f" d="M 2900 1500
Q 2900 875 2525 462 
Q 2150 50 1600 50 
Q 1025 50 662 475 
Q 300 900 300 1500 
Q 300 2050 662 2500 
Q 1025 2950 1600 2950 
Q 2200 2950 2550 2500 
Q 2900 2050 2900 1500 
z
M 700 1475 
Q 700 825 962 512 
Q 1225 200 1600 200 
Q 2025 200 2262 537 
Q 2500 875 2500 1475 
Q 2500 2125 2237 2462 
Q 1975 2800 1600 2800 
Q 1250 2800 975 2462 
Q 700 2125 700 1475 
z
" transform="scale(0.015625)"/>
      <path id="Times New Roman-6d" d="M 175 2900
Q 300 2900 425 2925 
Q 550 2950 625 3000 
L 675 3000 
L 675 2575 
Q 800 2775 950 2862 
Q 1100 2950 1275 2950 
Q 1500 2950 1625 2862 
Q 1750 2775 1775 2575 
Q 1900 2775 2062 2862 
Q 2225 2950 2400 2950 
Q 2700 2950 2812 2775 
Q 2925 2600 2925 2325 
L 2925 425 
Q 2925 325 2975 287 
Q 3025 250 3125 250 
L 3175 250 
L 3175 100 
L 2325 100 
L 2325 250 
L 2375 250 
Q 2475 250 2525 287 
Q 2575 325 2575 425 
L 2575 2300 
Q 2575 2575 2512 2662 
Q 2450 2750 2325 2750 
Q 2150 2750 2012 2625 
Q 1875 2500 1800 2275 
L 1800 425 
Q 1800 325 1850 287 
Q 1900 250 2000 250 
L 2050 250 
L 2050 100 
L 1200 100 
L 1200 250 
L 1250 250 
Q 1350 250 1400 287 
Q 1450 325 1450 425 
L 1450 2300 
Q 1450 2525 1400 2637 
Q 1350 2750 1200 2750 
Q 1025 2750 887 2625 
Q 750 2500 675 2250 
L 675 425 
Q 675 325 725 287 
Q 775 250 875 250 
L 925 250 
L 925 100 
L 75 100 
L 75 250 
L 125 250 
Q 225 250 275 287 
Q 325 325 325 425 
L 325 2600 
Q 325 2675 300 2712 
Q 275 2750 200 2750 
L 100 2750 
L 100 2900 
L 175 2900 
z
" transform="scale(0.015625)"/>
      <path id="Times New Roman-79" d="M 1650 800
L 1700 800 
L 2250 2475 
Q 2300 2600 2237 2675 
Q 2175 2750 2075 2750 
L 1925 2750 
L 1925 2900 
L 2975 2900 
L 2975 2750 
L 2825 2750 
Q 2725 2750 2625 2675 
Q 2525 2600 2475 2475 
L 1625 0 
Q 1500 -375 1312 -587 
Q 1125 -800 825 -800 
Q 650 -800 550 -737 
Q 450 -675 450 -550 
Q 450 -475 512 -400 
Q 575 -325 700 -325 
Q 800 -325 900 -425 
Q 1000 -500 1050 -500 
Q 1125 -500 1175 -475 
Q 1225 -450 1250 -375 
Q 1325 -250 1400 -62 
Q 1475 125 1525 325 
L 675 2525 
Q 650 2625 562 2687 
Q 475 2750 375 2750 
L 275 2750 
L 275 2900 
L 1325 2900 
L 1325 2750 
L 1225 2750 
Q 1125 2750 1075 2687 
Q 1025 2625 1050 2500 
L 1650 800 
z
M 950 2750 
L 950 2750 
z
M 600 2750 
L 600 2750 
z
M 2575 2750 
L 2575 2750 
z
M 2325 2750 
L 2325 2750 
z
" transform="scale(0.015625)"/>
      <path id="Times New Roman-6c" d="M 925 4375
Q 1150 4375 1350 4425 
Q 1550 4475 1725 4575 
L 1775 4575 
L 1775 450 
Q 1775 350 1837 300 
Q 1900 250 2000 250 
L 2575 250 
L 2575 100 
L 625 100 
L 625 250 
L 1200 250 
Q 1325 250 1375 300 
Q 1425 350 1425 450 
L 1425 4025 
Q 1425 4125 1375 4175 
Q 1325 4225 1200 4225 
L 650 4225 
L 650 4375 
L 925 4375 
z
" transform="scale(0.015625)"/>
      <path id="Times New Roman-67" d="M 875 1975
Q 875 1675 1050 1462 
Q 1225 1250 1525 1250 
Q 1850 1250 2012 1437 
Q 2175 1625 2175 1975 
Q 2175 2400 1987 2587 
Q 1800 2775 1525 2775 
Q 1250 2775 1062 2587 
Q 875 2400 875 1975 
z
M 2100 625 
Q 2475 575 2650 412 
Q 2825 250 2825 -25 
Q 2825 -400 2512 -625 
Q 2200 -850 1525 -850 
Q 1000 -850 675 -637 
Q 350 -425 350 -150 
Q 350 25 475 200 
Q 600 375 875 475 
Q 725 550 637 637 
Q 550 725 550 850 
Q 550 1000 650 1112 
Q 750 1225 900 1300 
Q 750 1425 637 1600 
Q 525 1775 525 1975 
Q 525 2350 787 2637 
Q 1050 2925 1525 2925 
Q 1725 2925 1912 2875 
Q 2100 2825 2225 2700 
Q 2400 2825 2537 2887 
Q 2675 2950 2775 2950 
Q 2900 2950 2950 2862 
Q 3000 2775 3000 2700 
Q 3000 2600 2962 2537 
Q 2925 2475 2825 2475 
Q 2750 2475 2700 2512 
Q 2650 2550 2625 2625 
Q 2600 2700 2512 2687 
Q 2425 2675 2325 2600 
Q 2425 2500 2475 2325 
Q 2525 2150 2525 1975 
Q 2525 1675 2287 1387 
Q 2050 1100 1525 1100 
Q 1375 1100 1250 1137 
Q 1125 1175 1050 1225 
Q 950 1175 900 1100 
Q 850 1025 850 975 
Q 850 875 900 825 
Q 950 775 1050 775 
Q 1375 725 1637 687 
Q 1900 650 2100 625 
z
M 1075 425 
Q 850 325 762 187 
Q 675 50 675 -150 
Q 675 -350 900 -525 
Q 1125 -700 1575 -700 
Q 2000 -700 2250 -562 
Q 2500 -425 2500 -150 
Q 2500 25 2437 125 
Q 2375 225 2250 250 
Q 2000 300 1700 350 
Q 1400 375 1075 425 
z
" transform="scale(0.015625)"/>
      <path id="Times New Roman-5f" d="M 0 -875
L 0 -725 
L 3175 -725 
L 3175 -875 
L 0 -875 
z
" transform="scale(0.015625)"/>
      <path id="Times New Roman-77" d="M 2325 2900
L 3175 2900 
L 3175 2750 
L 3075 2750 
Q 2975 2750 2900 2675 
Q 2825 2600 2775 2425 
L 2175 75 
L 2025 75 
L 1575 1975 
L 1100 75 
L 950 75 
L 375 2375 
Q 350 2550 275 2650 
Q 200 2750 125 2750 
L 25 2750 
L 25 2900 
L 925 2900 
L 925 2750 
L 825 2750 
Q 725 2750 700 2662 
Q 675 2575 700 2425 
L 1075 800 
L 1125 800 
L 1500 2300 
Q 1475 2525 1400 2637 
Q 1325 2750 1225 2750 
L 1150 2750 
L 1150 2900 
L 2000 2900 
L 2000 2750 
L 1925 2750 
Q 1825 2750 1800 2662 
Q 1775 2575 1800 2425 
L 2175 800 
L 2200 800 
L 2625 2550 
Q 2650 2650 2600 2700 
Q 2550 2750 2450 2750 
L 2325 2750 
L 2325 2900 
z
M 1725 2750 
L 1725 2750 
z
M 625 2750 
L 625 2750 
z
M 275 2750 
L 275 2750 
z
M 2875 2750 
L 2875 2750 
z
M 2675 2750 
L 2675 2750 
z
" transform="scale(0.015625)"/>
      <path id="Times New Roman-76" d="M 1625 75
L 1475 75 
L 625 2525 
Q 600 2625 525 2687 
Q 450 2750 350 2750 
L 225 2750 
L 225 2900 
L 1300 2900 
L 1300 2750 
L 1200 2750 
Q 1050 2750 1025 2700 
Q 1000 2650 1000 2600 
Q 1000 2500 1025 2425 
L 1625 675 
L 1675 675 
L 2275 2400 
Q 2325 2525 2325 2575 
Q 2325 2600 2275 2675 
Q 2225 2750 2075 2750 
L 2025 2750 
L 2025 2900 
L 2925 2900 
L 2925 2750 
L 2875 2750 
Q 2725 2750 2637 2662 
Q 2550 2575 2475 2400 
L 1625 75 
z
M 2600 2750 
L 2600 2750 
z
M 2400 2750 
L 2400 2750 
z
M 925 2750 
L 925 2750 
z
M 550 2750 
L 550 2750 
z
" transform="scale(0.015625)"/>
     </defs>
     <use xlink:href="#Times New Roman-2e"/>
     <use xlink:href="#Times New Roman-2f" x="50"/>
     <use xlink:href="#Times New Roman-63" x="100"/>
     <use xlink:href="#Times New Roman-6f" x="150"/>
     <use xlink:href="#Times New Roman-6d" x="200"/>
     <use xlink:href="#Times New Roman-79" x="250"/>
     <use xlink:href="#Times New Roman-63" x="300"/>
     <use xlink:href="#Times New Roman-6f" x="350"/>
     <use xlink:href="#Times New Roman-2f" x="400"/>
     <use xlink:href="#Times New Roman-6c" x="450"/>
     <use xlink:href="#Times New Roman-6f" x="500"/>
     <use xlink:href="#Times New Roman-67" x="550"/>
     <use xlink:href="#Times New Roman-5f" x="600"/>
     <use xlink:href="#Times New Roman-63" x="650"/>
     <use xlink:href="#Times New Roman-6f" x="700"/>
     <use xlink:href="#Times New Roman-6d" x="750"/>
     <use xlink:href="#Times New Roman-79" x="800"/>
     <use xlink:href="#Times New Roman-63" x="850"/>
     <use xlink:href="#Times New Roman-6f" x="900"/>
     <use xlink:href="#Times New Roman-5f" x="950"/>
     <use xlink:href="#Times New Roman-35" x="1000"/>
     <use xlink:href="#Times New Roman-5f" x="1050"/>
     <use xlink:href="#Times New Roman-77" x="1100"/>
     <use xlink:href="#Times New Roman-61" x="1150"/>
     <use xlink:href="#Times New Roman-76" x="1200"/>
     <use xlink:href="#Times New Roman-65" x="1250"/>
    </g>
   </g>
   <g id="legend_1">
    <g id="patch_11">
     <path d="M 903 73.2775 
L 965 73.2775 
Q 967 73.2775 967 71.2775 
L 967 58.84 
Q 967 56.84 965 56.84 
L 903 56.84 
Q 901 56.84 901 58.84 
L 901 71.2775 
Q 901 73.2775 903 73.2775 
z
" style="fill: #ffffff; opacity: 0.8; stroke: #cccccc; stroke-linejoin: miter"/>
    </g>
    <g id="line2d_31">
     <path d="M 905 64.488437 
L 915 64.488437 
L 925 64.488437 
" style="fill: none; stroke: #1f77b4; stroke-width: 1.5; stroke-linecap: square"/>
    </g>
    <g id="text_24">
     <!-- buffer -->
     <g transform="translate(933 67.988437) scale(0.1 -0.1)">
      <use xlink:href="#Times New Roman-62"/>
      <use xlink:href="#Times New Roman-75" x="50"/>
      <use xlink:href="#Times New Roman-66" x="100"/>
      <use xlink:href="#Times New Roman-66" x="150"/>
      <use xlink:href="#Times New Roman-65" x="200"/>
      <use xlink:href="#Times New Roman-72" x="250"/>
     </g>
    </g>
   </g>
  </g>
 </g>
 <defs>
  <clipPath id="p4870159082">
   <rect x="135" y="51.84" width="837" height="332.64"/>
  </clipPath>
 </defs>
</svg>
