<?xml version="1.0" encoding="utf-8" standalone="no"?>
<!DOCTYPE svg PUBLIC "-//W3C//DTD SVG 1.1//EN"
  "http://www.w3.org/Graphics/SVG/1.1/DTD/svg11.dtd">
<svg xmlns:xlink="http://www.w3.org/1999/xlink" width="1080pt" height="432pt" viewBox="0 0 1080 432" xmlns="http://www.w3.org/2000/svg" version="1.1">
 <metadata>
  <rdf:RDF xmlns:dc="http://purl.org/dc/elements/1.1/" xmlns:cc="http://creativecommons.org/ns#" xmlns:rdf="http://www.w3.org/1999/02/22-rdf-syntax-ns#">
   <cc:Work>
    <dc:type rdf:resource="http://purl.org/dc/dcmitype/StillImage"/>
    <dc:date>2024-04-12T06:21:50.740212</dc:date>
    <dc:format>image/svg+xml</dc:format>
    <dc:creator>
     <cc:Agent>
      <dc:title>Matplotlib v3.8.3, https://matplotlib.org/</dc:title>
     </cc:Agent>
    </dc:creator>
   </cc:Work>
  </rdf:RDF>
 </metadata>
 <defs>
  <style type="text/css">*{stroke-linejoin: round; stroke-linecap: butt}</style>
 </defs>
 <g id="figure_1">
  <g id="patch_1">
   <path d="M 0 432 
L 1080 432 
L 1080 0 
L 0 0 
z
" style="fill: #ffffff"/>
  </g>
  <g id="axes_1">
   <g id="patch_2">
    <path d="M 135 384.48 
L 972 384.48 
L 972 51.84 
L 135 51.84 
z
" style="fill: #ffffff"/>
   </g>
   <g id="matplotlib.axis_1">
    <g id="xtick_1">
     <g id="line2d_1">
      <defs>
       <path id="m35e03fc7bc" d="M 0 0 
L 0 3.5 
" style="stroke: #000000; stroke-width: 0.8"/>
      </defs>
      <g>
       <use xlink:href="#m35e03fc7bc" x="173.045455" y="384.48" style="stroke: #000000; stroke-width: 0.8"/>
      </g>
     </g>
     <g id="text_1">
      <!-- 0 -->
      <g transform="translate(170.545455 398.628438) scale(0.1 -0.1)">
       <defs>
        <path id="Times New Roman-30" d="M 1600 4225
Q 1250 4225 1012 3687 
Q 775 3150 775 2250 
Q 775 1300 1012 775 
Q 1250 250 1600 250 
Q 1975 250 2187 775 
Q 2400 1300 2400 2250 
Q 2400 3150 2200 3687 
Q 2000 4225 1600 4225 
z
M 1600 50 
Q 1050 50 675 625 
Q 300 1200 300 2250 
Q 300 3225 662 3825 
Q 1025 4425 1600 4425 
Q 2150 4425 2512 3850 
Q 2875 3275 2875 2250 
Q 2875 1225 2512 637 
Q 2150 50 1600 50 
z
" transform="scale(0.015625)"/>
       </defs>
       <use xlink:href="#Times New Roman-30"/>
      </g>
     </g>
    </g>
    <g id="xtick_2">
     <g id="line2d_2">
      <g>
       <use xlink:href="#m35e03fc7bc" x="300.075353" y="384.48" style="stroke: #000000; stroke-width: 0.8"/>
      </g>
     </g>
     <g id="text_2">
      <!-- 100 -->
      <g transform="translate(292.575353 398.628438) scale(0.1 -0.1)">
       <defs>
        <path id="Times New Roman-31" d="M 1825 4450
L 1825 650 
Q 1825 450 1950 350 
Q 2075 250 2300 250 
L 2550 250 
L 2550 100 
L 725 100 
L 725 250 
L 950 250 
Q 1200 250 1312 350 
Q 1425 450 1425 650 
L 1425 3675 
Q 1425 3775 1362 3837 
Q 1300 3900 1175 3900 
L 725 3900 
L 725 4050 
L 950 4050 
Q 1250 4050 1437 4150 
Q 1625 4250 1725 4450 
L 1825 4450 
z
" transform="scale(0.015625)"/>
       </defs>
       <use xlink:href="#Times New Roman-31"/>
       <use xlink:href="#Times New Roman-30" x="50"/>
       <use xlink:href="#Times New Roman-30" x="100"/>
      </g>
     </g>
    </g>
    <g id="xtick_3">
     <g id="line2d_3">
      <g>
       <use xlink:href="#m35e03fc7bc" x="427.105251" y="384.48" style="stroke: #000000; stroke-width: 0.8"/>
      </g>
     </g>
     <g id="text_3">
      <!-- 200 -->
      <g transform="translate(419.605251 398.628438) scale(0.1 -0.1)">
       <defs>
        <path id="Times New Roman-32" d="M 2325 3325
Q 2325 3775 2125 4012 
Q 1925 4250 1525 4250 
Q 1225 4250 1012 4087 
Q 800 3925 800 3675 
Q 800 3525 900 3425 
Q 975 3325 975 3225 
Q 975 3100 912 3037 
Q 850 2975 725 2975 
Q 575 2975 487 3062 
Q 400 3150 400 3350 
Q 400 3875 775 4150 
Q 1150 4425 1575 4425 
Q 2175 4425 2462 4125 
Q 2750 3825 2750 3375 
Q 2750 3075 2612 2775 
Q 2475 2475 2175 2200 
Q 1450 1500 1062 1062 
Q 675 625 600 475 
L 2075 475 
Q 2300 475 2450 650 
Q 2600 825 2650 1175 
L 2800 1175 
L 2650 100 
L 325 100 
L 325 425 
Q 450 650 737 1000 
Q 1025 1350 1500 1825 
Q 1925 2250 2125 2625 
Q 2325 3000 2325 3325 
z
" transform="scale(0.015625)"/>
       </defs>
       <use xlink:href="#Times New Roman-32"/>
       <use xlink:href="#Times New Roman-30" x="50"/>
       <use xlink:href="#Times New Roman-30" x="100"/>
      </g>
     </g>
    </g>
    <g id="xtick_4">
     <g id="line2d_4">
      <g>
       <use xlink:href="#m35e03fc7bc" x="554.135149" y="384.48" style="stroke: #000000; stroke-width: 0.8"/>
      </g>
     </g>
     <g id="text_4">
      <!-- 300 -->
      <g transform="translate(546.635149 398.628438) scale(0.1 -0.1)">
       <defs>
        <path id="Times New Roman-33" d="M 2800 1250
Q 2800 775 2450 412 
Q 2100 50 1475 50 
Q 1025 50 700 300 
Q 375 550 375 875 
Q 375 1025 475 1137 
Q 575 1250 675 1250 
Q 825 1250 887 1137 
Q 950 1025 950 950 
Q 950 825 900 750 
Q 850 650 850 575 
Q 850 425 1037 325 
Q 1225 225 1450 225 
Q 1900 225 2125 487 
Q 2350 750 2350 1300 
Q 2350 1750 2112 2025 
Q 1875 2300 1225 2300 
L 1225 2475 
Q 1725 2475 1962 2712 
Q 2200 2950 2200 3375 
Q 2200 3725 2012 3987 
Q 1825 4250 1425 4250 
Q 1250 4250 1050 4162 
Q 850 4075 850 3875 
Q 850 3675 900 3625 
Q 950 3575 950 3500 
Q 950 3375 900 3300 
Q 850 3225 725 3225 
Q 625 3225 537 3300 
Q 450 3375 450 3575 
Q 450 3950 775 4187 
Q 1100 4425 1525 4425 
Q 2025 4425 2325 4112 
Q 2625 3800 2625 3450 
Q 2625 3075 2437 2812 
Q 2250 2550 1850 2425 
Q 2400 2225 2600 1900 
Q 2800 1575 2800 1250 
z
" transform="scale(0.015625)"/>
       </defs>
       <use xlink:href="#Times New Roman-33"/>
       <use xlink:href="#Times New Roman-30" x="50"/>
       <use xlink:href="#Times New Roman-30" x="100"/>
      </g>
     </g>
    </g>
    <g id="xtick_5">
     <g id="line2d_5">
      <g>
       <use xlink:href="#m35e03fc7bc" x="681.165048" y="384.48" style="stroke: #000000; stroke-width: 0.8"/>
      </g>
     </g>
     <g id="text_5">
      <!-- 400 -->
      <g transform="translate(673.665048 398.628438) scale(0.1 -0.1)">
       <defs>
        <path id="Times New Roman-34" d="M 2300 575
Q 2300 400 2400 325 
Q 2500 250 2675 250 
L 2900 250 
L 2900 100 
L 1250 100 
L 1250 250 
L 1525 250 
Q 1725 250 1812 325 
Q 1900 400 1900 575 
L 1900 1400 
L 225 1400 
L 225 1525 
L 2050 4425 
L 2300 4425 
L 2300 1550 
L 2975 1550 
L 2975 1400 
L 2300 1400 
L 2300 575 
z
M 1875 3800 
L 450 1550 
L 1900 1550 
L 1900 3800 
L 1875 3800 
z
" transform="scale(0.015625)"/>
       </defs>
       <use xlink:href="#Times New Roman-34"/>
       <use xlink:href="#Times New Roman-30" x="50"/>
       <use xlink:href="#Times New Roman-30" x="100"/>
      </g>
     </g>
    </g>
    <g id="xtick_6">
     <g id="line2d_6">
      <g>
       <use xlink:href="#m35e03fc7bc" x="808.194946" y="384.48" style="stroke: #000000; stroke-width: 0.8"/>
      </g>
     </g>
     <g id="text_6">
      <!-- 500 -->
      <g transform="translate(800.694946 398.628438) scale(0.1 -0.1)">
       <defs>
        <path id="Times New Roman-35" d="M 1725 2850
Q 2200 2850 2500 2487 
Q 2800 2125 2800 1525 
Q 2800 850 2487 450 
Q 2175 50 1525 50 
Q 1075 50 725 312 
Q 375 575 375 950 
Q 375 1100 462 1212 
Q 550 1325 700 1325 
Q 850 1325 900 1225 
Q 950 1125 950 1050 
Q 950 900 875 825 
Q 800 725 800 625 
Q 800 425 1037 325 
Q 1275 225 1550 225 
Q 1950 225 2162 550 
Q 2375 875 2375 1475 
Q 2375 1975 2187 2287 
Q 2000 2600 1625 2600 
Q 1350 2600 1150 2500 
Q 950 2400 775 2075 
L 550 2100 
L 675 4375 
L 2725 4375 
L 2650 4000 
L 850 4000 
L 750 2350 
Q 1000 2700 1237 2775 
Q 1475 2850 1725 2850 
z
" transform="scale(0.015625)"/>
       </defs>
       <use xlink:href="#Times New Roman-35"/>
       <use xlink:href="#Times New Roman-30" x="50"/>
       <use xlink:href="#Times New Roman-30" x="100"/>
      </g>
     </g>
    </g>
    <g id="xtick_7">
     <g id="line2d_7">
      <g>
       <use xlink:href="#m35e03fc7bc" x="935.224844" y="384.48" style="stroke: #000000; stroke-width: 0.8"/>
      </g>
     </g>
     <g id="text_7">
      <!-- 600 -->
      <g transform="translate(927.724844 398.628438) scale(0.1 -0.1)">
       <defs>
        <path id="Times New Roman-36" d="M 775 1800
Q 775 1050 1037 637 
Q 1300 225 1675 225 
Q 2050 225 2250 500 
Q 2450 775 2450 1525 
Q 2450 2025 2237 2300 
Q 2025 2575 1725 2575 
Q 1450 2575 1212 2412 
Q 975 2250 775 1800 
z
M 1750 2825 
Q 2350 2825 2612 2425 
Q 2875 2025 2875 1525 
Q 2875 775 2512 412 
Q 2150 50 1675 50 
Q 1000 50 650 562 
Q 300 1075 300 2050 
Q 300 3200 725 3812 
Q 1150 4425 1875 4425 
Q 2225 4425 2437 4225 
Q 2650 4025 2650 3875 
Q 2650 3725 2587 3650 
Q 2525 3575 2375 3575 
Q 2250 3575 2187 3637 
Q 2125 3700 2125 3825 
Q 2125 3875 2150 3925 
Q 2150 3975 2150 4025 
Q 2150 4125 2075 4187 
Q 2000 4250 1800 4250 
Q 1375 4250 1075 3862 
Q 775 3475 775 2175 
Q 925 2500 1187 2662 
Q 1450 2825 1750 2825 
z
" transform="scale(0.015625)"/>
       </defs>
       <use xlink:href="#Times New Roman-36"/>
       <use xlink:href="#Times New Roman-30" x="50"/>
       <use xlink:href="#Times New Roman-30" x="100"/>
      </g>
     </g>
    </g>
   </g>
   <g id="matplotlib.axis_2">
    <g id="ytick_1">
     <g id="line2d_8">
      <defs>
       <path id="m2e10ad5ec7" d="M 0 0 
L -3.5 0 
" style="stroke: #000000; stroke-width: 0.8"/>
      </defs>
      <g>
       <use xlink:href="#m2e10ad5ec7" x="135" y="378.233387" style="stroke: #000000; stroke-width: 0.8"/>
      </g>
     </g>
     <g id="text_8">
      <!-- 0 -->
      <g transform="translate(123 381.807606) scale(0.1 -0.1)">
       <use xlink:href="#Times New Roman-30"/>
      </g>
     </g>
    </g>
    <g id="ytick_2">
     <g id="line2d_9">
      <g>
       <use xlink:href="#m2e10ad5ec7" x="135" y="315.301563" style="stroke: #000000; stroke-width: 0.8"/>
      </g>
     </g>
     <g id="text_9">
      <!-- 1000 -->
      <g transform="translate(108 318.875782) scale(0.1 -0.1)">
       <use xlink:href="#Times New Roman-31"/>
       <use xlink:href="#Times New Roman-30" x="50"/>
       <use xlink:href="#Times New Roman-30" x="100"/>
       <use xlink:href="#Times New Roman-30" x="150"/>
      </g>
     </g>
    </g>
    <g id="ytick_3">
     <g id="line2d_10">
      <g>
       <use xlink:href="#m2e10ad5ec7" x="135" y="252.369739" style="stroke: #000000; stroke-width: 0.8"/>
      </g>
     </g>
     <g id="text_10">
      <!-- 2000 -->
      <g transform="translate(108 255.943958) scale(0.1 -0.1)">
       <use xlink:href="#Times New Roman-32"/>
       <use xlink:href="#Times New Roman-30" x="50"/>
       <use xlink:href="#Times New Roman-30" x="100"/>
       <use xlink:href="#Times New Roman-30" x="150"/>
      </g>
     </g>
    </g>
    <g id="ytick_4">
     <g id="line2d_11">
      <g>
       <use xlink:href="#m2e10ad5ec7" x="135" y="189.437916" style="stroke: #000000; stroke-width: 0.8"/>
      </g>
     </g>
     <g id="text_11">
      <!-- 3000 -->
      <g transform="translate(108 193.012134) scale(0.1 -0.1)">
       <use xlink:href="#Times New Roman-33"/>
       <use xlink:href="#Times New Roman-30" x="50"/>
       <use xlink:href="#Times New Roman-30" x="100"/>
       <use xlink:href="#Times New Roman-30" x="150"/>
      </g>
     </g>
    </g>
    <g id="ytick_5">
     <g id="line2d_12">
      <g>
       <use xlink:href="#m2e10ad5ec7" x="135" y="126.506092" style="stroke: #000000; stroke-width: 0.8"/>
      </g>
     </g>
     <g id="text_12">
      <!-- 4000 -->
      <g transform="translate(108 130.08031) scale(0.1 -0.1)">
       <use xlink:href="#Times New Roman-34"/>
       <use xlink:href="#Times New Roman-30" x="50"/>
       <use xlink:href="#Times New Roman-30" x="100"/>
       <use xlink:href="#Times New Roman-30" x="150"/>
      </g>
     </g>
    </g>
    <g id="ytick_6">
     <g id="line2d_13">
      <g>
       <use xlink:href="#m2e10ad5ec7" x="135" y="63.574268" style="stroke: #000000; stroke-width: 0.8"/>
      </g>
     </g>
     <g id="text_13">
      <!-- 5000 -->
      <g transform="translate(108 67.148487) scale(0.1 -0.1)">
       <use xlink:href="#Times New Roman-35"/>
       <use xlink:href="#Times New Roman-30" x="50"/>
       <use xlink:href="#Times New Roman-30" x="100"/>
       <use xlink:href="#Times New Roman-30" x="150"/>
      </g>
     </g>
    </g>
    <g id="text_14">
     <!-- Bitrate (kbps) -->
     <g transform="translate(102.710938 253.16) rotate(-90) scale(0.1 -0.1)">
      <defs>
       <path id="Times New Roman-42" d="M 100 100
L 100 250 
L 300 250 
Q 425 250 475 300 
Q 525 350 525 450 
L 525 4025 
Q 525 4125 475 4175 
Q 425 4225 300 4225 
L 150 4225 
L 150 4375 
L 1600 4375 
Q 2200 4375 2487 4137 
Q 2775 3900 2775 3400 
Q 2775 3050 2625 2825 
Q 2475 2600 2000 2425 
Q 2575 2250 2775 1925 
Q 2975 1600 2975 1200 
Q 2975 700 2625 400 
Q 2275 100 1675 100 
L 100 100 
z
M 1600 250 
Q 2025 250 2262 512 
Q 2500 775 2500 1250 
Q 2500 1800 2250 2062 
Q 2000 2325 1500 2325 
L 925 2325 
L 925 450 
Q 925 350 987 300 
Q 1050 250 1150 250 
L 1600 250 
z
M 2350 3400 
Q 2350 3850 2100 4037 
Q 1850 4225 1450 4225 
L 1150 4225 
Q 1050 4225 987 4175 
Q 925 4125 925 4025 
L 925 2475 
L 1575 2475 
Q 1850 2475 2100 2700 
Q 2350 2925 2350 3400 
z
" transform="scale(0.015625)"/>
       <path id="Times New Roman-69" d="M 1425 2525
Q 1425 2625 1375 2687 
Q 1325 2750 1200 2750 
L 675 2750 
L 675 2900 
L 925 2900 
Q 1150 2900 1350 2937 
Q 1550 2975 1725 3075 
L 1775 3075 
L 1775 450 
Q 1775 350 1837 300 
Q 1900 250 2000 250 
L 2525 250 
L 2525 100 
L 675 100 
L 675 250 
L 1200 250 
Q 1325 250 1375 300 
Q 1425 350 1425 450 
L 1425 2525 
z
M 1725 3025 
L 1725 3025 
z
M 1625 4425 
Q 1750 4425 1850 4337 
Q 1950 4250 1950 4125 
Q 1950 4000 1850 3900 
Q 1750 3800 1625 3800 
Q 1500 3800 1400 3900 
Q 1300 4000 1300 4125 
Q 1300 4250 1400 4337 
Q 1500 4425 1625 4425 
z
" transform="scale(0.015625)"/>
       <path id="Times New Roman-74" d="M 1500 900
Q 1500 550 1625 425 
Q 1750 300 2000 300 
Q 2250 300 2400 462 
Q 2550 625 2600 925 
L 2725 875 
Q 2675 525 2462 300 
Q 2250 75 1900 75 
Q 1525 75 1337 300 
Q 1150 525 1150 1000 
L 1150 2750 
L 400 2750 
L 400 2900 
L 600 2900 
Q 900 2900 1087 3087 
Q 1275 3275 1325 3675 
L 1350 3875 
L 1500 3875 
L 1500 2900 
L 2500 2900 
L 2500 2750 
L 1500 2750 
L 1500 900 
z
" transform="scale(0.015625)"/>
       <path id="Times New Roman-72" d="M 1275 2125
Q 1525 2525 1812 2737 
Q 2100 2950 2400 2950 
Q 2650 2950 2787 2837 
Q 2925 2725 2925 2575 
Q 2925 2450 2862 2375 
Q 2800 2300 2675 2300 
Q 2550 2300 2487 2375 
Q 2425 2450 2450 2575 
Q 2450 2650 2425 2700 
Q 2400 2750 2275 2750 
Q 2075 2750 1787 2500 
Q 1500 2250 1275 1800 
L 1275 450 
Q 1275 350 1337 300 
Q 1400 250 1500 250 
L 2050 250 
L 2050 100 
L 200 100 
L 200 250 
L 700 250 
Q 825 250 875 300 
Q 925 350 925 450 
L 925 2525 
Q 925 2625 875 2687 
Q 825 2750 700 2750 
L 225 2750 
L 225 2900 
L 425 2900 
Q 600 2900 837 2937 
Q 1075 2975 1200 3025 
L 1275 3025 
L 1275 2125 
z
" transform="scale(0.015625)"/>
       <path id="Times New Roman-61" d="M 1225 75
Q 775 75 525 287 
Q 275 500 275 775 
Q 275 1225 662 1512 
Q 1050 1800 2200 1925 
L 2200 2225 
Q 2200 2475 2087 2637 
Q 1975 2800 1575 2800 
Q 1150 2800 975 2662 
Q 800 2525 850 2375 
Q 875 2325 875 2275 
Q 875 2225 837 2150 
Q 800 2075 650 2075 
Q 550 2075 487 2137 
Q 425 2200 425 2325 
Q 425 2550 750 2750 
Q 1075 2950 1550 2950 
Q 2050 2950 2300 2762 
Q 2550 2575 2550 2225 
L 2550 575 
Q 2550 375 2587 337 
Q 2625 300 2725 300 
Q 2850 300 2900 412 
Q 2950 525 2950 725 
L 3075 725 
Q 3075 375 2950 237 
Q 2825 100 2625 100 
Q 2450 100 2350 175 
Q 2250 250 2200 425 
Q 1950 250 1737 162 
Q 1525 75 1225 75 
z
M 700 850 
Q 700 625 837 437 
Q 975 250 1275 250 
Q 1500 250 1725 337 
Q 1950 425 2200 600 
L 2200 1775 
Q 1350 1675 1025 1437 
Q 700 1200 700 850 
z
" transform="scale(0.015625)"/>
       <path id="Times New Roman-65" d="M 2400 1650
Q 2425 2200 2212 2487 
Q 2000 2775 1650 2775 
Q 1275 2775 1037 2475 
Q 800 2175 800 1650 
L 2400 1650 
z
M 800 1500 
Q 800 825 1062 537 
Q 1325 250 1750 250 
Q 2075 250 2300 437 
Q 2525 625 2625 900 
L 2750 850 
Q 2675 575 2412 312 
Q 2150 50 1700 50 
Q 1125 50 762 425 
Q 400 800 400 1500 
Q 400 2125 762 2537 
Q 1125 2950 1650 2950 
Q 2125 2950 2475 2625 
Q 2825 2300 2825 1500 
L 800 1500 
z
" transform="scale(0.015625)"/>
       <path id="Times New Roman-20" d="M 0 0
Q 0 0 0 0 
z
" transform="scale(0.015625)"/>
       <path id="Times New Roman-28" d="M 2900 5025
Q 2325 4425 2037 3737 
Q 1750 3050 1750 2300 
Q 1750 1525 2037 850 
Q 2325 175 2900 -425 
L 2775 -550 
Q 2075 75 1725 787 
Q 1375 1500 1375 2300 
Q 1375 3075 1725 3787 
Q 2075 4500 2775 5150 
L 2900 5025 
z
" transform="scale(0.015625)"/>
       <path id="Times New Roman-6b" d="M 1675 1900
L 2625 425 
Q 2700 325 2762 287 
Q 2825 250 2900 250 
L 3000 250 
L 3000 100 
L 1975 100 
L 1975 250 
L 2050 250 
Q 2175 250 2225 287 
Q 2275 325 2200 425 
L 1425 1650 
L 925 1125 
L 925 450 
Q 925 350 987 300 
Q 1050 250 1150 250 
L 1275 250 
L 1275 100 
L 225 100 
L 225 250 
L 350 250 
Q 475 250 525 300 
Q 575 350 575 450 
L 575 4025 
Q 575 4125 525 4175 
Q 475 4225 350 4225 
L 200 4225 
L 200 4375 
L 425 4375 
Q 575 4375 687 4425 
Q 800 4475 875 4575 
L 925 4575 
L 925 1400 
L 1975 2525 
Q 2025 2625 2012 2687 
Q 2000 2750 1900 2750 
L 1750 2750 
L 1750 2900 
L 2800 2900 
L 2800 2750 
L 2675 2750 
Q 2600 2750 2487 2712 
Q 2375 2675 2275 2575 
L 1675 1900 
z
M 2450 2750 
L 2450 2750 
z
M 2175 2750 
L 2175 2750 
z
M 2300 250 
L 2300 250 
z
M 2750 250 
L 2750 250 
z
" transform="scale(0.015625)"/>
       <path id="Times New Roman-62" d="M 875 2325
Q 1000 2600 1275 2762 
Q 1550 2925 1800 2925 
Q 2325 2925 2587 2562 
Q 2850 2200 2850 1500 
Q 2850 800 2512 437 
Q 2175 75 1675 75 
Q 1425 75 1212 162 
Q 1000 250 850 400 
L 625 100 
L 525 100 
L 525 4025 
Q 525 4125 475 4175 
Q 425 4225 300 4225 
L 150 4225 
L 150 4375 
L 375 4375 
Q 500 4375 625 4425 
Q 750 4475 875 4575 
L 875 2325 
z
M 875 925 
Q 875 650 1062 450 
Q 1250 250 1625 250 
Q 2075 250 2262 562 
Q 2450 875 2450 1500 
Q 2450 2100 2287 2412 
Q 2125 2725 1775 2725 
Q 1475 2725 1250 2550 
Q 1025 2375 875 1925 
L 875 925 
z
" transform="scale(0.015625)"/>
       <path id="Times New Roman-70" d="M 1150 -675
L 1325 -675 
L 1325 -825 
L 175 -825 
L 175 -675 
L 325 -675 
Q 450 -675 500 -625 
Q 550 -575 550 -450 
L 550 2500 
Q 550 2600 500 2662 
Q 450 2725 325 2725 
L 175 2725 
L 175 2875 
L 400 2875 
Q 525 2875 637 2900 
Q 750 2925 850 3000 
L 900 3000 
L 900 2425 
Q 1075 2675 1287 2800 
Q 1500 2925 1750 2925 
Q 2250 2925 2575 2587 
Q 2900 2250 2900 1525 
Q 2900 825 2550 450 
Q 2200 75 1725 75 
Q 1450 75 1262 162 
Q 1075 250 900 425 
L 900 -450 
Q 900 -575 975 -625 
Q 1050 -675 1150 -675 
z
M 900 750 
Q 1025 500 1212 375 
Q 1400 250 1650 250 
Q 2000 250 2250 562 
Q 2500 875 2500 1525 
Q 2500 2125 2312 2425 
Q 2125 2725 1750 2725 
Q 1525 2725 1300 2587 
Q 1075 2450 900 2150 
L 900 750 
z
" transform="scale(0.015625)"/>
       <path id="Times New Roman-73" d="M 625 2175
Q 625 2550 912 2750 
Q 1200 2950 1600 2950 
Q 1825 2950 2025 2900 
Q 2225 2825 2300 2825 
Q 2375 2825 2425 2850 
Q 2475 2875 2550 2950 
L 2650 2125 
L 2500 2100 
Q 2400 2425 2162 2612 
Q 1925 2800 1625 2800 
Q 1300 2800 1112 2675 
Q 925 2550 925 2325 
Q 925 2125 1012 2012 
Q 1100 1900 1325 1850 
Q 1500 1775 1775 1700 
Q 2025 1600 2250 1500 
Q 2450 1400 2587 1237 
Q 2725 1075 2725 875 
Q 2725 500 2462 287 
Q 2200 75 1700 75 
Q 1375 75 1225 150 
Q 1050 200 950 200 
Q 875 200 787 162 
Q 700 125 600 75 
L 525 1000 
L 675 1025 
Q 750 625 1000 425 
Q 1250 225 1700 225 
Q 2050 225 2237 350 
Q 2425 475 2425 725 
Q 2425 900 2325 1012 
Q 2225 1125 2125 1175 
Q 1875 1275 1575 1400 
Q 1275 1500 1050 1600 
Q 825 1700 725 1850 
Q 625 2000 625 2175 
z
" transform="scale(0.015625)"/>
       <path id="Times New Roman-29" d="M 275 5025
L 400 5150 
Q 1100 4500 1450 3787 
Q 1800 3075 1800 2300 
Q 1800 1500 1450 787 
Q 1100 75 400 -550 
L 275 -425 
Q 850 175 1137 850 
Q 1425 1525 1425 2300 
Q 1425 3050 1137 3737 
Q 850 4425 275 5025 
z
" transform="scale(0.015625)"/>
      </defs>
      <use xlink:href="#Times New Roman-42"/>
      <use xlink:href="#Times New Roman-69" x="50"/>
      <use xlink:href="#Times New Roman-74" x="100"/>
      <use xlink:href="#Times New Roman-72" x="150"/>
      <use xlink:href="#Times New Roman-61" x="200"/>
      <use xlink:href="#Times New Roman-74" x="250"/>
      <use xlink:href="#Times New Roman-65" x="300"/>
      <use xlink:href="#Times New Roman-20" x="350"/>
      <use xlink:href="#Times New Roman-28" x="400"/>
      <use xlink:href="#Times New Roman-6b" x="450"/>
      <use xlink:href="#Times New Roman-62" x="500"/>
      <use xlink:href="#Times New Roman-70" x="550"/>
      <use xlink:href="#Times New Roman-73" x="600"/>
      <use xlink:href="#Times New Roman-29" x="650"/>
     </g>
    </g>
   </g>
   <g id="line2d_14">
    <path d="M 173.045455 337.516497 
L 174.315754 337.516497 
L 175.586053 369.36 
L 187.018743 369.36 
L 188.289042 337.516497 
L 199.721733 337.516497 
L 200.992032 309.448904 
L 204.802929 309.448904 
L 204.802929 258.411195 
L 211.154424 258.411195 
L 213.695022 133.68032 
L 216.23562 133.68032 
L 217.505919 258.411195 
L 220.046517 258.411195 
L 221.316816 133.68032 
L 264.506981 133.68032 
L 265.77728 337.516497 
L 268.317878 337.516497 
L 268.317878 133.68032 
L 269.588177 133.68032 
L 269.588177 133.68032 
L 270.858476 309.448904 
L 270.858476 309.448904 
L 272.128775 309.448904 
L 272.128775 133.68032 
L 274.669373 133.68032 
L 274.669373 133.68032 
L 275.939672 258.411195 
L 275.939672 258.411195 
L 277.209971 133.68032 
L 277.209971 133.68032 
L 278.48027 133.68032 
L 278.48027 133.68032 
L 279.750569 258.411195 
L 279.750569 258.411195 
L 281.020868 258.411195 
L 281.020868 133.68032 
L 282.291167 258.411195 
L 282.291167 258.411195 
L 283.561466 258.411195 
L 284.831765 133.68032 
L 320.400137 133.68032 
L 320.400137 258.411195 
L 322.940735 258.411195 
L 322.940735 258.411195 
L 322.940735 337.516497 
L 325.481333 337.516497 
L 325.481333 309.448904 
L 326.751632 337.516497 
L 326.751632 337.516497 
L 349.617013 337.516497 
L 350.887312 133.68032 
L 352.157611 133.68032 
L 353.42791 258.411195 
L 355.968508 258.411195 
L 355.968508 258.411195 
L 357.238807 133.68032 
L 357.238807 133.68032 
L 358.509106 309.448904 
L 361.049704 309.448904 
L 362.320003 133.68032 
L 441.07854 133.68032 
L 441.07854 133.68032 
L 442.348839 258.411195 
L 493.160798 258.411195 
L 493.160798 251.551626 
L 494.431097 133.68032 
L 775.167173 133.68032 
L 782.788966 309.448904 
L 785.329564 309.448904 
L 786.599863 258.411195 
L 786.599863 258.411195 
L 787.870162 133.68032 
L 790.41076 337.516497 
L 792.951358 337.516497 
L 792.951358 337.516497 
L 794.221657 133.68032 
L 794.221657 133.68032 
L 795.491956 337.516497 
L 804.384049 337.516497 
L 804.384049 133.68032 
L 805.654348 258.411195 
L 808.194946 258.411195 
L 809.465245 133.68032 
L 933.954545 133.68032 
L 933.954545 133.68032 
" clip-path="url(#p8ec2f395a1)" style="fill: none; stroke: #ff0000; stroke-width: 1.5; stroke-linecap: square"/>
   </g>
   <g id="line2d_15">
    <path d="M 173.045455 357.528817 
L 174.315754 355.89259 
L 175.586053 354.724855 
L 176.856351 352.564195 
L 178.12665 351.1755 
L 179.396949 349.129516 
L 180.667248 346.549312 
L 183.207846 339.631006 
L 185.748444 331.336592 
L 188.289042 321.741587 
L 190.82964 311.206799 
L 192.099939 305.735926 
L 193.370238 301.305526 
L 194.640537 302.497035 
L 195.910836 303.927685 
L 197.181135 307.145599 
L 198.451434 310.70754 
L 202.262331 331.634469 
L 203.53263 335.284515 
L 204.802929 334.961465 
L 204.802929 329.679387 
L 207.343527 299.677689 
L 208.613826 279.39686 
L 209.884125 261.624913 
L 211.154424 238.872961 
L 213.695022 219.22145 
L 214.965321 200.555871 
L 216.23562 186.790584 
L 217.505919 175.123023 
L 218.776218 167.050968 
L 220.046517 161.110204 
L 221.316816 152.96263 
L 222.587115 147.697335 
L 223.857414 139.881202 
L 225.127713 137.036684 
L 228.93861 130.521142 
L 230.208909 124.555205 
L 231.479208 120.4982 
L 231.479208 114.591 
L 234.019806 102.18504 
L 235.290105 99.416039 
L 237.830703 97.653948 
L 237.830703 94.876557 
L 239.101002 92.208248 
L 241.6416 86.384956 
L 242.911899 81.555988 
L 244.182198 79.202337 
L 246.722796 78.145083 
L 246.722796 79.680619 
L 247.993095 79.294637 
L 249.263394 80.523906 
L 249.263394 79.978497 
L 250.533693 80.477756 
L 250.533693 79.282051 
L 251.803992 79.923956 
L 251.803992 81.052533 
L 253.07429 83.225779 
L 253.07429 84.954306 
L 255.614888 87.80302 
L 258.155486 88.444925 
L 259.425785 89.149761 
L 260.696084 89.200107 
L 261.966383 90.752425 
L 263.236682 94.473793 
L 267.047579 110.185772 
L 267.047579 115.241295 
L 268.317878 118.7445 
L 268.317878 121.672928 
L 269.588177 126.115914 
L 269.588177 141.332829 
L 270.858476 147.449803 
L 270.858476 151.754339 
L 272.128775 152.526303 
L 272.128775 151.57813 
L 273.399074 150.546048 
L 273.399074 152.505326 
L 274.669373 156.801472 
L 274.669373 161.332563 
L 275.939672 165.204968 
L 275.939672 168.494205 
L 277.209971 169.085764 
L 277.209971 173.318978 
L 278.48027 176.872528 
L 278.48027 187.17237 
L 279.750569 191.762198 
L 279.750569 195.277989 
L 281.020868 197.144966 
L 281.020868 197.921125 
L 282.291167 198.74763 
L 282.291167 201.273294 
L 283.561466 205.393231 
L 284.831765 210.075358 
L 288.642662 225.644692 
L 289.912961 231.467983 
L 291.18326 238.923306 
L 317.859539 252.533362 
L 317.859539 271.211528 
L 319.129838 294.206816 
L 319.129838 315.981227 
L 320.400137 335.746015 
L 320.400137 348.244275 
L 321.670436 353.987853 
L 321.670436 353.689976 
L 322.940735 353.312385 
L 322.940735 353.077439 
L 324.211034 352.938989 
L 324.211034 352.372603 
L 325.481333 352.003403 
L 325.481333 351.588053 
L 326.751632 351.034253 
L 326.751632 350.404935 
L 328.02193 349.658144 
L 328.02193 348.93233 
L 329.292229 347.958984 
L 330.562528 346.750693 
L 331.832827 345.017971 
L 333.103126 342.815357 
L 334.373425 339.920493 
L 335.643724 336.576715 
L 338.184322 328.836101 
L 339.454621 324.867201 
L 348.346714 318.032804 
L 349.617013 308.223831 
L 352.157611 281.452633 
L 353.42791 267.007682 
L 354.698209 254.714999 
L 355.968508 244.658493 
L 355.968508 237.866052 
L 357.238807 233.653815 
L 357.238807 232.651101 
L 358.509106 232.114083 
L 359.779405 230.595328 
L 359.779405 227.562014 
L 361.049704 222.393214 
L 362.320003 213.851268 
L 363.590302 204.101031 
L 364.860601 195.328334 
L 371.212096 156.893772 
L 372.482395 153.067517 
L 377.563591 148.196594 
L 378.83389 142.406866 
L 381.374488 123.200073 
L 382.644787 111.087795 
L 383.915086 100.519444 
L 385.185385 91.490825 
L 386.455684 91.35657 
L 386.455684 95.975766 
L 387.725983 101.081635 
L 388.996282 102.529067 
L 390.266581 100.11668 
L 391.53688 93.789934 
L 394.077478 72.946914 
L 395.347777 66.96 
L 396.618076 70.727519 
L 400.428973 75.002687 
L 401.699272 79.840047 
L 402.96957 80.146315 
L 404.239869 80.977015 
L 405.510168 77.146565 
L 406.780467 73.739855 
L 408.050766 76.370405 
L 414.402261 85.671729 
L 416.942859 107.03079 
L 416.942859 121.060391 
L 418.213158 129.631706 
L 419.483457 133.81877 
L 420.753756 135.152924 
L 420.753756 139.923157 
L 422.024055 139.470047 
L 422.024055 140.690925 
L 423.294354 142.364911 
L 424.564653 141.546798 
L 424.564653 143.749411 
L 425.834952 147.638598 
L 425.834952 158.827876 
L 427.105251 163.707191 
L 427.105251 168.678805 
L 428.37555 168.657827 
L 428.37555 167.315282 
L 429.645849 168.506791 
L 429.645849 173.415473 
L 430.916148 175.861423 
L 430.916148 180.665219 
L 432.186447 184.487279 
L 432.186447 196.507257 
L 433.456746 201.894221 
L 433.456746 205.913467 
L 434.727045 207.574867 
L 434.727045 207.788835 
L 435.997344 207.029458 
L 435.997344 207.654581 
L 437.267643 210.23059 
L 437.267643 213.784141 
L 438.537942 217.874709 
L 438.537942 221.461823 
L 439.808241 225.514632 
L 439.808241 228.99686 
L 441.07854 233.930715 
L 441.07854 239.376416 
L 442.348839 245.338157 
L 444.889437 255.193281 
L 448.700334 268.182409 
L 449.970633 273.99731 
L 452.511231 287.057761 
L 455.051829 299.866485 
L 456.322128 307.43089 
L 493.160798 313.757636 
L 493.160798 317.856595 
L 494.431097 319.090059 
L 495.701396 317.365727 
L 496.971695 312.188536 
L 496.971695 305.614258 
L 498.241994 299.635735 
L 502.052891 295.603902 
L 502.052891 293.032089 
L 503.32319 290.200156 
L 505.863788 285.29567 
L 507.134087 278.222133 
L 507.134087 270.435368 
L 510.944984 242.120243 
L 513.485582 233.947497 
L 514.755881 224.155305 
L 514.755881 214.593863 
L 516.02618 206.886813 
L 518.566778 193.645957 
L 518.566778 187.91077 
L 519.837077 182.376965 
L 521.107376 178.034669 
L 523.647974 168.502596 
L 524.918273 161.970272 
L 527.458871 154.758285 
L 528.72917 144.659825 
L 529.999469 135.559883 
L 531.269768 127.559151 
L 533.810366 122.352591 
L 535.080665 118.257827 
L 536.350964 115.518195 
L 537.621263 114.477722 
L 538.891562 111.649986 
L 540.161861 107.794363 
L 542.702459 99.466385 
L 543.972758 96.118412 
L 545.243057 94.205284 
L 546.513356 93.05573 
L 549.053954 88.948379 
L 550.324253 96.47083 
L 552.864851 118.157136 
L 554.135149 121.601605 
L 555.405448 128.356287 
L 555.405448 130.302978 
L 556.675747 128.817787 
L 559.216345 125.24326 
L 560.486644 126.606783 
L 561.756943 125.348146 
L 563.027242 117.712418 
L 564.297541 111.897518 
L 565.56784 109.787204 
L 566.838139 111.733895 
L 568.108438 116.848154 
L 569.378737 124.328651 
L 570.649036 132.694388 
L 570.649036 137.867384 
L 571.919335 143.975966 
L 574.459933 147.374285 
L 575.730232 150.260758 
L 575.730232 152.115149 
L 577.000531 155.81554 
L 579.541129 159.499149 
L 579.541129 162.561831 
L 580.811428 165.989518 
L 583.352026 169.941637 
L 584.622325 176.247405 
L 584.622325 183.354506 
L 585.892624 191.262938 
L 589.703521 210.729849 
L 590.97382 217.060791 
L 592.244119 222.477123 
L 593.514418 229.378646 
L 593.514418 235.235502 
L 594.784717 241.532879 
L 594.784717 245.829025 
L 596.055016 250.590867 
L 596.055016 254.320626 
L 597.325315 258.134295 
L 597.325315 261.050136 
L 598.595614 264.779895 
L 598.595614 271.727568 
L 599.865913 274.249037 
L 599.865913 276.799873 
L 601.136212 279.115765 
L 601.136212 281.167342 
L 602.406511 283.814674 
L 603.67681 287.162647 
L 606.217408 296.065402 
L 607.487707 301.179662 
L 607.487707 305.693972 
L 608.758006 310.040463 
L 608.758006 313.497518 
L 610.028305 317.692973 
L 610.028305 321.934578 
L 611.298604 326.075492 
L 613.839202 332.24281 
L 615.109501 334.441229 
L 617.650099 337.77242 
L 618.920398 340.226761 
L 620.190697 343.083866 
L 621.460996 345.617921 
L 622.731295 347.858294 
L 634.163985 349.108539 
L 635.434284 349.087562 
L 636.704583 347.514266 
L 637.974882 344.925671 
L 639.245181 341.489593 
L 644.326377 336.685797 
L 645.596676 331.151992 
L 648.137274 317.638432 
L 648.137274 310.413858 
L 650.677872 298.481985 
L 653.21847 292.897834 
L 654.488769 286.873161 
L 654.488769 280.953374 
L 657.029367 268.371205 
L 659.569965 261.427727 
L 660.840264 254.173785 
L 664.651161 227.805351 
L 668.462058 208.174817 
L 668.462058 201.592149 
L 672.272955 183.232838 
L 673.543254 178.332546 
L 673.543254 173.931514 
L 674.813553 169.555655 
L 676.083852 163.296036 
L 677.354151 157.84614 
L 679.894749 144.210912 
L 681.165048 135.547297 
L 683.705646 123.749678 
L 684.975945 118.173918 
L 686.246244 111.234636 
L 687.516543 107.874076 
L 690.057141 98.757353 
L 691.32744 92.837566 
L 692.597739 90.697884 
L 697.678935 85.315115 
L 700.219533 82.248238 
L 701.489832 84.178147 
L 702.760131 83.536242 
L 702.760131 84.744533 
L 704.03043 82.667783 
L 705.300728 82.097201 
L 706.571027 80.200856 
L 707.841326 79.093256 
L 709.111625 79.349178 
L 709.111625 81.656679 
L 710.381924 85.189252 
L 711.652223 87.668766 
L 715.46312 90.903461 
L 716.733419 93.865452 
L 716.733419 96.638648 
L 718.003718 98.606316 
L 719.274017 101.383708 
L 720.544316 105.835085 
L 720.544316 110.571754 
L 723.084914 118.664786 
L 725.625512 121.589019 
L 726.895811 126.174651 
L 728.16611 129.761765 
L 729.436409 136.717829 
L 729.436409 145.054198 
L 730.706708 154.485581 
L 731.977007 161.26124 
L 731.977007 167.415973 
L 733.247306 171.573669 
L 734.517605 174.544051 
L 735.787904 177.954955 
L 739.598801 183.11117 
L 742.139399 199.339189 
L 743.409698 210.41519 
L 743.409698 220.895437 
L 744.679997 229.886297 
L 747.220595 237.232538 
L 748.490894 247.087662 
L 751.031492 257.219685 
L 751.031492 266.881818 
L 752.301791 274.542719 
L 752.301791 280.613542 
L 753.57209 283.600706 
L 754.842389 284.553074 
L 754.842389 288.467434 
L 756.112688 291.307757 
L 756.112688 294.139689 
L 757.382987 297.114266 
L 757.382987 299.644126 
L 758.653286 302.291458 
L 758.653286 304.720626 
L 761.193884 310.069831 
L 762.464183 313.5143 
L 763.734482 317.281818 
L 767.545379 329.79686 
L 770.085977 337.130515 
L 771.356276 340.31067 
L 773.896874 345.756371 
L 773.896874 348.030307 
L 775.167173 350.035735 
L 782.788966 351.265003 
L 784.059265 351.751676 
L 785.329564 351.168507 
L 786.599863 350.379762 
L 786.599863 349.477739 
L 787.870162 348.827444 
L 790.41076 347.396793 
L 791.681059 345.097684 
L 792.951358 341.313384 
L 792.951358 336.736143 
L 794.221657 331.961715 
L 794.221657 328.420751 
L 795.491956 325.693705 
L 796.762255 323.407182 
L 803.11375 318.611777 
L 804.384049 312.04589 
L 804.384049 303.634003 
L 806.924647 286.428443 
L 806.924647 280.122674 
L 809.465245 269.52915 
L 810.735544 263.508672 
L 810.735544 258.151076 
L 812.005843 252.676008 
L 815.81674 233.737724 
L 818.357338 226.257228 
L 819.627637 217.874709 
L 820.897936 208.237749 
L 822.168235 200.782426 
L 824.708833 191.720243 
L 827.249431 173.923123 
L 827.249431 168.842427 
L 829.790029 156.709172 
L 831.060328 152.471762 
L 834.871225 147.898716 
L 836.141524 148.087512 
L 837.411823 144.361948 
L 838.682122 148.259526 
L 839.952421 143.770389 
L 841.22272 141.832089 
L 842.493019 127.521392 
L 843.763318 118.480186 
L 845.033617 102.180844 
L 846.303916 95.87088 
L 847.574215 87.366693 
L 848.844514 86.959734 
L 850.114813 83.456529 
L 851.385112 83.129283 
L 852.655411 79.940738 
L 853.92571 80.049819 
L 855.196008 77.582892 
L 856.466307 79.592515 
L 857.736606 78.824747 
L 859.006905 81.220351 
L 860.277204 79.823265 
L 861.547503 82.44962 
L 861.547503 83.913833 
L 862.817802 87.379279 
L 864.088101 89.317579 
L 866.628699 91.981693 
L 867.898998 94.998225 
L 869.169297 95.988353 
L 870.439596 98.866435 
L 872.980194 102.352858 
L 874.250493 109.921458 
L 874.250493 115.572736 
L 875.520792 123.359501 
L 875.520792 129.866651 
L 876.791091 134.687229 
L 878.06139 137.368125 
L 879.331689 138.437966 
L 880.601988 142.260025 
L 883.142586 145.339489 
L 884.412885 151.469049 
L 884.412885 156.914749 
L 885.683184 163.916963 
L 886.953483 169.488527 
L 886.953483 176.948046 
L 888.223782 182.893006 
L 888.223782 187.675825 
L 889.494081 190.742702 
L 889.494081 192.257261 
L 890.76438 192.999857 
L 890.76438 196.184207 
L 892.034679 201.139039 
L 892.034679 207.121758 
L 893.304978 212.504527 
L 893.304978 216.259459 
L 894.575277 218.948746 
L 894.575277 220.643709 
L 895.845576 223.009946 
L 895.845576 232.168624 
L 897.115875 237.61852 
L 897.115875 241.834952 
L 898.386174 243.613825 
L 898.386174 244.188602 
L 899.656473 244.066934 
L 899.656473 245.124189 
L 900.926772 247.834453 
L 900.926772 251.228576 
L 902.197071 255.906508 
L 902.197071 260.886513 
L 903.46737 266.273477 
L 907.278267 279.39686 
L 908.548566 283.49582 
L 909.818865 288.328984 
L 917.440659 295.759134 
L 922.521855 332.909888 
L 923.792154 339.026861 
L 925.062453 343.062889 
L 926.332752 345.580161 
L 927.603051 347.690475 
L 928.87335 349.448371 
L 930.143649 350.795112 
L 931.413947 351.827194 
L 932.684246 352.569789 
L 932.684246 353.220085 
L 933.954545 353.576699 
L 933.954545 353.576699 
" clip-path="url(#p8ec2f395a1)" style="fill: none; stroke: #008000; stroke-width: 1.5; stroke-linecap: square"/>
   </g>
   <g id="patch_3">
    <path d="M 135 384.48 
L 135 51.84 
" style="fill: none; stroke: #000000; stroke-width: 0.8; stroke-linejoin: miter; stroke-linecap: square"/>
   </g>
   <g id="patch_4">
    <path d="M 972 384.48 
L 972 51.84 
" style="fill: none; stroke: #000000; stroke-width: 0.8; stroke-linejoin: miter; stroke-linecap: square"/>
   </g>
   <g id="patch_5">
    <path d="M 135 384.48 
L 972 384.48 
" style="fill: none; stroke: #000000; stroke-width: 0.8; stroke-linejoin: miter; stroke-linecap: square"/>
   </g>
   <g id="patch_6">
    <path d="M 135 51.84 
L 972 51.84 
" style="fill: none; stroke: #000000; stroke-width: 0.8; stroke-linejoin: miter; stroke-linecap: square"/>
   </g>
  </g>
  <g id="axes_2">
   <g id="matplotlib.axis_3">
    <g id="ytick_7">
     <g id="line2d_16">
      <path d="M 135 369.36 
L 972 369.36 
" clip-path="url(#p8ec2f395a1)" style="fill: none; stroke: #b0b0b0; stroke-width: 0.8; stroke-linecap: square"/>
     </g>
     <g id="line2d_17">
      <defs>
       <path id="m53a3cffe8b" d="M 0 0 
L 3.5 0 
" style="stroke: #000000; stroke-width: 0.8"/>
      </defs>
      <g>
       <use xlink:href="#m53a3cffe8b" x="972" y="369.36" style="stroke: #000000; stroke-width: 0.8"/>
      </g>
     </g>
     <g id="text_15">
      <!-- 0 -->
      <g transform="translate(979 372.934219) scale(0.1 -0.1)">
       <use xlink:href="#Times New Roman-30"/>
      </g>
     </g>
    </g>
    <g id="ytick_8">
     <g id="line2d_18">
      <path d="M 135 319.422386 
L 972 319.422386 
" clip-path="url(#p8ec2f395a1)" style="fill: none; stroke: #b0b0b0; stroke-width: 0.8; stroke-linecap: square"/>
     </g>
     <g id="line2d_19">
      <g>
       <use xlink:href="#m53a3cffe8b" x="972" y="319.422386" style="stroke: #000000; stroke-width: 0.8"/>
      </g>
     </g>
     <g id="text_16">
      <!-- 5 -->
      <g transform="translate(979 322.996604) scale(0.1 -0.1)">
       <use xlink:href="#Times New Roman-35"/>
      </g>
     </g>
    </g>
    <g id="ytick_9">
     <g id="line2d_20">
      <path d="M 135 269.484771 
L 972 269.484771 
" clip-path="url(#p8ec2f395a1)" style="fill: none; stroke: #b0b0b0; stroke-width: 0.8; stroke-linecap: square"/>
     </g>
     <g id="line2d_21">
      <g>
       <use xlink:href="#m53a3cffe8b" x="972" y="269.484771" style="stroke: #000000; stroke-width: 0.8"/>
      </g>
     </g>
     <g id="text_17">
      <!-- 10 -->
      <g transform="translate(979 273.05899) scale(0.1 -0.1)">
       <use xlink:href="#Times New Roman-31"/>
       <use xlink:href="#Times New Roman-30" x="50"/>
      </g>
     </g>
    </g>
    <g id="ytick_10">
     <g id="line2d_22">
      <path d="M 135 219.547157 
L 972 219.547157 
" clip-path="url(#p8ec2f395a1)" style="fill: none; stroke: #b0b0b0; stroke-width: 0.8; stroke-linecap: square"/>
     </g>
     <g id="line2d_23">
      <g>
       <use xlink:href="#m53a3cffe8b" x="972" y="219.547157" style="stroke: #000000; stroke-width: 0.8"/>
      </g>
     </g>
     <g id="text_18">
      <!-- 15 -->
      <g transform="translate(979 223.121376) scale(0.1 -0.1)">
       <use xlink:href="#Times New Roman-31"/>
       <use xlink:href="#Times New Roman-35" x="50"/>
      </g>
     </g>
    </g>
    <g id="ytick_11">
     <g id="line2d_24">
      <path d="M 135 169.609543 
L 972 169.609543 
" clip-path="url(#p8ec2f395a1)" style="fill: none; stroke: #b0b0b0; stroke-width: 0.8; stroke-linecap: square"/>
     </g>
     <g id="line2d_25">
      <g>
       <use xlink:href="#m53a3cffe8b" x="972" y="169.609543" style="stroke: #000000; stroke-width: 0.8"/>
      </g>
     </g>
     <g id="text_19">
      <!-- 20 -->
      <g transform="translate(979 173.183762) scale(0.1 -0.1)">
       <use xlink:href="#Times New Roman-32"/>
       <use xlink:href="#Times New Roman-30" x="50"/>
      </g>
     </g>
    </g>
    <g id="ytick_12">
     <g id="line2d_26">
      <path d="M 135 119.671928 
L 972 119.671928 
" clip-path="url(#p8ec2f395a1)" style="fill: none; stroke: #b0b0b0; stroke-width: 0.8; stroke-linecap: square"/>
     </g>
     <g id="line2d_27">
      <g>
       <use xlink:href="#m53a3cffe8b" x="972" y="119.671928" style="stroke: #000000; stroke-width: 0.8"/>
      </g>
     </g>
     <g id="text_20">
      <!-- 25 -->
      <g transform="translate(979 123.246147) scale(0.1 -0.1)">
       <use xlink:href="#Times New Roman-32"/>
       <use xlink:href="#Times New Roman-35" x="50"/>
      </g>
     </g>
    </g>
    <g id="ytick_13">
     <g id="line2d_28">
      <path d="M 135 69.734314 
L 972 69.734314 
" clip-path="url(#p8ec2f395a1)" style="fill: none; stroke: #b0b0b0; stroke-width: 0.8; stroke-linecap: square"/>
     </g>
     <g id="line2d_29">
      <g>
       <use xlink:href="#m53a3cffe8b" x="972" y="69.734314" style="stroke: #000000; stroke-width: 0.8"/>
      </g>
     </g>
     <g id="text_21">
      <!-- 30 -->
      <g transform="translate(979 73.308533) scale(0.1 -0.1)">
       <use xlink:href="#Times New Roman-33"/>
       <use xlink:href="#Times New Roman-30" x="50"/>
      </g>
     </g>
    </g>
    <g id="text_22">
     <!-- buffer (s) -->
     <g transform="translate(1000.617188 243.16) rotate(-90) scale(0.1 -0.1)">
      <defs>
       <path id="Times New Roman-75" d="M 1450 325
Q 1750 325 1962 475 
Q 2175 625 2275 950 
L 2275 2525 
Q 2275 2625 2225 2687 
Q 2175 2750 2050 2750 
L 1900 2750 
L 1900 2900 
L 2050 2900 
Q 2200 2900 2325 2925 
Q 2450 2950 2575 3050 
L 2625 3050 
L 2625 600 
Q 2625 500 2687 450 
Q 2750 400 2850 400 
L 3000 400 
L 3000 250 
L 2850 250 
Q 2725 250 2600 212 
Q 2475 175 2325 100 
L 2275 100 
L 2275 625 
Q 2150 350 1900 212 
Q 1650 75 1325 75 
Q 925 75 725 300 
Q 525 525 525 1025 
L 525 2525 
Q 525 2625 475 2687 
Q 425 2750 300 2750 
L 150 2750 
L 150 2900 
L 300 2900 
Q 450 2900 575 2925 
Q 700 2950 825 3050 
L 875 3050 
L 875 975 
Q 875 625 1025 475 
Q 1175 325 1450 325 
z
" transform="scale(0.015625)"/>
       <path id="Times New Roman-66" d="M 1125 3325
Q 1125 3850 1450 4112 
Q 1775 4375 2175 4375 
Q 2600 4375 2812 4225 
Q 3025 4075 3025 3875 
Q 3025 3775 2975 3700 
Q 2925 3625 2775 3625 
Q 2675 3625 2612 3675 
Q 2550 3725 2550 3850 
Q 2550 3875 2575 3925 
Q 2575 3975 2575 4000 
Q 2575 4100 2500 4162 
Q 2425 4225 2150 4225 
Q 1850 4225 1662 4037 
Q 1475 3850 1475 3400 
L 1475 2900 
L 2525 2900 
L 2525 2750 
L 1475 2750 
L 1475 450 
Q 1475 350 1537 300 
Q 1600 250 1700 250 
L 2300 250 
L 2300 100 
L 475 100 
L 475 250 
L 900 250 
Q 1025 250 1075 300 
Q 1125 350 1125 450 
L 1125 2750 
L 350 2750 
L 350 2900 
L 1125 2900 
L 1125 3325 
z
" transform="scale(0.015625)"/>
      </defs>
      <use xlink:href="#Times New Roman-62"/>
      <use xlink:href="#Times New Roman-75" x="50"/>
      <use xlink:href="#Times New Roman-66" x="100"/>
      <use xlink:href="#Times New Roman-66" x="150"/>
      <use xlink:href="#Times New Roman-65" x="200"/>
      <use xlink:href="#Times New Roman-72" x="250"/>
      <use xlink:href="#Times New Roman-20" x="300"/>
      <use xlink:href="#Times New Roman-28" x="350"/>
      <use xlink:href="#Times New Roman-73" x="400"/>
      <use xlink:href="#Times New Roman-29" x="450"/>
     </g>
    </g>
   </g>
   <g id="line2d_30">
    <path d="M 173.045455 369.36 
L 175.586053 316.184279 
L 178.12665 220.927762 
L 179.396949 176.538771 
L 180.667248 143.455102 
L 181.937547 124.245984 
L 183.207846 112.077248 
L 184.478145 95.155824 
L 185.748444 81.912034 
L 187.018743 76.047742 
L 189.559341 77.502375 
L 190.82964 75.560357 
L 192.099939 74.589349 
L 193.370238 72.720565 
L 194.640537 73.552859 
L 195.910836 73.275427 
L 197.181135 72.786047 
L 198.451434 71.818913 
L 199.721733 70.994372 
L 200.992032 71.479875 
L 202.262331 72.308292 
L 203.53263 75.490999 
L 204.802929 75.837789 
L 204.802929 79.947295 
L 206.073228 79.574524 
L 207.343527 78.603514 
L 208.613826 79.487771 
L 209.884125 82.496138 
L 211.154424 87.628616 
L 213.695022 89.427626 
L 214.965321 91.777205 
L 216.23562 93.857939 
L 217.505919 92.613791 
L 218.776218 91.998157 
L 220.046517 92.830451 
L 222.587115 93.315956 
L 223.857414 85.409167 
L 225.127713 85.131735 
L 227.668311 84.022012 
L 228.93861 88.183479 
L 230.208909 82.773571 
L 231.479208 74.728066 
L 231.479208 70.219809 
L 232.749507 68.555225 
L 234.019806 69.803669 
L 235.290105 69.734314 
L 249.263394 69.734314 
L 249.263394 77.310541 
L 250.533693 77.310541 
L 250.533693 81.235781 
L 251.803992 73.659554 
L 251.803992 73.933806 
L 253.07429 70.008567 
L 253.07429 70.008567 
L 254.344589 69.734314 
L 255.614888 69.734314 
L 258.155486 82.455217 
L 259.425785 92.585434 
L 260.696084 100.124966 
L 263.236682 84.580853 
L 267.047579 354.401532 
L 267.047579 272.236565 
L 268.317878 184.479516 
L 269.588177 177.996469 
L 269.588177 186.498378 
L 269.588177 184.14782 
L 270.858476 250.785691 
L 270.858476 248.232671 
L 272.128775 183.531077 
L 273.399074 178.425037 
L 273.399074 233.724397 
L 274.669373 240.686197 
L 274.669373 296.188019 
L 275.939672 291.486902 
L 275.939672 242.831936 
L 275.939672 245.002743 
L 277.209971 240.031999 
L 277.209971 226.725287 
L 278.48027 184.184966 
L 278.48027 210.798389 
L 278.48027 208.447831 
L 279.750569 248.907221 
L 279.750569 239.415111 
L 281.020868 208.318596 
L 282.291167 220.520767 
L 282.291167 211.028657 
L 284.831765 201.626423 
L 286.102064 225.761139 
L 291.18326 197.554437 
L 317.859539 252.472399 
L 317.859539 309.74092 
L 319.129838 369.36 
L 319.129838 369.36 
L 493.160798 369.36 
L 493.160798 369.36 
L 495.701396 339.628351 
L 496.971695 339.628351 
L 496.971695 340.368032 
L 498.241994 338.611236 
L 502.052891 324.878389 
L 502.052891 320.462743 
L 503.32319 321.15632 
L 505.863788 317.965459 
L 507.134087 316.92958 
L 507.134087 314.085711 
L 508.404386 309.675034 
L 509.674685 302.247131 
L 510.944984 298.987514 
L 513.485582 298.820979 
L 514.755881 300.69577 
L 514.755881 296.673019 
L 516.02618 289.598524 
L 518.566778 281.199834 
L 518.566778 285.222587 
L 519.837077 286.126371 
L 521.107376 285.298343 
L 522.377675 286.173951 
L 523.647974 288.761846 
L 524.918273 293.062027 
L 527.458871 293.989721 
L 528.72917 298.337606 
L 529.999469 261.573546 
L 531.269768 262.401455 
L 533.810366 259.072281 
L 535.080665 295.676065 
L 536.350964 285.285016 
L 538.891562 254.234283 
L 541.43216 221.798824 
L 542.702459 206.952262 
L 543.972758 194.341922 
L 546.513356 173.771001 
L 549.053954 154.073385 
L 551.594552 132.036795 
L 554.135149 110.119732 
L 555.405448 95.42554 
L 555.405448 100.974164 
L 556.675747 89.044624 
L 559.216345 85.964034 
L 560.486644 66.96 
L 561.756943 69.734314 
L 598.595614 69.734314 
L 598.595614 69.734314 
L 598.595614 83.207486 
L 599.865913 83.207486 
L 599.865913 90.31318 
L 601.136212 76.840008 
L 601.136212 77.578223 
L 602.406511 70.47253 
L 603.67681 70.47253 
L 604.947109 69.734314 
L 607.487707 69.734314 
L 607.487707 96.194031 
L 608.758006 96.194031 
L 608.758006 119.154092 
L 610.028305 92.694375 
L 610.028305 112.154781 
L 611.298604 105.15547 
L 612.568903 117.616564 
L 617.650099 75.620696 
L 618.920398 70.158913 
L 620.190697 68.196786 
L 621.460996 69.734314 
L 622.731295 69.734314 
L 634.163985 98.893193 
L 636.704583 150.222279 
L 639.245181 136.244936 
L 644.326377 142.538434 
L 645.596676 150.327599 
L 646.866975 162.458743 
L 648.137274 163.153916 
L 648.137274 166.672486 
L 649.407573 167.25324 
L 650.677872 167.391956 
L 653.21847 168.313332 
L 654.488769 168.215935 
L 654.488769 173.58023 
L 655.759068 174.878304 
L 657.029367 176.82649 
L 659.569965 176.872104 
L 660.840264 177.518196 
L 662.110563 180.776139 
L 663.380862 182.02458 
L 664.651161 182.371366 
L 665.92146 182.440723 
L 667.191759 183.041823 
L 668.462058 184.313384 
L 668.462058 183.619807 
L 669.732357 179.966962 
L 671.002656 185.05001 
L 672.272955 187.360341 
L 673.543254 187.776487 
L 673.543254 195.050688 
L 676.083852 210.183844 
L 677.354151 199.676136 
L 679.894749 218.522917 
L 681.165048 228.552412 
L 682.435347 219.256912 
L 684.975945 241.979608 
L 686.246244 252.630817 
L 687.516543 241.915038 
L 688.786842 247.127754 
L 690.057141 253.565112 
L 691.32744 261.227112 
L 692.597739 254.185262 
L 696.408636 253.192491 
L 697.678935 259.818194 
L 700.219533 269.207328 
L 701.489832 270.451367 
L 702.760131 262.128431 
L 702.760131 256.300214 
L 704.03043 248.397826 
L 705.300728 246.455809 
L 706.571027 241.325497 
L 707.841326 243.126637 
L 709.111625 242.151302 
L 709.111625 239.746897 
L 710.381924 238.408141 
L 711.652223 239.660906 
L 716.733419 244.932101 
L 716.733419 243.891736 
L 718.003718 240.007698 
L 719.274017 236.955954 
L 720.544316 233.557421 
L 720.544316 234.620908 
L 721.814615 235.360725 
L 723.084914 236.747882 
L 725.625512 237.212316 
L 726.895811 237.72094 
L 728.16611 241.050112 
L 729.436409 241.186778 
L 729.436409 247.93897 
L 730.706708 249.652527 
L 731.977007 250.072772 
L 731.977007 251.643516 
L 733.247306 254.507573 
L 734.517605 258.664943 
L 735.787904 254.087329 
L 739.598801 256.239291 
L 740.8691 260.539475 
L 742.139399 266.458007 
L 743.409698 267.357787 
L 743.409698 267.542741 
L 744.679997 266.895401 
L 747.220595 265.787546 
L 748.490894 264.357891 
L 751.031492 264.912755 
L 751.031492 267.129587 
L 752.301791 266.848418 
L 752.301791 272.535758 
L 754.842389 274.89467 
L 754.842389 320.843841 
L 756.112688 335.616304 
L 756.112688 349.592277 
L 757.382987 324.032804 
L 757.382987 329.599514 
L 758.653286 298.24829 
L 758.653286 307.369962 
L 759.923585 302.896384 
L 761.193884 313.336229 
L 763.734482 299.915495 
L 765.004781 320.826874 
L 766.27508 343.975043 
L 767.545379 369.36 
L 874.250493 369.36 
L 874.250493 369.36 
L 875.520792 354.933576 
L 875.520792 354.933576 
L 876.791091 338.589128 
L 878.06139 353.015552 
L 879.331689 353.015552 
L 880.601988 354.933576 
L 884.412885 354.933576 
L 884.412885 369.36 
L 933.954545 369.36 
L 933.954545 369.36 
" clip-path="url(#p8ec2f395a1)" style="fill: none; stroke: #1f77b4; stroke-width: 1.5; stroke-linecap: square"/>
   </g>
   <g id="patch_7">
    <path d="M 135 384.48 
L 135 51.84 
" style="fill: none; stroke: #000000; stroke-width: 0.8; stroke-linejoin: miter; stroke-linecap: square"/>
   </g>
   <g id="patch_8">
    <path d="M 972 384.48 
L 972 51.84 
" style="fill: none; stroke: #000000; stroke-width: 0.8; stroke-linejoin: miter; stroke-linecap: square"/>
   </g>
   <g id="patch_9">
    <path d="M 135 384.48 
L 972 384.48 
" style="fill: none; stroke: #000000; stroke-width: 0.8; stroke-linejoin: miter; stroke-linecap: square"/>
   </g>
   <g id="patch_10">
    <path d="M 135 51.84 
L 972 51.84 
" style="fill: none; stroke: #000000; stroke-width: 0.8; stroke-linejoin: miter; stroke-linecap: square"/>
   </g>
   <g id="text_23">
    <!-- ./comyco/log_comyco_4_wave -->
    <g transform="translate(475.5 45.84) scale(0.12 -0.12)">
     <defs>
      <path id="Times New Roman-2e" d="M 800 25
Q 650 25 537 125 
Q 425 225 425 400 
Q 425 575 537 675 
Q 650 775 800 775 
Q 950 775 1062 662 
Q 1175 550 1175 400 
Q 1175 225 1062 125 
Q 950 25 800 25 
z
" transform="scale(0.015625)"/>
      <path id="Times New Roman-2f" d="M 400 -475
L 225 -375 
L 2775 4975 
L 2950 4875 
L 400 -475 
z
" transform="scale(0.015625)"/>
      <path id="Times New Roman-63" d="M 2150 2225
Q 2150 2300 2175 2325 
Q 2175 2350 2200 2425 
Q 2225 2525 2100 2662 
Q 1975 2800 1675 2800 
Q 1300 2800 1037 2437 
Q 775 2075 775 1475 
Q 775 925 1000 587 
Q 1225 250 1750 250 
Q 2100 250 2337 475 
Q 2575 700 2675 1000 
L 2800 950 
Q 2700 575 2425 312 
Q 2150 50 1675 50 
Q 1075 50 725 425 
Q 375 800 375 1500 
Q 375 2125 750 2537 
Q 1125 2950 1725 2950 
Q 2150 2950 2387 2725 
Q 2625 2500 2625 2275 
Q 2625 2125 2562 2062 
Q 2500 2000 2375 2000 
Q 2275 2000 2212 2062 
Q 2150 2125 2150 2225 
z
" transform="scale(0.015625)"/>
      <path id="Times New Roman-6f" d="M 2900 1500
Q 2900 875 2525 462 
Q 2150 50 1600 50 
Q 1025 50 662 475 
Q 300 900 300 1500 
Q 300 2050 662 2500 
Q 1025 2950 1600 2950 
Q 2200 2950 2550 2500 
Q 2900 2050 2900 1500 
z
M 700 1475 
Q 700 825 962 512 
Q 1225 200 1600 200 
Q 2025 200 2262 537 
Q 2500 875 2500 1475 
Q 2500 2125 2237 2462 
Q 1975 2800 1600 2800 
Q 1250 2800 975 2462 
Q 700 2125 700 1475 
z
" transform="scale(0.015625)"/>
      <path id="Times New Roman-6d" d="M 175 2900
Q 300 2900 425 2925 
Q 550 2950 625 3000 
L 675 3000 
L 675 2575 
Q 800 2775 950 2862 
Q 1100 2950 1275 2950 
Q 1500 2950 1625 2862 
Q 1750 2775 1775 2575 
Q 1900 2775 2062 2862 
Q 2225 2950 2400 2950 
Q 2700 2950 2812 2775 
Q 2925 2600 2925 2325 
L 2925 425 
Q 2925 325 2975 287 
Q 3025 250 3125 250 
L 3175 250 
L 3175 100 
L 2325 100 
L 2325 250 
L 2375 250 
Q 2475 250 2525 287 
Q 2575 325 2575 425 
L 2575 2300 
Q 2575 2575 2512 2662 
Q 2450 2750 2325 2750 
Q 2150 2750 2012 2625 
Q 1875 2500 1800 2275 
L 1800 425 
Q 1800 325 1850 287 
Q 1900 250 2000 250 
L 2050 250 
L 2050 100 
L 1200 100 
L 1200 250 
L 1250 250 
Q 1350 250 1400 287 
Q 1450 325 1450 425 
L 1450 2300 
Q 1450 2525 1400 2637 
Q 1350 2750 1200 2750 
Q 1025 2750 887 2625 
Q 750 2500 675 2250 
L 675 425 
Q 675 325 725 287 
Q 775 250 875 250 
L 925 250 
L 925 100 
L 75 100 
L 75 250 
L 125 250 
Q 225 250 275 287 
Q 325 325 325 425 
L 325 2600 
Q 325 2675 300 2712 
Q 275 2750 200 2750 
L 100 2750 
L 100 2900 
L 175 2900 
z
" transform="scale(0.015625)"/>
      <path id="Times New Roman-79" d="M 1650 800
L 1700 800 
L 2250 2475 
Q 2300 2600 2237 2675 
Q 2175 2750 2075 2750 
L 1925 2750 
L 1925 2900 
L 2975 2900 
L 2975 2750 
L 2825 2750 
Q 2725 2750 2625 2675 
Q 2525 2600 2475 2475 
L 1625 0 
Q 1500 -375 1312 -587 
Q 1125 -800 825 -800 
Q 650 -800 550 -737 
Q 450 -675 450 -550 
Q 450 -475 512 -400 
Q 575 -325 700 -325 
Q 800 -325 900 -425 
Q 1000 -500 1050 -500 
Q 1125 -500 1175 -475 
Q 1225 -450 1250 -375 
Q 1325 -250 1400 -62 
Q 1475 125 1525 325 
L 675 2525 
Q 650 2625 562 2687 
Q 475 2750 375 2750 
L 275 2750 
L 275 2900 
L 1325 2900 
L 1325 2750 
L 1225 2750 
Q 1125 2750 1075 2687 
Q 1025 2625 1050 2500 
L 1650 800 
z
M 950 2750 
L 950 2750 
z
M 600 2750 
L 600 2750 
z
M 2575 2750 
L 2575 2750 
z
M 2325 2750 
L 2325 2750 
z
" transform="scale(0.015625)"/>
      <path id="Times New Roman-6c" d="M 925 4375
Q 1150 4375 1350 4425 
Q 1550 4475 1725 4575 
L 1775 4575 
L 1775 450 
Q 1775 350 1837 300 
Q 1900 250 2000 250 
L 2575 250 
L 2575 100 
L 625 100 
L 625 250 
L 1200 250 
Q 1325 250 1375 300 
Q 1425 350 1425 450 
L 1425 4025 
Q 1425 4125 1375 4175 
Q 1325 4225 1200 4225 
L 650 4225 
L 650 4375 
L 925 4375 
z
" transform="scale(0.015625)"/>
      <path id="Times New Roman-67" d="M 875 1975
Q 875 1675 1050 1462 
Q 1225 1250 1525 1250 
Q 1850 1250 2012 1437 
Q 2175 1625 2175 1975 
Q 2175 2400 1987 2587 
Q 1800 2775 1525 2775 
Q 1250 2775 1062 2587 
Q 875 2400 875 1975 
z
M 2100 625 
Q 2475 575 2650 412 
Q 2825 250 2825 -25 
Q 2825 -400 2512 -625 
Q 2200 -850 1525 -850 
Q 1000 -850 675 -637 
Q 350 -425 350 -150 
Q 350 25 475 200 
Q 600 375 875 475 
Q 725 550 637 637 
Q 550 725 550 850 
Q 550 1000 650 1112 
Q 750 1225 900 1300 
Q 750 1425 637 1600 
Q 525 1775 525 1975 
Q 525 2350 787 2637 
Q 1050 2925 1525 2925 
Q 1725 2925 1912 2875 
Q 2100 2825 2225 2700 
Q 2400 2825 2537 2887 
Q 2675 2950 2775 2950 
Q 2900 2950 2950 2862 
Q 3000 2775 3000 2700 
Q 3000 2600 2962 2537 
Q 2925 2475 2825 2475 
Q 2750 2475 2700 2512 
Q 2650 2550 2625 2625 
Q 2600 2700 2512 2687 
Q 2425 2675 2325 2600 
Q 2425 2500 2475 2325 
Q 2525 2150 2525 1975 
Q 2525 1675 2287 1387 
Q 2050 1100 1525 1100 
Q 1375 1100 1250 1137 
Q 1125 1175 1050 1225 
Q 950 1175 900 1100 
Q 850 1025 850 975 
Q 850 875 900 825 
Q 950 775 1050 775 
Q 1375 725 1637 687 
Q 1900 650 2100 625 
z
M 1075 425 
Q 850 325 762 187 
Q 675 50 675 -150 
Q 675 -350 900 -525 
Q 1125 -700 1575 -700 
Q 2000 -700 2250 -562 
Q 2500 -425 2500 -150 
Q 2500 25 2437 125 
Q 2375 225 2250 250 
Q 2000 300 1700 350 
Q 1400 375 1075 425 
z
" transform="scale(0.015625)"/>
      <path id="Times New Roman-5f" d="M 0 -875
L 0 -725 
L 3175 -725 
L 3175 -875 
L 0 -875 
z
" transform="scale(0.015625)"/>
      <path id="Times New Roman-77" d="M 2325 2900
L 3175 2900 
L 3175 2750 
L 3075 2750 
Q 2975 2750 2900 2675 
Q 2825 2600 2775 2425 
L 2175 75 
L 2025 75 
L 1575 1975 
L 1100 75 
L 950 75 
L 375 2375 
Q 350 2550 275 2650 
Q 200 2750 125 2750 
L 25 2750 
L 25 2900 
L 925 2900 
L 925 2750 
L 825 2750 
Q 725 2750 700 2662 
Q 675 2575 700 2425 
L 1075 800 
L 1125 800 
L 1500 2300 
Q 1475 2525 1400 2637 
Q 1325 2750 1225 2750 
L 1150 2750 
L 1150 2900 
L 2000 2900 
L 2000 2750 
L 1925 2750 
Q 1825 2750 1800 2662 
Q 1775 2575 1800 2425 
L 2175 800 
L 2200 800 
L 2625 2550 
Q 2650 2650 2600 2700 
Q 2550 2750 2450 2750 
L 2325 2750 
L 2325 2900 
z
M 1725 2750 
L 1725 2750 
z
M 625 2750 
L 625 2750 
z
M 275 2750 
L 275 2750 
z
M 2875 2750 
L 2875 2750 
z
M 2675 2750 
L 2675 2750 
z
" transform="scale(0.015625)"/>
      <path id="Times New Roman-76" d="M 1625 75
L 1475 75 
L 625 2525 
Q 600 2625 525 2687 
Q 450 2750 350 2750 
L 225 2750 
L 225 2900 
L 1300 2900 
L 1300 2750 
L 1200 2750 
Q 1050 2750 1025 2700 
Q 1000 2650 1000 2600 
Q 1000 2500 1025 2425 
L 1625 675 
L 1675 675 
L 2275 2400 
Q 2325 2525 2325 2575 
Q 2325 2600 2275 2675 
Q 2225 2750 2075 2750 
L 2025 2750 
L 2025 2900 
L 2925 2900 
L 2925 2750 
L 2875 2750 
Q 2725 2750 2637 2662 
Q 2550 2575 2475 2400 
L 1625 75 
z
M 2600 2750 
L 2600 2750 
z
M 2400 2750 
L 2400 2750 
z
M 925 2750 
L 925 2750 
z
M 550 2750 
L 550 2750 
z
" transform="scale(0.015625)"/>
     </defs>
     <use xlink:href="#Times New Roman-2e"/>
     <use xlink:href="#Times New Roman-2f" x="50"/>
     <use xlink:href="#Times New Roman-63" x="100"/>
     <use xlink:href="#Times New Roman-6f" x="150"/>
     <use xlink:href="#Times New Roman-6d" x="200"/>
     <use xlink:href="#Times New Roman-79" x="250"/>
     <use xlink:href="#Times New Roman-63" x="300"/>
     <use xlink:href="#Times New Roman-6f" x="350"/>
     <use xlink:href="#Times New Roman-2f" x="400"/>
     <use xlink:href="#Times New Roman-6c" x="450"/>
     <use xlink:href="#Times New Roman-6f" x="500"/>
     <use xlink:href="#Times New Roman-67" x="550"/>
     <use xlink:href="#Times New Roman-5f" x="600"/>
     <use xlink:href="#Times New Roman-63" x="650"/>
     <use xlink:href="#Times New Roman-6f" x="700"/>
     <use xlink:href="#Times New Roman-6d" x="750"/>
     <use xlink:href="#Times New Roman-79" x="800"/>
     <use xlink:href="#Times New Roman-63" x="850"/>
     <use xlink:href="#Times New Roman-6f" x="900"/>
     <use xlink:href="#Times New Roman-5f" x="950"/>
     <use xlink:href="#Times New Roman-34" x="1000"/>
     <use xlink:href="#Times New Roman-5f" x="1050"/>
     <use xlink:href="#Times New Roman-77" x="1100"/>
     <use xlink:href="#Times New Roman-61" x="1150"/>
     <use xlink:href="#Times New Roman-76" x="1200"/>
     <use xlink:href="#Times New Roman-65" x="1250"/>
    </g>
   </g>
   <g id="legend_1">
    <g id="patch_11">
     <path d="M 903 73.2775 
L 965 73.2775 
Q 967 73.2775 967 71.2775 
L 967 58.84 
Q 967 56.84 965 56.84 
L 903 56.84 
Q 901 56.84 901 58.84 
L 901 71.2775 
Q 901 73.2775 903 73.2775 
z
" style="fill: #ffffff; opacity: 0.8; stroke: #cccccc; stroke-linejoin: miter"/>
    </g>
    <g id="line2d_31">
     <path d="M 905 64.488437 
L 915 64.488437 
L 925 64.488437 
" style="fill: none; stroke: #1f77b4; stroke-width: 1.5; stroke-linecap: square"/>
    </g>
    <g id="text_24">
     <!-- buffer -->
     <g transform="translate(933 67.988437) scale(0.1 -0.1)">
      <use xlink:href="#Times New Roman-62"/>
      <use xlink:href="#Times New Roman-75" x="50"/>
      <use xlink:href="#Times New Roman-66" x="100"/>
      <use xlink:href="#Times New Roman-66" x="150"/>
      <use xlink:href="#Times New Roman-65" x="200"/>
      <use xlink:href="#Times New Roman-72" x="250"/>
     </g>
    </g>
   </g>
  </g>
 </g>
 <defs>
  <clipPath id="p8ec2f395a1">
   <rect x="135" y="51.84" width="837" height="332.64"/>
  </clipPath>
 </defs>
</svg>
