<?xml version="1.0" encoding="utf-8" standalone="no"?>
<!DOCTYPE svg PUBLIC "-//W3C//DTD SVG 1.1//EN"
  "http://www.w3.org/Graphics/SVG/1.1/DTD/svg11.dtd">
<svg xmlns:xlink="http://www.w3.org/1999/xlink" width="1080pt" height="432pt" viewBox="0 0 1080 432" xmlns="http://www.w3.org/2000/svg" version="1.1">
 <metadata>
  <rdf:RDF xmlns:dc="http://purl.org/dc/elements/1.1/" xmlns:cc="http://creativecommons.org/ns#" xmlns:rdf="http://www.w3.org/1999/02/22-rdf-syntax-ns#">
   <cc:Work>
    <dc:type rdf:resource="http://purl.org/dc/dcmitype/StillImage"/>
    <dc:date>2024-04-12T06:21:49.860214</dc:date>
    <dc:format>image/svg+xml</dc:format>
    <dc:creator>
     <cc:Agent>
      <dc:title>Matplotlib v3.8.3, https://matplotlib.org/</dc:title>
     </cc:Agent>
    </dc:creator>
   </cc:Work>
  </rdf:RDF>
 </metadata>
 <defs>
  <style type="text/css">*{stroke-linejoin: round; stroke-linecap: butt}</style>
 </defs>
 <g id="figure_1">
  <g id="patch_1">
   <path d="M 0 432 
L 1080 432 
L 1080 0 
L 0 0 
z
" style="fill: #ffffff"/>
  </g>
  <g id="axes_1">
   <g id="patch_2">
    <path d="M 135 384.48 
L 972 384.48 
L 972 51.84 
L 135 51.84 
z
" style="fill: #ffffff"/>
   </g>
   <g id="matplotlib.axis_1">
    <g id="xtick_1">
     <g id="line2d_1">
      <defs>
       <path id="m4fc7da9bfb" d="M 0 0 
L 0 3.5 
" style="stroke: #000000; stroke-width: 0.8"/>
      </defs>
      <g>
       <use xlink:href="#m4fc7da9bfb" x="173.045455" y="384.48" style="stroke: #000000; stroke-width: 0.8"/>
      </g>
     </g>
     <g id="text_1">
      <!-- 0 -->
      <g transform="translate(170.545455 398.628438) scale(0.1 -0.1)">
       <defs>
        <path id="Times New Roman-30" d="M 1600 4225
Q 1250 4225 1012 3687 
Q 775 3150 775 2250 
Q 775 1300 1012 775 
Q 1250 250 1600 250 
Q 1975 250 2187 775 
Q 2400 1300 2400 2250 
Q 2400 3150 2200 3687 
Q 2000 4225 1600 4225 
z
M 1600 50 
Q 1050 50 675 625 
Q 300 1200 300 2250 
Q 300 3225 662 3825 
Q 1025 4425 1600 4425 
Q 2150 4425 2512 3850 
Q 2875 3275 2875 2250 
Q 2875 1225 2512 637 
Q 2150 50 1600 50 
z
" transform="scale(0.015625)"/>
       </defs>
       <use xlink:href="#Times New Roman-30"/>
      </g>
     </g>
    </g>
    <g id="xtick_2">
     <g id="line2d_2">
      <g>
       <use xlink:href="#m4fc7da9bfb" x="299.863636" y="384.48" style="stroke: #000000; stroke-width: 0.8"/>
      </g>
     </g>
     <g id="text_2">
      <!-- 100 -->
      <g transform="translate(292.363636 398.628438) scale(0.1 -0.1)">
       <defs>
        <path id="Times New Roman-31" d="M 1825 4450
L 1825 650 
Q 1825 450 1950 350 
Q 2075 250 2300 250 
L 2550 250 
L 2550 100 
L 725 100 
L 725 250 
L 950 250 
Q 1200 250 1312 350 
Q 1425 450 1425 650 
L 1425 3675 
Q 1425 3775 1362 3837 
Q 1300 3900 1175 3900 
L 725 3900 
L 725 4050 
L 950 4050 
Q 1250 4050 1437 4150 
Q 1625 4250 1725 4450 
L 1825 4450 
z
" transform="scale(0.015625)"/>
       </defs>
       <use xlink:href="#Times New Roman-31"/>
       <use xlink:href="#Times New Roman-30" x="50"/>
       <use xlink:href="#Times New Roman-30" x="100"/>
      </g>
     </g>
    </g>
    <g id="xtick_3">
     <g id="line2d_3">
      <g>
       <use xlink:href="#m4fc7da9bfb" x="426.681818" y="384.48" style="stroke: #000000; stroke-width: 0.8"/>
      </g>
     </g>
     <g id="text_3">
      <!-- 200 -->
      <g transform="translate(419.181818 398.628438) scale(0.1 -0.1)">
       <defs>
        <path id="Times New Roman-32" d="M 2325 3325
Q 2325 3775 2125 4012 
Q 1925 4250 1525 4250 
Q 1225 4250 1012 4087 
Q 800 3925 800 3675 
Q 800 3525 900 3425 
Q 975 3325 975 3225 
Q 975 3100 912 3037 
Q 850 2975 725 2975 
Q 575 2975 487 3062 
Q 400 3150 400 3350 
Q 400 3875 775 4150 
Q 1150 4425 1575 4425 
Q 2175 4425 2462 4125 
Q 2750 3825 2750 3375 
Q 2750 3075 2612 2775 
Q 2475 2475 2175 2200 
Q 1450 1500 1062 1062 
Q 675 625 600 475 
L 2075 475 
Q 2300 475 2450 650 
Q 2600 825 2650 1175 
L 2800 1175 
L 2650 100 
L 325 100 
L 325 425 
Q 450 650 737 1000 
Q 1025 1350 1500 1825 
Q 1925 2250 2125 2625 
Q 2325 3000 2325 3325 
z
" transform="scale(0.015625)"/>
       </defs>
       <use xlink:href="#Times New Roman-32"/>
       <use xlink:href="#Times New Roman-30" x="50"/>
       <use xlink:href="#Times New Roman-30" x="100"/>
      </g>
     </g>
    </g>
    <g id="xtick_4">
     <g id="line2d_4">
      <g>
       <use xlink:href="#m4fc7da9bfb" x="553.5" y="384.48" style="stroke: #000000; stroke-width: 0.8"/>
      </g>
     </g>
     <g id="text_4">
      <!-- 300 -->
      <g transform="translate(546 398.628438) scale(0.1 -0.1)">
       <defs>
        <path id="Times New Roman-33" d="M 2800 1250
Q 2800 775 2450 412 
Q 2100 50 1475 50 
Q 1025 50 700 300 
Q 375 550 375 875 
Q 375 1025 475 1137 
Q 575 1250 675 1250 
Q 825 1250 887 1137 
Q 950 1025 950 950 
Q 950 825 900 750 
Q 850 650 850 575 
Q 850 425 1037 325 
Q 1225 225 1450 225 
Q 1900 225 2125 487 
Q 2350 750 2350 1300 
Q 2350 1750 2112 2025 
Q 1875 2300 1225 2300 
L 1225 2475 
Q 1725 2475 1962 2712 
Q 2200 2950 2200 3375 
Q 2200 3725 2012 3987 
Q 1825 4250 1425 4250 
Q 1250 4250 1050 4162 
Q 850 4075 850 3875 
Q 850 3675 900 3625 
Q 950 3575 950 3500 
Q 950 3375 900 3300 
Q 850 3225 725 3225 
Q 625 3225 537 3300 
Q 450 3375 450 3575 
Q 450 3950 775 4187 
Q 1100 4425 1525 4425 
Q 2025 4425 2325 4112 
Q 2625 3800 2625 3450 
Q 2625 3075 2437 2812 
Q 2250 2550 1850 2425 
Q 2400 2225 2600 1900 
Q 2800 1575 2800 1250 
z
" transform="scale(0.015625)"/>
       </defs>
       <use xlink:href="#Times New Roman-33"/>
       <use xlink:href="#Times New Roman-30" x="50"/>
       <use xlink:href="#Times New Roman-30" x="100"/>
      </g>
     </g>
    </g>
    <g id="xtick_5">
     <g id="line2d_5">
      <g>
       <use xlink:href="#m4fc7da9bfb" x="680.318182" y="384.48" style="stroke: #000000; stroke-width: 0.8"/>
      </g>
     </g>
     <g id="text_5">
      <!-- 400 -->
      <g transform="translate(672.818182 398.628438) scale(0.1 -0.1)">
       <defs>
        <path id="Times New Roman-34" d="M 2300 575
Q 2300 400 2400 325 
Q 2500 250 2675 250 
L 2900 250 
L 2900 100 
L 1250 100 
L 1250 250 
L 1525 250 
Q 1725 250 1812 325 
Q 1900 400 1900 575 
L 1900 1400 
L 225 1400 
L 225 1525 
L 2050 4425 
L 2300 4425 
L 2300 1550 
L 2975 1550 
L 2975 1400 
L 2300 1400 
L 2300 575 
z
M 1875 3800 
L 450 1550 
L 1900 1550 
L 1900 3800 
L 1875 3800 
z
" transform="scale(0.015625)"/>
       </defs>
       <use xlink:href="#Times New Roman-34"/>
       <use xlink:href="#Times New Roman-30" x="50"/>
       <use xlink:href="#Times New Roman-30" x="100"/>
      </g>
     </g>
    </g>
    <g id="xtick_6">
     <g id="line2d_6">
      <g>
       <use xlink:href="#m4fc7da9bfb" x="807.136364" y="384.48" style="stroke: #000000; stroke-width: 0.8"/>
      </g>
     </g>
     <g id="text_6">
      <!-- 500 -->
      <g transform="translate(799.636364 398.628438) scale(0.1 -0.1)">
       <defs>
        <path id="Times New Roman-35" d="M 1725 2850
Q 2200 2850 2500 2487 
Q 2800 2125 2800 1525 
Q 2800 850 2487 450 
Q 2175 50 1525 50 
Q 1075 50 725 312 
Q 375 575 375 950 
Q 375 1100 462 1212 
Q 550 1325 700 1325 
Q 850 1325 900 1225 
Q 950 1125 950 1050 
Q 950 900 875 825 
Q 800 725 800 625 
Q 800 425 1037 325 
Q 1275 225 1550 225 
Q 1950 225 2162 550 
Q 2375 875 2375 1475 
Q 2375 1975 2187 2287 
Q 2000 2600 1625 2600 
Q 1350 2600 1150 2500 
Q 950 2400 775 2075 
L 550 2100 
L 675 4375 
L 2725 4375 
L 2650 4000 
L 850 4000 
L 750 2350 
Q 1000 2700 1237 2775 
Q 1475 2850 1725 2850 
z
" transform="scale(0.015625)"/>
       </defs>
       <use xlink:href="#Times New Roman-35"/>
       <use xlink:href="#Times New Roman-30" x="50"/>
       <use xlink:href="#Times New Roman-30" x="100"/>
      </g>
     </g>
    </g>
    <g id="xtick_7">
     <g id="line2d_7">
      <g>
       <use xlink:href="#m4fc7da9bfb" x="933.954545" y="384.48" style="stroke: #000000; stroke-width: 0.8"/>
      </g>
     </g>
     <g id="text_7">
      <!-- 600 -->
      <g transform="translate(926.454545 398.628438) scale(0.1 -0.1)">
       <defs>
        <path id="Times New Roman-36" d="M 775 1800
Q 775 1050 1037 637 
Q 1300 225 1675 225 
Q 2050 225 2250 500 
Q 2450 775 2450 1525 
Q 2450 2025 2237 2300 
Q 2025 2575 1725 2575 
Q 1450 2575 1212 2412 
Q 975 2250 775 1800 
z
M 1750 2825 
Q 2350 2825 2612 2425 
Q 2875 2025 2875 1525 
Q 2875 775 2512 412 
Q 2150 50 1675 50 
Q 1000 50 650 562 
Q 300 1075 300 2050 
Q 300 3200 725 3812 
Q 1150 4425 1875 4425 
Q 2225 4425 2437 4225 
Q 2650 4025 2650 3875 
Q 2650 3725 2587 3650 
Q 2525 3575 2375 3575 
Q 2250 3575 2187 3637 
Q 2125 3700 2125 3825 
Q 2125 3875 2150 3925 
Q 2150 3975 2150 4025 
Q 2150 4125 2075 4187 
Q 2000 4250 1800 4250 
Q 1375 4250 1075 3862 
Q 775 3475 775 2175 
Q 925 2500 1187 2662 
Q 1450 2825 1750 2825 
z
" transform="scale(0.015625)"/>
       </defs>
       <use xlink:href="#Times New Roman-36"/>
       <use xlink:href="#Times New Roman-30" x="50"/>
       <use xlink:href="#Times New Roman-30" x="100"/>
      </g>
     </g>
    </g>
   </g>
   <g id="matplotlib.axis_2">
    <g id="ytick_1">
     <g id="line2d_8">
      <defs>
       <path id="mbf0273f25e" d="M 0 0 
L -3.5 0 
" style="stroke: #000000; stroke-width: 0.8"/>
      </defs>
      <g>
       <use xlink:href="#mbf0273f25e" x="135" y="378.17578" style="stroke: #000000; stroke-width: 0.8"/>
      </g>
     </g>
     <g id="text_8">
      <!-- 0 -->
      <g transform="translate(123 381.749998) scale(0.1 -0.1)">
       <use xlink:href="#Times New Roman-30"/>
      </g>
     </g>
    </g>
    <g id="ytick_2">
     <g id="line2d_9">
      <g>
       <use xlink:href="#mbf0273f25e" x="135" y="315.65252" style="stroke: #000000; stroke-width: 0.8"/>
      </g>
     </g>
     <g id="text_9">
      <!-- 1000 -->
      <g transform="translate(108 319.226738) scale(0.1 -0.1)">
       <use xlink:href="#Times New Roman-31"/>
       <use xlink:href="#Times New Roman-30" x="50"/>
       <use xlink:href="#Times New Roman-30" x="100"/>
       <use xlink:href="#Times New Roman-30" x="150"/>
      </g>
     </g>
    </g>
    <g id="ytick_3">
     <g id="line2d_10">
      <g>
       <use xlink:href="#mbf0273f25e" x="135" y="253.129259" style="stroke: #000000; stroke-width: 0.8"/>
      </g>
     </g>
     <g id="text_10">
      <!-- 2000 -->
      <g transform="translate(108 256.703478) scale(0.1 -0.1)">
       <use xlink:href="#Times New Roman-32"/>
       <use xlink:href="#Times New Roman-30" x="50"/>
       <use xlink:href="#Times New Roman-30" x="100"/>
       <use xlink:href="#Times New Roman-30" x="150"/>
      </g>
     </g>
    </g>
    <g id="ytick_4">
     <g id="line2d_11">
      <g>
       <use xlink:href="#mbf0273f25e" x="135" y="190.605999" style="stroke: #000000; stroke-width: 0.8"/>
      </g>
     </g>
     <g id="text_11">
      <!-- 3000 -->
      <g transform="translate(108 194.180218) scale(0.1 -0.1)">
       <use xlink:href="#Times New Roman-33"/>
       <use xlink:href="#Times New Roman-30" x="50"/>
       <use xlink:href="#Times New Roman-30" x="100"/>
       <use xlink:href="#Times New Roman-30" x="150"/>
      </g>
     </g>
    </g>
    <g id="ytick_5">
     <g id="line2d_12">
      <g>
       <use xlink:href="#mbf0273f25e" x="135" y="128.082739" style="stroke: #000000; stroke-width: 0.8"/>
      </g>
     </g>
     <g id="text_12">
      <!-- 4000 -->
      <g transform="translate(108 131.656958) scale(0.1 -0.1)">
       <use xlink:href="#Times New Roman-34"/>
       <use xlink:href="#Times New Roman-30" x="50"/>
       <use xlink:href="#Times New Roman-30" x="100"/>
       <use xlink:href="#Times New Roman-30" x="150"/>
      </g>
     </g>
    </g>
    <g id="ytick_6">
     <g id="line2d_13">
      <g>
       <use xlink:href="#mbf0273f25e" x="135" y="65.559479" style="stroke: #000000; stroke-width: 0.8"/>
      </g>
     </g>
     <g id="text_13">
      <!-- 5000 -->
      <g transform="translate(108 69.133698) scale(0.1 -0.1)">
       <use xlink:href="#Times New Roman-35"/>
       <use xlink:href="#Times New Roman-30" x="50"/>
       <use xlink:href="#Times New Roman-30" x="100"/>
       <use xlink:href="#Times New Roman-30" x="150"/>
      </g>
     </g>
    </g>
    <g id="text_14">
     <!-- Bitrate (kbps) -->
     <g transform="translate(102.710938 253.16) rotate(-90) scale(0.1 -0.1)">
      <defs>
       <path id="Times New Roman-42" d="M 100 100
L 100 250 
L 300 250 
Q 425 250 475 300 
Q 525 350 525 450 
L 525 4025 
Q 525 4125 475 4175 
Q 425 4225 300 4225 
L 150 4225 
L 150 4375 
L 1600 4375 
Q 2200 4375 2487 4137 
Q 2775 3900 2775 3400 
Q 2775 3050 2625 2825 
Q 2475 2600 2000 2425 
Q 2575 2250 2775 1925 
Q 2975 1600 2975 1200 
Q 2975 700 2625 400 
Q 2275 100 1675 100 
L 100 100 
z
M 1600 250 
Q 2025 250 2262 512 
Q 2500 775 2500 1250 
Q 2500 1800 2250 2062 
Q 2000 2325 1500 2325 
L 925 2325 
L 925 450 
Q 925 350 987 300 
Q 1050 250 1150 250 
L 1600 250 
z
M 2350 3400 
Q 2350 3850 2100 4037 
Q 1850 4225 1450 4225 
L 1150 4225 
Q 1050 4225 987 4175 
Q 925 4125 925 4025 
L 925 2475 
L 1575 2475 
Q 1850 2475 2100 2700 
Q 2350 2925 2350 3400 
z
" transform="scale(0.015625)"/>
       <path id="Times New Roman-69" d="M 1425 2525
Q 1425 2625 1375 2687 
Q 1325 2750 1200 2750 
L 675 2750 
L 675 2900 
L 925 2900 
Q 1150 2900 1350 2937 
Q 1550 2975 1725 3075 
L 1775 3075 
L 1775 450 
Q 1775 350 1837 300 
Q 1900 250 2000 250 
L 2525 250 
L 2525 100 
L 675 100 
L 675 250 
L 1200 250 
Q 1325 250 1375 300 
Q 1425 350 1425 450 
L 1425 2525 
z
M 1725 3025 
L 1725 3025 
z
M 1625 4425 
Q 1750 4425 1850 4337 
Q 1950 4250 1950 4125 
Q 1950 4000 1850 3900 
Q 1750 3800 1625 3800 
Q 1500 3800 1400 3900 
Q 1300 4000 1300 4125 
Q 1300 4250 1400 4337 
Q 1500 4425 1625 4425 
z
" transform="scale(0.015625)"/>
       <path id="Times New Roman-74" d="M 1500 900
Q 1500 550 1625 425 
Q 1750 300 2000 300 
Q 2250 300 2400 462 
Q 2550 625 2600 925 
L 2725 875 
Q 2675 525 2462 300 
Q 2250 75 1900 75 
Q 1525 75 1337 300 
Q 1150 525 1150 1000 
L 1150 2750 
L 400 2750 
L 400 2900 
L 600 2900 
Q 900 2900 1087 3087 
Q 1275 3275 1325 3675 
L 1350 3875 
L 1500 3875 
L 1500 2900 
L 2500 2900 
L 2500 2750 
L 1500 2750 
L 1500 900 
z
" transform="scale(0.015625)"/>
       <path id="Times New Roman-72" d="M 1275 2125
Q 1525 2525 1812 2737 
Q 2100 2950 2400 2950 
Q 2650 2950 2787 2837 
Q 2925 2725 2925 2575 
Q 2925 2450 2862 2375 
Q 2800 2300 2675 2300 
Q 2550 2300 2487 2375 
Q 2425 2450 2450 2575 
Q 2450 2650 2425 2700 
Q 2400 2750 2275 2750 
Q 2075 2750 1787 2500 
Q 1500 2250 1275 1800 
L 1275 450 
Q 1275 350 1337 300 
Q 1400 250 1500 250 
L 2050 250 
L 2050 100 
L 200 100 
L 200 250 
L 700 250 
Q 825 250 875 300 
Q 925 350 925 450 
L 925 2525 
Q 925 2625 875 2687 
Q 825 2750 700 2750 
L 225 2750 
L 225 2900 
L 425 2900 
Q 600 2900 837 2937 
Q 1075 2975 1200 3025 
L 1275 3025 
L 1275 2125 
z
" transform="scale(0.015625)"/>
       <path id="Times New Roman-61" d="M 1225 75
Q 775 75 525 287 
Q 275 500 275 775 
Q 275 1225 662 1512 
Q 1050 1800 2200 1925 
L 2200 2225 
Q 2200 2475 2087 2637 
Q 1975 2800 1575 2800 
Q 1150 2800 975 2662 
Q 800 2525 850 2375 
Q 875 2325 875 2275 
Q 875 2225 837 2150 
Q 800 2075 650 2075 
Q 550 2075 487 2137 
Q 425 2200 425 2325 
Q 425 2550 750 2750 
Q 1075 2950 1550 2950 
Q 2050 2950 2300 2762 
Q 2550 2575 2550 2225 
L 2550 575 
Q 2550 375 2587 337 
Q 2625 300 2725 300 
Q 2850 300 2900 412 
Q 2950 525 2950 725 
L 3075 725 
Q 3075 375 2950 237 
Q 2825 100 2625 100 
Q 2450 100 2350 175 
Q 2250 250 2200 425 
Q 1950 250 1737 162 
Q 1525 75 1225 75 
z
M 700 850 
Q 700 625 837 437 
Q 975 250 1275 250 
Q 1500 250 1725 337 
Q 1950 425 2200 600 
L 2200 1775 
Q 1350 1675 1025 1437 
Q 700 1200 700 850 
z
" transform="scale(0.015625)"/>
       <path id="Times New Roman-65" d="M 2400 1650
Q 2425 2200 2212 2487 
Q 2000 2775 1650 2775 
Q 1275 2775 1037 2475 
Q 800 2175 800 1650 
L 2400 1650 
z
M 800 1500 
Q 800 825 1062 537 
Q 1325 250 1750 250 
Q 2075 250 2300 437 
Q 2525 625 2625 900 
L 2750 850 
Q 2675 575 2412 312 
Q 2150 50 1700 50 
Q 1125 50 762 425 
Q 400 800 400 1500 
Q 400 2125 762 2537 
Q 1125 2950 1650 2950 
Q 2125 2950 2475 2625 
Q 2825 2300 2825 1500 
L 800 1500 
z
" transform="scale(0.015625)"/>
       <path id="Times New Roman-20" d="M 0 0
Q 0 0 0 0 
z
" transform="scale(0.015625)"/>
       <path id="Times New Roman-28" d="M 2900 5025
Q 2325 4425 2037 3737 
Q 1750 3050 1750 2300 
Q 1750 1525 2037 850 
Q 2325 175 2900 -425 
L 2775 -550 
Q 2075 75 1725 787 
Q 1375 1500 1375 2300 
Q 1375 3075 1725 3787 
Q 2075 4500 2775 5150 
L 2900 5025 
z
" transform="scale(0.015625)"/>
       <path id="Times New Roman-6b" d="M 1675 1900
L 2625 425 
Q 2700 325 2762 287 
Q 2825 250 2900 250 
L 3000 250 
L 3000 100 
L 1975 100 
L 1975 250 
L 2050 250 
Q 2175 250 2225 287 
Q 2275 325 2200 425 
L 1425 1650 
L 925 1125 
L 925 450 
Q 925 350 987 300 
Q 1050 250 1150 250 
L 1275 250 
L 1275 100 
L 225 100 
L 225 250 
L 350 250 
Q 475 250 525 300 
Q 575 350 575 450 
L 575 4025 
Q 575 4125 525 4175 
Q 475 4225 350 4225 
L 200 4225 
L 200 4375 
L 425 4375 
Q 575 4375 687 4425 
Q 800 4475 875 4575 
L 925 4575 
L 925 1400 
L 1975 2525 
Q 2025 2625 2012 2687 
Q 2000 2750 1900 2750 
L 1750 2750 
L 1750 2900 
L 2800 2900 
L 2800 2750 
L 2675 2750 
Q 2600 2750 2487 2712 
Q 2375 2675 2275 2575 
L 1675 1900 
z
M 2450 2750 
L 2450 2750 
z
M 2175 2750 
L 2175 2750 
z
M 2300 250 
L 2300 250 
z
M 2750 250 
L 2750 250 
z
" transform="scale(0.015625)"/>
       <path id="Times New Roman-62" d="M 875 2325
Q 1000 2600 1275 2762 
Q 1550 2925 1800 2925 
Q 2325 2925 2587 2562 
Q 2850 2200 2850 1500 
Q 2850 800 2512 437 
Q 2175 75 1675 75 
Q 1425 75 1212 162 
Q 1000 250 850 400 
L 625 100 
L 525 100 
L 525 4025 
Q 525 4125 475 4175 
Q 425 4225 300 4225 
L 150 4225 
L 150 4375 
L 375 4375 
Q 500 4375 625 4425 
Q 750 4475 875 4575 
L 875 2325 
z
M 875 925 
Q 875 650 1062 450 
Q 1250 250 1625 250 
Q 2075 250 2262 562 
Q 2450 875 2450 1500 
Q 2450 2100 2287 2412 
Q 2125 2725 1775 2725 
Q 1475 2725 1250 2550 
Q 1025 2375 875 1925 
L 875 925 
z
" transform="scale(0.015625)"/>
       <path id="Times New Roman-70" d="M 1150 -675
L 1325 -675 
L 1325 -825 
L 175 -825 
L 175 -675 
L 325 -675 
Q 450 -675 500 -625 
Q 550 -575 550 -450 
L 550 2500 
Q 550 2600 500 2662 
Q 450 2725 325 2725 
L 175 2725 
L 175 2875 
L 400 2875 
Q 525 2875 637 2900 
Q 750 2925 850 3000 
L 900 3000 
L 900 2425 
Q 1075 2675 1287 2800 
Q 1500 2925 1750 2925 
Q 2250 2925 2575 2587 
Q 2900 2250 2900 1525 
Q 2900 825 2550 450 
Q 2200 75 1725 75 
Q 1450 75 1262 162 
Q 1075 250 900 425 
L 900 -450 
Q 900 -575 975 -625 
Q 1050 -675 1150 -675 
z
M 900 750 
Q 1025 500 1212 375 
Q 1400 250 1650 250 
Q 2000 250 2250 562 
Q 2500 875 2500 1525 
Q 2500 2125 2312 2425 
Q 2125 2725 1750 2725 
Q 1525 2725 1300 2587 
Q 1075 2450 900 2150 
L 900 750 
z
" transform="scale(0.015625)"/>
       <path id="Times New Roman-73" d="M 625 2175
Q 625 2550 912 2750 
Q 1200 2950 1600 2950 
Q 1825 2950 2025 2900 
Q 2225 2825 2300 2825 
Q 2375 2825 2425 2850 
Q 2475 2875 2550 2950 
L 2650 2125 
L 2500 2100 
Q 2400 2425 2162 2612 
Q 1925 2800 1625 2800 
Q 1300 2800 1112 2675 
Q 925 2550 925 2325 
Q 925 2125 1012 2012 
Q 1100 1900 1325 1850 
Q 1500 1775 1775 1700 
Q 2025 1600 2250 1500 
Q 2450 1400 2587 1237 
Q 2725 1075 2725 875 
Q 2725 500 2462 287 
Q 2200 75 1700 75 
Q 1375 75 1225 150 
Q 1050 200 950 200 
Q 875 200 787 162 
Q 700 125 600 75 
L 525 1000 
L 675 1025 
Q 750 625 1000 425 
Q 1250 225 1700 225 
Q 2050 225 2237 350 
Q 2425 475 2425 725 
Q 2425 900 2325 1012 
Q 2225 1125 2125 1175 
Q 1875 1275 1575 1400 
Q 1275 1500 1050 1600 
Q 825 1700 725 1850 
Q 625 2000 625 2175 
z
" transform="scale(0.015625)"/>
       <path id="Times New Roman-29" d="M 275 5025
L 400 5150 
Q 1100 4500 1450 3787 
Q 1800 3075 1800 2300 
Q 1800 1500 1450 787 
Q 1100 75 400 -550 
L 275 -425 
Q 850 175 1137 850 
Q 1425 1525 1425 2300 
Q 1425 3050 1137 3737 
Q 850 4425 275 5025 
z
" transform="scale(0.015625)"/>
      </defs>
      <use xlink:href="#Times New Roman-42"/>
      <use xlink:href="#Times New Roman-69" x="50"/>
      <use xlink:href="#Times New Roman-74" x="100"/>
      <use xlink:href="#Times New Roman-72" x="150"/>
      <use xlink:href="#Times New Roman-61" x="200"/>
      <use xlink:href="#Times New Roman-74" x="250"/>
      <use xlink:href="#Times New Roman-65" x="300"/>
      <use xlink:href="#Times New Roman-20" x="350"/>
      <use xlink:href="#Times New Roman-28" x="400"/>
      <use xlink:href="#Times New Roman-6b" x="450"/>
      <use xlink:href="#Times New Roman-62" x="500"/>
      <use xlink:href="#Times New Roman-70" x="550"/>
      <use xlink:href="#Times New Roman-73" x="600"/>
      <use xlink:href="#Times New Roman-29" x="650"/>
     </g>
    </g>
   </g>
   <g id="line2d_14">
    <path d="M 173.045455 358.856092 
L 174.313636 358.856092 
L 175.581818 369.36 
L 183.190909 369.36 
L 183.190909 369.36 
L 184.459091 337.72323 
L 194.604545 337.72323 
L 195.872727 309.837856 
L 199.677273 309.837856 
L 200.945455 259.131492 
L 206.018182 259.131492 
L 207.286364 135.210391 
L 321.422727 135.210391 
L 322.690909 309.837856 
L 326.495455 309.837856 
L 327.763636 259.131492 
L 335.372727 259.131492 
L 336.640909 135.210391 
L 350.590909 135.210391 
L 351.859091 259.131492 
L 356.931818 259.131492 
L 356.931818 259.131492 
L 358.2 135.210391 
L 358.2 135.210391 
L 359.468182 309.837856 
L 369.613636 309.837856 
L 370.881818 135.210391 
L 497.7 135.210391 
L 501.504545 259.131492 
L 505.309091 259.131492 
L 505.309091 135.210391 
L 514.186364 135.210391 
L 515.454545 259.131492 
L 519.259091 259.131492 
L 520.527273 135.210391 
L 900.981818 135.210391 
L 902.25 259.131492 
L 930.15 259.131492 
L 931.418182 252.316457 
L 932.686364 252.316457 
L 933.954545 135.210391 
L 933.954545 135.210391 
" clip-path="url(#pfb6209d7a1)" style="fill: none; stroke: #ff0000; stroke-width: 1.5; stroke-linecap: square"/>
   </g>
   <g id="line2d_15">
    <path d="M 173.045455 347.664429 
L 174.313636 346.14824 
L 175.581818 344.986349 
L 178.118182 341.462121 
L 179.386364 338.627734 
L 183.190909 333.642546 
L 183.190909 327.648649 
L 184.459091 320.854455 
L 186.995455 314.022747 
L 186.995455 307.295244 
L 188.263636 301.280506 
L 190.8 295.153227 
L 192.068182 288.629967 
L 192.068182 282.315117 
L 193.336364 276.046118 
L 193.336364 270.560744 
L 194.604545 268.547495 
L 195.872727 276.141987 
L 198.409091 292.548091 
L 200.945455 321.829818 
L 202.213636 325.210242 
L 202.213636 319.316383 
L 203.481818 307.291076 
L 204.75 293.365061 
L 206.018182 276.704697 
L 207.286364 256.072021 
L 209.822727 234.643215 
L 211.090909 210.75933 
L 211.090909 189.69316 
L 212.359091 174.204064 
L 214.895455 168.610316 
L 216.163636 163.741838 
L 217.431818 155.930599 
L 218.7 152.02498 
L 219.968182 144.317946 
L 221.236364 140.012177 
L 223.772727 132.746974 
L 223.772727 128.978906 
L 225.040909 121.263536 
L 227.577273 116.099114 
L 228.845455 109.292415 
L 230.113636 109.805106 
L 231.381818 109.35077 
L 231.381818 109.709237 
L 232.65 104.907451 
L 233.918182 101.33112 
L 236.454545 87.93447 
L 237.722727 81.206967 
L 238.990909 78.868597 
L 240.259091 79.860633 
L 242.795455 81.582106 
L 242.795455 85.250138 
L 245.331818 89.881027 
L 246.6 89.064057 
L 246.6 88.16789 
L 247.868182 86.192155 
L 247.868182 84.929185 
L 249.136364 84.549877 
L 249.136364 84.68326 
L 250.404545 84.904176 
L 250.404545 84.066364 
L 251.672727 85.683632 
L 251.672727 89.364168 
L 254.209091 95.637335 
L 258.013636 99.476263 
L 258.013636 103.48192 
L 259.281818 105.51601 
L 259.281818 107.454231 
L 260.55 109.663387 
L 260.55 112.322709 
L 261.818182 114.498519 
L 261.818182 117.237038 
L 263.086364 122.230562 
L 263.086364 128.691299 
L 264.354545 135.598035 
L 265.622727 140.758288 
L 266.890909 145.005702 
L 266.890909 147.489959 
L 268.159091 148.661228 
L 268.159091 151.787391 
L 269.427273 156.539159 
L 269.427273 169.13968 
L 270.695455 174.42498 
L 270.695455 178.201384 
L 271.963636 179.518541 
L 271.963636 179.376822 
L 273.231818 179.501868 
L 273.231818 187.930004 
L 274.5 193.332013 
L 274.5 197.558586 
L 275.768182 199.400938 
L 275.768182 200.034507 
L 275.768182 199.459293 
L 277.036364 200.109535 
L 277.036364 204.569527 
L 278.304545 207.078794 
L 278.304545 211.872244 
L 279.572727 215.13179 
L 279.572727 224.426915 
L 280.840909 228.745188 
L 280.840909 232.246491 
L 282.109091 234.443141 
L 282.109091 235.710279 
L 283.377273 236.52725 
L 283.377273 238.198705 
L 284.645455 241.83339 
L 284.645455 246.46428 
L 285.913636 251.570346 
L 289.718182 265.358809 
L 292.254545 275.187466 
L 294.790909 287.604585 
L 296.059091 293.802724 
L 297.327273 300.730301 
L 321.422727 309.183446 
L 323.959091 327.827882 
L 325.227273 335.330674 
L 326.495455 340.194983 
L 327.763636 341.587168 
L 329.031818 339.9699 
L 330.3 336.706185 
L 331.568182 333.092341 
L 334.104545 324.86428 
L 337.909091 310.754864 
L 337.909091 307.015973 
L 339.177273 303.65639 
L 346.786364 297.516606 
L 348.054545 288.20064 
L 349.322727 275.366699 
L 353.127273 233.321891 
L 354.395455 223.480729 
L 356.931818 209.025352 
L 356.931818 202.302017 
L 358.2 197.700305 
L 358.2 195.72457 
L 359.468182 194.165657 
L 360.736364 192.844332 
L 368.345455 187.163052 
L 369.613636 177.192676 
L 373.418182 128.883037 
L 374.686364 117.187019 
L 375.954545 110.859665 
L 379.759091 108.037782 
L 381.027273 104.944965 
L 382.295455 98.959405 
L 383.563636 97.909014 
L 384.831818 104.353078 
L 386.1 111.751664 
L 387.368182 115.657283 
L 388.636364 113.556502 
L 388.636364 107.395876 
L 389.904545 91.848426 
L 389.904545 76.651105 
L 391.172727 69.094127 
L 391.172727 74.375259 
L 392.440909 79.764764 
L 393.709091 82.465769 
L 394.977273 79.873137 
L 394.977273 74.525314 
L 396.245455 69.331716 
L 396.245455 66.96 
L 397.513636 70.227882 
L 397.513636 76.163424 
L 398.781818 82.29904 
L 398.781818 85.75866 
L 400.05 86.800715 
L 400.05 85.162605 
L 401.318182 81.090257 
L 401.318182 75.538191 
L 402.586364 76.713629 
L 402.586364 78.951961 
L 403.854545 80.014857 
L 403.854545 82.18233 
L 405.122727 83.278571 
L 405.122727 85.529408 
L 406.390909 86.779873 
L 406.390909 89.59342 
L 407.659091 94.941243 
L 407.659091 117.241206 
L 408.927273 126.44463 
L 408.927273 131.796621 
L 410.195455 129.83339 
L 410.195455 124.08125 
L 411.463636 114.923677 
L 411.463636 109.675891 
L 412.731818 108.738042 
L 412.731818 111.380692 
L 414 114.465173 
L 414 117.20786 
L 415.268182 120.338191 
L 415.268182 123.068374 
L 416.536364 126.244555 
L 416.536364 129.095616 
L 417.804545 132.467704 
L 417.804545 135.514671 
L 419.072727 139.053487 
L 419.072727 142.175482 
L 420.340909 145.768485 
L 420.340909 148.957172 
L 421.609091 152.658549 
L 421.609091 155.938936 
L 422.877273 163.654306 
L 422.877273 174.845969 
L 424.145455 186.51281 
L 425.413636 194.269862 
L 426.681818 199.121667 
L 427.95 200.601384 
L 429.218182 199.146677 
L 430.486364 198.242173 
L 431.754545 201.78099 
L 439.363636 246.547644 
L 443.168182 267.759702 
L 445.704545 281.744071 
L 445.704545 288.942583 
L 446.972727 296.387019 
L 491.359091 301.059591 
L 492.627273 302.547644 
L 493.895455 299.242248 
L 495.163636 293.202501 
L 496.431818 287.7338 
L 496.431818 286.249914 
L 497.7 287.379501 
L 501.504545 286.00399 
L 502.772727 280.047607 
L 504.040909 267.809721 
L 505.309091 252.529036 
L 505.309091 236.564764 
L 506.577273 225.698221 
L 510.381818 217.828627 
L 511.65 210.692639 
L 512.918182 202.643811 
L 512.918182 195.25773 
L 515.454545 179.589401 
L 517.990909 168.080953 
L 519.259091 160.332237 
L 520.527273 150.76201 
L 521.795455 146.452073 
L 528.136364 146.239494 
L 529.404545 142.55479 
L 530.672727 137.473733 
L 531.940909 129.216494 
L 534.477273 106.466364 
L 535.745455 104.644853 
L 538.281818 117.374589 
L 539.55 120.054753 
L 539.55 119.496211 
L 540.818182 114.490182 
L 540.818182 104.498965 
L 542.086364 93.232274 
L 543.354545 87.079985 
L 544.622727 83.461972 
L 545.890909 81.928068 
L 548.427273 79.427138 
L 549.695455 85.867034 
L 552.231818 91.727547 
L 553.5 101.560372 
L 553.5 105.58687 
L 554.768182 110.738787 
L 557.304545 111.709981 
L 558.572727 112.326878 
L 559.840909 111.893383 
L 561.109091 113.156353 
L 561.109091 115.715638 
L 562.377273 116.111619 
L 564.913636 118.191559 
L 566.181818 120.346528 
L 567.45 126.657209 
L 567.45 132.947049 
L 568.718182 139.153524 
L 571.254545 145.539233 
L 578.863636 186.141838 
L 578.863636 191.981511 
L 580.131818 197.646118 
L 582.668182 207.395579 
L 582.668182 211.622151 
L 583.936364 215.348537 
L 586.472727 219.245821 
L 587.740909 225.523156 
L 587.740909 233.134321 
L 589.009091 240.691299 
L 590.277273 247.35211 
L 590.277273 253.108418 
L 591.545455 258.139457 
L 592.813636 261.96588 
L 594.081818 267.4846 
L 595.35 274.408009 
L 596.618182 282.431827 
L 599.154545 294.84061 
L 599.154545 299.217239 
L 600.422727 302.822747 
L 601.690909 305.61962 
L 601.690909 308.904176 
L 602.959091 312.242918 
L 602.959091 314.864726 
L 604.227273 317.482367 
L 604.227273 320.129185 
L 610.568182 334.384488 
L 614.372727 343.504548 
L 615.640909 346.013815 
L 616.909091 348.052073 
L 618.177273 349.698519 
L 619.445455 350.973993 
L 620.713636 351.91601 
L 624.518182 352.345337 
L 625.786364 352.116085 
L 627.054545 351.290778 
L 628.322727 349.861079 
L 629.590909 347.960372 
L 630.859091 345.65118 
L 634.663636 342.500007 
L 635.931818 338.465173 
L 638.468182 328.319732 
L 641.004545 322.33834 
L 644.809091 303.489661 
L 647.345455 289.492787 
L 649.881818 282.152557 
L 651.15 274.841504 
L 653.686364 266.80518 
L 653.686364 259.43994 
L 654.954545 251.695393 
L 657.490909 244.05505 
L 660.027273 228.040759 
L 660.027273 220.154492 
L 661.295455 213.151887 
L 663.831818 206.711991 
L 666.368182 195.153524 
L 666.368182 189.555608 
L 667.636364 183.036517 
L 670.172727 176.484079 
L 671.440909 169.106334 
L 671.440909 162.187093 
L 672.709091 159.048426 
L 675.245455 157.527026 
L 675.245455 156.951812 
L 676.513636 153.842322 
L 679.05 150.291001 
L 680.318182 141.600268 
L 681.586364 132.013368 
L 682.854545 121.376077 
L 684.122727 114.794462 
L 684.122727 108.075296 
L 685.390909 101.89383 
L 687.927273 97.14623 
L 689.195455 93.103059 
L 690.463636 95.412252 
L 690.463636 103.160968 
L 691.731818 112.727026 
L 693 115.748984 
L 693 113.110502 
L 694.268182 104.303059 
L 694.268182 92.381958 
L 695.536364 80.089885 
L 696.804545 74.846267 
L 699.340909 74.954641 
L 701.877273 77.051254 
L 701.877273 80.877678 
L 703.145455 84.141392 
L 704.413636 86.158809 
L 704.413636 85.792006 
L 705.681818 84.774961 
L 705.681818 81.227808 
L 706.95 80.54422 
L 708.218182 82.511619 
L 710.754545 92.327771 
L 717.095455 99.355385 
L 718.363636 108.175333 
L 720.9 119.283632 
L 722.168182 132.19677 
L 722.168182 144.247086 
L 723.436364 157.176896 
L 723.436364 169.289736 
L 724.704545 179.701943 
L 725.972727 184.737149 
L 725.972727 187.279762 
L 727.240909 186.737894 
L 729.777273 177.947123 
L 731.045455 178.859963 
L 732.313636 184.141094 
L 732.313636 190.368411 
L 733.581818 196.149728 
L 733.581818 201.543402 
L 734.85 206.553599 
L 734.85 211.738861 
L 738.654545 227.24463 
L 742.459091 241.679166 
L 743.727273 247.856464 
L 746.263636 261.73246 
L 746.263636 267.805553 
L 747.531818 273.253413 
L 747.531818 278.130227 
L 748.8 284.62431 
L 748.8 292.38553 
L 750.068182 300.042546 
L 751.336364 305.561265 
L 752.604545 309.616941 
L 753.872727 311.780246 
L 753.872727 312.013666 
L 755.140909 312.126208 
L 755.140909 313.885195 
L 756.409091 317.290629 
L 756.409091 319.858251 
L 757.677273 323.117797 
L 757.677273 326.760819 
L 758.945455 330.674775 
L 760.213636 333.700901 
L 761.481818 336.385233 
L 762.75 338.319285 
L 765.286364 341.182851 
L 766.554545 343.271128 
L 767.822727 345.772058 
L 769.090909 347.87284 
L 770.359091 349.731865 
L 770.359091 351.290778 
L 771.627273 352.645448 
L 786.845455 351.624235 
L 788.113636 348.114596 
L 789.381818 341.633018 
L 790.65 334.45118 
L 790.65 326.835847 
L 791.918182 320.646044 
L 795.722727 314.689661 
L 796.990909 308.862493 
L 798.259091 302.105813 
L 798.259091 295.49502 
L 799.527273 288.875891 
L 799.527273 283.348835 
L 802.063636 274.05371 
L 803.331818 267.859739 
L 804.6 261.090555 
L 810.940909 253.516904 
L 810.940909 246.335065 
L 812.209091 237.340052 
L 814.745455 228.215824 
L 819.818182 187.275594 
L 821.086364 178.626543 
L 823.622727 163.525091 
L 823.622727 156.826766 
L 824.890909 152.658549 
L 827.427273 153.412996 
L 827.427273 159.544444 
L 828.695455 166.405329 
L 829.963636 167.855869 
L 829.963636 161.899486 
L 831.231818 148.498668 
L 831.231818 130.758735 
L 832.5 115.023714 
L 833.768182 105.303431 
L 838.840909 102.006371 
L 838.840909 100.247384 
L 840.109091 101.522858 
L 840.109091 103.681995 
L 841.377273 106.80399 
L 842.645455 106.191262 
L 843.913636 104.899114 
L 845.181818 98.755162 
L 846.45 90.835549 
L 847.718182 82.132311 
L 848.986364 77.313852 
L 850.254545 76.567741 
L 851.522727 77.01374 
L 852.790909 77.180469 
L 854.059091 77.009572 
L 857.863636 78.618504 
L 857.863636 80.398333 
L 859.131818 84.579055 
L 860.4 88.276263 
L 861.668182 93.453189 
L 861.668182 96.666885 
L 862.936364 98.559256 
L 864.204545 98.625947 
L 866.740909 99.22617 
L 868.009091 101.910502 
L 868.009091 107.350026 
L 870.545455 118.895988 
L 871.813636 125.752706 
L 875.618182 141.17511 
L 878.154545 154.500901 
L 879.422727 161.495169 
L 880.690909 167.072244 
L 881.959091 173.928962 
L 881.959091 181.865247 
L 883.227273 188.976226 
L 884.495455 194.290703 
L 884.495455 197.729483 
L 885.763636 202.347868 
L 885.763636 210.317499 
L 887.031818 214.473212 
L 887.031818 218.528887 
L 888.3 220.525463 
L 888.3 221.49249 
L 889.568182 221.942657 
L 889.568182 225.881623 
L 890.836364 229.895616 
L 890.836364 240.52457 
L 892.104545 245.034581 
L 892.104545 248.477529 
L 893.372727 250.374068 
L 893.372727 251.278571 
L 894.640909 251.649542 
L 894.640909 253.03339 
L 895.909091 255.876115 
L 895.909091 259.194016 
L 897.177273 263.128813 
L 897.177273 266.776003 
L 907.322727 305.440387 
L 909.859091 316.019323 
L 911.127273 321.162903 
L 930.15 326.777492 
L 931.418182 332.350398 
L 932.686364 337.298072 
L 933.954545 341.099486 
L 933.954545 343.712959 
L 933.954545 343.712959 
" clip-path="url(#pfb6209d7a1)" style="fill: none; stroke: #008000; stroke-width: 1.5; stroke-linecap: square"/>
   </g>
   <g id="patch_3">
    <path d="M 135 384.48 
L 135 51.84 
" style="fill: none; stroke: #000000; stroke-width: 0.8; stroke-linejoin: miter; stroke-linecap: square"/>
   </g>
   <g id="patch_4">
    <path d="M 972 384.48 
L 972 51.84 
" style="fill: none; stroke: #000000; stroke-width: 0.8; stroke-linejoin: miter; stroke-linecap: square"/>
   </g>
   <g id="patch_5">
    <path d="M 135 384.48 
L 972 384.48 
" style="fill: none; stroke: #000000; stroke-width: 0.8; stroke-linejoin: miter; stroke-linecap: square"/>
   </g>
   <g id="patch_6">
    <path d="M 135 51.84 
L 972 51.84 
" style="fill: none; stroke: #000000; stroke-width: 0.8; stroke-linejoin: miter; stroke-linecap: square"/>
   </g>
  </g>
  <g id="axes_2">
   <g id="matplotlib.axis_3">
    <g id="ytick_7">
     <g id="line2d_16">
      <path d="M 135 369.36 
L 972 369.36 
" clip-path="url(#pfb6209d7a1)" style="fill: none; stroke: #b0b0b0; stroke-width: 0.8; stroke-linecap: square"/>
     </g>
     <g id="line2d_17">
      <defs>
       <path id="md0d64f03fc" d="M 0 0 
L 3.5 0 
" style="stroke: #000000; stroke-width: 0.8"/>
      </defs>
      <g>
       <use xlink:href="#md0d64f03fc" x="972" y="369.36" style="stroke: #000000; stroke-width: 0.8"/>
      </g>
     </g>
     <g id="text_15">
      <!-- 0 -->
      <g transform="translate(979 372.934219) scale(0.1 -0.1)">
       <use xlink:href="#Times New Roman-30"/>
      </g>
     </g>
    </g>
    <g id="ytick_8">
     <g id="line2d_18">
      <path d="M 135 319.399226 
L 972 319.399226 
" clip-path="url(#pfb6209d7a1)" style="fill: none; stroke: #b0b0b0; stroke-width: 0.8; stroke-linecap: square"/>
     </g>
     <g id="line2d_19">
      <g>
       <use xlink:href="#md0d64f03fc" x="972" y="319.399226" style="stroke: #000000; stroke-width: 0.8"/>
      </g>
     </g>
     <g id="text_16">
      <!-- 5 -->
      <g transform="translate(979 322.973444) scale(0.1 -0.1)">
       <use xlink:href="#Times New Roman-35"/>
      </g>
     </g>
    </g>
    <g id="ytick_9">
     <g id="line2d_20">
      <path d="M 135 269.438451 
L 972 269.438451 
" clip-path="url(#pfb6209d7a1)" style="fill: none; stroke: #b0b0b0; stroke-width: 0.8; stroke-linecap: square"/>
     </g>
     <g id="line2d_21">
      <g>
       <use xlink:href="#md0d64f03fc" x="972" y="269.438451" style="stroke: #000000; stroke-width: 0.8"/>
      </g>
     </g>
     <g id="text_17">
      <!-- 10 -->
      <g transform="translate(979 273.01267) scale(0.1 -0.1)">
       <use xlink:href="#Times New Roman-31"/>
       <use xlink:href="#Times New Roman-30" x="50"/>
      </g>
     </g>
    </g>
    <g id="ytick_10">
     <g id="line2d_22">
      <path d="M 135 219.477677 
L 972 219.477677 
" clip-path="url(#pfb6209d7a1)" style="fill: none; stroke: #b0b0b0; stroke-width: 0.8; stroke-linecap: square"/>
     </g>
     <g id="line2d_23">
      <g>
       <use xlink:href="#md0d64f03fc" x="972" y="219.477677" style="stroke: #000000; stroke-width: 0.8"/>
      </g>
     </g>
     <g id="text_18">
      <!-- 15 -->
      <g transform="translate(979 223.051896) scale(0.1 -0.1)">
       <use xlink:href="#Times New Roman-31"/>
       <use xlink:href="#Times New Roman-35" x="50"/>
      </g>
     </g>
    </g>
    <g id="ytick_11">
     <g id="line2d_24">
      <path d="M 135 169.516903 
L 972 169.516903 
" clip-path="url(#pfb6209d7a1)" style="fill: none; stroke: #b0b0b0; stroke-width: 0.8; stroke-linecap: square"/>
     </g>
     <g id="line2d_25">
      <g>
       <use xlink:href="#md0d64f03fc" x="972" y="169.516903" style="stroke: #000000; stroke-width: 0.8"/>
      </g>
     </g>
     <g id="text_19">
      <!-- 20 -->
      <g transform="translate(979 173.091122) scale(0.1 -0.1)">
       <use xlink:href="#Times New Roman-32"/>
       <use xlink:href="#Times New Roman-30" x="50"/>
      </g>
     </g>
    </g>
    <g id="ytick_12">
     <g id="line2d_26">
      <path d="M 135 119.556129 
L 972 119.556129 
" clip-path="url(#pfb6209d7a1)" style="fill: none; stroke: #b0b0b0; stroke-width: 0.8; stroke-linecap: square"/>
     </g>
     <g id="line2d_27">
      <g>
       <use xlink:href="#md0d64f03fc" x="972" y="119.556129" style="stroke: #000000; stroke-width: 0.8"/>
      </g>
     </g>
     <g id="text_20">
      <!-- 25 -->
      <g transform="translate(979 123.130347) scale(0.1 -0.1)">
       <use xlink:href="#Times New Roman-32"/>
       <use xlink:href="#Times New Roman-35" x="50"/>
      </g>
     </g>
    </g>
    <g id="ytick_13">
     <g id="line2d_28">
      <path d="M 135 69.595354 
L 972 69.595354 
" clip-path="url(#pfb6209d7a1)" style="fill: none; stroke: #b0b0b0; stroke-width: 0.8; stroke-linecap: square"/>
     </g>
     <g id="line2d_29">
      <g>
       <use xlink:href="#md0d64f03fc" x="972" y="69.595354" style="stroke: #000000; stroke-width: 0.8"/>
      </g>
     </g>
     <g id="text_21">
      <!-- 30 -->
      <g transform="translate(979 73.169573) scale(0.1 -0.1)">
       <use xlink:href="#Times New Roman-33"/>
       <use xlink:href="#Times New Roman-30" x="50"/>
      </g>
     </g>
    </g>
    <g id="text_22">
     <!-- buffer (s) -->
     <g transform="translate(1000.617188 243.16) rotate(-90) scale(0.1 -0.1)">
      <defs>
       <path id="Times New Roman-75" d="M 1450 325
Q 1750 325 1962 475 
Q 2175 625 2275 950 
L 2275 2525 
Q 2275 2625 2225 2687 
Q 2175 2750 2050 2750 
L 1900 2750 
L 1900 2900 
L 2050 2900 
Q 2200 2900 2325 2925 
Q 2450 2950 2575 3050 
L 2625 3050 
L 2625 600 
Q 2625 500 2687 450 
Q 2750 400 2850 400 
L 3000 400 
L 3000 250 
L 2850 250 
Q 2725 250 2600 212 
Q 2475 175 2325 100 
L 2275 100 
L 2275 625 
Q 2150 350 1900 212 
Q 1650 75 1325 75 
Q 925 75 725 300 
Q 525 525 525 1025 
L 525 2525 
Q 525 2625 475 2687 
Q 425 2750 300 2750 
L 150 2750 
L 150 2900 
L 300 2900 
Q 450 2900 575 2925 
Q 700 2950 825 3050 
L 875 3050 
L 875 975 
Q 875 625 1025 475 
Q 1175 325 1450 325 
z
" transform="scale(0.015625)"/>
       <path id="Times New Roman-66" d="M 1125 3325
Q 1125 3850 1450 4112 
Q 1775 4375 2175 4375 
Q 2600 4375 2812 4225 
Q 3025 4075 3025 3875 
Q 3025 3775 2975 3700 
Q 2925 3625 2775 3625 
Q 2675 3625 2612 3675 
Q 2550 3725 2550 3850 
Q 2550 3875 2575 3925 
Q 2575 3975 2575 4000 
Q 2575 4100 2500 4162 
Q 2425 4225 2150 4225 
Q 1850 4225 1662 4037 
Q 1475 3850 1475 3400 
L 1475 2900 
L 2525 2900 
L 2525 2750 
L 1475 2750 
L 1475 450 
Q 1475 350 1537 300 
Q 1600 250 1700 250 
L 2300 250 
L 2300 100 
L 475 100 
L 475 250 
L 900 250 
Q 1025 250 1075 300 
Q 1125 350 1125 450 
L 1125 2750 
L 350 2750 
L 350 2900 
L 1125 2900 
L 1125 3325 
z
" transform="scale(0.015625)"/>
      </defs>
      <use xlink:href="#Times New Roman-62"/>
      <use xlink:href="#Times New Roman-75" x="50"/>
      <use xlink:href="#Times New Roman-66" x="100"/>
      <use xlink:href="#Times New Roman-66" x="150"/>
      <use xlink:href="#Times New Roman-65" x="200"/>
      <use xlink:href="#Times New Roman-72" x="250"/>
      <use xlink:href="#Times New Roman-20" x="300"/>
      <use xlink:href="#Times New Roman-28" x="350"/>
      <use xlink:href="#Times New Roman-73" x="400"/>
      <use xlink:href="#Times New Roman-29" x="450"/>
     </g>
    </g>
   </g>
   <g id="line2d_30">
    <path d="M 173.045455 369.36 
L 174.313636 324.193358 
L 175.581818 289.149348 
L 176.85 218.595945 
L 178.118182 167.180328 
L 179.386364 130.60991 
L 183.190909 113.315615 
L 183.190909 104.010859 
L 184.459091 100.612657 
L 186.995455 97.698278 
L 186.995455 93.810391 
L 188.263636 91.877625 
L 190.8 88.824465 
L 192.068182 87.091767 
L 192.068182 83.056997 
L 193.336364 77.089462 
L 193.336364 75.145175 
L 194.604545 72.644404 
L 195.872727 73.750542 
L 198.409091 74.029468 
L 199.677273 74.309761 
L 200.945455 77.043201 
L 202.213636 76.904421 
L 202.213636 78.060921 
L 203.481818 74.623528 
L 204.75 77.491646 
L 206.018182 77.907984 
L 207.286364 79.309937 
L 209.822727 80.892472 
L 211.090909 83.27971 
L 211.090909 86.471651 
L 212.359091 83.686357 
L 214.895455 84.097848 
L 216.163636 84.791746 
L 217.431818 87.331752 
L 218.7 87.901415 
L 219.968182 86.097276 
L 221.236364 86.471649 
L 223.772727 77.713972 
L 223.772727 78.824212 
L 225.040909 76.881294 
L 227.577273 80.836522 
L 228.845455 74.591425 
L 230.113636 70.289249 
L 231.381818 68.485113 
L 231.381818 69.595354 
L 246.6 69.595354 
L 246.6 78.021274 
L 247.868182 78.021274 
L 247.868182 82.938044 
L 249.136364 74.512124 
L 249.136364 75.919745 
L 250.404545 71.002975 
L 250.404545 68.901446 
L 251.672727 67.493825 
L 251.672727 67.493825 
L 252.940909 69.595354 
L 254.209091 69.595354 
L 258.013636 84.028464 
L 258.013636 183.950013 
L 259.281818 195.191185 
L 259.281818 280.679623 
L 260.55 188.807307 
L 260.55 277.487684 
L 261.818182 182.42343 
L 261.818182 274.295746 
L 263.086364 274.295746 
L 263.086364 271.103807 
L 265.622727 242.342334 
L 266.890909 261.679004 
L 266.890909 259.704765 
L 268.159091 200.294788 
L 268.159091 199.307669 
L 269.427273 181.071985 
L 269.427273 191.637764 
L 269.427273 190.650645 
L 270.695455 202.613476 
L 270.695455 256.677923 
L 271.963636 195.353504 
L 271.963636 251.567258 
L 273.231818 256.990504 
L 273.231818 315.353564 
L 273.231818 252.866958 
L 274.5 246.954198 
L 274.5 245.967079 
L 275.768182 280.002855 
L 275.768182 273.102976 
L 277.036364 297.605328 
L 277.036364 257.494656 
L 278.304545 215.575424 
L 278.304545 209.662664 
L 278.304545 241.886336 
L 279.572727 233.177896 
L 279.572727 226.278017 
L 280.840909 273.944331 
L 280.840909 268.031571 
L 282.109091 237.988213 
L 283.377273 226.162693 
L 283.377273 252.257573 
L 284.645455 213.350053 
L 284.645455 244.370574 
L 285.913636 242.396335 
L 287.181818 277.355377 
L 297.327273 253.664509 
L 321.422727 291.242554 
L 323.959091 369.36 
L 496.431818 369.36 
L 496.431818 369.36 
L 497.7 355.511466 
L 502.772727 355.511466 
L 504.040909 369.36 
L 516.722727 369.36 
L 517.990909 324.152435 
L 519.259091 291.469759 
L 520.527273 271.31197 
L 521.795455 316.519535 
L 526.868182 349.202211 
L 528.136364 352.012507 
L 529.404545 331.334295 
L 530.672727 307.464143 
L 533.209091 288.034951 
L 534.477273 276.789233 
L 535.745455 263.855098 
L 537.013636 252.891483 
L 538.281818 244.152891 
L 539.55 233.14749 
L 539.55 235.321707 
L 540.818182 222.415174 
L 540.818182 248.06633 
L 542.086364 228.264888 
L 543.354545 229.881186 
L 544.622727 198.515522 
L 545.890909 200.044275 
L 548.427273 196.150082 
L 549.695455 198.742041 
L 552.231818 202.623673 
L 553.5 205.17913 
L 553.5 187.760148 
L 554.768182 182.224184 
L 557.304545 174.476454 
L 558.572727 174.549085 
L 561.109091 144.121305 
L 561.109091 133.793034 
L 562.377273 124.841727 
L 564.913636 114.988353 
L 567.45 94.43695 
L 567.45 83.195779 
L 568.718182 78.199702 
L 571.254545 73.897523 
L 572.522727 72.366858 
L 573.790909 69.174924 
L 575.059091 68.064689 
L 576.327273 69.595354 
L 594.081818 69.595354 
L 595.35 70.775714 
L 596.618182 68.14036 
L 597.886364 68.14036 
L 599.154545 66.96 
L 599.154545 90.689901 
L 600.422727 105.678131 
L 601.690909 114.560043 
L 601.690909 135.012735 
L 602.959091 122.800101 
L 602.959091 150.243832 
L 604.227273 108.696594 
L 604.227273 137.025047 
L 605.495455 126.581857 
L 606.763636 147.242716 
L 610.568182 100.248361 
L 613.104545 180.636633 
L 614.372727 222.704299 
L 620.713636 163.115671 
L 624.518182 190.698182 
L 627.054545 248.205116 
L 630.859091 219.47767 
L 634.663636 232.906613 
L 637.2 261.740126 
L 638.468182 254.139938 
L 641.004545 260.175542 
L 643.540909 273.601843 
L 644.809091 274.296624 
L 646.077273 276.241307 
L 647.345455 279.435892 
L 649.881818 278.87989 
L 651.15 281.098605 
L 653.686364 276.516219 
L 653.686364 277.904018 
L 654.954545 276.099878 
L 657.490909 279.846936 
L 658.759091 273.315444 
L 660.027273 265.404988 
L 660.027273 255.34314 
L 661.295455 249.243809 
L 663.831818 244.247731 
L 665.1 240.847925 
L 666.368182 234.882239 
L 666.368182 226.833004 
L 667.636364 222.392047 
L 670.172727 217.534141 
L 671.440909 212.954402 
L 671.440909 205.668153 
L 672.709091 199.840002 
L 675.245455 196.370506 
L 675.245455 181.590747 
L 676.513636 178.815149 
L 679.05 175.484431 
L 680.318182 182.284648 
L 681.586364 171.38844 
L 684.122727 140.579296 
L 684.122727 133.431858 
L 685.390909 128.01944 
L 687.927273 123.57848 
L 689.195455 114.42126 
L 690.463636 106.510804 
L 690.463636 102.069848 
L 691.731818 96.394613 
L 693 95.143336 
L 693 98.925088 
L 694.268182 97.240474 
L 694.268182 101.059179 
L 695.536364 95.577373 
L 696.804545 96.969687 
L 699.340909 104.163113 
L 700.609091 110.119085 
L 701.877273 114.8376 
L 701.877273 125.824344 
L 703.145455 136.556659 
L 704.413636 159.825429 
L 704.413636 151.359852 
L 705.681818 142.894275 
L 705.681818 140.627536 
L 706.95 148.884943 
L 708.218182 159.1084 
L 710.754545 145.507968 
L 717.095455 149.093116 
L 718.363636 158.067552 
L 720.9 171.667984 
L 722.168182 173.439899 
L 722.168182 174.41949 
L 723.436364 167.896835 
L 723.436364 169.318547 
L 724.704545 165.251948 
L 725.972727 163.170249 
L 725.972727 172.366796 
L 728.509091 190.566451 
L 729.777273 180.898749 
L 731.045455 195.333037 
L 732.313636 207.239833 
L 732.313636 247.727481 
L 733.581818 236.227361 
L 733.581818 256.986083 
L 734.85 220.127679 
L 734.85 242.036897 
L 736.118182 232.837771 
L 737.386364 251.297923 
L 739.922727 223.700544 
L 741.190909 267.654133 
L 743.727273 331.215341 
L 744.995455 305.362621 
L 746.263636 291.801839 
L 746.263636 313.134299 
L 747.531818 304.093778 
L 747.531818 334.466759 
L 748.8 295.053257 
L 748.8 329.946498 
L 750.068182 329.946498 
L 751.336364 354.926884 
L 753.872727 322.147056 
L 753.872727 336.580173 
L 755.140909 333.97111 
L 755.140909 351.013289 
L 756.409091 331.362047 
L 756.409091 349.708758 
L 757.677273 328.752984 
L 757.677273 348.404226 
L 758.945455 348.404226 
L 760.213636 369.36 
L 810.940909 369.36 
L 810.940909 346.079665 
L 814.745455 346.079665 
L 816.013636 369.36 
L 817.281818 353.539085 
L 818.55 333.554772 
L 819.818182 309.962182 
L 822.354545 288.312513 
L 823.622727 278.352488 
L 824.890909 274.050312 
L 827.427273 267.703695 
L 827.427273 253.097108 
L 828.695455 243.411676 
L 829.963636 241.260586 
L 829.963636 241.468755 
L 831.231818 243.590681 
L 831.231818 241.231422 
L 833.768182 238.039485 
L 838.840909 242.758003 
L 838.840909 247.372436 
L 840.109091 250.564373 
L 840.109091 253.24745 
L 841.377273 253.062409 
L 842.645455 253.062409 
L 845.181818 258.613607 
L 846.45 261.666767 
L 847.718182 263.887245 
L 848.986364 266.524063 
L 850.254545 269.577219 
L 851.522727 269.66974 
L 852.790909 270.96502 
L 854.059091 273.463058 
L 857.863636 274.804597 
L 857.863636 276.238657 
L 859.131818 277.211564 
L 860.4 277.211564 
L 861.668182 276.240105 
L 861.668182 279.014259 
L 864.204545 280.679619 
L 866.740909 281.928636 
L 868.009091 282.206194 
L 868.009091 288.21999 
L 869.277273 289.422751 
L 870.545455 291.365672 
L 871.813636 294.788909 
L 873.081818 297.610766 
L 874.35 299.831242 
L 875.618182 303.393262 
L 876.886364 306.076343 
L 878.154545 307.880483 
L 879.422727 325.551796 
L 880.690909 330.131533 
L 881.959091 334.15615 
L 881.959091 334.15615 
L 883.227273 350.069585 
L 884.495455 369.36 
L 884.495455 369.36 
L 885.763636 354.510545 
L 885.763636 354.510545 
L 887.031818 369.36 
L 887.031818 369.36 
L 933.954545 369.36 
L 933.954545 369.36 
" clip-path="url(#pfb6209d7a1)" style="fill: none; stroke: #1f77b4; stroke-width: 1.5; stroke-linecap: square"/>
   </g>
   <g id="patch_7">
    <path d="M 135 384.48 
L 135 51.84 
" style="fill: none; stroke: #000000; stroke-width: 0.8; stroke-linejoin: miter; stroke-linecap: square"/>
   </g>
   <g id="patch_8">
    <path d="M 972 384.48 
L 972 51.84 
" style="fill: none; stroke: #000000; stroke-width: 0.8; stroke-linejoin: miter; stroke-linecap: square"/>
   </g>
   <g id="patch_9">
    <path d="M 135 384.48 
L 972 384.48 
" style="fill: none; stroke: #000000; stroke-width: 0.8; stroke-linejoin: miter; stroke-linecap: square"/>
   </g>
   <g id="patch_10">
    <path d="M 135 51.84 
L 972 51.84 
" style="fill: none; stroke: #000000; stroke-width: 0.8; stroke-linejoin: miter; stroke-linecap: square"/>
   </g>
   <g id="text_23">
    <!-- ./comyco/log_comyco_2_wave -->
    <g transform="translate(475.5 45.84) scale(0.12 -0.12)">
     <defs>
      <path id="Times New Roman-2e" d="M 800 25
Q 650 25 537 125 
Q 425 225 425 400 
Q 425 575 537 675 
Q 650 775 800 775 
Q 950 775 1062 662 
Q 1175 550 1175 400 
Q 1175 225 1062 125 
Q 950 25 800 25 
z
" transform="scale(0.015625)"/>
      <path id="Times New Roman-2f" d="M 400 -475
L 225 -375 
L 2775 4975 
L 2950 4875 
L 400 -475 
z
" transform="scale(0.015625)"/>
      <path id="Times New Roman-63" d="M 2150 2225
Q 2150 2300 2175 2325 
Q 2175 2350 2200 2425 
Q 2225 2525 2100 2662 
Q 1975 2800 1675 2800 
Q 1300 2800 1037 2437 
Q 775 2075 775 1475 
Q 775 925 1000 587 
Q 1225 250 1750 250 
Q 2100 250 2337 475 
Q 2575 700 2675 1000 
L 2800 950 
Q 2700 575 2425 312 
Q 2150 50 1675 50 
Q 1075 50 725 425 
Q 375 800 375 1500 
Q 375 2125 750 2537 
Q 1125 2950 1725 2950 
Q 2150 2950 2387 2725 
Q 2625 2500 2625 2275 
Q 2625 2125 2562 2062 
Q 2500 2000 2375 2000 
Q 2275 2000 2212 2062 
Q 2150 2125 2150 2225 
z
" transform="scale(0.015625)"/>
      <path id="Times New Roman-6f" d="M 2900 1500
Q 2900 875 2525 462 
Q 2150 50 1600 50 
Q 1025 50 662 475 
Q 300 900 300 1500 
Q 300 2050 662 2500 
Q 1025 2950 1600 2950 
Q 2200 2950 2550 2500 
Q 2900 2050 2900 1500 
z
M 700 1475 
Q 700 825 962 512 
Q 1225 200 1600 200 
Q 2025 200 2262 537 
Q 2500 875 2500 1475 
Q 2500 2125 2237 2462 
Q 1975 2800 1600 2800 
Q 1250 2800 975 2462 
Q 700 2125 700 1475 
z
" transform="scale(0.015625)"/>
      <path id="Times New Roman-6d" d="M 175 2900
Q 300 2900 425 2925 
Q 550 2950 625 3000 
L 675 3000 
L 675 2575 
Q 800 2775 950 2862 
Q 1100 2950 1275 2950 
Q 1500 2950 1625 2862 
Q 1750 2775 1775 2575 
Q 1900 2775 2062 2862 
Q 2225 2950 2400 2950 
Q 2700 2950 2812 2775 
Q 2925 2600 2925 2325 
L 2925 425 
Q 2925 325 2975 287 
Q 3025 250 3125 250 
L 3175 250 
L 3175 100 
L 2325 100 
L 2325 250 
L 2375 250 
Q 2475 250 2525 287 
Q 2575 325 2575 425 
L 2575 2300 
Q 2575 2575 2512 2662 
Q 2450 2750 2325 2750 
Q 2150 2750 2012 2625 
Q 1875 2500 1800 2275 
L 1800 425 
Q 1800 325 1850 287 
Q 1900 250 2000 250 
L 2050 250 
L 2050 100 
L 1200 100 
L 1200 250 
L 1250 250 
Q 1350 250 1400 287 
Q 1450 325 1450 425 
L 1450 2300 
Q 1450 2525 1400 2637 
Q 1350 2750 1200 2750 
Q 1025 2750 887 2625 
Q 750 2500 675 2250 
L 675 425 
Q 675 325 725 287 
Q 775 250 875 250 
L 925 250 
L 925 100 
L 75 100 
L 75 250 
L 125 250 
Q 225 250 275 287 
Q 325 325 325 425 
L 325 2600 
Q 325 2675 300 2712 
Q 275 2750 200 2750 
L 100 2750 
L 100 2900 
L 175 2900 
z
" transform="scale(0.015625)"/>
      <path id="Times New Roman-79" d="M 1650 800
L 1700 800 
L 2250 2475 
Q 2300 2600 2237 2675 
Q 2175 2750 2075 2750 
L 1925 2750 
L 1925 2900 
L 2975 2900 
L 2975 2750 
L 2825 2750 
Q 2725 2750 2625 2675 
Q 2525 2600 2475 2475 
L 1625 0 
Q 1500 -375 1312 -587 
Q 1125 -800 825 -800 
Q 650 -800 550 -737 
Q 450 -675 450 -550 
Q 450 -475 512 -400 
Q 575 -325 700 -325 
Q 800 -325 900 -425 
Q 1000 -500 1050 -500 
Q 1125 -500 1175 -475 
Q 1225 -450 1250 -375 
Q 1325 -250 1400 -62 
Q 1475 125 1525 325 
L 675 2525 
Q 650 2625 562 2687 
Q 475 2750 375 2750 
L 275 2750 
L 275 2900 
L 1325 2900 
L 1325 2750 
L 1225 2750 
Q 1125 2750 1075 2687 
Q 1025 2625 1050 2500 
L 1650 800 
z
M 950 2750 
L 950 2750 
z
M 600 2750 
L 600 2750 
z
M 2575 2750 
L 2575 2750 
z
M 2325 2750 
L 2325 2750 
z
" transform="scale(0.015625)"/>
      <path id="Times New Roman-6c" d="M 925 4375
Q 1150 4375 1350 4425 
Q 1550 4475 1725 4575 
L 1775 4575 
L 1775 450 
Q 1775 350 1837 300 
Q 1900 250 2000 250 
L 2575 250 
L 2575 100 
L 625 100 
L 625 250 
L 1200 250 
Q 1325 250 1375 300 
Q 1425 350 1425 450 
L 1425 4025 
Q 1425 4125 1375 4175 
Q 1325 4225 1200 4225 
L 650 4225 
L 650 4375 
L 925 4375 
z
" transform="scale(0.015625)"/>
      <path id="Times New Roman-67" d="M 875 1975
Q 875 1675 1050 1462 
Q 1225 1250 1525 1250 
Q 1850 1250 2012 1437 
Q 2175 1625 2175 1975 
Q 2175 2400 1987 2587 
Q 1800 2775 1525 2775 
Q 1250 2775 1062 2587 
Q 875 2400 875 1975 
z
M 2100 625 
Q 2475 575 2650 412 
Q 2825 250 2825 -25 
Q 2825 -400 2512 -625 
Q 2200 -850 1525 -850 
Q 1000 -850 675 -637 
Q 350 -425 350 -150 
Q 350 25 475 200 
Q 600 375 875 475 
Q 725 550 637 637 
Q 550 725 550 850 
Q 550 1000 650 1112 
Q 750 1225 900 1300 
Q 750 1425 637 1600 
Q 525 1775 525 1975 
Q 525 2350 787 2637 
Q 1050 2925 1525 2925 
Q 1725 2925 1912 2875 
Q 2100 2825 2225 2700 
Q 2400 2825 2537 2887 
Q 2675 2950 2775 2950 
Q 2900 2950 2950 2862 
Q 3000 2775 3000 2700 
Q 3000 2600 2962 2537 
Q 2925 2475 2825 2475 
Q 2750 2475 2700 2512 
Q 2650 2550 2625 2625 
Q 2600 2700 2512 2687 
Q 2425 2675 2325 2600 
Q 2425 2500 2475 2325 
Q 2525 2150 2525 1975 
Q 2525 1675 2287 1387 
Q 2050 1100 1525 1100 
Q 1375 1100 1250 1137 
Q 1125 1175 1050 1225 
Q 950 1175 900 1100 
Q 850 1025 850 975 
Q 850 875 900 825 
Q 950 775 1050 775 
Q 1375 725 1637 687 
Q 1900 650 2100 625 
z
M 1075 425 
Q 850 325 762 187 
Q 675 50 675 -150 
Q 675 -350 900 -525 
Q 1125 -700 1575 -700 
Q 2000 -700 2250 -562 
Q 2500 -425 2500 -150 
Q 2500 25 2437 125 
Q 2375 225 2250 250 
Q 2000 300 1700 350 
Q 1400 375 1075 425 
z
" transform="scale(0.015625)"/>
      <path id="Times New Roman-5f" d="M 0 -875
L 0 -725 
L 3175 -725 
L 3175 -875 
L 0 -875 
z
" transform="scale(0.015625)"/>
      <path id="Times New Roman-77" d="M 2325 2900
L 3175 2900 
L 3175 2750 
L 3075 2750 
Q 2975 2750 2900 2675 
Q 2825 2600 2775 2425 
L 2175 75 
L 2025 75 
L 1575 1975 
L 1100 75 
L 950 75 
L 375 2375 
Q 350 2550 275 2650 
Q 200 2750 125 2750 
L 25 2750 
L 25 2900 
L 925 2900 
L 925 2750 
L 825 2750 
Q 725 2750 700 2662 
Q 675 2575 700 2425 
L 1075 800 
L 1125 800 
L 1500 2300 
Q 1475 2525 1400 2637 
Q 1325 2750 1225 2750 
L 1150 2750 
L 1150 2900 
L 2000 2900 
L 2000 2750 
L 1925 2750 
Q 1825 2750 1800 2662 
Q 1775 2575 1800 2425 
L 2175 800 
L 2200 800 
L 2625 2550 
Q 2650 2650 2600 2700 
Q 2550 2750 2450 2750 
L 2325 2750 
L 2325 2900 
z
M 1725 2750 
L 1725 2750 
z
M 625 2750 
L 625 2750 
z
M 275 2750 
L 275 2750 
z
M 2875 2750 
L 2875 2750 
z
M 2675 2750 
L 2675 2750 
z
" transform="scale(0.015625)"/>
      <path id="Times New Roman-76" d="M 1625 75
L 1475 75 
L 625 2525 
Q 600 2625 525 2687 
Q 450 2750 350 2750 
L 225 2750 
L 225 2900 
L 1300 2900 
L 1300 2750 
L 1200 2750 
Q 1050 2750 1025 2700 
Q 1000 2650 1000 2600 
Q 1000 2500 1025 2425 
L 1625 675 
L 1675 675 
L 2275 2400 
Q 2325 2525 2325 2575 
Q 2325 2600 2275 2675 
Q 2225 2750 2075 2750 
L 2025 2750 
L 2025 2900 
L 2925 2900 
L 2925 2750 
L 2875 2750 
Q 2725 2750 2637 2662 
Q 2550 2575 2475 2400 
L 1625 75 
z
M 2600 2750 
L 2600 2750 
z
M 2400 2750 
L 2400 2750 
z
M 925 2750 
L 925 2750 
z
M 550 2750 
L 550 2750 
z
" transform="scale(0.015625)"/>
     </defs>
     <use xlink:href="#Times New Roman-2e"/>
     <use xlink:href="#Times New Roman-2f" x="50"/>
     <use xlink:href="#Times New Roman-63" x="100"/>
     <use xlink:href="#Times New Roman-6f" x="150"/>
     <use xlink:href="#Times New Roman-6d" x="200"/>
     <use xlink:href="#Times New Roman-79" x="250"/>
     <use xlink:href="#Times New Roman-63" x="300"/>
     <use xlink:href="#Times New Roman-6f" x="350"/>
     <use xlink:href="#Times New Roman-2f" x="400"/>
     <use xlink:href="#Times New Roman-6c" x="450"/>
     <use xlink:href="#Times New Roman-6f" x="500"/>
     <use xlink:href="#Times New Roman-67" x="550"/>
     <use xlink:href="#Times New Roman-5f" x="600"/>
     <use xlink:href="#Times New Roman-63" x="650"/>
     <use xlink:href="#Times New Roman-6f" x="700"/>
     <use xlink:href="#Times New Roman-6d" x="750"/>
     <use xlink:href="#Times New Roman-79" x="800"/>
     <use xlink:href="#Times New Roman-63" x="850"/>
     <use xlink:href="#Times New Roman-6f" x="900"/>
     <use xlink:href="#Times New Roman-5f" x="950"/>
     <use xlink:href="#Times New Roman-32" x="1000"/>
     <use xlink:href="#Times New Roman-5f" x="1050"/>
     <use xlink:href="#Times New Roman-77" x="1100"/>
     <use xlink:href="#Times New Roman-61" x="1150"/>
     <use xlink:href="#Times New Roman-76" x="1200"/>
     <use xlink:href="#Times New Roman-65" x="1250"/>
    </g>
   </g>
   <g id="legend_1">
    <g id="patch_11">
     <path d="M 903 73.2775 
L 965 73.2775 
Q 967 73.2775 967 71.2775 
L 967 58.84 
Q 967 56.84 965 56.84 
L 903 56.84 
Q 901 56.84 901 58.84 
L 901 71.2775 
Q 901 73.2775 903 73.2775 
z
" style="fill: #ffffff; opacity: 0.8; stroke: #cccccc; stroke-linejoin: miter"/>
    </g>
    <g id="line2d_31">
     <path d="M 905 64.488437 
L 915 64.488437 
L 925 64.488437 
" style="fill: none; stroke: #1f77b4; stroke-width: 1.5; stroke-linecap: square"/>
    </g>
    <g id="text_24">
     <!-- buffer -->
     <g transform="translate(933 67.988437) scale(0.1 -0.1)">
      <use xlink:href="#Times New Roman-62"/>
      <use xlink:href="#Times New Roman-75" x="50"/>
      <use xlink:href="#Times New Roman-66" x="100"/>
      <use xlink:href="#Times New Roman-66" x="150"/>
      <use xlink:href="#Times New Roman-65" x="200"/>
      <use xlink:href="#Times New Roman-72" x="250"/>
     </g>
    </g>
   </g>
  </g>
 </g>
 <defs>
  <clipPath id="pfb6209d7a1">
   <rect x="135" y="51.84" width="837" height="332.64"/>
  </clipPath>
 </defs>
</svg>
