<?xml version="1.0" encoding="utf-8" standalone="no"?>
<!DOCTYPE svg PUBLIC "-//W3C//DTD SVG 1.1//EN"
  "http://www.w3.org/Graphics/SVG/1.1/DTD/svg11.dtd">
<svg xmlns:xlink="http://www.w3.org/1999/xlink" width="1080pt" height="432pt" viewBox="0 0 1080 432" xmlns="http://www.w3.org/2000/svg" version="1.1">
 <metadata>
  <rdf:RDF xmlns:dc="http://purl.org/dc/elements/1.1/" xmlns:cc="http://creativecommons.org/ns#" xmlns:rdf="http://www.w3.org/1999/02/22-rdf-syntax-ns#">
   <cc:Work>
    <dc:type rdf:resource="http://purl.org/dc/dcmitype/StillImage"/>
    <dc:date>2024-04-12T06:21:51.484609</dc:date>
    <dc:format>image/svg+xml</dc:format>
    <dc:creator>
     <cc:Agent>
      <dc:title>Matplotlib v3.8.3, https://matplotlib.org/</dc:title>
     </cc:Agent>
    </dc:creator>
   </cc:Work>
  </rdf:RDF>
 </metadata>
 <defs>
  <style type="text/css">*{stroke-linejoin: round; stroke-linecap: butt}</style>
 </defs>
 <g id="figure_1">
  <g id="patch_1">
   <path d="M 0 432 
L 1080 432 
L 1080 0 
L 0 0 
z
" style="fill: #ffffff"/>
  </g>
  <g id="axes_1">
   <g id="patch_2">
    <path d="M 135 384.48 
L 972 384.48 
L 972 51.84 
L 135 51.84 
z
" style="fill: #ffffff"/>
   </g>
   <g id="matplotlib.axis_1">
    <g id="xtick_1">
     <g id="line2d_1">
      <defs>
       <path id="ma35b075d8f" d="M 0 0 
L 0 3.5 
" style="stroke: #000000; stroke-width: 0.8"/>
      </defs>
      <g>
       <use xlink:href="#ma35b075d8f" x="173.045455" y="384.48" style="stroke: #000000; stroke-width: 0.8"/>
      </g>
     </g>
     <g id="text_1">
      <!-- 0 -->
      <g transform="translate(170.545455 398.628438) scale(0.1 -0.1)">
       <defs>
        <path id="Times New Roman-30" d="M 1600 4225
Q 1250 4225 1012 3687 
Q 775 3150 775 2250 
Q 775 1300 1012 775 
Q 1250 250 1600 250 
Q 1975 250 2187 775 
Q 2400 1300 2400 2250 
Q 2400 3150 2200 3687 
Q 2000 4225 1600 4225 
z
M 1600 50 
Q 1050 50 675 625 
Q 300 1200 300 2250 
Q 300 3225 662 3825 
Q 1025 4425 1600 4425 
Q 2150 4425 2512 3850 
Q 2875 3275 2875 2250 
Q 2875 1225 2512 637 
Q 2150 50 1600 50 
z
" transform="scale(0.015625)"/>
       </defs>
       <use xlink:href="#Times New Roman-30"/>
      </g>
     </g>
    </g>
    <g id="xtick_2">
     <g id="line2d_2">
      <g>
       <use xlink:href="#ma35b075d8f" x="299.863636" y="384.48" style="stroke: #000000; stroke-width: 0.8"/>
      </g>
     </g>
     <g id="text_2">
      <!-- 100 -->
      <g transform="translate(292.363636 398.628438) scale(0.1 -0.1)">
       <defs>
        <path id="Times New Roman-31" d="M 1825 4450
L 1825 650 
Q 1825 450 1950 350 
Q 2075 250 2300 250 
L 2550 250 
L 2550 100 
L 725 100 
L 725 250 
L 950 250 
Q 1200 250 1312 350 
Q 1425 450 1425 650 
L 1425 3675 
Q 1425 3775 1362 3837 
Q 1300 3900 1175 3900 
L 725 3900 
L 725 4050 
L 950 4050 
Q 1250 4050 1437 4150 
Q 1625 4250 1725 4450 
L 1825 4450 
z
" transform="scale(0.015625)"/>
       </defs>
       <use xlink:href="#Times New Roman-31"/>
       <use xlink:href="#Times New Roman-30" x="50"/>
       <use xlink:href="#Times New Roman-30" x="100"/>
      </g>
     </g>
    </g>
    <g id="xtick_3">
     <g id="line2d_3">
      <g>
       <use xlink:href="#ma35b075d8f" x="426.681818" y="384.48" style="stroke: #000000; stroke-width: 0.8"/>
      </g>
     </g>
     <g id="text_3">
      <!-- 200 -->
      <g transform="translate(419.181818 398.628438) scale(0.1 -0.1)">
       <defs>
        <path id="Times New Roman-32" d="M 2325 3325
Q 2325 3775 2125 4012 
Q 1925 4250 1525 4250 
Q 1225 4250 1012 4087 
Q 800 3925 800 3675 
Q 800 3525 900 3425 
Q 975 3325 975 3225 
Q 975 3100 912 3037 
Q 850 2975 725 2975 
Q 575 2975 487 3062 
Q 400 3150 400 3350 
Q 400 3875 775 4150 
Q 1150 4425 1575 4425 
Q 2175 4425 2462 4125 
Q 2750 3825 2750 3375 
Q 2750 3075 2612 2775 
Q 2475 2475 2175 2200 
Q 1450 1500 1062 1062 
Q 675 625 600 475 
L 2075 475 
Q 2300 475 2450 650 
Q 2600 825 2650 1175 
L 2800 1175 
L 2650 100 
L 325 100 
L 325 425 
Q 450 650 737 1000 
Q 1025 1350 1500 1825 
Q 1925 2250 2125 2625 
Q 2325 3000 2325 3325 
z
" transform="scale(0.015625)"/>
       </defs>
       <use xlink:href="#Times New Roman-32"/>
       <use xlink:href="#Times New Roman-30" x="50"/>
       <use xlink:href="#Times New Roman-30" x="100"/>
      </g>
     </g>
    </g>
    <g id="xtick_4">
     <g id="line2d_4">
      <g>
       <use xlink:href="#ma35b075d8f" x="553.5" y="384.48" style="stroke: #000000; stroke-width: 0.8"/>
      </g>
     </g>
     <g id="text_4">
      <!-- 300 -->
      <g transform="translate(546 398.628438) scale(0.1 -0.1)">
       <defs>
        <path id="Times New Roman-33" d="M 2800 1250
Q 2800 775 2450 412 
Q 2100 50 1475 50 
Q 1025 50 700 300 
Q 375 550 375 875 
Q 375 1025 475 1137 
Q 575 1250 675 1250 
Q 825 1250 887 1137 
Q 950 1025 950 950 
Q 950 825 900 750 
Q 850 650 850 575 
Q 850 425 1037 325 
Q 1225 225 1450 225 
Q 1900 225 2125 487 
Q 2350 750 2350 1300 
Q 2350 1750 2112 2025 
Q 1875 2300 1225 2300 
L 1225 2475 
Q 1725 2475 1962 2712 
Q 2200 2950 2200 3375 
Q 2200 3725 2012 3987 
Q 1825 4250 1425 4250 
Q 1250 4250 1050 4162 
Q 850 4075 850 3875 
Q 850 3675 900 3625 
Q 950 3575 950 3500 
Q 950 3375 900 3300 
Q 850 3225 725 3225 
Q 625 3225 537 3300 
Q 450 3375 450 3575 
Q 450 3950 775 4187 
Q 1100 4425 1525 4425 
Q 2025 4425 2325 4112 
Q 2625 3800 2625 3450 
Q 2625 3075 2437 2812 
Q 2250 2550 1850 2425 
Q 2400 2225 2600 1900 
Q 2800 1575 2800 1250 
z
" transform="scale(0.015625)"/>
       </defs>
       <use xlink:href="#Times New Roman-33"/>
       <use xlink:href="#Times New Roman-30" x="50"/>
       <use xlink:href="#Times New Roman-30" x="100"/>
      </g>
     </g>
    </g>
    <g id="xtick_5">
     <g id="line2d_5">
      <g>
       <use xlink:href="#ma35b075d8f" x="680.318182" y="384.48" style="stroke: #000000; stroke-width: 0.8"/>
      </g>
     </g>
     <g id="text_5">
      <!-- 400 -->
      <g transform="translate(672.818182 398.628438) scale(0.1 -0.1)">
       <defs>
        <path id="Times New Roman-34" d="M 2300 575
Q 2300 400 2400 325 
Q 2500 250 2675 250 
L 2900 250 
L 2900 100 
L 1250 100 
L 1250 250 
L 1525 250 
Q 1725 250 1812 325 
Q 1900 400 1900 575 
L 1900 1400 
L 225 1400 
L 225 1525 
L 2050 4425 
L 2300 4425 
L 2300 1550 
L 2975 1550 
L 2975 1400 
L 2300 1400 
L 2300 575 
z
M 1875 3800 
L 450 1550 
L 1900 1550 
L 1900 3800 
L 1875 3800 
z
" transform="scale(0.015625)"/>
       </defs>
       <use xlink:href="#Times New Roman-34"/>
       <use xlink:href="#Times New Roman-30" x="50"/>
       <use xlink:href="#Times New Roman-30" x="100"/>
      </g>
     </g>
    </g>
    <g id="xtick_6">
     <g id="line2d_6">
      <g>
       <use xlink:href="#ma35b075d8f" x="807.136364" y="384.48" style="stroke: #000000; stroke-width: 0.8"/>
      </g>
     </g>
     <g id="text_6">
      <!-- 500 -->
      <g transform="translate(799.636364 398.628438) scale(0.1 -0.1)">
       <defs>
        <path id="Times New Roman-35" d="M 1725 2850
Q 2200 2850 2500 2487 
Q 2800 2125 2800 1525 
Q 2800 850 2487 450 
Q 2175 50 1525 50 
Q 1075 50 725 312 
Q 375 575 375 950 
Q 375 1100 462 1212 
Q 550 1325 700 1325 
Q 850 1325 900 1225 
Q 950 1125 950 1050 
Q 950 900 875 825 
Q 800 725 800 625 
Q 800 425 1037 325 
Q 1275 225 1550 225 
Q 1950 225 2162 550 
Q 2375 875 2375 1475 
Q 2375 1975 2187 2287 
Q 2000 2600 1625 2600 
Q 1350 2600 1150 2500 
Q 950 2400 775 2075 
L 550 2100 
L 675 4375 
L 2725 4375 
L 2650 4000 
L 850 4000 
L 750 2350 
Q 1000 2700 1237 2775 
Q 1475 2850 1725 2850 
z
" transform="scale(0.015625)"/>
       </defs>
       <use xlink:href="#Times New Roman-35"/>
       <use xlink:href="#Times New Roman-30" x="50"/>
       <use xlink:href="#Times New Roman-30" x="100"/>
      </g>
     </g>
    </g>
    <g id="xtick_7">
     <g id="line2d_7">
      <g>
       <use xlink:href="#ma35b075d8f" x="933.954545" y="384.48" style="stroke: #000000; stroke-width: 0.8"/>
      </g>
     </g>
     <g id="text_7">
      <!-- 600 -->
      <g transform="translate(926.454545 398.628438) scale(0.1 -0.1)">
       <defs>
        <path id="Times New Roman-36" d="M 775 1800
Q 775 1050 1037 637 
Q 1300 225 1675 225 
Q 2050 225 2250 500 
Q 2450 775 2450 1525 
Q 2450 2025 2237 2300 
Q 2025 2575 1725 2575 
Q 1450 2575 1212 2412 
Q 975 2250 775 1800 
z
M 1750 2825 
Q 2350 2825 2612 2425 
Q 2875 2025 2875 1525 
Q 2875 775 2512 412 
Q 2150 50 1675 50 
Q 1000 50 650 562 
Q 300 1075 300 2050 
Q 300 3200 725 3812 
Q 1150 4425 1875 4425 
Q 2225 4425 2437 4225 
Q 2650 4025 2650 3875 
Q 2650 3725 2587 3650 
Q 2525 3575 2375 3575 
Q 2250 3575 2187 3637 
Q 2125 3700 2125 3825 
Q 2125 3875 2150 3925 
Q 2150 3975 2150 4025 
Q 2150 4125 2075 4187 
Q 2000 4250 1800 4250 
Q 1375 4250 1075 3862 
Q 775 3475 775 2175 
Q 925 2500 1187 2662 
Q 1450 2825 1750 2825 
z
" transform="scale(0.015625)"/>
       </defs>
       <use xlink:href="#Times New Roman-36"/>
       <use xlink:href="#Times New Roman-30" x="50"/>
       <use xlink:href="#Times New Roman-30" x="100"/>
      </g>
     </g>
    </g>
   </g>
   <g id="matplotlib.axis_2">
    <g id="ytick_1">
     <g id="line2d_8">
      <defs>
       <path id="m29368fb000" d="M 0 0 
L -3.5 0 
" style="stroke: #000000; stroke-width: 0.8"/>
      </defs>
      <g>
       <use xlink:href="#m29368fb000" x="135" y="378.146109" style="stroke: #000000; stroke-width: 0.8"/>
      </g>
     </g>
     <g id="text_8">
      <!-- 0 -->
      <g transform="translate(123 381.720327) scale(0.1 -0.1)">
       <use xlink:href="#Times New Roman-30"/>
      </g>
     </g>
    </g>
    <g id="ytick_2">
     <g id="line2d_9">
      <g>
       <use xlink:href="#m29368fb000" x="135" y="315.833281" style="stroke: #000000; stroke-width: 0.8"/>
      </g>
     </g>
     <g id="text_9">
      <!-- 1000 -->
      <g transform="translate(108 319.4075) scale(0.1 -0.1)">
       <use xlink:href="#Times New Roman-31"/>
       <use xlink:href="#Times New Roman-30" x="50"/>
       <use xlink:href="#Times New Roman-30" x="100"/>
       <use xlink:href="#Times New Roman-30" x="150"/>
      </g>
     </g>
    </g>
    <g id="ytick_3">
     <g id="line2d_10">
      <g>
       <use xlink:href="#m29368fb000" x="135" y="253.520453" style="stroke: #000000; stroke-width: 0.8"/>
      </g>
     </g>
     <g id="text_10">
      <!-- 2000 -->
      <g transform="translate(108 257.094672) scale(0.1 -0.1)">
       <use xlink:href="#Times New Roman-32"/>
       <use xlink:href="#Times New Roman-30" x="50"/>
       <use xlink:href="#Times New Roman-30" x="100"/>
       <use xlink:href="#Times New Roman-30" x="150"/>
      </g>
     </g>
    </g>
    <g id="ytick_4">
     <g id="line2d_11">
      <g>
       <use xlink:href="#m29368fb000" x="135" y="191.207625" style="stroke: #000000; stroke-width: 0.8"/>
      </g>
     </g>
     <g id="text_11">
      <!-- 3000 -->
      <g transform="translate(108 194.781844) scale(0.1 -0.1)">
       <use xlink:href="#Times New Roman-33"/>
       <use xlink:href="#Times New Roman-30" x="50"/>
       <use xlink:href="#Times New Roman-30" x="100"/>
       <use xlink:href="#Times New Roman-30" x="150"/>
      </g>
     </g>
    </g>
    <g id="ytick_5">
     <g id="line2d_12">
      <g>
       <use xlink:href="#m29368fb000" x="135" y="128.894797" style="stroke: #000000; stroke-width: 0.8"/>
      </g>
     </g>
     <g id="text_12">
      <!-- 4000 -->
      <g transform="translate(108 132.469016) scale(0.1 -0.1)">
       <use xlink:href="#Times New Roman-34"/>
       <use xlink:href="#Times New Roman-30" x="50"/>
       <use xlink:href="#Times New Roman-30" x="100"/>
       <use xlink:href="#Times New Roman-30" x="150"/>
      </g>
     </g>
    </g>
    <g id="ytick_6">
     <g id="line2d_13">
      <g>
       <use xlink:href="#m29368fb000" x="135" y="66.581969" style="stroke: #000000; stroke-width: 0.8"/>
      </g>
     </g>
     <g id="text_13">
      <!-- 5000 -->
      <g transform="translate(108 70.156188) scale(0.1 -0.1)">
       <use xlink:href="#Times New Roman-35"/>
       <use xlink:href="#Times New Roman-30" x="50"/>
       <use xlink:href="#Times New Roman-30" x="100"/>
       <use xlink:href="#Times New Roman-30" x="150"/>
      </g>
     </g>
    </g>
    <g id="text_14">
     <!-- Bitrate (kbps) -->
     <g transform="translate(102.710938 253.16) rotate(-90) scale(0.1 -0.1)">
      <defs>
       <path id="Times New Roman-42" d="M 100 100
L 100 250 
L 300 250 
Q 425 250 475 300 
Q 525 350 525 450 
L 525 4025 
Q 525 4125 475 4175 
Q 425 4225 300 4225 
L 150 4225 
L 150 4375 
L 1600 4375 
Q 2200 4375 2487 4137 
Q 2775 3900 2775 3400 
Q 2775 3050 2625 2825 
Q 2475 2600 2000 2425 
Q 2575 2250 2775 1925 
Q 2975 1600 2975 1200 
Q 2975 700 2625 400 
Q 2275 100 1675 100 
L 100 100 
z
M 1600 250 
Q 2025 250 2262 512 
Q 2500 775 2500 1250 
Q 2500 1800 2250 2062 
Q 2000 2325 1500 2325 
L 925 2325 
L 925 450 
Q 925 350 987 300 
Q 1050 250 1150 250 
L 1600 250 
z
M 2350 3400 
Q 2350 3850 2100 4037 
Q 1850 4225 1450 4225 
L 1150 4225 
Q 1050 4225 987 4175 
Q 925 4125 925 4025 
L 925 2475 
L 1575 2475 
Q 1850 2475 2100 2700 
Q 2350 2925 2350 3400 
z
" transform="scale(0.015625)"/>
       <path id="Times New Roman-69" d="M 1425 2525
Q 1425 2625 1375 2687 
Q 1325 2750 1200 2750 
L 675 2750 
L 675 2900 
L 925 2900 
Q 1150 2900 1350 2937 
Q 1550 2975 1725 3075 
L 1775 3075 
L 1775 450 
Q 1775 350 1837 300 
Q 1900 250 2000 250 
L 2525 250 
L 2525 100 
L 675 100 
L 675 250 
L 1200 250 
Q 1325 250 1375 300 
Q 1425 350 1425 450 
L 1425 2525 
z
M 1725 3025 
L 1725 3025 
z
M 1625 4425 
Q 1750 4425 1850 4337 
Q 1950 4250 1950 4125 
Q 1950 4000 1850 3900 
Q 1750 3800 1625 3800 
Q 1500 3800 1400 3900 
Q 1300 4000 1300 4125 
Q 1300 4250 1400 4337 
Q 1500 4425 1625 4425 
z
" transform="scale(0.015625)"/>
       <path id="Times New Roman-74" d="M 1500 900
Q 1500 550 1625 425 
Q 1750 300 2000 300 
Q 2250 300 2400 462 
Q 2550 625 2600 925 
L 2725 875 
Q 2675 525 2462 300 
Q 2250 75 1900 75 
Q 1525 75 1337 300 
Q 1150 525 1150 1000 
L 1150 2750 
L 400 2750 
L 400 2900 
L 600 2900 
Q 900 2900 1087 3087 
Q 1275 3275 1325 3675 
L 1350 3875 
L 1500 3875 
L 1500 2900 
L 2500 2900 
L 2500 2750 
L 1500 2750 
L 1500 900 
z
" transform="scale(0.015625)"/>
       <path id="Times New Roman-72" d="M 1275 2125
Q 1525 2525 1812 2737 
Q 2100 2950 2400 2950 
Q 2650 2950 2787 2837 
Q 2925 2725 2925 2575 
Q 2925 2450 2862 2375 
Q 2800 2300 2675 2300 
Q 2550 2300 2487 2375 
Q 2425 2450 2450 2575 
Q 2450 2650 2425 2700 
Q 2400 2750 2275 2750 
Q 2075 2750 1787 2500 
Q 1500 2250 1275 1800 
L 1275 450 
Q 1275 350 1337 300 
Q 1400 250 1500 250 
L 2050 250 
L 2050 100 
L 200 100 
L 200 250 
L 700 250 
Q 825 250 875 300 
Q 925 350 925 450 
L 925 2525 
Q 925 2625 875 2687 
Q 825 2750 700 2750 
L 225 2750 
L 225 2900 
L 425 2900 
Q 600 2900 837 2937 
Q 1075 2975 1200 3025 
L 1275 3025 
L 1275 2125 
z
" transform="scale(0.015625)"/>
       <path id="Times New Roman-61" d="M 1225 75
Q 775 75 525 287 
Q 275 500 275 775 
Q 275 1225 662 1512 
Q 1050 1800 2200 1925 
L 2200 2225 
Q 2200 2475 2087 2637 
Q 1975 2800 1575 2800 
Q 1150 2800 975 2662 
Q 800 2525 850 2375 
Q 875 2325 875 2275 
Q 875 2225 837 2150 
Q 800 2075 650 2075 
Q 550 2075 487 2137 
Q 425 2200 425 2325 
Q 425 2550 750 2750 
Q 1075 2950 1550 2950 
Q 2050 2950 2300 2762 
Q 2550 2575 2550 2225 
L 2550 575 
Q 2550 375 2587 337 
Q 2625 300 2725 300 
Q 2850 300 2900 412 
Q 2950 525 2950 725 
L 3075 725 
Q 3075 375 2950 237 
Q 2825 100 2625 100 
Q 2450 100 2350 175 
Q 2250 250 2200 425 
Q 1950 250 1737 162 
Q 1525 75 1225 75 
z
M 700 850 
Q 700 625 837 437 
Q 975 250 1275 250 
Q 1500 250 1725 337 
Q 1950 425 2200 600 
L 2200 1775 
Q 1350 1675 1025 1437 
Q 700 1200 700 850 
z
" transform="scale(0.015625)"/>
       <path id="Times New Roman-65" d="M 2400 1650
Q 2425 2200 2212 2487 
Q 2000 2775 1650 2775 
Q 1275 2775 1037 2475 
Q 800 2175 800 1650 
L 2400 1650 
z
M 800 1500 
Q 800 825 1062 537 
Q 1325 250 1750 250 
Q 2075 250 2300 437 
Q 2525 625 2625 900 
L 2750 850 
Q 2675 575 2412 312 
Q 2150 50 1700 50 
Q 1125 50 762 425 
Q 400 800 400 1500 
Q 400 2125 762 2537 
Q 1125 2950 1650 2950 
Q 2125 2950 2475 2625 
Q 2825 2300 2825 1500 
L 800 1500 
z
" transform="scale(0.015625)"/>
       <path id="Times New Roman-20" d="M 0 0
Q 0 0 0 0 
z
" transform="scale(0.015625)"/>
       <path id="Times New Roman-28" d="M 2900 5025
Q 2325 4425 2037 3737 
Q 1750 3050 1750 2300 
Q 1750 1525 2037 850 
Q 2325 175 2900 -425 
L 2775 -550 
Q 2075 75 1725 787 
Q 1375 1500 1375 2300 
Q 1375 3075 1725 3787 
Q 2075 4500 2775 5150 
L 2900 5025 
z
" transform="scale(0.015625)"/>
       <path id="Times New Roman-6b" d="M 1675 1900
L 2625 425 
Q 2700 325 2762 287 
Q 2825 250 2900 250 
L 3000 250 
L 3000 100 
L 1975 100 
L 1975 250 
L 2050 250 
Q 2175 250 2225 287 
Q 2275 325 2200 425 
L 1425 1650 
L 925 1125 
L 925 450 
Q 925 350 987 300 
Q 1050 250 1150 250 
L 1275 250 
L 1275 100 
L 225 100 
L 225 250 
L 350 250 
Q 475 250 525 300 
Q 575 350 575 450 
L 575 4025 
Q 575 4125 525 4175 
Q 475 4225 350 4225 
L 200 4225 
L 200 4375 
L 425 4375 
Q 575 4375 687 4425 
Q 800 4475 875 4575 
L 925 4575 
L 925 1400 
L 1975 2525 
Q 2025 2625 2012 2687 
Q 2000 2750 1900 2750 
L 1750 2750 
L 1750 2900 
L 2800 2900 
L 2800 2750 
L 2675 2750 
Q 2600 2750 2487 2712 
Q 2375 2675 2275 2575 
L 1675 1900 
z
M 2450 2750 
L 2450 2750 
z
M 2175 2750 
L 2175 2750 
z
M 2300 250 
L 2300 250 
z
M 2750 250 
L 2750 250 
z
" transform="scale(0.015625)"/>
       <path id="Times New Roman-62" d="M 875 2325
Q 1000 2600 1275 2762 
Q 1550 2925 1800 2925 
Q 2325 2925 2587 2562 
Q 2850 2200 2850 1500 
Q 2850 800 2512 437 
Q 2175 75 1675 75 
Q 1425 75 1212 162 
Q 1000 250 850 400 
L 625 100 
L 525 100 
L 525 4025 
Q 525 4125 475 4175 
Q 425 4225 300 4225 
L 150 4225 
L 150 4375 
L 375 4375 
Q 500 4375 625 4425 
Q 750 4475 875 4575 
L 875 2325 
z
M 875 925 
Q 875 650 1062 450 
Q 1250 250 1625 250 
Q 2075 250 2262 562 
Q 2450 875 2450 1500 
Q 2450 2100 2287 2412 
Q 2125 2725 1775 2725 
Q 1475 2725 1250 2550 
Q 1025 2375 875 1925 
L 875 925 
z
" transform="scale(0.015625)"/>
       <path id="Times New Roman-70" d="M 1150 -675
L 1325 -675 
L 1325 -825 
L 175 -825 
L 175 -675 
L 325 -675 
Q 450 -675 500 -625 
Q 550 -575 550 -450 
L 550 2500 
Q 550 2600 500 2662 
Q 450 2725 325 2725 
L 175 2725 
L 175 2875 
L 400 2875 
Q 525 2875 637 2900 
Q 750 2925 850 3000 
L 900 3000 
L 900 2425 
Q 1075 2675 1287 2800 
Q 1500 2925 1750 2925 
Q 2250 2925 2575 2587 
Q 2900 2250 2900 1525 
Q 2900 825 2550 450 
Q 2200 75 1725 75 
Q 1450 75 1262 162 
Q 1075 250 900 425 
L 900 -450 
Q 900 -575 975 -625 
Q 1050 -675 1150 -675 
z
M 900 750 
Q 1025 500 1212 375 
Q 1400 250 1650 250 
Q 2000 250 2250 562 
Q 2500 875 2500 1525 
Q 2500 2125 2312 2425 
Q 2125 2725 1750 2725 
Q 1525 2725 1300 2587 
Q 1075 2450 900 2150 
L 900 750 
z
" transform="scale(0.015625)"/>
       <path id="Times New Roman-73" d="M 625 2175
Q 625 2550 912 2750 
Q 1200 2950 1600 2950 
Q 1825 2950 2025 2900 
Q 2225 2825 2300 2825 
Q 2375 2825 2425 2850 
Q 2475 2875 2550 2950 
L 2650 2125 
L 2500 2100 
Q 2400 2425 2162 2612 
Q 1925 2800 1625 2800 
Q 1300 2800 1112 2675 
Q 925 2550 925 2325 
Q 925 2125 1012 2012 
Q 1100 1900 1325 1850 
Q 1500 1775 1775 1700 
Q 2025 1600 2250 1500 
Q 2450 1400 2587 1237 
Q 2725 1075 2725 875 
Q 2725 500 2462 287 
Q 2200 75 1700 75 
Q 1375 75 1225 150 
Q 1050 200 950 200 
Q 875 200 787 162 
Q 700 125 600 75 
L 525 1000 
L 675 1025 
Q 750 625 1000 425 
Q 1250 225 1700 225 
Q 2050 225 2237 350 
Q 2425 475 2425 725 
Q 2425 900 2325 1012 
Q 2225 1125 2125 1175 
Q 1875 1275 1575 1400 
Q 1275 1500 1050 1600 
Q 825 1700 725 1850 
Q 625 2000 625 2175 
z
" transform="scale(0.015625)"/>
       <path id="Times New Roman-29" d="M 275 5025
L 400 5150 
Q 1100 4500 1450 3787 
Q 1800 3075 1800 2300 
Q 1800 1500 1450 787 
Q 1100 75 400 -550 
L 275 -425 
Q 850 175 1137 850 
Q 1425 1525 1425 2300 
Q 1425 3050 1137 3737 
Q 850 4425 275 5025 
z
" transform="scale(0.015625)"/>
      </defs>
      <use xlink:href="#Times New Roman-42"/>
      <use xlink:href="#Times New Roman-69" x="50"/>
      <use xlink:href="#Times New Roman-74" x="100"/>
      <use xlink:href="#Times New Roman-72" x="150"/>
      <use xlink:href="#Times New Roman-61" x="200"/>
      <use xlink:href="#Times New Roman-74" x="250"/>
      <use xlink:href="#Times New Roman-65" x="300"/>
      <use xlink:href="#Times New Roman-20" x="350"/>
      <use xlink:href="#Times New Roman-28" x="400"/>
      <use xlink:href="#Times New Roman-6b" x="450"/>
      <use xlink:href="#Times New Roman-62" x="500"/>
      <use xlink:href="#Times New Roman-70" x="550"/>
      <use xlink:href="#Times New Roman-73" x="600"/>
      <use xlink:href="#Times New Roman-29" x="650"/>
     </g>
    </g>
   </g>
   <g id="line2d_14">
    <path d="M 173.045455 353.594855 
L 174.313636 353.594855 
L 175.581818 369.36 
L 189.531818 369.36 
L 190.8 337.829709 
L 202.213636 337.829709 
L 203.481818 310.038188 
L 204.75 310.038188 
L 204.75 259.502484 
L 211.090909 259.502484 
L 213.627273 135.998459 
L 216.163636 135.998459 
L 217.431818 259.502484 
L 219.968182 259.502484 
L 221.236364 135.998459 
L 265.622727 135.998459 
L 266.890909 337.829709 
L 269.427273 337.829709 
L 269.427273 135.998459 
L 270.695455 135.998459 
L 270.695455 135.998459 
L 271.963636 310.038188 
L 271.963636 310.038188 
L 273.231818 310.038188 
L 273.231818 135.998459 
L 274.5 135.998459 
L 274.5 135.998459 
L 275.768182 259.502484 
L 277.036364 259.502484 
L 277.036364 259.502484 
L 277.036364 135.998459 
L 313.813636 135.998459 
L 313.813636 259.502484 
L 317.618182 259.502484 
L 317.618182 259.502484 
L 318.886364 369.36 
L 318.886364 369.36 
L 320.154545 369.36 
L 320.154545 259.502484 
L 325.227273 259.502484 
L 326.495455 310.038188 
L 331.568182 310.038188 
L 331.568182 310.038188 
L 332.836364 337.829709 
L 334.104545 337.829709 
L 335.372727 369.36 
L 362.004545 369.36 
L 363.272727 135.998459 
L 415.268182 135.998459 
L 415.268182 135.998459 
L 416.536364 259.502484 
L 416.536364 259.502484 
L 422.877273 259.502484 
L 424.145455 135.998459 
L 448.240909 135.998459 
L 448.240909 135.998459 
L 449.509091 259.502484 
L 483.75 259.502484 
L 485.018182 252.710386 
L 486.286364 135.998459 
L 490.090909 135.998459 
L 491.359091 259.502484 
L 502.772727 259.502484 
L 504.040909 252.710386 
L 505.309091 135.998459 
L 899.713636 135.998459 
L 899.713636 135.998459 
L 899.713636 259.502484 
L 900.981818 259.502484 
L 900.981818 259.502484 
L 902.25 135.998459 
L 902.25 135.998459 
L 933.954545 135.998459 
L 933.954545 135.998459 
" clip-path="url(#p819e4f78f1)" style="fill: none; stroke: #ff0000; stroke-width: 1.5; stroke-linecap: square"/>
   </g>
   <g id="line2d_15">
    <path d="M 173.045455 353.906419 
L 174.313636 353.314447 
L 175.581818 353.05481 
L 176.85 352.281092 
L 179.386364 352.01107 
L 180.654545 351.401443 
L 181.922727 349.49467 
L 183.190909 346.511963 
L 184.459091 342.681801 
L 185.727273 338.307441 
L 189.531818 330.314782 
L 190.8 324.972496 
L 192.068182 319.08601 
L 193.336364 312.040507 
L 194.604545 307.097022 
L 195.872727 305.730294 
L 197.140909 308.908248 
L 199.677273 320.465201 
L 200.945455 329.068525 
L 202.213636 336.69977 
L 203.481818 345.211702 
L 204.75 348.672141 
L 204.75 350.18842 
L 206.018182 338.440375 
L 207.286364 324.112579 
L 211.090909 248.456497 
L 213.627273 227.644012 
L 214.895455 206.370413 
L 217.431818 178.911227 
L 219.968182 164.554351 
L 221.236364 158.447694 
L 222.504545 153.284038 
L 225.040909 141.747856 
L 227.577273 136.858376 
L 228.845455 132.238919 
L 228.845455 126.668152 
L 230.113636 120.694429 
L 232.65 119.597723 
L 233.918182 118.654722 
L 233.918182 117.86958 
L 236.454545 109.752296 
L 240.259091 88.424692 
L 240.259091 85.412905 
L 241.527273 83.447974 
L 245.331818 83.996327 
L 245.331818 88.777798 
L 246.6 94.606125 
L 247.868182 97.31881 
L 249.136364 97.946092 
L 250.404545 94.464882 
L 250.404545 88.615785 
L 251.672727 80.897303 
L 251.672727 78.168001 
L 252.940909 77.972754 
L 252.940909 78.379864 
L 254.209091 79.177468 
L 254.209091 81.711523 
L 255.477273 83.501979 
L 256.745455 85.703699 
L 259.281818 88.370688 
L 260.55 91.482175 
L 261.818182 92.632885 
L 263.086364 94.344411 
L 264.354545 102.121052 
L 266.890909 120.673658 
L 268.159091 125.791618 
L 268.159091 130.735102 
L 269.427273 129.829489 
L 269.427273 128.387986 
L 270.695455 128.691242 
L 270.695455 144.959044 
L 271.963636 151.539279 
L 271.963636 156.088115 
L 273.231818 156.636468 
L 273.231818 155.215735 
L 274.5 153.583139 
L 274.5 155.257277 
L 275.768182 159.448853 
L 277.036364 164.462959 
L 277.036364 171.342295 
L 278.304545 172.684098 
L 278.304545 175.259695 
L 279.572727 178.811526 
L 279.572727 189.093143 
L 280.840909 193.700138 
L 280.840909 197.251969 
L 282.109091 199.142125 
L 282.109091 199.918958 
L 283.377273 200.878576 
L 283.377273 203.682653 
L 285.913636 212.871718 
L 289.718182 227.656475 
L 290.986364 233.717436 
L 306.204545 245.245309 
L 307.472727 261.6502 
L 308.740909 281.233044 
L 308.740909 299.922739 
L 310.009091 316.934141 
L 310.009091 328.453706 
L 311.277273 334.826231 
L 311.277273 336.708078 
L 312.545455 338.473608 
L 312.545455 340.006504 
L 313.813636 341.676488 
L 313.813636 343.055678 
L 315.081818 344.522107 
L 315.081818 345.68528 
L 316.35 346.865069 
L 316.35 348.759379 
L 317.618182 349.62345 
L 317.618182 351.326668 
L 318.886364 351.962258 
L 318.886364 352.435836 
L 320.154545 352.734937 
L 320.154545 352.872026 
L 323.959091 353.237594 
L 325.227273 353.108814 
L 326.495455 352.822175 
L 327.763636 352.028725 
L 329.031818 350.952791 
L 330.3 349.419895 
L 331.568182 347.683444 
L 331.568182 345.693588 
L 332.836364 343.824203 
L 332.836364 342.212378 
L 335.372727 339.059349 
L 360.736364 328.73619 
L 362.004545 309.406751 
L 365.809091 220.274482 
L 365.809091 199.304138 
L 367.077273 189.172072 
L 368.345455 186.833264 
L 369.613636 183.609614 
L 370.881818 176.975375 
L 372.15 168.999333 
L 373.418182 158.094588 
L 373.418182 148.224236 
L 374.686364 140.900402 
L 374.686364 138.154483 
L 375.954545 137.07024 
L 377.222727 135.516573 
L 378.490909 132.625258 
L 379.759091 127.336976 
L 381.027273 120.40779 
L 381.027273 112.556373 
L 382.295455 105.859821 
L 382.295455 101.011883 
L 383.563636 101.252826 
L 384.831818 102.00058 
L 386.1 102.578012 
L 387.368182 99.599459 
L 388.636364 96.263646 
L 391.172727 82.733454 
L 392.440909 81.632594 
L 394.977273 84.303737 
L 396.245455 87.352912 
L 397.513636 85.491835 
L 398.781818 84.062794 
L 401.318182 72.111194 
L 402.586364 66.96 
L 403.854545 67.52497 
L 403.854545 68.443045 
L 405.122727 79.189931 
L 405.122727 99.678389 
L 406.390909 120.171001 
L 407.659091 131.096517 
L 408.927273 132.675108 
L 410.195455 124.981551 
L 412.731818 91.934981 
L 414 85.853249 
L 414 89.446623 
L 415.268182 93.039996 
L 415.268182 96.259492 
L 416.536364 102.287219 
L 416.536364 110.666218 
L 417.804545 119.182304 
L 419.072727 124.836155 
L 420.340909 128.417065 
L 421.609091 129.57193 
L 422.877273 128.820021 
L 424.145455 128.612312 
L 425.413636 131.910738 
L 427.95 144.900885 
L 427.95 151.190327 
L 429.218182 157.151587 
L 429.218182 162.273702 
L 430.486364 168.961945 
L 430.486364 176.69289 
L 431.754545 184.444606 
L 433.022727 190.297858 
L 434.290909 195.228879 
L 435.559091 198.73086 
L 436.827273 201.277378 
L 436.827273 203.790662 
L 438.095455 208.306265 
L 438.095455 213.843798 
L 439.363636 218.916062 
L 439.363636 222.949779 
L 440.631818 226.975188 
L 440.631818 230.485477 
L 441.9 234.419494 
L 441.9 237.809312 
L 443.168182 241.710095 
L 443.168182 245.133146 
L 444.436364 249.000696 
L 444.436364 252.35728 
L 445.704545 256.187442 
L 445.704545 259.523255 
L 446.972727 263.278642 
L 446.972727 266.514755 
L 448.240909 271.242221 
L 448.240909 276.551274 
L 449.509091 282.284054 
L 452.045455 291.115859 
L 453.313636 294.572144 
L 455.85 300.957132 
L 457.118182 305.539202 
L 459.654545 316.178078 
L 460.922727 321.300193 
L 483.75 326.239523 
L 485.018182 330.618038 
L 486.286364 333.725371 
L 487.554545 335.24165 
L 488.822727 334.888544 
L 490.090909 332.757445 
L 491.359091 329.243001 
L 495.163636 316.16977 
L 502.772727 309.498143 
L 504.040909 300.279999 
L 507.845455 262.198553 
L 507.845455 253.134113 
L 509.113636 246.990068 
L 516.722727 240.654931 
L 517.990909 233.372638 
L 520.527273 210.994025 
L 520.527273 197.17304 
L 521.795455 186.95789 
L 524.331818 178.171781 
L 525.6 173.174292 
L 526.868182 167.12164 
L 528.136364 162.33186 
L 530.672727 148.976144 
L 530.672727 141.182887 
L 531.940909 133.788431 
L 534.477273 126.713848 
L 534.477273 116.162209 
L 535.745455 112.498215 
L 535.745455 110.541592 
L 537.013636 108.323255 
L 538.281818 105.107913 
L 543.354545 101.435611 
L 543.354545 98.08318 
L 544.622727 96.251183 
L 547.159091 94.871993 
L 548.427273 94.45242 
L 549.695455 93.8376 
L 550.963636 93.879142 
L 552.231818 92.666119 
L 553.5 92.005603 
L 554.768182 91.68573 
L 556.036364 92.317167 
L 558.572727 90.921359 
L 559.840909 91.062602 
L 562.377273 95.366341 
L 563.645455 98.091489 
L 567.45 143.139509 
L 568.718182 146.699649 
L 569.986364 151.186172 
L 569.986364 144.057585 
L 571.254545 135.857217 
L 573.790909 128.250898 
L 575.059091 133.23177 
L 575.059091 138.669602 
L 576.327273 142.952571 
L 578.863636 149.524497 
L 580.131818 157.205592 
L 581.4 165.638594 
L 581.4 172.314375 
L 582.668182 179.098165 
L 585.204545 185.130047 
L 585.204545 189.803509 
L 586.472727 193.417653 
L 586.472727 196.703616 
L 589.009091 205.747285 
L 591.545455 210.948329 
L 592.813636 217.233616 
L 592.813636 225.853557 
L 595.35 242.054892 
L 597.886364 249.179326 
L 599.154545 257.716183 
L 599.154545 265.945631 
L 601.690909 281.415829 
L 602.959091 287.601416 
L 604.227273 291.8013 
L 605.495455 294.941867 
L 605.495455 298.452156 
L 608.031818 306.864388 
L 608.031818 310.283285 
L 609.3 313.884966 
L 609.3 320.024857 
L 610.568182 322.716771 
L 610.568182 325.043117 
L 611.836364 326.468003 
L 611.836364 327.473317 
L 613.104545 328.320771 
L 613.104545 329.52964 
L 614.372727 331.336712 
L 614.372727 333.185326 
L 621.981818 346.341641 
L 630.859091 348.219335 
L 632.127273 349.378353 
L 633.395455 349.748076 
L 634.663636 349.208031 
L 635.931818 347.891154 
L 638.468182 345.60635 
L 639.736364 342.53225 
L 642.272727 334.959165 
L 644.809091 330.244161 
L 647.345455 319.443271 
L 648.613636 313.872504 
L 651.15 301.58026 
L 653.686364 295.066492 
L 654.954545 288.639963 
L 657.490909 273.863514 
L 657.490909 267.071416 
L 658.759091 261.097693 
L 661.295455 254.039726 
L 662.563636 247.741977 
L 662.563636 241.759945 
L 663.831818 235.703138 
L 665.1 228.545471 
L 668.904545 221.433501 
L 670.172727 214.898962 
L 671.440909 206.860607 
L 672.709091 197.667388 
L 672.709091 188.860508 
L 673.977273 182.022714 
L 676.513636 175.886977 
L 676.513636 171.26752 
L 677.781818 168.201729 
L 680.318182 165.630286 
L 680.318182 162.082609 
L 681.586364 155.556379 
L 684.122727 149.890066 
L 684.122727 145.31215 
L 685.390909 143.019038 
L 686.659091 137.851227 
L 686.659091 131.906584 
L 687.927273 128.861563 
L 687.927273 131.162984 
L 689.195455 131.790266 
L 690.463636 129.829489 
L 691.731818 127.415906 
L 693 120.94368 
L 695.536364 94.942614 
L 698.072727 88.034198 
L 699.340909 85.23843 
L 699.340909 80.552505 
L 700.609091 79.094385 
L 700.609091 80.951307 
L 701.877273 83.285961 
L 703.145455 83.26519 
L 704.413636 85.005795 
L 709.486364 84.590376 
L 710.754545 86.941647 
L 713.290909 90.410394 
L 714.559091 98.282582 
L 714.559091 103.604097 
L 715.827273 107.845524 
L 715.827273 106.977298 
L 717.095455 106.358324 
L 719.631818 104.119216 
L 720.9 111.467976 
L 720.9 124.740608 
L 722.168182 138.391272 
L 723.436364 146.408856 
L 725.972727 149.99392 
L 727.240909 150.467498 
L 727.240909 147.56372 
L 728.509091 144.792876 
L 729.777273 145.661102 
L 732.313636 151.140476 
L 733.581818 156.682164 
L 733.581818 163.029764 
L 734.85 169.963105 
L 737.386364 186.16444 
L 737.386364 191.552422 
L 738.654545 195.50721 
L 738.654545 199.73202 
L 741.190909 208.783996 
L 742.459091 212.91326 
L 743.727273 218.255546 
L 743.727273 223.872009 
L 744.995455 229.513397 
L 744.995455 234.847375 
L 746.263636 239.824093 
L 746.263636 242.723717 
L 747.531818 244.630489 
L 747.531818 248.522964 
L 748.8 252.473597 
L 748.8 262.908919 
L 750.068182 267.270817 
L 750.068182 270.531855 
L 751.336364 272.24338 
L 751.336364 272.974518 
L 752.604545 273.128223 
L 752.604545 274.254008 
L 753.872727 276.80468 
L 753.872727 279.891242 
L 755.140909 283.904188 
L 755.140909 287.987755 
L 756.409091 292.499204 
L 762.75 311.575238 
L 764.018182 316.896753 
L 779.236364 323.730393 
L 781.772727 338.41545 
L 783.040909 344.439023 
L 784.309091 348.468586 
L 785.577273 350.213345 
L 785.577273 350.005636 
L 786.845455 349.058481 
L 794.454545 346.416417 
L 795.722727 342.35362 
L 795.722727 336.915788 
L 796.990909 331.099924 
L 799.527273 323.933948 
L 802.063636 309.851249 
L 805.868182 295.739471 
L 808.404545 289.612043 
L 808.404545 283.276905 
L 810.940909 266.464904 
L 812.209091 257.807575 
L 813.477273 250.608367 
L 814.745455 244.111216 
L 817.281818 237.177875 
L 818.55 229.434468 
L 818.55 220.860223 
L 819.818182 213.378529 
L 819.818182 207.7953 
L 821.086364 202.810273 
L 822.354545 198.290516 
L 823.622727 192.952384 
L 824.890909 189.097297 
L 824.890909 184.938954 
L 826.159091 180.86785 
L 828.695455 169.759549 
L 832.5 161.480252 
L 833.768182 157.13497 
L 835.036364 150.999234 
L 836.304545 147.900209 
L 836.304545 141.519376 
L 837.572727 136.5842 
L 841.377273 110.637138 
L 843.913636 102.835572 
L 845.181818 97.779925 
L 846.45 94.232248 
L 848.986364 90.94213 
L 850.254545 89.737416 
L 851.522727 86.468069 
L 852.790909 85.728624 
L 854.059091 83.531058 
L 855.327273 83.182106 
L 856.595455 79.405949 
L 857.863636 80.710364 
L 859.131818 79.106847 
L 860.4 81.433193 
L 861.668182 80.731135 
L 862.936364 84.789777 
L 864.204545 85.412905 
L 865.472727 88.661481 
L 866.740909 88.337454 
L 868.009091 90.576562 
L 868.009091 89.641869 
L 869.277273 91.727272 
L 870.545455 92.78659 
L 873.081818 96.724761 
L 874.35 101.64332 
L 874.35 109.802146 
L 876.886364 123.893154 
L 879.422727 129.609317 
L 879.422727 134.797899 
L 880.690909 138.407889 
L 880.690909 143.035655 
L 883.227273 153.01817 
L 885.763636 157.301138 
L 887.031818 162.28201 
L 888.3 168.255733 
L 888.3 175.4134 
L 890.836364 191.365484 
L 892.104545 198.506534 
L 895.909091 205.319403 
L 895.909091 211.995184 
L 897.177273 219.468569 
L 897.177273 228.445771 
L 898.445455 237.040787 
L 898.445455 246.242314 
L 899.713636 249.299797 
L 899.713636 259.901286 
L 900.981818 263.714831 
L 900.981818 265.634067 
L 902.25 264.961088 
L 902.25 265.035863 
L 902.25 266.33197 
L 903.518182 268.292747 
L 903.518182 270.918194 
L 904.786364 273.431478 
L 904.786364 275.641507 
L 906.054545 277.897231 
L 906.054545 280.310815 
L 907.322727 283.912496 
L 907.322727 287.908825 
L 908.590909 292.345499 
L 914.931818 311.625088 
L 920.004545 330.053068 
L 920.004545 334.082631 
L 921.272727 337.921101 
L 928.881818 341.568479 
L 930.15 345.066305 
L 931.418182 348.024088 
L 932.686364 350.292275 
L 933.954545 351.708853 
L 933.954545 351.708853 
" clip-path="url(#p819e4f78f1)" style="fill: none; stroke: #008000; stroke-width: 1.5; stroke-linecap: square"/>
   </g>
   <g id="patch_3">
    <path d="M 135 384.48 
L 135 51.84 
" style="fill: none; stroke: #000000; stroke-width: 0.8; stroke-linejoin: miter; stroke-linecap: square"/>
   </g>
   <g id="patch_4">
    <path d="M 972 384.48 
L 972 51.84 
" style="fill: none; stroke: #000000; stroke-width: 0.8; stroke-linejoin: miter; stroke-linecap: square"/>
   </g>
   <g id="patch_5">
    <path d="M 135 384.48 
L 972 384.48 
" style="fill: none; stroke: #000000; stroke-width: 0.8; stroke-linejoin: miter; stroke-linecap: square"/>
   </g>
   <g id="patch_6">
    <path d="M 135 51.84 
L 972 51.84 
" style="fill: none; stroke: #000000; stroke-width: 0.8; stroke-linejoin: miter; stroke-linecap: square"/>
   </g>
  </g>
  <g id="axes_2">
   <g id="matplotlib.axis_3">
    <g id="ytick_7">
     <g id="line2d_16">
      <path d="M 135 369.36 
L 972 369.36 
" clip-path="url(#p819e4f78f1)" style="fill: none; stroke: #b0b0b0; stroke-width: 0.8; stroke-linecap: square"/>
     </g>
     <g id="line2d_17">
      <defs>
       <path id="m448b5153f2" d="M 0 0 
L 3.5 0 
" style="stroke: #000000; stroke-width: 0.8"/>
      </defs>
      <g>
       <use xlink:href="#m448b5153f2" x="972" y="369.36" style="stroke: #000000; stroke-width: 0.8"/>
      </g>
     </g>
     <g id="text_15">
      <!-- 0 -->
      <g transform="translate(979 372.934219) scale(0.1 -0.1)">
       <use xlink:href="#Times New Roman-30"/>
      </g>
     </g>
    </g>
    <g id="ytick_8">
     <g id="line2d_18">
      <path d="M 135 319.684436 
L 972 319.684436 
" clip-path="url(#p819e4f78f1)" style="fill: none; stroke: #b0b0b0; stroke-width: 0.8; stroke-linecap: square"/>
     </g>
     <g id="line2d_19">
      <g>
       <use xlink:href="#m448b5153f2" x="972" y="319.684436" style="stroke: #000000; stroke-width: 0.8"/>
      </g>
     </g>
     <g id="text_16">
      <!-- 5 -->
      <g transform="translate(979 323.258655) scale(0.1 -0.1)">
       <use xlink:href="#Times New Roman-35"/>
      </g>
     </g>
    </g>
    <g id="ytick_9">
     <g id="line2d_20">
      <path d="M 135 270.008872 
L 972 270.008872 
" clip-path="url(#p819e4f78f1)" style="fill: none; stroke: #b0b0b0; stroke-width: 0.8; stroke-linecap: square"/>
     </g>
     <g id="line2d_21">
      <g>
       <use xlink:href="#m448b5153f2" x="972" y="270.008872" style="stroke: #000000; stroke-width: 0.8"/>
      </g>
     </g>
     <g id="text_17">
      <!-- 10 -->
      <g transform="translate(979 273.583091) scale(0.1 -0.1)">
       <use xlink:href="#Times New Roman-31"/>
       <use xlink:href="#Times New Roman-30" x="50"/>
      </g>
     </g>
    </g>
    <g id="ytick_10">
     <g id="line2d_22">
      <path d="M 135 220.333308 
L 972 220.333308 
" clip-path="url(#p819e4f78f1)" style="fill: none; stroke: #b0b0b0; stroke-width: 0.8; stroke-linecap: square"/>
     </g>
     <g id="line2d_23">
      <g>
       <use xlink:href="#m448b5153f2" x="972" y="220.333308" style="stroke: #000000; stroke-width: 0.8"/>
      </g>
     </g>
     <g id="text_18">
      <!-- 15 -->
      <g transform="translate(979 223.907527) scale(0.1 -0.1)">
       <use xlink:href="#Times New Roman-31"/>
       <use xlink:href="#Times New Roman-35" x="50"/>
      </g>
     </g>
    </g>
    <g id="ytick_11">
     <g id="line2d_24">
      <path d="M 135 170.657745 
L 972 170.657745 
" clip-path="url(#p819e4f78f1)" style="fill: none; stroke: #b0b0b0; stroke-width: 0.8; stroke-linecap: square"/>
     </g>
     <g id="line2d_25">
      <g>
       <use xlink:href="#m448b5153f2" x="972" y="170.657745" style="stroke: #000000; stroke-width: 0.8"/>
      </g>
     </g>
     <g id="text_19">
      <!-- 20 -->
      <g transform="translate(979 174.231963) scale(0.1 -0.1)">
       <use xlink:href="#Times New Roman-32"/>
       <use xlink:href="#Times New Roman-30" x="50"/>
      </g>
     </g>
    </g>
    <g id="ytick_12">
     <g id="line2d_26">
      <path d="M 135 120.982181 
L 972 120.982181 
" clip-path="url(#p819e4f78f1)" style="fill: none; stroke: #b0b0b0; stroke-width: 0.8; stroke-linecap: square"/>
     </g>
     <g id="line2d_27">
      <g>
       <use xlink:href="#m448b5153f2" x="972" y="120.982181" style="stroke: #000000; stroke-width: 0.8"/>
      </g>
     </g>
     <g id="text_20">
      <!-- 25 -->
      <g transform="translate(979 124.556399) scale(0.1 -0.1)">
       <use xlink:href="#Times New Roman-32"/>
       <use xlink:href="#Times New Roman-35" x="50"/>
      </g>
     </g>
    </g>
    <g id="ytick_13">
     <g id="line2d_28">
      <path d="M 135 71.306617 
L 972 71.306617 
" clip-path="url(#p819e4f78f1)" style="fill: none; stroke: #b0b0b0; stroke-width: 0.8; stroke-linecap: square"/>
     </g>
     <g id="line2d_29">
      <g>
       <use xlink:href="#m448b5153f2" x="972" y="71.306617" style="stroke: #000000; stroke-width: 0.8"/>
      </g>
     </g>
     <g id="text_21">
      <!-- 30 -->
      <g transform="translate(979 74.880836) scale(0.1 -0.1)">
       <use xlink:href="#Times New Roman-33"/>
       <use xlink:href="#Times New Roman-30" x="50"/>
      </g>
     </g>
    </g>
    <g id="text_22">
     <!-- buffer (s) -->
     <g transform="translate(1000.617188 243.16) rotate(-90) scale(0.1 -0.1)">
      <defs>
       <path id="Times New Roman-75" d="M 1450 325
Q 1750 325 1962 475 
Q 2175 625 2275 950 
L 2275 2525 
Q 2275 2625 2225 2687 
Q 2175 2750 2050 2750 
L 1900 2750 
L 1900 2900 
L 2050 2900 
Q 2200 2900 2325 2925 
Q 2450 2950 2575 3050 
L 2625 3050 
L 2625 600 
Q 2625 500 2687 450 
Q 2750 400 2850 400 
L 3000 400 
L 3000 250 
L 2850 250 
Q 2725 250 2600 212 
Q 2475 175 2325 100 
L 2275 100 
L 2275 625 
Q 2150 350 1900 212 
Q 1650 75 1325 75 
Q 925 75 725 300 
Q 525 525 525 1025 
L 525 2525 
Q 525 2625 475 2687 
Q 425 2750 300 2750 
L 150 2750 
L 150 2900 
L 300 2900 
Q 450 2900 575 2925 
Q 700 2950 825 3050 
L 875 3050 
L 875 975 
Q 875 625 1025 475 
Q 1175 325 1450 325 
z
" transform="scale(0.015625)"/>
       <path id="Times New Roman-66" d="M 1125 3325
Q 1125 3850 1450 4112 
Q 1775 4375 2175 4375 
Q 2600 4375 2812 4225 
Q 3025 4075 3025 3875 
Q 3025 3775 2975 3700 
Q 2925 3625 2775 3625 
Q 2675 3625 2612 3675 
Q 2550 3725 2550 3850 
Q 2550 3875 2575 3925 
Q 2575 3975 2575 4000 
Q 2575 4100 2500 4162 
Q 2425 4225 2150 4225 
Q 1850 4225 1662 4037 
Q 1475 3850 1475 3400 
L 1475 2900 
L 2525 2900 
L 2525 2750 
L 1475 2750 
L 1475 450 
Q 1475 350 1537 300 
Q 1600 250 1700 250 
L 2300 250 
L 2300 100 
L 475 100 
L 475 250 
L 900 250 
Q 1025 250 1075 300 
Q 1125 350 1125 450 
L 1125 2750 
L 350 2750 
L 350 2900 
L 1125 2900 
L 1125 3325 
z
" transform="scale(0.015625)"/>
      </defs>
      <use xlink:href="#Times New Roman-62"/>
      <use xlink:href="#Times New Roman-75" x="50"/>
      <use xlink:href="#Times New Roman-66" x="100"/>
      <use xlink:href="#Times New Roman-66" x="150"/>
      <use xlink:href="#Times New Roman-65" x="200"/>
      <use xlink:href="#Times New Roman-72" x="250"/>
      <use xlink:href="#Times New Roman-20" x="300"/>
      <use xlink:href="#Times New Roman-28" x="350"/>
      <use xlink:href="#Times New Roman-73" x="400"/>
      <use xlink:href="#Times New Roman-29" x="450"/>
     </g>
    </g>
   </g>
   <g id="line2d_30">
    <path d="M 173.045455 369.36 
L 174.313636 338.105787 
L 175.581818 317.080655 
L 176.85 272.24887 
L 179.386364 196.768974 
L 180.654545 165.582561 
L 181.922727 145.921582 
L 184.459091 121.875006 
L 186.995455 88.33954 
L 188.263636 78.072751 
L 189.531818 75.869408 
L 190.8 75.867292 
L 192.068182 75.720095 
L 193.336364 74.07345 
L 194.604545 73.266056 
L 197.140909 74.423394 
L 198.409091 74.749948 
L 199.677273 73.855145 
L 200.945455 74.41133 
L 202.213636 76.136174 
L 203.481818 78.75794 
L 204.75 83.863485 
L 204.75 81.931659 
L 206.018182 82.345623 
L 207.286364 76.550141 
L 208.554545 83.909484 
L 209.822727 87.175191 
L 211.090909 92.694696 
L 213.627273 94.581043 
L 216.163636 99.525604 
L 217.431818 98.2832 
L 218.7 97.731763 
L 219.968182 98.491726 
L 222.504545 99.04113 
L 223.772727 93.727573 
L 225.040909 93.591615 
L 227.577273 92.20768 
L 228.845455 93.652646 
L 228.845455 86.68224 
L 230.113636 81.580755 
L 232.65 75.927166 
L 233.918182 72.824474 
L 233.918182 67.097985 
L 235.186364 66.96 
L 236.454545 68.477867 
L 237.722727 71.306617 
L 250.404545 71.306617 
L 250.404545 81.517701 
L 251.672727 88.003117 
L 251.672727 88.003117 
L 252.940909 75.446239 
L 252.940909 71.720572 
L 254.209091 71.720572 
L 254.209091 73.100448 
L 255.477273 70.340699 
L 256.745455 70.340699 
L 259.281818 86.543212 
L 260.55 99.074558 
L 261.818182 108.900656 
L 264.354545 92.669166 
L 268.159091 354.220778 
L 268.159091 275.15784 
L 269.427273 190.586533 
L 270.695455 184.235095 
L 270.695455 192.516213 
L 270.695455 190.183564 
L 271.963636 253.460772 
L 271.963636 250.976857 
L 273.231818 246.311559 
L 273.231818 189.523358 
L 274.5 184.555529 
L 274.5 182.22288 
L 275.768182 232.013134 
L 277.036364 250.042078 
L 277.036364 258.837815 
L 277.036364 256.505166 
L 278.304545 250.251727 
L 278.304545 237.225699 
L 279.572727 230.97226 
L 279.572727 217.946232 
L 280.840909 244.674361 
L 282.109091 220.027177 
L 282.109091 229.315684 
L 283.377273 196.307769 
L 283.377273 213.957007 
L 284.645455 209.291709 
L 285.913636 232.969028 
L 290.986364 204.977241 
L 306.204545 257.438845 
L 308.740909 369.36 
L 308.740909 369.36 
L 365.809091 369.36 
L 365.809091 369.36 
L 367.077273 355.975191 
L 369.613636 355.975191 
L 370.881818 369.36 
L 495.163636 369.36 
L 502.772727 349.512412 
L 504.040909 332.171242 
L 505.309091 317.336491 
L 506.577273 337.184079 
L 507.845455 354.525249 
L 507.845455 369.36 
L 516.722727 369.36 
L 517.990909 356.108904 
L 519.259091 340.102331 
L 520.527273 321.887955 
L 520.527273 306.780687 
L 521.795455 302.229875 
L 524.331818 298.090245 
L 525.6 300.926301 
L 526.868182 292.430898 
L 529.404545 270.895442 
L 530.672727 262.277589 
L 530.672727 259.245825 
L 531.940909 251.380526 
L 534.477273 239.375598 
L 534.477273 222.713586 
L 535.745455 220.505782 
L 535.745455 218.780935 
L 537.013636 218.29798 
L 538.281818 220.229809 
L 543.354545 223.886484 
L 543.354545 184.801474 
L 544.622727 187.460236 
L 547.159091 184.286517 
L 548.427273 220.917722 
L 549.695455 210.531649 
L 552.231818 177.947013 
L 554.768182 145.158769 
L 556.036364 130.227345 
L 557.304545 117.532478 
L 559.840909 97.105826 
L 562.377273 78.205993 
L 563.645455 72.686488 
L 564.913636 70.202713 
L 566.181818 71.306617 
L 569.986364 71.306617 
L 569.986364 77.171089 
L 573.790909 77.171089 
L 575.059091 71.306617 
L 575.059091 71.306617 
L 608.031818 71.306617 
L 608.031818 74.549324 
L 609.3 74.549324 
L 609.3 91.684881 
L 609.3 88.442174 
L 610.568182 88.442174 
L 610.568182 84.879583 
L 611.836364 84.879583 
L 611.836364 94.889959 
L 613.104545 87.764777 
L 613.104545 87.764777 
L 614.372727 77.754402 
L 614.372727 74.191811 
L 615.640909 73.514414 
L 616.909091 73.514414 
L 618.177273 70.62922 
L 619.445455 71.306617 
L 621.981818 71.306617 
L 630.859091 96.144395 
L 632.127273 117.256507 
L 633.395455 134.642951 
L 635.931818 112.288947 
L 638.468182 123.879911 
L 641.004545 149.959581 
L 642.272727 141.680322 
L 644.809091 147.5218 
L 646.077273 154.375188 
L 647.345455 162.240485 
L 648.613636 163.114408 
L 649.881818 165.138226 
L 651.15 168.311942 
L 653.686364 170.013789 
L 654.954545 171.485657 
L 656.222727 175.027343 
L 657.490909 173.923443 
L 657.490909 174.521391 
L 658.759091 172.083609 
L 661.295455 174.772703 
L 662.563636 175.830607 
L 662.563636 170.784408 
L 663.831818 166.53813 
L 665.1 167.228071 
L 668.904545 176.410568 
L 670.172727 179.899579 
L 671.440909 175.897934 
L 672.709091 167.484016 
L 672.709091 161.481936 
L 673.977273 154.858527 
L 676.513636 149.910997 
L 676.513636 140.882433 
L 677.781818 137.708718 
L 680.318182 136.036937 
L 680.318182 133.75023 
L 681.586364 130.990477 
L 684.122727 126.294798 
L 684.122727 124.981641 
L 685.390909 120.0404 
L 686.659091 120.728393 
L 686.659091 128.491286 
L 687.927273 128.185103 
L 687.927273 132.117526 
L 689.195455 126.664842 
L 690.463636 128.734206 
L 694.268182 151.822415 
L 695.536364 143.853627 
L 698.072727 153.443772 
L 699.340909 161.136585 
L 699.340909 179.820116 
L 700.609091 181.586358 
L 700.609091 177.032765 
L 703.145455 168.974283 
L 704.413636 173.803851 
L 709.486364 174.949506 
L 710.754545 181.766098 
L 713.290909 191.8392 
L 714.559091 192.317814 
L 714.559091 188.040196 
L 715.827273 179.619131 
L 715.827273 181.27897 
L 717.095455 175.065277 
L 719.631818 176.380334 
L 720.9 170.585564 
L 720.9 177.6283 
L 722.168182 178.249446 
L 723.436364 178.524708 
L 725.972727 179.487741 
L 727.240909 180.31511 
L 727.240909 186.163169 
L 728.509091 187.226966 
L 729.777273 189.988394 
L 732.313636 194.396244 
L 733.581818 195.262509 
L 733.581818 198.248215 
L 734.85 193.235837 
L 736.118182 201.838063 
L 737.386364 204.051467 
L 737.386364 224.860011 
L 738.654545 215.856383 
L 738.654545 227.848864 
L 739.922727 220.894285 
L 741.190909 230.434 
L 742.459091 220.002131 
L 743.727273 241.140178 
L 743.727273 290.926134 
L 744.995455 313.856357 
L 744.995455 339.026977 
L 746.263636 303.531552 
L 746.263636 333.864575 
L 747.531818 293.206747 
L 747.531818 328.702172 
L 747.531818 328.702172 
L 748.8 323.53977 
L 748.8 307.769747 
L 748.8 307.769747 
L 750.068182 333.7986 
L 750.068182 349.568622 
L 751.336364 349.568622 
L 751.336364 345.547267 
L 752.604545 317.713179 
L 752.604545 303.918226 
L 753.872727 295.875516 
L 753.872727 309.224288 
L 755.140909 287.142443 
L 755.140909 303.822207 
L 756.409091 302.441482 
L 757.677273 321.761876 
L 764.018182 311.406435 
L 779.236364 330.033927 
L 781.772727 369.36 
L 812.209091 369.36 
L 813.477273 354.388333 
L 817.281818 354.388333 
L 818.55 356.11318 
L 818.55 341.85445 
L 819.818182 324.605989 
L 819.818182 337.852809 
L 821.086364 332.241309 
L 822.354545 349.489771 
L 823.622727 335.093053 
L 824.890909 354.963282 
L 824.890909 337.576831 
L 826.159091 351.973549 
L 827.427273 337.864307 
L 828.695455 339.658147 
L 832.5 339.658147 
L 833.768182 353.76739 
L 835.036364 369.36 
L 933.954545 369.36 
L 933.954545 369.36 
" clip-path="url(#p819e4f78f1)" style="fill: none; stroke: #1f77b4; stroke-width: 1.5; stroke-linecap: square"/>
   </g>
   <g id="patch_7">
    <path d="M 135 384.48 
L 135 51.84 
" style="fill: none; stroke: #000000; stroke-width: 0.8; stroke-linejoin: miter; stroke-linecap: square"/>
   </g>
   <g id="patch_8">
    <path d="M 972 384.48 
L 972 51.84 
" style="fill: none; stroke: #000000; stroke-width: 0.8; stroke-linejoin: miter; stroke-linecap: square"/>
   </g>
   <g id="patch_9">
    <path d="M 135 384.48 
L 972 384.48 
" style="fill: none; stroke: #000000; stroke-width: 0.8; stroke-linejoin: miter; stroke-linecap: square"/>
   </g>
   <g id="patch_10">
    <path d="M 135 51.84 
L 972 51.84 
" style="fill: none; stroke: #000000; stroke-width: 0.8; stroke-linejoin: miter; stroke-linecap: square"/>
   </g>
   <g id="text_23">
    <!-- ./comyco/log_comyco_6_wave -->
    <g transform="translate(475.5 45.84) scale(0.12 -0.12)">
     <defs>
      <path id="Times New Roman-2e" d="M 800 25
Q 650 25 537 125 
Q 425 225 425 400 
Q 425 575 537 675 
Q 650 775 800 775 
Q 950 775 1062 662 
Q 1175 550 1175 400 
Q 1175 225 1062 125 
Q 950 25 800 25 
z
" transform="scale(0.015625)"/>
      <path id="Times New Roman-2f" d="M 400 -475
L 225 -375 
L 2775 4975 
L 2950 4875 
L 400 -475 
z
" transform="scale(0.015625)"/>
      <path id="Times New Roman-63" d="M 2150 2225
Q 2150 2300 2175 2325 
Q 2175 2350 2200 2425 
Q 2225 2525 2100 2662 
Q 1975 2800 1675 2800 
Q 1300 2800 1037 2437 
Q 775 2075 775 1475 
Q 775 925 1000 587 
Q 1225 250 1750 250 
Q 2100 250 2337 475 
Q 2575 700 2675 1000 
L 2800 950 
Q 2700 575 2425 312 
Q 2150 50 1675 50 
Q 1075 50 725 425 
Q 375 800 375 1500 
Q 375 2125 750 2537 
Q 1125 2950 1725 2950 
Q 2150 2950 2387 2725 
Q 2625 2500 2625 2275 
Q 2625 2125 2562 2062 
Q 2500 2000 2375 2000 
Q 2275 2000 2212 2062 
Q 2150 2125 2150 2225 
z
" transform="scale(0.015625)"/>
      <path id="Times New Roman-6f" d="M 2900 1500
Q 2900 875 2525 462 
Q 2150 50 1600 50 
Q 1025 50 662 475 
Q 300 900 300 1500 
Q 300 2050 662 2500 
Q 1025 2950 1600 2950 
Q 2200 2950 2550 2500 
Q 2900 2050 2900 1500 
z
M 700 1475 
Q 700 825 962 512 
Q 1225 200 1600 200 
Q 2025 200 2262 537 
Q 2500 875 2500 1475 
Q 2500 2125 2237 2462 
Q 1975 2800 1600 2800 
Q 1250 2800 975 2462 
Q 700 2125 700 1475 
z
" transform="scale(0.015625)"/>
      <path id="Times New Roman-6d" d="M 175 2900
Q 300 2900 425 2925 
Q 550 2950 625 3000 
L 675 3000 
L 675 2575 
Q 800 2775 950 2862 
Q 1100 2950 1275 2950 
Q 1500 2950 1625 2862 
Q 1750 2775 1775 2575 
Q 1900 2775 2062 2862 
Q 2225 2950 2400 2950 
Q 2700 2950 2812 2775 
Q 2925 2600 2925 2325 
L 2925 425 
Q 2925 325 2975 287 
Q 3025 250 3125 250 
L 3175 250 
L 3175 100 
L 2325 100 
L 2325 250 
L 2375 250 
Q 2475 250 2525 287 
Q 2575 325 2575 425 
L 2575 2300 
Q 2575 2575 2512 2662 
Q 2450 2750 2325 2750 
Q 2150 2750 2012 2625 
Q 1875 2500 1800 2275 
L 1800 425 
Q 1800 325 1850 287 
Q 1900 250 2000 250 
L 2050 250 
L 2050 100 
L 1200 100 
L 1200 250 
L 1250 250 
Q 1350 250 1400 287 
Q 1450 325 1450 425 
L 1450 2300 
Q 1450 2525 1400 2637 
Q 1350 2750 1200 2750 
Q 1025 2750 887 2625 
Q 750 2500 675 2250 
L 675 425 
Q 675 325 725 287 
Q 775 250 875 250 
L 925 250 
L 925 100 
L 75 100 
L 75 250 
L 125 250 
Q 225 250 275 287 
Q 325 325 325 425 
L 325 2600 
Q 325 2675 300 2712 
Q 275 2750 200 2750 
L 100 2750 
L 100 2900 
L 175 2900 
z
" transform="scale(0.015625)"/>
      <path id="Times New Roman-79" d="M 1650 800
L 1700 800 
L 2250 2475 
Q 2300 2600 2237 2675 
Q 2175 2750 2075 2750 
L 1925 2750 
L 1925 2900 
L 2975 2900 
L 2975 2750 
L 2825 2750 
Q 2725 2750 2625 2675 
Q 2525 2600 2475 2475 
L 1625 0 
Q 1500 -375 1312 -587 
Q 1125 -800 825 -800 
Q 650 -800 550 -737 
Q 450 -675 450 -550 
Q 450 -475 512 -400 
Q 575 -325 700 -325 
Q 800 -325 900 -425 
Q 1000 -500 1050 -500 
Q 1125 -500 1175 -475 
Q 1225 -450 1250 -375 
Q 1325 -250 1400 -62 
Q 1475 125 1525 325 
L 675 2525 
Q 650 2625 562 2687 
Q 475 2750 375 2750 
L 275 2750 
L 275 2900 
L 1325 2900 
L 1325 2750 
L 1225 2750 
Q 1125 2750 1075 2687 
Q 1025 2625 1050 2500 
L 1650 800 
z
M 950 2750 
L 950 2750 
z
M 600 2750 
L 600 2750 
z
M 2575 2750 
L 2575 2750 
z
M 2325 2750 
L 2325 2750 
z
" transform="scale(0.015625)"/>
      <path id="Times New Roman-6c" d="M 925 4375
Q 1150 4375 1350 4425 
Q 1550 4475 1725 4575 
L 1775 4575 
L 1775 450 
Q 1775 350 1837 300 
Q 1900 250 2000 250 
L 2575 250 
L 2575 100 
L 625 100 
L 625 250 
L 1200 250 
Q 1325 250 1375 300 
Q 1425 350 1425 450 
L 1425 4025 
Q 1425 4125 1375 4175 
Q 1325 4225 1200 4225 
L 650 4225 
L 650 4375 
L 925 4375 
z
" transform="scale(0.015625)"/>
      <path id="Times New Roman-67" d="M 875 1975
Q 875 1675 1050 1462 
Q 1225 1250 1525 1250 
Q 1850 1250 2012 1437 
Q 2175 1625 2175 1975 
Q 2175 2400 1987 2587 
Q 1800 2775 1525 2775 
Q 1250 2775 1062 2587 
Q 875 2400 875 1975 
z
M 2100 625 
Q 2475 575 2650 412 
Q 2825 250 2825 -25 
Q 2825 -400 2512 -625 
Q 2200 -850 1525 -850 
Q 1000 -850 675 -637 
Q 350 -425 350 -150 
Q 350 25 475 200 
Q 600 375 875 475 
Q 725 550 637 637 
Q 550 725 550 850 
Q 550 1000 650 1112 
Q 750 1225 900 1300 
Q 750 1425 637 1600 
Q 525 1775 525 1975 
Q 525 2350 787 2637 
Q 1050 2925 1525 2925 
Q 1725 2925 1912 2875 
Q 2100 2825 2225 2700 
Q 2400 2825 2537 2887 
Q 2675 2950 2775 2950 
Q 2900 2950 2950 2862 
Q 3000 2775 3000 2700 
Q 3000 2600 2962 2537 
Q 2925 2475 2825 2475 
Q 2750 2475 2700 2512 
Q 2650 2550 2625 2625 
Q 2600 2700 2512 2687 
Q 2425 2675 2325 2600 
Q 2425 2500 2475 2325 
Q 2525 2150 2525 1975 
Q 2525 1675 2287 1387 
Q 2050 1100 1525 1100 
Q 1375 1100 1250 1137 
Q 1125 1175 1050 1225 
Q 950 1175 900 1100 
Q 850 1025 850 975 
Q 850 875 900 825 
Q 950 775 1050 775 
Q 1375 725 1637 687 
Q 1900 650 2100 625 
z
M 1075 425 
Q 850 325 762 187 
Q 675 50 675 -150 
Q 675 -350 900 -525 
Q 1125 -700 1575 -700 
Q 2000 -700 2250 -562 
Q 2500 -425 2500 -150 
Q 2500 25 2437 125 
Q 2375 225 2250 250 
Q 2000 300 1700 350 
Q 1400 375 1075 425 
z
" transform="scale(0.015625)"/>
      <path id="Times New Roman-5f" d="M 0 -875
L 0 -725 
L 3175 -725 
L 3175 -875 
L 0 -875 
z
" transform="scale(0.015625)"/>
      <path id="Times New Roman-77" d="M 2325 2900
L 3175 2900 
L 3175 2750 
L 3075 2750 
Q 2975 2750 2900 2675 
Q 2825 2600 2775 2425 
L 2175 75 
L 2025 75 
L 1575 1975 
L 1100 75 
L 950 75 
L 375 2375 
Q 350 2550 275 2650 
Q 200 2750 125 2750 
L 25 2750 
L 25 2900 
L 925 2900 
L 925 2750 
L 825 2750 
Q 725 2750 700 2662 
Q 675 2575 700 2425 
L 1075 800 
L 1125 800 
L 1500 2300 
Q 1475 2525 1400 2637 
Q 1325 2750 1225 2750 
L 1150 2750 
L 1150 2900 
L 2000 2900 
L 2000 2750 
L 1925 2750 
Q 1825 2750 1800 2662 
Q 1775 2575 1800 2425 
L 2175 800 
L 2200 800 
L 2625 2550 
Q 2650 2650 2600 2700 
Q 2550 2750 2450 2750 
L 2325 2750 
L 2325 2900 
z
M 1725 2750 
L 1725 2750 
z
M 625 2750 
L 625 2750 
z
M 275 2750 
L 275 2750 
z
M 2875 2750 
L 2875 2750 
z
M 2675 2750 
L 2675 2750 
z
" transform="scale(0.015625)"/>
      <path id="Times New Roman-76" d="M 1625 75
L 1475 75 
L 625 2525 
Q 600 2625 525 2687 
Q 450 2750 350 2750 
L 225 2750 
L 225 2900 
L 1300 2900 
L 1300 2750 
L 1200 2750 
Q 1050 2750 1025 2700 
Q 1000 2650 1000 2600 
Q 1000 2500 1025 2425 
L 1625 675 
L 1675 675 
L 2275 2400 
Q 2325 2525 2325 2575 
Q 2325 2600 2275 2675 
Q 2225 2750 2075 2750 
L 2025 2750 
L 2025 2900 
L 2925 2900 
L 2925 2750 
L 2875 2750 
Q 2725 2750 2637 2662 
Q 2550 2575 2475 2400 
L 1625 75 
z
M 2600 2750 
L 2600 2750 
z
M 2400 2750 
L 2400 2750 
z
M 925 2750 
L 925 2750 
z
M 550 2750 
L 550 2750 
z
" transform="scale(0.015625)"/>
     </defs>
     <use xlink:href="#Times New Roman-2e"/>
     <use xlink:href="#Times New Roman-2f" x="50"/>
     <use xlink:href="#Times New Roman-63" x="100"/>
     <use xlink:href="#Times New Roman-6f" x="150"/>
     <use xlink:href="#Times New Roman-6d" x="200"/>
     <use xlink:href="#Times New Roman-79" x="250"/>
     <use xlink:href="#Times New Roman-63" x="300"/>
     <use xlink:href="#Times New Roman-6f" x="350"/>
     <use xlink:href="#Times New Roman-2f" x="400"/>
     <use xlink:href="#Times New Roman-6c" x="450"/>
     <use xlink:href="#Times New Roman-6f" x="500"/>
     <use xlink:href="#Times New Roman-67" x="550"/>
     <use xlink:href="#Times New Roman-5f" x="600"/>
     <use xlink:href="#Times New Roman-63" x="650"/>
     <use xlink:href="#Times New Roman-6f" x="700"/>
     <use xlink:href="#Times New Roman-6d" x="750"/>
     <use xlink:href="#Times New Roman-79" x="800"/>
     <use xlink:href="#Times New Roman-63" x="850"/>
     <use xlink:href="#Times New Roman-6f" x="900"/>
     <use xlink:href="#Times New Roman-5f" x="950"/>
     <use xlink:href="#Times New Roman-36" x="1000"/>
     <use xlink:href="#Times New Roman-5f" x="1050"/>
     <use xlink:href="#Times New Roman-77" x="1100"/>
     <use xlink:href="#Times New Roman-61" x="1150"/>
     <use xlink:href="#Times New Roman-76" x="1200"/>
     <use xlink:href="#Times New Roman-65" x="1250"/>
    </g>
   </g>
   <g id="legend_1">
    <g id="patch_11">
     <path d="M 903 73.2775 
L 965 73.2775 
Q 967 73.2775 967 71.2775 
L 967 58.84 
Q 967 56.84 965 56.84 
L 903 56.84 
Q 901 56.84 901 58.84 
L 901 71.2775 
Q 901 73.2775 903 73.2775 
z
" style="fill: #ffffff; opacity: 0.8; stroke: #cccccc; stroke-linejoin: miter"/>
    </g>
    <g id="line2d_31">
     <path d="M 905 64.488437 
L 915 64.488437 
L 925 64.488437 
" style="fill: none; stroke: #1f77b4; stroke-width: 1.5; stroke-linecap: square"/>
    </g>
    <g id="text_24">
     <!-- buffer -->
     <g transform="translate(933 67.988437) scale(0.1 -0.1)">
      <use xlink:href="#Times New Roman-62"/>
      <use xlink:href="#Times New Roman-75" x="50"/>
      <use xlink:href="#Times New Roman-66" x="100"/>
      <use xlink:href="#Times New Roman-66" x="150"/>
      <use xlink:href="#Times New Roman-65" x="200"/>
      <use xlink:href="#Times New Roman-72" x="250"/>
     </g>
    </g>
   </g>
  </g>
 </g>
 <defs>
  <clipPath id="p819e4f78f1">
   <rect x="135" y="51.84" width="837" height="332.64"/>
  </clipPath>
 </defs>
</svg>
