<?xml version="1.0" encoding="utf-8" standalone="no"?>
<!DOCTYPE svg PUBLIC "-//W3C//DTD SVG 1.1//EN"
  "http://www.w3.org/Graphics/SVG/1.1/DTD/svg11.dtd">
<svg xmlns:xlink="http://www.w3.org/1999/xlink" width="1080pt" height="432pt" viewBox="0 0 1080 432" xmlns="http://www.w3.org/2000/svg" version="1.1">
 <metadata>
  <rdf:RDF xmlns:dc="http://purl.org/dc/elements/1.1/" xmlns:cc="http://creativecommons.org/ns#" xmlns:rdf="http://www.w3.org/1999/02/22-rdf-syntax-ns#">
   <cc:Work>
    <dc:type rdf:resource="http://purl.org/dc/dcmitype/StillImage"/>
    <dc:date>2024-04-12T06:21:50.365214</dc:date>
    <dc:format>image/svg+xml</dc:format>
    <dc:creator>
     <cc:Agent>
      <dc:title>Matplotlib v3.8.3, https://matplotlib.org/</dc:title>
     </cc:Agent>
    </dc:creator>
   </cc:Work>
  </rdf:RDF>
 </metadata>
 <defs>
  <style type="text/css">*{stroke-linejoin: round; stroke-linecap: butt}</style>
 </defs>
 <g id="figure_1">
  <g id="patch_1">
   <path d="M 0 432 
L 1080 432 
L 1080 0 
L 0 0 
z
" style="fill: #ffffff"/>
  </g>
  <g id="axes_1">
   <g id="patch_2">
    <path d="M 135 384.48 
L 972 384.48 
L 972 51.84 
L 135 51.84 
z
" style="fill: #ffffff"/>
   </g>
   <g id="matplotlib.axis_1">
    <g id="xtick_1">
     <g id="line2d_1">
      <defs>
       <path id="mbe663ba99a" d="M 0 0 
L 0 3.5 
" style="stroke: #000000; stroke-width: 0.8"/>
      </defs>
      <g>
       <use xlink:href="#mbe663ba99a" x="173.045455" y="384.48" style="stroke: #000000; stroke-width: 0.8"/>
      </g>
     </g>
     <g id="text_1">
      <!-- 0 -->
      <g transform="translate(170.545455 398.628438) scale(0.1 -0.1)">
       <defs>
        <path id="Times New Roman-30" d="M 1600 4225
Q 1250 4225 1012 3687 
Q 775 3150 775 2250 
Q 775 1300 1012 775 
Q 1250 250 1600 250 
Q 1975 250 2187 775 
Q 2400 1300 2400 2250 
Q 2400 3150 2200 3687 
Q 2000 4225 1600 4225 
z
M 1600 50 
Q 1050 50 675 625 
Q 300 1200 300 2250 
Q 300 3225 662 3825 
Q 1025 4425 1600 4425 
Q 2150 4425 2512 3850 
Q 2875 3275 2875 2250 
Q 2875 1225 2512 637 
Q 2150 50 1600 50 
z
" transform="scale(0.015625)"/>
       </defs>
       <use xlink:href="#Times New Roman-30"/>
      </g>
     </g>
    </g>
    <g id="xtick_2">
     <g id="line2d_2">
      <g>
       <use xlink:href="#mbe663ba99a" x="299.863636" y="384.48" style="stroke: #000000; stroke-width: 0.8"/>
      </g>
     </g>
     <g id="text_2">
      <!-- 100 -->
      <g transform="translate(292.363636 398.628438) scale(0.1 -0.1)">
       <defs>
        <path id="Times New Roman-31" d="M 1825 4450
L 1825 650 
Q 1825 450 1950 350 
Q 2075 250 2300 250 
L 2550 250 
L 2550 100 
L 725 100 
L 725 250 
L 950 250 
Q 1200 250 1312 350 
Q 1425 450 1425 650 
L 1425 3675 
Q 1425 3775 1362 3837 
Q 1300 3900 1175 3900 
L 725 3900 
L 725 4050 
L 950 4050 
Q 1250 4050 1437 4150 
Q 1625 4250 1725 4450 
L 1825 4450 
z
" transform="scale(0.015625)"/>
       </defs>
       <use xlink:href="#Times New Roman-31"/>
       <use xlink:href="#Times New Roman-30" x="50"/>
       <use xlink:href="#Times New Roman-30" x="100"/>
      </g>
     </g>
    </g>
    <g id="xtick_3">
     <g id="line2d_3">
      <g>
       <use xlink:href="#mbe663ba99a" x="426.681818" y="384.48" style="stroke: #000000; stroke-width: 0.8"/>
      </g>
     </g>
     <g id="text_3">
      <!-- 200 -->
      <g transform="translate(419.181818 398.628438) scale(0.1 -0.1)">
       <defs>
        <path id="Times New Roman-32" d="M 2325 3325
Q 2325 3775 2125 4012 
Q 1925 4250 1525 4250 
Q 1225 4250 1012 4087 
Q 800 3925 800 3675 
Q 800 3525 900 3425 
Q 975 3325 975 3225 
Q 975 3100 912 3037 
Q 850 2975 725 2975 
Q 575 2975 487 3062 
Q 400 3150 400 3350 
Q 400 3875 775 4150 
Q 1150 4425 1575 4425 
Q 2175 4425 2462 4125 
Q 2750 3825 2750 3375 
Q 2750 3075 2612 2775 
Q 2475 2475 2175 2200 
Q 1450 1500 1062 1062 
Q 675 625 600 475 
L 2075 475 
Q 2300 475 2450 650 
Q 2600 825 2650 1175 
L 2800 1175 
L 2650 100 
L 325 100 
L 325 425 
Q 450 650 737 1000 
Q 1025 1350 1500 1825 
Q 1925 2250 2125 2625 
Q 2325 3000 2325 3325 
z
" transform="scale(0.015625)"/>
       </defs>
       <use xlink:href="#Times New Roman-32"/>
       <use xlink:href="#Times New Roman-30" x="50"/>
       <use xlink:href="#Times New Roman-30" x="100"/>
      </g>
     </g>
    </g>
    <g id="xtick_4">
     <g id="line2d_4">
      <g>
       <use xlink:href="#mbe663ba99a" x="553.5" y="384.48" style="stroke: #000000; stroke-width: 0.8"/>
      </g>
     </g>
     <g id="text_4">
      <!-- 300 -->
      <g transform="translate(546 398.628438) scale(0.1 -0.1)">
       <defs>
        <path id="Times New Roman-33" d="M 2800 1250
Q 2800 775 2450 412 
Q 2100 50 1475 50 
Q 1025 50 700 300 
Q 375 550 375 875 
Q 375 1025 475 1137 
Q 575 1250 675 1250 
Q 825 1250 887 1137 
Q 950 1025 950 950 
Q 950 825 900 750 
Q 850 650 850 575 
Q 850 425 1037 325 
Q 1225 225 1450 225 
Q 1900 225 2125 487 
Q 2350 750 2350 1300 
Q 2350 1750 2112 2025 
Q 1875 2300 1225 2300 
L 1225 2475 
Q 1725 2475 1962 2712 
Q 2200 2950 2200 3375 
Q 2200 3725 2012 3987 
Q 1825 4250 1425 4250 
Q 1250 4250 1050 4162 
Q 850 4075 850 3875 
Q 850 3675 900 3625 
Q 950 3575 950 3500 
Q 950 3375 900 3300 
Q 850 3225 725 3225 
Q 625 3225 537 3300 
Q 450 3375 450 3575 
Q 450 3950 775 4187 
Q 1100 4425 1525 4425 
Q 2025 4425 2325 4112 
Q 2625 3800 2625 3450 
Q 2625 3075 2437 2812 
Q 2250 2550 1850 2425 
Q 2400 2225 2600 1900 
Q 2800 1575 2800 1250 
z
" transform="scale(0.015625)"/>
       </defs>
       <use xlink:href="#Times New Roman-33"/>
       <use xlink:href="#Times New Roman-30" x="50"/>
       <use xlink:href="#Times New Roman-30" x="100"/>
      </g>
     </g>
    </g>
    <g id="xtick_5">
     <g id="line2d_5">
      <g>
       <use xlink:href="#mbe663ba99a" x="680.318182" y="384.48" style="stroke: #000000; stroke-width: 0.8"/>
      </g>
     </g>
     <g id="text_5">
      <!-- 400 -->
      <g transform="translate(672.818182 398.628438) scale(0.1 -0.1)">
       <defs>
        <path id="Times New Roman-34" d="M 2300 575
Q 2300 400 2400 325 
Q 2500 250 2675 250 
L 2900 250 
L 2900 100 
L 1250 100 
L 1250 250 
L 1525 250 
Q 1725 250 1812 325 
Q 1900 400 1900 575 
L 1900 1400 
L 225 1400 
L 225 1525 
L 2050 4425 
L 2300 4425 
L 2300 1550 
L 2975 1550 
L 2975 1400 
L 2300 1400 
L 2300 575 
z
M 1875 3800 
L 450 1550 
L 1900 1550 
L 1900 3800 
L 1875 3800 
z
" transform="scale(0.015625)"/>
       </defs>
       <use xlink:href="#Times New Roman-34"/>
       <use xlink:href="#Times New Roman-30" x="50"/>
       <use xlink:href="#Times New Roman-30" x="100"/>
      </g>
     </g>
    </g>
    <g id="xtick_6">
     <g id="line2d_6">
      <g>
       <use xlink:href="#mbe663ba99a" x="807.136364" y="384.48" style="stroke: #000000; stroke-width: 0.8"/>
      </g>
     </g>
     <g id="text_6">
      <!-- 500 -->
      <g transform="translate(799.636364 398.628438) scale(0.1 -0.1)">
       <defs>
        <path id="Times New Roman-35" d="M 1725 2850
Q 2200 2850 2500 2487 
Q 2800 2125 2800 1525 
Q 2800 850 2487 450 
Q 2175 50 1525 50 
Q 1075 50 725 312 
Q 375 575 375 950 
Q 375 1100 462 1212 
Q 550 1325 700 1325 
Q 850 1325 900 1225 
Q 950 1125 950 1050 
Q 950 900 875 825 
Q 800 725 800 625 
Q 800 425 1037 325 
Q 1275 225 1550 225 
Q 1950 225 2162 550 
Q 2375 875 2375 1475 
Q 2375 1975 2187 2287 
Q 2000 2600 1625 2600 
Q 1350 2600 1150 2500 
Q 950 2400 775 2075 
L 550 2100 
L 675 4375 
L 2725 4375 
L 2650 4000 
L 850 4000 
L 750 2350 
Q 1000 2700 1237 2775 
Q 1475 2850 1725 2850 
z
" transform="scale(0.015625)"/>
       </defs>
       <use xlink:href="#Times New Roman-35"/>
       <use xlink:href="#Times New Roman-30" x="50"/>
       <use xlink:href="#Times New Roman-30" x="100"/>
      </g>
     </g>
    </g>
    <g id="xtick_7">
     <g id="line2d_7">
      <g>
       <use xlink:href="#mbe663ba99a" x="933.954545" y="384.48" style="stroke: #000000; stroke-width: 0.8"/>
      </g>
     </g>
     <g id="text_7">
      <!-- 600 -->
      <g transform="translate(926.454545 398.628438) scale(0.1 -0.1)">
       <defs>
        <path id="Times New Roman-36" d="M 775 1800
Q 775 1050 1037 637 
Q 1300 225 1675 225 
Q 2050 225 2250 500 
Q 2450 775 2450 1525 
Q 2450 2025 2237 2300 
Q 2025 2575 1725 2575 
Q 1450 2575 1212 2412 
Q 975 2250 775 1800 
z
M 1750 2825 
Q 2350 2825 2612 2425 
Q 2875 2025 2875 1525 
Q 2875 775 2512 412 
Q 2150 50 1675 50 
Q 1000 50 650 562 
Q 300 1075 300 2050 
Q 300 3200 725 3812 
Q 1150 4425 1875 4425 
Q 2225 4425 2437 4225 
Q 2650 4025 2650 3875 
Q 2650 3725 2587 3650 
Q 2525 3575 2375 3575 
Q 2250 3575 2187 3637 
Q 2125 3700 2125 3825 
Q 2125 3875 2150 3925 
Q 2150 3975 2150 4025 
Q 2150 4125 2075 4187 
Q 2000 4250 1800 4250 
Q 1375 4250 1075 3862 
Q 775 3475 775 2175 
Q 925 2500 1187 2662 
Q 1450 2825 1750 2825 
z
" transform="scale(0.015625)"/>
       </defs>
       <use xlink:href="#Times New Roman-36"/>
       <use xlink:href="#Times New Roman-30" x="50"/>
       <use xlink:href="#Times New Roman-30" x="100"/>
      </g>
     </g>
    </g>
   </g>
   <g id="matplotlib.axis_2">
    <g id="ytick_1">
     <g id="line2d_8">
      <defs>
       <path id="m7df3f5a2c8" d="M 0 0 
L -3.5 0 
" style="stroke: #000000; stroke-width: 0.8"/>
      </defs>
      <g>
       <use xlink:href="#m7df3f5a2c8" x="135" y="378.224901" style="stroke: #000000; stroke-width: 0.8"/>
      </g>
     </g>
     <g id="text_8">
      <!-- 0 -->
      <g transform="translate(123 381.79912) scale(0.1 -0.1)">
       <use xlink:href="#Times New Roman-30"/>
      </g>
     </g>
    </g>
    <g id="ytick_2">
     <g id="line2d_9">
      <g>
       <use xlink:href="#m7df3f5a2c8" x="135" y="315.353264" style="stroke: #000000; stroke-width: 0.8"/>
      </g>
     </g>
     <g id="text_9">
      <!-- 1000 -->
      <g transform="translate(108 318.927483) scale(0.1 -0.1)">
       <use xlink:href="#Times New Roman-31"/>
       <use xlink:href="#Times New Roman-30" x="50"/>
       <use xlink:href="#Times New Roman-30" x="100"/>
       <use xlink:href="#Times New Roman-30" x="150"/>
      </g>
     </g>
    </g>
    <g id="ytick_3">
     <g id="line2d_10">
      <g>
       <use xlink:href="#m7df3f5a2c8" x="135" y="252.481627" style="stroke: #000000; stroke-width: 0.8"/>
      </g>
     </g>
     <g id="text_10">
      <!-- 2000 -->
      <g transform="translate(108 256.055845) scale(0.1 -0.1)">
       <use xlink:href="#Times New Roman-32"/>
       <use xlink:href="#Times New Roman-30" x="50"/>
       <use xlink:href="#Times New Roman-30" x="100"/>
       <use xlink:href="#Times New Roman-30" x="150"/>
      </g>
     </g>
    </g>
    <g id="ytick_4">
     <g id="line2d_11">
      <g>
       <use xlink:href="#m7df3f5a2c8" x="135" y="189.60999" style="stroke: #000000; stroke-width: 0.8"/>
      </g>
     </g>
     <g id="text_11">
      <!-- 3000 -->
      <g transform="translate(108 193.184208) scale(0.1 -0.1)">
       <use xlink:href="#Times New Roman-33"/>
       <use xlink:href="#Times New Roman-30" x="50"/>
       <use xlink:href="#Times New Roman-30" x="100"/>
       <use xlink:href="#Times New Roman-30" x="150"/>
      </g>
     </g>
    </g>
    <g id="ytick_5">
     <g id="line2d_12">
      <g>
       <use xlink:href="#m7df3f5a2c8" x="135" y="126.738353" style="stroke: #000000; stroke-width: 0.8"/>
      </g>
     </g>
     <g id="text_12">
      <!-- 4000 -->
      <g transform="translate(108 130.312571) scale(0.1 -0.1)">
       <use xlink:href="#Times New Roman-34"/>
       <use xlink:href="#Times New Roman-30" x="50"/>
       <use xlink:href="#Times New Roman-30" x="100"/>
       <use xlink:href="#Times New Roman-30" x="150"/>
      </g>
     </g>
    </g>
    <g id="ytick_6">
     <g id="line2d_13">
      <g>
       <use xlink:href="#m7df3f5a2c8" x="135" y="63.866715" style="stroke: #000000; stroke-width: 0.8"/>
      </g>
     </g>
     <g id="text_13">
      <!-- 5000 -->
      <g transform="translate(108 67.440934) scale(0.1 -0.1)">
       <use xlink:href="#Times New Roman-35"/>
       <use xlink:href="#Times New Roman-30" x="50"/>
       <use xlink:href="#Times New Roman-30" x="100"/>
       <use xlink:href="#Times New Roman-30" x="150"/>
      </g>
     </g>
    </g>
    <g id="text_14">
     <!-- Bitrate (kbps) -->
     <g transform="translate(102.710938 253.16) rotate(-90) scale(0.1 -0.1)">
      <defs>
       <path id="Times New Roman-42" d="M 100 100
L 100 250 
L 300 250 
Q 425 250 475 300 
Q 525 350 525 450 
L 525 4025 
Q 525 4125 475 4175 
Q 425 4225 300 4225 
L 150 4225 
L 150 4375 
L 1600 4375 
Q 2200 4375 2487 4137 
Q 2775 3900 2775 3400 
Q 2775 3050 2625 2825 
Q 2475 2600 2000 2425 
Q 2575 2250 2775 1925 
Q 2975 1600 2975 1200 
Q 2975 700 2625 400 
Q 2275 100 1675 100 
L 100 100 
z
M 1600 250 
Q 2025 250 2262 512 
Q 2500 775 2500 1250 
Q 2500 1800 2250 2062 
Q 2000 2325 1500 2325 
L 925 2325 
L 925 450 
Q 925 350 987 300 
Q 1050 250 1150 250 
L 1600 250 
z
M 2350 3400 
Q 2350 3850 2100 4037 
Q 1850 4225 1450 4225 
L 1150 4225 
Q 1050 4225 987 4175 
Q 925 4125 925 4025 
L 925 2475 
L 1575 2475 
Q 1850 2475 2100 2700 
Q 2350 2925 2350 3400 
z
" transform="scale(0.015625)"/>
       <path id="Times New Roman-69" d="M 1425 2525
Q 1425 2625 1375 2687 
Q 1325 2750 1200 2750 
L 675 2750 
L 675 2900 
L 925 2900 
Q 1150 2900 1350 2937 
Q 1550 2975 1725 3075 
L 1775 3075 
L 1775 450 
Q 1775 350 1837 300 
Q 1900 250 2000 250 
L 2525 250 
L 2525 100 
L 675 100 
L 675 250 
L 1200 250 
Q 1325 250 1375 300 
Q 1425 350 1425 450 
L 1425 2525 
z
M 1725 3025 
L 1725 3025 
z
M 1625 4425 
Q 1750 4425 1850 4337 
Q 1950 4250 1950 4125 
Q 1950 4000 1850 3900 
Q 1750 3800 1625 3800 
Q 1500 3800 1400 3900 
Q 1300 4000 1300 4125 
Q 1300 4250 1400 4337 
Q 1500 4425 1625 4425 
z
" transform="scale(0.015625)"/>
       <path id="Times New Roman-74" d="M 1500 900
Q 1500 550 1625 425 
Q 1750 300 2000 300 
Q 2250 300 2400 462 
Q 2550 625 2600 925 
L 2725 875 
Q 2675 525 2462 300 
Q 2250 75 1900 75 
Q 1525 75 1337 300 
Q 1150 525 1150 1000 
L 1150 2750 
L 400 2750 
L 400 2900 
L 600 2900 
Q 900 2900 1087 3087 
Q 1275 3275 1325 3675 
L 1350 3875 
L 1500 3875 
L 1500 2900 
L 2500 2900 
L 2500 2750 
L 1500 2750 
L 1500 900 
z
" transform="scale(0.015625)"/>
       <path id="Times New Roman-72" d="M 1275 2125
Q 1525 2525 1812 2737 
Q 2100 2950 2400 2950 
Q 2650 2950 2787 2837 
Q 2925 2725 2925 2575 
Q 2925 2450 2862 2375 
Q 2800 2300 2675 2300 
Q 2550 2300 2487 2375 
Q 2425 2450 2450 2575 
Q 2450 2650 2425 2700 
Q 2400 2750 2275 2750 
Q 2075 2750 1787 2500 
Q 1500 2250 1275 1800 
L 1275 450 
Q 1275 350 1337 300 
Q 1400 250 1500 250 
L 2050 250 
L 2050 100 
L 200 100 
L 200 250 
L 700 250 
Q 825 250 875 300 
Q 925 350 925 450 
L 925 2525 
Q 925 2625 875 2687 
Q 825 2750 700 2750 
L 225 2750 
L 225 2900 
L 425 2900 
Q 600 2900 837 2937 
Q 1075 2975 1200 3025 
L 1275 3025 
L 1275 2125 
z
" transform="scale(0.015625)"/>
       <path id="Times New Roman-61" d="M 1225 75
Q 775 75 525 287 
Q 275 500 275 775 
Q 275 1225 662 1512 
Q 1050 1800 2200 1925 
L 2200 2225 
Q 2200 2475 2087 2637 
Q 1975 2800 1575 2800 
Q 1150 2800 975 2662 
Q 800 2525 850 2375 
Q 875 2325 875 2275 
Q 875 2225 837 2150 
Q 800 2075 650 2075 
Q 550 2075 487 2137 
Q 425 2200 425 2325 
Q 425 2550 750 2750 
Q 1075 2950 1550 2950 
Q 2050 2950 2300 2762 
Q 2550 2575 2550 2225 
L 2550 575 
Q 2550 375 2587 337 
Q 2625 300 2725 300 
Q 2850 300 2900 412 
Q 2950 525 2950 725 
L 3075 725 
Q 3075 375 2950 237 
Q 2825 100 2625 100 
Q 2450 100 2350 175 
Q 2250 250 2200 425 
Q 1950 250 1737 162 
Q 1525 75 1225 75 
z
M 700 850 
Q 700 625 837 437 
Q 975 250 1275 250 
Q 1500 250 1725 337 
Q 1950 425 2200 600 
L 2200 1775 
Q 1350 1675 1025 1437 
Q 700 1200 700 850 
z
" transform="scale(0.015625)"/>
       <path id="Times New Roman-65" d="M 2400 1650
Q 2425 2200 2212 2487 
Q 2000 2775 1650 2775 
Q 1275 2775 1037 2475 
Q 800 2175 800 1650 
L 2400 1650 
z
M 800 1500 
Q 800 825 1062 537 
Q 1325 250 1750 250 
Q 2075 250 2300 437 
Q 2525 625 2625 900 
L 2750 850 
Q 2675 575 2412 312 
Q 2150 50 1700 50 
Q 1125 50 762 425 
Q 400 800 400 1500 
Q 400 2125 762 2537 
Q 1125 2950 1650 2950 
Q 2125 2950 2475 2625 
Q 2825 2300 2825 1500 
L 800 1500 
z
" transform="scale(0.015625)"/>
       <path id="Times New Roman-20" d="M 0 0
Q 0 0 0 0 
z
" transform="scale(0.015625)"/>
       <path id="Times New Roman-28" d="M 2900 5025
Q 2325 4425 2037 3737 
Q 1750 3050 1750 2300 
Q 1750 1525 2037 850 
Q 2325 175 2900 -425 
L 2775 -550 
Q 2075 75 1725 787 
Q 1375 1500 1375 2300 
Q 1375 3075 1725 3787 
Q 2075 4500 2775 5150 
L 2900 5025 
z
" transform="scale(0.015625)"/>
       <path id="Times New Roman-6b" d="M 1675 1900
L 2625 425 
Q 2700 325 2762 287 
Q 2825 250 2900 250 
L 3000 250 
L 3000 100 
L 1975 100 
L 1975 250 
L 2050 250 
Q 2175 250 2225 287 
Q 2275 325 2200 425 
L 1425 1650 
L 925 1125 
L 925 450 
Q 925 350 987 300 
Q 1050 250 1150 250 
L 1275 250 
L 1275 100 
L 225 100 
L 225 250 
L 350 250 
Q 475 250 525 300 
Q 575 350 575 450 
L 575 4025 
Q 575 4125 525 4175 
Q 475 4225 350 4225 
L 200 4225 
L 200 4375 
L 425 4375 
Q 575 4375 687 4425 
Q 800 4475 875 4575 
L 925 4575 
L 925 1400 
L 1975 2525 
Q 2025 2625 2012 2687 
Q 2000 2750 1900 2750 
L 1750 2750 
L 1750 2900 
L 2800 2900 
L 2800 2750 
L 2675 2750 
Q 2600 2750 2487 2712 
Q 2375 2675 2275 2575 
L 1675 1900 
z
M 2450 2750 
L 2450 2750 
z
M 2175 2750 
L 2175 2750 
z
M 2300 250 
L 2300 250 
z
M 2750 250 
L 2750 250 
z
" transform="scale(0.015625)"/>
       <path id="Times New Roman-62" d="M 875 2325
Q 1000 2600 1275 2762 
Q 1550 2925 1800 2925 
Q 2325 2925 2587 2562 
Q 2850 2200 2850 1500 
Q 2850 800 2512 437 
Q 2175 75 1675 75 
Q 1425 75 1212 162 
Q 1000 250 850 400 
L 625 100 
L 525 100 
L 525 4025 
Q 525 4125 475 4175 
Q 425 4225 300 4225 
L 150 4225 
L 150 4375 
L 375 4375 
Q 500 4375 625 4425 
Q 750 4475 875 4575 
L 875 2325 
z
M 875 925 
Q 875 650 1062 450 
Q 1250 250 1625 250 
Q 2075 250 2262 562 
Q 2450 875 2450 1500 
Q 2450 2100 2287 2412 
Q 2125 2725 1775 2725 
Q 1475 2725 1250 2550 
Q 1025 2375 875 1925 
L 875 925 
z
" transform="scale(0.015625)"/>
       <path id="Times New Roman-70" d="M 1150 -675
L 1325 -675 
L 1325 -825 
L 175 -825 
L 175 -675 
L 325 -675 
Q 450 -675 500 -625 
Q 550 -575 550 -450 
L 550 2500 
Q 550 2600 500 2662 
Q 450 2725 325 2725 
L 175 2725 
L 175 2875 
L 400 2875 
Q 525 2875 637 2900 
Q 750 2925 850 3000 
L 900 3000 
L 900 2425 
Q 1075 2675 1287 2800 
Q 1500 2925 1750 2925 
Q 2250 2925 2575 2587 
Q 2900 2250 2900 1525 
Q 2900 825 2550 450 
Q 2200 75 1725 75 
Q 1450 75 1262 162 
Q 1075 250 900 425 
L 900 -450 
Q 900 -575 975 -625 
Q 1050 -675 1150 -675 
z
M 900 750 
Q 1025 500 1212 375 
Q 1400 250 1650 250 
Q 2000 250 2250 562 
Q 2500 875 2500 1525 
Q 2500 2125 2312 2425 
Q 2125 2725 1750 2725 
Q 1525 2725 1300 2587 
Q 1075 2450 900 2150 
L 900 750 
z
" transform="scale(0.015625)"/>
       <path id="Times New Roman-73" d="M 625 2175
Q 625 2550 912 2750 
Q 1200 2950 1600 2950 
Q 1825 2950 2025 2900 
Q 2225 2825 2300 2825 
Q 2375 2825 2425 2850 
Q 2475 2875 2550 2950 
L 2650 2125 
L 2500 2100 
Q 2400 2425 2162 2612 
Q 1925 2800 1625 2800 
Q 1300 2800 1112 2675 
Q 925 2550 925 2325 
Q 925 2125 1012 2012 
Q 1100 1900 1325 1850 
Q 1500 1775 1775 1700 
Q 2025 1600 2250 1500 
Q 2450 1400 2587 1237 
Q 2725 1075 2725 875 
Q 2725 500 2462 287 
Q 2200 75 1700 75 
Q 1375 75 1225 150 
Q 1050 200 950 200 
Q 875 200 787 162 
Q 700 125 600 75 
L 525 1000 
L 675 1025 
Q 750 625 1000 425 
Q 1250 225 1700 225 
Q 2050 225 2237 350 
Q 2425 475 2425 725 
Q 2425 900 2325 1012 
Q 2225 1125 2125 1175 
Q 1875 1275 1575 1400 
Q 1275 1500 1050 1600 
Q 825 1700 725 1850 
Q 625 2000 625 2175 
z
" transform="scale(0.015625)"/>
       <path id="Times New Roman-29" d="M 275 5025
L 400 5150 
Q 1100 4500 1450 3787 
Q 1800 3075 1800 2300 
Q 1800 1500 1450 787 
Q 1100 75 400 -550 
L 275 -425 
Q 850 175 1137 850 
Q 1425 1525 1425 2300 
Q 1425 3050 1137 3737 
Q 850 4425 275 5025 
z
" transform="scale(0.015625)"/>
      </defs>
      <use xlink:href="#Times New Roman-42"/>
      <use xlink:href="#Times New Roman-69" x="50"/>
      <use xlink:href="#Times New Roman-74" x="100"/>
      <use xlink:href="#Times New Roman-72" x="150"/>
      <use xlink:href="#Times New Roman-61" x="200"/>
      <use xlink:href="#Times New Roman-74" x="250"/>
      <use xlink:href="#Times New Roman-65" x="300"/>
      <use xlink:href="#Times New Roman-20" x="350"/>
      <use xlink:href="#Times New Roman-28" x="400"/>
      <use xlink:href="#Times New Roman-6b" x="450"/>
      <use xlink:href="#Times New Roman-62" x="500"/>
      <use xlink:href="#Times New Roman-70" x="550"/>
      <use xlink:href="#Times New Roman-73" x="600"/>
      <use xlink:href="#Times New Roman-29" x="650"/>
     </g>
    </g>
   </g>
   <g id="line2d_14">
    <path d="M 173.045455 353.453476 
L 174.313636 353.453476 
L 175.581818 369.36 
L 186.995455 369.36 
L 188.263636 337.546952 
L 199.677273 337.546952 
L 200.945455 309.506202 
L 202.213636 309.506202 
L 203.481818 258.517304 
L 207.286364 258.517304 
L 209.822727 133.905719 
L 212.359091 133.905719 
L 213.627273 258.517304 
L 217.431818 258.517304 
L 218.7 133.905719 
L 258.013636 133.905719 
L 258.013636 133.905719 
L 259.281818 309.506202 
L 259.281818 309.506202 
L 260.55 309.506202 
L 260.55 133.905719 
L 263.086364 133.905719 
L 263.086364 133.905719 
L 264.354545 309.506202 
L 266.890909 309.506202 
L 266.890909 258.517304 
L 268.159091 258.517304 
L 268.159091 133.905719 
L 274.5 133.905719 
L 274.5 133.905719 
L 275.768182 258.517304 
L 275.768182 258.517304 
L 277.036364 133.905719 
L 277.036364 133.905719 
L 327.763636 133.905719 
L 327.763636 258.517304 
L 329.031818 258.517304 
L 329.031818 258.517304 
L 329.031818 133.905719 
L 330.3 258.517304 
L 330.3 258.517304 
L 339.177273 258.517304 
L 340.445455 309.506202 
L 342.981818 309.506202 
L 344.25 337.546952 
L 364.540909 337.546952 
L 365.809091 133.905719 
L 452.045455 133.905719 
L 453.313636 258.517304 
L 483.75 258.517304 
L 485.018182 251.664295 
L 486.286364 133.905719 
L 788.113636 133.905719 
L 789.381818 251.664295 
L 794.454545 251.664295 
L 794.454545 251.664295 
L 795.722727 133.905719 
L 933.954545 133.905719 
L 933.954545 133.905719 
" clip-path="url(#p76c8735f0c)" style="fill: none; stroke: #ff0000; stroke-width: 1.5; stroke-linecap: square"/>
   </g>
   <g id="line2d_15">
    <path d="M 173.045455 353.642091 
L 174.313636 352.227479 
L 175.581818 351.273926 
L 176.85 349.644502 
L 180.654545 346.530261 
L 180.654545 343.6455 
L 181.922727 340.032477 
L 181.922727 336.70028 
L 183.190909 333.116597 
L 185.727273 329.193407 
L 186.995455 325.014539 
L 188.263636 320.102168 
L 190.8 308.449958 
L 192.068182 305.155484 
L 193.336364 304.715383 
L 194.604545 308.148174 
L 194.604545 313.571901 
L 195.872727 318.903416 
L 198.409091 325.894742 
L 199.677273 331.050216 
L 200.945455 338.695407 
L 202.213636 338.707981 
L 203.481818 340.728256 
L 204.75 331.134045 
L 204.75 319.745895 
L 206.018182 293.888887 
L 207.286364 271.984408 
L 209.822727 244.270591 
L 211.090909 224.323516 
L 211.090909 205.114135 
L 212.359091 194.622955 
L 213.627273 185.45627 
L 216.163636 177.886525 
L 217.431818 170.681435 
L 218.7 162.197956 
L 219.968182 154.821017 
L 221.236364 146.232751 
L 222.504545 140.821599 
L 225.040909 133.867996 
L 225.040909 129.240644 
L 226.309091 123.192392 
L 228.845455 119.424285 
L 230.113636 114.390363 
L 231.381818 110.907274 
L 232.65 106.493685 
L 232.65 103.07766 
L 233.918182 98.731134 
L 235.186364 94.979793 
L 237.722727 88.227379 
L 238.990909 85.641259 
L 240.259091 82.443188 
L 241.527273 80.661825 
L 244.063636 78.360724 
L 244.063636 78.712805 
L 245.331818 78.805016 
L 246.6 79.488222 
L 247.868182 79.878026 
L 249.136364 79.810963 
L 249.136364 78.654124 
L 250.404545 77.602072 
L 250.404545 79.785814 
L 251.672727 81.72226 
L 251.672727 83.021608 
L 252.940909 84.999968 
L 252.940909 89.153688 
L 254.209091 91.681128 
L 258.013636 96.572541 
L 258.013636 94.698966 
L 259.281818 93.051729 
L 259.281818 92.246972 
L 260.55 93.709786 
L 260.55 94.640286 
L 261.818182 97.100663 
L 261.818182 99.351467 
L 263.086364 104.724897 
L 263.086364 112.554511 
L 264.354545 120.853567 
L 265.622727 126.558121 
L 266.890909 130.410056 
L 266.890909 131.650723 
L 268.159091 130.690883 
L 268.159091 129.378961 
L 269.427273 132.836901 
L 269.427273 149.183527 
L 270.695455 155.810198 
L 270.695455 160.538145 
L 271.963636 161.342902 
L 271.963636 160.123192 
L 273.231818 158.572358 
L 273.231818 160.207021 
L 274.5 164.318826 
L 274.5 168.803669 
L 275.768182 172.626265 
L 275.768182 175.740506 
L 277.036364 176.256054 
L 277.036364 180.640303 
L 278.304545 184.303623 
L 278.304545 194.719358 
L 279.572727 199.313179 
L 279.572727 202.813033 
L 280.840909 204.711757 
L 280.840909 205.541662 
L 282.109091 205.889552 
L 282.109091 207.356557 
L 283.377273 211.204301 
L 283.377273 216.393307 
L 284.645455 222.093669 
L 290.986364 246.676479 
L 292.254545 253.445658 
L 321.422727 265.697245 
L 322.690909 282.010339 
L 323.959091 301.638864 
L 323.959091 319.670449 
L 325.227273 335.753014 
L 325.227273 345.489735 
L 326.495455 349.354245 
L 326.495455 348.35249 
L 327.763636 347.849517 
L 327.763636 348.046515 
L 329.031818 349.153056 
L 329.031818 352.91278 
L 330.3 353.369647 
L 330.3 352.045151 
L 331.568182 348.662657 
L 332.836364 344.48798 
L 332.836364 339.521121 
L 334.104545 335.019512 
L 334.104545 331.4987 
L 335.372727 328.719774 
L 335.372727 326.217483 
L 336.640909 323.639746 
L 336.640909 321.53145 
L 337.909091 319.494409 
L 337.909091 318.144764 
L 339.177273 316.334061 
L 340.445455 313.928173 
L 341.713636 310.264853 
L 342.981818 305.603969 
L 344.25 299.538951 
L 363.272727 286.055081 
L 364.540909 265.634373 
L 367.077273 211.480936 
L 368.345455 188.733978 
L 368.345455 177.714676 
L 369.613636 175.174662 
L 370.881818 175.380042 
L 372.15 171.180217 
L 373.418182 161.401582 
L 374.686364 146.840511 
L 375.954545 130.816626 
L 377.222727 121.700239 
L 378.490909 122.970246 
L 379.759091 121.758919 
L 381.027273 117.668071 
L 382.295455 110.764765 
L 382.295455 100.860387 
L 383.563636 91.19492 
L 383.563636 85.008351 
L 384.831818 84.94548 
L 384.831818 88.076487 
L 386.1 91.354195 
L 387.368182 92.226015 
L 388.636364 90.226697 
L 389.904545 85.746045 
L 392.440909 71.558012 
L 393.709091 72.404684 
L 396.245455 76.252428 
L 397.513636 80.427105 
L 398.781818 79.974429 
L 400.05 79.932514 
L 402.586364 70.954445 
L 402.586364 66.96 
L 403.854545 68.32641 
L 403.854545 69.734735 
L 405.122727 71.23108 
L 405.122727 73.901029 
L 406.390909 79.681028 
L 406.390909 104.85064 
L 407.659091 115.128057 
L 407.659091 120.89129 
L 408.927273 117.714177 
L 408.927273 109.926477 
L 410.195455 97.84674 
L 410.195455 90.415312 
L 411.463636 87.946552 
L 411.463636 89.924913 
L 412.731818 92.360141 
L 412.731818 94.619329 
L 414 97.230598 
L 414 99.540082 
L 415.268182 102.218414 
L 415.268182 104.594962 
L 416.536364 107.390654 
L 416.536364 109.922285 
L 417.804545 116.595062 
L 417.804545 126.650332 
L 419.072727 137.166661 
L 420.340909 144.13703 
L 421.609091 148.299133 
L 422.877273 149.351185 
L 424.145455 147.682991 
L 425.413636 146.589024 
L 426.681818 149.682309 
L 430.486364 171.037708 
L 433.022727 185.883797 
L 434.290909 196.52587 
L 438.095455 208.144548 
L 439.363636 220.777556 
L 441.9 241.785065 
L 443.168182 249.094941 
L 444.436364 255.268936 
L 445.704545 260.273518 
L 449.509091 280.660694 
L 453.313636 299.304231 
L 455.85 310.583402 
L 458.386364 320.68897 
L 460.922727 329.440702 
L 463.459091 336.972724 
L 464.727273 340.531259 
L 485.018182 342.811403 
L 486.286364 340.552216 
L 487.554545 336.872129 
L 490.090909 325.722892 
L 491.359091 320.022531 
L 492.627273 315.499964 
L 492.627273 311.560008 
L 493.895455 307.988899 
L 500.236364 302.372366 
L 501.504545 294.270308 
L 502.772727 283.359983 
L 505.309091 259.737014 
L 505.309091 251.815187 
L 506.577273 247.359684 
L 514.186364 243.201773 
L 515.454545 236.457742 
L 516.722727 225.52646 
L 517.990909 212.088696 
L 517.990909 197.636602 
L 519.259091 184.756299 
L 521.795455 174.034589 
L 523.063636 166.142103 
L 523.063636 160.55491 
L 524.331818 155.231778 
L 526.868182 149.543991 
L 529.404545 137.967227 
L 529.404545 131.08907 
L 530.672727 123.875597 
L 531.940909 118.560848 
L 531.940909 115.174163 
L 533.209091 113.376034 
L 533.209091 112.152133 
L 534.477273 110.018689 
L 535.745455 105.844012 
L 540.818182 100.730452 
L 542.086364 96.006696 
L 543.354545 90.515907 
L 544.622727 86.563376 
L 545.890909 83.968874 
L 547.159091 84.832311 
L 548.427273 85.238881 
L 549.695455 86.554994 
L 552.231818 87.208859 
L 554.768182 83.633558 
L 556.036364 82.56474 
L 557.304545 83.981448 
L 558.572727 86.722651 
L 559.840909 90.302143 
L 561.109091 94.703158 
L 562.377273 101.585506 
L 564.913636 114.147259 
L 566.181818 117.953089 
L 566.181818 121.197266 
L 567.45 121.314626 
L 569.986364 122.345721 
L 571.254545 124.571377 
L 572.522727 130.166952 
L 572.522727 136.31999 
L 575.059091 147.750054 
L 576.327273 152.222323 
L 578.863636 158.115491 
L 578.863636 164.712821 
L 580.131818 174.860304 
L 582.668182 192.665551 
L 583.936364 197.297095 
L 585.204545 202.62861 
L 586.472727 205.147667 
L 587.740909 210.860603 
L 589.009091 216.003503 
L 590.277273 224.055264 
L 591.545455 229.910709 
L 592.813636 237.67326 
L 594.081818 243.822107 
L 595.35 251.559509 
L 596.618182 257.880205 
L 597.886364 265.194272 
L 597.886364 274.98129 
L 599.154545 278.204509 
L 599.154545 281.666641 
L 600.422727 284.676096 
L 600.422727 287.614297 
L 601.690909 291.08062 
L 601.690909 294.651729 
L 602.959091 298.273136 
L 602.959091 300.95985 
L 604.227273 303.872903 
L 604.227273 306.241068 
L 606.763636 310.755251 
L 608.031818 313.915599 
L 609.3 317.612451 
L 613.104545 329.914335 
L 615.640909 337.215828 
L 618.177273 343.163485 
L 619.445455 345.695116 
L 623.25 347.94592 
L 624.518182 349.739858 
L 625.786364 351.093694 
L 627.054545 351.835579 
L 628.322727 352.015811 
L 629.590909 351.563135 
L 630.859091 350.716464 
L 635.931818 348.738103 
L 637.2 345.682541 
L 638.468182 341.34859 
L 639.736364 336.595494 
L 642.272727 330.794538 
L 643.540909 324.695989 
L 644.809091 320.072828 
L 647.345455 315.361647 
L 648.613636 310.273235 
L 649.881818 302.921445 
L 649.881818 296.055863 
L 651.15 288.100505 
L 651.15 281.884596 
L 652.418182 275.82377 
L 653.686364 272.1353 
L 657.490909 267.076229 
L 658.759091 262.92251 
L 661.295455 247.984209 
L 662.563636 237.46788 
L 663.831818 229.441267 
L 666.368182 219.872204 
L 667.636364 215.806505 
L 668.904545 211.212684 
L 668.904545 209.959443 
L 671.440909 197.313861 
L 673.977273 183.415038 
L 675.245455 175.929121 
L 677.781818 177.500912 
L 677.781818 191.215312 
L 679.05 202.272337 
L 681.586364 204.200401 
L 681.586364 195.633092 
L 682.854545 181.440868 
L 682.854545 157.319117 
L 684.122727 133.306343 
L 685.390909 118.439296 
L 686.659091 112.449725 
L 687.927273 107.302634 
L 687.927273 103.337529 
L 691.731818 90.327292 
L 693 87.50226 
L 695.536364 78.197257 
L 696.804545 76.596126 
L 698.072727 77.296097 
L 699.340909 76.713487 
L 700.609091 74.026772 
L 701.877273 74.42915 
L 704.413636 74.42915 
L 705.681818 75.020144 
L 706.95 74.961464 
L 710.754545 85.461027 
L 710.754545 101.10349 
L 712.022727 121.436178 
L 712.022727 140.029417 
L 713.290909 153.542627 
L 715.827273 154.368341 
L 717.095455 144.811852 
L 717.095455 132.300397 
L 718.363636 121.876279 
L 719.631818 117.144141 
L 720.9 116.364532 
L 722.168182 119.223096 
L 723.436364 121.70443 
L 725.972727 125.19171 
L 727.240909 132.178845 
L 728.509091 140.406646 
L 729.777273 150.097261 
L 732.313636 166.716331 
L 732.313636 172.479564 
L 733.581818 178.640985 
L 734.85 183.586887 
L 734.85 190.01656 
L 736.118182 195.289394 
L 737.386364 199.858066 
L 738.654545 203.978254 
L 738.654545 210.973772 
L 739.922727 214.196991 
L 739.922727 218.694409 
L 741.190909 223.543908 
L 741.190909 227.006039 
L 742.459091 230.107707 
L 742.459091 232.656104 
L 743.727273 235.548199 
L 743.727273 238.490592 
L 744.995455 242.682034 
L 744.995455 246.663905 
L 746.263636 250.582903 
L 746.263636 253.458233 
L 747.531818 256.400625 
L 747.531818 258.911299 
L 748.8 262.268645 
L 748.8 265.50863 
L 750.068182 269.830007 
L 750.068182 274.302276 
L 751.336364 279.139201 
L 756.409091 295.783419 
L 765.286364 301.77299 
L 766.554545 310.034323 
L 769.090909 329.31915 
L 770.359091 337.848735 
L 771.627273 343.917944 
L 772.895455 347.736348 
L 774.163636 349.479988 
L 775.431818 351.772707 
L 775.431818 354.62708 
L 776.7 357.146137 
L 785.577273 357.670067 
L 786.845455 355.947384 
L 788.113636 351.823005 
L 789.381818 347.082483 
L 794.454545 340.757597 
L 794.454545 334.851854 
L 795.722727 328.325778 
L 798.259091 322.000892 
L 798.259091 314.17966 
L 800.795455 299.744332 
L 803.331818 287.85321 
L 804.6 281.788192 
L 804.6 275.995619 
L 805.868182 270.328789 
L 807.136364 265.437375 
L 810.940909 260.223221 
L 812.209091 253.546253 
L 812.209091 244.924456 
L 813.477273 236.055364 
L 813.477273 227.903008 
L 814.745455 221.033234 
L 816.013636 216.242415 
L 817.281818 212.113844 
L 818.55 207.385897 
L 818.55 200.260445 
L 819.818182 194.094833 
L 819.818182 189.20342 
L 821.086364 185.42693 
L 822.354545 181.105553 
L 827.427273 174.835155 
L 828.695455 168.233633 
L 828.695455 161.305179 
L 831.231818 147.921903 
L 832.5 141.244935 
L 833.768182 135.234406 
L 836.304545 118.284213 
L 837.572727 112.001241 
L 838.840909 108.740299 
L 840.109091 103.899183 
L 842.645455 95.998313 
L 843.913636 92.129612 
L 845.181818 93.328365 
L 848.986364 97.201257 
L 848.986364 104.020734 
L 850.254545 104.368624 
L 851.522727 103.593207 
L 852.790909 97.976674 
L 855.327273 82.208468 
L 855.327273 81.617474 
L 856.595455 82.774312 
L 857.863636 83.503623 
L 860.4 82.832993 
L 861.668182 83.365306 
L 862.936364 83.315009 
L 865.472727 88.524972 
L 866.740909 94.589989 
L 868.009091 96.614455 
L 869.277273 101.531018 
L 870.545455 103.350104 
L 871.813636 109.037891 
L 871.813636 113.220951 
L 873.081818 119.545837 
L 874.35 122.404401 
L 875.618182 125.979701 
L 876.886364 128.192783 
L 879.422727 136.81458 
L 881.959091 149.003295 
L 881.959091 154.77072 
L 884.495455 166.024743 
L 885.763636 171.821508 
L 890.836364 180.216967 
L 890.836364 191.056037 
L 892.104545 202.444186 
L 892.104545 221.523633 
L 893.372727 227.693436 
L 893.372727 230.401108 
L 894.640909 231.277119 
L 894.640909 236.524805 
L 895.909091 239.655813 
L 895.909091 242.711374 
L 897.177273 245.213665 
L 897.177273 247.238132 
L 898.445455 250.038016 
L 898.445455 259.334635 
L 899.713636 263.777564 
L 899.713636 267.419928 
L 900.981818 269.46116 
L 900.981818 270.701827 
L 902.25 271.615562 
L 902.25 273.308904 
L 903.518182 276.154894 
L 903.518182 279.227221 
L 904.786364 282.65163 
L 904.786364 285.581448 
L 906.054545 289.986654 
L 906.054545 295.062491 
L 907.322727 300.557472 
L 909.859091 308.831379 
L 911.127273 311.857601 
L 913.663636 316.904097 
L 914.931818 320.693161 
L 917.468182 329.461659 
L 918.736364 333.573464 
L 918.736364 337.450548 
L 920.004545 340.895914 
L 933.954545 343.641309 
L 933.954545 343.641309 
" clip-path="url(#p76c8735f0c)" style="fill: none; stroke: #008000; stroke-width: 1.5; stroke-linecap: square"/>
   </g>
   <g id="patch_3">
    <path d="M 135 384.48 
L 135 51.84 
" style="fill: none; stroke: #000000; stroke-width: 0.8; stroke-linejoin: miter; stroke-linecap: square"/>
   </g>
   <g id="patch_4">
    <path d="M 972 384.48 
L 972 51.84 
" style="fill: none; stroke: #000000; stroke-width: 0.8; stroke-linejoin: miter; stroke-linecap: square"/>
   </g>
   <g id="patch_5">
    <path d="M 135 384.48 
L 972 384.48 
" style="fill: none; stroke: #000000; stroke-width: 0.8; stroke-linejoin: miter; stroke-linecap: square"/>
   </g>
   <g id="patch_6">
    <path d="M 135 51.84 
L 972 51.84 
" style="fill: none; stroke: #000000; stroke-width: 0.8; stroke-linejoin: miter; stroke-linecap: square"/>
   </g>
  </g>
  <g id="axes_2">
   <g id="matplotlib.axis_3">
    <g id="ytick_7">
     <g id="line2d_16">
      <path d="M 135 369.36 
L 972 369.36 
" clip-path="url(#p76c8735f0c)" style="fill: none; stroke: #b0b0b0; stroke-width: 0.8; stroke-linecap: square"/>
     </g>
     <g id="line2d_17">
      <defs>
       <path id="mb3c369552b" d="M 0 0 
L 3.5 0 
" style="stroke: #000000; stroke-width: 0.8"/>
      </defs>
      <g>
       <use xlink:href="#mb3c369552b" x="972" y="369.36" style="stroke: #000000; stroke-width: 0.8"/>
      </g>
     </g>
     <g id="text_15">
      <!-- 0 -->
      <g transform="translate(979 372.934219) scale(0.1 -0.1)">
       <use xlink:href="#Times New Roman-30"/>
      </g>
     </g>
    </g>
    <g id="ytick_8">
     <g id="line2d_18">
      <path d="M 135 319.528737 
L 972 319.528737 
" clip-path="url(#p76c8735f0c)" style="fill: none; stroke: #b0b0b0; stroke-width: 0.8; stroke-linecap: square"/>
     </g>
     <g id="line2d_19">
      <g>
       <use xlink:href="#mb3c369552b" x="972" y="319.528737" style="stroke: #000000; stroke-width: 0.8"/>
      </g>
     </g>
     <g id="text_16">
      <!-- 5 -->
      <g transform="translate(979 323.102956) scale(0.1 -0.1)">
       <use xlink:href="#Times New Roman-35"/>
      </g>
     </g>
    </g>
    <g id="ytick_9">
     <g id="line2d_20">
      <path d="M 135 269.697474 
L 972 269.697474 
" clip-path="url(#p76c8735f0c)" style="fill: none; stroke: #b0b0b0; stroke-width: 0.8; stroke-linecap: square"/>
     </g>
     <g id="line2d_21">
      <g>
       <use xlink:href="#mb3c369552b" x="972" y="269.697474" style="stroke: #000000; stroke-width: 0.8"/>
      </g>
     </g>
     <g id="text_17">
      <!-- 10 -->
      <g transform="translate(979 273.271693) scale(0.1 -0.1)">
       <use xlink:href="#Times New Roman-31"/>
       <use xlink:href="#Times New Roman-30" x="50"/>
      </g>
     </g>
    </g>
    <g id="ytick_10">
     <g id="line2d_22">
      <path d="M 135 219.866211 
L 972 219.866211 
" clip-path="url(#p76c8735f0c)" style="fill: none; stroke: #b0b0b0; stroke-width: 0.8; stroke-linecap: square"/>
     </g>
     <g id="line2d_23">
      <g>
       <use xlink:href="#mb3c369552b" x="972" y="219.866211" style="stroke: #000000; stroke-width: 0.8"/>
      </g>
     </g>
     <g id="text_18">
      <!-- 15 -->
      <g transform="translate(979 223.44043) scale(0.1 -0.1)">
       <use xlink:href="#Times New Roman-31"/>
       <use xlink:href="#Times New Roman-35" x="50"/>
      </g>
     </g>
    </g>
    <g id="ytick_11">
     <g id="line2d_24">
      <path d="M 135 170.034948 
L 972 170.034948 
" clip-path="url(#p76c8735f0c)" style="fill: none; stroke: #b0b0b0; stroke-width: 0.8; stroke-linecap: square"/>
     </g>
     <g id="line2d_25">
      <g>
       <use xlink:href="#mb3c369552b" x="972" y="170.034948" style="stroke: #000000; stroke-width: 0.8"/>
      </g>
     </g>
     <g id="text_19">
      <!-- 20 -->
      <g transform="translate(979 173.609167) scale(0.1 -0.1)">
       <use xlink:href="#Times New Roman-32"/>
       <use xlink:href="#Times New Roman-30" x="50"/>
      </g>
     </g>
    </g>
    <g id="ytick_12">
     <g id="line2d_26">
      <path d="M 135 120.203685 
L 972 120.203685 
" clip-path="url(#p76c8735f0c)" style="fill: none; stroke: #b0b0b0; stroke-width: 0.8; stroke-linecap: square"/>
     </g>
     <g id="line2d_27">
      <g>
       <use xlink:href="#mb3c369552b" x="972" y="120.203685" style="stroke: #000000; stroke-width: 0.8"/>
      </g>
     </g>
     <g id="text_20">
      <!-- 25 -->
      <g transform="translate(979 123.777903) scale(0.1 -0.1)">
       <use xlink:href="#Times New Roman-32"/>
       <use xlink:href="#Times New Roman-35" x="50"/>
      </g>
     </g>
    </g>
    <g id="ytick_13">
     <g id="line2d_28">
      <path d="M 135 70.372422 
L 972 70.372422 
" clip-path="url(#p76c8735f0c)" style="fill: none; stroke: #b0b0b0; stroke-width: 0.8; stroke-linecap: square"/>
     </g>
     <g id="line2d_29">
      <g>
       <use xlink:href="#mb3c369552b" x="972" y="70.372422" style="stroke: #000000; stroke-width: 0.8"/>
      </g>
     </g>
     <g id="text_21">
      <!-- 30 -->
      <g transform="translate(979 73.94664) scale(0.1 -0.1)">
       <use xlink:href="#Times New Roman-33"/>
       <use xlink:href="#Times New Roman-30" x="50"/>
      </g>
     </g>
    </g>
    <g id="text_22">
     <!-- buffer (s) -->
     <g transform="translate(1000.617188 243.16) rotate(-90) scale(0.1 -0.1)">
      <defs>
       <path id="Times New Roman-75" d="M 1450 325
Q 1750 325 1962 475 
Q 2175 625 2275 950 
L 2275 2525 
Q 2275 2625 2225 2687 
Q 2175 2750 2050 2750 
L 1900 2750 
L 1900 2900 
L 2050 2900 
Q 2200 2900 2325 2925 
Q 2450 2950 2575 3050 
L 2625 3050 
L 2625 600 
Q 2625 500 2687 450 
Q 2750 400 2850 400 
L 3000 400 
L 3000 250 
L 2850 250 
Q 2725 250 2600 212 
Q 2475 175 2325 100 
L 2275 100 
L 2275 625 
Q 2150 350 1900 212 
Q 1650 75 1325 75 
Q 925 75 725 300 
Q 525 525 525 1025 
L 525 2525 
Q 525 2625 475 2687 
Q 425 2750 300 2750 
L 150 2750 
L 150 2900 
L 300 2900 
Q 450 2900 575 2925 
Q 700 2950 825 3050 
L 875 3050 
L 875 975 
Q 875 625 1025 475 
Q 1175 325 1450 325 
z
" transform="scale(0.015625)"/>
       <path id="Times New Roman-66" d="M 1125 3325
Q 1125 3850 1450 4112 
Q 1775 4375 2175 4375 
Q 2600 4375 2812 4225 
Q 3025 4075 3025 3875 
Q 3025 3775 2975 3700 
Q 2925 3625 2775 3625 
Q 2675 3625 2612 3675 
Q 2550 3725 2550 3850 
Q 2550 3875 2575 3925 
Q 2575 3975 2575 4000 
Q 2575 4100 2500 4162 
Q 2425 4225 2150 4225 
Q 1850 4225 1662 4037 
Q 1475 3850 1475 3400 
L 1475 2900 
L 2525 2900 
L 2525 2750 
L 1475 2750 
L 1475 450 
Q 1475 350 1537 300 
Q 1600 250 1700 250 
L 2300 250 
L 2300 100 
L 475 100 
L 475 250 
L 900 250 
Q 1025 250 1075 300 
Q 1125 350 1125 450 
L 1125 2750 
L 350 2750 
L 350 2900 
L 1125 2900 
L 1125 3325 
z
" transform="scale(0.015625)"/>
      </defs>
      <use xlink:href="#Times New Roman-62"/>
      <use xlink:href="#Times New Roman-75" x="50"/>
      <use xlink:href="#Times New Roman-66" x="100"/>
      <use xlink:href="#Times New Roman-66" x="150"/>
      <use xlink:href="#Times New Roman-65" x="200"/>
      <use xlink:href="#Times New Roman-72" x="250"/>
      <use xlink:href="#Times New Roman-20" x="300"/>
      <use xlink:href="#Times New Roman-28" x="350"/>
      <use xlink:href="#Times New Roman-73" x="400"/>
      <use xlink:href="#Times New Roman-29" x="450"/>
     </g>
    </g>
   </g>
   <g id="line2d_30">
    <path d="M 173.045455 369.36 
L 174.313636 333.439961 
L 175.581818 304.891975 
L 176.85 247.757754 
L 178.118182 197.602102 
L 180.654545 156.178686 
L 180.654545 120.571385 
L 181.922727 107.330595 
L 181.922727 101.961911 
L 183.190909 97.892235 
L 185.727273 87.026252 
L 186.995455 76.338197 
L 188.263636 75.147908 
L 189.531818 75.217117 
L 192.068182 74.317385 
L 193.336364 74.132626 
L 194.604545 74.755519 
L 194.604545 75.0784 
L 195.872727 74.434551 
L 199.677273 73.137751 
L 200.945455 74.313051 
L 202.213636 74.456147 
L 203.481818 77.081156 
L 204.75 76.032414 
L 204.75 79.306242 
L 206.018182 79.080099 
L 207.286364 80.891094 
L 209.822727 83.915684 
L 211.090909 88.248778 
L 211.090909 92.26138 
L 212.359091 91.403337 
L 213.627273 88.819567 
L 216.163636 90.532255 
L 217.431818 92.151609 
L 218.7 95.199006 
L 219.968182 95.973356 
L 221.236364 94.294752 
L 222.504545 94.538729 
L 225.040909 92.882211 
L 225.040909 86.670867 
L 226.309091 84.904884 
L 228.845455 81.859639 
L 230.113636 83.250468 
L 231.381818 75.219445 
L 232.65 68.990538 
L 232.65 67.322871 
L 233.918182 68.572955 
L 235.186364 70.372422 
L 249.136364 70.372422 
L 249.136364 78.631489 
L 250.404545 78.631489 
L 250.404545 83.107072 
L 251.672727 74.848004 
L 251.672727 75.540102 
L 252.940909 71.06452 
L 252.940909 67.973133 
L 254.209091 67.281035 
L 255.477273 67.281035 
L 256.745455 170.034948 
L 258.013636 183.876962 
L 258.013636 283.539488 
L 259.281818 283.539488 
L 259.281818 280.771084 
L 260.55 189.413765 
L 260.55 174.922202 
L 261.818182 169.385395 
L 261.818182 244.634037 
L 263.086364 162.231472 
L 263.086364 238.631403 
L 264.354545 235.397173 
L 265.622727 311.331278 
L 266.890909 306.479933 
L 266.890909 245.308434 
L 268.159091 180.584152 
L 269.427273 173.478583 
L 269.427273 183.006507 
L 269.427273 181.389392 
L 270.695455 191.632485 
L 270.695455 238.74327 
L 271.963636 184.340143 
L 271.963636 232.671426 
L 273.231818 177.0478 
L 273.231818 226.599582 
L 274.5 195.215196 
L 274.5 245.987477 
L 275.768182 242.753247 
L 275.768182 237.242701 
L 275.768182 252.872556 
L 277.036364 215.318422 
L 277.036364 255.433699 
L 277.036364 236.569614 
L 278.304545 273.020157 
L 278.304545 220.266673 
L 279.572727 211.091393 
L 279.572727 209.474278 
L 280.840909 233.084807 
L 280.840909 236.895218 
L 282.109091 213.117132 
L 282.109091 224.485708 
L 283.377273 193.149457 
L 283.377273 212.076198 
L 284.645455 208.841968 
L 285.913636 233.709759 
L 292.254545 209.453034 
L 321.422727 261.138241 
L 323.959091 369.36 
L 323.959091 369.36 
L 493.895455 369.36 
L 500.236364 346.289494 
L 501.504545 326.3099 
L 502.772727 309.421216 
L 504.040909 318.693949 
L 505.309091 338.673543 
L 505.309091 355.562227 
L 506.577273 369.36 
L 514.186364 369.36 
L 515.454545 355.794819 
L 516.722727 336.13915 
L 517.990909 314.264949 
L 517.990909 303.879167 
L 519.259091 299.449723 
L 521.795455 295.162507 
L 523.063636 289.629969 
L 523.063636 272.532758 
L 524.331818 263.258605 
L 526.868182 252.176451 
L 528.136364 251.274427 
L 529.404545 238.124512 
L 529.404545 231.207773 
L 530.672727 219.198708 
L 531.940909 214.557585 
L 531.940909 162.377452 
L 533.209091 160.267633 
L 533.209091 116.251921 
L 534.477273 140.093721 
L 535.745455 141.897822 
L 540.818182 188.89016 
L 542.086364 213.080156 
L 543.354545 213.080156 
L 544.622727 205.747343 
L 545.890909 196.473193 
L 547.159091 185.537999 
L 548.427273 170.727038 
L 550.963636 136.118521 
L 552.231818 122.276506 
L 556.036364 89.747259 
L 558.572727 69.86284 
L 559.840909 66.96 
L 561.109091 67.188755 
L 562.377273 70.372422 
L 566.181818 70.372422 
L 566.181818 68.897074 
L 569.986364 68.897074 
L 571.254545 70.372422 
L 608.031818 70.372422 
L 609.3 75.229015 
L 610.568182 75.671979 
L 611.836364 75.671979 
L 613.104545 70.815385 
L 614.372727 70.372422 
L 619.445455 70.372422 
L 623.25 83.700305 
L 624.518182 93.607231 
L 625.786364 100.093202 
L 628.322727 79.567466 
L 629.590909 73.081495 
L 630.859091 70.01648 
L 635.931818 88.158429 
L 637.2 103.105841 
L 638.468182 115.214658 
L 639.736364 106.698874 
L 642.272727 111.545545 
L 643.540909 117.708188 
L 644.809091 125.186804 
L 647.345455 126.432584 
L 648.613636 128.785724 
L 649.881818 135.220504 
L 649.881818 139.794522 
L 651.15 140.486625 
L 651.15 141.530635 
L 652.418182 138.75813 
L 653.686364 138.896548 
L 657.490909 141.243831 
L 658.759091 143.452987 
L 660.027273 148.993896 
L 661.295455 149.419118 
L 662.563636 146.792652 
L 663.831818 147.895911 
L 666.368182 147.887709 
L 667.636364 149.964011 
L 668.904545 143.043004 
L 668.904545 137.642408 
L 670.172727 131.690339 
L 672.709091 121.657087 
L 673.977273 117.502274 
L 675.245455 117.705486 
L 677.781818 116.182862 
L 677.781818 114.662448 
L 681.586364 110.652683 
L 681.586364 112.313726 
L 682.854545 111.067946 
L 682.854545 108.022702 
L 684.122727 101.932214 
L 685.390909 106.084819 
L 686.659091 110.652686 
L 687.927273 112.728989 
L 687.927273 118.50803 
L 689.195455 125.221408 
L 690.463636 132.869122 
L 691.731818 124.875358 
L 694.268182 145.984434 
L 695.536364 155.293191 
L 696.804545 144.807863 
L 698.072727 149.92941 
L 699.340909 156.123713 
L 700.609091 163.390771 
L 701.877273 156.123711 
L 704.413636 155.52389 
L 705.681818 159.791846 
L 706.95 168.927577 
L 710.754545 174.372105 
L 710.754545 172.203521 
L 712.022727 169.997601 
L 712.022727 167.413757 
L 713.290909 164.068602 
L 715.827273 160.253245 
L 717.095455 154.947139 
L 717.095455 159.212611 
L 718.363636 159.788119 
L 719.631818 159.926537 
L 720.9 161.220942 
L 722.168182 163.113927 
L 723.436364 165.60549 
L 725.972727 165.719326 
L 727.240909 167.330502 
L 728.509091 170.306536 
L 729.777273 171.346203 
L 731.045455 173.63421 
L 732.313636 181.08583 
L 732.313636 179.702325 
L 733.581818 181.109248 
L 734.85 173.173157 
L 734.85 190.025117 
L 737.386364 208.031276 
L 738.654545 219.665492 
L 738.654545 212.398433 
L 738.654545 269.808204 
L 739.922727 265.766335 
L 739.922727 313.100101 
L 741.190909 266.507867 
L 741.190909 293.751998 
L 742.459091 256.82743 
L 742.459091 286.51673 
L 743.727273 247.146993 
L 743.727273 279.281463 
L 744.995455 281.013542 
L 744.995455 315.593181 
L 746.263636 311.087378 
L 746.263636 304.565201 
L 747.531818 293.53722 
L 748.8 276.555651 
L 748.8 282.509239 
L 750.068182 259.289787 
L 750.068182 271.481258 
L 751.336364 268.287859 
L 752.604545 285.120512 
L 756.409091 270.750217 
L 765.286364 302.023446 
L 767.822727 369.36 
L 798.259091 369.36 
L 798.259091 355.654449 
L 800.795455 325.892869 
L 802.063636 324.925876 
L 803.331818 326.725338 
L 804.6 326.311315 
L 804.6 323.542089 
L 805.868182 321.048876 
L 807.136364 321.600083 
L 810.940909 339.041852 
L 812.209091 355.72561 
L 813.477273 339.115186 
L 813.477273 324.119663 
L 814.745455 320.774509 
L 816.013636 318.421367 
L 817.281818 333.416889 
L 818.55 350.396434 
L 818.55 369.36 
L 819.818182 353.995357 
L 819.818182 353.995357 
L 821.086364 353.995357 
L 822.354545 369.36 
L 933.954545 369.36 
L 933.954545 369.36 
" clip-path="url(#p76c8735f0c)" style="fill: none; stroke: #1f77b4; stroke-width: 1.5; stroke-linecap: square"/>
   </g>
   <g id="patch_7">
    <path d="M 135 384.48 
L 135 51.84 
" style="fill: none; stroke: #000000; stroke-width: 0.8; stroke-linejoin: miter; stroke-linecap: square"/>
   </g>
   <g id="patch_8">
    <path d="M 972 384.48 
L 972 51.84 
" style="fill: none; stroke: #000000; stroke-width: 0.8; stroke-linejoin: miter; stroke-linecap: square"/>
   </g>
   <g id="patch_9">
    <path d="M 135 384.48 
L 972 384.48 
" style="fill: none; stroke: #000000; stroke-width: 0.8; stroke-linejoin: miter; stroke-linecap: square"/>
   </g>
   <g id="patch_10">
    <path d="M 135 51.84 
L 972 51.84 
" style="fill: none; stroke: #000000; stroke-width: 0.8; stroke-linejoin: miter; stroke-linecap: square"/>
   </g>
   <g id="text_23">
    <!-- ./comyco/log_comyco_3_wave -->
    <g transform="translate(475.5 45.84) scale(0.12 -0.12)">
     <defs>
      <path id="Times New Roman-2e" d="M 800 25
Q 650 25 537 125 
Q 425 225 425 400 
Q 425 575 537 675 
Q 650 775 800 775 
Q 950 775 1062 662 
Q 1175 550 1175 400 
Q 1175 225 1062 125 
Q 950 25 800 25 
z
" transform="scale(0.015625)"/>
      <path id="Times New Roman-2f" d="M 400 -475
L 225 -375 
L 2775 4975 
L 2950 4875 
L 400 -475 
z
" transform="scale(0.015625)"/>
      <path id="Times New Roman-63" d="M 2150 2225
Q 2150 2300 2175 2325 
Q 2175 2350 2200 2425 
Q 2225 2525 2100 2662 
Q 1975 2800 1675 2800 
Q 1300 2800 1037 2437 
Q 775 2075 775 1475 
Q 775 925 1000 587 
Q 1225 250 1750 250 
Q 2100 250 2337 475 
Q 2575 700 2675 1000 
L 2800 950 
Q 2700 575 2425 312 
Q 2150 50 1675 50 
Q 1075 50 725 425 
Q 375 800 375 1500 
Q 375 2125 750 2537 
Q 1125 2950 1725 2950 
Q 2150 2950 2387 2725 
Q 2625 2500 2625 2275 
Q 2625 2125 2562 2062 
Q 2500 2000 2375 2000 
Q 2275 2000 2212 2062 
Q 2150 2125 2150 2225 
z
" transform="scale(0.015625)"/>
      <path id="Times New Roman-6f" d="M 2900 1500
Q 2900 875 2525 462 
Q 2150 50 1600 50 
Q 1025 50 662 475 
Q 300 900 300 1500 
Q 300 2050 662 2500 
Q 1025 2950 1600 2950 
Q 2200 2950 2550 2500 
Q 2900 2050 2900 1500 
z
M 700 1475 
Q 700 825 962 512 
Q 1225 200 1600 200 
Q 2025 200 2262 537 
Q 2500 875 2500 1475 
Q 2500 2125 2237 2462 
Q 1975 2800 1600 2800 
Q 1250 2800 975 2462 
Q 700 2125 700 1475 
z
" transform="scale(0.015625)"/>
      <path id="Times New Roman-6d" d="M 175 2900
Q 300 2900 425 2925 
Q 550 2950 625 3000 
L 675 3000 
L 675 2575 
Q 800 2775 950 2862 
Q 1100 2950 1275 2950 
Q 1500 2950 1625 2862 
Q 1750 2775 1775 2575 
Q 1900 2775 2062 2862 
Q 2225 2950 2400 2950 
Q 2700 2950 2812 2775 
Q 2925 2600 2925 2325 
L 2925 425 
Q 2925 325 2975 287 
Q 3025 250 3125 250 
L 3175 250 
L 3175 100 
L 2325 100 
L 2325 250 
L 2375 250 
Q 2475 250 2525 287 
Q 2575 325 2575 425 
L 2575 2300 
Q 2575 2575 2512 2662 
Q 2450 2750 2325 2750 
Q 2150 2750 2012 2625 
Q 1875 2500 1800 2275 
L 1800 425 
Q 1800 325 1850 287 
Q 1900 250 2000 250 
L 2050 250 
L 2050 100 
L 1200 100 
L 1200 250 
L 1250 250 
Q 1350 250 1400 287 
Q 1450 325 1450 425 
L 1450 2300 
Q 1450 2525 1400 2637 
Q 1350 2750 1200 2750 
Q 1025 2750 887 2625 
Q 750 2500 675 2250 
L 675 425 
Q 675 325 725 287 
Q 775 250 875 250 
L 925 250 
L 925 100 
L 75 100 
L 75 250 
L 125 250 
Q 225 250 275 287 
Q 325 325 325 425 
L 325 2600 
Q 325 2675 300 2712 
Q 275 2750 200 2750 
L 100 2750 
L 100 2900 
L 175 2900 
z
" transform="scale(0.015625)"/>
      <path id="Times New Roman-79" d="M 1650 800
L 1700 800 
L 2250 2475 
Q 2300 2600 2237 2675 
Q 2175 2750 2075 2750 
L 1925 2750 
L 1925 2900 
L 2975 2900 
L 2975 2750 
L 2825 2750 
Q 2725 2750 2625 2675 
Q 2525 2600 2475 2475 
L 1625 0 
Q 1500 -375 1312 -587 
Q 1125 -800 825 -800 
Q 650 -800 550 -737 
Q 450 -675 450 -550 
Q 450 -475 512 -400 
Q 575 -325 700 -325 
Q 800 -325 900 -425 
Q 1000 -500 1050 -500 
Q 1125 -500 1175 -475 
Q 1225 -450 1250 -375 
Q 1325 -250 1400 -62 
Q 1475 125 1525 325 
L 675 2525 
Q 650 2625 562 2687 
Q 475 2750 375 2750 
L 275 2750 
L 275 2900 
L 1325 2900 
L 1325 2750 
L 1225 2750 
Q 1125 2750 1075 2687 
Q 1025 2625 1050 2500 
L 1650 800 
z
M 950 2750 
L 950 2750 
z
M 600 2750 
L 600 2750 
z
M 2575 2750 
L 2575 2750 
z
M 2325 2750 
L 2325 2750 
z
" transform="scale(0.015625)"/>
      <path id="Times New Roman-6c" d="M 925 4375
Q 1150 4375 1350 4425 
Q 1550 4475 1725 4575 
L 1775 4575 
L 1775 450 
Q 1775 350 1837 300 
Q 1900 250 2000 250 
L 2575 250 
L 2575 100 
L 625 100 
L 625 250 
L 1200 250 
Q 1325 250 1375 300 
Q 1425 350 1425 450 
L 1425 4025 
Q 1425 4125 1375 4175 
Q 1325 4225 1200 4225 
L 650 4225 
L 650 4375 
L 925 4375 
z
" transform="scale(0.015625)"/>
      <path id="Times New Roman-67" d="M 875 1975
Q 875 1675 1050 1462 
Q 1225 1250 1525 1250 
Q 1850 1250 2012 1437 
Q 2175 1625 2175 1975 
Q 2175 2400 1987 2587 
Q 1800 2775 1525 2775 
Q 1250 2775 1062 2587 
Q 875 2400 875 1975 
z
M 2100 625 
Q 2475 575 2650 412 
Q 2825 250 2825 -25 
Q 2825 -400 2512 -625 
Q 2200 -850 1525 -850 
Q 1000 -850 675 -637 
Q 350 -425 350 -150 
Q 350 25 475 200 
Q 600 375 875 475 
Q 725 550 637 637 
Q 550 725 550 850 
Q 550 1000 650 1112 
Q 750 1225 900 1300 
Q 750 1425 637 1600 
Q 525 1775 525 1975 
Q 525 2350 787 2637 
Q 1050 2925 1525 2925 
Q 1725 2925 1912 2875 
Q 2100 2825 2225 2700 
Q 2400 2825 2537 2887 
Q 2675 2950 2775 2950 
Q 2900 2950 2950 2862 
Q 3000 2775 3000 2700 
Q 3000 2600 2962 2537 
Q 2925 2475 2825 2475 
Q 2750 2475 2700 2512 
Q 2650 2550 2625 2625 
Q 2600 2700 2512 2687 
Q 2425 2675 2325 2600 
Q 2425 2500 2475 2325 
Q 2525 2150 2525 1975 
Q 2525 1675 2287 1387 
Q 2050 1100 1525 1100 
Q 1375 1100 1250 1137 
Q 1125 1175 1050 1225 
Q 950 1175 900 1100 
Q 850 1025 850 975 
Q 850 875 900 825 
Q 950 775 1050 775 
Q 1375 725 1637 687 
Q 1900 650 2100 625 
z
M 1075 425 
Q 850 325 762 187 
Q 675 50 675 -150 
Q 675 -350 900 -525 
Q 1125 -700 1575 -700 
Q 2000 -700 2250 -562 
Q 2500 -425 2500 -150 
Q 2500 25 2437 125 
Q 2375 225 2250 250 
Q 2000 300 1700 350 
Q 1400 375 1075 425 
z
" transform="scale(0.015625)"/>
      <path id="Times New Roman-5f" d="M 0 -875
L 0 -725 
L 3175 -725 
L 3175 -875 
L 0 -875 
z
" transform="scale(0.015625)"/>
      <path id="Times New Roman-77" d="M 2325 2900
L 3175 2900 
L 3175 2750 
L 3075 2750 
Q 2975 2750 2900 2675 
Q 2825 2600 2775 2425 
L 2175 75 
L 2025 75 
L 1575 1975 
L 1100 75 
L 950 75 
L 375 2375 
Q 350 2550 275 2650 
Q 200 2750 125 2750 
L 25 2750 
L 25 2900 
L 925 2900 
L 925 2750 
L 825 2750 
Q 725 2750 700 2662 
Q 675 2575 700 2425 
L 1075 800 
L 1125 800 
L 1500 2300 
Q 1475 2525 1400 2637 
Q 1325 2750 1225 2750 
L 1150 2750 
L 1150 2900 
L 2000 2900 
L 2000 2750 
L 1925 2750 
Q 1825 2750 1800 2662 
Q 1775 2575 1800 2425 
L 2175 800 
L 2200 800 
L 2625 2550 
Q 2650 2650 2600 2700 
Q 2550 2750 2450 2750 
L 2325 2750 
L 2325 2900 
z
M 1725 2750 
L 1725 2750 
z
M 625 2750 
L 625 2750 
z
M 275 2750 
L 275 2750 
z
M 2875 2750 
L 2875 2750 
z
M 2675 2750 
L 2675 2750 
z
" transform="scale(0.015625)"/>
      <path id="Times New Roman-76" d="M 1625 75
L 1475 75 
L 625 2525 
Q 600 2625 525 2687 
Q 450 2750 350 2750 
L 225 2750 
L 225 2900 
L 1300 2900 
L 1300 2750 
L 1200 2750 
Q 1050 2750 1025 2700 
Q 1000 2650 1000 2600 
Q 1000 2500 1025 2425 
L 1625 675 
L 1675 675 
L 2275 2400 
Q 2325 2525 2325 2575 
Q 2325 2600 2275 2675 
Q 2225 2750 2075 2750 
L 2025 2750 
L 2025 2900 
L 2925 2900 
L 2925 2750 
L 2875 2750 
Q 2725 2750 2637 2662 
Q 2550 2575 2475 2400 
L 1625 75 
z
M 2600 2750 
L 2600 2750 
z
M 2400 2750 
L 2400 2750 
z
M 925 2750 
L 925 2750 
z
M 550 2750 
L 550 2750 
z
" transform="scale(0.015625)"/>
     </defs>
     <use xlink:href="#Times New Roman-2e"/>
     <use xlink:href="#Times New Roman-2f" x="50"/>
     <use xlink:href="#Times New Roman-63" x="100"/>
     <use xlink:href="#Times New Roman-6f" x="150"/>
     <use xlink:href="#Times New Roman-6d" x="200"/>
     <use xlink:href="#Times New Roman-79" x="250"/>
     <use xlink:href="#Times New Roman-63" x="300"/>
     <use xlink:href="#Times New Roman-6f" x="350"/>
     <use xlink:href="#Times New Roman-2f" x="400"/>
     <use xlink:href="#Times New Roman-6c" x="450"/>
     <use xlink:href="#Times New Roman-6f" x="500"/>
     <use xlink:href="#Times New Roman-67" x="550"/>
     <use xlink:href="#Times New Roman-5f" x="600"/>
     <use xlink:href="#Times New Roman-63" x="650"/>
     <use xlink:href="#Times New Roman-6f" x="700"/>
     <use xlink:href="#Times New Roman-6d" x="750"/>
     <use xlink:href="#Times New Roman-79" x="800"/>
     <use xlink:href="#Times New Roman-63" x="850"/>
     <use xlink:href="#Times New Roman-6f" x="900"/>
     <use xlink:href="#Times New Roman-5f" x="950"/>
     <use xlink:href="#Times New Roman-33" x="1000"/>
     <use xlink:href="#Times New Roman-5f" x="1050"/>
     <use xlink:href="#Times New Roman-77" x="1100"/>
     <use xlink:href="#Times New Roman-61" x="1150"/>
     <use xlink:href="#Times New Roman-76" x="1200"/>
     <use xlink:href="#Times New Roman-65" x="1250"/>
    </g>
   </g>
   <g id="legend_1">
    <g id="patch_11">
     <path d="M 903 73.2775 
L 965 73.2775 
Q 967 73.2775 967 71.2775 
L 967 58.84 
Q 967 56.84 965 56.84 
L 903 56.84 
Q 901 56.84 901 58.84 
L 901 71.2775 
Q 901 73.2775 903 73.2775 
z
" style="fill: #ffffff; opacity: 0.8; stroke: #cccccc; stroke-linejoin: miter"/>
    </g>
    <g id="line2d_31">
     <path d="M 905 64.488437 
L 915 64.488437 
L 925 64.488437 
" style="fill: none; stroke: #1f77b4; stroke-width: 1.5; stroke-linecap: square"/>
    </g>
    <g id="text_24">
     <!-- buffer -->
     <g transform="translate(933 67.988437) scale(0.1 -0.1)">
      <use xlink:href="#Times New Roman-62"/>
      <use xlink:href="#Times New Roman-75" x="50"/>
      <use xlink:href="#Times New Roman-66" x="100"/>
      <use xlink:href="#Times New Roman-66" x="150"/>
      <use xlink:href="#Times New Roman-65" x="200"/>
      <use xlink:href="#Times New Roman-72" x="250"/>
     </g>
    </g>
   </g>
  </g>
 </g>
 <defs>
  <clipPath id="p76c8735f0c">
   <rect x="135" y="51.84" width="837" height="332.64"/>
  </clipPath>
 </defs>
</svg>
