<?xml version="1.0" encoding="utf-8" standalone="no"?>
<!DOCTYPE svg PUBLIC "-//W3C//DTD SVG 1.1//EN"
  "http://www.w3.org/Graphics/SVG/1.1/DTD/svg11.dtd">
<svg xmlns:xlink="http://www.w3.org/1999/xlink" width="1080pt" height="432pt" viewBox="0 0 1080 432" xmlns="http://www.w3.org/2000/svg" version="1.1">
 <metadata>
  <rdf:RDF xmlns:dc="http://purl.org/dc/elements/1.1/" xmlns:cc="http://creativecommons.org/ns#" xmlns:rdf="http://www.w3.org/1999/02/22-rdf-syntax-ns#">
   <cc:Work>
    <dc:type rdf:resource="http://purl.org/dc/dcmitype/StillImage"/>
    <dc:date>2024-04-12T06:21:52.191155</dc:date>
    <dc:format>image/svg+xml</dc:format>
    <dc:creator>
     <cc:Agent>
      <dc:title>Matplotlib v3.8.3, https://matplotlib.org/</dc:title>
     </cc:Agent>
    </dc:creator>
   </cc:Work>
  </rdf:RDF>
 </metadata>
 <defs>
  <style type="text/css">*{stroke-linejoin: round; stroke-linecap: butt}</style>
 </defs>
 <g id="figure_1">
  <g id="patch_1">
   <path d="M 0 432 
L 1080 432 
L 1080 0 
L 0 0 
z
" style="fill: #ffffff"/>
  </g>
  <g id="axes_1">
   <g id="patch_2">
    <path d="M 135 384.48 
L 972 384.48 
L 972 51.84 
L 135 51.84 
z
" style="fill: #ffffff"/>
   </g>
   <g id="matplotlib.axis_1">
    <g id="xtick_1">
     <g id="line2d_1">
      <defs>
       <path id="m504ab362f1" d="M 0 0 
L 0 3.5 
" style="stroke: #000000; stroke-width: 0.8"/>
      </defs>
      <g>
       <use xlink:href="#m504ab362f1" x="173.045455" y="384.48" style="stroke: #000000; stroke-width: 0.8"/>
      </g>
     </g>
     <g id="text_1">
      <!-- 0 -->
      <g transform="translate(170.545455 398.628438) scale(0.1 -0.1)">
       <defs>
        <path id="Times New Roman-30" d="M 1600 4225
Q 1250 4225 1012 3687 
Q 775 3150 775 2250 
Q 775 1300 1012 775 
Q 1250 250 1600 250 
Q 1975 250 2187 775 
Q 2400 1300 2400 2250 
Q 2400 3150 2200 3687 
Q 2000 4225 1600 4225 
z
M 1600 50 
Q 1050 50 675 625 
Q 300 1200 300 2250 
Q 300 3225 662 3825 
Q 1025 4425 1600 4425 
Q 2150 4425 2512 3850 
Q 2875 3275 2875 2250 
Q 2875 1225 2512 637 
Q 2150 50 1600 50 
z
" transform="scale(0.015625)"/>
       </defs>
       <use xlink:href="#Times New Roman-30"/>
      </g>
     </g>
    </g>
    <g id="xtick_2">
     <g id="line2d_2">
      <g>
       <use xlink:href="#m504ab362f1" x="301.577396" y="384.48" style="stroke: #000000; stroke-width: 0.8"/>
      </g>
     </g>
     <g id="text_2">
      <!-- 100 -->
      <g transform="translate(294.077396 398.628438) scale(0.1 -0.1)">
       <defs>
        <path id="Times New Roman-31" d="M 1825 4450
L 1825 650 
Q 1825 450 1950 350 
Q 2075 250 2300 250 
L 2550 250 
L 2550 100 
L 725 100 
L 725 250 
L 950 250 
Q 1200 250 1312 350 
Q 1425 450 1425 650 
L 1425 3675 
Q 1425 3775 1362 3837 
Q 1300 3900 1175 3900 
L 725 3900 
L 725 4050 
L 950 4050 
Q 1250 4050 1437 4150 
Q 1625 4250 1725 4450 
L 1825 4450 
z
" transform="scale(0.015625)"/>
       </defs>
       <use xlink:href="#Times New Roman-31"/>
       <use xlink:href="#Times New Roman-30" x="50"/>
       <use xlink:href="#Times New Roman-30" x="100"/>
      </g>
     </g>
    </g>
    <g id="xtick_3">
     <g id="line2d_3">
      <g>
       <use xlink:href="#m504ab362f1" x="430.109337" y="384.48" style="stroke: #000000; stroke-width: 0.8"/>
      </g>
     </g>
     <g id="text_3">
      <!-- 200 -->
      <g transform="translate(422.609337 398.628438) scale(0.1 -0.1)">
       <defs>
        <path id="Times New Roman-32" d="M 2325 3325
Q 2325 3775 2125 4012 
Q 1925 4250 1525 4250 
Q 1225 4250 1012 4087 
Q 800 3925 800 3675 
Q 800 3525 900 3425 
Q 975 3325 975 3225 
Q 975 3100 912 3037 
Q 850 2975 725 2975 
Q 575 2975 487 3062 
Q 400 3150 400 3350 
Q 400 3875 775 4150 
Q 1150 4425 1575 4425 
Q 2175 4425 2462 4125 
Q 2750 3825 2750 3375 
Q 2750 3075 2612 2775 
Q 2475 2475 2175 2200 
Q 1450 1500 1062 1062 
Q 675 625 600 475 
L 2075 475 
Q 2300 475 2450 650 
Q 2600 825 2650 1175 
L 2800 1175 
L 2650 100 
L 325 100 
L 325 425 
Q 450 650 737 1000 
Q 1025 1350 1500 1825 
Q 1925 2250 2125 2625 
Q 2325 3000 2325 3325 
z
" transform="scale(0.015625)"/>
       </defs>
       <use xlink:href="#Times New Roman-32"/>
       <use xlink:href="#Times New Roman-30" x="50"/>
       <use xlink:href="#Times New Roman-30" x="100"/>
      </g>
     </g>
    </g>
    <g id="xtick_4">
     <g id="line2d_4">
      <g>
       <use xlink:href="#m504ab362f1" x="558.641278" y="384.48" style="stroke: #000000; stroke-width: 0.8"/>
      </g>
     </g>
     <g id="text_4">
      <!-- 300 -->
      <g transform="translate(551.141278 398.628438) scale(0.1 -0.1)">
       <defs>
        <path id="Times New Roman-33" d="M 2800 1250
Q 2800 775 2450 412 
Q 2100 50 1475 50 
Q 1025 50 700 300 
Q 375 550 375 875 
Q 375 1025 475 1137 
Q 575 1250 675 1250 
Q 825 1250 887 1137 
Q 950 1025 950 950 
Q 950 825 900 750 
Q 850 650 850 575 
Q 850 425 1037 325 
Q 1225 225 1450 225 
Q 1900 225 2125 487 
Q 2350 750 2350 1300 
Q 2350 1750 2112 2025 
Q 1875 2300 1225 2300 
L 1225 2475 
Q 1725 2475 1962 2712 
Q 2200 2950 2200 3375 
Q 2200 3725 2012 3987 
Q 1825 4250 1425 4250 
Q 1250 4250 1050 4162 
Q 850 4075 850 3875 
Q 850 3675 900 3625 
Q 950 3575 950 3500 
Q 950 3375 900 3300 
Q 850 3225 725 3225 
Q 625 3225 537 3300 
Q 450 3375 450 3575 
Q 450 3950 775 4187 
Q 1100 4425 1525 4425 
Q 2025 4425 2325 4112 
Q 2625 3800 2625 3450 
Q 2625 3075 2437 2812 
Q 2250 2550 1850 2425 
Q 2400 2225 2600 1900 
Q 2800 1575 2800 1250 
z
" transform="scale(0.015625)"/>
       </defs>
       <use xlink:href="#Times New Roman-33"/>
       <use xlink:href="#Times New Roman-30" x="50"/>
       <use xlink:href="#Times New Roman-30" x="100"/>
      </g>
     </g>
    </g>
    <g id="xtick_5">
     <g id="line2d_5">
      <g>
       <use xlink:href="#m504ab362f1" x="687.173219" y="384.48" style="stroke: #000000; stroke-width: 0.8"/>
      </g>
     </g>
     <g id="text_5">
      <!-- 400 -->
      <g transform="translate(679.673219 398.628438) scale(0.1 -0.1)">
       <defs>
        <path id="Times New Roman-34" d="M 2300 575
Q 2300 400 2400 325 
Q 2500 250 2675 250 
L 2900 250 
L 2900 100 
L 1250 100 
L 1250 250 
L 1525 250 
Q 1725 250 1812 325 
Q 1900 400 1900 575 
L 1900 1400 
L 225 1400 
L 225 1525 
L 2050 4425 
L 2300 4425 
L 2300 1550 
L 2975 1550 
L 2975 1400 
L 2300 1400 
L 2300 575 
z
M 1875 3800 
L 450 1550 
L 1900 1550 
L 1900 3800 
L 1875 3800 
z
" transform="scale(0.015625)"/>
       </defs>
       <use xlink:href="#Times New Roman-34"/>
       <use xlink:href="#Times New Roman-30" x="50"/>
       <use xlink:href="#Times New Roman-30" x="100"/>
      </g>
     </g>
    </g>
    <g id="xtick_6">
     <g id="line2d_6">
      <g>
       <use xlink:href="#m504ab362f1" x="815.70516" y="384.48" style="stroke: #000000; stroke-width: 0.8"/>
      </g>
     </g>
     <g id="text_6">
      <!-- 500 -->
      <g transform="translate(808.20516 398.628438) scale(0.1 -0.1)">
       <defs>
        <path id="Times New Roman-35" d="M 1725 2850
Q 2200 2850 2500 2487 
Q 2800 2125 2800 1525 
Q 2800 850 2487 450 
Q 2175 50 1525 50 
Q 1075 50 725 312 
Q 375 575 375 950 
Q 375 1100 462 1212 
Q 550 1325 700 1325 
Q 850 1325 900 1225 
Q 950 1125 950 1050 
Q 950 900 875 825 
Q 800 725 800 625 
Q 800 425 1037 325 
Q 1275 225 1550 225 
Q 1950 225 2162 550 
Q 2375 875 2375 1475 
Q 2375 1975 2187 2287 
Q 2000 2600 1625 2600 
Q 1350 2600 1150 2500 
Q 950 2400 775 2075 
L 550 2100 
L 675 4375 
L 2725 4375 
L 2650 4000 
L 850 4000 
L 750 2350 
Q 1000 2700 1237 2775 
Q 1475 2850 1725 2850 
z
" transform="scale(0.015625)"/>
       </defs>
       <use xlink:href="#Times New Roman-35"/>
       <use xlink:href="#Times New Roman-30" x="50"/>
       <use xlink:href="#Times New Roman-30" x="100"/>
      </g>
     </g>
    </g>
    <g id="xtick_7">
     <g id="line2d_7">
      <g>
       <use xlink:href="#m504ab362f1" x="944.237101" y="384.48" style="stroke: #000000; stroke-width: 0.8"/>
      </g>
     </g>
     <g id="text_7">
      <!-- 600 -->
      <g transform="translate(936.737101 398.628438) scale(0.1 -0.1)">
       <defs>
        <path id="Times New Roman-36" d="M 775 1800
Q 775 1050 1037 637 
Q 1300 225 1675 225 
Q 2050 225 2250 500 
Q 2450 775 2450 1525 
Q 2450 2025 2237 2300 
Q 2025 2575 1725 2575 
Q 1450 2575 1212 2412 
Q 975 2250 775 1800 
z
M 1750 2825 
Q 2350 2825 2612 2425 
Q 2875 2025 2875 1525 
Q 2875 775 2512 412 
Q 2150 50 1675 50 
Q 1000 50 650 562 
Q 300 1075 300 2050 
Q 300 3200 725 3812 
Q 1150 4425 1875 4425 
Q 2225 4425 2437 4225 
Q 2650 4025 2650 3875 
Q 2650 3725 2587 3650 
Q 2525 3575 2375 3575 
Q 2250 3575 2187 3637 
Q 2125 3700 2125 3825 
Q 2125 3875 2150 3925 
Q 2150 3975 2150 4025 
Q 2150 4125 2075 4187 
Q 2000 4250 1800 4250 
Q 1375 4250 1075 3862 
Q 775 3475 775 2175 
Q 925 2500 1187 2662 
Q 1450 2825 1750 2825 
z
" transform="scale(0.015625)"/>
       </defs>
       <use xlink:href="#Times New Roman-36"/>
       <use xlink:href="#Times New Roman-30" x="50"/>
       <use xlink:href="#Times New Roman-30" x="100"/>
      </g>
     </g>
    </g>
   </g>
   <g id="matplotlib.axis_2">
    <g id="ytick_1">
     <g id="line2d_8">
      <defs>
       <path id="m64b0e36685" d="M 0 0 
L -3.5 0 
" style="stroke: #000000; stroke-width: 0.8"/>
      </defs>
      <g>
       <use xlink:href="#m64b0e36685" x="135" y="378.143695" style="stroke: #000000; stroke-width: 0.8"/>
      </g>
     </g>
     <g id="text_8">
      <!-- 0 -->
      <g transform="translate(123 381.717914) scale(0.1 -0.1)">
       <use xlink:href="#Times New Roman-30"/>
      </g>
     </g>
    </g>
    <g id="ytick_2">
     <g id="line2d_9">
      <g>
       <use xlink:href="#m64b0e36685" x="135" y="315.847983" style="stroke: #000000; stroke-width: 0.8"/>
      </g>
     </g>
     <g id="text_9">
      <!-- 1000 -->
      <g transform="translate(108 319.422202) scale(0.1 -0.1)">
       <use xlink:href="#Times New Roman-31"/>
       <use xlink:href="#Times New Roman-30" x="50"/>
       <use xlink:href="#Times New Roman-30" x="100"/>
       <use xlink:href="#Times New Roman-30" x="150"/>
      </g>
     </g>
    </g>
    <g id="ytick_3">
     <g id="line2d_10">
      <g>
       <use xlink:href="#m64b0e36685" x="135" y="253.552271" style="stroke: #000000; stroke-width: 0.8"/>
      </g>
     </g>
     <g id="text_10">
      <!-- 2000 -->
      <g transform="translate(108 257.126489) scale(0.1 -0.1)">
       <use xlink:href="#Times New Roman-32"/>
       <use xlink:href="#Times New Roman-30" x="50"/>
       <use xlink:href="#Times New Roman-30" x="100"/>
       <use xlink:href="#Times New Roman-30" x="150"/>
      </g>
     </g>
    </g>
    <g id="ytick_4">
     <g id="line2d_11">
      <g>
       <use xlink:href="#m64b0e36685" x="135" y="191.256558" style="stroke: #000000; stroke-width: 0.8"/>
      </g>
     </g>
     <g id="text_11">
      <!-- 3000 -->
      <g transform="translate(108 194.830777) scale(0.1 -0.1)">
       <use xlink:href="#Times New Roman-33"/>
       <use xlink:href="#Times New Roman-30" x="50"/>
       <use xlink:href="#Times New Roman-30" x="100"/>
       <use xlink:href="#Times New Roman-30" x="150"/>
      </g>
     </g>
    </g>
    <g id="ytick_5">
     <g id="line2d_12">
      <g>
       <use xlink:href="#m64b0e36685" x="135" y="128.960846" style="stroke: #000000; stroke-width: 0.8"/>
      </g>
     </g>
     <g id="text_12">
      <!-- 4000 -->
      <g transform="translate(108 132.535065) scale(0.1 -0.1)">
       <use xlink:href="#Times New Roman-34"/>
       <use xlink:href="#Times New Roman-30" x="50"/>
       <use xlink:href="#Times New Roman-30" x="100"/>
       <use xlink:href="#Times New Roman-30" x="150"/>
      </g>
     </g>
    </g>
    <g id="ytick_6">
     <g id="line2d_13">
      <g>
       <use xlink:href="#m64b0e36685" x="135" y="66.665134" style="stroke: #000000; stroke-width: 0.8"/>
      </g>
     </g>
     <g id="text_13">
      <!-- 5000 -->
      <g transform="translate(108 70.239352) scale(0.1 -0.1)">
       <use xlink:href="#Times New Roman-35"/>
       <use xlink:href="#Times New Roman-30" x="50"/>
       <use xlink:href="#Times New Roman-30" x="100"/>
       <use xlink:href="#Times New Roman-30" x="150"/>
      </g>
     </g>
    </g>
    <g id="text_14">
     <!-- Bitrate (kbps) -->
     <g transform="translate(102.710938 253.16) rotate(-90) scale(0.1 -0.1)">
      <defs>
       <path id="Times New Roman-42" d="M 100 100
L 100 250 
L 300 250 
Q 425 250 475 300 
Q 525 350 525 450 
L 525 4025 
Q 525 4125 475 4175 
Q 425 4225 300 4225 
L 150 4225 
L 150 4375 
L 1600 4375 
Q 2200 4375 2487 4137 
Q 2775 3900 2775 3400 
Q 2775 3050 2625 2825 
Q 2475 2600 2000 2425 
Q 2575 2250 2775 1925 
Q 2975 1600 2975 1200 
Q 2975 700 2625 400 
Q 2275 100 1675 100 
L 100 100 
z
M 1600 250 
Q 2025 250 2262 512 
Q 2500 775 2500 1250 
Q 2500 1800 2250 2062 
Q 2000 2325 1500 2325 
L 925 2325 
L 925 450 
Q 925 350 987 300 
Q 1050 250 1150 250 
L 1600 250 
z
M 2350 3400 
Q 2350 3850 2100 4037 
Q 1850 4225 1450 4225 
L 1150 4225 
Q 1050 4225 987 4175 
Q 925 4125 925 4025 
L 925 2475 
L 1575 2475 
Q 1850 2475 2100 2700 
Q 2350 2925 2350 3400 
z
" transform="scale(0.015625)"/>
       <path id="Times New Roman-69" d="M 1425 2525
Q 1425 2625 1375 2687 
Q 1325 2750 1200 2750 
L 675 2750 
L 675 2900 
L 925 2900 
Q 1150 2900 1350 2937 
Q 1550 2975 1725 3075 
L 1775 3075 
L 1775 450 
Q 1775 350 1837 300 
Q 1900 250 2000 250 
L 2525 250 
L 2525 100 
L 675 100 
L 675 250 
L 1200 250 
Q 1325 250 1375 300 
Q 1425 350 1425 450 
L 1425 2525 
z
M 1725 3025 
L 1725 3025 
z
M 1625 4425 
Q 1750 4425 1850 4337 
Q 1950 4250 1950 4125 
Q 1950 4000 1850 3900 
Q 1750 3800 1625 3800 
Q 1500 3800 1400 3900 
Q 1300 4000 1300 4125 
Q 1300 4250 1400 4337 
Q 1500 4425 1625 4425 
z
" transform="scale(0.015625)"/>
       <path id="Times New Roman-74" d="M 1500 900
Q 1500 550 1625 425 
Q 1750 300 2000 300 
Q 2250 300 2400 462 
Q 2550 625 2600 925 
L 2725 875 
Q 2675 525 2462 300 
Q 2250 75 1900 75 
Q 1525 75 1337 300 
Q 1150 525 1150 1000 
L 1150 2750 
L 400 2750 
L 400 2900 
L 600 2900 
Q 900 2900 1087 3087 
Q 1275 3275 1325 3675 
L 1350 3875 
L 1500 3875 
L 1500 2900 
L 2500 2900 
L 2500 2750 
L 1500 2750 
L 1500 900 
z
" transform="scale(0.015625)"/>
       <path id="Times New Roman-72" d="M 1275 2125
Q 1525 2525 1812 2737 
Q 2100 2950 2400 2950 
Q 2650 2950 2787 2837 
Q 2925 2725 2925 2575 
Q 2925 2450 2862 2375 
Q 2800 2300 2675 2300 
Q 2550 2300 2487 2375 
Q 2425 2450 2450 2575 
Q 2450 2650 2425 2700 
Q 2400 2750 2275 2750 
Q 2075 2750 1787 2500 
Q 1500 2250 1275 1800 
L 1275 450 
Q 1275 350 1337 300 
Q 1400 250 1500 250 
L 2050 250 
L 2050 100 
L 200 100 
L 200 250 
L 700 250 
Q 825 250 875 300 
Q 925 350 925 450 
L 925 2525 
Q 925 2625 875 2687 
Q 825 2750 700 2750 
L 225 2750 
L 225 2900 
L 425 2900 
Q 600 2900 837 2937 
Q 1075 2975 1200 3025 
L 1275 3025 
L 1275 2125 
z
" transform="scale(0.015625)"/>
       <path id="Times New Roman-61" d="M 1225 75
Q 775 75 525 287 
Q 275 500 275 775 
Q 275 1225 662 1512 
Q 1050 1800 2200 1925 
L 2200 2225 
Q 2200 2475 2087 2637 
Q 1975 2800 1575 2800 
Q 1150 2800 975 2662 
Q 800 2525 850 2375 
Q 875 2325 875 2275 
Q 875 2225 837 2150 
Q 800 2075 650 2075 
Q 550 2075 487 2137 
Q 425 2200 425 2325 
Q 425 2550 750 2750 
Q 1075 2950 1550 2950 
Q 2050 2950 2300 2762 
Q 2550 2575 2550 2225 
L 2550 575 
Q 2550 375 2587 337 
Q 2625 300 2725 300 
Q 2850 300 2900 412 
Q 2950 525 2950 725 
L 3075 725 
Q 3075 375 2950 237 
Q 2825 100 2625 100 
Q 2450 100 2350 175 
Q 2250 250 2200 425 
Q 1950 250 1737 162 
Q 1525 75 1225 75 
z
M 700 850 
Q 700 625 837 437 
Q 975 250 1275 250 
Q 1500 250 1725 337 
Q 1950 425 2200 600 
L 2200 1775 
Q 1350 1675 1025 1437 
Q 700 1200 700 850 
z
" transform="scale(0.015625)"/>
       <path id="Times New Roman-65" d="M 2400 1650
Q 2425 2200 2212 2487 
Q 2000 2775 1650 2775 
Q 1275 2775 1037 2475 
Q 800 2175 800 1650 
L 2400 1650 
z
M 800 1500 
Q 800 825 1062 537 
Q 1325 250 1750 250 
Q 2075 250 2300 437 
Q 2525 625 2625 900 
L 2750 850 
Q 2675 575 2412 312 
Q 2150 50 1700 50 
Q 1125 50 762 425 
Q 400 800 400 1500 
Q 400 2125 762 2537 
Q 1125 2950 1650 2950 
Q 2125 2950 2475 2625 
Q 2825 2300 2825 1500 
L 800 1500 
z
" transform="scale(0.015625)"/>
       <path id="Times New Roman-20" d="M 0 0
Q 0 0 0 0 
z
" transform="scale(0.015625)"/>
       <path id="Times New Roman-28" d="M 2900 5025
Q 2325 4425 2037 3737 
Q 1750 3050 1750 2300 
Q 1750 1525 2037 850 
Q 2325 175 2900 -425 
L 2775 -550 
Q 2075 75 1725 787 
Q 1375 1500 1375 2300 
Q 1375 3075 1725 3787 
Q 2075 4500 2775 5150 
L 2900 5025 
z
" transform="scale(0.015625)"/>
       <path id="Times New Roman-6b" d="M 1675 1900
L 2625 425 
Q 2700 325 2762 287 
Q 2825 250 2900 250 
L 3000 250 
L 3000 100 
L 1975 100 
L 1975 250 
L 2050 250 
Q 2175 250 2225 287 
Q 2275 325 2200 425 
L 1425 1650 
L 925 1125 
L 925 450 
Q 925 350 987 300 
Q 1050 250 1150 250 
L 1275 250 
L 1275 100 
L 225 100 
L 225 250 
L 350 250 
Q 475 250 525 300 
Q 575 350 575 450 
L 575 4025 
Q 575 4125 525 4175 
Q 475 4225 350 4225 
L 200 4225 
L 200 4375 
L 425 4375 
Q 575 4375 687 4425 
Q 800 4475 875 4575 
L 925 4575 
L 925 1400 
L 1975 2525 
Q 2025 2625 2012 2687 
Q 2000 2750 1900 2750 
L 1750 2750 
L 1750 2900 
L 2800 2900 
L 2800 2750 
L 2675 2750 
Q 2600 2750 2487 2712 
Q 2375 2675 2275 2575 
L 1675 1900 
z
M 2450 2750 
L 2450 2750 
z
M 2175 2750 
L 2175 2750 
z
M 2300 250 
L 2300 250 
z
M 2750 250 
L 2750 250 
z
" transform="scale(0.015625)"/>
       <path id="Times New Roman-62" d="M 875 2325
Q 1000 2600 1275 2762 
Q 1550 2925 1800 2925 
Q 2325 2925 2587 2562 
Q 2850 2200 2850 1500 
Q 2850 800 2512 437 
Q 2175 75 1675 75 
Q 1425 75 1212 162 
Q 1000 250 850 400 
L 625 100 
L 525 100 
L 525 4025 
Q 525 4125 475 4175 
Q 425 4225 300 4225 
L 150 4225 
L 150 4375 
L 375 4375 
Q 500 4375 625 4425 
Q 750 4475 875 4575 
L 875 2325 
z
M 875 925 
Q 875 650 1062 450 
Q 1250 250 1625 250 
Q 2075 250 2262 562 
Q 2450 875 2450 1500 
Q 2450 2100 2287 2412 
Q 2125 2725 1775 2725 
Q 1475 2725 1250 2550 
Q 1025 2375 875 1925 
L 875 925 
z
" transform="scale(0.015625)"/>
       <path id="Times New Roman-70" d="M 1150 -675
L 1325 -675 
L 1325 -825 
L 175 -825 
L 175 -675 
L 325 -675 
Q 450 -675 500 -625 
Q 550 -575 550 -450 
L 550 2500 
Q 550 2600 500 2662 
Q 450 2725 325 2725 
L 175 2725 
L 175 2875 
L 400 2875 
Q 525 2875 637 2900 
Q 750 2925 850 3000 
L 900 3000 
L 900 2425 
Q 1075 2675 1287 2800 
Q 1500 2925 1750 2925 
Q 2250 2925 2575 2587 
Q 2900 2250 2900 1525 
Q 2900 825 2550 450 
Q 2200 75 1725 75 
Q 1450 75 1262 162 
Q 1075 250 900 425 
L 900 -450 
Q 900 -575 975 -625 
Q 1050 -675 1150 -675 
z
M 900 750 
Q 1025 500 1212 375 
Q 1400 250 1650 250 
Q 2000 250 2250 562 
Q 2500 875 2500 1525 
Q 2500 2125 2312 2425 
Q 2125 2725 1750 2725 
Q 1525 2725 1300 2587 
Q 1075 2450 900 2150 
L 900 750 
z
" transform="scale(0.015625)"/>
       <path id="Times New Roman-73" d="M 625 2175
Q 625 2550 912 2750 
Q 1200 2950 1600 2950 
Q 1825 2950 2025 2900 
Q 2225 2825 2300 2825 
Q 2375 2825 2425 2850 
Q 2475 2875 2550 2950 
L 2650 2125 
L 2500 2100 
Q 2400 2425 2162 2612 
Q 1925 2800 1625 2800 
Q 1300 2800 1112 2675 
Q 925 2550 925 2325 
Q 925 2125 1012 2012 
Q 1100 1900 1325 1850 
Q 1500 1775 1775 1700 
Q 2025 1600 2250 1500 
Q 2450 1400 2587 1237 
Q 2725 1075 2725 875 
Q 2725 500 2462 287 
Q 2200 75 1700 75 
Q 1375 75 1225 150 
Q 1050 200 950 200 
Q 875 200 787 162 
Q 700 125 600 75 
L 525 1000 
L 675 1025 
Q 750 625 1000 425 
Q 1250 225 1700 225 
Q 2050 225 2237 350 
Q 2425 475 2425 725 
Q 2425 900 2325 1012 
Q 2225 1125 2125 1175 
Q 1875 1275 1575 1400 
Q 1275 1500 1050 1600 
Q 825 1700 725 1850 
Q 625 2000 625 2175 
z
" transform="scale(0.015625)"/>
       <path id="Times New Roman-29" d="M 275 5025
L 400 5150 
Q 1100 4500 1450 3787 
Q 1800 3075 1800 2300 
Q 1800 1500 1450 787 
Q 1100 75 400 -550 
L 275 -425 
Q 850 175 1137 850 
Q 1425 1525 1425 2300 
Q 1425 3050 1137 3737 
Q 850 4425 275 5025 
z
" transform="scale(0.015625)"/>
      </defs>
      <use xlink:href="#Times New Roman-42"/>
      <use xlink:href="#Times New Roman-69" x="50"/>
      <use xlink:href="#Times New Roman-74" x="100"/>
      <use xlink:href="#Times New Roman-72" x="150"/>
      <use xlink:href="#Times New Roman-61" x="200"/>
      <use xlink:href="#Times New Roman-74" x="250"/>
      <use xlink:href="#Times New Roman-65" x="300"/>
      <use xlink:href="#Times New Roman-20" x="350"/>
      <use xlink:href="#Times New Roman-28" x="400"/>
      <use xlink:href="#Times New Roman-6b" x="450"/>
      <use xlink:href="#Times New Roman-62" x="500"/>
      <use xlink:href="#Times New Roman-70" x="550"/>
      <use xlink:href="#Times New Roman-73" x="600"/>
      <use xlink:href="#Times New Roman-29" x="650"/>
     </g>
    </g>
   </g>
   <g id="line2d_14">
    <path d="M 173.045455 310.054482 
L 176.901413 310.054482 
L 178.186732 337.83837 
L 179.472052 369.36 
L 198.751843 369.36 
L 200.037162 337.83837 
L 203.89312 337.83837 
L 205.17844 310.054482 
L 206.463759 310.054482 
L 206.463759 259.532659 
L 212.890356 259.532659 
L 215.460995 136.062557 
L 218.031634 136.062557 
L 219.316953 259.532659 
L 223.172912 259.532659 
L 225.74355 136.062557 
L 225.74355 136.062557 
L 337.566339 136.062557 
L 338.851658 310.054482 
L 343.992936 310.054482 
L 345.278256 259.532659 
L 352.990172 259.532659 
L 354.275491 136.062557 
L 379.98188 136.062557 
L 379.98188 136.062557 
L 381.267199 259.532659 
L 382.552518 310.054482 
L 386.408477 310.054482 
L 387.693796 136.062557 
L 397.976351 136.062557 
L 397.976351 136.062557 
L 399.261671 310.054482 
L 399.261671 310.054482 
L 400.54699 136.062557 
L 400.54699 136.062557 
L 401.83231 136.062557 
L 401.83231 136.062557 
L 403.117629 310.054482 
L 403.117629 310.054482 
L 404.402948 136.062557 
L 404.402948 136.062557 
L 405.688268 136.062557 
L 405.688268 136.062557 
L 406.973587 259.532659 
L 406.973587 259.532659 
L 408.258907 259.532659 
L 408.258907 136.062557 
L 418.541462 136.062557 
L 418.541462 136.062557 
L 419.826781 259.532659 
L 419.826781 259.532659 
L 421.112101 259.532659 
L 421.112101 136.062557 
L 423.68274 136.062557 
L 423.68274 136.062557 
L 424.968059 259.532659 
L 424.968059 259.532659 
L 426.253378 259.532659 
L 426.253378 136.062557 
L 490.519349 136.062557 
L 491.804668 337.83837 
L 495.660627 337.83837 
L 495.660627 337.83837 
L 495.660627 259.532659 
L 496.945946 337.83837 
L 496.945946 337.83837 
L 512.369779 337.83837 
L 513.655098 136.062557 
L 513.655098 136.062557 
L 514.940418 136.062557 
L 514.940418 136.062557 
L 516.225737 259.532659 
L 517.511057 310.054482 
L 521.367015 310.054482 
L 522.652334 136.062557 
L 933.954545 136.062557 
L 933.954545 136.062557 
" clip-path="url(#p6f15e770ed)" style="fill: none; stroke: #ff0000; stroke-width: 1.5; stroke-linecap: square"/>
   </g>
   <g id="line2d_15">
    <path d="M 173.045455 359.828756 
L 176.901413 359.252521 
L 178.186732 358.53785 
L 182.04269 354.75477 
L 182.04269 353.466287 
L 183.32801 352.062557 
L 185.898649 350.314124 
L 187.183968 347.975958 
L 188.469287 344.948387 
L 189.754607 341.127583 
L 189.754607 336.957923 
L 191.039926 334.727737 
L 192.325246 336.5177 
L 193.610565 340.890859 
L 194.895885 347.913663 
L 196.181204 353.67394 
L 197.466523 354.4381 
L 198.751843 349.267556 
L 200.037162 339.993801 
L 202.607801 325.761307 
L 203.89312 324.793647 
L 205.17844 327.684168 
L 206.463759 334.495166 
L 206.463759 336.658904 
L 207.749079 335.965345 
L 209.034398 332.601377 
L 210.319717 321.230333 
L 211.605037 302.890475 
L 212.890356 278.549464 
L 215.460995 256.945311 
L 216.746314 234.593609 
L 216.746314 217.786226 
L 218.031634 205.405991 
L 219.316953 199.097512 
L 221.887592 192.033178 
L 223.172912 185.492128 
L 225.74355 178.606376 
L 225.74355 172.729813 
L 229.599509 152.550156 
L 232.170147 146.029871 
L 233.455467 139.401607 
L 233.455467 133.720238 
L 234.740786 127.939196 
L 237.311425 122.785264 
L 238.596744 117.506741 
L 238.596744 112.876093 
L 239.882064 108.062711 
L 241.167383 103.710317 
L 242.452703 100.338043 
L 245.023342 97.464134 
L 245.023342 94.523776 
L 246.308661 89.947118 
L 247.59398 87.052444 
L 248.8793 83.077977 
L 250.164619 81.150963 
L 251.449939 78.750502 
L 252.735258 78.630063 
L 254.020577 78.900012 
L 255.305897 79.40253 
L 255.305897 78.613451 
L 256.591216 77.857597 
L 256.591216 78.816951 
L 257.876536 79.780458 
L 257.876536 80.316201 
L 259.161855 81.121892 
L 259.161855 83.717547 
L 260.447174 84.951002 
L 261.732494 85.989264 
L 265.588452 87.957808 
L 265.588452 90.49532 
L 266.873771 90.844176 
L 266.873771 91.101665 
L 268.159091 91.936428 
L 268.159091 93.676555 
L 269.44441 97.426756 
L 269.44441 104.10901 
L 270.72973 111.18165 
L 272.015049 116.082246 
L 272.015049 119.080746 
L 273.300369 119.915509 
L 273.300369 118.545003 
L 274.585688 118.702819 
L 274.585688 129.160192 
L 275.871007 134.32243 
L 275.871007 138.080938 
L 277.156327 139.081823 
L 277.156327 138.728814 
L 278.441646 138.575151 
L 278.441646 145.942657 
L 279.726966 150.851559 
L 279.726966 154.701434 
L 281.012285 156.375112 
L 281.012285 156.931621 
L 281.012285 156.370959 
L 282.297604 156.865172 
L 282.297604 162.31397 
L 283.582924 165.204491 
L 283.582924 179.258404 
L 284.868243 183.457135 
L 284.868243 185.475516 
L 284.868243 185.313547 
L 286.153563 184.075939 
L 286.153563 183.357462 
L 286.153563 183.743695 
L 287.438882 185.724699 
L 287.438882 193.366306 
L 288.724201 196.838254 
L 288.724201 199.716316 
L 290.009521 202.054482 
L 290.009521 203.927506 
L 291.29484 205.817143 
L 291.29484 208.263288 
L 292.58016 211.82245 
L 292.58016 215.468825 
L 293.865479 220.261442 
L 293.865479 225.162038 
L 295.150799 230.498704 
L 299.006757 244.560923 
L 300.292076 249.478131 
L 301.577396 254.860481 
L 304.148034 268.204222 
L 306.718673 281.473209 
L 309.289312 293.961423 
L 310.574631 299.900281 
L 337.566339 307.072594 
L 340.136978 323.024449 
L 341.422297 329.274786 
L 342.707617 333.701934 
L 343.992936 334.860634 
L 345.278256 333.211875 
L 347.848894 324.988841 
L 350.419533 315.490821 
L 352.990172 304.825795 
L 356.84613 287.179496 
L 356.84613 281.626872 
L 358.13145 277.864211 
L 374.840602 268.436793 
L 376.125921 252.833794 
L 378.69656 205.651021 
L 378.69656 180.184534 
L 379.98188 161.362923 
L 379.98188 150.070786 
L 381.267199 151.088283 
L 382.552518 152.8824 
L 385.123157 153.389071 
L 386.408477 148.297435 
L 387.693796 140.722276 
L 390.264435 116.152848 
L 391.549754 107.975497 
L 394.120393 104.603222 
L 394.120393 102.771729 
L 395.405713 98.24906 
L 395.405713 94.457327 
L 396.691032 88.16546 
L 396.691032 82.803876 
L 397.976351 77.915739 
L 397.976351 75.324238 
L 399.261671 77.454751 
L 399.261671 91.309317 
L 400.54699 96.820411 
L 400.54699 99.25825 
L 401.83231 95.395916 
L 401.83231 78.513778 
L 403.117629 71.711086 
L 403.117629 67.674324 
L 404.402948 67.35454 
L 404.402948 66.96 
L 405.688268 69.908664 
L 405.688268 85.025757 
L 406.973587 91.014451 
L 406.973587 93.925737 
L 408.258907 90.848329 
L 408.258907 84.855482 
L 409.544226 75.934736 
L 409.544226 70.074786 
L 410.829545 67.4376 
L 410.829545 67.931813 
L 412.114865 68.542311 
L 412.114865 69.119585 
L 413.400184 69.929429 
L 413.400184 70.751732 
L 414.685504 75.519431 
L 414.685504 96.392648 
L 415.970823 105.001915 
L 415.970823 109.898358 
L 417.256143 107.277785 
L 417.256143 100.853021 
L 418.541462 90.93139 
L 418.541462 84.867941 
L 419.826781 82.886937 
L 419.826781 84.53985 
L 421.112101 86.578996 
L 421.112101 88.472786 
L 422.39742 90.657289 
L 422.39742 92.605068 
L 423.68274 94.984764 
L 423.68274 97.198339 
L 424.968059 99.785687 
L 424.968059 102.090629 
L 426.253378 104.785957 
L 426.253378 107.194724 
L 427.538698 109.96896 
L 427.538698 112.423411 
L 428.824017 118.370575 
L 428.824017 127.083669 
L 430.109337 136.220373 
L 431.394656 142.441638 
L 432.679975 146.578073 
L 433.965295 148.226833 
L 435.250614 147.790763 
L 436.535934 147.931967 
L 437.821253 151.694628 
L 441.677211 172.883476 
L 442.962531 180.184534 
L 444.24785 190.612836 
L 490.519349 209.68363 
L 491.804668 236.695051 
L 494.375307 296.947464 
L 495.660627 321.994493 
L 495.660627 344.890244 
L 496.945946 345.318008 
L 496.945946 345.14358 
L 498.231265 342.992301 
L 498.231265 339.794455 
L 499.516585 334.927083 
L 499.516585 330.774036 
L 500.801904 326.940773 
L 502.087224 323.987956 
L 511.084459 317.691936 
L 512.369779 308.434793 
L 513.655098 295.614336 
L 513.655098 282.690052 
L 514.940418 269.387841 
L 514.940418 259.258558 
L 516.225737 252.867018 
L 517.511057 250.134313 
L 520.081695 246.363346 
L 521.367015 240.657058 
L 522.652334 232.870094 
L 523.937654 223.683553 
L 526.508292 208.076401 
L 527.793612 201.946503 
L 531.64957 179.85229 
L 538.076167 174.008952 
L 539.361486 167.949656 
L 540.646806 162.451021 
L 541.932125 155.004607 
L 543.217445 146.374574 
L 544.502764 135.705395 
L 545.788084 126.647599 
L 545.788084 120.09409 
L 547.073403 116.493397 
L 549.644042 113.233255 
L 550.929361 110.438254 
L 550.929361 107.248714 
L 552.214681 103.456981 
L 552.214681 100.105472 
L 554.785319 93.041138 
L 556.070639 88.190379 
L 557.355958 85.112971 
L 561.211916 83.850444 
L 562.497236 84.602146 
L 562.497236 86.819873 
L 563.782555 88.929621 
L 566.353194 90.021873 
L 567.638514 89.839139 
L 568.923833 89.261865 
L 570.209152 90.391494 
L 571.494472 93.477208 
L 571.494472 98.082938 
L 572.779791 102.8008 
L 575.35043 110.899242 
L 577.921069 124.691513 
L 579.206388 127.461596 
L 580.491708 131.36546 
L 581.777027 131.456828 
L 583.062346 131.328083 
L 584.347666 131.639562 
L 585.632985 136.141465 
L 586.918305 140.04533 
L 588.203624 145.004068 
L 588.203624 151.271017 
L 589.488943 157.87021 
L 592.059582 164.286668 
L 592.059582 170.532851 
L 593.344902 175.87367 
L 594.630221 180.662134 
L 597.20086 193.191878 
L 598.486179 200.077631 
L 601.056818 206.896935 
L 601.056818 214.621604 
L 603.627457 226.794186 
L 606.198096 239.614643 
L 606.198096 244.793494 
L 607.483415 250.325353 
L 607.483415 255.794916 
L 608.768735 260.438023 
L 610.054054 264.217297 
L 610.054054 268.141927 
L 612.624693 275.908125 
L 613.910012 279.728929 
L 613.910012 283.749079 
L 615.195332 288.180381 
L 615.195332 296.482323 
L 616.480651 299.738312 
L 616.480651 302.317354 
L 617.765971 304.422949 
L 617.765971 306.316739 
L 619.05129 308.285284 
L 619.05129 310.395032 
L 620.336609 312.945003 
L 620.336609 315.233332 
L 621.621929 318.040792 
L 621.621929 320.781803 
L 622.907248 323.879977 
L 630.619165 340.666595 
L 642.187039 343.669248 
L 643.472359 346.057251 
L 644.757678 347.523276 
L 646.042998 347.926122 
L 647.328317 347.477593 
L 649.898956 345.749925 
L 651.184275 343.037985 
L 653.754914 335.574959 
L 657.610872 330.396108 
L 658.896192 324.81026 
L 662.75215 303.708625 
L 666.608108 282.968306 
L 666.608108 276.871632 
L 667.893428 271.472671 
L 670.464066 265.259712 
L 671.749386 259.096589 
L 674.320025 253.784841 
L 674.320025 250.026333 
L 675.605344 245.325084 
L 678.175983 239.402838 
L 678.175983 231.943965 
L 679.461302 223.376228 
L 682.031941 213.354924 
L 682.031941 204.508933 
L 683.31726 197.494436 
L 685.887899 192.149464 
L 685.887899 186.73389 
L 688.458538 172.883476 
L 689.743857 168.389879 
L 692.314496 165.511817 
L 693.599816 162.563153 
L 694.885135 157.122661 
L 694.885135 150.747733 
L 696.170455 141.893436 
L 698.741093 132.68613 
L 700.026413 124.4008 
L 700.026413 120.343272 
L 701.311732 116.028256 
L 703.882371 111.846137 
L 703.882371 106.704664 
L 705.16769 102.231832 
L 705.16769 97.800531 
L 707.738329 91.371613 
L 710.308968 84.240831 
L 710.308968 82.675132 
L 711.594287 81.574574 
L 712.879607 80.0421 
L 714.164926 85.461827 
L 716.735565 90.507779 
L 718.020885 94.145849 
L 718.020885 90.756962 
L 719.306204 91.051828 
L 719.306204 87.712778 
L 720.591523 84.581381 
L 721.876843 79.851059 
L 723.162162 81.030525 
L 727.01812 81.234024 
L 728.30344 80.665057 
L 729.588759 81.994032 
L 732.159398 86.055712 
L 733.444717 94.532082 
L 733.444717 103.934582 
L 734.730037 114.537312 
L 734.730037 123.125814 
L 736.015356 129.413528 
L 739.871314 132.640446 
L 741.156634 136.000261 
L 741.156634 140.261288 
L 742.441953 145.294782 
L 743.727273 152.238677 
L 743.727273 159.959192 
L 745.012592 166.608221 
L 747.583231 172.260519 
L 750.15387 176.089629 
L 751.439189 181.098204 
L 752.724509 187.124276 
L 755.295147 195.63387 
L 755.295147 218.633447 
L 756.580467 223.471748 
L 756.580467 233.318623 
L 757.865786 236.21745 
L 757.865786 239.398685 
L 759.151106 240.810721 
L 759.151106 247.164884 
L 760.436425 250.599454 
L 760.436425 253.726699 
L 761.721744 255.89459 
L 761.721744 257.33985 
L 763.007064 258.519316 
L 763.007064 260.39234 
L 764.292383 263.930736 
L 764.292383 268.200069 
L 765.577703 272.847329 
L 768.148342 281.302934 
L 770.71898 289.845753 
L 772.0043 294.522084 
L 774.574939 305.830833 
L 784.857494 312.936697 
L 789.998771 344.915162 
L 791.284091 349.55827 
L 792.56941 351.996108 
L 793.85473 352.573382 
L 795.140049 352.872401 
L 796.425369 352.764422 
L 802.851966 351.651405 
L 804.137285 349.255097 
L 805.422604 345.409375 
L 806.707924 340.753809 
L 807.993243 335.334082 
L 809.278563 330.495782 
L 809.278563 326.836947 
L 810.563882 324.187302 
L 819.561118 319.349002 
L 820.846437 311.337774 
L 820.846437 300.415259 
L 824.702396 263.988879 
L 827.273034 255.354693 
L 831.128993 232.957308 
L 831.128993 225.697781 
L 832.414312 218.915855 
L 834.984951 208.163615 
L 837.55559 203.300396 
L 838.840909 197.274324 
L 840.126229 190.326276 
L 840.126229 182.344118 
L 842.696867 166.508548 
L 842.696867 158.68836 
L 843.982187 153.060981 
L 843.982187 150.627295 
L 845.267506 148.392955 
L 846.552826 145.049752 
L 850.408784 139.517893 
L 851.694103 133.794993 
L 852.979423 124.907472 
L 854.264742 117.776689 
L 854.264742 112.668441 
L 855.550061 110.795416 
L 856.835381 108.527852 
L 858.1207 105.421373 
L 863.261978 86.716047 
L 864.547297 84.361269 
L 867.117936 82.380265 
L 868.403256 82.932621 
L 869.688575 81.595339 
L 870.973894 82.251521 
L 872.259214 81.013913 
L 873.544533 81.599492 
L 874.829853 78.92493 
L 876.115172 80.133467 
L 877.400491 78.895858 
L 878.685811 81.354463 
L 879.97113 81.711625 
L 881.25645 86.246753 
L 881.25645 90.852482 
L 882.541769 96.903472 
L 883.827088 101.62964 
L 886.397727 105.911432 
L 887.683047 110.591917 
L 888.968366 113.11697 
L 890.253686 118.39134 
L 890.253686 124.280361 
L 891.539005 131.942734 
L 892.824324 136.805953 
L 895.394963 141.756385 
L 895.394963 144.713355 
L 896.680283 146.947695 
L 896.680283 149.618104 
L 897.965602 152.724584 
L 899.250921 156.686591 
L 900.536241 161.338004 
L 903.10688 173.186649 
L 904.392199 179.66125 
L 906.962838 194.400415 
L 908.248157 200.310202 
L 908.248157 205.95004 
L 909.533477 212.192071 
L 909.533477 218.40503 
L 910.818796 224.086399 
L 910.818796 229.011913 
L 912.104115 232.949002 
L 912.104115 235.374382 
L 913.389435 237.322161 
L 913.389435 238.788187 
L 914.674754 242.168768 
L 914.674754 246.471325 
L 915.960074 251.695858 
L 917.245393 256.430333 
L 918.530713 261.64656 
L 919.816032 266.318739 
L 919.816032 270.932774 
L 921.101351 274.990302 
L 921.101351 282.561307 
L 922.386671 286.124622 
L 922.386671 293.213874 
L 923.67199 296.162538 
L 923.67199 298.529775 
L 924.95731 300.386187 
L 924.95731 301.843907 
L 926.242629 303.517585 
L 926.242629 305.918047 
L 930.098587 315.677708 
L 931.383907 318.89632 
L 932.669226 323.128275 
L 932.669226 328.120238 
L 933.954545 333.872209 
L 933.954545 333.872209 
" clip-path="url(#p6f15e770ed)" style="fill: none; stroke: #008000; stroke-width: 1.5; stroke-linecap: square"/>
   </g>
   <g id="patch_3">
    <path d="M 135 384.48 
L 135 51.84 
" style="fill: none; stroke: #000000; stroke-width: 0.8; stroke-linejoin: miter; stroke-linecap: square"/>
   </g>
   <g id="patch_4">
    <path d="M 972 384.48 
L 972 51.84 
" style="fill: none; stroke: #000000; stroke-width: 0.8; stroke-linejoin: miter; stroke-linecap: square"/>
   </g>
   <g id="patch_5">
    <path d="M 135 384.48 
L 972 384.48 
" style="fill: none; stroke: #000000; stroke-width: 0.8; stroke-linejoin: miter; stroke-linecap: square"/>
   </g>
   <g id="patch_6">
    <path d="M 135 51.84 
L 972 51.84 
" style="fill: none; stroke: #000000; stroke-width: 0.8; stroke-linejoin: miter; stroke-linecap: square"/>
   </g>
  </g>
  <g id="axes_2">
   <g id="matplotlib.axis_3">
    <g id="ytick_7">
     <g id="line2d_16">
      <path d="M 135 369.36 
L 972 369.36 
" clip-path="url(#p6f15e770ed)" style="fill: none; stroke: #b0b0b0; stroke-width: 0.8; stroke-linecap: square"/>
     </g>
     <g id="line2d_17">
      <defs>
       <path id="m4a99d899a6" d="M 0 0 
L 3.5 0 
" style="stroke: #000000; stroke-width: 0.8"/>
      </defs>
      <g>
       <use xlink:href="#m4a99d899a6" x="972" y="369.36" style="stroke: #000000; stroke-width: 0.8"/>
      </g>
     </g>
     <g id="text_15">
      <!-- 0 -->
      <g transform="translate(979 372.934219) scale(0.1 -0.1)">
       <use xlink:href="#Times New Roman-30"/>
      </g>
     </g>
    </g>
    <g id="ytick_8">
     <g id="line2d_18">
      <path d="M 135 319.868364 
L 972 319.868364 
" clip-path="url(#p6f15e770ed)" style="fill: none; stroke: #b0b0b0; stroke-width: 0.8; stroke-linecap: square"/>
     </g>
     <g id="line2d_19">
      <g>
       <use xlink:href="#m4a99d899a6" x="972" y="319.868364" style="stroke: #000000; stroke-width: 0.8"/>
      </g>
     </g>
     <g id="text_16">
      <!-- 5 -->
      <g transform="translate(979 323.442583) scale(0.1 -0.1)">
       <use xlink:href="#Times New Roman-35"/>
      </g>
     </g>
    </g>
    <g id="ytick_9">
     <g id="line2d_20">
      <path d="M 135 270.376728 
L 972 270.376728 
" clip-path="url(#p6f15e770ed)" style="fill: none; stroke: #b0b0b0; stroke-width: 0.8; stroke-linecap: square"/>
     </g>
     <g id="line2d_21">
      <g>
       <use xlink:href="#m4a99d899a6" x="972" y="270.376728" style="stroke: #000000; stroke-width: 0.8"/>
      </g>
     </g>
     <g id="text_17">
      <!-- 10 -->
      <g transform="translate(979 273.950947) scale(0.1 -0.1)">
       <use xlink:href="#Times New Roman-31"/>
       <use xlink:href="#Times New Roman-30" x="50"/>
      </g>
     </g>
    </g>
    <g id="ytick_10">
     <g id="line2d_22">
      <path d="M 135 220.885093 
L 972 220.885093 
" clip-path="url(#p6f15e770ed)" style="fill: none; stroke: #b0b0b0; stroke-width: 0.8; stroke-linecap: square"/>
     </g>
     <g id="line2d_23">
      <g>
       <use xlink:href="#m4a99d899a6" x="972" y="220.885093" style="stroke: #000000; stroke-width: 0.8"/>
      </g>
     </g>
     <g id="text_18">
      <!-- 15 -->
      <g transform="translate(979 224.459311) scale(0.1 -0.1)">
       <use xlink:href="#Times New Roman-31"/>
       <use xlink:href="#Times New Roman-35" x="50"/>
      </g>
     </g>
    </g>
    <g id="ytick_11">
     <g id="line2d_24">
      <path d="M 135 171.393457 
L 972 171.393457 
" clip-path="url(#p6f15e770ed)" style="fill: none; stroke: #b0b0b0; stroke-width: 0.8; stroke-linecap: square"/>
     </g>
     <g id="line2d_25">
      <g>
       <use xlink:href="#m4a99d899a6" x="972" y="171.393457" style="stroke: #000000; stroke-width: 0.8"/>
      </g>
     </g>
     <g id="text_19">
      <!-- 20 -->
      <g transform="translate(979 174.967675) scale(0.1 -0.1)">
       <use xlink:href="#Times New Roman-32"/>
       <use xlink:href="#Times New Roman-30" x="50"/>
      </g>
     </g>
    </g>
    <g id="ytick_12">
     <g id="line2d_26">
      <path d="M 135 121.901821 
L 972 121.901821 
" clip-path="url(#p6f15e770ed)" style="fill: none; stroke: #b0b0b0; stroke-width: 0.8; stroke-linecap: square"/>
     </g>
     <g id="line2d_27">
      <g>
       <use xlink:href="#m4a99d899a6" x="972" y="121.901821" style="stroke: #000000; stroke-width: 0.8"/>
      </g>
     </g>
     <g id="text_20">
      <!-- 25 -->
      <g transform="translate(979 125.47604) scale(0.1 -0.1)">
       <use xlink:href="#Times New Roman-32"/>
       <use xlink:href="#Times New Roman-35" x="50"/>
      </g>
     </g>
    </g>
    <g id="ytick_13">
     <g id="line2d_28">
      <path d="M 135 72.410185 
L 972 72.410185 
" clip-path="url(#p6f15e770ed)" style="fill: none; stroke: #b0b0b0; stroke-width: 0.8; stroke-linecap: square"/>
     </g>
     <g id="line2d_29">
      <g>
       <use xlink:href="#m4a99d899a6" x="972" y="72.410185" style="stroke: #000000; stroke-width: 0.8"/>
      </g>
     </g>
     <g id="text_21">
      <!-- 30 -->
      <g transform="translate(979 75.984404) scale(0.1 -0.1)">
       <use xlink:href="#Times New Roman-33"/>
       <use xlink:href="#Times New Roman-30" x="50"/>
      </g>
     </g>
    </g>
    <g id="text_22">
     <!-- buffer (s) -->
     <g transform="translate(1000.617188 243.16) rotate(-90) scale(0.1 -0.1)">
      <defs>
       <path id="Times New Roman-75" d="M 1450 325
Q 1750 325 1962 475 
Q 2175 625 2275 950 
L 2275 2525 
Q 2275 2625 2225 2687 
Q 2175 2750 2050 2750 
L 1900 2750 
L 1900 2900 
L 2050 2900 
Q 2200 2900 2325 2925 
Q 2450 2950 2575 3050 
L 2625 3050 
L 2625 600 
Q 2625 500 2687 450 
Q 2750 400 2850 400 
L 3000 400 
L 3000 250 
L 2850 250 
Q 2725 250 2600 212 
Q 2475 175 2325 100 
L 2275 100 
L 2275 625 
Q 2150 350 1900 212 
Q 1650 75 1325 75 
Q 925 75 725 300 
Q 525 525 525 1025 
L 525 2525 
Q 525 2625 475 2687 
Q 425 2750 300 2750 
L 150 2750 
L 150 2900 
L 300 2900 
Q 450 2900 575 2925 
Q 700 2950 825 3050 
L 875 3050 
L 875 975 
Q 875 625 1025 475 
Q 1175 325 1450 325 
z
" transform="scale(0.015625)"/>
       <path id="Times New Roman-66" d="M 1125 3325
Q 1125 3850 1450 4112 
Q 1775 4375 2175 4375 
Q 2600 4375 2812 4225 
Q 3025 4075 3025 3875 
Q 3025 3775 2975 3700 
Q 2925 3625 2775 3625 
Q 2675 3625 2612 3675 
Q 2550 3725 2550 3850 
Q 2550 3875 2575 3925 
Q 2575 3975 2575 4000 
Q 2575 4100 2500 4162 
Q 2425 4225 2150 4225 
Q 1850 4225 1662 4037 
Q 1475 3850 1475 3400 
L 1475 2900 
L 2525 2900 
L 2525 2750 
L 1475 2750 
L 1475 450 
Q 1475 350 1537 300 
Q 1600 250 1700 250 
L 2300 250 
L 2300 100 
L 475 100 
L 475 250 
L 900 250 
Q 1025 250 1075 300 
Q 1125 350 1125 450 
L 1125 2750 
L 350 2750 
L 350 2900 
L 1125 2900 
L 1125 3325 
z
" transform="scale(0.015625)"/>
      </defs>
      <use xlink:href="#Times New Roman-62"/>
      <use xlink:href="#Times New Roman-75" x="50"/>
      <use xlink:href="#Times New Roman-66" x="100"/>
      <use xlink:href="#Times New Roman-66" x="150"/>
      <use xlink:href="#Times New Roman-65" x="200"/>
      <use xlink:href="#Times New Roman-72" x="250"/>
      <use xlink:href="#Times New Roman-20" x="300"/>
      <use xlink:href="#Times New Roman-28" x="350"/>
      <use xlink:href="#Times New Roman-73" x="400"/>
      <use xlink:href="#Times New Roman-29" x="450"/>
     </g>
    </g>
   </g>
   <g id="line2d_30">
    <path d="M 173.045455 289.776796 
L 176.901413 329.568398 
L 178.186732 327.15783 
L 179.472052 325.234568 
L 182.04269 241.485783 
L 182.04269 217.901822 
L 183.32801 185.443237 
L 185.898649 164.863951 
L 187.183968 135.787615 
L 188.469287 122.520458 
L 189.754607 106.793857 
L 189.754607 99.502974 
L 191.039926 88.72183 
L 192.325246 85.132944 
L 193.610565 76.06409 
L 194.895885 76.392386 
L 196.181204 75.627037 
L 198.751843 75.423487 
L 200.037162 76.463791 
L 201.322482 76.878171 
L 202.607801 76.807486 
L 203.89312 76.872326 
L 205.17844 77.765924 
L 206.463759 82.739949 
L 206.463759 82.468894 
L 207.749079 82.995888 
L 209.034398 77.405166 
L 210.319717 82.490489 
L 211.605037 84.506155 
L 212.890356 88.08055 
L 215.460995 91.587525 
L 216.746314 95.16258 
L 216.746314 102.081588 
L 218.031634 101.415801 
L 219.316953 100.314011 
L 221.887592 99.170069 
L 223.172912 101.004408 
L 225.74355 105.81807 
L 225.74355 106.295953 
L 227.02887 104.233802 
L 228.314189 96.123711 
L 229.599509 94.272101 
L 232.170147 93.167794 
L 233.455467 94.678999 
L 233.455467 87.787185 
L 234.740786 82.976133 
L 237.311425 77.477061 
L 238.596744 74.056039 
L 238.596744 68.146062 
L 239.882064 67.733635 
L 241.167383 69.658311 
L 242.452703 72.410185 
L 255.305897 72.410185 
L 255.305897 80.499681 
L 256.591216 80.499681 
L 256.591216 85.130628 
L 257.876536 78.213529 
L 257.876536 75.049496 
L 259.161855 70.418549 
L 259.161855 66.96 
L 260.447174 70.124033 
L 261.732494 70.124033 
L 265.588452 84.610211 
L 265.588452 183.593483 
L 266.873771 282.576755 
L 266.873771 279.654341 
L 268.159091 187.026269 
L 268.159091 187.026269 
L 269.44441 181.181442 
L 269.44441 273.809514 
L 270.72973 273.809514 
L 272.015049 287.423844 
L 272.015049 287.423844 
L 273.300369 202.738153 
L 273.300369 284.674309 
L 274.585688 197.239082 
L 274.585688 204.14729 
L 275.871007 291.582517 
L 275.871007 289.554734 
L 277.156327 276.285795 
L 277.156327 194.452746 
L 278.441646 260.473729 
L 278.441646 273.742668 
L 278.441646 271.714885 
L 279.726966 269.477835 
L 279.726966 255.178208 
L 281.012285 269.934048 
L 281.012285 265.051172 
L 282.297604 260.010358 
L 282.297604 255.127483 
L 282.297604 292.789044 
L 283.582924 224.565207 
L 283.582924 214.748843 
L 283.582924 278.089805 
L 284.868243 290.852729 
L 284.868243 263.390566 
L 286.153563 241.892579 
L 286.153563 232.076215 
L 286.153563 248.691327 
L 287.438882 210.800616 
L 287.438882 234.507432 
L 287.438882 233.992088 
L 288.724201 263.147736 
L 288.724201 287.467222 
L 290.009521 286.436534 
L 290.009521 282.069003 
L 291.29484 244.131579 
L 292.58016 235.396516 
L 292.58016 271.272565 
L 293.865479 226.14611 
L 293.865479 265.874346 
L 295.150799 264.843658 
L 296.436118 307.908737 
L 310.574631 290.902387 
L 337.566339 316.539581 
L 340.136978 369.36 
L 356.84613 369.36 
L 356.84613 369.36 
L 358.13145 356.162227 
L 376.125921 356.162227 
L 377.411241 369.36 
L 525.222973 369.36 
L 526.508292 331.252335 
L 527.793612 300.610557 
L 529.078931 277.434665 
L 530.364251 299.832325 
L 531.64957 330.474103 
L 538.076167 353.649995 
L 539.361486 352.225451 
L 540.646806 332.153841 
L 541.932125 309.332694 
L 544.502764 291.823094 
L 545.788084 278.966917 
L 545.788084 270.855788 
L 547.073403 258.620354 
L 549.644042 248.724127 
L 550.929361 231.837398 
L 550.929361 220.70178 
L 552.214681 210.322285 
L 552.214681 212.819779 
L 553.5 207.041505 
L 554.785319 203.879539 
L 556.070639 193.935386 
L 557.355958 195.314404 
L 561.211916 201.363383 
L 562.497236 204.937779 
L 562.497236 190.380137 
L 563.782555 186.255835 
L 566.353194 180.48181 
L 567.638514 186.239453 
L 568.923833 168.573687 
L 570.209152 148.08965 
L 571.494472 129.397108 
L 571.494472 108.019471 
L 572.779791 100.733201 
L 575.35043 95.261108 
L 576.635749 98.423075 
L 577.921069 90.174469 
L 580.491708 72.699497 
L 581.777027 69.949966 
L 583.062346 69.949969 
L 584.347666 72.410185 
L 613.910012 72.410185 
L 613.910012 94.60286 
L 615.195332 132.017689 
L 615.195332 132.017689 
L 615.195332 124.377908 
L 616.480651 93.876194 
L 616.480651 127.737777 
L 617.765971 112.458216 
L 617.765971 135.853439 
L 619.05129 101.991856 
L 619.05129 129.473614 
L 620.336609 99.165277 
L 620.336609 122.367122 
L 621.621929 95.612031 
L 621.621929 115.260631 
L 622.907248 108.15414 
L 624.192568 120.696249 
L 629.333845 78.057301 
L 630.619165 72.621683 
L 642.187039 113.439593 
L 643.472359 154.593791 
L 644.757678 190.86016 
L 647.328317 171.558422 
L 649.898956 181.548772 
L 651.184275 192.993196 
L 652.469595 205.891695 
L 653.754914 200.603051 
L 657.610872 202.576359 
L 658.896192 205.762641 
L 660.181511 212.175416 
L 661.46683 213.727871 
L 662.75215 214.1403 
L 664.037469 213.776502 
L 665.322789 211.582488 
L 666.608108 211.99492 
L 666.608108 211.261711 
L 667.893428 210.253547 
L 670.464066 207.847702 
L 671.749386 207.206142 
L 674.320025 207.75605 
L 674.320025 205.487684 
L 675.605344 204.525349 
L 678.175983 202.188245 
L 678.175983 199.713663 
L 679.461302 196.41422 
L 682.031941 192.15244 
L 682.031941 189.402904 
L 683.31726 184.178784 
L 685.887899 181.566725 
L 685.887899 178.061067 
L 687.173219 176.957308 
L 688.458538 166.369404 
L 689.743857 167.950386 
L 692.314496 163.417599 
L 693.599816 162.320987 
L 694.885135 147.267282 
L 694.885135 137.643908 
L 696.170455 131.456447 
L 698.741093 127.808925 
L 700.026413 121.484996 
L 700.026413 114.196532 
L 701.311732 109.801662 
L 703.882371 104.440068 
L 703.882371 103.938181 
L 705.16769 98.031258 
L 705.16769 98.672816 
L 706.45301 92.440537 
L 707.738329 99.722228 
L 709.023649 99.355622 
L 710.308968 100.867866 
L 710.308968 106.744997 
L 711.594287 113.687573 
L 712.879607 121.695594 
L 714.164926 113.756312 
L 716.735565 123.952506 
L 718.020885 131.937616 
L 718.020885 149.782099 
L 719.306204 140.067074 
L 719.306204 145.465326 
L 720.591523 141.83594 
L 721.876843 148.462319 
L 723.162162 143.018239 
L 727.01812 145.117052 
L 728.30344 151.046884 
L 729.588759 160.807737 
L 732.159398 161.163625 
L 733.444717 162.492566 
L 733.444717 159.81226 
L 734.730037 156.890141 
L 734.730037 155.893681 
L 736.015356 148.950612 
L 739.871314 152.525006 
L 741.156634 148.159872 
L 741.156634 159.708249 
L 742.441953 161.358628 
L 743.727273 162.734384 
L 743.727273 167.206774 
L 745.012592 172.845813 
L 746.297912 179.651502 
L 747.583231 173.25411 
L 750.15387 177.146134 
L 751.439189 181.704204 
L 752.724509 186.92832 
L 755.295147 246.272462 
L 755.295147 273.816791 
L 755.295147 260.258141 
L 756.580467 270.290795 
L 756.580467 245.465353 
L 756.580467 291.245119 
L 757.865786 350.216356 
L 757.865786 292.802618 
L 759.151106 262.488988 
L 759.151106 256.44001 
L 759.151106 266.767952 
L 760.436425 261.182958 
L 760.436425 303.053227 
L 761.721744 275.970305 
L 761.721744 294.254714 
L 763.007064 263.193559 
L 763.007064 285.456202 
L 764.292383 250.416812 
L 764.292383 276.657689 
L 765.577703 273.44417 
L 766.863022 302.056521 
L 774.574939 273.134849 
L 784.857494 303.60314 
L 787.428133 369.36 
L 809.278563 369.36 
L 809.278563 369.36 
L 810.563882 356.157552 
L 820.846437 356.157552 
L 820.846437 369.36 
L 822.131757 369.36 
L 823.417076 348.741268 
L 824.702396 335.274116 
L 827.273034 320.020784 
L 828.558354 322.076094 
L 829.843673 314.509298 
L 831.128993 306.254099 
L 831.128993 303.099484 
L 832.414312 297.875368 
L 833.699631 289.214332 
L 834.984951 283.162058 
L 837.55559 281.237381 
L 838.840909 282.885004 
L 840.126229 275.873688 
L 840.126229 272.161816 
L 841.411548 264.602691 
L 842.696867 266.114938 
L 842.696867 265.393186 
L 843.982187 266.905433 
L 843.982187 266.56174 
L 845.267506 264.568326 
L 850.408784 268.555151 
L 851.694103 273.194993 
L 852.979423 279.175234 
L 854.264742 278.144158 
L 854.264742 281.306124 
L 855.550061 281.92477 
L 856.835381 282.3372 
L 858.1207 285.270036 
L 859.40602 288.523652 
L 860.691339 292.098046 
L 861.976658 294.206024 
L 863.261978 296.772258 
L 864.547297 299.796748 
L 867.117936 299.90674 
L 868.403256 301.098204 
L 869.688575 304.535121 
L 870.973894 305.845721 
L 872.259214 306.32232 
L 873.544533 306.175703 
L 874.829853 304.938412 
L 876.115172 304.461813 
L 877.400491 304.881261 
L 878.685811 304.743786 
L 879.97113 306.666314 
L 881.25645 306.393483 
L 881.25645 309.141601 
L 882.541769 309.690825 
L 883.827088 310.786392 
L 887.683047 312.571393 
L 888.968366 316.0813 
L 890.253686 315.396066 
L 890.253686 320.349525 
L 891.539005 321.655553 
L 892.824324 323.580227 
L 895.394963 337.60286 
L 895.394963 352.862785 
L 896.680283 354.649984 
L 896.680283 354.649984 
L 897.965602 354.649984 
L 899.250921 369.36 
L 932.669226 369.36 
L 932.669226 369.36 
L 933.954545 356.021351 
L 933.954545 356.021351 
" clip-path="url(#p6f15e770ed)" style="fill: none; stroke: #1f77b4; stroke-width: 1.5; stroke-linecap: square"/>
   </g>
   <g id="patch_7">
    <path d="M 135 384.48 
L 135 51.84 
" style="fill: none; stroke: #000000; stroke-width: 0.8; stroke-linejoin: miter; stroke-linecap: square"/>
   </g>
   <g id="patch_8">
    <path d="M 972 384.48 
L 972 51.84 
" style="fill: none; stroke: #000000; stroke-width: 0.8; stroke-linejoin: miter; stroke-linecap: square"/>
   </g>
   <g id="patch_9">
    <path d="M 135 384.48 
L 972 384.48 
" style="fill: none; stroke: #000000; stroke-width: 0.8; stroke-linejoin: miter; stroke-linecap: square"/>
   </g>
   <g id="patch_10">
    <path d="M 135 51.84 
L 972 51.84 
" style="fill: none; stroke: #000000; stroke-width: 0.8; stroke-linejoin: miter; stroke-linecap: square"/>
   </g>
   <g id="text_23">
    <!-- ./comyco/log_comyco_8_wave -->
    <g transform="translate(475.5 45.84) scale(0.12 -0.12)">
     <defs>
      <path id="Times New Roman-2e" d="M 800 25
Q 650 25 537 125 
Q 425 225 425 400 
Q 425 575 537 675 
Q 650 775 800 775 
Q 950 775 1062 662 
Q 1175 550 1175 400 
Q 1175 225 1062 125 
Q 950 25 800 25 
z
" transform="scale(0.015625)"/>
      <path id="Times New Roman-2f" d="M 400 -475
L 225 -375 
L 2775 4975 
L 2950 4875 
L 400 -475 
z
" transform="scale(0.015625)"/>
      <path id="Times New Roman-63" d="M 2150 2225
Q 2150 2300 2175 2325 
Q 2175 2350 2200 2425 
Q 2225 2525 2100 2662 
Q 1975 2800 1675 2800 
Q 1300 2800 1037 2437 
Q 775 2075 775 1475 
Q 775 925 1000 587 
Q 1225 250 1750 250 
Q 2100 250 2337 475 
Q 2575 700 2675 1000 
L 2800 950 
Q 2700 575 2425 312 
Q 2150 50 1675 50 
Q 1075 50 725 425 
Q 375 800 375 1500 
Q 375 2125 750 2537 
Q 1125 2950 1725 2950 
Q 2150 2950 2387 2725 
Q 2625 2500 2625 2275 
Q 2625 2125 2562 2062 
Q 2500 2000 2375 2000 
Q 2275 2000 2212 2062 
Q 2150 2125 2150 2225 
z
" transform="scale(0.015625)"/>
      <path id="Times New Roman-6f" d="M 2900 1500
Q 2900 875 2525 462 
Q 2150 50 1600 50 
Q 1025 50 662 475 
Q 300 900 300 1500 
Q 300 2050 662 2500 
Q 1025 2950 1600 2950 
Q 2200 2950 2550 2500 
Q 2900 2050 2900 1500 
z
M 700 1475 
Q 700 825 962 512 
Q 1225 200 1600 200 
Q 2025 200 2262 537 
Q 2500 875 2500 1475 
Q 2500 2125 2237 2462 
Q 1975 2800 1600 2800 
Q 1250 2800 975 2462 
Q 700 2125 700 1475 
z
" transform="scale(0.015625)"/>
      <path id="Times New Roman-6d" d="M 175 2900
Q 300 2900 425 2925 
Q 550 2950 625 3000 
L 675 3000 
L 675 2575 
Q 800 2775 950 2862 
Q 1100 2950 1275 2950 
Q 1500 2950 1625 2862 
Q 1750 2775 1775 2575 
Q 1900 2775 2062 2862 
Q 2225 2950 2400 2950 
Q 2700 2950 2812 2775 
Q 2925 2600 2925 2325 
L 2925 425 
Q 2925 325 2975 287 
Q 3025 250 3125 250 
L 3175 250 
L 3175 100 
L 2325 100 
L 2325 250 
L 2375 250 
Q 2475 250 2525 287 
Q 2575 325 2575 425 
L 2575 2300 
Q 2575 2575 2512 2662 
Q 2450 2750 2325 2750 
Q 2150 2750 2012 2625 
Q 1875 2500 1800 2275 
L 1800 425 
Q 1800 325 1850 287 
Q 1900 250 2000 250 
L 2050 250 
L 2050 100 
L 1200 100 
L 1200 250 
L 1250 250 
Q 1350 250 1400 287 
Q 1450 325 1450 425 
L 1450 2300 
Q 1450 2525 1400 2637 
Q 1350 2750 1200 2750 
Q 1025 2750 887 2625 
Q 750 2500 675 2250 
L 675 425 
Q 675 325 725 287 
Q 775 250 875 250 
L 925 250 
L 925 100 
L 75 100 
L 75 250 
L 125 250 
Q 225 250 275 287 
Q 325 325 325 425 
L 325 2600 
Q 325 2675 300 2712 
Q 275 2750 200 2750 
L 100 2750 
L 100 2900 
L 175 2900 
z
" transform="scale(0.015625)"/>
      <path id="Times New Roman-79" d="M 1650 800
L 1700 800 
L 2250 2475 
Q 2300 2600 2237 2675 
Q 2175 2750 2075 2750 
L 1925 2750 
L 1925 2900 
L 2975 2900 
L 2975 2750 
L 2825 2750 
Q 2725 2750 2625 2675 
Q 2525 2600 2475 2475 
L 1625 0 
Q 1500 -375 1312 -587 
Q 1125 -800 825 -800 
Q 650 -800 550 -737 
Q 450 -675 450 -550 
Q 450 -475 512 -400 
Q 575 -325 700 -325 
Q 800 -325 900 -425 
Q 1000 -500 1050 -500 
Q 1125 -500 1175 -475 
Q 1225 -450 1250 -375 
Q 1325 -250 1400 -62 
Q 1475 125 1525 325 
L 675 2525 
Q 650 2625 562 2687 
Q 475 2750 375 2750 
L 275 2750 
L 275 2900 
L 1325 2900 
L 1325 2750 
L 1225 2750 
Q 1125 2750 1075 2687 
Q 1025 2625 1050 2500 
L 1650 800 
z
M 950 2750 
L 950 2750 
z
M 600 2750 
L 600 2750 
z
M 2575 2750 
L 2575 2750 
z
M 2325 2750 
L 2325 2750 
z
" transform="scale(0.015625)"/>
      <path id="Times New Roman-6c" d="M 925 4375
Q 1150 4375 1350 4425 
Q 1550 4475 1725 4575 
L 1775 4575 
L 1775 450 
Q 1775 350 1837 300 
Q 1900 250 2000 250 
L 2575 250 
L 2575 100 
L 625 100 
L 625 250 
L 1200 250 
Q 1325 250 1375 300 
Q 1425 350 1425 450 
L 1425 4025 
Q 1425 4125 1375 4175 
Q 1325 4225 1200 4225 
L 650 4225 
L 650 4375 
L 925 4375 
z
" transform="scale(0.015625)"/>
      <path id="Times New Roman-67" d="M 875 1975
Q 875 1675 1050 1462 
Q 1225 1250 1525 1250 
Q 1850 1250 2012 1437 
Q 2175 1625 2175 1975 
Q 2175 2400 1987 2587 
Q 1800 2775 1525 2775 
Q 1250 2775 1062 2587 
Q 875 2400 875 1975 
z
M 2100 625 
Q 2475 575 2650 412 
Q 2825 250 2825 -25 
Q 2825 -400 2512 -625 
Q 2200 -850 1525 -850 
Q 1000 -850 675 -637 
Q 350 -425 350 -150 
Q 350 25 475 200 
Q 600 375 875 475 
Q 725 550 637 637 
Q 550 725 550 850 
Q 550 1000 650 1112 
Q 750 1225 900 1300 
Q 750 1425 637 1600 
Q 525 1775 525 1975 
Q 525 2350 787 2637 
Q 1050 2925 1525 2925 
Q 1725 2925 1912 2875 
Q 2100 2825 2225 2700 
Q 2400 2825 2537 2887 
Q 2675 2950 2775 2950 
Q 2900 2950 2950 2862 
Q 3000 2775 3000 2700 
Q 3000 2600 2962 2537 
Q 2925 2475 2825 2475 
Q 2750 2475 2700 2512 
Q 2650 2550 2625 2625 
Q 2600 2700 2512 2687 
Q 2425 2675 2325 2600 
Q 2425 2500 2475 2325 
Q 2525 2150 2525 1975 
Q 2525 1675 2287 1387 
Q 2050 1100 1525 1100 
Q 1375 1100 1250 1137 
Q 1125 1175 1050 1225 
Q 950 1175 900 1100 
Q 850 1025 850 975 
Q 850 875 900 825 
Q 950 775 1050 775 
Q 1375 725 1637 687 
Q 1900 650 2100 625 
z
M 1075 425 
Q 850 325 762 187 
Q 675 50 675 -150 
Q 675 -350 900 -525 
Q 1125 -700 1575 -700 
Q 2000 -700 2250 -562 
Q 2500 -425 2500 -150 
Q 2500 25 2437 125 
Q 2375 225 2250 250 
Q 2000 300 1700 350 
Q 1400 375 1075 425 
z
" transform="scale(0.015625)"/>
      <path id="Times New Roman-5f" d="M 0 -875
L 0 -725 
L 3175 -725 
L 3175 -875 
L 0 -875 
z
" transform="scale(0.015625)"/>
      <path id="Times New Roman-38" d="M 625 1125
Q 625 725 887 475 
Q 1150 225 1550 225 
Q 2025 225 2237 475 
Q 2450 725 2450 1100 
Q 2450 1425 2150 1725 
Q 1850 2025 1250 2275 
Q 950 2075 787 1775 
Q 625 1475 625 1125 
z
M 2825 1175 
Q 2825 700 2475 375 
Q 2125 50 1550 50 
Q 1025 50 650 375 
Q 275 700 275 1125 
Q 275 1550 487 1850 
Q 700 2150 1100 2375 
Q 750 2550 562 2812 
Q 375 3075 375 3400 
Q 375 3825 700 4125 
Q 1025 4425 1600 4425 
Q 2125 4425 2450 4125 
Q 2775 3825 2775 3400 
Q 2775 3100 2587 2837 
Q 2400 2575 2000 2375 
Q 2425 2125 2625 1825 
Q 2825 1525 2825 1175 
z
M 2425 3375 
Q 2425 3725 2225 3987 
Q 2025 4250 1600 4250 
Q 1125 4250 925 4000 
Q 725 3750 725 3475 
Q 725 3200 1012 2937 
Q 1300 2675 1825 2475 
Q 2125 2625 2275 2850 
Q 2425 3075 2425 3375 
z
" transform="scale(0.015625)"/>
      <path id="Times New Roman-77" d="M 2325 2900
L 3175 2900 
L 3175 2750 
L 3075 2750 
Q 2975 2750 2900 2675 
Q 2825 2600 2775 2425 
L 2175 75 
L 2025 75 
L 1575 1975 
L 1100 75 
L 950 75 
L 375 2375 
Q 350 2550 275 2650 
Q 200 2750 125 2750 
L 25 2750 
L 25 2900 
L 925 2900 
L 925 2750 
L 825 2750 
Q 725 2750 700 2662 
Q 675 2575 700 2425 
L 1075 800 
L 1125 800 
L 1500 2300 
Q 1475 2525 1400 2637 
Q 1325 2750 1225 2750 
L 1150 2750 
L 1150 2900 
L 2000 2900 
L 2000 2750 
L 1925 2750 
Q 1825 2750 1800 2662 
Q 1775 2575 1800 2425 
L 2175 800 
L 2200 800 
L 2625 2550 
Q 2650 2650 2600 2700 
Q 2550 2750 2450 2750 
L 2325 2750 
L 2325 2900 
z
M 1725 2750 
L 1725 2750 
z
M 625 2750 
L 625 2750 
z
M 275 2750 
L 275 2750 
z
M 2875 2750 
L 2875 2750 
z
M 2675 2750 
L 2675 2750 
z
" transform="scale(0.015625)"/>
      <path id="Times New Roman-76" d="M 1625 75
L 1475 75 
L 625 2525 
Q 600 2625 525 2687 
Q 450 2750 350 2750 
L 225 2750 
L 225 2900 
L 1300 2900 
L 1300 2750 
L 1200 2750 
Q 1050 2750 1025 2700 
Q 1000 2650 1000 2600 
Q 1000 2500 1025 2425 
L 1625 675 
L 1675 675 
L 2275 2400 
Q 2325 2525 2325 2575 
Q 2325 2600 2275 2675 
Q 2225 2750 2075 2750 
L 2025 2750 
L 2025 2900 
L 2925 2900 
L 2925 2750 
L 2875 2750 
Q 2725 2750 2637 2662 
Q 2550 2575 2475 2400 
L 1625 75 
z
M 2600 2750 
L 2600 2750 
z
M 2400 2750 
L 2400 2750 
z
M 925 2750 
L 925 2750 
z
M 550 2750 
L 550 2750 
z
" transform="scale(0.015625)"/>
     </defs>
     <use xlink:href="#Times New Roman-2e"/>
     <use xlink:href="#Times New Roman-2f" x="50"/>
     <use xlink:href="#Times New Roman-63" x="100"/>
     <use xlink:href="#Times New Roman-6f" x="150"/>
     <use xlink:href="#Times New Roman-6d" x="200"/>
     <use xlink:href="#Times New Roman-79" x="250"/>
     <use xlink:href="#Times New Roman-63" x="300"/>
     <use xlink:href="#Times New Roman-6f" x="350"/>
     <use xlink:href="#Times New Roman-2f" x="400"/>
     <use xlink:href="#Times New Roman-6c" x="450"/>
     <use xlink:href="#Times New Roman-6f" x="500"/>
     <use xlink:href="#Times New Roman-67" x="550"/>
     <use xlink:href="#Times New Roman-5f" x="600"/>
     <use xlink:href="#Times New Roman-63" x="650"/>
     <use xlink:href="#Times New Roman-6f" x="700"/>
     <use xlink:href="#Times New Roman-6d" x="750"/>
     <use xlink:href="#Times New Roman-79" x="800"/>
     <use xlink:href="#Times New Roman-63" x="850"/>
     <use xlink:href="#Times New Roman-6f" x="900"/>
     <use xlink:href="#Times New Roman-5f" x="950"/>
     <use xlink:href="#Times New Roman-38" x="1000"/>
     <use xlink:href="#Times New Roman-5f" x="1050"/>
     <use xlink:href="#Times New Roman-77" x="1100"/>
     <use xlink:href="#Times New Roman-61" x="1150"/>
     <use xlink:href="#Times New Roman-76" x="1200"/>
     <use xlink:href="#Times New Roman-65" x="1250"/>
    </g>
   </g>
   <g id="legend_1">
    <g id="patch_11">
     <path d="M 903 73.2775 
L 965 73.2775 
Q 967 73.2775 967 71.2775 
L 967 58.84 
Q 967 56.84 965 56.84 
L 903 56.84 
Q 901 56.84 901 58.84 
L 901 71.2775 
Q 901 73.2775 903 73.2775 
z
" style="fill: #ffffff; opacity: 0.8; stroke: #cccccc; stroke-linejoin: miter"/>
    </g>
    <g id="line2d_31">
     <path d="M 905 64.488437 
L 915 64.488437 
L 925 64.488437 
" style="fill: none; stroke: #1f77b4; stroke-width: 1.5; stroke-linecap: square"/>
    </g>
    <g id="text_24">
     <!-- buffer -->
     <g transform="translate(933 67.988437) scale(0.1 -0.1)">
      <use xlink:href="#Times New Roman-62"/>
      <use xlink:href="#Times New Roman-75" x="50"/>
      <use xlink:href="#Times New Roman-66" x="100"/>
      <use xlink:href="#Times New Roman-66" x="150"/>
      <use xlink:href="#Times New Roman-65" x="200"/>
      <use xlink:href="#Times New Roman-72" x="250"/>
     </g>
    </g>
   </g>
  </g>
 </g>
 <defs>
  <clipPath id="p6f15e770ed">
   <rect x="135" y="51.84" width="837" height="332.64"/>
  </clipPath>
 </defs>
</svg>
