<?xml version="1.0" encoding="utf-8" standalone="no"?>
<!DOCTYPE svg PUBLIC "-//W3C//DTD SVG 1.1//EN"
  "http://www.w3.org/Graphics/SVG/1.1/DTD/svg11.dtd">
<svg xmlns:xlink="http://www.w3.org/1999/xlink" width="411.2pt" height="340.853125pt" viewBox="0 0 411.2 340.853125" xmlns="http://www.w3.org/2000/svg" version="1.1">
 <metadata>
  <rdf:RDF xmlns:dc="http://purl.org/dc/elements/1.1/" xmlns:cc="http://creativecommons.org/ns#" xmlns:rdf="http://www.w3.org/1999/02/22-rdf-syntax-ns#">
   <cc:Work>
    <dc:type rdf:resource="http://purl.org/dc/dcmitype/StillImage"/>
    <dc:date>2024-04-13T13:24:17.028490</dc:date>
    <dc:format>image/svg+xml</dc:format>
    <dc:creator>
     <cc:Agent>
      <dc:title>Matplotlib v3.8.3, https://matplotlib.org/</dc:title>
     </cc:Agent>
    </dc:creator>
   </cc:Work>
  </rdf:RDF>
 </metadata>
 <defs>
  <style type="text/css">*{stroke-linejoin: round; stroke-linecap: butt}</style>
 </defs>
 <g id="figure_1">
  <g id="patch_1">
   <path d="M 0 340.853125 
L 411.2 340.853125 
L 411.2 0 
L 0 0 
z
" style="fill: #ffffff"/>
  </g>
  <g id="axes_1">
   <g id="patch_2">
    <path d="M 46.2 289.955 
L 381 289.955 
L 381 12.755 
L 46.2 12.755 
z
" style="fill: #ffffff"/>
   </g>
   <g id="PolyCollection_1">
    <defs>
     <path id="md957272a7c" d="M 46.2 -95.735225 
L 46.2 -95.735225 
L 51.78 -95.735225 
L 57.36 -105.414125 
L 62.94 -119.932475 
L 68.52 -146.511335 
L 74.1 -169.218635 
L 79.68 -167.275925 
L 85.26 -174.095045 
L 90.84 -173.475965 
L 96.42 -185.538785 
L 102 -214.903505 
L 107.58 -259.232405 
L 113.16 -269.835305 
L 118.74 -269.835305 
L 124.32 -274.413725 
L 129.9 -283.570565 
L 135.48 -292.727405 
L 141.06 -301.884245 
L 146.64 -311.041085 
L 152.22 -320.197925 
L 157.8 -320.197925 
L 163.38 -320.197925 
L 168.96 -320.197925 
L 174.54 -320.197925 
L 180.12 -320.197925 
L 185.7 -320.197925 
L 191.28 -320.197925 
L 196.86 -320.197925 
L 202.44 -320.197925 
L 208.02 -320.197925 
L 213.6 -320.197925 
L 219.18 -320.197925 
L 224.76 -320.197925 
L 230.34 -320.197925 
L 235.92 -320.197925 
L 241.5 -320.197925 
L 247.08 -320.197925 
L 252.66 -320.197925 
L 258.24 -320.197925 
L 263.82 -320.197925 
L 269.4 -320.197925 
L 274.98 -320.197925 
L 280.56 -320.197925 
L 286.14 -320.197925 
L 291.72 -320.197925 
L 297.3 -320.197925 
L 302.88 -320.197925 
L 308.46 -320.197925 
L 314.04 -320.197925 
L 319.62 -320.197925 
L 325.2 -320.197925 
L 330.78 -320.197925 
L 336.36 -320.197925 
L 341.94 -320.197925 
L 341.94 -320.197925 
L 347.52 -320.197925 
L 353.1 -320.197925 
L 353.1 -320.197925 
L 358.68 -320.197925 
L 364.26 -320.197925 
L 369.84 -320.197925 
L 375.42 -320.197925 
L 375.42 -320.197925 
L 375.42 -320.197925 
L 369.84 -320.197925 
L 364.26 -320.197925 
L 358.68 -320.197925 
L 353.1 -320.197925 
L 353.1 -320.197925 
L 347.52 -320.197925 
L 341.94 -320.197925 
L 341.94 -320.197925 
L 336.36 -320.197925 
L 330.78 -320.197925 
L 325.2 -320.197925 
L 319.62 -320.197925 
L 314.04 -320.197925 
L 308.46 -320.197925 
L 302.88 -320.197925 
L 297.3 -320.197925 
L 291.72 -320.197925 
L 286.14 -320.197925 
L 280.56 -320.197925 
L 274.98 -320.197925 
L 269.4 -320.197925 
L 263.82 -320.197925 
L 258.24 -320.197925 
L 252.66 -320.197925 
L 247.08 -320.197925 
L 241.5 -320.197925 
L 235.92 -320.197925 
L 230.34 -320.197925 
L 224.76 -320.197925 
L 219.18 -320.197925 
L 213.6 -320.197925 
L 208.02 -320.197925 
L 202.44 -320.197925 
L 196.86 -320.197925 
L 191.28 -320.197925 
L 185.7 -320.197925 
L 180.12 -320.197925 
L 174.54 -320.197925 
L 168.96 -320.197925 
L 163.38 -320.197925 
L 157.8 -320.197925 
L 152.22 -320.197925 
L 146.64 -320.197925 
L 141.06 -320.197925 
L 135.48 -320.197925 
L 129.9 -320.197925 
L 124.32 -320.197925 
L 118.74 -320.197925 
L 113.16 -320.197925 
L 107.58 -320.197925 
L 102 -320.197925 
L 96.42 -320.197925 
L 90.84 -320.197925 
L 85.26 -311.041085 
L 79.68 -286.920065 
L 74.1 -256.76879 
L 68.52 -225.72393 
L 62.94 -189.5424 
L 57.36 -144.872775 
L 51.78 -117.51275 
L 46.2 -95.735225 
z
" style="stroke: #ff0000; stroke-opacity: 0.3"/>
    </defs>
    <g clip-path="url(#p1aab04a1fc)">
     <use xlink:href="#md957272a7c" x="0" y="340.853125" style="fill: #ff0000; fill-opacity: 0.3; stroke: #ff0000; stroke-opacity: 0.3"/>
    </g>
   </g>
   <g id="matplotlib.axis_1">
    <g id="xtick_1">
     <g id="line2d_1">
      <defs>
       <path id="m6d8947062b" d="M 0 0 
L 0 3.5 
" style="stroke: #000000; stroke-width: 0.8"/>
      </defs>
      <g>
       <use xlink:href="#m6d8947062b" x="46.2" y="289.955" style="stroke: #000000; stroke-width: 0.8"/>
      </g>
     </g>
     <g id="text_1">
      <!-- 0 -->
      <g transform="translate(42.2 308.065) scale(0.16 -0.16)">
       <defs>
        <path id="TimesNewRomanPSMT-30" d="M 231 2094 
Q 231 2819 450 3342 
Q 669 3866 1031 4122 
Q 1313 4325 1613 4325 
Q 2100 4325 2488 3828 
Q 2972 3213 2972 2159 
Q 2972 1422 2759 906 
Q 2547 391 2217 158 
Q 1888 -75 1581 -75 
Q 975 -75 572 641 
Q 231 1244 231 2094 
z
M 844 2016 
Q 844 1141 1059 588 
Q 1238 122 1591 122 
Q 1759 122 1940 273 
Q 2122 425 2216 781 
Q 2359 1319 2359 2297 
Q 2359 3022 2209 3506 
Q 2097 3866 1919 4016 
Q 1791 4119 1609 4119 
Q 1397 4119 1231 3928 
Q 1006 3669 925 3112 
Q 844 2556 844 2016 
z
" transform="scale(0.015625)"/>
       </defs>
       <use xlink:href="#TimesNewRomanPSMT-30"/>
      </g>
     </g>
    </g>
    <g id="xtick_2">
     <g id="line2d_2">
      <g>
       <use xlink:href="#m6d8947062b" x="102" y="289.955" style="stroke: #000000; stroke-width: 0.8"/>
      </g>
     </g>
     <g id="text_2">
      <!-- 10 -->
      <g transform="translate(94 308.065) scale(0.16 -0.16)">
       <defs>
        <path id="TimesNewRomanPSMT-31" d="M 750 3822 
L 1781 4325 
L 1884 4325 
L 1884 747 
Q 1884 391 1914 303 
Q 1944 216 2037 169 
Q 2131 122 2419 116 
L 2419 0 
L 825 0 
L 825 116 
Q 1125 122 1212 167 
Q 1300 213 1334 289 
Q 1369 366 1369 747 
L 1369 3034 
Q 1369 3497 1338 3628 
Q 1316 3728 1258 3775 
Q 1200 3822 1119 3822 
Q 1003 3822 797 3725 
L 750 3822 
z
" transform="scale(0.015625)"/>
       </defs>
       <use xlink:href="#TimesNewRomanPSMT-31"/>
       <use xlink:href="#TimesNewRomanPSMT-30" x="50"/>
      </g>
     </g>
    </g>
    <g id="xtick_3">
     <g id="line2d_3">
      <g>
       <use xlink:href="#m6d8947062b" x="157.8" y="289.955" style="stroke: #000000; stroke-width: 0.8"/>
      </g>
     </g>
     <g id="text_3">
      <!-- 20 -->
      <g transform="translate(149.8 308.065) scale(0.16 -0.16)">
       <defs>
        <path id="TimesNewRomanPSMT-32" d="M 2934 816 
L 2638 0 
L 138 0 
L 138 116 
Q 1241 1122 1691 1759 
Q 2141 2397 2141 2925 
Q 2141 3328 1894 3587 
Q 1647 3847 1303 3847 
Q 991 3847 742 3664 
Q 494 3481 375 3128 
L 259 3128 
Q 338 3706 661 4015 
Q 984 4325 1469 4325 
Q 1984 4325 2329 3994 
Q 2675 3663 2675 3213 
Q 2675 2891 2525 2569 
Q 2294 2063 1775 1497 
Q 997 647 803 472 
L 1909 472 
Q 2247 472 2383 497 
Q 2519 522 2628 598 
Q 2738 675 2819 816 
L 2934 816 
z
" transform="scale(0.015625)"/>
       </defs>
       <use xlink:href="#TimesNewRomanPSMT-32"/>
       <use xlink:href="#TimesNewRomanPSMT-30" x="50"/>
      </g>
     </g>
    </g>
    <g id="xtick_4">
     <g id="line2d_4">
      <g>
       <use xlink:href="#m6d8947062b" x="213.6" y="289.955" style="stroke: #000000; stroke-width: 0.8"/>
      </g>
     </g>
     <g id="text_4">
      <!-- 30 -->
      <g transform="translate(205.6 308.065) scale(0.16 -0.16)">
       <defs>
        <path id="TimesNewRomanPSMT-33" d="M 325 3431 
Q 506 3859 782 4092 
Q 1059 4325 1472 4325 
Q 1981 4325 2253 3994 
Q 2459 3747 2459 3466 
Q 2459 3003 1878 2509 
Q 2269 2356 2469 2072 
Q 2669 1788 2669 1403 
Q 2669 853 2319 450 
Q 1863 -75 997 -75 
Q 569 -75 414 31 
Q 259 138 259 259 
Q 259 350 332 419 
Q 406 488 509 488 
Q 588 488 669 463 
Q 722 447 909 348 
Q 1097 250 1169 231 
Q 1284 197 1416 197 
Q 1734 197 1970 444 
Q 2206 691 2206 1028 
Q 2206 1275 2097 1509 
Q 2016 1684 1919 1775 
Q 1784 1900 1550 2001 
Q 1316 2103 1072 2103 
L 972 2103 
L 972 2197 
Q 1219 2228 1467 2375 
Q 1716 2522 1828 2728 
Q 1941 2934 1941 3181 
Q 1941 3503 1739 3701 
Q 1538 3900 1238 3900 
Q 753 3900 428 3381 
L 325 3431 
z
" transform="scale(0.015625)"/>
       </defs>
       <use xlink:href="#TimesNewRomanPSMT-33"/>
       <use xlink:href="#TimesNewRomanPSMT-30" x="50"/>
      </g>
     </g>
    </g>
    <g id="xtick_5">
     <g id="line2d_5">
      <g>
       <use xlink:href="#m6d8947062b" x="269.4" y="289.955" style="stroke: #000000; stroke-width: 0.8"/>
      </g>
     </g>
     <g id="text_5">
      <!-- 40 -->
      <g transform="translate(261.4 308.065) scale(0.16 -0.16)">
       <defs>
        <path id="TimesNewRomanPSMT-34" d="M 2978 1563 
L 2978 1119 
L 2409 1119 
L 2409 0 
L 1894 0 
L 1894 1119 
L 100 1119 
L 100 1519 
L 2066 4325 
L 2409 4325 
L 2409 1563 
L 2978 1563 
z
M 1894 1563 
L 1894 3666 
L 406 1563 
L 1894 1563 
z
" transform="scale(0.015625)"/>
       </defs>
       <use xlink:href="#TimesNewRomanPSMT-34"/>
       <use xlink:href="#TimesNewRomanPSMT-30" x="50"/>
      </g>
     </g>
    </g>
    <g id="xtick_6">
     <g id="line2d_6">
      <g>
       <use xlink:href="#m6d8947062b" x="325.2" y="289.955" style="stroke: #000000; stroke-width: 0.8"/>
      </g>
     </g>
     <g id="text_6">
      <!-- 50 -->
      <g transform="translate(317.2 308.065) scale(0.16 -0.16)">
       <defs>
        <path id="TimesNewRomanPSMT-35" d="M 2778 4238 
L 2534 3706 
L 1259 3706 
L 981 3138 
Q 1809 3016 2294 2522 
Q 2709 2097 2709 1522 
Q 2709 1188 2573 903 
Q 2438 619 2231 419 
Q 2025 219 1772 97 
Q 1413 -75 1034 -75 
Q 653 -75 479 54 
Q 306 184 306 341 
Q 306 428 378 495 
Q 450 563 559 563 
Q 641 563 702 538 
Q 763 513 909 409 
Q 1144 247 1384 247 
Q 1750 247 2026 523 
Q 2303 800 2303 1197 
Q 2303 1581 2056 1914 
Q 1809 2247 1375 2428 
Q 1034 2569 447 2591 
L 1259 4238 
L 2778 4238 
z
" transform="scale(0.015625)"/>
       </defs>
       <use xlink:href="#TimesNewRomanPSMT-35"/>
       <use xlink:href="#TimesNewRomanPSMT-30" x="50"/>
      </g>
     </g>
    </g>
    <g id="xtick_7">
     <g id="line2d_7">
      <g>
       <use xlink:href="#m6d8947062b" x="381" y="289.955" style="stroke: #000000; stroke-width: 0.8"/>
      </g>
     </g>
     <g id="text_7">
      <!-- 60 -->
      <g transform="translate(373 308.065) scale(0.16 -0.16)">
       <defs>
        <path id="TimesNewRomanPSMT-36" d="M 2869 4325 
L 2869 4209 
Q 2456 4169 2195 4045 
Q 1934 3922 1679 3669 
Q 1425 3416 1258 3105 
Q 1091 2794 978 2366 
Q 1428 2675 1881 2675 
Q 2316 2675 2634 2325 
Q 2953 1975 2953 1425 
Q 2953 894 2631 456 
Q 2244 -75 1606 -75 
Q 1172 -75 869 213 
Q 275 772 275 1663 
Q 275 2231 503 2743 
Q 731 3256 1154 3653 
Q 1578 4050 1965 4187 
Q 2353 4325 2688 4325 
L 2869 4325 
z
M 925 2138 
Q 869 1716 869 1456 
Q 869 1156 980 804 
Q 1091 453 1309 247 
Q 1469 100 1697 100 
Q 1969 100 2183 356 
Q 2397 613 2397 1088 
Q 2397 1622 2184 2012 
Q 1972 2403 1581 2403 
Q 1463 2403 1327 2353 
Q 1191 2303 925 2138 
z
" transform="scale(0.015625)"/>
       </defs>
       <use xlink:href="#TimesNewRomanPSMT-36"/>
       <use xlink:href="#TimesNewRomanPSMT-30" x="50"/>
      </g>
     </g>
    </g>
    <g id="text_8">
     <!-- Time (s) -->
     <g transform="translate(179.795313 329.375) scale(0.2 -0.2)">
      <defs>
       <path id="TimesNewRomanPSMT-54" d="M 3703 4238 
L 3750 3244 
L 3631 3244 
Q 3597 3506 3538 3619 
Q 3441 3800 3280 3886 
Q 3119 3972 2856 3972 
L 2259 3972 
L 2259 734 
Q 2259 344 2344 247 
Q 2463 116 2709 116 
L 2856 116 
L 2856 0 
L 1059 0 
L 1059 116 
L 1209 116 
Q 1478 116 1591 278 
Q 1659 378 1659 734 
L 1659 3972 
L 1150 3972 
Q 853 3972 728 3928 
Q 566 3869 450 3700 
Q 334 3531 313 3244 
L 194 3244 
L 244 4238 
L 3703 4238 
z
" transform="scale(0.015625)"/>
       <path id="TimesNewRomanPSMT-69" d="M 928 4444 
Q 1059 4444 1151 4351 
Q 1244 4259 1244 4128 
Q 1244 3997 1151 3903 
Q 1059 3809 928 3809 
Q 797 3809 703 3903 
Q 609 3997 609 4128 
Q 609 4259 701 4351 
Q 794 4444 928 4444 
z
M 1188 2947 
L 1188 647 
Q 1188 378 1227 289 
Q 1266 200 1342 156 
Q 1419 113 1622 113 
L 1622 0 
L 231 0 
L 231 113 
Q 441 113 512 153 
Q 584 194 626 287 
Q 669 381 669 647 
L 669 1750 
Q 669 2216 641 2353 
Q 619 2453 572 2492 
Q 525 2531 444 2531 
Q 356 2531 231 2484 
L 188 2597 
L 1050 2947 
L 1188 2947 
z
" transform="scale(0.015625)"/>
       <path id="TimesNewRomanPSMT-6d" d="M 1050 2338 
Q 1363 2650 1419 2697 
Q 1559 2816 1721 2881 
Q 1884 2947 2044 2947 
Q 2313 2947 2506 2790 
Q 2700 2634 2766 2338 
Q 3088 2713 3309 2830 
Q 3531 2947 3766 2947 
Q 3994 2947 4170 2830 
Q 4347 2713 4450 2447 
Q 4519 2266 4519 1878 
L 4519 647 
Q 4519 378 4559 278 
Q 4591 209 4675 161 
Q 4759 113 4950 113 
L 4950 0 
L 3538 0 
L 3538 113 
L 3597 113 
Q 3781 113 3884 184 
Q 3956 234 3988 344 
Q 4000 397 4000 647 
L 4000 1878 
Q 4000 2228 3916 2372 
Q 3794 2572 3525 2572 
Q 3359 2572 3192 2489 
Q 3025 2406 2788 2181 
L 2781 2147 
L 2788 2013 
L 2788 647 
Q 2788 353 2820 281 
Q 2853 209 2943 161 
Q 3034 113 3253 113 
L 3253 0 
L 1806 0 
L 1806 113 
Q 2044 113 2133 169 
Q 2222 225 2256 338 
Q 2272 391 2272 647 
L 2272 1878 
Q 2272 2228 2169 2381 
Q 2031 2581 1784 2581 
Q 1616 2581 1450 2491 
Q 1191 2353 1050 2181 
L 1050 647 
Q 1050 366 1089 281 
Q 1128 197 1204 155 
Q 1281 113 1516 113 
L 1516 0 
L 100 0 
L 100 113 
Q 297 113 375 155 
Q 453 197 493 289 
Q 534 381 534 647 
L 534 1741 
Q 534 2213 506 2350 
Q 484 2453 437 2492 
Q 391 2531 309 2531 
Q 222 2531 100 2484 
L 53 2597 
L 916 2947 
L 1050 2947 
L 1050 2338 
z
" transform="scale(0.015625)"/>
       <path id="TimesNewRomanPSMT-65" d="M 681 1784 
Q 678 1147 991 784 
Q 1303 422 1725 422 
Q 2006 422 2214 576 
Q 2422 731 2563 1106 
L 2659 1044 
Q 2594 616 2278 264 
Q 1963 -88 1488 -88 
Q 972 -88 605 314 
Q 238 716 238 1394 
Q 238 2128 614 2539 
Q 991 2950 1559 2950 
Q 2041 2950 2350 2633 
Q 2659 2316 2659 1784 
L 681 1784 
z
M 681 1966 
L 2006 1966 
Q 1991 2241 1941 2353 
Q 1863 2528 1708 2628 
Q 1553 2728 1384 2728 
Q 1125 2728 920 2526 
Q 716 2325 681 1966 
z
" transform="scale(0.015625)"/>
       <path id="TimesNewRomanPSMT-20" transform="scale(0.015625)"/>
       <path id="TimesNewRomanPSMT-28" d="M 1988 -1253 
L 1988 -1369 
Q 1516 -1131 1200 -813 
Q 750 -359 506 256 
Q 263 872 263 1534 
Q 263 2503 741 3301 
Q 1219 4100 1988 4444 
L 1988 4313 
Q 1603 4100 1356 3731 
Q 1109 3363 987 2797 
Q 866 2231 866 1616 
Q 866 947 969 400 
Q 1050 -31 1165 -292 
Q 1281 -553 1476 -793 
Q 1672 -1034 1988 -1253 
z
" transform="scale(0.015625)"/>
       <path id="TimesNewRomanPSMT-73" d="M 2050 2947 
L 2050 1972 
L 1947 1972 
Q 1828 2431 1642 2597 
Q 1456 2763 1169 2763 
Q 950 2763 815 2647 
Q 681 2531 681 2391 
Q 681 2216 781 2091 
Q 878 1963 1175 1819 
L 1631 1597 
Q 2266 1288 2266 781 
Q 2266 391 1970 151 
Q 1675 -88 1309 -88 
Q 1047 -88 709 6 
Q 606 38 541 38 
Q 469 38 428 -44 
L 325 -44 
L 325 978 
L 428 978 
Q 516 541 762 319 
Q 1009 97 1316 97 
Q 1531 97 1667 223 
Q 1803 350 1803 528 
Q 1803 744 1651 891 
Q 1500 1038 1047 1263 
Q 594 1488 453 1669 
Q 313 1847 313 2119 
Q 313 2472 555 2709 
Q 797 2947 1181 2947 
Q 1350 2947 1591 2875 
Q 1750 2828 1803 2828 
Q 1853 2828 1881 2850 
Q 1909 2872 1947 2947 
L 2050 2947 
z
" transform="scale(0.015625)"/>
       <path id="TimesNewRomanPSMT-29" d="M 144 4313 
L 144 4444 
Q 619 4209 934 3891 
Q 1381 3434 1625 2820 
Q 1869 2206 1869 1541 
Q 1869 572 1392 -226 
Q 916 -1025 144 -1369 
L 144 -1253 
Q 528 -1038 776 -670 
Q 1025 -303 1145 264 
Q 1266 831 1266 1447 
Q 1266 2113 1163 2663 
Q 1084 3094 967 3353 
Q 850 3613 656 3853 
Q 463 4094 144 4313 
z
" transform="scale(0.015625)"/>
      </defs>
      <use xlink:href="#TimesNewRomanPSMT-54"/>
      <use xlink:href="#TimesNewRomanPSMT-69" x="57.583984"/>
      <use xlink:href="#TimesNewRomanPSMT-6d" x="85.367188"/>
      <use xlink:href="#TimesNewRomanPSMT-65" x="163.150391"/>
      <use xlink:href="#TimesNewRomanPSMT-20" x="207.535156"/>
      <use xlink:href="#TimesNewRomanPSMT-28" x="232.535156"/>
      <use xlink:href="#TimesNewRomanPSMT-73" x="265.835938"/>
      <use xlink:href="#TimesNewRomanPSMT-29" x="304.751953"/>
     </g>
    </g>
   </g>
   <g id="matplotlib.axis_2">
    <g id="ytick_1">
     <g id="line2d_8">
      <defs>
       <path id="m584448a543" d="M 0 0 
L -3.5 0 
" style="stroke: #000000; stroke-width: 0.8"/>
      </defs>
      <g>
       <use xlink:href="#m584448a543" x="46.2" y="289.955" style="stroke: #000000; stroke-width: 0.8"/>
      </g>
     </g>
     <g id="text_9">
      <!-- 0 -->
      <g transform="translate(31.2 295.51) scale(0.16 -0.16)">
       <use xlink:href="#TimesNewRomanPSMT-30"/>
      </g>
     </g>
    </g>
    <g id="ytick_2">
     <g id="line2d_9">
      <g>
       <use xlink:href="#m584448a543" x="46.2" y="255.305" style="stroke: #000000; stroke-width: 0.8"/>
      </g>
     </g>
     <g id="text_10">
      <!-- 500 -->
      <g transform="translate(15.2 260.86) scale(0.16 -0.16)">
       <use xlink:href="#TimesNewRomanPSMT-35"/>
       <use xlink:href="#TimesNewRomanPSMT-30" x="50"/>
       <use xlink:href="#TimesNewRomanPSMT-30" x="100"/>
      </g>
     </g>
    </g>
    <g id="ytick_3">
     <g id="line2d_10">
      <g>
       <use xlink:href="#m584448a543" x="46.2" y="220.655" style="stroke: #000000; stroke-width: 0.8"/>
      </g>
     </g>
     <g id="text_11">
      <!-- 1000 -->
      <g transform="translate(7.2 226.21) scale(0.16 -0.16)">
       <use xlink:href="#TimesNewRomanPSMT-31"/>
       <use xlink:href="#TimesNewRomanPSMT-30" x="50"/>
       <use xlink:href="#TimesNewRomanPSMT-30" x="100"/>
       <use xlink:href="#TimesNewRomanPSMT-30" x="150"/>
      </g>
     </g>
    </g>
    <g id="ytick_4">
     <g id="line2d_11">
      <g>
       <use xlink:href="#m584448a543" x="46.2" y="186.005" style="stroke: #000000; stroke-width: 0.8"/>
      </g>
     </g>
     <g id="text_12">
      <!-- 1500 -->
      <g transform="translate(7.2 191.56) scale(0.16 -0.16)">
       <use xlink:href="#TimesNewRomanPSMT-31"/>
       <use xlink:href="#TimesNewRomanPSMT-35" x="50"/>
       <use xlink:href="#TimesNewRomanPSMT-30" x="100"/>
       <use xlink:href="#TimesNewRomanPSMT-30" x="150"/>
      </g>
     </g>
    </g>
    <g id="ytick_5">
     <g id="line2d_12">
      <g>
       <use xlink:href="#m584448a543" x="46.2" y="151.355" style="stroke: #000000; stroke-width: 0.8"/>
      </g>
     </g>
     <g id="text_13">
      <!-- 2000 -->
      <g transform="translate(7.2 156.91) scale(0.16 -0.16)">
       <use xlink:href="#TimesNewRomanPSMT-32"/>
       <use xlink:href="#TimesNewRomanPSMT-30" x="50"/>
       <use xlink:href="#TimesNewRomanPSMT-30" x="100"/>
       <use xlink:href="#TimesNewRomanPSMT-30" x="150"/>
      </g>
     </g>
    </g>
    <g id="ytick_6">
     <g id="line2d_13">
      <g>
       <use xlink:href="#m584448a543" x="46.2" y="116.705" style="stroke: #000000; stroke-width: 0.8"/>
      </g>
     </g>
     <g id="text_14">
      <!-- 2500 -->
      <g transform="translate(7.2 122.26) scale(0.16 -0.16)">
       <use xlink:href="#TimesNewRomanPSMT-32"/>
       <use xlink:href="#TimesNewRomanPSMT-35" x="50"/>
       <use xlink:href="#TimesNewRomanPSMT-30" x="100"/>
       <use xlink:href="#TimesNewRomanPSMT-30" x="150"/>
      </g>
     </g>
    </g>
    <g id="ytick_7">
     <g id="line2d_14">
      <g>
       <use xlink:href="#m584448a543" x="46.2" y="82.055" style="stroke: #000000; stroke-width: 0.8"/>
      </g>
     </g>
     <g id="text_15">
      <!-- 3000 -->
      <g transform="translate(7.2 87.61) scale(0.16 -0.16)">
       <use xlink:href="#TimesNewRomanPSMT-33"/>
       <use xlink:href="#TimesNewRomanPSMT-30" x="50"/>
       <use xlink:href="#TimesNewRomanPSMT-30" x="100"/>
       <use xlink:href="#TimesNewRomanPSMT-30" x="150"/>
      </g>
     </g>
    </g>
    <g id="ytick_8">
     <g id="line2d_15">
      <g>
       <use xlink:href="#m584448a543" x="46.2" y="47.405" style="stroke: #000000; stroke-width: 0.8"/>
      </g>
     </g>
     <g id="text_16">
      <!-- 3500 -->
      <g transform="translate(7.2 52.96) scale(0.16 -0.16)">
       <use xlink:href="#TimesNewRomanPSMT-33"/>
       <use xlink:href="#TimesNewRomanPSMT-35" x="50"/>
       <use xlink:href="#TimesNewRomanPSMT-30" x="100"/>
       <use xlink:href="#TimesNewRomanPSMT-30" x="150"/>
      </g>
     </g>
    </g>
    <g id="ytick_9">
     <g id="line2d_16">
      <g>
       <use xlink:href="#m584448a543" x="46.2" y="12.755" style="stroke: #000000; stroke-width: 0.8"/>
      </g>
     </g>
     <g id="text_17">
      <!-- 4000 -->
      <g transform="translate(7.2 18.31) scale(0.16 -0.16)">
       <use xlink:href="#TimesNewRomanPSMT-34"/>
       <use xlink:href="#TimesNewRomanPSMT-30" x="50"/>
       <use xlink:href="#TimesNewRomanPSMT-30" x="100"/>
       <use xlink:href="#TimesNewRomanPSMT-30" x="150"/>
      </g>
     </g>
    </g>
   </g>
   <g id="line2d_17">
    <path d="M 46.2 245.1179 
L 51.78 234.2378 
L 57.36 215.7193 
L 62.94 191.851225 
L 68.52 165.045985 
L 74.1 138.168365 
L 79.68 100.9508 
L 85.26 69.34538 
L 90.84 43.5473 
L 96.42 29.81204 
L 102 20.6552 
L 107.58 20.6552 
L 113.16 20.6552 
L 118.74 20.6552 
L 124.32 20.6552 
L 129.9 20.6552 
L 135.48 20.6552 
L 141.06 20.6552 
L 146.64 20.6552 
L 152.22 20.6552 
L 157.8 20.6552 
L 163.38 20.6552 
L 168.96 20.6552 
L 174.54 20.6552 
L 180.12 20.6552 
L 185.7 20.6552 
L 191.28 20.6552 
L 196.86 20.6552 
L 202.44 20.6552 
L 208.02 20.6552 
L 213.6 20.6552 
L 219.18 20.6552 
L 224.76 20.6552 
L 230.34 20.6552 
L 235.92 20.6552 
L 241.5 20.6552 
L 247.08 20.6552 
L 252.66 20.6552 
L 258.24 20.6552 
L 263.82 20.6552 
L 269.4 20.6552 
L 274.98 20.6552 
L 280.56 20.6552 
L 286.14 20.6552 
L 291.72 20.6552 
L 297.3 20.6552 
L 302.88 20.6552 
L 308.46 20.6552 
L 314.04 20.6552 
L 319.62 20.6552 
L 325.2 20.6552 
L 330.78 20.6552 
L 336.36 20.6552 
L 341.94 20.6552 
L 341.94 20.6552 
L 347.52 20.6552 
L 353.1 20.6552 
L 353.1 20.6552 
L 358.68 20.6552 
L 364.26 20.6552 
L 369.84 20.6552 
L 375.42 20.6552 
" clip-path="url(#p1aab04a1fc)" style="fill: none; stroke: #1f77b4; stroke-opacity: 0.1; stroke-width: 1.5; stroke-linecap: square"/>
   </g>
   <g id="line2d_18">
    <path d="M 46.2 245.1179 
L 51.78 234.2378 
L 57.36 215.7193 
L 62.94 186.1282 
L 68.52 154.74454 
L 74.1 123.2885 
L 79.68 87.21554 
L 85.26 55.61012 
L 90.84 34.39046 
L 96.42 25.23362 
L 102 20.6552 
L 107.58 20.6552 
L 113.16 20.6552 
L 118.74 20.6552 
L 124.32 20.6552 
L 129.9 20.6552 
L 135.48 20.6552 
L 141.06 20.6552 
L 146.64 20.6552 
L 152.22 20.6552 
L 157.8 20.6552 
L 163.38 20.6552 
L 168.96 20.6552 
L 174.54 20.6552 
L 180.12 20.6552 
L 185.7 20.6552 
L 191.28 20.6552 
L 196.86 20.6552 
L 202.44 20.6552 
L 208.02 20.6552 
L 213.6 20.6552 
L 219.18 20.6552 
L 224.76 20.6552 
L 230.34 20.6552 
L 235.92 20.6552 
L 241.5 20.6552 
L 247.08 20.6552 
L 252.66 20.6552 
L 258.24 20.6552 
L 263.82 20.6552 
L 269.4 20.6552 
L 274.98 20.6552 
L 280.56 20.6552 
L 286.14 20.6552 
L 291.72 20.6552 
L 297.3 20.6552 
L 302.88 20.6552 
L 308.46 20.6552 
L 314.04 20.6552 
L 319.62 20.6552 
L 325.2 20.6552 
L 330.78 20.6552 
L 336.36 20.6552 
L 341.94 20.6552 
L 341.94 20.6552 
L 347.52 20.6552 
L 353.1 20.6552 
L 353.1 20.6552 
L 358.68 20.6552 
L 364.26 20.6552 
L 369.84 20.6552 
L 375.42 20.6552 
" clip-path="url(#p1aab04a1fc)" style="fill: none; stroke: #ff7f0e; stroke-opacity: 0.1; stroke-width: 1.5; stroke-linecap: square"/>
   </g>
   <g id="line2d_19">
    <path d="M 46.2 245.1179 
L 51.78 223.340375 
L 57.36 203.61105 
L 62.94 164.66445 
L 68.52 145.12416 
L 74.1 140.39174 
L 79.68 153.42476 
L 85.26 161.56982 
L 90.84 167.37716 
L 96.42 155.31434 
L 102 125.94962 
L 107.58 81.62072 
L 113.16 44.77622 
L 118.74 25.23362 
L 124.32 20.6552 
L 129.9 20.6552 
L 135.48 20.6552 
L 141.06 20.6552 
L 146.64 20.6552 
L 152.22 20.6552 
L 157.8 20.6552 
L 163.38 20.6552 
L 168.96 20.6552 
L 174.54 20.6552 
L 180.12 20.6552 
L 185.7 20.6552 
L 191.28 20.6552 
L 196.86 20.6552 
L 202.44 20.6552 
L 208.02 20.6552 
L 213.6 20.6552 
L 219.18 20.6552 
L 224.76 20.6552 
L 230.34 20.6552 
L 235.92 20.6552 
L 241.5 20.6552 
L 247.08 20.6552 
L 252.66 20.6552 
L 258.24 20.6552 
L 263.82 20.6552 
L 269.4 20.6552 
L 274.98 20.6552 
L 280.56 20.6552 
L 286.14 20.6552 
L 291.72 20.6552 
L 297.3 20.6552 
L 302.88 20.6552 
L 308.46 20.6552 
L 314.04 20.6552 
L 319.62 20.6552 
L 325.2 20.6552 
L 330.78 20.6552 
L 336.36 20.6552 
L 341.94 20.6552 
L 341.94 20.6552 
L 347.52 20.6552 
L 353.1 20.6552 
L 353.1 20.6552 
L 358.68 20.6552 
L 364.26 20.6552 
L 369.84 20.6552 
L 375.42 20.6552 
" clip-path="url(#p1aab04a1fc)" style="fill: none; stroke: #2ca02c; stroke-opacity: 0.1; stroke-width: 1.5; stroke-linecap: square"/>
   </g>
   <g id="line2d_20">
    <path d="M 46.2 245.1179 
L 51.78 223.340375 
L 57.36 211.24175 
L 62.94 189.464225 
L 68.52 171.596375 
L 74.1 152.760635 
L 79.68 131.7662 
L 85.26 116.80202 
L 90.84 98.48834 
L 96.42 93.90992 
L 102 84.75308 
L 107.58 80.17466 
L 113.16 71.01782 
L 118.74 71.01782 
L 124.32 66.4394 
L 129.9 57.28256 
L 135.48 48.12572 
L 141.06 38.96888 
L 146.64 29.81204 
L 152.22 20.6552 
L 157.8 20.6552 
L 163.38 20.6552 
L 168.96 20.6552 
L 174.54 20.6552 
L 180.12 20.6552 
L 185.7 20.6552 
L 191.28 20.6552 
L 196.86 20.6552 
L 202.44 20.6552 
L 208.02 20.6552 
L 213.6 20.6552 
L 219.18 20.6552 
L 224.76 20.6552 
L 230.34 20.6552 
L 235.92 20.6552 
L 241.5 20.6552 
L 247.08 20.6552 
L 252.66 20.6552 
L 258.24 20.6552 
L 263.82 20.6552 
L 269.4 20.6552 
L 274.98 20.6552 
L 280.56 20.6552 
L 286.14 20.6552 
L 291.72 20.6552 
L 297.3 20.6552 
L 302.88 20.6552 
L 308.46 20.6552 
L 314.04 20.6552 
L 319.62 20.6552 
L 325.2 20.6552 
L 330.78 20.6552 
L 336.36 20.6552 
L 341.94 20.6552 
L 341.94 20.6552 
L 347.52 20.6552 
L 353.1 20.6552 
L 353.1 20.6552 
L 358.68 20.6552 
L 364.26 20.6552 
L 369.84 20.6552 
L 375.42 20.6552 
" clip-path="url(#p1aab04a1fc)" style="fill: none; stroke: #d62728; stroke-opacity: 0.1; stroke-width: 1.5; stroke-linecap: square"/>
   </g>
   <g id="line2d_21">
    <path d="M 46.2 245.1179 
L 51.78 234.2378 
L 57.36 223.35 
L 62.94 193.7589 
L 68.52 175.60692 
L 74.1 167.05376 
L 79.68 173.5772 
L 85.26 166.75808 
L 90.84 157.60124 
L 96.42 135.21272 
L 102 104.67914 
L 107.58 62.08274 
L 113.16 32.71802 
L 118.74 20.6552 
L 124.32 20.6552 
L 129.9 20.6552 
L 135.48 20.6552 
L 141.06 20.6552 
L 146.64 20.6552 
L 152.22 20.6552 
L 157.8 20.6552 
L 163.38 20.6552 
L 168.96 20.6552 
L 174.54 20.6552 
L 180.12 20.6552 
L 185.7 20.6552 
L 191.28 20.6552 
L 196.86 20.6552 
L 202.44 20.6552 
L 208.02 20.6552 
L 213.6 20.6552 
L 219.18 20.6552 
L 224.76 20.6552 
L 230.34 20.6552 
L 235.92 20.6552 
L 241.5 20.6552 
L 247.08 20.6552 
L 252.66 20.6552 
L 258.24 20.6552 
L 263.82 20.6552 
L 269.4 20.6552 
L 274.98 20.6552 
L 280.56 20.6552 
L 286.14 20.6552 
L 291.72 20.6552 
L 297.3 20.6552 
L 302.88 20.6552 
L 308.46 20.6552 
L 314.04 20.6552 
L 319.62 20.6552 
L 325.2 20.6552 
L 330.78 20.6552 
L 336.36 20.6552 
L 341.94 20.6552 
L 341.94 20.6552 
L 347.52 20.6552 
L 353.1 20.6552 
L 353.1 20.6552 
L 358.68 20.6552 
L 364.26 20.6552 
L 369.84 20.6552 
L 375.42 20.6552 
" clip-path="url(#p1aab04a1fc)" style="fill: none; stroke: #9467bd; stroke-opacity: 0.1; stroke-width: 1.5; stroke-linecap: square"/>
   </g>
   <g id="line2d_22">
    <path d="M 46.2 245.1179 
L 51.78 223.340375 
L 57.36 203.61105 
L 62.94 170.387475 
L 68.52 143.362785 
L 74.1 113.844065 
L 79.68 81.40358 
L 85.26 52.70414 
L 90.84 34.39046 
L 96.42 25.23362 
L 102 20.6552 
L 107.58 20.6552 
L 113.16 20.6552 
L 118.74 20.6552 
L 124.32 20.6552 
L 129.9 20.6552 
L 135.48 20.6552 
L 141.06 20.6552 
L 146.64 20.6552 
L 152.22 20.6552 
L 157.8 20.6552 
L 163.38 20.6552 
L 168.96 20.6552 
L 174.54 20.6552 
L 180.12 20.6552 
L 185.7 20.6552 
L 191.28 20.6552 
L 196.86 20.6552 
L 202.44 20.6552 
L 208.02 20.6552 
L 213.6 20.6552 
L 219.18 20.6552 
L 224.76 20.6552 
L 230.34 20.6552 
L 235.92 20.6552 
L 241.5 20.6552 
L 247.08 20.6552 
L 252.66 20.6552 
L 258.24 20.6552 
L 263.82 20.6552 
L 269.4 20.6552 
L 274.98 20.6552 
L 280.56 20.6552 
L 286.14 20.6552 
L 291.72 20.6552 
L 297.3 20.6552 
L 302.88 20.6552 
L 308.46 20.6552 
L 314.04 20.6552 
L 319.62 20.6552 
L 325.2 20.6552 
L 330.78 20.6552 
L 336.36 20.6552 
L 341.94 20.6552 
L 341.94 20.6552 
L 347.52 20.6552 
L 353.1 20.6552 
L 353.1 20.6552 
L 358.68 20.6552 
L 364.26 20.6552 
L 369.84 20.6552 
L 375.42 20.6552 
" clip-path="url(#p1aab04a1fc)" style="fill: none; stroke: #8c564b; stroke-opacity: 0.1; stroke-width: 1.5; stroke-linecap: square"/>
   </g>
   <g id="line2d_23">
    <path d="M 46.2 245.1179 
L 51.78 223.340375 
L 57.36 195.98035 
L 62.94 157.03375 
L 68.52 142.73254 
L 74.1 149.70104 
L 79.68 160.99694 
L 85.26 162.1658 
L 90.84 157.58738 
L 96.42 135.70706 
L 102 97.6937 
L 107.58 55.10192 
L 113.16 29.81204 
L 118.74 20.6552 
L 124.32 20.6552 
L 129.9 20.6552 
L 135.48 20.6552 
L 141.06 20.6552 
L 146.64 20.6552 
L 152.22 20.6552 
L 157.8 20.6552 
L 163.38 20.6552 
L 168.96 20.6552 
L 174.54 20.6552 
L 180.12 20.6552 
L 185.7 20.6552 
L 191.28 20.6552 
L 196.86 20.6552 
L 202.44 20.6552 
L 208.02 20.6552 
L 213.6 20.6552 
L 219.18 20.6552 
L 224.76 20.6552 
L 230.34 20.6552 
L 235.92 20.6552 
L 241.5 20.6552 
L 247.08 20.6552 
L 252.66 20.6552 
L 258.24 20.6552 
L 263.82 20.6552 
L 269.4 20.6552 
L 274.98 20.6552 
L 280.56 20.6552 
L 286.14 20.6552 
L 291.72 20.6552 
L 297.3 20.6552 
L 302.88 20.6552 
L 308.46 20.6552 
L 314.04 20.6552 
L 319.62 20.6552 
L 325.2 20.6552 
L 330.78 20.6552 
L 336.36 20.6552 
L 341.94 20.6552 
L 341.94 20.6552 
L 347.52 20.6552 
L 353.1 20.6552 
L 353.1 20.6552 
L 358.68 20.6552 
L 364.26 20.6552 
L 369.84 20.6552 
L 375.42 20.6552 
" clip-path="url(#p1aab04a1fc)" style="fill: none; stroke: #e377c2; stroke-opacity: 0.1; stroke-width: 1.5; stroke-linecap: square"/>
   </g>
   <g id="line2d_24">
    <path d="M 46.2 245.1179 
L 51.78 245.1179 
L 57.36 235.439 
L 62.94 220.92065 
L 68.52 194.34179 
L 74.1 171.63449 
L 79.68 143.38088 
L 85.26 122.60936 
L 90.84 98.48834 
L 96.42 84.75308 
L 102 66.4394 
L 107.58 52.70414 
L 113.16 34.39046 
L 118.74 25.23362 
L 124.32 20.6552 
L 129.9 20.6552 
L 135.48 20.6552 
L 141.06 20.6552 
L 146.64 20.6552 
L 152.22 20.6552 
L 157.8 20.6552 
L 163.38 20.6552 
L 168.96 20.6552 
L 174.54 20.6552 
L 180.12 20.6552 
L 185.7 20.6552 
L 191.28 20.6552 
L 196.86 20.6552 
L 202.44 20.6552 
L 208.02 20.6552 
L 213.6 20.6552 
L 219.18 20.6552 
L 224.76 20.6552 
L 230.34 20.6552 
L 235.92 20.6552 
L 241.5 20.6552 
L 247.08 20.6552 
L 252.66 20.6552 
L 258.24 20.6552 
L 263.82 20.6552 
L 269.4 20.6552 
L 274.98 20.6552 
L 280.56 20.6552 
L 286.14 20.6552 
L 291.72 20.6552 
L 297.3 20.6552 
L 302.88 20.6552 
L 308.46 20.6552 
L 314.04 20.6552 
L 319.62 20.6552 
L 325.2 20.6552 
L 330.78 20.6552 
L 336.36 20.6552 
L 341.94 20.6552 
L 341.94 20.6552 
L 347.52 20.6552 
L 353.1 20.6552 
L 353.1 20.6552 
L 358.68 20.6552 
L 364.26 20.6552 
L 369.84 20.6552 
L 375.42 20.6552 
" clip-path="url(#p1aab04a1fc)" style="fill: none; stroke: #7f7f7f; stroke-opacity: 0.1; stroke-width: 1.5; stroke-linecap: square"/>
   </g>
   <g id="line2d_25">
    <path d="M 46.2 245.1179 
L 51.78 223.340375 
L 57.36 195.98035 
L 62.94 151.310725 
L 68.52 115.129195 
L 74.1 84.084335 
L 79.68 53.93306 
L 85.26 29.81204 
L 90.84 20.6552 
L 96.42 20.6552 
L 102 20.6552 
L 107.58 20.6552 
L 113.16 20.6552 
L 118.74 20.6552 
L 124.32 20.6552 
L 129.9 20.6552 
L 135.48 20.6552 
L 141.06 20.6552 
L 146.64 20.6552 
L 152.22 20.6552 
L 157.8 20.6552 
L 163.38 20.6552 
L 168.96 20.6552 
L 174.54 20.6552 
L 180.12 20.6552 
L 185.7 20.6552 
L 191.28 20.6552 
L 196.86 20.6552 
L 202.44 20.6552 
L 208.02 20.6552 
L 213.6 20.6552 
L 219.18 20.6552 
L 224.76 20.6552 
L 230.34 20.6552 
L 235.92 20.6552 
L 241.5 20.6552 
L 247.08 20.6552 
L 252.66 20.6552 
L 258.24 20.6552 
L 263.82 20.6552 
L 269.4 20.6552 
L 274.98 20.6552 
L 280.56 20.6552 
L 286.14 20.6552 
L 291.72 20.6552 
L 297.3 20.6552 
L 302.88 20.6552 
L 308.46 20.6552 
L 314.04 20.6552 
L 319.62 20.6552 
L 325.2 20.6552 
L 330.78 20.6552 
L 336.36 20.6552 
L 341.94 20.6552 
L 341.94 20.6552 
L 347.52 20.6552 
L 353.1 20.6552 
L 353.1 20.6552 
L 358.68 20.6552 
L 364.26 20.6552 
L 369.84 20.6552 
L 375.42 20.6552 
" clip-path="url(#p1aab04a1fc)" style="fill: none; stroke: #bcbd22; stroke-opacity: 0.1; stroke-width: 1.5; stroke-linecap: square"/>
   </g>
   <g id="line2d_26">
    <path d="M 46.2 245.1179 
L 51.78 223.340375 
L 57.36 195.98035 
L 62.94 151.310725 
L 68.52 115.129195 
L 74.1 84.084335 
L 79.68 53.93306 
L 85.26 29.81204 
L 90.84 20.6552 
L 96.42 20.6552 
L 102 20.6552 
L 107.58 20.6552 
L 113.16 20.6552 
L 118.74 20.6552 
L 124.32 20.6552 
L 129.9 20.6552 
L 135.48 20.6552 
L 141.06 20.6552 
L 146.64 20.6552 
L 152.22 20.6552 
L 157.8 20.6552 
L 163.38 20.6552 
L 168.96 20.6552 
L 174.54 20.6552 
L 180.12 20.6552 
L 185.7 20.6552 
L 191.28 20.6552 
L 196.86 20.6552 
L 202.44 20.6552 
L 208.02 20.6552 
L 213.6 20.6552 
L 219.18 20.6552 
L 224.76 20.6552 
L 230.34 20.6552 
L 235.92 20.6552 
L 241.5 20.6552 
L 247.08 20.6552 
L 252.66 20.6552 
L 258.24 20.6552 
L 263.82 20.6552 
L 269.4 20.6552 
L 274.98 20.6552 
L 280.56 20.6552 
L 286.14 20.6552 
L 291.72 20.6552 
L 297.3 20.6552 
L 302.88 20.6552 
L 308.46 20.6552 
L 314.04 20.6552 
L 319.62 20.6552 
L 325.2 20.6552 
L 330.78 20.6552 
L 336.36 20.6552 
L 341.94 20.6552 
L 341.94 20.6552 
L 347.52 20.6552 
L 353.1 20.6552 
L 353.1 20.6552 
L 358.68 20.6552 
L 364.26 20.6552 
L 369.84 20.6552 
L 375.42 20.6552 
" clip-path="url(#p1aab04a1fc)" style="fill: none; stroke: #17becf; stroke-opacity: 0.1; stroke-width: 1.5; stroke-linecap: square"/>
   </g>
   <g id="line2d_27">
    <path d="M 46.2 245.1179 
L 51.78 223.340375 
L 57.36 195.98035 
L 62.94 151.310725 
L 68.52 115.129195 
L 74.1 84.084335 
L 79.68 53.93306 
L 85.26 29.81204 
L 90.84 20.6552 
L 96.42 20.6552 
L 102 20.6552 
L 107.58 20.6552 
L 113.16 20.6552 
L 118.74 20.6552 
L 124.32 20.6552 
L 129.9 20.6552 
L 135.48 20.6552 
L 141.06 20.6552 
L 146.64 20.6552 
L 152.22 20.6552 
L 157.8 20.6552 
L 163.38 20.6552 
L 168.96 20.6552 
L 174.54 20.6552 
L 180.12 20.6552 
L 185.7 20.6552 
L 191.28 20.6552 
L 196.86 20.6552 
L 202.44 20.6552 
L 208.02 20.6552 
L 213.6 20.6552 
L 219.18 20.6552 
L 224.76 20.6552 
L 230.34 20.6552 
L 235.92 20.6552 
L 241.5 20.6552 
L 247.08 20.6552 
L 252.66 20.6552 
L 258.24 20.6552 
L 263.82 20.6552 
L 269.4 20.6552 
L 274.98 20.6552 
L 280.56 20.6552 
L 286.14 20.6552 
L 291.72 20.6552 
L 297.3 20.6552 
L 302.88 20.6552 
L 308.46 20.6552 
L 314.04 20.6552 
L 319.62 20.6552 
L 325.2 20.6552 
L 330.78 20.6552 
L 336.36 20.6552 
L 341.94 20.6552 
L 341.94 20.6552 
L 347.52 20.6552 
L 353.1 20.6552 
L 353.1 20.6552 
L 358.68 20.6552 
L 364.26 20.6552 
L 369.84 20.6552 
L 375.42 20.6552 
" clip-path="url(#p1aab04a1fc)" style="fill: none; stroke: #ffa500; stroke-opacity: 0.6; stroke-width: 1.5; stroke-linecap: square"/>
   </g>
   <g id="line2d_28">
    <path d="M 46.2 245.1179 
L 51.78 245.1179 
L 57.36 235.439 
L 62.94 220.92065 
L 68.52 194.34179 
L 74.1 171.63449 
L 79.68 173.5772 
L 85.26 166.75808 
L 90.84 167.37716 
L 96.42 155.31434 
L 102 125.94962 
L 107.58 81.62072 
L 113.16 71.01782 
L 118.74 71.01782 
L 124.32 66.4394 
L 129.9 57.28256 
L 135.48 48.12572 
L 141.06 38.96888 
L 146.64 29.81204 
L 152.22 20.6552 
L 157.8 20.6552 
L 163.38 20.6552 
L 168.96 20.6552 
L 174.54 20.6552 
L 180.12 20.6552 
L 185.7 20.6552 
L 191.28 20.6552 
L 196.86 20.6552 
L 202.44 20.6552 
L 208.02 20.6552 
L 213.6 20.6552 
L 219.18 20.6552 
L 224.76 20.6552 
L 230.34 20.6552 
L 235.92 20.6552 
L 241.5 20.6552 
L 247.08 20.6552 
L 252.66 20.6552 
L 258.24 20.6552 
L 263.82 20.6552 
L 269.4 20.6552 
L 274.98 20.6552 
L 280.56 20.6552 
L 286.14 20.6552 
L 291.72 20.6552 
L 297.3 20.6552 
L 302.88 20.6552 
L 308.46 20.6552 
L 314.04 20.6552 
L 319.62 20.6552 
L 325.2 20.6552 
L 330.78 20.6552 
L 336.36 20.6552 
L 341.94 20.6552 
L 341.94 20.6552 
L 347.52 20.6552 
L 353.1 20.6552 
L 353.1 20.6552 
L 358.68 20.6552 
L 364.26 20.6552 
L 369.84 20.6552 
L 375.42 20.6552 
" clip-path="url(#p1aab04a1fc)" style="fill: none; stroke: #00ffff; stroke-opacity: 0.6; stroke-width: 1.5; stroke-linecap: square"/>
   </g>
   <g id="line2d_29">
    <path d="M 46.2 245.1179 
L 51.78 228.787355 
L 57.36 209.66325 
L 62.94 177.683032 
L 68.52 152.281348 
L 74.1 132.501126 
L 79.68 114.058202 
L 85.26 96.71888 
L 90.84 83.318108 
L 96.42 72.64868 
L 102 58.279094 
L 107.58 43.496018 
L 113.16 31.599056 
L 118.74 26.607146 
L 124.32 25.23362 
L 129.9 24.317936 
L 135.48 23.402252 
L 141.06 22.486568 
L 146.64 21.570884 
L 152.22 20.6552 
L 157.8 20.6552 
L 163.38 20.6552 
L 168.96 20.6552 
L 174.54 20.6552 
L 180.12 20.6552 
L 185.7 20.6552 
L 191.28 20.6552 
L 196.86 20.6552 
L 202.44 20.6552 
L 208.02 20.6552 
L 213.6 20.6552 
L 219.18 20.6552 
L 224.76 20.6552 
L 230.34 20.6552 
L 235.92 20.6552 
L 241.5 20.6552 
L 247.08 20.6552 
L 252.66 20.6552 
L 258.24 20.6552 
L 263.82 20.6552 
L 269.4 20.6552 
L 274.98 20.6552 
L 280.56 20.6552 
L 286.14 20.6552 
L 291.72 20.6552 
L 297.3 20.6552 
L 302.88 20.6552 
L 308.46 20.6552 
L 314.04 20.6552 
L 319.62 20.6552 
L 325.2 20.6552 
L 330.78 20.6552 
L 336.36 20.6552 
L 341.94 20.6552 
L 341.94 20.6552 
L 347.52 20.6552 
L 353.1 20.6552 
L 353.1 20.6552 
L 358.68 20.6552 
L 364.26 20.6552 
L 369.84 20.6552 
L 375.42 20.6552 
" clip-path="url(#p1aab04a1fc)" style="fill: none; stroke: #ff0000; stroke-width: 2; stroke-linecap: square"/>
   </g>
   <g id="patch_3">
    <path d="M 46.2 289.955 
L 46.2 12.755 
" style="fill: none; stroke: #000000; stroke-width: 0.8; stroke-linejoin: miter; stroke-linecap: square"/>
   </g>
   <g id="patch_4">
    <path d="M 381 289.955 
L 381 12.755 
" style="fill: none; stroke: #000000; stroke-width: 0.8; stroke-linejoin: miter; stroke-linecap: square"/>
   </g>
   <g id="patch_5">
    <path d="M 46.2 289.955 
L 381 289.955 
" style="fill: none; stroke: #000000; stroke-width: 0.8; stroke-linejoin: miter; stroke-linecap: square"/>
   </g>
   <g id="patch_6">
    <path d="M 46.2 12.755 
L 381 12.755 
" style="fill: none; stroke: #000000; stroke-width: 0.8; stroke-linejoin: miter; stroke-linecap: square"/>
   </g>
  </g>
  <g id="axes_2">
   <g id="PolyCollection_2">
    <defs>
     <path id="m083b68e26f" d="M 46.2 -50.898125 
L 46.2 -50.898125 
L 51.78 -56.288125 
L 57.36 -60.766343 
L 62.94 -69.572296 
L 68.52 -77.017873 
L 74.1 -85.782272 
L 79.68 -95.477365 
L 85.26 -106.482168 
L 90.84 -115.201769 
L 96.42 -123.279632 
L 102 -130.931435 
L 107.58 -138.128576 
L 113.16 -144.081085 
L 118.74 -148.687231 
L 124.32 -152.936402 
L 129.9 -157.522989 
L 135.48 -161.576912 
L 141.06 -164.404096 
L 146.64 -166.180471 
L 152.22 -167.280304 
L 157.8 -167.819093 
L 163.38 -168.871428 
L 168.96 -171.573995 
L 174.54 -175.699346 
L 180.12 -179.863196 
L 185.7 -183.546382 
L 191.28 -186.40995 
L 196.86 -188.303453 
L 202.44 -189.234455 
L 208.02 -189.498125 
L 213.6 -189.498125 
L 219.18 -189.498125 
L 224.76 -189.498125 
L 230.34 -189.498125 
L 235.92 -189.498125 
L 241.5 -189.498125 
L 247.08 -189.498125 
L 252.66 -189.498125 
L 258.24 -189.498125 
L 263.82 -189.498125 
L 269.4 -189.498125 
L 274.98 -189.498125 
L 280.56 -189.498125 
L 286.14 -189.498125 
L 291.72 -189.498125 
L 297.3 -189.498125 
L 302.88 -189.498125 
L 308.46 -189.498125 
L 314.04 -189.498125 
L 319.62 -189.498125 
L 325.2 -189.498125 
L 330.78 -189.498125 
L 336.36 -189.498125 
L 341.94 -189.498125 
L 341.94 -189.498125 
L 347.52 -189.498125 
L 353.1 -189.498125 
L 353.1 -189.498125 
L 358.68 -189.498125 
L 364.26 -189.498125 
L 369.84 -189.498125 
L 375.42 -189.498125 
L 375.42 -189.498125 
L 375.42 -189.498125 
L 369.84 -189.498125 
L 364.26 -189.498125 
L 358.68 -189.498125 
L 353.1 -189.498125 
L 353.1 -189.498125 
L 347.52 -189.498125 
L 341.94 -189.498125 
L 341.94 -189.498125 
L 336.36 -189.498125 
L 330.78 -189.498125 
L 325.2 -189.498125 
L 319.62 -189.498125 
L 314.04 -189.498125 
L 308.46 -189.498125 
L 302.88 -189.498125 
L 297.3 -189.498125 
L 291.72 -189.498125 
L 286.14 -189.498125 
L 280.56 -189.498125 
L 274.98 -189.498125 
L 269.4 -189.498125 
L 263.82 -189.498125 
L 258.24 -189.498125 
L 252.66 -189.498125 
L 247.08 -189.498125 
L 241.5 -189.498125 
L 235.92 -189.498125 
L 230.34 -189.498125 
L 224.76 -189.498125 
L 219.18 -189.498125 
L 213.6 -189.498125 
L 208.02 -189.498125 
L 202.44 -189.498125 
L 196.86 -189.498125 
L 191.28 -189.684209 
L 185.7 -189.498125 
L 180.12 -189.498125 
L 174.54 -189.690625 
L 168.96 -189.764362 
L 163.38 -189.836874 
L 157.8 -189.971165 
L 152.22 -190.071728 
L 146.64 -189.799812 
L 141.06 -189.618068 
L 135.48 -189.603819 
L 129.9 -189.033692 
L 124.32 -187.213297 
L 118.74 -183.771115 
L 113.16 -178.124346 
L 107.58 -170.156155 
L 102 -159.961538 
L 96.42 -149.025653 
L 90.84 -136.368294 
L 85.26 -122.450535 
L 79.68 -106.899646 
L 74.1 -93.846644 
L 68.52 -82.791896 
L 62.94 -74.311111 
L 57.36 -63.633073 
L 51.78 -58.1131 
L 46.2 -50.898125 
z
" style="stroke: #ff0000; stroke-opacity: 0.3"/>
    </defs>
    <g clip-path="url(#p1aab04a1fc)">
     <use xlink:href="#m083b68e26f" x="0" y="340.853125" style="fill: #ff0000; fill-opacity: 0.3; stroke: #ff0000; stroke-opacity: 0.3"/>
    </g>
   </g>
   <g id="matplotlib.axis_3">
    <g id="ytick_10">
     <g id="line2d_30">
      <defs>
       <path id="meaa1afcdb9" d="M 0 0 
L 3.5 0 
" style="stroke: #000000; stroke-width: 0.8"/>
      </defs>
      <g>
       <use xlink:href="#meaa1afcdb9" x="381" y="289.955" style="stroke: #000000; stroke-width: 0.8"/>
      </g>
     </g>
     <g id="text_18">
      <!-- 0 -->
      <g transform="translate(388 295.51) scale(0.16 -0.16)">
       <use xlink:href="#TimesNewRomanPSMT-30"/>
      </g>
     </g>
    </g>
    <g id="ytick_11">
     <g id="line2d_31">
      <g>
       <use xlink:href="#meaa1afcdb9" x="381" y="243.755" style="stroke: #000000; stroke-width: 0.8"/>
      </g>
     </g>
     <g id="text_19">
      <!-- 10 -->
      <g transform="translate(388 249.31) scale(0.16 -0.16)">
       <use xlink:href="#TimesNewRomanPSMT-31"/>
       <use xlink:href="#TimesNewRomanPSMT-30" x="50"/>
      </g>
     </g>
    </g>
    <g id="ytick_12">
     <g id="line2d_32">
      <g>
       <use xlink:href="#meaa1afcdb9" x="381" y="197.555" style="stroke: #000000; stroke-width: 0.8"/>
      </g>
     </g>
     <g id="text_20">
      <!-- 20 -->
      <g transform="translate(388 203.11) scale(0.16 -0.16)">
       <use xlink:href="#TimesNewRomanPSMT-32"/>
       <use xlink:href="#TimesNewRomanPSMT-30" x="50"/>
      </g>
     </g>
    </g>
    <g id="ytick_13">
     <g id="line2d_33">
      <g>
       <use xlink:href="#meaa1afcdb9" x="381" y="151.355" style="stroke: #000000; stroke-width: 0.8"/>
      </g>
     </g>
     <g id="text_21">
      <!-- 30 -->
      <g transform="translate(388 156.91) scale(0.16 -0.16)">
       <use xlink:href="#TimesNewRomanPSMT-33"/>
       <use xlink:href="#TimesNewRomanPSMT-30" x="50"/>
      </g>
     </g>
    </g>
    <g id="ytick_14">
     <g id="line2d_34">
      <g>
       <use xlink:href="#meaa1afcdb9" x="381" y="105.155" style="stroke: #000000; stroke-width: 0.8"/>
      </g>
     </g>
     <g id="text_22">
      <!-- 40 -->
      <g transform="translate(388 110.71) scale(0.16 -0.16)">
       <use xlink:href="#TimesNewRomanPSMT-34"/>
       <use xlink:href="#TimesNewRomanPSMT-30" x="50"/>
      </g>
     </g>
    </g>
    <g id="ytick_15">
     <g id="line2d_35">
      <g>
       <use xlink:href="#meaa1afcdb9" x="381" y="58.955" style="stroke: #000000; stroke-width: 0.8"/>
      </g>
     </g>
     <g id="text_23">
      <!-- 50 -->
      <g transform="translate(388 64.51) scale(0.16 -0.16)">
       <use xlink:href="#TimesNewRomanPSMT-35"/>
       <use xlink:href="#TimesNewRomanPSMT-30" x="50"/>
      </g>
     </g>
    </g>
    <g id="ytick_16">
     <g id="line2d_36">
      <g>
       <use xlink:href="#meaa1afcdb9" x="381" y="12.755" style="stroke: #000000; stroke-width: 0.8"/>
      </g>
     </g>
     <g id="text_24">
      <!-- 60 -->
      <g transform="translate(388 18.31) scale(0.16 -0.16)">
       <use xlink:href="#TimesNewRomanPSMT-36"/>
       <use xlink:href="#TimesNewRomanPSMT-30" x="50"/>
      </g>
     </g>
    </g>
   </g>
   <g id="line2d_37">
    <path d="M 46.2 289.955 
L 51.78 284.565 
L 57.36 280.086782 
L 62.94 271.280829 
L 68.52 263.616384 
L 74.1 253.513829 
L 79.68 241.32965 
L 85.26 227.212102 
L 90.84 214.441426 
L 96.42 202.91915 
L 102 192.733466 
L 107.58 183.852641 
L 113.16 176.1939 
L 118.74 169.434883 
L 124.32 163.481104 
L 129.9 158.597796 
L 135.48 155.141323 
L 141.06 152.962543 
L 146.64 151.816999 
L 152.22 151.3935 
L 157.8 151.355 
L 163.38 151.355 
L 168.96 151.355 
L 174.54 151.355 
L 180.12 151.355 
L 185.7 151.355 
L 191.28 151.355 
L 196.86 151.355 
L 202.44 151.355 
L 208.02 151.355 
L 213.6 151.355 
L 219.18 151.355 
L 224.76 151.355 
L 230.34 151.355 
L 235.92 151.355 
L 241.5 151.355 
L 247.08 151.355 
L 252.66 151.355 
L 258.24 151.355 
L 263.82 151.355 
L 269.4 151.355 
L 274.98 151.355 
L 280.56 151.355 
L 286.14 151.355 
L 291.72 151.355 
L 297.3 151.355 
L 302.88 151.355 
L 308.46 151.355 
L 314.04 151.355 
L 319.62 151.355 
L 325.2 151.355 
L 330.78 151.355 
L 336.36 151.355 
L 341.94 151.355 
L 341.94 151.355 
L 347.52 151.355 
L 353.1 151.355 
L 353.1 151.355 
L 358.68 151.355 
L 364.26 151.355 
L 369.84 151.355 
L 375.42 151.355 
" clip-path="url(#p1aab04a1fc)" style="fill: none; stroke: #1f77b4; stroke-opacity: 0.1; stroke-width: 1.5; stroke-linecap: square"/>
   </g>
   <g id="line2d_38">
    <path d="M 46.2 289.955 
L 51.78 284.49328 
L 57.36 279.949487 
L 62.94 271.078236 
L 68.52 263.440221 
L 74.1 253.454731 
L 79.68 241.69987 
L 85.26 228.32239 
L 90.84 216.327322 
L 96.42 205.488504 
L 102 196.122753 
L 107.58 188.185937 
L 113.16 181.484316 
L 118.74 175.753129 
L 124.32 170.755302 
L 129.9 166.120274 
L 135.48 161.610048 
L 141.06 157.66331 
L 146.64 154.552276 
L 152.22 152.491623 
L 157.8 151.303638 
L 163.38 151.016251 
L 168.96 151.140709 
L 174.54 151.355 
L 180.12 151.355 
L 185.7 151.355 
L 191.28 151.355 
L 196.86 151.355 
L 202.44 151.355 
L 208.02 151.355 
L 213.6 151.355 
L 219.18 151.355 
L 224.76 151.355 
L 230.34 151.355 
L 235.92 151.355 
L 241.5 151.355 
L 247.08 151.355 
L 252.66 151.355 
L 258.24 151.355 
L 263.82 151.355 
L 269.4 151.355 
L 274.98 151.355 
L 280.56 151.355 
L 286.14 151.355 
L 291.72 151.355 
L 297.3 151.355 
L 302.88 151.355 
L 308.46 151.355 
L 314.04 151.355 
L 319.62 151.355 
L 325.2 151.355 
L 330.78 151.355 
L 336.36 151.355 
L 341.94 151.355 
L 341.94 151.355 
L 347.52 151.355 
L 353.1 151.355 
L 353.1 151.355 
L 358.68 151.355 
L 364.26 151.355 
L 369.84 151.355 
L 375.42 151.355 
" clip-path="url(#p1aab04a1fc)" style="fill: none; stroke: #ff7f0e; stroke-opacity: 0.1; stroke-width: 1.5; stroke-linecap: square"/>
   </g>
   <g id="line2d_39">
    <path d="M 46.2 289.955 
L 51.78 282.877225 
L 57.36 277.457871 
L 62.94 266.982632 
L 68.52 258.639412 
L 74.1 247.437345 
L 79.68 233.953479 
L 85.26 218.40259 
L 90.84 204.484831 
L 96.42 191.827472 
L 102 181.002703 
L 107.58 172.243581 
L 113.16 165.395765 
L 118.74 160.127715 
L 124.32 156.239404 
L 129.9 153.657684 
L 135.48 152.163128 
L 141.06 151.509 
L 146.64 151.355 
L 152.22 151.355 
L 157.8 151.355 
L 163.38 151.355 
L 168.96 151.355 
L 174.54 151.355 
L 180.12 151.355 
L 185.7 151.355 
L 191.28 151.355 
L 196.86 151.355 
L 202.44 151.355 
L 208.02 151.355 
L 213.6 151.355 
L 219.18 151.355 
L 224.76 151.355 
L 230.34 151.355 
L 235.92 151.355 
L 241.5 151.355 
L 247.08 151.355 
L 252.66 151.355 
L 258.24 151.355 
L 263.82 151.355 
L 269.4 151.355 
L 274.98 151.355 
L 280.56 151.355 
L 286.14 151.355 
L 291.72 151.355 
L 297.3 151.355 
L 302.88 151.355 
L 308.46 151.355 
L 314.04 151.355 
L 319.62 151.355 
L 325.2 151.355 
L 330.78 151.355 
L 336.36 151.355 
L 341.94 151.355 
L 341.94 151.355 
L 347.52 151.355 
L 353.1 151.355 
L 353.1 151.355 
L 358.68 151.355 
L 364.26 151.355 
L 369.84 151.355 
L 375.42 151.355 
" clip-path="url(#p1aab04a1fc)" style="fill: none; stroke: #2ca02c; stroke-opacity: 0.1; stroke-width: 1.5; stroke-linecap: square"/>
   </g>
   <g id="line2d_40">
    <path d="M 46.2 289.955 
L 51.78 282.919982 
L 57.36 277.574462 
L 62.94 267.549522 
L 68.52 260.497916 
L 74.1 252.31449 
L 79.68 243.64245 
L 85.26 233.912529 
L 90.84 225.651356 
L 96.42 217.573493 
L 102 209.92169 
L 107.58 202.724549 
L 113.16 196.77204 
L 118.74 192.165894 
L 124.32 187.916723 
L 129.9 183.330136 
L 135.48 179.276213 
L 141.06 176.449029 
L 146.64 174.672654 
L 152.22 173.572821 
L 157.8 173.034032 
L 163.38 171.981697 
L 168.96 169.27913 
L 174.54 165.153779 
L 180.12 160.989929 
L 185.7 157.306743 
L 191.28 154.443175 
L 196.86 152.549672 
L 202.44 151.61867 
L 208.02 151.355 
L 213.6 151.355 
L 219.18 151.355 
L 224.76 151.355 
L 230.34 151.355 
L 235.92 151.355 
L 241.5 151.355 
L 247.08 151.355 
L 252.66 151.355 
L 258.24 151.355 
L 263.82 151.355 
L 269.4 151.355 
L 274.98 151.355 
L 280.56 151.355 
L 286.14 151.355 
L 291.72 151.355 
L 297.3 151.355 
L 302.88 151.355 
L 308.46 151.355 
L 314.04 151.355 
L 319.62 151.355 
L 325.2 151.355 
L 330.78 151.355 
L 336.36 151.355 
L 341.94 151.355 
L 341.94 151.355 
L 347.52 151.355 
L 353.1 151.355 
L 353.1 151.355 
L 358.68 151.355 
L 364.26 151.355 
L 369.84 151.355 
L 375.42 151.355 
" clip-path="url(#p1aab04a1fc)" style="fill: none; stroke: #d62728; stroke-opacity: 0.1; stroke-width: 1.5; stroke-linecap: square"/>
   </g>
   <g id="line2d_41">
    <path d="M 46.2 289.955 
L 51.78 284.540937 
L 57.36 279.922033 
L 62.94 270.947537 
L 68.52 263.112981 
L 74.1 252.580417 
L 79.68 239.351956 
L 85.26 223.756096 
L 90.84 209.3749 
L 96.42 196.301034 
L 102 184.854273 
L 107.58 175.373788 
L 113.16 167.744717 
L 118.74 161.708376 
L 124.32 156.967125 
L 129.9 153.795887 
L 135.48 152.023482 
L 141.06 151.382568 
L 146.64 151.259701 
L 152.22 151.355 
L 157.8 151.355 
L 163.38 151.355 
L 168.96 151.355 
L 174.54 151.355 
L 180.12 151.355 
L 185.7 151.355 
L 191.28 151.355 
L 196.86 151.355 
L 202.44 151.355 
L 208.02 151.355 
L 213.6 151.355 
L 219.18 151.355 
L 224.76 151.355 
L 230.34 151.355 
L 235.92 151.355 
L 241.5 151.355 
L 247.08 151.355 
L 252.66 151.355 
L 258.24 151.355 
L 263.82 151.355 
L 269.4 151.355 
L 274.98 151.355 
L 280.56 151.355 
L 286.14 151.355 
L 291.72 151.355 
L 297.3 151.355 
L 302.88 151.355 
L 308.46 151.355 
L 314.04 151.355 
L 319.62 151.355 
L 325.2 151.355 
L 330.78 151.355 
L 336.36 151.355 
L 341.94 151.355 
L 341.94 151.355 
L 347.52 151.355 
L 353.1 151.355 
L 353.1 151.355 
L 358.68 151.355 
L 364.26 151.355 
L 369.84 151.355 
L 375.42 151.355 
" clip-path="url(#p1aab04a1fc)" style="fill: none; stroke: #9467bd; stroke-opacity: 0.1; stroke-width: 1.5; stroke-linecap: square"/>
   </g>
   <g id="line2d_42">
    <path d="M 46.2 289.955 
L 51.78 282.875175 
L 57.36 277.438958 
L 62.94 266.901962 
L 68.52 258.490532 
L 74.1 247.501317 
L 79.68 234.541413 
L 85.26 219.481548 
L 90.84 205.717971 
L 96.42 192.683513 
L 102 180.891587 
L 107.58 170.69697 
L 113.16 162.728779 
L 118.74 157.08201 
L 124.32 153.639828 
L 129.9 151.819433 
L 135.48 151.249306 
L 141.06 151.235057 
L 146.64 151.355 
L 152.22 151.355 
L 157.8 151.355 
L 163.38 151.355 
L 168.96 151.355 
L 174.54 151.355 
L 180.12 151.355 
L 185.7 151.355 
L 191.28 151.355 
L 196.86 151.355 
L 202.44 151.355 
L 208.02 151.355 
L 213.6 151.355 
L 219.18 151.355 
L 224.76 151.355 
L 230.34 151.355 
L 235.92 151.355 
L 241.5 151.355 
L 247.08 151.355 
L 252.66 151.355 
L 258.24 151.355 
L 263.82 151.355 
L 269.4 151.355 
L 274.98 151.355 
L 280.56 151.355 
L 286.14 151.355 
L 291.72 151.355 
L 297.3 151.355 
L 302.88 151.355 
L 308.46 151.355 
L 314.04 151.355 
L 319.62 151.355 
L 325.2 151.355 
L 330.78 151.355 
L 336.36 151.355 
L 341.94 151.355 
L 341.94 151.355 
L 347.52 151.355 
L 353.1 151.355 
L 353.1 151.355 
L 358.68 151.355 
L 364.26 151.355 
L 369.84 151.355 
L 375.42 151.355 
" clip-path="url(#p1aab04a1fc)" style="fill: none; stroke: #8c564b; stroke-opacity: 0.1; stroke-width: 1.5; stroke-linecap: square"/>
   </g>
   <g id="line2d_43">
    <path d="M 46.2 289.955 
L 51.78 282.852121 
L 57.36 277.854448 
L 62.94 268.295994 
L 68.52 260.934232 
L 74.1 250.511485 
L 79.68 237.611588 
L 85.26 222.601498 
L 90.84 208.969323 
L 96.42 196.34062 
L 102 185.389203 
L 107.58 176.326522 
L 113.16 168.774672 
L 118.74 162.494992 
L 124.32 157.516776 
L 129.9 154.117059 
L 135.48 152.165428 
L 141.06 151.426547 
L 146.64 151.265166 
L 152.22 151.355 
L 157.8 151.355 
L 163.38 151.355 
L 168.96 151.355 
L 174.54 151.355 
L 180.12 151.355 
L 185.7 151.355 
L 191.28 151.355 
L 196.86 151.355 
L 202.44 151.355 
L 208.02 151.355 
L 213.6 151.355 
L 219.18 151.355 
L 224.76 151.355 
L 230.34 151.355 
L 235.92 151.355 
L 241.5 151.355 
L 247.08 151.355 
L 252.66 151.355 
L 258.24 151.355 
L 263.82 151.355 
L 269.4 151.355 
L 274.98 151.355 
L 280.56 151.355 
L 286.14 151.355 
L 291.72 151.355 
L 297.3 151.355 
L 302.88 151.355 
L 308.46 151.355 
L 314.04 151.355 
L 319.62 151.355 
L 325.2 151.355 
L 330.78 151.355 
L 336.36 151.355 
L 341.94 151.355 
L 341.94 151.355 
L 347.52 151.355 
L 353.1 151.355 
L 353.1 151.355 
L 358.68 151.355 
L 364.26 151.355 
L 369.84 151.355 
L 375.42 151.355 
" clip-path="url(#p1aab04a1fc)" style="fill: none; stroke: #e377c2; stroke-opacity: 0.1; stroke-width: 1.5; stroke-linecap: square"/>
   </g>
   <g id="line2d_44">
    <path d="M 46.2 289.955 
L 51.78 284.420625 
L 57.36 279.877996 
L 62.94 271.036822 
L 68.52 263.835252 
L 74.1 255.070853 
L 79.68 245.37576 
L 85.26 234.370957 
L 90.84 224.553307 
L 96.42 215.420909 
L 102 207.175579 
L 107.58 198.772201 
L 113.16 190.692485 
L 118.74 184.179459 
L 124.32 180.010572 
L 129.9 177.327505 
L 135.48 175.762544 
L 141.06 175.023055 
L 146.64 173.92321 
L 152.22 171.192339 
L 157.8 166.720336 
L 163.38 162.13807 
L 168.96 157.888447 
L 174.54 154.671907 
L 180.12 152.399383 
L 185.7 151.39915 
L 191.28 151.168916 
L 196.86 151.355 
L 202.44 151.355 
L 208.02 151.355 
L 213.6 151.355 
L 219.18 151.355 
L 224.76 151.355 
L 230.34 151.355 
L 235.92 151.355 
L 241.5 151.355 
L 247.08 151.355 
L 252.66 151.355 
L 258.24 151.355 
L 263.82 151.355 
L 269.4 151.355 
L 274.98 151.355 
L 280.56 151.355 
L 286.14 151.355 
L 291.72 151.355 
L 297.3 151.355 
L 302.88 151.355 
L 308.46 151.355 
L 314.04 151.355 
L 319.62 151.355 
L 325.2 151.355 
L 330.78 151.355 
L 336.36 151.355 
L 341.94 151.355 
L 341.94 151.355 
L 347.52 151.355 
L 353.1 151.355 
L 353.1 151.355 
L 358.68 151.355 
L 364.26 151.355 
L 369.84 151.355 
L 375.42 151.355 
" clip-path="url(#p1aab04a1fc)" style="fill: none; stroke: #7f7f7f; stroke-opacity: 0.1; stroke-width: 1.5; stroke-linecap: square"/>
   </g>
   <g id="line2d_45">
    <path d="M 46.2 289.955 
L 51.78 282.740025 
L 57.36 277.220052 
L 62.94 266.542014 
L 68.52 258.080484 
L 74.1 247.049569 
L 79.68 234.086556 
L 85.26 219.320523 
L 90.84 206.241172 
L 96.42 194.247244 
L 102 183.788012 
L 107.58 175.186596 
L 113.16 168.301055 
L 118.74 162.951093 
L 124.32 158.844456 
L 129.9 155.684026 
L 135.48 153.35885 
L 141.06 151.801569 
L 146.64 151.053313 
L 152.22 150.781397 
L 157.8 150.88196 
L 163.38 151.111166 
L 168.96 151.355 
L 174.54 151.355 
L 180.12 151.355 
L 185.7 151.355 
L 191.28 151.355 
L 196.86 151.355 
L 202.44 151.355 
L 208.02 151.355 
L 213.6 151.355 
L 219.18 151.355 
L 224.76 151.355 
L 230.34 151.355 
L 235.92 151.355 
L 241.5 151.355 
L 247.08 151.355 
L 252.66 151.355 
L 258.24 151.355 
L 263.82 151.355 
L 269.4 151.355 
L 274.98 151.355 
L 280.56 151.355 
L 286.14 151.355 
L 291.72 151.355 
L 297.3 151.355 
L 302.88 151.355 
L 308.46 151.355 
L 314.04 151.355 
L 319.62 151.355 
L 325.2 151.355 
L 330.78 151.355 
L 336.36 151.355 
L 341.94 151.355 
L 341.94 151.355 
L 347.52 151.355 
L 353.1 151.355 
L 353.1 151.355 
L 358.68 151.355 
L 364.26 151.355 
L 369.84 151.355 
L 375.42 151.355 
" clip-path="url(#p1aab04a1fc)" style="fill: none; stroke: #bcbd22; stroke-opacity: 0.1; stroke-width: 1.5; stroke-linecap: square"/>
   </g>
   <g id="line2d_46">
    <path d="M 46.2 289.955 
L 51.78 282.760312 
L 57.36 277.235741 
L 62.94 266.55151 
L 68.52 258.061229 
L 74.1 247.006481 
L 79.68 234.062169 
L 85.26 219.542333 
L 90.84 207.204842 
L 96.42 196.673387 
L 102 188.092608 
L 107.58 181.453811 
L 113.16 175.878436 
L 118.74 171.037921 
L 124.32 166.7627 
L 129.9 163.358571 
L 135.48 160.461763 
L 141.06 157.928308 
L 146.64 155.859961 
L 152.22 154.122294 
L 157.8 152.61107 
L 163.38 151.426416 
L 168.96 151.088763 
L 174.54 151.1625 
L 180.12 151.355 
L 185.7 151.355 
L 191.28 151.355 
L 196.86 151.355 
L 202.44 151.355 
L 208.02 151.355 
L 213.6 151.355 
L 219.18 151.355 
L 224.76 151.355 
L 230.34 151.355 
L 235.92 151.355 
L 241.5 151.355 
L 247.08 151.355 
L 252.66 151.355 
L 258.24 151.355 
L 263.82 151.355 
L 269.4 151.355 
L 274.98 151.355 
L 280.56 151.355 
L 286.14 151.355 
L 291.72 151.355 
L 297.3 151.355 
L 302.88 151.355 
L 308.46 151.355 
L 314.04 151.355 
L 319.62 151.355 
L 325.2 151.355 
L 330.78 151.355 
L 336.36 151.355 
L 341.94 151.355 
L 341.94 151.355 
L 347.52 151.355 
L 353.1 151.355 
L 353.1 151.355 
L 358.68 151.355 
L 364.26 151.355 
L 369.84 151.355 
L 375.42 151.355 
" clip-path="url(#p1aab04a1fc)" style="fill: none; stroke: #17becf; stroke-opacity: 0.1; stroke-width: 1.5; stroke-linecap: square"/>
   </g>
   <g id="line2d_47">
    <path d="M 46.2 289.955 
L 51.78 282.740025 
L 57.36 277.220052 
L 62.94 266.542014 
L 68.52 258.061229 
L 74.1 247.006481 
L 79.68 233.953479 
L 85.26 218.40259 
L 90.84 204.484831 
L 96.42 191.827472 
L 102 180.891587 
L 107.58 170.69697 
L 113.16 162.728779 
L 118.74 157.08201 
L 124.32 153.639828 
L 129.9 151.819433 
L 135.48 151.249306 
L 141.06 151.235057 
L 146.64 151.053313 
L 152.22 150.781397 
L 157.8 150.88196 
L 163.38 151.016251 
L 168.96 151.088763 
L 174.54 151.1625 
L 180.12 151.355 
L 185.7 151.355 
L 191.28 151.168916 
L 196.86 151.355 
L 202.44 151.355 
L 208.02 151.355 
L 213.6 151.355 
L 219.18 151.355 
L 224.76 151.355 
L 230.34 151.355 
L 235.92 151.355 
L 241.5 151.355 
L 247.08 151.355 
L 252.66 151.355 
L 258.24 151.355 
L 263.82 151.355 
L 269.4 151.355 
L 274.98 151.355 
L 280.56 151.355 
L 286.14 151.355 
L 291.72 151.355 
L 297.3 151.355 
L 302.88 151.355 
L 308.46 151.355 
L 314.04 151.355 
L 319.62 151.355 
L 325.2 151.355 
L 330.78 151.355 
L 336.36 151.355 
L 341.94 151.355 
L 341.94 151.355 
L 347.52 151.355 
L 353.1 151.355 
L 353.1 151.355 
L 358.68 151.355 
L 364.26 151.355 
L 369.84 151.355 
L 375.42 151.355 
" clip-path="url(#p1aab04a1fc)" style="fill: none; stroke: #ffa500; stroke-opacity: 0.6; stroke-width: 1.5; stroke-linecap: square"/>
   </g>
   <g id="line2d_48">
    <path d="M 46.2 289.955 
L 51.78 284.565 
L 57.36 280.086782 
L 62.94 271.280829 
L 68.52 263.835252 
L 74.1 255.070853 
L 79.68 245.37576 
L 85.26 234.370957 
L 90.84 225.651356 
L 96.42 217.573493 
L 102 209.92169 
L 107.58 202.724549 
L 113.16 196.77204 
L 118.74 192.165894 
L 124.32 187.916723 
L 129.9 183.330136 
L 135.48 179.276213 
L 141.06 176.449029 
L 146.64 174.672654 
L 152.22 173.572821 
L 157.8 173.034032 
L 163.38 171.981697 
L 168.96 169.27913 
L 174.54 165.153779 
L 180.12 160.989929 
L 185.7 157.306743 
L 191.28 154.443175 
L 196.86 152.549672 
L 202.44 151.61867 
L 208.02 151.355 
L 213.6 151.355 
L 219.18 151.355 
L 224.76 151.355 
L 230.34 151.355 
L 235.92 151.355 
L 241.5 151.355 
L 247.08 151.355 
L 252.66 151.355 
L 258.24 151.355 
L 263.82 151.355 
L 269.4 151.355 
L 274.98 151.355 
L 280.56 151.355 
L 286.14 151.355 
L 291.72 151.355 
L 297.3 151.355 
L 302.88 151.355 
L 308.46 151.355 
L 314.04 151.355 
L 319.62 151.355 
L 325.2 151.355 
L 330.78 151.355 
L 336.36 151.355 
L 341.94 151.355 
L 341.94 151.355 
L 347.52 151.355 
L 353.1 151.355 
L 353.1 151.355 
L 358.68 151.355 
L 364.26 151.355 
L 369.84 151.355 
L 375.42 151.355 
" clip-path="url(#p1aab04a1fc)" style="fill: none; stroke: #00ffff; stroke-opacity: 0.6; stroke-width: 1.5; stroke-linecap: square"/>
   </g>
   <g id="line2d_49">
    <path d="M 46.2 289.955 
L 51.78 283.504468 
L 57.36 278.461783 
L 62.94 268.716706 
L 68.52 260.870864 
L 74.1 250.644052 
L 79.68 238.565489 
L 85.26 224.692257 
L 90.84 212.296645 
L 96.42 200.947533 
L 102 190.997187 
L 107.58 182.48166 
L 113.16 175.396617 
L 118.74 169.693547 
L 124.32 165.213399 
L 129.9 161.780837 
L 135.48 159.321209 
L 141.06 157.738099 
L 146.64 156.711328 
L 152.22 155.897397 
L 157.8 155.132604 
L 163.38 154.44486 
L 168.96 153.752705 
L 174.54 153.047319 
L 180.12 152.422931 
L 185.7 151.954589 
L 191.28 151.645209 
L 196.86 151.474467 
L 202.44 151.381367 
L 208.02 151.355 
L 213.6 151.355 
L 219.18 151.355 
L 224.76 151.355 
L 230.34 151.355 
L 235.92 151.355 
L 241.5 151.355 
L 247.08 151.355 
L 252.66 151.355 
L 258.24 151.355 
L 263.82 151.355 
L 269.4 151.355 
L 274.98 151.355 
L 280.56 151.355 
L 286.14 151.355 
L 291.72 151.355 
L 297.3 151.355 
L 302.88 151.355 
L 308.46 151.355 
L 314.04 151.355 
L 319.62 151.355 
L 325.2 151.355 
L 330.78 151.355 
L 336.36 151.355 
L 341.94 151.355 
L 341.94 151.355 
L 347.52 151.355 
L 353.1 151.355 
L 353.1 151.355 
L 358.68 151.355 
L 364.26 151.355 
L 369.84 151.355 
L 375.42 151.355 
" clip-path="url(#p1aab04a1fc)" style="fill: none; stroke: #0000ff; stroke-width: 2; stroke-linecap: square"/>
   </g>
   <g id="line2d_50">
    <path d="M 152.22 289.955 
L 152.22 12.755 
" clip-path="url(#p1aab04a1fc)" style="fill: none; stroke-dasharray: 5.55,2.4; stroke-dashoffset: 0; stroke: #ff0000; stroke-width: 1.5"/>
   </g>
   <g id="line2d_51">
    <path d="M 208.02 289.955 
L 208.02 12.755 
" clip-path="url(#p1aab04a1fc)" style="fill: none; stroke-dasharray: 5.55,2.4; stroke-dashoffset: 0; stroke: #0000ff; stroke-width: 1.5"/>
   </g>
   <g id="patch_7">
    <path d="M 46.2 289.955 
L 46.2 12.755 
" style="fill: none; stroke: #000000; stroke-width: 0.8; stroke-linejoin: miter; stroke-linecap: square"/>
   </g>
   <g id="patch_8">
    <path d="M 381 289.955 
L 381 12.755 
" style="fill: none; stroke: #000000; stroke-width: 0.8; stroke-linejoin: miter; stroke-linecap: square"/>
   </g>
   <g id="patch_9">
    <path d="M 46.2 289.955 
L 381 289.955 
" style="fill: none; stroke: #000000; stroke-width: 0.8; stroke-linejoin: miter; stroke-linecap: square"/>
   </g>
   <g id="patch_10">
    <path d="M 46.2 12.755 
L 381 12.755 
" style="fill: none; stroke: #000000; stroke-width: 0.8; stroke-linejoin: miter; stroke-linecap: square"/>
   </g>
  </g>
 </g>
 <defs>
  <clipPath id="p1aab04a1fc">
   <rect x="46.2" y="12.755" width="334.8" height="277.2"/>
  </clipPath>
 </defs>
</svg>
