<?xml version="1.0" encoding="utf-8" standalone="no"?>
<!DOCTYPE svg PUBLIC "-//W3C//DTD SVG 1.1//EN"
  "http://www.w3.org/Graphics/SVG/1.1/DTD/svg11.dtd">
<svg xmlns:xlink="http://www.w3.org/1999/xlink" width="1080pt" height="432pt" viewBox="0 0 1080 432" xmlns="http://www.w3.org/2000/svg" version="1.1">
 <metadata>
  <rdf:RDF xmlns:dc="http://purl.org/dc/elements/1.1/" xmlns:cc="http://creativecommons.org/ns#" xmlns:rdf="http://www.w3.org/1999/02/22-rdf-syntax-ns#">
   <cc:Work>
    <dc:type rdf:resource="http://purl.org/dc/dcmitype/StillImage"/>
    <dc:date>2024-04-12T06:17:42.474622</dc:date>
    <dc:format>image/svg+xml</dc:format>
    <dc:creator>
     <cc:Agent>
      <dc:title>Matplotlib v3.8.3, https://matplotlib.org/</dc:title>
     </cc:Agent>
    </dc:creator>
   </cc:Work>
  </rdf:RDF>
 </metadata>
 <defs>
  <style type="text/css">*{stroke-linejoin: round; stroke-linecap: butt}</style>
 </defs>
 <g id="figure_1">
  <g id="patch_1">
   <path d="M 0 432 
L 1080 432 
L 1080 0 
L 0 0 
z
" style="fill: #ffffff"/>
  </g>
  <g id="axes_1">
   <g id="patch_2">
    <path d="M 135 384.48 
L 972 384.48 
L 972 51.84 
L 135 51.84 
z
" style="fill: #ffffff"/>
   </g>
   <g id="matplotlib.axis_1">
    <g id="xtick_1">
     <g id="line2d_1">
      <defs>
       <path id="m8150b8b0c2" d="M 0 0 
L 0 3.5 
" style="stroke: #000000; stroke-width: 0.8"/>
      </defs>
      <g>
       <use xlink:href="#m8150b8b0c2" x="173.045455" y="384.48" style="stroke: #000000; stroke-width: 0.8"/>
      </g>
     </g>
     <g id="text_1">
      <!-- 0 -->
      <g transform="translate(170.545455 398.628438) scale(0.1 -0.1)">
       <defs>
        <path id="Times New Roman-30" d="M 1600 4225
Q 1250 4225 1012 3687 
Q 775 3150 775 2250 
Q 775 1300 1012 775 
Q 1250 250 1600 250 
Q 1975 250 2187 775 
Q 2400 1300 2400 2250 
Q 2400 3150 2200 3687 
Q 2000 4225 1600 4225 
z
M 1600 50 
Q 1050 50 675 625 
Q 300 1200 300 2250 
Q 300 3225 662 3825 
Q 1025 4425 1600 4425 
Q 2150 4425 2512 3850 
Q 2875 3275 2875 2250 
Q 2875 1225 2512 637 
Q 2150 50 1600 50 
z
" transform="scale(0.015625)"/>
       </defs>
       <use xlink:href="#Times New Roman-30"/>
      </g>
     </g>
    </g>
    <g id="xtick_2">
     <g id="line2d_2">
      <g>
       <use xlink:href="#m8150b8b0c2" x="300.075353" y="384.48" style="stroke: #000000; stroke-width: 0.8"/>
      </g>
     </g>
     <g id="text_2">
      <!-- 100 -->
      <g transform="translate(292.575353 398.628438) scale(0.1 -0.1)">
       <defs>
        <path id="Times New Roman-31" d="M 1825 4450
L 1825 650 
Q 1825 450 1950 350 
Q 2075 250 2300 250 
L 2550 250 
L 2550 100 
L 725 100 
L 725 250 
L 950 250 
Q 1200 250 1312 350 
Q 1425 450 1425 650 
L 1425 3675 
Q 1425 3775 1362 3837 
Q 1300 3900 1175 3900 
L 725 3900 
L 725 4050 
L 950 4050 
Q 1250 4050 1437 4150 
Q 1625 4250 1725 4450 
L 1825 4450 
z
" transform="scale(0.015625)"/>
       </defs>
       <use xlink:href="#Times New Roman-31"/>
       <use xlink:href="#Times New Roman-30" x="50"/>
       <use xlink:href="#Times New Roman-30" x="100"/>
      </g>
     </g>
    </g>
    <g id="xtick_3">
     <g id="line2d_3">
      <g>
       <use xlink:href="#m8150b8b0c2" x="427.105251" y="384.48" style="stroke: #000000; stroke-width: 0.8"/>
      </g>
     </g>
     <g id="text_3">
      <!-- 200 -->
      <g transform="translate(419.605251 398.628438) scale(0.1 -0.1)">
       <defs>
        <path id="Times New Roman-32" d="M 2325 3325
Q 2325 3775 2125 4012 
Q 1925 4250 1525 4250 
Q 1225 4250 1012 4087 
Q 800 3925 800 3675 
Q 800 3525 900 3425 
Q 975 3325 975 3225 
Q 975 3100 912 3037 
Q 850 2975 725 2975 
Q 575 2975 487 3062 
Q 400 3150 400 3350 
Q 400 3875 775 4150 
Q 1150 4425 1575 4425 
Q 2175 4425 2462 4125 
Q 2750 3825 2750 3375 
Q 2750 3075 2612 2775 
Q 2475 2475 2175 2200 
Q 1450 1500 1062 1062 
Q 675 625 600 475 
L 2075 475 
Q 2300 475 2450 650 
Q 2600 825 2650 1175 
L 2800 1175 
L 2650 100 
L 325 100 
L 325 425 
Q 450 650 737 1000 
Q 1025 1350 1500 1825 
Q 1925 2250 2125 2625 
Q 2325 3000 2325 3325 
z
" transform="scale(0.015625)"/>
       </defs>
       <use xlink:href="#Times New Roman-32"/>
       <use xlink:href="#Times New Roman-30" x="50"/>
       <use xlink:href="#Times New Roman-30" x="100"/>
      </g>
     </g>
    </g>
    <g id="xtick_4">
     <g id="line2d_4">
      <g>
       <use xlink:href="#m8150b8b0c2" x="554.135149" y="384.48" style="stroke: #000000; stroke-width: 0.8"/>
      </g>
     </g>
     <g id="text_4">
      <!-- 300 -->
      <g transform="translate(546.635149 398.628438) scale(0.1 -0.1)">
       <defs>
        <path id="Times New Roman-33" d="M 2800 1250
Q 2800 775 2450 412 
Q 2100 50 1475 50 
Q 1025 50 700 300 
Q 375 550 375 875 
Q 375 1025 475 1137 
Q 575 1250 675 1250 
Q 825 1250 887 1137 
Q 950 1025 950 950 
Q 950 825 900 750 
Q 850 650 850 575 
Q 850 425 1037 325 
Q 1225 225 1450 225 
Q 1900 225 2125 487 
Q 2350 750 2350 1300 
Q 2350 1750 2112 2025 
Q 1875 2300 1225 2300 
L 1225 2475 
Q 1725 2475 1962 2712 
Q 2200 2950 2200 3375 
Q 2200 3725 2012 3987 
Q 1825 4250 1425 4250 
Q 1250 4250 1050 4162 
Q 850 4075 850 3875 
Q 850 3675 900 3625 
Q 950 3575 950 3500 
Q 950 3375 900 3300 
Q 850 3225 725 3225 
Q 625 3225 537 3300 
Q 450 3375 450 3575 
Q 450 3950 775 4187 
Q 1100 4425 1525 4425 
Q 2025 4425 2325 4112 
Q 2625 3800 2625 3450 
Q 2625 3075 2437 2812 
Q 2250 2550 1850 2425 
Q 2400 2225 2600 1900 
Q 2800 1575 2800 1250 
z
" transform="scale(0.015625)"/>
       </defs>
       <use xlink:href="#Times New Roman-33"/>
       <use xlink:href="#Times New Roman-30" x="50"/>
       <use xlink:href="#Times New Roman-30" x="100"/>
      </g>
     </g>
    </g>
    <g id="xtick_5">
     <g id="line2d_5">
      <g>
       <use xlink:href="#m8150b8b0c2" x="681.165048" y="384.48" style="stroke: #000000; stroke-width: 0.8"/>
      </g>
     </g>
     <g id="text_5">
      <!-- 400 -->
      <g transform="translate(673.665048 398.628438) scale(0.1 -0.1)">
       <defs>
        <path id="Times New Roman-34" d="M 2300 575
Q 2300 400 2400 325 
Q 2500 250 2675 250 
L 2900 250 
L 2900 100 
L 1250 100 
L 1250 250 
L 1525 250 
Q 1725 250 1812 325 
Q 1900 400 1900 575 
L 1900 1400 
L 225 1400 
L 225 1525 
L 2050 4425 
L 2300 4425 
L 2300 1550 
L 2975 1550 
L 2975 1400 
L 2300 1400 
L 2300 575 
z
M 1875 3800 
L 450 1550 
L 1900 1550 
L 1900 3800 
L 1875 3800 
z
" transform="scale(0.015625)"/>
       </defs>
       <use xlink:href="#Times New Roman-34"/>
       <use xlink:href="#Times New Roman-30" x="50"/>
       <use xlink:href="#Times New Roman-30" x="100"/>
      </g>
     </g>
    </g>
    <g id="xtick_6">
     <g id="line2d_6">
      <g>
       <use xlink:href="#m8150b8b0c2" x="808.194946" y="384.48" style="stroke: #000000; stroke-width: 0.8"/>
      </g>
     </g>
     <g id="text_6">
      <!-- 500 -->
      <g transform="translate(800.694946 398.628438) scale(0.1 -0.1)">
       <defs>
        <path id="Times New Roman-35" d="M 1725 2850
Q 2200 2850 2500 2487 
Q 2800 2125 2800 1525 
Q 2800 850 2487 450 
Q 2175 50 1525 50 
Q 1075 50 725 312 
Q 375 575 375 950 
Q 375 1100 462 1212 
Q 550 1325 700 1325 
Q 850 1325 900 1225 
Q 950 1125 950 1050 
Q 950 900 875 825 
Q 800 725 800 625 
Q 800 425 1037 325 
Q 1275 225 1550 225 
Q 1950 225 2162 550 
Q 2375 875 2375 1475 
Q 2375 1975 2187 2287 
Q 2000 2600 1625 2600 
Q 1350 2600 1150 2500 
Q 950 2400 775 2075 
L 550 2100 
L 675 4375 
L 2725 4375 
L 2650 4000 
L 850 4000 
L 750 2350 
Q 1000 2700 1237 2775 
Q 1475 2850 1725 2850 
z
" transform="scale(0.015625)"/>
       </defs>
       <use xlink:href="#Times New Roman-35"/>
       <use xlink:href="#Times New Roman-30" x="50"/>
       <use xlink:href="#Times New Roman-30" x="100"/>
      </g>
     </g>
    </g>
    <g id="xtick_7">
     <g id="line2d_7">
      <g>
       <use xlink:href="#m8150b8b0c2" x="935.224844" y="384.48" style="stroke: #000000; stroke-width: 0.8"/>
      </g>
     </g>
     <g id="text_7">
      <!-- 600 -->
      <g transform="translate(927.724844 398.628438) scale(0.1 -0.1)">
       <defs>
        <path id="Times New Roman-36" d="M 775 1800
Q 775 1050 1037 637 
Q 1300 225 1675 225 
Q 2050 225 2250 500 
Q 2450 775 2450 1525 
Q 2450 2025 2237 2300 
Q 2025 2575 1725 2575 
Q 1450 2575 1212 2412 
Q 975 2250 775 1800 
z
M 1750 2825 
Q 2350 2825 2612 2425 
Q 2875 2025 2875 1525 
Q 2875 775 2512 412 
Q 2150 50 1675 50 
Q 1000 50 650 562 
Q 300 1075 300 2050 
Q 300 3200 725 3812 
Q 1150 4425 1875 4425 
Q 2225 4425 2437 4225 
Q 2650 4025 2650 3875 
Q 2650 3725 2587 3650 
Q 2525 3575 2375 3575 
Q 2250 3575 2187 3637 
Q 2125 3700 2125 3825 
Q 2125 3875 2150 3925 
Q 2150 3975 2150 4025 
Q 2150 4125 2075 4187 
Q 2000 4250 1800 4250 
Q 1375 4250 1075 3862 
Q 775 3475 775 2175 
Q 925 2500 1187 2662 
Q 1450 2825 1750 2825 
z
" transform="scale(0.015625)"/>
       </defs>
       <use xlink:href="#Times New Roman-36"/>
       <use xlink:href="#Times New Roman-30" x="50"/>
       <use xlink:href="#Times New Roman-30" x="100"/>
      </g>
     </g>
    </g>
   </g>
   <g id="matplotlib.axis_2">
    <g id="ytick_1">
     <g id="line2d_8">
      <defs>
       <path id="m3af6986802" d="M 0 0 
L -3.5 0 
" style="stroke: #000000; stroke-width: 0.8"/>
      </defs>
      <g>
       <use xlink:href="#m3af6986802" x="135" y="370.984159" style="stroke: #000000; stroke-width: 0.8"/>
      </g>
     </g>
     <g id="text_8">
      <!-- 0 -->
      <g transform="translate(123 374.558378) scale(0.1 -0.1)">
       <use xlink:href="#Times New Roman-30"/>
      </g>
     </g>
    </g>
    <g id="ytick_2">
     <g id="line2d_9">
      <g>
       <use xlink:href="#m3af6986802" x="135" y="308.032248" style="stroke: #000000; stroke-width: 0.8"/>
      </g>
     </g>
     <g id="text_9">
      <!-- 1000 -->
      <g transform="translate(108 311.606466) scale(0.1 -0.1)">
       <use xlink:href="#Times New Roman-31"/>
       <use xlink:href="#Times New Roman-30" x="50"/>
       <use xlink:href="#Times New Roman-30" x="100"/>
       <use xlink:href="#Times New Roman-30" x="150"/>
      </g>
     </g>
    </g>
    <g id="ytick_3">
     <g id="line2d_10">
      <g>
       <use xlink:href="#m3af6986802" x="135" y="245.080336" style="stroke: #000000; stroke-width: 0.8"/>
      </g>
     </g>
     <g id="text_10">
      <!-- 2000 -->
      <g transform="translate(108 248.654555) scale(0.1 -0.1)">
       <use xlink:href="#Times New Roman-32"/>
       <use xlink:href="#Times New Roman-30" x="50"/>
       <use xlink:href="#Times New Roman-30" x="100"/>
       <use xlink:href="#Times New Roman-30" x="150"/>
      </g>
     </g>
    </g>
    <g id="ytick_4">
     <g id="line2d_11">
      <g>
       <use xlink:href="#m3af6986802" x="135" y="182.128424" style="stroke: #000000; stroke-width: 0.8"/>
      </g>
     </g>
     <g id="text_11">
      <!-- 3000 -->
      <g transform="translate(108 185.702643) scale(0.1 -0.1)">
       <use xlink:href="#Times New Roman-33"/>
       <use xlink:href="#Times New Roman-30" x="50"/>
       <use xlink:href="#Times New Roman-30" x="100"/>
       <use xlink:href="#Times New Roman-30" x="150"/>
      </g>
     </g>
    </g>
    <g id="ytick_5">
     <g id="line2d_12">
      <g>
       <use xlink:href="#m3af6986802" x="135" y="119.176512" style="stroke: #000000; stroke-width: 0.8"/>
      </g>
     </g>
     <g id="text_12">
      <!-- 4000 -->
      <g transform="translate(108 122.750731) scale(0.1 -0.1)">
       <use xlink:href="#Times New Roman-34"/>
       <use xlink:href="#Times New Roman-30" x="50"/>
       <use xlink:href="#Times New Roman-30" x="100"/>
       <use xlink:href="#Times New Roman-30" x="150"/>
      </g>
     </g>
    </g>
    <g id="ytick_6">
     <g id="line2d_13">
      <g>
       <use xlink:href="#m3af6986802" x="135" y="56.224601" style="stroke: #000000; stroke-width: 0.8"/>
      </g>
     </g>
     <g id="text_13">
      <!-- 5000 -->
      <g transform="translate(108 59.798819) scale(0.1 -0.1)">
       <use xlink:href="#Times New Roman-35"/>
       <use xlink:href="#Times New Roman-30" x="50"/>
       <use xlink:href="#Times New Roman-30" x="100"/>
       <use xlink:href="#Times New Roman-30" x="150"/>
      </g>
     </g>
    </g>
    <g id="text_14">
     <!-- Bitrate (kbps) -->
     <g transform="translate(102.710938 253.16) rotate(-90) scale(0.1 -0.1)">
      <defs>
       <path id="Times New Roman-42" d="M 100 100
L 100 250 
L 300 250 
Q 425 250 475 300 
Q 525 350 525 450 
L 525 4025 
Q 525 4125 475 4175 
Q 425 4225 300 4225 
L 150 4225 
L 150 4375 
L 1600 4375 
Q 2200 4375 2487 4137 
Q 2775 3900 2775 3400 
Q 2775 3050 2625 2825 
Q 2475 2600 2000 2425 
Q 2575 2250 2775 1925 
Q 2975 1600 2975 1200 
Q 2975 700 2625 400 
Q 2275 100 1675 100 
L 100 100 
z
M 1600 250 
Q 2025 250 2262 512 
Q 2500 775 2500 1250 
Q 2500 1800 2250 2062 
Q 2000 2325 1500 2325 
L 925 2325 
L 925 450 
Q 925 350 987 300 
Q 1050 250 1150 250 
L 1600 250 
z
M 2350 3400 
Q 2350 3850 2100 4037 
Q 1850 4225 1450 4225 
L 1150 4225 
Q 1050 4225 987 4175 
Q 925 4125 925 4025 
L 925 2475 
L 1575 2475 
Q 1850 2475 2100 2700 
Q 2350 2925 2350 3400 
z
" transform="scale(0.015625)"/>
       <path id="Times New Roman-69" d="M 1425 2525
Q 1425 2625 1375 2687 
Q 1325 2750 1200 2750 
L 675 2750 
L 675 2900 
L 925 2900 
Q 1150 2900 1350 2937 
Q 1550 2975 1725 3075 
L 1775 3075 
L 1775 450 
Q 1775 350 1837 300 
Q 1900 250 2000 250 
L 2525 250 
L 2525 100 
L 675 100 
L 675 250 
L 1200 250 
Q 1325 250 1375 300 
Q 1425 350 1425 450 
L 1425 2525 
z
M 1725 3025 
L 1725 3025 
z
M 1625 4425 
Q 1750 4425 1850 4337 
Q 1950 4250 1950 4125 
Q 1950 4000 1850 3900 
Q 1750 3800 1625 3800 
Q 1500 3800 1400 3900 
Q 1300 4000 1300 4125 
Q 1300 4250 1400 4337 
Q 1500 4425 1625 4425 
z
" transform="scale(0.015625)"/>
       <path id="Times New Roman-74" d="M 1500 900
Q 1500 550 1625 425 
Q 1750 300 2000 300 
Q 2250 300 2400 462 
Q 2550 625 2600 925 
L 2725 875 
Q 2675 525 2462 300 
Q 2250 75 1900 75 
Q 1525 75 1337 300 
Q 1150 525 1150 1000 
L 1150 2750 
L 400 2750 
L 400 2900 
L 600 2900 
Q 900 2900 1087 3087 
Q 1275 3275 1325 3675 
L 1350 3875 
L 1500 3875 
L 1500 2900 
L 2500 2900 
L 2500 2750 
L 1500 2750 
L 1500 900 
z
" transform="scale(0.015625)"/>
       <path id="Times New Roman-72" d="M 1275 2125
Q 1525 2525 1812 2737 
Q 2100 2950 2400 2950 
Q 2650 2950 2787 2837 
Q 2925 2725 2925 2575 
Q 2925 2450 2862 2375 
Q 2800 2300 2675 2300 
Q 2550 2300 2487 2375 
Q 2425 2450 2450 2575 
Q 2450 2650 2425 2700 
Q 2400 2750 2275 2750 
Q 2075 2750 1787 2500 
Q 1500 2250 1275 1800 
L 1275 450 
Q 1275 350 1337 300 
Q 1400 250 1500 250 
L 2050 250 
L 2050 100 
L 200 100 
L 200 250 
L 700 250 
Q 825 250 875 300 
Q 925 350 925 450 
L 925 2525 
Q 925 2625 875 2687 
Q 825 2750 700 2750 
L 225 2750 
L 225 2900 
L 425 2900 
Q 600 2900 837 2937 
Q 1075 2975 1200 3025 
L 1275 3025 
L 1275 2125 
z
" transform="scale(0.015625)"/>
       <path id="Times New Roman-61" d="M 1225 75
Q 775 75 525 287 
Q 275 500 275 775 
Q 275 1225 662 1512 
Q 1050 1800 2200 1925 
L 2200 2225 
Q 2200 2475 2087 2637 
Q 1975 2800 1575 2800 
Q 1150 2800 975 2662 
Q 800 2525 850 2375 
Q 875 2325 875 2275 
Q 875 2225 837 2150 
Q 800 2075 650 2075 
Q 550 2075 487 2137 
Q 425 2200 425 2325 
Q 425 2550 750 2750 
Q 1075 2950 1550 2950 
Q 2050 2950 2300 2762 
Q 2550 2575 2550 2225 
L 2550 575 
Q 2550 375 2587 337 
Q 2625 300 2725 300 
Q 2850 300 2900 412 
Q 2950 525 2950 725 
L 3075 725 
Q 3075 375 2950 237 
Q 2825 100 2625 100 
Q 2450 100 2350 175 
Q 2250 250 2200 425 
Q 1950 250 1737 162 
Q 1525 75 1225 75 
z
M 700 850 
Q 700 625 837 437 
Q 975 250 1275 250 
Q 1500 250 1725 337 
Q 1950 425 2200 600 
L 2200 1775 
Q 1350 1675 1025 1437 
Q 700 1200 700 850 
z
" transform="scale(0.015625)"/>
       <path id="Times New Roman-65" d="M 2400 1650
Q 2425 2200 2212 2487 
Q 2000 2775 1650 2775 
Q 1275 2775 1037 2475 
Q 800 2175 800 1650 
L 2400 1650 
z
M 800 1500 
Q 800 825 1062 537 
Q 1325 250 1750 250 
Q 2075 250 2300 437 
Q 2525 625 2625 900 
L 2750 850 
Q 2675 575 2412 312 
Q 2150 50 1700 50 
Q 1125 50 762 425 
Q 400 800 400 1500 
Q 400 2125 762 2537 
Q 1125 2950 1650 2950 
Q 2125 2950 2475 2625 
Q 2825 2300 2825 1500 
L 800 1500 
z
" transform="scale(0.015625)"/>
       <path id="Times New Roman-20" d="M 0 0
Q 0 0 0 0 
z
" transform="scale(0.015625)"/>
       <path id="Times New Roman-28" d="M 2900 5025
Q 2325 4425 2037 3737 
Q 1750 3050 1750 2300 
Q 1750 1525 2037 850 
Q 2325 175 2900 -425 
L 2775 -550 
Q 2075 75 1725 787 
Q 1375 1500 1375 2300 
Q 1375 3075 1725 3787 
Q 2075 4500 2775 5150 
L 2900 5025 
z
" transform="scale(0.015625)"/>
       <path id="Times New Roman-6b" d="M 1675 1900
L 2625 425 
Q 2700 325 2762 287 
Q 2825 250 2900 250 
L 3000 250 
L 3000 100 
L 1975 100 
L 1975 250 
L 2050 250 
Q 2175 250 2225 287 
Q 2275 325 2200 425 
L 1425 1650 
L 925 1125 
L 925 450 
Q 925 350 987 300 
Q 1050 250 1150 250 
L 1275 250 
L 1275 100 
L 225 100 
L 225 250 
L 350 250 
Q 475 250 525 300 
Q 575 350 575 450 
L 575 4025 
Q 575 4125 525 4175 
Q 475 4225 350 4225 
L 200 4225 
L 200 4375 
L 425 4375 
Q 575 4375 687 4425 
Q 800 4475 875 4575 
L 925 4575 
L 925 1400 
L 1975 2525 
Q 2025 2625 2012 2687 
Q 2000 2750 1900 2750 
L 1750 2750 
L 1750 2900 
L 2800 2900 
L 2800 2750 
L 2675 2750 
Q 2600 2750 2487 2712 
Q 2375 2675 2275 2575 
L 1675 1900 
z
M 2450 2750 
L 2450 2750 
z
M 2175 2750 
L 2175 2750 
z
M 2300 250 
L 2300 250 
z
M 2750 250 
L 2750 250 
z
" transform="scale(0.015625)"/>
       <path id="Times New Roman-62" d="M 875 2325
Q 1000 2600 1275 2762 
Q 1550 2925 1800 2925 
Q 2325 2925 2587 2562 
Q 2850 2200 2850 1500 
Q 2850 800 2512 437 
Q 2175 75 1675 75 
Q 1425 75 1212 162 
Q 1000 250 850 400 
L 625 100 
L 525 100 
L 525 4025 
Q 525 4125 475 4175 
Q 425 4225 300 4225 
L 150 4225 
L 150 4375 
L 375 4375 
Q 500 4375 625 4425 
Q 750 4475 875 4575 
L 875 2325 
z
M 875 925 
Q 875 650 1062 450 
Q 1250 250 1625 250 
Q 2075 250 2262 562 
Q 2450 875 2450 1500 
Q 2450 2100 2287 2412 
Q 2125 2725 1775 2725 
Q 1475 2725 1250 2550 
Q 1025 2375 875 1925 
L 875 925 
z
" transform="scale(0.015625)"/>
       <path id="Times New Roman-70" d="M 1150 -675
L 1325 -675 
L 1325 -825 
L 175 -825 
L 175 -675 
L 325 -675 
Q 450 -675 500 -625 
Q 550 -575 550 -450 
L 550 2500 
Q 550 2600 500 2662 
Q 450 2725 325 2725 
L 175 2725 
L 175 2875 
L 400 2875 
Q 525 2875 637 2900 
Q 750 2925 850 3000 
L 900 3000 
L 900 2425 
Q 1075 2675 1287 2800 
Q 1500 2925 1750 2925 
Q 2250 2925 2575 2587 
Q 2900 2250 2900 1525 
Q 2900 825 2550 450 
Q 2200 75 1725 75 
Q 1450 75 1262 162 
Q 1075 250 900 425 
L 900 -450 
Q 900 -575 975 -625 
Q 1050 -675 1150 -675 
z
M 900 750 
Q 1025 500 1212 375 
Q 1400 250 1650 250 
Q 2000 250 2250 562 
Q 2500 875 2500 1525 
Q 2500 2125 2312 2425 
Q 2125 2725 1750 2725 
Q 1525 2725 1300 2587 
Q 1075 2450 900 2150 
L 900 750 
z
" transform="scale(0.015625)"/>
       <path id="Times New Roman-73" d="M 625 2175
Q 625 2550 912 2750 
Q 1200 2950 1600 2950 
Q 1825 2950 2025 2900 
Q 2225 2825 2300 2825 
Q 2375 2825 2425 2850 
Q 2475 2875 2550 2950 
L 2650 2125 
L 2500 2100 
Q 2400 2425 2162 2612 
Q 1925 2800 1625 2800 
Q 1300 2800 1112 2675 
Q 925 2550 925 2325 
Q 925 2125 1012 2012 
Q 1100 1900 1325 1850 
Q 1500 1775 1775 1700 
Q 2025 1600 2250 1500 
Q 2450 1400 2587 1237 
Q 2725 1075 2725 875 
Q 2725 500 2462 287 
Q 2200 75 1700 75 
Q 1375 75 1225 150 
Q 1050 200 950 200 
Q 875 200 787 162 
Q 700 125 600 75 
L 525 1000 
L 675 1025 
Q 750 625 1000 425 
Q 1250 225 1700 225 
Q 2050 225 2237 350 
Q 2425 475 2425 725 
Q 2425 900 2325 1012 
Q 2225 1125 2125 1175 
Q 1875 1275 1575 1400 
Q 1275 1500 1050 1600 
Q 825 1700 725 1850 
Q 625 2000 625 2175 
z
" transform="scale(0.015625)"/>
       <path id="Times New Roman-29" d="M 275 5025
L 400 5150 
Q 1100 4500 1450 3787 
Q 1800 3075 1800 2300 
Q 1800 1500 1450 787 
Q 1100 75 400 -550 
L 275 -425 
Q 850 175 1137 850 
Q 1425 1525 1425 2300 
Q 1425 3050 1137 3737 
Q 850 4425 275 5025 
z
" transform="scale(0.015625)"/>
      </defs>
      <use xlink:href="#Times New Roman-42"/>
      <use xlink:href="#Times New Roman-69" x="50"/>
      <use xlink:href="#Times New Roman-74" x="100"/>
      <use xlink:href="#Times New Roman-72" x="150"/>
      <use xlink:href="#Times New Roman-61" x="200"/>
      <use xlink:href="#Times New Roman-74" x="250"/>
      <use xlink:href="#Times New Roman-65" x="300"/>
      <use xlink:href="#Times New Roman-20" x="350"/>
      <use xlink:href="#Times New Roman-28" x="400"/>
      <use xlink:href="#Times New Roman-6b" x="450"/>
      <use xlink:href="#Times New Roman-62" x="500"/>
      <use xlink:href="#Times New Roman-70" x="550"/>
      <use xlink:href="#Times New Roman-73" x="600"/>
      <use xlink:href="#Times New Roman-29" x="650"/>
     </g>
    </g>
   </g>
   <g id="line2d_14">
    <path d="M 173.045455 346.181106 
L 174.315754 346.181106 
L 175.586053 362.10794 
L 179.396949 362.10794 
L 180.667248 330.254272 
L 187.018743 330.254272 
L 188.289042 302.17772 
L 194.640537 302.17772 
L 195.910836 251.123719 
L 234.019806 251.123719 
L 235.290105 188.738375 
L 236.560404 188.738375 
L 237.830703 126.35303 
L 237.830703 251.123719 
L 245.452497 251.123719 
L 246.722796 126.35303 
L 247.993095 251.123719 
L 250.533693 251.123719 
L 251.803992 126.35303 
L 253.07429 251.123719 
L 253.07429 251.123719 
L 254.344589 251.123719 
L 254.344589 251.123719 
L 255.614888 126.35303 
L 255.614888 126.35303 
L 256.885187 251.123719 
L 256.885187 251.123719 
L 258.155486 251.123719 
L 258.155486 126.35303 
L 269.588177 126.35303 
L 269.588177 126.35303 
L 270.858476 251.123719 
L 277.209971 251.123719 
L 278.48027 126.35303 
L 278.48027 126.35303 
L 279.750569 251.123719 
L 279.750569 251.123719 
L 286.102064 251.123719 
L 286.102064 251.123719 
L 287.372363 126.35303 
L 287.372363 126.35303 
L 288.642662 251.123719 
L 292.453559 251.123719 
L 292.453559 251.123719 
L 293.723858 330.254272 
L 300.075353 330.254272 
L 301.345652 302.17772 
L 306.426848 302.17772 
L 307.697147 251.123719 
L 322.940735 251.123719 
L 324.211034 330.254272 
L 325.481333 330.254272 
L 326.751632 362.10794 
L 343.265518 362.10794 
L 343.265518 362.10794 
L 344.535817 330.254272 
L 348.346714 330.254272 
L 349.617013 302.17772 
L 357.238807 302.17772 
L 358.509106 251.123719 
L 359.779405 251.123719 
L 361.049704 126.35303 
L 362.320003 126.35303 
L 363.590302 251.123719 
L 363.590302 251.123719 
L 367.401199 251.123719 
L 368.671498 188.738375 
L 369.941797 188.738375 
L 369.941797 126.35303 
L 372.482395 126.35303 
L 373.752694 251.123719 
L 381.374488 251.123719 
L 383.915086 126.35303 
L 404.239869 126.35303 
L 404.239869 126.35303 
L 404.239869 251.123719 
L 408.050766 251.123719 
L 408.050766 251.123719 
L 409.321065 126.35303 
L 409.321065 126.35303 
L 410.591364 251.123719 
L 410.591364 251.123719 
L 411.861663 251.123719 
L 411.861663 126.35303 
L 477.917211 126.35303 
L 479.187509 251.123719 
L 479.187509 251.123719 
L 494.431097 251.123719 
L 494.431097 251.123719 
L 495.701396 126.35303 
L 498.241994 251.123719 
L 503.32319 251.123719 
L 504.593489 126.35303 
L 505.863788 251.123719 
L 514.755881 251.123719 
L 517.296479 126.35303 
L 518.566778 251.123719 
L 518.566778 251.123719 
L 532.540067 251.123719 
L 533.810366 126.35303 
L 533.810366 251.123719 
L 535.080665 251.123719 
L 535.080665 251.123719 
L 536.350964 126.35303 
L 537.621263 251.123719 
L 542.702459 251.123719 
L 543.972758 126.35303 
L 543.972758 126.35303 
L 561.756943 126.35303 
L 563.027242 251.123719 
L 564.297541 251.123719 
L 564.297541 251.123719 
L 565.56784 126.35303 
L 570.649036 126.35303 
L 571.919335 251.123719 
L 575.730232 251.123719 
L 577.000531 188.738375 
L 577.000531 126.35303 
L 578.27083 251.123719 
L 583.352026 251.123719 
L 583.352026 126.35303 
L 584.622325 251.123719 
L 588.433222 251.123719 
L 588.433222 251.123719 
L 589.703521 126.35303 
L 589.703521 126.35303 
L 590.97382 251.123719 
L 599.865913 251.123719 
L 601.136212 126.35303 
L 602.406511 251.123719 
L 607.487707 251.123719 
L 607.487707 251.123719 
L 608.758006 302.17772 
L 611.298604 302.17772 
L 616.3798 251.123719 
L 617.650099 251.123719 
L 618.920398 330.254272 
L 618.920398 330.254272 
L 631.623387 330.254272 
L 631.623387 302.17772 
L 637.974882 302.17772 
L 639.245181 251.123719 
L 655.759068 251.123719 
L 655.759068 126.35303 
L 658.299666 126.35303 
L 659.569965 251.123719 
L 667.191759 251.123719 
L 667.191759 251.123719 
L 668.462058 126.35303 
L 668.462058 126.35303 
L 687.516543 126.35303 
L 687.516543 126.35303 
L 688.786842 251.123719 
L 691.32744 251.123719 
L 692.597739 126.35303 
L 693.868038 251.123719 
L 696.408636 251.123719 
L 696.408636 251.123719 
L 697.678935 126.35303 
L 700.219533 188.738375 
L 701.489832 188.738375 
L 701.489832 188.738375 
L 702.760131 126.35303 
L 728.16611 126.35303 
L 728.16611 126.35303 
L 729.436409 251.123719 
L 730.706708 251.123719 
L 730.706708 251.123719 
L 731.977007 126.35303 
L 731.977007 126.35303 
L 733.247306 251.123719 
L 739.598801 251.123719 
L 739.598801 251.123719 
L 740.8691 126.35303 
L 740.8691 251.123719 
L 756.112688 251.123719 
L 757.382987 302.17772 
L 759.923585 302.17772 
L 765.004781 251.123719 
L 766.27508 302.17772 
L 771.356276 302.17772 
L 772.626575 330.254272 
L 772.626575 330.254272 
L 776.437472 330.254272 
L 777.707771 362.10794 
L 782.788966 362.10794 
L 784.059265 330.254272 
L 805.654348 330.254272 
L 805.654348 302.17772 
L 809.465245 302.17772 
L 810.735544 251.123719 
L 810.735544 251.123719 
L 819.627637 251.123719 
L 819.627637 251.123719 
L 819.627637 126.35303 
L 820.897936 251.123719 
L 820.897936 251.123719 
L 829.790029 251.123719 
L 829.790029 126.35303 
L 831.060328 126.35303 
L 831.060328 126.35303 
L 832.330627 251.123719 
L 838.682122 251.123719 
L 841.22272 126.35303 
L 842.493019 126.35303 
L 843.763318 188.738375 
L 848.844514 188.738375 
L 848.844514 251.123719 
L 856.466307 251.123719 
L 860.277204 126.35303 
L 861.547503 251.123719 
L 879.331689 251.123719 
L 879.331689 251.123719 
L 880.601988 188.738375 
L 883.142586 188.738375 
L 884.412885 251.123719 
L 895.845576 251.123719 
L 897.115875 188.738375 
L 897.115875 251.123719 
L 904.737669 251.123719 
L 904.737669 126.35303 
L 906.007968 251.123719 
L 912.359463 251.123719 
L 913.629762 302.17772 
L 913.629762 302.17772 
L 914.900061 251.123719 
L 914.900061 251.123719 
L 925.062453 251.123719 
L 927.603051 330.254272 
L 927.603051 330.254272 
L 930.143649 330.254272 
L 930.143649 302.17772 
L 933.954545 302.17772 
L 933.954545 302.17772 
" clip-path="url(#pa29daaeac1)" style="fill: none; stroke: #ff0000; stroke-width: 1.5; stroke-linecap: square"/>
   </g>
   <g id="line2d_15">
    <path d="M 173.045455 350.776596 
L 174.315754 347.833594 
L 175.586053 346.772155 
L 176.856351 343.703249 
L 178.12665 341.661509 
L 180.667248 333.913877 
L 183.207846 324.273841 
L 185.748444 318.927125 
L 187.018743 315.317882 
L 189.559341 306.403891 
L 189.559341 300.561954 
L 190.82964 295.349536 
L 190.82964 288.777356 
L 193.370238 277.349486 
L 194.640537 272.703635 
L 195.910836 267.113505 
L 197.181135 260.650442 
L 199.721733 253.251494 
L 202.262331 235.87257 
L 204.802929 227.256551 
L 206.073228 219.186116 
L 207.343527 210.091663 
L 208.613826 202.533237 
L 211.154424 185.460679 
L 212.424723 176.991548 
L 213.695022 170.805474 
L 216.23562 170.755112 
L 217.505919 171.43919 
L 217.505919 173.017184 
L 218.776218 168.48045 
L 220.046517 162.35313 
L 221.316816 153.942755 
L 221.316816 151.403694 
L 222.587115 150.518171 
L 226.398012 151.38271 
L 227.668311 147.710516 
L 228.93861 138.926625 
L 230.208909 124.275617 
L 231.479208 107.887136 
L 231.479208 96.161293 
L 234.019806 88.577686 
L 235.290105 91.922531 
L 236.560404 113.83819 
L 237.830703 142.464523 
L 237.830703 168.740651 
L 239.101002 175.879398 
L 241.6416 192.402176 
L 242.911899 193.83748 
L 244.182198 189.271368 
L 245.452497 166.83111 
L 246.722796 172.819935 
L 247.993095 179.941894 
L 249.263394 182.934209 
L 250.533693 171.753949 
L 251.803992 177.755365 
L 253.07429 184.491219 
L 253.07429 182.057079 
L 254.344589 168.169887 
L 254.344589 161.089895 
L 255.614888 150.253773 
L 255.614888 132.744748 
L 256.885187 120.981134 
L 256.885187 132.635631 
L 258.155486 158.920153 
L 258.155486 187.177167 
L 259.425785 201.987654 
L 260.696084 198.424576 
L 267.047579 178.943057 
L 268.317878 155.478781 
L 269.588177 142.028056 
L 269.588177 145.712842 
L 270.858476 156.053742 
L 272.128775 167.821553 
L 273.399074 174.54062 
L 275.939672 177.06709 
L 277.209971 175.904578 
L 278.48027 179.203259 
L 278.48027 211.636084 
L 279.750569 225.523275 
L 279.750569 233.438429 
L 281.020868 232.49415 
L 281.020868 226.597655 
L 282.291167 217.666877 
L 282.291167 214.175144 
L 283.561466 215.644022 
L 283.561466 220.092624 
L 284.831765 224.050201 
L 284.831765 226.55149 
L 286.102064 228.603722 
L 286.102064 230.160733 
L 287.372363 235.532629 
L 287.372363 243.724771 
L 288.642662 252.412135 
L 289.912961 258.627587 
L 291.18326 263.416129 
L 292.453559 266.752581 
L 292.453559 268.737664 
L 293.723858 271.033311 
L 294.994157 275.104201 
L 296.264456 280.795054 
L 298.805054 289.507598 
L 300.075353 293.473569 
L 302.615951 303.205934 
L 305.156549 313.316011 
L 307.697147 322.364299 
L 322.940735 326.89264 
L 324.211034 331.324455 
L 325.481333 335.055405 
L 326.751632 338.026735 
L 329.292229 339.373906 
L 330.562528 338.84511 
L 331.832827 336.264082 
L 333.103126 332.847891 
L 334.373425 328.630113 
L 334.373425 324.504664 
L 335.643724 320.383413 
L 335.643724 317.202243 
L 336.914023 314.046254 
L 336.914023 311.356109 
L 338.184322 308.77508 
L 343.265518 305.077705 
L 343.265518 299.798138 
L 344.535817 293.3015 
L 347.076415 287.937997 
L 347.076415 283.909075 
L 348.346714 280.635576 
L 349.617013 275.863821 
L 350.887312 269.635778 
L 350.887312 261.397471 
L 352.157611 251.749042 
L 355.968508 240.656915 
L 357.238807 232.019913 
L 359.779405 217.058342 
L 361.049704 210.507146 
L 362.320003 205.664046 
L 363.590302 200.359298 
L 363.590302 193.115631 
L 364.860601 185.985278 
L 367.401199 177.860285 
L 368.671498 170.318645 
L 369.941797 161.845318 
L 369.941797 156.29296 
L 371.212096 149.683009 
L 371.212096 143.731955 
L 372.482395 136.479895 
L 373.752694 131.578039 
L 377.563591 125.660559 
L 377.563591 120.804869 
L 380.104189 110.426197 
L 381.374488 111.559331 
L 383.915086 117.392875 
L 385.185385 125.026843 
L 386.455684 125.731905 
L 387.725983 122.156236 
L 388.996282 114.148753 
L 390.266581 105.163417 
L 391.53688 94.977798 
L 392.807179 89.106483 
L 394.077478 86.945134 
L 395.347777 88.443389 
L 396.618076 88.460176 
L 397.888375 90.042368 
L 399.158674 89.433832 
L 400.428973 92.442934 
L 401.699272 90.705461 
L 401.699272 90.927891 
L 402.96957 88.59867 
L 402.96957 90.403292 
L 404.239869 90.138894 
L 404.239869 90.407489 
L 404.239869 89.916464 
L 405.510168 90.537589 
L 405.510168 92.396769 
L 406.780467 98.062441 
L 408.050766 102.544617 
L 408.050766 105.843297 
L 409.321065 105.692213 
L 409.321065 105.843297 
L 410.591364 103.598013 
L 410.591364 102.406123 
L 411.861663 101.982247 
L 411.861663 104.81928 
L 413.131962 110.782924 
L 413.131962 130.155326 
L 414.402261 142.233699 
L 414.402261 156.393683 
L 415.67256 168.16569 
L 415.67256 175.468112 
L 416.942859 187.701767 
L 416.942859 207.540012 
L 418.213158 225.296648 
L 418.213158 232.422805 
L 419.483457 233.417445 
L 419.483457 217.016374 
L 420.753756 205.974608 
L 420.753756 213.180504 
L 422.024055 222.963231 
L 422.024055 252.361774 
L 423.294354 258.673752 
L 423.294354 254.258725 
L 424.564653 242.960955 
L 424.564653 234.907307 
L 425.834952 222.543551 
L 427.105251 225.187532 
L 428.37555 244.261961 
L 428.37555 278.79738 
L 429.645849 306.227626 
L 429.645849 332.684216 
L 430.916148 354.20118 
L 430.916148 369.36 
L 432.186447 364.84425 
L 433.456746 348.128419 
L 433.456746 320.63522 
L 434.727045 289.696454 
L 434.727045 260.327289 
L 435.997344 237.752733 
L 435.997344 225.422552 
L 437.267643 224.616768 
L 437.267643 228.595329 
L 438.537942 232.124832 
L 439.808241 240.472256 
L 477.917211 255.777964 
L 479.187509 277.013742 
L 479.187509 297.632592 
L 480.457808 316.795154 
L 481.728107 329.532424 
L 484.268705 334.711268 
L 485.539004 332.327489 
L 485.539004 328.592342 
L 489.349901 316.845515 
L 490.6202 313.202698 
L 494.431097 308.430943 
L 494.431097 302.933143 
L 495.701396 295.962268 
L 498.241994 289.226413 
L 499.512293 281.42877 
L 499.512293 274.457895 
L 500.782592 269.312625 
L 502.052891 264.935369 
L 503.32319 260.079678 
L 505.863788 246.687708 
L 508.404386 238.143035 
L 508.404386 230.425131 
L 509.674685 223.202448 
L 512.215283 217.721435 
L 512.215283 211.166043 
L 513.485582 210.398029 
L 513.485582 216.160228 
L 514.755881 227.193599 
L 517.296479 244.643869 
L 518.566778 264.922778 
L 518.566778 283.40546 
L 519.837077 281.835859 
L 522.377675 276.090448 
L 523.647974 260.033513 
L 523.647974 247.673955 
L 524.918273 220.902605 
L 527.458871 217.146474 
L 528.72917 217.813764 
L 528.72917 234.756222 
L 529.999469 233.472003 
L 532.540067 250.427052 
L 533.810366 253.776093 
L 533.810366 257.112545 
L 535.080665 231.285474 
L 535.080665 211.363292 
L 536.350964 185.960097 
L 537.621263 168.900129 
L 538.891562 161.413048 
L 541.43216 161.866302 
L 542.702459 164.061225 
L 543.972758 151.336546 
L 543.972758 137.222727 
L 545.243057 108.78525 
L 545.243057 88.569293 
L 546.513356 72.806134 
L 547.783655 71.064465 
L 549.053954 66.96 
L 550.324253 68.722654 
L 555.405448 73.603525 
L 556.675747 82.332857 
L 559.216345 87.410978 
L 560.486644 95.099505 
L 560.486644 97.886176 
L 561.756943 99.426399 
L 563.027242 97.516858 
L 564.297541 98.473727 
L 564.297541 96.761435 
L 565.56784 96.425691 
L 568.108438 97.865192 
L 569.378737 102.813212 
L 570.649036 108.533443 
L 571.919335 117.13687 
L 573.189634 123.872725 
L 574.459933 132.450972 
L 575.730232 139.006365 
L 577.000531 147.63917 
L 577.000531 153.422352 
L 578.27083 159.167764 
L 579.541129 162.881926 
L 582.081727 167.531974 
L 583.352026 173.348731 
L 583.352026 181.310049 
L 585.892624 198.286081 
L 585.892624 205.90746 
L 587.162923 211.262569 
L 588.433222 214.678759 
L 588.433222 217.238804 
L 589.703521 221.204774 
L 589.703521 226.056268 
L 590.97382 230.958124 
L 592.244119 238.319301 
L 597.325315 247.350801 
L 598.595614 257.095757 
L 601.136212 274.827213 
L 604.947109 296.998876 
L 606.217408 303.961357 
L 607.487707 309.098233 
L 607.487707 313.739888 
L 608.758006 316.614692 
L 611.298604 320.647811 
L 616.3798 324.911754 
L 618.920398 334.572774 
L 618.920398 338.891275 
L 620.190697 342.605438 
L 621.460996 344.598915 
L 622.731295 345.543193 
L 624.001594 345.580965 
L 625.271893 345.958676 
L 626.542192 345.937692 
L 627.812491 345.74464 
L 630.353088 344.976626 
L 630.353088 343.986183 
L 631.623387 342.462747 
L 631.623387 340.960294 
L 632.893686 339.306757 
L 632.893686 337.988964 
L 635.434284 334.732252 
L 636.704583 332.554116 
L 636.704583 330.38857 
L 637.974882 327.727802 
L 639.245181 324.794243 
L 641.785779 317.668087 
L 646.866975 312.07376 
L 648.137274 305.245576 
L 648.137274 297.498294 
L 650.677872 282.21357 
L 653.21847 274.30681 
L 654.488769 267.260393 
L 654.488769 261.082712 
L 655.759068 254.837882 
L 655.759068 248.274096 
L 657.029367 242.184548 
L 657.029367 236.586025 
L 660.840264 220.877424 
L 667.191759 217.683664 
L 667.191759 215.681793 
L 668.462058 211.64028 
L 668.462058 205.210792 
L 669.732357 195.142683 
L 672.272955 183.030735 
L 673.543254 170.813867 
L 673.543254 163.10016 
L 674.813553 157.929709 
L 677.354151 152.855785 
L 678.62445 146.837582 
L 678.62445 140.689279 
L 679.894749 132.895832 
L 683.705646 124.775036 
L 683.705646 120.041052 
L 684.975945 118.186069 
L 687.516543 122.554932 
L 687.516543 133.395251 
L 688.786842 147.727303 
L 690.057141 154.056068 
L 691.32744 154.169382 
L 692.597739 144.290128 
L 693.868038 127.633053 
L 696.408636 106.166451 
L 696.408636 92.833236 
L 697.678935 85.749047 
L 700.219533 83.361071 
L 701.489832 81.929965 
L 701.489832 84.351515 
L 702.760131 85.891738 
L 704.03043 85.413304 
L 705.300728 85.933706 
L 707.841326 87.293467 
L 707.841326 89.853512 
L 709.111625 91.788234 
L 711.652223 96.58517 
L 711.652223 99.598468 
L 712.922522 100.987607 
L 712.922522 98.792683 
L 714.192821 97.571416 
L 715.46312 96.606154 
L 718.003718 95.443642 
L 719.274017 97.353183 
L 719.274017 101.99064 
L 720.544316 110.505936 
L 724.355213 119.801835 
L 724.355213 130.331591 
L 725.625512 139.073513 
L 728.16611 146.489248 
L 728.16611 151.982852 
L 729.436409 156.649687 
L 730.706708 159.755315 
L 730.706708 161.576723 
L 731.977007 163.591185 
L 731.977007 165.987554 
L 733.247306 169.391154 
L 734.517605 173.961463 
L 738.328502 180.646956 
L 739.598801 189.023757 
L 739.598801 198.684777 
L 740.8691 208.077202 
L 740.8691 216.647056 
L 742.139399 223.387107 
L 743.409698 228.284766 
L 743.409698 231.558265 
L 744.679997 236.888194 
L 744.679997 244.89148 
L 747.220595 261.586327 
L 751.031492 268.897142 
L 752.301791 275.977134 
L 753.57209 285.726287 
L 753.57209 300.52838 
L 754.842389 317.294572 
L 754.842389 331.832267 
L 756.112688 338.50517 
L 757.382987 337.833683 
L 758.653286 329.880758 
L 759.923585 321.168213 
L 765.004781 316.602101 
L 766.27508 318.058389 
L 767.545379 322.318135 
L 771.356276 328.680475 
L 772.626575 335.21908 
L 772.626575 341.325415 
L 773.896874 346.403536 
L 773.896874 350.033763 
L 775.167173 352.350393 
L 775.167173 353.105816 
L 776.437472 352.245474 
L 777.707771 350.591937 
L 778.97807 349.345489 
L 781.518667 348.170387 
L 782.788966 346.747673 
L 785.329564 342.685177 
L 787.870162 337.006914 
L 787.870162 333.930664 
L 789.140461 332.079878 
L 792.951358 329.125335 
L 794.221657 326.649226 
L 796.762255 322.238396 
L 796.762255 317.550577 
L 799.302853 303.621417 
L 800.573152 295.467046 
L 803.11375 287.896029 
L 804.384049 279.708084 
L 804.384049 272.766587 
L 805.654348 265.934206 
L 805.654348 260.134236 
L 809.465245 247.237488 
L 810.735544 242.104809 
L 810.735544 237.513516 
L 812.005843 232.183588 
L 814.546441 219.782061 
L 819.627637 211.929859 
L 819.627637 189.548356 
L 820.897936 181.402379 
L 820.897936 176.903415 
L 823.438534 171.623848 
L 828.51973 167.82575 
L 829.790029 161.446623 
L 829.790029 152.289218 
L 831.060328 142.095205 
L 831.060328 132.199165 
L 833.600926 118.127314 
L 837.411823 113.212868 
L 838.682122 109.318243 
L 839.952421 107.010006 
L 841.22272 103.518274 
L 843.763318 93.802695 
L 845.033617 89.962629 
L 846.303916 87.17176 
L 847.574215 84.909688 
L 847.574215 83.453401 
L 848.844514 82.152395 
L 848.844514 82.521713 
L 850.114813 98.414972 
L 850.114813 130.117555 
L 853.92571 264.86822 
L 853.92571 289.075329 
L 855.196008 281.084633 
L 855.196008 247.254275 
L 856.466307 207.284008 
L 860.277204 190.429683 
L 861.547503 192.733723 
L 862.817802 224.306205 
L 864.088101 266.987601 
L 865.3584 316.509772 
L 866.628699 344.766786 
L 867.898998 357.520844 
L 869.169297 356.354135 
L 870.439596 358.16715 
L 871.709895 355.75819 
L 872.980194 357.27743 
L 874.250493 356.551384 
L 875.520792 359.975968 
L 876.791091 360.886673 
L 878.06139 363.761477 
L 879.331689 362.86756 
L 880.601988 360.03892 
L 883.142586 359.526911 
L 884.412885 358.343415 
L 885.683184 359.472353 
L 886.953483 358.863818 
L 888.223782 360.743982 
L 889.494081 360.391451 
L 890.76438 361.642096 
L 892.034679 359.787113 
L 895.845576 360.592897 
L 897.115875 357.579599 
L 897.115875 354.935619 
L 898.386174 348.774725 
L 900.926772 344.968233 
L 902.197071 341.547845 
L 903.46737 336.792878 
L 904.737669 329.863971 
L 904.737669 320.937389 
L 906.007968 313.240469 
L 907.278267 308.359598 
L 909.818865 308.405762 
L 911.089164 312.350749 
L 912.359463 317.596741 
L 913.629762 322.297151 
L 913.629762 323.405104 
L 914.900061 323.128116 
L 914.900061 325.864426 
L 917.440659 329.234451 
L 923.792154 331.366423 
L 923.792154 334.320966 
L 925.062453 337.661614 
L 927.603051 340.851178 
L 927.603051 343.68821 
L 928.87335 345.63972 
L 928.87335 346.621769 
L 930.143649 347.129582 
L 930.143649 347.637394 
L 931.413947 348.002515 
L 932.684246 347.469522 
L 933.954545 346.52944 
L 933.954545 346.52944 
" clip-path="url(#pa29daaeac1)" style="fill: none; stroke: #008000; stroke-width: 1.5; stroke-linecap: square"/>
   </g>
   <g id="patch_3">
    <path d="M 135 384.48 
L 135 51.84 
" style="fill: none; stroke: #000000; stroke-width: 0.8; stroke-linejoin: miter; stroke-linecap: square"/>
   </g>
   <g id="patch_4">
    <path d="M 972 384.48 
L 972 51.84 
" style="fill: none; stroke: #000000; stroke-width: 0.8; stroke-linejoin: miter; stroke-linecap: square"/>
   </g>
   <g id="patch_5">
    <path d="M 135 384.48 
L 972 384.48 
" style="fill: none; stroke: #000000; stroke-width: 0.8; stroke-linejoin: miter; stroke-linecap: square"/>
   </g>
   <g id="patch_6">
    <path d="M 135 51.84 
L 972 51.84 
" style="fill: none; stroke: #000000; stroke-width: 0.8; stroke-linejoin: miter; stroke-linecap: square"/>
   </g>
  </g>
  <g id="axes_2">
   <g id="matplotlib.axis_3">
    <g id="ytick_7">
     <g id="line2d_16">
      <path d="M 135 369.36 
L 972 369.36 
" clip-path="url(#pa29daaeac1)" style="fill: none; stroke: #b0b0b0; stroke-width: 0.8; stroke-linecap: square"/>
     </g>
     <g id="line2d_17">
      <defs>
       <path id="me279e76035" d="M 0 0 
L 3.5 0 
" style="stroke: #000000; stroke-width: 0.8"/>
      </defs>
      <g>
       <use xlink:href="#me279e76035" x="972" y="369.36" style="stroke: #000000; stroke-width: 0.8"/>
      </g>
     </g>
     <g id="text_15">
      <!-- 0 -->
      <g transform="translate(979 372.934219) scale(0.1 -0.1)">
       <use xlink:href="#Times New Roman-30"/>
      </g>
     </g>
    </g>
    <g id="ytick_8">
     <g id="line2d_18">
      <path d="M 135 320.089173 
L 972 320.089173 
" clip-path="url(#pa29daaeac1)" style="fill: none; stroke: #b0b0b0; stroke-width: 0.8; stroke-linecap: square"/>
     </g>
     <g id="line2d_19">
      <g>
       <use xlink:href="#me279e76035" x="972" y="320.089173" style="stroke: #000000; stroke-width: 0.8"/>
      </g>
     </g>
     <g id="text_16">
      <!-- 5 -->
      <g transform="translate(979 323.663392) scale(0.1 -0.1)">
       <use xlink:href="#Times New Roman-35"/>
      </g>
     </g>
    </g>
    <g id="ytick_9">
     <g id="line2d_20">
      <path d="M 135 270.818346 
L 972 270.818346 
" clip-path="url(#pa29daaeac1)" style="fill: none; stroke: #b0b0b0; stroke-width: 0.8; stroke-linecap: square"/>
     </g>
     <g id="line2d_21">
      <g>
       <use xlink:href="#me279e76035" x="972" y="270.818346" style="stroke: #000000; stroke-width: 0.8"/>
      </g>
     </g>
     <g id="text_17">
      <!-- 10 -->
      <g transform="translate(979 274.392565) scale(0.1 -0.1)">
       <use xlink:href="#Times New Roman-31"/>
       <use xlink:href="#Times New Roman-30" x="50"/>
      </g>
     </g>
    </g>
    <g id="ytick_10">
     <g id="line2d_22">
      <path d="M 135 221.54752 
L 972 221.54752 
" clip-path="url(#pa29daaeac1)" style="fill: none; stroke: #b0b0b0; stroke-width: 0.8; stroke-linecap: square"/>
     </g>
     <g id="line2d_23">
      <g>
       <use xlink:href="#me279e76035" x="972" y="221.54752" style="stroke: #000000; stroke-width: 0.8"/>
      </g>
     </g>
     <g id="text_18">
      <!-- 15 -->
      <g transform="translate(979 225.121738) scale(0.1 -0.1)">
       <use xlink:href="#Times New Roman-31"/>
       <use xlink:href="#Times New Roman-35" x="50"/>
      </g>
     </g>
    </g>
    <g id="ytick_11">
     <g id="line2d_24">
      <path d="M 135 172.276693 
L 972 172.276693 
" clip-path="url(#pa29daaeac1)" style="fill: none; stroke: #b0b0b0; stroke-width: 0.8; stroke-linecap: square"/>
     </g>
     <g id="line2d_25">
      <g>
       <use xlink:href="#me279e76035" x="972" y="172.276693" style="stroke: #000000; stroke-width: 0.8"/>
      </g>
     </g>
     <g id="text_19">
      <!-- 20 -->
      <g transform="translate(979 175.850912) scale(0.1 -0.1)">
       <use xlink:href="#Times New Roman-32"/>
       <use xlink:href="#Times New Roman-30" x="50"/>
      </g>
     </g>
    </g>
    <g id="ytick_12">
     <g id="line2d_26">
      <path d="M 135 123.005866 
L 972 123.005866 
" clip-path="url(#pa29daaeac1)" style="fill: none; stroke: #b0b0b0; stroke-width: 0.8; stroke-linecap: square"/>
     </g>
     <g id="line2d_27">
      <g>
       <use xlink:href="#me279e76035" x="972" y="123.005866" style="stroke: #000000; stroke-width: 0.8"/>
      </g>
     </g>
     <g id="text_20">
      <!-- 25 -->
      <g transform="translate(979 126.580085) scale(0.1 -0.1)">
       <use xlink:href="#Times New Roman-32"/>
       <use xlink:href="#Times New Roman-35" x="50"/>
      </g>
     </g>
    </g>
    <g id="ytick_13">
     <g id="line2d_28">
      <path d="M 135 73.735039 
L 972 73.735039 
" clip-path="url(#pa29daaeac1)" style="fill: none; stroke: #b0b0b0; stroke-width: 0.8; stroke-linecap: square"/>
     </g>
     <g id="line2d_29">
      <g>
       <use xlink:href="#me279e76035" x="972" y="73.735039" style="stroke: #000000; stroke-width: 0.8"/>
      </g>
     </g>
     <g id="text_21">
      <!-- 30 -->
      <g transform="translate(979 77.309258) scale(0.1 -0.1)">
       <use xlink:href="#Times New Roman-33"/>
       <use xlink:href="#Times New Roman-30" x="50"/>
      </g>
     </g>
    </g>
    <g id="text_22">
     <!-- buffer (s) -->
     <g transform="translate(1000.617188 243.16) rotate(-90) scale(0.1 -0.1)">
      <defs>
       <path id="Times New Roman-75" d="M 1450 325
Q 1750 325 1962 475 
Q 2175 625 2275 950 
L 2275 2525 
Q 2275 2625 2225 2687 
Q 2175 2750 2050 2750 
L 1900 2750 
L 1900 2900 
L 2050 2900 
Q 2200 2900 2325 2925 
Q 2450 2950 2575 3050 
L 2625 3050 
L 2625 600 
Q 2625 500 2687 450 
Q 2750 400 2850 400 
L 3000 400 
L 3000 250 
L 2850 250 
Q 2725 250 2600 212 
Q 2475 175 2325 100 
L 2275 100 
L 2275 625 
Q 2150 350 1900 212 
Q 1650 75 1325 75 
Q 925 75 725 300 
Q 525 525 525 1025 
L 525 2525 
Q 525 2625 475 2687 
Q 425 2750 300 2750 
L 150 2750 
L 150 2900 
L 300 2900 
Q 450 2900 575 2925 
Q 700 2950 825 3050 
L 875 3050 
L 875 975 
Q 875 625 1025 475 
Q 1175 325 1450 325 
z
" transform="scale(0.015625)"/>
       <path id="Times New Roman-66" d="M 1125 3325
Q 1125 3850 1450 4112 
Q 1775 4375 2175 4375 
Q 2600 4375 2812 4225 
Q 3025 4075 3025 3875 
Q 3025 3775 2975 3700 
Q 2925 3625 2775 3625 
Q 2675 3625 2612 3675 
Q 2550 3725 2550 3850 
Q 2550 3875 2575 3925 
Q 2575 3975 2575 4000 
Q 2575 4100 2500 4162 
Q 2425 4225 2150 4225 
Q 1850 4225 1662 4037 
Q 1475 3850 1475 3400 
L 1475 2900 
L 2525 2900 
L 2525 2750 
L 1475 2750 
L 1475 450 
Q 1475 350 1537 300 
Q 1600 250 1700 250 
L 2300 250 
L 2300 100 
L 475 100 
L 475 250 
L 900 250 
Q 1025 250 1075 300 
Q 1125 350 1125 450 
L 1125 2750 
L 350 2750 
L 350 2900 
L 1125 2900 
L 1125 3325 
z
" transform="scale(0.015625)"/>
      </defs>
      <use xlink:href="#Times New Roman-62"/>
      <use xlink:href="#Times New Roman-75" x="50"/>
      <use xlink:href="#Times New Roman-66" x="100"/>
      <use xlink:href="#Times New Roman-66" x="150"/>
      <use xlink:href="#Times New Roman-65" x="200"/>
      <use xlink:href="#Times New Roman-72" x="250"/>
      <use xlink:href="#Times New Roman-20" x="300"/>
      <use xlink:href="#Times New Roman-28" x="350"/>
      <use xlink:href="#Times New Roman-73" x="400"/>
      <use xlink:href="#Times New Roman-29" x="450"/>
     </g>
    </g>
   </g>
   <g id="line2d_30">
    <path d="M 173.045455 369.36 
L 174.315754 333.673262 
L 175.586053 307.999832 
L 176.856351 259.960773 
L 178.12665 230.333254 
L 179.396949 210.840933 
L 180.667248 197.565181 
L 183.207846 175.42454 
L 185.748444 173.521126 
L 187.018743 173.931716 
L 188.289042 182.759408 
L 189.559341 181.78869 
L 189.559341 185.347138 
L 190.82964 178.846127 
L 190.82964 180.55692 
L 192.099939 172.344524 
L 193.370238 181.726002 
L 194.640537 186.049872 
L 195.910836 194.897161 
L 197.181135 188.962611 
L 199.721733 192.873356 
L 200.992032 197.211167 
L 202.262331 201.976044 
L 204.802929 202.911278 
L 206.073228 204.508017 
L 207.343527 209.024508 
L 209.884125 210.324709 
L 211.154424 210.735301 
L 212.424723 202.865656 
L 213.695022 203.413109 
L 216.23562 201.223294 
L 217.505919 201.596075 
L 217.505919 193.110543 
L 218.776218 181.750882 
L 220.046517 153.891366 
L 221.316816 147.18506 
L 221.316816 135.049837 
L 222.587115 153.435155 
L 226.398012 153.298291 
L 227.668311 158.11132 
L 228.93861 148.394016 
L 230.208909 133.339042 
L 231.479208 123.416445 
L 231.479208 115.010533 
L 232.749507 105.123366 
L 234.019806 90.615845 
L 235.290105 80.408336 
L 236.560404 75.605498 
L 237.830703 75.103665 
L 239.101002 74.601831 
L 241.6416 75.491442 
L 244.182198 76.8806 
L 245.452497 76.127854 
L 246.722796 76.333149 
L 247.993095 77.088182 
L 249.263394 77.633349 
L 250.533693 77.28662 
L 251.803992 76.670735 
L 253.07429 76.673019 
L 253.07429 94.74356 
L 254.344589 95.770038 
L 254.344589 110.961877 
L 255.614888 93.169634 
L 255.614888 104.803024 
L 256.885187 97.959853 
L 256.885187 107.540292 
L 258.155486 94.67513 
L 258.155486 93.306497 
L 259.425785 87.831961 
L 260.696084 89.748051 
L 267.047579 106.445387 
L 269.588177 138.197698 
L 269.588177 141.448203 
L 270.858476 145.896264 
L 272.128775 151.541878 
L 273.399074 145.280377 
L 275.939672 153.785862 
L 277.209971 161.186464 
L 278.48027 181.3396 
L 278.48027 174.955498 
L 278.48027 242.248104 
L 279.750569 238.313282 
L 279.750569 293.621827 
L 281.020868 229.124944 
L 281.020868 270.759263 
L 282.291167 217.503668 
L 282.291167 259.321179 
L 283.561466 248.035251 
L 283.561466 290.035954 
L 284.831765 272.270044 
L 284.831765 272.301082 
L 286.102064 248.055192 
L 286.102064 254.56621 
L 287.372363 223.840339 
L 287.372363 236.831337 
L 288.642662 229.328077 
L 289.912961 245.047425 
L 292.453559 222.537642 
L 292.453559 267.726798 
L 294.994157 369.36 
L 296.264456 369.36 
L 298.805054 341.710703 
L 300.075353 326.654572 
L 307.697147 311.876785 
L 322.940735 330.216869 
L 324.211034 349.37794 
L 325.481333 348.487078 
L 329.292229 348.487078 
L 330.562528 369.36 
L 331.832827 355.546497 
L 333.103126 337.617388 
L 334.373425 315.582377 
L 334.373425 295.693262 
L 335.643724 287.755183 
L 335.643724 284.402028 
L 336.914023 287.105081 
L 336.914023 295.898554 
L 338.184322 284.599912 
L 343.265518 283.162847 
L 343.265518 261.163347 
L 344.535817 259.256784 
L 347.076415 249.676345 
L 347.076415 246.253467 
L 348.346714 240.909496 
L 349.617013 212.214665 
L 350.887312 209.000959 
L 350.887312 194.727451 
L 352.157611 217.126568 
L 355.968508 219.861253 
L 357.238807 228.801273 
L 358.509106 225.80942 
L 359.779405 213.217984 
L 361.049704 206.101086 
L 362.320003 192.943055 
L 363.590302 176.656311 
L 363.590302 162.762463 
L 364.860601 149.448749 
L 367.401199 138.089087 
L 368.671498 118.451401 
L 369.941797 108.429905 
L 369.941797 97.207104 
L 371.212096 91.185116 
L 371.212096 80.813708 
L 372.482395 77.370799 
L 373.752694 75.724011 
L 377.563591 81.510494 
L 377.563591 84.063789 
L 378.83389 85.706058 
L 380.104189 79.547208 
L 381.374488 76.412666 
L 383.915086 74.090505 
L 386.455684 74.008762 
L 387.725983 73.735039 
L 401.699272 73.735039 
L 401.699272 83.452339 
L 402.96957 83.452339 
L 402.96957 90.02178 
L 404.239869 80.30448 
L 404.239869 80.30448 
L 404.239869 77.156622 
L 405.510168 77.156622 
L 405.510168 77.430346 
L 406.780467 71.134629 
L 408.050766 71.134629 
L 408.050766 70.860905 
L 409.321065 73.735039 
L 409.321065 73.735039 
L 439.808241 73.735039 
L 477.917211 86.46441 
L 479.187509 97.687208 
L 479.187509 111.282303 
L 480.457808 111.783059 
L 481.728107 113.42542 
L 484.268705 116.072163 
L 485.539004 117.077981 
L 485.539004 119.451715 
L 486.809303 116.075034 
L 488.079602 115.799154 
L 489.349901 114.520326 
L 494.431097 118.899954 
L 494.431097 117.87193 
L 495.701396 120.061745 
L 498.241994 116.777023 
L 499.512293 115.747984 
L 499.512293 110.142807 
L 500.782592 104.805134 
L 502.052891 101.317681 
L 503.32319 99.392272 
L 504.593489 96.729659 
L 505.863788 95.443452 
L 508.404386 95.035959 
L 508.404386 94.003261 
L 509.674685 92.759044 
L 512.215283 89.337458 
L 512.215283 86.463325 
L 513.485582 81.946833 
L 513.485582 80.578199 
L 514.755881 76.747557 
L 517.296479 76.473829 
L 518.566778 74.694606 
L 518.566778 77.840932 
L 519.837077 76.335434 
L 523.647974 74.510587 
L 523.647974 75.514251 
L 524.918273 74.601829 
L 527.458871 75.468631 
L 528.72917 75.696737 
L 528.72917 77.293477 
L 529.999469 74.784314 
L 532.540067 78.570869 
L 533.810366 79.893883 
L 533.810366 81.262518 
L 535.080665 76.107328 
L 535.080665 82.391639 
L 536.350964 88.48206 
L 537.621263 93.238063 
L 538.891562 86.360676 
L 541.43216 97.037098 
L 542.702459 106.515607 
L 543.972758 111.305828 
L 543.972758 104.325078 
L 545.243057 97.066714 
L 545.243057 107.577823 
L 546.513356 113.065687 
L 547.783655 120.78867 
L 550.324253 111.591448 
L 555.405448 112.56008 
L 556.675747 120.609082 
L 559.216345 128.273433 
L 560.486644 125.197106 
L 560.486644 118.284071 
L 561.756943 106.78303 
L 564.297541 98.1911 
L 564.297541 99.545266 
L 565.56784 98.34383 
L 568.108438 95.579976 
L 569.378737 95.735822 
L 570.649036 93.939549 
L 571.919335 93.795213 
L 573.189634 88.149597 
L 574.459933 88.371941 
L 575.730232 85.337998 
L 577.000531 84.832349 
L 577.000531 82.619724 
L 578.27083 80.99638 
L 579.541129 79.757022 
L 582.081727 82.722396 
L 583.352026 85.368422 
L 583.352026 89.839293 
L 584.622325 88.790006 
L 585.892624 87.421371 
L 585.892624 102.613209 
L 587.162923 116.29955 
L 588.433222 127.453918 
L 588.433222 121.88814 
L 589.703521 110.209129 
L 589.703521 108.452715 
L 590.97382 102.886937 
L 592.244119 103.434392 
L 597.325315 116.25393 
L 599.865913 145.451457 
L 601.136212 148.690558 
L 602.406511 151.062856 
L 603.67681 152.568352 
L 604.947109 157.221708 
L 606.217408 161.190747 
L 607.487707 164.475469 
L 607.487707 159.411522 
L 608.758006 158.453477 
L 611.298604 164.475468 
L 616.3798 171.729229 
L 617.650099 174.740224 
L 618.920398 174.329634 
L 618.920398 169.881574 
L 620.190697 165.501946 
L 621.460996 162.764677 
L 622.731295 158.042888 
L 624.001594 156.603776 
L 625.271893 156.193187 
L 626.542192 155.098281 
L 627.812491 156.400529 
L 630.353088 155.985846 
L 630.353088 159.773171 
L 631.623387 154.609335 
L 631.623387 156.026021 
L 632.893686 147.037888 
L 632.893686 160.516176 
L 634.163985 164.509686 
L 635.434284 171.660798 
L 636.704583 158.419263 
L 636.704583 165.252317 
L 637.974882 174.500919 
L 639.245181 186.165067 
L 641.785779 174.175279 
L 646.866975 180.850828 
L 648.137274 188.840357 
L 648.137274 201.749157 
L 649.407573 202.527157 
L 650.677872 202.53082 
L 653.21847 203.236729 
L 654.488769 203.143046 
L 654.488769 214.088455 
L 655.759068 218.125923 
L 655.759068 227.678988 
L 657.029367 221.109544 
L 657.029367 223.107751 
L 658.299666 220.589465 
L 659.569965 223.354107 
L 660.840264 219.576679 
L 667.191759 225.407059 
L 667.191759 231.30719 
L 668.462058 238.97154 
L 668.462058 238.376844 
L 669.732357 236.144652 
L 672.272955 234.043294 
L 673.543254 232.585039 
L 673.543254 233.587309 
L 674.813553 232.829442 
L 677.354151 230.546765 
L 678.62445 231.181991 
L 678.62445 231.665675 
L 679.894749 231.895401 
L 683.705646 230.527452 
L 683.705646 228.384412 
L 684.975945 226.190402 
L 687.516543 223.731038 
L 687.516543 221.274935 
L 688.786842 219.910498 
L 690.057141 217.652252 
L 691.32744 218.057493 
L 692.597739 213.169975 
L 693.868038 211.333018 
L 696.408636 210.101247 
L 696.408636 204.450282 
L 697.678935 202.112907 
L 701.489832 192.053446 
L 701.489832 181.343884 
L 702.760131 170.73697 
L 704.03043 161.088101 
L 705.300728 155.921507 
L 707.841326 151.815605 
L 707.841326 149.146769 
L 709.111625 143.328126 
L 711.652223 139.359085 
L 711.652223 138.40104 
L 712.922522 134.776107 
L 712.922522 133.633191 
L 714.192821 132.035257 
L 715.46312 132.172122 
L 718.003718 129.75659 
L 719.274017 130.80707 
L 719.274017 131.628251 
L 720.544316 132.175706 
L 724.355213 133.130167 
L 724.355213 132.583386 
L 725.625512 132.172795 
L 728.16611 127.523022 
L 728.16611 124.648219 
L 729.436409 119.650948 
L 730.706708 121.022045 
L 730.706708 123.86196 
L 731.977007 126.674342 
L 731.977007 125.91913 
L 733.247306 123.387158 
L 734.517605 122.287325 
L 738.328502 126.872248 
L 739.598801 131.080796 
L 739.598801 137.376511 
L 740.8691 133.40678 
L 740.8691 150.126928 
L 743.409698 176.51945 
L 743.409698 163.631478 
L 744.679997 149.352061 
L 744.679997 146.50074 
L 745.950296 147.983426 
L 747.220595 150.857557 
L 751.031492 170.987884 
L 752.301791 187.22901 
L 753.57209 219.620018 
L 753.57209 206.138973 
L 754.842389 216.380917 
L 754.842389 189.601312 
L 756.112688 203.527163 
L 757.382987 197.413931 
L 758.653286 211.967073 
L 759.923585 202.797226 
L 765.004781 208.134899 
L 766.27508 218.536517 
L 767.545379 234.002081 
L 771.356276 240.890872 
L 772.626575 241.466838 
L 772.626575 244.79718 
L 773.896874 236.859101 
L 773.896874 241.392702 
L 775.167173 230.945461 
L 775.167173 238.815109 
L 776.437472 235.576009 
L 777.707771 239.613481 
L 778.97807 230.785792 
L 781.518667 236.856156 
L 782.788966 244.681556 
L 784.059265 254.261992 
L 785.329564 256.850483 
L 786.599863 259.701924 
L 787.870162 261.89174 
L 787.870162 260.042587 
L 789.140461 254.908714 
L 792.951358 252.789396 
L 794.221657 253.237584 
L 796.762255 260.22061 
L 796.762255 260.90534 
L 798.032554 255.7004 
L 799.302853 242.763815 
L 800.573152 238.587004 
L 803.11375 235.851701 
L 804.384049 234.004045 
L 804.384049 231.313051 
L 805.654348 223.236147 
L 805.654348 226.887147 
L 806.924647 218.218476 
L 808.194946 227.205838 
L 809.465245 225.379683 
L 810.735544 229.485585 
L 810.735544 226.999233 
L 812.005843 227.774793 
L 813.276142 231.812264 
L 814.546441 230.785787 
L 819.627637 237.218368 
L 819.627637 247.030698 
L 820.897936 242.240479 
L 820.897936 237.560531 
L 823.438534 235.507578 
L 828.51973 240.21412 
L 829.790029 243.361978 
L 829.790029 246.467998 
L 831.060328 243.13009 
L 831.060328 204.853957 
L 832.330627 185.552435 
L 833.600926 185.278709 
L 838.682122 231.401675 
L 843.763318 184.725 
L 845.033617 168.442322 
L 846.303916 149.076151 
L 847.574215 133.475908 
L 847.574215 116.299551 
L 848.844514 99.396918 
L 848.844514 118.147205 
L 850.114813 106.857769 
L 850.114813 104.976839 
L 851.385112 69.393107 
L 852.655411 72.094928 
L 853.92571 72.812896 
L 853.92571 73.770187 
L 855.196008 74.31689 
L 856.466307 73.906304 
L 860.277204 71.887089 
L 862.817802 67.575595 
L 864.088101 66.96 
L 865.3584 68.0896 
L 866.628699 69.390465 
L 867.898998 70.862594 
L 869.169297 70.760793 
L 870.439596 69.506071 
L 871.709895 68.475099 
L 872.980194 67.667879 
L 874.250493 68.237331 
L 875.520792 68.11096 
L 876.791091 68.109556 
L 878.06139 68.233122 
L 879.331689 69.492266 
L 879.331689 70.121838 
L 880.601988 71.641024 
L 884.412885 72.959994 
L 885.683184 71.363772 
L 886.953483 68.946373 
L 888.223782 70.763268 
L 889.494081 72.222624 
L 890.76438 73.324441 
L 892.034679 69.834423 
L 895.845576 71.33992 
L 897.115875 73.461303 
L 897.115875 77.019751 
L 898.386174 72.847968 
L 900.926772 73.463854 
L 902.197071 74.558762 
L 903.46737 80.715065 
L 904.737669 80.92036 
L 904.737669 81.330948 
L 906.007968 79.620154 
L 907.278267 78.662109 
L 909.818865 79.209564 
L 911.089164 82.631151 
L 912.359463 87.886708 
L 913.629762 89.501697 
L 913.629762 87.996197 
L 913.629762 89.789106 
L 914.900061 87.626665 
L 914.900061 87.654039 
L 916.17036 82.330053 
L 917.440659 80.961418 
L 923.792154 89.282713 
L 923.792154 95.291016 
L 925.062453 103.502821 
L 927.603051 98.712602 
L 927.603051 96.454356 
L 928.87335 92.895909 
L 928.87335 104.228198 
L 930.143649 107.855077 
L 930.143649 117.107042 
L 931.413947 103.584938 
L 931.413947 105.624202 
L 932.684246 99.000013 
L 933.954545 99.273739 
L 933.954545 99.273739 
" clip-path="url(#pa29daaeac1)" style="fill: none; stroke: #1f77b4; stroke-width: 1.5; stroke-linecap: square"/>
   </g>
   <g id="patch_7">
    <path d="M 135 384.48 
L 135 51.84 
" style="fill: none; stroke: #000000; stroke-width: 0.8; stroke-linejoin: miter; stroke-linecap: square"/>
   </g>
   <g id="patch_8">
    <path d="M 972 384.48 
L 972 51.84 
" style="fill: none; stroke: #000000; stroke-width: 0.8; stroke-linejoin: miter; stroke-linecap: square"/>
   </g>
   <g id="patch_9">
    <path d="M 135 384.48 
L 972 384.48 
" style="fill: none; stroke: #000000; stroke-width: 0.8; stroke-linejoin: miter; stroke-linecap: square"/>
   </g>
   <g id="patch_10">
    <path d="M 135 51.84 
L 972 51.84 
" style="fill: none; stroke: #000000; stroke-width: 0.8; stroke-linejoin: miter; stroke-linecap: square"/>
   </g>
   <g id="text_23">
    <!-- ./pensieve/log_RL_0_wave -->
    <g transform="translate(481.5 45.84) scale(0.12 -0.12)">
     <defs>
      <path id="Times New Roman-2e" d="M 800 25
Q 650 25 537 125 
Q 425 225 425 400 
Q 425 575 537 675 
Q 650 775 800 775 
Q 950 775 1062 662 
Q 1175 550 1175 400 
Q 1175 225 1062 125 
Q 950 25 800 25 
z
" transform="scale(0.015625)"/>
      <path id="Times New Roman-2f" d="M 400 -475
L 225 -375 
L 2775 4975 
L 2950 4875 
L 400 -475 
z
" transform="scale(0.015625)"/>
      <path id="Times New Roman-6e" d="M 200 100
L 200 250 
L 325 250 
Q 450 250 500 300 
Q 550 350 550 450 
L 550 2600 
Q 550 2675 525 2712 
Q 500 2750 425 2750 
L 225 2750 
L 225 2900 
L 400 2900 
Q 525 2900 637 2925 
Q 750 2950 850 3025 
L 900 3025 
L 900 2450 
Q 1125 2700 1350 2825 
Q 1575 2950 1825 2950 
Q 2250 2950 2450 2725 
Q 2650 2500 2650 2050 
L 2650 450 
Q 2650 350 2712 300 
Q 2775 250 2875 250 
L 3000 250 
L 3000 100 
L 1950 100 
L 1950 250 
L 2075 250 
Q 2200 250 2250 300 
Q 2300 350 2300 450 
L 2300 2125 
Q 2300 2425 2175 2587 
Q 2050 2750 1800 2750 
Q 1575 2750 1337 2600 
Q 1100 2450 900 2175 
L 900 450 
Q 900 350 962 300 
Q 1025 250 1125 250 
L 1250 250 
L 1250 100 
L 200 100 
z
" transform="scale(0.015625)"/>
      <path id="Times New Roman-76" d="M 1625 75
L 1475 75 
L 625 2525 
Q 600 2625 525 2687 
Q 450 2750 350 2750 
L 225 2750 
L 225 2900 
L 1300 2900 
L 1300 2750 
L 1200 2750 
Q 1050 2750 1025 2700 
Q 1000 2650 1000 2600 
Q 1000 2500 1025 2425 
L 1625 675 
L 1675 675 
L 2275 2400 
Q 2325 2525 2325 2575 
Q 2325 2600 2275 2675 
Q 2225 2750 2075 2750 
L 2025 2750 
L 2025 2900 
L 2925 2900 
L 2925 2750 
L 2875 2750 
Q 2725 2750 2637 2662 
Q 2550 2575 2475 2400 
L 1625 75 
z
M 2600 2750 
L 2600 2750 
z
M 2400 2750 
L 2400 2750 
z
M 925 2750 
L 925 2750 
z
M 550 2750 
L 550 2750 
z
" transform="scale(0.015625)"/>
      <path id="Times New Roman-6c" d="M 925 4375
Q 1150 4375 1350 4425 
Q 1550 4475 1725 4575 
L 1775 4575 
L 1775 450 
Q 1775 350 1837 300 
Q 1900 250 2000 250 
L 2575 250 
L 2575 100 
L 625 100 
L 625 250 
L 1200 250 
Q 1325 250 1375 300 
Q 1425 350 1425 450 
L 1425 4025 
Q 1425 4125 1375 4175 
Q 1325 4225 1200 4225 
L 650 4225 
L 650 4375 
L 925 4375 
z
" transform="scale(0.015625)"/>
      <path id="Times New Roman-6f" d="M 2900 1500
Q 2900 875 2525 462 
Q 2150 50 1600 50 
Q 1025 50 662 475 
Q 300 900 300 1500 
Q 300 2050 662 2500 
Q 1025 2950 1600 2950 
Q 2200 2950 2550 2500 
Q 2900 2050 2900 1500 
z
M 700 1475 
Q 700 825 962 512 
Q 1225 200 1600 200 
Q 2025 200 2262 537 
Q 2500 875 2500 1475 
Q 2500 2125 2237 2462 
Q 1975 2800 1600 2800 
Q 1250 2800 975 2462 
Q 700 2125 700 1475 
z
" transform="scale(0.015625)"/>
      <path id="Times New Roman-67" d="M 875 1975
Q 875 1675 1050 1462 
Q 1225 1250 1525 1250 
Q 1850 1250 2012 1437 
Q 2175 1625 2175 1975 
Q 2175 2400 1987 2587 
Q 1800 2775 1525 2775 
Q 1250 2775 1062 2587 
Q 875 2400 875 1975 
z
M 2100 625 
Q 2475 575 2650 412 
Q 2825 250 2825 -25 
Q 2825 -400 2512 -625 
Q 2200 -850 1525 -850 
Q 1000 -850 675 -637 
Q 350 -425 350 -150 
Q 350 25 475 200 
Q 600 375 875 475 
Q 725 550 637 637 
Q 550 725 550 850 
Q 550 1000 650 1112 
Q 750 1225 900 1300 
Q 750 1425 637 1600 
Q 525 1775 525 1975 
Q 525 2350 787 2637 
Q 1050 2925 1525 2925 
Q 1725 2925 1912 2875 
Q 2100 2825 2225 2700 
Q 2400 2825 2537 2887 
Q 2675 2950 2775 2950 
Q 2900 2950 2950 2862 
Q 3000 2775 3000 2700 
Q 3000 2600 2962 2537 
Q 2925 2475 2825 2475 
Q 2750 2475 2700 2512 
Q 2650 2550 2625 2625 
Q 2600 2700 2512 2687 
Q 2425 2675 2325 2600 
Q 2425 2500 2475 2325 
Q 2525 2150 2525 1975 
Q 2525 1675 2287 1387 
Q 2050 1100 1525 1100 
Q 1375 1100 1250 1137 
Q 1125 1175 1050 1225 
Q 950 1175 900 1100 
Q 850 1025 850 975 
Q 850 875 900 825 
Q 950 775 1050 775 
Q 1375 725 1637 687 
Q 1900 650 2100 625 
z
M 1075 425 
Q 850 325 762 187 
Q 675 50 675 -150 
Q 675 -350 900 -525 
Q 1125 -700 1575 -700 
Q 2000 -700 2250 -562 
Q 2500 -425 2500 -150 
Q 2500 25 2437 125 
Q 2375 225 2250 250 
Q 2000 300 1700 350 
Q 1400 375 1075 425 
z
" transform="scale(0.015625)"/>
      <path id="Times New Roman-5f" d="M 0 -875
L 0 -725 
L 3175 -725 
L 3175 -875 
L 0 -875 
z
" transform="scale(0.015625)"/>
      <path id="Times New Roman-52" d="M 2825 3375
Q 2825 2875 2550 2600 
Q 2275 2325 1925 2275 
L 2675 425 
Q 2725 325 2787 287 
Q 2850 250 2925 250 
L 3075 250 
L 3075 100 
L 2375 100 
L 1550 2250 
L 975 2250 
L 975 450 
Q 975 350 1037 300 
Q 1100 250 1200 250 
L 1350 250 
L 1350 100 
L 200 100 
L 200 250 
L 350 250 
Q 475 250 525 300 
Q 575 350 575 450 
L 575 4025 
Q 575 4125 525 4175 
Q 475 4225 350 4225 
L 200 4225 
L 200 4375 
L 1625 4375 
Q 2200 4375 2512 4125 
Q 2825 3875 2825 3375 
z
M 2750 250 
L 2750 250 
z
M 975 2400 
L 1525 2400 
Q 1900 2400 2150 2625 
Q 2400 2850 2400 3325 
Q 2400 3750 2175 3987 
Q 1950 4225 1475 4225 
L 1200 4225 
Q 1100 4225 1037 4175 
Q 975 4125 975 4025 
L 975 2400 
z
" transform="scale(0.015625)"/>
      <path id="Times New Roman-4c" d="M 1000 450
Q 1000 350 1062 300 
Q 1125 250 1225 250 
L 1900 250 
Q 2250 250 2500 462 
Q 2750 675 2875 1125 
L 3000 1075 
L 2775 100 
L 200 100 
L 200 250 
L 375 250 
Q 500 250 550 300 
Q 600 350 600 450 
L 600 4025 
Q 600 4125 550 4175 
Q 500 4225 375 4225 
L 225 4225 
L 225 4375 
L 1400 4375 
L 1400 4225 
L 1225 4225 
Q 1125 4225 1062 4175 
Q 1000 4125 1000 4025 
L 1000 450 
z
" transform="scale(0.015625)"/>
      <path id="Times New Roman-77" d="M 2325 2900
L 3175 2900 
L 3175 2750 
L 3075 2750 
Q 2975 2750 2900 2675 
Q 2825 2600 2775 2425 
L 2175 75 
L 2025 75 
L 1575 1975 
L 1100 75 
L 950 75 
L 375 2375 
Q 350 2550 275 2650 
Q 200 2750 125 2750 
L 25 2750 
L 25 2900 
L 925 2900 
L 925 2750 
L 825 2750 
Q 725 2750 700 2662 
Q 675 2575 700 2425 
L 1075 800 
L 1125 800 
L 1500 2300 
Q 1475 2525 1400 2637 
Q 1325 2750 1225 2750 
L 1150 2750 
L 1150 2900 
L 2000 2900 
L 2000 2750 
L 1925 2750 
Q 1825 2750 1800 2662 
Q 1775 2575 1800 2425 
L 2175 800 
L 2200 800 
L 2625 2550 
Q 2650 2650 2600 2700 
Q 2550 2750 2450 2750 
L 2325 2750 
L 2325 2900 
z
M 1725 2750 
L 1725 2750 
z
M 625 2750 
L 625 2750 
z
M 275 2750 
L 275 2750 
z
M 2875 2750 
L 2875 2750 
z
M 2675 2750 
L 2675 2750 
z
" transform="scale(0.015625)"/>
     </defs>
     <use xlink:href="#Times New Roman-2e"/>
     <use xlink:href="#Times New Roman-2f" x="50"/>
     <use xlink:href="#Times New Roman-70" x="100"/>
     <use xlink:href="#Times New Roman-65" x="150"/>
     <use xlink:href="#Times New Roman-6e" x="200"/>
     <use xlink:href="#Times New Roman-73" x="250"/>
     <use xlink:href="#Times New Roman-69" x="300"/>
     <use xlink:href="#Times New Roman-65" x="350"/>
     <use xlink:href="#Times New Roman-76" x="400"/>
     <use xlink:href="#Times New Roman-65" x="450"/>
     <use xlink:href="#Times New Roman-2f" x="500"/>
     <use xlink:href="#Times New Roman-6c" x="550"/>
     <use xlink:href="#Times New Roman-6f" x="600"/>
     <use xlink:href="#Times New Roman-67" x="650"/>
     <use xlink:href="#Times New Roman-5f" x="700"/>
     <use xlink:href="#Times New Roman-52" x="750"/>
     <use xlink:href="#Times New Roman-4c" x="800"/>
     <use xlink:href="#Times New Roman-5f" x="850"/>
     <use xlink:href="#Times New Roman-30" x="900"/>
     <use xlink:href="#Times New Roman-5f" x="950"/>
     <use xlink:href="#Times New Roman-77" x="1000"/>
     <use xlink:href="#Times New Roman-61" x="1050"/>
     <use xlink:href="#Times New Roman-76" x="1100"/>
     <use xlink:href="#Times New Roman-65" x="1150"/>
    </g>
   </g>
   <g id="legend_1">
    <g id="patch_11">
     <path d="M 903 73.2775 
L 965 73.2775 
Q 967 73.2775 967 71.2775 
L 967 58.84 
Q 967 56.84 965 56.84 
L 903 56.84 
Q 901 56.84 901 58.84 
L 901 71.2775 
Q 901 73.2775 903 73.2775 
z
" style="fill: #ffffff; opacity: 0.8; stroke: #cccccc; stroke-linejoin: miter"/>
    </g>
    <g id="line2d_31">
     <path d="M 905 64.488437 
L 915 64.488437 
L 925 64.488437 
" style="fill: none; stroke: #1f77b4; stroke-width: 1.5; stroke-linecap: square"/>
    </g>
    <g id="text_24">
     <!-- buffer -->
     <g transform="translate(933 67.988437) scale(0.1 -0.1)">
      <use xlink:href="#Times New Roman-62"/>
      <use xlink:href="#Times New Roman-75" x="50"/>
      <use xlink:href="#Times New Roman-66" x="100"/>
      <use xlink:href="#Times New Roman-66" x="150"/>
      <use xlink:href="#Times New Roman-65" x="200"/>
      <use xlink:href="#Times New Roman-72" x="250"/>
     </g>
    </g>
   </g>
  </g>
 </g>
 <defs>
  <clipPath id="pa29daaeac1">
   <rect x="135" y="51.84" width="837" height="332.64"/>
  </clipPath>
 </defs>
</svg>
