<?xml version="1.0" encoding="utf-8" standalone="no"?>
<!DOCTYPE svg PUBLIC "-//W3C//DTD SVG 1.1//EN"
  "http://www.w3.org/Graphics/SVG/1.1/DTD/svg11.dtd">
<svg xmlns:xlink="http://www.w3.org/1999/xlink" width="1080pt" height="432pt" viewBox="0 0 1080 432" xmlns="http://www.w3.org/2000/svg" version="1.1">
 <metadata>
  <rdf:RDF xmlns:dc="http://purl.org/dc/elements/1.1/" xmlns:cc="http://creativecommons.org/ns#" xmlns:rdf="http://www.w3.org/1999/02/22-rdf-syntax-ns#">
   <cc:Work>
    <dc:type rdf:resource="http://purl.org/dc/dcmitype/StillImage"/>
    <dc:date>2024-04-12T06:17:43.116438</dc:date>
    <dc:format>image/svg+xml</dc:format>
    <dc:creator>
     <cc:Agent>
      <dc:title>Matplotlib v3.8.3, https://matplotlib.org/</dc:title>
     </cc:Agent>
    </dc:creator>
   </cc:Work>
  </rdf:RDF>
 </metadata>
 <defs>
  <style type="text/css">*{stroke-linejoin: round; stroke-linecap: butt}</style>
 </defs>
 <g id="figure_1">
  <g id="patch_1">
   <path d="M 0 432 
L 1080 432 
L 1080 0 
L 0 0 
z
" style="fill: #ffffff"/>
  </g>
  <g id="axes_1">
   <g id="patch_2">
    <path d="M 135 384.48 
L 972 384.48 
L 972 51.84 
L 135 51.84 
z
" style="fill: #ffffff"/>
   </g>
   <g id="matplotlib.axis_1">
    <g id="xtick_1">
     <g id="line2d_1">
      <defs>
       <path id="m0d0a992ac6" d="M 0 0 
L 0 3.5 
" style="stroke: #000000; stroke-width: 0.8"/>
      </defs>
      <g>
       <use xlink:href="#m0d0a992ac6" x="173.045455" y="384.48" style="stroke: #000000; stroke-width: 0.8"/>
      </g>
     </g>
     <g id="text_1">
      <!-- 0 -->
      <g transform="translate(170.545455 398.628438) scale(0.1 -0.1)">
       <defs>
        <path id="Times New Roman-30" d="M 1600 4225
Q 1250 4225 1012 3687 
Q 775 3150 775 2250 
Q 775 1300 1012 775 
Q 1250 250 1600 250 
Q 1975 250 2187 775 
Q 2400 1300 2400 2250 
Q 2400 3150 2200 3687 
Q 2000 4225 1600 4225 
z
M 1600 50 
Q 1050 50 675 625 
Q 300 1200 300 2250 
Q 300 3225 662 3825 
Q 1025 4425 1600 4425 
Q 2150 4425 2512 3850 
Q 2875 3275 2875 2250 
Q 2875 1225 2512 637 
Q 2150 50 1600 50 
z
" transform="scale(0.015625)"/>
       </defs>
       <use xlink:href="#Times New Roman-30"/>
      </g>
     </g>
    </g>
    <g id="xtick_2">
     <g id="line2d_2">
      <g>
       <use xlink:href="#m0d0a992ac6" x="299.863636" y="384.48" style="stroke: #000000; stroke-width: 0.8"/>
      </g>
     </g>
     <g id="text_2">
      <!-- 100 -->
      <g transform="translate(292.363636 398.628438) scale(0.1 -0.1)">
       <defs>
        <path id="Times New Roman-31" d="M 1825 4450
L 1825 650 
Q 1825 450 1950 350 
Q 2075 250 2300 250 
L 2550 250 
L 2550 100 
L 725 100 
L 725 250 
L 950 250 
Q 1200 250 1312 350 
Q 1425 450 1425 650 
L 1425 3675 
Q 1425 3775 1362 3837 
Q 1300 3900 1175 3900 
L 725 3900 
L 725 4050 
L 950 4050 
Q 1250 4050 1437 4150 
Q 1625 4250 1725 4450 
L 1825 4450 
z
" transform="scale(0.015625)"/>
       </defs>
       <use xlink:href="#Times New Roman-31"/>
       <use xlink:href="#Times New Roman-30" x="50"/>
       <use xlink:href="#Times New Roman-30" x="100"/>
      </g>
     </g>
    </g>
    <g id="xtick_3">
     <g id="line2d_3">
      <g>
       <use xlink:href="#m0d0a992ac6" x="426.681818" y="384.48" style="stroke: #000000; stroke-width: 0.8"/>
      </g>
     </g>
     <g id="text_3">
      <!-- 200 -->
      <g transform="translate(419.181818 398.628438) scale(0.1 -0.1)">
       <defs>
        <path id="Times New Roman-32" d="M 2325 3325
Q 2325 3775 2125 4012 
Q 1925 4250 1525 4250 
Q 1225 4250 1012 4087 
Q 800 3925 800 3675 
Q 800 3525 900 3425 
Q 975 3325 975 3225 
Q 975 3100 912 3037 
Q 850 2975 725 2975 
Q 575 2975 487 3062 
Q 400 3150 400 3350 
Q 400 3875 775 4150 
Q 1150 4425 1575 4425 
Q 2175 4425 2462 4125 
Q 2750 3825 2750 3375 
Q 2750 3075 2612 2775 
Q 2475 2475 2175 2200 
Q 1450 1500 1062 1062 
Q 675 625 600 475 
L 2075 475 
Q 2300 475 2450 650 
Q 2600 825 2650 1175 
L 2800 1175 
L 2650 100 
L 325 100 
L 325 425 
Q 450 650 737 1000 
Q 1025 1350 1500 1825 
Q 1925 2250 2125 2625 
Q 2325 3000 2325 3325 
z
" transform="scale(0.015625)"/>
       </defs>
       <use xlink:href="#Times New Roman-32"/>
       <use xlink:href="#Times New Roman-30" x="50"/>
       <use xlink:href="#Times New Roman-30" x="100"/>
      </g>
     </g>
    </g>
    <g id="xtick_4">
     <g id="line2d_4">
      <g>
       <use xlink:href="#m0d0a992ac6" x="553.5" y="384.48" style="stroke: #000000; stroke-width: 0.8"/>
      </g>
     </g>
     <g id="text_4">
      <!-- 300 -->
      <g transform="translate(546 398.628438) scale(0.1 -0.1)">
       <defs>
        <path id="Times New Roman-33" d="M 2800 1250
Q 2800 775 2450 412 
Q 2100 50 1475 50 
Q 1025 50 700 300 
Q 375 550 375 875 
Q 375 1025 475 1137 
Q 575 1250 675 1250 
Q 825 1250 887 1137 
Q 950 1025 950 950 
Q 950 825 900 750 
Q 850 650 850 575 
Q 850 425 1037 325 
Q 1225 225 1450 225 
Q 1900 225 2125 487 
Q 2350 750 2350 1300 
Q 2350 1750 2112 2025 
Q 1875 2300 1225 2300 
L 1225 2475 
Q 1725 2475 1962 2712 
Q 2200 2950 2200 3375 
Q 2200 3725 2012 3987 
Q 1825 4250 1425 4250 
Q 1250 4250 1050 4162 
Q 850 4075 850 3875 
Q 850 3675 900 3625 
Q 950 3575 950 3500 
Q 950 3375 900 3300 
Q 850 3225 725 3225 
Q 625 3225 537 3300 
Q 450 3375 450 3575 
Q 450 3950 775 4187 
Q 1100 4425 1525 4425 
Q 2025 4425 2325 4112 
Q 2625 3800 2625 3450 
Q 2625 3075 2437 2812 
Q 2250 2550 1850 2425 
Q 2400 2225 2600 1900 
Q 2800 1575 2800 1250 
z
" transform="scale(0.015625)"/>
       </defs>
       <use xlink:href="#Times New Roman-33"/>
       <use xlink:href="#Times New Roman-30" x="50"/>
       <use xlink:href="#Times New Roman-30" x="100"/>
      </g>
     </g>
    </g>
    <g id="xtick_5">
     <g id="line2d_5">
      <g>
       <use xlink:href="#m0d0a992ac6" x="680.318182" y="384.48" style="stroke: #000000; stroke-width: 0.8"/>
      </g>
     </g>
     <g id="text_5">
      <!-- 400 -->
      <g transform="translate(672.818182 398.628438) scale(0.1 -0.1)">
       <defs>
        <path id="Times New Roman-34" d="M 2300 575
Q 2300 400 2400 325 
Q 2500 250 2675 250 
L 2900 250 
L 2900 100 
L 1250 100 
L 1250 250 
L 1525 250 
Q 1725 250 1812 325 
Q 1900 400 1900 575 
L 1900 1400 
L 225 1400 
L 225 1525 
L 2050 4425 
L 2300 4425 
L 2300 1550 
L 2975 1550 
L 2975 1400 
L 2300 1400 
L 2300 575 
z
M 1875 3800 
L 450 1550 
L 1900 1550 
L 1900 3800 
L 1875 3800 
z
" transform="scale(0.015625)"/>
       </defs>
       <use xlink:href="#Times New Roman-34"/>
       <use xlink:href="#Times New Roman-30" x="50"/>
       <use xlink:href="#Times New Roman-30" x="100"/>
      </g>
     </g>
    </g>
    <g id="xtick_6">
     <g id="line2d_6">
      <g>
       <use xlink:href="#m0d0a992ac6" x="807.136364" y="384.48" style="stroke: #000000; stroke-width: 0.8"/>
      </g>
     </g>
     <g id="text_6">
      <!-- 500 -->
      <g transform="translate(799.636364 398.628438) scale(0.1 -0.1)">
       <defs>
        <path id="Times New Roman-35" d="M 1725 2850
Q 2200 2850 2500 2487 
Q 2800 2125 2800 1525 
Q 2800 850 2487 450 
Q 2175 50 1525 50 
Q 1075 50 725 312 
Q 375 575 375 950 
Q 375 1100 462 1212 
Q 550 1325 700 1325 
Q 850 1325 900 1225 
Q 950 1125 950 1050 
Q 950 900 875 825 
Q 800 725 800 625 
Q 800 425 1037 325 
Q 1275 225 1550 225 
Q 1950 225 2162 550 
Q 2375 875 2375 1475 
Q 2375 1975 2187 2287 
Q 2000 2600 1625 2600 
Q 1350 2600 1150 2500 
Q 950 2400 775 2075 
L 550 2100 
L 675 4375 
L 2725 4375 
L 2650 4000 
L 850 4000 
L 750 2350 
Q 1000 2700 1237 2775 
Q 1475 2850 1725 2850 
z
" transform="scale(0.015625)"/>
       </defs>
       <use xlink:href="#Times New Roman-35"/>
       <use xlink:href="#Times New Roman-30" x="50"/>
       <use xlink:href="#Times New Roman-30" x="100"/>
      </g>
     </g>
    </g>
    <g id="xtick_7">
     <g id="line2d_7">
      <g>
       <use xlink:href="#m0d0a992ac6" x="933.954545" y="384.48" style="stroke: #000000; stroke-width: 0.8"/>
      </g>
     </g>
     <g id="text_7">
      <!-- 600 -->
      <g transform="translate(926.454545 398.628438) scale(0.1 -0.1)">
       <defs>
        <path id="Times New Roman-36" d="M 775 1800
Q 775 1050 1037 637 
Q 1300 225 1675 225 
Q 2050 225 2250 500 
Q 2450 775 2450 1525 
Q 2450 2025 2237 2300 
Q 2025 2575 1725 2575 
Q 1450 2575 1212 2412 
Q 975 2250 775 1800 
z
M 1750 2825 
Q 2350 2825 2612 2425 
Q 2875 2025 2875 1525 
Q 2875 775 2512 412 
Q 2150 50 1675 50 
Q 1000 50 650 562 
Q 300 1075 300 2050 
Q 300 3200 725 3812 
Q 1150 4425 1875 4425 
Q 2225 4425 2437 4225 
Q 2650 4025 2650 3875 
Q 2650 3725 2587 3650 
Q 2525 3575 2375 3575 
Q 2250 3575 2187 3637 
Q 2125 3700 2125 3825 
Q 2125 3875 2150 3925 
Q 2150 3975 2150 4025 
Q 2150 4125 2075 4187 
Q 2000 4250 1800 4250 
Q 1375 4250 1075 3862 
Q 775 3475 775 2175 
Q 925 2500 1187 2662 
Q 1450 2825 1750 2825 
z
" transform="scale(0.015625)"/>
       </defs>
       <use xlink:href="#Times New Roman-36"/>
       <use xlink:href="#Times New Roman-30" x="50"/>
       <use xlink:href="#Times New Roman-30" x="100"/>
      </g>
     </g>
    </g>
   </g>
   <g id="matplotlib.axis_2">
    <g id="ytick_1">
     <g id="line2d_8">
      <defs>
       <path id="md027b3fc36" d="M 0 0 
L -3.5 0 
" style="stroke: #000000; stroke-width: 0.8"/>
      </defs>
      <g>
       <use xlink:href="#md027b3fc36" x="135" y="375.036182" style="stroke: #000000; stroke-width: 0.8"/>
      </g>
     </g>
     <g id="text_8">
      <!-- 0 -->
      <g transform="translate(123 378.610401) scale(0.1 -0.1)">
       <use xlink:href="#Times New Roman-30"/>
      </g>
     </g>
    </g>
    <g id="ytick_2">
     <g id="line2d_9">
      <g>
       <use xlink:href="#md027b3fc36" x="135" y="311.354255" style="stroke: #000000; stroke-width: 0.8"/>
      </g>
     </g>
     <g id="text_9">
      <!-- 1000 -->
      <g transform="translate(108 314.928474) scale(0.1 -0.1)">
       <use xlink:href="#Times New Roman-31"/>
       <use xlink:href="#Times New Roman-30" x="50"/>
       <use xlink:href="#Times New Roman-30" x="100"/>
       <use xlink:href="#Times New Roman-30" x="150"/>
      </g>
     </g>
    </g>
    <g id="ytick_3">
     <g id="line2d_10">
      <g>
       <use xlink:href="#md027b3fc36" x="135" y="247.672328" style="stroke: #000000; stroke-width: 0.8"/>
      </g>
     </g>
     <g id="text_10">
      <!-- 2000 -->
      <g transform="translate(108 251.246547) scale(0.1 -0.1)">
       <use xlink:href="#Times New Roman-32"/>
       <use xlink:href="#Times New Roman-30" x="50"/>
       <use xlink:href="#Times New Roman-30" x="100"/>
       <use xlink:href="#Times New Roman-30" x="150"/>
      </g>
     </g>
    </g>
    <g id="ytick_4">
     <g id="line2d_11">
      <g>
       <use xlink:href="#md027b3fc36" x="135" y="183.990401" style="stroke: #000000; stroke-width: 0.8"/>
      </g>
     </g>
     <g id="text_11">
      <!-- 3000 -->
      <g transform="translate(108 187.564619) scale(0.1 -0.1)">
       <use xlink:href="#Times New Roman-33"/>
       <use xlink:href="#Times New Roman-30" x="50"/>
       <use xlink:href="#Times New Roman-30" x="100"/>
       <use xlink:href="#Times New Roman-30" x="150"/>
      </g>
     </g>
    </g>
    <g id="ytick_5">
     <g id="line2d_12">
      <g>
       <use xlink:href="#md027b3fc36" x="135" y="120.308473" style="stroke: #000000; stroke-width: 0.8"/>
      </g>
     </g>
     <g id="text_12">
      <!-- 4000 -->
      <g transform="translate(108 123.882692) scale(0.1 -0.1)">
       <use xlink:href="#Times New Roman-34"/>
       <use xlink:href="#Times New Roman-30" x="50"/>
       <use xlink:href="#Times New Roman-30" x="100"/>
       <use xlink:href="#Times New Roman-30" x="150"/>
      </g>
     </g>
    </g>
    <g id="ytick_6">
     <g id="line2d_13">
      <g>
       <use xlink:href="#md027b3fc36" x="135" y="56.626546" style="stroke: #000000; stroke-width: 0.8"/>
      </g>
     </g>
     <g id="text_13">
      <!-- 5000 -->
      <g transform="translate(108 60.200765) scale(0.1 -0.1)">
       <use xlink:href="#Times New Roman-35"/>
       <use xlink:href="#Times New Roman-30" x="50"/>
       <use xlink:href="#Times New Roman-30" x="100"/>
       <use xlink:href="#Times New Roman-30" x="150"/>
      </g>
     </g>
    </g>
    <g id="text_14">
     <!-- Bitrate (kbps) -->
     <g transform="translate(102.710938 253.16) rotate(-90) scale(0.1 -0.1)">
      <defs>
       <path id="Times New Roman-42" d="M 100 100
L 100 250 
L 300 250 
Q 425 250 475 300 
Q 525 350 525 450 
L 525 4025 
Q 525 4125 475 4175 
Q 425 4225 300 4225 
L 150 4225 
L 150 4375 
L 1600 4375 
Q 2200 4375 2487 4137 
Q 2775 3900 2775 3400 
Q 2775 3050 2625 2825 
Q 2475 2600 2000 2425 
Q 2575 2250 2775 1925 
Q 2975 1600 2975 1200 
Q 2975 700 2625 400 
Q 2275 100 1675 100 
L 100 100 
z
M 1600 250 
Q 2025 250 2262 512 
Q 2500 775 2500 1250 
Q 2500 1800 2250 2062 
Q 2000 2325 1500 2325 
L 925 2325 
L 925 450 
Q 925 350 987 300 
Q 1050 250 1150 250 
L 1600 250 
z
M 2350 3400 
Q 2350 3850 2100 4037 
Q 1850 4225 1450 4225 
L 1150 4225 
Q 1050 4225 987 4175 
Q 925 4125 925 4025 
L 925 2475 
L 1575 2475 
Q 1850 2475 2100 2700 
Q 2350 2925 2350 3400 
z
" transform="scale(0.015625)"/>
       <path id="Times New Roman-69" d="M 1425 2525
Q 1425 2625 1375 2687 
Q 1325 2750 1200 2750 
L 675 2750 
L 675 2900 
L 925 2900 
Q 1150 2900 1350 2937 
Q 1550 2975 1725 3075 
L 1775 3075 
L 1775 450 
Q 1775 350 1837 300 
Q 1900 250 2000 250 
L 2525 250 
L 2525 100 
L 675 100 
L 675 250 
L 1200 250 
Q 1325 250 1375 300 
Q 1425 350 1425 450 
L 1425 2525 
z
M 1725 3025 
L 1725 3025 
z
M 1625 4425 
Q 1750 4425 1850 4337 
Q 1950 4250 1950 4125 
Q 1950 4000 1850 3900 
Q 1750 3800 1625 3800 
Q 1500 3800 1400 3900 
Q 1300 4000 1300 4125 
Q 1300 4250 1400 4337 
Q 1500 4425 1625 4425 
z
" transform="scale(0.015625)"/>
       <path id="Times New Roman-74" d="M 1500 900
Q 1500 550 1625 425 
Q 1750 300 2000 300 
Q 2250 300 2400 462 
Q 2550 625 2600 925 
L 2725 875 
Q 2675 525 2462 300 
Q 2250 75 1900 75 
Q 1525 75 1337 300 
Q 1150 525 1150 1000 
L 1150 2750 
L 400 2750 
L 400 2900 
L 600 2900 
Q 900 2900 1087 3087 
Q 1275 3275 1325 3675 
L 1350 3875 
L 1500 3875 
L 1500 2900 
L 2500 2900 
L 2500 2750 
L 1500 2750 
L 1500 900 
z
" transform="scale(0.015625)"/>
       <path id="Times New Roman-72" d="M 1275 2125
Q 1525 2525 1812 2737 
Q 2100 2950 2400 2950 
Q 2650 2950 2787 2837 
Q 2925 2725 2925 2575 
Q 2925 2450 2862 2375 
Q 2800 2300 2675 2300 
Q 2550 2300 2487 2375 
Q 2425 2450 2450 2575 
Q 2450 2650 2425 2700 
Q 2400 2750 2275 2750 
Q 2075 2750 1787 2500 
Q 1500 2250 1275 1800 
L 1275 450 
Q 1275 350 1337 300 
Q 1400 250 1500 250 
L 2050 250 
L 2050 100 
L 200 100 
L 200 250 
L 700 250 
Q 825 250 875 300 
Q 925 350 925 450 
L 925 2525 
Q 925 2625 875 2687 
Q 825 2750 700 2750 
L 225 2750 
L 225 2900 
L 425 2900 
Q 600 2900 837 2937 
Q 1075 2975 1200 3025 
L 1275 3025 
L 1275 2125 
z
" transform="scale(0.015625)"/>
       <path id="Times New Roman-61" d="M 1225 75
Q 775 75 525 287 
Q 275 500 275 775 
Q 275 1225 662 1512 
Q 1050 1800 2200 1925 
L 2200 2225 
Q 2200 2475 2087 2637 
Q 1975 2800 1575 2800 
Q 1150 2800 975 2662 
Q 800 2525 850 2375 
Q 875 2325 875 2275 
Q 875 2225 837 2150 
Q 800 2075 650 2075 
Q 550 2075 487 2137 
Q 425 2200 425 2325 
Q 425 2550 750 2750 
Q 1075 2950 1550 2950 
Q 2050 2950 2300 2762 
Q 2550 2575 2550 2225 
L 2550 575 
Q 2550 375 2587 337 
Q 2625 300 2725 300 
Q 2850 300 2900 412 
Q 2950 525 2950 725 
L 3075 725 
Q 3075 375 2950 237 
Q 2825 100 2625 100 
Q 2450 100 2350 175 
Q 2250 250 2200 425 
Q 1950 250 1737 162 
Q 1525 75 1225 75 
z
M 700 850 
Q 700 625 837 437 
Q 975 250 1275 250 
Q 1500 250 1725 337 
Q 1950 425 2200 600 
L 2200 1775 
Q 1350 1675 1025 1437 
Q 700 1200 700 850 
z
" transform="scale(0.015625)"/>
       <path id="Times New Roman-65" d="M 2400 1650
Q 2425 2200 2212 2487 
Q 2000 2775 1650 2775 
Q 1275 2775 1037 2475 
Q 800 2175 800 1650 
L 2400 1650 
z
M 800 1500 
Q 800 825 1062 537 
Q 1325 250 1750 250 
Q 2075 250 2300 437 
Q 2525 625 2625 900 
L 2750 850 
Q 2675 575 2412 312 
Q 2150 50 1700 50 
Q 1125 50 762 425 
Q 400 800 400 1500 
Q 400 2125 762 2537 
Q 1125 2950 1650 2950 
Q 2125 2950 2475 2625 
Q 2825 2300 2825 1500 
L 800 1500 
z
" transform="scale(0.015625)"/>
       <path id="Times New Roman-20" d="M 0 0
Q 0 0 0 0 
z
" transform="scale(0.015625)"/>
       <path id="Times New Roman-28" d="M 2900 5025
Q 2325 4425 2037 3737 
Q 1750 3050 1750 2300 
Q 1750 1525 2037 850 
Q 2325 175 2900 -425 
L 2775 -550 
Q 2075 75 1725 787 
Q 1375 1500 1375 2300 
Q 1375 3075 1725 3787 
Q 2075 4500 2775 5150 
L 2900 5025 
z
" transform="scale(0.015625)"/>
       <path id="Times New Roman-6b" d="M 1675 1900
L 2625 425 
Q 2700 325 2762 287 
Q 2825 250 2900 250 
L 3000 250 
L 3000 100 
L 1975 100 
L 1975 250 
L 2050 250 
Q 2175 250 2225 287 
Q 2275 325 2200 425 
L 1425 1650 
L 925 1125 
L 925 450 
Q 925 350 987 300 
Q 1050 250 1150 250 
L 1275 250 
L 1275 100 
L 225 100 
L 225 250 
L 350 250 
Q 475 250 525 300 
Q 575 350 575 450 
L 575 4025 
Q 575 4125 525 4175 
Q 475 4225 350 4225 
L 200 4225 
L 200 4375 
L 425 4375 
Q 575 4375 687 4425 
Q 800 4475 875 4575 
L 925 4575 
L 925 1400 
L 1975 2525 
Q 2025 2625 2012 2687 
Q 2000 2750 1900 2750 
L 1750 2750 
L 1750 2900 
L 2800 2900 
L 2800 2750 
L 2675 2750 
Q 2600 2750 2487 2712 
Q 2375 2675 2275 2575 
L 1675 1900 
z
M 2450 2750 
L 2450 2750 
z
M 2175 2750 
L 2175 2750 
z
M 2300 250 
L 2300 250 
z
M 2750 250 
L 2750 250 
z
" transform="scale(0.015625)"/>
       <path id="Times New Roman-62" d="M 875 2325
Q 1000 2600 1275 2762 
Q 1550 2925 1800 2925 
Q 2325 2925 2587 2562 
Q 2850 2200 2850 1500 
Q 2850 800 2512 437 
Q 2175 75 1675 75 
Q 1425 75 1212 162 
Q 1000 250 850 400 
L 625 100 
L 525 100 
L 525 4025 
Q 525 4125 475 4175 
Q 425 4225 300 4225 
L 150 4225 
L 150 4375 
L 375 4375 
Q 500 4375 625 4425 
Q 750 4475 875 4575 
L 875 2325 
z
M 875 925 
Q 875 650 1062 450 
Q 1250 250 1625 250 
Q 2075 250 2262 562 
Q 2450 875 2450 1500 
Q 2450 2100 2287 2412 
Q 2125 2725 1775 2725 
Q 1475 2725 1250 2550 
Q 1025 2375 875 1925 
L 875 925 
z
" transform="scale(0.015625)"/>
       <path id="Times New Roman-70" d="M 1150 -675
L 1325 -675 
L 1325 -825 
L 175 -825 
L 175 -675 
L 325 -675 
Q 450 -675 500 -625 
Q 550 -575 550 -450 
L 550 2500 
Q 550 2600 500 2662 
Q 450 2725 325 2725 
L 175 2725 
L 175 2875 
L 400 2875 
Q 525 2875 637 2900 
Q 750 2925 850 3000 
L 900 3000 
L 900 2425 
Q 1075 2675 1287 2800 
Q 1500 2925 1750 2925 
Q 2250 2925 2575 2587 
Q 2900 2250 2900 1525 
Q 2900 825 2550 450 
Q 2200 75 1725 75 
Q 1450 75 1262 162 
Q 1075 250 900 425 
L 900 -450 
Q 900 -575 975 -625 
Q 1050 -675 1150 -675 
z
M 900 750 
Q 1025 500 1212 375 
Q 1400 250 1650 250 
Q 2000 250 2250 562 
Q 2500 875 2500 1525 
Q 2500 2125 2312 2425 
Q 2125 2725 1750 2725 
Q 1525 2725 1300 2587 
Q 1075 2450 900 2150 
L 900 750 
z
" transform="scale(0.015625)"/>
       <path id="Times New Roman-73" d="M 625 2175
Q 625 2550 912 2750 
Q 1200 2950 1600 2950 
Q 1825 2950 2025 2900 
Q 2225 2825 2300 2825 
Q 2375 2825 2425 2850 
Q 2475 2875 2550 2950 
L 2650 2125 
L 2500 2100 
Q 2400 2425 2162 2612 
Q 1925 2800 1625 2800 
Q 1300 2800 1112 2675 
Q 925 2550 925 2325 
Q 925 2125 1012 2012 
Q 1100 1900 1325 1850 
Q 1500 1775 1775 1700 
Q 2025 1600 2250 1500 
Q 2450 1400 2587 1237 
Q 2725 1075 2725 875 
Q 2725 500 2462 287 
Q 2200 75 1700 75 
Q 1375 75 1225 150 
Q 1050 200 950 200 
Q 875 200 787 162 
Q 700 125 600 75 
L 525 1000 
L 675 1025 
Q 750 625 1000 425 
Q 1250 225 1700 225 
Q 2050 225 2237 350 
Q 2425 475 2425 725 
Q 2425 900 2325 1012 
Q 2225 1125 2125 1175 
Q 1875 1275 1575 1400 
Q 1275 1500 1050 1600 
Q 825 1700 725 1850 
Q 625 2000 625 2175 
z
" transform="scale(0.015625)"/>
       <path id="Times New Roman-29" d="M 275 5025
L 400 5150 
Q 1100 4500 1450 3787 
Q 1800 3075 1800 2300 
Q 1800 1500 1450 787 
Q 1100 75 400 -550 
L 275 -425 
Q 850 175 1137 850 
Q 1425 1525 1425 2300 
Q 1425 3050 1137 3737 
Q 850 4425 275 5025 
z
" transform="scale(0.015625)"/>
      </defs>
      <use xlink:href="#Times New Roman-42"/>
      <use xlink:href="#Times New Roman-69" x="50"/>
      <use xlink:href="#Times New Roman-74" x="100"/>
      <use xlink:href="#Times New Roman-72" x="150"/>
      <use xlink:href="#Times New Roman-61" x="200"/>
      <use xlink:href="#Times New Roman-74" x="250"/>
      <use xlink:href="#Times New Roman-65" x="300"/>
      <use xlink:href="#Times New Roman-20" x="350"/>
      <use xlink:href="#Times New Roman-28" x="400"/>
      <use xlink:href="#Times New Roman-6b" x="450"/>
      <use xlink:href="#Times New Roman-62" x="500"/>
      <use xlink:href="#Times New Roman-70" x="550"/>
      <use xlink:href="#Times New Roman-73" x="600"/>
      <use xlink:href="#Times New Roman-29" x="650"/>
     </g>
    </g>
   </g>
   <g id="line2d_14">
    <path d="M 173.045455 358.033108 
L 176.85 358.033108 
L 178.118182 333.833975 
L 185.727273 333.833975 
L 186.995455 305.431836 
L 192.068182 305.431836 
L 193.336364 253.785793 
L 214.895455 253.785793 
L 214.895455 253.785793 
L 216.163636 127.568213 
L 216.163636 127.568213 
L 221.236364 127.568213 
L 221.236364 127.568213 
L 222.504545 253.785793 
L 228.845455 253.785793 
L 231.381818 127.568213 
L 232.65 127.568213 
L 232.65 253.785793 
L 240.259091 253.785793 
L 240.259091 127.568213 
L 245.331818 127.568213 
L 245.331818 127.568213 
L 246.6 253.785793 
L 249.136364 253.785793 
L 250.404545 127.568213 
L 251.672727 253.785793 
L 252.940909 253.785793 
L 252.940909 253.785793 
L 254.209091 127.568213 
L 254.209091 127.568213 
L 255.477273 253.785793 
L 255.477273 253.785793 
L 258.013636 253.785793 
L 259.281818 127.568213 
L 269.427273 127.568213 
L 269.427273 127.568213 
L 270.695455 253.785793 
L 277.036364 253.785793 
L 277.036364 253.785793 
L 278.304545 127.568213 
L 278.304545 127.568213 
L 280.840909 127.568213 
L 280.840909 127.568213 
L 282.109091 305.431836 
L 284.645455 305.431836 
L 285.913636 253.785793 
L 285.913636 253.785793 
L 287.181818 366.057031 
L 293.522727 366.057031 
L 293.522727 366.057031 
L 294.790909 253.785793 
L 294.790909 253.785793 
L 296.059091 253.785793 
L 296.059091 253.785793 
L 297.327273 333.833975 
L 301.131818 333.833975 
L 316.35 366.057031 
L 337.909091 366.057031 
L 337.909091 333.833975 
L 342.981818 333.833975 
L 342.981818 305.431836 
L 349.322727 305.431836 
L 350.590909 253.785793 
L 354.395455 253.785793 
L 355.663636 190.677003 
L 358.2 190.677003 
L 358.2 190.677003 
L 359.468182 127.568213 
L 362.004545 190.677003 
L 362.004545 190.677003 
L 363.272727 190.677003 
L 363.272727 190.677003 
L 364.540909 253.785793 
L 365.809091 253.785793 
L 365.809091 253.785793 
L 367.077273 127.568213 
L 472.336364 127.568213 
L 473.604545 253.785793 
L 478.677273 253.785793 
L 478.677273 253.785793 
L 478.677273 127.568213 
L 479.945455 253.785793 
L 479.945455 253.785793 
L 487.554545 253.785793 
L 490.090909 127.568213 
L 491.359091 253.785793 
L 491.359091 253.785793 
L 495.163636 253.785793 
L 496.431818 127.568213 
L 497.7 253.785793 
L 497.7 253.785793 
L 500.236364 253.785793 
L 504.040909 127.568213 
L 505.309091 127.568213 
L 505.309091 253.785793 
L 523.063636 253.785793 
L 524.331818 127.568213 
L 524.331818 253.785793 
L 530.672727 253.785793 
L 530.672727 253.785793 
L 531.940909 127.568213 
L 531.940909 127.568213 
L 533.209091 253.785793 
L 538.281818 253.785793 
L 538.281818 127.568213 
L 567.45 127.568213 
L 567.45 127.568213 
L 568.718182 253.785793 
L 571.254545 253.785793 
L 571.254545 127.568213 
L 572.522727 253.785793 
L 577.595455 253.785793 
L 577.595455 127.568213 
L 577.595455 253.785793 
L 582.668182 253.785793 
L 582.668182 253.785793 
L 583.936364 127.568213 
L 583.936364 127.568213 
L 585.204545 253.785793 
L 596.618182 253.785793 
L 597.886364 127.568213 
L 599.154545 253.785793 
L 604.227273 253.785793 
L 604.227273 253.785793 
L 605.495455 305.431836 
L 609.3 305.431836 
L 615.640909 253.785793 
L 616.909091 253.785793 
L 618.177273 349.945503 
L 618.177273 349.945503 
L 619.445455 349.945503 
L 620.713636 333.833975 
L 633.395455 333.833975 
L 633.395455 305.431836 
L 638.468182 305.431836 
L 639.736364 253.785793 
L 657.490909 253.785793 
L 660.027273 127.568213 
L 660.027273 253.785793 
L 663.831818 253.785793 
L 665.1 127.568213 
L 666.368182 253.785793 
L 668.904545 253.785793 
L 670.172727 127.568213 
L 671.440909 253.785793 
L 673.977273 253.785793 
L 673.977273 253.785793 
L 675.245455 127.568213 
L 687.927273 127.568213 
L 690.463636 190.677003 
L 691.731818 190.677003 
L 691.731818 190.677003 
L 693 127.568213 
L 728.509091 127.568213 
L 728.509091 127.568213 
L 728.509091 253.785793 
L 731.045455 253.785793 
L 731.045455 253.785793 
L 732.313636 127.568213 
L 732.313636 127.568213 
L 733.581818 253.785793 
L 742.459091 253.785793 
L 742.459091 127.568213 
L 743.727273 253.785793 
L 752.604545 253.785793 
L 753.872727 305.431836 
L 758.945455 305.431836 
L 765.286364 253.785793 
L 767.822727 253.785793 
L 769.090909 333.833975 
L 769.090909 333.833975 
L 770.359091 333.833975 
L 770.359091 366.057031 
L 777.968182 366.057031 
L 779.236364 333.833975 
L 779.236364 333.833975 
L 796.990909 333.833975 
L 796.990909 305.431836 
L 802.063636 305.431836 
L 803.331818 253.785793 
L 803.331818 253.785793 
L 812.209091 253.785793 
L 812.209091 253.785793 
L 812.209091 127.568213 
L 813.477273 127.568213 
L 813.477273 253.785793 
L 824.890909 253.785793 
L 826.159091 127.568213 
L 827.427273 253.785793 
L 831.231818 253.785793 
L 833.768182 127.568213 
L 837.572727 127.568213 
L 838.840909 190.677003 
L 842.645455 190.677003 
L 842.645455 190.677003 
L 843.913636 253.785793 
L 846.45 253.785793 
L 846.45 253.785793 
L 848.986364 127.568213 
L 852.790909 127.568213 
L 854.059091 253.785793 
L 857.863636 253.785793 
L 860.4 127.568213 
L 861.668182 127.568213 
L 864.204545 253.785793 
L 866.740909 253.785793 
L 866.740909 127.568213 
L 871.813636 127.568213 
L 875.618182 169.661967 
L 876.886364 253.785793 
L 888.3 253.785793 
L 889.568182 190.677003 
L 889.568182 253.785793 
L 897.177273 253.785793 
L 897.177273 253.785793 
L 898.445455 127.568213 
L 900.981818 253.785793 
L 902.25 253.785793 
L 902.25 253.785793 
L 903.518182 127.568213 
L 904.786364 253.785793 
L 906.054545 253.785793 
L 906.054545 253.785793 
L 907.322727 305.431836 
L 907.322727 305.431836 
L 908.590909 305.431836 
L 909.859091 253.785793 
L 920.004545 253.785793 
L 921.272727 305.431836 
L 921.272727 305.431836 
L 923.809091 305.431836 
L 925.077273 333.833975 
L 930.15 333.833975 
L 931.418182 253.785793 
L 933.954545 253.785793 
L 933.954545 253.785793 
" clip-path="url(#pc8779d1aae)" style="fill: none; stroke: #ff0000; stroke-width: 1.5; stroke-linecap: square"/>
   </g>
   <g id="line2d_15">
    <path d="M 173.045455 335.935479 
L 174.313636 335.505626 
L 175.581818 333.497876 
L 176.85 329.990064 
L 179.386364 321.113511 
L 180.654545 315.438389 
L 181.922727 309.10416 
L 184.459091 302.697758 
L 184.459091 297.064031 
L 188.263636 278.333053 
L 188.263636 272.869144 
L 190.8 262.612108 
L 193.336364 250.72906 
L 194.604545 243.961794 
L 195.872727 236.213826 
L 197.140909 227.684694 
L 200.945455 206.805512 
L 203.481818 199.078772 
L 204.75 192.668124 
L 207.286364 184.567783 
L 207.286364 177.486353 
L 208.554545 169.199212 
L 211.090909 162.6145 
L 211.090909 155.859971 
L 212.359091 151.266381 
L 214.895455 145.810962 
L 214.895455 140.856508 
L 216.163636 135.269481 
L 216.163636 130.484845 
L 217.431818 125.2417 
L 221.236364 120.287246 
L 221.236364 115.621483 
L 222.504545 111.363285 
L 225.040909 111.015157 
L 226.309091 109.669346 
L 226.309091 108.353253 
L 227.577273 102.664334 
L 227.577273 98.227826 
L 228.845455 104.74461 
L 231.381818 132.713713 
L 232.65 164.826386 
L 232.65 190.846821 
L 233.918182 207.544223 
L 236.454545 226.2752 
L 237.722727 231.318809 
L 238.990909 221.477828 
L 240.259091 203.162906 
L 240.259091 184.826757 
L 241.527273 169.785085 
L 245.331818 161.319634 
L 245.331818 177.218889 
L 246.6 195.05832 
L 247.868182 209.671199 
L 249.136364 202.852987 
L 250.404545 185.208848 
L 251.672727 173.686665 
L 252.940909 170.162931 
L 252.940909 177.885426 
L 254.209091 169.882731 
L 254.209091 132.446249 
L 255.477273 116.445103 
L 255.477273 103.853063 
L 256.745455 119.000871 
L 256.745455 142.240529 
L 258.013636 164.287212 
L 259.281818 175.520704 
L 260.55 177.257098 
L 265.622727 171.309206 
L 266.890909 159.663904 
L 268.159091 150.833344 
L 269.427273 152.72682 
L 269.427273 163.569729 
L 270.695455 173.860729 
L 271.963636 181.990788 
L 273.231818 189.22081 
L 274.5 195.763066 
L 277.036364 202.980351 
L 277.036364 209.607517 
L 278.304545 216.234683 
L 278.304545 222.182575 
L 279.572727 227.905458 
L 279.572727 232.082992 
L 280.840909 236.111935 
L 280.840909 240.442306 
L 282.109091 245.311851 
L 284.645455 254.486294 
L 285.913636 259.686985 
L 285.913636 265.414113 
L 288.45 276.668832 
L 289.718182 282.005378 
L 293.522727 295.612083 
L 293.522727 300.481627 
L 294.790909 305.338436 
L 294.790909 309.405588 
L 296.059091 313.205277 
L 296.059091 316.393618 
L 297.327273 319.437614 
L 298.595455 322.124992 
L 299.863636 325.652971 
L 299.863636 329.495114 
L 301.131818 333.273575 
L 316.35 336.712399 
L 317.618182 339.926213 
L 318.886364 342.23999 
L 320.154545 342.940491 
L 322.690909 342.418299 
L 323.959091 340.919651 
L 325.227273 338.499738 
L 326.495455 334.93355 
L 327.763636 330.985271 
L 327.763636 327.147373 
L 329.031818 323.475049 
L 329.031818 320.210289 
L 330.3 317.013456 
L 330.3 314.266642 
L 331.568182 312.097211 
L 336.640909 308.836696 
L 337.909091 303.962906 
L 337.909091 297.594713 
L 339.177273 290.224592 
L 341.713636 281.287895 
L 341.713636 272.380916 
L 342.981818 264.301802 
L 342.981818 257.899645 
L 344.25 251.624853 
L 345.518182 246.415671 
L 348.054545 240.565425 
L 349.322727 235.564271 
L 351.859091 222.428812 
L 354.395455 214.528007 
L 355.663636 207.276759 
L 358.2 190.583603 
L 358.2 182.674307 
L 359.468182 175.482495 
L 362.004545 169.254403 
L 362.004545 163.994275 
L 363.272727 159.956841 
L 363.272727 155.384479 
L 365.809091 143.887768 
L 365.809091 137.97384 
L 367.077273 132.951459 
L 372.15 127.670104 
L 373.418182 123.40766 
L 373.418182 118.962662 
L 374.686364 114.916737 
L 377.222727 113.180343 
L 378.490909 112.781269 
L 379.759091 112.161432 
L 381.027273 108.000879 
L 382.295455 103.211998 
L 386.1 83.82722 
L 387.368182 81.139842 
L 391.172727 75.196196 
L 392.440909 76.338225 
L 392.440909 79.445903 
L 393.709091 83.126719 
L 393.709091 84.404603 
L 394.977273 84.510739 
L 394.977273 83.046055 
L 396.245455 82.014408 
L 396.245455 81.848835 
L 397.513636 88.259482 
L 397.513636 99.921766 
L 398.781818 110.773166 
L 398.781818 115.770075 
L 400.05 116.13943 
L 400.05 112.441632 
L 401.318182 104.613001 
L 401.318182 91.193096 
L 402.586364 90.709113 
L 402.586364 90.225131 
L 403.854545 90.993559 
L 403.854545 93.014399 
L 405.122727 100.05762 
L 405.122727 122.524604 
L 406.390909 131.902829 
L 406.390909 139.005487 
L 407.659091 140.852263 
L 408.927273 155.617979 
L 408.927273 183.302636 
L 410.195455 219.47397 
L 410.195455 248.232729 
L 411.463636 270.916231 
L 411.463636 279.0378 
L 412.731818 271.659187 
L 412.731818 257.016589 
L 414 247.027018 
L 414 240.501743 
L 415.268182 229.879597 
L 415.268182 220.081071 
L 416.536364 212.443486 
L 416.536364 208.936734 
L 417.804545 209.717899 
L 417.804545 213.564288 
L 419.072727 216.642247 
L 419.072727 218.646105 
L 420.340909 221.499056 
L 420.340909 225.230817 
L 421.609091 222.297203 
L 421.609091 216.251665 
L 422.877273 208.923998 
L 424.145455 207.998487 
L 424.145455 213.475133 
L 425.413636 228.66115 
L 425.413636 248.984176 
L 426.681818 266.220751 
L 426.681818 270.661504 
L 427.95 265.957532 
L 427.95 258.158619 
L 429.218182 251.179079 
L 429.218182 247.850637 
L 430.486364 252.231954 
L 430.486364 261.329979 
L 431.754545 269.506738 
L 433.022727 280.735985 
L 472.336364 296.346548 
L 473.604545 313.404813 
L 474.872727 326.081762 
L 478.677273 334.835904 
L 478.677273 336.555317 
L 478.677273 333.532548 
L 479.945455 327.669565 
L 479.945455 324.137341 
L 482.481818 318.397476 
L 486.286364 314.606279 
L 487.554545 309.51597 
L 490.090909 302.663795 
L 491.359091 295.149327 
L 491.359091 287.078704 
L 493.895455 275.148957 
L 495.163636 270.614804 
L 496.431818 264.225383 
L 497.7 258.481274 
L 497.7 250.877652 
L 498.968182 243.774994 
L 500.236364 235.895417 
L 504.040909 229.098432 
L 505.309091 221.099982 
L 505.309091 212.927468 
L 506.577273 208.418788 
L 507.845455 217.610213 
L 509.113636 230.164043 
L 509.113636 242.165964 
L 510.381818 250.945579 
L 512.918182 265.690068 
L 514.186364 266.076405 
L 514.186364 257.258581 
L 515.454545 241.788118 
L 517.990909 242.40371 
L 519.259091 232.452347 
L 519.259091 221.078755 
L 520.527273 213.466642 
L 523.063636 229.981488 
L 524.331818 241.575845 
L 524.331818 252.3763 
L 525.6 255.908524 
L 528.136364 265.817432 
L 529.404545 257.492081 
L 530.672727 233.174076 
L 530.672727 197.720224 
L 531.940909 166.414189 
L 531.940909 134.764271 
L 533.209091 106.043722 
L 534.477273 86.637716 
L 537.013636 78.550111 
L 538.281818 76.618426 
L 538.281818 70.91677 
L 539.55 67.588328 
L 539.55 66.96 
L 540.818182 68.866212 
L 542.086364 69.031785 
L 543.354545 71.515381 
L 548.427273 72.572501 
L 549.695455 75.221669 
L 552.231818 78.061883 
L 552.231818 84.998967 
L 553.5 95.256003 
L 553.5 109.614155 
L 554.768182 121.115111 
L 557.304545 127.530004 
L 558.572727 129.741889 
L 558.572727 129.988126 
L 559.840909 127.640386 
L 563.645455 125.534637 
L 563.645455 129.347061 
L 564.913636 136.920965 
L 567.45 143.734932 
L 567.45 149.466305 
L 568.718182 154.896251 
L 569.986364 158.691694 
L 571.254545 161.727199 
L 571.254545 164.932522 
L 573.790909 171.254015 
L 576.327273 176.102332 
L 577.595455 187.964153 
L 577.595455 228.083767 
L 578.863636 244.79815 
L 578.863636 255.080659 
L 580.131818 253.221146 
L 580.131818 245.659979 
L 581.4 232.800475 
L 582.668182 225.778481 
L 582.668182 224.593997 
L 583.936364 229.680061 
L 583.936364 235.165197 
L 586.472727 245.817061 
L 594.081818 253.153219 
L 595.35 262.064443 
L 597.886364 284.111127 
L 599.154545 295.922001 
L 600.422727 305.881855 
L 600.422727 313.073667 
L 601.690909 317.378565 
L 604.227273 324.281686 
L 604.227273 327.431819 
L 606.763636 332.713174 
L 609.3 337.7865 
L 615.640909 340.304059 
L 618.177273 346.413279 
L 618.177273 348.922347 
L 619.445455 350.268158 
L 620.713636 350.752141 
L 624.518182 348.323737 
L 625.786364 346.264688 
L 625.786364 344.443385 
L 627.054545 342.469245 
L 627.054545 340.618223 
L 628.322727 339.361567 
L 632.127273 337.336481 
L 632.127273 334.419849 
L 633.395455 330.382415 
L 633.395455 326.66339 
L 634.663636 322.048573 
L 635.931818 318.227658 
L 638.468182 310.02118 
L 641.004545 298.698533 
L 644.809091 277.976434 
L 646.077273 270.86104 
L 646.077273 263.68621 
L 647.345455 259.776139 
L 647.345455 260.001149 
L 648.613636 260.671932 
L 649.881818 258.876102 
L 651.15 254.418367 
L 656.222727 245.052878 
L 657.490909 231.259372 
L 660.027273 215.7507 
L 660.027273 203.876144 
L 662.563636 185.438103 
L 663.831818 177.023598 
L 670.172727 140.389508 
L 671.440909 134.717571 
L 673.977273 129.406498 
L 673.977273 125.780874 
L 675.245455 123.055287 
L 676.513636 118.822562 
L 677.781818 111.995859 
L 677.781818 103.122844 
L 679.05 96.487187 
L 682.854545 96.296141 
L 682.854545 104.205437 
L 684.122727 113.146379 
L 686.659091 118.958416 
L 686.659091 118.606043 
L 687.927273 112.365214 
L 690.463636 101.356732 
L 691.731818 92.050679 
L 691.731818 88.582137 
L 693 87.728799 
L 695.536364 87.444353 
L 696.804545 85.453232 
L 698.072727 83.105491 
L 698.072727 77.730737 
L 699.340909 76.847681 
L 701.877273 78.758138 
L 701.877273 84.616876 
L 703.145455 90.407686 
L 703.145455 97.675916 
L 704.413636 100.42273 
L 705.681818 100.770858 
L 708.218182 97.370243 
L 709.486364 98.418872 
L 709.486364 101.471359 
L 710.754545 108.595244 
L 714.559091 116.449348 
L 715.827273 125.237454 
L 715.827273 131.291483 
L 717.095455 135.08268 
L 717.095455 137.392212 
L 719.631818 141.039063 
L 720.9 142.278738 
L 722.168182 146.800155 
L 722.168182 153.677803 
L 723.436364 162.219672 
L 728.509091 172.697472 
L 728.509091 195.975339 
L 729.777273 204.118135 
L 729.777273 209.475908 
L 731.045455 212.464713 
L 731.045455 213.411451 
L 732.313636 213.823261 
L 732.313636 216.005428 
L 733.581818 219.507934 
L 734.85 223.868023 
L 739.922727 230.231971 
L 741.190909 238.094566 
L 742.459091 247.396373 
L 742.459091 257.114235 
L 743.727273 267.209943 
L 744.995455 275.68813 
L 744.995455 281.61055 
L 746.263636 285.631002 
L 746.263636 288.823589 
L 748.8 295.259709 
L 750.068182 299.16978 
L 752.604545 308.165913 
L 756.409091 322.400947 
L 758.945455 330.165896 
L 765.286364 334.075967 
L 767.822727 342.273954 
L 769.090909 345.610887 
L 769.090909 349.750212 
L 770.359091 350.450713 
L 770.359091 350.718177 
L 771.627273 350.637513 
L 772.895455 350.344577 
L 776.7 349.164338 
L 777.968182 347.266617 
L 779.236364 344.664149 
L 779.236364 342.150835 
L 780.504545 339.556858 
L 784.309091 336.313325 
L 785.577273 332.182491 
L 786.845455 326.964818 
L 788.113636 320.808899 
L 788.113636 314.045878 
L 789.381818 308.59046 
L 791.918182 303.53836 
L 793.186364 298.999961 
L 795.722727 293.769552 
L 795.722727 289.129263 
L 796.990909 283.181371 
L 796.990909 277.237724 
L 798.259091 270.529894 
L 799.527273 264.675402 
L 803.331818 243.121193 
L 803.331818 238.799313 
L 804.6 234.384032 
L 805.868182 229.348915 
L 807.136364 227.616766 
L 812.209091 223.401023 
L 812.209091 203.434616 
L 813.477273 195.02011 
L 813.477273 186.826369 
L 814.745455 180.63224 
L 816.013636 175.185313 
L 821.086364 173.380991 
L 821.086364 169.470921 
L 822.354545 160.916316 
L 824.890909 139.922507 
L 826.159091 130.247099 
L 827.427273 121.824103 
L 833.768182 107.011687 
L 837.572727 91.294987 
L 838.840909 88.42081 
L 840.109091 92.127098 
L 840.109091 101.24635 
L 841.377273 114.708709 
L 841.377273 127.241312 
L 842.645455 138.878123 
L 842.645455 146.511464 
L 843.913636 157.706746 
L 846.45 201.341603 
L 846.45 214.171389 
L 847.718182 209.637235 
L 847.718182 196.416867 
L 848.986364 179.014719 
L 852.790909 180.020894 
L 854.059091 204.232762 
L 856.595455 296.894212 
L 857.863636 334.784959 
L 859.131818 354.331065 
L 860.4 361.382777 
L 861.668182 360.198293 
L 862.936364 362.057806 
L 864.204545 359.608174 
L 865.472727 361.153522 
L 865.472727 360.920022 
L 866.740909 364.418282 
L 866.740909 366.150431 
L 868.009091 369.36 
L 869.277273 369.024609 
L 870.545455 369.194427 
L 871.813636 366.044294 
L 875.618182 364.723956 
L 876.886364 362.210642 
L 878.154545 362.843216 
L 879.422727 361.476177 
L 880.690909 363.645608 
L 881.959091 363.267762 
L 883.227273 365.581539 
L 884.495455 363.726272 
L 888.3 364.592346 
L 889.568182 362.554525 
L 889.568182 361.875251 
L 890.836364 356.593896 
L 893.372727 354.853257 
L 894.640909 349.937012 
L 895.909091 343.704674 
L 897.177273 331.825872 
L 897.177273 321.182499 
L 898.445455 313.502459 
L 900.981818 308.768769 
L 902.25 308.50555 
L 902.25 311.158964 
L 903.518182 316.376636 
L 904.786364 317.73943 
L 906.054545 320.04047 
L 906.054545 322.600484 
L 907.322727 330.021551 
L 907.322727 337.879901 
L 908.590909 344.265075 
L 909.859091 347.368508 
L 916.2 347.992591 
L 917.468182 347.563799 
L 917.468182 346.774143 
L 918.736364 346.812352 
L 918.736364 348.166655 
L 920.004545 350.119567 
L 921.272727 350.866768 
L 921.272727 350.798841 
L 922.540909 350.578077 
L 923.809091 350.306367 
L 925.077273 349.82663 
L 928.881818 348.544501 
L 930.15 346.621306 
L 931.418182 343.929684 
L 932.686364 340.855969 
L 933.954545 337.213363 
L 933.954545 337.213363 
" clip-path="url(#pc8779d1aae)" style="fill: none; stroke: #008000; stroke-width: 1.5; stroke-linecap: square"/>
   </g>
   <g id="patch_3">
    <path d="M 135 384.48 
L 135 51.84 
" style="fill: none; stroke: #000000; stroke-width: 0.8; stroke-linejoin: miter; stroke-linecap: square"/>
   </g>
   <g id="patch_4">
    <path d="M 972 384.48 
L 972 51.84 
" style="fill: none; stroke: #000000; stroke-width: 0.8; stroke-linejoin: miter; stroke-linecap: square"/>
   </g>
   <g id="patch_5">
    <path d="M 135 384.48 
L 972 384.48 
" style="fill: none; stroke: #000000; stroke-width: 0.8; stroke-linejoin: miter; stroke-linecap: square"/>
   </g>
   <g id="patch_6">
    <path d="M 135 51.84 
L 972 51.84 
" style="fill: none; stroke: #000000; stroke-width: 0.8; stroke-linejoin: miter; stroke-linecap: square"/>
   </g>
  </g>
  <g id="axes_2">
   <g id="matplotlib.axis_3">
    <g id="ytick_7">
     <g id="line2d_16">
      <path d="M 135 369.36 
L 972 369.36 
" clip-path="url(#pc8779d1aae)" style="fill: none; stroke: #b0b0b0; stroke-width: 0.8; stroke-linecap: square"/>
     </g>
     <g id="line2d_17">
      <defs>
       <path id="ma94e1eaee9" d="M 0 0 
L 3.5 0 
" style="stroke: #000000; stroke-width: 0.8"/>
      </defs>
      <g>
       <use xlink:href="#ma94e1eaee9" x="972" y="369.36" style="stroke: #000000; stroke-width: 0.8"/>
      </g>
     </g>
     <g id="text_15">
      <!-- 0 -->
      <g transform="translate(979 372.934219) scale(0.1 -0.1)">
       <use xlink:href="#Times New Roman-30"/>
      </g>
     </g>
    </g>
    <g id="ytick_8">
     <g id="line2d_18">
      <path d="M 135 320.2515 
L 972 320.2515 
" clip-path="url(#pc8779d1aae)" style="fill: none; stroke: #b0b0b0; stroke-width: 0.8; stroke-linecap: square"/>
     </g>
     <g id="line2d_19">
      <g>
       <use xlink:href="#ma94e1eaee9" x="972" y="320.2515" style="stroke: #000000; stroke-width: 0.8"/>
      </g>
     </g>
     <g id="text_16">
      <!-- 5 -->
      <g transform="translate(979 323.825718) scale(0.1 -0.1)">
       <use xlink:href="#Times New Roman-35"/>
      </g>
     </g>
    </g>
    <g id="ytick_9">
     <g id="line2d_20">
      <path d="M 135 271.142999 
L 972 271.142999 
" clip-path="url(#pc8779d1aae)" style="fill: none; stroke: #b0b0b0; stroke-width: 0.8; stroke-linecap: square"/>
     </g>
     <g id="line2d_21">
      <g>
       <use xlink:href="#ma94e1eaee9" x="972" y="271.142999" style="stroke: #000000; stroke-width: 0.8"/>
      </g>
     </g>
     <g id="text_17">
      <!-- 10 -->
      <g transform="translate(979 274.717218) scale(0.1 -0.1)">
       <use xlink:href="#Times New Roman-31"/>
       <use xlink:href="#Times New Roman-30" x="50"/>
      </g>
     </g>
    </g>
    <g id="ytick_10">
     <g id="line2d_22">
      <path d="M 135 222.034499 
L 972 222.034499 
" clip-path="url(#pc8779d1aae)" style="fill: none; stroke: #b0b0b0; stroke-width: 0.8; stroke-linecap: square"/>
     </g>
     <g id="line2d_23">
      <g>
       <use xlink:href="#ma94e1eaee9" x="972" y="222.034499" style="stroke: #000000; stroke-width: 0.8"/>
      </g>
     </g>
     <g id="text_18">
      <!-- 15 -->
      <g transform="translate(979 225.608717) scale(0.1 -0.1)">
       <use xlink:href="#Times New Roman-31"/>
       <use xlink:href="#Times New Roman-35" x="50"/>
      </g>
     </g>
    </g>
    <g id="ytick_11">
     <g id="line2d_24">
      <path d="M 135 172.925998 
L 972 172.925998 
" clip-path="url(#pc8779d1aae)" style="fill: none; stroke: #b0b0b0; stroke-width: 0.8; stroke-linecap: square"/>
     </g>
     <g id="line2d_25">
      <g>
       <use xlink:href="#ma94e1eaee9" x="972" y="172.925998" style="stroke: #000000; stroke-width: 0.8"/>
      </g>
     </g>
     <g id="text_19">
      <!-- 20 -->
      <g transform="translate(979 176.500217) scale(0.1 -0.1)">
       <use xlink:href="#Times New Roman-32"/>
       <use xlink:href="#Times New Roman-30" x="50"/>
      </g>
     </g>
    </g>
    <g id="ytick_12">
     <g id="line2d_26">
      <path d="M 135 123.817498 
L 972 123.817498 
" clip-path="url(#pc8779d1aae)" style="fill: none; stroke: #b0b0b0; stroke-width: 0.8; stroke-linecap: square"/>
     </g>
     <g id="line2d_27">
      <g>
       <use xlink:href="#ma94e1eaee9" x="972" y="123.817498" style="stroke: #000000; stroke-width: 0.8"/>
      </g>
     </g>
     <g id="text_20">
      <!-- 25 -->
      <g transform="translate(979 127.391717) scale(0.1 -0.1)">
       <use xlink:href="#Times New Roman-32"/>
       <use xlink:href="#Times New Roman-35" x="50"/>
      </g>
     </g>
    </g>
    <g id="ytick_13">
     <g id="line2d_28">
      <path d="M 135 74.708997 
L 972 74.708997 
" clip-path="url(#pc8779d1aae)" style="fill: none; stroke: #b0b0b0; stroke-width: 0.8; stroke-linecap: square"/>
     </g>
     <g id="line2d_29">
      <g>
       <use xlink:href="#ma94e1eaee9" x="972" y="74.708997" style="stroke: #000000; stroke-width: 0.8"/>
      </g>
     </g>
     <g id="text_21">
      <!-- 30 -->
      <g transform="translate(979 78.283216) scale(0.1 -0.1)">
       <use xlink:href="#Times New Roman-33"/>
       <use xlink:href="#Times New Roman-30" x="50"/>
      </g>
     </g>
    </g>
    <g id="text_22">
     <!-- buffer (s) -->
     <g transform="translate(1000.617188 243.16) rotate(-90) scale(0.1 -0.1)">
      <defs>
       <path id="Times New Roman-75" d="M 1450 325
Q 1750 325 1962 475 
Q 2175 625 2275 950 
L 2275 2525 
Q 2275 2625 2225 2687 
Q 2175 2750 2050 2750 
L 1900 2750 
L 1900 2900 
L 2050 2900 
Q 2200 2900 2325 2925 
Q 2450 2950 2575 3050 
L 2625 3050 
L 2625 600 
Q 2625 500 2687 450 
Q 2750 400 2850 400 
L 3000 400 
L 3000 250 
L 2850 250 
Q 2725 250 2600 212 
Q 2475 175 2325 100 
L 2275 100 
L 2275 625 
Q 2150 350 1900 212 
Q 1650 75 1325 75 
Q 925 75 725 300 
Q 525 525 525 1025 
L 525 2525 
Q 525 2625 475 2687 
Q 425 2750 300 2750 
L 150 2750 
L 150 2900 
L 300 2900 
Q 450 2900 575 2925 
Q 700 2950 825 3050 
L 875 3050 
L 875 975 
Q 875 625 1025 475 
Q 1175 325 1450 325 
z
" transform="scale(0.015625)"/>
       <path id="Times New Roman-66" d="M 1125 3325
Q 1125 3850 1450 4112 
Q 1775 4375 2175 4375 
Q 2600 4375 2812 4225 
Q 3025 4075 3025 3875 
Q 3025 3775 2975 3700 
Q 2925 3625 2775 3625 
Q 2675 3625 2612 3675 
Q 2550 3725 2550 3850 
Q 2550 3875 2575 3925 
Q 2575 3975 2575 4000 
Q 2575 4100 2500 4162 
Q 2425 4225 2150 4225 
Q 1850 4225 1662 4037 
Q 1475 3850 1475 3400 
L 1475 2900 
L 2525 2900 
L 2525 2750 
L 1475 2750 
L 1475 450 
Q 1475 350 1537 300 
Q 1600 250 1700 250 
L 2300 250 
L 2300 100 
L 475 100 
L 475 250 
L 900 250 
Q 1025 250 1075 300 
Q 1125 350 1125 450 
L 1125 2750 
L 350 2750 
L 350 2900 
L 1125 2900 
L 1125 3325 
z
" transform="scale(0.015625)"/>
      </defs>
      <use xlink:href="#Times New Roman-62"/>
      <use xlink:href="#Times New Roman-75" x="50"/>
      <use xlink:href="#Times New Roman-66" x="100"/>
      <use xlink:href="#Times New Roman-66" x="150"/>
      <use xlink:href="#Times New Roman-65" x="200"/>
      <use xlink:href="#Times New Roman-72" x="250"/>
      <use xlink:href="#Times New Roman-20" x="300"/>
      <use xlink:href="#Times New Roman-28" x="350"/>
      <use xlink:href="#Times New Roman-73" x="400"/>
      <use xlink:href="#Times New Roman-29" x="450"/>
     </g>
    </g>
   </g>
   <g id="line2d_30">
    <path d="M 173.045455 322.297684 
L 174.313636 291.95346 
L 175.581818 273.012335 
L 176.85 240.412495 
L 178.118182 223.947013 
L 179.386364 209.350876 
L 181.922727 173.879973 
L 184.459091 163.649036 
L 184.459091 159.283837 
L 185.727273 158.798507 
L 186.995455 159.246589 
L 188.263636 156.790051 
L 188.263636 156.408465 
L 189.531818 148.991531 
L 190.8 154.994794 
L 192.068182 156.95391 
L 193.336364 162.285813 
L 194.604545 164.328872 
L 195.872727 167.323691 
L 197.140909 171.270269 
L 198.409091 172.228285 
L 199.677273 174.007904 
L 200.945455 176.609126 
L 203.481818 174.528834 
L 204.75 175.210896 
L 207.286364 176.438608 
L 207.286364 172.583137 
L 208.554545 171.764662 
L 211.090909 166.922018 
L 211.090909 162.658837 
L 212.359091 151.745838 
L 214.895455 136.170865 
L 214.895455 134.089046 
L 216.163636 130.952201 
L 216.163636 134.81601 
L 217.431818 129.908797 
L 221.236364 128.539813 
L 221.236364 119.718788 
L 225.040909 107.923322 
L 226.309091 105.197182 
L 226.309091 96.489517 
L 227.577273 88.031943 
L 227.577273 88.895887 
L 228.845455 83.344165 
L 231.381818 82.889458 
L 232.65 75.750537 
L 232.65 77.710064 
L 233.918182 75.572933 
L 236.454545 76.52782 
L 238.990909 77.891946 
L 240.259091 78.710422 
L 240.259091 78.255715 
L 241.527273 79.16513 
L 245.331818 78.073828 
L 245.331818 77.641854 
L 247.868182 76.291946 
L 249.136364 74.723203 
L 250.404545 74.572576 
L 251.672727 74.572576 
L 252.940909 77.369031 
L 252.940909 99.994019 
L 254.209091 101.221732 
L 254.209091 113.476122 
L 254.209091 110.046322 
L 255.477273 115.593765 
L 255.477273 117.399606 
L 256.745455 98.068006 
L 256.745455 103.492026 
L 258.013636 96.632426 
L 259.281818 102.244824 
L 260.55 91.955423 
L 265.622727 115.855915 
L 268.159091 162.147547 
L 269.427273 150.348792 
L 269.427273 159.752778 
L 271.963636 181.192585 
L 274.5 162.858748 
L 277.036364 185.81439 
L 277.036364 218.925113 
L 278.304545 241.86453 
L 278.304545 245.979949 
L 279.572727 226.625499 
L 279.572727 233.884397 
L 280.840909 211.386467 
L 280.840909 221.788846 
L 282.109091 215.820799 
L 283.377273 226.382635 
L 285.913636 208.478494 
L 285.913636 259.121639 
L 287.181818 312.748808 
L 288.45 355.508881 
L 289.718182 339.768974 
L 290.986364 322.140278 
L 292.254545 316.473913 
L 293.522727 315.253195 
L 293.522727 311.475618 
L 294.790909 304.165308 
L 294.790909 297.830871 
L 296.059091 282.542179 
L 296.059091 284.186124 
L 297.327273 280.408547 
L 298.595455 288.142086 
L 299.863636 282.47572 
L 299.863636 276.809355 
L 301.131818 271.388971 
L 316.35 302.239186 
L 317.618182 334.978189 
L 318.886364 349.443771 
L 322.690909 349.443771 
L 323.959091 369.36 
L 325.227273 356.127983 
L 326.495455 338.803591 
L 327.763636 317.247192 
L 327.763636 295.593599 
L 329.031818 287.545263 
L 329.031818 283.116337 
L 330.3 287.579563 
L 330.3 295.867253 
L 331.568182 285.976087 
L 336.640909 284.750767 
L 337.909091 264.117745 
L 337.909091 260.025368 
L 339.177273 249.653823 
L 341.713636 243.585988 
L 341.713636 238.743545 
L 342.981818 235.201015 
L 342.981818 227.422981 
L 344.25 222.307313 
L 345.518182 219.579064 
L 348.054545 219.85477 
L 349.322727 223.945024 
L 350.590909 205.597543 
L 351.859091 203.684887 
L 354.395455 192.781893 
L 355.663636 198.715835 
L 356.931818 185.890876 
L 358.2 170.468378 
L 358.2 156.217216 
L 359.468182 145.442812 
L 362.004545 137.530889 
L 362.004545 127.564468 
L 363.272727 115.15093 
L 363.272727 98.583415 
L 364.540909 88.020216 
L 365.809091 84.064254 
L 365.809091 86.378864 
L 367.077273 87.056524 
L 373.418182 91.34258 
L 373.418182 87.93227 
L 374.686364 81.802439 
L 377.222727 77.446047 
L 378.490909 77.446047 
L 379.759091 75.127038 
L 381.027273 74.708997 
L 392.440909 74.708997 
L 392.440909 81.787787 
L 393.709091 81.787787 
L 393.709091 85.631501 
L 394.977273 78.552711 
L 394.977273 79.161349 
L 396.245455 75.317635 
L 396.245455 72.691197 
L 397.513636 72.082559 
L 397.513636 72.082559 
L 398.781818 74.708997 
L 398.781818 74.708997 
L 433.022727 74.708997 
L 472.336364 80.806623 
L 473.604545 86.174447 
L 474.872727 90.81247 
L 478.677273 95.02871 
L 478.677273 105.900383 
L 479.945455 102.415244 
L 479.945455 99.783577 
L 481.213636 97.947177 
L 482.481818 97.945878 
L 486.286364 98.628527 
L 487.554545 103.160022 
L 490.090909 106.83282 
L 491.359091 106.216743 
L 491.359091 101.781569 
L 492.627273 97.147079 
L 493.895455 94.826923 
L 495.163636 93.400804 
L 496.431818 93.946452 
L 497.7 92.71988 
L 497.7 88.802702 
L 498.968182 86.842971 
L 500.236364 88.063956 
L 504.040909 93.204401 
L 505.309091 92.706588 
L 505.309091 90.530717 
L 506.577273 83.710093 
L 507.845455 80.361545 
L 509.113636 76.435407 
L 510.381818 74.056748 
L 512.918182 74.966164 
L 514.186364 75.209166 
L 514.186364 78.119301 
L 515.454545 75.982172 
L 517.990909 75.830111 
L 519.259091 75.328456 
L 519.259091 76.661283 
L 520.527273 74.221506 
L 524.331818 77.388899 
L 524.331818 81.388899 
L 525.6 77.501725 
L 528.136364 77.160692 
L 529.404545 75.616117 
L 530.672727 82.280729 
L 530.672727 90.90882 
L 531.940909 93.359943 
L 531.940909 95.337076 
L 533.209091 90.085195 
L 534.477273 89.134612 
L 537.013636 98.753693 
L 538.281818 106.36269 
L 538.281818 124.723812 
L 539.55 115.451762 
L 539.55 121.613607 
L 540.818182 117.684927 
L 542.086364 124.554116 
L 543.354545 118.661095 
L 548.427273 118.620717 
L 549.695455 125.659602 
L 552.231818 135.481302 
L 552.231818 133.865041 
L 553.5 129.363429 
L 553.5 125.588599 
L 557.304545 115.181833 
L 558.572727 107.90834 
L 558.572727 107.177344 
L 559.840909 105.585501 
L 563.645455 105.309335 
L 563.645455 102.806586 
L 564.913636 103.403287 
L 567.45 101.76859 
L 567.45 100.40559 
L 568.718182 96.814557 
L 569.986364 93.949895 
L 571.254545 92.449358 
L 571.254545 93.849376 
L 573.790909 91.756296 
L 576.327273 94.851148 
L 577.595455 97.080638 
L 577.595455 125.34129 
L 578.863636 127.430932 
L 578.863636 144.255534 
L 580.131818 121.538294 
L 580.131818 137.524229 
L 581.4 132.477581 
L 582.668182 145.444228 
L 582.668182 140.39758 
L 583.936364 129.210526 
L 583.936364 126.344499 
L 585.204545 121.29785 
L 586.472727 122.391608 
L 594.081818 139.352524 
L 596.618182 173.211646 
L 597.886364 179.393542 
L 599.154545 184.118231 
L 600.422727 187.385715 
L 600.422727 195.1155 
L 602.959091 211.211918 
L 604.227273 199.844464 
L 604.227273 194.339634 
L 605.495455 194.015362 
L 606.763636 198.871649 
L 609.3 207.220095 
L 615.640909 217.520413 
L 616.909091 221.09442 
L 618.177273 216.31998 
L 618.177273 208.878091 
L 619.445455 200.28642 
L 620.713636 194.216065 
L 621.981818 187.183414 
L 624.518182 186.226211 
L 625.786364 187.385715 
L 625.786364 180.701502 
L 627.054545 174.426526 
L 627.054545 173.608053 
L 628.322727 170.613367 
L 632.127273 169.522068 
L 632.127273 165.361485 
L 633.395455 165.491508 
L 633.395455 167.082986 
L 635.931818 166.514602 
L 637.2 170.697919 
L 638.468182 173.880877 
L 639.736364 176.063475 
L 641.004545 178.686301 
L 642.272727 181.634664 
L 643.540909 184.908564 
L 644.809091 192.74403 
L 646.077273 199.253602 
L 646.077273 213.408877 
L 647.345455 205.769777 
L 647.345455 209.253248 
L 648.613636 205.916094 
L 649.881818 209.88196 
L 651.15 204.876228 
L 656.222727 209.884859 
L 657.490909 217.377643 
L 660.027273 225.720529 
L 660.027273 224.558122 
L 661.295455 221.420633 
L 662.563636 220.809675 
L 663.831818 221.156506 
L 665.1 221.020094 
L 666.368182 219.312036 
L 667.636364 219.238032 
L 668.904545 221.284221 
L 670.172727 220.397541 
L 671.440909 218.692384 
L 673.977273 217.737495 
L 673.977273 217.055432 
L 675.245455 215.145658 
L 676.513636 209.7801 
L 677.781818 209.848307 
L 677.781818 209.075302 
L 679.05 208.847949 
L 682.854545 206.25611 
L 682.854545 200.924654 
L 684.122727 198.469229 
L 686.659091 196.695869 
L 686.659091 190.454998 
L 687.927273 188.40881 
L 690.463636 181.792803 
L 691.731818 177.905045 
L 691.731818 164.843547 
L 693 154.216525 
L 695.536364 149.442088 
L 698.072727 139.909921 
L 698.072727 133.975977 
L 699.340909 129.615018 
L 701.877273 125.38623 
L 701.877273 121.975916 
L 703.145455 118.328081 
L 703.145455 116.645662 
L 704.413636 114.849565 
L 705.681818 114.950677 
L 708.218182 111.040183 
L 709.486364 112.222423 
L 709.486364 111.949597 
L 710.754545 114.26861 
L 714.559091 114.541437 
L 715.827273 113.642498 
L 715.827273 113.233996 
L 717.095455 108.050319 
L 717.095455 110.040927 
L 718.363636 103.769592 
L 719.631818 102.644191 
L 720.9 97.528354 
L 722.168182 99.706578 
L 722.168182 99.365546 
L 723.436364 97.387563 
L 728.509091 100.116915 
L 728.509091 116.995712 
L 729.777273 114.266359 
L 729.777273 123.951798 
L 731.045455 117.336492 
L 731.045455 125.791966 
L 732.313636 115.289605 
L 732.313636 113.718058 
L 733.581818 108.260156 
L 734.85 107.846711 
L 739.922727 122.309239 
L 742.459091 150.008685 
L 742.459091 160.881153 
L 743.727273 170.084712 
L 744.995455 177.619362 
L 744.995455 192.392443 
L 746.263636 182.779649 
L 746.263636 202.663913 
L 747.531818 193.660688 
L 748.8 209.348123 
L 751.336364 182.338448 
L 752.604545 197.933515 
L 753.872727 215.618812 
L 755.140909 235.394339 
L 758.945455 213.691893 
L 765.286364 221.9733 
L 766.554545 234.030214 
L 767.822727 249.811693 
L 769.090909 251.175817 
L 769.090909 252.403531 
L 769.090909 251.393173 
L 770.359091 248.3921 
L 770.359091 246.456853 
L 771.627273 244.436138 
L 772.895455 244.708962 
L 776.7 249.201944 
L 779.236364 259.445618 
L 779.236364 258.558937 
L 780.504545 252.488581 
L 784.309091 249.012324 
L 785.577273 248.437096 
L 786.845455 247.664092 
L 788.113636 252.913711 
L 788.113636 250.95394 
L 789.381818 251.377852 
L 791.918182 237.463777 
L 793.186364 232.73481 
L 795.722727 228.445877 
L 795.722727 229.059734 
L 796.990909 220.60216 
L 796.990909 218.328617 
L 798.259091 215.077451 
L 799.527273 212.89485 
L 800.795455 219.75845 
L 802.063636 225.304644 
L 803.331818 229.533432 
L 803.331818 227.296491 
L 804.6 228.411774 
L 805.868182 232.879281 
L 807.136364 230.935402 
L 812.209091 237.820488 
L 812.209091 250.095742 
L 813.477273 245.593451 
L 813.477273 241.093713 
L 814.745455 239.797794 
L 816.013636 238.710918 
L 821.086364 243.417148 
L 821.086364 246.959485 
L 822.354545 250.915447 
L 823.622727 246.51503 
L 824.890909 244.916571 
L 826.159091 214.458094 
L 827.427273 215.234808 
L 829.963636 213.254595 
L 831.231818 234.982673 
L 835.036364 200.477432 
L 836.304545 190.792145 
L 837.572727 176.466579 
L 838.840909 159.55531 
L 840.109091 139.298054 
L 840.109091 127.863648 
L 841.377273 112.378306 
L 841.377273 133.225195 
L 842.645455 115.742403 
L 842.645455 108.071722 
L 843.913636 70.5143 
L 845.181818 69.388897 
L 846.45 69.900444 
L 846.45 70.105062 
L 847.718182 71.77612 
L 847.718182 71.673811 
L 848.986364 73.242559 
L 854.059091 70.463151 
L 855.327273 68.468115 
L 856.595455 68.723888 
L 859.131818 72.799219 
L 860.4 72.077369 
L 861.668182 70.099383 
L 862.936364 68.510516 
L 864.204545 69.332629 
L 865.472727 69.280453 
L 865.472727 68.910282 
L 866.740909 68.468987 
L 866.740909 68.013408 
L 868.009091 66.96 
L 869.277273 69.21081 
L 870.545455 71.696552 
L 871.813636 74.708997 
L 876.886364 76.41108 
L 878.154545 75.930564 
L 879.422727 73.267451 
L 880.690909 73.120108 
L 881.959091 73.296409 
L 883.227273 73.796355 
L 884.495455 72.104175 
L 888.3 73.772511 
L 889.568182 76.823384 
L 889.568182 80.029078 
L 890.836364 76.975384 
L 893.372727 76.567446 
L 894.640909 75.617993 
L 895.909091 79.080924 
L 897.177273 78.670387 
L 897.177273 78.801366 
L 898.445455 77.43724 
L 900.981818 77.527236 
L 902.25 79.297764 
L 902.25 80.978297 
L 903.518182 80.206236 
L 904.786364 81.464063 
L 906.054545 85.922789 
L 906.054545 88.432779 
L 907.322727 86.850395 
L 907.322727 82.4845 
L 909.859091 79.319731 
L 916.2 88.05152 
L 917.468182 94.626603 
L 917.468182 101.175099 
L 918.736364 96.399271 
L 918.736364 106.699357 
L 920.004545 114.884166 
L 921.272727 113.52004 
L 921.272727 101.514224 
L 922.540909 100.150101 
L 922.540909 100.423689 
L 923.809091 94.557575 
L 925.077273 94.966812 
L 928.881818 109.869307 
L 931.418182 137.935028 
L 932.686364 127.396587 
L 933.954545 136.434581 
L 933.954545 136.434581 
" clip-path="url(#pc8779d1aae)" style="fill: none; stroke: #1f77b4; stroke-width: 1.5; stroke-linecap: square"/>
   </g>
   <g id="patch_7">
    <path d="M 135 384.48 
L 135 51.84 
" style="fill: none; stroke: #000000; stroke-width: 0.8; stroke-linejoin: miter; stroke-linecap: square"/>
   </g>
   <g id="patch_8">
    <path d="M 972 384.48 
L 972 51.84 
" style="fill: none; stroke: #000000; stroke-width: 0.8; stroke-linejoin: miter; stroke-linecap: square"/>
   </g>
   <g id="patch_9">
    <path d="M 135 384.48 
L 972 384.48 
" style="fill: none; stroke: #000000; stroke-width: 0.8; stroke-linejoin: miter; stroke-linecap: square"/>
   </g>
   <g id="patch_10">
    <path d="M 135 51.84 
L 972 51.84 
" style="fill: none; stroke: #000000; stroke-width: 0.8; stroke-linejoin: miter; stroke-linecap: square"/>
   </g>
   <g id="text_23">
    <!-- ./pensieve/log_RL_2_wave -->
    <g transform="translate(481.5 45.84) scale(0.12 -0.12)">
     <defs>
      <path id="Times New Roman-2e" d="M 800 25
Q 650 25 537 125 
Q 425 225 425 400 
Q 425 575 537 675 
Q 650 775 800 775 
Q 950 775 1062 662 
Q 1175 550 1175 400 
Q 1175 225 1062 125 
Q 950 25 800 25 
z
" transform="scale(0.015625)"/>
      <path id="Times New Roman-2f" d="M 400 -475
L 225 -375 
L 2775 4975 
L 2950 4875 
L 400 -475 
z
" transform="scale(0.015625)"/>
      <path id="Times New Roman-6e" d="M 200 100
L 200 250 
L 325 250 
Q 450 250 500 300 
Q 550 350 550 450 
L 550 2600 
Q 550 2675 525 2712 
Q 500 2750 425 2750 
L 225 2750 
L 225 2900 
L 400 2900 
Q 525 2900 637 2925 
Q 750 2950 850 3025 
L 900 3025 
L 900 2450 
Q 1125 2700 1350 2825 
Q 1575 2950 1825 2950 
Q 2250 2950 2450 2725 
Q 2650 2500 2650 2050 
L 2650 450 
Q 2650 350 2712 300 
Q 2775 250 2875 250 
L 3000 250 
L 3000 100 
L 1950 100 
L 1950 250 
L 2075 250 
Q 2200 250 2250 300 
Q 2300 350 2300 450 
L 2300 2125 
Q 2300 2425 2175 2587 
Q 2050 2750 1800 2750 
Q 1575 2750 1337 2600 
Q 1100 2450 900 2175 
L 900 450 
Q 900 350 962 300 
Q 1025 250 1125 250 
L 1250 250 
L 1250 100 
L 200 100 
z
" transform="scale(0.015625)"/>
      <path id="Times New Roman-76" d="M 1625 75
L 1475 75 
L 625 2525 
Q 600 2625 525 2687 
Q 450 2750 350 2750 
L 225 2750 
L 225 2900 
L 1300 2900 
L 1300 2750 
L 1200 2750 
Q 1050 2750 1025 2700 
Q 1000 2650 1000 2600 
Q 1000 2500 1025 2425 
L 1625 675 
L 1675 675 
L 2275 2400 
Q 2325 2525 2325 2575 
Q 2325 2600 2275 2675 
Q 2225 2750 2075 2750 
L 2025 2750 
L 2025 2900 
L 2925 2900 
L 2925 2750 
L 2875 2750 
Q 2725 2750 2637 2662 
Q 2550 2575 2475 2400 
L 1625 75 
z
M 2600 2750 
L 2600 2750 
z
M 2400 2750 
L 2400 2750 
z
M 925 2750 
L 925 2750 
z
M 550 2750 
L 550 2750 
z
" transform="scale(0.015625)"/>
      <path id="Times New Roman-6c" d="M 925 4375
Q 1150 4375 1350 4425 
Q 1550 4475 1725 4575 
L 1775 4575 
L 1775 450 
Q 1775 350 1837 300 
Q 1900 250 2000 250 
L 2575 250 
L 2575 100 
L 625 100 
L 625 250 
L 1200 250 
Q 1325 250 1375 300 
Q 1425 350 1425 450 
L 1425 4025 
Q 1425 4125 1375 4175 
Q 1325 4225 1200 4225 
L 650 4225 
L 650 4375 
L 925 4375 
z
" transform="scale(0.015625)"/>
      <path id="Times New Roman-6f" d="M 2900 1500
Q 2900 875 2525 462 
Q 2150 50 1600 50 
Q 1025 50 662 475 
Q 300 900 300 1500 
Q 300 2050 662 2500 
Q 1025 2950 1600 2950 
Q 2200 2950 2550 2500 
Q 2900 2050 2900 1500 
z
M 700 1475 
Q 700 825 962 512 
Q 1225 200 1600 200 
Q 2025 200 2262 537 
Q 2500 875 2500 1475 
Q 2500 2125 2237 2462 
Q 1975 2800 1600 2800 
Q 1250 2800 975 2462 
Q 700 2125 700 1475 
z
" transform="scale(0.015625)"/>
      <path id="Times New Roman-67" d="M 875 1975
Q 875 1675 1050 1462 
Q 1225 1250 1525 1250 
Q 1850 1250 2012 1437 
Q 2175 1625 2175 1975 
Q 2175 2400 1987 2587 
Q 1800 2775 1525 2775 
Q 1250 2775 1062 2587 
Q 875 2400 875 1975 
z
M 2100 625 
Q 2475 575 2650 412 
Q 2825 250 2825 -25 
Q 2825 -400 2512 -625 
Q 2200 -850 1525 -850 
Q 1000 -850 675 -637 
Q 350 -425 350 -150 
Q 350 25 475 200 
Q 600 375 875 475 
Q 725 550 637 637 
Q 550 725 550 850 
Q 550 1000 650 1112 
Q 750 1225 900 1300 
Q 750 1425 637 1600 
Q 525 1775 525 1975 
Q 525 2350 787 2637 
Q 1050 2925 1525 2925 
Q 1725 2925 1912 2875 
Q 2100 2825 2225 2700 
Q 2400 2825 2537 2887 
Q 2675 2950 2775 2950 
Q 2900 2950 2950 2862 
Q 3000 2775 3000 2700 
Q 3000 2600 2962 2537 
Q 2925 2475 2825 2475 
Q 2750 2475 2700 2512 
Q 2650 2550 2625 2625 
Q 2600 2700 2512 2687 
Q 2425 2675 2325 2600 
Q 2425 2500 2475 2325 
Q 2525 2150 2525 1975 
Q 2525 1675 2287 1387 
Q 2050 1100 1525 1100 
Q 1375 1100 1250 1137 
Q 1125 1175 1050 1225 
Q 950 1175 900 1100 
Q 850 1025 850 975 
Q 850 875 900 825 
Q 950 775 1050 775 
Q 1375 725 1637 687 
Q 1900 650 2100 625 
z
M 1075 425 
Q 850 325 762 187 
Q 675 50 675 -150 
Q 675 -350 900 -525 
Q 1125 -700 1575 -700 
Q 2000 -700 2250 -562 
Q 2500 -425 2500 -150 
Q 2500 25 2437 125 
Q 2375 225 2250 250 
Q 2000 300 1700 350 
Q 1400 375 1075 425 
z
" transform="scale(0.015625)"/>
      <path id="Times New Roman-5f" d="M 0 -875
L 0 -725 
L 3175 -725 
L 3175 -875 
L 0 -875 
z
" transform="scale(0.015625)"/>
      <path id="Times New Roman-52" d="M 2825 3375
Q 2825 2875 2550 2600 
Q 2275 2325 1925 2275 
L 2675 425 
Q 2725 325 2787 287 
Q 2850 250 2925 250 
L 3075 250 
L 3075 100 
L 2375 100 
L 1550 2250 
L 975 2250 
L 975 450 
Q 975 350 1037 300 
Q 1100 250 1200 250 
L 1350 250 
L 1350 100 
L 200 100 
L 200 250 
L 350 250 
Q 475 250 525 300 
Q 575 350 575 450 
L 575 4025 
Q 575 4125 525 4175 
Q 475 4225 350 4225 
L 200 4225 
L 200 4375 
L 1625 4375 
Q 2200 4375 2512 4125 
Q 2825 3875 2825 3375 
z
M 2750 250 
L 2750 250 
z
M 975 2400 
L 1525 2400 
Q 1900 2400 2150 2625 
Q 2400 2850 2400 3325 
Q 2400 3750 2175 3987 
Q 1950 4225 1475 4225 
L 1200 4225 
Q 1100 4225 1037 4175 
Q 975 4125 975 4025 
L 975 2400 
z
" transform="scale(0.015625)"/>
      <path id="Times New Roman-4c" d="M 1000 450
Q 1000 350 1062 300 
Q 1125 250 1225 250 
L 1900 250 
Q 2250 250 2500 462 
Q 2750 675 2875 1125 
L 3000 1075 
L 2775 100 
L 200 100 
L 200 250 
L 375 250 
Q 500 250 550 300 
Q 600 350 600 450 
L 600 4025 
Q 600 4125 550 4175 
Q 500 4225 375 4225 
L 225 4225 
L 225 4375 
L 1400 4375 
L 1400 4225 
L 1225 4225 
Q 1125 4225 1062 4175 
Q 1000 4125 1000 4025 
L 1000 450 
z
" transform="scale(0.015625)"/>
      <path id="Times New Roman-77" d="M 2325 2900
L 3175 2900 
L 3175 2750 
L 3075 2750 
Q 2975 2750 2900 2675 
Q 2825 2600 2775 2425 
L 2175 75 
L 2025 75 
L 1575 1975 
L 1100 75 
L 950 75 
L 375 2375 
Q 350 2550 275 2650 
Q 200 2750 125 2750 
L 25 2750 
L 25 2900 
L 925 2900 
L 925 2750 
L 825 2750 
Q 725 2750 700 2662 
Q 675 2575 700 2425 
L 1075 800 
L 1125 800 
L 1500 2300 
Q 1475 2525 1400 2637 
Q 1325 2750 1225 2750 
L 1150 2750 
L 1150 2900 
L 2000 2900 
L 2000 2750 
L 1925 2750 
Q 1825 2750 1800 2662 
Q 1775 2575 1800 2425 
L 2175 800 
L 2200 800 
L 2625 2550 
Q 2650 2650 2600 2700 
Q 2550 2750 2450 2750 
L 2325 2750 
L 2325 2900 
z
M 1725 2750 
L 1725 2750 
z
M 625 2750 
L 625 2750 
z
M 275 2750 
L 275 2750 
z
M 2875 2750 
L 2875 2750 
z
M 2675 2750 
L 2675 2750 
z
" transform="scale(0.015625)"/>
     </defs>
     <use xlink:href="#Times New Roman-2e"/>
     <use xlink:href="#Times New Roman-2f" x="50"/>
     <use xlink:href="#Times New Roman-70" x="100"/>
     <use xlink:href="#Times New Roman-65" x="150"/>
     <use xlink:href="#Times New Roman-6e" x="200"/>
     <use xlink:href="#Times New Roman-73" x="250"/>
     <use xlink:href="#Times New Roman-69" x="300"/>
     <use xlink:href="#Times New Roman-65" x="350"/>
     <use xlink:href="#Times New Roman-76" x="400"/>
     <use xlink:href="#Times New Roman-65" x="450"/>
     <use xlink:href="#Times New Roman-2f" x="500"/>
     <use xlink:href="#Times New Roman-6c" x="550"/>
     <use xlink:href="#Times New Roman-6f" x="600"/>
     <use xlink:href="#Times New Roman-67" x="650"/>
     <use xlink:href="#Times New Roman-5f" x="700"/>
     <use xlink:href="#Times New Roman-52" x="750"/>
     <use xlink:href="#Times New Roman-4c" x="800"/>
     <use xlink:href="#Times New Roman-5f" x="850"/>
     <use xlink:href="#Times New Roman-32" x="900"/>
     <use xlink:href="#Times New Roman-5f" x="950"/>
     <use xlink:href="#Times New Roman-77" x="1000"/>
     <use xlink:href="#Times New Roman-61" x="1050"/>
     <use xlink:href="#Times New Roman-76" x="1100"/>
     <use xlink:href="#Times New Roman-65" x="1150"/>
    </g>
   </g>
   <g id="legend_1">
    <g id="patch_11">
     <path d="M 903 73.2775 
L 965 73.2775 
Q 967 73.2775 967 71.2775 
L 967 58.84 
Q 967 56.84 965 56.84 
L 903 56.84 
Q 901 56.84 901 58.84 
L 901 71.2775 
Q 901 73.2775 903 73.2775 
z
" style="fill: #ffffff; opacity: 0.8; stroke: #cccccc; stroke-linejoin: miter"/>
    </g>
    <g id="line2d_31">
     <path d="M 905 64.488437 
L 915 64.488437 
L 925 64.488437 
" style="fill: none; stroke: #1f77b4; stroke-width: 1.5; stroke-linecap: square"/>
    </g>
    <g id="text_24">
     <!-- buffer -->
     <g transform="translate(933 67.988437) scale(0.1 -0.1)">
      <use xlink:href="#Times New Roman-62"/>
      <use xlink:href="#Times New Roman-75" x="50"/>
      <use xlink:href="#Times New Roman-66" x="100"/>
      <use xlink:href="#Times New Roman-66" x="150"/>
      <use xlink:href="#Times New Roman-65" x="200"/>
      <use xlink:href="#Times New Roman-72" x="250"/>
     </g>
    </g>
   </g>
  </g>
 </g>
 <defs>
  <clipPath id="pc8779d1aae">
   <rect x="135" y="51.84" width="837" height="332.64"/>
  </clipPath>
 </defs>
</svg>
