<?xml version="1.0" encoding="utf-8" standalone="no"?>
<!DOCTYPE svg PUBLIC "-//W3C//DTD SVG 1.1//EN"
  "http://www.w3.org/Graphics/SVG/1.1/DTD/svg11.dtd">
<svg xmlns:xlink="http://www.w3.org/1999/xlink" width="1080pt" height="432pt" viewBox="0 0 1080 432" xmlns="http://www.w3.org/2000/svg" version="1.1">
 <metadata>
  <rdf:RDF xmlns:dc="http://purl.org/dc/elements/1.1/" xmlns:cc="http://creativecommons.org/ns#" xmlns:rdf="http://www.w3.org/1999/02/22-rdf-syntax-ns#">
   <cc:Work>
    <dc:type rdf:resource="http://purl.org/dc/dcmitype/StillImage"/>
    <dc:date>2024-04-12T06:17:44.070187</dc:date>
    <dc:format>image/svg+xml</dc:format>
    <dc:creator>
     <cc:Agent>
      <dc:title>Matplotlib v3.8.3, https://matplotlib.org/</dc:title>
     </cc:Agent>
    </dc:creator>
   </cc:Work>
  </rdf:RDF>
 </metadata>
 <defs>
  <style type="text/css">*{stroke-linejoin: round; stroke-linecap: butt}</style>
 </defs>
 <g id="figure_1">
  <g id="patch_1">
   <path d="M 0 432 
L 1080 432 
L 1080 0 
L 0 0 
z
" style="fill: #ffffff"/>
  </g>
  <g id="axes_1">
   <g id="patch_2">
    <path d="M 135 384.48 
L 972 384.48 
L 972 51.84 
L 135 51.84 
z
" style="fill: #ffffff"/>
   </g>
   <g id="matplotlib.axis_1">
    <g id="xtick_1">
     <g id="line2d_1">
      <defs>
       <path id="mb4aef1e50d" d="M 0 0 
L 0 3.5 
" style="stroke: #000000; stroke-width: 0.8"/>
      </defs>
      <g>
       <use xlink:href="#mb4aef1e50d" x="173.045455" y="384.48" style="stroke: #000000; stroke-width: 0.8"/>
      </g>
     </g>
     <g id="text_1">
      <!-- 0 -->
      <g transform="translate(170.545455 398.628438) scale(0.1 -0.1)">
       <defs>
        <path id="Times New Roman-30" d="M 1600 4225
Q 1250 4225 1012 3687 
Q 775 3150 775 2250 
Q 775 1300 1012 775 
Q 1250 250 1600 250 
Q 1975 250 2187 775 
Q 2400 1300 2400 2250 
Q 2400 3150 2200 3687 
Q 2000 4225 1600 4225 
z
M 1600 50 
Q 1050 50 675 625 
Q 300 1200 300 2250 
Q 300 3225 662 3825 
Q 1025 4425 1600 4425 
Q 2150 4425 2512 3850 
Q 2875 3275 2875 2250 
Q 2875 1225 2512 637 
Q 2150 50 1600 50 
z
" transform="scale(0.015625)"/>
       </defs>
       <use xlink:href="#Times New Roman-30"/>
      </g>
     </g>
    </g>
    <g id="xtick_2">
     <g id="line2d_2">
      <g>
       <use xlink:href="#mb4aef1e50d" x="299.863636" y="384.48" style="stroke: #000000; stroke-width: 0.8"/>
      </g>
     </g>
     <g id="text_2">
      <!-- 100 -->
      <g transform="translate(292.363636 398.628438) scale(0.1 -0.1)">
       <defs>
        <path id="Times New Roman-31" d="M 1825 4450
L 1825 650 
Q 1825 450 1950 350 
Q 2075 250 2300 250 
L 2550 250 
L 2550 100 
L 725 100 
L 725 250 
L 950 250 
Q 1200 250 1312 350 
Q 1425 450 1425 650 
L 1425 3675 
Q 1425 3775 1362 3837 
Q 1300 3900 1175 3900 
L 725 3900 
L 725 4050 
L 950 4050 
Q 1250 4050 1437 4150 
Q 1625 4250 1725 4450 
L 1825 4450 
z
" transform="scale(0.015625)"/>
       </defs>
       <use xlink:href="#Times New Roman-31"/>
       <use xlink:href="#Times New Roman-30" x="50"/>
       <use xlink:href="#Times New Roman-30" x="100"/>
      </g>
     </g>
    </g>
    <g id="xtick_3">
     <g id="line2d_3">
      <g>
       <use xlink:href="#mb4aef1e50d" x="426.681818" y="384.48" style="stroke: #000000; stroke-width: 0.8"/>
      </g>
     </g>
     <g id="text_3">
      <!-- 200 -->
      <g transform="translate(419.181818 398.628438) scale(0.1 -0.1)">
       <defs>
        <path id="Times New Roman-32" d="M 2325 3325
Q 2325 3775 2125 4012 
Q 1925 4250 1525 4250 
Q 1225 4250 1012 4087 
Q 800 3925 800 3675 
Q 800 3525 900 3425 
Q 975 3325 975 3225 
Q 975 3100 912 3037 
Q 850 2975 725 2975 
Q 575 2975 487 3062 
Q 400 3150 400 3350 
Q 400 3875 775 4150 
Q 1150 4425 1575 4425 
Q 2175 4425 2462 4125 
Q 2750 3825 2750 3375 
Q 2750 3075 2612 2775 
Q 2475 2475 2175 2200 
Q 1450 1500 1062 1062 
Q 675 625 600 475 
L 2075 475 
Q 2300 475 2450 650 
Q 2600 825 2650 1175 
L 2800 1175 
L 2650 100 
L 325 100 
L 325 425 
Q 450 650 737 1000 
Q 1025 1350 1500 1825 
Q 1925 2250 2125 2625 
Q 2325 3000 2325 3325 
z
" transform="scale(0.015625)"/>
       </defs>
       <use xlink:href="#Times New Roman-32"/>
       <use xlink:href="#Times New Roman-30" x="50"/>
       <use xlink:href="#Times New Roman-30" x="100"/>
      </g>
     </g>
    </g>
    <g id="xtick_4">
     <g id="line2d_4">
      <g>
       <use xlink:href="#mb4aef1e50d" x="553.5" y="384.48" style="stroke: #000000; stroke-width: 0.8"/>
      </g>
     </g>
     <g id="text_4">
      <!-- 300 -->
      <g transform="translate(546 398.628438) scale(0.1 -0.1)">
       <defs>
        <path id="Times New Roman-33" d="M 2800 1250
Q 2800 775 2450 412 
Q 2100 50 1475 50 
Q 1025 50 700 300 
Q 375 550 375 875 
Q 375 1025 475 1137 
Q 575 1250 675 1250 
Q 825 1250 887 1137 
Q 950 1025 950 950 
Q 950 825 900 750 
Q 850 650 850 575 
Q 850 425 1037 325 
Q 1225 225 1450 225 
Q 1900 225 2125 487 
Q 2350 750 2350 1300 
Q 2350 1750 2112 2025 
Q 1875 2300 1225 2300 
L 1225 2475 
Q 1725 2475 1962 2712 
Q 2200 2950 2200 3375 
Q 2200 3725 2012 3987 
Q 1825 4250 1425 4250 
Q 1250 4250 1050 4162 
Q 850 4075 850 3875 
Q 850 3675 900 3625 
Q 950 3575 950 3500 
Q 950 3375 900 3300 
Q 850 3225 725 3225 
Q 625 3225 537 3300 
Q 450 3375 450 3575 
Q 450 3950 775 4187 
Q 1100 4425 1525 4425 
Q 2025 4425 2325 4112 
Q 2625 3800 2625 3450 
Q 2625 3075 2437 2812 
Q 2250 2550 1850 2425 
Q 2400 2225 2600 1900 
Q 2800 1575 2800 1250 
z
" transform="scale(0.015625)"/>
       </defs>
       <use xlink:href="#Times New Roman-33"/>
       <use xlink:href="#Times New Roman-30" x="50"/>
       <use xlink:href="#Times New Roman-30" x="100"/>
      </g>
     </g>
    </g>
    <g id="xtick_5">
     <g id="line2d_5">
      <g>
       <use xlink:href="#mb4aef1e50d" x="680.318182" y="384.48" style="stroke: #000000; stroke-width: 0.8"/>
      </g>
     </g>
     <g id="text_5">
      <!-- 400 -->
      <g transform="translate(672.818182 398.628438) scale(0.1 -0.1)">
       <defs>
        <path id="Times New Roman-34" d="M 2300 575
Q 2300 400 2400 325 
Q 2500 250 2675 250 
L 2900 250 
L 2900 100 
L 1250 100 
L 1250 250 
L 1525 250 
Q 1725 250 1812 325 
Q 1900 400 1900 575 
L 1900 1400 
L 225 1400 
L 225 1525 
L 2050 4425 
L 2300 4425 
L 2300 1550 
L 2975 1550 
L 2975 1400 
L 2300 1400 
L 2300 575 
z
M 1875 3800 
L 450 1550 
L 1900 1550 
L 1900 3800 
L 1875 3800 
z
" transform="scale(0.015625)"/>
       </defs>
       <use xlink:href="#Times New Roman-34"/>
       <use xlink:href="#Times New Roman-30" x="50"/>
       <use xlink:href="#Times New Roman-30" x="100"/>
      </g>
     </g>
    </g>
    <g id="xtick_6">
     <g id="line2d_6">
      <g>
       <use xlink:href="#mb4aef1e50d" x="807.136364" y="384.48" style="stroke: #000000; stroke-width: 0.8"/>
      </g>
     </g>
     <g id="text_6">
      <!-- 500 -->
      <g transform="translate(799.636364 398.628438) scale(0.1 -0.1)">
       <defs>
        <path id="Times New Roman-35" d="M 1725 2850
Q 2200 2850 2500 2487 
Q 2800 2125 2800 1525 
Q 2800 850 2487 450 
Q 2175 50 1525 50 
Q 1075 50 725 312 
Q 375 575 375 950 
Q 375 1100 462 1212 
Q 550 1325 700 1325 
Q 850 1325 900 1225 
Q 950 1125 950 1050 
Q 950 900 875 825 
Q 800 725 800 625 
Q 800 425 1037 325 
Q 1275 225 1550 225 
Q 1950 225 2162 550 
Q 2375 875 2375 1475 
Q 2375 1975 2187 2287 
Q 2000 2600 1625 2600 
Q 1350 2600 1150 2500 
Q 950 2400 775 2075 
L 550 2100 
L 675 4375 
L 2725 4375 
L 2650 4000 
L 850 4000 
L 750 2350 
Q 1000 2700 1237 2775 
Q 1475 2850 1725 2850 
z
" transform="scale(0.015625)"/>
       </defs>
       <use xlink:href="#Times New Roman-35"/>
       <use xlink:href="#Times New Roman-30" x="50"/>
       <use xlink:href="#Times New Roman-30" x="100"/>
      </g>
     </g>
    </g>
    <g id="xtick_7">
     <g id="line2d_7">
      <g>
       <use xlink:href="#mb4aef1e50d" x="933.954545" y="384.48" style="stroke: #000000; stroke-width: 0.8"/>
      </g>
     </g>
     <g id="text_7">
      <!-- 600 -->
      <g transform="translate(926.454545 398.628438) scale(0.1 -0.1)">
       <defs>
        <path id="Times New Roman-36" d="M 775 1800
Q 775 1050 1037 637 
Q 1300 225 1675 225 
Q 2050 225 2250 500 
Q 2450 775 2450 1525 
Q 2450 2025 2237 2300 
Q 2025 2575 1725 2575 
Q 1450 2575 1212 2412 
Q 975 2250 775 1800 
z
M 1750 2825 
Q 2350 2825 2612 2425 
Q 2875 2025 2875 1525 
Q 2875 775 2512 412 
Q 2150 50 1675 50 
Q 1000 50 650 562 
Q 300 1075 300 2050 
Q 300 3200 725 3812 
Q 1150 4425 1875 4425 
Q 2225 4425 2437 4225 
Q 2650 4025 2650 3875 
Q 2650 3725 2587 3650 
Q 2525 3575 2375 3575 
Q 2250 3575 2187 3637 
Q 2125 3700 2125 3825 
Q 2125 3875 2150 3925 
Q 2150 3975 2150 4025 
Q 2150 4125 2075 4187 
Q 2000 4250 1800 4250 
Q 1375 4250 1075 3862 
Q 775 3475 775 2175 
Q 925 2500 1187 2662 
Q 1450 2825 1750 2825 
z
" transform="scale(0.015625)"/>
       </defs>
       <use xlink:href="#Times New Roman-36"/>
       <use xlink:href="#Times New Roman-30" x="50"/>
       <use xlink:href="#Times New Roman-30" x="100"/>
      </g>
     </g>
    </g>
   </g>
   <g id="matplotlib.axis_2">
    <g id="ytick_1">
     <g id="line2d_8">
      <defs>
       <path id="m11eaea082f" d="M 0 0 
L -3.5 0 
" style="stroke: #000000; stroke-width: 0.8"/>
      </defs>
      <g>
       <use xlink:href="#m11eaea082f" x="135" y="378.481294" style="stroke: #000000; stroke-width: 0.8"/>
      </g>
     </g>
     <g id="text_8">
      <!-- 0 -->
      <g transform="translate(123 382.055513) scale(0.1 -0.1)">
       <use xlink:href="#Times New Roman-30"/>
      </g>
     </g>
    </g>
    <g id="ytick_2">
     <g id="line2d_9">
      <g>
       <use xlink:href="#m11eaea082f" x="135" y="313.791267" style="stroke: #000000; stroke-width: 0.8"/>
      </g>
     </g>
     <g id="text_9">
      <!-- 1000 -->
      <g transform="translate(108 317.365486) scale(0.1 -0.1)">
       <use xlink:href="#Times New Roman-31"/>
       <use xlink:href="#Times New Roman-30" x="50"/>
       <use xlink:href="#Times New Roman-30" x="100"/>
       <use xlink:href="#Times New Roman-30" x="150"/>
      </g>
     </g>
    </g>
    <g id="ytick_3">
     <g id="line2d_10">
      <g>
       <use xlink:href="#m11eaea082f" x="135" y="249.10124" style="stroke: #000000; stroke-width: 0.8"/>
      </g>
     </g>
     <g id="text_10">
      <!-- 2000 -->
      <g transform="translate(108 252.675459) scale(0.1 -0.1)">
       <use xlink:href="#Times New Roman-32"/>
       <use xlink:href="#Times New Roman-30" x="50"/>
       <use xlink:href="#Times New Roman-30" x="100"/>
       <use xlink:href="#Times New Roman-30" x="150"/>
      </g>
     </g>
    </g>
    <g id="ytick_4">
     <g id="line2d_11">
      <g>
       <use xlink:href="#m11eaea082f" x="135" y="184.411213" style="stroke: #000000; stroke-width: 0.8"/>
      </g>
     </g>
     <g id="text_11">
      <!-- 3000 -->
      <g transform="translate(108 187.985432) scale(0.1 -0.1)">
       <use xlink:href="#Times New Roman-33"/>
       <use xlink:href="#Times New Roman-30" x="50"/>
       <use xlink:href="#Times New Roman-30" x="100"/>
       <use xlink:href="#Times New Roman-30" x="150"/>
      </g>
     </g>
    </g>
    <g id="ytick_5">
     <g id="line2d_12">
      <g>
       <use xlink:href="#m11eaea082f" x="135" y="119.721186" style="stroke: #000000; stroke-width: 0.8"/>
      </g>
     </g>
     <g id="text_12">
      <!-- 4000 -->
      <g transform="translate(108 123.295405) scale(0.1 -0.1)">
       <use xlink:href="#Times New Roman-34"/>
       <use xlink:href="#Times New Roman-30" x="50"/>
       <use xlink:href="#Times New Roman-30" x="100"/>
       <use xlink:href="#Times New Roman-30" x="150"/>
      </g>
     </g>
    </g>
    <g id="ytick_6">
     <g id="line2d_13">
      <g>
       <use xlink:href="#m11eaea082f" x="135" y="55.031159" style="stroke: #000000; stroke-width: 0.8"/>
      </g>
     </g>
     <g id="text_13">
      <!-- 5000 -->
      <g transform="translate(108 58.605378) scale(0.1 -0.1)">
       <use xlink:href="#Times New Roman-35"/>
       <use xlink:href="#Times New Roman-30" x="50"/>
       <use xlink:href="#Times New Roman-30" x="100"/>
       <use xlink:href="#Times New Roman-30" x="150"/>
      </g>
     </g>
    </g>
    <g id="text_14">
     <!-- Bitrate (kbps) -->
     <g transform="translate(102.710938 253.16) rotate(-90) scale(0.1 -0.1)">
      <defs>
       <path id="Times New Roman-42" d="M 100 100
L 100 250 
L 300 250 
Q 425 250 475 300 
Q 525 350 525 450 
L 525 4025 
Q 525 4125 475 4175 
Q 425 4225 300 4225 
L 150 4225 
L 150 4375 
L 1600 4375 
Q 2200 4375 2487 4137 
Q 2775 3900 2775 3400 
Q 2775 3050 2625 2825 
Q 2475 2600 2000 2425 
Q 2575 2250 2775 1925 
Q 2975 1600 2975 1200 
Q 2975 700 2625 400 
Q 2275 100 1675 100 
L 100 100 
z
M 1600 250 
Q 2025 250 2262 512 
Q 2500 775 2500 1250 
Q 2500 1800 2250 2062 
Q 2000 2325 1500 2325 
L 925 2325 
L 925 450 
Q 925 350 987 300 
Q 1050 250 1150 250 
L 1600 250 
z
M 2350 3400 
Q 2350 3850 2100 4037 
Q 1850 4225 1450 4225 
L 1150 4225 
Q 1050 4225 987 4175 
Q 925 4125 925 4025 
L 925 2475 
L 1575 2475 
Q 1850 2475 2100 2700 
Q 2350 2925 2350 3400 
z
" transform="scale(0.015625)"/>
       <path id="Times New Roman-69" d="M 1425 2525
Q 1425 2625 1375 2687 
Q 1325 2750 1200 2750 
L 675 2750 
L 675 2900 
L 925 2900 
Q 1150 2900 1350 2937 
Q 1550 2975 1725 3075 
L 1775 3075 
L 1775 450 
Q 1775 350 1837 300 
Q 1900 250 2000 250 
L 2525 250 
L 2525 100 
L 675 100 
L 675 250 
L 1200 250 
Q 1325 250 1375 300 
Q 1425 350 1425 450 
L 1425 2525 
z
M 1725 3025 
L 1725 3025 
z
M 1625 4425 
Q 1750 4425 1850 4337 
Q 1950 4250 1950 4125 
Q 1950 4000 1850 3900 
Q 1750 3800 1625 3800 
Q 1500 3800 1400 3900 
Q 1300 4000 1300 4125 
Q 1300 4250 1400 4337 
Q 1500 4425 1625 4425 
z
" transform="scale(0.015625)"/>
       <path id="Times New Roman-74" d="M 1500 900
Q 1500 550 1625 425 
Q 1750 300 2000 300 
Q 2250 300 2400 462 
Q 2550 625 2600 925 
L 2725 875 
Q 2675 525 2462 300 
Q 2250 75 1900 75 
Q 1525 75 1337 300 
Q 1150 525 1150 1000 
L 1150 2750 
L 400 2750 
L 400 2900 
L 600 2900 
Q 900 2900 1087 3087 
Q 1275 3275 1325 3675 
L 1350 3875 
L 1500 3875 
L 1500 2900 
L 2500 2900 
L 2500 2750 
L 1500 2750 
L 1500 900 
z
" transform="scale(0.015625)"/>
       <path id="Times New Roman-72" d="M 1275 2125
Q 1525 2525 1812 2737 
Q 2100 2950 2400 2950 
Q 2650 2950 2787 2837 
Q 2925 2725 2925 2575 
Q 2925 2450 2862 2375 
Q 2800 2300 2675 2300 
Q 2550 2300 2487 2375 
Q 2425 2450 2450 2575 
Q 2450 2650 2425 2700 
Q 2400 2750 2275 2750 
Q 2075 2750 1787 2500 
Q 1500 2250 1275 1800 
L 1275 450 
Q 1275 350 1337 300 
Q 1400 250 1500 250 
L 2050 250 
L 2050 100 
L 200 100 
L 200 250 
L 700 250 
Q 825 250 875 300 
Q 925 350 925 450 
L 925 2525 
Q 925 2625 875 2687 
Q 825 2750 700 2750 
L 225 2750 
L 225 2900 
L 425 2900 
Q 600 2900 837 2937 
Q 1075 2975 1200 3025 
L 1275 3025 
L 1275 2125 
z
" transform="scale(0.015625)"/>
       <path id="Times New Roman-61" d="M 1225 75
Q 775 75 525 287 
Q 275 500 275 775 
Q 275 1225 662 1512 
Q 1050 1800 2200 1925 
L 2200 2225 
Q 2200 2475 2087 2637 
Q 1975 2800 1575 2800 
Q 1150 2800 975 2662 
Q 800 2525 850 2375 
Q 875 2325 875 2275 
Q 875 2225 837 2150 
Q 800 2075 650 2075 
Q 550 2075 487 2137 
Q 425 2200 425 2325 
Q 425 2550 750 2750 
Q 1075 2950 1550 2950 
Q 2050 2950 2300 2762 
Q 2550 2575 2550 2225 
L 2550 575 
Q 2550 375 2587 337 
Q 2625 300 2725 300 
Q 2850 300 2900 412 
Q 2950 525 2950 725 
L 3075 725 
Q 3075 375 2950 237 
Q 2825 100 2625 100 
Q 2450 100 2350 175 
Q 2250 250 2200 425 
Q 1950 250 1737 162 
Q 1525 75 1225 75 
z
M 700 850 
Q 700 625 837 437 
Q 975 250 1275 250 
Q 1500 250 1725 337 
Q 1950 425 2200 600 
L 2200 1775 
Q 1350 1675 1025 1437 
Q 700 1200 700 850 
z
" transform="scale(0.015625)"/>
       <path id="Times New Roman-65" d="M 2400 1650
Q 2425 2200 2212 2487 
Q 2000 2775 1650 2775 
Q 1275 2775 1037 2475 
Q 800 2175 800 1650 
L 2400 1650 
z
M 800 1500 
Q 800 825 1062 537 
Q 1325 250 1750 250 
Q 2075 250 2300 437 
Q 2525 625 2625 900 
L 2750 850 
Q 2675 575 2412 312 
Q 2150 50 1700 50 
Q 1125 50 762 425 
Q 400 800 400 1500 
Q 400 2125 762 2537 
Q 1125 2950 1650 2950 
Q 2125 2950 2475 2625 
Q 2825 2300 2825 1500 
L 800 1500 
z
" transform="scale(0.015625)"/>
       <path id="Times New Roman-20" d="M 0 0
Q 0 0 0 0 
z
" transform="scale(0.015625)"/>
       <path id="Times New Roman-28" d="M 2900 5025
Q 2325 4425 2037 3737 
Q 1750 3050 1750 2300 
Q 1750 1525 2037 850 
Q 2325 175 2900 -425 
L 2775 -550 
Q 2075 75 1725 787 
Q 1375 1500 1375 2300 
Q 1375 3075 1725 3787 
Q 2075 4500 2775 5150 
L 2900 5025 
z
" transform="scale(0.015625)"/>
       <path id="Times New Roman-6b" d="M 1675 1900
L 2625 425 
Q 2700 325 2762 287 
Q 2825 250 2900 250 
L 3000 250 
L 3000 100 
L 1975 100 
L 1975 250 
L 2050 250 
Q 2175 250 2225 287 
Q 2275 325 2200 425 
L 1425 1650 
L 925 1125 
L 925 450 
Q 925 350 987 300 
Q 1050 250 1150 250 
L 1275 250 
L 1275 100 
L 225 100 
L 225 250 
L 350 250 
Q 475 250 525 300 
Q 575 350 575 450 
L 575 4025 
Q 575 4125 525 4175 
Q 475 4225 350 4225 
L 200 4225 
L 200 4375 
L 425 4375 
Q 575 4375 687 4425 
Q 800 4475 875 4575 
L 925 4575 
L 925 1400 
L 1975 2525 
Q 2025 2625 2012 2687 
Q 2000 2750 1900 2750 
L 1750 2750 
L 1750 2900 
L 2800 2900 
L 2800 2750 
L 2675 2750 
Q 2600 2750 2487 2712 
Q 2375 2675 2275 2575 
L 1675 1900 
z
M 2450 2750 
L 2450 2750 
z
M 2175 2750 
L 2175 2750 
z
M 2300 250 
L 2300 250 
z
M 2750 250 
L 2750 250 
z
" transform="scale(0.015625)"/>
       <path id="Times New Roman-62" d="M 875 2325
Q 1000 2600 1275 2762 
Q 1550 2925 1800 2925 
Q 2325 2925 2587 2562 
Q 2850 2200 2850 1500 
Q 2850 800 2512 437 
Q 2175 75 1675 75 
Q 1425 75 1212 162 
Q 1000 250 850 400 
L 625 100 
L 525 100 
L 525 4025 
Q 525 4125 475 4175 
Q 425 4225 300 4225 
L 150 4225 
L 150 4375 
L 375 4375 
Q 500 4375 625 4425 
Q 750 4475 875 4575 
L 875 2325 
z
M 875 925 
Q 875 650 1062 450 
Q 1250 250 1625 250 
Q 2075 250 2262 562 
Q 2450 875 2450 1500 
Q 2450 2100 2287 2412 
Q 2125 2725 1775 2725 
Q 1475 2725 1250 2550 
Q 1025 2375 875 1925 
L 875 925 
z
" transform="scale(0.015625)"/>
       <path id="Times New Roman-70" d="M 1150 -675
L 1325 -675 
L 1325 -825 
L 175 -825 
L 175 -675 
L 325 -675 
Q 450 -675 500 -625 
Q 550 -575 550 -450 
L 550 2500 
Q 550 2600 500 2662 
Q 450 2725 325 2725 
L 175 2725 
L 175 2875 
L 400 2875 
Q 525 2875 637 2900 
Q 750 2925 850 3000 
L 900 3000 
L 900 2425 
Q 1075 2675 1287 2800 
Q 1500 2925 1750 2925 
Q 2250 2925 2575 2587 
Q 2900 2250 2900 1525 
Q 2900 825 2550 450 
Q 2200 75 1725 75 
Q 1450 75 1262 162 
Q 1075 250 900 425 
L 900 -450 
Q 900 -575 975 -625 
Q 1050 -675 1150 -675 
z
M 900 750 
Q 1025 500 1212 375 
Q 1400 250 1650 250 
Q 2000 250 2250 562 
Q 2500 875 2500 1525 
Q 2500 2125 2312 2425 
Q 2125 2725 1750 2725 
Q 1525 2725 1300 2587 
Q 1075 2450 900 2150 
L 900 750 
z
" transform="scale(0.015625)"/>
       <path id="Times New Roman-73" d="M 625 2175
Q 625 2550 912 2750 
Q 1200 2950 1600 2950 
Q 1825 2950 2025 2900 
Q 2225 2825 2300 2825 
Q 2375 2825 2425 2850 
Q 2475 2875 2550 2950 
L 2650 2125 
L 2500 2100 
Q 2400 2425 2162 2612 
Q 1925 2800 1625 2800 
Q 1300 2800 1112 2675 
Q 925 2550 925 2325 
Q 925 2125 1012 2012 
Q 1100 1900 1325 1850 
Q 1500 1775 1775 1700 
Q 2025 1600 2250 1500 
Q 2450 1400 2587 1237 
Q 2725 1075 2725 875 
Q 2725 500 2462 287 
Q 2200 75 1700 75 
Q 1375 75 1225 150 
Q 1050 200 950 200 
Q 875 200 787 162 
Q 700 125 600 75 
L 525 1000 
L 675 1025 
Q 750 625 1000 425 
Q 1250 225 1700 225 
Q 2050 225 2237 350 
Q 2425 475 2425 725 
Q 2425 900 2325 1012 
Q 2225 1125 2125 1175 
Q 1875 1275 1575 1400 
Q 1275 1500 1050 1600 
Q 825 1700 725 1850 
Q 625 2000 625 2175 
z
" transform="scale(0.015625)"/>
       <path id="Times New Roman-29" d="M 275 5025
L 400 5150 
Q 1100 4500 1450 3787 
Q 1800 3075 1800 2300 
Q 1800 1500 1450 787 
Q 1100 75 400 -550 
L 275 -425 
Q 850 175 1137 850 
Q 1425 1525 1425 2300 
Q 1425 3050 1137 3737 
Q 850 4425 275 5025 
z
" transform="scale(0.015625)"/>
      </defs>
      <use xlink:href="#Times New Roman-42"/>
      <use xlink:href="#Times New Roman-69" x="50"/>
      <use xlink:href="#Times New Roman-74" x="100"/>
      <use xlink:href="#Times New Roman-72" x="150"/>
      <use xlink:href="#Times New Roman-61" x="200"/>
      <use xlink:href="#Times New Roman-74" x="250"/>
      <use xlink:href="#Times New Roman-65" x="300"/>
      <use xlink:href="#Times New Roman-20" x="350"/>
      <use xlink:href="#Times New Roman-28" x="400"/>
      <use xlink:href="#Times New Roman-6b" x="450"/>
      <use xlink:href="#Times New Roman-62" x="500"/>
      <use xlink:href="#Times New Roman-70" x="550"/>
      <use xlink:href="#Times New Roman-73" x="600"/>
      <use xlink:href="#Times New Roman-29" x="650"/>
     </g>
    </g>
   </g>
   <g id="line2d_14">
    <path d="M 173.045455 336.626846 
L 174.313636 336.626846 
L 175.581818 369.36 
L 178.118182 369.36 
L 179.386364 336.626846 
L 183.190909 336.626846 
L 183.190909 307.775094 
L 189.531818 307.775094 
L 189.531818 255.311482 
L 221.236364 255.311482 
L 221.236364 255.311482 
L 222.504545 127.095849 
L 223.772727 255.311482 
L 227.577273 255.311482 
L 228.845455 191.203666 
L 228.845455 255.311482 
L 231.381818 255.311482 
L 232.65 127.095849 
L 232.65 255.311482 
L 240.259091 255.311482 
L 241.527273 127.095849 
L 242.795455 255.311482 
L 245.331818 255.311482 
L 246.6 127.095849 
L 247.868182 255.311482 
L 250.404545 255.311482 
L 251.672727 127.095849 
L 252.940909 255.311482 
L 252.940909 255.311482 
L 255.477273 255.311482 
L 255.477273 255.311482 
L 256.745455 127.095849 
L 256.745455 255.311482 
L 259.281818 255.311482 
L 260.55 127.095849 
L 271.963636 127.095849 
L 271.963636 127.095849 
L 273.231818 307.775094 
L 277.036364 307.775094 
L 278.304545 255.311482 
L 287.181818 255.311482 
L 287.181818 255.311482 
L 287.181818 336.626846 
L 288.45 369.36 
L 288.45 369.36 
L 289.718182 369.36 
L 289.718182 336.626846 
L 289.718182 336.626846 
L 290.986364 369.36 
L 290.986364 369.36 
L 292.254545 369.36 
L 292.254545 336.626846 
L 293.522727 336.626846 
L 293.522727 307.775094 
L 294.790909 336.626846 
L 299.863636 336.626846 
L 315.081818 369.36 
L 334.104545 369.36 
L 334.104545 369.36 
L 335.372727 336.626846 
L 339.177273 336.626846 
L 339.177273 307.775094 
L 342.981818 307.775094 
L 344.25 255.311482 
L 356.931818 255.311482 
L 358.2 191.203666 
L 358.2 255.311482 
L 362.004545 255.311482 
L 363.272727 191.203666 
L 364.540909 191.203666 
L 364.540909 127.095849 
L 367.077273 127.095849 
L 368.345455 255.311482 
L 373.418182 255.311482 
L 374.686364 127.095849 
L 468.531818 127.095849 
L 469.8 255.311482 
L 477.409091 255.311482 
L 477.409091 255.311482 
L 477.409091 127.095849 
L 478.677273 127.095849 
L 478.677273 255.311482 
L 486.286364 255.311482 
L 486.286364 127.095849 
L 493.895455 127.095849 
L 496.431818 255.311482 
L 497.7 255.311482 
L 497.7 255.311482 
L 498.968182 127.095849 
L 504.040909 127.095849 
L 504.040909 255.311482 
L 521.795455 255.311482 
L 523.063636 127.095849 
L 523.063636 255.311482 
L 525.6 255.311482 
L 526.868182 127.095849 
L 528.136364 255.311482 
L 530.672727 255.311482 
L 531.940909 127.095849 
L 531.940909 127.095849 
L 553.5 127.095849 
L 553.5 127.095849 
L 554.768182 255.311482 
L 557.304545 255.311482 
L 558.572727 127.095849 
L 559.840909 255.311482 
L 562.377273 255.311482 
L 563.645455 127.095849 
L 564.913636 255.311482 
L 571.254545 255.311482 
L 571.254545 127.095849 
L 572.522727 255.311482 
L 577.595455 255.311482 
L 577.595455 127.095849 
L 577.595455 255.311482 
L 580.131818 255.311482 
L 580.131818 255.311482 
L 581.4 307.775094 
L 582.668182 307.775094 
L 582.668182 307.775094 
L 583.936364 127.095849 
L 583.936364 127.095849 
L 585.204545 127.095849 
L 585.204545 127.095849 
L 586.472727 255.311482 
L 604.227273 255.311482 
L 604.227273 336.626846 
L 623.25 336.626846 
L 623.25 307.775094 
L 623.25 307.775094 
L 629.590909 307.775094 
L 630.859091 255.311482 
L 647.345455 255.311482 
L 647.345455 127.095849 
L 648.613636 127.095849 
L 648.613636 255.311482 
L 660.027273 255.311482 
L 662.563636 127.095849 
L 665.1 127.095849 
L 666.368182 255.311482 
L 668.904545 255.311482 
L 668.904545 127.095849 
L 686.659091 127.095849 
L 689.195455 191.203666 
L 690.463636 191.203666 
L 690.463636 191.203666 
L 691.731818 127.095849 
L 715.827273 127.095849 
L 715.827273 255.311482 
L 717.095455 255.311482 
L 717.095455 255.311482 
L 718.363636 127.095849 
L 722.168182 127.095849 
L 722.168182 127.095849 
L 723.436364 255.311482 
L 728.509091 255.311482 
L 728.509091 127.095849 
L 729.777273 127.095849 
L 729.777273 255.311482 
L 731.045455 255.311482 
L 731.045455 255.311482 
L 732.313636 307.775094 
L 732.313636 307.775094 
L 733.581818 307.775094 
L 733.581818 127.095849 
L 734.85 255.311482 
L 750.068182 255.311482 
L 750.068182 336.626846 
L 786.845455 336.626846 
L 786.845455 307.775094 
L 788.113636 307.775094 
L 791.918182 336.626846 
L 795.722727 336.626846 
L 795.722727 307.775094 
L 799.527273 307.775094 
L 799.527273 255.311482 
L 809.672727 255.311482 
L 809.672727 255.311482 
L 810.940909 127.095849 
L 810.940909 231.893693 
L 812.209091 255.311482 
L 822.354545 255.311482 
L 823.622727 127.095849 
L 824.890909 255.311482 
L 828.695455 255.311482 
L 829.963636 127.095849 
L 833.768182 127.095849 
L 835.036364 191.203666 
L 837.572727 191.203666 
L 837.572727 127.095849 
L 840.109091 127.095849 
L 842.645455 255.311482 
L 846.45 255.311482 
L 846.45 191.203666 
L 846.45 255.311482 
L 854.059091 255.311482 
L 854.059091 127.095849 
L 856.595455 255.311482 
L 856.595455 255.311482 
L 859.131818 255.311482 
L 859.131818 127.095849 
L 890.836364 127.095849 
L 890.836364 255.311482 
L 898.445455 255.311482 
L 898.445455 127.095849 
L 899.713636 255.311482 
L 902.25 255.311482 
L 903.518182 307.775094 
L 904.786364 307.775094 
L 904.786364 307.775094 
L 906.054545 127.095849 
L 906.054545 307.775094 
L 908.590909 307.775094 
L 916.2 255.311482 
L 917.468182 255.311482 
L 917.468182 255.311482 
L 918.736364 336.626846 
L 921.272727 336.626846 
L 921.272727 307.775094 
L 921.272727 307.775094 
L 928.881818 307.775094 
L 930.15 255.311482 
L 933.954545 255.311482 
L 933.954545 255.311482 
" clip-path="url(#p423a5d978f)" style="fill: none; stroke: #ff0000; stroke-width: 1.5; stroke-linecap: square"/>
   </g>
   <g id="line2d_15">
    <path d="M 173.045455 339.408518 
L 174.313636 336.093154 
L 175.581818 335.487583 
L 176.85 331.358203 
L 178.118182 327.815346 
L 179.386364 320.969704 
L 180.654545 315.158383 
L 181.922727 306.977251 
L 183.190909 299.6069 
L 183.190909 291.80097 
L 184.459091 285.733046 
L 185.727273 278.975094 
L 188.263636 271.626307 
L 189.531818 264.415526 
L 189.531818 257.769704 
L 193.336364 236.900701 
L 195.872727 222.802588 
L 198.409091 214.949218 
L 199.677273 207.1131 
L 200.945455 198.48345 
L 202.213636 190.811213 
L 203.481818 181.802049 
L 204.75 174.436011 
L 206.018182 165.612291 
L 207.286364 160.251644 
L 209.822727 153.394501 
L 211.090909 148.581563 
L 212.359091 145.144367 
L 213.627273 142.910404 
L 214.895455 139.374016 
L 214.895455 134.078059 
L 216.163636 127.647871 
L 218.7 111.315795 
L 221.236364 105.394501 
L 221.236364 103.419299 
L 222.504545 102.505013 
L 223.772727 99.641402 
L 225.040909 97.644636 
L 227.577273 94.323881 
L 228.845455 91.21876 
L 228.845455 86.310943 
L 230.113636 88.048949 
L 231.381818 110.388571 
L 232.65 138.878059 
L 232.65 167.669434 
L 233.918182 188.396119 
L 236.454545 214.099623 
L 237.722727 229.940054 
L 238.990909 228.913639 
L 240.259091 214.67752 
L 241.527273 204.271051 
L 242.795455 196.943827 
L 244.063636 176.60097 
L 245.331818 164.374555 
L 246.6 158.763774 
L 247.868182 180.232237 
L 249.136364 186.752992 
L 250.404545 192.618221 
L 251.672727 182.867278 
L 252.940909 187.240323 
L 252.940909 181.44841 
L 254.209091 179.128194 
L 254.209091 169.804205 
L 255.477273 170.101779 
L 255.477273 147.9131 
L 256.745455 132.749757 
L 256.745455 128.441402 
L 258.013636 140.797197 
L 258.013636 158.962156 
L 259.281818 175.384798 
L 260.55 183.803127 
L 261.818182 185.916334 
L 266.890909 182.953531 
L 268.159091 175.88938 
L 269.427273 171.115256 
L 270.695455 175.082911 
L 270.695455 185.571321 
L 271.963636 194.188032 
L 271.963636 200.281833 
L 274.5 213.612291 
L 275.768182 220.456496 
L 277.036364 226.131968 
L 278.304545 233.506631 
L 284.645455 241.498005 
L 285.913636 251.697466 
L 285.913636 262.453261 
L 287.181818 274.196658 
L 287.181818 291.188571 
L 288.45 295.617682 
L 288.45 298.576173 
L 289.718182 301.521725 
L 289.718182 306.817682 
L 290.986364 309.043019 
L 290.986364 310.944906 
L 292.254545 312.566469 
L 292.254545 314.231159 
L 293.522727 316.413369 
L 293.522727 318.763774 
L 297.327273 326.880216 
L 298.595455 330.990189 
L 298.595455 336.21283 
L 299.863636 341.306092 
L 315.081818 345.351375 
L 316.35 348.072668 
L 318.886364 348.710943 
L 318.886364 347.352453 
L 320.154545 344.708787 
L 322.690909 342.306631 
L 323.959091 339.47752 
L 325.227273 335.997197 
L 327.763636 326.953531 
L 327.763636 321.920647 
L 329.031818 317.297466 
L 329.031818 313.191806 
L 330.3 309.741671 
L 334.104545 305.821456 
L 334.104545 301.228464 
L 335.372727 295.872129 
L 337.909091 289.351375 
L 337.909091 282.041402 
L 339.177273 274.796119 
L 339.177273 268.805822 
L 340.445455 262.880216 
L 341.713636 259.891536 
L 342.981818 260.266739 
L 344.25 256.738976 
L 345.518182 252.555687 
L 350.590909 246.246253 
L 351.859091 236.650566 
L 351.859091 224.109326 
L 353.127273 212.827385 
L 355.663636 205.849488 
L 358.2 187.749218 
L 358.2 178.149218 
L 362.004545 167.621995 
L 363.272727 162.356226 
L 364.540909 153.213369 
L 364.540909 147.615526 
L 365.809091 137.834394 
L 365.809091 129.579946 
L 367.077273 120.950296 
L 368.345455 116.68938 
L 372.15 111.898005 
L 373.418182 107.473208 
L 375.954545 94.901779 
L 377.222727 90.222534 
L 378.490909 86.690458 
L 379.759091 84.206361 
L 381.027273 82.062965 
L 382.295455 80.782102 
L 383.563636 77.72442 
L 384.831818 75.214447 
L 386.1 72.21283 
L 387.368182 70.768086 
L 388.636364 69.551914 
L 389.904545 77.004205 
L 389.904545 92.016604 
L 391.172727 108.43062 
L 391.172727 118.733585 
L 392.440909 122.597736 
L 392.440909 118.655957 
L 393.709091 106.39504 
L 393.709091 92.283989 
L 394.977273 84.88345 
L 394.977273 85.017143 
L 396.245455 85.952992 
L 396.245455 87.026846 
L 397.513636 88.928733 
L 397.513636 91.227385 
L 398.781818 94.147062 
L 398.781818 97.312561 
L 400.05 100.698005 
L 400.05 102.565391 
L 400.05 102.229003 
L 401.318182 100.723881 
L 401.318182 99.110943 
L 402.586364 99.533585 
L 403.854545 103.100162 
L 403.854545 109.810674 
L 405.122727 116.758383 
L 405.122727 127.363235 
L 406.390909 137.528194 
L 406.390909 153.437628 
L 407.659091 177.502318 
L 407.659091 202.977251 
L 408.927273 229.478598 
L 408.927273 247.850566 
L 410.195455 256.773477 
L 410.195455 255.414987 
L 411.463636 254.604205 
L 411.463636 256.044636 
L 412.731818 252.322803 
L 412.731818 241.674825 
L 414 231.126038 
L 414 226.222534 
L 415.268182 218.714178 
L 415.268182 209.821456 
L 416.536364 210.623612 
L 416.536364 231.246792 
L 417.804545 234.015526 
L 417.804545 236.357305 
L 419.072727 231.647871 
L 420.340909 220.749757 
L 420.340909 203.662965 
L 421.609091 200.221456 
L 421.609091 209.98965 
L 422.877273 226.481294 
L 422.877273 236.051105 
L 424.145455 244.62469 
L 424.145455 261.120647 
L 425.413636 263.384798 
L 425.413636 265.480755 
L 426.681818 262.811213 
L 427.95 258.671051 
L 429.218182 256.475903 
L 429.218182 266.106092 
L 430.486364 278.543827 
L 468.531818 297.640323 
L 469.8 312.846792 
L 471.068182 326.181563 
L 472.336364 330.13628 
L 477.409091 335.173477 
L 477.409091 336.708787 
L 478.677273 330.494232 
L 478.677273 326.763774 
L 479.945455 323.28345 
L 481.213636 321.278059 
L 485.018182 317.569164 
L 486.286364 312.738976 
L 486.286364 305.459191 
L 487.554545 299.123881 
L 491.359091 290.528733 
L 491.359091 282.610674 
L 492.627273 273.498005 
L 492.627273 265.907709 
L 493.895455 257.972399 
L 496.431818 250.226846 
L 497.7 242.709865 
L 497.7 235.632776 
L 498.968182 229.068895 
L 502.772727 221.784798 
L 504.040909 213.655418 
L 504.040909 205.44841 
L 505.309091 202.567547 
L 506.577273 213.474286 
L 507.845455 234.438167 
L 507.845455 262.362695 
L 509.113636 279.544367 
L 511.65 294.750836 
L 512.918182 288.096388 
L 512.918182 271.893693 
L 514.186364 242.170782 
L 516.722727 236.572938 
L 517.990909 235.775094 
L 517.990909 248.7131 
L 519.259091 249.256496 
L 521.795455 265.881833 
L 523.063636 266.821995 
L 523.063636 265.226307 
L 524.331818 249.87752 
L 525.6 248.286146 
L 526.868182 246.082372 
L 528.136364 251.67159 
L 529.404545 243.158383 
L 530.672727 226.757305 
L 531.940909 195.382642 
L 531.940909 159.298544 
L 533.209091 120.450027 
L 534.477273 90.131968 
L 535.745455 74.261348 
L 537.013636 71.268356 
L 538.281818 72.225768 
L 539.55 72.139515 
L 540.818182 74.326038 
L 542.086364 73.140054 
L 543.354545 75.54221 
L 545.890909 72.73035 
L 547.159091 70.444636 
L 548.427273 66.96 
L 552.231818 74.39504 
L 553.5 82.084528 
L 553.5 91.322264 
L 554.768182 98.420916 
L 556.036364 106.37779 
L 557.304545 109.219838 
L 559.840909 112.393962 
L 562.377273 120.90717 
L 563.645455 126.940593 
L 564.913636 134.815526 
L 567.45 142.966469 
L 567.45 150.673208 
L 568.718182 159.121725 
L 569.986364 165.883989 
L 571.254545 171.749218 
L 571.254545 177.006361 
L 573.790909 188.551375 
L 576.327273 195.110943 
L 576.327273 201.174555 
L 577.595455 206.625768 
L 577.595455 218.261348 
L 578.863636 223.216604 
L 578.863636 226.33035 
L 580.131818 229.586415 
L 580.131818 233.019299 
L 581.4 236.184798 
L 582.668182 239.686685 
L 582.668182 243.52496 
L 583.936364 247.156226 
L 583.936364 249.799892 
L 585.204545 252.969704 
L 585.204545 257.114178 
L 586.472727 262.125499 
L 587.740909 266.472668 
L 589.009091 271.471051 
L 600.422727 279.039784 
L 601.690909 289.640323 
L 604.227273 302.931968 
L 604.227273 316.663504 
L 605.495455 329.752453 
L 608.031818 339.192884 
L 609.3 344.97186 
L 609.3 347.399892 
L 610.568182 349.409596 
L 613.104545 351.138976 
L 613.104545 352.605283 
L 614.372727 353.42469 
L 615.640909 353.808518 
L 616.909091 353.696388 
L 618.177273 353.083989 
L 619.445455 351.958383 
L 621.981818 350.530889 
L 621.981818 348.930889 
L 623.25 347.016065 
L 623.25 343.341671 
L 624.518182 341.944367 
L 624.518182 340.75407 
L 625.786364 339.481833 
L 627.054545 337.804205 
L 628.322727 335.652183 
L 629.590909 332.741132 
L 630.859091 328.889919 
L 633.395455 319.505553 
L 638.468182 313.045175 
L 639.736364 305.510943 
L 639.736364 297.321186 
L 643.540909 273.485067 
L 646.077273 260.322803 
L 647.345455 253.094771 
L 647.345455 245.163774 
L 648.613636 238.72496 
L 648.613636 232.825229 
L 649.881818 227.710404 
L 651.15 223.768625 
L 657.490909 218.929811 
L 657.490909 212.866199 
L 658.759091 203.326577 
L 658.759091 193.791267 
L 660.027273 182.466199 
L 662.563636 171.891536 
L 663.831818 168.087763 
L 665.1 165.914178 
L 666.368182 165.284528 
L 667.636364 157.996119 
L 668.904545 153.454879 
L 668.904545 143.238167 
L 670.172727 134.194501 
L 673.977273 123.503396 
L 673.977273 120.441402 
L 675.245455 116.253801 
L 677.781818 111.885067 
L 677.781818 107.326577 
L 679.05 103.225229 
L 681.586364 98.610674 
L 681.586364 92.788571 
L 682.854545 87.358922 
L 685.390909 82.688302 
L 685.390909 78.539515 
L 686.659091 75.93035 
L 689.195455 75.97779 
L 690.463636 77.38372 
L 690.463636 79.941132 
L 691.731818 82.209596 
L 694.268182 83.727655 
L 695.536364 83.287763 
L 695.536364 81.338437 
L 696.804545 77.590728 
L 696.804545 73.575633 
L 698.072727 72.66566 
L 701.877273 80.747601 
L 701.877273 97.545445 
L 703.145455 114.257035 
L 703.145455 125.711482 
L 704.413636 128.268895 
L 709.486364 108.469434 
L 709.486364 113.226307 
L 710.754545 124.629003 
L 714.559091 135.621995 
L 715.827273 143.423612 
L 715.827273 147.361078 
L 717.095455 149.422534 
L 717.095455 153.648949 
L 718.363636 160.152453 
L 720.9 166.181563 
L 722.168182 171.84841 
L 722.168182 176.135202 
L 723.436364 179.274825 
L 724.704545 180.775633 
L 727.240909 184.415526 
L 728.509091 189.672668 
L 728.509091 195.667278 
L 729.777273 202.834933 
L 729.777273 210.912561 
L 731.045455 219.693154 
L 731.045455 232.876981 
L 732.313636 236.616065 
L 732.313636 238.336819 
L 733.581818 238.427385 
L 733.581818 238.906092 
L 734.85 240.393962 
L 736.118182 243.076442 
L 737.386364 247.729811 
L 746.263636 255.794501 
L 747.531818 267.490458 
L 750.068182 281.903396 
L 750.068182 296.721725 
L 751.336364 310.440323 
L 752.604545 320.954609 
L 753.872727 327.846253 
L 755.140909 331.697466 
L 755.140909 337.610135 
L 756.409091 340.17186 
L 756.409091 343.738437 
L 757.677273 344.631159 
L 757.677273 345.114178 
L 758.945455 345.722264 
L 758.945455 346.511482 
L 761.481818 348.296927 
L 764.018182 350.358383 
L 771.627273 350.729272 
L 772.895455 350.431698 
L 774.163636 349.474286 
L 777.968182 347.533585 
L 777.968182 344.497466 
L 779.236364 341.357844 
L 779.236364 338.994501 
L 780.504545 336.708787 
L 783.040909 333.720108 
L 784.309091 329.692075 
L 785.577273 324.534124 
L 786.845455 317.896927 
L 786.845455 310.85434 
L 788.113636 305.191806 
L 791.918182 299.900162 
L 793.186364 294.151375 
L 794.454545 287.009596 
L 794.454545 279.854879 
L 795.722727 272.031698 
L 795.722727 265.178868 
L 796.990909 260.003666 
L 798.259091 255.988571 
L 799.527273 251.110943 
L 799.527273 245.150836 
L 800.795455 239.333046 
L 800.795455 233.916334 
L 804.6 220.836011 
L 809.672727 213.202588 
L 809.672727 202.951375 
L 810.940909 192.993423 
L 810.940909 186.645175 
L 812.209091 181.362156 
L 813.477273 177.045175 
L 818.55 171.882911 
L 818.55 166.453261 
L 819.818182 157.689919 
L 821.086364 147.236011 
L 823.622727 130.356226 
L 824.890909 122.45973 
L 827.427273 115.990728 
L 828.695455 123.248949 
L 831.231818 139.102318 
L 832.5 136.096388 
L 833.768182 131.266199 
L 836.304545 100.81876 
L 836.304545 90.019838 
L 837.572727 89.549757 
L 837.572727 90.304474 
L 838.840909 89.709326 
L 838.840909 89.196119 
L 840.109091 86.582642 
L 841.377273 103.95407 
L 842.645455 133.974555 
L 843.913636 185.006361 
L 843.913636 236.163235 
L 845.181818 283.650027 
L 845.181818 299.563774 
L 845.181818 291.335202 
L 846.45 255.652183 
L 846.45 167.56593 
L 847.718182 145.066739 
L 847.718182 145.364313 
L 848.986364 171.84841 
L 850.254545 213.737358 
L 851.522727 271.04841 
L 851.522727 317.59504 
L 852.790909 350.543827 
L 852.790909 361.532507 
L 854.059091 364.180485 
L 854.059091 361.321186 
L 855.327273 359.488302 
L 855.327273 358.67752 
L 856.595455 360.726038 
L 856.595455 364.607439 
L 857.863636 366.177251 
L 857.863636 365.426846 
L 859.131818 366.474825 
L 859.131818 368.79504 
L 860.4 367.803127 
L 860.4 363.512022 
L 861.668182 360.497466 
L 862.936364 358.781024 
L 864.204545 358.574016 
L 865.472727 353.532507 
L 865.472727 346.407978 
L 866.740909 332.249488 
L 889.568182 323.167008 
L 890.836364 315.011752 
L 890.836364 317.590728 
L 892.104545 319.984259 
L 894.640909 331.192884 
L 895.909091 334.341132 
L 897.177273 333.802049 
L 898.445455 325.301779 
L 898.445455 321.752453 
L 899.713636 317.38372 
L 900.981818 317.185337 
L 902.25 317.784798 
L 903.518182 322.709865 
L 904.786364 326.647332 
L 904.786364 331.546523 
L 906.054545 332.581563 
L 906.054545 333.366469 
L 907.322727 335.755687 
L 908.590909 337.894771 
L 916.2 340.685067 
L 917.468182 343.880755 
L 917.468182 347.171321 
L 918.736364 349.819299 
L 920.004545 352.079137 
L 921.272727 353.29531 
L 921.272727 353.588571 
L 921.272727 353.200431 
L 922.540909 352.734663 
L 922.540909 352.14814 
L 923.809091 351.471051 
L 925.077273 350.608518 
L 927.613636 349.107709 
L 928.881818 346.925499 
L 930.15 343.95407 
L 931.418182 340.676442 
L 933.954545 332.715256 
L 933.954545 332.715256 
" clip-path="url(#p423a5d978f)" style="fill: none; stroke: #008000; stroke-width: 1.5; stroke-linecap: square"/>
   </g>
   <g id="patch_3">
    <path d="M 135 384.48 
L 135 51.84 
" style="fill: none; stroke: #000000; stroke-width: 0.8; stroke-linejoin: miter; stroke-linecap: square"/>
   </g>
   <g id="patch_4">
    <path d="M 972 384.48 
L 972 51.84 
" style="fill: none; stroke: #000000; stroke-width: 0.8; stroke-linejoin: miter; stroke-linecap: square"/>
   </g>
   <g id="patch_5">
    <path d="M 135 384.48 
L 972 384.48 
" style="fill: none; stroke: #000000; stroke-width: 0.8; stroke-linejoin: miter; stroke-linecap: square"/>
   </g>
   <g id="patch_6">
    <path d="M 135 51.84 
L 972 51.84 
" style="fill: none; stroke: #000000; stroke-width: 0.8; stroke-linejoin: miter; stroke-linecap: square"/>
   </g>
  </g>
  <g id="axes_2">
   <g id="matplotlib.axis_3">
    <g id="ytick_7">
     <g id="line2d_16">
      <path d="M 135 369.36 
L 972 369.36 
" clip-path="url(#p423a5d978f)" style="fill: none; stroke: #b0b0b0; stroke-width: 0.8; stroke-linecap: square"/>
     </g>
     <g id="line2d_17">
      <defs>
       <path id="mf14f125cb0" d="M 0 0 
L 3.5 0 
" style="stroke: #000000; stroke-width: 0.8"/>
      </defs>
      <g>
       <use xlink:href="#mf14f125cb0" x="972" y="369.36" style="stroke: #000000; stroke-width: 0.8"/>
      </g>
     </g>
     <g id="text_15">
      <!-- 0 -->
      <g transform="translate(979 372.934219) scale(0.1 -0.1)">
       <use xlink:href="#Times New Roman-30"/>
      </g>
     </g>
    </g>
    <g id="ytick_8">
     <g id="line2d_18">
      <path d="M 135 319.979635 
L 972 319.979635 
" clip-path="url(#p423a5d978f)" style="fill: none; stroke: #b0b0b0; stroke-width: 0.8; stroke-linecap: square"/>
     </g>
     <g id="line2d_19">
      <g>
       <use xlink:href="#mf14f125cb0" x="972" y="319.979635" style="stroke: #000000; stroke-width: 0.8"/>
      </g>
     </g>
     <g id="text_16">
      <!-- 5 -->
      <g transform="translate(979 323.553854) scale(0.1 -0.1)">
       <use xlink:href="#Times New Roman-35"/>
      </g>
     </g>
    </g>
    <g id="ytick_9">
     <g id="line2d_20">
      <path d="M 135 270.59927 
L 972 270.59927 
" clip-path="url(#p423a5d978f)" style="fill: none; stroke: #b0b0b0; stroke-width: 0.8; stroke-linecap: square"/>
     </g>
     <g id="line2d_21">
      <g>
       <use xlink:href="#mf14f125cb0" x="972" y="270.59927" style="stroke: #000000; stroke-width: 0.8"/>
      </g>
     </g>
     <g id="text_17">
      <!-- 10 -->
      <g transform="translate(979 274.173489) scale(0.1 -0.1)">
       <use xlink:href="#Times New Roman-31"/>
       <use xlink:href="#Times New Roman-30" x="50"/>
      </g>
     </g>
    </g>
    <g id="ytick_10">
     <g id="line2d_22">
      <path d="M 135 221.218906 
L 972 221.218906 
" clip-path="url(#p423a5d978f)" style="fill: none; stroke: #b0b0b0; stroke-width: 0.8; stroke-linecap: square"/>
     </g>
     <g id="line2d_23">
      <g>
       <use xlink:href="#mf14f125cb0" x="972" y="221.218906" style="stroke: #000000; stroke-width: 0.8"/>
      </g>
     </g>
     <g id="text_18">
      <!-- 15 -->
      <g transform="translate(979 224.793124) scale(0.1 -0.1)">
       <use xlink:href="#Times New Roman-31"/>
       <use xlink:href="#Times New Roman-35" x="50"/>
      </g>
     </g>
    </g>
    <g id="ytick_11">
     <g id="line2d_24">
      <path d="M 135 171.838541 
L 972 171.838541 
" clip-path="url(#p423a5d978f)" style="fill: none; stroke: #b0b0b0; stroke-width: 0.8; stroke-linecap: square"/>
     </g>
     <g id="line2d_25">
      <g>
       <use xlink:href="#mf14f125cb0" x="972" y="171.838541" style="stroke: #000000; stroke-width: 0.8"/>
      </g>
     </g>
     <g id="text_19">
      <!-- 20 -->
      <g transform="translate(979 175.41276) scale(0.1 -0.1)">
       <use xlink:href="#Times New Roman-32"/>
       <use xlink:href="#Times New Roman-30" x="50"/>
      </g>
     </g>
    </g>
    <g id="ytick_12">
     <g id="line2d_26">
      <path d="M 135 122.458176 
L 972 122.458176 
" clip-path="url(#p423a5d978f)" style="fill: none; stroke: #b0b0b0; stroke-width: 0.8; stroke-linecap: square"/>
     </g>
     <g id="line2d_27">
      <g>
       <use xlink:href="#mf14f125cb0" x="972" y="122.458176" style="stroke: #000000; stroke-width: 0.8"/>
      </g>
     </g>
     <g id="text_20">
      <!-- 25 -->
      <g transform="translate(979 126.032395) scale(0.1 -0.1)">
       <use xlink:href="#Times New Roman-32"/>
       <use xlink:href="#Times New Roman-35" x="50"/>
      </g>
     </g>
    </g>
    <g id="ytick_13">
     <g id="line2d_28">
      <path d="M 135 73.077811 
L 972 73.077811 
" clip-path="url(#p423a5d978f)" style="fill: none; stroke: #b0b0b0; stroke-width: 0.8; stroke-linecap: square"/>
     </g>
     <g id="line2d_29">
      <g>
       <use xlink:href="#mf14f125cb0" x="972" y="73.077811" style="stroke: #000000; stroke-width: 0.8"/>
      </g>
     </g>
     <g id="text_21">
      <!-- 30 -->
      <g transform="translate(979 76.65203) scale(0.1 -0.1)">
       <use xlink:href="#Times New Roman-33"/>
       <use xlink:href="#Times New Roman-30" x="50"/>
      </g>
     </g>
    </g>
    <g id="text_22">
     <!-- buffer (s) -->
     <g transform="translate(1000.617188 243.16) rotate(-90) scale(0.1 -0.1)">
      <defs>
       <path id="Times New Roman-75" d="M 1450 325
Q 1750 325 1962 475 
Q 2175 625 2275 950 
L 2275 2525 
Q 2275 2625 2225 2687 
Q 2175 2750 2050 2750 
L 1900 2750 
L 1900 2900 
L 2050 2900 
Q 2200 2900 2325 2925 
Q 2450 2950 2575 3050 
L 2625 3050 
L 2625 600 
Q 2625 500 2687 450 
Q 2750 400 2850 400 
L 3000 400 
L 3000 250 
L 2850 250 
Q 2725 250 2600 212 
Q 2475 175 2325 100 
L 2275 100 
L 2275 625 
Q 2150 350 1900 212 
Q 1650 75 1325 75 
Q 925 75 725 300 
Q 525 525 525 1025 
L 525 2525 
Q 525 2625 475 2687 
Q 425 2750 300 2750 
L 150 2750 
L 150 2900 
L 300 2900 
Q 450 2900 575 2925 
Q 700 2950 825 3050 
L 875 3050 
L 875 975 
Q 875 625 1025 475 
Q 1175 325 1450 325 
z
" transform="scale(0.015625)"/>
       <path id="Times New Roman-66" d="M 1125 3325
Q 1125 3850 1450 4112 
Q 1775 4375 2175 4375 
Q 2600 4375 2812 4225 
Q 3025 4075 3025 3875 
Q 3025 3775 2975 3700 
Q 2925 3625 2775 3625 
Q 2675 3625 2612 3675 
Q 2550 3725 2550 3850 
Q 2550 3875 2575 3925 
Q 2575 3975 2575 4000 
Q 2575 4100 2500 4162 
Q 2425 4225 2150 4225 
Q 1850 4225 1662 4037 
Q 1475 3850 1475 3400 
L 1475 2900 
L 2525 2900 
L 2525 2750 
L 1475 2750 
L 1475 450 
Q 1475 350 1537 300 
Q 1600 250 1700 250 
L 2300 250 
L 2300 100 
L 475 100 
L 475 250 
L 900 250 
Q 1025 250 1075 300 
Q 1125 350 1125 450 
L 1125 2750 
L 350 2750 
L 350 2900 
L 1125 2900 
L 1125 3325 
z
" transform="scale(0.015625)"/>
      </defs>
      <use xlink:href="#Times New Roman-62"/>
      <use xlink:href="#Times New Roman-75" x="50"/>
      <use xlink:href="#Times New Roman-66" x="100"/>
      <use xlink:href="#Times New Roman-66" x="150"/>
      <use xlink:href="#Times New Roman-65" x="200"/>
      <use xlink:href="#Times New Roman-72" x="250"/>
      <use xlink:href="#Times New Roman-20" x="300"/>
      <use xlink:href="#Times New Roman-28" x="350"/>
      <use xlink:href="#Times New Roman-73" x="400"/>
      <use xlink:href="#Times New Roman-29" x="450"/>
     </g>
    </g>
   </g>
   <g id="line2d_30">
    <path d="M 173.045455 369.36 
L 174.313636 332.076535 
L 175.581818 299.923204 
L 176.85 248.48532 
L 178.118182 215.151621 
L 180.654545 168.834241 
L 181.922727 154.187543 
L 183.190909 148.043868 
L 183.190909 149.617368 
L 185.727273 146.736849 
L 188.263636 149.685953 
L 189.531818 152.292138 
L 189.531818 160.339307 
L 190.8 160.727949 
L 192.068182 160.865118 
L 193.336364 163.0598 
L 194.604545 165.803154 
L 195.872727 169.095178 
L 198.409091 169.895322 
L 199.677273 171.084108 
L 200.945455 175.349574 
L 202.213636 175.966828 
L 203.481818 177.269922 
L 204.75 177.668155 
L 206.018182 168.559775 
L 207.286364 168.929234 
L 209.822727 167.420391 
L 211.090909 173.373915 
L 212.359091 165.665985 
L 214.895455 143.305392 
L 216.163636 139.601865 
L 217.431818 131.714724 
L 218.7 122.663918 
L 221.236364 121.013389 
L 221.236364 119.842878 
L 222.504545 117.672585 
L 223.772727 105.671479 
L 225.040909 104.030051 
L 227.577273 97.279791 
L 228.845455 95.016342 
L 228.845455 88.636828 
L 230.113636 81.09726 
L 231.381818 78.612824 
L 232.65 74.149189 
L 232.65 74.47913 
L 233.918182 71.343327 
L 236.454545 72.037177 
L 237.722727 73.081129 
L 238.990909 76.257714 
L 240.259091 76.574397 
L 241.527273 75.406255 
L 242.795455 74.698689 
L 246.6 75.272487 
L 247.868182 74.518065 
L 249.136364 75.958324 
L 250.404545 77.672919 
L 251.672727 77.537461 
L 252.940909 75.685698 
L 252.940909 103.839799 
L 254.209091 106.17168 
L 254.209091 132.440159 
L 255.477273 124.828224 
L 255.477273 115.202154 
L 256.745455 101.749266 
L 256.745455 118.622632 
L 258.013636 101.707563 
L 258.013636 107.548516 
L 259.281818 99.936581 
L 260.55 106.623132 
L 261.818182 95.205229 
L 266.890909 131.044533 
L 269.427273 198.421629 
L 270.695455 182.702213 
L 270.695455 189.870204 
L 271.963636 179.390593 
L 271.963636 194.54958 
L 273.231818 189.572353 
L 274.5 204.993917 
L 278.304545 182.596393 
L 284.645455 242.362315 
L 285.913636 259.214346 
L 285.913636 310.230172 
L 287.181818 263.730325 
L 287.181818 265.302477 
L 288.45 293.537916 
L 288.45 290.657394 
L 289.718182 259.330407 
L 289.718182 260.551727 
L 289.718182 284.461108 
L 290.986364 308.982469 
L 290.986364 299.89511 
L 292.254545 295.358026 
L 292.254545 282.941714 
L 293.522727 264.766997 
L 293.522727 262.498455 
L 294.790909 268.10914 
L 296.059091 280.538641 
L 297.327273 273.733014 
L 298.595455 264.658844 
L 298.595455 260.12176 
L 299.863636 253.530475 
L 315.081818 292.211764 
L 316.35 328.624511 
L 318.886364 369.36 
L 318.886364 347.620206 
L 322.690909 347.620206 
L 323.959091 354.741575 
L 325.227273 333.686332 
L 326.495455 306.527128 
L 327.763636 290.557156 
L 327.763636 277.867754 
L 329.031818 282.528671 
L 329.031818 278.688841 
L 330.3 274.1637 
L 334.104545 262.372637 
L 334.104545 255.377508 
L 335.372727 253.114274 
L 337.909091 242.412621 
L 337.909091 239.616523 
L 339.177273 233.371688 
L 339.177273 234.606198 
L 341.713636 230.889217 
L 341.713636 222.748216 
L 342.981818 219.824179 
L 344.25 222.117107 
L 345.518182 230.566699 
L 350.590909 238.291604 
L 351.859091 237.507519 
L 351.859091 222.177983 
L 353.127273 212.238012 
L 355.663636 204.572506 
L 356.931818 204.093504 
L 358.2 191.060231 
L 358.2 172.67182 
L 359.468182 161.530035 
L 362.004545 149.660518 
L 363.272727 139.502168 
L 364.540909 122.113075 
L 364.540909 116.730328 
L 365.809091 110.279244 
L 365.809091 99.305834 
L 367.077273 82.126671 
L 368.345455 80.347694 
L 372.15 92.14411 
L 373.418182 100.236999 
L 374.686364 98.312182 
L 375.954545 87.064434 
L 377.222727 78.971545 
L 378.490909 73.62648 
L 379.759091 73.077811 
L 389.904545 73.077811 
L 389.904545 78.22689 
L 391.172727 78.22689 
L 391.172727 80.150219 
L 392.440909 75.00114 
L 392.440909 73.69872 
L 393.709091 71.775391 
L 393.709091 71.775391 
L 394.977273 73.077811 
L 394.977273 73.077811 
L 430.486364 73.077811 
L 468.531818 77.639362 
L 471.068182 85.630102 
L 472.336364 84.497741 
L 477.409091 88.688472 
L 477.409091 100.214356 
L 478.677273 96.91473 
L 478.677273 95.05965 
L 479.945455 92.248199 
L 481.213636 92.112001 
L 485.018182 94.191892 
L 486.286364 98.683407 
L 486.286364 104.077698 
L 487.554545 103.15899 
L 491.359091 102.884652 
L 491.359091 101.101472 
L 492.627273 102.203072 
L 492.627273 101.197177 
L 493.895455 99.173483 
L 496.431818 93.458162 
L 497.7 93.229548 
L 497.7 93.515784 
L 498.968182 95.801912 
L 502.772727 94.018734 
L 504.040909 91.04677 
L 504.040909 88.577751 
L 505.309091 81.5822 
L 506.577273 78.884568 
L 507.845455 76.552718 
L 507.845455 77.467169 
L 509.113636 75.638268 
L 511.65 74.44948 
L 512.918182 73.672195 
L 512.918182 74.998148 
L 514.186364 73.443579 
L 517.990909 75.409651 
L 517.990909 77.192832 
L 519.259091 74.586647 
L 521.795455 76.049768 
L 523.063636 75.775434 
L 523.063636 78.153007 
L 524.331818 73.535027 
L 525.6 79.570404 
L 526.868182 82.405202 
L 528.136364 86.657402 
L 529.404545 91.561146 
L 530.672727 96.019095 
L 531.940909 100.031249 
L 531.940909 92.521317 
L 533.209091 86.554525 
L 534.477273 99.722622 
L 535.745455 111.724795 
L 537.013636 121.017904 
L 538.281818 110.010198 
L 539.55 113.78231 
L 540.818182 119.30331 
L 542.086364 126.573197 
L 543.354545 120.812154 
L 545.890909 119.623368 
L 547.159091 123.692675 
L 548.427273 133.020076 
L 552.231818 138.049558 
L 553.5 133.258068 
L 553.5 125.988183 
L 554.768182 114.799081 
L 556.036364 112.915079 
L 557.304545 110.171726 
L 558.572727 110.661748 
L 559.840909 107.781227 
L 561.109091 107.232555 
L 562.377273 109.564406 
L 563.645455 109.221486 
L 564.913636 107.986977 
L 567.45 106.889633 
L 567.45 106.958216 
L 568.718182 103.80336 
L 571.254545 100.92452 
L 571.254545 103.667871 
L 572.522727 102.431683 
L 573.790909 101.883011 
L 576.327273 109.564401 
L 576.327273 115.600354 
L 577.595455 120.541749 
L 577.595455 118.484233 
L 577.595455 146.904803 
L 578.863636 148.547457 
L 578.863636 173.292509 
L 580.131818 141.853674 
L 580.131818 166.077488 
L 581.4 160.919983 
L 582.668182 186.29527 
L 582.668182 181.137765 
L 583.936364 172.933666 
L 583.936364 166.10345 
L 585.204545 150.601294 
L 585.204545 151.069136 
L 586.472727 145.91163 
L 587.740909 151.098776 
L 589.009091 143.362518 
L 600.422727 163.512451 
L 601.690909 187.955734 
L 604.227273 213.74326 
L 604.227273 206.336205 
L 605.495455 203.872987 
L 608.031818 201.678303 
L 609.3 205.861918 
L 609.3 197.423291 
L 610.568182 188.101434 
L 613.104545 175.552701 
L 613.104545 169.445753 
L 614.372727 163.834984 
L 615.640909 162.187892 
L 616.909091 160.82219 
L 618.177273 157.925128 
L 619.445455 159.094244 
L 621.981818 157.575515 
L 621.981818 167.555734 
L 623.25 166.863718 
L 623.25 159.708344 
L 624.518182 151.754573 
L 624.518182 157.568744 
L 625.786364 150.931567 
L 627.054545 152.989082 
L 628.322727 162.043887 
L 629.590909 172.277466 
L 630.859091 183.689818 
L 633.395455 170.850924 
L 638.468182 178.777767 
L 639.736364 186.098176 
L 639.736364 196.931525 
L 641.004545 194.18962 
L 642.272727 198.263274 
L 644.809091 200.780912 
L 646.077273 206.587676 
L 647.345455 212.924209 
L 647.345455 220.468431 
L 648.613636 218.273749 
L 648.613636 213.400338 
L 651.15 209.010974 
L 657.490909 218.757795 
L 657.490909 223.650006 
L 658.759091 230.645558 
L 658.759091 229.452762 
L 660.027273 227.720746 
L 662.563636 226.691987 
L 663.831818 224.996344 
L 665.1 225.811956 
L 666.368182 224.64192 
L 667.636364 223.04163 
L 668.904545 224.415362 
L 668.904545 224.785254 
L 670.172727 225.151034 
L 673.977273 224.053694 
L 673.977273 221.013144 
L 675.245455 218.818463 
L 677.781818 213.263171 
L 677.781818 213.743257 
L 679.05 210.999901 
L 681.586364 210.10831 
L 681.586364 201.981126 
L 682.854545 198.414768 
L 685.390909 196.494421 
L 685.390909 190.150416 
L 686.659091 187.814254 
L 689.195455 180.887287 
L 690.463636 173.034437 
L 690.463636 163.848514 
L 691.731818 153.224353 
L 694.268182 152.229888 
L 695.536364 143.176821 
L 695.536364 135.992045 
L 696.804545 131.328342 
L 696.804545 131.922736 
L 701.877273 126.48175 
L 701.877273 121.360822 
L 703.145455 119.083012 
L 703.145455 119.58596 
L 704.413636 118.808677 
L 705.681818 118.891807 
L 708.218182 116.285622 
L 709.486364 117.200073 
L 709.486364 118.068801 
L 710.754545 119.074698 
L 714.559091 120.446373 
L 715.827273 119.71481 
L 715.827273 118.362046 
L 717.095455 113.561178 
L 717.095455 114.805144 
L 718.363636 111.266602 
L 720.9 113.255533 
L 722.168182 110.365555 
L 722.168182 113.940364 
L 723.436364 111.650289 
L 724.704545 110.44415 
L 727.240909 113.617604 
L 728.509091 135.608387 
L 728.509091 141.066725 
L 729.777273 140.30711 
L 729.777273 137.855238 
L 731.045455 135.523388 
L 731.045455 150.827009 
L 731.045455 148.375137 
L 732.313636 160.925978 
L 732.313636 153.553696 
L 733.581818 140.481716 
L 733.581818 138.029843 
L 734.85 136.373925 
L 736.118182 139.638417 
L 737.386364 132.282801 
L 746.263636 147.495167 
L 747.531818 166.347522 
L 750.068182 185.962499 
L 750.068182 184.634155 
L 751.336364 182.396237 
L 752.604545 180.612485 
L 753.872727 180.752712 
L 755.140909 182.874606 
L 755.140909 228.450286 
L 756.409091 225.22264 
L 756.409091 215.518027 
L 757.677273 220.97885 
L 757.677273 230.374838 
L 758.945455 204.587313 
L 758.945455 217.652536 
L 760.213636 211.617158 
L 761.481818 225.333928 
L 764.018182 207.227795 
L 771.627273 220.807394 
L 772.895455 237.130345 
L 774.163636 256.196651 
L 777.968182 260.723185 
L 777.968182 263.512262 
L 779.236364 264.26763 
L 779.236364 263.261733 
L 780.504545 257.454969 
L 783.040909 253.476161 
L 784.309091 250.229858 
L 785.577273 243.782976 
L 786.845455 249.063931 
L 786.845455 244.674566 
L 788.113636 248.378095 
L 791.918182 239.050694 
L 793.186364 234.249827 
L 794.454545 226.782542 
L 794.454545 224.222078 
L 795.722727 216.129182 
L 795.722727 220.533055 
L 796.990909 211.427642 
L 798.259091 218.797065 
L 799.527273 215.39478 
L 799.527273 224.423725 
L 800.795455 218.700314 
L 800.795455 220.444959 
L 802.063636 219.843076 
L 803.331818 223.847545 
L 804.6 222.944722 
L 809.672727 225.69819 
L 809.672727 231.471069 
L 810.940909 236.352659 
L 810.940909 235.735777 
L 812.209091 231.783544 
L 813.477273 228.40666 
L 818.55 232.934242 
L 818.55 236.297444 
L 819.818182 240.005112 
L 821.086364 236.851277 
L 822.354545 235.33872 
L 823.622727 206.60209 
L 824.890909 206.193401 
L 827.427273 206.473368 
L 828.695455 229.586122 
L 829.963636 224.373751 
L 831.231818 214.178457 
L 832.5 206.497068 
L 833.768182 195.593742 
L 835.036364 183.634815 
L 836.304545 164.77426 
L 836.304545 140.029537 
L 837.572727 124.053449 
L 837.572727 127.653034 
L 838.840909 123.385288 
L 838.840909 147.712567 
L 840.109091 120.177221 
L 841.377273 110.335439 
L 842.645455 68.722726 
L 843.913636 68.551266 
L 843.913636 69.656428 
L 845.181818 69.980697 
L 845.181818 69.389914 
L 846.45 70.780245 
L 846.45 69.809242 
L 847.718182 66.96 
L 847.718182 68.160221 
L 848.986364 70.22857 
L 850.254545 73.077811 
L 854.059091 73.077811 
L 854.059091 73.077811 
L 855.327273 71.772584 
L 855.327273 71.772584 
L 856.595455 72.476861 
L 856.595455 73.782087 
L 857.863636 73.680072 
L 857.863636 72.975795 
L 859.131818 72.067488 
L 859.131818 72.169503 
L 860.4 70.454904 
L 860.4 71.363211 
L 861.668182 71.363211 
L 862.936364 73.077811 
L 866.740909 73.077811 
L 889.568182 74.861563 
L 890.836364 76.372131 
L 890.836364 78.019291 
L 892.104545 75.41253 
L 894.640909 74.793547 
L 895.909091 73.420718 
L 897.177273 78.564506 
L 898.445455 79.593264 
L 898.445455 81.282597 
L 899.713636 78.69807 
L 900.981818 78.286567 
L 902.25 83.767597 
L 903.518182 88.425316 
L 904.786364 92.259722 
L 904.786364 95.704181 
L 906.054545 93.652955 
L 906.054545 87.383569 
L 907.322727 83.904155 
L 908.590909 82.80321 
L 916.2 92.91329 
L 917.468182 100.027647 
L 917.468182 109.907325 
L 918.736364 105.51796 
L 920.004545 113.213067 
L 921.272727 109.637731 
L 921.272727 111.180181 
L 921.272727 108.244793 
L 922.540909 106.470589 
L 922.540909 107.095388 
L 923.809091 101.224612 
L 925.077273 100.813109 
L 927.613636 112.450259 
L 930.15 135.329045 
L 931.418182 126.127367 
L 933.954545 142.526544 
L 933.954545 142.526544 
" clip-path="url(#p423a5d978f)" style="fill: none; stroke: #1f77b4; stroke-width: 1.5; stroke-linecap: square"/>
   </g>
   <g id="patch_7">
    <path d="M 135 384.48 
L 135 51.84 
" style="fill: none; stroke: #000000; stroke-width: 0.8; stroke-linejoin: miter; stroke-linecap: square"/>
   </g>
   <g id="patch_8">
    <path d="M 972 384.48 
L 972 51.84 
" style="fill: none; stroke: #000000; stroke-width: 0.8; stroke-linejoin: miter; stroke-linecap: square"/>
   </g>
   <g id="patch_9">
    <path d="M 135 384.48 
L 972 384.48 
" style="fill: none; stroke: #000000; stroke-width: 0.8; stroke-linejoin: miter; stroke-linecap: square"/>
   </g>
   <g id="patch_10">
    <path d="M 135 51.84 
L 972 51.84 
" style="fill: none; stroke: #000000; stroke-width: 0.8; stroke-linejoin: miter; stroke-linecap: square"/>
   </g>
   <g id="text_23">
    <!-- ./pensieve/log_RL_5_wave -->
    <g transform="translate(481.5 45.84) scale(0.12 -0.12)">
     <defs>
      <path id="Times New Roman-2e" d="M 800 25
Q 650 25 537 125 
Q 425 225 425 400 
Q 425 575 537 675 
Q 650 775 800 775 
Q 950 775 1062 662 
Q 1175 550 1175 400 
Q 1175 225 1062 125 
Q 950 25 800 25 
z
" transform="scale(0.015625)"/>
      <path id="Times New Roman-2f" d="M 400 -475
L 225 -375 
L 2775 4975 
L 2950 4875 
L 400 -475 
z
" transform="scale(0.015625)"/>
      <path id="Times New Roman-6e" d="M 200 100
L 200 250 
L 325 250 
Q 450 250 500 300 
Q 550 350 550 450 
L 550 2600 
Q 550 2675 525 2712 
Q 500 2750 425 2750 
L 225 2750 
L 225 2900 
L 400 2900 
Q 525 2900 637 2925 
Q 750 2950 850 3025 
L 900 3025 
L 900 2450 
Q 1125 2700 1350 2825 
Q 1575 2950 1825 2950 
Q 2250 2950 2450 2725 
Q 2650 2500 2650 2050 
L 2650 450 
Q 2650 350 2712 300 
Q 2775 250 2875 250 
L 3000 250 
L 3000 100 
L 1950 100 
L 1950 250 
L 2075 250 
Q 2200 250 2250 300 
Q 2300 350 2300 450 
L 2300 2125 
Q 2300 2425 2175 2587 
Q 2050 2750 1800 2750 
Q 1575 2750 1337 2600 
Q 1100 2450 900 2175 
L 900 450 
Q 900 350 962 300 
Q 1025 250 1125 250 
L 1250 250 
L 1250 100 
L 200 100 
z
" transform="scale(0.015625)"/>
      <path id="Times New Roman-76" d="M 1625 75
L 1475 75 
L 625 2525 
Q 600 2625 525 2687 
Q 450 2750 350 2750 
L 225 2750 
L 225 2900 
L 1300 2900 
L 1300 2750 
L 1200 2750 
Q 1050 2750 1025 2700 
Q 1000 2650 1000 2600 
Q 1000 2500 1025 2425 
L 1625 675 
L 1675 675 
L 2275 2400 
Q 2325 2525 2325 2575 
Q 2325 2600 2275 2675 
Q 2225 2750 2075 2750 
L 2025 2750 
L 2025 2900 
L 2925 2900 
L 2925 2750 
L 2875 2750 
Q 2725 2750 2637 2662 
Q 2550 2575 2475 2400 
L 1625 75 
z
M 2600 2750 
L 2600 2750 
z
M 2400 2750 
L 2400 2750 
z
M 925 2750 
L 925 2750 
z
M 550 2750 
L 550 2750 
z
" transform="scale(0.015625)"/>
      <path id="Times New Roman-6c" d="M 925 4375
Q 1150 4375 1350 4425 
Q 1550 4475 1725 4575 
L 1775 4575 
L 1775 450 
Q 1775 350 1837 300 
Q 1900 250 2000 250 
L 2575 250 
L 2575 100 
L 625 100 
L 625 250 
L 1200 250 
Q 1325 250 1375 300 
Q 1425 350 1425 450 
L 1425 4025 
Q 1425 4125 1375 4175 
Q 1325 4225 1200 4225 
L 650 4225 
L 650 4375 
L 925 4375 
z
" transform="scale(0.015625)"/>
      <path id="Times New Roman-6f" d="M 2900 1500
Q 2900 875 2525 462 
Q 2150 50 1600 50 
Q 1025 50 662 475 
Q 300 900 300 1500 
Q 300 2050 662 2500 
Q 1025 2950 1600 2950 
Q 2200 2950 2550 2500 
Q 2900 2050 2900 1500 
z
M 700 1475 
Q 700 825 962 512 
Q 1225 200 1600 200 
Q 2025 200 2262 537 
Q 2500 875 2500 1475 
Q 2500 2125 2237 2462 
Q 1975 2800 1600 2800 
Q 1250 2800 975 2462 
Q 700 2125 700 1475 
z
" transform="scale(0.015625)"/>
      <path id="Times New Roman-67" d="M 875 1975
Q 875 1675 1050 1462 
Q 1225 1250 1525 1250 
Q 1850 1250 2012 1437 
Q 2175 1625 2175 1975 
Q 2175 2400 1987 2587 
Q 1800 2775 1525 2775 
Q 1250 2775 1062 2587 
Q 875 2400 875 1975 
z
M 2100 625 
Q 2475 575 2650 412 
Q 2825 250 2825 -25 
Q 2825 -400 2512 -625 
Q 2200 -850 1525 -850 
Q 1000 -850 675 -637 
Q 350 -425 350 -150 
Q 350 25 475 200 
Q 600 375 875 475 
Q 725 550 637 637 
Q 550 725 550 850 
Q 550 1000 650 1112 
Q 750 1225 900 1300 
Q 750 1425 637 1600 
Q 525 1775 525 1975 
Q 525 2350 787 2637 
Q 1050 2925 1525 2925 
Q 1725 2925 1912 2875 
Q 2100 2825 2225 2700 
Q 2400 2825 2537 2887 
Q 2675 2950 2775 2950 
Q 2900 2950 2950 2862 
Q 3000 2775 3000 2700 
Q 3000 2600 2962 2537 
Q 2925 2475 2825 2475 
Q 2750 2475 2700 2512 
Q 2650 2550 2625 2625 
Q 2600 2700 2512 2687 
Q 2425 2675 2325 2600 
Q 2425 2500 2475 2325 
Q 2525 2150 2525 1975 
Q 2525 1675 2287 1387 
Q 2050 1100 1525 1100 
Q 1375 1100 1250 1137 
Q 1125 1175 1050 1225 
Q 950 1175 900 1100 
Q 850 1025 850 975 
Q 850 875 900 825 
Q 950 775 1050 775 
Q 1375 725 1637 687 
Q 1900 650 2100 625 
z
M 1075 425 
Q 850 325 762 187 
Q 675 50 675 -150 
Q 675 -350 900 -525 
Q 1125 -700 1575 -700 
Q 2000 -700 2250 -562 
Q 2500 -425 2500 -150 
Q 2500 25 2437 125 
Q 2375 225 2250 250 
Q 2000 300 1700 350 
Q 1400 375 1075 425 
z
" transform="scale(0.015625)"/>
      <path id="Times New Roman-5f" d="M 0 -875
L 0 -725 
L 3175 -725 
L 3175 -875 
L 0 -875 
z
" transform="scale(0.015625)"/>
      <path id="Times New Roman-52" d="M 2825 3375
Q 2825 2875 2550 2600 
Q 2275 2325 1925 2275 
L 2675 425 
Q 2725 325 2787 287 
Q 2850 250 2925 250 
L 3075 250 
L 3075 100 
L 2375 100 
L 1550 2250 
L 975 2250 
L 975 450 
Q 975 350 1037 300 
Q 1100 250 1200 250 
L 1350 250 
L 1350 100 
L 200 100 
L 200 250 
L 350 250 
Q 475 250 525 300 
Q 575 350 575 450 
L 575 4025 
Q 575 4125 525 4175 
Q 475 4225 350 4225 
L 200 4225 
L 200 4375 
L 1625 4375 
Q 2200 4375 2512 4125 
Q 2825 3875 2825 3375 
z
M 2750 250 
L 2750 250 
z
M 975 2400 
L 1525 2400 
Q 1900 2400 2150 2625 
Q 2400 2850 2400 3325 
Q 2400 3750 2175 3987 
Q 1950 4225 1475 4225 
L 1200 4225 
Q 1100 4225 1037 4175 
Q 975 4125 975 4025 
L 975 2400 
z
" transform="scale(0.015625)"/>
      <path id="Times New Roman-4c" d="M 1000 450
Q 1000 350 1062 300 
Q 1125 250 1225 250 
L 1900 250 
Q 2250 250 2500 462 
Q 2750 675 2875 1125 
L 3000 1075 
L 2775 100 
L 200 100 
L 200 250 
L 375 250 
Q 500 250 550 300 
Q 600 350 600 450 
L 600 4025 
Q 600 4125 550 4175 
Q 500 4225 375 4225 
L 225 4225 
L 225 4375 
L 1400 4375 
L 1400 4225 
L 1225 4225 
Q 1125 4225 1062 4175 
Q 1000 4125 1000 4025 
L 1000 450 
z
" transform="scale(0.015625)"/>
      <path id="Times New Roman-77" d="M 2325 2900
L 3175 2900 
L 3175 2750 
L 3075 2750 
Q 2975 2750 2900 2675 
Q 2825 2600 2775 2425 
L 2175 75 
L 2025 75 
L 1575 1975 
L 1100 75 
L 950 75 
L 375 2375 
Q 350 2550 275 2650 
Q 200 2750 125 2750 
L 25 2750 
L 25 2900 
L 925 2900 
L 925 2750 
L 825 2750 
Q 725 2750 700 2662 
Q 675 2575 700 2425 
L 1075 800 
L 1125 800 
L 1500 2300 
Q 1475 2525 1400 2637 
Q 1325 2750 1225 2750 
L 1150 2750 
L 1150 2900 
L 2000 2900 
L 2000 2750 
L 1925 2750 
Q 1825 2750 1800 2662 
Q 1775 2575 1800 2425 
L 2175 800 
L 2200 800 
L 2625 2550 
Q 2650 2650 2600 2700 
Q 2550 2750 2450 2750 
L 2325 2750 
L 2325 2900 
z
M 1725 2750 
L 1725 2750 
z
M 625 2750 
L 625 2750 
z
M 275 2750 
L 275 2750 
z
M 2875 2750 
L 2875 2750 
z
M 2675 2750 
L 2675 2750 
z
" transform="scale(0.015625)"/>
     </defs>
     <use xlink:href="#Times New Roman-2e"/>
     <use xlink:href="#Times New Roman-2f" x="50"/>
     <use xlink:href="#Times New Roman-70" x="100"/>
     <use xlink:href="#Times New Roman-65" x="150"/>
     <use xlink:href="#Times New Roman-6e" x="200"/>
     <use xlink:href="#Times New Roman-73" x="250"/>
     <use xlink:href="#Times New Roman-69" x="300"/>
     <use xlink:href="#Times New Roman-65" x="350"/>
     <use xlink:href="#Times New Roman-76" x="400"/>
     <use xlink:href="#Times New Roman-65" x="450"/>
     <use xlink:href="#Times New Roman-2f" x="500"/>
     <use xlink:href="#Times New Roman-6c" x="550"/>
     <use xlink:href="#Times New Roman-6f" x="600"/>
     <use xlink:href="#Times New Roman-67" x="650"/>
     <use xlink:href="#Times New Roman-5f" x="700"/>
     <use xlink:href="#Times New Roman-52" x="750"/>
     <use xlink:href="#Times New Roman-4c" x="800"/>
     <use xlink:href="#Times New Roman-5f" x="850"/>
     <use xlink:href="#Times New Roman-35" x="900"/>
     <use xlink:href="#Times New Roman-5f" x="950"/>
     <use xlink:href="#Times New Roman-77" x="1000"/>
     <use xlink:href="#Times New Roman-61" x="1050"/>
     <use xlink:href="#Times New Roman-76" x="1100"/>
     <use xlink:href="#Times New Roman-65" x="1150"/>
    </g>
   </g>
   <g id="legend_1">
    <g id="patch_11">
     <path d="M 903 73.2775 
L 965 73.2775 
Q 967 73.2775 967 71.2775 
L 967 58.84 
Q 967 56.84 965 56.84 
L 903 56.84 
Q 901 56.84 901 58.84 
L 901 71.2775 
Q 901 73.2775 903 73.2775 
z
" style="fill: #ffffff; opacity: 0.8; stroke: #cccccc; stroke-linejoin: miter"/>
    </g>
    <g id="line2d_31">
     <path d="M 905 64.488437 
L 915 64.488437 
L 925 64.488437 
" style="fill: none; stroke: #1f77b4; stroke-width: 1.5; stroke-linecap: square"/>
    </g>
    <g id="text_24">
     <!-- buffer -->
     <g transform="translate(933 67.988437) scale(0.1 -0.1)">
      <use xlink:href="#Times New Roman-62"/>
      <use xlink:href="#Times New Roman-75" x="50"/>
      <use xlink:href="#Times New Roman-66" x="100"/>
      <use xlink:href="#Times New Roman-66" x="150"/>
      <use xlink:href="#Times New Roman-65" x="200"/>
      <use xlink:href="#Times New Roman-72" x="250"/>
     </g>
    </g>
   </g>
  </g>
 </g>
 <defs>
  <clipPath id="p423a5d978f">
   <rect x="135" y="51.84" width="837" height="332.64"/>
  </clipPath>
 </defs>
</svg>
