<?xml version="1.0" encoding="utf-8" standalone="no"?>
<!DOCTYPE svg PUBLIC "-//W3C//DTD SVG 1.1//EN"
  "http://www.w3.org/Graphics/SVG/1.1/DTD/svg11.dtd">
<svg xmlns:xlink="http://www.w3.org/1999/xlink" width="1080pt" height="432pt" viewBox="0 0 1080 432" xmlns="http://www.w3.org/2000/svg" version="1.1">
 <metadata>
  <rdf:RDF xmlns:dc="http://purl.org/dc/elements/1.1/" xmlns:cc="http://creativecommons.org/ns#" xmlns:rdf="http://www.w3.org/1999/02/22-rdf-syntax-ns#">
   <cc:Work>
    <dc:type rdf:resource="http://purl.org/dc/dcmitype/StillImage"/>
    <dc:date>2024-04-12T06:17:44.381186</dc:date>
    <dc:format>image/svg+xml</dc:format>
    <dc:creator>
     <cc:Agent>
      <dc:title>Matplotlib v3.8.3, https://matplotlib.org/</dc:title>
     </cc:Agent>
    </dc:creator>
   </cc:Work>
  </rdf:RDF>
 </metadata>
 <defs>
  <style type="text/css">*{stroke-linejoin: round; stroke-linecap: butt}</style>
 </defs>
 <g id="figure_1">
  <g id="patch_1">
   <path d="M 0 432 
L 1080 432 
L 1080 0 
L 0 0 
z
" style="fill: #ffffff"/>
  </g>
  <g id="axes_1">
   <g id="patch_2">
    <path d="M 135 384.48 
L 972 384.48 
L 972 51.84 
L 135 51.84 
z
" style="fill: #ffffff"/>
   </g>
   <g id="matplotlib.axis_1">
    <g id="xtick_1">
     <g id="line2d_1">
      <defs>
       <path id="m870b4192c2" d="M 0 0 
L 0 3.5 
" style="stroke: #000000; stroke-width: 0.8"/>
      </defs>
      <g>
       <use xlink:href="#m870b4192c2" x="173.045455" y="384.48" style="stroke: #000000; stroke-width: 0.8"/>
      </g>
     </g>
     <g id="text_1">
      <!-- 0 -->
      <g transform="translate(170.545455 398.628438) scale(0.1 -0.1)">
       <defs>
        <path id="Times New Roman-30" d="M 1600 4225
Q 1250 4225 1012 3687 
Q 775 3150 775 2250 
Q 775 1300 1012 775 
Q 1250 250 1600 250 
Q 1975 250 2187 775 
Q 2400 1300 2400 2250 
Q 2400 3150 2200 3687 
Q 2000 4225 1600 4225 
z
M 1600 50 
Q 1050 50 675 625 
Q 300 1200 300 2250 
Q 300 3225 662 3825 
Q 1025 4425 1600 4425 
Q 2150 4425 2512 3850 
Q 2875 3275 2875 2250 
Q 2875 1225 2512 637 
Q 2150 50 1600 50 
z
" transform="scale(0.015625)"/>
       </defs>
       <use xlink:href="#Times New Roman-30"/>
      </g>
     </g>
    </g>
    <g id="xtick_2">
     <g id="line2d_2">
      <g>
       <use xlink:href="#m870b4192c2" x="299.863636" y="384.48" style="stroke: #000000; stroke-width: 0.8"/>
      </g>
     </g>
     <g id="text_2">
      <!-- 100 -->
      <g transform="translate(292.363636 398.628438) scale(0.1 -0.1)">
       <defs>
        <path id="Times New Roman-31" d="M 1825 4450
L 1825 650 
Q 1825 450 1950 350 
Q 2075 250 2300 250 
L 2550 250 
L 2550 100 
L 725 100 
L 725 250 
L 950 250 
Q 1200 250 1312 350 
Q 1425 450 1425 650 
L 1425 3675 
Q 1425 3775 1362 3837 
Q 1300 3900 1175 3900 
L 725 3900 
L 725 4050 
L 950 4050 
Q 1250 4050 1437 4150 
Q 1625 4250 1725 4450 
L 1825 4450 
z
" transform="scale(0.015625)"/>
       </defs>
       <use xlink:href="#Times New Roman-31"/>
       <use xlink:href="#Times New Roman-30" x="50"/>
       <use xlink:href="#Times New Roman-30" x="100"/>
      </g>
     </g>
    </g>
    <g id="xtick_3">
     <g id="line2d_3">
      <g>
       <use xlink:href="#m870b4192c2" x="426.681818" y="384.48" style="stroke: #000000; stroke-width: 0.8"/>
      </g>
     </g>
     <g id="text_3">
      <!-- 200 -->
      <g transform="translate(419.181818 398.628438) scale(0.1 -0.1)">
       <defs>
        <path id="Times New Roman-32" d="M 2325 3325
Q 2325 3775 2125 4012 
Q 1925 4250 1525 4250 
Q 1225 4250 1012 4087 
Q 800 3925 800 3675 
Q 800 3525 900 3425 
Q 975 3325 975 3225 
Q 975 3100 912 3037 
Q 850 2975 725 2975 
Q 575 2975 487 3062 
Q 400 3150 400 3350 
Q 400 3875 775 4150 
Q 1150 4425 1575 4425 
Q 2175 4425 2462 4125 
Q 2750 3825 2750 3375 
Q 2750 3075 2612 2775 
Q 2475 2475 2175 2200 
Q 1450 1500 1062 1062 
Q 675 625 600 475 
L 2075 475 
Q 2300 475 2450 650 
Q 2600 825 2650 1175 
L 2800 1175 
L 2650 100 
L 325 100 
L 325 425 
Q 450 650 737 1000 
Q 1025 1350 1500 1825 
Q 1925 2250 2125 2625 
Q 2325 3000 2325 3325 
z
" transform="scale(0.015625)"/>
       </defs>
       <use xlink:href="#Times New Roman-32"/>
       <use xlink:href="#Times New Roman-30" x="50"/>
       <use xlink:href="#Times New Roman-30" x="100"/>
      </g>
     </g>
    </g>
    <g id="xtick_4">
     <g id="line2d_4">
      <g>
       <use xlink:href="#m870b4192c2" x="553.5" y="384.48" style="stroke: #000000; stroke-width: 0.8"/>
      </g>
     </g>
     <g id="text_4">
      <!-- 300 -->
      <g transform="translate(546 398.628438) scale(0.1 -0.1)">
       <defs>
        <path id="Times New Roman-33" d="M 2800 1250
Q 2800 775 2450 412 
Q 2100 50 1475 50 
Q 1025 50 700 300 
Q 375 550 375 875 
Q 375 1025 475 1137 
Q 575 1250 675 1250 
Q 825 1250 887 1137 
Q 950 1025 950 950 
Q 950 825 900 750 
Q 850 650 850 575 
Q 850 425 1037 325 
Q 1225 225 1450 225 
Q 1900 225 2125 487 
Q 2350 750 2350 1300 
Q 2350 1750 2112 2025 
Q 1875 2300 1225 2300 
L 1225 2475 
Q 1725 2475 1962 2712 
Q 2200 2950 2200 3375 
Q 2200 3725 2012 3987 
Q 1825 4250 1425 4250 
Q 1250 4250 1050 4162 
Q 850 4075 850 3875 
Q 850 3675 900 3625 
Q 950 3575 950 3500 
Q 950 3375 900 3300 
Q 850 3225 725 3225 
Q 625 3225 537 3300 
Q 450 3375 450 3575 
Q 450 3950 775 4187 
Q 1100 4425 1525 4425 
Q 2025 4425 2325 4112 
Q 2625 3800 2625 3450 
Q 2625 3075 2437 2812 
Q 2250 2550 1850 2425 
Q 2400 2225 2600 1900 
Q 2800 1575 2800 1250 
z
" transform="scale(0.015625)"/>
       </defs>
       <use xlink:href="#Times New Roman-33"/>
       <use xlink:href="#Times New Roman-30" x="50"/>
       <use xlink:href="#Times New Roman-30" x="100"/>
      </g>
     </g>
    </g>
    <g id="xtick_5">
     <g id="line2d_5">
      <g>
       <use xlink:href="#m870b4192c2" x="680.318182" y="384.48" style="stroke: #000000; stroke-width: 0.8"/>
      </g>
     </g>
     <g id="text_5">
      <!-- 400 -->
      <g transform="translate(672.818182 398.628438) scale(0.1 -0.1)">
       <defs>
        <path id="Times New Roman-34" d="M 2300 575
Q 2300 400 2400 325 
Q 2500 250 2675 250 
L 2900 250 
L 2900 100 
L 1250 100 
L 1250 250 
L 1525 250 
Q 1725 250 1812 325 
Q 1900 400 1900 575 
L 1900 1400 
L 225 1400 
L 225 1525 
L 2050 4425 
L 2300 4425 
L 2300 1550 
L 2975 1550 
L 2975 1400 
L 2300 1400 
L 2300 575 
z
M 1875 3800 
L 450 1550 
L 1900 1550 
L 1900 3800 
L 1875 3800 
z
" transform="scale(0.015625)"/>
       </defs>
       <use xlink:href="#Times New Roman-34"/>
       <use xlink:href="#Times New Roman-30" x="50"/>
       <use xlink:href="#Times New Roman-30" x="100"/>
      </g>
     </g>
    </g>
    <g id="xtick_6">
     <g id="line2d_6">
      <g>
       <use xlink:href="#m870b4192c2" x="807.136364" y="384.48" style="stroke: #000000; stroke-width: 0.8"/>
      </g>
     </g>
     <g id="text_6">
      <!-- 500 -->
      <g transform="translate(799.636364 398.628438) scale(0.1 -0.1)">
       <defs>
        <path id="Times New Roman-35" d="M 1725 2850
Q 2200 2850 2500 2487 
Q 2800 2125 2800 1525 
Q 2800 850 2487 450 
Q 2175 50 1525 50 
Q 1075 50 725 312 
Q 375 575 375 950 
Q 375 1100 462 1212 
Q 550 1325 700 1325 
Q 850 1325 900 1225 
Q 950 1125 950 1050 
Q 950 900 875 825 
Q 800 725 800 625 
Q 800 425 1037 325 
Q 1275 225 1550 225 
Q 1950 225 2162 550 
Q 2375 875 2375 1475 
Q 2375 1975 2187 2287 
Q 2000 2600 1625 2600 
Q 1350 2600 1150 2500 
Q 950 2400 775 2075 
L 550 2100 
L 675 4375 
L 2725 4375 
L 2650 4000 
L 850 4000 
L 750 2350 
Q 1000 2700 1237 2775 
Q 1475 2850 1725 2850 
z
" transform="scale(0.015625)"/>
       </defs>
       <use xlink:href="#Times New Roman-35"/>
       <use xlink:href="#Times New Roman-30" x="50"/>
       <use xlink:href="#Times New Roman-30" x="100"/>
      </g>
     </g>
    </g>
    <g id="xtick_7">
     <g id="line2d_7">
      <g>
       <use xlink:href="#m870b4192c2" x="933.954545" y="384.48" style="stroke: #000000; stroke-width: 0.8"/>
      </g>
     </g>
     <g id="text_7">
      <!-- 600 -->
      <g transform="translate(926.454545 398.628438) scale(0.1 -0.1)">
       <defs>
        <path id="Times New Roman-36" d="M 775 1800
Q 775 1050 1037 637 
Q 1300 225 1675 225 
Q 2050 225 2250 500 
Q 2450 775 2450 1525 
Q 2450 2025 2237 2300 
Q 2025 2575 1725 2575 
Q 1450 2575 1212 2412 
Q 975 2250 775 1800 
z
M 1750 2825 
Q 2350 2825 2612 2425 
Q 2875 2025 2875 1525 
Q 2875 775 2512 412 
Q 2150 50 1675 50 
Q 1000 50 650 562 
Q 300 1075 300 2050 
Q 300 3200 725 3812 
Q 1150 4425 1875 4425 
Q 2225 4425 2437 4225 
Q 2650 4025 2650 3875 
Q 2650 3725 2587 3650 
Q 2525 3575 2375 3575 
Q 2250 3575 2187 3637 
Q 2125 3700 2125 3825 
Q 2125 3875 2150 3925 
Q 2150 3975 2150 4025 
Q 2150 4125 2075 4187 
Q 2000 4250 1800 4250 
Q 1375 4250 1075 3862 
Q 775 3475 775 2175 
Q 925 2500 1187 2662 
Q 1450 2825 1750 2825 
z
" transform="scale(0.015625)"/>
       </defs>
       <use xlink:href="#Times New Roman-36"/>
       <use xlink:href="#Times New Roman-30" x="50"/>
       <use xlink:href="#Times New Roman-30" x="100"/>
      </g>
     </g>
    </g>
   </g>
   <g id="matplotlib.axis_2">
    <g id="ytick_1">
     <g id="line2d_8">
      <defs>
       <path id="m53322151ca" d="M 0 0 
L -3.5 0 
" style="stroke: #000000; stroke-width: 0.8"/>
      </defs>
      <g>
       <use xlink:href="#m53322151ca" x="135" y="375.332692" style="stroke: #000000; stroke-width: 0.8"/>
      </g>
     </g>
     <g id="text_8">
      <!-- 0 -->
      <g transform="translate(123 378.906911) scale(0.1 -0.1)">
       <use xlink:href="#Times New Roman-30"/>
      </g>
     </g>
    </g>
    <g id="ytick_2">
     <g id="line2d_9">
      <g>
       <use xlink:href="#m53322151ca" x="135" y="310.412125" style="stroke: #000000; stroke-width: 0.8"/>
      </g>
     </g>
     <g id="text_9">
      <!-- 1000 -->
      <g transform="translate(108 313.986344) scale(0.1 -0.1)">
       <use xlink:href="#Times New Roman-31"/>
       <use xlink:href="#Times New Roman-30" x="50"/>
       <use xlink:href="#Times New Roman-30" x="100"/>
       <use xlink:href="#Times New Roman-30" x="150"/>
      </g>
     </g>
    </g>
    <g id="ytick_3">
     <g id="line2d_10">
      <g>
       <use xlink:href="#m53322151ca" x="135" y="245.491559" style="stroke: #000000; stroke-width: 0.8"/>
      </g>
     </g>
     <g id="text_10">
      <!-- 2000 -->
      <g transform="translate(108 249.065777) scale(0.1 -0.1)">
       <use xlink:href="#Times New Roman-32"/>
       <use xlink:href="#Times New Roman-30" x="50"/>
       <use xlink:href="#Times New Roman-30" x="100"/>
       <use xlink:href="#Times New Roman-30" x="150"/>
      </g>
     </g>
    </g>
    <g id="ytick_4">
     <g id="line2d_11">
      <g>
       <use xlink:href="#m53322151ca" x="135" y="180.570992" style="stroke: #000000; stroke-width: 0.8"/>
      </g>
     </g>
     <g id="text_11">
      <!-- 3000 -->
      <g transform="translate(108 184.145211) scale(0.1 -0.1)">
       <use xlink:href="#Times New Roman-33"/>
       <use xlink:href="#Times New Roman-30" x="50"/>
       <use xlink:href="#Times New Roman-30" x="100"/>
       <use xlink:href="#Times New Roman-30" x="150"/>
      </g>
     </g>
    </g>
    <g id="ytick_5">
     <g id="line2d_12">
      <g>
       <use xlink:href="#m53322151ca" x="135" y="115.650425" style="stroke: #000000; stroke-width: 0.8"/>
      </g>
     </g>
     <g id="text_12">
      <!-- 4000 -->
      <g transform="translate(108 119.224644) scale(0.1 -0.1)">
       <use xlink:href="#Times New Roman-34"/>
       <use xlink:href="#Times New Roman-30" x="50"/>
       <use xlink:href="#Times New Roman-30" x="100"/>
       <use xlink:href="#Times New Roman-30" x="150"/>
      </g>
     </g>
    </g>
    <g id="text_13">
     <!-- Bitrate (kbps) -->
     <g transform="translate(102.710938 253.16) rotate(-90) scale(0.1 -0.1)">
      <defs>
       <path id="Times New Roman-42" d="M 100 100
L 100 250 
L 300 250 
Q 425 250 475 300 
Q 525 350 525 450 
L 525 4025 
Q 525 4125 475 4175 
Q 425 4225 300 4225 
L 150 4225 
L 150 4375 
L 1600 4375 
Q 2200 4375 2487 4137 
Q 2775 3900 2775 3400 
Q 2775 3050 2625 2825 
Q 2475 2600 2000 2425 
Q 2575 2250 2775 1925 
Q 2975 1600 2975 1200 
Q 2975 700 2625 400 
Q 2275 100 1675 100 
L 100 100 
z
M 1600 250 
Q 2025 250 2262 512 
Q 2500 775 2500 1250 
Q 2500 1800 2250 2062 
Q 2000 2325 1500 2325 
L 925 2325 
L 925 450 
Q 925 350 987 300 
Q 1050 250 1150 250 
L 1600 250 
z
M 2350 3400 
Q 2350 3850 2100 4037 
Q 1850 4225 1450 4225 
L 1150 4225 
Q 1050 4225 987 4175 
Q 925 4125 925 4025 
L 925 2475 
L 1575 2475 
Q 1850 2475 2100 2700 
Q 2350 2925 2350 3400 
z
" transform="scale(0.015625)"/>
       <path id="Times New Roman-69" d="M 1425 2525
Q 1425 2625 1375 2687 
Q 1325 2750 1200 2750 
L 675 2750 
L 675 2900 
L 925 2900 
Q 1150 2900 1350 2937 
Q 1550 2975 1725 3075 
L 1775 3075 
L 1775 450 
Q 1775 350 1837 300 
Q 1900 250 2000 250 
L 2525 250 
L 2525 100 
L 675 100 
L 675 250 
L 1200 250 
Q 1325 250 1375 300 
Q 1425 350 1425 450 
L 1425 2525 
z
M 1725 3025 
L 1725 3025 
z
M 1625 4425 
Q 1750 4425 1850 4337 
Q 1950 4250 1950 4125 
Q 1950 4000 1850 3900 
Q 1750 3800 1625 3800 
Q 1500 3800 1400 3900 
Q 1300 4000 1300 4125 
Q 1300 4250 1400 4337 
Q 1500 4425 1625 4425 
z
" transform="scale(0.015625)"/>
       <path id="Times New Roman-74" d="M 1500 900
Q 1500 550 1625 425 
Q 1750 300 2000 300 
Q 2250 300 2400 462 
Q 2550 625 2600 925 
L 2725 875 
Q 2675 525 2462 300 
Q 2250 75 1900 75 
Q 1525 75 1337 300 
Q 1150 525 1150 1000 
L 1150 2750 
L 400 2750 
L 400 2900 
L 600 2900 
Q 900 2900 1087 3087 
Q 1275 3275 1325 3675 
L 1350 3875 
L 1500 3875 
L 1500 2900 
L 2500 2900 
L 2500 2750 
L 1500 2750 
L 1500 900 
z
" transform="scale(0.015625)"/>
       <path id="Times New Roman-72" d="M 1275 2125
Q 1525 2525 1812 2737 
Q 2100 2950 2400 2950 
Q 2650 2950 2787 2837 
Q 2925 2725 2925 2575 
Q 2925 2450 2862 2375 
Q 2800 2300 2675 2300 
Q 2550 2300 2487 2375 
Q 2425 2450 2450 2575 
Q 2450 2650 2425 2700 
Q 2400 2750 2275 2750 
Q 2075 2750 1787 2500 
Q 1500 2250 1275 1800 
L 1275 450 
Q 1275 350 1337 300 
Q 1400 250 1500 250 
L 2050 250 
L 2050 100 
L 200 100 
L 200 250 
L 700 250 
Q 825 250 875 300 
Q 925 350 925 450 
L 925 2525 
Q 925 2625 875 2687 
Q 825 2750 700 2750 
L 225 2750 
L 225 2900 
L 425 2900 
Q 600 2900 837 2937 
Q 1075 2975 1200 3025 
L 1275 3025 
L 1275 2125 
z
" transform="scale(0.015625)"/>
       <path id="Times New Roman-61" d="M 1225 75
Q 775 75 525 287 
Q 275 500 275 775 
Q 275 1225 662 1512 
Q 1050 1800 2200 1925 
L 2200 2225 
Q 2200 2475 2087 2637 
Q 1975 2800 1575 2800 
Q 1150 2800 975 2662 
Q 800 2525 850 2375 
Q 875 2325 875 2275 
Q 875 2225 837 2150 
Q 800 2075 650 2075 
Q 550 2075 487 2137 
Q 425 2200 425 2325 
Q 425 2550 750 2750 
Q 1075 2950 1550 2950 
Q 2050 2950 2300 2762 
Q 2550 2575 2550 2225 
L 2550 575 
Q 2550 375 2587 337 
Q 2625 300 2725 300 
Q 2850 300 2900 412 
Q 2950 525 2950 725 
L 3075 725 
Q 3075 375 2950 237 
Q 2825 100 2625 100 
Q 2450 100 2350 175 
Q 2250 250 2200 425 
Q 1950 250 1737 162 
Q 1525 75 1225 75 
z
M 700 850 
Q 700 625 837 437 
Q 975 250 1275 250 
Q 1500 250 1725 337 
Q 1950 425 2200 600 
L 2200 1775 
Q 1350 1675 1025 1437 
Q 700 1200 700 850 
z
" transform="scale(0.015625)"/>
       <path id="Times New Roman-65" d="M 2400 1650
Q 2425 2200 2212 2487 
Q 2000 2775 1650 2775 
Q 1275 2775 1037 2475 
Q 800 2175 800 1650 
L 2400 1650 
z
M 800 1500 
Q 800 825 1062 537 
Q 1325 250 1750 250 
Q 2075 250 2300 437 
Q 2525 625 2625 900 
L 2750 850 
Q 2675 575 2412 312 
Q 2150 50 1700 50 
Q 1125 50 762 425 
Q 400 800 400 1500 
Q 400 2125 762 2537 
Q 1125 2950 1650 2950 
Q 2125 2950 2475 2625 
Q 2825 2300 2825 1500 
L 800 1500 
z
" transform="scale(0.015625)"/>
       <path id="Times New Roman-20" d="M 0 0
Q 0 0 0 0 
z
" transform="scale(0.015625)"/>
       <path id="Times New Roman-28" d="M 2900 5025
Q 2325 4425 2037 3737 
Q 1750 3050 1750 2300 
Q 1750 1525 2037 850 
Q 2325 175 2900 -425 
L 2775 -550 
Q 2075 75 1725 787 
Q 1375 1500 1375 2300 
Q 1375 3075 1725 3787 
Q 2075 4500 2775 5150 
L 2900 5025 
z
" transform="scale(0.015625)"/>
       <path id="Times New Roman-6b" d="M 1675 1900
L 2625 425 
Q 2700 325 2762 287 
Q 2825 250 2900 250 
L 3000 250 
L 3000 100 
L 1975 100 
L 1975 250 
L 2050 250 
Q 2175 250 2225 287 
Q 2275 325 2200 425 
L 1425 1650 
L 925 1125 
L 925 450 
Q 925 350 987 300 
Q 1050 250 1150 250 
L 1275 250 
L 1275 100 
L 225 100 
L 225 250 
L 350 250 
Q 475 250 525 300 
Q 575 350 575 450 
L 575 4025 
Q 575 4125 525 4175 
Q 475 4225 350 4225 
L 200 4225 
L 200 4375 
L 425 4375 
Q 575 4375 687 4425 
Q 800 4475 875 4575 
L 925 4575 
L 925 1400 
L 1975 2525 
Q 2025 2625 2012 2687 
Q 2000 2750 1900 2750 
L 1750 2750 
L 1750 2900 
L 2800 2900 
L 2800 2750 
L 2675 2750 
Q 2600 2750 2487 2712 
Q 2375 2675 2275 2575 
L 1675 1900 
z
M 2450 2750 
L 2450 2750 
z
M 2175 2750 
L 2175 2750 
z
M 2300 250 
L 2300 250 
z
M 2750 250 
L 2750 250 
z
" transform="scale(0.015625)"/>
       <path id="Times New Roman-62" d="M 875 2325
Q 1000 2600 1275 2762 
Q 1550 2925 1800 2925 
Q 2325 2925 2587 2562 
Q 2850 2200 2850 1500 
Q 2850 800 2512 437 
Q 2175 75 1675 75 
Q 1425 75 1212 162 
Q 1000 250 850 400 
L 625 100 
L 525 100 
L 525 4025 
Q 525 4125 475 4175 
Q 425 4225 300 4225 
L 150 4225 
L 150 4375 
L 375 4375 
Q 500 4375 625 4425 
Q 750 4475 875 4575 
L 875 2325 
z
M 875 925 
Q 875 650 1062 450 
Q 1250 250 1625 250 
Q 2075 250 2262 562 
Q 2450 875 2450 1500 
Q 2450 2100 2287 2412 
Q 2125 2725 1775 2725 
Q 1475 2725 1250 2550 
Q 1025 2375 875 1925 
L 875 925 
z
" transform="scale(0.015625)"/>
       <path id="Times New Roman-70" d="M 1150 -675
L 1325 -675 
L 1325 -825 
L 175 -825 
L 175 -675 
L 325 -675 
Q 450 -675 500 -625 
Q 550 -575 550 -450 
L 550 2500 
Q 550 2600 500 2662 
Q 450 2725 325 2725 
L 175 2725 
L 175 2875 
L 400 2875 
Q 525 2875 637 2900 
Q 750 2925 850 3000 
L 900 3000 
L 900 2425 
Q 1075 2675 1287 2800 
Q 1500 2925 1750 2925 
Q 2250 2925 2575 2587 
Q 2900 2250 2900 1525 
Q 2900 825 2550 450 
Q 2200 75 1725 75 
Q 1450 75 1262 162 
Q 1075 250 900 425 
L 900 -450 
Q 900 -575 975 -625 
Q 1050 -675 1150 -675 
z
M 900 750 
Q 1025 500 1212 375 
Q 1400 250 1650 250 
Q 2000 250 2250 562 
Q 2500 875 2500 1525 
Q 2500 2125 2312 2425 
Q 2125 2725 1750 2725 
Q 1525 2725 1300 2587 
Q 1075 2450 900 2150 
L 900 750 
z
" transform="scale(0.015625)"/>
       <path id="Times New Roman-73" d="M 625 2175
Q 625 2550 912 2750 
Q 1200 2950 1600 2950 
Q 1825 2950 2025 2900 
Q 2225 2825 2300 2825 
Q 2375 2825 2425 2850 
Q 2475 2875 2550 2950 
L 2650 2125 
L 2500 2100 
Q 2400 2425 2162 2612 
Q 1925 2800 1625 2800 
Q 1300 2800 1112 2675 
Q 925 2550 925 2325 
Q 925 2125 1012 2012 
Q 1100 1900 1325 1850 
Q 1500 1775 1775 1700 
Q 2025 1600 2250 1500 
Q 2450 1400 2587 1237 
Q 2725 1075 2725 875 
Q 2725 500 2462 287 
Q 2200 75 1700 75 
Q 1375 75 1225 150 
Q 1050 200 950 200 
Q 875 200 787 162 
Q 700 125 600 75 
L 525 1000 
L 675 1025 
Q 750 625 1000 425 
Q 1250 225 1700 225 
Q 2050 225 2237 350 
Q 2425 475 2425 725 
Q 2425 900 2325 1012 
Q 2225 1125 2125 1175 
Q 1875 1275 1575 1400 
Q 1275 1500 1050 1600 
Q 825 1700 725 1850 
Q 625 2000 625 2175 
z
" transform="scale(0.015625)"/>
       <path id="Times New Roman-29" d="M 275 5025
L 400 5150 
Q 1100 4500 1450 3787 
Q 1800 3075 1800 2300 
Q 1800 1500 1450 787 
Q 1100 75 400 -550 
L 275 -425 
Q 850 175 1137 850 
Q 1425 1525 1425 2300 
Q 1425 3050 1137 3737 
Q 850 4425 275 5025 
z
" transform="scale(0.015625)"/>
      </defs>
      <use xlink:href="#Times New Roman-42"/>
      <use xlink:href="#Times New Roman-69" x="50"/>
      <use xlink:href="#Times New Roman-74" x="100"/>
      <use xlink:href="#Times New Roman-72" x="150"/>
      <use xlink:href="#Times New Roman-61" x="200"/>
      <use xlink:href="#Times New Roman-74" x="250"/>
      <use xlink:href="#Times New Roman-65" x="300"/>
      <use xlink:href="#Times New Roman-20" x="350"/>
      <use xlink:href="#Times New Roman-28" x="400"/>
      <use xlink:href="#Times New Roman-6b" x="450"/>
      <use xlink:href="#Times New Roman-62" x="500"/>
      <use xlink:href="#Times New Roman-70" x="550"/>
      <use xlink:href="#Times New Roman-73" x="600"/>
      <use xlink:href="#Times New Roman-29" x="650"/>
     </g>
    </g>
   </g>
   <g id="line2d_13">
    <path d="M 173.045455 349.753989 
L 174.313636 349.753989 
L 175.581818 366.178892 
L 179.386364 366.178892 
L 181.922727 333.329085 
L 189.531818 333.329085 
L 189.531818 304.374513 
L 195.872727 304.374513 
L 197.140909 251.723933 
L 231.381818 251.723933 
L 231.381818 251.723933 
L 232.65 123.05137 
L 232.65 251.723933 
L 240.259091 251.723933 
L 241.527273 123.05137 
L 242.795455 251.723933 
L 246.6 251.723933 
L 247.868182 123.05137 
L 247.868182 251.723933 
L 256.745455 251.723933 
L 256.745455 123.05137 
L 269.427273 123.05137 
L 269.427273 123.05137 
L 269.427273 251.723933 
L 273.231818 251.723933 
L 273.231818 251.723933 
L 274.5 304.374513 
L 277.036364 304.374513 
L 277.036364 304.374513 
L 277.036364 251.723933 
L 278.304545 251.723933 
L 278.304545 251.723933 
L 279.572727 304.374513 
L 279.572727 304.374513 
L 280.840909 304.374513 
L 280.840909 251.723933 
L 336.640909 251.723933 
L 337.909091 366.178892 
L 341.713636 366.178892 
L 341.713636 304.374513 
L 342.981818 304.374513 
L 344.25 333.329085 
L 354.395455 333.329085 
L 355.663636 304.374513 
L 362.004545 304.374513 
L 362.004545 251.723933 
L 374.686364 251.723933 
L 375.954545 123.05137 
L 377.222727 123.05137 
L 378.490909 187.387651 
L 378.490909 187.387651 
L 384.831818 187.387651 
L 384.831818 123.05137 
L 386.1 251.723933 
L 391.172727 251.723933 
L 392.440909 123.05137 
L 393.709091 123.05137 
L 393.709091 251.723933 
L 397.513636 251.723933 
L 398.781818 123.05137 
L 407.659091 123.05137 
L 407.659091 123.05137 
L 408.927273 251.723933 
L 408.927273 251.723933 
L 410.195455 251.723933 
L 410.195455 123.05137 
L 416.536364 123.05137 
L 416.536364 123.05137 
L 416.536364 251.723933 
L 420.340909 251.723933 
L 420.340909 251.723933 
L 421.609091 123.05137 
L 421.609091 123.05137 
L 479.945455 123.05137 
L 481.213636 251.723933 
L 497.7 251.723933 
L 498.968182 228.222688 
L 500.236364 251.723933 
L 506.577273 251.723933 
L 507.845455 123.05137 
L 509.113636 251.723933 
L 511.65 251.723933 
L 512.918182 123.05137 
L 514.186364 251.723933 
L 516.722727 251.723933 
L 517.990909 123.05137 
L 519.259091 251.723933 
L 523.063636 251.723933 
L 524.331818 123.05137 
L 524.331818 251.723933 
L 531.940909 251.723933 
L 533.209091 123.05137 
L 534.477273 251.723933 
L 537.013636 251.723933 
L 537.013636 123.05137 
L 543.354545 123.05137 
L 544.622727 251.723933 
L 547.159091 251.723933 
L 547.159091 123.05137 
L 548.427273 251.723933 
L 552.231818 251.723933 
L 552.231818 251.723933 
L 553.5 123.05137 
L 553.5 123.05137 
L 554.768182 251.723933 
L 559.840909 251.723933 
L 561.109091 123.05137 
L 573.790909 123.05137 
L 575.059091 251.723933 
L 577.595455 251.723933 
L 577.595455 123.05137 
L 578.863636 251.723933 
L 583.936364 251.723933 
L 585.204545 123.05137 
L 585.204545 251.723933 
L 587.740909 251.723933 
L 587.740909 251.723933 
L 589.009091 123.05137 
L 589.009091 123.05137 
L 590.277273 251.723933 
L 591.545455 251.723933 
L 591.545455 251.723933 
L 592.813636 333.329085 
L 595.35 333.329085 
L 595.35 304.374513 
L 596.618182 251.723933 
L 596.618182 251.723933 
L 597.886364 251.723933 
L 597.886364 251.723933 
L 599.154545 123.05137 
L 599.154545 123.05137 
L 600.422727 123.05137 
L 600.422727 123.05137 
L 601.690909 251.723933 
L 601.690909 251.723933 
L 629.590909 251.723933 
L 630.859091 366.178892 
L 635.931818 366.178892 
L 635.931818 333.329085 
L 642.272727 333.329085 
L 642.272727 304.374513 
L 643.540909 304.374513 
L 643.540909 304.374513 
L 644.809091 251.723933 
L 654.954545 251.723933 
L 654.954545 251.723933 
L 656.222727 123.05137 
L 656.222727 123.05137 
L 657.490909 251.723933 
L 663.831818 251.723933 
L 663.831818 251.723933 
L 665.1 123.05137 
L 665.1 123.05137 
L 666.368182 251.723933 
L 672.709091 251.723933 
L 673.977273 123.05137 
L 675.245455 251.723933 
L 679.05 251.723933 
L 680.318182 123.05137 
L 682.854545 123.05137 
L 684.122727 251.723933 
L 686.659091 251.723933 
L 686.659091 251.723933 
L 687.927273 123.05137 
L 731.045455 123.05137 
L 731.045455 251.723933 
L 733.581818 251.723933 
L 733.581818 251.723933 
L 734.85 123.05137 
L 737.386364 251.723933 
L 747.531818 251.723933 
L 747.531818 251.723933 
L 748.8 304.374513 
L 748.8 304.374513 
L 750.068182 304.374513 
L 751.336364 251.723933 
L 758.945455 251.723933 
L 761.481818 333.329085 
L 803.331818 333.329085 
L 803.331818 333.329085 
L 804.6 304.374513 
L 804.6 304.374513 
L 810.940909 304.374513 
L 812.209091 251.723933 
L 827.427273 251.723933 
L 827.427273 251.723933 
L 828.695455 123.05137 
L 828.695455 123.05137 
L 829.963636 123.05137 
L 831.231818 251.723933 
L 833.768182 251.723933 
L 833.768182 251.723933 
L 835.036364 123.05137 
L 843.913636 123.05137 
L 845.181818 251.723933 
L 848.986364 251.723933 
L 850.254545 187.387651 
L 852.790909 187.387651 
L 854.059091 123.05137 
L 855.327273 123.05137 
L 856.595455 187.387651 
L 857.863636 187.387651 
L 857.863636 251.723933 
L 859.131818 251.723933 
L 859.131818 251.723933 
L 860.4 187.387651 
L 860.4 123.05137 
L 861.668182 251.723933 
L 865.472727 251.723933 
L 865.472727 251.723933 
L 866.740909 123.05137 
L 873.081818 123.05137 
L 874.35 251.723933 
L 874.35 251.723933 
L 933.954545 251.723933 
L 933.954545 251.723933 
" clip-path="url(#pc0218feb5c)" style="fill: none; stroke: #ff0000; stroke-width: 1.5; stroke-linecap: square"/>
   </g>
   <g id="line2d_14">
    <path d="M 173.045455 347.676531 
L 174.313636 349.396926 
L 176.85 348.908218 
L 178.118182 346.584062 
L 179.386364 344.020421 
L 181.922727 340.461692 
L 183.190909 336.215887 
L 183.190909 331.472357 
L 185.727273 322.257965 
L 188.263636 311.641288 
L 189.531818 305.833061 
L 189.531818 300.487935 
L 190.8 295.259665 
L 192.068182 290.897003 
L 192.068182 287.170562 
L 193.336364 283.998111 
L 194.604545 280.319279 
L 195.872727 275.528141 
L 197.140909 269.204878 
L 198.409091 262.288673 
L 200.945455 254.121666 
L 203.481818 236.229558 
L 206.018182 227.205599 
L 209.822727 200.614135 
L 211.090909 192.204757 
L 212.359091 184.829781 
L 213.627273 175.866415 
L 214.895455 169.140644 
L 217.431818 164.700077 
L 218.7 164.526956 
L 219.968182 163.016471 
L 219.968182 159.692538 
L 221.236364 152.598884 
L 223.772727 146.946466 
L 225.040909 138.589025 
L 226.309091 131.923847 
L 227.577273 124.332469 
L 228.845455 119.277321 
L 230.113636 110.76407 
L 231.381818 101.393869 
L 231.381818 91.136419 
L 232.65 87.128656 
L 232.65 87.881735 
L 233.918182 90.690631 
L 236.454545 112.57319 
L 237.722727 143.8952 
L 238.990909 171.516737 
L 240.259091 175.775526 
L 241.527273 184.751876 
L 242.795455 191.849858 
L 244.063636 189.400189 
L 245.331818 172.728587 
L 246.6 171.525393 
L 247.868182 175.883727 
L 247.868182 175.096024 
L 249.136364 165.262722 
L 251.672727 180.138188 
L 252.940909 201.817329 
L 252.940909 225.361855 
L 254.209091 219.882559 
L 254.209091 211.793456 
L 255.477273 185.279897 
L 255.477273 159.051988 
L 256.745455 127.150021 
L 256.745455 119.835638 
L 258.013636 136.987651 
L 258.013636 170.261606 
L 259.281818 193.858068 
L 260.55 197.883143 
L 266.890909 185.751653 
L 268.159091 165.154521 
L 268.159091 140.631859 
L 269.427273 129.989214 
L 269.427273 160.004156 
L 270.695455 175.243177 
L 270.695455 183.81702 
L 271.963636 180.921563 
L 271.963636 172.274143 
L 273.231818 159.363607 
L 273.231818 153.178841 
L 274.5 153.243761 
L 277.036364 163.206904 
L 277.036364 170.56024 
L 278.304545 174.325633 
L 278.304545 185.950743 
L 279.572727 190.67696 
L 279.572727 194.334152 
L 280.840909 197.290202 
L 280.840909 200.099098 
L 282.109091 202.315054 
L 282.109091 207.071567 
L 283.377273 209.162009 
L 283.377273 211.10097 
L 284.645455 212.823529 
L 284.645455 218.211936 
L 285.913636 221.587806 
L 285.913636 230.417003 
L 287.181818 234.433422 
L 287.181818 237.701091 
L 288.45 240.042559 
L 288.45 241.674229 
L 289.718182 243.059201 
L 289.718182 245.123675 
L 290.986364 248.694307 
L 290.986364 252.784302 
L 296.059091 270.858188 
L 298.595455 281.583066 
L 301.131818 294.017518 
L 335.372727 300.626432 
L 336.640909 306.681357 
L 337.909091 311.364294 
L 339.177273 313.294599 
L 340.445455 312.788218 
L 340.445455 309.884105 
L 341.713636 305.508459 
L 341.713636 300.704337 
L 344.25 292.571954 
L 345.518182 287.780816 
L 346.786364 282.375097 
L 348.054545 276.337484 
L 350.590909 263.418291 
L 353.127273 256.562679 
L 355.663636 247.854667 
L 356.931818 245.963315 
L 356.931818 242.963985 
L 358.2 244.885633 
L 360.736364 242.033456 
L 362.004545 236.350743 
L 362.004545 222.730408 
L 363.272727 209.754951 
L 364.540909 193.044397 
L 364.540909 179.125427 
L 365.809091 168.634264 
L 368.345455 158.536951 
L 373.418182 153.261073 
L 374.686364 152.20936 
L 375.954545 148.344422 
L 377.222727 144.094289 
L 378.490909 136.468287 
L 378.490909 131.265985 
L 379.759091 122.397836 
L 382.295455 117.528793 
L 383.563636 112.149043 
L 384.831818 110.569309 
L 384.831818 104.977484 
L 386.1 99.506844 
L 387.368182 90.859425 
L 388.636364 84.354384 
L 391.172727 78.727935 
L 392.440909 76.624508 
L 393.709091 73.685771 
L 393.709091 72.508544 
L 394.977273 78.559141 
L 397.513636 101.774736 
L 398.781818 125.029283 
L 400.05 142.423667 
L 401.318182 143.129137 
L 402.586364 137.169429 
L 405.122727 91.824577 
L 405.122727 75.750245 
L 406.390909 77.243418 
L 406.390909 78.69331 
L 407.659091 80.073954 
L 407.659091 81.065075 
L 408.927273 83.748459 
L 408.927273 87.068064 
L 410.195455 91.378789 
L 410.195455 95.338944 
L 411.463636 98.606612 
L 411.463636 100.030537 
L 412.731818 101.043298 
L 412.731818 102.021434 
L 414 103.523263 
L 414 104.934204 
L 415.268182 106.873164 
L 415.268182 108.69094 
L 416.536364 110.491404 
L 416.536364 115.079124 
L 417.804545 118.454994 
L 417.804545 121.908768 
L 419.072727 124.410374 
L 420.340909 127.46164 
L 420.340909 131.062568 
L 421.609091 136.091748 
L 421.609091 146.119811 
L 422.877273 149.088845 
L 422.877273 149.876548 
L 424.145455 149.179734 
L 425.413636 150.677235 
L 425.413636 160.159966 
L 426.681818 167.084826 
L 426.681818 173.602851 
L 427.95 176.9138 
L 429.218182 178.173259 
L 429.218182 178.922009 
L 430.486364 181.224526 
L 430.486364 187.400635 
L 431.754545 191.179012 
L 431.754545 195.152151 
L 433.022727 197.861503 
L 433.022727 199.813448 
L 434.290909 202.228493 
L 434.290909 205.106638 
L 435.559091 208.309386 
L 435.559091 210.975457 
L 436.827273 214.827411 
L 436.827273 222.48371 
L 438.095455 225.132469 
L 438.095455 227.950021 
L 439.363636 234.45939 
L 439.363636 244.491782 
L 440.631818 254.563126 
L 441.9 261.630812 
L 443.168182 270.195998 
L 479.945455 280.483744 
L 482.481818 302.790451 
L 485.018182 315.817845 
L 486.286364 326.321992 
L 487.554545 329.48146 
L 488.822727 326.296024 
L 491.359091 321.271172 
L 491.359091 316.46705 
L 493.895455 306.85015 
L 495.163636 301.660833 
L 496.431818 295.947823 
L 497.7 292.398832 
L 498.968182 288.243916 
L 500.236364 284.565084 
L 502.772727 278.570751 
L 502.772727 273.667085 
L 505.309091 257.012795 
L 506.577273 247.287694 
L 507.845455 245.301125 
L 511.65 271.29532 
L 512.918182 269.477544 
L 514.186364 269.512168 
L 515.454545 250.771765 
L 517.990909 218.20328 
L 519.259091 229.075311 
L 520.527273 231.074865 
L 521.795455 240.743701 
L 523.063636 247.590657 
L 524.331818 266.218532 
L 524.331818 273.736333 
L 528.136364 290.221829 
L 529.404545 308.83672 
L 530.672727 305.062671 
L 531.940909 289.82365 
L 533.209091 272.952958 
L 534.477273 268.023323 
L 535.745455 246.61252 
L 537.013636 223.042027 
L 537.013636 191.109764 
L 538.281818 166.39234 
L 538.281818 124.734976 
L 539.55 104.042628 
L 543.354545 115.927419 
L 544.622727 155.559261 
L 545.890909 183.721803 
L 547.159091 199.934633 
L 547.159091 203.682714 
L 548.427273 195.94851 
L 549.695455 182.925444 
L 552.231818 171.949541 
L 552.231818 165.063632 
L 553.5 147.768793 
L 553.5 122.679158 
L 554.768182 93.607729 
L 556.036364 75.204912 
L 556.036364 66.96 
L 557.304545 71.742482 
L 558.572727 74.76778 
L 559.840909 75.265505 
L 561.109091 76.650477 
L 567.45 80.23842 
L 568.718182 87.072392 
L 569.986364 97.922782 
L 571.254545 109.933087 
L 571.254545 120.519468 
L 572.522727 126.483504 
L 573.790909 130.188304 
L 575.059091 132.988544 
L 576.327273 136.412022 
L 577.595455 141.38061 
L 577.595455 148.30547 
L 578.863636 156.052658 
L 580.131818 162.427857 
L 582.668182 168.725152 
L 585.204545 180.718145 
L 585.204545 187.344371 
L 586.472727 195.368553 
L 586.472727 204.002988 
L 587.740909 210.802336 
L 587.740909 215.273199 
L 589.009091 219.029936 
L 589.009091 222.423117 
L 590.277273 225.578257 
L 591.545455 232.091954 
L 591.545455 243.154418 
L 592.813636 254.489549 
L 594.081818 261.604843 
L 595.35 265.417845 
L 595.35 266.209875 
L 596.618182 264.006904 
L 596.618182 261.21532 
L 597.886364 262.621932 
L 597.886364 267.226964 
L 599.154545 274.9352 
L 599.154545 284.872374 
L 600.422727 294.822533 
L 600.422727 300.708665 
L 601.690909 303.448313 
L 601.690909 302.561065 
L 602.959091 299.206836 
L 602.959091 295.683813 
L 604.227273 296.129601 
L 604.227273 299.782465 
L 605.495455 303.729635 
L 608.031818 310.814633 
L 609.3 314.476153 
L 628.322727 319.327883 
L 629.590909 325.040893 
L 630.859091 331.528622 
L 632.127273 337.362817 
L 633.395455 341.915912 
L 634.663636 344.863306 
L 635.931818 345.343718 
L 635.931818 344.079931 
L 637.2 341.162834 
L 639.736364 337.527282 
L 641.004545 332.108579 
L 641.004545 326.819717 
L 642.272727 321.258188 
L 642.272727 316.995071 
L 643.540909 312.896419 
L 643.540909 309.957681 
L 646.077273 303.539201 
L 647.345455 299.587703 
L 649.881818 294.49793 
L 651.15 287.759176 
L 653.686364 272.433594 
L 654.954545 264.23629 
L 654.954545 256.056299 
L 656.222727 248.763555 
L 656.222727 242.760567 
L 657.490909 237.714075 
L 658.759091 233.498566 
L 663.831818 227.911069 
L 663.831818 220.272082 
L 665.1 210.062241 
L 665.1 199.865384 
L 666.368182 190.65532 
L 667.636364 183.518386 
L 671.440909 176.801271 
L 672.709091 170.954092 
L 675.245455 157.441958 
L 677.781818 150.772452 
L 677.781818 146.907514 
L 679.05 143.488364 
L 680.318182 138.714538 
L 684.122727 111.86772 
L 686.659091 106.050837 
L 686.659091 103.107772 
L 687.927273 102.839433 
L 690.463636 102.056058 
L 690.463636 98.476771 
L 691.731818 93.183581 
L 694.268182 88.682422 
L 694.268182 85.587875 
L 695.536364 83.077613 
L 698.072727 82.09082 
L 698.072727 81.411318 
L 699.340909 78.883744 
L 701.877273 74.850013 
L 703.145455 73.997389 
L 704.413636 75.45161 
L 706.95 79.229987 
L 706.95 82.597201 
L 708.218182 84.367368 
L 709.486364 82.363486 
L 710.754545 80.753456 
L 712.022727 80.147531 
L 713.290909 80.926578 
L 714.559091 81.008811 
L 715.827273 83.930236 
L 715.827273 85.77398 
L 717.095455 89.37058 
L 718.363636 93.555792 
L 720.9 104.890923 
L 723.436364 110.76407 
L 724.704545 119.363881 
L 724.704545 127.089429 
L 725.972727 136.178308 
L 729.777273 144.436204 
L 729.777273 153.789094 
L 731.045455 159.779098 
L 731.045455 163.548819 
L 732.313636 165.587325 
L 733.581818 168.40055 
L 733.581818 171.988493 
L 734.85 176.191018 
L 737.386364 181.895371 
L 738.654545 188.642782 
L 738.654545 194.598162 
L 739.922727 200.817553 
L 739.922727 206.75562 
L 741.190909 212.650408 
L 742.459091 217.883006 
L 746.263636 224.509231 
L 747.531818 232.027033 
L 747.531818 239.97331 
L 748.8 248.57745 
L 748.8 257.436943 
L 750.068182 265.288003 
L 751.336364 271.048622 
L 756.409091 277.099219 
L 757.677273 284.443899 
L 757.677273 292.883572 
L 758.945455 301.098188 
L 761.481818 309.234899 
L 762.75 316.527643 
L 764.018182 321.993954 
L 765.286364 326.244088 
L 765.286364 330.221554 
L 766.554545 334.216333 
L 767.822727 337.345505 
L 769.090909 339.738909 
L 771.627273 343.214324 
L 774.163636 344.694513 
L 774.163636 346.291559 
L 775.431818 347.663547 
L 775.431818 348.745556 
L 776.7 349.42073 
L 777.968182 349.857862 
L 779.236364 349.667428 
L 780.504545 349.096127 
L 783.040909 347.161494 
L 786.845455 345.438935 
L 788.113636 342.785848 
L 789.381818 339.158952 
L 791.918182 334.696745 
L 793.186364 329.399227 
L 793.186364 324.049772 
L 794.454545 319.007608 
L 796.990909 313.844259 
L 800.795455 298.445101 
L 803.331818 292.087213 
L 803.331818 279.96438 
L 804.6 274.082576 
L 804.6 268.365238 
L 805.868182 263.522164 
L 807.136364 259.817364 
L 809.672727 254.342396 
L 812.209091 239.549163 
L 816.013636 231.693774 
L 816.013636 223.596015 
L 818.55 206.842181 
L 818.55 197.835535 
L 819.818182 189.625247 
L 819.818182 182.804259 
L 821.086364 177.437492 
L 822.354545 173.806269 
L 827.427273 170.001924 
L 827.427273 165.773431 
L 828.695455 158.337862 
L 828.695455 151.473594 
L 831.231818 135.840721 
L 832.5 126.193525 
L 833.768182 119.298961 
L 833.768182 113.975474 
L 835.036364 110.513044 
L 840.109091 108.046063 
L 841.377273 107.119863 
L 841.377273 106.358128 
L 842.645455 102.726904 
L 845.181818 89.764431 
L 847.718182 86.146191 
L 848.986364 82.51064 
L 850.254545 80.311997 
L 851.522727 77.879639 
L 852.790909 78.524517 
L 854.059091 76.698085 
L 855.327273 76.698085 
L 856.595455 76.165736 
L 857.863636 81.411318 
L 857.863636 85.860541 
L 859.131818 91.357149 
L 859.131818 93.07538 
L 860.4 104.220077 
L 860.4 122.722439 
L 862.936364 197.33781 
L 864.204545 244.353285 
L 864.204545 281.007437 
L 865.472727 295.908871 
L 865.472727 274.463444 
L 866.740909 234.494015 
L 873.081818 206.262224 
L 874.35 198.9262 
L 874.35 221.834504 
L 875.618182 260.128982 
L 875.618182 313.229678 
L 876.886364 346.00158 
L 878.154545 361.504611 
L 879.422727 357.695938 
L 880.690909 356.804362 
L 881.959091 356.168141 
L 883.227273 359.409841 
L 883.227273 360.989575 
L 884.495455 364.391413 
L 884.495455 366.135612 
L 885.763636 369.36 
L 887.031818 369.11763 
L 888.3 369.260455 
L 889.568182 368.130837 
L 889.568182 368.567969 
L 890.836364 365.166131 
L 895.909091 362.89824 
L 897.177273 359.440137 
L 898.445455 360.132623 
L 899.713636 357.817123 
L 903.518182 360.344697 
L 904.786364 361.500283 
L 904.786364 364.226947 
L 906.054545 362.305298 
L 908.590909 362.413499 
L 908.590909 361.612812 
L 909.859091 361.599828 
L 909.859091 360.621692 
L 912.395455 356.921219 
L 916.2 353.207763 
L 917.468182 349.983375 
L 917.468182 345.612057 
L 918.736364 343.231636 
L 920.004545 341.141194 
L 921.272727 341.123881 
L 922.540909 341.305659 
L 925.077273 344.564672 
L 926.345455 346.118437 
L 927.613636 347.434161 
L 928.881818 348.481546 
L 930.15 349.135079 
L 931.418182 349.373122 
L 933.954545 348.927334 
L 933.954545 348.927334 
" clip-path="url(#pc0218feb5c)" style="fill: none; stroke: #008000; stroke-width: 1.5; stroke-linecap: square"/>
   </g>
   <g id="patch_3">
    <path d="M 135 384.48 
L 135 51.84 
" style="fill: none; stroke: #000000; stroke-width: 0.8; stroke-linejoin: miter; stroke-linecap: square"/>
   </g>
   <g id="patch_4">
    <path d="M 972 384.48 
L 972 51.84 
" style="fill: none; stroke: #000000; stroke-width: 0.8; stroke-linejoin: miter; stroke-linecap: square"/>
   </g>
   <g id="patch_5">
    <path d="M 135 384.48 
L 972 384.48 
" style="fill: none; stroke: #000000; stroke-width: 0.8; stroke-linejoin: miter; stroke-linecap: square"/>
   </g>
   <g id="patch_6">
    <path d="M 135 51.84 
L 972 51.84 
" style="fill: none; stroke: #000000; stroke-width: 0.8; stroke-linejoin: miter; stroke-linecap: square"/>
   </g>
  </g>
  <g id="axes_2">
   <g id="matplotlib.axis_3">
    <g id="ytick_6">
     <g id="line2d_15">
      <path d="M 135 369.36 
L 972 369.36 
" clip-path="url(#pc0218feb5c)" style="fill: none; stroke: #b0b0b0; stroke-width: 0.8; stroke-linecap: square"/>
     </g>
     <g id="line2d_16">
      <defs>
       <path id="m4b99666d0c" d="M 0 0 
L 3.5 0 
" style="stroke: #000000; stroke-width: 0.8"/>
      </defs>
      <g>
       <use xlink:href="#m4b99666d0c" x="972" y="369.36" style="stroke: #000000; stroke-width: 0.8"/>
      </g>
     </g>
     <g id="text_14">
      <!-- 0 -->
      <g transform="translate(979 372.934219) scale(0.1 -0.1)">
       <use xlink:href="#Times New Roman-30"/>
      </g>
     </g>
    </g>
    <g id="ytick_7">
     <g id="line2d_17">
      <path d="M 135 320.022136 
L 972 320.022136 
" clip-path="url(#pc0218feb5c)" style="fill: none; stroke: #b0b0b0; stroke-width: 0.8; stroke-linecap: square"/>
     </g>
     <g id="line2d_18">
      <g>
       <use xlink:href="#m4b99666d0c" x="972" y="320.022136" style="stroke: #000000; stroke-width: 0.8"/>
      </g>
     </g>
     <g id="text_15">
      <!-- 5 -->
      <g transform="translate(979 323.596355) scale(0.1 -0.1)">
       <use xlink:href="#Times New Roman-35"/>
      </g>
     </g>
    </g>
    <g id="ytick_8">
     <g id="line2d_19">
      <path d="M 135 270.684272 
L 972 270.684272 
" clip-path="url(#pc0218feb5c)" style="fill: none; stroke: #b0b0b0; stroke-width: 0.8; stroke-linecap: square"/>
     </g>
     <g id="line2d_20">
      <g>
       <use xlink:href="#m4b99666d0c" x="972" y="270.684272" style="stroke: #000000; stroke-width: 0.8"/>
      </g>
     </g>
     <g id="text_16">
      <!-- 10 -->
      <g transform="translate(979 274.258491) scale(0.1 -0.1)">
       <use xlink:href="#Times New Roman-31"/>
       <use xlink:href="#Times New Roman-30" x="50"/>
      </g>
     </g>
    </g>
    <g id="ytick_9">
     <g id="line2d_21">
      <path d="M 135 221.346408 
L 972 221.346408 
" clip-path="url(#pc0218feb5c)" style="fill: none; stroke: #b0b0b0; stroke-width: 0.8; stroke-linecap: square"/>
     </g>
     <g id="line2d_22">
      <g>
       <use xlink:href="#m4b99666d0c" x="972" y="221.346408" style="stroke: #000000; stroke-width: 0.8"/>
      </g>
     </g>
     <g id="text_17">
      <!-- 15 -->
      <g transform="translate(979 224.920627) scale(0.1 -0.1)">
       <use xlink:href="#Times New Roman-31"/>
       <use xlink:href="#Times New Roman-35" x="50"/>
      </g>
     </g>
    </g>
    <g id="ytick_10">
     <g id="line2d_23">
      <path d="M 135 172.008544 
L 972 172.008544 
" clip-path="url(#pc0218feb5c)" style="fill: none; stroke: #b0b0b0; stroke-width: 0.8; stroke-linecap: square"/>
     </g>
     <g id="line2d_24">
      <g>
       <use xlink:href="#m4b99666d0c" x="972" y="172.008544" style="stroke: #000000; stroke-width: 0.8"/>
      </g>
     </g>
     <g id="text_18">
      <!-- 20 -->
      <g transform="translate(979 175.582763) scale(0.1 -0.1)">
       <use xlink:href="#Times New Roman-32"/>
       <use xlink:href="#Times New Roman-30" x="50"/>
      </g>
     </g>
    </g>
    <g id="ytick_11">
     <g id="line2d_25">
      <path d="M 135 122.67068 
L 972 122.67068 
" clip-path="url(#pc0218feb5c)" style="fill: none; stroke: #b0b0b0; stroke-width: 0.8; stroke-linecap: square"/>
     </g>
     <g id="line2d_26">
      <g>
       <use xlink:href="#m4b99666d0c" x="972" y="122.67068" style="stroke: #000000; stroke-width: 0.8"/>
      </g>
     </g>
     <g id="text_19">
      <!-- 25 -->
      <g transform="translate(979 126.244899) scale(0.1 -0.1)">
       <use xlink:href="#Times New Roman-32"/>
       <use xlink:href="#Times New Roman-35" x="50"/>
      </g>
     </g>
    </g>
    <g id="ytick_12">
     <g id="line2d_27">
      <path d="M 135 73.332816 
L 972 73.332816 
" clip-path="url(#pc0218feb5c)" style="fill: none; stroke: #b0b0b0; stroke-width: 0.8; stroke-linecap: square"/>
     </g>
     <g id="line2d_28">
      <g>
       <use xlink:href="#m4b99666d0c" x="972" y="73.332816" style="stroke: #000000; stroke-width: 0.8"/>
      </g>
     </g>
     <g id="text_20">
      <!-- 30 -->
      <g transform="translate(979 76.907035) scale(0.1 -0.1)">
       <use xlink:href="#Times New Roman-33"/>
       <use xlink:href="#Times New Roman-30" x="50"/>
      </g>
     </g>
    </g>
    <g id="text_21">
     <!-- buffer (s) -->
     <g transform="translate(1000.617188 243.16) rotate(-90) scale(0.1 -0.1)">
      <defs>
       <path id="Times New Roman-75" d="M 1450 325
Q 1750 325 1962 475 
Q 2175 625 2275 950 
L 2275 2525 
Q 2275 2625 2225 2687 
Q 2175 2750 2050 2750 
L 1900 2750 
L 1900 2900 
L 2050 2900 
Q 2200 2900 2325 2925 
Q 2450 2950 2575 3050 
L 2625 3050 
L 2625 600 
Q 2625 500 2687 450 
Q 2750 400 2850 400 
L 3000 400 
L 3000 250 
L 2850 250 
Q 2725 250 2600 212 
Q 2475 175 2325 100 
L 2275 100 
L 2275 625 
Q 2150 350 1900 212 
Q 1650 75 1325 75 
Q 925 75 725 300 
Q 525 525 525 1025 
L 525 2525 
Q 525 2625 475 2687 
Q 425 2750 300 2750 
L 150 2750 
L 150 2900 
L 300 2900 
Q 450 2900 575 2925 
Q 700 2950 825 3050 
L 875 3050 
L 875 975 
Q 875 625 1025 475 
Q 1175 325 1450 325 
z
" transform="scale(0.015625)"/>
       <path id="Times New Roman-66" d="M 1125 3325
Q 1125 3850 1450 4112 
Q 1775 4375 2175 4375 
Q 2600 4375 2812 4225 
Q 3025 4075 3025 3875 
Q 3025 3775 2975 3700 
Q 2925 3625 2775 3625 
Q 2675 3625 2612 3675 
Q 2550 3725 2550 3850 
Q 2550 3875 2575 3925 
Q 2575 3975 2575 4000 
Q 2575 4100 2500 4162 
Q 2425 4225 2150 4225 
Q 1850 4225 1662 4037 
Q 1475 3850 1475 3400 
L 1475 2900 
L 2525 2900 
L 2525 2750 
L 1475 2750 
L 1475 450 
Q 1475 350 1537 300 
Q 1600 250 1700 250 
L 2300 250 
L 2300 100 
L 475 100 
L 475 250 
L 900 250 
Q 1025 250 1075 300 
Q 1125 350 1125 450 
L 1125 2750 
L 350 2750 
L 350 2900 
L 1125 2900 
L 1125 3325 
z
" transform="scale(0.015625)"/>
      </defs>
      <use xlink:href="#Times New Roman-62"/>
      <use xlink:href="#Times New Roman-75" x="50"/>
      <use xlink:href="#Times New Roman-66" x="100"/>
      <use xlink:href="#Times New Roman-66" x="150"/>
      <use xlink:href="#Times New Roman-65" x="200"/>
      <use xlink:href="#Times New Roman-72" x="250"/>
      <use xlink:href="#Times New Roman-20" x="300"/>
      <use xlink:href="#Times New Roman-28" x="350"/>
      <use xlink:href="#Times New Roman-73" x="400"/>
      <use xlink:href="#Times New Roman-29" x="450"/>
     </g>
    </g>
   </g>
   <g id="line2d_29">
    <path d="M 173.045455 369.36 
L 174.313636 342.018594 
L 175.581818 323.186715 
L 176.85 278.790777 
L 178.118182 238.780875 
L 179.386364 212.746175 
L 181.922727 197.251426 
L 183.190909 193.546438 
L 183.190909 186.402685 
L 184.459091 181.194797 
L 185.727273 180.025937 
L 186.995455 178.65544 
L 188.263636 182.561356 
L 189.531818 183.31513 
L 189.531818 188.557278 
L 190.8 190.338922 
L 192.068182 188.968425 
L 192.068182 184.651362 
L 193.336364 177.045108 
L 194.604545 186.809893 
L 195.872727 192.394664 
L 197.140909 201.405677 
L 198.409091 195.341232 
L 200.945455 199.338514 
L 202.213636 203.804048 
L 203.481818 208.737834 
L 206.018182 209.742864 
L 207.286364 211.341775 
L 208.554545 215.864412 
L 209.822727 216.412612 
L 211.090909 217.303437 
L 212.359091 217.851636 
L 213.627273 209.148983 
L 214.895455 209.491605 
L 217.431818 207.435861 
L 218.7 208.149225 
L 219.968182 195.129512 
L 219.968182 172.31075 
L 221.236364 164.813429 
L 223.772727 160.976039 
L 225.040909 166.1154 
L 226.309091 159.26292 
L 227.577273 150.080597 
L 228.845455 139.116625 
L 230.113636 125.066828 
L 231.381818 109.717269 
L 231.381818 102.682056 
L 232.65 92.748168 
L 232.65 107.184061 
L 233.918182 95.866227 
L 236.454545 95.218197 
L 237.722727 75.163271 
L 238.990909 76.659216 
L 240.259091 76.21085 
L 241.527273 76.17954 
L 242.795455 76.665122 
L 244.063636 77.278071 
L 245.331818 77.72053 
L 246.6 77.509046 
L 247.868182 76.347897 
L 247.868182 75.799697 
L 249.136364 74.561746 
L 252.940909 76.674692 
L 252.940909 95.793411 
L 254.209091 96.617296 
L 254.209091 111.684647 
L 255.477273 106.316815 
L 255.477273 105.702279 
L 256.745455 99.623012 
L 256.745455 96.939095 
L 258.013636 96.939095 
L 258.013636 94.966613 
L 259.281818 89.59878 
L 260.55 90.827852 
L 266.890909 107.12076 
L 268.159091 123.222064 
L 268.159091 181.218732 
L 269.427273 175.467694 
L 269.427273 180.212972 
L 270.695455 186.239206 
L 270.695455 220.766286 
L 271.963636 183.110989 
L 271.963636 219.232633 
L 273.231818 179.982772 
L 273.231818 217.698981 
L 274.5 217.739588 
L 275.768182 257.070664 
L 277.036364 227.023805 
L 277.036364 202.952562 
L 277.036364 202.972865 
L 278.304545 199.4781 
L 278.304545 196.497271 
L 278.304545 196.517574 
L 279.572727 230.160717 
L 279.572727 227.179888 
L 280.840909 194.105245 
L 280.840909 194.125549 
L 282.109091 217.835135 
L 282.109091 273.908736 
L 283.377273 267.159042 
L 283.377273 260.854759 
L 283.377273 260.875063 
L 284.645455 254.125369 
L 284.645455 247.821087 
L 284.645455 247.84139 
L 285.913636 271.790811 
L 285.913636 234.787414 
L 285.913636 234.807717 
L 287.181818 228.503435 
L 287.181818 255.278868 
L 288.45 246.614287 
L 288.45 249.015193 
L 289.718182 234.026025 
L 289.718182 242.751517 
L 290.986364 242.792125 
L 290.986364 236.487842 
L 293.522727 236.569057 
L 294.790909 257.98433 
L 301.131818 258.288885 
L 335.372727 295.332894 
L 336.640909 332.356599 
L 337.909091 354.556832 
L 339.177273 336.466278 
L 340.445455 311.247945 
L 340.445455 300.331464 
L 341.713636 283.405835 
L 341.713636 291.72138 
L 342.981818 275.91499 
L 344.25 274.634779 
L 345.518182 254.613571 
L 346.786364 258.588009 
L 348.054545 255.783177 
L 349.322727 255.888307 
L 350.590909 258.9034 
L 353.127273 260.366558 
L 354.395455 261.516636 
L 355.663636 257.315583 
L 356.931818 253.570066 
L 356.931818 249.178282 
L 358.2 244.485577 
L 360.736364 247.769362 
L 362.004545 248.22259 
L 362.004545 260.633956 
L 363.272727 264.517029 
L 364.540909 266.709824 
L 364.540909 232.561626 
L 365.809091 211.136201 
L 367.077273 202.43355 
L 368.345455 231.008396 
L 374.686364 265.835487 
L 375.954545 255.145617 
L 377.222727 230.887834 
L 378.490909 211.619488 
L 378.490909 200.929617 
L 379.759091 185.100384 
L 382.295455 168.787867 
L 383.563636 144.804182 
L 384.831818 127.330357 
L 384.831818 120.135253 
L 387.368182 104.789651 
L 388.636364 98.553892 
L 391.172727 99.102091 
L 392.440909 101.702078 
L 393.709091 91.149262 
L 393.709091 85.122119 
L 394.977273 77.17324 
L 397.513636 77.866397 
L 398.781818 74.300069 
L 400.05 74.025974 
L 401.318182 73.332816 
L 403.854545 73.332816 
L 405.122727 84.376359 
L 405.122727 84.376359 
L 406.390909 92.210288 
L 406.390909 81.166745 
L 407.659091 81.166745 
L 407.659091 77.957132 
L 408.927273 79.371833 
L 408.927273 79.371833 
L 410.195455 74.747518 
L 410.195455 71.537904 
L 411.463636 71.537904 
L 411.463636 71.537904 
L 412.731818 73.332816 
L 412.731818 73.332816 
L 443.168182 73.332816 
L 479.945455 87.129141 
L 482.481818 112.117851 
L 485.018182 112.437633 
L 486.286364 113.762445 
L 487.554545 113.773626 
L 488.822727 114.321824 
L 491.359091 114.047726 
L 491.359091 112.769354 
L 492.627273 109.617214 
L 493.895455 101.694087 
L 495.163636 100.3797 
L 496.431818 94.726923 
L 497.7 96.278281 
L 498.968182 88.52718 
L 500.236364 85.300868 
L 502.772727 81.805063 
L 502.772727 83.023942 
L 504.040909 81.487259 
L 505.309091 77.718393 
L 506.577273 75.594124 
L 507.845455 75.529981 
L 509.113636 76.969004 
L 510.381818 76.098566 
L 511.65 74.929261 
L 512.918182 74.111343 
L 514.186364 74.442344 
L 515.454545 74.397381 
L 516.722727 73.474423 
L 517.990909 74.356483 
L 519.259091 76.183093 
L 520.527273 76.899271 
L 521.795455 75.329553 
L 523.063636 73.365174 
L 524.331818 73.293473 
L 524.331818 73.881003 
L 525.6 71.185693 
L 528.136364 72.076516 
L 529.404545 73.812478 
L 530.672727 76.279372 
L 531.940909 73.881005 
L 533.209091 72.716083 
L 534.477273 74.497728 
L 535.745455 74.326416 
L 537.013636 73.298546 
L 537.013636 71.311327 
L 538.281818 72.304939 
L 538.281818 72.065102 
L 539.55 72.818878 
L 543.354545 73.367073 
L 544.622727 74.155106 
L 545.890909 76.210847 
L 547.159091 74.429202 
L 547.159091 77.901127 
L 548.427273 78.129542 
L 552.231818 84.396608 
L 552.231818 99.243652 
L 553.5 103.766289 
L 553.5 108.965709 
L 554.768182 101.01683 
L 556.036364 100.879779 
L 556.036364 94.551474 
L 557.304545 93.132931 
L 558.572727 96.624152 
L 561.109091 102.236094 
L 567.45 114.642631 
L 568.718182 123.509901 
L 569.986364 127.467409 
L 571.254545 115.818191 
L 571.254545 111.569653 
L 572.522727 103.757824 
L 573.790909 100.674208 
L 575.059091 92.314181 
L 576.327273 95.244675 
L 577.595455 96.272547 
L 577.595455 99.150587 
L 578.863636 97.316488 
L 580.131818 96.768289 
L 582.668182 99.015578 
L 583.936364 103.094922 
L 585.204545 105.630341 
L 585.204545 120.359908 
L 586.472727 118.199258 
L 586.472727 131.218839 
L 587.740909 121.370606 
L 587.740909 130.707012 
L 589.009091 118.271868 
L 590.277273 111.590766 
L 591.545455 110.490285 
L 591.545455 122.612391 
L 592.813636 138.787706 
L 594.081818 159.01623 
L 595.35 164.950479 
L 595.35 166.375795 
L 596.618182 166.841763 
L 596.618182 163.758147 
L 597.886364 159.468493 
L 597.886364 161.140499 
L 599.154545 152.095222 
L 599.154545 158.522851 
L 600.422727 194.102595 
L 600.422727 205.285845 
L 601.690909 227.518619 
L 601.690909 194.076849 
L 602.959091 202.962653 
L 602.959091 182.867853 
L 604.227273 178.406687 
L 604.227273 171.658857 
L 605.495455 173.084173 
L 606.763636 180.395971 
L 609.3 184.67192 
L 628.322727 227.897369 
L 629.590909 266.846872 
L 630.859091 298.917235 
L 632.127273 275.755317 
L 634.663636 209.359702 
L 635.931818 187.4953 
L 635.931818 193.628317 
L 637.2 188.511218 
L 639.736364 181.047534 
L 641.004545 152.41044 
L 641.004545 146.334574 
L 642.272727 135.233554 
L 642.272727 141.30942 
L 643.540909 141.55754 
L 643.540909 140.461144 
L 644.809091 137.394093 
L 646.077273 132.316982 
L 647.345455 135.593621 
L 649.881818 139.389046 
L 651.15 144.582224 
L 652.418182 151.173158 
L 653.686364 160.540004 
L 654.954545 168.101853 
L 654.954545 177.69379 
L 656.222727 169.608631 
L 656.222727 168.441407 
L 657.490909 164.328384 
L 658.759091 164.187498 
L 663.831818 173.44065 
L 663.831818 184.955889 
L 665.1 195.375496 
L 665.1 194.484673 
L 666.368182 192.291878 
L 667.636364 192.154827 
L 671.440909 195.37741 
L 672.709091 200.311198 
L 673.977273 204.217114 
L 675.245455 203.187326 
L 677.781818 200.017222 
L 677.781818 200.911877 
L 679.05 198.582031 
L 680.318182 198.462943 
L 681.586364 197.088614 
L 682.854545 194.875942 
L 684.122727 193.054541 
L 686.659091 191.684044 
L 686.659091 190.607524 
L 687.927273 188.728587 
L 691.731818 178.921271 
L 694.268182 178.78165 
L 694.268182 172.682942 
L 695.536364 169.061967 
L 698.072727 166.052019 
L 698.072727 155.022095 
L 699.340909 152.966351 
L 701.877273 150.357266 
L 703.145455 155.288482 
L 704.413636 148.024849 
L 706.95 124.452313 
L 706.95 121.08215 
L 709.486364 108.542111 
L 710.754545 99.988958 
L 712.022727 95.179771 
L 713.290909 95.223399 
L 714.559091 91.705793 
L 715.827273 91.855291 
L 715.827273 90.052859 
L 717.095455 86.435852 
L 718.363636 87.754679 
L 719.631818 87.020755 
L 720.9 87.851088 
L 723.436364 86.486578 
L 724.704545 87.677333 
L 724.704545 90.326958 
L 725.972727 89.550343 
L 729.777273 92.008257 
L 729.777273 94.013828 
L 731.045455 95.110224 
L 731.045455 93.200511 
L 732.313636 91.560407 
L 733.581818 90.87516 
L 733.581818 89.778762 
L 734.85 85.530224 
L 737.386364 96.055635 
L 738.654545 102.771065 
L 738.654545 114.365461 
L 739.922727 110.199154 
L 739.922727 104.854219 
L 742.459091 96.521603 
L 746.263636 114.118775 
L 747.531818 126.769351 
L 747.531818 142.365596 
L 748.8 138.911945 
L 748.8 134.593984 
L 751.336364 127.686683 
L 756.409091 136.321408 
L 757.677273 143.230505 
L 757.677273 151.865829 
L 758.945455 150.768834 
L 761.481818 151.868078 
L 762.75 151.866881 
L 764.018182 155.567221 
L 765.286364 154.466181 
L 765.286364 159.403063 
L 766.554545 160.368601 
L 767.822727 162.570681 
L 769.090909 163.663984 
L 770.359091 165.713539 
L 771.627273 168.719347 
L 774.163636 172.48821 
L 774.163636 186.981206 
L 775.431818 188.077602 
L 775.431818 193.833686 
L 776.7 184.719887 
L 777.968182 184.856938 
L 777.968182 193.230671 
L 779.236364 203.50254 
L 780.504545 215.672546 
L 783.040909 199.719969 
L 786.845455 208.153089 
L 788.113636 218.057207 
L 789.381818 229.432325 
L 791.918182 230.437355 
L 793.186364 231.168288 
L 793.186364 233.817915 
L 794.454545 230.982975 
L 796.990909 232.421996 
L 798.259091 233.33566 
L 800.795455 234.778454 
L 803.331818 234.367305 
L 803.331818 240.056243 
L 804.6 237.58935 
L 804.6 237.203551 
L 805.868182 231.630078 
L 807.136364 229.30262 
L 809.672727 230.031042 
L 810.940909 233.95735 
L 812.209091 241.081544 
L 816.013636 245.926595 
L 816.013636 248.141495 
L 817.281818 248.826742 
L 818.55 247.544982 
L 818.55 248.406387 
L 819.818182 246.487694 
L 819.818182 245.385055 
L 821.086364 243.33145 
L 822.354545 244.149646 
L 827.427273 249.226724 
L 827.427273 254.599672 
L 828.695455 257.755914 
L 828.695455 257.390448 
L 829.963636 253.050544 
L 831.231818 251.341734 
L 832.5 246.910542 
L 833.768182 248.071313 
L 833.768182 250.73109 
L 835.036364 250.456911 
L 840.109091 253.270578 
L 841.377273 252.456661 
L 841.377273 253.688768 
L 842.645455 249.16613 
L 843.913636 218.949856 
L 845.181818 216.218744 
L 847.718182 215.256718 
L 848.986364 238.078947 
L 850.254545 227.791685 
L 852.790909 198.185013 
L 854.059091 186.124647 
L 855.327273 171.734436 
L 856.595455 152.412846 
L 857.863636 128.566211 
L 857.863636 120.981905 
L 859.131818 106.864484 
L 859.131818 134.592404 
L 860.4 112.033953 
L 860.4 107.268606 
L 861.668182 68.711904 
L 862.936364 71.682626 
L 864.204545 74.251878 
L 864.204545 75.279578 
L 865.472727 72.848895 
L 865.472727 72.335045 
L 866.740909 71.857407 
L 873.081818 73.227904 
L 874.35 72.236412 
L 874.35 73.332805 
L 875.618182 74.429205 
L 875.618182 75.371 
L 876.886364 74.376547 
L 878.154545 73.638635 
L 879.422727 71.11908 
L 880.690909 68.92713 
L 881.959091 67.54077 
L 883.227273 66.96 
L 883.227273 70.486432 
L 884.495455 70.417907 
L 884.495455 74.0704 
L 885.763636 74.185474 
L 887.031818 77.987303 
L 889.568182 78.390061 
L 889.568182 78.505135 
L 890.836364 76.838565 
L 895.909091 75.262494 
L 897.177273 72.990187 
L 898.445455 71.688213 
L 899.713636 69.426893 
L 903.518182 70.70882 
L 904.786364 73.389679 
L 904.786364 76.501732 
L 906.054545 75.768006 
L 908.590909 78.021977 
L 908.590909 83.441262 
L 909.859091 84.400608 
L 909.859091 85.221861 
L 911.127273 81.178898 
L 912.395455 80.630698 
L 916.2 85.359954 
L 917.468182 89.233693 
L 917.468182 101.982866 
L 918.736364 103.628196 
L 920.004545 105.818902 
L 922.540909 112.525375 
L 923.809091 116.088667 
L 925.077273 117.600407 
L 926.345455 120.072065 
L 927.613636 123.503642 
L 928.881818 124.551368 
L 930.15 126.646822 
L 931.418182 129.790003 
L 933.954545 128.877547 
L 933.954545 128.877547 
" clip-path="url(#pc0218feb5c)" style="fill: none; stroke: #1f77b4; stroke-width: 1.5; stroke-linecap: square"/>
   </g>
   <g id="patch_7">
    <path d="M 135 384.48 
L 135 51.84 
" style="fill: none; stroke: #000000; stroke-width: 0.8; stroke-linejoin: miter; stroke-linecap: square"/>
   </g>
   <g id="patch_8">
    <path d="M 972 384.48 
L 972 51.84 
" style="fill: none; stroke: #000000; stroke-width: 0.8; stroke-linejoin: miter; stroke-linecap: square"/>
   </g>
   <g id="patch_9">
    <path d="M 135 384.48 
L 972 384.48 
" style="fill: none; stroke: #000000; stroke-width: 0.8; stroke-linejoin: miter; stroke-linecap: square"/>
   </g>
   <g id="patch_10">
    <path d="M 135 51.84 
L 972 51.84 
" style="fill: none; stroke: #000000; stroke-width: 0.8; stroke-linejoin: miter; stroke-linecap: square"/>
   </g>
   <g id="text_22">
    <!-- ./pensieve/log_RL_6_wave -->
    <g transform="translate(481.5 45.84) scale(0.12 -0.12)">
     <defs>
      <path id="Times New Roman-2e" d="M 800 25
Q 650 25 537 125 
Q 425 225 425 400 
Q 425 575 537 675 
Q 650 775 800 775 
Q 950 775 1062 662 
Q 1175 550 1175 400 
Q 1175 225 1062 125 
Q 950 25 800 25 
z
" transform="scale(0.015625)"/>
      <path id="Times New Roman-2f" d="M 400 -475
L 225 -375 
L 2775 4975 
L 2950 4875 
L 400 -475 
z
" transform="scale(0.015625)"/>
      <path id="Times New Roman-6e" d="M 200 100
L 200 250 
L 325 250 
Q 450 250 500 300 
Q 550 350 550 450 
L 550 2600 
Q 550 2675 525 2712 
Q 500 2750 425 2750 
L 225 2750 
L 225 2900 
L 400 2900 
Q 525 2900 637 2925 
Q 750 2950 850 3025 
L 900 3025 
L 900 2450 
Q 1125 2700 1350 2825 
Q 1575 2950 1825 2950 
Q 2250 2950 2450 2725 
Q 2650 2500 2650 2050 
L 2650 450 
Q 2650 350 2712 300 
Q 2775 250 2875 250 
L 3000 250 
L 3000 100 
L 1950 100 
L 1950 250 
L 2075 250 
Q 2200 250 2250 300 
Q 2300 350 2300 450 
L 2300 2125 
Q 2300 2425 2175 2587 
Q 2050 2750 1800 2750 
Q 1575 2750 1337 2600 
Q 1100 2450 900 2175 
L 900 450 
Q 900 350 962 300 
Q 1025 250 1125 250 
L 1250 250 
L 1250 100 
L 200 100 
z
" transform="scale(0.015625)"/>
      <path id="Times New Roman-76" d="M 1625 75
L 1475 75 
L 625 2525 
Q 600 2625 525 2687 
Q 450 2750 350 2750 
L 225 2750 
L 225 2900 
L 1300 2900 
L 1300 2750 
L 1200 2750 
Q 1050 2750 1025 2700 
Q 1000 2650 1000 2600 
Q 1000 2500 1025 2425 
L 1625 675 
L 1675 675 
L 2275 2400 
Q 2325 2525 2325 2575 
Q 2325 2600 2275 2675 
Q 2225 2750 2075 2750 
L 2025 2750 
L 2025 2900 
L 2925 2900 
L 2925 2750 
L 2875 2750 
Q 2725 2750 2637 2662 
Q 2550 2575 2475 2400 
L 1625 75 
z
M 2600 2750 
L 2600 2750 
z
M 2400 2750 
L 2400 2750 
z
M 925 2750 
L 925 2750 
z
M 550 2750 
L 550 2750 
z
" transform="scale(0.015625)"/>
      <path id="Times New Roman-6c" d="M 925 4375
Q 1150 4375 1350 4425 
Q 1550 4475 1725 4575 
L 1775 4575 
L 1775 450 
Q 1775 350 1837 300 
Q 1900 250 2000 250 
L 2575 250 
L 2575 100 
L 625 100 
L 625 250 
L 1200 250 
Q 1325 250 1375 300 
Q 1425 350 1425 450 
L 1425 4025 
Q 1425 4125 1375 4175 
Q 1325 4225 1200 4225 
L 650 4225 
L 650 4375 
L 925 4375 
z
" transform="scale(0.015625)"/>
      <path id="Times New Roman-6f" d="M 2900 1500
Q 2900 875 2525 462 
Q 2150 50 1600 50 
Q 1025 50 662 475 
Q 300 900 300 1500 
Q 300 2050 662 2500 
Q 1025 2950 1600 2950 
Q 2200 2950 2550 2500 
Q 2900 2050 2900 1500 
z
M 700 1475 
Q 700 825 962 512 
Q 1225 200 1600 200 
Q 2025 200 2262 537 
Q 2500 875 2500 1475 
Q 2500 2125 2237 2462 
Q 1975 2800 1600 2800 
Q 1250 2800 975 2462 
Q 700 2125 700 1475 
z
" transform="scale(0.015625)"/>
      <path id="Times New Roman-67" d="M 875 1975
Q 875 1675 1050 1462 
Q 1225 1250 1525 1250 
Q 1850 1250 2012 1437 
Q 2175 1625 2175 1975 
Q 2175 2400 1987 2587 
Q 1800 2775 1525 2775 
Q 1250 2775 1062 2587 
Q 875 2400 875 1975 
z
M 2100 625 
Q 2475 575 2650 412 
Q 2825 250 2825 -25 
Q 2825 -400 2512 -625 
Q 2200 -850 1525 -850 
Q 1000 -850 675 -637 
Q 350 -425 350 -150 
Q 350 25 475 200 
Q 600 375 875 475 
Q 725 550 637 637 
Q 550 725 550 850 
Q 550 1000 650 1112 
Q 750 1225 900 1300 
Q 750 1425 637 1600 
Q 525 1775 525 1975 
Q 525 2350 787 2637 
Q 1050 2925 1525 2925 
Q 1725 2925 1912 2875 
Q 2100 2825 2225 2700 
Q 2400 2825 2537 2887 
Q 2675 2950 2775 2950 
Q 2900 2950 2950 2862 
Q 3000 2775 3000 2700 
Q 3000 2600 2962 2537 
Q 2925 2475 2825 2475 
Q 2750 2475 2700 2512 
Q 2650 2550 2625 2625 
Q 2600 2700 2512 2687 
Q 2425 2675 2325 2600 
Q 2425 2500 2475 2325 
Q 2525 2150 2525 1975 
Q 2525 1675 2287 1387 
Q 2050 1100 1525 1100 
Q 1375 1100 1250 1137 
Q 1125 1175 1050 1225 
Q 950 1175 900 1100 
Q 850 1025 850 975 
Q 850 875 900 825 
Q 950 775 1050 775 
Q 1375 725 1637 687 
Q 1900 650 2100 625 
z
M 1075 425 
Q 850 325 762 187 
Q 675 50 675 -150 
Q 675 -350 900 -525 
Q 1125 -700 1575 -700 
Q 2000 -700 2250 -562 
Q 2500 -425 2500 -150 
Q 2500 25 2437 125 
Q 2375 225 2250 250 
Q 2000 300 1700 350 
Q 1400 375 1075 425 
z
" transform="scale(0.015625)"/>
      <path id="Times New Roman-5f" d="M 0 -875
L 0 -725 
L 3175 -725 
L 3175 -875 
L 0 -875 
z
" transform="scale(0.015625)"/>
      <path id="Times New Roman-52" d="M 2825 3375
Q 2825 2875 2550 2600 
Q 2275 2325 1925 2275 
L 2675 425 
Q 2725 325 2787 287 
Q 2850 250 2925 250 
L 3075 250 
L 3075 100 
L 2375 100 
L 1550 2250 
L 975 2250 
L 975 450 
Q 975 350 1037 300 
Q 1100 250 1200 250 
L 1350 250 
L 1350 100 
L 200 100 
L 200 250 
L 350 250 
Q 475 250 525 300 
Q 575 350 575 450 
L 575 4025 
Q 575 4125 525 4175 
Q 475 4225 350 4225 
L 200 4225 
L 200 4375 
L 1625 4375 
Q 2200 4375 2512 4125 
Q 2825 3875 2825 3375 
z
M 2750 250 
L 2750 250 
z
M 975 2400 
L 1525 2400 
Q 1900 2400 2150 2625 
Q 2400 2850 2400 3325 
Q 2400 3750 2175 3987 
Q 1950 4225 1475 4225 
L 1200 4225 
Q 1100 4225 1037 4175 
Q 975 4125 975 4025 
L 975 2400 
z
" transform="scale(0.015625)"/>
      <path id="Times New Roman-4c" d="M 1000 450
Q 1000 350 1062 300 
Q 1125 250 1225 250 
L 1900 250 
Q 2250 250 2500 462 
Q 2750 675 2875 1125 
L 3000 1075 
L 2775 100 
L 200 100 
L 200 250 
L 375 250 
Q 500 250 550 300 
Q 600 350 600 450 
L 600 4025 
Q 600 4125 550 4175 
Q 500 4225 375 4225 
L 225 4225 
L 225 4375 
L 1400 4375 
L 1400 4225 
L 1225 4225 
Q 1125 4225 1062 4175 
Q 1000 4125 1000 4025 
L 1000 450 
z
" transform="scale(0.015625)"/>
      <path id="Times New Roman-77" d="M 2325 2900
L 3175 2900 
L 3175 2750 
L 3075 2750 
Q 2975 2750 2900 2675 
Q 2825 2600 2775 2425 
L 2175 75 
L 2025 75 
L 1575 1975 
L 1100 75 
L 950 75 
L 375 2375 
Q 350 2550 275 2650 
Q 200 2750 125 2750 
L 25 2750 
L 25 2900 
L 925 2900 
L 925 2750 
L 825 2750 
Q 725 2750 700 2662 
Q 675 2575 700 2425 
L 1075 800 
L 1125 800 
L 1500 2300 
Q 1475 2525 1400 2637 
Q 1325 2750 1225 2750 
L 1150 2750 
L 1150 2900 
L 2000 2900 
L 2000 2750 
L 1925 2750 
Q 1825 2750 1800 2662 
Q 1775 2575 1800 2425 
L 2175 800 
L 2200 800 
L 2625 2550 
Q 2650 2650 2600 2700 
Q 2550 2750 2450 2750 
L 2325 2750 
L 2325 2900 
z
M 1725 2750 
L 1725 2750 
z
M 625 2750 
L 625 2750 
z
M 275 2750 
L 275 2750 
z
M 2875 2750 
L 2875 2750 
z
M 2675 2750 
L 2675 2750 
z
" transform="scale(0.015625)"/>
     </defs>
     <use xlink:href="#Times New Roman-2e"/>
     <use xlink:href="#Times New Roman-2f" x="50"/>
     <use xlink:href="#Times New Roman-70" x="100"/>
     <use xlink:href="#Times New Roman-65" x="150"/>
     <use xlink:href="#Times New Roman-6e" x="200"/>
     <use xlink:href="#Times New Roman-73" x="250"/>
     <use xlink:href="#Times New Roman-69" x="300"/>
     <use xlink:href="#Times New Roman-65" x="350"/>
     <use xlink:href="#Times New Roman-76" x="400"/>
     <use xlink:href="#Times New Roman-65" x="450"/>
     <use xlink:href="#Times New Roman-2f" x="500"/>
     <use xlink:href="#Times New Roman-6c" x="550"/>
     <use xlink:href="#Times New Roman-6f" x="600"/>
     <use xlink:href="#Times New Roman-67" x="650"/>
     <use xlink:href="#Times New Roman-5f" x="700"/>
     <use xlink:href="#Times New Roman-52" x="750"/>
     <use xlink:href="#Times New Roman-4c" x="800"/>
     <use xlink:href="#Times New Roman-5f" x="850"/>
     <use xlink:href="#Times New Roman-36" x="900"/>
     <use xlink:href="#Times New Roman-5f" x="950"/>
     <use xlink:href="#Times New Roman-77" x="1000"/>
     <use xlink:href="#Times New Roman-61" x="1050"/>
     <use xlink:href="#Times New Roman-76" x="1100"/>
     <use xlink:href="#Times New Roman-65" x="1150"/>
    </g>
   </g>
   <g id="legend_1">
    <g id="patch_11">
     <path d="M 142 73.2775 
L 204 73.2775 
Q 206 73.2775 206 71.2775 
L 206 58.84 
Q 206 56.84 204 56.84 
L 142 56.84 
Q 140 56.84 140 58.84 
L 140 71.2775 
Q 140 73.2775 142 73.2775 
z
" style="fill: #ffffff; opacity: 0.8; stroke: #cccccc; stroke-linejoin: miter"/>
    </g>
    <g id="line2d_30">
     <path d="M 144 64.488437 
L 154 64.488437 
L 164 64.488437 
" style="fill: none; stroke: #1f77b4; stroke-width: 1.5; stroke-linecap: square"/>
    </g>
    <g id="text_23">
     <!-- buffer -->
     <g transform="translate(172 67.988437) scale(0.1 -0.1)">
      <use xlink:href="#Times New Roman-62"/>
      <use xlink:href="#Times New Roman-75" x="50"/>
      <use xlink:href="#Times New Roman-66" x="100"/>
      <use xlink:href="#Times New Roman-66" x="150"/>
      <use xlink:href="#Times New Roman-65" x="200"/>
      <use xlink:href="#Times New Roman-72" x="250"/>
     </g>
    </g>
   </g>
  </g>
 </g>
 <defs>
  <clipPath id="pc0218feb5c">
   <rect x="135" y="51.84" width="837" height="332.64"/>
  </clipPath>
 </defs>
</svg>
