<?xml version="1.0" encoding="utf-8" standalone="no"?>
<!DOCTYPE svg PUBLIC "-//W3C//DTD SVG 1.1//EN"
  "http://www.w3.org/Graphics/SVG/1.1/DTD/svg11.dtd">
<svg xmlns:xlink="http://www.w3.org/1999/xlink" width="1080pt" height="432pt" viewBox="0 0 1080 432" xmlns="http://www.w3.org/2000/svg" version="1.1">
 <metadata>
  <rdf:RDF xmlns:dc="http://purl.org/dc/elements/1.1/" xmlns:cc="http://creativecommons.org/ns#" xmlns:rdf="http://www.w3.org/1999/02/22-rdf-syntax-ns#">
   <cc:Work>
    <dc:type rdf:resource="http://purl.org/dc/dcmitype/StillImage"/>
    <dc:date>2024-04-12T06:17:43.424153</dc:date>
    <dc:format>image/svg+xml</dc:format>
    <dc:creator>
     <cc:Agent>
      <dc:title>Matplotlib v3.8.3, https://matplotlib.org/</dc:title>
     </cc:Agent>
    </dc:creator>
   </cc:Work>
  </rdf:RDF>
 </metadata>
 <defs>
  <style type="text/css">*{stroke-linejoin: round; stroke-linecap: butt}</style>
 </defs>
 <g id="figure_1">
  <g id="patch_1">
   <path d="M 0 432 
L 1080 432 
L 1080 0 
L 0 0 
z
" style="fill: #ffffff"/>
  </g>
  <g id="axes_1">
   <g id="patch_2">
    <path d="M 135 384.48 
L 972 384.48 
L 972 51.84 
L 135 51.84 
z
" style="fill: #ffffff"/>
   </g>
   <g id="matplotlib.axis_1">
    <g id="xtick_1">
     <g id="line2d_1">
      <defs>
       <path id="m128e4fd3e4" d="M 0 0 
L 0 3.5 
" style="stroke: #000000; stroke-width: 0.8"/>
      </defs>
      <g>
       <use xlink:href="#m128e4fd3e4" x="173.045455" y="384.48" style="stroke: #000000; stroke-width: 0.8"/>
      </g>
     </g>
     <g id="text_1">
      <!-- 0 -->
      <g transform="translate(170.545455 398.628438) scale(0.1 -0.1)">
       <defs>
        <path id="Times New Roman-30" d="M 1600 4225
Q 1250 4225 1012 3687 
Q 775 3150 775 2250 
Q 775 1300 1012 775 
Q 1250 250 1600 250 
Q 1975 250 2187 775 
Q 2400 1300 2400 2250 
Q 2400 3150 2200 3687 
Q 2000 4225 1600 4225 
z
M 1600 50 
Q 1050 50 675 625 
Q 300 1200 300 2250 
Q 300 3225 662 3825 
Q 1025 4425 1600 4425 
Q 2150 4425 2512 3850 
Q 2875 3275 2875 2250 
Q 2875 1225 2512 637 
Q 2150 50 1600 50 
z
" transform="scale(0.015625)"/>
       </defs>
       <use xlink:href="#Times New Roman-30"/>
      </g>
     </g>
    </g>
    <g id="xtick_2">
     <g id="line2d_2">
      <g>
       <use xlink:href="#m128e4fd3e4" x="299.863636" y="384.48" style="stroke: #000000; stroke-width: 0.8"/>
      </g>
     </g>
     <g id="text_2">
      <!-- 100 -->
      <g transform="translate(292.363636 398.628438) scale(0.1 -0.1)">
       <defs>
        <path id="Times New Roman-31" d="M 1825 4450
L 1825 650 
Q 1825 450 1950 350 
Q 2075 250 2300 250 
L 2550 250 
L 2550 100 
L 725 100 
L 725 250 
L 950 250 
Q 1200 250 1312 350 
Q 1425 450 1425 650 
L 1425 3675 
Q 1425 3775 1362 3837 
Q 1300 3900 1175 3900 
L 725 3900 
L 725 4050 
L 950 4050 
Q 1250 4050 1437 4150 
Q 1625 4250 1725 4450 
L 1825 4450 
z
" transform="scale(0.015625)"/>
       </defs>
       <use xlink:href="#Times New Roman-31"/>
       <use xlink:href="#Times New Roman-30" x="50"/>
       <use xlink:href="#Times New Roman-30" x="100"/>
      </g>
     </g>
    </g>
    <g id="xtick_3">
     <g id="line2d_3">
      <g>
       <use xlink:href="#m128e4fd3e4" x="426.681818" y="384.48" style="stroke: #000000; stroke-width: 0.8"/>
      </g>
     </g>
     <g id="text_3">
      <!-- 200 -->
      <g transform="translate(419.181818 398.628438) scale(0.1 -0.1)">
       <defs>
        <path id="Times New Roman-32" d="M 2325 3325
Q 2325 3775 2125 4012 
Q 1925 4250 1525 4250 
Q 1225 4250 1012 4087 
Q 800 3925 800 3675 
Q 800 3525 900 3425 
Q 975 3325 975 3225 
Q 975 3100 912 3037 
Q 850 2975 725 2975 
Q 575 2975 487 3062 
Q 400 3150 400 3350 
Q 400 3875 775 4150 
Q 1150 4425 1575 4425 
Q 2175 4425 2462 4125 
Q 2750 3825 2750 3375 
Q 2750 3075 2612 2775 
Q 2475 2475 2175 2200 
Q 1450 1500 1062 1062 
Q 675 625 600 475 
L 2075 475 
Q 2300 475 2450 650 
Q 2600 825 2650 1175 
L 2800 1175 
L 2650 100 
L 325 100 
L 325 425 
Q 450 650 737 1000 
Q 1025 1350 1500 1825 
Q 1925 2250 2125 2625 
Q 2325 3000 2325 3325 
z
" transform="scale(0.015625)"/>
       </defs>
       <use xlink:href="#Times New Roman-32"/>
       <use xlink:href="#Times New Roman-30" x="50"/>
       <use xlink:href="#Times New Roman-30" x="100"/>
      </g>
     </g>
    </g>
    <g id="xtick_4">
     <g id="line2d_4">
      <g>
       <use xlink:href="#m128e4fd3e4" x="553.5" y="384.48" style="stroke: #000000; stroke-width: 0.8"/>
      </g>
     </g>
     <g id="text_4">
      <!-- 300 -->
      <g transform="translate(546 398.628438) scale(0.1 -0.1)">
       <defs>
        <path id="Times New Roman-33" d="M 2800 1250
Q 2800 775 2450 412 
Q 2100 50 1475 50 
Q 1025 50 700 300 
Q 375 550 375 875 
Q 375 1025 475 1137 
Q 575 1250 675 1250 
Q 825 1250 887 1137 
Q 950 1025 950 950 
Q 950 825 900 750 
Q 850 650 850 575 
Q 850 425 1037 325 
Q 1225 225 1450 225 
Q 1900 225 2125 487 
Q 2350 750 2350 1300 
Q 2350 1750 2112 2025 
Q 1875 2300 1225 2300 
L 1225 2475 
Q 1725 2475 1962 2712 
Q 2200 2950 2200 3375 
Q 2200 3725 2012 3987 
Q 1825 4250 1425 4250 
Q 1250 4250 1050 4162 
Q 850 4075 850 3875 
Q 850 3675 900 3625 
Q 950 3575 950 3500 
Q 950 3375 900 3300 
Q 850 3225 725 3225 
Q 625 3225 537 3300 
Q 450 3375 450 3575 
Q 450 3950 775 4187 
Q 1100 4425 1525 4425 
Q 2025 4425 2325 4112 
Q 2625 3800 2625 3450 
Q 2625 3075 2437 2812 
Q 2250 2550 1850 2425 
Q 2400 2225 2600 1900 
Q 2800 1575 2800 1250 
z
" transform="scale(0.015625)"/>
       </defs>
       <use xlink:href="#Times New Roman-33"/>
       <use xlink:href="#Times New Roman-30" x="50"/>
       <use xlink:href="#Times New Roman-30" x="100"/>
      </g>
     </g>
    </g>
    <g id="xtick_5">
     <g id="line2d_5">
      <g>
       <use xlink:href="#m128e4fd3e4" x="680.318182" y="384.48" style="stroke: #000000; stroke-width: 0.8"/>
      </g>
     </g>
     <g id="text_5">
      <!-- 400 -->
      <g transform="translate(672.818182 398.628438) scale(0.1 -0.1)">
       <defs>
        <path id="Times New Roman-34" d="M 2300 575
Q 2300 400 2400 325 
Q 2500 250 2675 250 
L 2900 250 
L 2900 100 
L 1250 100 
L 1250 250 
L 1525 250 
Q 1725 250 1812 325 
Q 1900 400 1900 575 
L 1900 1400 
L 225 1400 
L 225 1525 
L 2050 4425 
L 2300 4425 
L 2300 1550 
L 2975 1550 
L 2975 1400 
L 2300 1400 
L 2300 575 
z
M 1875 3800 
L 450 1550 
L 1900 1550 
L 1900 3800 
L 1875 3800 
z
" transform="scale(0.015625)"/>
       </defs>
       <use xlink:href="#Times New Roman-34"/>
       <use xlink:href="#Times New Roman-30" x="50"/>
       <use xlink:href="#Times New Roman-30" x="100"/>
      </g>
     </g>
    </g>
    <g id="xtick_6">
     <g id="line2d_6">
      <g>
       <use xlink:href="#m128e4fd3e4" x="807.136364" y="384.48" style="stroke: #000000; stroke-width: 0.8"/>
      </g>
     </g>
     <g id="text_6">
      <!-- 500 -->
      <g transform="translate(799.636364 398.628438) scale(0.1 -0.1)">
       <defs>
        <path id="Times New Roman-35" d="M 1725 2850
Q 2200 2850 2500 2487 
Q 2800 2125 2800 1525 
Q 2800 850 2487 450 
Q 2175 50 1525 50 
Q 1075 50 725 312 
Q 375 575 375 950 
Q 375 1100 462 1212 
Q 550 1325 700 1325 
Q 850 1325 900 1225 
Q 950 1125 950 1050 
Q 950 900 875 825 
Q 800 725 800 625 
Q 800 425 1037 325 
Q 1275 225 1550 225 
Q 1950 225 2162 550 
Q 2375 875 2375 1475 
Q 2375 1975 2187 2287 
Q 2000 2600 1625 2600 
Q 1350 2600 1150 2500 
Q 950 2400 775 2075 
L 550 2100 
L 675 4375 
L 2725 4375 
L 2650 4000 
L 850 4000 
L 750 2350 
Q 1000 2700 1237 2775 
Q 1475 2850 1725 2850 
z
" transform="scale(0.015625)"/>
       </defs>
       <use xlink:href="#Times New Roman-35"/>
       <use xlink:href="#Times New Roman-30" x="50"/>
       <use xlink:href="#Times New Roman-30" x="100"/>
      </g>
     </g>
    </g>
    <g id="xtick_7">
     <g id="line2d_7">
      <g>
       <use xlink:href="#m128e4fd3e4" x="933.954545" y="384.48" style="stroke: #000000; stroke-width: 0.8"/>
      </g>
     </g>
     <g id="text_7">
      <!-- 600 -->
      <g transform="translate(926.454545 398.628438) scale(0.1 -0.1)">
       <defs>
        <path id="Times New Roman-36" d="M 775 1800
Q 775 1050 1037 637 
Q 1300 225 1675 225 
Q 2050 225 2250 500 
Q 2450 775 2450 1525 
Q 2450 2025 2237 2300 
Q 2025 2575 1725 2575 
Q 1450 2575 1212 2412 
Q 975 2250 775 1800 
z
M 1750 2825 
Q 2350 2825 2612 2425 
Q 2875 2025 2875 1525 
Q 2875 775 2512 412 
Q 2150 50 1675 50 
Q 1000 50 650 562 
Q 300 1075 300 2050 
Q 300 3200 725 3812 
Q 1150 4425 1875 4425 
Q 2225 4425 2437 4225 
Q 2650 4025 2650 3875 
Q 2650 3725 2587 3650 
Q 2525 3575 2375 3575 
Q 2250 3575 2187 3637 
Q 2125 3700 2125 3825 
Q 2125 3875 2150 3925 
Q 2150 3975 2150 4025 
Q 2150 4125 2075 4187 
Q 2000 4250 1800 4250 
Q 1375 4250 1075 3862 
Q 775 3475 775 2175 
Q 925 2500 1187 2662 
Q 1450 2825 1750 2825 
z
" transform="scale(0.015625)"/>
       </defs>
       <use xlink:href="#Times New Roman-36"/>
       <use xlink:href="#Times New Roman-30" x="50"/>
       <use xlink:href="#Times New Roman-30" x="100"/>
      </g>
     </g>
    </g>
   </g>
   <g id="matplotlib.axis_2">
    <g id="ytick_1">
     <g id="line2d_8">
      <defs>
       <path id="m44eebb392d" d="M 0 0 
L -3.5 0 
" style="stroke: #000000; stroke-width: 0.8"/>
      </defs>
      <g>
       <use xlink:href="#m44eebb392d" x="135" y="371.163528" style="stroke: #000000; stroke-width: 0.8"/>
      </g>
     </g>
     <g id="text_8">
      <!-- 0 -->
      <g transform="translate(123 374.737747) scale(0.1 -0.1)">
       <use xlink:href="#Times New Roman-30"/>
      </g>
     </g>
    </g>
    <g id="ytick_2">
     <g id="line2d_9">
      <g>
       <use xlink:href="#m44eebb392d" x="135" y="307.65902" style="stroke: #000000; stroke-width: 0.8"/>
      </g>
     </g>
     <g id="text_9">
      <!-- 1000 -->
      <g transform="translate(108 311.233239) scale(0.1 -0.1)">
       <use xlink:href="#Times New Roman-31"/>
       <use xlink:href="#Times New Roman-30" x="50"/>
       <use xlink:href="#Times New Roman-30" x="100"/>
       <use xlink:href="#Times New Roman-30" x="150"/>
      </g>
     </g>
    </g>
    <g id="ytick_3">
     <g id="line2d_10">
      <g>
       <use xlink:href="#m44eebb392d" x="135" y="244.154512" style="stroke: #000000; stroke-width: 0.8"/>
      </g>
     </g>
     <g id="text_10">
      <!-- 2000 -->
      <g transform="translate(108 247.728731) scale(0.1 -0.1)">
       <use xlink:href="#Times New Roman-32"/>
       <use xlink:href="#Times New Roman-30" x="50"/>
       <use xlink:href="#Times New Roman-30" x="100"/>
       <use xlink:href="#Times New Roman-30" x="150"/>
      </g>
     </g>
    </g>
    <g id="ytick_4">
     <g id="line2d_11">
      <g>
       <use xlink:href="#m44eebb392d" x="135" y="180.650004" style="stroke: #000000; stroke-width: 0.8"/>
      </g>
     </g>
     <g id="text_11">
      <!-- 3000 -->
      <g transform="translate(108 184.224223) scale(0.1 -0.1)">
       <use xlink:href="#Times New Roman-33"/>
       <use xlink:href="#Times New Roman-30" x="50"/>
       <use xlink:href="#Times New Roman-30" x="100"/>
       <use xlink:href="#Times New Roman-30" x="150"/>
      </g>
     </g>
    </g>
    <g id="ytick_5">
     <g id="line2d_12">
      <g>
       <use xlink:href="#m44eebb392d" x="135" y="117.145496" style="stroke: #000000; stroke-width: 0.8"/>
      </g>
     </g>
     <g id="text_12">
      <!-- 4000 -->
      <g transform="translate(108 120.719715) scale(0.1 -0.1)">
       <use xlink:href="#Times New Roman-34"/>
       <use xlink:href="#Times New Roman-30" x="50"/>
       <use xlink:href="#Times New Roman-30" x="100"/>
       <use xlink:href="#Times New Roman-30" x="150"/>
      </g>
     </g>
    </g>
    <g id="ytick_6">
     <g id="line2d_13">
      <g>
       <use xlink:href="#m44eebb392d" x="135" y="53.640988" style="stroke: #000000; stroke-width: 0.8"/>
      </g>
     </g>
     <g id="text_13">
      <!-- 5000 -->
      <g transform="translate(108 57.215207) scale(0.1 -0.1)">
       <use xlink:href="#Times New Roman-35"/>
       <use xlink:href="#Times New Roman-30" x="50"/>
       <use xlink:href="#Times New Roman-30" x="100"/>
       <use xlink:href="#Times New Roman-30" x="150"/>
      </g>
     </g>
    </g>
    <g id="text_14">
     <!-- Bitrate (kbps) -->
     <g transform="translate(102.710938 253.16) rotate(-90) scale(0.1 -0.1)">
      <defs>
       <path id="Times New Roman-42" d="M 100 100
L 100 250 
L 300 250 
Q 425 250 475 300 
Q 525 350 525 450 
L 525 4025 
Q 525 4125 475 4175 
Q 425 4225 300 4225 
L 150 4225 
L 150 4375 
L 1600 4375 
Q 2200 4375 2487 4137 
Q 2775 3900 2775 3400 
Q 2775 3050 2625 2825 
Q 2475 2600 2000 2425 
Q 2575 2250 2775 1925 
Q 2975 1600 2975 1200 
Q 2975 700 2625 400 
Q 2275 100 1675 100 
L 100 100 
z
M 1600 250 
Q 2025 250 2262 512 
Q 2500 775 2500 1250 
Q 2500 1800 2250 2062 
Q 2000 2325 1500 2325 
L 925 2325 
L 925 450 
Q 925 350 987 300 
Q 1050 250 1150 250 
L 1600 250 
z
M 2350 3400 
Q 2350 3850 2100 4037 
Q 1850 4225 1450 4225 
L 1150 4225 
Q 1050 4225 987 4175 
Q 925 4125 925 4025 
L 925 2475 
L 1575 2475 
Q 1850 2475 2100 2700 
Q 2350 2925 2350 3400 
z
" transform="scale(0.015625)"/>
       <path id="Times New Roman-69" d="M 1425 2525
Q 1425 2625 1375 2687 
Q 1325 2750 1200 2750 
L 675 2750 
L 675 2900 
L 925 2900 
Q 1150 2900 1350 2937 
Q 1550 2975 1725 3075 
L 1775 3075 
L 1775 450 
Q 1775 350 1837 300 
Q 1900 250 2000 250 
L 2525 250 
L 2525 100 
L 675 100 
L 675 250 
L 1200 250 
Q 1325 250 1375 300 
Q 1425 350 1425 450 
L 1425 2525 
z
M 1725 3025 
L 1725 3025 
z
M 1625 4425 
Q 1750 4425 1850 4337 
Q 1950 4250 1950 4125 
Q 1950 4000 1850 3900 
Q 1750 3800 1625 3800 
Q 1500 3800 1400 3900 
Q 1300 4000 1300 4125 
Q 1300 4250 1400 4337 
Q 1500 4425 1625 4425 
z
" transform="scale(0.015625)"/>
       <path id="Times New Roman-74" d="M 1500 900
Q 1500 550 1625 425 
Q 1750 300 2000 300 
Q 2250 300 2400 462 
Q 2550 625 2600 925 
L 2725 875 
Q 2675 525 2462 300 
Q 2250 75 1900 75 
Q 1525 75 1337 300 
Q 1150 525 1150 1000 
L 1150 2750 
L 400 2750 
L 400 2900 
L 600 2900 
Q 900 2900 1087 3087 
Q 1275 3275 1325 3675 
L 1350 3875 
L 1500 3875 
L 1500 2900 
L 2500 2900 
L 2500 2750 
L 1500 2750 
L 1500 900 
z
" transform="scale(0.015625)"/>
       <path id="Times New Roman-72" d="M 1275 2125
Q 1525 2525 1812 2737 
Q 2100 2950 2400 2950 
Q 2650 2950 2787 2837 
Q 2925 2725 2925 2575 
Q 2925 2450 2862 2375 
Q 2800 2300 2675 2300 
Q 2550 2300 2487 2375 
Q 2425 2450 2450 2575 
Q 2450 2650 2425 2700 
Q 2400 2750 2275 2750 
Q 2075 2750 1787 2500 
Q 1500 2250 1275 1800 
L 1275 450 
Q 1275 350 1337 300 
Q 1400 250 1500 250 
L 2050 250 
L 2050 100 
L 200 100 
L 200 250 
L 700 250 
Q 825 250 875 300 
Q 925 350 925 450 
L 925 2525 
Q 925 2625 875 2687 
Q 825 2750 700 2750 
L 225 2750 
L 225 2900 
L 425 2900 
Q 600 2900 837 2937 
Q 1075 2975 1200 3025 
L 1275 3025 
L 1275 2125 
z
" transform="scale(0.015625)"/>
       <path id="Times New Roman-61" d="M 1225 75
Q 775 75 525 287 
Q 275 500 275 775 
Q 275 1225 662 1512 
Q 1050 1800 2200 1925 
L 2200 2225 
Q 2200 2475 2087 2637 
Q 1975 2800 1575 2800 
Q 1150 2800 975 2662 
Q 800 2525 850 2375 
Q 875 2325 875 2275 
Q 875 2225 837 2150 
Q 800 2075 650 2075 
Q 550 2075 487 2137 
Q 425 2200 425 2325 
Q 425 2550 750 2750 
Q 1075 2950 1550 2950 
Q 2050 2950 2300 2762 
Q 2550 2575 2550 2225 
L 2550 575 
Q 2550 375 2587 337 
Q 2625 300 2725 300 
Q 2850 300 2900 412 
Q 2950 525 2950 725 
L 3075 725 
Q 3075 375 2950 237 
Q 2825 100 2625 100 
Q 2450 100 2350 175 
Q 2250 250 2200 425 
Q 1950 250 1737 162 
Q 1525 75 1225 75 
z
M 700 850 
Q 700 625 837 437 
Q 975 250 1275 250 
Q 1500 250 1725 337 
Q 1950 425 2200 600 
L 2200 1775 
Q 1350 1675 1025 1437 
Q 700 1200 700 850 
z
" transform="scale(0.015625)"/>
       <path id="Times New Roman-65" d="M 2400 1650
Q 2425 2200 2212 2487 
Q 2000 2775 1650 2775 
Q 1275 2775 1037 2475 
Q 800 2175 800 1650 
L 2400 1650 
z
M 800 1500 
Q 800 825 1062 537 
Q 1325 250 1750 250 
Q 2075 250 2300 437 
Q 2525 625 2625 900 
L 2750 850 
Q 2675 575 2412 312 
Q 2150 50 1700 50 
Q 1125 50 762 425 
Q 400 800 400 1500 
Q 400 2125 762 2537 
Q 1125 2950 1650 2950 
Q 2125 2950 2475 2625 
Q 2825 2300 2825 1500 
L 800 1500 
z
" transform="scale(0.015625)"/>
       <path id="Times New Roman-20" d="M 0 0
Q 0 0 0 0 
z
" transform="scale(0.015625)"/>
       <path id="Times New Roman-28" d="M 2900 5025
Q 2325 4425 2037 3737 
Q 1750 3050 1750 2300 
Q 1750 1525 2037 850 
Q 2325 175 2900 -425 
L 2775 -550 
Q 2075 75 1725 787 
Q 1375 1500 1375 2300 
Q 1375 3075 1725 3787 
Q 2075 4500 2775 5150 
L 2900 5025 
z
" transform="scale(0.015625)"/>
       <path id="Times New Roman-6b" d="M 1675 1900
L 2625 425 
Q 2700 325 2762 287 
Q 2825 250 2900 250 
L 3000 250 
L 3000 100 
L 1975 100 
L 1975 250 
L 2050 250 
Q 2175 250 2225 287 
Q 2275 325 2200 425 
L 1425 1650 
L 925 1125 
L 925 450 
Q 925 350 987 300 
Q 1050 250 1150 250 
L 1275 250 
L 1275 100 
L 225 100 
L 225 250 
L 350 250 
Q 475 250 525 300 
Q 575 350 575 450 
L 575 4025 
Q 575 4125 525 4175 
Q 475 4225 350 4225 
L 200 4225 
L 200 4375 
L 425 4375 
Q 575 4375 687 4425 
Q 800 4475 875 4575 
L 925 4575 
L 925 1400 
L 1975 2525 
Q 2025 2625 2012 2687 
Q 2000 2750 1900 2750 
L 1750 2750 
L 1750 2900 
L 2800 2900 
L 2800 2750 
L 2675 2750 
Q 2600 2750 2487 2712 
Q 2375 2675 2275 2575 
L 1675 1900 
z
M 2450 2750 
L 2450 2750 
z
M 2175 2750 
L 2175 2750 
z
M 2300 250 
L 2300 250 
z
M 2750 250 
L 2750 250 
z
" transform="scale(0.015625)"/>
       <path id="Times New Roman-62" d="M 875 2325
Q 1000 2600 1275 2762 
Q 1550 2925 1800 2925 
Q 2325 2925 2587 2562 
Q 2850 2200 2850 1500 
Q 2850 800 2512 437 
Q 2175 75 1675 75 
Q 1425 75 1212 162 
Q 1000 250 850 400 
L 625 100 
L 525 100 
L 525 4025 
Q 525 4125 475 4175 
Q 425 4225 300 4225 
L 150 4225 
L 150 4375 
L 375 4375 
Q 500 4375 625 4425 
Q 750 4475 875 4575 
L 875 2325 
z
M 875 925 
Q 875 650 1062 450 
Q 1250 250 1625 250 
Q 2075 250 2262 562 
Q 2450 875 2450 1500 
Q 2450 2100 2287 2412 
Q 2125 2725 1775 2725 
Q 1475 2725 1250 2550 
Q 1025 2375 875 1925 
L 875 925 
z
" transform="scale(0.015625)"/>
       <path id="Times New Roman-70" d="M 1150 -675
L 1325 -675 
L 1325 -825 
L 175 -825 
L 175 -675 
L 325 -675 
Q 450 -675 500 -625 
Q 550 -575 550 -450 
L 550 2500 
Q 550 2600 500 2662 
Q 450 2725 325 2725 
L 175 2725 
L 175 2875 
L 400 2875 
Q 525 2875 637 2900 
Q 750 2925 850 3000 
L 900 3000 
L 900 2425 
Q 1075 2675 1287 2800 
Q 1500 2925 1750 2925 
Q 2250 2925 2575 2587 
Q 2900 2250 2900 1525 
Q 2900 825 2550 450 
Q 2200 75 1725 75 
Q 1450 75 1262 162 
Q 1075 250 900 425 
L 900 -450 
Q 900 -575 975 -625 
Q 1050 -675 1150 -675 
z
M 900 750 
Q 1025 500 1212 375 
Q 1400 250 1650 250 
Q 2000 250 2250 562 
Q 2500 875 2500 1525 
Q 2500 2125 2312 2425 
Q 2125 2725 1750 2725 
Q 1525 2725 1300 2587 
Q 1075 2450 900 2150 
L 900 750 
z
" transform="scale(0.015625)"/>
       <path id="Times New Roman-73" d="M 625 2175
Q 625 2550 912 2750 
Q 1200 2950 1600 2950 
Q 1825 2950 2025 2900 
Q 2225 2825 2300 2825 
Q 2375 2825 2425 2850 
Q 2475 2875 2550 2950 
L 2650 2125 
L 2500 2100 
Q 2400 2425 2162 2612 
Q 1925 2800 1625 2800 
Q 1300 2800 1112 2675 
Q 925 2550 925 2325 
Q 925 2125 1012 2012 
Q 1100 1900 1325 1850 
Q 1500 1775 1775 1700 
Q 2025 1600 2250 1500 
Q 2450 1400 2587 1237 
Q 2725 1075 2725 875 
Q 2725 500 2462 287 
Q 2200 75 1700 75 
Q 1375 75 1225 150 
Q 1050 200 950 200 
Q 875 200 787 162 
Q 700 125 600 75 
L 525 1000 
L 675 1025 
Q 750 625 1000 425 
Q 1250 225 1700 225 
Q 2050 225 2237 350 
Q 2425 475 2425 725 
Q 2425 900 2325 1012 
Q 2225 1125 2125 1175 
Q 1875 1275 1575 1400 
Q 1275 1500 1050 1600 
Q 825 1700 725 1850 
Q 625 2000 625 2175 
z
" transform="scale(0.015625)"/>
       <path id="Times New Roman-29" d="M 275 5025
L 400 5150 
Q 1100 4500 1450 3787 
Q 1800 3075 1800 2300 
Q 1800 1500 1450 787 
Q 1100 75 400 -550 
L 275 -425 
Q 850 175 1137 850 
Q 1425 1525 1425 2300 
Q 1425 3050 1137 3737 
Q 850 4425 275 5025 
z
" transform="scale(0.015625)"/>
      </defs>
      <use xlink:href="#Times New Roman-42"/>
      <use xlink:href="#Times New Roman-69" x="50"/>
      <use xlink:href="#Times New Roman-74" x="100"/>
      <use xlink:href="#Times New Roman-72" x="150"/>
      <use xlink:href="#Times New Roman-61" x="200"/>
      <use xlink:href="#Times New Roman-74" x="250"/>
      <use xlink:href="#Times New Roman-65" x="300"/>
      <use xlink:href="#Times New Roman-20" x="350"/>
      <use xlink:href="#Times New Roman-28" x="400"/>
      <use xlink:href="#Times New Roman-6b" x="450"/>
      <use xlink:href="#Times New Roman-62" x="500"/>
      <use xlink:href="#Times New Roman-70" x="550"/>
      <use xlink:href="#Times New Roman-73" x="600"/>
      <use xlink:href="#Times New Roman-29" x="650"/>
     </g>
    </g>
   </g>
   <g id="line2d_14">
    <path d="M 173.045455 346.142752 
L 174.313636 346.142752 
L 175.581818 362.209392 
L 179.386364 362.209392 
L 179.386364 362.209392 
L 180.654545 330.076111 
L 197.140909 330.076111 
L 198.409091 301.753101 
L 199.677273 301.753101 
L 199.677273 301.753101 
L 200.945455 330.076111 
L 203.481818 330.076111 
L 204.75 250.250945 
L 231.381818 250.250945 
L 231.381818 250.250945 
L 233.918182 124.38501 
L 236.454545 124.38501 
L 237.722727 250.250945 
L 249.136364 250.250945 
L 250.404545 124.38501 
L 251.672727 250.250945 
L 251.672727 250.250945 
L 252.940909 250.250945 
L 254.209091 124.38501 
L 254.209091 124.38501 
L 255.477273 250.250945 
L 259.281818 250.250945 
L 260.55 124.38501 
L 269.427273 124.38501 
L 270.695455 250.250945 
L 274.5 250.250945 
L 274.5 250.250945 
L 275.768182 124.38501 
L 275.768182 124.38501 
L 275.768182 250.250945 
L 279.572727 250.250945 
L 279.572727 250.250945 
L 280.840909 301.753101 
L 280.840909 301.753101 
L 282.109091 301.753101 
L 282.109091 124.38501 
L 283.377273 250.250945 
L 298.595455 250.250945 
L 298.595455 250.250945 
L 299.863636 124.38501 
L 299.863636 124.38501 
L 301.131818 362.209392 
L 303.668182 362.209392 
L 304.936364 330.076111 
L 316.35 330.076111 
L 317.618182 362.209392 
L 342.981818 362.209392 
L 344.25 330.076111 
L 353.127273 330.076111 
L 354.395455 250.250945 
L 372.15 250.250945 
L 374.686364 124.38501 
L 374.686364 250.250945 
L 379.759091 250.250945 
L 379.759091 187.317977 
L 381.027273 187.317977 
L 381.027273 187.317977 
L 382.295455 250.250945 
L 389.904545 250.250945 
L 389.904545 124.38501 
L 396.245455 124.38501 
L 396.245455 250.250945 
L 398.781818 250.250945 
L 398.781818 124.38501 
L 403.854545 124.38501 
L 405.122727 250.250945 
L 407.659091 250.250945 
L 407.659091 250.250945 
L 408.927273 187.317977 
L 414 187.317977 
L 415.268182 250.250945 
L 415.268182 250.250945 
L 417.804545 250.250945 
L 419.072727 124.38501 
L 420.340909 124.38501 
L 422.877273 187.317977 
L 424.145455 250.250945 
L 426.681818 250.250945 
L 427.95 124.38501 
L 429.218182 250.250945 
L 431.754545 250.250945 
L 433.022727 124.38501 
L 434.290909 250.250945 
L 434.290909 250.250945 
L 436.827273 250.250945 
L 439.363636 124.38501 
L 440.631818 124.38501 
L 440.631818 250.250945 
L 446.972727 250.250945 
L 446.972727 250.250945 
L 448.240909 124.38501 
L 448.240909 124.38501 
L 449.509091 250.250945 
L 463.459091 250.250945 
L 463.459091 250.250945 
L 464.727273 301.753101 
L 467.263636 301.753101 
L 468.531818 250.250945 
L 472.336364 250.250945 
L 473.604545 301.753101 
L 479.945455 301.753101 
L 481.213636 330.076111 
L 491.359091 330.076111 
L 491.359091 301.753101 
L 492.627273 301.753101 
L 493.895455 250.250945 
L 507.845455 250.250945 
L 509.113636 124.38501 
L 509.113636 124.38501 
L 512.918182 124.38501 
L 512.918182 124.38501 
L 514.186364 250.250945 
L 534.477273 250.250945 
L 534.477273 124.38501 
L 535.745455 250.250945 
L 539.55 250.250945 
L 540.818182 124.38501 
L 543.354545 124.38501 
L 544.622727 250.250945 
L 548.427273 250.250945 
L 548.427273 187.317977 
L 549.695455 124.38501 
L 566.181818 124.38501 
L 566.181818 250.250945 
L 568.718182 250.250945 
L 569.986364 124.38501 
L 575.059091 124.38501 
L 575.059091 250.250945 
L 586.472727 250.250945 
L 590.277273 124.38501 
L 590.277273 250.250945 
L 591.545455 250.250945 
L 591.545455 250.250945 
L 592.813636 124.38501 
L 594.081818 250.250945 
L 600.422727 250.250945 
L 600.422727 124.38501 
L 601.690909 250.250945 
L 604.227273 250.250945 
L 604.227273 250.250945 
L 605.495455 124.38501 
L 605.495455 124.38501 
L 606.763636 124.38501 
L 606.763636 124.38501 
L 608.031818 301.753101 
L 610.568182 301.753101 
L 616.909091 250.250945 
L 618.177273 250.250945 
L 618.177273 250.250945 
L 619.445455 330.076111 
L 619.445455 330.076111 
L 652.418182 330.076111 
L 652.418182 301.753101 
L 653.686364 250.250945 
L 662.563636 250.250945 
L 662.563636 250.250945 
L 663.831818 124.38501 
L 663.831818 124.38501 
L 665.1 124.38501 
L 666.368182 250.250945 
L 671.440909 250.250945 
L 671.440909 124.38501 
L 676.513636 124.38501 
L 676.513636 124.38501 
L 677.781818 250.250945 
L 680.318182 250.250945 
L 681.586364 124.38501 
L 682.854545 250.250945 
L 685.390909 250.250945 
L 685.390909 250.250945 
L 686.659091 124.38501 
L 725.972727 124.38501 
L 725.972727 250.250945 
L 727.240909 250.250945 
L 727.240909 250.250945 
L 728.509091 124.38501 
L 731.045455 250.250945 
L 731.045455 250.250945 
L 732.313636 250.250945 
L 732.313636 124.38501 
L 732.313636 124.38501 
L 733.581818 250.250945 
L 733.581818 250.250945 
L 737.386364 250.250945 
L 737.386364 250.250945 
L 738.654545 124.38501 
L 738.654545 124.38501 
L 739.922727 250.250945 
L 739.922727 250.250945 
L 743.727273 250.250945 
L 743.727273 250.250945 
L 743.727273 124.38501 
L 743.727273 250.250945 
L 747.531818 250.250945 
L 747.531818 250.250945 
L 748.8 124.38501 
L 748.8 124.38501 
L 752.604545 124.38501 
L 752.604545 124.38501 
L 753.872727 250.250945 
L 813.477273 250.250945 
L 814.745455 330.076111 
L 816.013636 346.142752 
L 817.281818 346.142752 
L 817.281818 346.142752 
L 818.55 330.076111 
L 818.55 250.250945 
L 833.768182 250.250945 
L 833.768182 124.38501 
L 852.790909 124.38501 
L 854.059091 187.317977 
L 857.863636 187.317977 
L 857.863636 187.317977 
L 859.131818 124.38501 
L 859.131818 124.38501 
L 865.472727 124.38501 
L 866.740909 250.250945 
L 870.545455 250.250945 
L 873.081818 124.38501 
L 874.35 124.38501 
L 878.154545 187.317977 
L 878.154545 187.317977 
L 879.422727 187.317977 
L 879.422727 250.250945 
L 879.422727 250.250945 
L 880.690909 250.250945 
L 880.690909 124.38501 
L 884.495455 124.38501 
L 888.3 166.36149 
L 889.568182 250.250945 
L 900.981818 250.250945 
L 902.25 187.317977 
L 902.25 250.250945 
L 909.859091 250.250945 
L 909.859091 124.38501 
L 911.127273 250.250945 
L 916.2 250.250945 
L 916.2 250.250945 
L 917.468182 301.753101 
L 918.736364 301.753101 
L 918.736364 301.753101 
L 920.004545 250.250945 
L 920.004545 250.250945 
L 931.418182 250.250945 
L 933.954545 330.076111 
L 933.954545 330.076111 
" clip-path="url(#p9d8ba1a408)" style="fill: none; stroke: #ff0000; stroke-width: 1.5; stroke-linecap: square"/>
   </g>
   <g id="line2d_15">
    <path d="M 173.045455 348.555923 
L 174.313636 347.714488 
L 175.581818 347.345809 
L 176.85 347.642164 
L 178.118182 348.122681 
L 179.386364 347.975915 
L 179.386364 346.392536 
L 180.654545 344.406962 
L 181.922727 341.392615 
L 181.922727 338.069212 
L 183.190909 334.838949 
L 186.995455 331.714528 
L 188.263636 327.798416 
L 190.8 317.083089 
L 193.336364 304.847887 
L 195.872727 299.962274 
L 195.872727 296.909824 
L 197.140909 293.332403 
L 198.409091 288.637303 
L 199.677273 282.189479 
L 199.677273 275.199749 
L 203.481818 253.083246 
L 204.75 246.957178 
L 207.286364 239.802336 
L 208.554545 231.495947 
L 209.822727 222.05071 
L 211.090909 213.947534 
L 213.627273 205.713116 
L 213.627273 198.884265 
L 214.895455 191.759059 
L 217.431818 185.887009 
L 217.431818 179.269839 
L 218.7 173.258079 
L 219.968182 165.861921 
L 221.236364 159.270153 
L 223.772727 152.365096 
L 228.845455 123.385872 
L 230.113636 116.688263 
L 230.113636 110.989792 
L 231.381818 107.38697 
L 231.381818 106.239655 
L 232.65 104.61394 
L 233.918182 115.672191 
L 236.454545 144.587911 
L 237.722727 181.259647 
L 238.990909 202.575994 
L 240.259091 205.615743 
L 242.795455 190.819192 
L 242.795455 162.110921 
L 244.063636 124.592458 
L 245.331818 98.737656 
L 246.6 109.220133 
L 247.868182 125.731305 
L 249.136364 148.237303 
L 250.404545 151.734285 
L 251.672727 177.432442 
L 251.672727 195.734441 
L 252.940909 215.585951 
L 254.209091 207.105982 
L 254.209091 199.070545 
L 255.477273 172.381717 
L 256.745455 155.658863 
L 256.745455 158.262548 
L 258.013636 187.423818 
L 258.013636 225.065057 
L 259.281818 242.033461 
L 260.55 231.02178 
L 265.622727 192.28403 
L 266.890909 147.95365 
L 268.159091 116.743301 
L 269.427273 106.59528 
L 270.695455 105.693516 
L 273.231818 123.652591 
L 274.5 131.171525 
L 274.5 135.765018 
L 275.768182 141.234873 
L 275.768182 150.836754 
L 277.036364 153.774896 
L 277.036364 157.77568 
L 278.304545 162.174426 
L 278.304545 168.152317 
L 279.572727 173.495163 
L 279.572727 177.288499 
L 280.840909 180.019192 
L 280.840909 180.717742 
L 282.109091 183.020839 
L 282.109091 188.655806 
L 283.377273 197.537969 
L 284.645455 205.408295 
L 285.913636 211.470858 
L 294.790909 217.237068 
L 296.059091 223.113352 
L 297.327273 231.436676 
L 298.595455 243.807354 
L 298.595455 258.358354 
L 299.863636 269.674857 
L 299.863636 277.464743 
L 301.131818 282.604375 
L 306.204545 299.191752 
L 312.545455 304.729345 
L 313.813636 311.74871 
L 316.35 326.799279 
L 317.618182 333.11586 
L 318.886364 337.840596 
L 322.690909 341.104728 
L 322.690909 343.153806 
L 323.959091 344.690615 
L 326.495455 345.668585 
L 326.495455 346.100416 
L 327.763636 345.969173 
L 329.031818 345.274857 
L 330.3 344.191047 
L 332.836364 343.386656 
L 332.836364 343.094535 
L 334.104545 342.345182 
L 336.640909 340.469682 
L 336.640909 337.514606 
L 337.909091 333.797475 
L 337.909091 329.441066 
L 339.177273 325.156629 
L 341.713636 321.011901 
L 342.981818 316.858706 
L 344.25 311.676739 
L 345.518182 305.872426 
L 348.054545 292.765096 
L 350.590909 286.465449 
L 351.859091 280.364782 
L 353.127273 273.387754 
L 354.395455 269.298064 
L 356.931818 259.768154 
L 358.2 251.817389 
L 359.468182 244.78109 
L 360.736364 234.455257 
L 363.272727 215.429306 
L 363.272727 209.658863 
L 364.540909 203.189871 
L 364.540909 197.944398 
L 365.809091 195.692105 
L 365.809091 197.715782 
L 367.077273 200.103552 
L 370.881818 198.291556 
L 372.15 192.313665 
L 374.686364 181.746515 
L 374.686364 168.533344 
L 375.954545 162.51735 
L 378.490909 162.022015 
L 379.759091 163.190498 
L 379.759091 156.031423 
L 381.027273 148.072191 
L 381.027273 135.549102 
L 382.295455 134.105433 
L 383.563636 151.768154 
L 383.563636 196.157805 
L 384.831818 233.045457 
L 389.904545 253.574347 
L 389.904545 249.112097 
L 391.172727 224.696731 
L 391.172727 178.960784 
L 392.440909 153.000141 
L 396.245455 160.819663 
L 396.245455 202.419349 
L 397.513636 232.334206 
L 397.513636 249.247574 
L 397.513636 236.224916 
L 398.781818 202.29234 
L 398.781818 147.449847 
L 400.05 106.421701 
L 401.318182 100.689361 
L 403.854545 132.873446 
L 407.659091 265.627503 
L 407.659091 284.056511 
L 408.927273 268.019506 
L 414 252.350827 
L 415.268182 231.885441 
L 415.268182 224.108256 
L 416.536364 219.688342 
L 417.804545 236.961568 
L 419.072727 256.457452 
L 420.340909 266.70708 
L 422.877273 277.278463 
L 424.145455 287.858314 
L 425.413636 287.6551 
L 426.681818 275.855962 
L 427.95 265.187205 
L 429.218182 267.900964 
L 430.486364 262.062783 
L 431.754545 261.601317 
L 433.022727 250.212842 
L 434.290909 261.304963 
L 434.290909 266.75365 
L 435.559091 278.235265 
L 436.827273 280.271642 
L 439.363636 290.453532 
L 440.631818 296.342517 
L 440.631818 297.523701 
L 441.9 292.714292 
L 444.436364 299.966507 
L 445.704545 306.9012 
L 446.972727 307.362666 
L 446.972727 296.291713 
L 448.240909 291.647417 
L 448.240909 283.722054 
L 449.509091 277.269996 
L 450.777273 270.195594 
L 454.581818 272.363214 
L 454.581818 278.260666 
L 455.85 285.017546 
L 455.85 291.46537 
L 457.118182 297.832756 
L 458.386364 302.836911 
L 459.654545 307.265292 
L 462.190909 314.949338 
L 463.459091 318.823113 
L 463.459091 322.933971 
L 464.727273 326.422485 
L 465.995455 329.309824 
L 468.531818 334.267409 
L 472.336364 336.642477 
L 474.872727 341.413783 
L 478.677273 343.352787 
L 479.945455 344.538205 
L 481.213636 344.813391 
L 482.481818 344.322289 
L 482.481818 343.306217 
L 483.75 342.230874 
L 486.286364 340.672897 
L 487.554545 338.776229 
L 488.822727 336.35459 
L 490.090909 333.352944 
L 490.090909 329.712019 
L 491.359091 325.715468 
L 491.359091 322.121113 
L 492.627273 318.636833 
L 493.895455 316.49038 
L 496.431818 313.446397 
L 497.7 309.983285 
L 497.7 304.623505 
L 500.236364 293.400141 
L 502.772727 287.56196 
L 504.040909 283.120878 
L 506.577273 277.714528 
L 507.845455 271.194731 
L 509.113636 261.567448 
L 509.113636 253.066311 
L 510.381818 243.55757 
L 512.918182 235.34432 
L 512.918182 227.181874 
L 514.186364 220.645143 
L 516.722727 205.594575 
L 519.259091 201.310137 
L 519.259091 201.377875 
L 520.527273 201.530286 
L 520.527273 199.887636 
L 521.795455 200.366037 
L 523.063636 212.61394 
L 525.6 219.328483 
L 525.6 219.861921 
L 526.868182 213.850161 
L 526.868182 213.219349 
L 528.136364 200.099318 
L 529.404545 188.528797 
L 533.209091 175.489204 
L 534.477273 170.709432 
L 534.477273 153.711392 
L 537.013636 117.467252 
L 539.55 94.639498 
L 540.818182 89.618408 
L 543.354545 84.42374 
L 544.622727 81.536401 
L 547.159091 80.249377 
L 548.427273 82.230717 
L 548.427273 84.61002 
L 549.695455 87.670937 
L 550.963636 86.502454 
L 552.231818 85.604924 
L 553.5 80.304414 
L 554.768182 75.507707 
L 556.036364 69.009079 
L 557.304545 67.781325 
L 559.840909 66.96 
L 561.109091 72.514528 
L 561.109091 79.212136 
L 562.377273 88.178973 
L 563.645455 92.497279 
L 564.913636 96.341419 
L 566.181818 96.5404 
L 566.181818 94.004453 
L 567.45 91.261058 
L 567.45 92.907942 
L 568.718182 96.155139 
L 569.986364 101.472583 
L 573.790909 113.995672 
L 575.059091 131.24773 
L 575.059091 147.157726 
L 576.327273 156.687636 
L 577.595455 162.911078 
L 578.863636 171.865214 
L 580.131818 182.279953 
L 583.936364 193.389008 
L 583.936364 201.661529 
L 585.204545 207.901905 
L 585.204545 205.107707 
L 586.472727 200.941811 
L 590.277273 200.391439 
L 590.277273 213.41833 
L 591.545455 229.738989 
L 591.545455 245.945339 
L 592.813636 261.423505 
L 594.081818 278.849142 
L 596.618182 298.213783 
L 597.886364 314.61488 
L 599.154545 323.226092 
L 600.422727 320.838322 
L 600.422727 309.957883 
L 601.690909 297.60414 
L 602.959091 290.093673 
L 604.227273 291.046241 
L 604.227273 294.970819 
L 605.495455 299.204453 
L 605.495455 298.391595 
L 606.763636 295.91492 
L 606.763636 292.993712 
L 608.031818 294.543222 
L 609.3 297.824289 
L 610.568182 301.60069 
L 616.909091 306.359294 
L 618.177273 313.078071 
L 618.177273 329.63158 
L 619.445455 336.828757 
L 619.445455 341.697436 
L 620.713636 343.632207 
L 621.981818 343.594104 
L 625.786364 342.963293 
L 627.054545 343.496731 
L 628.322727 344.910764 
L 628.322727 347.120721 
L 629.590909 348.615194 
L 630.859091 349.305276 
L 632.127273 348.636362 
L 635.931818 346.854002 
L 637.2 344.076739 
L 639.736364 337.607746 
L 642.272727 330.220055 
L 643.540909 326.096495 
L 644.809091 323.179522 
L 647.345455 319.483559 
L 647.345455 315.783363 
L 648.613636 310.495555 
L 651.15 305.334755 
L 651.15 299.098612 
L 652.418182 293.141889 
L 652.418182 287.362979 
L 653.686364 282.481599 
L 654.954545 278.082854 
L 654.954545 274.166742 
L 656.222727 270.352238 
L 658.759091 260.737656 
L 662.563636 253.794496 
L 662.563636 245.195986 
L 663.831818 235.699945 
L 663.831818 228.409628 
L 665.1 221.686617 
L 666.368182 216.140557 
L 670.172727 209.214332 
L 671.440909 203.134833 
L 671.440909 195.560862 
L 672.709091 189.451729 
L 676.513636 181.970898 
L 676.513636 175.201317 
L 679.05 157.661372 
L 681.586364 136.505904 
L 682.854545 129.710921 
L 685.390909 125.020055 
L 685.390909 122.784696 
L 686.659091 118.771211 
L 689.195455 115.092183 
L 690.463636 109.364077 
L 690.463636 105.041537 
L 691.731818 100.431109 
L 694.268182 96.227111 
L 694.268182 91.282227 
L 695.536364 88.695476 
L 698.072727 85.943614 
L 698.072727 83.335696 
L 699.340909 79.953022 
L 701.877273 78.84381 
L 701.877273 76.44334 
L 703.145455 73.378189 
L 703.145455 69.555218 
L 704.413636 67.937969 
L 708.218182 67.429933 
L 708.218182 68.031109 
L 709.486364 71.502689 
L 712.022727 74.965802 
L 713.290909 79.351846 
L 714.559091 83.25949 
L 714.559091 87.831815 
L 715.827273 90.858863 
L 717.095455 92.268663 
L 718.363636 94.584461 
L 718.363636 97.522603 
L 719.631818 99.516644 
L 720.9 98.665684 
L 724.704545 101.243967 
L 725.972727 105.723152 
L 725.972727 111.480894 
L 727.240909 116.07862 
L 727.240909 122.594183 
L 728.509091 128.889596 
L 731.045455 133.03009 
L 731.045455 135.37129 
L 732.313636 138.224759 
L 732.313636 143.360157 
L 733.581818 146.12472 
L 733.581818 149.545496 
L 734.85 155.307472 
L 734.85 161.662156 
L 736.118182 167.750122 
L 737.386364 172.267409 
L 737.386364 175.214018 
L 738.654545 177.54675 
L 738.654545 187.140165 
L 739.922727 191.115547 
L 739.922727 193.858942 
L 741.190909 194.409314 
L 741.190909 196.081599 
L 742.459091 198.968938 
L 742.459091 205.023034 
L 743.727273 208.274465 
L 743.727273 219.209941 
L 744.995455 223.303865 
L 744.995455 228.176778 
L 746.263636 228.72715 
L 746.263636 229.243653 
L 747.531818 230.115782 
L 747.531818 231.377405 
L 748.8 233.447652 
L 748.8 235.970898 
L 750.068182 239.472113 
L 750.068182 242.947926 
L 751.336364 246.813234 
L 751.336364 250.123936 
L 752.604545 254.683559 
L 752.604545 259.518369 
L 753.872727 264.729973 
L 757.677273 277.701827 
L 760.213636 286.10559 
L 761.481818 291.444202 
L 764.018182 303.285676 
L 793.186364 309.001082 
L 794.454545 313.776621 
L 795.722727 316.604688 
L 796.990909 317.396378 
L 798.259091 316.917977 
L 798.259091 315.969643 
L 799.527273 314.263489 
L 803.331818 310.601396 
L 804.6 304.74628 
L 805.868182 296.448358 
L 807.136364 287.066625 
L 812.209091 275.339459 
L 813.477273 264.586029 
L 814.745455 257.371917 
L 816.013636 253.083246 
L 817.281818 247.359373 
L 817.281818 240.064822 
L 818.55 231.982815 
L 818.55 223.096417 
L 821.086364 201.526053 
L 823.622727 192.931776 
L 824.890909 186.534755 
L 826.159091 178.588224 
L 827.427273 172.318212 
L 827.427273 166.670545 
L 828.695455 162.644359 
L 829.963636 157.940792 
L 832.5 151.835892 
L 833.768182 145.392301 
L 833.768182 138.673524 
L 835.036364 132.064822 
L 837.572727 123.82617 
L 838.840909 117.6747 
L 838.840909 112.336088 
L 840.109091 108.530051 
L 843.913636 105.735853 
L 845.181818 105.066938 
L 846.45 105.007668 
L 847.718182 103.695241 
L 848.986364 100.138989 
L 850.254545 95.418487 
L 852.790909 83.805629 
L 854.059091 79.749808 
L 855.327273 77.933579 
L 856.595455 78.162195 
L 857.863636 82.107942 
L 857.863636 88.631972 
L 859.131818 99.216056 
L 859.131818 112.416527 
L 860.4 122.458706 
L 860.4 125.532325 
L 861.668182 120.570506 
L 861.668182 109.626562 
L 862.936364 114.24969 
L 865.472727 140.883481 
L 866.740909 189.70998 
L 869.277273 299.390733 
L 870.545455 338.048044 
L 871.813636 355.761568 
L 873.081818 357.84875 
L 874.35 356.650631 
L 878.154545 358.204375 
L 878.154545 357.19677 
L 879.422727 359.92323 
L 879.422727 365.079796 
L 880.690909 367.581874 
L 880.690909 369.36 
L 881.959091 367.078071 
L 883.227273 365.287244 
L 884.495455 362.577719 
L 888.3 361.692889 
L 889.568182 360.096809 
L 890.836364 361.231423 
L 892.104545 360.418565 
L 893.372727 361.675955 
L 894.640909 360.371995 
L 895.909091 361.718291 
L 897.177273 359.855492 
L 900.981818 360.647181 
L 902.25 357.577797 
L 902.25 354.889439 
L 903.518182 348.670231 
L 906.054545 344.644045 
L 907.322727 341.392615 
L 908.590909 337.218252 
L 909.859091 331.100651 
L 909.859091 322.684187 
L 911.127273 314.691086 
L 912.395455 307.671721 
L 914.931818 305.516801 
L 916.2 307.697123 
L 916.2 313.031501 
L 917.468182 318.111862 
L 918.736364 320.770584 
L 918.736364 323.590184 
L 920.004545 325.795907 
L 920.004545 327.535931 
L 922.540909 330.643418 
L 930.15 332.96345 
L 930.15 336.147142 
L 931.418182 339.927777 
L 933.954545 343.970898 
L 933.954545 348.064822 
L 933.954545 348.064822 
" clip-path="url(#p9d8ba1a408)" style="fill: none; stroke: #008000; stroke-width: 1.5; stroke-linecap: square"/>
   </g>
   <g id="patch_3">
    <path d="M 135 384.48 
L 135 51.84 
" style="fill: none; stroke: #000000; stroke-width: 0.8; stroke-linejoin: miter; stroke-linecap: square"/>
   </g>
   <g id="patch_4">
    <path d="M 972 384.48 
L 972 51.84 
" style="fill: none; stroke: #000000; stroke-width: 0.8; stroke-linejoin: miter; stroke-linecap: square"/>
   </g>
   <g id="patch_5">
    <path d="M 135 384.48 
L 972 384.48 
" style="fill: none; stroke: #000000; stroke-width: 0.8; stroke-linejoin: miter; stroke-linecap: square"/>
   </g>
   <g id="patch_6">
    <path d="M 135 51.84 
L 972 51.84 
" style="fill: none; stroke: #000000; stroke-width: 0.8; stroke-linejoin: miter; stroke-linecap: square"/>
   </g>
  </g>
  <g id="axes_2">
   <g id="matplotlib.axis_3">
    <g id="ytick_7">
     <g id="line2d_16">
      <path d="M 135 369.36 
L 972 369.36 
" clip-path="url(#p9d8ba1a408)" style="fill: none; stroke: #b0b0b0; stroke-width: 0.8; stroke-linecap: square"/>
     </g>
     <g id="line2d_17">
      <defs>
       <path id="mfd139bc06b" d="M 0 0 
L 3.5 0 
" style="stroke: #000000; stroke-width: 0.8"/>
      </defs>
      <g>
       <use xlink:href="#mfd139bc06b" x="972" y="369.36" style="stroke: #000000; stroke-width: 0.8"/>
      </g>
     </g>
     <g id="text_15">
      <!-- 0 -->
      <g transform="translate(979 372.934219) scale(0.1 -0.1)">
       <use xlink:href="#Times New Roman-30"/>
      </g>
     </g>
    </g>
    <g id="ytick_8">
     <g id="line2d_18">
      <path d="M 135 320.006936 
L 972 320.006936 
" clip-path="url(#p9d8ba1a408)" style="fill: none; stroke: #b0b0b0; stroke-width: 0.8; stroke-linecap: square"/>
     </g>
     <g id="line2d_19">
      <g>
       <use xlink:href="#mfd139bc06b" x="972" y="320.006936" style="stroke: #000000; stroke-width: 0.8"/>
      </g>
     </g>
     <g id="text_16">
      <!-- 5 -->
      <g transform="translate(979 323.581155) scale(0.1 -0.1)">
       <use xlink:href="#Times New Roman-35"/>
      </g>
     </g>
    </g>
    <g id="ytick_9">
     <g id="line2d_20">
      <path d="M 135 270.653872 
L 972 270.653872 
" clip-path="url(#p9d8ba1a408)" style="fill: none; stroke: #b0b0b0; stroke-width: 0.8; stroke-linecap: square"/>
     </g>
     <g id="line2d_21">
      <g>
       <use xlink:href="#mfd139bc06b" x="972" y="270.653872" style="stroke: #000000; stroke-width: 0.8"/>
      </g>
     </g>
     <g id="text_17">
      <!-- 10 -->
      <g transform="translate(979 274.228091) scale(0.1 -0.1)">
       <use xlink:href="#Times New Roman-31"/>
       <use xlink:href="#Times New Roman-30" x="50"/>
      </g>
     </g>
    </g>
    <g id="ytick_10">
     <g id="line2d_22">
      <path d="M 135 221.300808 
L 972 221.300808 
" clip-path="url(#p9d8ba1a408)" style="fill: none; stroke: #b0b0b0; stroke-width: 0.8; stroke-linecap: square"/>
     </g>
     <g id="line2d_23">
      <g>
       <use xlink:href="#mfd139bc06b" x="972" y="221.300808" style="stroke: #000000; stroke-width: 0.8"/>
      </g>
     </g>
     <g id="text_18">
      <!-- 15 -->
      <g transform="translate(979 224.875027) scale(0.1 -0.1)">
       <use xlink:href="#Times New Roman-31"/>
       <use xlink:href="#Times New Roman-35" x="50"/>
      </g>
     </g>
    </g>
    <g id="ytick_11">
     <g id="line2d_24">
      <path d="M 135 171.947744 
L 972 171.947744 
" clip-path="url(#p9d8ba1a408)" style="fill: none; stroke: #b0b0b0; stroke-width: 0.8; stroke-linecap: square"/>
     </g>
     <g id="line2d_25">
      <g>
       <use xlink:href="#mfd139bc06b" x="972" y="171.947744" style="stroke: #000000; stroke-width: 0.8"/>
      </g>
     </g>
     <g id="text_19">
      <!-- 20 -->
      <g transform="translate(979 175.521963) scale(0.1 -0.1)">
       <use xlink:href="#Times New Roman-32"/>
       <use xlink:href="#Times New Roman-30" x="50"/>
      </g>
     </g>
    </g>
    <g id="ytick_12">
     <g id="line2d_26">
      <path d="M 135 122.59468 
L 972 122.59468 
" clip-path="url(#p9d8ba1a408)" style="fill: none; stroke: #b0b0b0; stroke-width: 0.8; stroke-linecap: square"/>
     </g>
     <g id="line2d_27">
      <g>
       <use xlink:href="#mfd139bc06b" x="972" y="122.59468" style="stroke: #000000; stroke-width: 0.8"/>
      </g>
     </g>
     <g id="text_20">
      <!-- 25 -->
      <g transform="translate(979 126.168899) scale(0.1 -0.1)">
       <use xlink:href="#Times New Roman-32"/>
       <use xlink:href="#Times New Roman-35" x="50"/>
      </g>
     </g>
    </g>
    <g id="ytick_13">
     <g id="line2d_28">
      <path d="M 135 73.241616 
L 972 73.241616 
" clip-path="url(#p9d8ba1a408)" style="fill: none; stroke: #b0b0b0; stroke-width: 0.8; stroke-linecap: square"/>
     </g>
     <g id="line2d_29">
      <g>
       <use xlink:href="#mfd139bc06b" x="972" y="73.241616" style="stroke: #000000; stroke-width: 0.8"/>
      </g>
     </g>
     <g id="text_21">
      <!-- 30 -->
      <g transform="translate(979 76.815835) scale(0.1 -0.1)">
       <use xlink:href="#Times New Roman-33"/>
       <use xlink:href="#Times New Roman-30" x="50"/>
      </g>
     </g>
    </g>
    <g id="text_22">
     <!-- buffer (s) -->
     <g transform="translate(1000.617188 243.16) rotate(-90) scale(0.1 -0.1)">
      <defs>
       <path id="Times New Roman-75" d="M 1450 325
Q 1750 325 1962 475 
Q 2175 625 2275 950 
L 2275 2525 
Q 2275 2625 2225 2687 
Q 2175 2750 2050 2750 
L 1900 2750 
L 1900 2900 
L 2050 2900 
Q 2200 2900 2325 2925 
Q 2450 2950 2575 3050 
L 2625 3050 
L 2625 600 
Q 2625 500 2687 450 
Q 2750 400 2850 400 
L 3000 400 
L 3000 250 
L 2850 250 
Q 2725 250 2600 212 
Q 2475 175 2325 100 
L 2275 100 
L 2275 625 
Q 2150 350 1900 212 
Q 1650 75 1325 75 
Q 925 75 725 300 
Q 525 525 525 1025 
L 525 2525 
Q 525 2625 475 2687 
Q 425 2750 300 2750 
L 150 2750 
L 150 2900 
L 300 2900 
Q 450 2900 575 2925 
Q 700 2950 825 3050 
L 875 3050 
L 875 975 
Q 875 625 1025 475 
Q 1175 325 1450 325 
z
" transform="scale(0.015625)"/>
       <path id="Times New Roman-66" d="M 1125 3325
Q 1125 3850 1450 4112 
Q 1775 4375 2175 4375 
Q 2600 4375 2812 4225 
Q 3025 4075 3025 3875 
Q 3025 3775 2975 3700 
Q 2925 3625 2775 3625 
Q 2675 3625 2612 3675 
Q 2550 3725 2550 3850 
Q 2550 3875 2575 3925 
Q 2575 3975 2575 4000 
Q 2575 4100 2500 4162 
Q 2425 4225 2150 4225 
Q 1850 4225 1662 4037 
Q 1475 3850 1475 3400 
L 1475 2900 
L 2525 2900 
L 2525 2750 
L 1475 2750 
L 1475 450 
Q 1475 350 1537 300 
Q 1600 250 1700 250 
L 2300 250 
L 2300 100 
L 475 100 
L 475 250 
L 900 250 
Q 1025 250 1075 300 
Q 1125 350 1125 450 
L 1125 2750 
L 350 2750 
L 350 2900 
L 1125 2900 
L 1125 3325 
z
" transform="scale(0.015625)"/>
      </defs>
      <use xlink:href="#Times New Roman-62"/>
      <use xlink:href="#Times New Roman-75" x="50"/>
      <use xlink:href="#Times New Roman-66" x="100"/>
      <use xlink:href="#Times New Roman-66" x="150"/>
      <use xlink:href="#Times New Roman-65" x="200"/>
      <use xlink:href="#Times New Roman-72" x="250"/>
      <use xlink:href="#Times New Roman-20" x="300"/>
      <use xlink:href="#Times New Roman-28" x="350"/>
      <use xlink:href="#Times New Roman-73" x="400"/>
      <use xlink:href="#Times New Roman-29" x="450"/>
     </g>
    </g>
   </g>
   <g id="line2d_30">
    <path d="M 173.045455 369.36 
L 174.313636 338.409662 
L 175.581818 317.812228 
L 176.85 278.234909 
L 179.386364 215.496312 
L 179.386364 195.093535 
L 180.654545 186.820719 
L 181.922727 184.761801 
L 181.922727 182.432847 
L 183.190909 178.181334 
L 186.995455 181.814269 
L 188.263636 183.802906 
L 189.531818 189.219701 
L 190.8 190.244675 
L 192.068182 188.531025 
L 193.336364 189.149544 
L 195.872727 186.822198 
L 195.872727 187.164929 
L 197.140909 183.737635 
L 198.409091 183.280661 
L 199.677273 181.818347 
L 199.677273 179.899059 
L 200.945455 174.461083 
L 202.213636 177.472187 
L 203.481818 180.988419 
L 204.75 185.786633 
L 207.286364 186.088582 
L 208.554545 187.233474 
L 209.822727 184.442652 
L 211.090909 185.189281 
L 213.627273 185.600557 
L 213.627273 183.661712 
L 214.895455 176.79547 
L 217.431818 165.463342 
L 217.431818 160.960442 
L 218.7 154.536151 
L 219.968182 138.312818 
L 221.236364 135.481304 
L 223.772727 135.888349 
L 225.040909 148.226615 
L 226.309091 143.971012 
L 228.845455 122.314729 
L 230.113636 110.393494 
L 230.113636 108.197909 
L 231.381818 98.738573 
L 231.381818 91.061429 
L 232.65 76.531809 
L 233.918182 72.007776 
L 236.454545 72.691914 
L 237.722727 74.611199 
L 238.990909 76.941761 
L 240.259091 77.217267 
L 242.795455 76.666256 
L 242.795455 75.773838 
L 244.063636 74.77253 
L 245.331818 74.110472 
L 246.6 74.454523 
L 247.868182 73.879275 
L 249.136364 72.761784 
L 250.404545 73.262362 
L 251.672727 73.509514 
L 251.672727 76.568411 
L 254.209091 77.624313 
L 254.209091 90.970034 
L 255.477273 102.577144 
L 256.745455 110.939748 
L 256.745455 105.911637 
L 258.013636 94.488727 
L 258.013636 93.480566 
L 259.281818 88.452455 
L 260.55 89.819144 
L 265.622727 102.251624 
L 268.159091 128.62671 
L 269.427273 128.718105 
L 270.695455 129.586354 
L 271.963636 131.231456 
L 273.231818 175.748568 
L 274.5 181.026604 
L 274.5 224.409243 
L 275.768182 180.240262 
L 277.036364 181.97548 
L 277.036364 209.611036 
L 278.304545 173.532001 
L 278.304545 199.986108 
L 279.572727 193.55665 
L 279.572727 218.829307 
L 280.840909 211.625056 
L 280.840909 201.068984 
L 282.109091 180.731633 
L 282.109091 177.129507 
L 283.377273 176.10441 
L 284.645455 182.03326 
L 285.913636 171.226883 
L 294.790909 215.298819 
L 297.327273 297.798045 
L 298.595455 281.347025 
L 298.595455 291.628913 
L 299.863636 280.661566 
L 299.863636 299.168964 
L 301.131818 293.685291 
L 302.4 312.192689 
L 306.204545 287.516158 
L 312.545455 312.055602 
L 313.813636 339.336883 
L 315.081818 369.36 
L 327.763636 369.36 
L 329.031818 353.244953 
L 330.3 338.836803 
L 332.836364 314.573639 
L 332.836364 316.022663 
L 334.104545 314.660923 
L 336.640909 321.102143 
L 336.640909 307.98204 
L 337.909091 300.132086 
L 337.909091 295.149995 
L 339.177273 289.348616 
L 341.713636 279.244555 
L 342.981818 268.188285 
L 344.25 266.884282 
L 345.518182 267.839969 
L 346.786364 246.178074 
L 348.054545 247.482079 
L 350.590909 243.235494 
L 351.859091 255.025392 
L 354.395455 228.984014 
L 355.663636 220.895596 
L 356.931818 211.708941 
L 359.468182 189.983893 
L 360.736364 178.879454 
L 363.272727 159.883654 
L 363.272727 159.986473 
L 364.540909 152.172238 
L 364.540909 167.869253 
L 365.809091 156.254588 
L 365.809091 186.860341 
L 367.077273 161.844994 
L 370.881818 160.237318 
L 372.15 129.768654 
L 374.686364 134.837138 
L 374.686364 127.255792 
L 375.954545 125.336507 
L 378.490909 119.387058 
L 379.759091 119.249967 
L 379.759091 108.598098 
L 381.027273 96.040149 
L 381.027273 85.758259 
L 382.295455 77.491453 
L 383.563636 74.064159 
L 384.831818 70.509073 
L 389.904545 71.879989 
L 389.904545 71.605808 
L 391.172727 72.693241 
L 391.172727 69.540128 
L 392.440909 69.540128 
L 396.245455 72.281964 
L 396.245455 73.104517 
L 397.513636 70.499769 
L 397.513636 68.272026 
L 400.05 73.241616 
L 401.318182 73.241616 
L 403.854545 72.487607 
L 406.390909 71.185228 
L 407.659091 71.459411 
L 407.659091 71.596502 
L 408.927273 72.213419 
L 414 73.104518 
L 415.268182 74.61253 
L 415.268182 75.297987 
L 417.804545 70.773953 
L 419.072727 68.991758 
L 422.877273 71.736585 
L 424.145455 72.970412 
L 425.413636 72.833321 
L 426.681818 70.773954 
L 427.95 71.051126 
L 429.218182 72.702205 
L 430.486364 74.142661 
L 431.754545 73.454214 
L 433.022727 74.065151 
L 434.290909 74.406889 
L 434.290909 75.458587 
L 435.559091 74.477416 
L 436.827273 74.205215 
L 439.363636 76.349531 
L 440.631818 78.495981 
L 440.631818 81.325832 
L 441.9 78.901065 
L 444.436364 78.121373 
L 445.704545 76.660457 
L 446.972727 82.193337 
L 446.972727 89.05742 
L 448.240909 90.972513 
L 448.240909 91.357962 
L 449.509091 87.084662 
L 450.777273 86.077837 
L 454.581818 92.617623 
L 454.581818 107.873348 
L 455.85 114.642223 
L 455.85 118.272921 
L 457.118182 112.375736 
L 458.386364 114.15346 
L 460.922727 135.746246 
L 462.190909 145.620377 
L 463.459091 134.930076 
L 463.459091 142.938147 
L 464.727273 152.096835 
L 465.995455 162.40614 
L 468.531818 147.92924 
L 472.336364 145.113017 
L 473.604545 148.089936 
L 474.872727 156.859999 
L 478.677273 166.914672 
L 479.945455 171.806824 
L 481.213636 168.383344 
L 482.481818 158.379034 
L 482.481818 147.617325 
L 483.75 143.093294 
L 486.286364 139.662605 
L 487.554545 136.985286 
L 490.090909 122.864825 
L 490.090909 120.606837 
L 491.359091 114.026429 
L 491.359091 112.198539 
L 492.627273 105.869466 
L 493.895455 105.45819 
L 496.431818 106.874804 
L 497.7 109.159667 
L 497.7 114.734735 
L 498.968182 115.465893 
L 500.236364 115.740079 
L 502.772727 110.439193 
L 504.040909 110.119311 
L 506.577273 112.724054 
L 507.845455 114.908615 
L 509.113636 110.795859 
L 509.113636 104.697737 
L 510.381818 98.537514 
L 512.918182 94.424759 
L 512.918182 87.841886 
L 514.186364 84.825864 
L 515.454545 81.332488 
L 516.722727 81.817239 
L 519.259091 79.897954 
L 519.259091 78.59466 
L 520.527273 74.979303 
L 521.795455 74.70681 
L 523.063636 74.896408 
L 525.6 78.798602 
L 525.6 84.658471 
L 526.868182 88.570436 
L 526.868182 84.939046 
L 529.404545 77.134507 
L 533.209091 87.195457 
L 534.477273 92.774675 
L 534.477273 105.51452 
L 535.745455 105.45819 
L 538.281818 106.044113 
L 539.55 108.861058 
L 540.818182 114.18321 
L 543.354545 110.169993 
L 544.622727 112.288355 
L 547.159091 112.175692 
L 548.427273 109.296763 
L 548.427273 101.688164 
L 549.695455 90.035356 
L 550.963636 86.81487 
L 552.231818 82.085203 
L 553.5 83.730305 
L 554.768182 82.975126 
L 556.036364 79.208612 
L 557.304545 79.210958 
L 561.109091 81.675097 
L 561.109091 78.656733 
L 562.377273 71.808784 
L 564.913636 70.780602 
L 566.181818 71.733602 
L 566.181818 72.453331 
L 567.45 72.110599 
L 567.45 73.618613 
L 569.986364 69.368765 
L 573.790909 73.070241 
L 575.059091 74.886708 
L 575.059091 79.410739 
L 576.327273 76.57273 
L 577.595455 77.303887 
L 578.863636 76.709823 
L 580.131818 77.628547 
L 583.936364 81.832697 
L 583.936364 82.335365 
L 585.204545 82.472455 
L 585.204545 80.781655 
L 586.472727 78.401551 
L 590.277273 77.304817 
L 590.277273 74.540133 
L 591.545455 74.681072 
L 591.545455 74.955255 
L 592.813636 74.749615 
L 594.081818 75.29798 
L 596.618182 75.297982 
L 597.886364 75.572168 
L 599.154545 79.204055 
L 600.422727 79.615329 
L 600.422727 85.28179 
L 601.690909 85.305686 
L 602.959091 85.031503 
L 604.227273 95.221299 
L 604.227273 107.582414 
L 605.495455 117.908603 
L 605.495455 115.990015 
L 606.763636 106.003065 
L 606.763636 107.946596 
L 608.031818 105.159061 
L 609.3 109.570943 
L 610.568182 105.389641 
L 616.909091 122.37075 
L 618.177273 135.714357 
L 618.177273 148.463899 
L 618.177273 145.612389 
L 619.445455 140.927776 
L 619.445455 142.243859 
L 620.713636 136.540838 
L 621.981818 134.85068 
L 625.786364 145.827167 
L 627.054545 155.496713 
L 628.322727 163.859316 
L 628.322727 166.167029 
L 629.590909 171.056637 
L 630.859091 178.528141 
L 632.127273 173.798471 
L 635.931818 177.225767 
L 637.2 182.229619 
L 638.468182 188.810029 
L 639.736364 188.535847 
L 641.004545 188.67294 
L 642.272727 188.672938 
L 643.540909 187.096382 
L 647.345455 187.507661 
L 647.345455 186.822201 
L 648.613636 185.172641 
L 651.15 180.922793 
L 651.15 180.168788 
L 652.418182 182.96078 
L 652.418182 179.533483 
L 653.686364 180.858703 
L 654.954545 174.095504 
L 654.954545 184.432373 
L 656.222727 187.485047 
L 657.490909 192.073104 
L 658.759091 186.534452 
L 662.563636 192.369899 
L 662.563636 201.726415 
L 663.831818 211.656528 
L 663.831818 209.531606 
L 666.368182 204.44112 
L 670.172727 208.051205 
L 671.440909 211.046518 
L 671.440909 214.994572 
L 672.709091 213.573572 
L 676.513636 214.396123 
L 676.513636 213.413632 
L 677.781818 213.692201 
L 679.05 211.951451 
L 680.318182 212.294181 
L 681.586364 210.169257 
L 682.854545 207.660162 
L 685.390909 207.743046 
L 685.390909 202.71209 
L 686.659091 202.159586 
L 689.195455 198.649405 
L 690.463636 198.128139 
L 690.463636 189.15276 
L 691.731818 178.665234 
L 694.268182 171.125185 
L 694.268182 162.483642 
L 695.536364 156.383054 
L 698.072727 151.859023 
L 698.072727 148.160098 
L 699.340909 143.636067 
L 701.877273 138.965432 
L 701.877273 135.152797 
L 703.145455 133.000714 
L 703.145455 129.40203 
L 704.413636 128.213013 
L 708.218182 126.796307 
L 708.218182 121.491331 
L 709.486364 119.983322 
L 712.022727 118.485802 
L 713.290909 119.03637 
L 714.559091 113.562437 
L 714.559091 108.89827 
L 715.827273 102.180772 
L 717.095455 99.63483 
L 718.363636 93.736836 
L 718.363636 92.964855 
L 719.631818 91.824861 
L 720.9 93.058687 
L 724.704545 96.572504 
L 725.972727 95.039209 
L 725.972727 91.474822 
L 727.240909 85.579872 
L 727.240909 87.087881 
L 728.509091 83.386401 
L 731.045455 178.939421 
L 731.045455 177.606431 
L 732.313636 181.657953 
L 732.313636 86.973181 
L 732.313636 180.431894 
L 733.581818 178.802328 
L 733.581818 273.4871 
L 734.85 176.42607 
L 734.85 257.611839 
L 736.118182 240.898927 
L 737.386364 251.317906 
L 737.386364 247.266347 
L 738.654545 174.321188 
L 738.654545 194.31375 
L 738.654545 120.378349 
L 738.654545 189.27195 
L 739.922727 161.602245 
L 739.922727 182.257417 
L 739.922727 180.231638 
L 741.190909 197.162481 
L 741.190909 244.365371 
L 742.459091 184.39784 
L 742.459091 243.233091 
L 742.459091 241.207312 
L 743.727273 230.46845 
L 743.727273 160.894338 
L 743.727273 225.677985 
L 744.995455 278.983865 
L 744.995455 207.26973 
L 746.263636 199.135614 
L 746.263636 262.592038 
L 747.531818 242.395841 
L 747.531818 250.406363 
L 748.8 224.101829 
L 748.8 238.220688 
L 750.068182 205.807817 
L 750.068182 226.035013 
L 751.336364 187.513805 
L 751.336364 213.849338 
L 752.604545 169.219793 
L 752.604545 201.663663 
L 753.872727 197.612104 
L 755.140909 234.138532 
L 764.018182 191.597165 
L 793.186364 248.825664 
L 795.722727 369.36 
L 798.259091 369.36 
L 798.259091 369.36 
L 799.527273 351.949331 
L 803.331818 322.439407 
L 804.6 300.571453 
L 805.868182 303.756137 
L 807.136364 333.266061 
L 812.209091 355.134015 
L 813.477273 369.36 
L 814.745455 351.070501 
L 816.013636 322.486848 
L 817.281818 286.980056 
L 817.281818 283.814679 
L 818.55 273.007274 
L 819.818182 257.904321 
L 821.086364 259.686512 
L 823.622727 259.592971 
L 824.890909 260.918194 
L 826.159091 263.797124 
L 827.427273 265.99131 
L 827.427273 265.854217 
L 828.695455 264.754618 
L 829.963636 261.735733 
L 832.5 264.843147 
L 833.768182 267.039482 
L 833.768182 271.202231 
L 835.036364 269.598354 
L 837.572727 224.952109 
L 838.840909 225.317688 
L 838.840909 204.095774 
L 840.109091 245.725997 
L 843.913636 246.274362 
L 845.181818 266.674192 
L 846.45 265.303273 
L 851.522727 223.911417 
L 852.790909 212.121516 
L 854.059091 198.61569 
L 855.327273 178.320866 
L 857.863636 127.322863 
L 857.863636 112.068454 
L 859.131818 98.661206 
L 859.131818 113.713881 
L 860.4 100.315451 
L 860.4 135.846866 
L 861.668182 110.512306 
L 861.668182 165.476991 
L 862.936364 126.287013 
L 865.472727 126.646875 
L 866.740909 73.224471 
L 868.009091 72.110597 
L 869.277273 69.899991 
L 870.545455 70.276998 
L 871.813636 71.390873 
L 873.081818 70.248429 
L 874.35 67.872151 
L 878.154545 66.96 
L 878.154545 67.432217 
L 879.422727 69.900784 
L 879.422727 71.909666 
L 879.422727 71.445077 
L 880.690909 71.352787 
L 880.690909 70.256057 
L 881.959091 73.241616 
L 884.495455 73.241616 
L 888.3 72.968102 
L 889.568182 72.146896 
L 890.836364 70.777997 
L 892.104545 69.134919 
L 894.640909 70.468195 
L 895.909091 70.979592 
L 897.177273 69.026032 
L 900.981818 70.968166 
L 902.25 72.64754 
L 902.25 75.435073 
L 903.518182 74.246948 
L 906.054545 74.521133 
L 907.322727 74.338346 
L 908.590909 77.217272 
L 909.859091 78.314005 
L 909.859091 79.867712 
L 911.127273 78.314005 
L 912.395455 77.217272 
L 914.931818 77.719941 
L 916.2 80.507474 
L 916.2 87.651621 
L 917.468182 91.420236 
L 918.736364 92.361684 
L 918.736364 87.548097 
L 918.736364 89.19461 
L 920.004545 86.333878 
L 920.004545 87.189996 
L 921.272727 81.586013 
L 922.540909 80.489276 
L 930.15 89.915047 
L 930.15 97.506846 
L 931.418182 107.377459 
L 933.954545 103.228314 
L 933.954545 100.811027 
L 933.954545 100.811027 
" clip-path="url(#p9d8ba1a408)" style="fill: none; stroke: #1f77b4; stroke-width: 1.5; stroke-linecap: square"/>
   </g>
   <g id="patch_7">
    <path d="M 135 384.48 
L 135 51.84 
" style="fill: none; stroke: #000000; stroke-width: 0.8; stroke-linejoin: miter; stroke-linecap: square"/>
   </g>
   <g id="patch_8">
    <path d="M 972 384.48 
L 972 51.84 
" style="fill: none; stroke: #000000; stroke-width: 0.8; stroke-linejoin: miter; stroke-linecap: square"/>
   </g>
   <g id="patch_9">
    <path d="M 135 384.48 
L 972 384.48 
" style="fill: none; stroke: #000000; stroke-width: 0.8; stroke-linejoin: miter; stroke-linecap: square"/>
   </g>
   <g id="patch_10">
    <path d="M 135 51.84 
L 972 51.84 
" style="fill: none; stroke: #000000; stroke-width: 0.8; stroke-linejoin: miter; stroke-linecap: square"/>
   </g>
   <g id="text_23">
    <!-- ./pensieve/log_RL_3_wave -->
    <g transform="translate(481.5 45.84) scale(0.12 -0.12)">
     <defs>
      <path id="Times New Roman-2e" d="M 800 25
Q 650 25 537 125 
Q 425 225 425 400 
Q 425 575 537 675 
Q 650 775 800 775 
Q 950 775 1062 662 
Q 1175 550 1175 400 
Q 1175 225 1062 125 
Q 950 25 800 25 
z
" transform="scale(0.015625)"/>
      <path id="Times New Roman-2f" d="M 400 -475
L 225 -375 
L 2775 4975 
L 2950 4875 
L 400 -475 
z
" transform="scale(0.015625)"/>
      <path id="Times New Roman-6e" d="M 200 100
L 200 250 
L 325 250 
Q 450 250 500 300 
Q 550 350 550 450 
L 550 2600 
Q 550 2675 525 2712 
Q 500 2750 425 2750 
L 225 2750 
L 225 2900 
L 400 2900 
Q 525 2900 637 2925 
Q 750 2950 850 3025 
L 900 3025 
L 900 2450 
Q 1125 2700 1350 2825 
Q 1575 2950 1825 2950 
Q 2250 2950 2450 2725 
Q 2650 2500 2650 2050 
L 2650 450 
Q 2650 350 2712 300 
Q 2775 250 2875 250 
L 3000 250 
L 3000 100 
L 1950 100 
L 1950 250 
L 2075 250 
Q 2200 250 2250 300 
Q 2300 350 2300 450 
L 2300 2125 
Q 2300 2425 2175 2587 
Q 2050 2750 1800 2750 
Q 1575 2750 1337 2600 
Q 1100 2450 900 2175 
L 900 450 
Q 900 350 962 300 
Q 1025 250 1125 250 
L 1250 250 
L 1250 100 
L 200 100 
z
" transform="scale(0.015625)"/>
      <path id="Times New Roman-76" d="M 1625 75
L 1475 75 
L 625 2525 
Q 600 2625 525 2687 
Q 450 2750 350 2750 
L 225 2750 
L 225 2900 
L 1300 2900 
L 1300 2750 
L 1200 2750 
Q 1050 2750 1025 2700 
Q 1000 2650 1000 2600 
Q 1000 2500 1025 2425 
L 1625 675 
L 1675 675 
L 2275 2400 
Q 2325 2525 2325 2575 
Q 2325 2600 2275 2675 
Q 2225 2750 2075 2750 
L 2025 2750 
L 2025 2900 
L 2925 2900 
L 2925 2750 
L 2875 2750 
Q 2725 2750 2637 2662 
Q 2550 2575 2475 2400 
L 1625 75 
z
M 2600 2750 
L 2600 2750 
z
M 2400 2750 
L 2400 2750 
z
M 925 2750 
L 925 2750 
z
M 550 2750 
L 550 2750 
z
" transform="scale(0.015625)"/>
      <path id="Times New Roman-6c" d="M 925 4375
Q 1150 4375 1350 4425 
Q 1550 4475 1725 4575 
L 1775 4575 
L 1775 450 
Q 1775 350 1837 300 
Q 1900 250 2000 250 
L 2575 250 
L 2575 100 
L 625 100 
L 625 250 
L 1200 250 
Q 1325 250 1375 300 
Q 1425 350 1425 450 
L 1425 4025 
Q 1425 4125 1375 4175 
Q 1325 4225 1200 4225 
L 650 4225 
L 650 4375 
L 925 4375 
z
" transform="scale(0.015625)"/>
      <path id="Times New Roman-6f" d="M 2900 1500
Q 2900 875 2525 462 
Q 2150 50 1600 50 
Q 1025 50 662 475 
Q 300 900 300 1500 
Q 300 2050 662 2500 
Q 1025 2950 1600 2950 
Q 2200 2950 2550 2500 
Q 2900 2050 2900 1500 
z
M 700 1475 
Q 700 825 962 512 
Q 1225 200 1600 200 
Q 2025 200 2262 537 
Q 2500 875 2500 1475 
Q 2500 2125 2237 2462 
Q 1975 2800 1600 2800 
Q 1250 2800 975 2462 
Q 700 2125 700 1475 
z
" transform="scale(0.015625)"/>
      <path id="Times New Roman-67" d="M 875 1975
Q 875 1675 1050 1462 
Q 1225 1250 1525 1250 
Q 1850 1250 2012 1437 
Q 2175 1625 2175 1975 
Q 2175 2400 1987 2587 
Q 1800 2775 1525 2775 
Q 1250 2775 1062 2587 
Q 875 2400 875 1975 
z
M 2100 625 
Q 2475 575 2650 412 
Q 2825 250 2825 -25 
Q 2825 -400 2512 -625 
Q 2200 -850 1525 -850 
Q 1000 -850 675 -637 
Q 350 -425 350 -150 
Q 350 25 475 200 
Q 600 375 875 475 
Q 725 550 637 637 
Q 550 725 550 850 
Q 550 1000 650 1112 
Q 750 1225 900 1300 
Q 750 1425 637 1600 
Q 525 1775 525 1975 
Q 525 2350 787 2637 
Q 1050 2925 1525 2925 
Q 1725 2925 1912 2875 
Q 2100 2825 2225 2700 
Q 2400 2825 2537 2887 
Q 2675 2950 2775 2950 
Q 2900 2950 2950 2862 
Q 3000 2775 3000 2700 
Q 3000 2600 2962 2537 
Q 2925 2475 2825 2475 
Q 2750 2475 2700 2512 
Q 2650 2550 2625 2625 
Q 2600 2700 2512 2687 
Q 2425 2675 2325 2600 
Q 2425 2500 2475 2325 
Q 2525 2150 2525 1975 
Q 2525 1675 2287 1387 
Q 2050 1100 1525 1100 
Q 1375 1100 1250 1137 
Q 1125 1175 1050 1225 
Q 950 1175 900 1100 
Q 850 1025 850 975 
Q 850 875 900 825 
Q 950 775 1050 775 
Q 1375 725 1637 687 
Q 1900 650 2100 625 
z
M 1075 425 
Q 850 325 762 187 
Q 675 50 675 -150 
Q 675 -350 900 -525 
Q 1125 -700 1575 -700 
Q 2000 -700 2250 -562 
Q 2500 -425 2500 -150 
Q 2500 25 2437 125 
Q 2375 225 2250 250 
Q 2000 300 1700 350 
Q 1400 375 1075 425 
z
" transform="scale(0.015625)"/>
      <path id="Times New Roman-5f" d="M 0 -875
L 0 -725 
L 3175 -725 
L 3175 -875 
L 0 -875 
z
" transform="scale(0.015625)"/>
      <path id="Times New Roman-52" d="M 2825 3375
Q 2825 2875 2550 2600 
Q 2275 2325 1925 2275 
L 2675 425 
Q 2725 325 2787 287 
Q 2850 250 2925 250 
L 3075 250 
L 3075 100 
L 2375 100 
L 1550 2250 
L 975 2250 
L 975 450 
Q 975 350 1037 300 
Q 1100 250 1200 250 
L 1350 250 
L 1350 100 
L 200 100 
L 200 250 
L 350 250 
Q 475 250 525 300 
Q 575 350 575 450 
L 575 4025 
Q 575 4125 525 4175 
Q 475 4225 350 4225 
L 200 4225 
L 200 4375 
L 1625 4375 
Q 2200 4375 2512 4125 
Q 2825 3875 2825 3375 
z
M 2750 250 
L 2750 250 
z
M 975 2400 
L 1525 2400 
Q 1900 2400 2150 2625 
Q 2400 2850 2400 3325 
Q 2400 3750 2175 3987 
Q 1950 4225 1475 4225 
L 1200 4225 
Q 1100 4225 1037 4175 
Q 975 4125 975 4025 
L 975 2400 
z
" transform="scale(0.015625)"/>
      <path id="Times New Roman-4c" d="M 1000 450
Q 1000 350 1062 300 
Q 1125 250 1225 250 
L 1900 250 
Q 2250 250 2500 462 
Q 2750 675 2875 1125 
L 3000 1075 
L 2775 100 
L 200 100 
L 200 250 
L 375 250 
Q 500 250 550 300 
Q 600 350 600 450 
L 600 4025 
Q 600 4125 550 4175 
Q 500 4225 375 4225 
L 225 4225 
L 225 4375 
L 1400 4375 
L 1400 4225 
L 1225 4225 
Q 1125 4225 1062 4175 
Q 1000 4125 1000 4025 
L 1000 450 
z
" transform="scale(0.015625)"/>
      <path id="Times New Roman-77" d="M 2325 2900
L 3175 2900 
L 3175 2750 
L 3075 2750 
Q 2975 2750 2900 2675 
Q 2825 2600 2775 2425 
L 2175 75 
L 2025 75 
L 1575 1975 
L 1100 75 
L 950 75 
L 375 2375 
Q 350 2550 275 2650 
Q 200 2750 125 2750 
L 25 2750 
L 25 2900 
L 925 2900 
L 925 2750 
L 825 2750 
Q 725 2750 700 2662 
Q 675 2575 700 2425 
L 1075 800 
L 1125 800 
L 1500 2300 
Q 1475 2525 1400 2637 
Q 1325 2750 1225 2750 
L 1150 2750 
L 1150 2900 
L 2000 2900 
L 2000 2750 
L 1925 2750 
Q 1825 2750 1800 2662 
Q 1775 2575 1800 2425 
L 2175 800 
L 2200 800 
L 2625 2550 
Q 2650 2650 2600 2700 
Q 2550 2750 2450 2750 
L 2325 2750 
L 2325 2900 
z
M 1725 2750 
L 1725 2750 
z
M 625 2750 
L 625 2750 
z
M 275 2750 
L 275 2750 
z
M 2875 2750 
L 2875 2750 
z
M 2675 2750 
L 2675 2750 
z
" transform="scale(0.015625)"/>
     </defs>
     <use xlink:href="#Times New Roman-2e"/>
     <use xlink:href="#Times New Roman-2f" x="50"/>
     <use xlink:href="#Times New Roman-70" x="100"/>
     <use xlink:href="#Times New Roman-65" x="150"/>
     <use xlink:href="#Times New Roman-6e" x="200"/>
     <use xlink:href="#Times New Roman-73" x="250"/>
     <use xlink:href="#Times New Roman-69" x="300"/>
     <use xlink:href="#Times New Roman-65" x="350"/>
     <use xlink:href="#Times New Roman-76" x="400"/>
     <use xlink:href="#Times New Roman-65" x="450"/>
     <use xlink:href="#Times New Roman-2f" x="500"/>
     <use xlink:href="#Times New Roman-6c" x="550"/>
     <use xlink:href="#Times New Roman-6f" x="600"/>
     <use xlink:href="#Times New Roman-67" x="650"/>
     <use xlink:href="#Times New Roman-5f" x="700"/>
     <use xlink:href="#Times New Roman-52" x="750"/>
     <use xlink:href="#Times New Roman-4c" x="800"/>
     <use xlink:href="#Times New Roman-5f" x="850"/>
     <use xlink:href="#Times New Roman-33" x="900"/>
     <use xlink:href="#Times New Roman-5f" x="950"/>
     <use xlink:href="#Times New Roman-77" x="1000"/>
     <use xlink:href="#Times New Roman-61" x="1050"/>
     <use xlink:href="#Times New Roman-76" x="1100"/>
     <use xlink:href="#Times New Roman-65" x="1150"/>
    </g>
   </g>
   <g id="legend_1">
    <g id="patch_11">
     <path d="M 142 73.2775 
L 204 73.2775 
Q 206 73.2775 206 71.2775 
L 206 58.84 
Q 206 56.84 204 56.84 
L 142 56.84 
Q 140 56.84 140 58.84 
L 140 71.2775 
Q 140 73.2775 142 73.2775 
z
" style="fill: #ffffff; opacity: 0.8; stroke: #cccccc; stroke-linejoin: miter"/>
    </g>
    <g id="line2d_31">
     <path d="M 144 64.488437 
L 154 64.488437 
L 164 64.488437 
" style="fill: none; stroke: #1f77b4; stroke-width: 1.5; stroke-linecap: square"/>
    </g>
    <g id="text_24">
     <!-- buffer -->
     <g transform="translate(172 67.988437) scale(0.1 -0.1)">
      <use xlink:href="#Times New Roman-62"/>
      <use xlink:href="#Times New Roman-75" x="50"/>
      <use xlink:href="#Times New Roman-66" x="100"/>
      <use xlink:href="#Times New Roman-66" x="150"/>
      <use xlink:href="#Times New Roman-65" x="200"/>
      <use xlink:href="#Times New Roman-72" x="250"/>
     </g>
    </g>
   </g>
  </g>
 </g>
 <defs>
  <clipPath id="p9d8ba1a408">
   <rect x="135" y="51.84" width="837" height="332.64"/>
  </clipPath>
 </defs>
</svg>
