<?xml version="1.0" encoding="utf-8" standalone="no"?>
<!DOCTYPE svg PUBLIC "-//W3C//DTD SVG 1.1//EN"
  "http://www.w3.org/Graphics/SVG/1.1/DTD/svg11.dtd">
<svg xmlns:xlink="http://www.w3.org/1999/xlink" width="1080pt" height="432pt" viewBox="0 0 1080 432" xmlns="http://www.w3.org/2000/svg" version="1.1">
 <metadata>
  <rdf:RDF xmlns:dc="http://purl.org/dc/elements/1.1/" xmlns:cc="http://creativecommons.org/ns#" xmlns:rdf="http://www.w3.org/1999/02/22-rdf-syntax-ns#">
   <cc:Work>
    <dc:type rdf:resource="http://purl.org/dc/dcmitype/StillImage"/>
    <dc:date>2024-04-12T06:12:35.170010</dc:date>
    <dc:format>image/svg+xml</dc:format>
    <dc:creator>
     <cc:Agent>
      <dc:title>Matplotlib v3.8.3, https://matplotlib.org/</dc:title>
     </cc:Agent>
    </dc:creator>
   </cc:Work>
  </rdf:RDF>
 </metadata>
 <defs>
  <style type="text/css">*{stroke-linejoin: round; stroke-linecap: butt}</style>
 </defs>
 <g id="figure_1">
  <g id="patch_1">
   <path d="M 0 432 
L 1080 432 
L 1080 0 
L 0 0 
z
" style="fill: #ffffff"/>
  </g>
  <g id="axes_1">
   <g id="patch_2">
    <path d="M 135 384.48 
L 972 384.48 
L 972 51.84 
L 135 51.84 
z
" style="fill: #ffffff"/>
   </g>
   <g id="matplotlib.axis_1">
    <g id="xtick_1">
     <g id="line2d_1">
      <defs>
       <path id="m4d83347500" d="M 0 0 
L 0 3.5 
" style="stroke: #000000; stroke-width: 0.8"/>
      </defs>
      <g>
       <use xlink:href="#m4d83347500" x="173.045455" y="384.48" style="stroke: #000000; stroke-width: 0.8"/>
      </g>
     </g>
     <g id="text_1">
      <!-- 0 -->
      <g transform="translate(170.545455 398.628438) scale(0.1 -0.1)">
       <defs>
        <path id="Times New Roman-30" d="M 1600 4225
Q 1250 4225 1012 3687 
Q 775 3150 775 2250 
Q 775 1300 1012 775 
Q 1250 250 1600 250 
Q 1975 250 2187 775 
Q 2400 1300 2400 2250 
Q 2400 3150 2200 3687 
Q 2000 4225 1600 4225 
z
M 1600 50 
Q 1050 50 675 625 
Q 300 1200 300 2250 
Q 300 3225 662 3825 
Q 1025 4425 1600 4425 
Q 2150 4425 2512 3850 
Q 2875 3275 2875 2250 
Q 2875 1225 2512 637 
Q 2150 50 1600 50 
z
" transform="scale(0.015625)"/>
       </defs>
       <use xlink:href="#Times New Roman-30"/>
      </g>
     </g>
    </g>
    <g id="xtick_2">
     <g id="line2d_2">
      <g>
       <use xlink:href="#m4d83347500" x="299.969406" y="384.48" style="stroke: #000000; stroke-width: 0.8"/>
      </g>
     </g>
     <g id="text_2">
      <!-- 100 -->
      <g transform="translate(292.469406 398.628438) scale(0.1 -0.1)">
       <defs>
        <path id="Times New Roman-31" d="M 1825 4450
L 1825 650 
Q 1825 450 1950 350 
Q 2075 250 2300 250 
L 2550 250 
L 2550 100 
L 725 100 
L 725 250 
L 950 250 
Q 1200 250 1312 350 
Q 1425 450 1425 650 
L 1425 3675 
Q 1425 3775 1362 3837 
Q 1300 3900 1175 3900 
L 725 3900 
L 725 4050 
L 950 4050 
Q 1250 4050 1437 4150 
Q 1625 4250 1725 4450 
L 1825 4450 
z
" transform="scale(0.015625)"/>
       </defs>
       <use xlink:href="#Times New Roman-31"/>
       <use xlink:href="#Times New Roman-30" x="50"/>
       <use xlink:href="#Times New Roman-30" x="100"/>
      </g>
     </g>
    </g>
    <g id="xtick_3">
     <g id="line2d_3">
      <g>
       <use xlink:href="#m4d83347500" x="426.893358" y="384.48" style="stroke: #000000; stroke-width: 0.8"/>
      </g>
     </g>
     <g id="text_3">
      <!-- 200 -->
      <g transform="translate(419.393358 398.628438) scale(0.1 -0.1)">
       <defs>
        <path id="Times New Roman-32" d="M 2325 3325
Q 2325 3775 2125 4012 
Q 1925 4250 1525 4250 
Q 1225 4250 1012 4087 
Q 800 3925 800 3675 
Q 800 3525 900 3425 
Q 975 3325 975 3225 
Q 975 3100 912 3037 
Q 850 2975 725 2975 
Q 575 2975 487 3062 
Q 400 3150 400 3350 
Q 400 3875 775 4150 
Q 1150 4425 1575 4425 
Q 2175 4425 2462 4125 
Q 2750 3825 2750 3375 
Q 2750 3075 2612 2775 
Q 2475 2475 2175 2200 
Q 1450 1500 1062 1062 
Q 675 625 600 475 
L 2075 475 
Q 2300 475 2450 650 
Q 2600 825 2650 1175 
L 2800 1175 
L 2650 100 
L 325 100 
L 325 425 
Q 450 650 737 1000 
Q 1025 1350 1500 1825 
Q 1925 2250 2125 2625 
Q 2325 3000 2325 3325 
z
" transform="scale(0.015625)"/>
       </defs>
       <use xlink:href="#Times New Roman-32"/>
       <use xlink:href="#Times New Roman-30" x="50"/>
       <use xlink:href="#Times New Roman-30" x="100"/>
      </g>
     </g>
    </g>
    <g id="xtick_4">
     <g id="line2d_4">
      <g>
       <use xlink:href="#m4d83347500" x="553.81731" y="384.48" style="stroke: #000000; stroke-width: 0.8"/>
      </g>
     </g>
     <g id="text_4">
      <!-- 300 -->
      <g transform="translate(546.31731 398.628438) scale(0.1 -0.1)">
       <defs>
        <path id="Times New Roman-33" d="M 2800 1250
Q 2800 775 2450 412 
Q 2100 50 1475 50 
Q 1025 50 700 300 
Q 375 550 375 875 
Q 375 1025 475 1137 
Q 575 1250 675 1250 
Q 825 1250 887 1137 
Q 950 1025 950 950 
Q 950 825 900 750 
Q 850 650 850 575 
Q 850 425 1037 325 
Q 1225 225 1450 225 
Q 1900 225 2125 487 
Q 2350 750 2350 1300 
Q 2350 1750 2112 2025 
Q 1875 2300 1225 2300 
L 1225 2475 
Q 1725 2475 1962 2712 
Q 2200 2950 2200 3375 
Q 2200 3725 2012 3987 
Q 1825 4250 1425 4250 
Q 1250 4250 1050 4162 
Q 850 4075 850 3875 
Q 850 3675 900 3625 
Q 950 3575 950 3500 
Q 950 3375 900 3300 
Q 850 3225 725 3225 
Q 625 3225 537 3300 
Q 450 3375 450 3575 
Q 450 3950 775 4187 
Q 1100 4425 1525 4425 
Q 2025 4425 2325 4112 
Q 2625 3800 2625 3450 
Q 2625 3075 2437 2812 
Q 2250 2550 1850 2425 
Q 2400 2225 2600 1900 
Q 2800 1575 2800 1250 
z
" transform="scale(0.015625)"/>
       </defs>
       <use xlink:href="#Times New Roman-33"/>
       <use xlink:href="#Times New Roman-30" x="50"/>
       <use xlink:href="#Times New Roman-30" x="100"/>
      </g>
     </g>
    </g>
    <g id="xtick_5">
     <g id="line2d_5">
      <g>
       <use xlink:href="#m4d83347500" x="680.741262" y="384.48" style="stroke: #000000; stroke-width: 0.8"/>
      </g>
     </g>
     <g id="text_5">
      <!-- 400 -->
      <g transform="translate(673.241262 398.628438) scale(0.1 -0.1)">
       <defs>
        <path id="Times New Roman-34" d="M 2300 575
Q 2300 400 2400 325 
Q 2500 250 2675 250 
L 2900 250 
L 2900 100 
L 1250 100 
L 1250 250 
L 1525 250 
Q 1725 250 1812 325 
Q 1900 400 1900 575 
L 1900 1400 
L 225 1400 
L 225 1525 
L 2050 4425 
L 2300 4425 
L 2300 1550 
L 2975 1550 
L 2975 1400 
L 2300 1400 
L 2300 575 
z
M 1875 3800 
L 450 1550 
L 1900 1550 
L 1900 3800 
L 1875 3800 
z
" transform="scale(0.015625)"/>
       </defs>
       <use xlink:href="#Times New Roman-34"/>
       <use xlink:href="#Times New Roman-30" x="50"/>
       <use xlink:href="#Times New Roman-30" x="100"/>
      </g>
     </g>
    </g>
    <g id="xtick_6">
     <g id="line2d_6">
      <g>
       <use xlink:href="#m4d83347500" x="807.665213" y="384.48" style="stroke: #000000; stroke-width: 0.8"/>
      </g>
     </g>
     <g id="text_6">
      <!-- 500 -->
      <g transform="translate(800.165213 398.628438) scale(0.1 -0.1)">
       <defs>
        <path id="Times New Roman-35" d="M 1725 2850
Q 2200 2850 2500 2487 
Q 2800 2125 2800 1525 
Q 2800 850 2487 450 
Q 2175 50 1525 50 
Q 1075 50 725 312 
Q 375 575 375 950 
Q 375 1100 462 1212 
Q 550 1325 700 1325 
Q 850 1325 900 1225 
Q 950 1125 950 1050 
Q 950 900 875 825 
Q 800 725 800 625 
Q 800 425 1037 325 
Q 1275 225 1550 225 
Q 1950 225 2162 550 
Q 2375 875 2375 1475 
Q 2375 1975 2187 2287 
Q 2000 2600 1625 2600 
Q 1350 2600 1150 2500 
Q 950 2400 775 2075 
L 550 2100 
L 675 4375 
L 2725 4375 
L 2650 4000 
L 850 4000 
L 750 2350 
Q 1000 2700 1237 2775 
Q 1475 2850 1725 2850 
z
" transform="scale(0.015625)"/>
       </defs>
       <use xlink:href="#Times New Roman-35"/>
       <use xlink:href="#Times New Roman-30" x="50"/>
       <use xlink:href="#Times New Roman-30" x="100"/>
      </g>
     </g>
    </g>
    <g id="xtick_7">
     <g id="line2d_7">
      <g>
       <use xlink:href="#m4d83347500" x="934.589165" y="384.48" style="stroke: #000000; stroke-width: 0.8"/>
      </g>
     </g>
     <g id="text_7">
      <!-- 600 -->
      <g transform="translate(927.089165 398.628438) scale(0.1 -0.1)">
       <defs>
        <path id="Times New Roman-36" d="M 775 1800
Q 775 1050 1037 637 
Q 1300 225 1675 225 
Q 2050 225 2250 500 
Q 2450 775 2450 1525 
Q 2450 2025 2237 2300 
Q 2025 2575 1725 2575 
Q 1450 2575 1212 2412 
Q 975 2250 775 1800 
z
M 1750 2825 
Q 2350 2825 2612 2425 
Q 2875 2025 2875 1525 
Q 2875 775 2512 412 
Q 2150 50 1675 50 
Q 1000 50 650 562 
Q 300 1075 300 2050 
Q 300 3200 725 3812 
Q 1150 4425 1875 4425 
Q 2225 4425 2437 4225 
Q 2650 4025 2650 3875 
Q 2650 3725 2587 3650 
Q 2525 3575 2375 3575 
Q 2250 3575 2187 3637 
Q 2125 3700 2125 3825 
Q 2125 3875 2150 3925 
Q 2150 3975 2150 4025 
Q 2150 4125 2075 4187 
Q 2000 4250 1800 4250 
Q 1375 4250 1075 3862 
Q 775 3475 775 2175 
Q 925 2500 1187 2662 
Q 1450 2825 1750 2825 
z
" transform="scale(0.015625)"/>
       </defs>
       <use xlink:href="#Times New Roman-36"/>
       <use xlink:href="#Times New Roman-30" x="50"/>
       <use xlink:href="#Times New Roman-30" x="100"/>
      </g>
     </g>
    </g>
   </g>
   <g id="matplotlib.axis_2">
    <g id="ytick_1">
     <g id="line2d_8">
      <defs>
       <path id="mff2662e2bc" d="M 0 0 
L -3.5 0 
" style="stroke: #000000; stroke-width: 0.8"/>
      </defs>
      <g>
       <use xlink:href="#mff2662e2bc" x="135" y="378.263687" style="stroke: #000000; stroke-width: 0.8"/>
      </g>
     </g>
     <g id="text_8">
      <!-- 0 -->
      <g transform="translate(123 381.837905) scale(0.1 -0.1)">
       <use xlink:href="#Times New Roman-30"/>
      </g>
     </g>
    </g>
    <g id="ytick_2">
     <g id="line2d_9">
      <g>
       <use xlink:href="#mff2662e2bc" x="135" y="315.561668" style="stroke: #000000; stroke-width: 0.8"/>
      </g>
     </g>
     <g id="text_9">
      <!-- 1000 -->
      <g transform="translate(108 319.135886) scale(0.1 -0.1)">
       <use xlink:href="#Times New Roman-31"/>
       <use xlink:href="#Times New Roman-30" x="50"/>
       <use xlink:href="#Times New Roman-30" x="100"/>
       <use xlink:href="#Times New Roman-30" x="150"/>
      </g>
     </g>
    </g>
    <g id="ytick_3">
     <g id="line2d_10">
      <g>
       <use xlink:href="#mff2662e2bc" x="135" y="252.859649" style="stroke: #000000; stroke-width: 0.8"/>
      </g>
     </g>
     <g id="text_10">
      <!-- 2000 -->
      <g transform="translate(108 256.433867) scale(0.1 -0.1)">
       <use xlink:href="#Times New Roman-32"/>
       <use xlink:href="#Times New Roman-30" x="50"/>
       <use xlink:href="#Times New Roman-30" x="100"/>
       <use xlink:href="#Times New Roman-30" x="150"/>
      </g>
     </g>
    </g>
    <g id="ytick_4">
     <g id="line2d_11">
      <g>
       <use xlink:href="#mff2662e2bc" x="135" y="190.157629" style="stroke: #000000; stroke-width: 0.8"/>
      </g>
     </g>
     <g id="text_11">
      <!-- 3000 -->
      <g transform="translate(108 193.731848) scale(0.1 -0.1)">
       <use xlink:href="#Times New Roman-33"/>
       <use xlink:href="#Times New Roman-30" x="50"/>
       <use xlink:href="#Times New Roman-30" x="100"/>
       <use xlink:href="#Times New Roman-30" x="150"/>
      </g>
     </g>
    </g>
    <g id="ytick_5">
     <g id="line2d_12">
      <g>
       <use xlink:href="#mff2662e2bc" x="135" y="127.45561" style="stroke: #000000; stroke-width: 0.8"/>
      </g>
     </g>
     <g id="text_12">
      <!-- 4000 -->
      <g transform="translate(108 131.029829) scale(0.1 -0.1)">
       <use xlink:href="#Times New Roman-34"/>
       <use xlink:href="#Times New Roman-30" x="50"/>
       <use xlink:href="#Times New Roman-30" x="100"/>
       <use xlink:href="#Times New Roman-30" x="150"/>
      </g>
     </g>
    </g>
    <g id="ytick_6">
     <g id="line2d_13">
      <g>
       <use xlink:href="#mff2662e2bc" x="135" y="64.753591" style="stroke: #000000; stroke-width: 0.8"/>
      </g>
     </g>
     <g id="text_13">
      <!-- 5000 -->
      <g transform="translate(108 68.32781) scale(0.1 -0.1)">
       <use xlink:href="#Times New Roman-35"/>
       <use xlink:href="#Times New Roman-30" x="50"/>
       <use xlink:href="#Times New Roman-30" x="100"/>
       <use xlink:href="#Times New Roman-30" x="150"/>
      </g>
     </g>
    </g>
    <g id="text_14">
     <!-- Bitrate (kbps) -->
     <g transform="translate(102.710938 253.16) rotate(-90) scale(0.1 -0.1)">
      <defs>
       <path id="Times New Roman-42" d="M 100 100
L 100 250 
L 300 250 
Q 425 250 475 300 
Q 525 350 525 450 
L 525 4025 
Q 525 4125 475 4175 
Q 425 4225 300 4225 
L 150 4225 
L 150 4375 
L 1600 4375 
Q 2200 4375 2487 4137 
Q 2775 3900 2775 3400 
Q 2775 3050 2625 2825 
Q 2475 2600 2000 2425 
Q 2575 2250 2775 1925 
Q 2975 1600 2975 1200 
Q 2975 700 2625 400 
Q 2275 100 1675 100 
L 100 100 
z
M 1600 250 
Q 2025 250 2262 512 
Q 2500 775 2500 1250 
Q 2500 1800 2250 2062 
Q 2000 2325 1500 2325 
L 925 2325 
L 925 450 
Q 925 350 987 300 
Q 1050 250 1150 250 
L 1600 250 
z
M 2350 3400 
Q 2350 3850 2100 4037 
Q 1850 4225 1450 4225 
L 1150 4225 
Q 1050 4225 987 4175 
Q 925 4125 925 4025 
L 925 2475 
L 1575 2475 
Q 1850 2475 2100 2700 
Q 2350 2925 2350 3400 
z
" transform="scale(0.015625)"/>
       <path id="Times New Roman-69" d="M 1425 2525
Q 1425 2625 1375 2687 
Q 1325 2750 1200 2750 
L 675 2750 
L 675 2900 
L 925 2900 
Q 1150 2900 1350 2937 
Q 1550 2975 1725 3075 
L 1775 3075 
L 1775 450 
Q 1775 350 1837 300 
Q 1900 250 2000 250 
L 2525 250 
L 2525 100 
L 675 100 
L 675 250 
L 1200 250 
Q 1325 250 1375 300 
Q 1425 350 1425 450 
L 1425 2525 
z
M 1725 3025 
L 1725 3025 
z
M 1625 4425 
Q 1750 4425 1850 4337 
Q 1950 4250 1950 4125 
Q 1950 4000 1850 3900 
Q 1750 3800 1625 3800 
Q 1500 3800 1400 3900 
Q 1300 4000 1300 4125 
Q 1300 4250 1400 4337 
Q 1500 4425 1625 4425 
z
" transform="scale(0.015625)"/>
       <path id="Times New Roman-74" d="M 1500 900
Q 1500 550 1625 425 
Q 1750 300 2000 300 
Q 2250 300 2400 462 
Q 2550 625 2600 925 
L 2725 875 
Q 2675 525 2462 300 
Q 2250 75 1900 75 
Q 1525 75 1337 300 
Q 1150 525 1150 1000 
L 1150 2750 
L 400 2750 
L 400 2900 
L 600 2900 
Q 900 2900 1087 3087 
Q 1275 3275 1325 3675 
L 1350 3875 
L 1500 3875 
L 1500 2900 
L 2500 2900 
L 2500 2750 
L 1500 2750 
L 1500 900 
z
" transform="scale(0.015625)"/>
       <path id="Times New Roman-72" d="M 1275 2125
Q 1525 2525 1812 2737 
Q 2100 2950 2400 2950 
Q 2650 2950 2787 2837 
Q 2925 2725 2925 2575 
Q 2925 2450 2862 2375 
Q 2800 2300 2675 2300 
Q 2550 2300 2487 2375 
Q 2425 2450 2450 2575 
Q 2450 2650 2425 2700 
Q 2400 2750 2275 2750 
Q 2075 2750 1787 2500 
Q 1500 2250 1275 1800 
L 1275 450 
Q 1275 350 1337 300 
Q 1400 250 1500 250 
L 2050 250 
L 2050 100 
L 200 100 
L 200 250 
L 700 250 
Q 825 250 875 300 
Q 925 350 925 450 
L 925 2525 
Q 925 2625 875 2687 
Q 825 2750 700 2750 
L 225 2750 
L 225 2900 
L 425 2900 
Q 600 2900 837 2937 
Q 1075 2975 1200 3025 
L 1275 3025 
L 1275 2125 
z
" transform="scale(0.015625)"/>
       <path id="Times New Roman-61" d="M 1225 75
Q 775 75 525 287 
Q 275 500 275 775 
Q 275 1225 662 1512 
Q 1050 1800 2200 1925 
L 2200 2225 
Q 2200 2475 2087 2637 
Q 1975 2800 1575 2800 
Q 1150 2800 975 2662 
Q 800 2525 850 2375 
Q 875 2325 875 2275 
Q 875 2225 837 2150 
Q 800 2075 650 2075 
Q 550 2075 487 2137 
Q 425 2200 425 2325 
Q 425 2550 750 2750 
Q 1075 2950 1550 2950 
Q 2050 2950 2300 2762 
Q 2550 2575 2550 2225 
L 2550 575 
Q 2550 375 2587 337 
Q 2625 300 2725 300 
Q 2850 300 2900 412 
Q 2950 525 2950 725 
L 3075 725 
Q 3075 375 2950 237 
Q 2825 100 2625 100 
Q 2450 100 2350 175 
Q 2250 250 2200 425 
Q 1950 250 1737 162 
Q 1525 75 1225 75 
z
M 700 850 
Q 700 625 837 437 
Q 975 250 1275 250 
Q 1500 250 1725 337 
Q 1950 425 2200 600 
L 2200 1775 
Q 1350 1675 1025 1437 
Q 700 1200 700 850 
z
" transform="scale(0.015625)"/>
       <path id="Times New Roman-65" d="M 2400 1650
Q 2425 2200 2212 2487 
Q 2000 2775 1650 2775 
Q 1275 2775 1037 2475 
Q 800 2175 800 1650 
L 2400 1650 
z
M 800 1500 
Q 800 825 1062 537 
Q 1325 250 1750 250 
Q 2075 250 2300 437 
Q 2525 625 2625 900 
L 2750 850 
Q 2675 575 2412 312 
Q 2150 50 1700 50 
Q 1125 50 762 425 
Q 400 800 400 1500 
Q 400 2125 762 2537 
Q 1125 2950 1650 2950 
Q 2125 2950 2475 2625 
Q 2825 2300 2825 1500 
L 800 1500 
z
" transform="scale(0.015625)"/>
       <path id="Times New Roman-20" d="M 0 0
Q 0 0 0 0 
z
" transform="scale(0.015625)"/>
       <path id="Times New Roman-28" d="M 2900 5025
Q 2325 4425 2037 3737 
Q 1750 3050 1750 2300 
Q 1750 1525 2037 850 
Q 2325 175 2900 -425 
L 2775 -550 
Q 2075 75 1725 787 
Q 1375 1500 1375 2300 
Q 1375 3075 1725 3787 
Q 2075 4500 2775 5150 
L 2900 5025 
z
" transform="scale(0.015625)"/>
       <path id="Times New Roman-6b" d="M 1675 1900
L 2625 425 
Q 2700 325 2762 287 
Q 2825 250 2900 250 
L 3000 250 
L 3000 100 
L 1975 100 
L 1975 250 
L 2050 250 
Q 2175 250 2225 287 
Q 2275 325 2200 425 
L 1425 1650 
L 925 1125 
L 925 450 
Q 925 350 987 300 
Q 1050 250 1150 250 
L 1275 250 
L 1275 100 
L 225 100 
L 225 250 
L 350 250 
Q 475 250 525 300 
Q 575 350 575 450 
L 575 4025 
Q 575 4125 525 4175 
Q 475 4225 350 4225 
L 200 4225 
L 200 4375 
L 425 4375 
Q 575 4375 687 4425 
Q 800 4475 875 4575 
L 925 4575 
L 925 1400 
L 1975 2525 
Q 2025 2625 2012 2687 
Q 2000 2750 1900 2750 
L 1750 2750 
L 1750 2900 
L 2800 2900 
L 2800 2750 
L 2675 2750 
Q 2600 2750 2487 2712 
Q 2375 2675 2275 2575 
L 1675 1900 
z
M 2450 2750 
L 2450 2750 
z
M 2175 2750 
L 2175 2750 
z
M 2300 250 
L 2300 250 
z
M 2750 250 
L 2750 250 
z
" transform="scale(0.015625)"/>
       <path id="Times New Roman-62" d="M 875 2325
Q 1000 2600 1275 2762 
Q 1550 2925 1800 2925 
Q 2325 2925 2587 2562 
Q 2850 2200 2850 1500 
Q 2850 800 2512 437 
Q 2175 75 1675 75 
Q 1425 75 1212 162 
Q 1000 250 850 400 
L 625 100 
L 525 100 
L 525 4025 
Q 525 4125 475 4175 
Q 425 4225 300 4225 
L 150 4225 
L 150 4375 
L 375 4375 
Q 500 4375 625 4425 
Q 750 4475 875 4575 
L 875 2325 
z
M 875 925 
Q 875 650 1062 450 
Q 1250 250 1625 250 
Q 2075 250 2262 562 
Q 2450 875 2450 1500 
Q 2450 2100 2287 2412 
Q 2125 2725 1775 2725 
Q 1475 2725 1250 2550 
Q 1025 2375 875 1925 
L 875 925 
z
" transform="scale(0.015625)"/>
       <path id="Times New Roman-70" d="M 1150 -675
L 1325 -675 
L 1325 -825 
L 175 -825 
L 175 -675 
L 325 -675 
Q 450 -675 500 -625 
Q 550 -575 550 -450 
L 550 2500 
Q 550 2600 500 2662 
Q 450 2725 325 2725 
L 175 2725 
L 175 2875 
L 400 2875 
Q 525 2875 637 2900 
Q 750 2925 850 3000 
L 900 3000 
L 900 2425 
Q 1075 2675 1287 2800 
Q 1500 2925 1750 2925 
Q 2250 2925 2575 2587 
Q 2900 2250 2900 1525 
Q 2900 825 2550 450 
Q 2200 75 1725 75 
Q 1450 75 1262 162 
Q 1075 250 900 425 
L 900 -450 
Q 900 -575 975 -625 
Q 1050 -675 1150 -675 
z
M 900 750 
Q 1025 500 1212 375 
Q 1400 250 1650 250 
Q 2000 250 2250 562 
Q 2500 875 2500 1525 
Q 2500 2125 2312 2425 
Q 2125 2725 1750 2725 
Q 1525 2725 1300 2587 
Q 1075 2450 900 2150 
L 900 750 
z
" transform="scale(0.015625)"/>
       <path id="Times New Roman-73" d="M 625 2175
Q 625 2550 912 2750 
Q 1200 2950 1600 2950 
Q 1825 2950 2025 2900 
Q 2225 2825 2300 2825 
Q 2375 2825 2425 2850 
Q 2475 2875 2550 2950 
L 2650 2125 
L 2500 2100 
Q 2400 2425 2162 2612 
Q 1925 2800 1625 2800 
Q 1300 2800 1112 2675 
Q 925 2550 925 2325 
Q 925 2125 1012 2012 
Q 1100 1900 1325 1850 
Q 1500 1775 1775 1700 
Q 2025 1600 2250 1500 
Q 2450 1400 2587 1237 
Q 2725 1075 2725 875 
Q 2725 500 2462 287 
Q 2200 75 1700 75 
Q 1375 75 1225 150 
Q 1050 200 950 200 
Q 875 200 787 162 
Q 700 125 600 75 
L 525 1000 
L 675 1025 
Q 750 625 1000 425 
Q 1250 225 1700 225 
Q 2050 225 2237 350 
Q 2425 475 2425 725 
Q 2425 900 2325 1012 
Q 2225 1125 2125 1175 
Q 1875 1275 1575 1400 
Q 1275 1500 1050 1600 
Q 825 1700 725 1850 
Q 625 2000 625 2175 
z
" transform="scale(0.015625)"/>
       <path id="Times New Roman-29" d="M 275 5025
L 400 5150 
Q 1100 4500 1450 3787 
Q 1800 3075 1800 2300 
Q 1800 1500 1450 787 
Q 1100 75 400 -550 
L 275 -425 
Q 850 175 1137 850 
Q 1425 1525 1425 2300 
Q 1425 3050 1137 3737 
Q 850 4425 275 5025 
z
" transform="scale(0.015625)"/>
      </defs>
      <use xlink:href="#Times New Roman-42"/>
      <use xlink:href="#Times New Roman-69" x="50"/>
      <use xlink:href="#Times New Roman-74" x="100"/>
      <use xlink:href="#Times New Roman-72" x="150"/>
      <use xlink:href="#Times New Roman-61" x="200"/>
      <use xlink:href="#Times New Roman-74" x="250"/>
      <use xlink:href="#Times New Roman-65" x="300"/>
      <use xlink:href="#Times New Roman-20" x="350"/>
      <use xlink:href="#Times New Roman-28" x="400"/>
      <use xlink:href="#Times New Roman-6b" x="450"/>
      <use xlink:href="#Times New Roman-62" x="500"/>
      <use xlink:href="#Times New Roman-70" x="550"/>
      <use xlink:href="#Times New Roman-73" x="600"/>
      <use xlink:href="#Times New Roman-29" x="650"/>
     </g>
    </g>
   </g>
   <g id="line2d_14">
    <path d="M 173.045455 369.36 
L 176.218553 369.36 
L 177.487793 337.69548 
L 181.295511 337.69548 
L 182.564751 369.36 
L 195.257146 369.36 
L 196.526386 309.73038 
L 198.430245 309.73038 
L 199.064865 337.69548 
L 201.603344 337.69548 
L 202.872583 309.73038 
L 204.141823 309.73038 
L 205.411062 258.879042 
L 210.48802 258.879042 
L 211.75726 309.73038 
L 213.026499 309.73038 
L 214.295739 134.60364 
L 216.834218 134.60364 
L 218.103457 258.879042 
L 229.526613 258.879042 
L 230.795853 134.60364 
L 260.622981 134.60364 
L 261.257601 258.879042 
L 287.277011 258.879042 
L 287.911631 309.73038 
L 304.411745 309.73038 
L 305.680984 337.69548 
L 319.007999 337.69548 
L 319.642619 369.36 
L 341.219691 369.36 
L 342.48893 337.69548 
L 343.75817 337.69548 
L 344.392789 258.879042 
L 345.027409 309.73038 
L 360.258283 309.73038 
L 361.527523 258.879042 
L 362.796762 309.73038 
L 364.066002 309.73038 
L 365.335241 258.879042 
L 381.835355 258.879042 
L 383.104595 134.60364 
L 431.335696 134.60364 
L 432.604936 258.879042 
L 433.874175 258.879042 
L 435.143415 134.60364 
L 438.951134 134.60364 
L 440.220373 258.879042 
L 442.758852 258.879042 
L 444.028092 134.60364 
L 445.297331 258.879042 
L 447.83581 258.879042 
L 449.10505 134.60364 
L 449.739669 134.60364 
L 450.374289 309.73038 
L 456.720487 309.73038 
L 457.989726 337.69548 
L 460.528205 337.69548 
L 461.797445 309.73038 
L 463.066684 337.69548 
L 471.951361 337.69548 
L 473.220601 369.36 
L 478.297559 369.36 
L 479.566798 337.69548 
L 481.470657 337.69548 
L 482.105277 369.36 
L 496.066912 369.36 
L 497.336151 309.73038 
L 497.970771 309.73038 
L 498.605391 337.69548 
L 513.836265 337.69548 
L 515.105505 258.879042 
L 516.374744 258.879042 
L 517.643984 134.60364 
L 518.913223 258.879042 
L 521.451702 258.879042 
L 522.720942 134.60364 
L 525.259421 134.60364 
L 526.52866 258.879042 
L 529.067139 258.879042 
L 530.336379 134.60364 
L 531.605618 134.60364 
L 532.874858 258.879042 
L 546.836493 258.879042 
L 548.105732 134.60364 
L 562.701987 134.60364 
L 563.336606 258.879042 
L 567.144325 258.879042 
L 567.778945 134.60364 
L 570.952043 134.60364 
L 572.221283 258.879042 
L 574.759762 258.879042 
L 576.029001 134.60364 
L 576.663621 134.60364 
L 577.298241 258.879042 
L 579.83672 258.879042 
L 581.10596 134.60364 
L 581.740579 134.60364 
L 582.375199 258.879042 
L 587.452157 258.879042 
L 588.721397 134.60364 
L 601.413792 134.60364 
L 602.683031 309.73038 
L 606.49075 309.73038 
L 607.759989 337.69548 
L 610.298468 337.69548 
L 611.567708 258.879042 
L 612.202328 258.879042 
L 612.836947 337.69548 
L 627.433202 337.69548 
L 628.067822 369.36 
L 644.567935 369.36 
L 645.202555 258.879042 
L 645.837175 337.69548 
L 660.433429 337.69548 
L 661.068049 309.73038 
L 676.298923 309.73038 
L 677.568163 134.60364 
L 685.1836 134.60364 
L 686.452839 258.879042 
L 688.991319 258.879042 
L 690.260558 134.60364 
L 691.529798 258.879042 
L 694.068277 258.879042 
L 695.337516 134.60364 
L 696.606756 258.879042 
L 699.145235 258.879042 
L 700.414474 134.60364 
L 721.356926 134.60364 
L 721.991546 258.879042 
L 724.530025 258.879042 
L 725.799265 134.60364 
L 730.876223 134.60364 
L 732.145462 258.879042 
L 737.22242 258.879042 
L 738.49166 134.60364 
L 740.395519 134.60364 
L 741.030139 258.879042 
L 747.376336 258.879042 
L 748.645576 309.73038 
L 769.588028 309.73038 
L 770.222648 337.69548 
L 770.857267 337.69548 
L 771.491887 369.36 
L 790.53048 369.36 
L 791.799719 309.73038 
L 793.068959 369.36 
L 805.761354 369.36 
L 807.030594 309.73038 
L 808.299833 337.69548 
L 810.838312 337.69548 
L 812.107552 258.879042 
L 813.376791 258.879042 
L 814.646031 134.60364 
L 815.280651 134.60364 
L 815.91527 309.73038 
L 818.453749 309.73038 
L 819.722989 258.879042 
L 820.992228 258.879042 
L 822.261468 134.60364 
L 823.530707 258.879042 
L 826.069186 258.879042 
L 827.338426 134.60364 
L 900.954318 134.60364 
L 902.223558 258.879042 
L 904.762037 258.879042 
L 906.031276 134.60364 
L 907.300516 309.73038 
L 916.819812 309.73038 
L 917.454432 337.69548 
L 930.146827 337.69548 
L 931.416066 309.73038 
L 932.685306 309.73038 
L 933.954545 369.36 
L 933.954545 369.36 
" clip-path="url(#pa38b0b01e2)" style="fill: none; stroke: #ff0000; stroke-width: 1.5; stroke-linecap: square"/>
   </g>
   <g id="line2d_15">
    <path d="M 173.045455 345.79307 
L 174.314694 345.79307 
L 174.949314 345.634852 
L 176.218553 345.119324 
L 177.487793 344.020317 
L 178.757032 342.4298 
L 180.026272 340.127784 
L 181.295511 337.129691 
L 182.564751 333.487556 
L 183.83399 329.480345 
L 186.372469 320.288129 
L 188.910949 310.099569 
L 191.449428 298.98944 
L 195.257146 280.469571 
L 197.795625 267.446747 
L 199.064865 255.725582 
L 201.603344 244.037324 
L 204.141823 231.217386 
L 206.680302 224.466569 
L 207.949541 221.248869 
L 210.48802 206.749788 
L 211.75726 195.787201 
L 213.026499 175.55468 
L 218.103457 152.64985 
L 221.911176 133.455006 
L 223.180415 139.574958 
L 223.815035 158.136895 
L 224.449655 182.557476 
L 225.718895 204.000764 
L 226.988134 222.427265 
L 228.257374 228.138533 
L 228.891993 217.472134 
L 229.526613 197.179386 
L 230.795853 185.853897 
L 232.065092 182.756551 
L 233.334332 176.420938 
L 234.603571 164.878182 
L 235.872811 149.010759 
L 239.045909 95.998158 
L 239.680529 94.967838 
L 240.949769 98.638431 
L 242.219008 97.439067 
L 243.488248 100.277178 
L 244.122868 106.440602 
L 244.757487 124.629304 
L 246.026727 139.254726 
L 247.295966 151.000436 
L 248.565206 142.964411 
L 249.834445 127.752467 
L 251.103685 101.12832 
L 252.372924 83.508986 
L 253.642164 74.046231 
L 257.449882 95.790288 
L 258.719122 98.916092 
L 259.988362 102.833347 
L 261.257601 101.852252 
L 262.526841 101.389428 
L 265.06532 110.045015 
L 266.334559 114.878455 
L 267.603799 125.213353 
L 272.680757 145.972436 
L 275.219236 158.652022 
L 281.565433 194.068597 
L 286.642391 224.570838 
L 287.911631 237.809291 
L 292.988589 261.107455 
L 296.796308 280.851101 
L 298.065547 292.397435 
L 300.604026 302.034284 
L 303.142505 311.236131 
L 306.950224 325.427521 
L 309.488703 333.507587 
L 310.757942 337.087154 
L 312.027182 340.333948 
L 313.296421 343.250645 
L 314.565661 345.777419 
L 315.8349 347.895109 
L 317.10414 349.597059 
L 318.373379 350.896178 
L 319.007999 351.869414 
L 319.642619 352.56753 
L 320.911858 352.947922 
L 322.181098 352.982901 
L 323.450337 352.618293 
L 324.719577 351.940978 
L 325.988816 349.953942 
L 327.258056 348.64225 
L 329.796535 345.273362 
L 331.065775 342.997396 
L 332.335014 340.326357 
L 333.604254 338.561136 
L 334.873493 336.486084 
L 336.142733 333.867514 
L 338.681212 324.708906 
L 341.219691 311.56489 
L 342.48893 304.547949 
L 343.75817 293.961809 
L 345.027409 285.372 
L 346.296649 281.530389 
L 347.565888 273.57168 
L 348.835128 269.060379 
L 350.104367 263.995862 
L 351.373607 258.436951 
L 352.642846 247.267665 
L 356.450565 230.914678 
L 357.719804 224.57542 
L 358.989044 211.820558 
L 360.258283 202.039211 
L 361.527523 198.114967 
L 362.796762 193.548387 
L 364.066002 182.959438 
L 366.604481 171.064781 
L 367.873721 165.073377 
L 369.14296 153.422339 
L 371.681439 142.334047 
L 372.950679 137.775627 
L 374.219918 136.729724 
L 375.489158 148.89746 
L 376.758397 170.947904 
L 378.027637 205.822166 
L 380.566116 257.889086 
L 381.835355 262.005382 
L 383.104595 270.157581 
L 384.373834 257.145524 
L 385.643074 259.575185 
L 386.912313 245.668412 
L 388.181553 251.19251 
L 390.085412 224.349893 
L 390.720032 208.315064 
L 391.989271 210.559495 
L 393.258511 217.09017 
L 394.52775 222.472979 
L 395.16237 220.787716 
L 395.79699 218.315317 
L 397.066229 211.520291 
L 398.335469 206.94408 
L 399.604708 195.395405 
L 400.873948 208.977766 
L 402.143188 209.187207 
L 403.412427 227.339793 
L 404.681667 219.205753 
L 405.950906 246.166317 
L 407.220146 244.473429 
L 408.489385 262.282976 
L 409.758625 254.587649 
L 411.027864 269.79635 
L 412.297104 261.533194 
L 413.566343 267.14357 
L 414.835583 257.446794 
L 416.104822 270.349967 
L 417.374062 262.509138 
L 418.643301 270.047927 
L 419.912541 261.681906 
L 421.18178 271.975304 
L 422.45102 256.872745 
L 423.720259 259.415504 
L 424.989499 245.034002 
L 426.258738 244.583584 
L 427.527978 229.840316 
L 428.797217 234.528956 
L 430.066457 229.718022 
L 431.335696 240.477454 
L 432.604936 244.601341 
L 433.239556 256.442994 
L 433.874175 251.414693 
L 435.143415 248.075635 
L 436.412654 244.267733 
L 437.681894 246.738493 
L 438.951134 254.778163 
L 440.220373 268.672964 
L 441.489613 287.532628 
L 444.028092 301.105491 
L 445.297331 295.939179 
L 446.566571 295.351152 
L 447.83581 288.291239 
L 449.10505 291.29418 
L 449.739669 296.87456 
L 450.374289 309.061692 
L 451.643529 318.969915 
L 452.912768 325.578474 
L 454.182008 330.122147 
L 455.451247 331.118791 
L 457.989726 332.019593 
L 459.258966 335.254616 
L 460.528205 339.454949 
L 461.797445 341.417873 
L 463.066684 344.452384 
L 464.335924 347.165391 
L 466.874403 349.346352 
L 468.143642 349.894183 
L 470.682121 354.719129 
L 471.951361 357.751097 
L 473.220601 358.774829 
L 474.48984 358.878797 
L 475.75908 356.991617 
L 477.028319 351.507782 
L 477.662939 350.225785 
L 478.297559 349.28676 
L 479.566798 348.250019 
L 480.836038 346.987986 
L 481.470657 345.725586 
L 482.105277 345.618909 
L 483.374517 346.376082 
L 484.643756 349.09026 
L 485.912996 352.114437 
L 487.182235 356.597982 
L 488.451475 358.39126 
L 489.720714 359.916742 
L 490.989954 355.479779 
L 492.259193 349.646318 
L 493.528433 337.855596 
L 496.066912 318.756762 
L 497.336151 318.356071 
L 497.970771 322.779021 
L 498.605391 331.682875 
L 499.87463 339.883898 
L 501.14387 345.803102 
L 502.413109 348.232028 
L 503.682349 346.672403 
L 504.951588 348.125351 
L 506.220828 347.010058 
L 507.490067 348.948503 
L 508.759307 338.295681 
L 510.028547 326.470013 
L 513.836265 245.329721 
L 516.374744 226.608972 
L 517.643984 231.966366 
L 518.913223 225.226986 
L 520.182463 229.710063 
L 521.451702 221.500279 
L 522.720942 224.857796 
L 523.990181 215.928092 
L 525.259421 213.740879 
L 527.7979 175.257122 
L 529.067139 146.493281 
L 530.336379 125.291103 
L 531.605618 109.453643 
L 532.874858 103.956332 
L 535.413337 94.088371 
L 537.951816 85.767596 
L 539.221055 86.688162 
L 540.490295 103.41997 
L 541.759534 129.440907 
L 543.028774 172.006214 
L 544.298013 200.603652 
L 545.567253 235.812357 
L 546.836493 234.933994 
L 548.105732 224.54044 
L 549.374972 183.591273 
L 550.644211 157.431322 
L 551.913451 125.638422 
L 553.18269 110.034649 
L 554.45193 96.556089 
L 555.721169 93.357884 
L 556.990409 90.59107 
L 558.259648 84.782255 
L 559.528888 90.548633 
L 560.798127 111.633466 
L 562.067367 136.144873 
L 562.701987 154.48941 
L 563.336606 164.492272 
L 564.605846 168.201824 
L 565.875085 157.17319 
L 567.144325 140.146064 
L 567.778945 129.862164 
L 568.413564 134.084902 
L 569.682804 138.055428 
L 570.952043 146.331593 
L 572.221283 155.560227 
L 573.490522 172.318922 
L 576.029001 182.849717 
L 576.663621 176.201698 
L 577.298241 177.045952 
L 578.56748 170.331853 
L 579.83672 172.44874 
L 581.10596 183.129385 
L 582.375199 232.299406 
L 583.644439 256.820343 
L 584.913678 269.272161 
L 586.182918 277.378579 
L 587.452157 267.559443 
L 588.721397 265.089819 
L 589.990636 258.794269 
L 591.259876 266.945933 
L 592.529115 267.814364 
L 593.798355 279.891643 
L 595.067594 282.088621 
L 596.336834 286.867117 
L 597.606073 282.696446 
L 600.144552 292.613765 
L 601.413792 305.418086 
L 602.683031 312.805153 
L 603.952271 324.539359 
L 605.22151 328.161998 
L 606.49075 330.021656 
L 607.759989 326.777337 
L 609.029229 330.143214 
L 610.298468 331.610575 
L 611.567708 335.545654 
L 612.202328 338.59742 
L 612.836947 343.53874 
L 614.106187 345.329978 
L 615.375426 345.777353 
L 616.010046 345.166451 
L 616.644666 345.399636 
L 617.913906 345.698131 
L 619.183145 346.77918 
L 621.721624 349.762927 
L 622.990864 350.924904 
L 624.260103 351.921649 
L 625.529343 352.467106 
L 626.798582 352.639194 
L 627.433202 352.43721 
L 629.337061 351.39863 
L 630.606301 351.638303 
L 631.87554 351.523499 
L 633.14478 351.092043 
L 634.414019 348.998865 
L 635.683259 347.965402 
L 636.952498 348.558379 
L 638.221738 352.315284 
L 639.490977 354.541623 
L 640.760217 354.367596 
L 642.029456 348.922486 
L 643.298696 339.638708 
L 644.567935 315.457465 
L 645.202555 307.658839 
L 645.837175 303.506895 
L 647.106414 299.987121 
L 648.375654 296.002049 
L 649.644893 291.500813 
L 650.914133 286.089812 
L 652.183373 280.131248 
L 653.452612 273.626892 
L 655.991091 271.431184 
L 657.260331 270.201121 
L 658.52957 266.065095 
L 659.16419 265.04668 
L 659.79881 265.299127 
L 660.433429 270.076753 
L 661.068049 273.461091 
L 662.337289 283.159003 
L 663.606528 283.15188 
L 664.875768 286.500034 
L 666.145007 278.112544 
L 667.414247 281.100003 
L 668.683486 274.655874 
L 669.952726 286.86297 
L 671.221965 279.869271 
L 672.491205 281.505208 
L 673.760444 259.68116 
L 675.029684 257.179868 
L 675.664304 250.630266 
L 676.298923 252.458389 
L 677.568163 246.60513 
L 678.837402 239.948718 
L 680.106642 220.563694 
L 681.375881 187.560428 
L 682.645121 172.081523 
L 683.91436 162.851753 
L 685.1836 167.225311 
L 686.452839 158.597045 
L 687.722079 172.163588 
L 688.991319 168.737984 
L 690.260558 162.771762 
L 691.529798 149.347377 
L 692.799037 162.077692 
L 694.068277 158.70633 
L 695.337516 158.707434 
L 696.606756 149.488331 
L 697.241375 149.656807 
L 697.875995 127.924521 
L 699.145235 107.20336 
L 700.414474 84.421793 
L 702.952953 66.96 
L 704.222193 68.023159 
L 705.491432 68.762073 
L 706.760672 70.184857 
L 708.029911 71.317038 
L 709.299151 72.706849 
L 711.83763 93.996107 
L 713.106869 105.379851 
L 714.376109 108.154491 
L 715.645348 111.591531 
L 716.914588 106.946465 
L 719.453067 115.420234 
L 720.722306 136.057959 
L 721.991546 175.403025 
L 723.260786 185.938603 
L 724.530025 188.99612 
L 725.799265 185.488185 
L 728.337744 167.467625 
L 729.606983 162.329269 
L 732.145462 187.455223 
L 733.414702 204.226023 
L 734.683941 210.941493 
L 735.953181 218.293513 
L 738.49166 213.320123 
L 739.760899 210.89919 
L 741.030139 225.306977 
L 743.568618 238.924016 
L 746.107097 251.198898 
L 748.645576 257.590023 
L 749.914815 260.898616 
L 753.722534 281.209656 
L 756.261013 293.646091 
L 758.799492 305.24844 
L 761.337971 315.922597 
L 763.87645 325.394715 
L 766.414929 333.66874 
L 767.684169 337.333013 
L 768.953408 340.575359 
L 769.588028 343.343946 
L 770.222648 345.560287 
L 771.491887 348.90707 
L 774.030366 351.586837 
L 776.568845 353.130042 
L 777.838085 353.242505 
L 779.107324 353.039952 
L 781.645803 351.801328 
L 782.915043 350.778767 
L 784.184282 349.324414 
L 785.453522 348.166584 
L 786.722761 346.702166 
L 787.992001 345.768892 
L 789.26124 344.568892 
L 790.53048 342.993149 
L 791.799719 339.54203 
L 793.068959 334.850615 
L 795.607438 324.11439 
L 798.145917 312.28481 
L 800.684396 304.195748 
L 801.953636 299.712102 
L 803.222875 294.70313 
L 804.492115 297.386676 
L 805.761354 314.81339 
L 807.030594 318.646774 
L 808.299833 314.815162 
L 809.569073 303.077813 
L 810.838312 258.558877 
L 812.107552 244.578969 
L 813.376791 239.988446 
L 814.646031 244.919332 
L 815.91527 271.397877 
L 817.18451 271.58003 
L 818.453749 268.335042 
L 819.722989 267.611043 
L 820.992228 261.236237 
L 822.261468 256.616787 
L 823.530707 253.992498 
L 824.799947 261.225135 
L 826.069186 256.254018 
L 827.338426 261.995483 
L 828.607665 261.177514 
L 829.876905 272.316637 
L 831.146145 262.77981 
L 832.415384 263.636504 
L 833.684624 248.57909 
L 834.953863 253.088419 
L 836.223103 243.971412 
L 837.492342 256.409887 
L 838.761582 249.798987 
L 840.030821 256.54753 
L 841.300061 245.126366 
L 842.5693 254.862669 
L 843.83854 252.764676 
L 845.107779 267.030505 
L 846.377019 265.025111 
L 847.646258 279.934414 
L 848.915498 281.11271 
L 850.184737 294.814121 
L 851.453977 302.820584 
L 852.723216 323.419919 
L 855.261695 344.177966 
L 856.530935 347.371723 
L 857.800174 352.246161 
L 860.338653 351.955056 
L 861.607893 352.403836 
L 862.877132 354.361042 
L 864.146372 354.512663 
L 866.684851 355.890035 
L 867.954091 358.732994 
L 869.22333 358.611971 
L 870.49257 356.9655 
L 871.761809 355.006722 
L 873.031049 353.482745 
L 874.300288 352.617992 
L 875.569528 352.191251 
L 876.838767 353.307748 
L 878.108007 355.348624 
L 880.646486 356.303768 
L 881.915725 355.362502 
L 883.184965 353.160072 
L 884.454204 348.452806 
L 885.723444 347.320157 
L 888.261923 333.028745 
L 889.531162 318.453284 
L 890.800402 313.994385 
L 892.069641 303.09266 
L 893.338881 299.485305 
L 894.60812 288.578732 
L 895.87736 289.513443 
L 897.146599 285.483024 
L 898.415839 291.681997 
L 899.685078 292.447329 
L 900.954318 301.167224 
L 902.223558 306.911832 
L 903.492797 315.76091 
L 904.762037 319.594026 
L 907.300516 334.923516 
L 908.569755 344.982659 
L 909.838995 347.072158 
L 911.108234 349.818974 
L 912.377474 348.35255 
L 913.646713 350.064432 
L 914.915953 347.61601 
L 916.185192 348.552895 
L 916.819812 347.093292 
L 917.454432 348.159862 
L 918.723671 348.275401 
L 919.992911 349.670028 
L 921.26215 350.299589 
L 922.53139 350.199367 
L 923.800629 350.315407 
L 925.069869 350.184017 
L 926.339108 350.74265 
L 927.608348 350.91223 
L 928.877587 351.849784 
L 929.512207 352.463662 
L 930.146827 352.74644 
L 931.416066 352.712263 
L 933.954545 351.893425 
L 933.954545 351.893425 
" clip-path="url(#pa38b0b01e2)" style="fill: none; stroke: #008000; stroke-width: 1.5; stroke-linecap: square"/>
   </g>
   <g id="patch_3">
    <path d="M 135 384.48 
L 135 51.84 
" style="fill: none; stroke: #000000; stroke-width: 0.8; stroke-linejoin: miter; stroke-linecap: square"/>
   </g>
   <g id="patch_4">
    <path d="M 972 384.48 
L 972 51.84 
" style="fill: none; stroke: #000000; stroke-width: 0.8; stroke-linejoin: miter; stroke-linecap: square"/>
   </g>
   <g id="patch_5">
    <path d="M 135 384.48 
L 972 384.48 
" style="fill: none; stroke: #000000; stroke-width: 0.8; stroke-linejoin: miter; stroke-linecap: square"/>
   </g>
   <g id="patch_6">
    <path d="M 135 51.84 
L 972 51.84 
" style="fill: none; stroke: #000000; stroke-width: 0.8; stroke-linejoin: miter; stroke-linecap: square"/>
   </g>
  </g>
  <g id="axes_2">
   <g id="matplotlib.axis_3">
    <g id="ytick_7">
     <g id="line2d_16">
      <path d="M 135 340.844583 
L 972 340.844583 
" clip-path="url(#pa38b0b01e2)" style="fill: none; stroke: #b0b0b0; stroke-width: 0.8; stroke-linecap: square"/>
     </g>
     <g id="line2d_17">
      <defs>
       <path id="m04ab64e54a" d="M 0 0 
L 3.5 0 
" style="stroke: #000000; stroke-width: 0.8"/>
      </defs>
      <g>
       <use xlink:href="#m04ab64e54a" x="972" y="340.844583" style="stroke: #000000; stroke-width: 0.8"/>
      </g>
     </g>
     <g id="text_15">
      <!-- 5 -->
      <g transform="translate(979 344.418802) scale(0.1 -0.1)">
       <use xlink:href="#Times New Roman-35"/>
      </g>
     </g>
    </g>
    <g id="ytick_8">
     <g id="line2d_18">
      <path d="M 135 287.769604 
L 972 287.769604 
" clip-path="url(#pa38b0b01e2)" style="fill: none; stroke: #b0b0b0; stroke-width: 0.8; stroke-linecap: square"/>
     </g>
     <g id="line2d_19">
      <g>
       <use xlink:href="#m04ab64e54a" x="972" y="287.769604" style="stroke: #000000; stroke-width: 0.8"/>
      </g>
     </g>
     <g id="text_16">
      <!-- 10 -->
      <g transform="translate(979 291.343823) scale(0.1 -0.1)">
       <use xlink:href="#Times New Roman-31"/>
       <use xlink:href="#Times New Roman-30" x="50"/>
      </g>
     </g>
    </g>
    <g id="ytick_9">
     <g id="line2d_20">
      <path d="M 135 234.694625 
L 972 234.694625 
" clip-path="url(#pa38b0b01e2)" style="fill: none; stroke: #b0b0b0; stroke-width: 0.8; stroke-linecap: square"/>
     </g>
     <g id="line2d_21">
      <g>
       <use xlink:href="#m04ab64e54a" x="972" y="234.694625" style="stroke: #000000; stroke-width: 0.8"/>
      </g>
     </g>
     <g id="text_17">
      <!-- 15 -->
      <g transform="translate(979 238.268844) scale(0.1 -0.1)">
       <use xlink:href="#Times New Roman-31"/>
       <use xlink:href="#Times New Roman-35" x="50"/>
      </g>
     </g>
    </g>
    <g id="ytick_10">
     <g id="line2d_22">
      <path d="M 135 181.619646 
L 972 181.619646 
" clip-path="url(#pa38b0b01e2)" style="fill: none; stroke: #b0b0b0; stroke-width: 0.8; stroke-linecap: square"/>
     </g>
     <g id="line2d_23">
      <g>
       <use xlink:href="#m04ab64e54a" x="972" y="181.619646" style="stroke: #000000; stroke-width: 0.8"/>
      </g>
     </g>
     <g id="text_18">
      <!-- 20 -->
      <g transform="translate(979 185.193865) scale(0.1 -0.1)">
       <use xlink:href="#Times New Roman-32"/>
       <use xlink:href="#Times New Roman-30" x="50"/>
      </g>
     </g>
    </g>
    <g id="ytick_11">
     <g id="line2d_24">
      <path d="M 135 128.544667 
L 972 128.544667 
" clip-path="url(#pa38b0b01e2)" style="fill: none; stroke: #b0b0b0; stroke-width: 0.8; stroke-linecap: square"/>
     </g>
     <g id="line2d_25">
      <g>
       <use xlink:href="#m04ab64e54a" x="972" y="128.544667" style="stroke: #000000; stroke-width: 0.8"/>
      </g>
     </g>
     <g id="text_19">
      <!-- 25 -->
      <g transform="translate(979 132.118886) scale(0.1 -0.1)">
       <use xlink:href="#Times New Roman-32"/>
       <use xlink:href="#Times New Roman-35" x="50"/>
      </g>
     </g>
    </g>
    <g id="ytick_12">
     <g id="line2d_26">
      <path d="M 135 75.469688 
L 972 75.469688 
" clip-path="url(#pa38b0b01e2)" style="fill: none; stroke: #b0b0b0; stroke-width: 0.8; stroke-linecap: square"/>
     </g>
     <g id="line2d_27">
      <g>
       <use xlink:href="#m04ab64e54a" x="972" y="75.469688" style="stroke: #000000; stroke-width: 0.8"/>
      </g>
     </g>
     <g id="text_20">
      <!-- 30 -->
      <g transform="translate(979 79.043907) scale(0.1 -0.1)">
       <use xlink:href="#Times New Roman-33"/>
       <use xlink:href="#Times New Roman-30" x="50"/>
      </g>
     </g>
    </g>
    <g id="text_21">
     <!-- buffer (s) -->
     <g transform="translate(1000.617188 243.16) rotate(-90) scale(0.1 -0.1)">
      <defs>
       <path id="Times New Roman-75" d="M 1450 325
Q 1750 325 1962 475 
Q 2175 625 2275 950 
L 2275 2525 
Q 2275 2625 2225 2687 
Q 2175 2750 2050 2750 
L 1900 2750 
L 1900 2900 
L 2050 2900 
Q 2200 2900 2325 2925 
Q 2450 2950 2575 3050 
L 2625 3050 
L 2625 600 
Q 2625 500 2687 450 
Q 2750 400 2850 400 
L 3000 400 
L 3000 250 
L 2850 250 
Q 2725 250 2600 212 
Q 2475 175 2325 100 
L 2275 100 
L 2275 625 
Q 2150 350 1900 212 
Q 1650 75 1325 75 
Q 925 75 725 300 
Q 525 525 525 1025 
L 525 2525 
Q 525 2625 475 2687 
Q 425 2750 300 2750 
L 150 2750 
L 150 2900 
L 300 2900 
Q 450 2900 575 2925 
Q 700 2950 825 3050 
L 875 3050 
L 875 975 
Q 875 625 1025 475 
Q 1175 325 1450 325 
z
" transform="scale(0.015625)"/>
       <path id="Times New Roman-66" d="M 1125 3325
Q 1125 3850 1450 4112 
Q 1775 4375 2175 4375 
Q 2600 4375 2812 4225 
Q 3025 4075 3025 3875 
Q 3025 3775 2975 3700 
Q 2925 3625 2775 3625 
Q 2675 3625 2612 3675 
Q 2550 3725 2550 3850 
Q 2550 3875 2575 3925 
Q 2575 3975 2575 4000 
Q 2575 4100 2500 4162 
Q 2425 4225 2150 4225 
Q 1850 4225 1662 4037 
Q 1475 3850 1475 3400 
L 1475 2900 
L 2525 2900 
L 2525 2750 
L 1475 2750 
L 1475 450 
Q 1475 350 1537 300 
Q 1600 250 1700 250 
L 2300 250 
L 2300 100 
L 475 100 
L 475 250 
L 900 250 
Q 1025 250 1075 300 
Q 1125 350 1125 450 
L 1125 2750 
L 350 2750 
L 350 2900 
L 1125 2900 
L 1125 3325 
z
" transform="scale(0.015625)"/>
      </defs>
      <use xlink:href="#Times New Roman-62"/>
      <use xlink:href="#Times New Roman-75" x="50"/>
      <use xlink:href="#Times New Roman-66" x="100"/>
      <use xlink:href="#Times New Roman-66" x="150"/>
      <use xlink:href="#Times New Roman-65" x="200"/>
      <use xlink:href="#Times New Roman-72" x="250"/>
      <use xlink:href="#Times New Roman-20" x="300"/>
      <use xlink:href="#Times New Roman-28" x="350"/>
      <use xlink:href="#Times New Roman-73" x="400"/>
      <use xlink:href="#Times New Roman-29" x="450"/>
     </g>
    </g>
   </g>
   <g id="line2d_28">
    <path d="M 173.045455 353.741803 
L 173.680074 359.394288 
L 174.314694 361.27845 
L 174.949314 360.783083 
L 176.218553 353.242898 
L 178.757032 343.385105 
L 180.026272 344.343993 
L 181.295511 339.64155 
L 182.564751 342.882662 
L 183.83399 340.10861 
L 185.10323 336.294288 
L 188.910949 240.883168 
L 190.180188 230.013412 
L 191.449428 226.19909 
L 192.718667 215.350564 
L 193.987907 197.913665 
L 195.257146 173.792856 
L 196.526386 163.47508 
L 197.795625 166.673732 
L 198.430245 173.258568 
L 199.064865 173.092266 
L 200.334104 173.562864 
L 201.603344 169.759158 
L 202.872583 173.007346 
L 204.141823 169.182409 
L 205.411062 173.382409 
L 206.680302 170.250986 
L 210.48802 180.321078 
L 211.75726 170.024532 
L 213.026499 141.463117 
L 214.295739 141.275586 
L 215.564978 144.877607 
L 216.834218 148.943151 
L 218.103457 152.226723 
L 219.372697 148.748543 
L 220.641936 151.986116 
L 221.911176 149.112991 
L 223.180415 144.955451 
L 224.449655 129.829082 
L 225.718895 123.177018 
L 226.988134 113.227228 
L 228.257374 95.776175 
L 228.891993 81.665307 
L 229.526613 74.072047 
L 230.795853 74.047279 
L 232.065092 77.730682 
L 234.603571 84.251828 
L 235.872811 80.501196 
L 237.14205 77.702376 
L 238.41129 80.985948 
L 239.045909 87.553092 
L 239.680529 87.032957 
L 240.949769 87.47171 
L 242.219008 84.602123 
L 243.488248 87.864465 
L 244.122868 87.369099 
L 246.026727 88.020152 
L 247.295966 85.161179 
L 249.834445 77.758989 
L 252.372924 84.262443 
L 253.642164 88.473058 
L 254.911403 85.210716 
L 256.180643 89.056883 
L 257.449882 85.458399 
L 258.719122 89.113496 
L 259.988362 85.621163 
L 260.622981 85.801618 
L 261.257601 85.826386 
L 262.526841 92.443067 
L 263.79608 102.838686 
L 266.334559 110.233799 
L 266.969179 110.17011 
L 267.603799 116.740792 
L 268.873038 116.7231 
L 270.142278 113.386453 
L 271.411517 109.55444 
L 272.680757 106.122258 
L 273.949996 102.315013 
L 275.219236 99.459579 
L 276.488475 95.482494 
L 279.026954 102.003639 
L 280.296194 113.043235 
L 281.565433 116.294962 
L 282.834673 120.045594 
L 284.103912 123.329166 
L 286.642391 145.397742 
L 287.277011 152.909621 
L 287.911631 152.987464 
L 289.18087 152.686706 
L 290.45011 155.931356 
L 292.988589 176.828745 
L 295.527068 183.58342 
L 296.796308 187.744499 
L 298.065547 201.61476 
L 299.334787 208.192519 
L 304.411745 250.521584 
L 305.680984 253.787464 
L 308.219463 262.014086 
L 312.027182 293.169099 
L 314.565661 314.805998 
L 317.10414 335.466318 
L 318.373379 339.691087 
L 319.007999 340.158147 
L 319.642619 339.648627 
L 320.911858 346.771289 
L 322.181098 357.12091 
L 323.450337 361.345678 
L 324.719577 357.506588 
L 325.354197 350.440539 
L 325.988816 349.902713 
L 327.258056 349.817793 
L 328.527295 351.162359 
L 329.796535 349.573648 
L 331.065775 354.820994 
L 332.335014 354.399933 
L 333.604254 357.977186 
L 334.873493 354.509621 
L 336.142733 358.699006 
L 337.411972 355.305746 
L 338.681212 358.214254 
L 341.219691 350.564381 
L 342.48893 347.740792 
L 343.12355 348.222005 
L 343.75817 341.113496 
L 344.392789 330.215434 
L 345.027409 322.597405 
L 346.296649 329.858062 
L 347.565888 344.616445 
L 348.835128 350.967751 
L 351.373607 357.301365 
L 352.008227 357.75781 
L 352.642846 365.280303 
L 353.912086 365.708441 
L 355.181325 368.95663 
L 356.450565 365.641213 
L 357.719804 368.910632 
L 358.354424 369.36 
L 358.989044 369.289233 
L 359.623664 365.963201 
L 360.258283 344.234305 
L 361.527523 322.922932 
L 362.796762 297.878618 
L 363.431382 291.237169 
L 364.066002 270.060253 
L 365.335241 248.607346 
L 366.604481 223.923943 
L 367.873721 205.945678 
L 368.50834 191.976344 
L 369.14296 170.838349 
L 370.4122 156.501028 
L 371.681439 146.098332 
L 372.950679 142.712148 
L 374.219918 146.593698 
L 375.489158 143.228745 
L 376.758397 139.279966 
L 378.027637 128.381904 
L 381.835355 75.363538 
L 383.104595 71.527987 
L 384.373834 74.931862 
L 385.643074 78.905409 
L 386.912313 75.727987 
L 388.181553 71.750901 
L 389.450792 75.009705 
L 390.085412 81.895299 
L 390.720032 82.348206 
L 391.989271 81.845762 
L 393.258511 78.017287 
L 394.52775 81.254861 
L 395.79699 82.171289 
L 397.066229 75.536917 
L 398.335469 71.736748 
L 400.873948 78.293277 
L 402.143188 82.482662 
L 403.412427 79.308778 
L 404.681667 82.518045 
L 405.950906 78.735569 
L 407.220146 82.273901 
L 409.758625 75.692603 
L 411.027864 71.920741 
L 412.297104 75.50861 
L 413.566343 78.356967 
L 414.835583 75.122932 
L 416.104822 71.358147 
L 417.374062 75.497995 
L 418.643301 79.100017 
L 419.912541 82.295131 
L 421.18178 78.4985 
L 422.45102 81.866992 
L 423.720259 79.022174 
L 424.989499 82.284516 
L 426.258738 78.34989 
L 427.527978 81.576849 
L 428.797217 78.707262 
L 431.335696 85.224869 
L 432.604936 81.637001 
L 433.874175 68.732704 
L 435.143415 75.851828 
L 437.681894 82.029756 
L 438.951134 85.461938 
L 440.220373 89.672553 
L 444.028092 78.257894 
L 445.297331 82.457894 
L 446.566571 78.62588 
L 447.83581 82.263286 
L 449.10505 85.518551 
L 449.739669 93.019815 
L 450.374289 93.069351 
L 451.643529 93.387801 
L 455.451247 82.139444 
L 456.720487 79.039865 
L 457.989726 82.270362 
L 459.258966 78.509115 
L 459.893586 78.272047 
L 460.528205 78.785105 
L 461.797445 86.265139 
L 463.066684 89.502713 
L 465.605163 81.792687 
L 466.874403 78.873564 
L 470.682121 88.688896 
L 471.951361 85.854693 
L 473.220601 82.702039 
L 474.48984 85.967919 
L 475.75908 96.292772 
L 476.393699 103.135906 
L 477.028319 103.574659 
L 477.662939 100.248627 
L 478.297559 92.842898 
L 479.566798 92.333378 
L 480.836038 88.526133 
L 481.470657 88.798585 
L 482.105277 89.237338 
L 483.374517 96.727987 
L 484.643756 93.182578 
L 487.182235 71.7969 
L 488.451475 68.679629 
L 489.720714 71.612906 
L 490.989954 67.802123 
L 492.259193 71.000775 
L 493.528433 68.109958 
L 497.336151 77.928829 
L 498.605391 78.806335 
L 499.87463 78.686032 
L 501.14387 75.345847 
L 502.413109 71.56337 
L 503.682349 68.403639 
L 504.951588 71.262612 
L 506.220828 67.876428 
L 507.490067 71.121078 
L 508.759307 68.219646 
L 510.028547 71.057388 
L 511.297786 67.805661 
L 512.567026 71.07508 
L 513.836265 75.264465 
L 515.105505 78.873564 
L 518.913223 88.657051 
L 520.182463 85.808694 
L 522.720942 78.318045 
L 523.990181 81.789149 
L 525.259421 78.905409 
L 526.52866 82.033294 
L 527.7979 77.985442 
L 529.067139 81.244246 
L 530.336379 85.451323 
L 531.605618 96.710295 
L 532.874858 100.637843 
L 534.144097 103.882494 
L 535.413337 100.082325 
L 536.682576 103.617119 
L 537.951816 100.358315 
L 539.221055 103.63481 
L 540.490295 99.827565 
L 541.759534 103.454356 
L 544.298013 96.862443 
L 546.836493 75.621837 
L 548.105732 71.259073 
L 549.374972 75.023858 
L 550.644211 78.275586 
L 551.913451 82.50743 
L 553.18269 85.320404 
L 554.45193 89.244414 
L 555.721169 92.527987 
L 556.990409 96.706757 
L 559.528888 103.496816 
L 560.798127 99.68957 
L 562.067367 103.075754 
L 563.336606 104.070025 
L 564.605846 96.858905 
L 565.875085 85.890076 
L 567.144325 82.082831 
L 567.778945 82.040371 
L 568.413564 82.440202 
L 569.682804 81.951912 
L 572.221283 88.480135 
L 574.759762 82.553429 
L 576.029001 85.815771 
L 576.663621 92.361685 
L 577.298241 92.05385 
L 578.56748 85.458399 
L 579.83672 82.578197 
L 581.10596 85.840539 
L 581.740579 92.368762 
L 582.375199 91.887548 
L 583.644439 92.354608 
L 584.913678 89.485021 
L 586.182918 85.663623 
L 587.452157 82.224364 
L 588.721397 78.39235 
L 589.990636 82.564044 
L 591.259876 78.714339 
L 592.529115 82.033294 
L 593.798355 78.243741 
L 595.067594 82.096984 
L 596.336834 78.640034 
L 597.606073 81.877607 
L 598.875313 78.194204 
L 600.144552 82.058062 
L 601.413792 86.286369 
L 602.683031 89.417793 
L 605.22151 81.750227 
L 606.49075 78.898332 
L 607.759989 82.153597 
L 609.029229 78.34989 
L 610.298468 81.552081 
L 611.567708 85.776849 
L 612.202328 93.32765 
L 612.836947 93.522258 
L 614.106187 85.939612 
L 615.375426 82.079292 
L 616.010046 81.852839 
L 616.644666 82.280977 
L 617.913906 81.782072 
L 619.183145 85.040876 
L 620.452385 95.401112 
L 622.990864 103.811727 
L 624.260103 107.059916 
L 625.529343 117.770447 
L 626.798582 121.082325 
L 627.433202 121.528155 
L 628.067822 121.591845 
L 629.337061 128.148374 
L 630.606301 131.371794 
L 631.87554 127.543319 
L 633.14478 117.568762 
L 634.414019 106.699006 
L 635.683259 88.784431 
L 636.952498 77.932367 
L 638.221738 75.059242 
L 642.029456 105.987801 
L 643.298696 117.250312 
L 643.933316 124.765729 
L 644.567935 125.179714 
L 645.202555 121.889065 
L 645.837175 121.775838 
L 647.106414 128.346521 
L 648.375654 131.580556 
L 650.914133 125.183252 
L 652.183373 121.41139 
L 653.452612 124.702039 
L 655.991091 117.370615 
L 658.52957 95.599259 
L 659.79881 82.510969 
L 660.433429 79.266318 
L 661.068049 79.45385 
L 662.337289 85.900691 
L 663.606528 89.297489 
L 664.875768 85.783926 
L 666.145007 82.882494 
L 667.414247 78.802797 
L 668.683486 81.948374 
L 669.952726 78.183589 
L 671.221965 82.362359 
L 672.491205 78.551575 
L 673.760444 75.21139 
L 675.029684 71.418298 
L 675.664304 71.867666 
L 676.298923 78.98679 
L 677.568163 78.494962 
L 678.837402 81.746689 
L 680.106642 77.872216 
L 681.375881 82.058062 
L 682.645121 78.289739 
L 685.1836 84.789655 
L 686.452839 88.943656 
L 687.722079 86.052839 
L 688.991319 82.794035 
L 691.529798 89.304566 
L 692.799037 85.865307 
L 694.068277 82.082831 
L 696.606756 88.614591 
L 697.241375 89.053345 
L 697.875995 82.418972 
L 699.145235 81.891761 
L 700.414474 78.448964 
L 701.683714 81.944836 
L 702.952953 86.166066 
L 704.222193 89.743319 
L 706.760672 96.034473 
L 708.029911 99.54096 
L 709.299151 103.737422 
L 710.56839 99.926639 
L 711.83763 103.181904 
L 713.106869 99.37112 
L 714.376109 96.48738 
L 715.645348 86.166066 
L 716.914588 82.351744 
L 718.183827 85.621163 
L 719.453067 89.265644 
L 720.722306 92.527987 
L 721.991546 91.519562 
L 723.260786 84.895805 
L 724.530025 82.019141 
L 725.799265 78.54096 
L 727.068504 82.298669 
L 728.337744 78.491424 
L 730.876223 86.024532 
L 733.414702 92.570447 
L 734.683941 88.770278 
L 735.953181 85.897152 
L 737.22242 82.093446 
L 738.49166 85.345173 
L 739.760899 95.839865 
L 740.395519 103.50743 
L 741.030139 103.946184 
L 742.299378 103.553429 
L 744.837857 95.776175 
L 746.107097 85.649469 
L 747.376336 82.047447 
L 749.914815 88.887043 
L 752.453294 96.915518 
L 753.722534 106.936074 
L 756.261013 113.726133 
L 757.530252 110.874238 
L 761.337971 120.60465 
L 762.607211 124.786959 
L 763.87645 128.197911 
L 767.684169 160.446268 
L 768.953408 170.385442 
L 769.588028 177.0092 
L 770.222648 176.726133 
L 770.857267 173.594709 
L 771.491887 173.994541 
L 772.761127 181.283505 
L 775.299606 187.769267 
L 776.568845 184.351238 
L 777.838085 188.430935 
L 779.107324 185.543656 
L 780.376564 188.423858 
L 782.915043 194.948543 
L 784.184282 199.134389 
L 785.453522 195.864971 
L 787.992001 202.333041 
L 789.26124 205.973985 
L 790.53048 202.824869 
L 791.799719 199.010548 
L 794.338198 205.846605 
L 795.607438 202.552418 
L 799.415157 170.887885 
L 801.953636 135.267498 
L 803.222875 110.566403 
L 804.492115 92.630598 
L 805.126734 78.96556 
L 805.761354 79.085864 
L 807.030594 85.660084 
L 808.299833 82.344667 
L 809.569073 78.523269 
L 810.203692 71.871205 
L 810.838312 78.866487 
L 812.107552 79.117709 
L 814.646031 85.631778 
L 815.280651 92.407683 
L 815.91527 92.871205 
L 817.18451 85.953766 
L 819.722989 78.32866 
L 820.992228 81.838686 
L 822.261468 86.017456 
L 823.530707 82.755114 
L 826.069186 75.1477 
L 828.607665 82.63481 
L 831.146145 75.225543 
L 832.415384 71.786285 
L 836.223103 81.806841 
L 837.492342 78.940792 
L 838.761582 81.721921 
L 840.030821 77.925291 
L 841.300061 81.463623 
L 842.5693 78.60465 
L 843.83854 82.772805 
L 846.377019 75.430767 
L 847.646258 71.630598 
L 848.915498 75.25385 
L 850.184737 78.526807 
L 852.723216 70.997237 
L 853.992456 68.12765 
L 855.261695 71.259073 
L 856.530935 67.465981 
L 857.800174 70.71417 
L 859.069414 67.8092 
L 860.338653 71.068003 
L 861.607893 67.303218 
L 862.877132 70.67171 
L 864.146372 67.858736 
L 865.415611 71.145847 
L 866.684851 67.816276 
L 867.954091 71.082157 
L 869.22333 68.201955 
L 870.49257 71.88182 
L 871.761809 68.056883 
L 873.031049 71.319225 
L 874.300288 67.603976 
L 875.569528 71.828745 
L 876.838767 67.989655 
L 878.108007 71.163538 
L 879.377246 67.543825 
L 880.646486 71.75444 
L 881.915725 68.286874 
L 883.184965 71.312148 
L 884.454204 67.625206 
L 885.723444 71.432452 
L 886.992683 67.635821 
L 888.261923 70.767245 
L 889.531162 66.96 
L 892.069641 75.367077 
L 894.60812 82.121752 
L 895.87736 78.314507 
L 897.146599 82.284516 
L 898.415839 78.742645 
L 899.685078 82.019141 
L 900.954318 78.211896 
L 902.223558 82.142982 
L 903.492797 78.314507 
L 904.762037 82.008526 
L 906.031276 78.579882 
L 907.300516 75.703218 
L 908.569755 71.460758 
L 909.838995 67.68182 
L 911.108234 70.997237 
L 912.377474 68.209031 
L 913.646713 71.099848 
L 916.185192 77.599764 
L 917.454432 78.54096 
L 918.723671 78.979714 
L 919.992911 82.238517 
L 921.26215 78.381735 
L 922.53139 81.661769 
L 923.800629 85.847616 
L 927.608348 95.624027 
L 928.877587 106.907767 
L 929.512207 114.401955 
L 930.146827 107.558821 
L 931.416066 100.004482 
L 932.685306 96.193698 
L 933.954545 106.730851 
L 933.954545 106.730851 
" clip-path="url(#pa38b0b01e2)" style="fill: none; stroke: #1f77b4; stroke-width: 1.5; stroke-linecap: square"/>
   </g>
   <g id="patch_7">
    <path d="M 135 384.48 
L 135 51.84 
" style="fill: none; stroke: #000000; stroke-width: 0.8; stroke-linejoin: miter; stroke-linecap: square"/>
   </g>
   <g id="patch_8">
    <path d="M 972 384.48 
L 972 51.84 
" style="fill: none; stroke: #000000; stroke-width: 0.8; stroke-linejoin: miter; stroke-linecap: square"/>
   </g>
   <g id="patch_9">
    <path d="M 135 384.48 
L 972 384.48 
" style="fill: none; stroke: #000000; stroke-width: 0.8; stroke-linejoin: miter; stroke-linecap: square"/>
   </g>
   <g id="patch_10">
    <path d="M 135 51.84 
L 972 51.84 
" style="fill: none; stroke: #000000; stroke-width: 0.8; stroke-linejoin: miter; stroke-linecap: square"/>
   </g>
   <g id="text_22">
    <!-- ./tcp/tp10_wave -->
    <g transform="translate(508.5 45.84) scale(0.12 -0.12)">
     <defs>
      <path id="Times New Roman-2e" d="M 800 25
Q 650 25 537 125 
Q 425 225 425 400 
Q 425 575 537 675 
Q 650 775 800 775 
Q 950 775 1062 662 
Q 1175 550 1175 400 
Q 1175 225 1062 125 
Q 950 25 800 25 
z
" transform="scale(0.015625)"/>
      <path id="Times New Roman-2f" d="M 400 -475
L 225 -375 
L 2775 4975 
L 2950 4875 
L 400 -475 
z
" transform="scale(0.015625)"/>
      <path id="Times New Roman-63" d="M 2150 2225
Q 2150 2300 2175 2325 
Q 2175 2350 2200 2425 
Q 2225 2525 2100 2662 
Q 1975 2800 1675 2800 
Q 1300 2800 1037 2437 
Q 775 2075 775 1475 
Q 775 925 1000 587 
Q 1225 250 1750 250 
Q 2100 250 2337 475 
Q 2575 700 2675 1000 
L 2800 950 
Q 2700 575 2425 312 
Q 2150 50 1675 50 
Q 1075 50 725 425 
Q 375 800 375 1500 
Q 375 2125 750 2537 
Q 1125 2950 1725 2950 
Q 2150 2950 2387 2725 
Q 2625 2500 2625 2275 
Q 2625 2125 2562 2062 
Q 2500 2000 2375 2000 
Q 2275 2000 2212 2062 
Q 2150 2125 2150 2225 
z
" transform="scale(0.015625)"/>
      <path id="Times New Roman-5f" d="M 0 -875
L 0 -725 
L 3175 -725 
L 3175 -875 
L 0 -875 
z
" transform="scale(0.015625)"/>
      <path id="Times New Roman-77" d="M 2325 2900
L 3175 2900 
L 3175 2750 
L 3075 2750 
Q 2975 2750 2900 2675 
Q 2825 2600 2775 2425 
L 2175 75 
L 2025 75 
L 1575 1975 
L 1100 75 
L 950 75 
L 375 2375 
Q 350 2550 275 2650 
Q 200 2750 125 2750 
L 25 2750 
L 25 2900 
L 925 2900 
L 925 2750 
L 825 2750 
Q 725 2750 700 2662 
Q 675 2575 700 2425 
L 1075 800 
L 1125 800 
L 1500 2300 
Q 1475 2525 1400 2637 
Q 1325 2750 1225 2750 
L 1150 2750 
L 1150 2900 
L 2000 2900 
L 2000 2750 
L 1925 2750 
Q 1825 2750 1800 2662 
Q 1775 2575 1800 2425 
L 2175 800 
L 2200 800 
L 2625 2550 
Q 2650 2650 2600 2700 
Q 2550 2750 2450 2750 
L 2325 2750 
L 2325 2900 
z
M 1725 2750 
L 1725 2750 
z
M 625 2750 
L 625 2750 
z
M 275 2750 
L 275 2750 
z
M 2875 2750 
L 2875 2750 
z
M 2675 2750 
L 2675 2750 
z
" transform="scale(0.015625)"/>
      <path id="Times New Roman-76" d="M 1625 75
L 1475 75 
L 625 2525 
Q 600 2625 525 2687 
Q 450 2750 350 2750 
L 225 2750 
L 225 2900 
L 1300 2900 
L 1300 2750 
L 1200 2750 
Q 1050 2750 1025 2700 
Q 1000 2650 1000 2600 
Q 1000 2500 1025 2425 
L 1625 675 
L 1675 675 
L 2275 2400 
Q 2325 2525 2325 2575 
Q 2325 2600 2275 2675 
Q 2225 2750 2075 2750 
L 2025 2750 
L 2025 2900 
L 2925 2900 
L 2925 2750 
L 2875 2750 
Q 2725 2750 2637 2662 
Q 2550 2575 2475 2400 
L 1625 75 
z
M 2600 2750 
L 2600 2750 
z
M 2400 2750 
L 2400 2750 
z
M 925 2750 
L 925 2750 
z
M 550 2750 
L 550 2750 
z
" transform="scale(0.015625)"/>
     </defs>
     <use xlink:href="#Times New Roman-2e"/>
     <use xlink:href="#Times New Roman-2f" x="50"/>
     <use xlink:href="#Times New Roman-74" x="100"/>
     <use xlink:href="#Times New Roman-63" x="150"/>
     <use xlink:href="#Times New Roman-70" x="200"/>
     <use xlink:href="#Times New Roman-2f" x="250"/>
     <use xlink:href="#Times New Roman-74" x="300"/>
     <use xlink:href="#Times New Roman-70" x="350"/>
     <use xlink:href="#Times New Roman-31" x="400"/>
     <use xlink:href="#Times New Roman-30" x="450"/>
     <use xlink:href="#Times New Roman-5f" x="500"/>
     <use xlink:href="#Times New Roman-77" x="550"/>
     <use xlink:href="#Times New Roman-61" x="600"/>
     <use xlink:href="#Times New Roman-76" x="650"/>
     <use xlink:href="#Times New Roman-65" x="700"/>
    </g>
   </g>
   <g id="legend_1">
    <g id="patch_11">
     <path d="M 142 73.2775 
L 204 73.2775 
Q 206 73.2775 206 71.2775 
L 206 58.84 
Q 206 56.84 204 56.84 
L 142 56.84 
Q 140 56.84 140 58.84 
L 140 71.2775 
Q 140 73.2775 142 73.2775 
z
" style="fill: #ffffff; opacity: 0.8; stroke: #cccccc; stroke-linejoin: miter"/>
    </g>
    <g id="line2d_29">
     <path d="M 144 64.488437 
L 154 64.488437 
L 164 64.488437 
" style="fill: none; stroke: #1f77b4; stroke-width: 1.5; stroke-linecap: square"/>
    </g>
    <g id="text_23">
     <!-- buffer -->
     <g transform="translate(172 67.988437) scale(0.1 -0.1)">
      <use xlink:href="#Times New Roman-62"/>
      <use xlink:href="#Times New Roman-75" x="50"/>
      <use xlink:href="#Times New Roman-66" x="100"/>
      <use xlink:href="#Times New Roman-66" x="150"/>
      <use xlink:href="#Times New Roman-65" x="200"/>
      <use xlink:href="#Times New Roman-72" x="250"/>
     </g>
    </g>
   </g>
  </g>
 </g>
 <defs>
  <clipPath id="pa38b0b01e2">
   <rect x="135" y="51.84" width="837" height="332.64"/>
  </clipPath>
 </defs>
</svg>
