<?xml version="1.0" encoding="utf-8" standalone="no"?>
<!DOCTYPE svg PUBLIC "-//W3C//DTD SVG 1.1//EN"
  "http://www.w3.org/Graphics/SVG/1.1/DTD/svg11.dtd">
<svg xmlns:xlink="http://www.w3.org/1999/xlink" width="1080pt" height="432pt" viewBox="0 0 1080 432" xmlns="http://www.w3.org/2000/svg" version="1.1">
 <metadata>
  <rdf:RDF xmlns:dc="http://purl.org/dc/elements/1.1/" xmlns:cc="http://creativecommons.org/ns#" xmlns:rdf="http://www.w3.org/1999/02/22-rdf-syntax-ns#">
   <cc:Work>
    <dc:type rdf:resource="http://purl.org/dc/dcmitype/StillImage"/>
    <dc:date>2024-04-12T06:12:35.512495</dc:date>
    <dc:format>image/svg+xml</dc:format>
    <dc:creator>
     <cc:Agent>
      <dc:title>Matplotlib v3.8.3, https://matplotlib.org/</dc:title>
     </cc:Agent>
    </dc:creator>
   </cc:Work>
  </rdf:RDF>
 </metadata>
 <defs>
  <style type="text/css">*{stroke-linejoin: round; stroke-linecap: butt}</style>
 </defs>
 <g id="figure_1">
  <g id="patch_1">
   <path d="M 0 432 
L 1080 432 
L 1080 0 
L 0 0 
z
" style="fill: #ffffff"/>
  </g>
  <g id="axes_1">
   <g id="patch_2">
    <path d="M 135 384.48 
L 972 384.48 
L 972 51.84 
L 135 51.84 
z
" style="fill: #ffffff"/>
   </g>
   <g id="matplotlib.axis_1">
    <g id="xtick_1">
     <g id="line2d_1">
      <defs>
       <path id="m7edf0d1080" d="M 0 0 
L 0 3.5 
" style="stroke: #000000; stroke-width: 0.8"/>
      </defs>
      <g>
       <use xlink:href="#m7edf0d1080" x="173.045455" y="384.48" style="stroke: #000000; stroke-width: 0.8"/>
      </g>
     </g>
     <g id="text_1">
      <!-- 0 -->
      <g transform="translate(170.545455 398.628438) scale(0.1 -0.1)">
       <defs>
        <path id="Times New Roman-30" d="M 1600 4225
Q 1250 4225 1012 3687 
Q 775 3150 775 2250 
Q 775 1300 1012 775 
Q 1250 250 1600 250 
Q 1975 250 2187 775 
Q 2400 1300 2400 2250 
Q 2400 3150 2200 3687 
Q 2000 4225 1600 4225 
z
M 1600 50 
Q 1050 50 675 625 
Q 300 1200 300 2250 
Q 300 3225 662 3825 
Q 1025 4425 1600 4425 
Q 2150 4425 2512 3850 
Q 2875 3275 2875 2250 
Q 2875 1225 2512 637 
Q 2150 50 1600 50 
z
" transform="scale(0.015625)"/>
       </defs>
       <use xlink:href="#Times New Roman-30"/>
      </g>
     </g>
    </g>
    <g id="xtick_2">
     <g id="line2d_2">
      <g>
       <use xlink:href="#m7edf0d1080" x="299.969406" y="384.48" style="stroke: #000000; stroke-width: 0.8"/>
      </g>
     </g>
     <g id="text_2">
      <!-- 100 -->
      <g transform="translate(292.469406 398.628438) scale(0.1 -0.1)">
       <defs>
        <path id="Times New Roman-31" d="M 1825 4450
L 1825 650 
Q 1825 450 1950 350 
Q 2075 250 2300 250 
L 2550 250 
L 2550 100 
L 725 100 
L 725 250 
L 950 250 
Q 1200 250 1312 350 
Q 1425 450 1425 650 
L 1425 3675 
Q 1425 3775 1362 3837 
Q 1300 3900 1175 3900 
L 725 3900 
L 725 4050 
L 950 4050 
Q 1250 4050 1437 4150 
Q 1625 4250 1725 4450 
L 1825 4450 
z
" transform="scale(0.015625)"/>
       </defs>
       <use xlink:href="#Times New Roman-31"/>
       <use xlink:href="#Times New Roman-30" x="50"/>
       <use xlink:href="#Times New Roman-30" x="100"/>
      </g>
     </g>
    </g>
    <g id="xtick_3">
     <g id="line2d_3">
      <g>
       <use xlink:href="#m7edf0d1080" x="426.893358" y="384.48" style="stroke: #000000; stroke-width: 0.8"/>
      </g>
     </g>
     <g id="text_3">
      <!-- 200 -->
      <g transform="translate(419.393358 398.628438) scale(0.1 -0.1)">
       <defs>
        <path id="Times New Roman-32" d="M 2325 3325
Q 2325 3775 2125 4012 
Q 1925 4250 1525 4250 
Q 1225 4250 1012 4087 
Q 800 3925 800 3675 
Q 800 3525 900 3425 
Q 975 3325 975 3225 
Q 975 3100 912 3037 
Q 850 2975 725 2975 
Q 575 2975 487 3062 
Q 400 3150 400 3350 
Q 400 3875 775 4150 
Q 1150 4425 1575 4425 
Q 2175 4425 2462 4125 
Q 2750 3825 2750 3375 
Q 2750 3075 2612 2775 
Q 2475 2475 2175 2200 
Q 1450 1500 1062 1062 
Q 675 625 600 475 
L 2075 475 
Q 2300 475 2450 650 
Q 2600 825 2650 1175 
L 2800 1175 
L 2650 100 
L 325 100 
L 325 425 
Q 450 650 737 1000 
Q 1025 1350 1500 1825 
Q 1925 2250 2125 2625 
Q 2325 3000 2325 3325 
z
" transform="scale(0.015625)"/>
       </defs>
       <use xlink:href="#Times New Roman-32"/>
       <use xlink:href="#Times New Roman-30" x="50"/>
       <use xlink:href="#Times New Roman-30" x="100"/>
      </g>
     </g>
    </g>
    <g id="xtick_4">
     <g id="line2d_4">
      <g>
       <use xlink:href="#m7edf0d1080" x="553.81731" y="384.48" style="stroke: #000000; stroke-width: 0.8"/>
      </g>
     </g>
     <g id="text_4">
      <!-- 300 -->
      <g transform="translate(546.31731 398.628438) scale(0.1 -0.1)">
       <defs>
        <path id="Times New Roman-33" d="M 2800 1250
Q 2800 775 2450 412 
Q 2100 50 1475 50 
Q 1025 50 700 300 
Q 375 550 375 875 
Q 375 1025 475 1137 
Q 575 1250 675 1250 
Q 825 1250 887 1137 
Q 950 1025 950 950 
Q 950 825 900 750 
Q 850 650 850 575 
Q 850 425 1037 325 
Q 1225 225 1450 225 
Q 1900 225 2125 487 
Q 2350 750 2350 1300 
Q 2350 1750 2112 2025 
Q 1875 2300 1225 2300 
L 1225 2475 
Q 1725 2475 1962 2712 
Q 2200 2950 2200 3375 
Q 2200 3725 2012 3987 
Q 1825 4250 1425 4250 
Q 1250 4250 1050 4162 
Q 850 4075 850 3875 
Q 850 3675 900 3625 
Q 950 3575 950 3500 
Q 950 3375 900 3300 
Q 850 3225 725 3225 
Q 625 3225 537 3300 
Q 450 3375 450 3575 
Q 450 3950 775 4187 
Q 1100 4425 1525 4425 
Q 2025 4425 2325 4112 
Q 2625 3800 2625 3450 
Q 2625 3075 2437 2812 
Q 2250 2550 1850 2425 
Q 2400 2225 2600 1900 
Q 2800 1575 2800 1250 
z
" transform="scale(0.015625)"/>
       </defs>
       <use xlink:href="#Times New Roman-33"/>
       <use xlink:href="#Times New Roman-30" x="50"/>
       <use xlink:href="#Times New Roman-30" x="100"/>
      </g>
     </g>
    </g>
    <g id="xtick_5">
     <g id="line2d_5">
      <g>
       <use xlink:href="#m7edf0d1080" x="680.741262" y="384.48" style="stroke: #000000; stroke-width: 0.8"/>
      </g>
     </g>
     <g id="text_5">
      <!-- 400 -->
      <g transform="translate(673.241262 398.628438) scale(0.1 -0.1)">
       <defs>
        <path id="Times New Roman-34" d="M 2300 575
Q 2300 400 2400 325 
Q 2500 250 2675 250 
L 2900 250 
L 2900 100 
L 1250 100 
L 1250 250 
L 1525 250 
Q 1725 250 1812 325 
Q 1900 400 1900 575 
L 1900 1400 
L 225 1400 
L 225 1525 
L 2050 4425 
L 2300 4425 
L 2300 1550 
L 2975 1550 
L 2975 1400 
L 2300 1400 
L 2300 575 
z
M 1875 3800 
L 450 1550 
L 1900 1550 
L 1900 3800 
L 1875 3800 
z
" transform="scale(0.015625)"/>
       </defs>
       <use xlink:href="#Times New Roman-34"/>
       <use xlink:href="#Times New Roman-30" x="50"/>
       <use xlink:href="#Times New Roman-30" x="100"/>
      </g>
     </g>
    </g>
    <g id="xtick_6">
     <g id="line2d_6">
      <g>
       <use xlink:href="#m7edf0d1080" x="807.665213" y="384.48" style="stroke: #000000; stroke-width: 0.8"/>
      </g>
     </g>
     <g id="text_6">
      <!-- 500 -->
      <g transform="translate(800.165213 398.628438) scale(0.1 -0.1)">
       <defs>
        <path id="Times New Roman-35" d="M 1725 2850
Q 2200 2850 2500 2487 
Q 2800 2125 2800 1525 
Q 2800 850 2487 450 
Q 2175 50 1525 50 
Q 1075 50 725 312 
Q 375 575 375 950 
Q 375 1100 462 1212 
Q 550 1325 700 1325 
Q 850 1325 900 1225 
Q 950 1125 950 1050 
Q 950 900 875 825 
Q 800 725 800 625 
Q 800 425 1037 325 
Q 1275 225 1550 225 
Q 1950 225 2162 550 
Q 2375 875 2375 1475 
Q 2375 1975 2187 2287 
Q 2000 2600 1625 2600 
Q 1350 2600 1150 2500 
Q 950 2400 775 2075 
L 550 2100 
L 675 4375 
L 2725 4375 
L 2650 4000 
L 850 4000 
L 750 2350 
Q 1000 2700 1237 2775 
Q 1475 2850 1725 2850 
z
" transform="scale(0.015625)"/>
       </defs>
       <use xlink:href="#Times New Roman-35"/>
       <use xlink:href="#Times New Roman-30" x="50"/>
       <use xlink:href="#Times New Roman-30" x="100"/>
      </g>
     </g>
    </g>
    <g id="xtick_7">
     <g id="line2d_7">
      <g>
       <use xlink:href="#m7edf0d1080" x="934.589165" y="384.48" style="stroke: #000000; stroke-width: 0.8"/>
      </g>
     </g>
     <g id="text_7">
      <!-- 600 -->
      <g transform="translate(927.089165 398.628438) scale(0.1 -0.1)">
       <defs>
        <path id="Times New Roman-36" d="M 775 1800
Q 775 1050 1037 637 
Q 1300 225 1675 225 
Q 2050 225 2250 500 
Q 2450 775 2450 1525 
Q 2450 2025 2237 2300 
Q 2025 2575 1725 2575 
Q 1450 2575 1212 2412 
Q 975 2250 775 1800 
z
M 1750 2825 
Q 2350 2825 2612 2425 
Q 2875 2025 2875 1525 
Q 2875 775 2512 412 
Q 2150 50 1675 50 
Q 1000 50 650 562 
Q 300 1075 300 2050 
Q 300 3200 725 3812 
Q 1150 4425 1875 4425 
Q 2225 4425 2437 4225 
Q 2650 4025 2650 3875 
Q 2650 3725 2587 3650 
Q 2525 3575 2375 3575 
Q 2250 3575 2187 3637 
Q 2125 3700 2125 3825 
Q 2125 3875 2150 3925 
Q 2150 3975 2150 4025 
Q 2150 4125 2075 4187 
Q 2000 4250 1800 4250 
Q 1375 4250 1075 3862 
Q 775 3475 775 2175 
Q 925 2500 1187 2662 
Q 1450 2825 1750 2825 
z
" transform="scale(0.015625)"/>
       </defs>
       <use xlink:href="#Times New Roman-36"/>
       <use xlink:href="#Times New Roman-30" x="50"/>
       <use xlink:href="#Times New Roman-30" x="100"/>
      </g>
     </g>
    </g>
   </g>
   <g id="matplotlib.axis_2">
    <g id="ytick_1">
     <g id="line2d_8">
      <defs>
       <path id="mf759e41680" d="M 0 0 
L -3.5 0 
" style="stroke: #000000; stroke-width: 0.8"/>
      </defs>
      <g>
       <use xlink:href="#mf759e41680" x="135" y="378.307652" style="stroke: #000000; stroke-width: 0.8"/>
      </g>
     </g>
     <g id="text_8">
      <!-- 0 -->
      <g transform="translate(123 381.881871) scale(0.1 -0.1)">
       <use xlink:href="#Times New Roman-30"/>
      </g>
     </g>
    </g>
    <g id="ytick_2">
     <g id="line2d_9">
      <g>
       <use xlink:href="#mf759e41680" x="135" y="315.296016" style="stroke: #000000; stroke-width: 0.8"/>
      </g>
     </g>
     <g id="text_9">
      <!-- 1000 -->
      <g transform="translate(108 318.870235) scale(0.1 -0.1)">
       <use xlink:href="#Times New Roman-31"/>
       <use xlink:href="#Times New Roman-30" x="50"/>
       <use xlink:href="#Times New Roman-30" x="100"/>
       <use xlink:href="#Times New Roman-30" x="150"/>
      </g>
     </g>
    </g>
    <g id="ytick_3">
     <g id="line2d_10">
      <g>
       <use xlink:href="#mf759e41680" x="135" y="252.28438" style="stroke: #000000; stroke-width: 0.8"/>
      </g>
     </g>
     <g id="text_10">
      <!-- 2000 -->
      <g transform="translate(108 255.858599) scale(0.1 -0.1)">
       <use xlink:href="#Times New Roman-32"/>
       <use xlink:href="#Times New Roman-30" x="50"/>
       <use xlink:href="#Times New Roman-30" x="100"/>
       <use xlink:href="#Times New Roman-30" x="150"/>
      </g>
     </g>
    </g>
    <g id="ytick_4">
     <g id="line2d_11">
      <g>
       <use xlink:href="#mf759e41680" x="135" y="189.272744" style="stroke: #000000; stroke-width: 0.8"/>
      </g>
     </g>
     <g id="text_11">
      <!-- 3000 -->
      <g transform="translate(108 192.846963) scale(0.1 -0.1)">
       <use xlink:href="#Times New Roman-33"/>
       <use xlink:href="#Times New Roman-30" x="50"/>
       <use xlink:href="#Times New Roman-30" x="100"/>
       <use xlink:href="#Times New Roman-30" x="150"/>
      </g>
     </g>
    </g>
    <g id="ytick_5">
     <g id="line2d_12">
      <g>
       <use xlink:href="#mf759e41680" x="135" y="126.261108" style="stroke: #000000; stroke-width: 0.8"/>
      </g>
     </g>
     <g id="text_12">
      <!-- 4000 -->
      <g transform="translate(108 129.835326) scale(0.1 -0.1)">
       <use xlink:href="#Times New Roman-34"/>
       <use xlink:href="#Times New Roman-30" x="50"/>
       <use xlink:href="#Times New Roman-30" x="100"/>
       <use xlink:href="#Times New Roman-30" x="150"/>
      </g>
     </g>
    </g>
    <g id="ytick_6">
     <g id="line2d_13">
      <g>
       <use xlink:href="#mf759e41680" x="135" y="63.249472" style="stroke: #000000; stroke-width: 0.8"/>
      </g>
     </g>
     <g id="text_13">
      <!-- 5000 -->
      <g transform="translate(108 66.82369) scale(0.1 -0.1)">
       <use xlink:href="#Times New Roman-35"/>
       <use xlink:href="#Times New Roman-30" x="50"/>
       <use xlink:href="#Times New Roman-30" x="100"/>
       <use xlink:href="#Times New Roman-30" x="150"/>
      </g>
     </g>
    </g>
    <g id="text_14">
     <!-- Bitrate (kbps) -->
     <g transform="translate(102.710938 253.16) rotate(-90) scale(0.1 -0.1)">
      <defs>
       <path id="Times New Roman-42" d="M 100 100
L 100 250 
L 300 250 
Q 425 250 475 300 
Q 525 350 525 450 
L 525 4025 
Q 525 4125 475 4175 
Q 425 4225 300 4225 
L 150 4225 
L 150 4375 
L 1600 4375 
Q 2200 4375 2487 4137 
Q 2775 3900 2775 3400 
Q 2775 3050 2625 2825 
Q 2475 2600 2000 2425 
Q 2575 2250 2775 1925 
Q 2975 1600 2975 1200 
Q 2975 700 2625 400 
Q 2275 100 1675 100 
L 100 100 
z
M 1600 250 
Q 2025 250 2262 512 
Q 2500 775 2500 1250 
Q 2500 1800 2250 2062 
Q 2000 2325 1500 2325 
L 925 2325 
L 925 450 
Q 925 350 987 300 
Q 1050 250 1150 250 
L 1600 250 
z
M 2350 3400 
Q 2350 3850 2100 4037 
Q 1850 4225 1450 4225 
L 1150 4225 
Q 1050 4225 987 4175 
Q 925 4125 925 4025 
L 925 2475 
L 1575 2475 
Q 1850 2475 2100 2700 
Q 2350 2925 2350 3400 
z
" transform="scale(0.015625)"/>
       <path id="Times New Roman-69" d="M 1425 2525
Q 1425 2625 1375 2687 
Q 1325 2750 1200 2750 
L 675 2750 
L 675 2900 
L 925 2900 
Q 1150 2900 1350 2937 
Q 1550 2975 1725 3075 
L 1775 3075 
L 1775 450 
Q 1775 350 1837 300 
Q 1900 250 2000 250 
L 2525 250 
L 2525 100 
L 675 100 
L 675 250 
L 1200 250 
Q 1325 250 1375 300 
Q 1425 350 1425 450 
L 1425 2525 
z
M 1725 3025 
L 1725 3025 
z
M 1625 4425 
Q 1750 4425 1850 4337 
Q 1950 4250 1950 4125 
Q 1950 4000 1850 3900 
Q 1750 3800 1625 3800 
Q 1500 3800 1400 3900 
Q 1300 4000 1300 4125 
Q 1300 4250 1400 4337 
Q 1500 4425 1625 4425 
z
" transform="scale(0.015625)"/>
       <path id="Times New Roman-74" d="M 1500 900
Q 1500 550 1625 425 
Q 1750 300 2000 300 
Q 2250 300 2400 462 
Q 2550 625 2600 925 
L 2725 875 
Q 2675 525 2462 300 
Q 2250 75 1900 75 
Q 1525 75 1337 300 
Q 1150 525 1150 1000 
L 1150 2750 
L 400 2750 
L 400 2900 
L 600 2900 
Q 900 2900 1087 3087 
Q 1275 3275 1325 3675 
L 1350 3875 
L 1500 3875 
L 1500 2900 
L 2500 2900 
L 2500 2750 
L 1500 2750 
L 1500 900 
z
" transform="scale(0.015625)"/>
       <path id="Times New Roman-72" d="M 1275 2125
Q 1525 2525 1812 2737 
Q 2100 2950 2400 2950 
Q 2650 2950 2787 2837 
Q 2925 2725 2925 2575 
Q 2925 2450 2862 2375 
Q 2800 2300 2675 2300 
Q 2550 2300 2487 2375 
Q 2425 2450 2450 2575 
Q 2450 2650 2425 2700 
Q 2400 2750 2275 2750 
Q 2075 2750 1787 2500 
Q 1500 2250 1275 1800 
L 1275 450 
Q 1275 350 1337 300 
Q 1400 250 1500 250 
L 2050 250 
L 2050 100 
L 200 100 
L 200 250 
L 700 250 
Q 825 250 875 300 
Q 925 350 925 450 
L 925 2525 
Q 925 2625 875 2687 
Q 825 2750 700 2750 
L 225 2750 
L 225 2900 
L 425 2900 
Q 600 2900 837 2937 
Q 1075 2975 1200 3025 
L 1275 3025 
L 1275 2125 
z
" transform="scale(0.015625)"/>
       <path id="Times New Roman-61" d="M 1225 75
Q 775 75 525 287 
Q 275 500 275 775 
Q 275 1225 662 1512 
Q 1050 1800 2200 1925 
L 2200 2225 
Q 2200 2475 2087 2637 
Q 1975 2800 1575 2800 
Q 1150 2800 975 2662 
Q 800 2525 850 2375 
Q 875 2325 875 2275 
Q 875 2225 837 2150 
Q 800 2075 650 2075 
Q 550 2075 487 2137 
Q 425 2200 425 2325 
Q 425 2550 750 2750 
Q 1075 2950 1550 2950 
Q 2050 2950 2300 2762 
Q 2550 2575 2550 2225 
L 2550 575 
Q 2550 375 2587 337 
Q 2625 300 2725 300 
Q 2850 300 2900 412 
Q 2950 525 2950 725 
L 3075 725 
Q 3075 375 2950 237 
Q 2825 100 2625 100 
Q 2450 100 2350 175 
Q 2250 250 2200 425 
Q 1950 250 1737 162 
Q 1525 75 1225 75 
z
M 700 850 
Q 700 625 837 437 
Q 975 250 1275 250 
Q 1500 250 1725 337 
Q 1950 425 2200 600 
L 2200 1775 
Q 1350 1675 1025 1437 
Q 700 1200 700 850 
z
" transform="scale(0.015625)"/>
       <path id="Times New Roman-65" d="M 2400 1650
Q 2425 2200 2212 2487 
Q 2000 2775 1650 2775 
Q 1275 2775 1037 2475 
Q 800 2175 800 1650 
L 2400 1650 
z
M 800 1500 
Q 800 825 1062 537 
Q 1325 250 1750 250 
Q 2075 250 2300 437 
Q 2525 625 2625 900 
L 2750 850 
Q 2675 575 2412 312 
Q 2150 50 1700 50 
Q 1125 50 762 425 
Q 400 800 400 1500 
Q 400 2125 762 2537 
Q 1125 2950 1650 2950 
Q 2125 2950 2475 2625 
Q 2825 2300 2825 1500 
L 800 1500 
z
" transform="scale(0.015625)"/>
       <path id="Times New Roman-20" d="M 0 0
Q 0 0 0 0 
z
" transform="scale(0.015625)"/>
       <path id="Times New Roman-28" d="M 2900 5025
Q 2325 4425 2037 3737 
Q 1750 3050 1750 2300 
Q 1750 1525 2037 850 
Q 2325 175 2900 -425 
L 2775 -550 
Q 2075 75 1725 787 
Q 1375 1500 1375 2300 
Q 1375 3075 1725 3787 
Q 2075 4500 2775 5150 
L 2900 5025 
z
" transform="scale(0.015625)"/>
       <path id="Times New Roman-6b" d="M 1675 1900
L 2625 425 
Q 2700 325 2762 287 
Q 2825 250 2900 250 
L 3000 250 
L 3000 100 
L 1975 100 
L 1975 250 
L 2050 250 
Q 2175 250 2225 287 
Q 2275 325 2200 425 
L 1425 1650 
L 925 1125 
L 925 450 
Q 925 350 987 300 
Q 1050 250 1150 250 
L 1275 250 
L 1275 100 
L 225 100 
L 225 250 
L 350 250 
Q 475 250 525 300 
Q 575 350 575 450 
L 575 4025 
Q 575 4125 525 4175 
Q 475 4225 350 4225 
L 200 4225 
L 200 4375 
L 425 4375 
Q 575 4375 687 4425 
Q 800 4475 875 4575 
L 925 4575 
L 925 1400 
L 1975 2525 
Q 2025 2625 2012 2687 
Q 2000 2750 1900 2750 
L 1750 2750 
L 1750 2900 
L 2800 2900 
L 2800 2750 
L 2675 2750 
Q 2600 2750 2487 2712 
Q 2375 2675 2275 2575 
L 1675 1900 
z
M 2450 2750 
L 2450 2750 
z
M 2175 2750 
L 2175 2750 
z
M 2300 250 
L 2300 250 
z
M 2750 250 
L 2750 250 
z
" transform="scale(0.015625)"/>
       <path id="Times New Roman-62" d="M 875 2325
Q 1000 2600 1275 2762 
Q 1550 2925 1800 2925 
Q 2325 2925 2587 2562 
Q 2850 2200 2850 1500 
Q 2850 800 2512 437 
Q 2175 75 1675 75 
Q 1425 75 1212 162 
Q 1000 250 850 400 
L 625 100 
L 525 100 
L 525 4025 
Q 525 4125 475 4175 
Q 425 4225 300 4225 
L 150 4225 
L 150 4375 
L 375 4375 
Q 500 4375 625 4425 
Q 750 4475 875 4575 
L 875 2325 
z
M 875 925 
Q 875 650 1062 450 
Q 1250 250 1625 250 
Q 2075 250 2262 562 
Q 2450 875 2450 1500 
Q 2450 2100 2287 2412 
Q 2125 2725 1775 2725 
Q 1475 2725 1250 2550 
Q 1025 2375 875 1925 
L 875 925 
z
" transform="scale(0.015625)"/>
       <path id="Times New Roman-70" d="M 1150 -675
L 1325 -675 
L 1325 -825 
L 175 -825 
L 175 -675 
L 325 -675 
Q 450 -675 500 -625 
Q 550 -575 550 -450 
L 550 2500 
Q 550 2600 500 2662 
Q 450 2725 325 2725 
L 175 2725 
L 175 2875 
L 400 2875 
Q 525 2875 637 2900 
Q 750 2925 850 3000 
L 900 3000 
L 900 2425 
Q 1075 2675 1287 2800 
Q 1500 2925 1750 2925 
Q 2250 2925 2575 2587 
Q 2900 2250 2900 1525 
Q 2900 825 2550 450 
Q 2200 75 1725 75 
Q 1450 75 1262 162 
Q 1075 250 900 425 
L 900 -450 
Q 900 -575 975 -625 
Q 1050 -675 1150 -675 
z
M 900 750 
Q 1025 500 1212 375 
Q 1400 250 1650 250 
Q 2000 250 2250 562 
Q 2500 875 2500 1525 
Q 2500 2125 2312 2425 
Q 2125 2725 1750 2725 
Q 1525 2725 1300 2587 
Q 1075 2450 900 2150 
L 900 750 
z
" transform="scale(0.015625)"/>
       <path id="Times New Roman-73" d="M 625 2175
Q 625 2550 912 2750 
Q 1200 2950 1600 2950 
Q 1825 2950 2025 2900 
Q 2225 2825 2300 2825 
Q 2375 2825 2425 2850 
Q 2475 2875 2550 2950 
L 2650 2125 
L 2500 2100 
Q 2400 2425 2162 2612 
Q 1925 2800 1625 2800 
Q 1300 2800 1112 2675 
Q 925 2550 925 2325 
Q 925 2125 1012 2012 
Q 1100 1900 1325 1850 
Q 1500 1775 1775 1700 
Q 2025 1600 2250 1500 
Q 2450 1400 2587 1237 
Q 2725 1075 2725 875 
Q 2725 500 2462 287 
Q 2200 75 1700 75 
Q 1375 75 1225 150 
Q 1050 200 950 200 
Q 875 200 787 162 
Q 700 125 600 75 
L 525 1000 
L 675 1025 
Q 750 625 1000 425 
Q 1250 225 1700 225 
Q 2050 225 2237 350 
Q 2425 475 2425 725 
Q 2425 900 2325 1012 
Q 2225 1125 2125 1175 
Q 1875 1275 1575 1400 
Q 1275 1500 1050 1600 
Q 825 1700 725 1850 
Q 625 2000 625 2175 
z
" transform="scale(0.015625)"/>
       <path id="Times New Roman-29" d="M 275 5025
L 400 5150 
Q 1100 4500 1450 3787 
Q 1800 3075 1800 2300 
Q 1800 1500 1450 787 
Q 1100 75 400 -550 
L 275 -425 
Q 850 175 1137 850 
Q 1425 1525 1425 2300 
Q 1425 3050 1137 3737 
Q 850 4425 275 5025 
z
" transform="scale(0.015625)"/>
      </defs>
      <use xlink:href="#Times New Roman-42"/>
      <use xlink:href="#Times New Roman-69" x="50"/>
      <use xlink:href="#Times New Roman-74" x="100"/>
      <use xlink:href="#Times New Roman-72" x="150"/>
      <use xlink:href="#Times New Roman-61" x="200"/>
      <use xlink:href="#Times New Roman-74" x="250"/>
      <use xlink:href="#Times New Roman-65" x="300"/>
      <use xlink:href="#Times New Roman-20" x="350"/>
      <use xlink:href="#Times New Roman-28" x="400"/>
      <use xlink:href="#Times New Roman-6b" x="450"/>
      <use xlink:href="#Times New Roman-62" x="500"/>
      <use xlink:href="#Times New Roman-70" x="550"/>
      <use xlink:href="#Times New Roman-73" x="600"/>
      <use xlink:href="#Times New Roman-29" x="650"/>
     </g>
    </g>
   </g>
   <g id="line2d_14">
    <path d="M 173.045455 369.36 
L 174.949314 369.36 
L 175.583934 258.333497 
L 176.218553 369.36 
L 191.449428 369.36 
L 192.718667 309.435934 
L 206.680302 309.435934 
L 207.949541 133.444434 
L 209.853401 133.444434 
L 210.48802 258.333497 
L 218.738077 258.333497 
L 219.372697 337.539124 
L 221.911176 337.539124 
L 223.180415 133.444434 
L 224.449655 258.333497 
L 226.988134 258.333497 
L 228.257374 133.444434 
L 259.353742 133.444434 
L 259.988362 258.333497 
L 284.103912 258.333497 
L 285.373152 309.435934 
L 300.604026 309.435934 
L 301.873266 337.539124 
L 303.142505 369.36 
L 327.258056 369.36 
L 328.527295 258.333497 
L 329.796535 258.333497 
L 331.065775 369.36 
L 343.75817 369.36 
L 345.027409 309.435934 
L 346.296649 309.435934 
L 347.565888 258.333497 
L 350.104367 258.333497 
L 351.373607 309.435934 
L 353.912086 309.435934 
L 355.181325 258.333497 
L 356.450565 258.333497 
L 357.719804 133.444434 
L 358.989044 258.333497 
L 376.758397 258.333497 
L 378.027637 133.444434 
L 426.258738 133.444434 
L 427.527978 258.333497 
L 430.066457 258.333497 
L 431.335696 133.444434 
L 431.970316 133.444434 
L 432.604936 258.333497 
L 435.143415 258.333497 
L 436.412654 133.444434 
L 437.047274 133.444434 
L 437.681894 258.333497 
L 440.220373 258.333497 
L 441.489613 133.444434 
L 442.758852 309.435934 
L 445.297331 309.435934 
L 446.566571 258.333497 
L 447.83581 309.435934 
L 449.10505 309.435934 
L 450.374289 337.539124 
L 452.912768 337.539124 
L 454.182008 309.435934 
L 455.451247 309.435934 
L 456.720487 337.539124 
L 468.778262 337.539124 
L 469.412882 369.36 
L 471.951361 369.36 
L 472.585981 258.333497 
L 473.220601 369.36 
L 488.451475 369.36 
L 489.720714 337.539124 
L 490.989954 337.539124 
L 492.259193 309.435934 
L 497.970771 309.435934 
L 498.605391 337.539124 
L 501.14387 337.539124 
L 502.413109 258.333497 
L 503.682349 258.333497 
L 504.951588 133.444434 
L 506.220828 258.333497 
L 511.297786 258.333497 
L 512.567026 133.444434 
L 513.836265 258.333497 
L 516.374744 258.333497 
L 517.643984 133.444434 
L 518.913223 258.333497 
L 521.451702 258.333497 
L 522.720942 133.444434 
L 529.067139 133.444434 
L 530.336379 258.333497 
L 541.759534 258.333497 
L 543.028774 133.444434 
L 559.528888 133.444434 
L 560.798127 258.333497 
L 567.144325 258.333497 
L 568.413564 133.444434 
L 569.048184 133.444434 
L 569.682804 258.333497 
L 577.298241 258.333497 
L 578.56748 133.444434 
L 579.83672 133.444434 
L 581.10596 258.333497 
L 587.452157 258.333497 
L 588.721397 133.444434 
L 591.259876 133.444434 
L 592.529115 258.333497 
L 596.336834 258.333497 
L 597.606073 309.435934 
L 600.144552 309.435934 
L 601.413792 258.333497 
L 602.683031 309.435934 
L 603.952271 309.435934 
L 605.22151 337.539124 
L 612.836947 337.539124 
L 614.106187 258.333497 
L 616.644666 258.333497 
L 617.913906 369.36 
L 622.990864 369.36 
L 624.260103 309.435934 
L 625.529343 369.36 
L 638.221738 369.36 
L 639.490977 309.435934 
L 640.760217 309.435934 
L 642.029456 337.539124 
L 643.298696 337.539124 
L 644.567935 369.36 
L 647.741034 369.36 
L 648.375654 309.435934 
L 663.606528 309.435934 
L 664.875768 133.444434 
L 666.145007 133.444434 
L 667.414247 258.333497 
L 676.298923 258.333497 
L 677.568163 133.444434 
L 683.279741 133.444434 
L 683.91436 258.333497 
L 686.452839 258.333497 
L 687.722079 133.444434 
L 688.991319 258.333497 
L 691.529798 258.333497 
L 692.799037 133.444434 
L 694.068277 258.333497 
L 696.606756 258.333497 
L 697.875995 133.444434 
L 704.222193 133.444434 
L 705.491432 258.333497 
L 709.299151 258.333497 
L 710.56839 133.444434 
L 713.106869 133.444434 
L 714.376109 258.333497 
L 716.914588 258.333497 
L 718.183827 133.444434 
L 718.818447 133.444434 
L 719.453067 258.333497 
L 721.991546 258.333497 
L 723.260786 133.444434 
L 724.530025 258.333497 
L 727.068504 258.333497 
L 728.337744 133.444434 
L 729.606983 133.444434 
L 730.876223 258.333497 
L 742.299378 258.333497 
L 743.568618 133.444434 
L 744.837857 133.444434 
L 746.107097 309.435934 
L 753.722534 309.435934 
L 754.991773 337.539124 
L 762.607211 337.539124 
L 763.87645 369.36 
L 785.453522 369.36 
L 786.722761 337.539124 
L 788.626621 337.539124 
L 789.26124 369.36 
L 791.799719 369.36 
L 792.434339 258.333497 
L 793.068959 337.539124 
L 806.395974 337.539124 
L 807.030594 309.435934 
L 820.992228 309.435934 
L 822.261468 133.444434 
L 895.87736 133.444434 
L 897.146599 258.333497 
L 903.492797 258.333497 
L 904.762037 309.435934 
L 909.838995 309.435934 
L 911.108234 133.444434 
L 912.377474 133.444434 
L 913.646713 337.539124 
L 917.454432 337.539124 
L 918.723671 258.333497 
L 919.992911 258.333497 
L 921.26215 369.36 
L 925.069869 369.36 
L 925.704489 309.435934 
L 926.339108 369.36 
L 933.954545 369.36 
L 933.954545 369.36 
" clip-path="url(#pb5bae6668b)" style="fill: none; stroke: #ff0000; stroke-width: 1.5; stroke-linecap: square"/>
   </g>
   <g id="line2d_15">
    <path d="M 173.045455 331.199649 
L 174.314694 331.199649 
L 174.949314 330.638509 
L 175.583934 329.740686 
L 176.218553 328.141468 
L 177.487793 326.022915 
L 178.757032 322.848507 
L 180.026272 319.084746 
L 181.295511 314.680989 
L 186.372469 294.703343 
L 188.910949 282.403404 
L 191.449428 267.954819 
L 193.987907 253.053895 
L 195.257146 253.668351 
L 196.526386 260.580979 
L 197.795625 278.685281 
L 199.064865 292.848247 
L 200.334104 310.270914 
L 201.603344 310.507737 
L 202.872583 300.31027 
L 206.680302 208.436548 
L 207.949541 185.825587 
L 209.853401 158.555563 
L 210.48802 152.598863 
L 211.75726 150.342139 
L 213.026499 165.093112 
L 214.295739 192.057623 
L 215.564978 233.257655 
L 216.834218 259.003941 
L 218.103457 269.638255 
L 218.738077 246.70864 
L 219.372697 217.844034 
L 220.641936 192.425779 
L 221.911176 184.976527 
L 223.180415 195.379899 
L 225.718895 226.316898 
L 226.988134 211.245187 
L 228.257374 206.175893 
L 229.526613 188.063324 
L 230.795853 192.320961 
L 232.065092 173.103152 
L 233.334332 175.530561 
L 234.603571 156.205985 
L 235.872811 152.482787 
L 237.14205 131.62486 
L 238.41129 129.27135 
L 239.680529 111.662471 
L 240.949769 102.670156 
L 242.219008 86.149211 
L 244.757487 87.938741 
L 246.026727 97.200309 
L 247.295966 99.011852 
L 248.565206 101.538064 
L 249.834445 95.050184 
L 251.103685 94.548208 
L 252.372924 97.72675 
L 253.642164 110.458663 
L 254.911403 118.480767 
L 256.180643 123.267904 
L 257.449882 123.139797 
L 258.719122 119.634636 
L 259.353742 116.284198 
L 259.988362 117.612685 
L 263.79608 131.868438 
L 266.334559 150.067643 
L 267.603799 160.348017 
L 270.142278 174.941915 
L 273.949996 186.621886 
L 280.296194 223.455733 
L 285.373152 252.958218 
L 289.18087 273.90584 
L 292.988589 293.2735 
L 295.527068 305.672106 
L 298.065547 318.622728 
L 299.334787 323.970181 
L 300.604026 328.587472 
L 301.873266 332.157997 
L 303.142505 334.953395 
L 304.411745 337.404564 
L 308.219463 345.588012 
L 309.488703 347.736893 
L 310.757942 349.454574 
L 312.027182 350.776776 
L 313.296421 351.732604 
L 314.565661 352.346522 
L 315.8349 352.537405 
L 317.10414 352.323603 
L 318.373379 351.722657 
L 319.642619 350.693063 
L 320.911858 349.277133 
L 322.181098 347.422104 
L 323.450337 345.226947 
L 324.719577 342.643738 
L 325.988816 339.747186 
L 326.623436 336.718527 
L 327.258056 334.306039 
L 328.527295 331.987815 
L 329.796535 329.43119 
L 331.065775 325.89575 
L 332.335014 321.761548 
L 334.873493 310.785626 
L 336.142733 304.81461 
L 337.411972 302.22905 
L 338.681212 302.380109 
L 339.950451 308.351663 
L 341.219691 313.219489 
L 342.48893 319.174038 
L 343.75817 318.930998 
L 345.027409 313.533707 
L 345.662029 298.241102 
L 346.296649 285.891493 
L 347.565888 282.529495 
L 348.835128 286.864427 
L 350.104367 298.314431 
L 351.373607 305.949559 
L 352.642846 306.857195 
L 353.912086 288.198022 
L 355.181325 273.903185 
L 356.450565 254.039767 
L 357.719804 240.848457 
L 358.989044 220.454195 
L 360.258283 209.163719 
L 361.527523 170.643681 
L 362.796762 154.143505 
L 364.066002 155.208183 
L 365.335241 173.001762 
L 366.604481 197.170505 
L 367.873721 231.630678 
L 369.14296 256.495708 
L 370.4122 285.188821 
L 371.681439 287.363042 
L 372.950679 292.518234 
L 374.219918 278.869409 
L 375.489158 287.526906 
L 376.123777 289.332903 
L 376.758397 297.635854 
L 378.027637 294.692186 
L 379.296876 288.17396 
L 380.566116 283.387898 
L 381.835355 263.199037 
L 383.104595 259.656473 
L 384.373834 243.426019 
L 385.643074 255.577923 
L 386.912313 241.5147 
L 388.181553 246.501021 
L 389.450792 226.208182 
L 390.720032 234.56171 
L 391.989271 222.272459 
L 393.258511 233.468467 
L 394.52775 221.192187 
L 395.79699 235.249125 
L 397.066229 221.852079 
L 398.335469 227.0807 
L 399.604708 208.830783 
L 400.873948 224.261543 
L 402.143188 218.312034 
L 403.412427 242.592552 
L 404.681667 241.092404 
L 405.950906 263.454411 
L 407.220146 257.362513 
L 408.489385 268.371268 
L 409.758625 254.033482 
L 411.027864 265.20563 
L 412.297104 255.833531 
L 413.566343 268.659911 
L 414.835583 260.654913 
L 416.104822 276.547691 
L 417.374062 271.033417 
L 418.643301 279.57645 
L 419.912541 270.722593 
L 421.18178 271.270038 
L 422.45102 252.637514 
L 424.989499 247.871717 
L 426.258738 253.924598 
L 427.527978 252.798992 
L 428.797217 259.494793 
L 429.431837 265.574593 
L 430.066457 267.664025 
L 431.335696 264.46253 
L 431.970316 266.199702 
L 432.604936 265.016965 
L 435.143415 256.122142 
L 436.412654 259.787906 
L 437.047274 268.411125 
L 437.681894 278.868032 
L 440.220373 301.753018 
L 441.489613 310.275417 
L 442.758852 314.210166 
L 444.028092 316.945106 
L 444.662711 317.035641 
L 445.297331 316.639592 
L 446.566571 317.82085 
L 447.83581 323.251849 
L 449.10505 329.176623 
L 451.643529 332.654831 
L 452.912768 332.788416 
L 454.182008 334.080642 
L 454.816627 334.45683 
L 455.451247 337.036577 
L 456.720487 339.181392 
L 457.989726 341.560207 
L 463.066684 349.996239 
L 464.335924 351.66724 
L 465.605163 352.658388 
L 466.874403 353.272911 
L 468.143642 353.101721 
L 468.778262 352.651868 
L 469.412882 352.40745 
L 470.682121 352.329349 
L 471.316741 352.130602 
L 472.585981 350.323832 
L 473.220601 348.637103 
L 475.75908 347.152448 
L 477.028319 349.14906 
L 478.297559 350.662179 
L 479.566798 353.831547 
L 480.836038 355.274127 
L 482.105277 358.827647 
L 483.374517 357.879448 
L 484.643756 358.429783 
L 487.182235 348.451193 
L 488.451475 337.547492 
L 489.720714 328.970079 
L 490.989954 317.38938 
L 492.259193 310.656007 
L 493.528433 305.866417 
L 494.797672 309.626817 
L 496.066912 311.360158 
L 497.336151 317.66559 
L 497.970771 324.035949 
L 498.605391 327.939612 
L 499.87463 322.079563 
L 501.14387 311.371685 
L 502.413109 305.982157 
L 503.047729 306.1311 
L 503.682349 307.148696 
L 504.951588 310.129465 
L 506.220828 309.830908 
L 507.490067 297.867871 
L 508.759307 269.601423 
L 510.028547 247.871213 
L 511.297786 231.79928 
L 512.567026 224.743725 
L 513.836265 216.71127 
L 515.105505 229.07906 
L 515.740124 249.921965 
L 516.374744 263.194467 
L 517.643984 268.650165 
L 518.913223 261.983602 
L 520.182463 249.340241 
L 521.451702 214.314039 
L 523.990181 153.300695 
L 525.259421 139.187466 
L 526.52866 120.095444 
L 529.067139 95.42691 
L 530.336379 90.175066 
L 531.605618 86.928035 
L 532.874858 83.358619 
L 534.144097 80.948919 
L 535.413337 77.645463 
L 536.682576 77.198332 
L 537.951816 94.736403 
L 539.221055 119.186128 
L 540.490295 162.859812 
L 541.759534 252.55286 
L 543.028774 274.325514 
L 544.298013 270.431126 
L 545.567253 244.372202 
L 548.105732 153.527032 
L 549.374972 116.761541 
L 550.644211 99.988986 
L 551.913451 87.631144 
L 553.18269 89.157907 
L 554.45193 92.203638 
L 555.721169 91.536151 
L 556.990409 96.144436 
L 558.259648 119.248232 
L 559.528888 150.002783 
L 560.798127 192.677321 
L 562.067367 217.107722 
L 563.336606 233.457377 
L 564.605846 215.589394 
L 565.875085 194.903329 
L 567.144325 163.516511 
L 568.413564 163.191673 
L 569.048184 179.633207 
L 569.682804 211.198508 
L 570.952043 242.363358 
L 572.221283 260.132941 
L 573.490522 264.849438 
L 576.029001 224.071567 
L 577.298241 205.447411 
L 578.56748 199.81407 
L 579.83672 194.750723 
L 582.375199 227.470196 
L 583.644439 246.225416 
L 584.913678 257.076625 
L 586.182918 269.289591 
L 587.452157 270.820017 
L 588.721397 278.250988 
L 589.990636 283.384336 
L 591.259876 298.332847 
L 592.529115 306.399311 
L 593.798355 319.673157 
L 595.067594 324.591795 
L 596.336834 328.364226 
L 597.606073 325.016611 
L 598.875313 327.616018 
L 600.144552 325.883214 
L 602.683031 327.928219 
L 603.952271 333.800131 
L 605.22151 337.460317 
L 606.49075 341.921608 
L 609.029229 347.50007 
L 611.567708 348.887335 
L 614.106187 349.09045 
L 615.375426 350.664901 
L 616.644666 353.183249 
L 617.913906 355.344196 
L 619.183145 355.871007 
L 620.452385 355.996492 
L 621.721624 354.575958 
L 622.990864 352.81143 
L 624.260103 350.638722 
L 625.529343 349.248769 
L 626.798582 347.483435 
L 629.337061 343.10579 
L 630.606301 340.566539 
L 631.87554 341.01945 
L 633.14478 341.84018 
L 634.414019 342.296015 
L 635.683259 340.647261 
L 636.952498 338.331155 
L 637.587118 333.494214 
L 638.221738 326.145276 
L 639.490977 319.863436 
L 640.760217 316.675417 
L 642.029456 319.319855 
L 643.298696 319.309 
L 644.567935 317.910915 
L 645.837175 309.272473 
L 647.106414 298.214049 
L 648.375654 267.171728 
L 649.644893 258.722388 
L 650.914133 256.364207 
L 652.183373 262.863983 
L 653.452612 266.334631 
L 654.721852 278.040479 
L 655.991091 279.772307 
L 657.260331 289.29513 
L 659.79881 272.563339 
L 661.068049 246.458744 
L 662.337289 227.764351 
L 663.606528 202.082556 
L 664.875768 189.217865 
L 666.145007 178.082549 
L 667.414247 175.141368 
L 668.683486 177.822269 
L 669.952726 196.002151 
L 672.491205 234.859831 
L 673.760444 237.772347 
L 675.029684 243.166378 
L 675.664304 238.975886 
L 676.298923 233.829532 
L 677.568163 217.058254 
L 678.837402 204.357662 
L 680.106642 194.630111 
L 681.375881 182.30611 
L 682.645121 165.14584 
L 683.279741 147.377601 
L 683.91436 141.805557 
L 685.1836 143.343478 
L 686.452839 141.248535 
L 687.722079 139.719519 
L 688.991319 139.962694 
L 690.260558 162.717926 
L 691.529798 171.364568 
L 692.799037 175.73398 
L 694.068277 160.604096 
L 695.337516 153.917436 
L 696.606756 95.931339 
L 697.875995 70.214257 
L 699.145235 66.96 
L 700.414474 69.152839 
L 701.683714 74.154417 
L 702.952953 98.099242 
L 704.222193 130.19253 
L 705.491432 167.673968 
L 706.760672 186.296276 
L 708.029911 206.553929 
L 708.664531 210.773994 
L 709.299151 213.103879 
L 710.56839 206.064925 
L 711.83763 207.391866 
L 713.106869 198.87723 
L 715.645348 160.823847 
L 716.914588 148.569479 
L 718.183827 148.355004 
L 718.818447 150.849189 
L 719.453067 163.010368 
L 721.991546 204.578858 
L 723.260786 219.234088 
L 724.530025 224.500248 
L 725.799265 225.048298 
L 727.068504 212.647339 
L 728.337744 196.543312 
L 729.606983 185.876702 
L 730.876223 188.733129 
L 733.414702 201.396922 
L 734.683941 208.693938 
L 735.953181 223.017508 
L 738.49166 255.756103 
L 739.760899 265.596605 
L 741.030139 273.216207 
L 742.299378 273.967675 
L 744.837857 270.219777 
L 746.107097 274.550844 
L 751.184055 299.294455 
L 752.453294 305.042091 
L 754.991773 318.061437 
L 756.261013 324.139758 
L 758.799492 333.047688 
L 760.068732 335.949382 
L 761.337971 339.631984 
L 762.607211 342.907009 
L 763.87645 346.910517 
L 765.14569 349.397746 
L 766.414929 351.41395 
L 767.684169 351.992279 
L 768.953408 353.411738 
L 770.222648 354.530388 
L 771.491887 356.275827 
L 772.761127 356.456729 
L 774.030366 356.117273 
L 775.299606 354.219463 
L 776.568845 351.861013 
L 777.838085 349.265136 
L 779.107324 347.44751 
L 780.376564 345.370916 
L 781.645803 342.84924 
L 782.915043 340.029612 
L 784.184282 336.739464 
L 785.453522 330.051191 
L 787.992001 323.178285 
L 789.26124 316.887337 
L 790.53048 313.259346 
L 793.068959 297.699168 
L 795.607438 289.807658 
L 796.876678 285.101243 
L 798.145917 279.440614 
L 799.415157 273.10329 
L 800.684396 267.444442 
L 803.222875 258.23698 
L 804.492115 252.19613 
L 805.761354 244.836539 
L 806.395974 236.673961 
L 807.030594 230.528361 
L 808.299833 224.946538 
L 809.569073 220.727481 
L 810.838312 217.526557 
L 812.107552 226.971547 
L 813.376791 240.148104 
L 814.646031 263.885612 
L 817.18451 289.705932 
L 818.453749 277.017472 
L 819.722989 268.804115 
L 820.992228 245.351722 
L 822.261468 247.103177 
L 823.530707 242.359762 
L 824.799947 262.297752 
L 826.069186 259.757829 
L 827.338426 271.248261 
L 828.607665 259.51079 
L 829.876905 268.495611 
L 831.146145 254.029113 
L 832.415384 264.101129 
L 833.684624 251.132662 
L 834.953863 258.850058 
L 836.223103 243.832755 
L 837.492342 257.530712 
L 838.761582 249.221712 
L 840.030821 261.155007 
L 841.300061 252.778492 
L 842.5693 267.792132 
L 843.83854 261.814058 
L 845.107779 275.305337 
L 846.377019 277.59728 
L 847.646258 300.70773 
L 848.915498 308.094542 
L 850.184737 325.529375 
L 851.453977 331.68089 
L 852.723216 346.366634 
L 853.992456 347.398244 
L 855.261695 353.067106 
L 856.530935 349.908762 
L 857.800174 352.080764 
L 859.069414 349.953626 
L 860.338653 353.305778 
L 861.607893 353.140166 
L 862.877132 357.905762 
L 864.146372 357.103313 
L 865.415611 359.856803 
L 866.684851 357.437459 
L 867.954091 359.495873 
L 869.22333 357.236124 
L 870.49257 359.197383 
L 871.761809 356.118416 
L 873.031049 358.30823 
L 874.300288 355.822546 
L 875.569528 357.871954 
L 876.838767 354.601163 
L 878.108007 356.042465 
L 879.377246 352.634057 
L 880.646486 353.172025 
L 881.915725 347.286873 
L 883.184965 345.925351 
L 884.454204 337.928956 
L 885.723444 335.395384 
L 886.992683 323.395414 
L 888.261923 319.207006 
L 889.531162 307.87674 
L 890.800402 304.528016 
L 892.069641 294.200393 
L 893.338881 296.360398 
L 894.60812 297.07164 
L 895.87736 308.412659 
L 897.146599 313.260757 
L 898.415839 324.523474 
L 899.685078 329.163583 
L 900.954318 335.921724 
L 902.223558 336.393623 
L 903.492797 341.699303 
L 904.762037 342.388029 
L 906.031276 343.896847 
L 907.300516 340.008777 
L 908.569755 337.687697 
L 909.838995 334.548071 
L 911.108234 333.593688 
L 912.377474 334.15555 
L 913.646713 337.110376 
L 914.915953 340.441658 
L 916.185192 343.316367 
L 919.992911 350.934557 
L 921.26215 352.842449 
L 922.53139 353.757949 
L 923.800629 354.253506 
L 924.435249 353.885115 
L 925.069869 353.181401 
L 925.704489 352.30764 
L 930.146827 351.300025 
L 931.416066 351.493832 
L 932.685306 350.833537 
L 933.954545 351.969965 
L 933.954545 351.969965 
" clip-path="url(#pb5bae6668b)" style="fill: none; stroke: #008000; stroke-width: 1.5; stroke-linecap: square"/>
   </g>
   <g id="patch_3">
    <path d="M 135 384.48 
L 135 51.84 
" style="fill: none; stroke: #000000; stroke-width: 0.8; stroke-linejoin: miter; stroke-linecap: square"/>
   </g>
   <g id="patch_4">
    <path d="M 972 384.48 
L 972 51.84 
" style="fill: none; stroke: #000000; stroke-width: 0.8; stroke-linejoin: miter; stroke-linecap: square"/>
   </g>
   <g id="patch_5">
    <path d="M 135 384.48 
L 972 384.48 
" style="fill: none; stroke: #000000; stroke-width: 0.8; stroke-linejoin: miter; stroke-linecap: square"/>
   </g>
   <g id="patch_6">
    <path d="M 135 51.84 
L 972 51.84 
" style="fill: none; stroke: #000000; stroke-width: 0.8; stroke-linejoin: miter; stroke-linecap: square"/>
   </g>
  </g>
  <g id="axes_2">
   <g id="matplotlib.axis_3">
    <g id="ytick_7">
     <g id="line2d_16">
      <path d="M 135 337.892778 
L 972 337.892778 
" clip-path="url(#pb5bae6668b)" style="fill: none; stroke: #b0b0b0; stroke-width: 0.8; stroke-linecap: square"/>
     </g>
     <g id="line2d_17">
      <defs>
       <path id="m717153a9fe" d="M 0 0 
L 3.5 0 
" style="stroke: #000000; stroke-width: 0.8"/>
      </defs>
      <g>
       <use xlink:href="#m717153a9fe" x="972" y="337.892778" style="stroke: #000000; stroke-width: 0.8"/>
      </g>
     </g>
     <g id="text_15">
      <!-- 5 -->
      <g transform="translate(979 341.466997) scale(0.1 -0.1)">
       <use xlink:href="#Times New Roman-35"/>
      </g>
     </g>
    </g>
    <g id="ytick_8">
     <g id="line2d_18">
      <path d="M 135 285.447409 
L 972 285.447409 
" clip-path="url(#pb5bae6668b)" style="fill: none; stroke: #b0b0b0; stroke-width: 0.8; stroke-linecap: square"/>
     </g>
     <g id="line2d_19">
      <g>
       <use xlink:href="#m717153a9fe" x="972" y="285.447409" style="stroke: #000000; stroke-width: 0.8"/>
      </g>
     </g>
     <g id="text_16">
      <!-- 10 -->
      <g transform="translate(979 289.021628) scale(0.1 -0.1)">
       <use xlink:href="#Times New Roman-31"/>
       <use xlink:href="#Times New Roman-30" x="50"/>
      </g>
     </g>
    </g>
    <g id="ytick_9">
     <g id="line2d_20">
      <path d="M 135 233.00204 
L 972 233.00204 
" clip-path="url(#pb5bae6668b)" style="fill: none; stroke: #b0b0b0; stroke-width: 0.8; stroke-linecap: square"/>
     </g>
     <g id="line2d_21">
      <g>
       <use xlink:href="#m717153a9fe" x="972" y="233.00204" style="stroke: #000000; stroke-width: 0.8"/>
      </g>
     </g>
     <g id="text_17">
      <!-- 15 -->
      <g transform="translate(979 236.576258) scale(0.1 -0.1)">
       <use xlink:href="#Times New Roman-31"/>
       <use xlink:href="#Times New Roman-35" x="50"/>
      </g>
     </g>
    </g>
    <g id="ytick_10">
     <g id="line2d_22">
      <path d="M 135 180.55667 
L 972 180.55667 
" clip-path="url(#pb5bae6668b)" style="fill: none; stroke: #b0b0b0; stroke-width: 0.8; stroke-linecap: square"/>
     </g>
     <g id="line2d_23">
      <g>
       <use xlink:href="#m717153a9fe" x="972" y="180.55667" style="stroke: #000000; stroke-width: 0.8"/>
      </g>
     </g>
     <g id="text_18">
      <!-- 20 -->
      <g transform="translate(979 184.130889) scale(0.1 -0.1)">
       <use xlink:href="#Times New Roman-32"/>
       <use xlink:href="#Times New Roman-30" x="50"/>
      </g>
     </g>
    </g>
    <g id="ytick_11">
     <g id="line2d_24">
      <path d="M 135 128.111301 
L 972 128.111301 
" clip-path="url(#pb5bae6668b)" style="fill: none; stroke: #b0b0b0; stroke-width: 0.8; stroke-linecap: square"/>
     </g>
     <g id="line2d_25">
      <g>
       <use xlink:href="#m717153a9fe" x="972" y="128.111301" style="stroke: #000000; stroke-width: 0.8"/>
      </g>
     </g>
     <g id="text_19">
      <!-- 25 -->
      <g transform="translate(979 131.685519) scale(0.1 -0.1)">
       <use xlink:href="#Times New Roman-32"/>
       <use xlink:href="#Times New Roman-35" x="50"/>
      </g>
     </g>
    </g>
    <g id="ytick_12">
     <g id="line2d_26">
      <path d="M 135 75.665931 
L 972 75.665931 
" clip-path="url(#pb5bae6668b)" style="fill: none; stroke: #b0b0b0; stroke-width: 0.8; stroke-linecap: square"/>
     </g>
     <g id="line2d_27">
      <g>
       <use xlink:href="#m717153a9fe" x="972" y="75.665931" style="stroke: #000000; stroke-width: 0.8"/>
      </g>
     </g>
     <g id="text_20">
      <!-- 30 -->
      <g transform="translate(979 79.24015) scale(0.1 -0.1)">
       <use xlink:href="#Times New Roman-33"/>
       <use xlink:href="#Times New Roman-30" x="50"/>
      </g>
     </g>
    </g>
    <g id="text_21">
     <!-- buffer (s) -->
     <g transform="translate(1000.617188 243.16) rotate(-90) scale(0.1 -0.1)">
      <defs>
       <path id="Times New Roman-75" d="M 1450 325
Q 1750 325 1962 475 
Q 2175 625 2275 950 
L 2275 2525 
Q 2275 2625 2225 2687 
Q 2175 2750 2050 2750 
L 1900 2750 
L 1900 2900 
L 2050 2900 
Q 2200 2900 2325 2925 
Q 2450 2950 2575 3050 
L 2625 3050 
L 2625 600 
Q 2625 500 2687 450 
Q 2750 400 2850 400 
L 3000 400 
L 3000 250 
L 2850 250 
Q 2725 250 2600 212 
Q 2475 175 2325 100 
L 2275 100 
L 2275 625 
Q 2150 350 1900 212 
Q 1650 75 1325 75 
Q 925 75 725 300 
Q 525 525 525 1025 
L 525 2525 
Q 525 2625 475 2687 
Q 425 2750 300 2750 
L 150 2750 
L 150 2900 
L 300 2900 
Q 450 2900 575 2925 
Q 700 2950 825 3050 
L 875 3050 
L 875 975 
Q 875 625 1025 475 
Q 1175 325 1450 325 
z
" transform="scale(0.015625)"/>
       <path id="Times New Roman-66" d="M 1125 3325
Q 1125 3850 1450 4112 
Q 1775 4375 2175 4375 
Q 2600 4375 2812 4225 
Q 3025 4075 3025 3875 
Q 3025 3775 2975 3700 
Q 2925 3625 2775 3625 
Q 2675 3625 2612 3675 
Q 2550 3725 2550 3850 
Q 2550 3875 2575 3925 
Q 2575 3975 2575 4000 
Q 2575 4100 2500 4162 
Q 2425 4225 2150 4225 
Q 1850 4225 1662 4037 
Q 1475 3850 1475 3400 
L 1475 2900 
L 2525 2900 
L 2525 2750 
L 1475 2750 
L 1475 450 
Q 1475 350 1537 300 
Q 1600 250 1700 250 
L 2300 250 
L 2300 100 
L 475 100 
L 475 250 
L 900 250 
Q 1025 250 1075 300 
Q 1125 350 1125 450 
L 1125 2750 
L 350 2750 
L 350 2900 
L 1125 2900 
L 1125 3325 
z
" transform="scale(0.015625)"/>
      </defs>
      <use xlink:href="#Times New Roman-62"/>
      <use xlink:href="#Times New Roman-75" x="50"/>
      <use xlink:href="#Times New Roman-66" x="100"/>
      <use xlink:href="#Times New Roman-66" x="150"/>
      <use xlink:href="#Times New Roman-65" x="200"/>
      <use xlink:href="#Times New Roman-72" x="250"/>
      <use xlink:href="#Times New Roman-20" x="300"/>
      <use xlink:href="#Times New Roman-28" x="350"/>
      <use xlink:href="#Times New Roman-73" x="400"/>
      <use xlink:href="#Times New Roman-29" x="450"/>
     </g>
    </g>
   </g>
   <g id="line2d_28">
    <path d="M 173.045455 369.36 
L 173.680074 363.737856 
L 174.314694 361.863809 
L 174.949314 347.661602 
L 175.583934 337.207492 
L 177.487793 316.383184 
L 178.757032 284.646743 
L 180.026272 238.907388 
L 181.295511 200.758626 
L 183.83399 165.529324 
L 185.10323 154.757045 
L 187.641709 119.866889 
L 188.910949 95.465806 
L 190.180188 77.697315 
L 191.449428 74.85128 
L 193.987907 95.850406 
L 196.526386 102.280208 
L 197.795625 99.444662 
L 199.064865 95.728033 
L 201.603344 74.211446 
L 202.872583 71.351426 
L 206.680302 81.053819 
L 207.949541 85.19001 
L 209.218781 95.364412 
L 209.853401 101.857149 
L 210.48802 101.388637 
L 211.75726 101.829178 
L 214.295739 96.130114 
L 218.103457 84.829886 
L 219.372697 71.746514 
L 220.641936 71.305973 
L 221.911176 74.970156 
L 223.180415 85.137565 
L 224.449655 82.249573 
L 225.718895 78.053944 
L 226.988134 74.291863 
L 228.257374 77.550468 
L 229.526613 81.676171 
L 230.795853 77.94206 
L 232.065092 81.137732 
L 233.334332 77.382643 
L 234.603571 81.592258 
L 235.872811 78.749719 
L 237.14205 81.98385 
L 238.41129 78.123871 
L 239.680529 81.319542 
L 240.949769 78.466514 
L 244.757487 88.140937 
L 246.026727 92.277128 
L 247.295966 89.312216 
L 249.834445 81.788054 
L 251.103685 85.116587 
L 252.372924 89.032508 
L 253.642164 92.263143 
L 256.180643 85.018689 
L 257.449882 82.183143 
L 258.719122 85.392799 
L 259.353742 91.850572 
L 259.988362 91.724703 
L 261.257601 92.161748 
L 262.526841 96.332903 
L 263.79608 106.175151 
L 266.334559 112.601457 
L 267.603799 109.772903 
L 268.873038 113.482539 
L 270.142278 110.272882 
L 271.411517 113.465057 
L 272.680757 110.206452 
L 273.949996 112.863684 
L 275.219236 109.150552 
L 276.488475 112.307763 
L 277.757715 109.496691 
L 279.026954 113.608408 
L 280.296194 116.818065 
L 282.834673 137.254277 
L 285.373152 145.267929 
L 286.642391 148.512549 
L 290.45011 179.402872 
L 292.988589 185.867638 
L 294.257828 190.056275 
L 298.065547 221.009532 
L 300.604026 243.312799 
L 301.873266 246.207784 
L 304.411745 252.93128 
L 305.680984 257.126909 
L 306.950224 260.021894 
L 308.219463 256.668887 
L 309.488703 259.861061 
L 310.757942 257.060479 
L 314.565661 245.686826 
L 315.8349 249.476878 
L 317.10414 246.186805 
L 319.642619 252.658564 
L 320.911858 256.305265 
L 322.181098 260.483413 
L 323.450337 257.371655 
L 325.988816 263.822435 
L 326.623436 270.573902 
L 327.258056 271.014443 
L 328.527295 271.294152 
L 329.796535 274.531779 
L 331.065775 284.713174 
L 332.335014 288.087159 
L 333.604254 284.328574 
L 337.411972 232.39717 
L 338.681212 215.216067 
L 339.950451 190.647159 
L 341.219691 144.904308 
L 342.48893 106.538772 
L 343.75817 75.123996 
L 345.027409 71.386389 
L 345.662029 70.879417 
L 346.296649 77.424599 
L 347.565888 77.928075 
L 348.835128 82.064266 
L 350.104367 85.252945 
L 352.642846 77.79871 
L 353.912086 67.991426 
L 356.450565 74.368783 
L 357.719804 84.546681 
L 358.989044 88.693361 
L 360.258283 84.875338 
L 360.892903 77.435088 
L 361.527523 77.494527 
L 362.796762 84.89282 
L 364.066002 89.018522 
L 365.335241 92.619771 
L 366.604481 89.504516 
L 367.873721 92.710676 
L 369.14296 82.134194 
L 370.4122 78.634339 
L 371.681439 68.568325 
L 372.950679 71.641623 
L 375.489158 78.655317 
L 376.123777 79.046909 
L 376.758397 78.483996 
L 378.027637 78.347638 
L 379.296876 74.575068 
L 380.566116 71.498273 
L 381.835355 74.365286 
L 383.104595 77.620395 
L 384.373834 74.162497 
L 385.643074 71.319958 
L 386.912313 75.445661 
L 388.181553 78.358127 
L 389.450792 81.595754 
L 390.720032 77.833673 
L 391.989271 81.955879 
L 395.79699 71.354922 
L 397.066229 75.207908 
L 398.335469 78.078418 
L 399.604708 81.749594 
L 400.873948 78.382601 
L 402.143188 82.476837 
L 403.412427 78.532945 
L 404.681667 81.323039 
L 405.950906 77.564454 
L 408.489385 71.715047 
L 412.297104 81.406951 
L 413.566343 78.602872 
L 414.835583 75.438668 
L 416.104822 71.522747 
L 417.374062 74.683455 
L 418.643301 78.270718 
L 419.912541 75.288325 
L 421.18178 71.522747 
L 423.720259 78.085411 
L 424.989499 82.116712 
L 427.527978 88.563996 
L 428.797217 84.934776 
L 429.431837 78.389594 
L 430.066457 78.805661 
L 431.335696 85.30539 
L 431.970316 91.80512 
L 432.604936 91.312133 
L 433.874175 84.773944 
L 435.143415 81.90693 
L 436.412654 85.169032 
L 437.047274 91.661769 
L 437.681894 91.61282 
L 438.951134 85.078127 
L 440.220373 82.221602 
L 441.489613 78.812653 
L 442.758852 82.018814 
L 444.028092 78.260229 
L 444.662711 77.924579 
L 445.297331 78.379105 
L 446.566571 84.875338 
L 447.83581 88.088491 
L 449.10505 84.273965 
L 450.374289 81.501353 
L 451.643529 77.753257 
L 452.912768 80.976899 
L 454.182008 77.592425 
L 454.816627 78.466514 
L 455.451247 78.93153 
L 456.720487 85.899771 
L 457.989726 95.668595 
L 459.258966 98.909719 
L 460.528205 95.144142 
L 461.797445 92.291113 
L 463.066684 96.172071 
L 465.605163 102.63334 
L 466.874403 99.248866 
L 468.143642 102.469011 
L 469.412882 101.371155 
L 470.682121 101.8082 
L 471.316741 102.245245 
L 471.951361 102.878085 
L 472.585981 99.829261 
L 473.220601 100.245328 
L 474.48984 99.745349 
L 475.75908 103.09486 
L 477.028319 92.336566 
L 478.297559 89.249282 
L 479.566798 78.109886 
L 482.105277 70.865432 
L 483.374517 68.040375 
L 484.643756 71.022768 
L 485.912996 67.250198 
L 487.182235 70.498314 
L 488.451475 67.687242 
L 490.989954 74.127534 
L 492.259193 84.340395 
L 493.528433 88.543018 
L 494.797672 85.637544 
L 497.336151 78.151842 
L 497.970771 77.795213 
L 498.605391 78.24974 
L 499.87463 78.627347 
L 501.14387 75.449157 
L 502.413109 71.676587 
L 503.047729 71.22206 
L 503.682349 77.994506 
L 504.951588 78.389594 
L 506.220828 75.256857 
L 507.490067 71.484287 
L 512.567026 84.679542 
L 513.836265 88.1759 
L 515.105505 85.340354 
L 515.740124 78.781186 
L 516.374744 78.560916 
L 517.643984 78.711259 
L 518.913223 74.956171 
L 520.182463 71.592674 
L 521.451702 74.221935 
L 522.720942 77.994506 
L 523.990181 81.2636 
L 525.259421 78.445536 
L 526.52866 82.064266 
L 527.7979 85.284412 
L 529.067139 95.476296 
L 530.336379 98.717419 
L 531.605618 95.87488 
L 532.874858 92.105806 
L 534.144097 88.724828 
L 535.413337 91.937981 
L 536.682576 89.126909 
L 537.951816 92.214194 
L 539.221055 95.934318 
L 540.490295 99.12999 
L 541.124915 99.315297 
L 541.759534 92.266639 
L 543.028774 84.952258 
L 544.298013 74.592549 
L 545.567253 70.879417 
L 546.836493 74.917711 
L 550.644211 84.462768 
L 553.18269 92.640749 
L 554.45193 89.144391 
L 556.990409 95.476296 
L 558.259648 99.336275 
L 559.528888 102.55642 
L 560.798127 98.804828 
L 563.336606 78.602872 
L 564.605846 75.508595 
L 567.144325 81.774069 
L 568.413564 85.22847 
L 569.048184 92.497399 
L 569.682804 92.074339 
L 570.952043 91.626805 
L 572.221283 88.015068 
L 574.759762 82.242581 
L 576.029001 78.414069 
L 577.298241 81.973361 
L 578.56748 85.197003 
L 579.83672 96.214027 
L 581.10596 99.088033 
L 584.913678 89.434589 
L 587.452157 81.179688 
L 588.721397 77.578439 
L 589.990636 81.760083 
L 592.529115 88.011571 
L 593.798355 84.207534 
L 596.336834 78.567908 
L 598.875313 71.099688 
L 600.144552 74.316337 
L 602.683031 82.246077 
L 603.952271 78.833632 
L 605.22151 82.071259 
L 606.49075 78.599376 
L 607.759989 81.476878 
L 609.029229 78.144849 
L 610.298468 81.396462 
L 611.567708 78.525952 
L 612.836947 81.309053 
L 614.106187 84.539688 
L 616.644666 106.252071 
L 617.913906 110.38127 
L 619.183145 113.262268 
L 621.721624 119.734027 
L 622.990864 116.898481 
L 624.260103 113.115421 
L 626.798582 119.503267 
L 628.067822 116.765619 
L 630.606301 95.902851 
L 631.87554 92.042872 
L 633.14478 88.58847 
L 634.414019 91.756171 
L 635.683259 81.025848 
L 636.952498 77.277752 
L 637.587118 70.774527 
L 638.221738 78.165827 
L 639.490977 85.599084 
L 640.760217 96.385349 
L 643.298696 102.822144 
L 647.106414 70.812986 
L 647.741034 70.326993 
L 648.375654 78.032966 
L 649.644893 85.452237 
L 652.183373 91.88204 
L 653.452612 88.399667 
L 654.721852 85.494194 
L 657.260331 77.546972 
L 658.52957 80.725161 
L 659.79881 77.928075 
L 661.068049 82.036296 
L 662.337289 78.375609 
L 664.875768 84.794922 
L 666.145007 95.829428 
L 668.683486 102.283704 
L 669.952726 98.52512 
L 671.221965 95.686077 
L 672.491205 91.94847 
L 673.760444 81.319542 
L 675.029684 77.546972 
L 675.664304 70.96333 
L 676.298923 78.235754 
L 677.568163 77.823184 
L 678.837402 81.578273 
L 680.106642 78.050447 
L 681.375881 82.17615 
L 682.645121 84.899813 
L 683.279741 91.214235 
L 683.91436 90.822643 
L 685.1836 84.473257 
L 686.452839 81.655193 
L 687.722079 85.710968 
L 688.991319 88.745806 
L 691.529798 81.662185 
L 692.799037 85.812362 
L 694.068277 88.864683 
L 695.337516 84.801915 
L 695.972136 77.291738 
L 696.606756 77.697315 
L 697.875995 85.158543 
L 700.414474 91.584849 
L 701.683714 88.001082 
L 704.222193 96.18256 
L 705.491432 99.217399 
L 706.760672 95.563704 
L 708.029911 84.962747 
L 708.664531 78.396587 
L 709.299151 78.714755 
L 710.56839 78.407076 
L 711.83763 81.637711 
L 713.106869 78.029469 
L 714.376109 81.997836 
L 715.645348 78.218273 
L 718.183827 84.917294 
L 718.818447 92.347055 
L 719.453067 92.469428 
L 720.722306 85.672508 
L 721.991546 81.90693 
L 723.260786 85.032674 
L 725.799265 77.76025 
L 727.068504 73.991176 
L 728.337744 84.155088 
L 729.606983 95.392383 
L 730.876223 99.535567 
L 732.145462 102.773195 
L 734.683941 95.147638 
L 735.953181 92.312092 
L 737.22242 88.570989 
L 738.49166 91.80512 
L 739.760899 88.043039 
L 742.299378 82.109719 
L 743.568618 85.329865 
L 744.837857 95.567201 
L 747.376336 102.238252 
L 748.645576 98.455193 
L 749.914815 101.713798 
L 751.184055 105.881457 
L 752.453294 117.048824 
L 756.261013 127.212737 
L 757.530252 138.135359 
L 758.799492 141.03384 
L 761.337971 147.453153 
L 762.607211 151.589344 
L 763.87645 155.284995 
L 766.414929 161.805702 
L 767.684169 165.585265 
L 768.953408 161.816191 
L 770.222648 164.938439 
L 771.491887 161.106431 
L 774.030366 169.42077 
L 775.299606 179.640624 
L 777.838085 186.108887 
L 779.107324 183.23488 
L 780.376564 187.091363 
L 782.915043 193.549136 
L 784.184282 190.063267 
L 785.453522 176.612778 
L 786.722761 176.168741 
L 787.992001 179.434339 
L 788.626621 186.276712 
L 789.26124 186.6718 
L 790.53048 179.885369 
L 791.799719 166.09923 
L 792.434339 162.571405 
L 793.068959 162.693777 
L 794.338198 169.662019 
L 795.607438 180.346889 
L 796.876678 183.143975 
L 798.145917 186.360624 
L 799.415157 182.59155 
L 800.684396 179.752508 
L 804.492115 147.435671 
L 805.761354 144.586139 
L 806.395974 145.002206 
L 807.030594 144.523205 
L 808.299833 144.033715 
L 809.569073 147.260853 
L 810.838312 151.41103 
L 812.107552 148.092986 
L 814.646031 113.223809 
L 815.91527 88.955588 
L 817.18451 77.571446 
L 818.453749 67.425016 
L 819.722989 70.648658 
L 820.992228 74.781353 
L 822.261468 78.340645 
L 823.530707 81.536316 
L 824.799947 77.812695 
L 826.069186 81.015359 
L 827.338426 78.239251 
L 828.607665 81.406951 
L 829.876905 77.651863 
L 831.146145 81.092279 
L 832.415384 78.295193 
L 833.684624 81.487367 
L 834.953863 77.473548 
L 836.223103 80.648241 
L 837.492342 77.809199 
L 838.761582 81.969865 
L 842.5693 70.62768 
L 843.83854 74.788345 
L 845.107779 78.01898 
L 847.646258 70.519292 
L 848.915498 67.708221 
L 850.184737 70.942352 
L 851.453977 67.201249 
L 852.723216 70.386431 
L 853.992456 67.52641 
L 855.261695 70.722081 
L 856.530935 67.470468 
L 857.800174 70.69411 
L 859.069414 67.869053 
L 860.338653 71.522747 
L 861.607893 67.746681 
L 862.877132 70.994797 
L 864.146372 67.313132 
L 865.415611 71.463309 
L 866.684851 67.659272 
L 867.954091 70.788512 
L 869.22333 67.225723 
L 870.49257 71.3759 
L 871.761809 67.624308 
L 873.031049 70.62768 
L 874.300288 67.148803 
L 875.569528 71.274506 
L 876.838767 67.778148 
L 878.108007 70.736067 
L 879.377246 66.96 
L 880.646486 70.865432 
L 881.915725 67.97744 
L 883.184965 71.208075 
L 884.454204 67.414527 
L 885.723444 70.645161 
L 886.992683 67.799126 
L 888.261923 71.036753 
L 889.531162 67.271176 
L 890.800402 70.529781 
L 892.069641 74.651988 
L 893.338881 77.886119 
L 894.60812 81.53282 
L 895.87736 77.858148 
L 897.146599 82.064266 
L 898.415839 77.910593 
L 899.685078 81.106264 
L 900.954318 77.33719 
L 902.223558 81.4559 
L 903.492797 77.711301 
L 904.762037 80.917461 
L 906.031276 77.15538 
L 907.300516 74.403746 
L 908.569755 70.638169 
L 909.838995 73.858314 
L 911.108234 83.983767 
L 912.377474 95.151134 
L 913.646713 99.308304 
L 914.915953 95.528741 
L 916.185192 84.801915 
L 917.454432 81.067804 
L 918.723671 85.200499 
L 919.992911 96.070676 
L 922.53139 88.58847 
L 923.800629 78.043455 
L 924.435249 78.379105 
L 925.069869 78.109886 
L 925.704489 81.109761 
L 926.339108 87.612986 
L 927.608348 88.130447 
L 930.146827 82.225099 
L 931.416066 78.560916 
L 932.685306 82.228595 
L 933.954545 78.501478 
L 933.954545 78.501478 
" clip-path="url(#pb5bae6668b)" style="fill: none; stroke: #1f77b4; stroke-width: 1.5; stroke-linecap: square"/>
   </g>
   <g id="patch_7">
    <path d="M 135 384.48 
L 135 51.84 
" style="fill: none; stroke: #000000; stroke-width: 0.8; stroke-linejoin: miter; stroke-linecap: square"/>
   </g>
   <g id="patch_8">
    <path d="M 972 384.48 
L 972 51.84 
" style="fill: none; stroke: #000000; stroke-width: 0.8; stroke-linejoin: miter; stroke-linecap: square"/>
   </g>
   <g id="patch_9">
    <path d="M 135 384.48 
L 972 384.48 
" style="fill: none; stroke: #000000; stroke-width: 0.8; stroke-linejoin: miter; stroke-linecap: square"/>
   </g>
   <g id="patch_10">
    <path d="M 135 51.84 
L 972 51.84 
" style="fill: none; stroke: #000000; stroke-width: 0.8; stroke-linejoin: miter; stroke-linecap: square"/>
   </g>
   <g id="text_22">
    <!-- ./tcp/tp1_wave -->
    <g transform="translate(511.5 45.84) scale(0.12 -0.12)">
     <defs>
      <path id="Times New Roman-2e" d="M 800 25
Q 650 25 537 125 
Q 425 225 425 400 
Q 425 575 537 675 
Q 650 775 800 775 
Q 950 775 1062 662 
Q 1175 550 1175 400 
Q 1175 225 1062 125 
Q 950 25 800 25 
z
" transform="scale(0.015625)"/>
      <path id="Times New Roman-2f" d="M 400 -475
L 225 -375 
L 2775 4975 
L 2950 4875 
L 400 -475 
z
" transform="scale(0.015625)"/>
      <path id="Times New Roman-63" d="M 2150 2225
Q 2150 2300 2175 2325 
Q 2175 2350 2200 2425 
Q 2225 2525 2100 2662 
Q 1975 2800 1675 2800 
Q 1300 2800 1037 2437 
Q 775 2075 775 1475 
Q 775 925 1000 587 
Q 1225 250 1750 250 
Q 2100 250 2337 475 
Q 2575 700 2675 1000 
L 2800 950 
Q 2700 575 2425 312 
Q 2150 50 1675 50 
Q 1075 50 725 425 
Q 375 800 375 1500 
Q 375 2125 750 2537 
Q 1125 2950 1725 2950 
Q 2150 2950 2387 2725 
Q 2625 2500 2625 2275 
Q 2625 2125 2562 2062 
Q 2500 2000 2375 2000 
Q 2275 2000 2212 2062 
Q 2150 2125 2150 2225 
z
" transform="scale(0.015625)"/>
      <path id="Times New Roman-5f" d="M 0 -875
L 0 -725 
L 3175 -725 
L 3175 -875 
L 0 -875 
z
" transform="scale(0.015625)"/>
      <path id="Times New Roman-77" d="M 2325 2900
L 3175 2900 
L 3175 2750 
L 3075 2750 
Q 2975 2750 2900 2675 
Q 2825 2600 2775 2425 
L 2175 75 
L 2025 75 
L 1575 1975 
L 1100 75 
L 950 75 
L 375 2375 
Q 350 2550 275 2650 
Q 200 2750 125 2750 
L 25 2750 
L 25 2900 
L 925 2900 
L 925 2750 
L 825 2750 
Q 725 2750 700 2662 
Q 675 2575 700 2425 
L 1075 800 
L 1125 800 
L 1500 2300 
Q 1475 2525 1400 2637 
Q 1325 2750 1225 2750 
L 1150 2750 
L 1150 2900 
L 2000 2900 
L 2000 2750 
L 1925 2750 
Q 1825 2750 1800 2662 
Q 1775 2575 1800 2425 
L 2175 800 
L 2200 800 
L 2625 2550 
Q 2650 2650 2600 2700 
Q 2550 2750 2450 2750 
L 2325 2750 
L 2325 2900 
z
M 1725 2750 
L 1725 2750 
z
M 625 2750 
L 625 2750 
z
M 275 2750 
L 275 2750 
z
M 2875 2750 
L 2875 2750 
z
M 2675 2750 
L 2675 2750 
z
" transform="scale(0.015625)"/>
      <path id="Times New Roman-76" d="M 1625 75
L 1475 75 
L 625 2525 
Q 600 2625 525 2687 
Q 450 2750 350 2750 
L 225 2750 
L 225 2900 
L 1300 2900 
L 1300 2750 
L 1200 2750 
Q 1050 2750 1025 2700 
Q 1000 2650 1000 2600 
Q 1000 2500 1025 2425 
L 1625 675 
L 1675 675 
L 2275 2400 
Q 2325 2525 2325 2575 
Q 2325 2600 2275 2675 
Q 2225 2750 2075 2750 
L 2025 2750 
L 2025 2900 
L 2925 2900 
L 2925 2750 
L 2875 2750 
Q 2725 2750 2637 2662 
Q 2550 2575 2475 2400 
L 1625 75 
z
M 2600 2750 
L 2600 2750 
z
M 2400 2750 
L 2400 2750 
z
M 925 2750 
L 925 2750 
z
M 550 2750 
L 550 2750 
z
" transform="scale(0.015625)"/>
     </defs>
     <use xlink:href="#Times New Roman-2e"/>
     <use xlink:href="#Times New Roman-2f" x="50"/>
     <use xlink:href="#Times New Roman-74" x="100"/>
     <use xlink:href="#Times New Roman-63" x="150"/>
     <use xlink:href="#Times New Roman-70" x="200"/>
     <use xlink:href="#Times New Roman-2f" x="250"/>
     <use xlink:href="#Times New Roman-74" x="300"/>
     <use xlink:href="#Times New Roman-70" x="350"/>
     <use xlink:href="#Times New Roman-31" x="400"/>
     <use xlink:href="#Times New Roman-5f" x="450"/>
     <use xlink:href="#Times New Roman-77" x="500"/>
     <use xlink:href="#Times New Roman-61" x="550"/>
     <use xlink:href="#Times New Roman-76" x="600"/>
     <use xlink:href="#Times New Roman-65" x="650"/>
    </g>
   </g>
   <g id="legend_1">
    <g id="patch_11">
     <path d="M 903 379.48 
L 965 379.48 
Q 967 379.48 967 377.48 
L 967 365.0425 
Q 967 363.0425 965 363.0425 
L 903 363.0425 
Q 901 363.0425 901 365.0425 
L 901 377.48 
Q 901 379.48 903 379.48 
z
" style="fill: #ffffff; opacity: 0.8; stroke: #cccccc; stroke-linejoin: miter"/>
    </g>
    <g id="line2d_29">
     <path d="M 905 370.690938 
L 915 370.690938 
L 925 370.690938 
" style="fill: none; stroke: #1f77b4; stroke-width: 1.5; stroke-linecap: square"/>
    </g>
    <g id="text_23">
     <!-- buffer -->
     <g transform="translate(933 374.190938) scale(0.1 -0.1)">
      <use xlink:href="#Times New Roman-62"/>
      <use xlink:href="#Times New Roman-75" x="50"/>
      <use xlink:href="#Times New Roman-66" x="100"/>
      <use xlink:href="#Times New Roman-66" x="150"/>
      <use xlink:href="#Times New Roman-65" x="200"/>
      <use xlink:href="#Times New Roman-72" x="250"/>
     </g>
    </g>
   </g>
  </g>
 </g>
 <defs>
  <clipPath id="pb5bae6668b">
   <rect x="135" y="51.84" width="837" height="332.64"/>
  </clipPath>
 </defs>
</svg>
