<?xml version="1.0" encoding="utf-8" standalone="no"?>
<!DOCTYPE svg PUBLIC "-//W3C//DTD SVG 1.1//EN"
  "http://www.w3.org/Graphics/SVG/1.1/DTD/svg11.dtd">
<svg xmlns:xlink="http://www.w3.org/1999/xlink" width="1080pt" height="432pt" viewBox="0 0 1080 432" xmlns="http://www.w3.org/2000/svg" version="1.1">
 <metadata>
  <rdf:RDF xmlns:dc="http://purl.org/dc/elements/1.1/" xmlns:cc="http://creativecommons.org/ns#" xmlns:rdf="http://www.w3.org/1999/02/22-rdf-syntax-ns#">
   <cc:Work>
    <dc:type rdf:resource="http://purl.org/dc/dcmitype/StillImage"/>
    <dc:date>2024-04-12T06:12:35.909066</dc:date>
    <dc:format>image/svg+xml</dc:format>
    <dc:creator>
     <cc:Agent>
      <dc:title>Matplotlib v3.8.3, https://matplotlib.org/</dc:title>
     </cc:Agent>
    </dc:creator>
   </cc:Work>
  </rdf:RDF>
 </metadata>
 <defs>
  <style type="text/css">*{stroke-linejoin: round; stroke-linecap: butt}</style>
 </defs>
 <g id="figure_1">
  <g id="patch_1">
   <path d="M 0 432 
L 1080 432 
L 1080 0 
L 0 0 
z
" style="fill: #ffffff"/>
  </g>
  <g id="axes_1">
   <g id="patch_2">
    <path d="M 135 384.48 
L 972 384.48 
L 972 51.84 
L 135 51.84 
z
" style="fill: #ffffff"/>
   </g>
   <g id="matplotlib.axis_1">
    <g id="xtick_1">
     <g id="line2d_1">
      <defs>
       <path id="mab12642c92" d="M 0 0 
L 0 3.5 
" style="stroke: #000000; stroke-width: 0.8"/>
      </defs>
      <g>
       <use xlink:href="#mab12642c92" x="173.045455" y="384.48" style="stroke: #000000; stroke-width: 0.8"/>
      </g>
     </g>
     <g id="text_1">
      <!-- 0 -->
      <g transform="translate(170.545455 398.628438) scale(0.1 -0.1)">
       <defs>
        <path id="Times New Roman-30" d="M 1600 4225
Q 1250 4225 1012 3687 
Q 775 3150 775 2250 
Q 775 1300 1012 775 
Q 1250 250 1600 250 
Q 1975 250 2187 775 
Q 2400 1300 2400 2250 
Q 2400 3150 2200 3687 
Q 2000 4225 1600 4225 
z
M 1600 50 
Q 1050 50 675 625 
Q 300 1200 300 2250 
Q 300 3225 662 3825 
Q 1025 4425 1600 4425 
Q 2150 4425 2512 3850 
Q 2875 3275 2875 2250 
Q 2875 1225 2512 637 
Q 2150 50 1600 50 
z
" transform="scale(0.015625)"/>
       </defs>
       <use xlink:href="#Times New Roman-30"/>
      </g>
     </g>
    </g>
    <g id="xtick_2">
     <g id="line2d_2">
      <g>
       <use xlink:href="#mab12642c92" x="299.863636" y="384.48" style="stroke: #000000; stroke-width: 0.8"/>
      </g>
     </g>
     <g id="text_2">
      <!-- 100 -->
      <g transform="translate(292.363636 398.628438) scale(0.1 -0.1)">
       <defs>
        <path id="Times New Roman-31" d="M 1825 4450
L 1825 650 
Q 1825 450 1950 350 
Q 2075 250 2300 250 
L 2550 250 
L 2550 100 
L 725 100 
L 725 250 
L 950 250 
Q 1200 250 1312 350 
Q 1425 450 1425 650 
L 1425 3675 
Q 1425 3775 1362 3837 
Q 1300 3900 1175 3900 
L 725 3900 
L 725 4050 
L 950 4050 
Q 1250 4050 1437 4150 
Q 1625 4250 1725 4450 
L 1825 4450 
z
" transform="scale(0.015625)"/>
       </defs>
       <use xlink:href="#Times New Roman-31"/>
       <use xlink:href="#Times New Roman-30" x="50"/>
       <use xlink:href="#Times New Roman-30" x="100"/>
      </g>
     </g>
    </g>
    <g id="xtick_3">
     <g id="line2d_3">
      <g>
       <use xlink:href="#mab12642c92" x="426.681818" y="384.48" style="stroke: #000000; stroke-width: 0.8"/>
      </g>
     </g>
     <g id="text_3">
      <!-- 200 -->
      <g transform="translate(419.181818 398.628438) scale(0.1 -0.1)">
       <defs>
        <path id="Times New Roman-32" d="M 2325 3325
Q 2325 3775 2125 4012 
Q 1925 4250 1525 4250 
Q 1225 4250 1012 4087 
Q 800 3925 800 3675 
Q 800 3525 900 3425 
Q 975 3325 975 3225 
Q 975 3100 912 3037 
Q 850 2975 725 2975 
Q 575 2975 487 3062 
Q 400 3150 400 3350 
Q 400 3875 775 4150 
Q 1150 4425 1575 4425 
Q 2175 4425 2462 4125 
Q 2750 3825 2750 3375 
Q 2750 3075 2612 2775 
Q 2475 2475 2175 2200 
Q 1450 1500 1062 1062 
Q 675 625 600 475 
L 2075 475 
Q 2300 475 2450 650 
Q 2600 825 2650 1175 
L 2800 1175 
L 2650 100 
L 325 100 
L 325 425 
Q 450 650 737 1000 
Q 1025 1350 1500 1825 
Q 1925 2250 2125 2625 
Q 2325 3000 2325 3325 
z
" transform="scale(0.015625)"/>
       </defs>
       <use xlink:href="#Times New Roman-32"/>
       <use xlink:href="#Times New Roman-30" x="50"/>
       <use xlink:href="#Times New Roman-30" x="100"/>
      </g>
     </g>
    </g>
    <g id="xtick_4">
     <g id="line2d_4">
      <g>
       <use xlink:href="#mab12642c92" x="553.5" y="384.48" style="stroke: #000000; stroke-width: 0.8"/>
      </g>
     </g>
     <g id="text_4">
      <!-- 300 -->
      <g transform="translate(546 398.628438) scale(0.1 -0.1)">
       <defs>
        <path id="Times New Roman-33" d="M 2800 1250
Q 2800 775 2450 412 
Q 2100 50 1475 50 
Q 1025 50 700 300 
Q 375 550 375 875 
Q 375 1025 475 1137 
Q 575 1250 675 1250 
Q 825 1250 887 1137 
Q 950 1025 950 950 
Q 950 825 900 750 
Q 850 650 850 575 
Q 850 425 1037 325 
Q 1225 225 1450 225 
Q 1900 225 2125 487 
Q 2350 750 2350 1300 
Q 2350 1750 2112 2025 
Q 1875 2300 1225 2300 
L 1225 2475 
Q 1725 2475 1962 2712 
Q 2200 2950 2200 3375 
Q 2200 3725 2012 3987 
Q 1825 4250 1425 4250 
Q 1250 4250 1050 4162 
Q 850 4075 850 3875 
Q 850 3675 900 3625 
Q 950 3575 950 3500 
Q 950 3375 900 3300 
Q 850 3225 725 3225 
Q 625 3225 537 3300 
Q 450 3375 450 3575 
Q 450 3950 775 4187 
Q 1100 4425 1525 4425 
Q 2025 4425 2325 4112 
Q 2625 3800 2625 3450 
Q 2625 3075 2437 2812 
Q 2250 2550 1850 2425 
Q 2400 2225 2600 1900 
Q 2800 1575 2800 1250 
z
" transform="scale(0.015625)"/>
       </defs>
       <use xlink:href="#Times New Roman-33"/>
       <use xlink:href="#Times New Roman-30" x="50"/>
       <use xlink:href="#Times New Roman-30" x="100"/>
      </g>
     </g>
    </g>
    <g id="xtick_5">
     <g id="line2d_5">
      <g>
       <use xlink:href="#mab12642c92" x="680.318182" y="384.48" style="stroke: #000000; stroke-width: 0.8"/>
      </g>
     </g>
     <g id="text_5">
      <!-- 400 -->
      <g transform="translate(672.818182 398.628438) scale(0.1 -0.1)">
       <defs>
        <path id="Times New Roman-34" d="M 2300 575
Q 2300 400 2400 325 
Q 2500 250 2675 250 
L 2900 250 
L 2900 100 
L 1250 100 
L 1250 250 
L 1525 250 
Q 1725 250 1812 325 
Q 1900 400 1900 575 
L 1900 1400 
L 225 1400 
L 225 1525 
L 2050 4425 
L 2300 4425 
L 2300 1550 
L 2975 1550 
L 2975 1400 
L 2300 1400 
L 2300 575 
z
M 1875 3800 
L 450 1550 
L 1900 1550 
L 1900 3800 
L 1875 3800 
z
" transform="scale(0.015625)"/>
       </defs>
       <use xlink:href="#Times New Roman-34"/>
       <use xlink:href="#Times New Roman-30" x="50"/>
       <use xlink:href="#Times New Roman-30" x="100"/>
      </g>
     </g>
    </g>
    <g id="xtick_6">
     <g id="line2d_6">
      <g>
       <use xlink:href="#mab12642c92" x="807.136364" y="384.48" style="stroke: #000000; stroke-width: 0.8"/>
      </g>
     </g>
     <g id="text_6">
      <!-- 500 -->
      <g transform="translate(799.636364 398.628438) scale(0.1 -0.1)">
       <defs>
        <path id="Times New Roman-35" d="M 1725 2850
Q 2200 2850 2500 2487 
Q 2800 2125 2800 1525 
Q 2800 850 2487 450 
Q 2175 50 1525 50 
Q 1075 50 725 312 
Q 375 575 375 950 
Q 375 1100 462 1212 
Q 550 1325 700 1325 
Q 850 1325 900 1225 
Q 950 1125 950 1050 
Q 950 900 875 825 
Q 800 725 800 625 
Q 800 425 1037 325 
Q 1275 225 1550 225 
Q 1950 225 2162 550 
Q 2375 875 2375 1475 
Q 2375 1975 2187 2287 
Q 2000 2600 1625 2600 
Q 1350 2600 1150 2500 
Q 950 2400 775 2075 
L 550 2100 
L 675 4375 
L 2725 4375 
L 2650 4000 
L 850 4000 
L 750 2350 
Q 1000 2700 1237 2775 
Q 1475 2850 1725 2850 
z
" transform="scale(0.015625)"/>
       </defs>
       <use xlink:href="#Times New Roman-35"/>
       <use xlink:href="#Times New Roman-30" x="50"/>
       <use xlink:href="#Times New Roman-30" x="100"/>
      </g>
     </g>
    </g>
    <g id="xtick_7">
     <g id="line2d_7">
      <g>
       <use xlink:href="#mab12642c92" x="933.954545" y="384.48" style="stroke: #000000; stroke-width: 0.8"/>
      </g>
     </g>
     <g id="text_7">
      <!-- 600 -->
      <g transform="translate(926.454545 398.628438) scale(0.1 -0.1)">
       <defs>
        <path id="Times New Roman-36" d="M 775 1800
Q 775 1050 1037 637 
Q 1300 225 1675 225 
Q 2050 225 2250 500 
Q 2450 775 2450 1525 
Q 2450 2025 2237 2300 
Q 2025 2575 1725 2575 
Q 1450 2575 1212 2412 
Q 975 2250 775 1800 
z
M 1750 2825 
Q 2350 2825 2612 2425 
Q 2875 2025 2875 1525 
Q 2875 775 2512 412 
Q 2150 50 1675 50 
Q 1000 50 650 562 
Q 300 1075 300 2050 
Q 300 3200 725 3812 
Q 1150 4425 1875 4425 
Q 2225 4425 2437 4225 
Q 2650 4025 2650 3875 
Q 2650 3725 2587 3650 
Q 2525 3575 2375 3575 
Q 2250 3575 2187 3637 
Q 2125 3700 2125 3825 
Q 2125 3875 2150 3925 
Q 2150 3975 2150 4025 
Q 2150 4125 2075 4187 
Q 2000 4250 1800 4250 
Q 1375 4250 1075 3862 
Q 775 3475 775 2175 
Q 925 2500 1187 2662 
Q 1450 2825 1750 2825 
z
" transform="scale(0.015625)"/>
       </defs>
       <use xlink:href="#Times New Roman-36"/>
       <use xlink:href="#Times New Roman-30" x="50"/>
       <use xlink:href="#Times New Roman-30" x="100"/>
      </g>
     </g>
    </g>
   </g>
   <g id="matplotlib.axis_2">
    <g id="ytick_1">
     <g id="line2d_8">
      <defs>
       <path id="m4b5d517ef2" d="M 0 0 
L -3.5 0 
" style="stroke: #000000; stroke-width: 0.8"/>
      </defs>
      <g>
       <use xlink:href="#m4b5d517ef2" x="135" y="378.370347" style="stroke: #000000; stroke-width: 0.8"/>
      </g>
     </g>
     <g id="text_8">
      <!-- 0 -->
      <g transform="translate(123 381.944566) scale(0.1 -0.1)">
       <use xlink:href="#Times New Roman-30"/>
      </g>
     </g>
    </g>
    <g id="ytick_2">
     <g id="line2d_9">
      <g>
       <use xlink:href="#m4b5d517ef2" x="135" y="314.9172" style="stroke: #000000; stroke-width: 0.8"/>
      </g>
     </g>
     <g id="text_9">
      <!-- 1000 -->
      <g transform="translate(108 318.491419) scale(0.1 -0.1)">
       <use xlink:href="#Times New Roman-31"/>
       <use xlink:href="#Times New Roman-30" x="50"/>
       <use xlink:href="#Times New Roman-30" x="100"/>
       <use xlink:href="#Times New Roman-30" x="150"/>
      </g>
     </g>
    </g>
    <g id="ytick_3">
     <g id="line2d_10">
      <g>
       <use xlink:href="#m4b5d517ef2" x="135" y="251.464053" style="stroke: #000000; stroke-width: 0.8"/>
      </g>
     </g>
     <g id="text_10">
      <!-- 2000 -->
      <g transform="translate(108 255.038271) scale(0.1 -0.1)">
       <use xlink:href="#Times New Roman-32"/>
       <use xlink:href="#Times New Roman-30" x="50"/>
       <use xlink:href="#Times New Roman-30" x="100"/>
       <use xlink:href="#Times New Roman-30" x="150"/>
      </g>
     </g>
    </g>
    <g id="ytick_4">
     <g id="line2d_11">
      <g>
       <use xlink:href="#m4b5d517ef2" x="135" y="188.010906" style="stroke: #000000; stroke-width: 0.8"/>
      </g>
     </g>
     <g id="text_11">
      <!-- 3000 -->
      <g transform="translate(108 191.585124) scale(0.1 -0.1)">
       <use xlink:href="#Times New Roman-33"/>
       <use xlink:href="#Times New Roman-30" x="50"/>
       <use xlink:href="#Times New Roman-30" x="100"/>
       <use xlink:href="#Times New Roman-30" x="150"/>
      </g>
     </g>
    </g>
    <g id="ytick_5">
     <g id="line2d_12">
      <g>
       <use xlink:href="#m4b5d517ef2" x="135" y="124.557758" style="stroke: #000000; stroke-width: 0.8"/>
      </g>
     </g>
     <g id="text_12">
      <!-- 4000 -->
      <g transform="translate(108 128.131977) scale(0.1 -0.1)">
       <use xlink:href="#Times New Roman-34"/>
       <use xlink:href="#Times New Roman-30" x="50"/>
       <use xlink:href="#Times New Roman-30" x="100"/>
       <use xlink:href="#Times New Roman-30" x="150"/>
      </g>
     </g>
    </g>
    <g id="ytick_6">
     <g id="line2d_13">
      <g>
       <use xlink:href="#m4b5d517ef2" x="135" y="61.104611" style="stroke: #000000; stroke-width: 0.8"/>
      </g>
     </g>
     <g id="text_13">
      <!-- 5000 -->
      <g transform="translate(108 64.67883) scale(0.1 -0.1)">
       <use xlink:href="#Times New Roman-35"/>
       <use xlink:href="#Times New Roman-30" x="50"/>
       <use xlink:href="#Times New Roman-30" x="100"/>
       <use xlink:href="#Times New Roman-30" x="150"/>
      </g>
     </g>
    </g>
    <g id="text_14">
     <!-- Bitrate (kbps) -->
     <g transform="translate(102.710938 253.16) rotate(-90) scale(0.1 -0.1)">
      <defs>
       <path id="Times New Roman-42" d="M 100 100
L 100 250 
L 300 250 
Q 425 250 475 300 
Q 525 350 525 450 
L 525 4025 
Q 525 4125 475 4175 
Q 425 4225 300 4225 
L 150 4225 
L 150 4375 
L 1600 4375 
Q 2200 4375 2487 4137 
Q 2775 3900 2775 3400 
Q 2775 3050 2625 2825 
Q 2475 2600 2000 2425 
Q 2575 2250 2775 1925 
Q 2975 1600 2975 1200 
Q 2975 700 2625 400 
Q 2275 100 1675 100 
L 100 100 
z
M 1600 250 
Q 2025 250 2262 512 
Q 2500 775 2500 1250 
Q 2500 1800 2250 2062 
Q 2000 2325 1500 2325 
L 925 2325 
L 925 450 
Q 925 350 987 300 
Q 1050 250 1150 250 
L 1600 250 
z
M 2350 3400 
Q 2350 3850 2100 4037 
Q 1850 4225 1450 4225 
L 1150 4225 
Q 1050 4225 987 4175 
Q 925 4125 925 4025 
L 925 2475 
L 1575 2475 
Q 1850 2475 2100 2700 
Q 2350 2925 2350 3400 
z
" transform="scale(0.015625)"/>
       <path id="Times New Roman-69" d="M 1425 2525
Q 1425 2625 1375 2687 
Q 1325 2750 1200 2750 
L 675 2750 
L 675 2900 
L 925 2900 
Q 1150 2900 1350 2937 
Q 1550 2975 1725 3075 
L 1775 3075 
L 1775 450 
Q 1775 350 1837 300 
Q 1900 250 2000 250 
L 2525 250 
L 2525 100 
L 675 100 
L 675 250 
L 1200 250 
Q 1325 250 1375 300 
Q 1425 350 1425 450 
L 1425 2525 
z
M 1725 3025 
L 1725 3025 
z
M 1625 4425 
Q 1750 4425 1850 4337 
Q 1950 4250 1950 4125 
Q 1950 4000 1850 3900 
Q 1750 3800 1625 3800 
Q 1500 3800 1400 3900 
Q 1300 4000 1300 4125 
Q 1300 4250 1400 4337 
Q 1500 4425 1625 4425 
z
" transform="scale(0.015625)"/>
       <path id="Times New Roman-74" d="M 1500 900
Q 1500 550 1625 425 
Q 1750 300 2000 300 
Q 2250 300 2400 462 
Q 2550 625 2600 925 
L 2725 875 
Q 2675 525 2462 300 
Q 2250 75 1900 75 
Q 1525 75 1337 300 
Q 1150 525 1150 1000 
L 1150 2750 
L 400 2750 
L 400 2900 
L 600 2900 
Q 900 2900 1087 3087 
Q 1275 3275 1325 3675 
L 1350 3875 
L 1500 3875 
L 1500 2900 
L 2500 2900 
L 2500 2750 
L 1500 2750 
L 1500 900 
z
" transform="scale(0.015625)"/>
       <path id="Times New Roman-72" d="M 1275 2125
Q 1525 2525 1812 2737 
Q 2100 2950 2400 2950 
Q 2650 2950 2787 2837 
Q 2925 2725 2925 2575 
Q 2925 2450 2862 2375 
Q 2800 2300 2675 2300 
Q 2550 2300 2487 2375 
Q 2425 2450 2450 2575 
Q 2450 2650 2425 2700 
Q 2400 2750 2275 2750 
Q 2075 2750 1787 2500 
Q 1500 2250 1275 1800 
L 1275 450 
Q 1275 350 1337 300 
Q 1400 250 1500 250 
L 2050 250 
L 2050 100 
L 200 100 
L 200 250 
L 700 250 
Q 825 250 875 300 
Q 925 350 925 450 
L 925 2525 
Q 925 2625 875 2687 
Q 825 2750 700 2750 
L 225 2750 
L 225 2900 
L 425 2900 
Q 600 2900 837 2937 
Q 1075 2975 1200 3025 
L 1275 3025 
L 1275 2125 
z
" transform="scale(0.015625)"/>
       <path id="Times New Roman-61" d="M 1225 75
Q 775 75 525 287 
Q 275 500 275 775 
Q 275 1225 662 1512 
Q 1050 1800 2200 1925 
L 2200 2225 
Q 2200 2475 2087 2637 
Q 1975 2800 1575 2800 
Q 1150 2800 975 2662 
Q 800 2525 850 2375 
Q 875 2325 875 2275 
Q 875 2225 837 2150 
Q 800 2075 650 2075 
Q 550 2075 487 2137 
Q 425 2200 425 2325 
Q 425 2550 750 2750 
Q 1075 2950 1550 2950 
Q 2050 2950 2300 2762 
Q 2550 2575 2550 2225 
L 2550 575 
Q 2550 375 2587 337 
Q 2625 300 2725 300 
Q 2850 300 2900 412 
Q 2950 525 2950 725 
L 3075 725 
Q 3075 375 2950 237 
Q 2825 100 2625 100 
Q 2450 100 2350 175 
Q 2250 250 2200 425 
Q 1950 250 1737 162 
Q 1525 75 1225 75 
z
M 700 850 
Q 700 625 837 437 
Q 975 250 1275 250 
Q 1500 250 1725 337 
Q 1950 425 2200 600 
L 2200 1775 
Q 1350 1675 1025 1437 
Q 700 1200 700 850 
z
" transform="scale(0.015625)"/>
       <path id="Times New Roman-65" d="M 2400 1650
Q 2425 2200 2212 2487 
Q 2000 2775 1650 2775 
Q 1275 2775 1037 2475 
Q 800 2175 800 1650 
L 2400 1650 
z
M 800 1500 
Q 800 825 1062 537 
Q 1325 250 1750 250 
Q 2075 250 2300 437 
Q 2525 625 2625 900 
L 2750 850 
Q 2675 575 2412 312 
Q 2150 50 1700 50 
Q 1125 50 762 425 
Q 400 800 400 1500 
Q 400 2125 762 2537 
Q 1125 2950 1650 2950 
Q 2125 2950 2475 2625 
Q 2825 2300 2825 1500 
L 800 1500 
z
" transform="scale(0.015625)"/>
       <path id="Times New Roman-20" d="M 0 0
Q 0 0 0 0 
z
" transform="scale(0.015625)"/>
       <path id="Times New Roman-28" d="M 2900 5025
Q 2325 4425 2037 3737 
Q 1750 3050 1750 2300 
Q 1750 1525 2037 850 
Q 2325 175 2900 -425 
L 2775 -550 
Q 2075 75 1725 787 
Q 1375 1500 1375 2300 
Q 1375 3075 1725 3787 
Q 2075 4500 2775 5150 
L 2900 5025 
z
" transform="scale(0.015625)"/>
       <path id="Times New Roman-6b" d="M 1675 1900
L 2625 425 
Q 2700 325 2762 287 
Q 2825 250 2900 250 
L 3000 250 
L 3000 100 
L 1975 100 
L 1975 250 
L 2050 250 
Q 2175 250 2225 287 
Q 2275 325 2200 425 
L 1425 1650 
L 925 1125 
L 925 450 
Q 925 350 987 300 
Q 1050 250 1150 250 
L 1275 250 
L 1275 100 
L 225 100 
L 225 250 
L 350 250 
Q 475 250 525 300 
Q 575 350 575 450 
L 575 4025 
Q 575 4125 525 4175 
Q 475 4225 350 4225 
L 200 4225 
L 200 4375 
L 425 4375 
Q 575 4375 687 4425 
Q 800 4475 875 4575 
L 925 4575 
L 925 1400 
L 1975 2525 
Q 2025 2625 2012 2687 
Q 2000 2750 1900 2750 
L 1750 2750 
L 1750 2900 
L 2800 2900 
L 2800 2750 
L 2675 2750 
Q 2600 2750 2487 2712 
Q 2375 2675 2275 2575 
L 1675 1900 
z
M 2450 2750 
L 2450 2750 
z
M 2175 2750 
L 2175 2750 
z
M 2300 250 
L 2300 250 
z
M 2750 250 
L 2750 250 
z
" transform="scale(0.015625)"/>
       <path id="Times New Roman-62" d="M 875 2325
Q 1000 2600 1275 2762 
Q 1550 2925 1800 2925 
Q 2325 2925 2587 2562 
Q 2850 2200 2850 1500 
Q 2850 800 2512 437 
Q 2175 75 1675 75 
Q 1425 75 1212 162 
Q 1000 250 850 400 
L 625 100 
L 525 100 
L 525 4025 
Q 525 4125 475 4175 
Q 425 4225 300 4225 
L 150 4225 
L 150 4375 
L 375 4375 
Q 500 4375 625 4425 
Q 750 4475 875 4575 
L 875 2325 
z
M 875 925 
Q 875 650 1062 450 
Q 1250 250 1625 250 
Q 2075 250 2262 562 
Q 2450 875 2450 1500 
Q 2450 2100 2287 2412 
Q 2125 2725 1775 2725 
Q 1475 2725 1250 2550 
Q 1025 2375 875 1925 
L 875 925 
z
" transform="scale(0.015625)"/>
       <path id="Times New Roman-70" d="M 1150 -675
L 1325 -675 
L 1325 -825 
L 175 -825 
L 175 -675 
L 325 -675 
Q 450 -675 500 -625 
Q 550 -575 550 -450 
L 550 2500 
Q 550 2600 500 2662 
Q 450 2725 325 2725 
L 175 2725 
L 175 2875 
L 400 2875 
Q 525 2875 637 2900 
Q 750 2925 850 3000 
L 900 3000 
L 900 2425 
Q 1075 2675 1287 2800 
Q 1500 2925 1750 2925 
Q 2250 2925 2575 2587 
Q 2900 2250 2900 1525 
Q 2900 825 2550 450 
Q 2200 75 1725 75 
Q 1450 75 1262 162 
Q 1075 250 900 425 
L 900 -450 
Q 900 -575 975 -625 
Q 1050 -675 1150 -675 
z
M 900 750 
Q 1025 500 1212 375 
Q 1400 250 1650 250 
Q 2000 250 2250 562 
Q 2500 875 2500 1525 
Q 2500 2125 2312 2425 
Q 2125 2725 1750 2725 
Q 1525 2725 1300 2587 
Q 1075 2450 900 2150 
L 900 750 
z
" transform="scale(0.015625)"/>
       <path id="Times New Roman-73" d="M 625 2175
Q 625 2550 912 2750 
Q 1200 2950 1600 2950 
Q 1825 2950 2025 2900 
Q 2225 2825 2300 2825 
Q 2375 2825 2425 2850 
Q 2475 2875 2550 2950 
L 2650 2125 
L 2500 2100 
Q 2400 2425 2162 2612 
Q 1925 2800 1625 2800 
Q 1300 2800 1112 2675 
Q 925 2550 925 2325 
Q 925 2125 1012 2012 
Q 1100 1900 1325 1850 
Q 1500 1775 1775 1700 
Q 2025 1600 2250 1500 
Q 2450 1400 2587 1237 
Q 2725 1075 2725 875 
Q 2725 500 2462 287 
Q 2200 75 1700 75 
Q 1375 75 1225 150 
Q 1050 200 950 200 
Q 875 200 787 162 
Q 700 125 600 75 
L 525 1000 
L 675 1025 
Q 750 625 1000 425 
Q 1250 225 1700 225 
Q 2050 225 2237 350 
Q 2425 475 2425 725 
Q 2425 900 2325 1012 
Q 2225 1125 2125 1175 
Q 1875 1275 1575 1400 
Q 1275 1500 1050 1600 
Q 825 1700 725 1850 
Q 625 2000 625 2175 
z
" transform="scale(0.015625)"/>
       <path id="Times New Roman-29" d="M 275 5025
L 400 5150 
Q 1100 4500 1450 3787 
Q 1800 3075 1800 2300 
Q 1800 1500 1450 787 
Q 1100 75 400 -550 
L 275 -425 
Q 850 175 1137 850 
Q 1425 1525 1425 2300 
Q 1425 3050 1137 3737 
Q 850 4425 275 5025 
z
" transform="scale(0.015625)"/>
      </defs>
      <use xlink:href="#Times New Roman-42"/>
      <use xlink:href="#Times New Roman-69" x="50"/>
      <use xlink:href="#Times New Roman-74" x="100"/>
      <use xlink:href="#Times New Roman-72" x="150"/>
      <use xlink:href="#Times New Roman-61" x="200"/>
      <use xlink:href="#Times New Roman-74" x="250"/>
      <use xlink:href="#Times New Roman-65" x="300"/>
      <use xlink:href="#Times New Roman-20" x="350"/>
      <use xlink:href="#Times New Roman-28" x="400"/>
      <use xlink:href="#Times New Roman-6b" x="450"/>
      <use xlink:href="#Times New Roman-62" x="500"/>
      <use xlink:href="#Times New Roman-70" x="550"/>
      <use xlink:href="#Times New Roman-73" x="600"/>
      <use xlink:href="#Times New Roman-29" x="650"/>
     </g>
    </g>
   </g>
   <g id="line2d_14">
    <path d="M 173.045455 369.36 
L 175.581818 369.36 
L 176.85 337.316161 
L 179.386364 337.316161 
L 180.654545 309.016057 
L 182.556818 309.016057 
L 183.190909 369.36 
L 197.140909 369.36 
L 198.409091 257.555555 
L 199.043182 257.555555 
L 199.677273 309.016057 
L 202.213636 309.016057 
L 203.481818 131.791417 
L 206.652273 131.791417 
L 207.286364 257.555555 
L 214.895455 257.555555 
L 216.163636 131.791417 
L 216.797727 131.791417 
L 217.431818 257.555555 
L 219.968182 257.555555 
L 221.236364 131.791417 
L 223.772727 131.791417 
L 225.040909 257.555555 
L 227.577273 257.555555 
L 228.845455 131.791417 
L 254.843182 131.791417 
L 255.477273 257.555555 
L 259.281818 257.555555 
L 259.915909 131.791417 
L 260.55 257.555555 
L 284.011364 257.555555 
L 284.645455 309.016057 
L 292.888636 309.016057 
L 293.522727 337.316161 
L 303.668182 337.316161 
L 304.936364 369.36 
L 336.640909 369.36 
L 337.275 131.791417 
L 337.909091 369.36 
L 351.859091 369.36 
L 353.127273 257.555555 
L 354.395455 257.555555 
L 355.663636 131.791417 
L 360.736364 131.791417 
L 362.004545 257.555555 
L 369.613636 257.555555 
L 370.881818 131.791417 
L 431.754545 131.791417 
L 433.022727 257.555555 
L 435.559091 257.555555 
L 436.827273 131.791417 
L 437.461364 131.791417 
L 438.095455 257.555555 
L 439.363636 257.555555 
L 440.631818 337.316161 
L 443.168182 337.316161 
L 444.436364 257.555555 
L 447.606818 257.555555 
L 448.240909 337.316161 
L 462.190909 337.316161 
L 463.459091 369.36 
L 465.995455 369.36 
L 467.263636 309.016057 
L 474.872727 309.016057 
L 476.140909 369.36 
L 477.409091 369.36 
L 478.677273 337.316161 
L 488.822727 337.316161 
L 490.090909 257.555555 
L 491.359091 337.316161 
L 493.895455 337.316161 
L 495.163636 309.016057 
L 511.65 309.016057 
L 512.918182 131.791417 
L 514.186364 257.555555 
L 516.722727 257.555555 
L 517.990909 131.791417 
L 519.893182 131.791417 
L 520.527273 257.555555 
L 524.331818 257.555555 
L 525.6 131.791417 
L 529.404545 131.791417 
L 530.038636 257.555555 
L 540.818182 257.555555 
L 542.086364 131.791417 
L 560.475 131.791417 
L 561.109091 257.555555 
L 564.913636 257.555555 
L 566.181818 131.791417 
L 569.352273 131.791417 
L 569.986364 257.555555 
L 575.059091 257.555555 
L 576.327273 131.791417 
L 576.961364 131.791417 
L 577.595455 257.555555 
L 582.668182 257.555555 
L 583.936364 131.791417 
L 585.204545 309.016057 
L 587.740909 309.016057 
L 589.009091 131.791417 
L 591.545455 131.791417 
L 592.813636 309.016057 
L 595.35 309.016057 
L 596.618182 257.555555 
L 597.886364 309.016057 
L 600.422727 309.016057 
L 601.690909 131.791417 
L 603.593182 131.791417 
L 604.227273 337.316161 
L 611.202273 337.316161 
L 611.836364 369.36 
L 630.859091 369.36 
L 632.127273 337.316161 
L 642.272727 337.316161 
L 643.540909 309.016057 
L 644.175 309.016057 
L 644.809091 337.316161 
L 647.345455 337.316161 
L 648.613636 309.016057 
L 653.686364 309.016057 
L 654.954545 257.555555 
L 655.588636 257.555555 
L 656.222727 309.016057 
L 658.759091 309.016057 
L 660.027273 257.555555 
L 668.904545 257.555555 
L 670.172727 131.791417 
L 670.806818 131.791417 
L 671.440909 257.555555 
L 673.977273 257.555555 
L 675.245455 131.791417 
L 682.854545 131.791417 
L 684.122727 257.555555 
L 686.659091 257.555555 
L 687.927273 131.791417 
L 688.561364 131.791417 
L 689.195455 257.555555 
L 691.731818 257.555555 
L 693 131.791417 
L 694.268182 257.555555 
L 696.804545 257.555555 
L 698.072727 131.791417 
L 698.706818 131.791417 
L 699.340909 257.555555 
L 701.877273 257.555555 
L 703.145455 131.791417 
L 703.779545 131.791417 
L 704.413636 257.555555 
L 709.486364 257.555555 
L 710.754545 131.791417 
L 715.827273 131.791417 
L 717.095455 257.555555 
L 724.704545 257.555555 
L 725.972727 131.791417 
L 727.240909 257.555555 
L 743.727273 257.555555 
L 744.995455 309.016057 
L 752.604545 309.016057 
L 753.872727 337.316161 
L 760.847727 337.316161 
L 761.481818 369.36 
L 775.431818 369.36 
L 776.065909 337.316161 
L 776.7 369.36 
L 790.65 369.36 
L 791.918182 337.316161 
L 795.722727 337.316161 
L 796.990909 309.016057 
L 810.940909 309.016057 
L 812.209091 257.555555 
L 813.477273 257.555555 
L 814.745455 131.791417 
L 816.013636 309.016057 
L 818.55 309.016057 
L 819.818182 131.791417 
L 821.086364 257.555555 
L 823.622727 257.555555 
L 824.890909 131.791417 
L 893.372727 131.791417 
L 894.640909 257.555555 
L 900.981818 257.555555 
L 902.25 309.016057 
L 904.786364 309.016057 
L 906.054545 257.555555 
L 907.322727 309.016057 
L 913.663636 309.016057 
L 914.931818 337.316161 
L 917.468182 337.316161 
L 918.736364 257.555555 
L 920.004545 257.555555 
L 921.272727 337.316161 
L 923.175 337.316161 
L 923.809091 369.36 
L 933.954545 369.36 
L 933.954545 369.36 
" clip-path="url(#p704e84fc08)" style="fill: none; stroke: #ff0000; stroke-width: 1.5; stroke-linecap: square"/>
   </g>
   <g id="line2d_15">
    <path d="M 173.045455 329.493149 
L 174.947727 327.696523 
L 175.581818 326.134264 
L 176.85 324.721018 
L 177.484091 322.631013 
L 178.118182 320.151221 
L 179.386364 316.917852 
L 180.654545 313.198313 
L 183.190909 297.001381 
L 184.459091 293.234904 
L 185.727273 285.687364 
L 186.995455 283.738861 
L 188.263636 283.665357 
L 189.531818 289.924816 
L 190.8 302.081626 
L 192.068182 311.827793 
L 193.336364 311.770634 
L 195.872727 289.981264 
L 197.140909 273.43072 
L 198.409091 261.840588 
L 199.043182 252.703775 
L 199.677273 253.699837 
L 202.213636 234.190583 
L 203.481818 219.550335 
L 204.75 209.544061 
L 206.018182 194.606175 
L 207.286364 171.910659 
L 208.554545 167.683495 
L 209.822727 165.351059 
L 211.090909 166.576365 
L 212.359091 162.716789 
L 213.627273 164.444407 
L 214.895455 161.065349 
L 216.163636 163.123058 
L 216.797727 165.525208 
L 217.431818 173.747856 
L 218.7 169.591997 
L 219.968182 168.048207 
L 221.236364 177.144376 
L 222.504545 191.466445 
L 223.772727 204.138699 
L 225.040909 207.150642 
L 226.309091 220.572726 
L 226.943182 225.811688 
L 227.577273 225.035834 
L 228.845455 224.601104 
L 230.113636 226.400398 
L 231.381818 230.053336 
L 232.65 214.374419 
L 233.284091 203.556013 
L 233.918182 180.023525 
L 235.186364 165.544701 
L 236.454545 132.037954 
L 237.722727 109.421019 
L 238.990909 92.218989 
L 240.259091 89.026399 
L 241.527273 92.54573 
L 242.795455 93.258233 
L 244.063636 100.978332 
L 245.331818 102.476097 
L 246.6 105.044714 
L 247.868182 106.102098 
L 249.136364 114.052117 
L 250.404545 116.11585 
L 252.940909 124.90247 
L 254.209091 139.075838 
L 255.477273 169.407796 
L 256.745455 172.266302 
L 258.013636 166.886355 
L 259.915909 127.825815 
L 260.55 123.480612 
L 261.818182 127.089657 
L 264.354545 136.529692 
L 266.890909 149.892113 
L 269.427273 164.914061 
L 270.695455 172.338858 
L 271.963636 178.895988 
L 275.768182 206.463656 
L 278.304545 221.392879 
L 282.109091 237.775737 
L 283.377273 245.186827 
L 284.645455 258.168428 
L 290.986364 286.545927 
L 292.254545 292.778346 
L 293.522727 303.433432 
L 296.059091 312.227937 
L 298.595455 320.557829 
L 302.4 333.218069 
L 303.668182 336.863528 
L 306.204545 343.181025 
L 307.472727 345.878782 
L 308.740909 348.223706 
L 310.009091 349.991697 
L 311.277273 351.304618 
L 312.545455 352.230121 
L 314.447727 352.964248 
L 316.35 352.513985 
L 317.618182 351.694001 
L 318.886364 350.563215 
L 320.154545 347.736453 
L 321.422727 346.149516 
L 322.690909 344.234381 
L 323.959091 342.584329 
L 325.227273 340.447024 
L 326.495455 337.862941 
L 329.031818 330.255501 
L 331.568182 320.125874 
L 335.372727 303.78366 
L 336.640909 293.280252 
L 337.275 288.797617 
L 337.909091 288.401805 
L 339.177273 293.122313 
L 340.445455 305.061082 
L 341.713636 319.125514 
L 342.981818 336.247373 
L 344.25 348.179136 
L 345.518182 358.066186 
L 348.054545 350.792932 
L 349.322727 333.950775 
L 350.590909 324.661099 
L 351.225 313.016008 
L 353.127273 293.33318 
L 354.395455 278.996864 
L 355.663636 258.042537 
L 358.2 204.089324 
L 359.468182 181.569379 
L 362.004545 156.894227 
L 363.272727 163.967442 
L 364.540909 173.105135 
L 365.809091 190.306251 
L 367.077273 193.406386 
L 368.345455 209.356984 
L 369.613636 206.368087 
L 370.881818 214.794225 
L 372.15 207.216227 
L 373.418182 228.952771 
L 374.686364 234.731272 
L 375.954545 259.616276 
L 377.222727 258.289175 
L 378.490909 276.864331 
L 379.759091 266.378453 
L 381.027273 274.572166 
L 382.295455 253.027707 
L 383.563636 256.762543 
L 384.831818 237.806127 
L 386.1 249.239571 
L 387.368182 234.142054 
L 388.636364 245.713573 
L 389.904545 230.409588 
L 391.172727 242.080534 
L 392.440909 224.139842 
L 393.709091 234.025097 
L 394.977273 215.490315 
L 396.245455 229.886497 
L 397.513636 211.185856 
L 398.781818 224.887979 
L 400.05 207.88433 
L 401.318182 227.125422 
L 402.586364 218.889001 
L 403.854545 245.925422 
L 405.122727 242.775879 
L 405.756818 252.833287 
L 406.390909 242.197186 
L 407.659091 243.326652 
L 408.927273 242.225511 
L 410.195455 242.313703 
L 411.463636 255.910646 
L 412.731818 258.023179 
L 414 270.652927 
L 415.268182 259.375459 
L 416.536364 268.4387 
L 417.804545 254.885243 
L 419.072727 264.591747 
L 420.340909 253.827995 
L 421.609091 258.277702 
L 422.877273 243.154499 
L 424.145455 244.76137 
L 425.413636 234.287709 
L 426.681818 233.762689 
L 427.95 225.077256 
L 429.218182 235.311724 
L 430.486364 242.492556 
L 431.754545 254.51911 
L 433.022727 258.359024 
L 434.290909 268.284856 
L 435.559091 273.215791 
L 436.827273 284.033284 
L 437.461364 297.955446 
L 438.095455 317.621082 
L 439.363636 329.259675 
L 440.631818 331.467845 
L 441.9 326.79458 
L 443.168182 317.598374 
L 444.436364 311.537093 
L 445.704545 310.222885 
L 446.972727 315.91668 
L 447.606818 320.784907 
L 448.240909 326.528246 
L 449.509091 331.014062 
L 450.777273 334.795091 
L 452.045455 337.46327 
L 453.313636 338.782927 
L 454.581818 339.823592 
L 455.85 340.311792 
L 458.386364 342.978821 
L 459.654545 346.093846 
L 460.922727 348.751433 
L 463.459091 353.177349 
L 464.727273 356.17183 
L 465.995455 358.261182 
L 467.263636 359.117105 
L 468.531818 358.401726 
L 469.8 356.951949 
L 471.068182 351.03974 
L 472.336364 349.253644 
L 473.604545 348.3875 
L 474.872727 347.050821 
L 476.140909 344.678553 
L 477.409091 339.017788 
L 479.945455 332.955627 
L 481.213636 329.58398 
L 482.481818 327.613312 
L 483.75 324.547492 
L 485.018182 323.38811 
L 486.286364 320.038021 
L 487.554545 320.683416 
L 488.822727 316.632465 
L 490.090909 317.593332 
L 491.359091 312.956176 
L 492.627273 310.036248 
L 493.895455 299.301431 
L 495.163636 298.997837 
L 495.797727 302.639608 
L 496.431818 312.326247 
L 498.968182 334.606999 
L 500.236364 344.084733 
L 501.504545 340.328815 
L 502.772727 339.946031 
L 504.040909 333.449275 
L 505.309091 335.413852 
L 506.577273 319.131504 
L 507.845455 300.984208 
L 509.113636 266.825569 
L 510.381818 249.861412 
L 511.65 227.919619 
L 512.918182 225.878932 
L 514.186364 222.469315 
L 515.454545 228.848911 
L 516.722727 222.839035 
L 517.990909 228.095358 
L 519.259091 225.209374 
L 519.893182 220.530897 
L 520.527273 207.241033 
L 521.795455 195.325378 
L 523.063636 172.774333 
L 524.331818 143.907144 
L 525.6 123.637975 
L 526.868182 112.436921 
L 529.404545 87.842989 
L 530.038636 83.224378 
L 530.672727 79.962819 
L 531.940909 76.951891 
L 534.477273 72.171179 
L 537.013636 68.315596 
L 538.281818 66.96 
L 539.55 72.981721 
L 540.818182 100.510539 
L 542.086364 131.413575 
L 543.354545 174.19081 
L 544.622727 197.325523 
L 545.890909 210.418361 
L 547.159091 189.030691 
L 548.427273 163.347936 
L 549.695455 126.816792 
L 550.963636 105.315651 
L 552.231818 88.207532 
L 553.5 85.005737 
L 554.768182 83.654878 
L 556.036364 82.996455 
L 557.304545 90.97348 
L 559.840909 136.48492 
L 560.475 155.697077 
L 561.109091 168.090814 
L 562.377273 180.216287 
L 563.645455 177.603033 
L 566.181818 158.353818 
L 567.45 160.623817 
L 568.718182 164.907022 
L 569.352273 173.854153 
L 569.986364 187.892967 
L 571.254545 199.804967 
L 572.522727 202.359879 
L 573.790909 198.701187 
L 575.059091 190.694551 
L 576.327273 189.433271 
L 576.961364 196.551395 
L 577.595455 209.589916 
L 578.863636 220.469305 
L 580.131818 228.6684 
L 581.4 239.627283 
L 582.668182 247.72475 
L 583.936364 257.199473 
L 585.204545 262.927312 
L 586.472727 273.372174 
L 587.740909 277.380484 
L 589.009091 286.83128 
L 590.277273 291.601096 
L 591.545455 305.587895 
L 592.813636 313.203728 
L 594.081818 324.888718 
L 595.35 328.092814 
L 596.618182 331.699187 
L 597.886364 329.384111 
L 599.154545 329.269896 
L 599.788636 324.936604 
L 600.422727 322.795373 
L 601.690909 321.557952 
L 602.959091 323.974553 
L 604.227273 331.702841 
L 605.495455 335.388505 
L 606.763636 340.118658 
L 609.3 347.032343 
L 610.568182 348.542088 
L 611.202273 350.068044 
L 611.836364 350.035725 
L 613.104545 350.449744 
L 614.372727 350.50873 
L 615.006818 351.416465 
L 615.640909 351.994447 
L 618.177273 352.629757 
L 619.445455 353.51783 
L 621.347727 354.404652 
L 621.981818 353.626022 
L 623.25 352.87027 
L 624.518182 351.123667 
L 625.786364 349.146129 
L 628.322727 344.145919 
L 629.590909 340.988863 
L 630.859091 337.214636 
L 634.663636 324.163728 
L 637.2 314.461623 
L 641.004545 298.286215 
L 643.540909 286.550766 
L 644.809091 274.693048 
L 649.881818 251.27904 
L 651.15 244.851456 
L 652.418182 241.930412 
L 653.686364 245.72491 
L 654.954545 247.919171 
L 655.588636 250.261252 
L 656.222727 249.939654 
L 657.490909 246.388579 
L 658.759091 239.76468 
L 660.027273 232.132806 
L 663.831818 193.108647 
L 665.1 182.03609 
L 666.368182 168.434205 
L 668.904545 163.858675 
L 670.172727 176.232039 
L 670.806818 197.956704 
L 671.440909 223.571741 
L 672.709091 242.737468 
L 673.977273 249.027723 
L 675.245455 247.841301 
L 676.513636 223.943188 
L 677.781818 196.218731 
L 679.05 162.966981 
L 680.318182 161.095603 
L 681.586364 161.186976 
L 682.854545 173.152446 
L 684.122727 169.624789 
L 685.390909 182.104077 
L 686.025 192.546807 
L 686.659091 197.558388 
L 687.927273 188.37335 
L 688.561364 182.281645 
L 689.195455 167.748877 
L 690.463636 155.011682 
L 691.731818 147.721474 
L 693 154.147535 
L 694.268182 166.405058 
L 695.536364 170.57635 
L 696.170455 156.33127 
L 696.804545 126.104729 
L 698.072727 98.984956 
L 698.706818 82.856756 
L 699.340909 75.553011 
L 700.609091 81.745937 
L 701.877273 100.951766 
L 703.145455 137.363179 
L 704.413636 213.461134 
L 705.681818 235.224176 
L 706.95 237.967111 
L 707.584091 226.212678 
L 708.218182 203.027541 
L 710.754545 160.476064 
L 712.022727 146.250004 
L 713.290909 142.403998 
L 714.559091 148.82126 
L 715.827273 164.429686 
L 717.095455 175.425422 
L 718.363636 208.984489 
L 719.631818 226.327977 
L 720.9 237.971037 
L 722.168182 227.225898 
L 723.436364 232.605134 
L 724.704545 228.482135 
L 725.972727 232.152163 
L 727.240909 228.815679 
L 728.509091 236.468602 
L 729.143182 231.898723 
L 729.777273 226.255014 
L 731.045455 217.029468 
L 732.313636 219.287757 
L 733.581818 222.311816 
L 734.85 228.632087 
L 736.118182 231.254885 
L 738.654545 238.119094 
L 741.190909 253.064561 
L 744.995455 273.633973 
L 746.263636 285.114153 
L 748.8 295.166249 
L 750.068182 299.965066 
L 752.604545 312.390039 
L 753.872727 318.835998 
L 755.140909 323.992624 
L 756.409091 328.551403 
L 757.677273 331.829409 
L 758.945455 334.546761 
L 760.213636 336.955544 
L 761.481818 342.415256 
L 762.75 344.582172 
L 764.018182 346.470166 
L 765.286364 348.079303 
L 767.822727 350.757128 
L 769.090909 351.693629 
L 770.359091 352.258006 
L 771.627273 352.339768 
L 772.895455 352.131066 
L 774.163636 351.501476 
L 774.797727 350.731307 
L 776.065909 348.623918 
L 776.7 348.584018 
L 777.968182 348.670788 
L 779.236364 348.337109 
L 780.504545 346.416493 
L 781.772727 345.008408 
L 783.040909 341.934264 
L 784.309091 339.980753 
L 785.577273 336.368357 
L 786.845455 333.620988 
L 789.381818 321.490032 
L 790.65 313.167382 
L 793.186364 298.169765 
L 795.722727 286.026356 
L 798.259091 273.0477 
L 799.527273 266.148701 
L 802.063636 256.123984 
L 803.331818 252.646887 
L 805.868182 259.344121 
L 807.136364 269.920898 
L 808.404545 271.485027 
L 809.672727 271.174326 
L 810.940909 255.299296 
L 812.209091 253.060331 
L 813.477273 245.536446 
L 814.745455 245.705553 
L 816.013636 238.623268 
L 817.281818 252.086435 
L 817.915909 267.150686 
L 818.55 273.367876 
L 819.818182 280.565933 
L 821.086364 281.614247 
L 822.354545 285.422722 
L 823.622727 265.087528 
L 824.890909 265.078357 
L 826.159091 254.837493 
L 827.427273 269.391682 
L 828.695455 257.153076 
L 829.963636 269.347688 
L 831.231818 254.99577 
L 832.5 265.727271 
L 833.768182 252.030021 
L 835.036364 265.582496 
L 836.304545 251.8289 
L 837.572727 264.136137 
L 838.840909 249.997185 
L 840.109091 264.291978 
L 841.377273 252.884896 
L 842.011364 255.650133 
L 842.645455 242.960079 
L 843.913636 246.208643 
L 845.181818 248.668628 
L 846.45 260.198962 
L 847.718182 291.085619 
L 848.986364 308.879574 
L 850.254545 318.185528 
L 851.522727 331.050712 
L 852.156818 339.72535 
L 852.790909 351.406414 
L 854.059091 355.336279 
L 855.327273 356.064654 
L 856.595455 352.618352 
L 857.863636 353.25461 
L 859.131818 350.291026 
L 860.4 353.076941 
L 861.668182 352.51879 
L 862.936364 357.508577 
L 864.204545 356.418502 
L 865.472727 359.24814 
L 866.740909 356.854248 
L 868.009091 359.500464 
L 869.277273 357.168028 
L 870.545455 358.470932 
L 871.813636 355.339156 
L 873.081818 357.571319 
L 874.35 354.248811 
L 875.618182 356.161847 
L 876.886364 354.555518 
L 878.154545 357.251481 
L 879.422727 353.757125 
L 880.690909 354.471827 
L 881.959091 348.714309 
L 883.227273 347.216645 
L 884.495455 337.251388 
L 885.763636 334.695427 
L 887.031818 324.027887 
L 888.3 319.504642 
L 889.568182 308.047813 
L 890.836364 306.838954 
L 892.104545 301.549128 
L 893.372727 308.68671 
L 894.640909 312.522799 
L 895.909091 322.961401 
L 897.177273 327.490602 
L 898.445455 335.459572 
L 899.713636 336.564706 
L 900.981818 339.641355 
L 902.25 338.684075 
L 903.518182 341.929289 
L 904.786364 340.62564 
L 906.054545 342.495291 
L 907.322727 343.264479 
L 908.590909 346.423227 
L 909.859091 346.1485 
L 911.127273 347.684676 
L 912.395455 347.221146 
L 913.663636 347.9304 
L 914.931818 347.716994 
L 916.2 349.037632 
L 917.468182 349.654126 
L 918.736364 350.431672 
L 920.004545 350.759903 
L 921.272727 351.690752 
L 923.175 352.451953 
L 923.809091 352.556016 
L 926.345455 352.33151 
L 927.613636 351.847676 
L 928.881818 351.653797 
L 931.418182 349.105891 
L 932.686364 347.244192 
L 933.954545 347.579496 
L 933.954545 347.579496 
" clip-path="url(#p704e84fc08)" style="fill: none; stroke: #008000; stroke-width: 1.5; stroke-linecap: square"/>
   </g>
   <g id="patch_3">
    <path d="M 135 384.48 
L 135 51.84 
" style="fill: none; stroke: #000000; stroke-width: 0.8; stroke-linejoin: miter; stroke-linecap: square"/>
   </g>
   <g id="patch_4">
    <path d="M 972 384.48 
L 972 51.84 
" style="fill: none; stroke: #000000; stroke-width: 0.8; stroke-linejoin: miter; stroke-linecap: square"/>
   </g>
   <g id="patch_5">
    <path d="M 135 384.48 
L 972 384.48 
" style="fill: none; stroke: #000000; stroke-width: 0.8; stroke-linejoin: miter; stroke-linecap: square"/>
   </g>
   <g id="patch_6">
    <path d="M 135 51.84 
L 972 51.84 
" style="fill: none; stroke: #000000; stroke-width: 0.8; stroke-linejoin: miter; stroke-linecap: square"/>
   </g>
  </g>
  <g id="axes_2">
   <g id="matplotlib.axis_3">
    <g id="ytick_7">
     <g id="line2d_16">
      <path d="M 135 337.615618 
L 972 337.615618 
" clip-path="url(#p704e84fc08)" style="fill: none; stroke: #b0b0b0; stroke-width: 0.8; stroke-linecap: square"/>
     </g>
     <g id="line2d_17">
      <defs>
       <path id="m673994a079" d="M 0 0 
L 3.5 0 
" style="stroke: #000000; stroke-width: 0.8"/>
      </defs>
      <g>
       <use xlink:href="#m673994a079" x="972" y="337.615618" style="stroke: #000000; stroke-width: 0.8"/>
      </g>
     </g>
     <g id="text_15">
      <!-- 5 -->
      <g transform="translate(979 341.189837) scale(0.1 -0.1)">
       <use xlink:href="#Times New Roman-35"/>
      </g>
     </g>
    </g>
    <g id="ytick_8">
     <g id="line2d_18">
      <path d="M 135 285.076092 
L 972 285.076092 
" clip-path="url(#p704e84fc08)" style="fill: none; stroke: #b0b0b0; stroke-width: 0.8; stroke-linecap: square"/>
     </g>
     <g id="line2d_19">
      <g>
       <use xlink:href="#m673994a079" x="972" y="285.076092" style="stroke: #000000; stroke-width: 0.8"/>
      </g>
     </g>
     <g id="text_16">
      <!-- 10 -->
      <g transform="translate(979 288.650311) scale(0.1 -0.1)">
       <use xlink:href="#Times New Roman-31"/>
       <use xlink:href="#Times New Roman-30" x="50"/>
      </g>
     </g>
    </g>
    <g id="ytick_9">
     <g id="line2d_20">
      <path d="M 135 232.536566 
L 972 232.536566 
" clip-path="url(#p704e84fc08)" style="fill: none; stroke: #b0b0b0; stroke-width: 0.8; stroke-linecap: square"/>
     </g>
     <g id="line2d_21">
      <g>
       <use xlink:href="#m673994a079" x="972" y="232.536566" style="stroke: #000000; stroke-width: 0.8"/>
      </g>
     </g>
     <g id="text_17">
      <!-- 15 -->
      <g transform="translate(979 236.110784) scale(0.1 -0.1)">
       <use xlink:href="#Times New Roman-31"/>
       <use xlink:href="#Times New Roman-35" x="50"/>
      </g>
     </g>
    </g>
    <g id="ytick_10">
     <g id="line2d_22">
      <path d="M 135 179.997039 
L 972 179.997039 
" clip-path="url(#p704e84fc08)" style="fill: none; stroke: #b0b0b0; stroke-width: 0.8; stroke-linecap: square"/>
     </g>
     <g id="line2d_23">
      <g>
       <use xlink:href="#m673994a079" x="972" y="179.997039" style="stroke: #000000; stroke-width: 0.8"/>
      </g>
     </g>
     <g id="text_18">
      <!-- 20 -->
      <g transform="translate(979 183.571258) scale(0.1 -0.1)">
       <use xlink:href="#Times New Roman-32"/>
       <use xlink:href="#Times New Roman-30" x="50"/>
      </g>
     </g>
    </g>
    <g id="ytick_11">
     <g id="line2d_24">
      <path d="M 135 127.457513 
L 972 127.457513 
" clip-path="url(#p704e84fc08)" style="fill: none; stroke: #b0b0b0; stroke-width: 0.8; stroke-linecap: square"/>
     </g>
     <g id="line2d_25">
      <g>
       <use xlink:href="#m673994a079" x="972" y="127.457513" style="stroke: #000000; stroke-width: 0.8"/>
      </g>
     </g>
     <g id="text_19">
      <!-- 25 -->
      <g transform="translate(979 131.031732) scale(0.1 -0.1)">
       <use xlink:href="#Times New Roman-32"/>
       <use xlink:href="#Times New Roman-35" x="50"/>
      </g>
     </g>
    </g>
    <g id="ytick_12">
     <g id="line2d_26">
      <path d="M 135 74.917987 
L 972 74.917987 
" clip-path="url(#p704e84fc08)" style="fill: none; stroke: #b0b0b0; stroke-width: 0.8; stroke-linecap: square"/>
     </g>
     <g id="line2d_27">
      <g>
       <use xlink:href="#m673994a079" x="972" y="74.917987" style="stroke: #000000; stroke-width: 0.8"/>
      </g>
     </g>
     <g id="text_20">
      <!-- 30 -->
      <g transform="translate(979 78.492206) scale(0.1 -0.1)">
       <use xlink:href="#Times New Roman-33"/>
       <use xlink:href="#Times New Roman-30" x="50"/>
      </g>
     </g>
    </g>
    <g id="text_21">
     <!-- buffer (s) -->
     <g transform="translate(1000.617188 243.16) rotate(-90) scale(0.1 -0.1)">
      <defs>
       <path id="Times New Roman-75" d="M 1450 325
Q 1750 325 1962 475 
Q 2175 625 2275 950 
L 2275 2525 
Q 2275 2625 2225 2687 
Q 2175 2750 2050 2750 
L 1900 2750 
L 1900 2900 
L 2050 2900 
Q 2200 2900 2325 2925 
Q 2450 2950 2575 3050 
L 2625 3050 
L 2625 600 
Q 2625 500 2687 450 
Q 2750 400 2850 400 
L 3000 400 
L 3000 250 
L 2850 250 
Q 2725 250 2600 212 
Q 2475 175 2325 100 
L 2275 100 
L 2275 625 
Q 2150 350 1900 212 
Q 1650 75 1325 75 
Q 925 75 725 300 
Q 525 525 525 1025 
L 525 2525 
Q 525 2625 475 2687 
Q 425 2750 300 2750 
L 150 2750 
L 150 2900 
L 300 2900 
Q 450 2900 575 2925 
Q 700 2950 825 3050 
L 875 3050 
L 875 975 
Q 875 625 1025 475 
Q 1175 325 1450 325 
z
" transform="scale(0.015625)"/>
       <path id="Times New Roman-66" d="M 1125 3325
Q 1125 3850 1450 4112 
Q 1775 4375 2175 4375 
Q 2600 4375 2812 4225 
Q 3025 4075 3025 3875 
Q 3025 3775 2975 3700 
Q 2925 3625 2775 3625 
Q 2675 3625 2612 3675 
Q 2550 3725 2550 3850 
Q 2550 3875 2575 3925 
Q 2575 3975 2575 4000 
Q 2575 4100 2500 4162 
Q 2425 4225 2150 4225 
Q 1850 4225 1662 4037 
Q 1475 3850 1475 3400 
L 1475 2900 
L 2525 2900 
L 2525 2750 
L 1475 2750 
L 1475 450 
Q 1475 350 1537 300 
Q 1600 250 1700 250 
L 2300 250 
L 2300 100 
L 475 100 
L 475 250 
L 900 250 
Q 1025 250 1075 300 
Q 1125 350 1125 450 
L 1125 2750 
L 350 2750 
L 350 2900 
L 1125 2900 
L 1125 3325 
z
" transform="scale(0.015625)"/>
      </defs>
      <use xlink:href="#Times New Roman-62"/>
      <use xlink:href="#Times New Roman-75" x="50"/>
      <use xlink:href="#Times New Roman-66" x="100"/>
      <use xlink:href="#Times New Roman-66" x="150"/>
      <use xlink:href="#Times New Roman-65" x="200"/>
      <use xlink:href="#Times New Roman-72" x="250"/>
      <use xlink:href="#Times New Roman-20" x="300"/>
      <use xlink:href="#Times New Roman-28" x="350"/>
      <use xlink:href="#Times New Roman-73" x="400"/>
      <use xlink:href="#Times New Roman-29" x="450"/>
     </g>
    </g>
   </g>
   <g id="line2d_28">
    <path d="M 173.045455 369.36 
L 174.313636 364.416031 
L 174.947727 362.768041 
L 175.581818 348.971161 
L 176.85 342.025436 
L 177.484091 335.07971 
L 178.118182 334.757468 
L 179.386364 327.664632 
L 180.654545 323.916812 
L 181.288636 324.04641 
L 181.922727 317.072663 
L 182.556818 306.753901 
L 183.190909 299.237246 
L 184.459091 278.196917 
L 185.093182 257.156588 
L 185.727273 222.557558 
L 186.995455 208.515494 
L 189.531818 172.571453 
L 190.8 147.993463 
L 192.068182 117.177279 
L 193.336364 92.770918 
L 194.604545 74.847934 
L 195.872727 71.114125 
L 197.140909 74.858442 
L 198.409091 85.072126 
L 199.043182 91.544996 
L 199.677273 91.548498 
L 200.945455 85.005576 
L 202.213636 82.154431 
L 203.481818 78.788399 
L 206.018182 85.212231 
L 206.652273 91.730635 
L 207.286364 92.178973 
L 208.554545 92.613299 
L 209.822727 89.233257 
L 211.090909 92.459183 
L 212.359091 88.704359 
L 213.627273 85.48894 
L 214.895455 81.716602 
L 216.163636 84.928518 
L 216.797727 91.415398 
L 217.431818 92.231512 
L 218.7 85.695595 
L 221.236364 78.003808 
L 222.504545 81.548475 
L 223.772727 85.716611 
L 225.040909 82.648303 
L 226.309091 78.728854 
L 226.943182 71.432865 
L 227.577273 77.916243 
L 228.845455 78.168432 
L 230.113636 82.129913 
L 231.381818 78.595754 
L 232.65 81.800665 
L 233.284091 81.296285 
L 235.186364 81.954781 
L 236.454545 78.427627 
L 238.990909 84.85146 
L 240.259091 88.763903 
L 241.527273 85.615034 
L 242.795455 81.835691 
L 244.063636 78.518696 
L 245.331818 82.052855 
L 246.6 86.213985 
L 247.868182 89.611541 
L 249.136364 86.259519 
L 250.404545 82.487181 
L 251.672727 86.02134 
L 254.209091 92.392633 
L 254.843182 91.90927 
L 255.477273 92.049375 
L 256.745455 85.495945 
L 258.013636 81.702591 
L 258.647727 81.173693 
L 259.281818 81.166688 
L 259.915909 78.399606 
L 260.55 79.13516 
L 261.818182 86.07388 
L 264.354545 105.737673 
L 265.622727 109.292848 
L 266.890909 113.453978 
L 268.159091 110.630854 
L 269.427273 113.699163 
L 270.695455 110.182517 
L 271.963636 113.408444 
L 273.231818 110.403183 
L 274.5 113.36291 
L 275.768182 109.741185 
L 277.036364 112.967112 
L 278.304545 110.129977 
L 280.840909 116.42071 
L 282.109091 126.637897 
L 283.377273 137.804297 
L 284.011364 145.222878 
L 285.913636 145.317449 
L 287.181818 148.553884 
L 290.986364 180.074097 
L 292.254545 183.272003 
L 292.888636 182.778132 
L 293.522727 183.37358 
L 294.790909 190.848203 
L 298.595455 221.664386 
L 299.863636 225.825517 
L 302.4 232.053202 
L 303.668182 242.277394 
L 306.204545 263.643468 
L 308.740909 270.112835 
L 310.009091 267.265193 
L 311.277273 271.398302 
L 313.813636 277.899193 
L 314.447727 277.44385 
L 315.081818 277.867669 
L 316.35 278.287985 
L 318.886364 284.750347 
L 319.520455 291.272253 
L 320.154545 291.710083 
L 321.422727 292.14441 
L 322.690909 288.323035 
L 323.959091 292.09187 
L 325.227273 295.293279 
L 326.495455 306.480695 
L 327.763636 309.156708 
L 329.031818 312.477206 
L 330.3 308.764413 
L 331.568182 305.972813 
L 334.104545 271.135604 
L 336.006818 245.972674 
L 336.640909 232.543571 
L 337.275 222.410448 
L 337.909091 215.86052 
L 339.177273 208.683621 
L 340.445455 184.15817 
L 341.713636 145.348973 
L 342.981818 114.003892 
L 344.25 88.802432 
L 346.786364 67.275237 
L 348.054545 71.450378 
L 349.322727 68.410091 
L 350.590909 71.632515 
L 351.225 71.110623 
L 351.859091 77.776137 
L 353.127273 78.220972 
L 354.395455 81.453904 
L 355.663636 77.699079 
L 356.931818 80.918001 
L 358.2 78.063353 
L 359.468182 82.203468 
L 360.736364 85.432897 
L 362.004545 89.079141 
L 363.272727 85.366347 
L 364.540909 82.518705 
L 365.809091 85.345332 
L 367.077273 88.550243 
L 368.345455 84.788413 
L 370.881818 79.005562 
L 372.15 82.220981 
L 373.418182 78.424125 
L 374.686364 81.804167 
L 375.954545 78.925001 
L 377.222727 82.143923 
L 379.759091 74.581734 
L 381.027273 71.769118 
L 382.295455 68.602736 
L 386.1 78.578241 
L 387.368182 82.473171 
L 391.172727 71.548452 
L 394.977273 81.10364 
L 396.245455 78.255998 
L 397.513636 81.439893 
L 398.781818 77.688571 
L 400.05 81.257756 
L 401.318182 78.536209 
L 402.586364 82.683329 
L 403.854545 78.574738 
L 405.122727 81.667565 
L 405.756818 81.159683 
L 406.390909 81.618528 
L 407.659091 75.05459 
L 408.927273 71.289257 
L 411.463636 77.765629 
L 412.731818 75.019563 
L 414 71.264739 
L 416.536364 77.71309 
L 417.804545 81.846199 
L 419.072727 78.087872 
L 421.609091 71.135141 
L 422.877273 75.373329 
L 424.145455 78.136909 
L 425.413636 81.797162 
L 426.681818 78.161427 
L 427.95 82.277023 
L 429.218182 78.879467 
L 431.754545 85.212231 
L 433.022727 88.655322 
L 434.290909 85.804177 
L 435.559091 82.021331 
L 436.827273 85.058115 
L 437.461364 91.569514 
L 438.095455 92.238517 
L 439.363636 85.671077 
L 440.631818 75.019563 
L 441.9 71.016051 
L 443.168182 74.206952 
L 444.436364 78.241988 
L 445.704545 81.453904 
L 446.972727 77.839185 
L 447.606818 77.464403 
L 448.240909 77.92675 
L 449.509091 85.226242 
L 450.777273 89.226251 
L 453.313636 81.870718 
L 454.581818 78.108887 
L 455.85 82.049352 
L 457.118182 78.900483 
L 458.386364 82.154431 
L 459.654545 78.399606 
L 460.922727 81.909247 
L 462.190909 78.434633 
L 463.459091 82.147426 
L 464.727273 78.385596 
L 465.995455 82.238494 
L 467.263636 85.005576 
L 469.8 105.485483 
L 470.434091 112.921578 
L 471.068182 106.357639 
L 472.336364 99.748167 
L 473.604545 95.9373 
L 476.140909 103.121205 
L 476.775 103.783203 
L 477.409091 103.741171 
L 478.677273 103.019628 
L 479.945455 99.04764 
L 481.213636 102.256054 
L 482.481818 99.443438 
L 483.75 96.354114 
L 485.018182 92.578273 
L 486.286364 82.115902 
L 487.554545 78.581743 
L 488.822727 75.58699 
L 490.090909 78.490675 
L 491.359091 81.692083 
L 492.627273 78.059851 
L 493.895455 82.220981 
L 495.163636 78.441638 
L 496.431818 77.432879 
L 497.7 84.900497 
L 498.968182 82.070368 
L 500.236364 78.29803 
L 501.504545 67.965256 
L 502.772727 71.191183 
L 504.040909 68.336536 
L 505.309091 71.103617 
L 506.577273 67.355798 
L 507.845455 70.595735 
L 509.113636 74.739353 
L 512.918182 84.413631 
L 514.186364 88.651819 
L 515.454545 85.8357 
L 517.990909 78.154422 
L 519.259091 81.352328 
L 520.527273 82.238494 
L 521.795455 74.753363 
L 523.063636 70.984528 
L 524.331818 74.210455 
L 526.868182 82.336568 
L 528.136364 85.565998 
L 529.404545 95.776179 
L 530.038636 102.480222 
L 530.672727 102.914549 
L 531.940909 96.287564 
L 534.477273 88.735882 
L 535.745455 92.021354 
L 537.013636 89.170209 
L 538.281818 92.396136 
L 539.55 96.021363 
L 540.818182 99.254295 
L 542.086364 103.422431 
L 543.354545 99.958325 
L 545.890909 78.466156 
L 547.159091 74.907479 
L 548.427273 78.809414 
L 550.963636 85.226242 
L 553.5 91.986328 
L 554.768182 88.203482 
L 556.036364 91.376869 
L 558.572727 99.706135 
L 559.840909 102.911047 
L 561.109091 101.916298 
L 562.377273 95.348857 
L 563.645455 85.534474 
L 564.913636 82.420631 
L 566.181818 78.875965 
L 568.718182 85.562495 
L 569.352273 92.770918 
L 569.986364 92.872494 
L 571.254545 92.378623 
L 573.790909 85.173702 
L 575.059091 81.439893 
L 576.327273 84.679831 
L 576.961364 91.187727 
L 577.595455 91.930286 
L 578.863636 92.354104 
L 580.131818 89.488949 
L 582.668182 82.133415 
L 583.936364 85.404876 
L 585.204545 89.047617 
L 589.009091 77.751619 
L 590.277273 81.898739 
L 591.545455 85.096644 
L 592.813636 88.939035 
L 594.081818 85.180708 
L 595.35 82.343573 
L 596.618182 78.441638 
L 597.886364 81.646549 
L 599.154545 77.856698 
L 599.788636 77.772635 
L 600.422727 78.213967 
L 601.690909 85.674579 
L 602.959091 96.57478 
L 603.593182 103.72716 
L 604.227273 103.509997 
L 605.495455 103.32786 
L 606.763636 99.81822 
L 608.031818 102.784952 
L 609.3 98.977587 
L 610.568182 102.252551 
L 611.836364 103.145723 
L 613.104545 88.620295 
L 614.372727 77.800656 
L 615.006818 70.298011 
L 615.640909 78.038835 
L 616.909091 85.474929 
L 618.177273 95.734147 
L 619.445455 98.655345 
L 620.713636 94.914531 
L 621.981818 81.877723 
L 623.25 82.315552 
L 624.518182 78.546717 
L 625.786364 81.667565 
L 627.054545 77.849692 
L 628.322727 81.979299 
L 629.590909 78.676314 
L 632.127273 85.138676 
L 633.395455 95.867247 
L 637.2 105.538023 
L 638.468182 109.702656 
L 639.736364 106.753437 
L 641.004545 103.517002 
L 642.272727 99.75167 
L 643.540909 103.065162 
L 644.175 102.953078 
L 644.809091 103.383902 
L 646.077273 102.946073 
L 647.345455 99.18074 
L 648.613636 102.431185 
L 649.881818 99.534506 
L 651.15 102.760433 
L 652.418182 98.956571 
L 653.052273 98.448689 
L 653.686364 92.10892 
L 654.954545 92.564262 
L 655.588636 93.019605 
L 656.222727 92.350602 
L 657.490909 85.040602 
L 658.759091 81.271767 
L 660.027273 78.396104 
L 661.295455 81.443396 
L 662.563636 77.814666 
L 663.831818 81.282275 
L 665.1 78.655299 
L 666.368182 82.641297 
L 668.904545 88.578264 
L 670.172727 91.814699 
L 671.440909 92.69386 
L 672.709091 85.446908 
L 675.245455 77.881216 
L 676.513636 81.783152 
L 677.781818 78.389098 
L 679.05 82.12641 
L 680.318182 78.354072 
L 681.586364 82.133415 
L 682.854545 84.854963 
L 684.122727 88.410137 
L 685.390909 84.630794 
L 686.025 78.056348 
L 686.659091 78.168432 
L 687.927273 85.632548 
L 688.561364 93.096663 
L 689.195455 92.599289 
L 690.463636 85.10365 
L 691.731818 81.48893 
L 693 85.643056 
L 694.268182 89.072135 
L 695.536364 85.156189 
L 696.170455 77.699079 
L 696.804545 77.919745 
L 698.072727 85.331321 
L 698.706818 92.742897 
L 699.340909 92.476697 
L 700.609091 85.499448 
L 701.877273 81.72711 
L 703.145455 85.664071 
L 703.779545 92.585278 
L 704.413636 92.865489 
L 705.681818 85.587013 
L 706.95 81.800665 
L 707.584091 81.450401 
L 709.486364 82.147426 
L 710.754545 78.637785 
L 712.022727 81.839194 
L 713.290909 78.049343 
L 714.559091 81.944273 
L 715.827273 85.1702 
L 717.095455 88.86548 
L 718.363636 85.425892 
L 719.631818 82.571245 
L 722.168182 74.490665 
L 723.436364 70.72183 
L 725.972727 78.721849 
L 727.240909 82.238494 
L 728.509091 78.865457 
L 729.143182 78.837436 
L 729.777273 79.117646 
L 731.045455 86.164948 
L 732.313636 96.00385 
L 734.85 102.315599 
L 736.118182 99.464454 
L 737.386364 102.686878 
L 739.922727 95.61856 
L 741.190909 92.788431 
L 744.995455 82.65881 
L 745.629545 82.791911 
L 746.263636 89.678091 
L 747.531818 88.777914 
L 748.8 91.580022 
L 750.068182 94.809452 
L 751.336364 105.951334 
L 752.604545 110.122972 
L 755.140909 117.503024 
L 756.409091 127.723713 
L 757.677273 131.503057 
L 758.945455 134.270138 
L 760.213636 130.665927 
L 760.847727 130.312161 
L 761.481818 130.714964 
L 762.75 138.028466 
L 764.018182 141.622169 
L 765.286364 138.438274 
L 766.554545 134.683449 
L 767.822727 131.394475 
L 769.090909 134.11252 
L 770.359091 130.343684 
L 771.627273 133.576617 
L 772.895455 130.704456 
L 774.163636 133.933885 
L 774.797727 133.415495 
L 775.431818 133.583622 
L 776.065909 130.956646 
L 776.7 131.440009 
L 777.968182 138.294666 
L 779.236364 147.930415 
L 780.504545 144.707991 
L 781.772727 140.939156 
L 783.040909 131.086243 
L 784.309091 127.678179 
L 785.577273 116.87255 
L 786.845455 113.072191 
L 790.65 81.681575 
L 791.918182 84.889989 
L 793.186364 88.452169 
L 794.454545 85.594019 
L 795.722727 81.86021 
L 796.990909 84.774402 
L 798.259091 95.03362 
L 799.527273 99.152719 
L 800.795455 96.228019 
L 802.063636 92.448676 
L 804.6 98.977587 
L 805.868182 103.110697 
L 808.404545 95.580031 
L 809.672727 84.816434 
L 810.940909 81.958283 
L 812.209091 78.16493 
L 814.745455 84.637799 
L 816.013636 81.79366 
L 817.281818 78.024824 
L 817.915909 70.53619 
L 818.55 77.558974 
L 819.818182 84.988063 
L 821.086364 82.154431 
L 822.354545 77.891724 
L 823.622727 74.122889 
L 824.890909 77.320795 
L 826.159091 81.450401 
L 828.695455 75.565974 
L 829.963636 71.797139 
L 832.5 78.644791 
L 833.768182 75.502927 
L 835.036364 71.555457 
L 837.572727 78.252496 
L 838.840909 75.299774 
L 840.109091 71.548452 
L 841.377273 74.788389 
L 842.011364 81.390857 
L 842.645455 81.79366 
L 843.913636 75.082611 
L 845.181818 71.327786 
L 846.45 74.564221 
L 847.084091 81.215725 
L 847.718182 81.62203 
L 848.986364 75.089616 
L 851.522727 67.818146 
L 852.156818 67.572961 
L 852.790909 68.056325 
L 854.059091 68.220949 
L 855.327273 71.180675 
L 856.595455 67.828654 
L 857.863636 71.061586 
L 859.131818 68.238462 
L 860.4 71.04057 
L 861.668182 67.671035 
L 862.936364 70.886454 
L 864.204545 68.000283 
L 865.472727 70.809396 
L 866.740909 67.033555 
L 868.009091 70.259482 
L 869.277273 67.541437 
L 870.545455 71.716578 
L 871.813636 67.989775 
L 873.081818 71.100115 
L 874.35 67.317269 
L 875.618182 71.432865 
L 876.886364 68.445117 
L 878.154545 71.664039 
L 879.422727 67.905711 
L 880.690909 71.278749 
L 881.959091 68.241964 
L 883.227273 71.49241 
L 884.495455 67.699056 
L 885.763636 71.131638 
L 887.031818 67.3593 
L 888.3 70.613248 
L 889.568182 66.96 
L 892.104545 75.257743 
L 893.372727 85.355839 
L 894.640909 81.972294 
L 895.909091 78.203459 
L 897.177273 68.343541 
L 898.445455 71.180675 
L 900.981818 77.870708 
L 902.25 75.026569 
L 903.518182 71.345299 
L 904.786364 74.343555 
L 906.054545 77.863703 
L 907.322727 81.975797 
L 911.127273 71.033565 
L 913.663636 78.581743 
L 914.931818 81.818178 
L 916.2 78.03183 
L 917.468182 81.282275 
L 918.736364 85.429395 
L 920.004545 96.347108 
L 922.540909 88.805935 
L 923.175 81.54147 
L 923.809091 88.991575 
L 925.077273 89.166706 
L 928.881818 78.11239 
L 930.15 82.017828 
L 931.418182 78.263003 
L 932.686364 81.835691 
L 933.954545 78.294527 
L 933.954545 78.294527 
" clip-path="url(#p704e84fc08)" style="fill: none; stroke: #1f77b4; stroke-width: 1.5; stroke-linecap: square"/>
   </g>
   <g id="patch_7">
    <path d="M 135 384.48 
L 135 51.84 
" style="fill: none; stroke: #000000; stroke-width: 0.8; stroke-linejoin: miter; stroke-linecap: square"/>
   </g>
   <g id="patch_8">
    <path d="M 972 384.48 
L 972 51.84 
" style="fill: none; stroke: #000000; stroke-width: 0.8; stroke-linejoin: miter; stroke-linecap: square"/>
   </g>
   <g id="patch_9">
    <path d="M 135 384.48 
L 972 384.48 
" style="fill: none; stroke: #000000; stroke-width: 0.8; stroke-linejoin: miter; stroke-linecap: square"/>
   </g>
   <g id="patch_10">
    <path d="M 135 51.84 
L 972 51.84 
" style="fill: none; stroke: #000000; stroke-width: 0.8; stroke-linejoin: miter; stroke-linecap: square"/>
   </g>
   <g id="text_22">
    <!-- ./tcp/tp2_wave -->
    <g transform="translate(511.5 45.84) scale(0.12 -0.12)">
     <defs>
      <path id="Times New Roman-2e" d="M 800 25
Q 650 25 537 125 
Q 425 225 425 400 
Q 425 575 537 675 
Q 650 775 800 775 
Q 950 775 1062 662 
Q 1175 550 1175 400 
Q 1175 225 1062 125 
Q 950 25 800 25 
z
" transform="scale(0.015625)"/>
      <path id="Times New Roman-2f" d="M 400 -475
L 225 -375 
L 2775 4975 
L 2950 4875 
L 400 -475 
z
" transform="scale(0.015625)"/>
      <path id="Times New Roman-63" d="M 2150 2225
Q 2150 2300 2175 2325 
Q 2175 2350 2200 2425 
Q 2225 2525 2100 2662 
Q 1975 2800 1675 2800 
Q 1300 2800 1037 2437 
Q 775 2075 775 1475 
Q 775 925 1000 587 
Q 1225 250 1750 250 
Q 2100 250 2337 475 
Q 2575 700 2675 1000 
L 2800 950 
Q 2700 575 2425 312 
Q 2150 50 1675 50 
Q 1075 50 725 425 
Q 375 800 375 1500 
Q 375 2125 750 2537 
Q 1125 2950 1725 2950 
Q 2150 2950 2387 2725 
Q 2625 2500 2625 2275 
Q 2625 2125 2562 2062 
Q 2500 2000 2375 2000 
Q 2275 2000 2212 2062 
Q 2150 2125 2150 2225 
z
" transform="scale(0.015625)"/>
      <path id="Times New Roman-5f" d="M 0 -875
L 0 -725 
L 3175 -725 
L 3175 -875 
L 0 -875 
z
" transform="scale(0.015625)"/>
      <path id="Times New Roman-77" d="M 2325 2900
L 3175 2900 
L 3175 2750 
L 3075 2750 
Q 2975 2750 2900 2675 
Q 2825 2600 2775 2425 
L 2175 75 
L 2025 75 
L 1575 1975 
L 1100 75 
L 950 75 
L 375 2375 
Q 350 2550 275 2650 
Q 200 2750 125 2750 
L 25 2750 
L 25 2900 
L 925 2900 
L 925 2750 
L 825 2750 
Q 725 2750 700 2662 
Q 675 2575 700 2425 
L 1075 800 
L 1125 800 
L 1500 2300 
Q 1475 2525 1400 2637 
Q 1325 2750 1225 2750 
L 1150 2750 
L 1150 2900 
L 2000 2900 
L 2000 2750 
L 1925 2750 
Q 1825 2750 1800 2662 
Q 1775 2575 1800 2425 
L 2175 800 
L 2200 800 
L 2625 2550 
Q 2650 2650 2600 2700 
Q 2550 2750 2450 2750 
L 2325 2750 
L 2325 2900 
z
M 1725 2750 
L 1725 2750 
z
M 625 2750 
L 625 2750 
z
M 275 2750 
L 275 2750 
z
M 2875 2750 
L 2875 2750 
z
M 2675 2750 
L 2675 2750 
z
" transform="scale(0.015625)"/>
      <path id="Times New Roman-76" d="M 1625 75
L 1475 75 
L 625 2525 
Q 600 2625 525 2687 
Q 450 2750 350 2750 
L 225 2750 
L 225 2900 
L 1300 2900 
L 1300 2750 
L 1200 2750 
Q 1050 2750 1025 2700 
Q 1000 2650 1000 2600 
Q 1000 2500 1025 2425 
L 1625 675 
L 1675 675 
L 2275 2400 
Q 2325 2525 2325 2575 
Q 2325 2600 2275 2675 
Q 2225 2750 2075 2750 
L 2025 2750 
L 2025 2900 
L 2925 2900 
L 2925 2750 
L 2875 2750 
Q 2725 2750 2637 2662 
Q 2550 2575 2475 2400 
L 1625 75 
z
M 2600 2750 
L 2600 2750 
z
M 2400 2750 
L 2400 2750 
z
M 925 2750 
L 925 2750 
z
M 550 2750 
L 550 2750 
z
" transform="scale(0.015625)"/>
     </defs>
     <use xlink:href="#Times New Roman-2e"/>
     <use xlink:href="#Times New Roman-2f" x="50"/>
     <use xlink:href="#Times New Roman-74" x="100"/>
     <use xlink:href="#Times New Roman-63" x="150"/>
     <use xlink:href="#Times New Roman-70" x="200"/>
     <use xlink:href="#Times New Roman-2f" x="250"/>
     <use xlink:href="#Times New Roman-74" x="300"/>
     <use xlink:href="#Times New Roman-70" x="350"/>
     <use xlink:href="#Times New Roman-32" x="400"/>
     <use xlink:href="#Times New Roman-5f" x="450"/>
     <use xlink:href="#Times New Roman-77" x="500"/>
     <use xlink:href="#Times New Roman-61" x="550"/>
     <use xlink:href="#Times New Roman-76" x="600"/>
     <use xlink:href="#Times New Roman-65" x="650"/>
    </g>
   </g>
   <g id="legend_1">
    <g id="patch_11">
     <path d="M 903 379.48 
L 965 379.48 
Q 967 379.48 967 377.48 
L 967 365.0425 
Q 967 363.0425 965 363.0425 
L 903 363.0425 
Q 901 363.0425 901 365.0425 
L 901 377.48 
Q 901 379.48 903 379.48 
z
" style="fill: #ffffff; opacity: 0.8; stroke: #cccccc; stroke-linejoin: miter"/>
    </g>
    <g id="line2d_29">
     <path d="M 905 370.690938 
L 915 370.690938 
L 925 370.690938 
" style="fill: none; stroke: #1f77b4; stroke-width: 1.5; stroke-linecap: square"/>
    </g>
    <g id="text_23">
     <!-- buffer -->
     <g transform="translate(933 374.190938) scale(0.1 -0.1)">
      <use xlink:href="#Times New Roman-62"/>
      <use xlink:href="#Times New Roman-75" x="50"/>
      <use xlink:href="#Times New Roman-66" x="100"/>
      <use xlink:href="#Times New Roman-66" x="150"/>
      <use xlink:href="#Times New Roman-65" x="200"/>
      <use xlink:href="#Times New Roman-72" x="250"/>
     </g>
    </g>
   </g>
  </g>
 </g>
 <defs>
  <clipPath id="p704e84fc08">
   <rect x="135" y="51.84" width="837" height="332.64"/>
  </clipPath>
 </defs>
</svg>
