<?xml version="1.0" encoding="utf-8" standalone="no"?>
<!DOCTYPE svg PUBLIC "-//W3C//DTD SVG 1.1//EN"
  "http://www.w3.org/Graphics/SVG/1.1/DTD/svg11.dtd">
<svg xmlns:xlink="http://www.w3.org/1999/xlink" width="1080pt" height="432pt" viewBox="0 0 1080 432" xmlns="http://www.w3.org/2000/svg" version="1.1">
 <metadata>
  <rdf:RDF xmlns:dc="http://purl.org/dc/elements/1.1/" xmlns:cc="http://creativecommons.org/ns#" xmlns:rdf="http://www.w3.org/1999/02/22-rdf-syntax-ns#">
   <cc:Work>
    <dc:type rdf:resource="http://purl.org/dc/dcmitype/StillImage"/>
    <dc:date>2024-04-12T06:12:36.220611</dc:date>
    <dc:format>image/svg+xml</dc:format>
    <dc:creator>
     <cc:Agent>
      <dc:title>Matplotlib v3.8.3, https://matplotlib.org/</dc:title>
     </cc:Agent>
    </dc:creator>
   </cc:Work>
  </rdf:RDF>
 </metadata>
 <defs>
  <style type="text/css">*{stroke-linejoin: round; stroke-linecap: butt}</style>
 </defs>
 <g id="figure_1">
  <g id="patch_1">
   <path d="M 0 432 
L 1080 432 
L 1080 0 
L 0 0 
z
" style="fill: #ffffff"/>
  </g>
  <g id="axes_1">
   <g id="patch_2">
    <path d="M 135 384.48 
L 972 384.48 
L 972 51.84 
L 135 51.84 
z
" style="fill: #ffffff"/>
   </g>
   <g id="matplotlib.axis_1">
    <g id="xtick_1">
     <g id="line2d_1">
      <defs>
       <path id="md87523a8c8" d="M 0 0 
L 0 3.5 
" style="stroke: #000000; stroke-width: 0.8"/>
      </defs>
      <g>
       <use xlink:href="#md87523a8c8" x="173.045455" y="384.48" style="stroke: #000000; stroke-width: 0.8"/>
      </g>
     </g>
     <g id="text_1">
      <!-- 0 -->
      <g transform="translate(170.545455 398.628438) scale(0.1 -0.1)">
       <defs>
        <path id="Times New Roman-30" d="M 1600 4225
Q 1250 4225 1012 3687 
Q 775 3150 775 2250 
Q 775 1300 1012 775 
Q 1250 250 1600 250 
Q 1975 250 2187 775 
Q 2400 1300 2400 2250 
Q 2400 3150 2200 3687 
Q 2000 4225 1600 4225 
z
M 1600 50 
Q 1050 50 675 625 
Q 300 1200 300 2250 
Q 300 3225 662 3825 
Q 1025 4425 1600 4425 
Q 2150 4425 2512 3850 
Q 2875 3275 2875 2250 
Q 2875 1225 2512 637 
Q 2150 50 1600 50 
z
" transform="scale(0.015625)"/>
       </defs>
       <use xlink:href="#Times New Roman-30"/>
      </g>
     </g>
    </g>
    <g id="xtick_2">
     <g id="line2d_2">
      <g>
       <use xlink:href="#md87523a8c8" x="299.863636" y="384.48" style="stroke: #000000; stroke-width: 0.8"/>
      </g>
     </g>
     <g id="text_2">
      <!-- 100 -->
      <g transform="translate(292.363636 398.628438) scale(0.1 -0.1)">
       <defs>
        <path id="Times New Roman-31" d="M 1825 4450
L 1825 650 
Q 1825 450 1950 350 
Q 2075 250 2300 250 
L 2550 250 
L 2550 100 
L 725 100 
L 725 250 
L 950 250 
Q 1200 250 1312 350 
Q 1425 450 1425 650 
L 1425 3675 
Q 1425 3775 1362 3837 
Q 1300 3900 1175 3900 
L 725 3900 
L 725 4050 
L 950 4050 
Q 1250 4050 1437 4150 
Q 1625 4250 1725 4450 
L 1825 4450 
z
" transform="scale(0.015625)"/>
       </defs>
       <use xlink:href="#Times New Roman-31"/>
       <use xlink:href="#Times New Roman-30" x="50"/>
       <use xlink:href="#Times New Roman-30" x="100"/>
      </g>
     </g>
    </g>
    <g id="xtick_3">
     <g id="line2d_3">
      <g>
       <use xlink:href="#md87523a8c8" x="426.681818" y="384.48" style="stroke: #000000; stroke-width: 0.8"/>
      </g>
     </g>
     <g id="text_3">
      <!-- 200 -->
      <g transform="translate(419.181818 398.628438) scale(0.1 -0.1)">
       <defs>
        <path id="Times New Roman-32" d="M 2325 3325
Q 2325 3775 2125 4012 
Q 1925 4250 1525 4250 
Q 1225 4250 1012 4087 
Q 800 3925 800 3675 
Q 800 3525 900 3425 
Q 975 3325 975 3225 
Q 975 3100 912 3037 
Q 850 2975 725 2975 
Q 575 2975 487 3062 
Q 400 3150 400 3350 
Q 400 3875 775 4150 
Q 1150 4425 1575 4425 
Q 2175 4425 2462 4125 
Q 2750 3825 2750 3375 
Q 2750 3075 2612 2775 
Q 2475 2475 2175 2200 
Q 1450 1500 1062 1062 
Q 675 625 600 475 
L 2075 475 
Q 2300 475 2450 650 
Q 2600 825 2650 1175 
L 2800 1175 
L 2650 100 
L 325 100 
L 325 425 
Q 450 650 737 1000 
Q 1025 1350 1500 1825 
Q 1925 2250 2125 2625 
Q 2325 3000 2325 3325 
z
" transform="scale(0.015625)"/>
       </defs>
       <use xlink:href="#Times New Roman-32"/>
       <use xlink:href="#Times New Roman-30" x="50"/>
       <use xlink:href="#Times New Roman-30" x="100"/>
      </g>
     </g>
    </g>
    <g id="xtick_4">
     <g id="line2d_4">
      <g>
       <use xlink:href="#md87523a8c8" x="553.5" y="384.48" style="stroke: #000000; stroke-width: 0.8"/>
      </g>
     </g>
     <g id="text_4">
      <!-- 300 -->
      <g transform="translate(546 398.628438) scale(0.1 -0.1)">
       <defs>
        <path id="Times New Roman-33" d="M 2800 1250
Q 2800 775 2450 412 
Q 2100 50 1475 50 
Q 1025 50 700 300 
Q 375 550 375 875 
Q 375 1025 475 1137 
Q 575 1250 675 1250 
Q 825 1250 887 1137 
Q 950 1025 950 950 
Q 950 825 900 750 
Q 850 650 850 575 
Q 850 425 1037 325 
Q 1225 225 1450 225 
Q 1900 225 2125 487 
Q 2350 750 2350 1300 
Q 2350 1750 2112 2025 
Q 1875 2300 1225 2300 
L 1225 2475 
Q 1725 2475 1962 2712 
Q 2200 2950 2200 3375 
Q 2200 3725 2012 3987 
Q 1825 4250 1425 4250 
Q 1250 4250 1050 4162 
Q 850 4075 850 3875 
Q 850 3675 900 3625 
Q 950 3575 950 3500 
Q 950 3375 900 3300 
Q 850 3225 725 3225 
Q 625 3225 537 3300 
Q 450 3375 450 3575 
Q 450 3950 775 4187 
Q 1100 4425 1525 4425 
Q 2025 4425 2325 4112 
Q 2625 3800 2625 3450 
Q 2625 3075 2437 2812 
Q 2250 2550 1850 2425 
Q 2400 2225 2600 1900 
Q 2800 1575 2800 1250 
z
" transform="scale(0.015625)"/>
       </defs>
       <use xlink:href="#Times New Roman-33"/>
       <use xlink:href="#Times New Roman-30" x="50"/>
       <use xlink:href="#Times New Roman-30" x="100"/>
      </g>
     </g>
    </g>
    <g id="xtick_5">
     <g id="line2d_5">
      <g>
       <use xlink:href="#md87523a8c8" x="680.318182" y="384.48" style="stroke: #000000; stroke-width: 0.8"/>
      </g>
     </g>
     <g id="text_5">
      <!-- 400 -->
      <g transform="translate(672.818182 398.628438) scale(0.1 -0.1)">
       <defs>
        <path id="Times New Roman-34" d="M 2300 575
Q 2300 400 2400 325 
Q 2500 250 2675 250 
L 2900 250 
L 2900 100 
L 1250 100 
L 1250 250 
L 1525 250 
Q 1725 250 1812 325 
Q 1900 400 1900 575 
L 1900 1400 
L 225 1400 
L 225 1525 
L 2050 4425 
L 2300 4425 
L 2300 1550 
L 2975 1550 
L 2975 1400 
L 2300 1400 
L 2300 575 
z
M 1875 3800 
L 450 1550 
L 1900 1550 
L 1900 3800 
L 1875 3800 
z
" transform="scale(0.015625)"/>
       </defs>
       <use xlink:href="#Times New Roman-34"/>
       <use xlink:href="#Times New Roman-30" x="50"/>
       <use xlink:href="#Times New Roman-30" x="100"/>
      </g>
     </g>
    </g>
    <g id="xtick_6">
     <g id="line2d_6">
      <g>
       <use xlink:href="#md87523a8c8" x="807.136364" y="384.48" style="stroke: #000000; stroke-width: 0.8"/>
      </g>
     </g>
     <g id="text_6">
      <!-- 500 -->
      <g transform="translate(799.636364 398.628438) scale(0.1 -0.1)">
       <defs>
        <path id="Times New Roman-35" d="M 1725 2850
Q 2200 2850 2500 2487 
Q 2800 2125 2800 1525 
Q 2800 850 2487 450 
Q 2175 50 1525 50 
Q 1075 50 725 312 
Q 375 575 375 950 
Q 375 1100 462 1212 
Q 550 1325 700 1325 
Q 850 1325 900 1225 
Q 950 1125 950 1050 
Q 950 900 875 825 
Q 800 725 800 625 
Q 800 425 1037 325 
Q 1275 225 1550 225 
Q 1950 225 2162 550 
Q 2375 875 2375 1475 
Q 2375 1975 2187 2287 
Q 2000 2600 1625 2600 
Q 1350 2600 1150 2500 
Q 950 2400 775 2075 
L 550 2100 
L 675 4375 
L 2725 4375 
L 2650 4000 
L 850 4000 
L 750 2350 
Q 1000 2700 1237 2775 
Q 1475 2850 1725 2850 
z
" transform="scale(0.015625)"/>
       </defs>
       <use xlink:href="#Times New Roman-35"/>
       <use xlink:href="#Times New Roman-30" x="50"/>
       <use xlink:href="#Times New Roman-30" x="100"/>
      </g>
     </g>
    </g>
    <g id="xtick_7">
     <g id="line2d_7">
      <g>
       <use xlink:href="#md87523a8c8" x="933.954545" y="384.48" style="stroke: #000000; stroke-width: 0.8"/>
      </g>
     </g>
     <g id="text_7">
      <!-- 600 -->
      <g transform="translate(926.454545 398.628438) scale(0.1 -0.1)">
       <defs>
        <path id="Times New Roman-36" d="M 775 1800
Q 775 1050 1037 637 
Q 1300 225 1675 225 
Q 2050 225 2250 500 
Q 2450 775 2450 1525 
Q 2450 2025 2237 2300 
Q 2025 2575 1725 2575 
Q 1450 2575 1212 2412 
Q 975 2250 775 1800 
z
M 1750 2825 
Q 2350 2825 2612 2425 
Q 2875 2025 2875 1525 
Q 2875 775 2512 412 
Q 2150 50 1675 50 
Q 1000 50 650 562 
Q 300 1075 300 2050 
Q 300 3200 725 3812 
Q 1150 4425 1875 4425 
Q 2225 4425 2437 4225 
Q 2650 4025 2650 3875 
Q 2650 3725 2587 3650 
Q 2525 3575 2375 3575 
Q 2250 3575 2187 3637 
Q 2125 3700 2125 3825 
Q 2125 3875 2150 3925 
Q 2150 3975 2150 4025 
Q 2150 4125 2075 4187 
Q 2000 4250 1800 4250 
Q 1375 4250 1075 3862 
Q 775 3475 775 2175 
Q 925 2500 1187 2662 
Q 1450 2825 1750 2825 
z
" transform="scale(0.015625)"/>
       </defs>
       <use xlink:href="#Times New Roman-36"/>
       <use xlink:href="#Times New Roman-30" x="50"/>
       <use xlink:href="#Times New Roman-30" x="100"/>
      </g>
     </g>
    </g>
   </g>
   <g id="matplotlib.axis_2">
    <g id="ytick_1">
     <g id="line2d_8">
      <defs>
       <path id="m48cdec478b" d="M 0 0 
L -3.5 0 
" style="stroke: #000000; stroke-width: 0.8"/>
      </defs>
      <g>
       <use xlink:href="#m48cdec478b" x="135" y="378.249838" style="stroke: #000000; stroke-width: 0.8"/>
      </g>
     </g>
     <g id="text_8">
      <!-- 0 -->
      <g transform="translate(123 381.824057) scale(0.1 -0.1)">
       <use xlink:href="#Times New Roman-30"/>
      </g>
     </g>
    </g>
    <g id="ytick_2">
     <g id="line2d_9">
      <g>
       <use xlink:href="#m48cdec478b" x="135" y="315.645345" style="stroke: #000000; stroke-width: 0.8"/>
      </g>
     </g>
     <g id="text_9">
      <!-- 1000 -->
      <g transform="translate(108 319.219564) scale(0.1 -0.1)">
       <use xlink:href="#Times New Roman-31"/>
       <use xlink:href="#Times New Roman-30" x="50"/>
       <use xlink:href="#Times New Roman-30" x="100"/>
       <use xlink:href="#Times New Roman-30" x="150"/>
      </g>
     </g>
    </g>
    <g id="ytick_3">
     <g id="line2d_10">
      <g>
       <use xlink:href="#m48cdec478b" x="135" y="253.040853" style="stroke: #000000; stroke-width: 0.8"/>
      </g>
     </g>
     <g id="text_10">
      <!-- 2000 -->
      <g transform="translate(108 256.615071) scale(0.1 -0.1)">
       <use xlink:href="#Times New Roman-32"/>
       <use xlink:href="#Times New Roman-30" x="50"/>
       <use xlink:href="#Times New Roman-30" x="100"/>
       <use xlink:href="#Times New Roman-30" x="150"/>
      </g>
     </g>
    </g>
    <g id="ytick_4">
     <g id="line2d_11">
      <g>
       <use xlink:href="#m48cdec478b" x="135" y="190.43636" style="stroke: #000000; stroke-width: 0.8"/>
      </g>
     </g>
     <g id="text_11">
      <!-- 3000 -->
      <g transform="translate(108 194.010579) scale(0.1 -0.1)">
       <use xlink:href="#Times New Roman-33"/>
       <use xlink:href="#Times New Roman-30" x="50"/>
       <use xlink:href="#Times New Roman-30" x="100"/>
       <use xlink:href="#Times New Roman-30" x="150"/>
      </g>
     </g>
    </g>
    <g id="ytick_5">
     <g id="line2d_12">
      <g>
       <use xlink:href="#m48cdec478b" x="135" y="127.831867" style="stroke: #000000; stroke-width: 0.8"/>
      </g>
     </g>
     <g id="text_12">
      <!-- 4000 -->
      <g transform="translate(108 131.406086) scale(0.1 -0.1)">
       <use xlink:href="#Times New Roman-34"/>
       <use xlink:href="#Times New Roman-30" x="50"/>
       <use xlink:href="#Times New Roman-30" x="100"/>
       <use xlink:href="#Times New Roman-30" x="150"/>
      </g>
     </g>
    </g>
    <g id="ytick_6">
     <g id="line2d_13">
      <g>
       <use xlink:href="#m48cdec478b" x="135" y="65.227375" style="stroke: #000000; stroke-width: 0.8"/>
      </g>
     </g>
     <g id="text_13">
      <!-- 5000 -->
      <g transform="translate(108 68.801594) scale(0.1 -0.1)">
       <use xlink:href="#Times New Roman-35"/>
       <use xlink:href="#Times New Roman-30" x="50"/>
       <use xlink:href="#Times New Roman-30" x="100"/>
       <use xlink:href="#Times New Roman-30" x="150"/>
      </g>
     </g>
    </g>
    <g id="text_14">
     <!-- Bitrate (kbps) -->
     <g transform="translate(102.710938 253.16) rotate(-90) scale(0.1 -0.1)">
      <defs>
       <path id="Times New Roman-42" d="M 100 100
L 100 250 
L 300 250 
Q 425 250 475 300 
Q 525 350 525 450 
L 525 4025 
Q 525 4125 475 4175 
Q 425 4225 300 4225 
L 150 4225 
L 150 4375 
L 1600 4375 
Q 2200 4375 2487 4137 
Q 2775 3900 2775 3400 
Q 2775 3050 2625 2825 
Q 2475 2600 2000 2425 
Q 2575 2250 2775 1925 
Q 2975 1600 2975 1200 
Q 2975 700 2625 400 
Q 2275 100 1675 100 
L 100 100 
z
M 1600 250 
Q 2025 250 2262 512 
Q 2500 775 2500 1250 
Q 2500 1800 2250 2062 
Q 2000 2325 1500 2325 
L 925 2325 
L 925 450 
Q 925 350 987 300 
Q 1050 250 1150 250 
L 1600 250 
z
M 2350 3400 
Q 2350 3850 2100 4037 
Q 1850 4225 1450 4225 
L 1150 4225 
Q 1050 4225 987 4175 
Q 925 4125 925 4025 
L 925 2475 
L 1575 2475 
Q 1850 2475 2100 2700 
Q 2350 2925 2350 3400 
z
" transform="scale(0.015625)"/>
       <path id="Times New Roman-69" d="M 1425 2525
Q 1425 2625 1375 2687 
Q 1325 2750 1200 2750 
L 675 2750 
L 675 2900 
L 925 2900 
Q 1150 2900 1350 2937 
Q 1550 2975 1725 3075 
L 1775 3075 
L 1775 450 
Q 1775 350 1837 300 
Q 1900 250 2000 250 
L 2525 250 
L 2525 100 
L 675 100 
L 675 250 
L 1200 250 
Q 1325 250 1375 300 
Q 1425 350 1425 450 
L 1425 2525 
z
M 1725 3025 
L 1725 3025 
z
M 1625 4425 
Q 1750 4425 1850 4337 
Q 1950 4250 1950 4125 
Q 1950 4000 1850 3900 
Q 1750 3800 1625 3800 
Q 1500 3800 1400 3900 
Q 1300 4000 1300 4125 
Q 1300 4250 1400 4337 
Q 1500 4425 1625 4425 
z
" transform="scale(0.015625)"/>
       <path id="Times New Roman-74" d="M 1500 900
Q 1500 550 1625 425 
Q 1750 300 2000 300 
Q 2250 300 2400 462 
Q 2550 625 2600 925 
L 2725 875 
Q 2675 525 2462 300 
Q 2250 75 1900 75 
Q 1525 75 1337 300 
Q 1150 525 1150 1000 
L 1150 2750 
L 400 2750 
L 400 2900 
L 600 2900 
Q 900 2900 1087 3087 
Q 1275 3275 1325 3675 
L 1350 3875 
L 1500 3875 
L 1500 2900 
L 2500 2900 
L 2500 2750 
L 1500 2750 
L 1500 900 
z
" transform="scale(0.015625)"/>
       <path id="Times New Roman-72" d="M 1275 2125
Q 1525 2525 1812 2737 
Q 2100 2950 2400 2950 
Q 2650 2950 2787 2837 
Q 2925 2725 2925 2575 
Q 2925 2450 2862 2375 
Q 2800 2300 2675 2300 
Q 2550 2300 2487 2375 
Q 2425 2450 2450 2575 
Q 2450 2650 2425 2700 
Q 2400 2750 2275 2750 
Q 2075 2750 1787 2500 
Q 1500 2250 1275 1800 
L 1275 450 
Q 1275 350 1337 300 
Q 1400 250 1500 250 
L 2050 250 
L 2050 100 
L 200 100 
L 200 250 
L 700 250 
Q 825 250 875 300 
Q 925 350 925 450 
L 925 2525 
Q 925 2625 875 2687 
Q 825 2750 700 2750 
L 225 2750 
L 225 2900 
L 425 2900 
Q 600 2900 837 2937 
Q 1075 2975 1200 3025 
L 1275 3025 
L 1275 2125 
z
" transform="scale(0.015625)"/>
       <path id="Times New Roman-61" d="M 1225 75
Q 775 75 525 287 
Q 275 500 275 775 
Q 275 1225 662 1512 
Q 1050 1800 2200 1925 
L 2200 2225 
Q 2200 2475 2087 2637 
Q 1975 2800 1575 2800 
Q 1150 2800 975 2662 
Q 800 2525 850 2375 
Q 875 2325 875 2275 
Q 875 2225 837 2150 
Q 800 2075 650 2075 
Q 550 2075 487 2137 
Q 425 2200 425 2325 
Q 425 2550 750 2750 
Q 1075 2950 1550 2950 
Q 2050 2950 2300 2762 
Q 2550 2575 2550 2225 
L 2550 575 
Q 2550 375 2587 337 
Q 2625 300 2725 300 
Q 2850 300 2900 412 
Q 2950 525 2950 725 
L 3075 725 
Q 3075 375 2950 237 
Q 2825 100 2625 100 
Q 2450 100 2350 175 
Q 2250 250 2200 425 
Q 1950 250 1737 162 
Q 1525 75 1225 75 
z
M 700 850 
Q 700 625 837 437 
Q 975 250 1275 250 
Q 1500 250 1725 337 
Q 1950 425 2200 600 
L 2200 1775 
Q 1350 1675 1025 1437 
Q 700 1200 700 850 
z
" transform="scale(0.015625)"/>
       <path id="Times New Roman-65" d="M 2400 1650
Q 2425 2200 2212 2487 
Q 2000 2775 1650 2775 
Q 1275 2775 1037 2475 
Q 800 2175 800 1650 
L 2400 1650 
z
M 800 1500 
Q 800 825 1062 537 
Q 1325 250 1750 250 
Q 2075 250 2300 437 
Q 2525 625 2625 900 
L 2750 850 
Q 2675 575 2412 312 
Q 2150 50 1700 50 
Q 1125 50 762 425 
Q 400 800 400 1500 
Q 400 2125 762 2537 
Q 1125 2950 1650 2950 
Q 2125 2950 2475 2625 
Q 2825 2300 2825 1500 
L 800 1500 
z
" transform="scale(0.015625)"/>
       <path id="Times New Roman-20" d="M 0 0
Q 0 0 0 0 
z
" transform="scale(0.015625)"/>
       <path id="Times New Roman-28" d="M 2900 5025
Q 2325 4425 2037 3737 
Q 1750 3050 1750 2300 
Q 1750 1525 2037 850 
Q 2325 175 2900 -425 
L 2775 -550 
Q 2075 75 1725 787 
Q 1375 1500 1375 2300 
Q 1375 3075 1725 3787 
Q 2075 4500 2775 5150 
L 2900 5025 
z
" transform="scale(0.015625)"/>
       <path id="Times New Roman-6b" d="M 1675 1900
L 2625 425 
Q 2700 325 2762 287 
Q 2825 250 2900 250 
L 3000 250 
L 3000 100 
L 1975 100 
L 1975 250 
L 2050 250 
Q 2175 250 2225 287 
Q 2275 325 2200 425 
L 1425 1650 
L 925 1125 
L 925 450 
Q 925 350 987 300 
Q 1050 250 1150 250 
L 1275 250 
L 1275 100 
L 225 100 
L 225 250 
L 350 250 
Q 475 250 525 300 
Q 575 350 575 450 
L 575 4025 
Q 575 4125 525 4175 
Q 475 4225 350 4225 
L 200 4225 
L 200 4375 
L 425 4375 
Q 575 4375 687 4425 
Q 800 4475 875 4575 
L 925 4575 
L 925 1400 
L 1975 2525 
Q 2025 2625 2012 2687 
Q 2000 2750 1900 2750 
L 1750 2750 
L 1750 2900 
L 2800 2900 
L 2800 2750 
L 2675 2750 
Q 2600 2750 2487 2712 
Q 2375 2675 2275 2575 
L 1675 1900 
z
M 2450 2750 
L 2450 2750 
z
M 2175 2750 
L 2175 2750 
z
M 2300 250 
L 2300 250 
z
M 2750 250 
L 2750 250 
z
" transform="scale(0.015625)"/>
       <path id="Times New Roman-62" d="M 875 2325
Q 1000 2600 1275 2762 
Q 1550 2925 1800 2925 
Q 2325 2925 2587 2562 
Q 2850 2200 2850 1500 
Q 2850 800 2512 437 
Q 2175 75 1675 75 
Q 1425 75 1212 162 
Q 1000 250 850 400 
L 625 100 
L 525 100 
L 525 4025 
Q 525 4125 475 4175 
Q 425 4225 300 4225 
L 150 4225 
L 150 4375 
L 375 4375 
Q 500 4375 625 4425 
Q 750 4475 875 4575 
L 875 2325 
z
M 875 925 
Q 875 650 1062 450 
Q 1250 250 1625 250 
Q 2075 250 2262 562 
Q 2450 875 2450 1500 
Q 2450 2100 2287 2412 
Q 2125 2725 1775 2725 
Q 1475 2725 1250 2550 
Q 1025 2375 875 1925 
L 875 925 
z
" transform="scale(0.015625)"/>
       <path id="Times New Roman-70" d="M 1150 -675
L 1325 -675 
L 1325 -825 
L 175 -825 
L 175 -675 
L 325 -675 
Q 450 -675 500 -625 
Q 550 -575 550 -450 
L 550 2500 
Q 550 2600 500 2662 
Q 450 2725 325 2725 
L 175 2725 
L 175 2875 
L 400 2875 
Q 525 2875 637 2900 
Q 750 2925 850 3000 
L 900 3000 
L 900 2425 
Q 1075 2675 1287 2800 
Q 1500 2925 1750 2925 
Q 2250 2925 2575 2587 
Q 2900 2250 2900 1525 
Q 2900 825 2550 450 
Q 2200 75 1725 75 
Q 1450 75 1262 162 
Q 1075 250 900 425 
L 900 -450 
Q 900 -575 975 -625 
Q 1050 -675 1150 -675 
z
M 900 750 
Q 1025 500 1212 375 
Q 1400 250 1650 250 
Q 2000 250 2250 562 
Q 2500 875 2500 1525 
Q 2500 2125 2312 2425 
Q 2125 2725 1750 2725 
Q 1525 2725 1300 2587 
Q 1075 2450 900 2150 
L 900 750 
z
" transform="scale(0.015625)"/>
       <path id="Times New Roman-73" d="M 625 2175
Q 625 2550 912 2750 
Q 1200 2950 1600 2950 
Q 1825 2950 2025 2900 
Q 2225 2825 2300 2825 
Q 2375 2825 2425 2850 
Q 2475 2875 2550 2950 
L 2650 2125 
L 2500 2100 
Q 2400 2425 2162 2612 
Q 1925 2800 1625 2800 
Q 1300 2800 1112 2675 
Q 925 2550 925 2325 
Q 925 2125 1012 2012 
Q 1100 1900 1325 1850 
Q 1500 1775 1775 1700 
Q 2025 1600 2250 1500 
Q 2450 1400 2587 1237 
Q 2725 1075 2725 875 
Q 2725 500 2462 287 
Q 2200 75 1700 75 
Q 1375 75 1225 150 
Q 1050 200 950 200 
Q 875 200 787 162 
Q 700 125 600 75 
L 525 1000 
L 675 1025 
Q 750 625 1000 425 
Q 1250 225 1700 225 
Q 2050 225 2237 350 
Q 2425 475 2425 725 
Q 2425 900 2325 1012 
Q 2225 1125 2125 1175 
Q 1875 1275 1575 1400 
Q 1275 1500 1050 1600 
Q 825 1700 725 1850 
Q 625 2000 625 2175 
z
" transform="scale(0.015625)"/>
       <path id="Times New Roman-29" d="M 275 5025
L 400 5150 
Q 1100 4500 1450 3787 
Q 1800 3075 1800 2300 
Q 1800 1500 1450 787 
Q 1100 75 400 -550 
L 275 -425 
Q 850 175 1137 850 
Q 1425 1525 1425 2300 
Q 1425 3050 1137 3737 
Q 850 4425 275 5025 
z
" transform="scale(0.015625)"/>
      </defs>
      <use xlink:href="#Times New Roman-42"/>
      <use xlink:href="#Times New Roman-69" x="50"/>
      <use xlink:href="#Times New Roman-74" x="100"/>
      <use xlink:href="#Times New Roman-72" x="150"/>
      <use xlink:href="#Times New Roman-61" x="200"/>
      <use xlink:href="#Times New Roman-74" x="250"/>
      <use xlink:href="#Times New Roman-65" x="300"/>
      <use xlink:href="#Times New Roman-20" x="350"/>
      <use xlink:href="#Times New Roman-28" x="400"/>
      <use xlink:href="#Times New Roman-6b" x="450"/>
      <use xlink:href="#Times New Roman-62" x="500"/>
      <use xlink:href="#Times New Roman-70" x="550"/>
      <use xlink:href="#Times New Roman-73" x="600"/>
      <use xlink:href="#Times New Roman-29" x="650"/>
     </g>
    </g>
   </g>
   <g id="line2d_14">
    <path d="M 173.045455 309.823127 
L 174.314904 309.823127 
L 174.947727 369.36 
L 194.604545 369.36 
L 195.872727 337.744731 
L 197.140909 337.744731 
L 197.775 369.36 
L 199.677273 369.36 
L 200.945455 309.823127 
L 215.529545 309.823127 
L 216.164904 259.050884 
L 238.990909 259.050884 
L 239.625 134.96878 
L 242.161364 134.96878 
L 243.429545 259.050884 
L 245.965909 259.050884 
L 247.234091 134.96878 
L 263.086364 134.96878 
L 263.720455 259.050884 
L 298.595455 259.050884 
L 299.229545 309.823127 
L 313.813636 309.823127 
L 315.081818 337.744731 
L 315.715909 337.744731 
L 316.35 369.36 
L 339.811364 369.36 
L 340.445455 337.744731 
L 341.713636 369.36 
L 354.395455 369.36 
L 355.029545 134.96878 
L 356.931818 134.96878 
L 358.2 309.823127 
L 360.736364 309.823127 
L 361.370455 134.96878 
L 363.272727 309.823127 
L 365.175 309.823127 
L 365.809091 259.050884 
L 380.393182 259.050884 
L 382.295455 134.96878 
L 435.559091 134.96878 
L 436.827273 259.050884 
L 439.363636 259.050884 
L 439.997727 134.96878 
L 441.9 259.050884 
L 444.436364 259.050884 
L 445.704545 134.96878 
L 448.240909 134.96878 
L 449.509091 259.050884 
L 452.045455 259.050884 
L 453.313636 134.96878 
L 453.947727 134.96878 
L 455.215909 309.823127 
L 455.85 309.823127 
L 457.118182 337.744731 
L 459.020455 337.744731 
L 459.654545 309.823127 
L 460.922727 337.744731 
L 464.727273 337.744731 
L 465.361364 309.823127 
L 467.263636 337.744731 
L 471.068182 337.744731 
L 472.336364 369.36 
L 477.409091 369.36 
L 478.677273 309.823127 
L 480.579545 309.823127 
L 481.213636 369.36 
L 483.75 369.36 
L 485.018182 309.823127 
L 485.652273 369.36 
L 500.236364 369.36 
L 501.505814 259.050884 
L 502.138636 337.744731 
L 505.309091 337.744731 
L 506.577273 309.823127 
L 509.747727 309.823127 
L 511.65 259.050884 
L 518.625 259.050884 
L 519.259091 309.823127 
L 523.063636 309.823127 
L 523.697727 134.96878 
L 528.770455 134.96878 
L 530.672727 259.050884 
L 548.427273 259.050884 
L 549.695455 134.96878 
L 572.522727 134.96878 
L 573.790909 259.050884 
L 576.327273 259.050884 
L 577.595455 134.96878 
L 578.863636 259.050884 
L 581.4 259.050884 
L 582.668182 134.96878 
L 583.302273 134.96878 
L 583.936364 259.050884 
L 589.009091 259.050884 
L 589.643182 134.96878 
L 595.35 134.96878 
L 596.618182 259.050884 
L 599.154545 259.050884 
L 600.422727 134.96878 
L 604.861364 134.96878 
L 606.763636 309.823127 
L 618.811364 309.823127 
L 619.445455 337.744731 
L 630.225 337.744731 
L 630.859091 369.36 
L 646.077273 369.36 
L 647.345455 337.744731 
L 654.320455 337.744731 
L 656.222727 309.823127 
L 665.1 309.823127 
L 666.368182 259.050884 
L 672.075 259.050884 
L 672.709091 309.823127 
L 677.781818 309.823127 
L 679.05 134.96878 
L 687.293182 134.96878 
L 687.927273 259.050884 
L 689.829545 259.050884 
L 690.463636 134.96878 
L 691.731818 134.96878 
L 693 259.050884 
L 694.902273 259.050884 
L 696.804545 134.96878 
L 698.072727 259.050884 
L 700.609091 259.050884 
L 701.877273 134.96878 
L 702.511364 259.050884 
L 705.681818 259.050884 
L 706.95 134.96878 
L 710.120455 134.96878 
L 710.754545 259.050884 
L 712.656818 259.050884 
L 713.925 134.96878 
L 717.095455 134.96878 
L 718.363636 259.050884 
L 720.9 259.050884 
L 722.168182 134.96878 
L 723.436364 259.050884 
L 728.509091 259.050884 
L 729.143182 134.96878 
L 732.313636 134.96878 
L 733.583086 259.050884 
L 738.654545 259.050884 
L 739.288636 134.96878 
L 741.190909 134.96878 
L 742.459091 259.050884 
L 752.604545 259.050884 
L 753.872727 309.823127 
L 764.652273 309.823127 
L 765.286364 337.744731 
L 770.993182 337.744731 
L 772.895455 369.36 
L 789.381818 369.36 
L 790.65 337.744731 
L 793.820455 337.744731 
L 794.454545 369.36 
L 799.527273 369.36 
L 800.795455 259.050884 
L 802.063636 369.36 
L 814.111364 369.36 
L 816.013636 134.96878 
L 817.283086 134.96878 
L 817.915909 259.050884 
L 824.890909 259.050884 
L 826.159091 134.96878 
L 826.793182 259.050884 
L 829.963636 259.050884 
L 830.597727 134.96878 
L 832.5 259.050884 
L 835.036364 259.050884 
L 836.304545 134.96878 
L 904.152273 134.96878 
L 906.054545 309.823127 
L 908.590909 309.823127 
L 909.859091 134.96878 
L 910.493182 134.96878 
L 911.127273 309.823127 
L 916.2 309.823127 
L 916.834091 259.050884 
L 918.736364 259.050884 
L 920.005814 134.96878 
L 920.638636 337.744731 
L 927.613636 337.744731 
L 928.881818 369.36 
L 933.954545 369.36 
L 933.954545 369.36 
" clip-path="url(#pe5b5f20334)" style="fill: none; stroke: #ff0000; stroke-width: 1.5; stroke-linecap: square"/>
   </g>
   <g id="line2d_15">
    <path d="M 173.045455 351.891844 
L 174.947727 351.792901 
L 176.85 351.527249 
L 177.484091 351.178534 
L 178.118182 350.429996 
L 178.752273 349.493574 
L 180.654545 347.939247 
L 181.288636 346.217139 
L 183.190909 345.38672 
L 183.825 346.029726 
L 185.093182 347.725824 
L 186.995455 347.597343 
L 188.263636 345.059407 
L 188.897727 339.294284 
L 190.165909 331.802914 
L 192.068182 322.421923 
L 193.336364 314.316561 
L 193.970455 308.136646 
L 194.604545 303.920709 
L 195.872727 299.136524 
L 198.409091 279.938214 
L 200.945455 270.704802 
L 201.579545 266.10399 
L 203.481818 260.455528 
L 204.115909 254.672777 
L 206.018182 247.866917 
L 207.286364 241.011341 
L 208.554545 233.490421 
L 209.188636 226.735547 
L 211.090909 219.569453 
L 213.627273 205.109684 
L 214.895455 197.898949 
L 216.163636 183.317712 
L 216.164904 177.16591 
L 216.797727 172.314546 
L 218.065909 168.541215 
L 219.968182 164.228851 
L 220.602273 159.846603 
L 221.870455 154.952634 
L 223.772727 149.695326 
L 224.406818 143.750504 
L 226.309091 137.386315 
L 226.943182 131.45221 
L 228.845455 125.03166 
L 230.113636 118.853381 
L 230.747727 112.917374 
L 232.015909 121.06544 
L 234.552273 168.734371 
L 236.454545 180.045283 
L 237.088636 176.419164 
L 238.990909 164.549386 
L 239.625 142.361385 
L 241.527273 120.1826 
L 242.161364 106.294987 
L 243.429545 102.962959 
L 244.697727 95.437532 
L 247.234091 72.905323 
L 250.404545 105.756755 
L 251.672727 125.540042 
L 252.940909 126.860747 
L 254.209091 127.741917 
L 258.013636 75.42543 
L 259.281818 77.183364 
L 260.55 80.402069 
L 261.818182 83.240774 
L 263.720455 91.83188 
L 264.988636 94.673289 
L 266.890909 97.848756 
L 267.525 101.495109 
L 268.793182 105.479893 
L 270.695455 110.147317 
L 271.963636 115.800119 
L 272.597727 121.832821 
L 274.5 128.530467 
L 277.036364 142.766728 
L 279.572727 157.792274 
L 282.109091 173.055383 
L 283.377273 185.796549 
L 284.011364 190.940301 
L 285.913636 196.188327 
L 286.547727 201.366537 
L 288.45 207.577637 
L 289.718182 214.19752 
L 296.059091 253.897416 
L 297.327273 261.096265 
L 298.595455 273.623741 
L 299.229545 278.506724 
L 300.497727 282.823663 
L 302.4 286.950785 
L 303.034091 291.519477 
L 304.302273 296.309105 
L 306.204545 301.682139 
L 307.472727 307.575276 
L 308.106818 313.290381 
L 309.375 318.377806 
L 311.277273 323.096449 
L 313.813636 331.958974 
L 315.081818 335.751738 
L 316.35 343.252992 
L 317.618182 346.389193 
L 318.886364 348.957613 
L 320.154545 350.49371 
L 321.422727 351.853914 
L 322.056818 352.32056 
L 323.959091 352.645435 
L 324.593182 352.610443 
L 325.227273 352.962731 
L 327.763636 353.145537 
L 329.031818 352.764567 
L 330.3 352.901496 
L 331.568182 352.44233 
L 332.836364 351.526401 
L 334.104545 348.99748 
L 334.738636 346.385854 
L 336.640909 342.468249 
L 337.909091 338.434983 
L 339.177273 333.723954 
L 339.178541 330.057434 
L 340.445455 323.389204 
L 342.981818 321.847931 
L 344.25 320.590099 
L 346.786364 312.203067 
L 349.322727 300.046176 
L 349.956818 293.409432 
L 351.225 288.168517 
L 352.493182 282.346567 
L 353.127273 278.199946 
L 354.395455 281.47982 
L 355.029545 292.886258 
L 356.931818 302.027316 
L 358.2 305.259778 
L 359.468182 304.680811 
L 360.736364 296.104029 
L 361.370455 277.744886 
L 363.272727 254.929338 
L 364.540909 237.407559 
L 365.809091 204.819534 
L 367.711364 185.402324 
L 368.979545 184.703959 
L 370.881818 190.6602 
L 372.15 211.258414 
L 372.784091 242.287938 
L 374.052273 271.610414 
L 375.954545 287.809819 
L 376.588636 289.379038 
L 378.490909 278.909129 
L 379.125 258.891919 
L 380.393182 247.162107 
L 382.295455 248.646485 
L 383.563636 257.215587 
L 384.831818 259.81516 
L 386.1 258.494889 
L 387.368182 262.739875 
L 388.636364 255.318855 
L 389.904545 255.429473 
L 391.172727 244.47796 
L 392.440909 248.508187 
L 394.343182 222.501346 
L 396.245455 197.466661 
L 397.513636 191.950654 
L 398.147727 179.364146 
L 399.415909 179.571726 
L 401.318182 171.862559 
L 402.586364 175.16674 
L 403.854545 177.428215 
L 405.122727 193.161175 
L 405.756818 217.729882 
L 407.659091 252.665994 
L 409.561364 294.919118 
L 411.463636 288.321339 
L 414 251.645424 
L 415.268182 251.93287 
L 415.902273 267.948034 
L 416.536364 280.177613 
L 417.170455 279.10933 
L 419.072727 265.067192 
L 419.706818 242.965302 
L 420.975 221.399273 
L 422.243182 209.750931 
L 424.145455 210.298812 
L 425.413636 224.140515 
L 426.047727 241.570207 
L 427.95 255.625867 
L 429.218182 257.719996 
L 429.852273 250.454736 
L 431.754545 241.983731 
L 432.388636 234.704347 
L 434.290909 225.092438 
L 435.559091 221.27934 
L 436.827273 227.607803 
L 437.461364 237.596608 
L 439.363636 241.884932 
L 439.997727 241.523663 
L 441.9 243.421063 
L 442.534091 245.874391 
L 443.168182 244.088343 
L 444.436364 242.191711 
L 445.704545 250.559711 
L 448.240909 274.839871 
L 450.777273 287.963241 
L 452.045455 288.207783 
L 453.313636 290.614266 
L 455.215909 305.775038 
L 455.85 312.970714 
L 457.118182 317.899274 
L 458.386364 323.613512 
L 459.654545 335.505193 
L 460.922727 340.486574 
L 462.190909 343.894896 
L 463.459091 344.927787 
L 464.727273 342.618933 
L 465.361364 340.781734 
L 467.263636 341.78187 
L 468.531818 346.279243 
L 469.8 349.945662 
L 471.068182 353.020094 
L 472.336364 355.203405 
L 473.604545 356.662206 
L 474.872727 356.532623 
L 476.140909 354.255456 
L 477.409091 353.53078 
L 478.677273 352.982264 
L 479.945455 352.698524 
L 481.213636 351.466234 
L 482.481818 352.394583 
L 483.75 353.646673 
L 485.018182 354.546842 
L 488.822727 348.096576 
L 490.090909 344.606217 
L 491.359091 343.675497 
L 491.993182 346.384051 
L 493.895455 351.270006 
L 495.163636 351.697386 
L 496.431818 347.581249 
L 497.7 337.17508 
L 498.968182 310.682996 
L 500.236364 303.468822 
L 501.504545 304.978975 
L 501.505814 314.775226 
L 502.772727 337.233077 
L 504.040909 345.24485 
L 505.309091 343.800272 
L 506.577273 338.965302 
L 507.845455 324.589641 
L 508.479545 310.171042 
L 509.113636 291.809227 
L 509.747727 280.987532 
L 511.65 275.251825 
L 512.284091 280.78299 
L 512.918182 284.151646 
L 514.186364 287.59072 
L 516.722727 292.508494 
L 517.990909 285.181064 
L 519.259091 257.879629 
L 520.527273 242.471845 
L 521.161364 220.181608 
L 523.063636 196.997745 
L 523.697727 184.117413 
L 525.6 172.065264 
L 526.234091 160.162931 
L 528.136364 147.681298 
L 528.770455 141.833137 
L 530.672727 135.44414 
L 532.575 119.428341 
L 533.843182 114.600617 
L 535.745455 110.601542 
L 536.379545 106.702 
L 537.647727 102.992241 
L 539.55 104.595384 
L 540.818182 118.847305 
L 541.452273 120.772284 
L 543.354545 130.457283 
L 543.988636 147.938527 
L 545.890909 164.425846 
L 546.525 172.648637 
L 547.159091 188.578292 
L 548.427273 193.144213 
L 549.695455 180.441277 
L 550.963636 148.824706 
L 551.597727 126.155269 
L 553.5 101.716579 
L 554.134091 81.882874 
L 556.036364 66.96 
L 556.037632 67.50738 
L 556.670455 68.198834 
L 557.938636 68.832626 
L 559.206818 69.846017 
L 560.475 71.109526 
L 562.377273 90.599223 
L 563.011364 128.039614 
L 564.913636 166.400609 
L 566.181818 187.439825 
L 566.815909 190.98571 
L 568.718182 180.052195 
L 569.352273 154.801482 
L 570.620455 143.885763 
L 572.522727 148.182134 
L 573.790909 172.402827 
L 575.059091 191.283073 
L 576.327273 207.115566 
L 577.595455 204.344708 
L 578.863636 193.698071 
L 580.131818 181.712332 
L 581.4 178.079869 
L 582.668182 188.368609 
L 583.302273 216.560397 
L 583.936364 250.528927 
L 584.570455 270.489777 
L 586.472727 271.4228 
L 587.740909 268.765632 
L 588.375 262.791327 
L 589.009091 261.647451 
L 589.643182 263.173665 
L 591.545455 275.003577 
L 592.179545 283.771245 
L 594.081818 283.210776 
L 595.35 279.234506 
L 596.618182 279.781151 
L 597.886364 285.938729 
L 599.154545 282.113144 
L 600.422727 277.854001 
L 601.690909 274.987717 
L 602.959091 282.592611 
L 604.227273 287.494158 
L 604.861364 295.091973 
L 606.763636 298.566907 
L 608.031818 306.807027 
L 609.3 320.60706 
L 610.568182 328.212054 
L 611.836364 337.358353 
L 613.104545 342.842507 
L 613.738636 342.101203 
L 615.006818 339.82871 
L 616.909091 336.906499 
L 618.177273 336.002323 
L 618.811364 335.765895 
L 620.079545 341.421334 
L 621.981818 344.027885 
L 624.518182 347.881784 
L 627.054545 350.971141 
L 628.322727 352.950077 
L 629.590909 354.574655 
L 630.225 355.637663 
L 632.127273 355.033388 
L 633.395455 352.00904 
L 634.663636 350.193342 
L 635.931818 349.110034 
L 636.565909 347.91317 
L 638.468182 346.243149 
L 639.736364 344.009488 
L 641.004545 341.063604 
L 642.272727 337.703229 
L 642.273995 334.038445 
L 642.906818 330.671392 
L 644.809091 327.42731 
L 646.077273 324.233213 
L 647.345455 320.392535 
L 648.613636 316.058902 
L 649.881818 311.161996 
L 650.515909 306.541951 
L 652.418182 301.603675 
L 653.686364 291.613534 
L 654.320455 286.645208 
L 656.222727 280.667564 
L 657.490909 274.618568 
L 658.759091 272.293888 
L 660.027273 270.202831 
L 661.295455 267.232673 
L 663.831818 252.194273 
L 666.368182 228.852814 
L 667.002273 217.535458 
L 668.904545 216.862601 
L 669.538636 222.893734 
L 671.440909 237.310998 
L 672.075 254.769404 
L 672.709091 268.276916 
L 673.343182 270.493549 
L 675.245455 257.184602 
L 676.513636 239.495745 
L 677.781818 215.543132 
L 679.05 210.271801 
L 679.684091 219.089084 
L 680.318182 237.795073 
L 681.586364 238.125391 
L 682.854545 227.280356 
L 684.122727 209.627058 
L 686.659091 156.342922 
L 687.293182 136.421137 
L 687.927273 135.741035 
L 688.561364 131.497753 
L 689.829545 142.136677 
L 690.463636 149.292621 
L 691.731818 160.889777 
L 693 160.359893 
L 694.268182 169.203788 
L 694.902273 176.774123 
L 696.804545 182.200681 
L 698.072727 184.407664 
L 699.340909 195.58482 
L 700.609091 193.229622 
L 701.877273 171.946399 
L 702.511364 143.144259 
L 703.779545 122.015493 
L 705.681818 101.212971 
L 706.95 93.92898 
L 707.584091 105.663066 
L 709.486364 137.590689 
L 710.120455 163.229115 
L 710.754545 176.069013 
L 712.022727 170.694075 
L 712.656818 147.221831 
L 713.925 122.877565 
L 715.827273 104.960059 
L 717.095455 100.28736 
L 718.363636 97.330424 
L 719.631818 109.758668 
L 720.9 127.063518 
L 722.168182 161.610714 
L 723.436364 187.144666 
L 724.704545 216.045838 
L 725.972727 219.754428 
L 727.240909 214.709841 
L 728.509091 185.794145 
L 729.777273 147.809479 
L 730.411364 145.038587 
L 731.679545 145.172811 
L 732.313636 163.545777 
L 733.581818 181.949228 
L 733.583086 196.671267 
L 734.215909 200.60954 
L 736.118182 201.74784 
L 737.386364 192.516098 
L 739.288636 179.467452 
L 739.922727 186.443863 
L 741.190909 196.690265 
L 743.727273 238.498814 
L 744.995455 256.344968 
L 746.263636 263.833333 
L 747.531818 267.302724 
L 748.165909 259.88728 
L 748.8 251.017142 
L 749.434091 244.799497 
L 751.336364 249.109725 
L 752.604545 254.406599 
L 753.872727 260.432657 
L 754.506818 266.378214 
L 756.409091 273.155125 
L 757.043182 279.499848 
L 758.945455 286.060799 
L 760.213636 291.90285 
L 761.481818 298.279761 
L 762.115909 304.022646 
L 764.018182 309.849405 
L 765.286364 319.204553 
L 765.920455 322.68189 
L 767.822727 326.361098 
L 770.359091 333.305021 
L 770.993182 336.371573 
L 772.895455 339.66497 
L 775.431818 345.330225 
L 776.7 349.154909 
L 777.334091 350.536248 
L 779.236364 351.669807 
L 781.138636 352.662931 
L 783.040909 352.692814 
L 784.309091 352.419558 
L 785.577273 351.724565 
L 786.845455 350.71705 
L 788.113636 348.111601 
L 789.381818 345.630293 
L 790.65 345.146085 
L 791.918182 344.279071 
L 793.186364 343.096564 
L 793.820455 341.326309 
L 794.454545 339.025803 
L 795.722727 332.104751 
L 796.990909 328.781938 
L 798.259091 326.11492 
L 799.527273 322.073541 
L 800.795455 319.627024 
L 802.063636 316.747652 
L 802.697727 314.427913 
L 805.868182 308.167297 
L 807.136364 309.592843 
L 807.770455 316.124779 
L 809.672727 319.043183 
L 810.940909 316.22932 
L 811.575 305.919712 
L 812.843182 292.45801 
L 813.477273 275.819673 
L 814.111364 263.529893 
L 816.013636 258.806142 
L 817.281818 259.460267 
L 817.283086 259.123739 
L 817.915909 255.406201 
L 821.086364 241.786168 
L 822.354545 240.610672 
L 822.988636 246.964411 
L 824.890909 247.962977 
L 826.793182 254.808837 
L 828.061364 265.045523 
L 829.963636 265.10589 
L 830.597727 268.417518 
L 832.5 265.220281 
L 833.768182 271.300663 
L 835.036364 261.920307 
L 836.304545 262.286818 
L 837.572727 253.516146 
L 838.206818 251.754005 
L 840.109091 233.363142 
L 840.743182 222.727123 
L 842.645455 206.278535 
L 843.279545 199.792977 
L 845.181818 188.139026 
L 845.815909 182.628762 
L 847.718182 182.022617 
L 848.986364 196.011833 
L 850.254545 221.680309 
L 850.888636 251.015472 
L 852.790909 280.363991 
L 853.425 307.066226 
L 855.327273 324.446435 
L 856.595455 334.658313 
L 857.229545 346.386054 
L 859.131818 357.472325 
L 860.4 361.757744 
L 861.668182 360.597909 
L 862.936364 359.930628 
L 864.204545 358.963614 
L 865.472727 357.50538 
L 866.740909 358.71156 
L 867.375 361.104053 
L 868.009091 361.524255 
L 869.277273 360.236906 
L 870.545455 359.528757 
L 871.813636 358.417703 
L 874.35 354.433219 
L 875.618182 354.137192 
L 876.252273 355.07302 
L 878.154545 353.569144 
L 878.788636 350.456816 
L 880.690909 348.960084 
L 881.325 350.007699 
L 884.495455 357.184879 
L 885.763636 358.910459 
L 886.397727 356.211955 
L 888.3 349.049834 
L 888.934091 337.617786 
L 890.836364 323.175414 
L 892.104545 311.926104 
L 893.372727 299.081232 
L 894.006818 287.653992 
L 895.909091 272.057393 
L 897.177273 269.432278 
L 898.445455 266.360284 
L 899.079545 268.068001 
L 900.981818 268.675715 
L 902.25 281.980322 
L 904.152273 294.138081 
L 906.054545 295.149937 
L 907.322727 301.696797 
L 908.590909 306.77918 
L 909.859091 314.547212 
L 911.127273 344.369054 
L 911.761364 350.292475 
L 913.663636 346.153833 
L 914.931818 338.014281 
L 915.565909 327.814357 
L 916.2 321.368231 
L 916.834091 319.584119 
L 918.736364 322.690471 
L 920.004545 325.936656 
L 920.005814 329.322674 
L 920.638636 332.263382 
L 922.540909 335.206461 
L 925.077273 340.525339 
L 925.711364 342.732857 
L 926.979545 344.917704 
L 927.613636 347.40599 
L 928.881818 349.675812 
L 930.15 351.415916 
L 931.418182 352.559258 
L 932.052273 353.484502 
L 932.686364 353.739929 
L 933.954545 353.586473 
L 933.954545 353.586473 
" clip-path="url(#pe5b5f20334)" style="fill: none; stroke: #008000; stroke-width: 1.5; stroke-linecap: square"/>
   </g>
   <g id="patch_3">
    <path d="M 135 384.48 
L 135 51.84 
" style="fill: none; stroke: #000000; stroke-width: 0.8; stroke-linejoin: miter; stroke-linecap: square"/>
   </g>
   <g id="patch_4">
    <path d="M 972 384.48 
L 972 51.84 
" style="fill: none; stroke: #000000; stroke-width: 0.8; stroke-linejoin: miter; stroke-linecap: square"/>
   </g>
   <g id="patch_5">
    <path d="M 135 384.48 
L 972 384.48 
" style="fill: none; stroke: #000000; stroke-width: 0.8; stroke-linejoin: miter; stroke-linecap: square"/>
   </g>
   <g id="patch_6">
    <path d="M 135 51.84 
L 972 51.84 
" style="fill: none; stroke: #000000; stroke-width: 0.8; stroke-linejoin: miter; stroke-linecap: square"/>
   </g>
  </g>
  <g id="axes_2">
   <g id="matplotlib.axis_3">
    <g id="ytick_7">
     <g id="line2d_16">
      <path d="M 135 369.36 
L 972 369.36 
" clip-path="url(#pe5b5f20334)" style="fill: none; stroke: #b0b0b0; stroke-width: 0.8; stroke-linecap: square"/>
     </g>
     <g id="line2d_17">
      <defs>
       <path id="m7d48538eb3" d="M 0 0 
L 3.5 0 
" style="stroke: #000000; stroke-width: 0.8"/>
      </defs>
      <g>
       <use xlink:href="#m7d48538eb3" x="972" y="369.36" style="stroke: #000000; stroke-width: 0.8"/>
      </g>
     </g>
     <g id="text_15">
      <!-- 0 -->
      <g transform="translate(979 372.934219) scale(0.1 -0.1)">
       <use xlink:href="#Times New Roman-30"/>
      </g>
     </g>
    </g>
    <g id="ytick_8">
     <g id="line2d_18">
      <path d="M 135 321.023434 
L 972 321.023434 
" clip-path="url(#pe5b5f20334)" style="fill: none; stroke: #b0b0b0; stroke-width: 0.8; stroke-linecap: square"/>
     </g>
     <g id="line2d_19">
      <g>
       <use xlink:href="#m7d48538eb3" x="972" y="321.023434" style="stroke: #000000; stroke-width: 0.8"/>
      </g>
     </g>
     <g id="text_16">
      <!-- 5 -->
      <g transform="translate(979 324.597653) scale(0.1 -0.1)">
       <use xlink:href="#Times New Roman-35"/>
      </g>
     </g>
    </g>
    <g id="ytick_9">
     <g id="line2d_20">
      <path d="M 135 272.686869 
L 972 272.686869 
" clip-path="url(#pe5b5f20334)" style="fill: none; stroke: #b0b0b0; stroke-width: 0.8; stroke-linecap: square"/>
     </g>
     <g id="line2d_21">
      <g>
       <use xlink:href="#m7d48538eb3" x="972" y="272.686869" style="stroke: #000000; stroke-width: 0.8"/>
      </g>
     </g>
     <g id="text_17">
      <!-- 10 -->
      <g transform="translate(979 276.261087) scale(0.1 -0.1)">
       <use xlink:href="#Times New Roman-31"/>
       <use xlink:href="#Times New Roman-30" x="50"/>
      </g>
     </g>
    </g>
    <g id="ytick_10">
     <g id="line2d_22">
      <path d="M 135 224.350303 
L 972 224.350303 
" clip-path="url(#pe5b5f20334)" style="fill: none; stroke: #b0b0b0; stroke-width: 0.8; stroke-linecap: square"/>
     </g>
     <g id="line2d_23">
      <g>
       <use xlink:href="#m7d48538eb3" x="972" y="224.350303" style="stroke: #000000; stroke-width: 0.8"/>
      </g>
     </g>
     <g id="text_18">
      <!-- 15 -->
      <g transform="translate(979 227.924522) scale(0.1 -0.1)">
       <use xlink:href="#Times New Roman-31"/>
       <use xlink:href="#Times New Roman-35" x="50"/>
      </g>
     </g>
    </g>
    <g id="ytick_11">
     <g id="line2d_24">
      <path d="M 135 176.013737 
L 972 176.013737 
" clip-path="url(#pe5b5f20334)" style="fill: none; stroke: #b0b0b0; stroke-width: 0.8; stroke-linecap: square"/>
     </g>
     <g id="line2d_25">
      <g>
       <use xlink:href="#m7d48538eb3" x="972" y="176.013737" style="stroke: #000000; stroke-width: 0.8"/>
      </g>
     </g>
     <g id="text_19">
      <!-- 20 -->
      <g transform="translate(979 179.587956) scale(0.1 -0.1)">
       <use xlink:href="#Times New Roman-32"/>
       <use xlink:href="#Times New Roman-30" x="50"/>
      </g>
     </g>
    </g>
    <g id="ytick_12">
     <g id="line2d_26">
      <path d="M 135 127.677171 
L 972 127.677171 
" clip-path="url(#pe5b5f20334)" style="fill: none; stroke: #b0b0b0; stroke-width: 0.8; stroke-linecap: square"/>
     </g>
     <g id="line2d_27">
      <g>
       <use xlink:href="#m7d48538eb3" x="972" y="127.677171" style="stroke: #000000; stroke-width: 0.8"/>
      </g>
     </g>
     <g id="text_20">
      <!-- 25 -->
      <g transform="translate(979 131.25139) scale(0.1 -0.1)">
       <use xlink:href="#Times New Roman-32"/>
       <use xlink:href="#Times New Roman-35" x="50"/>
      </g>
     </g>
    </g>
    <g id="ytick_13">
     <g id="line2d_28">
      <path d="M 135 79.340606 
L 972 79.340606 
" clip-path="url(#pe5b5f20334)" style="fill: none; stroke: #b0b0b0; stroke-width: 0.8; stroke-linecap: square"/>
     </g>
     <g id="line2d_29">
      <g>
       <use xlink:href="#m7d48538eb3" x="972" y="79.340606" style="stroke: #000000; stroke-width: 0.8"/>
      </g>
     </g>
     <g id="text_21">
      <!-- 30 -->
      <g transform="translate(979 82.914824) scale(0.1 -0.1)">
       <use xlink:href="#Times New Roman-33"/>
       <use xlink:href="#Times New Roman-30" x="50"/>
      </g>
     </g>
    </g>
    <g id="text_22">
     <!-- buffer (s) -->
     <g transform="translate(1000.617188 243.16) rotate(-90) scale(0.1 -0.1)">
      <defs>
       <path id="Times New Roman-75" d="M 1450 325
Q 1750 325 1962 475 
Q 2175 625 2275 950 
L 2275 2525 
Q 2275 2625 2225 2687 
Q 2175 2750 2050 2750 
L 1900 2750 
L 1900 2900 
L 2050 2900 
Q 2200 2900 2325 2925 
Q 2450 2950 2575 3050 
L 2625 3050 
L 2625 600 
Q 2625 500 2687 450 
Q 2750 400 2850 400 
L 3000 400 
L 3000 250 
L 2850 250 
Q 2725 250 2600 212 
Q 2475 175 2325 100 
L 2275 100 
L 2275 625 
Q 2150 350 1900 212 
Q 1650 75 1325 75 
Q 925 75 725 300 
Q 525 525 525 1025 
L 525 2525 
Q 525 2625 475 2687 
Q 425 2750 300 2750 
L 150 2750 
L 150 2900 
L 300 2900 
Q 450 2900 575 2925 
Q 700 2950 825 3050 
L 875 3050 
L 875 975 
Q 875 625 1025 475 
Q 1175 325 1450 325 
z
" transform="scale(0.015625)"/>
       <path id="Times New Roman-66" d="M 1125 3325
Q 1125 3850 1450 4112 
Q 1775 4375 2175 4375 
Q 2600 4375 2812 4225 
Q 3025 4075 3025 3875 
Q 3025 3775 2975 3700 
Q 2925 3625 2775 3625 
Q 2675 3625 2612 3675 
Q 2550 3725 2550 3850 
Q 2550 3875 2575 3925 
Q 2575 3975 2575 4000 
Q 2575 4100 2500 4162 
Q 2425 4225 2150 4225 
Q 1850 4225 1662 4037 
Q 1475 3850 1475 3400 
L 1475 2900 
L 2525 2900 
L 2525 2750 
L 1475 2750 
L 1475 450 
Q 1475 350 1537 300 
Q 1600 250 1700 250 
L 2300 250 
L 2300 100 
L 475 100 
L 475 250 
L 900 250 
Q 1025 250 1075 300 
Q 1125 350 1125 450 
L 1125 2750 
L 350 2750 
L 350 2900 
L 1125 2900 
L 1125 3325 
z
" transform="scale(0.015625)"/>
      </defs>
      <use xlink:href="#Times New Roman-62"/>
      <use xlink:href="#Times New Roman-75" x="50"/>
      <use xlink:href="#Times New Roman-66" x="100"/>
      <use xlink:href="#Times New Roman-66" x="150"/>
      <use xlink:href="#Times New Roman-65" x="200"/>
      <use xlink:href="#Times New Roman-72" x="250"/>
      <use xlink:href="#Times New Roman-20" x="300"/>
      <use xlink:href="#Times New Roman-28" x="350"/>
      <use xlink:href="#Times New Roman-73" x="400"/>
      <use xlink:href="#Times New Roman-29" x="450"/>
     </g>
    </g>
   </g>
   <g id="line2d_30">
    <path d="M 173.045455 369.36 
L 174.314904 369.36 
L 174.947727 365.335175 
L 176.85 357.578768 
L 178.118182 342.910231 
L 178.752273 330.262163 
L 180.654545 321.062104 
L 181.288636 305.268936 
L 183.190909 293.236354 
L 183.825 272.242172 
L 185.093182 264.434206 
L 186.995455 265.794074 
L 188.263636 276.083318 
L 188.897727 273.241128 
L 190.165909 256.858255 
L 193.970455 211.898804 
L 194.604545 205.002787 
L 195.872727 204.548423 
L 196.506818 207.567847 
L 197.140909 214.447752 
L 197.775 214.924673 
L 199.677273 205.731058 
L 200.945455 205.254137 
L 201.579545 208.202667 
L 203.481818 211.341322 
L 204.115909 215.166355 
L 206.018182 218.143888 
L 208.554545 224.060283 
L 209.188636 221.450109 
L 211.090909 224.443754 
L 213.627273 217.447841 
L 214.895455 208.48302 
L 215.529545 202.556957 
L 216.163636 202.698744 
L 216.164904 205.74717 
L 216.797727 211.618451 
L 218.065909 211.41866 
L 219.968182 201.922136 
L 220.602273 192.854197 
L 221.870455 183.570354 
L 223.772727 179.945111 
L 224.406818 176.50677 
L 226.309091 173.26822 
L 226.943182 170.29391 
L 228.845455 160.794164 
L 230.113636 150.91417 
L 230.747727 141.340307 
L 232.015909 131.434534 
L 234.552273 99.168265 
L 236.454545 83.213976 
L 237.088636 79.765967 
L 238.990909 82.737055 
L 239.625 85.714587 
L 241.527273 89.011141 
L 242.161364 86.400967 
L 243.429545 83.491105 
L 244.697727 80.017318 
L 248.502273 89.285048 
L 250.404545 85.727477 
L 251.672727 88.695342 
L 252.940909 86.094835 
L 254.209091 89.072368 
L 255.477273 86.12706 
L 256.745455 89.104592 
L 258.013636 86.552421 
L 259.281818 89.626627 
L 260.55 86.636205 
L 261.818182 89.549288 
L 262.452273 86.359075 
L 263.720455 86.214065 
L 266.890909 101.527089 
L 267.525 104.99121 
L 268.793182 108.800131 
L 270.695455 105.780707 
L 271.963636 109.151377 
L 272.597727 105.664699 
L 274.5 102.577604 
L 277.036364 95.485019 
L 278.304545 98.79124 
L 279.572727 95.94905 
L 280.840909 98.916915 
L 282.109091 101.556091 
L 282.743182 107.540158 
L 283.377273 108.200758 
L 284.011364 108.639009 
L 285.913636 111.619764 
L 286.547727 120.781155 
L 288.45 130.164893 
L 289.718182 140.41869 
L 290.986364 144.256613 
L 293.522727 150.227791 
L 294.790909 159.627641 
L 297.327273 179.883885 
L 297.961364 189.309515 
L 298.595455 195.312917 
L 299.229545 195.174352 
L 300.497727 195.561044 
L 302.4 198.512797 
L 303.034091 207.864312 
L 304.302273 217.312499 
L 306.204545 227.61141 
L 307.472727 237.043485 
L 308.106818 246.414334 
L 309.375 256.081647 
L 311.277273 266.358001 
L 312.545455 276.634355 
L 313.813636 280.030804 
L 315.081818 282.982557 
L 315.715909 282.534638 
L 316.35 288.918287 
L 317.618182 295.78208 
L 318.886364 298.923956 
L 320.154545 301.646916 
L 321.422727 304.908023 
L 322.056818 308.56549 
L 323.959091 305.310828 
L 324.593182 301.5728 
L 325.227273 301.160328 
L 326.495455 307.814662 
L 327.763636 308.214244 
L 331.568182 317.050169 
L 334.104545 324.709903 
L 334.738636 328.219138 
L 336.640909 331.20956 
L 337.909091 327.742217 
L 339.177273 331.035548 
L 339.178541 331.402906 
L 339.811364 331.232117 
L 340.445455 327.655211 
L 341.713636 327.548871 
L 342.981818 334.112976 
L 344.25 331.193448 
L 345.518182 321.232893 
L 346.786364 305.252824 
L 348.054545 295.588733 
L 349.322727 279.792344 
L 349.956818 257.415736 
L 352.493182 186.193418 
L 353.127273 159.978887 
L 355.029545 108.803354 
L 356.931818 86.678096 
L 359.468182 79.736966 
L 360.736364 82.87562 
L 361.370455 92.265803 
L 363.272727 89.285048 
L 364.540909 85.891822 
L 365.175 79.917422 
L 365.809091 86.243067 
L 367.711364 95.501131 
L 368.979545 98.491553 
L 372.15 104.83331 
L 372.784091 101.907337 
L 374.052273 92.439815 
L 376.588636 80.255778 
L 378.490909 76.665982 
L 379.125 80.120436 
L 380.393182 76.620868 
L 382.295455 80.133325 
L 383.563636 76.80777 
L 384.831818 79.785302 
L 386.1 76.485526 
L 387.368182 79.675739 
L 388.636364 76.733654 
L 389.904545 79.537174 
L 391.172727 76.056942 
L 392.440909 79.379275 
L 393.709091 76.575754 
L 394.343182 79.553287 
L 396.245455 76.211619 
L 397.513636 79.318049 
L 398.147727 76.701429 
L 399.415909 79.543619 
L 401.318182 82.514707 
L 402.586364 85.469682 
L 403.854545 82.827283 
L 405.122727 79.388942 
L 405.756818 82.350363 
L 407.659091 85.32145 
L 408.927273 82.672606 
L 409.561364 79.205263 
L 411.463636 76.198729 
L 412.731818 79.179484 
L 414 76.55642 
L 415.268182 79.040919 
L 415.902273 75.570354 
L 416.536364 75.11599 
L 417.170455 75.509127 
L 419.072727 75.90871 
L 419.706818 79.736966 
L 422.243182 85.682363 
L 424.145455 82.340695 
L 425.413636 79.695074 
L 426.047727 76.237398 
L 427.95 79.066698 
L 429.218182 75.628357 
L 429.852273 79.463058 
L 431.754545 82.434146 
L 432.388636 85.434235 
L 434.290909 88.382766 
L 435.559091 85.96916 
L 436.827273 83.300982 
L 437.461364 79.827194 
L 439.363636 82.582378 
L 439.997727 85.566355 
L 441.9 82.99485 
L 442.534091 79.540397 
L 443.168182 79.079588 
L 444.436364 85.047543 
L 445.704545 85.743589 
L 446.972727 89.558956 
L 450.777273 79.656405 
L 452.045455 83.39121 
L 453.313636 92.410813 
L 453.947727 95.578469 
L 455.215909 98.562447 
L 455.85 98.978141 
L 457.118182 98.862133 
L 459.020455 88.476217 
L 459.654545 88.01863 
L 460.922727 88.424658 
L 462.190909 82.524374 
L 463.459091 79.936757 
L 464.727273 82.87562 
L 465.361364 85.714587 
L 467.263636 88.659896 
L 468.531818 86.091613 
L 469.8 89.046588 
L 472.336364 82.07001 
L 474.872727 76.640203 
L 475.506818 76.872218 
L 476.140909 76.752988 
L 477.409091 82.959403 
L 480.579545 107.559493 
L 481.213636 107.150243 
L 482.481818 101.420749 
L 483.75 98.79124 
L 485.018182 102.609828 
L 485.652273 112.270697 
L 486.920455 122.054018 
L 488.822727 125.208784 
L 490.090909 122.037905 
L 491.359091 112.525269 
L 491.993182 102.390703 
L 493.895455 92.481707 
L 495.163636 82.656494 
L 497.7 75.673472 
L 498.334091 75.202996 
L 498.968182 75.615468 
L 500.236364 82.540486 
L 501.504545 92.826508 
L 501.505814 99.66452 
L 502.138636 99.155375 
L 502.772727 95.285228 
L 504.040909 88.431102 
L 505.309091 82.408366 
L 506.577273 79.788525 
L 507.845455 76.285735 
L 508.479545 75.821704 
L 509.113636 75.873263 
L 509.747727 76.27929 
L 511.65 80.130103 
L 512.284091 83.191419 
L 512.918182 89.765192 
L 514.186364 89.265714 
L 515.454545 82.646827 
L 516.722727 79.427612 
L 517.990909 82.411589 
L 518.625 88.385988 
L 519.259091 88.04441 
L 521.161364 79.588733 
L 523.063636 82.430923 
L 523.697727 85.205442 
L 525.6 88.492329 
L 526.234091 85.927268 
L 528.136364 89.729745 
L 528.770455 86.085168 
L 530.672727 89.033698 
L 531.306818 85.801593 
L 531.940909 86.326851 
L 532.575 86.700653 
L 533.843182 92.42048 
L 535.745455 95.249781 
L 536.379545 98.217646 
L 537.647727 95.613916 
L 539.55 98.485108 
L 540.184091 95.133773 
L 540.818182 94.788972 
L 541.452273 95.178887 
L 543.354545 101.913782 
L 543.988636 105.635697 
L 545.890909 102.455151 
L 547.159091 89.107814 
L 548.427273 82.795059 
L 550.963636 76.810992 
L 551.597727 79.78208 
L 553.5 82.746722 
L 554.134091 92.475262 
L 556.036364 95.404458 
L 556.037632 94.943649 
L 556.670455 88.563222 
L 557.938636 89.004696 
L 559.206818 92.855509 
L 560.475 95.278783 
L 562.377273 98.207979 
L 563.011364 94.982318 
L 564.913636 98.804129 
L 566.181818 96.184288 
L 566.815909 92.452705 
L 568.718182 88.995029 
L 569.352273 85.524464 
L 570.620455 89.359165 
L 572.522727 85.975605 
L 575.059091 79.601623 
L 576.327273 83.323539 
L 577.595455 86.400967 
L 580.131818 79.263267 
L 581.4 82.669384 
L 582.668182 92.024121 
L 583.302273 98.033967 
L 583.936364 97.598938 
L 584.570455 91.553645 
L 586.472727 82.485705 
L 587.740909 78.982915 
L 588.375 78.515662 
L 589.009091 84.995984 
L 589.643182 85.450348 
L 591.545455 89.268936 
L 592.179545 86.178619 
L 594.081818 89.120704 
L 596.618182 82.231132 
L 597.886364 79.630625 
L 601.690909 88.650228 
L 602.959091 86.056166 
L 604.227273 89.011141 
L 604.861364 85.675918 
L 606.763636 82.176351 
L 608.031818 79.556509 
L 608.665909 79.601623 
L 609.3 85.595357 
L 610.568182 85.263446 
L 611.836364 82.163461 
L 613.104545 79.546842 
L 613.738636 76.875441 
L 615.006818 79.514617 
L 616.909091 82.495372 
L 618.177273 85.427791 
L 619.445455 86.201176 
L 620.079545 92.172353 
L 621.981818 101.594761 
L 623.25 111.030058 
L 624.518182 114.845424 
L 625.786364 117.784288 
L 627.054545 121.209739 
L 628.322727 130.651481 
L 629.590909 134.518407 
L 630.225 134.476515 
L 630.859091 134.876097 
L 632.127273 140.850497 
L 633.395455 152.83152 
L 634.663636 146.969906 
L 635.931818 144.366176 
L 636.565909 140.873054 
L 638.468182 143.641128 
L 639.736364 140.309127 
L 641.004545 137.718287 
L 642.272727 128.021972 
L 642.273995 121.167847 
L 642.906818 108.207203 
L 644.809091 102.113573 
L 646.077273 99.271383 
L 647.345455 101.836443 
L 649.881818 107.720615 
L 650.515909 105.100773 
L 652.418182 108.690568 
L 653.052273 105.600251 
L 653.686364 105.539024 
L 654.320455 99.0297 
L 656.222727 99.061925 
L 657.490909 96.06828 
L 658.759091 98.804129 
L 660.027273 95.352899 
L 661.295455 98.604338 
L 662.563636 96.039278 
L 665.1 89.246379 
L 666.368182 92.223912 
L 667.002273 95.984496 
L 668.904545 98.617228 
L 669.538636 95.146663 
L 671.440909 98.111305 
L 672.709091 98.894358 
L 673.343182 91.991896 
L 675.245455 82.147349 
L 676.513636 78.734787 
L 677.781818 76.182617 
L 679.05 79.137592 
L 679.684091 82.09579 
L 680.318182 88.086302 
L 682.854545 88.908023 
L 684.122727 85.447125 
L 686.659091 91.331296 
L 687.293182 98.146752 
L 687.927273 98.549557 
L 688.561364 92.555823 
L 689.829545 89.639517 
L 690.463636 89.74908 
L 691.731818 89.57829 
L 693 83.004517 
L 694.268182 79.843306 
L 694.902273 82.50504 
L 696.804545 85.476127 
L 698.072727 82.012007 
L 699.340909 79.392165 
L 701.877273 85.311783 
L 702.511364 82.076455 
L 703.779545 79.456613 
L 705.681818 82.424479 
L 706.95 91.592314 
L 707.584091 94.547289 
L 709.486364 98.352988 
L 710.754545 99.168265 
L 712.656818 89.426836 
L 713.925 86.033609 
L 715.827273 89.330163 
L 719.631818 78.934579 
L 720.9 82.75639 
L 722.168182 92.149796 
L 723.436364 95.114438 
L 724.704545 91.643873 
L 725.972727 82.582378 
L 727.240909 79.147259 
L 728.509091 82.559821 
L 729.143182 88.998252 
L 729.777273 89.375277 
L 730.411364 89.330163 
L 731.679545 92.7105 
L 732.313636 99.542068 
L 733.581818 99.103816 
L 733.583086 95.240113 
L 734.215909 88.340874 
L 736.118182 82.324583 
L 737.386364 79.704741 
L 738.654545 82.685496 
L 739.922727 94.62785 
L 741.190909 101.639875 
L 742.459091 105.455241 
L 743.727273 101.997565 
L 746.263636 82.002339 
L 747.531818 79.38572 
L 748.165909 79.794969 
L 749.434091 92.478484 
L 751.336364 101.878335 
L 752.604545 105.010545 
L 753.872727 108.668011 
L 756.409091 121.029282 
L 757.043182 124.184049 
L 758.945455 128.028417 
L 761.481818 133.970592 
L 762.115909 136.922345 
L 764.018182 134.302503 
L 764.652273 134.718198 
L 765.286364 134.975993 
L 765.920455 141.346752 
L 767.822727 150.775605 
L 769.090909 160.346245 
L 770.359091 163.720137 
L 770.993182 166.662223 
L 772.895455 169.63331 
L 775.431818 175.614155 
L 776.065909 178.598132 
L 776.7 184.611201 
L 777.334091 185.007561 
L 779.236364 179.033161 
L 780.504545 176.393985 
L 781.138636 179.377962 
L 783.040909 182.291046 
L 784.309091 185.239576 
L 785.577273 182.635847 
L 786.845455 185.597267 
L 787.479545 185.188017 
L 788.113636 191.172084 
L 788.747727 194.574978 
L 789.381818 195.184019 
L 790.65 195.606158 
L 791.918182 199.334519 
L 793.186364 208.779484 
L 793.820455 215.008456 
L 794.454545 214.373636 
L 795.088636 210.816064 
L 795.722727 204.641874 
L 796.990909 205.093015 
L 798.259091 202.370055 
L 798.893182 202.263715 
L 799.527273 195.564267 
L 800.795455 195.570712 
L 802.063636 198.416124 
L 802.697727 195.570712 
L 804.6 185.552153 
L 805.868182 163.323777 
L 807.136364 153.498565 
L 807.770455 137.212365 
L 809.672727 120.868161 
L 810.940909 98.323986 
L 811.575 82.846618 
L 812.843182 79.369608 
L 813.477273 78.905577 
L 814.111364 84.863864 
L 816.013636 91.682542 
L 817.281818 101.89767 
L 817.283086 108.726015 
L 817.915909 108.319988 
L 819.818182 101.523867 
L 821.086364 91.78566 
L 822.354545 89.094925 
L 822.988636 85.891822 
L 824.890909 88.698565 
L 826.159091 85.582468 
L 826.793182 82.604935 
L 828.061364 80.004428 
L 829.963636 82.633937 
L 830.597727 85.750034 
L 832.5 82.476038 
L 833.768182 79.849751 
L 835.036364 76.327626 
L 836.304545 79.073143 
L 837.572727 75.905487 
L 838.206818 79.675739 
L 840.109091 76.930222 
L 840.743182 79.7563 
L 842.645455 76.482303 
L 843.279545 79.579066 
L 845.181818 76.024717 
L 845.815909 78.773457 
L 847.718182 81.747767 
L 848.986364 85.518019 
L 850.254545 82.885287 
L 850.888636 79.405054 
L 852.790909 76.053719 
L 853.425 79.021584 
L 855.327273 76.417855 
L 856.595455 73.533773 
L 857.229545 70.059985 
L 859.131818 73.031073 
L 861.668182 79.082811 
L 864.204545 72.850616 
L 865.472727 70.295223 
L 866.740909 72.998848 
L 867.375 75.921599 
L 868.009091 75.73792 
L 869.277273 76.118168 
L 870.545455 76.234176 
L 871.813636 78.905577 
L 873.081818 75.844261 
L 874.35 72.399475 
L 875.618182 69.805413 
L 876.252273 73.214752 
L 878.154545 76.195506 
L 878.788636 79.147259 
L 880.690909 75.708918 
L 881.325 79.485615 
L 883.227273 76.472636 
L 884.495455 73.478991 
L 885.763636 70.030983 
L 886.397727 66.96 
L 888.3 69.438055 
L 888.934091 72.402697 
L 890.836364 75.409232 
L 892.104545 79.231043 
L 893.372727 76.601534 
L 894.006818 79.533952 
L 895.909091 76.079499 
L 897.177273 79.057031 
L 898.445455 76.437189 
L 899.079545 79.37283 
L 900.981818 76.311514 
L 902.25 79.298714 
L 903.518182 83.130192 
L 904.152273 86.37841 
L 906.054545 82.923956 
L 907.322727 79.453391 
L 908.590909 82.579156 
L 909.859091 86.243067 
L 910.493182 86.507307 
L 911.127273 79.601623 
L 911.761364 79.272935 
L 913.663636 75.947379 
L 914.931818 78.950691 
L 915.565909 78.522107 
L 916.2 84.483616 
L 916.834091 84.857419 
L 918.736364 88.688898 
L 920.004545 92.517154 
L 920.005814 99.364834 
L 920.638636 98.878246 
L 922.540909 92.027343 
L 923.809091 88.579335 
L 925.077273 85.949825 
L 925.711364 88.885466 
L 926.979545 91.830774 
L 927.613636 97.834176 
L 928.881818 98.256315 
L 930.15 92.230357 
L 931.418182 88.779126 
L 932.052273 85.324673 
L 932.686364 84.905756 
L 933.954545 85.318228 
L 933.954545 85.318228 
" clip-path="url(#pe5b5f20334)" style="fill: none; stroke: #1f77b4; stroke-width: 1.5; stroke-linecap: square"/>
   </g>
   <g id="patch_7">
    <path d="M 135 384.48 
L 135 51.84 
" style="fill: none; stroke: #000000; stroke-width: 0.8; stroke-linejoin: miter; stroke-linecap: square"/>
   </g>
   <g id="patch_8">
    <path d="M 972 384.48 
L 972 51.84 
" style="fill: none; stroke: #000000; stroke-width: 0.8; stroke-linejoin: miter; stroke-linecap: square"/>
   </g>
   <g id="patch_9">
    <path d="M 135 384.48 
L 972 384.48 
" style="fill: none; stroke: #000000; stroke-width: 0.8; stroke-linejoin: miter; stroke-linecap: square"/>
   </g>
   <g id="patch_10">
    <path d="M 135 51.84 
L 972 51.84 
" style="fill: none; stroke: #000000; stroke-width: 0.8; stroke-linejoin: miter; stroke-linecap: square"/>
   </g>
   <g id="text_23">
    <!-- ./tcp/tp3_wave -->
    <g transform="translate(511.5 45.84) scale(0.12 -0.12)">
     <defs>
      <path id="Times New Roman-2e" d="M 800 25
Q 650 25 537 125 
Q 425 225 425 400 
Q 425 575 537 675 
Q 650 775 800 775 
Q 950 775 1062 662 
Q 1175 550 1175 400 
Q 1175 225 1062 125 
Q 950 25 800 25 
z
" transform="scale(0.015625)"/>
      <path id="Times New Roman-2f" d="M 400 -475
L 225 -375 
L 2775 4975 
L 2950 4875 
L 400 -475 
z
" transform="scale(0.015625)"/>
      <path id="Times New Roman-63" d="M 2150 2225
Q 2150 2300 2175 2325 
Q 2175 2350 2200 2425 
Q 2225 2525 2100 2662 
Q 1975 2800 1675 2800 
Q 1300 2800 1037 2437 
Q 775 2075 775 1475 
Q 775 925 1000 587 
Q 1225 250 1750 250 
Q 2100 250 2337 475 
Q 2575 700 2675 1000 
L 2800 950 
Q 2700 575 2425 312 
Q 2150 50 1675 50 
Q 1075 50 725 425 
Q 375 800 375 1500 
Q 375 2125 750 2537 
Q 1125 2950 1725 2950 
Q 2150 2950 2387 2725 
Q 2625 2500 2625 2275 
Q 2625 2125 2562 2062 
Q 2500 2000 2375 2000 
Q 2275 2000 2212 2062 
Q 2150 2125 2150 2225 
z
" transform="scale(0.015625)"/>
      <path id="Times New Roman-5f" d="M 0 -875
L 0 -725 
L 3175 -725 
L 3175 -875 
L 0 -875 
z
" transform="scale(0.015625)"/>
      <path id="Times New Roman-77" d="M 2325 2900
L 3175 2900 
L 3175 2750 
L 3075 2750 
Q 2975 2750 2900 2675 
Q 2825 2600 2775 2425 
L 2175 75 
L 2025 75 
L 1575 1975 
L 1100 75 
L 950 75 
L 375 2375 
Q 350 2550 275 2650 
Q 200 2750 125 2750 
L 25 2750 
L 25 2900 
L 925 2900 
L 925 2750 
L 825 2750 
Q 725 2750 700 2662 
Q 675 2575 700 2425 
L 1075 800 
L 1125 800 
L 1500 2300 
Q 1475 2525 1400 2637 
Q 1325 2750 1225 2750 
L 1150 2750 
L 1150 2900 
L 2000 2900 
L 2000 2750 
L 1925 2750 
Q 1825 2750 1800 2662 
Q 1775 2575 1800 2425 
L 2175 800 
L 2200 800 
L 2625 2550 
Q 2650 2650 2600 2700 
Q 2550 2750 2450 2750 
L 2325 2750 
L 2325 2900 
z
M 1725 2750 
L 1725 2750 
z
M 625 2750 
L 625 2750 
z
M 275 2750 
L 275 2750 
z
M 2875 2750 
L 2875 2750 
z
M 2675 2750 
L 2675 2750 
z
" transform="scale(0.015625)"/>
      <path id="Times New Roman-76" d="M 1625 75
L 1475 75 
L 625 2525 
Q 600 2625 525 2687 
Q 450 2750 350 2750 
L 225 2750 
L 225 2900 
L 1300 2900 
L 1300 2750 
L 1200 2750 
Q 1050 2750 1025 2700 
Q 1000 2650 1000 2600 
Q 1000 2500 1025 2425 
L 1625 675 
L 1675 675 
L 2275 2400 
Q 2325 2525 2325 2575 
Q 2325 2600 2275 2675 
Q 2225 2750 2075 2750 
L 2025 2750 
L 2025 2900 
L 2925 2900 
L 2925 2750 
L 2875 2750 
Q 2725 2750 2637 2662 
Q 2550 2575 2475 2400 
L 1625 75 
z
M 2600 2750 
L 2600 2750 
z
M 2400 2750 
L 2400 2750 
z
M 925 2750 
L 925 2750 
z
M 550 2750 
L 550 2750 
z
" transform="scale(0.015625)"/>
     </defs>
     <use xlink:href="#Times New Roman-2e"/>
     <use xlink:href="#Times New Roman-2f" x="50"/>
     <use xlink:href="#Times New Roman-74" x="100"/>
     <use xlink:href="#Times New Roman-63" x="150"/>
     <use xlink:href="#Times New Roman-70" x="200"/>
     <use xlink:href="#Times New Roman-2f" x="250"/>
     <use xlink:href="#Times New Roman-74" x="300"/>
     <use xlink:href="#Times New Roman-70" x="350"/>
     <use xlink:href="#Times New Roman-33" x="400"/>
     <use xlink:href="#Times New Roman-5f" x="450"/>
     <use xlink:href="#Times New Roman-77" x="500"/>
     <use xlink:href="#Times New Roman-61" x="550"/>
     <use xlink:href="#Times New Roman-76" x="600"/>
     <use xlink:href="#Times New Roman-65" x="650"/>
    </g>
   </g>
   <g id="legend_1">
    <g id="patch_11">
     <path d="M 903 73.2775 
L 965 73.2775 
Q 967 73.2775 967 71.2775 
L 967 58.84 
Q 967 56.84 965 56.84 
L 903 56.84 
Q 901 56.84 901 58.84 
L 901 71.2775 
Q 901 73.2775 903 73.2775 
z
" style="fill: #ffffff; opacity: 0.8; stroke: #cccccc; stroke-linejoin: miter"/>
    </g>
    <g id="line2d_31">
     <path d="M 905 64.488437 
L 915 64.488437 
L 925 64.488437 
" style="fill: none; stroke: #1f77b4; stroke-width: 1.5; stroke-linecap: square"/>
    </g>
    <g id="text_24">
     <!-- buffer -->
     <g transform="translate(933 67.988437) scale(0.1 -0.1)">
      <use xlink:href="#Times New Roman-62"/>
      <use xlink:href="#Times New Roman-75" x="50"/>
      <use xlink:href="#Times New Roman-66" x="100"/>
      <use xlink:href="#Times New Roman-66" x="150"/>
      <use xlink:href="#Times New Roman-65" x="200"/>
      <use xlink:href="#Times New Roman-72" x="250"/>
     </g>
    </g>
   </g>
  </g>
 </g>
 <defs>
  <clipPath id="pe5b5f20334">
   <rect x="135" y="51.84" width="837" height="332.64"/>
  </clipPath>
 </defs>
</svg>
