<?xml version="1.0" encoding="utf-8" standalone="no"?>
<!DOCTYPE svg PUBLIC "-//W3C//DTD SVG 1.1//EN"
  "http://www.w3.org/Graphics/SVG/1.1/DTD/svg11.dtd">
<svg xmlns:xlink="http://www.w3.org/1999/xlink" width="1080pt" height="432pt" viewBox="0 0 1080 432" xmlns="http://www.w3.org/2000/svg" version="1.1">
 <metadata>
  <rdf:RDF xmlns:dc="http://purl.org/dc/elements/1.1/" xmlns:cc="http://creativecommons.org/ns#" xmlns:rdf="http://www.w3.org/1999/02/22-rdf-syntax-ns#">
   <cc:Work>
    <dc:type rdf:resource="http://purl.org/dc/dcmitype/StillImage"/>
    <dc:date>2024-04-12T06:12:36.532150</dc:date>
    <dc:format>image/svg+xml</dc:format>
    <dc:creator>
     <cc:Agent>
      <dc:title>Matplotlib v3.8.3, https://matplotlib.org/</dc:title>
     </cc:Agent>
    </dc:creator>
   </cc:Work>
  </rdf:RDF>
 </metadata>
 <defs>
  <style type="text/css">*{stroke-linejoin: round; stroke-linecap: butt}</style>
 </defs>
 <g id="figure_1">
  <g id="patch_1">
   <path d="M 0 432 
L 1080 432 
L 1080 0 
L 0 0 
z
" style="fill: #ffffff"/>
  </g>
  <g id="axes_1">
   <g id="patch_2">
    <path d="M 135 384.48 
L 972 384.48 
L 972 51.84 
L 135 51.84 
z
" style="fill: #ffffff"/>
   </g>
   <g id="matplotlib.axis_1">
    <g id="xtick_1">
     <g id="line2d_1">
      <defs>
       <path id="m8d185a610f" d="M 0 0 
L 0 3.5 
" style="stroke: #000000; stroke-width: 0.8"/>
      </defs>
      <g>
       <use xlink:href="#m8d185a610f" x="173.045455" y="384.48" style="stroke: #000000; stroke-width: 0.8"/>
      </g>
     </g>
     <g id="text_1">
      <!-- 0 -->
      <g transform="translate(170.545455 398.628438) scale(0.1 -0.1)">
       <defs>
        <path id="Times New Roman-30" d="M 1600 4225
Q 1250 4225 1012 3687 
Q 775 3150 775 2250 
Q 775 1300 1012 775 
Q 1250 250 1600 250 
Q 1975 250 2187 775 
Q 2400 1300 2400 2250 
Q 2400 3150 2200 3687 
Q 2000 4225 1600 4225 
z
M 1600 50 
Q 1050 50 675 625 
Q 300 1200 300 2250 
Q 300 3225 662 3825 
Q 1025 4425 1600 4425 
Q 2150 4425 2512 3850 
Q 2875 3275 2875 2250 
Q 2875 1225 2512 637 
Q 2150 50 1600 50 
z
" transform="scale(0.015625)"/>
       </defs>
       <use xlink:href="#Times New Roman-30"/>
      </g>
     </g>
    </g>
    <g id="xtick_2">
     <g id="line2d_2">
      <g>
       <use xlink:href="#m8d185a610f" x="299.969406" y="384.48" style="stroke: #000000; stroke-width: 0.8"/>
      </g>
     </g>
     <g id="text_2">
      <!-- 100 -->
      <g transform="translate(292.469406 398.628438) scale(0.1 -0.1)">
       <defs>
        <path id="Times New Roman-31" d="M 1825 4450
L 1825 650 
Q 1825 450 1950 350 
Q 2075 250 2300 250 
L 2550 250 
L 2550 100 
L 725 100 
L 725 250 
L 950 250 
Q 1200 250 1312 350 
Q 1425 450 1425 650 
L 1425 3675 
Q 1425 3775 1362 3837 
Q 1300 3900 1175 3900 
L 725 3900 
L 725 4050 
L 950 4050 
Q 1250 4050 1437 4150 
Q 1625 4250 1725 4450 
L 1825 4450 
z
" transform="scale(0.015625)"/>
       </defs>
       <use xlink:href="#Times New Roman-31"/>
       <use xlink:href="#Times New Roman-30" x="50"/>
       <use xlink:href="#Times New Roman-30" x="100"/>
      </g>
     </g>
    </g>
    <g id="xtick_3">
     <g id="line2d_3">
      <g>
       <use xlink:href="#m8d185a610f" x="426.893358" y="384.48" style="stroke: #000000; stroke-width: 0.8"/>
      </g>
     </g>
     <g id="text_3">
      <!-- 200 -->
      <g transform="translate(419.393358 398.628438) scale(0.1 -0.1)">
       <defs>
        <path id="Times New Roman-32" d="M 2325 3325
Q 2325 3775 2125 4012 
Q 1925 4250 1525 4250 
Q 1225 4250 1012 4087 
Q 800 3925 800 3675 
Q 800 3525 900 3425 
Q 975 3325 975 3225 
Q 975 3100 912 3037 
Q 850 2975 725 2975 
Q 575 2975 487 3062 
Q 400 3150 400 3350 
Q 400 3875 775 4150 
Q 1150 4425 1575 4425 
Q 2175 4425 2462 4125 
Q 2750 3825 2750 3375 
Q 2750 3075 2612 2775 
Q 2475 2475 2175 2200 
Q 1450 1500 1062 1062 
Q 675 625 600 475 
L 2075 475 
Q 2300 475 2450 650 
Q 2600 825 2650 1175 
L 2800 1175 
L 2650 100 
L 325 100 
L 325 425 
Q 450 650 737 1000 
Q 1025 1350 1500 1825 
Q 1925 2250 2125 2625 
Q 2325 3000 2325 3325 
z
" transform="scale(0.015625)"/>
       </defs>
       <use xlink:href="#Times New Roman-32"/>
       <use xlink:href="#Times New Roman-30" x="50"/>
       <use xlink:href="#Times New Roman-30" x="100"/>
      </g>
     </g>
    </g>
    <g id="xtick_4">
     <g id="line2d_4">
      <g>
       <use xlink:href="#m8d185a610f" x="553.81731" y="384.48" style="stroke: #000000; stroke-width: 0.8"/>
      </g>
     </g>
     <g id="text_4">
      <!-- 300 -->
      <g transform="translate(546.31731 398.628438) scale(0.1 -0.1)">
       <defs>
        <path id="Times New Roman-33" d="M 2800 1250
Q 2800 775 2450 412 
Q 2100 50 1475 50 
Q 1025 50 700 300 
Q 375 550 375 875 
Q 375 1025 475 1137 
Q 575 1250 675 1250 
Q 825 1250 887 1137 
Q 950 1025 950 950 
Q 950 825 900 750 
Q 850 650 850 575 
Q 850 425 1037 325 
Q 1225 225 1450 225 
Q 1900 225 2125 487 
Q 2350 750 2350 1300 
Q 2350 1750 2112 2025 
Q 1875 2300 1225 2300 
L 1225 2475 
Q 1725 2475 1962 2712 
Q 2200 2950 2200 3375 
Q 2200 3725 2012 3987 
Q 1825 4250 1425 4250 
Q 1250 4250 1050 4162 
Q 850 4075 850 3875 
Q 850 3675 900 3625 
Q 950 3575 950 3500 
Q 950 3375 900 3300 
Q 850 3225 725 3225 
Q 625 3225 537 3300 
Q 450 3375 450 3575 
Q 450 3950 775 4187 
Q 1100 4425 1525 4425 
Q 2025 4425 2325 4112 
Q 2625 3800 2625 3450 
Q 2625 3075 2437 2812 
Q 2250 2550 1850 2425 
Q 2400 2225 2600 1900 
Q 2800 1575 2800 1250 
z
" transform="scale(0.015625)"/>
       </defs>
       <use xlink:href="#Times New Roman-33"/>
       <use xlink:href="#Times New Roman-30" x="50"/>
       <use xlink:href="#Times New Roman-30" x="100"/>
      </g>
     </g>
    </g>
    <g id="xtick_5">
     <g id="line2d_5">
      <g>
       <use xlink:href="#m8d185a610f" x="680.741262" y="384.48" style="stroke: #000000; stroke-width: 0.8"/>
      </g>
     </g>
     <g id="text_5">
      <!-- 400 -->
      <g transform="translate(673.241262 398.628438) scale(0.1 -0.1)">
       <defs>
        <path id="Times New Roman-34" d="M 2300 575
Q 2300 400 2400 325 
Q 2500 250 2675 250 
L 2900 250 
L 2900 100 
L 1250 100 
L 1250 250 
L 1525 250 
Q 1725 250 1812 325 
Q 1900 400 1900 575 
L 1900 1400 
L 225 1400 
L 225 1525 
L 2050 4425 
L 2300 4425 
L 2300 1550 
L 2975 1550 
L 2975 1400 
L 2300 1400 
L 2300 575 
z
M 1875 3800 
L 450 1550 
L 1900 1550 
L 1900 3800 
L 1875 3800 
z
" transform="scale(0.015625)"/>
       </defs>
       <use xlink:href="#Times New Roman-34"/>
       <use xlink:href="#Times New Roman-30" x="50"/>
       <use xlink:href="#Times New Roman-30" x="100"/>
      </g>
     </g>
    </g>
    <g id="xtick_6">
     <g id="line2d_6">
      <g>
       <use xlink:href="#m8d185a610f" x="807.665213" y="384.48" style="stroke: #000000; stroke-width: 0.8"/>
      </g>
     </g>
     <g id="text_6">
      <!-- 500 -->
      <g transform="translate(800.165213 398.628438) scale(0.1 -0.1)">
       <defs>
        <path id="Times New Roman-35" d="M 1725 2850
Q 2200 2850 2500 2487 
Q 2800 2125 2800 1525 
Q 2800 850 2487 450 
Q 2175 50 1525 50 
Q 1075 50 725 312 
Q 375 575 375 950 
Q 375 1100 462 1212 
Q 550 1325 700 1325 
Q 850 1325 900 1225 
Q 950 1125 950 1050 
Q 950 900 875 825 
Q 800 725 800 625 
Q 800 425 1037 325 
Q 1275 225 1550 225 
Q 1950 225 2162 550 
Q 2375 875 2375 1475 
Q 2375 1975 2187 2287 
Q 2000 2600 1625 2600 
Q 1350 2600 1150 2500 
Q 950 2400 775 2075 
L 550 2100 
L 675 4375 
L 2725 4375 
L 2650 4000 
L 850 4000 
L 750 2350 
Q 1000 2700 1237 2775 
Q 1475 2850 1725 2850 
z
" transform="scale(0.015625)"/>
       </defs>
       <use xlink:href="#Times New Roman-35"/>
       <use xlink:href="#Times New Roman-30" x="50"/>
       <use xlink:href="#Times New Roman-30" x="100"/>
      </g>
     </g>
    </g>
    <g id="xtick_7">
     <g id="line2d_7">
      <g>
       <use xlink:href="#m8d185a610f" x="934.589165" y="384.48" style="stroke: #000000; stroke-width: 0.8"/>
      </g>
     </g>
     <g id="text_7">
      <!-- 600 -->
      <g transform="translate(927.089165 398.628438) scale(0.1 -0.1)">
       <defs>
        <path id="Times New Roman-36" d="M 775 1800
Q 775 1050 1037 637 
Q 1300 225 1675 225 
Q 2050 225 2250 500 
Q 2450 775 2450 1525 
Q 2450 2025 2237 2300 
Q 2025 2575 1725 2575 
Q 1450 2575 1212 2412 
Q 975 2250 775 1800 
z
M 1750 2825 
Q 2350 2825 2612 2425 
Q 2875 2025 2875 1525 
Q 2875 775 2512 412 
Q 2150 50 1675 50 
Q 1000 50 650 562 
Q 300 1075 300 2050 
Q 300 3200 725 3812 
Q 1150 4425 1875 4425 
Q 2225 4425 2437 4225 
Q 2650 4025 2650 3875 
Q 2650 3725 2587 3650 
Q 2525 3575 2375 3575 
Q 2250 3575 2187 3637 
Q 2125 3700 2125 3825 
Q 2125 3875 2150 3925 
Q 2150 3975 2150 4025 
Q 2150 4125 2075 4187 
Q 2000 4250 1800 4250 
Q 1375 4250 1075 3862 
Q 775 3475 775 2175 
Q 925 2500 1187 2662 
Q 1450 2825 1750 2825 
z
" transform="scale(0.015625)"/>
       </defs>
       <use xlink:href="#Times New Roman-36"/>
       <use xlink:href="#Times New Roman-30" x="50"/>
       <use xlink:href="#Times New Roman-30" x="100"/>
      </g>
     </g>
    </g>
   </g>
   <g id="matplotlib.axis_2">
    <g id="ytick_1">
     <g id="line2d_8">
      <defs>
       <path id="m537a9dcd24" d="M 0 0 
L -3.5 0 
" style="stroke: #000000; stroke-width: 0.8"/>
      </defs>
      <g>
       <use xlink:href="#m537a9dcd24" x="135" y="378.287191" style="stroke: #000000; stroke-width: 0.8"/>
      </g>
     </g>
     <g id="text_8">
      <!-- 0 -->
      <g transform="translate(123 381.86141) scale(0.1 -0.1)">
       <use xlink:href="#Times New Roman-30"/>
      </g>
     </g>
    </g>
    <g id="ytick_2">
     <g id="line2d_9">
      <g>
       <use xlink:href="#m537a9dcd24" x="135" y="315.419646" style="stroke: #000000; stroke-width: 0.8"/>
      </g>
     </g>
     <g id="text_9">
      <!-- 1000 -->
      <g transform="translate(108 318.993865) scale(0.1 -0.1)">
       <use xlink:href="#Times New Roman-31"/>
       <use xlink:href="#Times New Roman-30" x="50"/>
       <use xlink:href="#Times New Roman-30" x="100"/>
       <use xlink:href="#Times New Roman-30" x="150"/>
      </g>
     </g>
    </g>
    <g id="ytick_3">
     <g id="line2d_10">
      <g>
       <use xlink:href="#m537a9dcd24" x="135" y="252.552101" style="stroke: #000000; stroke-width: 0.8"/>
      </g>
     </g>
     <g id="text_10">
      <!-- 2000 -->
      <g transform="translate(108 256.12632) scale(0.1 -0.1)">
       <use xlink:href="#Times New Roman-32"/>
       <use xlink:href="#Times New Roman-30" x="50"/>
       <use xlink:href="#Times New Roman-30" x="100"/>
       <use xlink:href="#Times New Roman-30" x="150"/>
      </g>
     </g>
    </g>
    <g id="ytick_4">
     <g id="line2d_11">
      <g>
       <use xlink:href="#m537a9dcd24" x="135" y="189.684556" style="stroke: #000000; stroke-width: 0.8"/>
      </g>
     </g>
     <g id="text_11">
      <!-- 3000 -->
      <g transform="translate(108 193.258775) scale(0.1 -0.1)">
       <use xlink:href="#Times New Roman-33"/>
       <use xlink:href="#Times New Roman-30" x="50"/>
       <use xlink:href="#Times New Roman-30" x="100"/>
       <use xlink:href="#Times New Roman-30" x="150"/>
      </g>
     </g>
    </g>
    <g id="ytick_5">
     <g id="line2d_12">
      <g>
       <use xlink:href="#m537a9dcd24" x="135" y="126.817011" style="stroke: #000000; stroke-width: 0.8"/>
      </g>
     </g>
     <g id="text_12">
      <!-- 4000 -->
      <g transform="translate(108 130.39123) scale(0.1 -0.1)">
       <use xlink:href="#Times New Roman-34"/>
       <use xlink:href="#Times New Roman-30" x="50"/>
       <use xlink:href="#Times New Roman-30" x="100"/>
       <use xlink:href="#Times New Roman-30" x="150"/>
      </g>
     </g>
    </g>
    <g id="ytick_6">
     <g id="line2d_13">
      <g>
       <use xlink:href="#m537a9dcd24" x="135" y="63.949466" style="stroke: #000000; stroke-width: 0.8"/>
      </g>
     </g>
     <g id="text_13">
      <!-- 5000 -->
      <g transform="translate(108 67.523685) scale(0.1 -0.1)">
       <use xlink:href="#Times New Roman-35"/>
       <use xlink:href="#Times New Roman-30" x="50"/>
       <use xlink:href="#Times New Roman-30" x="100"/>
       <use xlink:href="#Times New Roman-30" x="150"/>
      </g>
     </g>
    </g>
    <g id="text_14">
     <!-- Bitrate (kbps) -->
     <g transform="translate(102.710938 253.16) rotate(-90) scale(0.1 -0.1)">
      <defs>
       <path id="Times New Roman-42" d="M 100 100
L 100 250 
L 300 250 
Q 425 250 475 300 
Q 525 350 525 450 
L 525 4025 
Q 525 4125 475 4175 
Q 425 4225 300 4225 
L 150 4225 
L 150 4375 
L 1600 4375 
Q 2200 4375 2487 4137 
Q 2775 3900 2775 3400 
Q 2775 3050 2625 2825 
Q 2475 2600 2000 2425 
Q 2575 2250 2775 1925 
Q 2975 1600 2975 1200 
Q 2975 700 2625 400 
Q 2275 100 1675 100 
L 100 100 
z
M 1600 250 
Q 2025 250 2262 512 
Q 2500 775 2500 1250 
Q 2500 1800 2250 2062 
Q 2000 2325 1500 2325 
L 925 2325 
L 925 450 
Q 925 350 987 300 
Q 1050 250 1150 250 
L 1600 250 
z
M 2350 3400 
Q 2350 3850 2100 4037 
Q 1850 4225 1450 4225 
L 1150 4225 
Q 1050 4225 987 4175 
Q 925 4125 925 4025 
L 925 2475 
L 1575 2475 
Q 1850 2475 2100 2700 
Q 2350 2925 2350 3400 
z
" transform="scale(0.015625)"/>
       <path id="Times New Roman-69" d="M 1425 2525
Q 1425 2625 1375 2687 
Q 1325 2750 1200 2750 
L 675 2750 
L 675 2900 
L 925 2900 
Q 1150 2900 1350 2937 
Q 1550 2975 1725 3075 
L 1775 3075 
L 1775 450 
Q 1775 350 1837 300 
Q 1900 250 2000 250 
L 2525 250 
L 2525 100 
L 675 100 
L 675 250 
L 1200 250 
Q 1325 250 1375 300 
Q 1425 350 1425 450 
L 1425 2525 
z
M 1725 3025 
L 1725 3025 
z
M 1625 4425 
Q 1750 4425 1850 4337 
Q 1950 4250 1950 4125 
Q 1950 4000 1850 3900 
Q 1750 3800 1625 3800 
Q 1500 3800 1400 3900 
Q 1300 4000 1300 4125 
Q 1300 4250 1400 4337 
Q 1500 4425 1625 4425 
z
" transform="scale(0.015625)"/>
       <path id="Times New Roman-74" d="M 1500 900
Q 1500 550 1625 425 
Q 1750 300 2000 300 
Q 2250 300 2400 462 
Q 2550 625 2600 925 
L 2725 875 
Q 2675 525 2462 300 
Q 2250 75 1900 75 
Q 1525 75 1337 300 
Q 1150 525 1150 1000 
L 1150 2750 
L 400 2750 
L 400 2900 
L 600 2900 
Q 900 2900 1087 3087 
Q 1275 3275 1325 3675 
L 1350 3875 
L 1500 3875 
L 1500 2900 
L 2500 2900 
L 2500 2750 
L 1500 2750 
L 1500 900 
z
" transform="scale(0.015625)"/>
       <path id="Times New Roman-72" d="M 1275 2125
Q 1525 2525 1812 2737 
Q 2100 2950 2400 2950 
Q 2650 2950 2787 2837 
Q 2925 2725 2925 2575 
Q 2925 2450 2862 2375 
Q 2800 2300 2675 2300 
Q 2550 2300 2487 2375 
Q 2425 2450 2450 2575 
Q 2450 2650 2425 2700 
Q 2400 2750 2275 2750 
Q 2075 2750 1787 2500 
Q 1500 2250 1275 1800 
L 1275 450 
Q 1275 350 1337 300 
Q 1400 250 1500 250 
L 2050 250 
L 2050 100 
L 200 100 
L 200 250 
L 700 250 
Q 825 250 875 300 
Q 925 350 925 450 
L 925 2525 
Q 925 2625 875 2687 
Q 825 2750 700 2750 
L 225 2750 
L 225 2900 
L 425 2900 
Q 600 2900 837 2937 
Q 1075 2975 1200 3025 
L 1275 3025 
L 1275 2125 
z
" transform="scale(0.015625)"/>
       <path id="Times New Roman-61" d="M 1225 75
Q 775 75 525 287 
Q 275 500 275 775 
Q 275 1225 662 1512 
Q 1050 1800 2200 1925 
L 2200 2225 
Q 2200 2475 2087 2637 
Q 1975 2800 1575 2800 
Q 1150 2800 975 2662 
Q 800 2525 850 2375 
Q 875 2325 875 2275 
Q 875 2225 837 2150 
Q 800 2075 650 2075 
Q 550 2075 487 2137 
Q 425 2200 425 2325 
Q 425 2550 750 2750 
Q 1075 2950 1550 2950 
Q 2050 2950 2300 2762 
Q 2550 2575 2550 2225 
L 2550 575 
Q 2550 375 2587 337 
Q 2625 300 2725 300 
Q 2850 300 2900 412 
Q 2950 525 2950 725 
L 3075 725 
Q 3075 375 2950 237 
Q 2825 100 2625 100 
Q 2450 100 2350 175 
Q 2250 250 2200 425 
Q 1950 250 1737 162 
Q 1525 75 1225 75 
z
M 700 850 
Q 700 625 837 437 
Q 975 250 1275 250 
Q 1500 250 1725 337 
Q 1950 425 2200 600 
L 2200 1775 
Q 1350 1675 1025 1437 
Q 700 1200 700 850 
z
" transform="scale(0.015625)"/>
       <path id="Times New Roman-65" d="M 2400 1650
Q 2425 2200 2212 2487 
Q 2000 2775 1650 2775 
Q 1275 2775 1037 2475 
Q 800 2175 800 1650 
L 2400 1650 
z
M 800 1500 
Q 800 825 1062 537 
Q 1325 250 1750 250 
Q 2075 250 2300 437 
Q 2525 625 2625 900 
L 2750 850 
Q 2675 575 2412 312 
Q 2150 50 1700 50 
Q 1125 50 762 425 
Q 400 800 400 1500 
Q 400 2125 762 2537 
Q 1125 2950 1650 2950 
Q 2125 2950 2475 2625 
Q 2825 2300 2825 1500 
L 800 1500 
z
" transform="scale(0.015625)"/>
       <path id="Times New Roman-20" d="M 0 0
Q 0 0 0 0 
z
" transform="scale(0.015625)"/>
       <path id="Times New Roman-28" d="M 2900 5025
Q 2325 4425 2037 3737 
Q 1750 3050 1750 2300 
Q 1750 1525 2037 850 
Q 2325 175 2900 -425 
L 2775 -550 
Q 2075 75 1725 787 
Q 1375 1500 1375 2300 
Q 1375 3075 1725 3787 
Q 2075 4500 2775 5150 
L 2900 5025 
z
" transform="scale(0.015625)"/>
       <path id="Times New Roman-6b" d="M 1675 1900
L 2625 425 
Q 2700 325 2762 287 
Q 2825 250 2900 250 
L 3000 250 
L 3000 100 
L 1975 100 
L 1975 250 
L 2050 250 
Q 2175 250 2225 287 
Q 2275 325 2200 425 
L 1425 1650 
L 925 1125 
L 925 450 
Q 925 350 987 300 
Q 1050 250 1150 250 
L 1275 250 
L 1275 100 
L 225 100 
L 225 250 
L 350 250 
Q 475 250 525 300 
Q 575 350 575 450 
L 575 4025 
Q 575 4125 525 4175 
Q 475 4225 350 4225 
L 200 4225 
L 200 4375 
L 425 4375 
Q 575 4375 687 4425 
Q 800 4475 875 4575 
L 925 4575 
L 925 1400 
L 1975 2525 
Q 2025 2625 2012 2687 
Q 2000 2750 1900 2750 
L 1750 2750 
L 1750 2900 
L 2800 2900 
L 2800 2750 
L 2675 2750 
Q 2600 2750 2487 2712 
Q 2375 2675 2275 2575 
L 1675 1900 
z
M 2450 2750 
L 2450 2750 
z
M 2175 2750 
L 2175 2750 
z
M 2300 250 
L 2300 250 
z
M 2750 250 
L 2750 250 
z
" transform="scale(0.015625)"/>
       <path id="Times New Roman-62" d="M 875 2325
Q 1000 2600 1275 2762 
Q 1550 2925 1800 2925 
Q 2325 2925 2587 2562 
Q 2850 2200 2850 1500 
Q 2850 800 2512 437 
Q 2175 75 1675 75 
Q 1425 75 1212 162 
Q 1000 250 850 400 
L 625 100 
L 525 100 
L 525 4025 
Q 525 4125 475 4175 
Q 425 4225 300 4225 
L 150 4225 
L 150 4375 
L 375 4375 
Q 500 4375 625 4425 
Q 750 4475 875 4575 
L 875 2325 
z
M 875 925 
Q 875 650 1062 450 
Q 1250 250 1625 250 
Q 2075 250 2262 562 
Q 2450 875 2450 1500 
Q 2450 2100 2287 2412 
Q 2125 2725 1775 2725 
Q 1475 2725 1250 2550 
Q 1025 2375 875 1925 
L 875 925 
z
" transform="scale(0.015625)"/>
       <path id="Times New Roman-70" d="M 1150 -675
L 1325 -675 
L 1325 -825 
L 175 -825 
L 175 -675 
L 325 -675 
Q 450 -675 500 -625 
Q 550 -575 550 -450 
L 550 2500 
Q 550 2600 500 2662 
Q 450 2725 325 2725 
L 175 2725 
L 175 2875 
L 400 2875 
Q 525 2875 637 2900 
Q 750 2925 850 3000 
L 900 3000 
L 900 2425 
Q 1075 2675 1287 2800 
Q 1500 2925 1750 2925 
Q 2250 2925 2575 2587 
Q 2900 2250 2900 1525 
Q 2900 825 2550 450 
Q 2200 75 1725 75 
Q 1450 75 1262 162 
Q 1075 250 900 425 
L 900 -450 
Q 900 -575 975 -625 
Q 1050 -675 1150 -675 
z
M 900 750 
Q 1025 500 1212 375 
Q 1400 250 1650 250 
Q 2000 250 2250 562 
Q 2500 875 2500 1525 
Q 2500 2125 2312 2425 
Q 2125 2725 1750 2725 
Q 1525 2725 1300 2587 
Q 1075 2450 900 2150 
L 900 750 
z
" transform="scale(0.015625)"/>
       <path id="Times New Roman-73" d="M 625 2175
Q 625 2550 912 2750 
Q 1200 2950 1600 2950 
Q 1825 2950 2025 2900 
Q 2225 2825 2300 2825 
Q 2375 2825 2425 2850 
Q 2475 2875 2550 2950 
L 2650 2125 
L 2500 2100 
Q 2400 2425 2162 2612 
Q 1925 2800 1625 2800 
Q 1300 2800 1112 2675 
Q 925 2550 925 2325 
Q 925 2125 1012 2012 
Q 1100 1900 1325 1850 
Q 1500 1775 1775 1700 
Q 2025 1600 2250 1500 
Q 2450 1400 2587 1237 
Q 2725 1075 2725 875 
Q 2725 500 2462 287 
Q 2200 75 1700 75 
Q 1375 75 1225 150 
Q 1050 200 950 200 
Q 875 200 787 162 
Q 700 125 600 75 
L 525 1000 
L 675 1025 
Q 750 625 1000 425 
Q 1250 225 1700 225 
Q 2050 225 2237 350 
Q 2425 475 2425 725 
Q 2425 900 2325 1012 
Q 2225 1125 2125 1175 
Q 1875 1275 1575 1400 
Q 1275 1500 1050 1600 
Q 825 1700 725 1850 
Q 625 2000 625 2175 
z
" transform="scale(0.015625)"/>
       <path id="Times New Roman-29" d="M 275 5025
L 400 5150 
Q 1100 4500 1450 3787 
Q 1800 3075 1800 2300 
Q 1800 1500 1450 787 
Q 1100 75 400 -550 
L 275 -425 
Q 850 175 1137 850 
Q 1425 1525 1425 2300 
Q 1425 3050 1137 3737 
Q 850 4425 275 5025 
z
" transform="scale(0.015625)"/>
      </defs>
      <use xlink:href="#Times New Roman-42"/>
      <use xlink:href="#Times New Roman-69" x="50"/>
      <use xlink:href="#Times New Roman-74" x="100"/>
      <use xlink:href="#Times New Roman-72" x="150"/>
      <use xlink:href="#Times New Roman-61" x="200"/>
      <use xlink:href="#Times New Roman-74" x="250"/>
      <use xlink:href="#Times New Roman-65" x="300"/>
      <use xlink:href="#Times New Roman-20" x="350"/>
      <use xlink:href="#Times New Roman-28" x="400"/>
      <use xlink:href="#Times New Roman-6b" x="450"/>
      <use xlink:href="#Times New Roman-62" x="500"/>
      <use xlink:href="#Times New Roman-70" x="550"/>
      <use xlink:href="#Times New Roman-73" x="600"/>
      <use xlink:href="#Times New Roman-29" x="650"/>
     </g>
    </g>
   </g>
   <g id="line2d_14">
    <path d="M 173.045455 369.36 
L 176.218553 369.36 
L 177.487793 337.61189 
L 180.026272 337.61189 
L 180.660892 258.587386 
L 181.295511 369.36 
L 195.257146 369.36 
L 196.526386 337.61189 
L 197.795625 337.61189 
L 199.064865 133.983911 
L 200.334104 133.983911 
L 201.603344 309.572965 
L 202.872583 309.572965 
L 204.141823 258.587386 
L 220.641936 258.587386 
L 221.911176 133.983911 
L 223.180415 258.587386 
L 225.718895 258.587386 
L 226.988134 133.983911 
L 258.084502 133.983911 
L 258.719122 258.587386 
L 285.373152 258.587386 
L 286.642391 309.572965 
L 304.411745 309.572965 
L 305.680984 337.61189 
L 306.315604 337.61189 
L 306.950224 369.36 
L 333.604254 369.36 
L 334.873493 337.61189 
L 336.777352 337.61189 
L 337.411972 369.36 
L 350.104367 369.36 
L 351.373607 133.983911 
L 352.008227 133.983911 
L 352.642846 309.572965 
L 355.181325 309.572965 
L 356.450565 133.983911 
L 357.719804 258.587386 
L 375.489158 258.587386 
L 376.758397 133.983911 
L 427.527978 133.983911 
L 428.797217 258.587386 
L 431.335696 258.587386 
L 432.604936 133.983911 
L 433.239556 133.983911 
L 433.874175 258.587386 
L 436.412654 258.587386 
L 437.681894 133.983911 
L 442.758852 133.983911 
L 444.028092 258.587386 
L 446.566571 258.587386 
L 447.83581 133.983911 
L 450.374289 133.983911 
L 451.643529 309.572965 
L 452.278148 309.572965 
L 452.912768 337.61189 
L 456.720487 337.61189 
L 457.989726 309.572965 
L 458.624346 309.572965 
L 459.258966 337.61189 
L 461.797445 337.61189 
L 463.066684 258.587386 
L 465.605163 258.587386 
L 466.874403 337.61189 
L 470.682121 337.61189 
L 471.951361 369.36 
L 475.75908 369.36 
L 477.028319 309.572965 
L 480.201418 309.572965 
L 480.836038 369.36 
L 482.105277 369.36 
L 483.374517 309.572965 
L 485.912996 309.572965 
L 486.547615 258.587386 
L 489.720714 258.587386 
L 490.989954 337.61189 
L 504.951588 337.61189 
L 506.220828 258.587386 
L 515.105505 258.587386 
L 516.374744 133.983911 
L 517.643984 258.587386 
L 520.182463 258.587386 
L 521.451702 133.983911 
L 524.624801 133.983911 
L 525.259421 258.587386 
L 543.028774 258.587386 
L 544.298013 133.983911 
L 550.644211 133.983911 
L 551.913451 258.587386 
L 553.18269 258.587386 
L 554.45193 133.983911 
L 567.778945 133.983911 
L 568.413564 258.587386 
L 570.952043 258.587386 
L 572.221283 133.983911 
L 572.855903 133.983911 
L 573.490522 258.587386 
L 576.029001 258.587386 
L 577.298241 133.983911 
L 578.56748 133.983911 
L 579.83672 258.587386 
L 583.644439 258.587386 
L 584.913678 133.983911 
L 589.990636 133.983911 
L 591.259876 309.572965 
L 593.798355 309.572965 
L 595.067594 133.983911 
L 596.336834 309.572965 
L 598.875313 309.572965 
L 600.144552 133.983911 
L 600.779172 133.983911 
L 601.413792 309.572965 
L 606.49075 309.572965 
L 607.759989 337.61189 
L 624.260103 337.61189 
L 625.529343 369.36 
L 638.221738 369.36 
L 639.490977 337.61189 
L 647.741034 337.61189 
L 648.375654 369.36 
L 649.644893 369.36 
L 650.914133 337.61189 
L 652.183373 337.61189 
L 653.452612 309.572965 
L 654.721852 309.572965 
L 655.356471 133.983911 
L 655.991091 309.572965 
L 669.952726 309.572965 
L 671.221965 133.983911 
L 672.491205 133.983911 
L 673.760444 258.587386 
L 677.568163 258.587386 
L 678.837402 133.983911 
L 685.1836 133.983911 
L 686.452839 258.587386 
L 687.722079 258.587386 
L 688.991319 133.983911 
L 690.260558 258.587386 
L 692.799037 258.587386 
L 694.068277 133.983911 
L 694.702896 133.983911 
L 695.337516 258.587386 
L 699.145235 258.587386 
L 700.414474 133.983911 
L 701.683714 258.587386 
L 702.952953 258.587386 
L 704.222193 133.983911 
L 715.645348 133.983911 
L 716.914588 258.587386 
L 718.183827 258.587386 
L 719.453067 133.983911 
L 720.722306 133.983911 
L 721.991546 258.587386 
L 723.260786 258.587386 
L 724.530025 133.983911 
L 725.799265 258.587386 
L 728.337744 258.587386 
L 729.606983 133.983911 
L 731.510842 133.983911 
L 732.145462 258.587386 
L 738.49166 258.587386 
L 739.760899 133.983911 
L 741.030139 133.983911 
L 742.299378 258.587386 
L 743.568618 258.587386 
L 744.203238 133.983911 
L 744.837857 258.587386 
L 748.645576 258.587386 
L 749.914815 309.572965 
L 763.24183 309.572965 
L 763.87645 337.61189 
L 765.14569 369.36 
L 782.915043 369.36 
L 783.549663 337.61189 
L 790.53048 337.61189 
L 791.799719 369.36 
L 793.068959 369.36 
L 794.338198 337.61189 
L 803.222875 337.61189 
L 804.492115 309.572965 
L 807.665213 309.572965 
L 808.299833 337.61189 
L 810.838312 337.61189 
L 812.107552 258.587386 
L 812.742172 258.587386 
L 813.376791 309.572965 
L 819.722989 309.572965 
L 820.992228 133.983911 
L 822.261468 258.587386 
L 827.338426 258.587386 
L 828.607665 133.983911 
L 831.146145 133.983911 
L 831.780764 258.587386 
L 834.953863 258.587386 
L 836.223103 133.983911 
L 900.319698 133.983911 
L 900.954318 309.572965 
L 908.569755 309.572965 
L 909.838995 133.983911 
L 911.108234 309.572965 
L 916.185192 309.572965 
L 917.454432 258.587386 
L 918.089051 258.587386 
L 918.723671 337.61189 
L 926.339108 337.61189 
L 927.608348 369.36 
L 933.954545 369.36 
L 933.954545 369.36 
" clip-path="url(#pb970bfeb90)" style="fill: none; stroke: #ff0000; stroke-width: 1.5; stroke-linecap: square"/>
   </g>
   <g id="line2d_15">
    <path d="M 173.045455 343.576762 
L 173.680074 343.576762 
L 174.949314 343.234651 
L 176.218553 342.38464 
L 177.487793 341.347409 
L 178.757032 339.979926 
L 180.026272 337.962707 
L 181.295511 331.552665 
L 183.83399 323.754709 
L 185.10323 315.069835 
L 187.641709 306.816013 
L 190.180188 297.600033 
L 191.449428 292.341423 
L 192.718667 288.547006 
L 196.526386 275.196488 
L 197.795625 272.820128 
L 199.064865 268.235995 
L 200.334104 265.011342 
L 201.603344 259.67139 
L 202.237963 253.791179 
L 202.872583 242.303954 
L 204.141823 231.376233 
L 204.776442 219.544058 
L 205.411062 210.272152 
L 206.680302 201.464425 
L 207.949541 196.61893 
L 209.218781 191.244979 
L 210.48802 185.363192 
L 211.75726 180.959782 
L 213.026499 188.252216 
L 214.295739 199.601836 
L 215.564978 219.984466 
L 216.834218 228.278959 
L 218.103457 230.868062 
L 219.372697 217.967676 
L 220.641936 218.554909 
L 221.911176 210.677454 
L 223.180415 221.15112 
L 224.449655 222.418631 
L 225.084275 235.137959 
L 225.718895 225.991217 
L 226.988134 212.714866 
L 228.257374 201.347006 
L 229.526613 198.108707 
L 230.795853 196.368064 
L 232.065092 183.502413 
L 232.699712 172.074938 
L 233.334332 144.854129 
L 235.872811 103.248823 
L 237.14205 98.920485 
L 237.77667 98.033064 
L 238.41129 96.729308 
L 239.680529 95.606645 
L 242.219008 75.84139 
L 243.488248 83.991673 
L 246.026727 124.119206 
L 247.295966 126.793742 
L 248.565206 129.969911 
L 249.834445 118.090225 
L 251.103685 104.748692 
L 252.372924 89.315062 
L 253.642164 89.427888 
L 254.911403 90.310381 
L 256.180643 89.073047 
L 257.449882 88.100394 
L 258.084502 89.403311 
L 258.719122 93.453523 
L 262.526841 104.605153 
L 265.06532 113.704048 
L 266.334559 119.017915 
L 268.873038 131.076212 
L 272.680757 150.955265 
L 276.488475 171.912387 
L 280.296194 193.554515 
L 287.911631 239.197492 
L 292.988589 267.396654 
L 296.796308 287.116979 
L 303.142505 318.803261 
L 305.680984 328.248448 
L 306.950224 334.177209 
L 308.219463 336.378848 
L 309.488703 339.160913 
L 310.757942 341.650065 
L 313.296421 345.913423 
L 314.565661 347.824764 
L 315.8349 349.530034 
L 317.10414 350.871342 
L 318.373379 351.841313 
L 319.642619 352.437432 
L 320.911858 352.628582 
L 322.181098 353.39275 
L 323.450337 354.341798 
L 324.719577 354.867706 
L 325.988816 354.051904 
L 327.258056 352.820471 
L 328.527295 350.257051 
L 329.796535 346.678262 
L 331.065775 342.209133 
L 332.335014 338.30464 
L 333.604254 329.978864 
L 334.873493 325.901661 
L 336.142733 324.155519 
L 339.950451 313.498749 
L 342.48893 300.950723 
L 343.75817 296.309522 
L 345.027409 299.036163 
L 346.296649 301.128764 
L 347.565888 304.139868 
L 348.835128 305.584849 
L 349.469748 310.306486 
L 350.104367 311.465965 
L 351.373607 308.204531 
L 352.008227 298.53272 
L 352.642846 284.844829 
L 353.912086 265.830062 
L 354.546706 254.388873 
L 355.181325 257.569937 
L 356.450565 266.703703 
L 357.719804 271.761875 
L 358.989044 266.274024 
L 359.623664 250.224158 
L 360.258283 224.365915 
L 361.527523 198.309313 
L 362.796762 182.334318 
L 364.066002 176.427987 
L 365.335241 177.278258 
L 366.604481 184.442979 
L 370.4122 252.939935 
L 371.681439 264.791121 
L 372.950679 281.230297 
L 374.219918 279.927983 
L 375.489158 289.18906 
L 376.758397 282.602285 
L 378.027637 288.290775 
L 379.296876 270.989157 
L 380.566116 264.534555 
L 381.835355 244.538451 
L 383.104595 250.723913 
L 384.373834 242.987852 
L 385.643074 254.569563 
L 386.912313 242.479078 
L 388.181553 247.474047 
L 389.450792 229.001684 
L 390.720032 236.471455 
L 391.989271 226.107497 
L 393.258511 243.752757 
L 394.52775 231.261731 
L 395.16237 242.53886 
L 395.79699 237.162059 
L 397.066229 243.791014 
L 398.335469 230.629501 
L 399.604708 228.700892 
L 400.873948 231.52564 
L 402.143188 232.670165 
L 403.412427 244.1079 
L 404.681667 249.070715 
L 405.950906 270.692054 
L 407.220146 262.381132 
L 408.489385 270.645649 
L 409.758625 257.287922 
L 411.027864 267.28812 
L 412.297104 256.04757 
L 413.566343 264.873101 
L 414.835583 255.021203 
L 416.104822 265.828956 
L 417.374062 261.176891 
L 418.643301 271.633524 
L 419.912541 260.462347 
L 421.18178 264.83585 
L 422.45102 249.584183 
L 423.720259 242.648166 
L 424.989499 226.939528 
L 426.258738 238.453476 
L 427.527978 239.732051 
L 428.797217 251.704982 
L 430.066457 251.565969 
L 430.701077 267.691511 
L 431.335696 274.85878 
L 432.604936 280.482022 
L 433.239556 280.956832 
L 433.874175 287.423102 
L 435.143415 284.246196 
L 436.412654 270.004031 
L 437.681894 268.528404 
L 438.951134 269.063633 
L 440.220373 266.508931 
L 441.489613 270.952476 
L 444.028092 282.758766 
L 445.297331 286.542923 
L 445.931951 293.250404 
L 446.566571 293.393977 
L 447.83581 292.785285 
L 449.10505 291.544766 
L 450.374289 296.146771 
L 451.643529 302.351848 
L 452.912768 314.996036 
L 455.451247 326.966822 
L 456.085867 331.736809 
L 456.720487 335.046424 
L 457.989726 337.402029 
L 458.624346 339.390656 
L 459.258966 340.126927 
L 460.528205 340.047898 
L 461.162825 340.718385 
L 461.797445 342.038804 
L 463.066684 343.571834 
L 465.605163 347.777387 
L 466.874403 349.76484 
L 468.143642 351.104908 
L 469.412882 352.628415 
L 470.682121 353.495819 
L 471.951361 354.118158 
L 474.48984 353.97596 
L 475.75908 353.059401 
L 477.028319 351.674438 
L 479.566798 347.717705 
L 481.470657 340.798218 
L 482.105277 338.882149 
L 484.643756 334.869322 
L 485.912996 329.283767 
L 487.182235 322.57632 
L 488.451475 319.299865 
L 489.720714 313.119197 
L 490.989954 309.89602 
L 492.259193 306.325814 
L 493.528433 304.443778 
L 494.797672 305.250393 
L 496.066912 310.258539 
L 496.701532 319.73806 
L 497.336151 333.035501 
L 498.605391 343.760168 
L 499.87463 352.523133 
L 501.14387 350.705573 
L 502.413109 346.005596 
L 504.951588 310.831355 
L 506.220828 308.322454 
L 507.490067 303.432029 
L 508.759307 299.237607 
L 510.028547 292.856334 
L 511.297786 275.067132 
L 513.836265 236.719371 
L 514.470885 239.171172 
L 515.105505 250.832615 
L 516.374744 266.895089 
L 517.643984 277.310011 
L 518.913223 273.296849 
L 519.547843 254.693621 
L 520.182463 216.19233 
L 521.451702 182.288315 
L 522.720942 163.320054 
L 523.990181 158.331489 
L 524.624801 154.036278 
L 525.259421 148.343864 
L 526.52866 148.244752 
L 527.7979 134.772119 
L 529.067139 123.520371 
L 530.336379 120.012966 
L 534.144097 92.314297 
L 536.682576 84.934284 
L 537.951816 98.394141 
L 539.221055 118.334687 
L 540.490295 154.461195 
L 541.759534 178.379362 
L 542.394154 211.537918 
L 543.028774 227.700242 
L 544.298013 233.732744 
L 545.567253 208.993778 
L 548.105732 169.816065 
L 549.374972 151.833265 
L 550.644211 131.5588 
L 551.913451 116.993714 
L 552.54807 111.084299 
L 553.18269 95.149841 
L 554.45193 79.410859 
L 555.721169 71.139099 
L 556.990409 73.155286 
L 559.528888 104.163102 
L 560.798127 128.942672 
L 563.336606 153.541652 
L 564.605846 145.064291 
L 565.875085 150.359515 
L 567.144325 146.673801 
L 567.778945 156.911755 
L 568.413564 153.483881 
L 569.682804 160.677504 
L 570.317424 168.828692 
L 570.952043 191.819002 
L 572.221283 214.474688 
L 572.855903 235.362907 
L 573.490522 239.364469 
L 574.759762 226.78479 
L 576.029001 172.579957 
L 577.298241 159.98338 
L 578.56748 172.686748 
L 579.83672 189.914869 
L 581.10596 212.777666 
L 582.375199 225.812103 
L 583.009819 242.430527 
L 583.644439 248.082303 
L 584.913678 251.533546 
L 586.182918 249.963568 
L 587.452157 261.962317 
L 588.721397 280.345223 
L 589.990636 295.853925 
L 591.259876 304.311773 
L 592.529115 306.669523 
L 593.163735 310.657103 
L 593.798355 310.658209 
L 595.067594 310.797323 
L 597.606073 313.125903 
L 598.240693 313.088015 
L 598.875313 310.813517 
L 600.144552 312.183594 
L 600.779172 316.814199 
L 601.413792 324.424358 
L 602.683031 327.121325 
L 603.952271 326.551292 
L 605.22151 324.382144 
L 605.85613 327.578263 
L 606.49075 333.901799 
L 607.759989 340.793759 
L 609.029229 345.926332 
L 610.298468 349.439873 
L 610.933088 349.775301 
L 611.567708 347.519915 
L 612.836947 344.862479 
L 614.106187 343.043042 
L 615.375426 343.549436 
L 616.010046 343.953465 
L 616.644666 345.746246 
L 619.183145 348.917553 
L 620.452385 350.144761 
L 621.721624 351.84128 
L 622.990864 352.419326 
L 624.260103 352.739498 
L 625.529343 352.708952 
L 626.798582 352.40474 
L 628.067822 351.753232 
L 629.337061 350.723813 
L 630.606301 349.281783 
L 631.87554 347.511131 
L 633.14478 345.327833 
L 634.414019 342.79013 
L 635.683259 339.859631 
L 636.952498 336.62445 
L 638.221738 332.994528 
L 639.490977 329.005809 
L 642.029456 319.959488 
L 645.837175 304.776489 
L 647.106414 300.920714 
L 648.375654 292.346453 
L 649.010274 291.357404 
L 649.644893 296.041589 
L 650.914133 301.349353 
L 652.183373 302.419309 
L 653.452612 298.269112 
L 654.087232 288.468045 
L 655.356471 256.761679 
L 655.991091 246.470211 
L 657.260331 249.597528 
L 658.52957 255.076225 
L 659.79881 268.440557 
L 661.068049 272.281345 
L 662.337289 279.706086 
L 663.606528 272.476687 
L 664.875768 277.979458 
L 666.145007 271.493774 
L 667.414247 269.88185 
L 668.683486 249.962964 
L 669.318106 237.334165 
L 669.952726 216.148708 
L 671.221965 207.772538 
L 672.491205 213.5019 
L 673.760444 228.140617 
L 675.029684 240.020303 
L 676.298923 233.20697 
L 676.933543 217.435766 
L 677.568163 184.218299 
L 678.837402 161.227218 
L 680.106642 140.33521 
L 681.375881 134.438268 
L 682.645121 132.181708 
L 683.91436 137.228078 
L 685.1836 136.466525 
L 686.452839 134.327017 
L 687.087459 143.968216 
L 687.722079 162.298414 
L 688.991319 173.49561 
L 690.260558 179.587626 
L 691.529798 180.648495 
L 692.799037 189.476439 
L 694.068277 186.767636 
L 694.702896 186.479887 
L 695.337516 172.677628 
L 696.606756 160.22754 
L 699.145235 98.451946 
L 700.414474 72.956726 
L 701.683714 66.96 
L 702.952953 67.411607 
L 704.222193 69.843256 
L 706.760672 110.343166 
L 707.395292 137.158404 
L 708.029911 155.295104 
L 709.299151 171.648813 
L 710.56839 162.732049 
L 711.83763 146.356512 
L 713.106869 132.618395 
L 715.645348 123.474469 
L 716.914588 124.104386 
L 717.549208 146.16164 
L 718.183827 172.589647 
L 719.453067 197.747864 
L 720.722306 210.517888 
L 721.991546 218.348167 
L 722.626166 220.850228 
L 723.260786 221.288524 
L 724.530025 218.884469 
L 725.799265 218.070175 
L 727.068504 215.700856 
L 727.703124 205.84859 
L 728.337744 185.166945 
L 729.606983 168.149924 
L 730.876223 162.58566 
L 732.145462 172.828108 
L 733.414702 188.007518 
L 734.683941 205.457839 
L 735.318561 223.351887 
L 735.953181 230.485593 
L 737.22242 236.171803 
L 737.85704 235.663498 
L 738.49166 237.463723 
L 739.760899 238.514667 
L 740.395519 245.98189 
L 741.030139 251.081537 
L 742.299378 252.152163 
L 743.568618 245.937832 
L 744.203238 246.737272 
L 744.837857 250.901853 
L 747.376336 259.290094 
L 749.914815 269.00432 
L 752.453294 280.734934 
L 754.991773 293.334764 
L 756.261013 304.925695 
L 757.530252 309.788491 
L 760.068732 318.100251 
L 762.607211 325.679227 
L 763.87645 333.273761 
L 765.14569 336.487315 
L 767.684169 341.929599 
L 770.222648 346.35695 
L 771.491887 348.289414 
L 772.761127 349.876895 
L 774.030366 351.063231 
L 775.299606 351.885035 
L 776.568845 352.438873 
L 777.838085 352.598976 
L 778.472705 352.362594 
L 779.107324 351.880542 
L 780.376564 351.088478 
L 781.645803 350.083235 
L 782.915043 348.780083 
L 784.184282 345.333835 
L 786.722761 341.115372 
L 789.26124 337.771389 
L 790.53048 335.57012 
L 791.799719 332.054231 
L 793.068959 326.676357 
L 794.338198 324.099123 
L 795.607438 320.306919 
L 796.876678 315.839032 
L 798.145917 309.966599 
L 801.953636 286.337891 
L 803.222875 273.744734 
L 804.492115 267.930173 
L 807.030594 257.75569 
L 808.299833 246.895732 
L 809.569073 241.231786 
L 812.107552 228.53576 
L 813.376791 216.081582 
L 815.91527 210.024873 
L 817.18451 207.791415 
L 818.453749 202.534247 
L 819.088369 196.807935 
L 819.722989 187.572408 
L 822.261468 169.694487 
L 824.799947 158.536756 
L 827.338426 155.581947 
L 828.607665 165.495606 
L 829.876905 185.58358 
L 831.146145 210.374215 
L 832.415384 269.493848 
L 833.684624 288.400282 
L 834.319243 291.07797 
L 834.953863 282.911157 
L 836.223103 274.322344 
L 837.492342 269.094715 
L 838.761582 259.654625 
L 840.030821 265.304456 
L 841.300061 264.865456 
L 842.5693 273.541311 
L 843.83854 265.231999 
L 845.107779 271.457797 
L 846.377019 268.63885 
L 847.646258 291.506375 
L 848.915498 303.1876 
L 850.184737 324.143382 
L 851.453977 335.715369 
L 852.723216 348.868936 
L 853.992456 350.415041 
L 855.261695 350.207159 
L 856.530935 350.302718 
L 857.800174 352.952308 
L 859.069414 353.941257 
L 860.338653 357.377479 
L 861.607893 357.029478 
L 862.877132 357.510222 
L 864.146372 355.464864 
L 864.780992 357.462141 
L 865.415611 357.459392 
L 867.954091 362.104817 
L 869.22333 362.889303 
L 869.85795 362.863687 
L 870.49257 361.698005 
L 871.761809 361.397113 
L 873.031049 358.941892 
L 874.300288 357.871333 
L 875.569528 355.889447 
L 876.838767 354.479705 
L 878.108007 353.523179 
L 879.377246 353.83517 
L 880.646486 356.793901 
L 881.915725 353.399288 
L 883.184965 351.82019 
L 884.454204 340.818705 
L 885.723444 336.435613 
L 886.992683 320.477852 
L 888.261923 316.899666 
L 889.531162 300.94348 
L 890.800402 297.693413 
L 892.069641 281.575448 
L 893.338881 283.602969 
L 894.60812 276.206292 
L 895.87736 282.853051 
L 897.146599 284.123512 
L 898.415839 299.529145 
L 899.685078 308.755485 
L 900.319698 322.126624 
L 900.954318 331.083724 
L 902.223558 341.71025 
L 903.492797 345.403308 
L 904.762037 344.060725 
L 906.031276 338.726942 
L 907.300516 331.597259 
L 908.569755 329.353274 
L 909.838995 328.818246 
L 911.108234 332.192674 
L 912.377474 334.626838 
L 913.646713 339.740669 
L 914.915953 340.033112 
L 916.185192 339.022537 
L 917.454432 337.355256 
L 918.723671 341.472493 
L 919.992911 343.48573 
L 921.26215 344.918205 
L 922.53139 346.822035 
L 923.800629 348.364151 
L 924.435249 349.772485 
L 925.069869 350.848509 
L 926.339108 351.958632 
L 927.608348 352.78208 
L 928.877587 353.328508 
L 930.146827 353.357812 
L 931.416066 353.188288 
L 932.685306 352.499595 
L 933.954545 351.435843 
L 933.954545 351.435843 
" clip-path="url(#pb970bfeb90)" style="fill: none; stroke: #008000; stroke-width: 1.5; stroke-linecap: square"/>
   </g>
   <g id="patch_3">
    <path d="M 135 384.48 
L 135 51.84 
" style="fill: none; stroke: #000000; stroke-width: 0.8; stroke-linejoin: miter; stroke-linecap: square"/>
   </g>
   <g id="patch_4">
    <path d="M 972 384.48 
L 972 51.84 
" style="fill: none; stroke: #000000; stroke-width: 0.8; stroke-linejoin: miter; stroke-linecap: square"/>
   </g>
   <g id="patch_5">
    <path d="M 135 384.48 
L 972 384.48 
" style="fill: none; stroke: #000000; stroke-width: 0.8; stroke-linejoin: miter; stroke-linecap: square"/>
   </g>
   <g id="patch_6">
    <path d="M 135 51.84 
L 972 51.84 
" style="fill: none; stroke: #000000; stroke-width: 0.8; stroke-linejoin: miter; stroke-linecap: square"/>
   </g>
  </g>
  <g id="axes_2">
   <g id="matplotlib.axis_3">
    <g id="ytick_7">
     <g id="line2d_16">
      <path d="M 135 345.668382 
L 972 345.668382 
" clip-path="url(#pb970bfeb90)" style="fill: none; stroke: #b0b0b0; stroke-width: 0.8; stroke-linecap: square"/>
     </g>
     <g id="line2d_17">
      <defs>
       <path id="m2e0378060d" d="M 0 0 
L 3.5 0 
" style="stroke: #000000; stroke-width: 0.8"/>
      </defs>
      <g>
       <use xlink:href="#m2e0378060d" x="972" y="345.668382" style="stroke: #000000; stroke-width: 0.8"/>
      </g>
     </g>
     <g id="text_15">
      <!-- 5 -->
      <g transform="translate(979 349.242601) scale(0.1 -0.1)">
       <use xlink:href="#Times New Roman-35"/>
      </g>
     </g>
    </g>
    <g id="ytick_8">
     <g id="line2d_18">
      <path d="M 135 292.284835 
L 972 292.284835 
" clip-path="url(#pb970bfeb90)" style="fill: none; stroke: #b0b0b0; stroke-width: 0.8; stroke-linecap: square"/>
     </g>
     <g id="line2d_19">
      <g>
       <use xlink:href="#m2e0378060d" x="972" y="292.284835" style="stroke: #000000; stroke-width: 0.8"/>
      </g>
     </g>
     <g id="text_16">
      <!-- 10 -->
      <g transform="translate(979 295.859053) scale(0.1 -0.1)">
       <use xlink:href="#Times New Roman-31"/>
       <use xlink:href="#Times New Roman-30" x="50"/>
      </g>
     </g>
    </g>
    <g id="ytick_9">
     <g id="line2d_20">
      <path d="M 135 238.901288 
L 972 238.901288 
" clip-path="url(#pb970bfeb90)" style="fill: none; stroke: #b0b0b0; stroke-width: 0.8; stroke-linecap: square"/>
     </g>
     <g id="line2d_21">
      <g>
       <use xlink:href="#m2e0378060d" x="972" y="238.901288" style="stroke: #000000; stroke-width: 0.8"/>
      </g>
     </g>
     <g id="text_17">
      <!-- 15 -->
      <g transform="translate(979 242.475506) scale(0.1 -0.1)">
       <use xlink:href="#Times New Roman-31"/>
       <use xlink:href="#Times New Roman-35" x="50"/>
      </g>
     </g>
    </g>
    <g id="ytick_10">
     <g id="line2d_22">
      <path d="M 135 185.51774 
L 972 185.51774 
" clip-path="url(#pb970bfeb90)" style="fill: none; stroke: #b0b0b0; stroke-width: 0.8; stroke-linecap: square"/>
     </g>
     <g id="line2d_23">
      <g>
       <use xlink:href="#m2e0378060d" x="972" y="185.51774" style="stroke: #000000; stroke-width: 0.8"/>
      </g>
     </g>
     <g id="text_18">
      <!-- 20 -->
      <g transform="translate(979 189.091959) scale(0.1 -0.1)">
       <use xlink:href="#Times New Roman-32"/>
       <use xlink:href="#Times New Roman-30" x="50"/>
      </g>
     </g>
    </g>
    <g id="ytick_11">
     <g id="line2d_24">
      <path d="M 135 132.134193 
L 972 132.134193 
" clip-path="url(#pb970bfeb90)" style="fill: none; stroke: #b0b0b0; stroke-width: 0.8; stroke-linecap: square"/>
     </g>
     <g id="line2d_25">
      <g>
       <use xlink:href="#m2e0378060d" x="972" y="132.134193" style="stroke: #000000; stroke-width: 0.8"/>
      </g>
     </g>
     <g id="text_19">
      <!-- 25 -->
      <g transform="translate(979 135.708412) scale(0.1 -0.1)">
       <use xlink:href="#Times New Roman-32"/>
       <use xlink:href="#Times New Roman-35" x="50"/>
      </g>
     </g>
    </g>
    <g id="ytick_12">
     <g id="line2d_26">
      <path d="M 135 78.750646 
L 972 78.750646 
" clip-path="url(#pb970bfeb90)" style="fill: none; stroke: #b0b0b0; stroke-width: 0.8; stroke-linecap: square"/>
     </g>
     <g id="line2d_27">
      <g>
       <use xlink:href="#m2e0378060d" x="972" y="78.750646" style="stroke: #000000; stroke-width: 0.8"/>
      </g>
     </g>
     <g id="text_20">
      <!-- 30 -->
      <g transform="translate(979 82.324865) scale(0.1 -0.1)">
       <use xlink:href="#Times New Roman-33"/>
       <use xlink:href="#Times New Roman-30" x="50"/>
      </g>
     </g>
    </g>
    <g id="text_21">
     <!-- buffer (s) -->
     <g transform="translate(1000.617188 243.16) rotate(-90) scale(0.1 -0.1)">
      <defs>
       <path id="Times New Roman-75" d="M 1450 325
Q 1750 325 1962 475 
Q 2175 625 2275 950 
L 2275 2525 
Q 2275 2625 2225 2687 
Q 2175 2750 2050 2750 
L 1900 2750 
L 1900 2900 
L 2050 2900 
Q 2200 2900 2325 2925 
Q 2450 2950 2575 3050 
L 2625 3050 
L 2625 600 
Q 2625 500 2687 450 
Q 2750 400 2850 400 
L 3000 400 
L 3000 250 
L 2850 250 
Q 2725 250 2600 212 
Q 2475 175 2325 100 
L 2275 100 
L 2275 625 
Q 2150 350 1900 212 
Q 1650 75 1325 75 
Q 925 75 725 300 
Q 525 525 525 1025 
L 525 2525 
Q 525 2625 475 2687 
Q 425 2750 300 2750 
L 150 2750 
L 150 2900 
L 300 2900 
Q 450 2900 575 2925 
Q 700 2950 825 3050 
L 875 3050 
L 875 975 
Q 875 625 1025 475 
Q 1175 325 1450 325 
z
" transform="scale(0.015625)"/>
       <path id="Times New Roman-66" d="M 1125 3325
Q 1125 3850 1450 4112 
Q 1775 4375 2175 4375 
Q 2600 4375 2812 4225 
Q 3025 4075 3025 3875 
Q 3025 3775 2975 3700 
Q 2925 3625 2775 3625 
Q 2675 3625 2612 3675 
Q 2550 3725 2550 3850 
Q 2550 3875 2575 3925 
Q 2575 3975 2575 4000 
Q 2575 4100 2500 4162 
Q 2425 4225 2150 4225 
Q 1850 4225 1662 4037 
Q 1475 3850 1475 3400 
L 1475 2900 
L 2525 2900 
L 2525 2750 
L 1475 2750 
L 1475 450 
Q 1475 350 1537 300 
Q 1600 250 1700 250 
L 2300 250 
L 2300 100 
L 475 100 
L 475 250 
L 900 250 
Q 1025 250 1075 300 
Q 1125 350 1125 450 
L 1125 2750 
L 350 2750 
L 350 2900 
L 1125 2900 
L 1125 3325 
z
" transform="scale(0.015625)"/>
      </defs>
      <use xlink:href="#Times New Roman-62"/>
      <use xlink:href="#Times New Roman-75" x="50"/>
      <use xlink:href="#Times New Roman-66" x="100"/>
      <use xlink:href="#Times New Roman-66" x="150"/>
      <use xlink:href="#Times New Roman-65" x="200"/>
      <use xlink:href="#Times New Roman-72" x="250"/>
      <use xlink:href="#Times New Roman-20" x="300"/>
      <use xlink:href="#Times New Roman-28" x="350"/>
      <use xlink:href="#Times New Roman-73" x="400"/>
      <use xlink:href="#Times New Roman-29" x="450"/>
     </g>
    </g>
   </g>
   <g id="line2d_28">
    <path d="M 173.045455 363.658637 
L 173.680074 369.36 
L 174.949314 366.954181 
L 177.487793 359.306099 
L 178.757032 356.48033 
L 180.026272 352.654509 
L 180.660892 345.009985 
L 181.295511 344.447678 
L 182.564751 344.981513 
L 183.83399 334.963201 
L 185.10323 306.353179 
L 186.372469 284.487278 
L 188.910949 235.071908 
L 190.180188 224.765324 
L 191.449428 206.721685 
L 192.718667 174.410404 
L 193.987907 135.305176 
L 195.257146 103.908532 
L 196.526386 86.530408 
L 197.795625 82.690352 
L 199.064865 85.968102 
L 200.334104 96.580751 
L 201.603344 93.391974 
L 202.872583 78.821824 
L 204.141823 85.740332 
L 204.776442 92.65884 
L 205.411062 93.114379 
L 206.680302 92.59122 
L 209.218781 99.111131 
L 210.48802 103.339108 
L 213.026499 97.078997 
L 215.564978 89.662243 
L 219.372697 78.83606 
L 220.641936 82.081779 
L 221.911176 86.291962 
L 223.180415 89.149761 
L 224.449655 85.359529 
L 225.084275 77.786183 
L 225.718895 78.238164 
L 226.988134 78.64032 
L 230.795853 88.470011 
L 232.065092 85.580181 
L 232.699712 78.953504 
L 233.334332 79.394808 
L 234.603571 85.978778 
L 237.14205 92.49513 
L 238.41129 93.37062 
L 239.680529 86.505496 
L 240.949769 82.683234 
L 243.488248 89.423797 
L 244.757487 93.352826 
L 246.026727 89.907807 
L 248.565206 82.540878 
L 249.834445 85.434266 
L 252.372924 92.256684 
L 253.642164 89.398884 
L 254.911403 93.33859 
L 256.180643 89.676479 
L 257.449882 93.238941 
L 258.084502 93.060996 
L 258.719122 93.623302 
L 259.988362 93.754982 
L 261.257601 96.751578 
L 262.526841 106.858863 
L 263.79608 110.303881 
L 265.06532 114.496269 
L 266.334559 110.656213 
L 267.603799 107.271696 
L 268.873038 103.545524 
L 270.142278 100.655695 
L 272.680757 92.744253 
L 273.949996 89.231616 
L 275.219236 92.972023 
L 276.488475 97.2 
L 277.757715 107.282373 
L 280.296194 113.841431 
L 281.565433 118.076526 
L 284.103912 139.465534 
L 285.373152 149.864649 
L 286.642391 153.49473 
L 289.18087 160.046671 
L 290.45011 170.449344 
L 291.719349 174.677321 
L 294.257828 181.275528 
L 301.873266 245.506612 
L 304.411745 267.255069 
L 305.680984 270.564849 
L 306.315604 270.091515 
L 306.950224 270.554172 
L 308.219463 278.081252 
L 309.488703 281.33409 
L 312.027182 273.714478 
L 313.296421 270.817531 
L 314.565661 274.063251 
L 315.8349 270.226753 
L 317.10414 273.518738 
L 318.373379 270.650262 
L 319.642619 274.853327 
L 320.911858 278.668471 
L 322.181098 289.056909 
L 323.450337 292.3311 
L 324.719577 296.039477 
L 325.988816 299.335022 
L 327.258056 309.759049 
L 328.527295 313.004769 
L 329.796535 317.214951 
L 331.065775 313.349982 
L 332.335014 316.645527 
L 332.969634 316.129486 
L 333.604254 316.802118 
L 334.873493 317.271894 
L 336.142733 313.446073 
L 336.777352 312.744969 
L 337.411972 312.264517 
L 338.681212 312.695144 
L 339.950451 309.780402 
L 341.219691 298.833216 
L 342.48893 280.917698 
L 343.75817 255.948434 
L 347.565888 118.119233 
L 349.469748 78.234605 
L 350.104367 78.636761 
L 351.373607 86.032162 
L 352.008227 93.427563 
L 352.642846 92.939993 
L 353.912086 85.32394 
L 354.546706 77.707887 
L 355.181325 78.142074 
L 356.450565 85.708302 
L 357.719804 89.092819 
L 358.989044 85.765244 
L 359.623664 78.67235 
L 360.258283 79.394808 
L 361.527523 86.420082 
L 362.796762 96.285362 
L 364.066002 99.185868 
L 365.335241 102.470736 
L 366.604481 99.858501 
L 367.873721 104.075801 
L 370.4122 96.139447 
L 371.681439 85.462737 
L 372.950679 82.572908 
L 374.219918 78.83606 
L 375.489158 81.839774 
L 376.758397 78.031748 
L 378.027637 82.14584 
L 379.296876 78.302224 
L 380.566116 81.551503 
L 381.835355 77.707887 
L 383.104595 81.946541 
L 384.373834 79.042476 
L 385.643074 82.334462 
L 386.912313 78.501523 
L 388.181553 81.793508 
L 389.450792 78.928591 
L 390.720032 82.192105 
L 391.989271 78.359167 
L 393.258511 81.608445 
L 394.52775 78.757764 
L 395.16237 79.227539 
L 395.79699 78.715057 
L 397.066229 78.789794 
L 398.335469 82.039073 
L 399.604708 79.152802 
L 400.873948 81.825538 
L 402.143188 78.618967 
L 403.412427 81.896716 
L 404.681667 79.006887 
L 405.950906 82.590703 
L 407.220146 78.761323 
L 408.489385 82.067544 
L 409.758625 78.38052 
L 411.027864 82.594262 
L 412.297104 78.732852 
L 413.566343 81.900275 
L 414.835583 78.074455 
L 416.104822 82.302431 
L 417.374062 78.430345 
L 418.643301 81.715212 
L 419.912541 77.878715 
L 421.18178 82.110251 
L 422.45102 79.003328 
L 423.720259 82.266842 
L 424.989499 78.426786 
L 426.258738 81.939423 
L 427.527978 86.1674 
L 428.797217 89.455827 
L 430.066457 85.633565 
L 430.701077 78.060219 
L 431.335696 78.501523 
L 432.604936 86.03928 
L 433.239556 93.577037 
L 433.874175 93.068113 
L 435.143415 85.850658 
L 435.778035 78.633202 
L 436.412654 79.085183 
L 437.681894 86.245696 
L 438.951134 89.12129 
L 440.220373 92.402599 
L 441.489613 88.56966 
L 442.758852 92.829667 
L 445.297331 85.128201 
L 445.931951 77.458764 
L 446.566571 77.896509 
L 447.83581 85.505444 
L 450.374289 107.275255 
L 451.643529 110.553005 
L 452.278148 110.093906 
L 452.912768 103.42808 
L 454.182008 96.726666 
L 455.451247 85.758126 
L 456.085867 78.138515 
L 456.720487 77.7328 
L 457.989726 78.312901 
L 458.624346 78.893002 
L 459.258966 79.25601 
L 461.162825 79.526487 
L 461.797445 79.106536 
L 463.066684 85.9076 
L 465.605163 106.780567 
L 468.143642 113.346744 
L 469.412882 110.481827 
L 470.682121 113.727546 
L 471.951361 110.33947 
L 473.220601 113.905491 
L 474.48984 111.033457 
L 477.028319 104.168332 
L 478.297559 107.417611 
L 479.566798 117.830962 
L 480.201418 124.753028 
L 480.836038 125.205009 
L 481.470657 121.852522 
L 482.105277 114.983839 
L 483.374517 114.528299 
L 484.643756 117.838079 
L 485.278376 124.664056 
L 485.912996 117.948405 
L 486.547615 107.467436 
L 487.182235 99.840706 
L 488.451475 106.449589 
L 489.086094 113.058472 
L 489.720714 106.399765 
L 490.989954 99.758851 
L 492.259193 89.761892 
L 494.797672 82.249048 
L 496.066912 78.405433 
L 496.701532 78.64032 
L 497.336151 79.074506 
L 498.605391 79.170597 
L 501.14387 71.479807 
L 502.413109 75.145477 
L 503.682349 78.437463 
L 504.951588 77.430293 
L 506.220828 77.885833 
L 507.490067 82.099574 
L 508.759307 79.135008 
L 510.028547 82.412757 
L 511.297786 78.850295 
L 512.567026 82.192105 
L 513.836265 86.402288 
L 514.470885 93.69448 
L 515.105505 93.199793 
L 516.374744 92.705105 
L 517.643984 88.868608 
L 518.913223 85.950307 
L 519.547843 79.270246 
L 520.182463 78.800471 
L 521.451702 85.434266 
L 522.720942 88.719134 
L 523.990181 92.911522 
L 524.624801 93.33859 
L 525.259421 92.836785 
L 526.52866 92.338538 
L 527.16328 91.840292 
L 527.7979 92.278037 
L 529.067139 92.737135 
L 532.874858 102.588179 
L 534.144097 99.684114 
L 535.413337 103.904974 
L 536.682576 100.602311 
L 539.221055 107.172047 
L 540.490295 110.85907 
L 541.759534 99.890531 
L 542.394154 85.149554 
L 543.028774 77.572649 
L 544.298013 78.02463 
L 545.567253 82.281078 
L 546.836493 78.441022 
L 549.374972 85.19582 
L 550.644211 96.502455 
L 551.913451 99.776646 
L 552.54807 99.054189 
L 553.18269 91.441695 
L 554.45193 91.893675 
L 555.721169 89.014523 
L 556.990409 93.228264 
L 559.528888 99.773087 
L 560.798127 95.943707 
L 562.067367 93.07879 
L 565.875085 81.861127 
L 567.144325 86.096222 
L 567.778945 93.349267 
L 568.413564 92.85102 
L 569.682804 92.374127 
L 570.317424 91.897234 
L 570.952043 92.349215 
L 572.221283 92.769166 
L 572.855903 93.189116 
L 573.490522 92.680193 
L 574.759762 85.569505 
L 575.394382 78.458816 
L 576.029001 78.925032 
L 577.298241 85.968102 
L 578.56748 96.797844 
L 579.83672 100.096947 
L 581.10596 96.29248 
L 582.375199 85.331058 
L 583.009819 78.618967 
L 583.644439 79.049594 
L 584.913678 85.686948 
L 587.452157 92.409716 
L 588.721397 89.494975 
L 589.990636 85.982337 
L 591.259876 74.850088 
L 592.529115 71.01715 
L 593.163735 71.134593 
L 593.798355 78.722175 
L 595.067594 85.345294 
L 596.336834 82.181429 
L 597.606073 78.337813 
L 598.240693 71.675547 
L 598.875313 78.562024 
L 600.144552 86.106899 
L 600.779172 93.651774 
L 601.413792 93.160645 
L 602.683031 85.537474 
L 603.952271 81.729448 
L 605.22151 85.964543 
L 605.85613 93.548565 
L 606.49075 93.036083 
L 607.759989 92.516483 
L 609.029229 88.694221 
L 610.298468 85.797274 
L 610.933088 79.138567 
L 611.567708 78.629643 
L 612.836947 78.547789 
L 614.106187 81.846892 
L 615.375426 86.049956 
L 616.644666 99.776646 
L 617.913906 99.922561 
L 619.183145 103.221664 
L 620.452385 107.438964 
L 621.721624 120.962796 
L 622.990864 120.457432 
L 624.260103 123.731623 
L 626.798582 132.283667 
L 630.606301 120.735026 
L 631.87554 124.934532 
L 634.414019 117.272214 
L 635.683259 106.488737 
L 638.221738 100.435043 
L 639.490977 103.534848 
L 640.760217 99.723262 
L 642.029456 103.243018 
L 643.298696 99.620054 
L 644.567935 102.872892 
L 645.837175 99.228575 
L 647.106414 103.257253 
L 647.741034 103.712793 
L 648.375654 103.965475 
L 649.010274 100.630783 
L 649.644893 93.107261 
L 650.914133 85.84354 
L 652.183373 82.007042 
L 653.452612 79.049594 
L 654.087232 79.167038 
L 654.721852 79.416161 
L 655.356471 82.975064 
L 655.991091 89.779687 
L 657.260331 96.605663 
L 658.52957 100.096947 
L 659.79881 96.036239 
L 661.068049 85.22785 
L 662.337289 81.352204 
L 663.606528 78.519317 
L 664.875768 81.633358 
L 666.145007 78.113602 
L 667.414247 81.33441 
L 668.683486 78.469493 
L 669.318106 78.64032 
L 669.952726 79.074506 
L 671.221965 85.662036 
L 672.491205 96.018444 
L 673.760444 99.306871 
L 675.029684 96.402806 
L 676.298923 86.128252 
L 676.933543 79.181273 
L 677.568163 79.113654 
L 678.837402 79.177714 
L 680.106642 82.736618 
L 681.375881 85.58374 
L 682.645121 95.683907 
L 683.91436 99.410079 
L 685.1836 103.648732 
L 686.452839 93.641097 
L 687.722079 78.882326 
L 688.991319 85.886247 
L 690.260558 89.181791 
L 691.529798 86.306197 
L 692.799037 82.096015 
L 694.068277 85.363088 
L 694.702896 91.968412 
L 695.337516 92.395481 
L 696.606756 85.74745 
L 697.875995 81.939423 
L 699.145235 85.224291 
L 700.414474 95.605611 
L 701.683714 99.801558 
L 702.318333 100.246421 
L 702.952953 92.730018 
L 704.222193 92.23533 
L 705.491432 88.623043 
L 706.760672 92.733577 
L 707.395292 93.167763 
L 708.029911 92.441746 
L 709.299151 84.925343 
L 710.56839 81.095963 
L 711.83763 78.483728 
L 714.376109 86.49126 
L 716.914588 93.299442 
L 719.453067 92.55919 
L 720.722306 95.833381 
L 721.991546 92.174829 
L 723.260786 79.028241 
L 724.530025 85.484091 
L 725.799265 88.690663 
L 727.068504 85.103288 
L 727.703124 78.668791 
L 728.337744 78.999769 
L 729.606983 86.29908 
L 730.876223 96.441954 
L 731.510842 103.068631 
L 732.145462 102.620209 
L 733.414702 96.050474 
L 734.683941 93.157086 
L 735.318561 93.555683 
L 735.953181 92.95067 
L 737.22242 85.380883 
L 737.85704 77.811096 
L 738.49166 78.359167 
L 739.760899 85.864893 
L 741.030139 99.876295 
L 742.299378 99.392284 
L 742.933998 98.908274 
L 743.568618 92.345656 
L 744.203238 89.103495 
L 744.837857 89.655125 
L 746.107097 96.164359 
L 747.376336 106.460266 
L 748.645576 109.670397 
L 749.914815 113.901932 
L 751.184055 117.176123 
L 753.722534 138.515307 
L 754.991773 142.746842 
L 755.626393 142.604486 
L 756.261013 143.042231 
L 757.530252 149.676027 
L 758.799492 160.075142 
L 760.068732 163.381363 
L 761.337971 167.587986 
L 762.607211 170.862177 
L 763.24183 177.453266 
L 763.87645 176.962137 
L 765.14569 177.620534 
L 766.414929 181.848511 
L 767.684169 185.12982 
L 770.222648 177.268203 
L 772.761127 171.474309 
L 775.299606 164.03976 
L 776.568845 167.374452 
L 777.838085 171.549046 
L 778.472705 178.873268 
L 779.107324 178.407052 
L 780.376564 177.947953 
L 781.645803 181.243498 
L 782.915043 185.428768 
L 783.549663 185.866513 
L 784.184282 185.496387 
L 785.453522 192.091034 
L 786.722761 202.500826 
L 787.992001 206.604241 
L 789.26124 209.899786 
L 790.53048 213.622398 
L 791.799719 216.914384 
L 792.434339 217.366365 
L 793.068959 210.227205 
L 794.338198 209.718282 
L 795.607438 213.533426 
L 796.876678 223.918305 
L 798.145917 228.12137 
L 799.415157 231.794158 
L 800.684396 228.416759 
L 801.953636 231.701626 
L 802.588255 231.192703 
L 803.222875 231.324383 
L 804.492115 231.762128 
L 805.761354 228.377611 
L 807.030594 232.011251 
L 809.569073 231.964985 
L 810.838312 227.637359 
L 812.107552 230.929344 
L 812.742172 230.431098 
L 813.376791 230.87952 
L 814.646031 224.188782 
L 815.91527 221.281158 
L 817.18451 217.825463 
L 818.453749 221.110331 
L 819.088369 220.612084 
L 819.722989 213.569015 
L 820.992228 206.888954 
L 822.261468 195.931091 
L 823.530707 192.062563 
L 824.799947 181.115377 
L 826.069186 164.03976 
L 827.338426 153.359492 
L 828.607665 135.71445 
L 829.876905 125.101801 
L 831.146145 107.705882 
L 831.780764 100.60587 
L 832.415384 86.227902 
L 833.684624 78.925032 
L 834.319243 71.622163 
L 834.953863 78.426786 
L 836.223103 78.558465 
L 837.492342 81.530149 
L 838.761582 78.08869 
L 840.030821 81.369999 
L 841.300061 78.569142 
L 842.5693 82.43767 
L 843.83854 79.092301 
L 845.107779 82.270401 
L 846.377019 78.401874 
L 847.646258 82.128045 
L 851.453977 70.703966 
L 852.723216 67.785666 
L 853.992456 71.782314 
L 855.261695 67.903109 
L 856.530935 71.191536 
L 857.800174 67.618397 
L 859.069414 70.903265 
L 860.338653 67.130827 
L 861.607893 70.358753 
L 862.877132 67.458246 
L 864.146372 71.590133 
L 864.780992 72.034996 
L 865.415611 78.658115 
L 866.684851 78.572701 
L 867.954091 74.800264 
L 869.22333 71.938905 
L 869.85795 72.006525 
L 870.49257 71.465571 
L 871.761809 70.935295 
L 873.031049 67.134386 
L 874.300288 71.358804 
L 876.838767 77.864479 
L 878.108007 74.408784 
L 879.377246 71.707577 
L 880.646486 67.881756 
L 881.915725 70.792939 
L 883.184965 66.96 
L 885.723444 75.444425 
L 888.261923 81.761478 
L 889.531162 77.896509 
L 890.800402 82.117368 
L 892.069641 78.946386 
L 893.338881 82.231253 
L 894.60812 78.707939 
L 895.87736 82.27396 
L 897.146599 78.583378 
L 898.415839 81.555062 
L 899.685078 78.099367 
L 900.319698 78.757764 
L 900.954318 79.209745 
L 902.223558 79.270246 
L 906.031276 68.404915 
L 907.300516 72.134645 
L 908.569755 74.963973 
L 909.838995 85.320381 
L 911.108234 81.622681 
L 912.377474 78.757764 
L 913.646713 74.91059 
L 916.185192 81.686741 
L 917.454432 85.918277 
L 918.089051 93.071672 
L 918.723671 93.281648 
L 919.992911 92.822549 
L 921.26215 89.000287 
L 922.53139 92.49513 
L 923.800629 96.683959 
L 924.435249 104.235952 
L 925.069869 104.30713 
L 926.339108 96.694636 
L 927.608348 92.922198 
L 931.416066 103.712793 
L 933.954545 96.360099 
L 933.954545 96.360099 
" clip-path="url(#pb970bfeb90)" style="fill: none; stroke: #1f77b4; stroke-width: 1.5; stroke-linecap: square"/>
   </g>
   <g id="patch_7">
    <path d="M 135 384.48 
L 135 51.84 
" style="fill: none; stroke: #000000; stroke-width: 0.8; stroke-linejoin: miter; stroke-linecap: square"/>
   </g>
   <g id="patch_8">
    <path d="M 972 384.48 
L 972 51.84 
" style="fill: none; stroke: #000000; stroke-width: 0.8; stroke-linejoin: miter; stroke-linecap: square"/>
   </g>
   <g id="patch_9">
    <path d="M 135 384.48 
L 972 384.48 
" style="fill: none; stroke: #000000; stroke-width: 0.8; stroke-linejoin: miter; stroke-linecap: square"/>
   </g>
   <g id="patch_10">
    <path d="M 135 51.84 
L 972 51.84 
" style="fill: none; stroke: #000000; stroke-width: 0.8; stroke-linejoin: miter; stroke-linecap: square"/>
   </g>
   <g id="text_22">
    <!-- ./tcp/tp4_wave -->
    <g transform="translate(511.5 45.84) scale(0.12 -0.12)">
     <defs>
      <path id="Times New Roman-2e" d="M 800 25
Q 650 25 537 125 
Q 425 225 425 400 
Q 425 575 537 675 
Q 650 775 800 775 
Q 950 775 1062 662 
Q 1175 550 1175 400 
Q 1175 225 1062 125 
Q 950 25 800 25 
z
" transform="scale(0.015625)"/>
      <path id="Times New Roman-2f" d="M 400 -475
L 225 -375 
L 2775 4975 
L 2950 4875 
L 400 -475 
z
" transform="scale(0.015625)"/>
      <path id="Times New Roman-63" d="M 2150 2225
Q 2150 2300 2175 2325 
Q 2175 2350 2200 2425 
Q 2225 2525 2100 2662 
Q 1975 2800 1675 2800 
Q 1300 2800 1037 2437 
Q 775 2075 775 1475 
Q 775 925 1000 587 
Q 1225 250 1750 250 
Q 2100 250 2337 475 
Q 2575 700 2675 1000 
L 2800 950 
Q 2700 575 2425 312 
Q 2150 50 1675 50 
Q 1075 50 725 425 
Q 375 800 375 1500 
Q 375 2125 750 2537 
Q 1125 2950 1725 2950 
Q 2150 2950 2387 2725 
Q 2625 2500 2625 2275 
Q 2625 2125 2562 2062 
Q 2500 2000 2375 2000 
Q 2275 2000 2212 2062 
Q 2150 2125 2150 2225 
z
" transform="scale(0.015625)"/>
      <path id="Times New Roman-5f" d="M 0 -875
L 0 -725 
L 3175 -725 
L 3175 -875 
L 0 -875 
z
" transform="scale(0.015625)"/>
      <path id="Times New Roman-77" d="M 2325 2900
L 3175 2900 
L 3175 2750 
L 3075 2750 
Q 2975 2750 2900 2675 
Q 2825 2600 2775 2425 
L 2175 75 
L 2025 75 
L 1575 1975 
L 1100 75 
L 950 75 
L 375 2375 
Q 350 2550 275 2650 
Q 200 2750 125 2750 
L 25 2750 
L 25 2900 
L 925 2900 
L 925 2750 
L 825 2750 
Q 725 2750 700 2662 
Q 675 2575 700 2425 
L 1075 800 
L 1125 800 
L 1500 2300 
Q 1475 2525 1400 2637 
Q 1325 2750 1225 2750 
L 1150 2750 
L 1150 2900 
L 2000 2900 
L 2000 2750 
L 1925 2750 
Q 1825 2750 1800 2662 
Q 1775 2575 1800 2425 
L 2175 800 
L 2200 800 
L 2625 2550 
Q 2650 2650 2600 2700 
Q 2550 2750 2450 2750 
L 2325 2750 
L 2325 2900 
z
M 1725 2750 
L 1725 2750 
z
M 625 2750 
L 625 2750 
z
M 275 2750 
L 275 2750 
z
M 2875 2750 
L 2875 2750 
z
M 2675 2750 
L 2675 2750 
z
" transform="scale(0.015625)"/>
      <path id="Times New Roman-76" d="M 1625 75
L 1475 75 
L 625 2525 
Q 600 2625 525 2687 
Q 450 2750 350 2750 
L 225 2750 
L 225 2900 
L 1300 2900 
L 1300 2750 
L 1200 2750 
Q 1050 2750 1025 2700 
Q 1000 2650 1000 2600 
Q 1000 2500 1025 2425 
L 1625 675 
L 1675 675 
L 2275 2400 
Q 2325 2525 2325 2575 
Q 2325 2600 2275 2675 
Q 2225 2750 2075 2750 
L 2025 2750 
L 2025 2900 
L 2925 2900 
L 2925 2750 
L 2875 2750 
Q 2725 2750 2637 2662 
Q 2550 2575 2475 2400 
L 1625 75 
z
M 2600 2750 
L 2600 2750 
z
M 2400 2750 
L 2400 2750 
z
M 925 2750 
L 925 2750 
z
M 550 2750 
L 550 2750 
z
" transform="scale(0.015625)"/>
     </defs>
     <use xlink:href="#Times New Roman-2e"/>
     <use xlink:href="#Times New Roman-2f" x="50"/>
     <use xlink:href="#Times New Roman-74" x="100"/>
     <use xlink:href="#Times New Roman-63" x="150"/>
     <use xlink:href="#Times New Roman-70" x="200"/>
     <use xlink:href="#Times New Roman-2f" x="250"/>
     <use xlink:href="#Times New Roman-74" x="300"/>
     <use xlink:href="#Times New Roman-70" x="350"/>
     <use xlink:href="#Times New Roman-34" x="400"/>
     <use xlink:href="#Times New Roman-5f" x="450"/>
     <use xlink:href="#Times New Roman-77" x="500"/>
     <use xlink:href="#Times New Roman-61" x="550"/>
     <use xlink:href="#Times New Roman-76" x="600"/>
     <use xlink:href="#Times New Roman-65" x="650"/>
    </g>
   </g>
   <g id="legend_1">
    <g id="patch_11">
     <path d="M 142 73.2775 
L 204 73.2775 
Q 206 73.2775 206 71.2775 
L 206 58.84 
Q 206 56.84 204 56.84 
L 142 56.84 
Q 140 56.84 140 58.84 
L 140 71.2775 
Q 140 73.2775 142 73.2775 
z
" style="fill: #ffffff; opacity: 0.8; stroke: #cccccc; stroke-linejoin: miter"/>
    </g>
    <g id="line2d_29">
     <path d="M 144 64.488437 
L 154 64.488437 
L 164 64.488437 
" style="fill: none; stroke: #1f77b4; stroke-width: 1.5; stroke-linecap: square"/>
    </g>
    <g id="text_23">
     <!-- buffer -->
     <g transform="translate(172 67.988437) scale(0.1 -0.1)">
      <use xlink:href="#Times New Roman-62"/>
      <use xlink:href="#Times New Roman-75" x="50"/>
      <use xlink:href="#Times New Roman-66" x="100"/>
      <use xlink:href="#Times New Roman-66" x="150"/>
      <use xlink:href="#Times New Roman-65" x="200"/>
      <use xlink:href="#Times New Roman-72" x="250"/>
     </g>
    </g>
   </g>
  </g>
 </g>
 <defs>
  <clipPath id="pb970bfeb90">
   <rect x="135" y="51.84" width="837" height="332.64"/>
  </clipPath>
 </defs>
</svg>
