<?xml version="1.0" encoding="utf-8" standalone="no"?>
<!DOCTYPE svg PUBLIC "-//W3C//DTD SVG 1.1//EN"
  "http://www.w3.org/Graphics/SVG/1.1/DTD/svg11.dtd">
<svg xmlns:xlink="http://www.w3.org/1999/xlink" width="1080pt" height="432pt" viewBox="0 0 1080 432" xmlns="http://www.w3.org/2000/svg" version="1.1">
 <metadata>
  <rdf:RDF xmlns:dc="http://purl.org/dc/elements/1.1/" xmlns:cc="http://creativecommons.org/ns#" xmlns:rdf="http://www.w3.org/1999/02/22-rdf-syntax-ns#">
   <cc:Work>
    <dc:type rdf:resource="http://purl.org/dc/dcmitype/StillImage"/>
    <dc:date>2024-04-12T06:12:36.864269</dc:date>
    <dc:format>image/svg+xml</dc:format>
    <dc:creator>
     <cc:Agent>
      <dc:title>Matplotlib v3.8.3, https://matplotlib.org/</dc:title>
     </cc:Agent>
    </dc:creator>
   </cc:Work>
  </rdf:RDF>
 </metadata>
 <defs>
  <style type="text/css">*{stroke-linejoin: round; stroke-linecap: butt}</style>
 </defs>
 <g id="figure_1">
  <g id="patch_1">
   <path d="M 0 432 
L 1080 432 
L 1080 0 
L 0 0 
z
" style="fill: #ffffff"/>
  </g>
  <g id="axes_1">
   <g id="patch_2">
    <path d="M 135 384.48 
L 972 384.48 
L 972 51.84 
L 135 51.84 
z
" style="fill: #ffffff"/>
   </g>
   <g id="matplotlib.axis_1">
    <g id="xtick_1">
     <g id="line2d_1">
      <defs>
       <path id="m4aa89fcef8" d="M 0 0 
L 0 3.5 
" style="stroke: #000000; stroke-width: 0.8"/>
      </defs>
      <g>
       <use xlink:href="#m4aa89fcef8" x="173.045455" y="384.48" style="stroke: #000000; stroke-width: 0.8"/>
      </g>
     </g>
     <g id="text_1">
      <!-- 0 -->
      <g transform="translate(170.545455 398.628438) scale(0.1 -0.1)">
       <defs>
        <path id="Times New Roman-30" d="M 1600 4225
Q 1250 4225 1012 3687 
Q 775 3150 775 2250 
Q 775 1300 1012 775 
Q 1250 250 1600 250 
Q 1975 250 2187 775 
Q 2400 1300 2400 2250 
Q 2400 3150 2200 3687 
Q 2000 4225 1600 4225 
z
M 1600 50 
Q 1050 50 675 625 
Q 300 1200 300 2250 
Q 300 3225 662 3825 
Q 1025 4425 1600 4425 
Q 2150 4425 2512 3850 
Q 2875 3275 2875 2250 
Q 2875 1225 2512 637 
Q 2150 50 1600 50 
z
" transform="scale(0.015625)"/>
       </defs>
       <use xlink:href="#Times New Roman-30"/>
      </g>
     </g>
    </g>
    <g id="xtick_2">
     <g id="line2d_2">
      <g>
       <use xlink:href="#m4aa89fcef8" x="299.863636" y="384.48" style="stroke: #000000; stroke-width: 0.8"/>
      </g>
     </g>
     <g id="text_2">
      <!-- 100 -->
      <g transform="translate(292.363636 398.628438) scale(0.1 -0.1)">
       <defs>
        <path id="Times New Roman-31" d="M 1825 4450
L 1825 650 
Q 1825 450 1950 350 
Q 2075 250 2300 250 
L 2550 250 
L 2550 100 
L 725 100 
L 725 250 
L 950 250 
Q 1200 250 1312 350 
Q 1425 450 1425 650 
L 1425 3675 
Q 1425 3775 1362 3837 
Q 1300 3900 1175 3900 
L 725 3900 
L 725 4050 
L 950 4050 
Q 1250 4050 1437 4150 
Q 1625 4250 1725 4450 
L 1825 4450 
z
" transform="scale(0.015625)"/>
       </defs>
       <use xlink:href="#Times New Roman-31"/>
       <use xlink:href="#Times New Roman-30" x="50"/>
       <use xlink:href="#Times New Roman-30" x="100"/>
      </g>
     </g>
    </g>
    <g id="xtick_3">
     <g id="line2d_3">
      <g>
       <use xlink:href="#m4aa89fcef8" x="426.681818" y="384.48" style="stroke: #000000; stroke-width: 0.8"/>
      </g>
     </g>
     <g id="text_3">
      <!-- 200 -->
      <g transform="translate(419.181818 398.628438) scale(0.1 -0.1)">
       <defs>
        <path id="Times New Roman-32" d="M 2325 3325
Q 2325 3775 2125 4012 
Q 1925 4250 1525 4250 
Q 1225 4250 1012 4087 
Q 800 3925 800 3675 
Q 800 3525 900 3425 
Q 975 3325 975 3225 
Q 975 3100 912 3037 
Q 850 2975 725 2975 
Q 575 2975 487 3062 
Q 400 3150 400 3350 
Q 400 3875 775 4150 
Q 1150 4425 1575 4425 
Q 2175 4425 2462 4125 
Q 2750 3825 2750 3375 
Q 2750 3075 2612 2775 
Q 2475 2475 2175 2200 
Q 1450 1500 1062 1062 
Q 675 625 600 475 
L 2075 475 
Q 2300 475 2450 650 
Q 2600 825 2650 1175 
L 2800 1175 
L 2650 100 
L 325 100 
L 325 425 
Q 450 650 737 1000 
Q 1025 1350 1500 1825 
Q 1925 2250 2125 2625 
Q 2325 3000 2325 3325 
z
" transform="scale(0.015625)"/>
       </defs>
       <use xlink:href="#Times New Roman-32"/>
       <use xlink:href="#Times New Roman-30" x="50"/>
       <use xlink:href="#Times New Roman-30" x="100"/>
      </g>
     </g>
    </g>
    <g id="xtick_4">
     <g id="line2d_4">
      <g>
       <use xlink:href="#m4aa89fcef8" x="553.5" y="384.48" style="stroke: #000000; stroke-width: 0.8"/>
      </g>
     </g>
     <g id="text_4">
      <!-- 300 -->
      <g transform="translate(546 398.628438) scale(0.1 -0.1)">
       <defs>
        <path id="Times New Roman-33" d="M 2800 1250
Q 2800 775 2450 412 
Q 2100 50 1475 50 
Q 1025 50 700 300 
Q 375 550 375 875 
Q 375 1025 475 1137 
Q 575 1250 675 1250 
Q 825 1250 887 1137 
Q 950 1025 950 950 
Q 950 825 900 750 
Q 850 650 850 575 
Q 850 425 1037 325 
Q 1225 225 1450 225 
Q 1900 225 2125 487 
Q 2350 750 2350 1300 
Q 2350 1750 2112 2025 
Q 1875 2300 1225 2300 
L 1225 2475 
Q 1725 2475 1962 2712 
Q 2200 2950 2200 3375 
Q 2200 3725 2012 3987 
Q 1825 4250 1425 4250 
Q 1250 4250 1050 4162 
Q 850 4075 850 3875 
Q 850 3675 900 3625 
Q 950 3575 950 3500 
Q 950 3375 900 3300 
Q 850 3225 725 3225 
Q 625 3225 537 3300 
Q 450 3375 450 3575 
Q 450 3950 775 4187 
Q 1100 4425 1525 4425 
Q 2025 4425 2325 4112 
Q 2625 3800 2625 3450 
Q 2625 3075 2437 2812 
Q 2250 2550 1850 2425 
Q 2400 2225 2600 1900 
Q 2800 1575 2800 1250 
z
" transform="scale(0.015625)"/>
       </defs>
       <use xlink:href="#Times New Roman-33"/>
       <use xlink:href="#Times New Roman-30" x="50"/>
       <use xlink:href="#Times New Roman-30" x="100"/>
      </g>
     </g>
    </g>
    <g id="xtick_5">
     <g id="line2d_5">
      <g>
       <use xlink:href="#m4aa89fcef8" x="680.318182" y="384.48" style="stroke: #000000; stroke-width: 0.8"/>
      </g>
     </g>
     <g id="text_5">
      <!-- 400 -->
      <g transform="translate(672.818182 398.628438) scale(0.1 -0.1)">
       <defs>
        <path id="Times New Roman-34" d="M 2300 575
Q 2300 400 2400 325 
Q 2500 250 2675 250 
L 2900 250 
L 2900 100 
L 1250 100 
L 1250 250 
L 1525 250 
Q 1725 250 1812 325 
Q 1900 400 1900 575 
L 1900 1400 
L 225 1400 
L 225 1525 
L 2050 4425 
L 2300 4425 
L 2300 1550 
L 2975 1550 
L 2975 1400 
L 2300 1400 
L 2300 575 
z
M 1875 3800 
L 450 1550 
L 1900 1550 
L 1900 3800 
L 1875 3800 
z
" transform="scale(0.015625)"/>
       </defs>
       <use xlink:href="#Times New Roman-34"/>
       <use xlink:href="#Times New Roman-30" x="50"/>
       <use xlink:href="#Times New Roman-30" x="100"/>
      </g>
     </g>
    </g>
    <g id="xtick_6">
     <g id="line2d_6">
      <g>
       <use xlink:href="#m4aa89fcef8" x="807.136364" y="384.48" style="stroke: #000000; stroke-width: 0.8"/>
      </g>
     </g>
     <g id="text_6">
      <!-- 500 -->
      <g transform="translate(799.636364 398.628438) scale(0.1 -0.1)">
       <defs>
        <path id="Times New Roman-35" d="M 1725 2850
Q 2200 2850 2500 2487 
Q 2800 2125 2800 1525 
Q 2800 850 2487 450 
Q 2175 50 1525 50 
Q 1075 50 725 312 
Q 375 575 375 950 
Q 375 1100 462 1212 
Q 550 1325 700 1325 
Q 850 1325 900 1225 
Q 950 1125 950 1050 
Q 950 900 875 825 
Q 800 725 800 625 
Q 800 425 1037 325 
Q 1275 225 1550 225 
Q 1950 225 2162 550 
Q 2375 875 2375 1475 
Q 2375 1975 2187 2287 
Q 2000 2600 1625 2600 
Q 1350 2600 1150 2500 
Q 950 2400 775 2075 
L 550 2100 
L 675 4375 
L 2725 4375 
L 2650 4000 
L 850 4000 
L 750 2350 
Q 1000 2700 1237 2775 
Q 1475 2850 1725 2850 
z
" transform="scale(0.015625)"/>
       </defs>
       <use xlink:href="#Times New Roman-35"/>
       <use xlink:href="#Times New Roman-30" x="50"/>
       <use xlink:href="#Times New Roman-30" x="100"/>
      </g>
     </g>
    </g>
    <g id="xtick_7">
     <g id="line2d_7">
      <g>
       <use xlink:href="#m4aa89fcef8" x="933.954545" y="384.48" style="stroke: #000000; stroke-width: 0.8"/>
      </g>
     </g>
     <g id="text_7">
      <!-- 600 -->
      <g transform="translate(926.454545 398.628438) scale(0.1 -0.1)">
       <defs>
        <path id="Times New Roman-36" d="M 775 1800
Q 775 1050 1037 637 
Q 1300 225 1675 225 
Q 2050 225 2250 500 
Q 2450 775 2450 1525 
Q 2450 2025 2237 2300 
Q 2025 2575 1725 2575 
Q 1450 2575 1212 2412 
Q 975 2250 775 1800 
z
M 1750 2825 
Q 2350 2825 2612 2425 
Q 2875 2025 2875 1525 
Q 2875 775 2512 412 
Q 2150 50 1675 50 
Q 1000 50 650 562 
Q 300 1075 300 2050 
Q 300 3200 725 3812 
Q 1150 4425 1875 4425 
Q 2225 4425 2437 4225 
Q 2650 4025 2650 3875 
Q 2650 3725 2587 3650 
Q 2525 3575 2375 3575 
Q 2250 3575 2187 3637 
Q 2125 3700 2125 3825 
Q 2125 3875 2150 3925 
Q 2150 3975 2150 4025 
Q 2150 4125 2075 4187 
Q 2000 4250 1800 4250 
Q 1375 4250 1075 3862 
Q 775 3475 775 2175 
Q 925 2500 1187 2662 
Q 1450 2825 1750 2825 
z
" transform="scale(0.015625)"/>
       </defs>
       <use xlink:href="#Times New Roman-36"/>
       <use xlink:href="#Times New Roman-30" x="50"/>
       <use xlink:href="#Times New Roman-30" x="100"/>
      </g>
     </g>
    </g>
   </g>
   <g id="matplotlib.axis_2">
    <g id="ytick_1">
     <g id="line2d_8">
      <defs>
       <path id="m54ad041887" d="M 0 0 
L -3.5 0 
" style="stroke: #000000; stroke-width: 0.8"/>
      </defs>
      <g>
       <use xlink:href="#m54ad041887" x="135" y="378.356526" style="stroke: #000000; stroke-width: 0.8"/>
      </g>
     </g>
     <g id="text_8">
      <!-- 0 -->
      <g transform="translate(123 381.930745) scale(0.1 -0.1)">
       <use xlink:href="#Times New Roman-30"/>
      </g>
     </g>
    </g>
    <g id="ytick_2">
     <g id="line2d_9">
      <g>
       <use xlink:href="#m54ad041887" x="135" y="315.000706" style="stroke: #000000; stroke-width: 0.8"/>
      </g>
     </g>
     <g id="text_9">
      <!-- 1000 -->
      <g transform="translate(108 318.574925) scale(0.1 -0.1)">
       <use xlink:href="#Times New Roman-31"/>
       <use xlink:href="#Times New Roman-30" x="50"/>
       <use xlink:href="#Times New Roman-30" x="100"/>
       <use xlink:href="#Times New Roman-30" x="150"/>
      </g>
     </g>
    </g>
    <g id="ytick_3">
     <g id="line2d_10">
      <g>
       <use xlink:href="#m54ad041887" x="135" y="251.644886" style="stroke: #000000; stroke-width: 0.8"/>
      </g>
     </g>
     <g id="text_10">
      <!-- 2000 -->
      <g transform="translate(108 255.219105) scale(0.1 -0.1)">
       <use xlink:href="#Times New Roman-32"/>
       <use xlink:href="#Times New Roman-30" x="50"/>
       <use xlink:href="#Times New Roman-30" x="100"/>
       <use xlink:href="#Times New Roman-30" x="150"/>
      </g>
     </g>
    </g>
    <g id="ytick_4">
     <g id="line2d_11">
      <g>
       <use xlink:href="#m54ad041887" x="135" y="188.289065" style="stroke: #000000; stroke-width: 0.8"/>
      </g>
     </g>
     <g id="text_11">
      <!-- 3000 -->
      <g transform="translate(108 191.863284) scale(0.1 -0.1)">
       <use xlink:href="#Times New Roman-33"/>
       <use xlink:href="#Times New Roman-30" x="50"/>
       <use xlink:href="#Times New Roman-30" x="100"/>
       <use xlink:href="#Times New Roman-30" x="150"/>
      </g>
     </g>
    </g>
    <g id="ytick_5">
     <g id="line2d_12">
      <g>
       <use xlink:href="#m54ad041887" x="135" y="124.933245" style="stroke: #000000; stroke-width: 0.8"/>
      </g>
     </g>
     <g id="text_12">
      <!-- 4000 -->
      <g transform="translate(108 128.507464) scale(0.1 -0.1)">
       <use xlink:href="#Times New Roman-34"/>
       <use xlink:href="#Times New Roman-30" x="50"/>
       <use xlink:href="#Times New Roman-30" x="100"/>
       <use xlink:href="#Times New Roman-30" x="150"/>
      </g>
     </g>
    </g>
    <g id="ytick_6">
     <g id="line2d_13">
      <g>
       <use xlink:href="#m54ad041887" x="135" y="61.577425" style="stroke: #000000; stroke-width: 0.8"/>
      </g>
     </g>
     <g id="text_13">
      <!-- 5000 -->
      <g transform="translate(108 65.151643) scale(0.1 -0.1)">
       <use xlink:href="#Times New Roman-35"/>
       <use xlink:href="#Times New Roman-30" x="50"/>
       <use xlink:href="#Times New Roman-30" x="100"/>
       <use xlink:href="#Times New Roman-30" x="150"/>
      </g>
     </g>
    </g>
    <g id="text_14">
     <!-- Bitrate (kbps) -->
     <g transform="translate(102.710938 253.16) rotate(-90) scale(0.1 -0.1)">
      <defs>
       <path id="Times New Roman-42" d="M 100 100
L 100 250 
L 300 250 
Q 425 250 475 300 
Q 525 350 525 450 
L 525 4025 
Q 525 4125 475 4175 
Q 425 4225 300 4225 
L 150 4225 
L 150 4375 
L 1600 4375 
Q 2200 4375 2487 4137 
Q 2775 3900 2775 3400 
Q 2775 3050 2625 2825 
Q 2475 2600 2000 2425 
Q 2575 2250 2775 1925 
Q 2975 1600 2975 1200 
Q 2975 700 2625 400 
Q 2275 100 1675 100 
L 100 100 
z
M 1600 250 
Q 2025 250 2262 512 
Q 2500 775 2500 1250 
Q 2500 1800 2250 2062 
Q 2000 2325 1500 2325 
L 925 2325 
L 925 450 
Q 925 350 987 300 
Q 1050 250 1150 250 
L 1600 250 
z
M 2350 3400 
Q 2350 3850 2100 4037 
Q 1850 4225 1450 4225 
L 1150 4225 
Q 1050 4225 987 4175 
Q 925 4125 925 4025 
L 925 2475 
L 1575 2475 
Q 1850 2475 2100 2700 
Q 2350 2925 2350 3400 
z
" transform="scale(0.015625)"/>
       <path id="Times New Roman-69" d="M 1425 2525
Q 1425 2625 1375 2687 
Q 1325 2750 1200 2750 
L 675 2750 
L 675 2900 
L 925 2900 
Q 1150 2900 1350 2937 
Q 1550 2975 1725 3075 
L 1775 3075 
L 1775 450 
Q 1775 350 1837 300 
Q 1900 250 2000 250 
L 2525 250 
L 2525 100 
L 675 100 
L 675 250 
L 1200 250 
Q 1325 250 1375 300 
Q 1425 350 1425 450 
L 1425 2525 
z
M 1725 3025 
L 1725 3025 
z
M 1625 4425 
Q 1750 4425 1850 4337 
Q 1950 4250 1950 4125 
Q 1950 4000 1850 3900 
Q 1750 3800 1625 3800 
Q 1500 3800 1400 3900 
Q 1300 4000 1300 4125 
Q 1300 4250 1400 4337 
Q 1500 4425 1625 4425 
z
" transform="scale(0.015625)"/>
       <path id="Times New Roman-74" d="M 1500 900
Q 1500 550 1625 425 
Q 1750 300 2000 300 
Q 2250 300 2400 462 
Q 2550 625 2600 925 
L 2725 875 
Q 2675 525 2462 300 
Q 2250 75 1900 75 
Q 1525 75 1337 300 
Q 1150 525 1150 1000 
L 1150 2750 
L 400 2750 
L 400 2900 
L 600 2900 
Q 900 2900 1087 3087 
Q 1275 3275 1325 3675 
L 1350 3875 
L 1500 3875 
L 1500 2900 
L 2500 2900 
L 2500 2750 
L 1500 2750 
L 1500 900 
z
" transform="scale(0.015625)"/>
       <path id="Times New Roman-72" d="M 1275 2125
Q 1525 2525 1812 2737 
Q 2100 2950 2400 2950 
Q 2650 2950 2787 2837 
Q 2925 2725 2925 2575 
Q 2925 2450 2862 2375 
Q 2800 2300 2675 2300 
Q 2550 2300 2487 2375 
Q 2425 2450 2450 2575 
Q 2450 2650 2425 2700 
Q 2400 2750 2275 2750 
Q 2075 2750 1787 2500 
Q 1500 2250 1275 1800 
L 1275 450 
Q 1275 350 1337 300 
Q 1400 250 1500 250 
L 2050 250 
L 2050 100 
L 200 100 
L 200 250 
L 700 250 
Q 825 250 875 300 
Q 925 350 925 450 
L 925 2525 
Q 925 2625 875 2687 
Q 825 2750 700 2750 
L 225 2750 
L 225 2900 
L 425 2900 
Q 600 2900 837 2937 
Q 1075 2975 1200 3025 
L 1275 3025 
L 1275 2125 
z
" transform="scale(0.015625)"/>
       <path id="Times New Roman-61" d="M 1225 75
Q 775 75 525 287 
Q 275 500 275 775 
Q 275 1225 662 1512 
Q 1050 1800 2200 1925 
L 2200 2225 
Q 2200 2475 2087 2637 
Q 1975 2800 1575 2800 
Q 1150 2800 975 2662 
Q 800 2525 850 2375 
Q 875 2325 875 2275 
Q 875 2225 837 2150 
Q 800 2075 650 2075 
Q 550 2075 487 2137 
Q 425 2200 425 2325 
Q 425 2550 750 2750 
Q 1075 2950 1550 2950 
Q 2050 2950 2300 2762 
Q 2550 2575 2550 2225 
L 2550 575 
Q 2550 375 2587 337 
Q 2625 300 2725 300 
Q 2850 300 2900 412 
Q 2950 525 2950 725 
L 3075 725 
Q 3075 375 2950 237 
Q 2825 100 2625 100 
Q 2450 100 2350 175 
Q 2250 250 2200 425 
Q 1950 250 1737 162 
Q 1525 75 1225 75 
z
M 700 850 
Q 700 625 837 437 
Q 975 250 1275 250 
Q 1500 250 1725 337 
Q 1950 425 2200 600 
L 2200 1775 
Q 1350 1675 1025 1437 
Q 700 1200 700 850 
z
" transform="scale(0.015625)"/>
       <path id="Times New Roman-65" d="M 2400 1650
Q 2425 2200 2212 2487 
Q 2000 2775 1650 2775 
Q 1275 2775 1037 2475 
Q 800 2175 800 1650 
L 2400 1650 
z
M 800 1500 
Q 800 825 1062 537 
Q 1325 250 1750 250 
Q 2075 250 2300 437 
Q 2525 625 2625 900 
L 2750 850 
Q 2675 575 2412 312 
Q 2150 50 1700 50 
Q 1125 50 762 425 
Q 400 800 400 1500 
Q 400 2125 762 2537 
Q 1125 2950 1650 2950 
Q 2125 2950 2475 2625 
Q 2825 2300 2825 1500 
L 800 1500 
z
" transform="scale(0.015625)"/>
       <path id="Times New Roman-20" d="M 0 0
Q 0 0 0 0 
z
" transform="scale(0.015625)"/>
       <path id="Times New Roman-28" d="M 2900 5025
Q 2325 4425 2037 3737 
Q 1750 3050 1750 2300 
Q 1750 1525 2037 850 
Q 2325 175 2900 -425 
L 2775 -550 
Q 2075 75 1725 787 
Q 1375 1500 1375 2300 
Q 1375 3075 1725 3787 
Q 2075 4500 2775 5150 
L 2900 5025 
z
" transform="scale(0.015625)"/>
       <path id="Times New Roman-6b" d="M 1675 1900
L 2625 425 
Q 2700 325 2762 287 
Q 2825 250 2900 250 
L 3000 250 
L 3000 100 
L 1975 100 
L 1975 250 
L 2050 250 
Q 2175 250 2225 287 
Q 2275 325 2200 425 
L 1425 1650 
L 925 1125 
L 925 450 
Q 925 350 987 300 
Q 1050 250 1150 250 
L 1275 250 
L 1275 100 
L 225 100 
L 225 250 
L 350 250 
Q 475 250 525 300 
Q 575 350 575 450 
L 575 4025 
Q 575 4125 525 4175 
Q 475 4225 350 4225 
L 200 4225 
L 200 4375 
L 425 4375 
Q 575 4375 687 4425 
Q 800 4475 875 4575 
L 925 4575 
L 925 1400 
L 1975 2525 
Q 2025 2625 2012 2687 
Q 2000 2750 1900 2750 
L 1750 2750 
L 1750 2900 
L 2800 2900 
L 2800 2750 
L 2675 2750 
Q 2600 2750 2487 2712 
Q 2375 2675 2275 2575 
L 1675 1900 
z
M 2450 2750 
L 2450 2750 
z
M 2175 2750 
L 2175 2750 
z
M 2300 250 
L 2300 250 
z
M 2750 250 
L 2750 250 
z
" transform="scale(0.015625)"/>
       <path id="Times New Roman-62" d="M 875 2325
Q 1000 2600 1275 2762 
Q 1550 2925 1800 2925 
Q 2325 2925 2587 2562 
Q 2850 2200 2850 1500 
Q 2850 800 2512 437 
Q 2175 75 1675 75 
Q 1425 75 1212 162 
Q 1000 250 850 400 
L 625 100 
L 525 100 
L 525 4025 
Q 525 4125 475 4175 
Q 425 4225 300 4225 
L 150 4225 
L 150 4375 
L 375 4375 
Q 500 4375 625 4425 
Q 750 4475 875 4575 
L 875 2325 
z
M 875 925 
Q 875 650 1062 450 
Q 1250 250 1625 250 
Q 2075 250 2262 562 
Q 2450 875 2450 1500 
Q 2450 2100 2287 2412 
Q 2125 2725 1775 2725 
Q 1475 2725 1250 2550 
Q 1025 2375 875 1925 
L 875 925 
z
" transform="scale(0.015625)"/>
       <path id="Times New Roman-70" d="M 1150 -675
L 1325 -675 
L 1325 -825 
L 175 -825 
L 175 -675 
L 325 -675 
Q 450 -675 500 -625 
Q 550 -575 550 -450 
L 550 2500 
Q 550 2600 500 2662 
Q 450 2725 325 2725 
L 175 2725 
L 175 2875 
L 400 2875 
Q 525 2875 637 2900 
Q 750 2925 850 3000 
L 900 3000 
L 900 2425 
Q 1075 2675 1287 2800 
Q 1500 2925 1750 2925 
Q 2250 2925 2575 2587 
Q 2900 2250 2900 1525 
Q 2900 825 2550 450 
Q 2200 75 1725 75 
Q 1450 75 1262 162 
Q 1075 250 900 425 
L 900 -450 
Q 900 -575 975 -625 
Q 1050 -675 1150 -675 
z
M 900 750 
Q 1025 500 1212 375 
Q 1400 250 1650 250 
Q 2000 250 2250 562 
Q 2500 875 2500 1525 
Q 2500 2125 2312 2425 
Q 2125 2725 1750 2725 
Q 1525 2725 1300 2587 
Q 1075 2450 900 2150 
L 900 750 
z
" transform="scale(0.015625)"/>
       <path id="Times New Roman-73" d="M 625 2175
Q 625 2550 912 2750 
Q 1200 2950 1600 2950 
Q 1825 2950 2025 2900 
Q 2225 2825 2300 2825 
Q 2375 2825 2425 2850 
Q 2475 2875 2550 2950 
L 2650 2125 
L 2500 2100 
Q 2400 2425 2162 2612 
Q 1925 2800 1625 2800 
Q 1300 2800 1112 2675 
Q 925 2550 925 2325 
Q 925 2125 1012 2012 
Q 1100 1900 1325 1850 
Q 1500 1775 1775 1700 
Q 2025 1600 2250 1500 
Q 2450 1400 2587 1237 
Q 2725 1075 2725 875 
Q 2725 500 2462 287 
Q 2200 75 1700 75 
Q 1375 75 1225 150 
Q 1050 200 950 200 
Q 875 200 787 162 
Q 700 125 600 75 
L 525 1000 
L 675 1025 
Q 750 625 1000 425 
Q 1250 225 1700 225 
Q 2050 225 2237 350 
Q 2425 475 2425 725 
Q 2425 900 2325 1012 
Q 2225 1125 2125 1175 
Q 1875 1275 1575 1400 
Q 1275 1500 1050 1600 
Q 825 1700 725 1850 
Q 625 2000 625 2175 
z
" transform="scale(0.015625)"/>
       <path id="Times New Roman-29" d="M 275 5025
L 400 5150 
Q 1100 4500 1450 3787 
Q 1800 3075 1800 2300 
Q 1800 1500 1450 787 
Q 1100 75 400 -550 
L 275 -425 
Q 850 175 1137 850 
Q 1425 1525 1425 2300 
Q 1425 3050 1137 3737 
Q 850 4425 275 5025 
z
" transform="scale(0.015625)"/>
      </defs>
      <use xlink:href="#Times New Roman-42"/>
      <use xlink:href="#Times New Roman-69" x="50"/>
      <use xlink:href="#Times New Roman-74" x="100"/>
      <use xlink:href="#Times New Roman-72" x="150"/>
      <use xlink:href="#Times New Roman-61" x="200"/>
      <use xlink:href="#Times New Roman-74" x="250"/>
      <use xlink:href="#Times New Roman-65" x="300"/>
      <use xlink:href="#Times New Roman-20" x="350"/>
      <use xlink:href="#Times New Roman-28" x="400"/>
      <use xlink:href="#Times New Roman-6b" x="450"/>
      <use xlink:href="#Times New Roman-62" x="500"/>
      <use xlink:href="#Times New Roman-70" x="550"/>
      <use xlink:href="#Times New Roman-73" x="600"/>
      <use xlink:href="#Times New Roman-29" x="650"/>
     </g>
    </g>
   </g>
   <g id="line2d_14">
    <path d="M 173.045455 369.36 
L 179.386364 369.36 
L 180.654545 337.365311 
L 183.190909 337.365311 
L 184.459091 257.727045 
L 188.897727 257.727045 
L 189.531818 309.108615 
L 191.434091 309.108615 
L 192.068182 369.36 
L 193.336364 369.36 
L 194.604545 337.365311 
L 202.213636 337.365311 
L 203.481818 309.108615 
L 219.968182 309.108615 
L 221.236364 257.727045 
L 232.65 257.727045 
L 233.918182 132.155809 
L 235.186364 257.727045 
L 242.795455 257.727045 
L 244.063636 132.155809 
L 263.720455 132.155809 
L 264.354545 257.727045 
L 292.254545 257.727045 
L 293.522727 309.108615 
L 320.154545 309.108615 
L 321.422727 369.36 
L 345.518182 369.36 
L 346.786364 337.365311 
L 359.468182 337.365311 
L 360.736364 309.108615 
L 364.540909 309.108615 
L 365.809091 257.727045 
L 381.027273 257.727045 
L 382.295455 132.155809 
L 435.559091 132.155809 
L 436.827273 257.727045 
L 440.631818 257.727045 
L 441.265909 132.155809 
L 441.9 257.727045 
L 444.436364 257.727045 
L 445.704545 132.155809 
L 446.338636 132.155809 
L 446.972727 257.727045 
L 453.947727 257.727045 
L 454.581818 309.108615 
L 461.556818 309.108615 
L 462.190909 337.365311 
L 464.727273 337.365311 
L 465.995455 257.727045 
L 467.897727 257.727045 
L 468.531818 337.365311 
L 473.604545 337.365311 
L 474.872727 369.36 
L 477.409091 369.36 
L 478.677273 309.108615 
L 480.579545 309.108615 
L 481.213636 369.36 
L 485.018182 369.36 
L 486.286364 309.108615 
L 487.554545 369.36 
L 500.236364 369.36 
L 501.504545 309.108615 
L 502.138636 309.108615 
L 502.772727 337.365311 
L 505.309091 337.365311 
L 506.577273 257.727045 
L 510.381818 257.727045 
L 511.65 132.155809 
L 512.284091 132.155809 
L 512.918182 257.727045 
L 517.990909 257.727045 
L 519.259091 132.155809 
L 519.893182 132.155809 
L 520.527273 257.727045 
L 523.063636 257.727045 
L 524.331818 132.155809 
L 532.575 132.155809 
L 533.209091 257.727045 
L 550.963636 257.727045 
L 552.231818 132.155809 
L 563.645455 132.155809 
L 564.913636 257.727045 
L 566.181818 257.727045 
L 567.45 132.155809 
L 568.084091 132.155809 
L 568.718182 257.727045 
L 571.254545 257.727045 
L 572.522727 132.155809 
L 576.327273 132.155809 
L 577.595455 257.727045 
L 578.863636 257.727045 
L 580.131818 132.155809 
L 580.765909 132.155809 
L 581.4 257.727045 
L 583.936364 257.727045 
L 585.204545 132.155809 
L 586.472727 132.155809 
L 587.740909 257.727045 
L 591.545455 257.727045 
L 592.813636 132.155809 
L 599.154545 132.155809 
L 600.422727 257.727045 
L 601.690909 257.727045 
L 602.959091 132.155809 
L 603.593182 132.155809 
L 604.227273 309.108615 
L 611.202273 309.108615 
L 611.836364 337.365311 
L 623.25 337.365311 
L 624.518182 369.36 
L 637.2 369.36 
L 637.834091 337.365311 
L 638.468182 369.36 
L 652.418182 369.36 
L 653.686364 337.365311 
L 667.636364 337.365311 
L 668.904545 257.727045 
L 670.172727 257.727045 
L 671.440909 132.155809 
L 673.977273 132.155809 
L 675.245455 257.727045 
L 682.854545 257.727045 
L 684.122727 132.155809 
L 684.756818 132.155809 
L 685.390909 257.727045 
L 687.927273 257.727045 
L 689.195455 132.155809 
L 690.463636 132.155809 
L 691.731818 257.727045 
L 693 257.727045 
L 694.268182 132.155809 
L 694.902273 132.155809 
L 695.536364 257.727045 
L 698.072727 257.727045 
L 699.340909 132.155809 
L 699.975 132.155809 
L 700.609091 257.727045 
L 703.145455 257.727045 
L 704.413636 132.155809 
L 705.047727 132.155809 
L 705.681818 257.727045 
L 708.218182 257.727045 
L 709.486364 132.155809 
L 717.729545 132.155809 
L 718.363636 257.727045 
L 720.9 257.727045 
L 722.168182 132.155809 
L 722.802273 132.155809 
L 723.436364 257.727045 
L 725.972727 257.727045 
L 727.240909 132.155809 
L 728.509091 132.155809 
L 729.777273 257.727045 
L 731.045455 257.727045 
L 732.313636 132.155809 
L 733.581818 257.727045 
L 736.118182 257.727045 
L 737.386364 132.155809 
L 739.922727 132.155809 
L 740.556818 257.727045 
L 748.165909 257.727045 
L 748.8 309.108615 
L 768.456818 309.108615 
L 769.090909 369.36 
L 790.65 369.36 
L 791.918182 257.727045 
L 793.820455 257.727045 
L 794.454545 337.365311 
L 810.940909 337.365311 
L 812.209091 309.108615 
L 819.184091 309.108615 
L 819.818182 257.727045 
L 824.890909 257.727045 
L 826.159091 132.155809 
L 828.061364 132.155809 
L 828.695455 257.727045 
L 829.963636 257.727045 
L 831.231818 132.155809 
L 831.865909 132.155809 
L 832.5 257.727045 
L 837.572727 257.727045 
L 838.840909 132.155809 
L 899.713636 132.155809 
L 900.981818 257.727045 
L 903.518182 257.727045 
L 904.786364 132.155809 
L 905.420455 132.155809 
L 906.054545 257.727045 
L 913.029545 257.727045 
L 913.663636 309.108615 
L 916.2 309.108615 
L 917.468182 132.155809 
L 918.736364 132.155809 
L 920.004545 337.365311 
L 926.345455 337.365311 
L 927.613636 257.727045 
L 930.15 257.727045 
L 931.418182 369.36 
L 933.954545 369.36 
L 933.954545 369.36 
" clip-path="url(#p67dcd1e39e)" style="fill: none; stroke: #ff0000; stroke-width: 1.5; stroke-linecap: square"/>
   </g>
   <g id="line2d_15">
    <path d="M 173.045455 349.508848 
L 174.313636 349.508848 
L 175.581818 349.354147 
L 176.85 348.948965 
L 178.118182 348.798432 
L 180.654545 347.524814 
L 181.922727 345.596566 
L 182.556818 343.174448 
L 183.190909 339.465514 
L 184.459091 335.81703 
L 186.995455 328.102859 
L 188.263636 325.373085 
L 188.897727 323.723738 
L 189.531818 323.048754 
L 190.8 320.795483 
L 191.434091 317.542136 
L 192.702273 305.917272 
L 193.336364 298.71897 
L 194.604545 292.603799 
L 195.872727 287.57605 
L 197.140909 283.239842 
L 198.409091 278.350496 
L 199.677273 272.526086 
L 200.945455 266.1162 
L 202.213636 253.043816 
L 206.018182 235.445934 
L 207.286364 223.465129 
L 213.627273 192.958846 
L 218.7 164.600273 
L 219.968182 150.494835 
L 221.236364 143.992703 
L 223.772727 133.013292 
L 231.381818 102.906572 
L 232.65 95.132053 
L 235.186364 89.17174 
L 236.454545 89.725622 
L 238.990909 122.387625 
L 240.259091 142.523659 
L 241.527273 148.222405 
L 242.795455 151.430136 
L 244.063636 130.92853 
L 245.331818 117.209309 
L 246.6 101.533491 
L 247.868182 101.161736 
L 249.136364 93.495986 
L 250.404545 92.139968 
L 251.672727 84.905342 
L 252.940909 86.564149 
L 254.209091 88.733621 
L 255.477273 99.066229 
L 258.013636 112.935984 
L 259.281818 110.116802 
L 261.818182 96.174974 
L 263.720455 94.933977 
L 264.354545 94.802163 
L 268.159091 107.967435 
L 270.695455 117.922341 
L 273.231818 129.805764 
L 279.572727 163.277911 
L 283.377273 184.936884 
L 288.45 215.238367 
L 293.522727 245.692514 
L 294.790909 252.932614 
L 297.327273 277.242563 
L 297.961364 289.213671 
L 298.595455 295.490999 
L 299.863636 300.923752 
L 301.131818 300.768184 
L 303.668182 300.016227 
L 306.204545 310.090748 
L 308.740909 320.297118 
L 311.277273 329.256374 
L 313.813636 336.772266 
L 315.081818 340.030986 
L 316.35 342.9562 
L 317.618182 345.481208 
L 318.886364 347.60422 
L 320.154545 349.369431 
L 321.422727 350.694835 
L 322.690909 351.668555 
L 323.959091 352.20838 
L 325.227273 352.396285 
L 326.495455 352.146781 
L 327.763636 351.568976 
L 329.031818 350.532171 
L 330.3 349.096376 
L 331.568182 347.910118 
L 332.836364 347.432567 
L 334.104545 346.562481 
L 335.372727 344.672889 
L 336.640909 341.399674 
L 337.909091 337.132634 
L 339.177273 331.424934 
L 341.713636 324.966627 
L 348.054545 292.639683 
L 351.859091 273.477335 
L 354.395455 259.402375 
L 355.663636 245.921946 
L 358.2 234.243323 
L 359.468182 223.865301 
L 362.004545 213.197567 
L 362.638636 209.787571 
L 364.540909 209.091738 
L 365.809091 206.021734 
L 366.443182 200.171272 
L 367.077273 192.304811 
L 368.345455 181.538106 
L 368.979545 170.590051 
L 369.613636 162.389949 
L 370.881818 152.79014 
L 373.418182 144.454373 
L 374.686364 143.326301 
L 375.954545 156.505089 
L 377.222727 175.362011 
L 378.490909 198.667425 
L 379.759091 211.179101 
L 381.027273 251.894592 
L 382.295455 268.881656 
L 383.563636 282.124881 
L 384.831818 292.140473 
L 385.465909 300.161861 
L 386.1 296.725137 
L 387.368182 288.927302 
L 388.636364 277.886123 
L 389.904545 268.423805 
L 391.172727 265.372082 
L 392.440909 251.333817 
L 393.709091 251.544969 
L 394.977273 235.586027 
L 395.611364 248.222185 
L 396.245455 244.9315 
L 397.513636 256.024919 
L 398.781818 251.115974 
L 400.05 251.64715 
L 400.684091 252.777316 
L 401.318182 257.130892 
L 402.586364 259.983458 
L 403.854545 259.810319 
L 405.122727 260.475978 
L 406.390909 251.891146 
L 407.659091 234.282249 
L 408.927273 225.678494 
L 410.195455 218.876343 
L 411.463636 237.057335 
L 412.731818 240.900279 
L 414 259.128475 
L 415.268182 256.047017 
L 416.536364 267.998865 
L 417.804545 260.768631 
L 418.438636 269.790331 
L 419.072727 267.517293 
L 420.340909 274.2002 
L 421.609091 272.255193 
L 422.877273 270.60784 
L 424.145455 272.786098 
L 425.413636 269.12849 
L 426.681818 273.448445 
L 427.95 267.498506 
L 429.218182 268.282124 
L 430.486364 252.27591 
L 431.754545 241.700556 
L 433.022727 225.763577 
L 434.290909 226.892899 
L 435.559091 234.852417 
L 436.827273 247.37146 
L 438.095455 254.355231 
L 439.363636 263.256504 
L 440.631818 267.921756 
L 441.265909 267.47857 
L 441.9 262.189186 
L 443.168182 263.730879 
L 443.802273 269.653752 
L 444.436364 276.919601 
L 445.704545 283.444135 
L 446.338636 295.108871 
L 446.972727 309.405526 
L 448.240909 319.127349 
L 449.509091 319.983413 
L 450.777273 316.86259 
L 452.045455 316.478198 
L 453.313636 316.485125 
L 453.947727 316.875836 
L 454.581818 318.956441 
L 455.85 323.972228 
L 457.118182 325.13213 
L 458.386364 325.095062 
L 459.654545 323.883091 
L 460.922727 324.482994 
L 461.556818 326.363159 
L 462.190909 329.186767 
L 463.459091 332.611293 
L 464.727273 338.28615 
L 465.995455 340.514821 
L 467.263636 342.50193 
L 468.531818 346.168019 
L 469.8 347.720625 
L 472.336364 350.258034 
L 473.604545 351.170054 
L 474.872727 351.873726 
L 476.775 352.424161 
L 477.409091 352.254841 
L 478.677273 352.411321 
L 479.945455 352.331476 
L 480.579545 351.99324 
L 481.213636 350.947785 
L 481.847727 349.624071 
L 482.481818 347.683963 
L 484.384091 344.298026 
L 485.018182 344.496946 
L 486.286364 345.386259 
L 488.822727 350.395086 
L 490.090909 353.881311 
L 491.359091 355.602022 
L 491.993182 359.267029 
L 492.627273 362.014442 
L 493.895455 364.318904 
L 495.163636 364.526576 
L 496.431818 362.448775 
L 497.7 356.305626 
L 498.968182 344.25268 
L 499.602273 334.828814 
L 500.236364 328.279208 
L 501.504545 324.272349 
L 502.138636 318.801109 
L 502.772727 315.430884 
L 504.040909 310.740357 
L 504.675 307.368543 
L 505.309091 308.649209 
L 506.577273 313.044143 
L 507.845455 314.778944 
L 509.113636 310.035975 
L 509.747727 306.820878 
L 510.381818 305.836515 
L 511.65 305.382515 
L 512.284091 306.893324 
L 512.918182 310.568029 
L 514.186364 308.441267 
L 514.820455 292.714257 
L 515.454545 269.009077 
L 516.722727 243.794948 
L 517.356818 227.310202 
L 517.990909 216.097134 
L 519.259091 211.657395 
L 519.893182 214.411329 
L 520.527273 222.229674 
L 521.795455 224.22202 
L 522.429545 221.587229 
L 523.063636 219.919569 
L 524.331818 220.808746 
L 525.6 222.449206 
L 526.868182 223.66628 
L 528.136364 220.195259 
L 529.404545 207.181366 
L 530.672727 188.76986 
L 531.940909 173.507223 
L 533.209091 142.055265 
L 534.477273 130.600871 
L 535.111364 121.776098 
L 535.745455 108.840022 
L 537.013636 96.412854 
L 538.281818 89.251146 
L 539.55 86.302515 
L 540.818182 79.86678 
L 542.086364 76.878041 
L 543.354545 71.885602 
L 544.622727 75.603221 
L 545.890909 100.267321 
L 547.159091 131.968512 
L 548.427273 222.827719 
L 549.695455 263.887325 
L 550.329545 278.996827 
L 550.963636 282.363099 
L 552.231818 269.222629 
L 553.5 243.158551 
L 556.036364 160.397907 
L 557.304545 124.94203 
L 557.938636 91.985752 
L 558.572727 73.582086 
L 559.840909 69.627196 
L 561.109091 71.92936 
L 562.377273 74.503161 
L 563.645455 81.93218 
L 564.913636 96.880234 
L 565.547727 130.912683 
L 566.181818 179.09372 
L 567.45 221.711643 
L 568.084091 248.612288 
L 568.718182 257.031921 
L 569.986364 245.127481 
L 571.254545 175.87173 
L 572.522727 151.472576 
L 573.790909 143.045948 
L 575.059091 139.480654 
L 576.327273 143.67072 
L 577.595455 151.948099 
L 578.863636 179.027526 
L 580.765909 195.221037 
L 581.4 197.467009 
L 582.668182 195.719673 
L 583.936364 179.636992 
L 585.204545 177.983523 
L 586.472727 187.066551 
L 587.740909 197.200881 
L 589.009091 226.721213 
L 590.277273 241.159616 
L 591.545455 258.673496 
L 592.813636 266.911915 
L 595.35 276.019103 
L 596.618182 281.45456 
L 597.886364 288.632183 
L 599.154545 288.894324 
L 600.422727 290.425102 
L 601.056818 295.830316 
L 601.690909 304.224979 
L 602.959091 311.930263 
L 604.227273 330.224586 
L 605.495455 335.208273 
L 606.129545 335.370363 
L 606.763636 333.663405 
L 608.031818 331.466191 
L 609.3 330.638004 
L 610.568182 330.541399 
L 611.202273 333.433871 
L 611.836364 337.06617 
L 613.104545 342.085471 
L 614.372727 346.370386 
L 616.909091 353.714052 
L 618.177273 354.216168 
L 619.445455 353.566019 
L 620.713636 352.745705 
L 621.347727 351.463113 
L 621.981818 350.719805 
L 623.25 350.310206 
L 624.518182 350.612827 
L 625.786364 351.549648 
L 627.054545 352.155938 
L 628.956818 352.459945 
L 629.590909 352.367327 
L 630.859091 352.915532 
L 632.127273 353.123542 
L 633.395455 353.012407 
L 634.663636 351.696972 
L 635.931818 349.932842 
L 637.834091 340.524553 
L 639.736364 334.103043 
L 642.272727 329.62965 
L 643.540909 326.721026 
L 644.809091 324.548073 
L 646.077273 322.755999 
L 647.345455 324.332326 
L 648.613636 324.159086 
L 649.247727 322.528087 
L 649.881818 316.028321 
L 651.15 308.582001 
L 651.784091 299.778414 
L 652.418182 294.717551 
L 653.686364 291.52435 
L 654.954545 296.81789 
L 656.222727 302.677982 
L 657.490909 311.479812 
L 658.759091 312.991972 
L 659.393182 318.63358 
L 660.027273 321.847088 
L 661.295455 326.098956 
L 662.563636 325.919398 
L 663.831818 321.69081 
L 665.1 311.580573 
L 666.368182 290.72431 
L 667.002273 267.452349 
L 667.636364 239.584506 
L 668.904545 219.025187 
L 669.538636 200.078114 
L 670.172727 189.882659 
L 671.440909 180.36702 
L 672.709091 174.354265 
L 673.977273 169.227039 
L 675.245455 163.504944 
L 676.513636 165.108404 
L 677.781818 182.920682 
L 680.318182 232.45706 
L 681.586364 247.152333 
L 682.220455 263.979875 
L 682.854545 273.35897 
L 684.122727 274.789696 
L 684.756818 259.612649 
L 685.390909 238.404499 
L 686.659091 204.051926 
L 687.293182 174.784544 
L 687.927273 160.828355 
L 689.195455 168.773783 
L 690.463636 180.481973 
L 691.731818 182.984477 
L 692.365909 184.894782 
L 693 192.0079 
L 694.902273 196.774116 
L 695.536364 196.006379 
L 696.804545 184.816795 
L 697.438636 170.150311 
L 698.072727 169.639207 
L 699.340909 183.625773 
L 699.975 195.868381 
L 700.609091 188.755161 
L 701.877273 164.576485 
L 702.511364 144.535603 
L 703.145455 144.486676 
L 704.413636 163.586276 
L 705.047727 181.159998 
L 705.681818 182.17751 
L 706.95 163.239965 
L 708.218182 86.847341 
L 709.486364 67.258803 
L 710.754545 66.96 
L 712.022727 68.608197 
L 713.290909 75.527903 
L 714.559091 88.506318 
L 717.095455 153.300433 
L 717.729545 181.252143 
L 718.363636 186.084452 
L 719.631818 179.195866 
L 720.265909 160.857955 
L 720.9 147.57969 
L 722.168182 141.178725 
L 723.436364 151.672983 
L 724.704545 148.991021 
L 725.338636 149.914496 
L 725.972727 159.561712 
L 727.240909 181.030887 
L 728.509091 200.005533 
L 729.777273 210.731319 
L 731.045455 225.39956 
L 732.313636 230.622141 
L 733.581818 233.689576 
L 734.85 235.415929 
L 735.484091 229.039597 
L 736.118182 212.151402 
L 737.386364 192.73465 
L 738.654545 184.736612 
L 739.922727 188.182425 
L 741.190909 200.178267 
L 744.995455 218.882054 
L 745.629545 232.521058 
L 746.263636 253.480887 
L 747.531818 277.72498 
L 748.165909 294.743198 
L 748.8 303.596185 
L 750.068182 300.865837 
L 751.336364 290.672105 
L 751.970455 277.419622 
L 752.604545 271.381187 
L 753.872727 272.584745 
L 755.140909 277.470137 
L 756.409091 288.018324 
L 758.945455 297.653376 
L 760.213636 302.369313 
L 761.481818 310.783439 
L 765.286364 322.503657 
L 766.554545 329.446948 
L 767.822727 332.590377 
L 769.090909 338.242189 
L 770.359091 340.37848 
L 771.627273 344.154487 
L 772.895455 345.850361 
L 774.163636 348.47657 
L 775.431818 349.579029 
L 776.7 351.285243 
L 777.968182 351.890891 
L 779.236364 352.341444 
L 780.504545 352.590204 
L 781.772727 352.563983 
L 783.040909 352.215239 
L 784.309091 351.545087 
L 785.577273 350.545585 
L 786.845455 349.115433 
L 788.113636 347.324846 
L 789.381818 345.116346 
L 790.65 340.138505 
L 793.186364 334.903388 
L 794.454545 328.768146 
L 796.990909 321.765317 
L 799.527273 313.627422 
L 800.795455 308.949566 
L 802.063636 303.794025 
L 804.6 292.151793 
L 807.136364 280.210657 
L 809.672727 267.952978 
L 810.940909 253.884404 
L 813.477273 240.359643 
L 814.745455 234.136142 
L 817.281818 222.477251 
L 818.55 216.386882 
L 819.818182 205.65569 
L 822.354545 195.104732 
L 824.890909 181.747771 
L 827.427273 173.329489 
L 828.061364 169.310196 
L 829.329545 158.245938 
L 829.963636 150.527104 
L 831.231818 142.861962 
L 831.865909 142.781272 
L 832.5 152.448526 
L 833.768182 168.46089 
L 834.402273 189.520196 
L 835.036364 216.675176 
L 836.304545 234.502625 
L 836.938636 249.508967 
L 837.572727 261.46274 
L 838.840909 268.31561 
L 840.109091 271.456133 
L 841.377273 267.150674 
L 842.645455 271.921823 
L 843.913636 260.267866 
L 845.181818 258.265248 
L 846.45 245.335288 
L 847.084091 258.245582 
L 847.718182 263.231635 
L 848.986364 280.919431 
L 850.254545 288.037179 
L 851.522727 293.929236 
L 852.790909 297.092634 
L 854.059091 290.427568 
L 854.693182 295.616461 
L 855.327273 303.392433 
L 857.229545 336.772976 
L 857.863636 353.048563 
L 859.131818 357.7917 
L 859.765909 361.156857 
L 861.668182 359.457941 
L 862.936364 358.42313 
L 864.204545 354.169133 
L 865.472727 353.896618 
L 866.740909 356.23558 
L 867.375 358.387414 
L 868.009091 364.052201 
L 869.277273 364.431492 
L 870.545455 364.974764 
L 871.813636 362.299796 
L 873.081818 361.543311 
L 874.35 358.663341 
L 874.984091 358.507942 
L 875.618182 359.476492 
L 876.886364 360.916207 
L 878.154545 360.501944 
L 879.422727 359.561203 
L 880.690909 360.250987 
L 881.959091 357.080392 
L 883.227273 355.715285 
L 884.495455 352.225478 
L 885.763636 354.154975 
L 887.031818 351.750833 
L 888.3 354.112974 
L 889.568182 349.422346 
L 890.836364 349.958218 
L 892.104545 339.850413 
L 893.372727 336.285457 
L 894.640909 324.310025 
L 895.909091 320.512358 
L 897.177273 307.221591 
L 898.445455 308.177909 
L 899.713636 302.934886 
L 900.981818 304.5325 
L 902.25 298.664028 
L 903.518182 309.848746 
L 904.786364 317.715072 
L 905.420455 323.501097 
L 906.054545 333.206398 
L 907.322727 336.843664 
L 908.590909 336.67262 
L 909.859091 332.980176 
L 911.127273 334.877674 
L 912.395455 336.400951 
L 913.029545 339.157182 
L 913.663636 336.59514 
L 914.931818 335.470211 
L 915.565909 330.820165 
L 916.2 328.609165 
L 917.468182 326.217694 
L 918.736364 328.935236 
L 920.004545 333.145745 
L 921.272727 338.424552 
L 922.540909 342.948057 
L 923.809091 346.972351 
L 925.711364 350.300001 
L 926.345455 350.080165 
L 927.613636 350.209749 
L 928.881818 350.453272 
L 930.15 351.430776 
L 931.418182 352.054501 
L 932.686364 352.478529 
L 933.954545 352.566551 
L 933.954545 352.566551 
" clip-path="url(#p67dcd1e39e)" style="fill: none; stroke: #008000; stroke-width: 1.5; stroke-linecap: square"/>
   </g>
   <g id="patch_3">
    <path d="M 135 384.48 
L 135 51.84 
" style="fill: none; stroke: #000000; stroke-width: 0.8; stroke-linejoin: miter; stroke-linecap: square"/>
   </g>
   <g id="patch_4">
    <path d="M 972 384.48 
L 972 51.84 
" style="fill: none; stroke: #000000; stroke-width: 0.8; stroke-linejoin: miter; stroke-linecap: square"/>
   </g>
   <g id="patch_5">
    <path d="M 135 384.48 
L 972 384.48 
" style="fill: none; stroke: #000000; stroke-width: 0.8; stroke-linejoin: miter; stroke-linecap: square"/>
   </g>
   <g id="patch_6">
    <path d="M 135 51.84 
L 972 51.84 
" style="fill: none; stroke: #000000; stroke-width: 0.8; stroke-linejoin: miter; stroke-linecap: square"/>
   </g>
  </g>
  <g id="axes_2">
   <g id="matplotlib.axis_3">
    <g id="ytick_7">
     <g id="line2d_16">
      <path d="M 135 369.36 
L 972 369.36 
" clip-path="url(#p67dcd1e39e)" style="fill: none; stroke: #b0b0b0; stroke-width: 0.8; stroke-linecap: square"/>
     </g>
     <g id="line2d_17">
      <defs>
       <path id="m6a424fbbe2" d="M 0 0 
L 3.5 0 
" style="stroke: #000000; stroke-width: 0.8"/>
      </defs>
      <g>
       <use xlink:href="#m6a424fbbe2" x="972" y="369.36" style="stroke: #000000; stroke-width: 0.8"/>
      </g>
     </g>
     <g id="text_15">
      <!-- 0 -->
      <g transform="translate(979 372.934219) scale(0.1 -0.1)">
       <use xlink:href="#Times New Roman-30"/>
      </g>
     </g>
    </g>
    <g id="ytick_8">
     <g id="line2d_18">
      <path d="M 135 320.897944 
L 972 320.897944 
" clip-path="url(#p67dcd1e39e)" style="fill: none; stroke: #b0b0b0; stroke-width: 0.8; stroke-linecap: square"/>
     </g>
     <g id="line2d_19">
      <g>
       <use xlink:href="#m6a424fbbe2" x="972" y="320.897944" style="stroke: #000000; stroke-width: 0.8"/>
      </g>
     </g>
     <g id="text_16">
      <!-- 5 -->
      <g transform="translate(979 324.472163) scale(0.1 -0.1)">
       <use xlink:href="#Times New Roman-35"/>
      </g>
     </g>
    </g>
    <g id="ytick_9">
     <g id="line2d_20">
      <path d="M 135 272.435888 
L 972 272.435888 
" clip-path="url(#p67dcd1e39e)" style="fill: none; stroke: #b0b0b0; stroke-width: 0.8; stroke-linecap: square"/>
     </g>
     <g id="line2d_21">
      <g>
       <use xlink:href="#m6a424fbbe2" x="972" y="272.435888" style="stroke: #000000; stroke-width: 0.8"/>
      </g>
     </g>
     <g id="text_17">
      <!-- 10 -->
      <g transform="translate(979 276.010106) scale(0.1 -0.1)">
       <use xlink:href="#Times New Roman-31"/>
       <use xlink:href="#Times New Roman-30" x="50"/>
      </g>
     </g>
    </g>
    <g id="ytick_10">
     <g id="line2d_22">
      <path d="M 135 223.973831 
L 972 223.973831 
" clip-path="url(#p67dcd1e39e)" style="fill: none; stroke: #b0b0b0; stroke-width: 0.8; stroke-linecap: square"/>
     </g>
     <g id="line2d_23">
      <g>
       <use xlink:href="#m6a424fbbe2" x="972" y="223.973831" style="stroke: #000000; stroke-width: 0.8"/>
      </g>
     </g>
     <g id="text_18">
      <!-- 15 -->
      <g transform="translate(979 227.54805) scale(0.1 -0.1)">
       <use xlink:href="#Times New Roman-31"/>
       <use xlink:href="#Times New Roman-35" x="50"/>
      </g>
     </g>
    </g>
    <g id="ytick_11">
     <g id="line2d_24">
      <path d="M 135 175.511775 
L 972 175.511775 
" clip-path="url(#p67dcd1e39e)" style="fill: none; stroke: #b0b0b0; stroke-width: 0.8; stroke-linecap: square"/>
     </g>
     <g id="line2d_25">
      <g>
       <use xlink:href="#m6a424fbbe2" x="972" y="175.511775" style="stroke: #000000; stroke-width: 0.8"/>
      </g>
     </g>
     <g id="text_19">
      <!-- 20 -->
      <g transform="translate(979 179.085994) scale(0.1 -0.1)">
       <use xlink:href="#Times New Roman-32"/>
       <use xlink:href="#Times New Roman-30" x="50"/>
      </g>
     </g>
    </g>
    <g id="ytick_12">
     <g id="line2d_26">
      <path d="M 135 127.049719 
L 972 127.049719 
" clip-path="url(#p67dcd1e39e)" style="fill: none; stroke: #b0b0b0; stroke-width: 0.8; stroke-linecap: square"/>
     </g>
     <g id="line2d_27">
      <g>
       <use xlink:href="#m6a424fbbe2" x="972" y="127.049719" style="stroke: #000000; stroke-width: 0.8"/>
      </g>
     </g>
     <g id="text_20">
      <!-- 25 -->
      <g transform="translate(979 130.623938) scale(0.1 -0.1)">
       <use xlink:href="#Times New Roman-32"/>
       <use xlink:href="#Times New Roman-35" x="50"/>
      </g>
     </g>
    </g>
    <g id="ytick_13">
     <g id="line2d_28">
      <path d="M 135 78.587663 
L 972 78.587663 
" clip-path="url(#p67dcd1e39e)" style="fill: none; stroke: #b0b0b0; stroke-width: 0.8; stroke-linecap: square"/>
     </g>
     <g id="line2d_29">
      <g>
       <use xlink:href="#m6a424fbbe2" x="972" y="78.587663" style="stroke: #000000; stroke-width: 0.8"/>
      </g>
     </g>
     <g id="text_21">
      <!-- 30 -->
      <g transform="translate(979 82.161881) scale(0.1 -0.1)">
       <use xlink:href="#Times New Roman-33"/>
       <use xlink:href="#Times New Roman-30" x="50"/>
      </g>
     </g>
    </g>
    <g id="text_22">
     <!-- buffer (s) -->
     <g transform="translate(1000.617188 243.16) rotate(-90) scale(0.1 -0.1)">
      <defs>
       <path id="Times New Roman-75" d="M 1450 325
Q 1750 325 1962 475 
Q 2175 625 2275 950 
L 2275 2525 
Q 2275 2625 2225 2687 
Q 2175 2750 2050 2750 
L 1900 2750 
L 1900 2900 
L 2050 2900 
Q 2200 2900 2325 2925 
Q 2450 2950 2575 3050 
L 2625 3050 
L 2625 600 
Q 2625 500 2687 450 
Q 2750 400 2850 400 
L 3000 400 
L 3000 250 
L 2850 250 
Q 2725 250 2600 212 
Q 2475 175 2325 100 
L 2275 100 
L 2275 625 
Q 2150 350 1900 212 
Q 1650 75 1325 75 
Q 925 75 725 300 
Q 525 525 525 1025 
L 525 2525 
Q 525 2625 475 2687 
Q 425 2750 300 2750 
L 150 2750 
L 150 2900 
L 300 2900 
Q 450 2900 575 2925 
Q 700 2950 825 3050 
L 875 3050 
L 875 975 
Q 875 625 1025 475 
Q 1175 325 1450 325 
z
" transform="scale(0.015625)"/>
       <path id="Times New Roman-66" d="M 1125 3325
Q 1125 3850 1450 4112 
Q 1775 4375 2175 4375 
Q 2600 4375 2812 4225 
Q 3025 4075 3025 3875 
Q 3025 3775 2975 3700 
Q 2925 3625 2775 3625 
Q 2675 3625 2612 3675 
Q 2550 3725 2550 3850 
Q 2550 3875 2575 3925 
Q 2575 3975 2575 4000 
Q 2575 4100 2500 4162 
Q 2425 4225 2150 4225 
Q 1850 4225 1662 4037 
Q 1475 3850 1475 3400 
L 1475 2900 
L 2525 2900 
L 2525 2750 
L 1475 2750 
L 1475 450 
Q 1475 350 1537 300 
Q 1600 250 1700 250 
L 2300 250 
L 2300 100 
L 475 100 
L 475 250 
L 900 250 
Q 1025 250 1075 300 
Q 1125 350 1125 450 
L 1125 2750 
L 350 2750 
L 350 2900 
L 1125 2900 
L 1125 3325 
z
" transform="scale(0.015625)"/>
      </defs>
      <use xlink:href="#Times New Roman-62"/>
      <use xlink:href="#Times New Roman-75" x="50"/>
      <use xlink:href="#Times New Roman-66" x="100"/>
      <use xlink:href="#Times New Roman-66" x="150"/>
      <use xlink:href="#Times New Roman-65" x="200"/>
      <use xlink:href="#Times New Roman-72" x="250"/>
      <use xlink:href="#Times New Roman-20" x="300"/>
      <use xlink:href="#Times New Roman-28" x="350"/>
      <use xlink:href="#Times New Roman-73" x="400"/>
      <use xlink:href="#Times New Roman-29" x="450"/>
     </g>
    </g>
   </g>
   <g id="line2d_30">
    <path d="M 173.045455 369.36 
L 174.313636 353.285136 
L 175.581818 351.354731 
L 176.85 340.159996 
L 178.118182 336.661035 
L 179.386364 326.732775 
L 180.654545 324.119055 
L 181.922727 327.101087 
L 182.556818 333.084536 
L 183.190909 326.464619 
L 184.459091 320.768712 
L 185.727273 318.138837 
L 188.263636 336.373494 
L 188.897727 342.382789 
L 189.531818 336.615804 
L 190.8 330.567739 
L 191.434091 324.519675 
L 192.068182 324.606906 
L 192.702273 321.560259 
L 193.336364 315.130959 
L 194.604545 308.443195 
L 197.140909 288.903294 
L 199.677273 281.963528 
L 200.945455 285.197562 
L 201.579545 285.759722 
L 202.213636 285.99234 
L 203.481818 285.397872 
L 204.75 281.808449 
L 206.018182 285.045715 
L 206.652273 285.58849 
L 207.286364 285.86957 
L 208.554545 285.184639 
L 209.822727 281.604909 
L 211.090909 284.813097 
L 212.359091 282.179992 
L 213.627273 285.859877 
L 216.163636 278.987958 
L 218.7 260.045755 
L 219.968182 246.993308 
L 221.236364 240.457392 
L 225.040909 211.06677 
L 227.577273 203.952541 
L 228.845455 201.219281 
L 231.381818 181.475839 
L 232.65 168.300621 
L 233.918182 168.752934 
L 235.186364 166.113367 
L 236.454545 156.152799 
L 238.990909 110.440157 
L 240.259091 94.893529 
L 241.527273 84.855422 
L 242.795455 81.369385 
L 244.063636 84.357878 
L 246.6 91.795188 
L 247.868182 88.338228 
L 249.136364 91.32026 
L 250.404545 88.079764 
L 251.672727 91.023026 
L 252.940909 87.536989 
L 254.209091 90.506098 
L 255.477273 87.876223 
L 256.745455 91.724111 
L 258.013636 88.241304 
L 259.281818 91.539955 
L 260.55 88.270382 
L 261.818182 92.108576 
L 263.086364 95.481535 
L 264.354545 108.20121 
L 265.622727 114.35266 
L 268.159091 133.168861 
L 270.695455 139.11354 
L 271.963636 136.532128 
L 273.231818 139.517391 
L 275.768182 132.616394 
L 277.036364 130.038212 
L 278.304545 126.89141 
L 279.572727 129.883134 
L 280.840909 126.403558 
L 282.109091 129.899288 
L 284.645455 137.226751 
L 285.913636 140.548017 
L 287.181818 143.53651 
L 289.718182 162.394712 
L 292.254545 181.265837 
L 293.522727 185.094339 
L 296.059091 191.061634 
L 297.327273 200.757276 
L 297.961364 207.868275 
L 298.595455 208.281818 
L 299.863636 207.603349 
L 301.131818 210.530457 
L 302.4 219.954711 
L 304.936364 240.360468 
L 313.813636 307.325337 
L 316.35 327.039702 
L 318.886364 345.939904 
L 320.154545 356.223552 
L 321.422727 359.215276 
L 322.690909 362.656082 
L 323.959091 363.405629 
L 325.227273 361.576994 
L 326.495455 358.349421 
L 327.763636 351.626118 
L 329.031818 352.47582 
L 330.3 354.239838 
L 331.568182 355.761547 
L 332.836364 358.730656 
L 334.104545 354.44661 
L 335.372727 356.608018 
L 336.640909 353.112288 
L 337.909091 355.997396 
L 341.713636 345.830056 
L 344.25 317.282674 
L 345.518182 306.388404 
L 346.786364 303.35791 
L 348.054545 306.860101 
L 349.322727 309.816287 
L 350.590909 313.182784 
L 351.859091 310.035982 
L 353.127273 313.008321 
L 354.395455 309.525515 
L 355.029545 309.073202 
L 355.663636 302.99606 
L 356.931818 303.416065 
L 358.2 299.952643 
L 358.834091 299.522946 
L 359.468182 286.638501 
L 360.736364 274.264522 
L 362.004545 252.236903 
L 362.638636 239.210302 
L 363.272727 219.621939 
L 364.540909 200.246809 
L 366.443182 164.47858 
L 367.077273 157.952357 
L 368.345455 151.01259 
L 368.979545 144.072824 
L 369.613636 131.146378 
L 370.247727 122.10982 
L 370.881818 109.72938 
L 372.15 109.680918 
L 373.418182 106.601962 
L 374.686364 109.803689 
L 375.954545 106.811964 
L 377.222727 109.800458 
L 379.759091 90.279941 
L 380.393182 77.25011 
L 381.027273 77.243648 
L 382.295455 83.756949 
L 383.563636 87.246217 
L 384.831818 83.566331 
L 385.465909 76.904414 
L 386.1 76.872106 
L 387.368182 77.078877 
L 388.636364 80.70707 
L 389.904545 76.991646 
L 391.172727 79.967216 
L 392.440909 76.749335 
L 393.709091 80.432452 
L 394.977273 76.998107 
L 395.611364 76.335792 
L 396.245455 75.938404 
L 397.513636 76.471486 
L 398.781818 80.325835 
L 400.05 76.865644 
L 401.318182 75.818864 
L 402.586364 76.355177 
L 403.854545 80.173987 
L 405.122727 77.566729 
L 406.390909 80.409836 
L 407.659091 77.040108 
L 408.927273 79.999524 
L 410.195455 77.350265 
L 411.463636 80.800763 
L 412.731818 77.41165 
L 414 80.409836 
L 415.268182 77.191955 
L 416.536364 80.086756 
L 417.804545 76.581334 
L 418.438636 76.122559 
L 419.072727 76.513487 
L 420.340909 77.023954 
L 421.609091 80.015678 
L 422.877273 76.545795 
L 424.145455 79.695828 
L 425.413636 77.159647 
L 426.681818 80.984919 
L 427.95 77.221033 
L 429.218182 80.109371 
L 430.486364 76.691181 
L 431.754545 80.532607 
L 435.559091 89.401163 
L 436.827273 86.829443 
L 439.363636 79.879984 
L 440.631818 82.823246 
L 441.265909 89.71132 
L 441.9 90.131324 
L 443.168182 83.737564 
L 443.802273 77.343803 
L 444.436364 77.36965 
L 445.704545 83.714948 
L 446.338636 90.060247 
L 446.972727 89.937476 
L 448.240909 83.886181 
L 449.509091 80.90738 
L 450.777273 77.443958 
L 452.045455 80.390451 
L 453.313636 83.702025 
L 453.947727 90.551329 
L 454.581818 90.137786 
L 455.85 83.262636 
L 457.118182 79.776598 
L 458.386364 83.576024 
L 460.922727 89.530395 
L 461.556818 89.094236 
L 462.190909 89.730705 
L 463.459091 90.137786 
L 464.093182 90.544867 
L 464.727273 89.882553 
L 465.995455 89.433471 
L 467.263636 92.396118 
L 467.897727 99.222806 
L 468.531818 99.629887 
L 469.8 100.036969 
L 471.068182 96.563855 
L 473.604545 102.502072 
L 474.872727 106.324113 
L 476.140909 103.290388 
L 477.409091 89.914861 
L 478.677273 89.895476 
L 479.945455 93.28782 
L 480.579545 100.1242 
L 481.213636 100.347126 
L 481.847727 97.158323 
L 482.481818 96.738318 
L 483.75 96.450777 
L 484.384091 96.163235 
L 485.018182 90.105478 
L 486.286364 90.228249 
L 487.554545 87.210678 
L 488.822727 83.737564 
L 491.359091 77.324418 
L 491.993182 77.495651 
L 492.627273 70.94035 
L 493.895455 70.756194 
L 495.163636 67.518929 
L 496.431818 70.995274 
L 497.7 68.068166 
L 498.968182 71.056659 
L 499.602273 70.588193 
L 500.236364 77.01103 
L 501.504545 83.850642 
L 502.138636 90.690254 
L 502.772727 90.603022 
L 504.040909 83.718179 
L 504.675 76.833336 
L 505.309091 76.723489 
L 506.577273 83.55987 
L 507.845455 86.519286 
L 509.113636 83.023556 
L 509.747727 76.099944 
L 510.381818 76.636257 
L 511.65 83.504946 
L 512.284091 90.373635 
L 512.918182 90.525483 
L 514.186364 83.64064 
L 514.820455 76.755797 
L 515.454545 76.410101 
L 516.722727 76.855952 
L 517.990909 77.702422 
L 519.259091 83.663255 
L 519.893182 89.624088 
L 520.527273 89.485164 
L 521.795455 89.866399 
L 522.429545 90.247633 
L 523.063636 90.331634 
L 524.331818 89.882553 
L 525.6 86.77775 
L 526.868182 89.756551 
L 528.136364 87.133139 
L 529.404545 89.737166 
L 530.672727 86.25436 
L 531.940909 89.226699 
L 533.209091 90.044093 
L 534.477273 89.59178 
L 535.745455 88.78731 
L 537.013636 89.18793 
L 539.55 96.799703 
L 540.184091 97.193861 
L 540.818182 96.673702 
L 542.086364 96.22462 
L 542.720455 95.775539 
L 543.354545 96.176158 
L 544.622727 96.58324 
L 545.890909 99.555579 
L 547.159091 96.289236 
L 547.793182 96.043695 
L 548.427273 90.121632 
L 549.695455 83.857104 
L 550.329545 77.592575 
L 550.963636 77.634576 
L 552.231818 77.16934 
L 553.5 80.161064 
L 554.768182 76.920568 
L 557.304545 82.865247 
L 558.572727 95.697999 
L 559.840909 96.118004 
L 561.109091 99.96266 
L 562.377273 97.135707 
L 563.645455 100.427896 
L 564.913636 96.938628 
L 565.547727 96.686625 
L 566.181818 90.299326 
L 567.45 89.850245 
L 568.718182 88.952081 
L 569.986364 82.926632 
L 570.620455 76.901183 
L 571.254545 77.305034 
L 572.522727 83.285251 
L 575.059091 89.217007 
L 576.327273 93.068125 
L 577.595455 96.486315 
L 578.229545 96.486315 
L 578.863636 90.057016 
L 581.4 90.018246 
L 582.668182 90.431789 
L 583.302273 90.845332 
L 583.936364 90.683792 
L 585.204545 90.218556 
L 586.472727 93.200588 
L 587.740909 96.596163 
L 588.375 97.016167 
L 589.009091 97.126015 
L 590.277273 96.680164 
L 590.911364 96.234313 
L 591.545455 89.607934 
L 592.813636 89.998862 
L 594.081818 86.486978 
L 595.35 89.452856 
L 596.618182 85.966818 
L 597.886364 89.805013 
L 599.154545 92.799968 
L 600.422727 89.859937 
L 601.690909 77.699192 
L 602.959091 84.025105 
L 603.593182 90.351019 
L 604.227273 90.483482 
L 605.495455 84.147876 
L 606.129545 77.81227 
L 606.763636 77.392265 
L 608.031818 77.221033 
L 610.568182 83.414483 
L 611.202273 89.414086 
L 611.836364 88.990851 
L 613.104545 82.936325 
L 615.640909 77.49242 
L 616.275 77.695961 
L 616.909091 77.224264 
L 618.177273 76.952876 
L 620.713636 83.133404 
L 621.347727 89.175007 
L 621.981818 88.70654 
L 623.25 89.10716 
L 625.786364 96.757703 
L 627.054545 93.782133 
L 628.322727 90.325173 
L 628.956818 89.882553 
L 629.590909 96.214928 
L 630.859091 96.596163 
L 633.395455 89.646704 
L 634.663636 92.661044 
L 635.931818 90.11517 
L 637.2 77.208109 
L 637.834091 79.657059 
L 638.468182 85.553276 
L 639.102273 89.000543 
L 639.736364 96.088927 
L 641.004545 90.047324 
L 643.540909 83.075249 
L 646.077273 102.783152 
L 647.345455 99.998199 
L 648.613636 96.486315 
L 649.247727 89.569165 
L 649.881818 89.10716 
L 651.15 83.055864 
L 651.784091 77.004569 
L 652.418182 77.376111 
L 653.686364 83.388637 
L 654.954545 86.709903 
L 656.222727 89.691935 
L 657.490909 87.081446 
L 658.759091 83.530792 
L 659.393182 76.897952 
L 660.027273 76.426255 
L 661.295455 76.581334 
L 662.563636 80.141679 
L 663.831818 77.014261 
L 665.1 80.445375 
L 666.368182 76.981953 
L 667.002273 77.046569 
L 667.636364 76.965799 
L 668.904545 83.805411 
L 669.538636 90.645022 
L 670.172727 90.586868 
L 671.440909 90.147478 
L 672.709091 93.119818 
L 673.977273 103.022231 
L 675.245455 105.978417 
L 679.05 96.94509 
L 681.586364 77.153186 
L 682.220455 70.252189 
L 682.854545 76.503794 
L 684.122727 83.35956 
L 684.756818 90.215325 
L 685.390909 89.931015 
L 686.659091 83.35956 
L 687.293182 76.788105 
L 687.927273 77.392265 
L 689.195455 83.92172 
L 690.463636 93.872595 
L 691.731818 90.286403 
L 693 77.120878 
L 694.268182 83.679409 
L 694.902273 90.237941 
L 695.536364 90.305788 
L 696.804545 83.598639 
L 697.438636 76.891491 
L 698.072727 76.658873 
L 699.340909 83.327252 
L 699.975 89.995631 
L 700.609091 90.141017 
L 701.877273 83.366021 
L 702.511364 76.591026 
L 703.145455 76.558718 
L 704.413636 83.32079 
L 705.047727 90.082862 
L 705.681818 90.121632 
L 706.95 83.243251 
L 707.584091 76.36487 
L 708.218182 76.151637 
L 709.486364 82.988017 
L 710.754545 93.245819 
L 713.290909 99.051574 
L 714.559091 95.769077 
L 715.827273 99.574964 
L 717.095455 96.958013 
L 717.729545 97.171246 
L 718.363636 90.286403 
L 719.631818 83.404791 
L 720.265909 76.523179 
L 720.9 76.92703 
L 722.168182 83.756949 
L 722.802273 90.586868 
L 723.436364 90.738716 
L 724.704545 90.431789 
L 725.338636 90.124863 
L 725.972727 90.018246 
L 727.240909 90.27348 
L 728.509091 93.733671 
L 729.777273 90.409174 
L 731.045455 77.424573 
L 732.313636 83.92495 
L 733.581818 86.551594 
L 734.85 82.842631 
L 735.484091 75.977173 
L 736.118182 76.468255 
L 737.386364 83.285251 
L 740.556818 108.921679 
L 741.190909 108.811832 
L 742.459091 102.889768 
L 743.727273 100.263125 
L 744.995455 96.428161 
L 745.629545 95.824001 
L 746.263636 95.407227 
L 747.531818 95.824001 
L 748.165909 96.240774 
L 748.8 90.128094 
L 750.068182 83.194789 
L 751.336364 79.789522 
L 751.970455 79.430902 
L 752.604545 86.396515 
L 753.872727 93.320128 
L 755.140909 96.260159 
L 756.409091 95.239225 
L 757.677273 102.104683 
L 758.945455 112.394793 
L 760.213636 115.615904 
L 760.847727 115.431749 
L 761.481818 115.03436 
L 762.75 121.712431 
L 764.018182 131.808693 
L 765.286364 134.819802 
L 765.920455 134.364259 
L 766.554545 134.383643 
L 767.822727 141.232947 
L 769.090909 154.456627 
L 770.993182 154.340318 
L 771.627273 153.891236 
L 773.529545 153.878313 
L 774.163636 147.881941 
L 775.431818 148.27933 
L 776.065909 148.676719 
L 776.7 148.854413 
L 777.968182 148.39887 
L 779.236364 145.093758 
L 781.772727 151.254901 
L 784.309091 157.063886 
L 785.577273 160.924696 
L 789.381818 169.870792 
L 790.015909 176.69748 
L 790.65 170.833571 
L 791.918182 164.749968 
L 793.186364 161.247777 
L 794.454545 173.463446 
L 795.722727 180.338596 
L 796.990909 190.641629 
L 798.259091 193.265042 
L 800.795455 199.203259 
L 802.063636 203.002684 
L 803.331818 205.9621 
L 804.6 202.963915 
L 805.868182 205.978254 
L 807.136364 203.361303 
L 808.404545 205.861946 
L 809.672727 202.359754 
L 810.306818 201.913903 
L 810.940909 195.833531 
L 812.209091 196.240612 
L 813.477273 193.601045 
L 814.745455 196.583077 
L 816.013636 193.077655 
L 817.281818 196.172765 
L 818.55 193.555814 
L 819.184091 193.972588 
L 819.818182 186.939128 
L 821.086364 186.470661 
L 822.354545 189.433308 
L 823.622727 193.268273 
L 824.890909 190.16347 
L 827.427273 183.214011 
L 828.061364 183.252781 
L 828.695455 177.185331 
L 829.329545 174.138684 
L 829.963636 167.880617 
L 832.5 167.706153 
L 833.768182 161.335008 
L 834.402273 154.963863 
L 836.304545 116.32345 
L 836.938636 90.564252 
L 837.572727 77.637806 
L 838.840909 77.518267 
L 840.109091 80.810456 
L 841.377273 77.082108 
L 842.645455 80.419528 
L 843.913636 77.269495 
L 845.181818 80.900918 
L 846.45 77.272726 
L 847.718182 76.277638 
L 848.986364 76.455332 
L 850.254545 80.099679 
L 851.522727 76.597488 
L 852.790909 79.589212 
L 854.059091 76.064405 
L 855.327273 76.917337 
L 856.595455 77.327649 
L 857.229545 77.737961 
L 857.863636 77.227494 
L 859.131818 76.804259 
L 859.765909 76.381024 
L 860.4 70.332959 
L 861.668182 70.733579 
L 862.936364 67.92278 
L 864.204545 70.89835 
L 864.838636 70.423422 
L 865.472727 76.610411 
L 866.740909 77.001338 
L 867.375 77.392265 
L 868.009091 71.082506 
L 869.277273 70.643116 
L 870.545455 67.228157 
L 873.081818 73.405453 
L 874.35 76.348716 
L 874.984091 75.92225 
L 875.618182 76.313177 
L 876.886364 76.704104 
L 878.154545 74.080691 
L 880.690909 67.467236 
L 881.959091 70.423422 
L 883.227273 74.258386 
L 884.495455 76.93026 
L 885.763636 79.892907 
L 887.031818 76.397178 
L 888.3 73.815766 
L 890.836364 66.96 
L 892.104545 69.867723 
L 893.372727 73.702687 
L 895.909091 79.585981 
L 897.177273 76.387485 
L 899.713636 84.070337 
L 900.981818 86.903752 
L 902.25 83.388637 
L 902.884091 76.484409 
L 903.518182 76.988415 
L 904.786364 83.84418 
L 905.420455 90.699946 
L 906.054545 90.544867 
L 907.322727 83.789257 
L 909.859091 77.153186 
L 911.127273 80.128756 
L 912.395455 76.810721 
L 913.029545 76.545795 
L 913.663636 77.095031 
L 915.565909 77.489189 
L 916.2 77.140263 
L 917.468182 83.15925 
L 918.736364 93.035817 
L 920.004545 96.479854 
L 921.272727 93.856441 
L 922.540909 83.892642 
L 925.077273 76.936722 
L 925.711364 76.93026 
L 926.345455 77.382573 
L 927.613636 83.391868 
L 930.15 102.230685 
L 931.418182 106.07211 
L 932.686364 103.035155 
L 933.954545 99.513579 
L 933.954545 99.513579 
" clip-path="url(#p67dcd1e39e)" style="fill: none; stroke: #1f77b4; stroke-width: 1.5; stroke-linecap: square"/>
   </g>
   <g id="patch_7">
    <path d="M 135 384.48 
L 135 51.84 
" style="fill: none; stroke: #000000; stroke-width: 0.8; stroke-linejoin: miter; stroke-linecap: square"/>
   </g>
   <g id="patch_8">
    <path d="M 972 384.48 
L 972 51.84 
" style="fill: none; stroke: #000000; stroke-width: 0.8; stroke-linejoin: miter; stroke-linecap: square"/>
   </g>
   <g id="patch_9">
    <path d="M 135 384.48 
L 972 384.48 
" style="fill: none; stroke: #000000; stroke-width: 0.8; stroke-linejoin: miter; stroke-linecap: square"/>
   </g>
   <g id="patch_10">
    <path d="M 135 51.84 
L 972 51.84 
" style="fill: none; stroke: #000000; stroke-width: 0.8; stroke-linejoin: miter; stroke-linecap: square"/>
   </g>
   <g id="text_23">
    <!-- ./tcp/tp5_wave -->
    <g transform="translate(511.5 45.84) scale(0.12 -0.12)">
     <defs>
      <path id="Times New Roman-2e" d="M 800 25
Q 650 25 537 125 
Q 425 225 425 400 
Q 425 575 537 675 
Q 650 775 800 775 
Q 950 775 1062 662 
Q 1175 550 1175 400 
Q 1175 225 1062 125 
Q 950 25 800 25 
z
" transform="scale(0.015625)"/>
      <path id="Times New Roman-2f" d="M 400 -475
L 225 -375 
L 2775 4975 
L 2950 4875 
L 400 -475 
z
" transform="scale(0.015625)"/>
      <path id="Times New Roman-63" d="M 2150 2225
Q 2150 2300 2175 2325 
Q 2175 2350 2200 2425 
Q 2225 2525 2100 2662 
Q 1975 2800 1675 2800 
Q 1300 2800 1037 2437 
Q 775 2075 775 1475 
Q 775 925 1000 587 
Q 1225 250 1750 250 
Q 2100 250 2337 475 
Q 2575 700 2675 1000 
L 2800 950 
Q 2700 575 2425 312 
Q 2150 50 1675 50 
Q 1075 50 725 425 
Q 375 800 375 1500 
Q 375 2125 750 2537 
Q 1125 2950 1725 2950 
Q 2150 2950 2387 2725 
Q 2625 2500 2625 2275 
Q 2625 2125 2562 2062 
Q 2500 2000 2375 2000 
Q 2275 2000 2212 2062 
Q 2150 2125 2150 2225 
z
" transform="scale(0.015625)"/>
      <path id="Times New Roman-5f" d="M 0 -875
L 0 -725 
L 3175 -725 
L 3175 -875 
L 0 -875 
z
" transform="scale(0.015625)"/>
      <path id="Times New Roman-77" d="M 2325 2900
L 3175 2900 
L 3175 2750 
L 3075 2750 
Q 2975 2750 2900 2675 
Q 2825 2600 2775 2425 
L 2175 75 
L 2025 75 
L 1575 1975 
L 1100 75 
L 950 75 
L 375 2375 
Q 350 2550 275 2650 
Q 200 2750 125 2750 
L 25 2750 
L 25 2900 
L 925 2900 
L 925 2750 
L 825 2750 
Q 725 2750 700 2662 
Q 675 2575 700 2425 
L 1075 800 
L 1125 800 
L 1500 2300 
Q 1475 2525 1400 2637 
Q 1325 2750 1225 2750 
L 1150 2750 
L 1150 2900 
L 2000 2900 
L 2000 2750 
L 1925 2750 
Q 1825 2750 1800 2662 
Q 1775 2575 1800 2425 
L 2175 800 
L 2200 800 
L 2625 2550 
Q 2650 2650 2600 2700 
Q 2550 2750 2450 2750 
L 2325 2750 
L 2325 2900 
z
M 1725 2750 
L 1725 2750 
z
M 625 2750 
L 625 2750 
z
M 275 2750 
L 275 2750 
z
M 2875 2750 
L 2875 2750 
z
M 2675 2750 
L 2675 2750 
z
" transform="scale(0.015625)"/>
      <path id="Times New Roman-76" d="M 1625 75
L 1475 75 
L 625 2525 
Q 600 2625 525 2687 
Q 450 2750 350 2750 
L 225 2750 
L 225 2900 
L 1300 2900 
L 1300 2750 
L 1200 2750 
Q 1050 2750 1025 2700 
Q 1000 2650 1000 2600 
Q 1000 2500 1025 2425 
L 1625 675 
L 1675 675 
L 2275 2400 
Q 2325 2525 2325 2575 
Q 2325 2600 2275 2675 
Q 2225 2750 2075 2750 
L 2025 2750 
L 2025 2900 
L 2925 2900 
L 2925 2750 
L 2875 2750 
Q 2725 2750 2637 2662 
Q 2550 2575 2475 2400 
L 1625 75 
z
M 2600 2750 
L 2600 2750 
z
M 2400 2750 
L 2400 2750 
z
M 925 2750 
L 925 2750 
z
M 550 2750 
L 550 2750 
z
" transform="scale(0.015625)"/>
     </defs>
     <use xlink:href="#Times New Roman-2e"/>
     <use xlink:href="#Times New Roman-2f" x="50"/>
     <use xlink:href="#Times New Roman-74" x="100"/>
     <use xlink:href="#Times New Roman-63" x="150"/>
     <use xlink:href="#Times New Roman-70" x="200"/>
     <use xlink:href="#Times New Roman-2f" x="250"/>
     <use xlink:href="#Times New Roman-74" x="300"/>
     <use xlink:href="#Times New Roman-70" x="350"/>
     <use xlink:href="#Times New Roman-35" x="400"/>
     <use xlink:href="#Times New Roman-5f" x="450"/>
     <use xlink:href="#Times New Roman-77" x="500"/>
     <use xlink:href="#Times New Roman-61" x="550"/>
     <use xlink:href="#Times New Roman-76" x="600"/>
     <use xlink:href="#Times New Roman-65" x="650"/>
    </g>
   </g>
   <g id="legend_1">
    <g id="patch_11">
     <path d="M 903 73.2775 
L 965 73.2775 
Q 967 73.2775 967 71.2775 
L 967 58.84 
Q 967 56.84 965 56.84 
L 903 56.84 
Q 901 56.84 901 58.84 
L 901 71.2775 
Q 901 73.2775 903 73.2775 
z
" style="fill: #ffffff; opacity: 0.8; stroke: #cccccc; stroke-linejoin: miter"/>
    </g>
    <g id="line2d_31">
     <path d="M 905 64.488437 
L 915 64.488437 
L 925 64.488437 
" style="fill: none; stroke: #1f77b4; stroke-width: 1.5; stroke-linecap: square"/>
    </g>
    <g id="text_24">
     <!-- buffer -->
     <g transform="translate(933 67.988437) scale(0.1 -0.1)">
      <use xlink:href="#Times New Roman-62"/>
      <use xlink:href="#Times New Roman-75" x="50"/>
      <use xlink:href="#Times New Roman-66" x="100"/>
      <use xlink:href="#Times New Roman-66" x="150"/>
      <use xlink:href="#Times New Roman-65" x="200"/>
      <use xlink:href="#Times New Roman-72" x="250"/>
     </g>
    </g>
   </g>
  </g>
 </g>
 <defs>
  <clipPath id="p67dcd1e39e">
   <rect x="135" y="51.84" width="837" height="332.64"/>
  </clipPath>
 </defs>
</svg>
