<?xml version="1.0" encoding="utf-8" standalone="no"?>
<!DOCTYPE svg PUBLIC "-//W3C//DTD SVG 1.1//EN"
  "http://www.w3.org/Graphics/SVG/1.1/DTD/svg11.dtd">
<svg xmlns:xlink="http://www.w3.org/1999/xlink" width="1080pt" height="432pt" viewBox="0 0 1080 432" xmlns="http://www.w3.org/2000/svg" version="1.1">
 <metadata>
  <rdf:RDF xmlns:dc="http://purl.org/dc/elements/1.1/" xmlns:cc="http://creativecommons.org/ns#" xmlns:rdf="http://www.w3.org/1999/02/22-rdf-syntax-ns#">
   <cc:Work>
    <dc:type rdf:resource="http://purl.org/dc/dcmitype/StillImage"/>
    <dc:date>2024-04-12T06:12:37.194521</dc:date>
    <dc:format>image/svg+xml</dc:format>
    <dc:creator>
     <cc:Agent>
      <dc:title>Matplotlib v3.8.3, https://matplotlib.org/</dc:title>
     </cc:Agent>
    </dc:creator>
   </cc:Work>
  </rdf:RDF>
 </metadata>
 <defs>
  <style type="text/css">*{stroke-linejoin: round; stroke-linecap: butt}</style>
 </defs>
 <g id="figure_1">
  <g id="patch_1">
   <path d="M 0 432 
L 1080 432 
L 1080 0 
L 0 0 
z
" style="fill: #ffffff"/>
  </g>
  <g id="axes_1">
   <g id="patch_2">
    <path d="M 135 384.48 
L 972 384.48 
L 972 51.84 
L 135 51.84 
z
" style="fill: #ffffff"/>
   </g>
   <g id="matplotlib.axis_1">
    <g id="xtick_1">
     <g id="line2d_1">
      <defs>
       <path id="m35be049727" d="M 0 0 
L 0 3.5 
" style="stroke: #000000; stroke-width: 0.8"/>
      </defs>
      <g>
       <use xlink:href="#m35be049727" x="173.045455" y="384.48" style="stroke: #000000; stroke-width: 0.8"/>
      </g>
     </g>
     <g id="text_1">
      <!-- 0 -->
      <g transform="translate(170.545455 398.628438) scale(0.1 -0.1)">
       <defs>
        <path id="Times New Roman-30" d="M 1600 4225
Q 1250 4225 1012 3687 
Q 775 3150 775 2250 
Q 775 1300 1012 775 
Q 1250 250 1600 250 
Q 1975 250 2187 775 
Q 2400 1300 2400 2250 
Q 2400 3150 2200 3687 
Q 2000 4225 1600 4225 
z
M 1600 50 
Q 1050 50 675 625 
Q 300 1200 300 2250 
Q 300 3225 662 3825 
Q 1025 4425 1600 4425 
Q 2150 4425 2512 3850 
Q 2875 3275 2875 2250 
Q 2875 1225 2512 637 
Q 2150 50 1600 50 
z
" transform="scale(0.015625)"/>
       </defs>
       <use xlink:href="#Times New Roman-30"/>
      </g>
     </g>
    </g>
    <g id="xtick_2">
     <g id="line2d_2">
      <g>
       <use xlink:href="#m35be049727" x="299.863636" y="384.48" style="stroke: #000000; stroke-width: 0.8"/>
      </g>
     </g>
     <g id="text_2">
      <!-- 100 -->
      <g transform="translate(292.363636 398.628438) scale(0.1 -0.1)">
       <defs>
        <path id="Times New Roman-31" d="M 1825 4450
L 1825 650 
Q 1825 450 1950 350 
Q 2075 250 2300 250 
L 2550 250 
L 2550 100 
L 725 100 
L 725 250 
L 950 250 
Q 1200 250 1312 350 
Q 1425 450 1425 650 
L 1425 3675 
Q 1425 3775 1362 3837 
Q 1300 3900 1175 3900 
L 725 3900 
L 725 4050 
L 950 4050 
Q 1250 4050 1437 4150 
Q 1625 4250 1725 4450 
L 1825 4450 
z
" transform="scale(0.015625)"/>
       </defs>
       <use xlink:href="#Times New Roman-31"/>
       <use xlink:href="#Times New Roman-30" x="50"/>
       <use xlink:href="#Times New Roman-30" x="100"/>
      </g>
     </g>
    </g>
    <g id="xtick_3">
     <g id="line2d_3">
      <g>
       <use xlink:href="#m35be049727" x="426.681818" y="384.48" style="stroke: #000000; stroke-width: 0.8"/>
      </g>
     </g>
     <g id="text_3">
      <!-- 200 -->
      <g transform="translate(419.181818 398.628438) scale(0.1 -0.1)">
       <defs>
        <path id="Times New Roman-32" d="M 2325 3325
Q 2325 3775 2125 4012 
Q 1925 4250 1525 4250 
Q 1225 4250 1012 4087 
Q 800 3925 800 3675 
Q 800 3525 900 3425 
Q 975 3325 975 3225 
Q 975 3100 912 3037 
Q 850 2975 725 2975 
Q 575 2975 487 3062 
Q 400 3150 400 3350 
Q 400 3875 775 4150 
Q 1150 4425 1575 4425 
Q 2175 4425 2462 4125 
Q 2750 3825 2750 3375 
Q 2750 3075 2612 2775 
Q 2475 2475 2175 2200 
Q 1450 1500 1062 1062 
Q 675 625 600 475 
L 2075 475 
Q 2300 475 2450 650 
Q 2600 825 2650 1175 
L 2800 1175 
L 2650 100 
L 325 100 
L 325 425 
Q 450 650 737 1000 
Q 1025 1350 1500 1825 
Q 1925 2250 2125 2625 
Q 2325 3000 2325 3325 
z
" transform="scale(0.015625)"/>
       </defs>
       <use xlink:href="#Times New Roman-32"/>
       <use xlink:href="#Times New Roman-30" x="50"/>
       <use xlink:href="#Times New Roman-30" x="100"/>
      </g>
     </g>
    </g>
    <g id="xtick_4">
     <g id="line2d_4">
      <g>
       <use xlink:href="#m35be049727" x="553.5" y="384.48" style="stroke: #000000; stroke-width: 0.8"/>
      </g>
     </g>
     <g id="text_4">
      <!-- 300 -->
      <g transform="translate(546 398.628438) scale(0.1 -0.1)">
       <defs>
        <path id="Times New Roman-33" d="M 2800 1250
Q 2800 775 2450 412 
Q 2100 50 1475 50 
Q 1025 50 700 300 
Q 375 550 375 875 
Q 375 1025 475 1137 
Q 575 1250 675 1250 
Q 825 1250 887 1137 
Q 950 1025 950 950 
Q 950 825 900 750 
Q 850 650 850 575 
Q 850 425 1037 325 
Q 1225 225 1450 225 
Q 1900 225 2125 487 
Q 2350 750 2350 1300 
Q 2350 1750 2112 2025 
Q 1875 2300 1225 2300 
L 1225 2475 
Q 1725 2475 1962 2712 
Q 2200 2950 2200 3375 
Q 2200 3725 2012 3987 
Q 1825 4250 1425 4250 
Q 1250 4250 1050 4162 
Q 850 4075 850 3875 
Q 850 3675 900 3625 
Q 950 3575 950 3500 
Q 950 3375 900 3300 
Q 850 3225 725 3225 
Q 625 3225 537 3300 
Q 450 3375 450 3575 
Q 450 3950 775 4187 
Q 1100 4425 1525 4425 
Q 2025 4425 2325 4112 
Q 2625 3800 2625 3450 
Q 2625 3075 2437 2812 
Q 2250 2550 1850 2425 
Q 2400 2225 2600 1900 
Q 2800 1575 2800 1250 
z
" transform="scale(0.015625)"/>
       </defs>
       <use xlink:href="#Times New Roman-33"/>
       <use xlink:href="#Times New Roman-30" x="50"/>
       <use xlink:href="#Times New Roman-30" x="100"/>
      </g>
     </g>
    </g>
    <g id="xtick_5">
     <g id="line2d_5">
      <g>
       <use xlink:href="#m35be049727" x="680.318182" y="384.48" style="stroke: #000000; stroke-width: 0.8"/>
      </g>
     </g>
     <g id="text_5">
      <!-- 400 -->
      <g transform="translate(672.818182 398.628438) scale(0.1 -0.1)">
       <defs>
        <path id="Times New Roman-34" d="M 2300 575
Q 2300 400 2400 325 
Q 2500 250 2675 250 
L 2900 250 
L 2900 100 
L 1250 100 
L 1250 250 
L 1525 250 
Q 1725 250 1812 325 
Q 1900 400 1900 575 
L 1900 1400 
L 225 1400 
L 225 1525 
L 2050 4425 
L 2300 4425 
L 2300 1550 
L 2975 1550 
L 2975 1400 
L 2300 1400 
L 2300 575 
z
M 1875 3800 
L 450 1550 
L 1900 1550 
L 1900 3800 
L 1875 3800 
z
" transform="scale(0.015625)"/>
       </defs>
       <use xlink:href="#Times New Roman-34"/>
       <use xlink:href="#Times New Roman-30" x="50"/>
       <use xlink:href="#Times New Roman-30" x="100"/>
      </g>
     </g>
    </g>
    <g id="xtick_6">
     <g id="line2d_6">
      <g>
       <use xlink:href="#m35be049727" x="807.136364" y="384.48" style="stroke: #000000; stroke-width: 0.8"/>
      </g>
     </g>
     <g id="text_6">
      <!-- 500 -->
      <g transform="translate(799.636364 398.628438) scale(0.1 -0.1)">
       <defs>
        <path id="Times New Roman-35" d="M 1725 2850
Q 2200 2850 2500 2487 
Q 2800 2125 2800 1525 
Q 2800 850 2487 450 
Q 2175 50 1525 50 
Q 1075 50 725 312 
Q 375 575 375 950 
Q 375 1100 462 1212 
Q 550 1325 700 1325 
Q 850 1325 900 1225 
Q 950 1125 950 1050 
Q 950 900 875 825 
Q 800 725 800 625 
Q 800 425 1037 325 
Q 1275 225 1550 225 
Q 1950 225 2162 550 
Q 2375 875 2375 1475 
Q 2375 1975 2187 2287 
Q 2000 2600 1625 2600 
Q 1350 2600 1150 2500 
Q 950 2400 775 2075 
L 550 2100 
L 675 4375 
L 2725 4375 
L 2650 4000 
L 850 4000 
L 750 2350 
Q 1000 2700 1237 2775 
Q 1475 2850 1725 2850 
z
" transform="scale(0.015625)"/>
       </defs>
       <use xlink:href="#Times New Roman-35"/>
       <use xlink:href="#Times New Roman-30" x="50"/>
       <use xlink:href="#Times New Roman-30" x="100"/>
      </g>
     </g>
    </g>
    <g id="xtick_7">
     <g id="line2d_7">
      <g>
       <use xlink:href="#m35be049727" x="933.954545" y="384.48" style="stroke: #000000; stroke-width: 0.8"/>
      </g>
     </g>
     <g id="text_7">
      <!-- 600 -->
      <g transform="translate(926.454545 398.628438) scale(0.1 -0.1)">
       <defs>
        <path id="Times New Roman-36" d="M 775 1800
Q 775 1050 1037 637 
Q 1300 225 1675 225 
Q 2050 225 2250 500 
Q 2450 775 2450 1525 
Q 2450 2025 2237 2300 
Q 2025 2575 1725 2575 
Q 1450 2575 1212 2412 
Q 975 2250 775 1800 
z
M 1750 2825 
Q 2350 2825 2612 2425 
Q 2875 2025 2875 1525 
Q 2875 775 2512 412 
Q 2150 50 1675 50 
Q 1000 50 650 562 
Q 300 1075 300 2050 
Q 300 3200 725 3812 
Q 1150 4425 1875 4425 
Q 2225 4425 2437 4225 
Q 2650 4025 2650 3875 
Q 2650 3725 2587 3650 
Q 2525 3575 2375 3575 
Q 2250 3575 2187 3637 
Q 2125 3700 2125 3825 
Q 2125 3875 2150 3925 
Q 2150 3975 2150 4025 
Q 2150 4125 2075 4187 
Q 2000 4250 1800 4250 
Q 1375 4250 1075 3862 
Q 775 3475 775 2175 
Q 925 2500 1187 2662 
Q 1450 2825 1750 2825 
z
" transform="scale(0.015625)"/>
       </defs>
       <use xlink:href="#Times New Roman-36"/>
       <use xlink:href="#Times New Roman-30" x="50"/>
       <use xlink:href="#Times New Roman-30" x="100"/>
      </g>
     </g>
    </g>
   </g>
   <g id="matplotlib.axis_2">
    <g id="ytick_1">
     <g id="line2d_8">
      <defs>
       <path id="med265b413d" d="M 0 0 
L -3.5 0 
" style="stroke: #000000; stroke-width: 0.8"/>
      </defs>
      <g>
       <use xlink:href="#med265b413d" x="135" y="378.284777" style="stroke: #000000; stroke-width: 0.8"/>
      </g>
     </g>
     <g id="text_8">
      <!-- 0 -->
      <g transform="translate(123 381.858996) scale(0.1 -0.1)">
       <use xlink:href="#Times New Roman-30"/>
      </g>
     </g>
    </g>
    <g id="ytick_2">
     <g id="line2d_9">
      <g>
       <use xlink:href="#med265b413d" x="135" y="315.434235" style="stroke: #000000; stroke-width: 0.8"/>
      </g>
     </g>
     <g id="text_9">
      <!-- 1000 -->
      <g transform="translate(108 319.008454) scale(0.1 -0.1)">
       <use xlink:href="#Times New Roman-31"/>
       <use xlink:href="#Times New Roman-30" x="50"/>
       <use xlink:href="#Times New Roman-30" x="100"/>
       <use xlink:href="#Times New Roman-30" x="150"/>
      </g>
     </g>
    </g>
    <g id="ytick_3">
     <g id="line2d_10">
      <g>
       <use xlink:href="#med265b413d" x="135" y="252.583694" style="stroke: #000000; stroke-width: 0.8"/>
      </g>
     </g>
     <g id="text_10">
      <!-- 2000 -->
      <g transform="translate(108 256.157913) scale(0.1 -0.1)">
       <use xlink:href="#Times New Roman-32"/>
       <use xlink:href="#Times New Roman-30" x="50"/>
       <use xlink:href="#Times New Roman-30" x="100"/>
       <use xlink:href="#Times New Roman-30" x="150"/>
      </g>
     </g>
    </g>
    <g id="ytick_4">
     <g id="line2d_11">
      <g>
       <use xlink:href="#med265b413d" x="135" y="189.733153" style="stroke: #000000; stroke-width: 0.8"/>
      </g>
     </g>
     <g id="text_11">
      <!-- 3000 -->
      <g transform="translate(108 193.307371) scale(0.1 -0.1)">
       <use xlink:href="#Times New Roman-33"/>
       <use xlink:href="#Times New Roman-30" x="50"/>
       <use xlink:href="#Times New Roman-30" x="100"/>
       <use xlink:href="#Times New Roman-30" x="150"/>
      </g>
     </g>
    </g>
    <g id="ytick_5">
     <g id="line2d_12">
      <g>
       <use xlink:href="#med265b413d" x="135" y="126.882611" style="stroke: #000000; stroke-width: 0.8"/>
      </g>
     </g>
     <g id="text_12">
      <!-- 4000 -->
      <g transform="translate(108 130.45683) scale(0.1 -0.1)">
       <use xlink:href="#Times New Roman-34"/>
       <use xlink:href="#Times New Roman-30" x="50"/>
       <use xlink:href="#Times New Roman-30" x="100"/>
       <use xlink:href="#Times New Roman-30" x="150"/>
      </g>
     </g>
    </g>
    <g id="ytick_6">
     <g id="line2d_13">
      <g>
       <use xlink:href="#med265b413d" x="135" y="64.03207" style="stroke: #000000; stroke-width: 0.8"/>
      </g>
     </g>
     <g id="text_13">
      <!-- 5000 -->
      <g transform="translate(108 67.606289) scale(0.1 -0.1)">
       <use xlink:href="#Times New Roman-35"/>
       <use xlink:href="#Times New Roman-30" x="50"/>
       <use xlink:href="#Times New Roman-30" x="100"/>
       <use xlink:href="#Times New Roman-30" x="150"/>
      </g>
     </g>
    </g>
    <g id="text_14">
     <!-- Bitrate (kbps) -->
     <g transform="translate(102.710938 253.16) rotate(-90) scale(0.1 -0.1)">
      <defs>
       <path id="Times New Roman-42" d="M 100 100
L 100 250 
L 300 250 
Q 425 250 475 300 
Q 525 350 525 450 
L 525 4025 
Q 525 4125 475 4175 
Q 425 4225 300 4225 
L 150 4225 
L 150 4375 
L 1600 4375 
Q 2200 4375 2487 4137 
Q 2775 3900 2775 3400 
Q 2775 3050 2625 2825 
Q 2475 2600 2000 2425 
Q 2575 2250 2775 1925 
Q 2975 1600 2975 1200 
Q 2975 700 2625 400 
Q 2275 100 1675 100 
L 100 100 
z
M 1600 250 
Q 2025 250 2262 512 
Q 2500 775 2500 1250 
Q 2500 1800 2250 2062 
Q 2000 2325 1500 2325 
L 925 2325 
L 925 450 
Q 925 350 987 300 
Q 1050 250 1150 250 
L 1600 250 
z
M 2350 3400 
Q 2350 3850 2100 4037 
Q 1850 4225 1450 4225 
L 1150 4225 
Q 1050 4225 987 4175 
Q 925 4125 925 4025 
L 925 2475 
L 1575 2475 
Q 1850 2475 2100 2700 
Q 2350 2925 2350 3400 
z
" transform="scale(0.015625)"/>
       <path id="Times New Roman-69" d="M 1425 2525
Q 1425 2625 1375 2687 
Q 1325 2750 1200 2750 
L 675 2750 
L 675 2900 
L 925 2900 
Q 1150 2900 1350 2937 
Q 1550 2975 1725 3075 
L 1775 3075 
L 1775 450 
Q 1775 350 1837 300 
Q 1900 250 2000 250 
L 2525 250 
L 2525 100 
L 675 100 
L 675 250 
L 1200 250 
Q 1325 250 1375 300 
Q 1425 350 1425 450 
L 1425 2525 
z
M 1725 3025 
L 1725 3025 
z
M 1625 4425 
Q 1750 4425 1850 4337 
Q 1950 4250 1950 4125 
Q 1950 4000 1850 3900 
Q 1750 3800 1625 3800 
Q 1500 3800 1400 3900 
Q 1300 4000 1300 4125 
Q 1300 4250 1400 4337 
Q 1500 4425 1625 4425 
z
" transform="scale(0.015625)"/>
       <path id="Times New Roman-74" d="M 1500 900
Q 1500 550 1625 425 
Q 1750 300 2000 300 
Q 2250 300 2400 462 
Q 2550 625 2600 925 
L 2725 875 
Q 2675 525 2462 300 
Q 2250 75 1900 75 
Q 1525 75 1337 300 
Q 1150 525 1150 1000 
L 1150 2750 
L 400 2750 
L 400 2900 
L 600 2900 
Q 900 2900 1087 3087 
Q 1275 3275 1325 3675 
L 1350 3875 
L 1500 3875 
L 1500 2900 
L 2500 2900 
L 2500 2750 
L 1500 2750 
L 1500 900 
z
" transform="scale(0.015625)"/>
       <path id="Times New Roman-72" d="M 1275 2125
Q 1525 2525 1812 2737 
Q 2100 2950 2400 2950 
Q 2650 2950 2787 2837 
Q 2925 2725 2925 2575 
Q 2925 2450 2862 2375 
Q 2800 2300 2675 2300 
Q 2550 2300 2487 2375 
Q 2425 2450 2450 2575 
Q 2450 2650 2425 2700 
Q 2400 2750 2275 2750 
Q 2075 2750 1787 2500 
Q 1500 2250 1275 1800 
L 1275 450 
Q 1275 350 1337 300 
Q 1400 250 1500 250 
L 2050 250 
L 2050 100 
L 200 100 
L 200 250 
L 700 250 
Q 825 250 875 300 
Q 925 350 925 450 
L 925 2525 
Q 925 2625 875 2687 
Q 825 2750 700 2750 
L 225 2750 
L 225 2900 
L 425 2900 
Q 600 2900 837 2937 
Q 1075 2975 1200 3025 
L 1275 3025 
L 1275 2125 
z
" transform="scale(0.015625)"/>
       <path id="Times New Roman-61" d="M 1225 75
Q 775 75 525 287 
Q 275 500 275 775 
Q 275 1225 662 1512 
Q 1050 1800 2200 1925 
L 2200 2225 
Q 2200 2475 2087 2637 
Q 1975 2800 1575 2800 
Q 1150 2800 975 2662 
Q 800 2525 850 2375 
Q 875 2325 875 2275 
Q 875 2225 837 2150 
Q 800 2075 650 2075 
Q 550 2075 487 2137 
Q 425 2200 425 2325 
Q 425 2550 750 2750 
Q 1075 2950 1550 2950 
Q 2050 2950 2300 2762 
Q 2550 2575 2550 2225 
L 2550 575 
Q 2550 375 2587 337 
Q 2625 300 2725 300 
Q 2850 300 2900 412 
Q 2950 525 2950 725 
L 3075 725 
Q 3075 375 2950 237 
Q 2825 100 2625 100 
Q 2450 100 2350 175 
Q 2250 250 2200 425 
Q 1950 250 1737 162 
Q 1525 75 1225 75 
z
M 700 850 
Q 700 625 837 437 
Q 975 250 1275 250 
Q 1500 250 1725 337 
Q 1950 425 2200 600 
L 2200 1775 
Q 1350 1675 1025 1437 
Q 700 1200 700 850 
z
" transform="scale(0.015625)"/>
       <path id="Times New Roman-65" d="M 2400 1650
Q 2425 2200 2212 2487 
Q 2000 2775 1650 2775 
Q 1275 2775 1037 2475 
Q 800 2175 800 1650 
L 2400 1650 
z
M 800 1500 
Q 800 825 1062 537 
Q 1325 250 1750 250 
Q 2075 250 2300 437 
Q 2525 625 2625 900 
L 2750 850 
Q 2675 575 2412 312 
Q 2150 50 1700 50 
Q 1125 50 762 425 
Q 400 800 400 1500 
Q 400 2125 762 2537 
Q 1125 2950 1650 2950 
Q 2125 2950 2475 2625 
Q 2825 2300 2825 1500 
L 800 1500 
z
" transform="scale(0.015625)"/>
       <path id="Times New Roman-20" d="M 0 0
Q 0 0 0 0 
z
" transform="scale(0.015625)"/>
       <path id="Times New Roman-28" d="M 2900 5025
Q 2325 4425 2037 3737 
Q 1750 3050 1750 2300 
Q 1750 1525 2037 850 
Q 2325 175 2900 -425 
L 2775 -550 
Q 2075 75 1725 787 
Q 1375 1500 1375 2300 
Q 1375 3075 1725 3787 
Q 2075 4500 2775 5150 
L 2900 5025 
z
" transform="scale(0.015625)"/>
       <path id="Times New Roman-6b" d="M 1675 1900
L 2625 425 
Q 2700 325 2762 287 
Q 2825 250 2900 250 
L 3000 250 
L 3000 100 
L 1975 100 
L 1975 250 
L 2050 250 
Q 2175 250 2225 287 
Q 2275 325 2200 425 
L 1425 1650 
L 925 1125 
L 925 450 
Q 925 350 987 300 
Q 1050 250 1150 250 
L 1275 250 
L 1275 100 
L 225 100 
L 225 250 
L 350 250 
Q 475 250 525 300 
Q 575 350 575 450 
L 575 4025 
Q 575 4125 525 4175 
Q 475 4225 350 4225 
L 200 4225 
L 200 4375 
L 425 4375 
Q 575 4375 687 4425 
Q 800 4475 875 4575 
L 925 4575 
L 925 1400 
L 1975 2525 
Q 2025 2625 2012 2687 
Q 2000 2750 1900 2750 
L 1750 2750 
L 1750 2900 
L 2800 2900 
L 2800 2750 
L 2675 2750 
Q 2600 2750 2487 2712 
Q 2375 2675 2275 2575 
L 1675 1900 
z
M 2450 2750 
L 2450 2750 
z
M 2175 2750 
L 2175 2750 
z
M 2300 250 
L 2300 250 
z
M 2750 250 
L 2750 250 
z
" transform="scale(0.015625)"/>
       <path id="Times New Roman-62" d="M 875 2325
Q 1000 2600 1275 2762 
Q 1550 2925 1800 2925 
Q 2325 2925 2587 2562 
Q 2850 2200 2850 1500 
Q 2850 800 2512 437 
Q 2175 75 1675 75 
Q 1425 75 1212 162 
Q 1000 250 850 400 
L 625 100 
L 525 100 
L 525 4025 
Q 525 4125 475 4175 
Q 425 4225 300 4225 
L 150 4225 
L 150 4375 
L 375 4375 
Q 500 4375 625 4425 
Q 750 4475 875 4575 
L 875 2325 
z
M 875 925 
Q 875 650 1062 450 
Q 1250 250 1625 250 
Q 2075 250 2262 562 
Q 2450 875 2450 1500 
Q 2450 2100 2287 2412 
Q 2125 2725 1775 2725 
Q 1475 2725 1250 2550 
Q 1025 2375 875 1925 
L 875 925 
z
" transform="scale(0.015625)"/>
       <path id="Times New Roman-70" d="M 1150 -675
L 1325 -675 
L 1325 -825 
L 175 -825 
L 175 -675 
L 325 -675 
Q 450 -675 500 -625 
Q 550 -575 550 -450 
L 550 2500 
Q 550 2600 500 2662 
Q 450 2725 325 2725 
L 175 2725 
L 175 2875 
L 400 2875 
Q 525 2875 637 2900 
Q 750 2925 850 3000 
L 900 3000 
L 900 2425 
Q 1075 2675 1287 2800 
Q 1500 2925 1750 2925 
Q 2250 2925 2575 2587 
Q 2900 2250 2900 1525 
Q 2900 825 2550 450 
Q 2200 75 1725 75 
Q 1450 75 1262 162 
Q 1075 250 900 425 
L 900 -450 
Q 900 -575 975 -625 
Q 1050 -675 1150 -675 
z
M 900 750 
Q 1025 500 1212 375 
Q 1400 250 1650 250 
Q 2000 250 2250 562 
Q 2500 875 2500 1525 
Q 2500 2125 2312 2425 
Q 2125 2725 1750 2725 
Q 1525 2725 1300 2587 
Q 1075 2450 900 2150 
L 900 750 
z
" transform="scale(0.015625)"/>
       <path id="Times New Roman-73" d="M 625 2175
Q 625 2550 912 2750 
Q 1200 2950 1600 2950 
Q 1825 2950 2025 2900 
Q 2225 2825 2300 2825 
Q 2375 2825 2425 2850 
Q 2475 2875 2550 2950 
L 2650 2125 
L 2500 2100 
Q 2400 2425 2162 2612 
Q 1925 2800 1625 2800 
Q 1300 2800 1112 2675 
Q 925 2550 925 2325 
Q 925 2125 1012 2012 
Q 1100 1900 1325 1850 
Q 1500 1775 1775 1700 
Q 2025 1600 2250 1500 
Q 2450 1400 2587 1237 
Q 2725 1075 2725 875 
Q 2725 500 2462 287 
Q 2200 75 1700 75 
Q 1375 75 1225 150 
Q 1050 200 950 200 
Q 875 200 787 162 
Q 700 125 600 75 
L 525 1000 
L 675 1025 
Q 750 625 1000 425 
Q 1250 225 1700 225 
Q 2050 225 2237 350 
Q 2425 475 2425 725 
Q 2425 900 2325 1012 
Q 2225 1125 2125 1175 
Q 1875 1275 1575 1400 
Q 1275 1500 1050 1600 
Q 825 1700 725 1850 
Q 625 2000 625 2175 
z
" transform="scale(0.015625)"/>
       <path id="Times New Roman-29" d="M 275 5025
L 400 5150 
Q 1100 4500 1450 3787 
Q 1800 3075 1800 2300 
Q 1800 1500 1450 787 
Q 1100 75 400 -550 
L 275 -425 
Q 850 175 1137 850 
Q 1425 1525 1425 2300 
Q 1425 3050 1137 3737 
Q 850 4425 275 5025 
z
" transform="scale(0.015625)"/>
      </defs>
      <use xlink:href="#Times New Roman-42"/>
      <use xlink:href="#Times New Roman-69" x="50"/>
      <use xlink:href="#Times New Roman-74" x="100"/>
      <use xlink:href="#Times New Roman-72" x="150"/>
      <use xlink:href="#Times New Roman-61" x="200"/>
      <use xlink:href="#Times New Roman-74" x="250"/>
      <use xlink:href="#Times New Roman-65" x="300"/>
      <use xlink:href="#Times New Roman-20" x="350"/>
      <use xlink:href="#Times New Roman-28" x="400"/>
      <use xlink:href="#Times New Roman-6b" x="450"/>
      <use xlink:href="#Times New Roman-62" x="500"/>
      <use xlink:href="#Times New Roman-70" x="550"/>
      <use xlink:href="#Times New Roman-73" x="600"/>
      <use xlink:href="#Times New Roman-29" x="650"/>
     </g>
    </g>
   </g>
   <g id="line2d_14">
    <path d="M 173.045455 369.36 
L 179.386364 369.36 
L 180.654545 337.620477 
L 184.459091 337.620477 
L 185.727273 369.36 
L 198.409091 369.36 
L 199.677273 337.620477 
L 212.359091 337.620477 
L 213.627273 258.617346 
L 217.431818 258.617346 
L 218.7 134.047573 
L 219.968182 134.047573 
L 221.236364 258.617346 
L 222.504545 258.617346 
L 223.772727 134.047573 
L 225.040909 134.047573 
L 226.309091 258.617346 
L 227.577273 258.617346 
L 228.845455 134.047573 
L 239.625 134.047573 
L 240.259091 258.617346 
L 242.795455 258.617346 
L 244.063636 134.047573 
L 252.306818 134.047573 
L 252.940909 258.617346 
L 255.477273 258.617346 
L 256.745455 134.047573 
L 268.159091 134.047573 
L 269.427273 258.617346 
L 293.522727 258.617346 
L 294.790909 309.589135 
L 316.984091 309.589135 
L 317.618182 337.620477 
L 318.252273 337.620477 
L 318.886364 369.36 
L 344.25 369.36 
L 345.518182 309.589135 
L 349.956818 309.589135 
L 350.590909 337.620477 
L 364.540909 337.620477 
L 365.809091 258.617346 
L 383.563636 258.617346 
L 384.831818 134.047573 
L 431.120455 134.047573 
L 431.754545 258.617346 
L 434.290909 258.617346 
L 435.559091 134.047573 
L 438.095455 134.047573 
L 439.363636 258.617346 
L 441.9 258.617346 
L 443.168182 134.047573 
L 448.240909 134.047573 
L 449.509091 258.617346 
L 452.045455 258.617346 
L 453.313636 134.047573 
L 455.85 134.047573 
L 457.118182 309.589135 
L 457.752273 309.589135 
L 458.386364 337.620477 
L 464.727273 337.620477 
L 465.995455 309.589135 
L 467.263636 337.620477 
L 468.531818 337.620477 
L 469.8 369.36 
L 472.336364 369.36 
L 473.604545 337.620477 
L 474.872727 369.36 
L 477.409091 369.36 
L 478.677273 337.620477 
L 479.311364 337.620477 
L 479.945455 369.36 
L 500.236364 369.36 
L 501.504545 337.620477 
L 515.454545 337.620477 
L 516.722727 258.617346 
L 517.990909 258.617346 
L 519.259091 134.047573 
L 519.893182 134.047573 
L 520.527273 258.617346 
L 523.063636 258.617346 
L 524.331818 134.047573 
L 529.404545 134.047573 
L 530.672727 258.617346 
L 533.209091 258.617346 
L 534.477273 134.047573 
L 537.013636 134.047573 
L 538.281818 258.617346 
L 550.963636 258.617346 
L 552.231818 134.047573 
L 555.402273 134.047573 
L 556.036364 258.617346 
L 558.572727 258.617346 
L 559.840909 134.047573 
L 560.475 134.047573 
L 561.109091 258.617346 
L 563.645455 258.617346 
L 564.913636 134.047573 
L 573.790909 134.047573 
L 575.059091 258.617346 
L 578.863636 258.617346 
L 580.131818 134.047573 
L 581.4 258.617346 
L 583.936364 258.617346 
L 585.204545 134.047573 
L 587.106818 134.047573 
L 587.740909 258.617346 
L 591.545455 258.617346 
L 592.813636 134.047573 
L 600.422727 134.047573 
L 601.690909 258.617346 
L 608.031818 258.617346 
L 609.3 309.589135 
L 613.104545 309.589135 
L 614.372727 337.620477 
L 627.688636 337.620477 
L 628.322727 369.36 
L 629.590909 369.36 
L 630.859091 309.589135 
L 632.127273 369.36 
L 647.345455 369.36 
L 648.613636 309.589135 
L 650.515909 309.589135 
L 651.15 337.620477 
L 653.686364 337.620477 
L 654.954545 309.589135 
L 656.222727 309.589135 
L 657.490909 337.620477 
L 659.393182 337.620477 
L 660.027273 309.589135 
L 675.245455 309.589135 
L 676.513636 134.047573 
L 687.293182 134.047573 
L 687.927273 258.617346 
L 690.463636 258.617346 
L 691.731818 134.047573 
L 692.365909 134.047573 
L 693 258.617346 
L 695.536364 258.617346 
L 696.804545 134.047573 
L 698.072727 258.617346 
L 700.609091 258.617346 
L 701.877273 134.047573 
L 722.802273 134.047573 
L 723.436364 258.617346 
L 725.972727 258.617346 
L 727.240909 134.047573 
L 732.947727 134.047573 
L 733.581818 258.617346 
L 738.654545 258.617346 
L 739.922727 134.047573 
L 741.825 134.047573 
L 742.459091 258.617346 
L 752.604545 258.617346 
L 753.872727 309.589135 
L 765.920455 309.589135 
L 766.554545 337.620477 
L 772.895455 337.620477 
L 774.163636 369.36 
L 791.918182 369.36 
L 793.186364 337.620477 
L 795.722727 337.620477 
L 796.990909 369.36 
L 812.209091 369.36 
L 813.477273 258.617346 
L 814.745455 258.617346 
L 816.013636 134.047573 
L 817.281818 134.047573 
L 818.55 258.617346 
L 819.818182 309.589135 
L 822.354545 309.589135 
L 823.622727 258.617346 
L 827.427273 258.617346 
L 828.695455 134.047573 
L 904.786364 134.047573 
L 906.054545 309.589135 
L 908.590909 309.589135 
L 909.859091 258.617346 
L 911.127273 258.617346 
L 912.395455 134.047573 
L 913.663636 337.620477 
L 916.2 337.620477 
L 917.468182 309.589135 
L 920.004545 309.589135 
L 921.272727 337.620477 
L 931.418182 337.620477 
L 932.686364 309.589135 
L 933.954545 369.36 
L 933.954545 369.36 
" clip-path="url(#p88cf820159)" style="fill: none; stroke: #ff0000; stroke-width: 1.5; stroke-linecap: square"/>
   </g>
   <g id="line2d_15">
    <path d="M 173.045455 351.78548 
L 173.679545 351.78548 
L 175.581818 350.99651 
L 178.118182 348.414747 
L 179.386364 345.719783 
L 180.654545 344.116474 
L 181.922727 342.074351 
L 183.190909 337.922059 
L 184.459091 335.821342 
L 185.727273 333.355757 
L 186.995455 327.396789 
L 188.263636 323.556838 
L 189.531818 315.63938 
L 192.068182 308.454742 
L 193.336364 304.397915 
L 194.604545 299.774328 
L 195.872727 294.174696 
L 198.409091 281.232848 
L 202.213636 260.316054 
L 203.481818 256.435712 
L 204.75 257.109838 
L 206.018182 262.883574 
L 207.286364 270.392956 
L 208.554545 273.146548 
L 209.822727 267.547687 
L 211.090909 252.09108 
L 211.725 231.922894 
L 212.359091 216.13038 
L 213.627273 205.760611 
L 214.895455 201.034417 
L 216.797727 195.755743 
L 217.431818 192.818662 
L 218.7 188.027774 
L 219.968182 185.018189 
L 221.236364 187.844251 
L 222.504545 203.994024 
L 223.772727 211.699266 
L 225.040909 214.74197 
L 226.309091 214.940812 
L 226.943182 212.694819 
L 228.845455 207.728855 
L 230.113636 214.106827 
L 231.381818 212.396421 
L 232.65 211.899047 
L 233.918182 191.220884 
L 235.186364 175.39314 
L 236.454545 157.317056 
L 237.722727 156.014256 
L 238.990909 149.236655 
L 239.625 144.542507 
L 240.259091 142.346459 
L 241.527273 136.475347 
L 242.161364 123.94905 
L 242.795455 103.00373 
L 244.063636 95.421407 
L 246.6 93.510616 
L 247.868182 97.464234 
L 249.136364 107.821333 
L 249.770455 124.152116 
L 250.404545 146.168778 
L 252.306818 167.461066 
L 252.940909 179.158239 
L 254.209091 175.031053 
L 254.843182 160.546769 
L 255.477273 131.325089 
L 256.745455 103.766886 
L 257.379545 81.712212 
L 258.013636 78.711643 
L 259.281818 80.35511 
L 260.55 84.484675 
L 261.818182 86.481378 
L 263.086364 91.35972 
L 264.354545 94.91401 
L 265.622727 103.511998 
L 268.159091 122.256677 
L 269.427273 137.214603 
L 271.963636 157.172918 
L 273.231818 157.809067 
L 274.5 159.155811 
L 275.768182 155.089633 
L 277.036364 156.404701 
L 277.670455 157.307603 
L 278.304545 163.18257 
L 279.572727 168.679294 
L 280.840909 178.632741 
L 282.109091 183.551442 
L 284.645455 195.218044 
L 287.181818 208.742978 
L 289.718182 224.026754 
L 290.986364 237.699781 
L 292.254545 243.656939 
L 293.522727 253.584777 
L 294.790909 258.138274 
L 297.327273 268.870331 
L 299.863636 280.761285 
L 301.131818 292.309627 
L 303.668182 301.871122 
L 307.472727 315.788009 
L 310.009091 325.241602 
L 311.277273 329.506824 
L 313.813636 338.944562 
L 315.081818 343.113916 
L 316.35 346.016538 
L 316.984091 348.422289 
L 317.618182 349.442814 
L 318.252273 349.93459 
L 318.886364 350.142316 
L 321.422727 351.635611 
L 322.690909 352.092962 
L 323.325 352.47392 
L 323.959091 352.606928 
L 325.227273 352.576391 
L 326.495455 352.211691 
L 327.763636 351.586738 
L 329.031818 350.604896 
L 330.3 349.276252 
L 331.568182 347.495487 
L 334.104545 345.064629 
L 335.372727 342.820177 
L 336.640909 339.926036 
L 337.909091 336.581247 
L 340.445455 327.281043 
L 342.981818 316.34163 
L 344.25 306.302538 
L 348.054545 295.659276 
L 349.322727 285.802267 
L 350.590909 274.127586 
L 351.859091 268.507273 
L 354.395455 262.847171 
L 355.663636 263.231481 
L 356.931818 261.529119 
L 358.2 259.340043 
L 359.468182 250.725966 
L 360.736364 241.1637 
L 362.004545 227.526943 
L 364.540909 203.493499 
L 367.077273 188.357312 
L 372.15 158.251166 
L 373.418182 156.541162 
L 374.686364 155.023698 
L 375.954545 157.180863 
L 377.222727 171.700109 
L 378.490909 193.45967 
L 379.759091 225.050498 
L 381.027273 244.64847 
L 382.929545 283.055815 
L 383.563636 287.275148 
L 384.831818 277.096478 
L 386.1 268.069632 
L 387.368182 260.14319 
L 388.636364 244.23798 
L 389.904545 245.277545 
L 391.172727 235.007632 
L 392.440909 247.658055 
L 393.709091 233.208062 
L 394.977273 245.615195 
L 396.245455 227.921477 
L 397.513636 236.146082 
L 398.781818 216.743935 
L 400.05 229.573323 
L 401.318182 210.56447 
L 402.586364 222.48462 
L 403.854545 207.163468 
L 405.122727 227.701215 
L 406.390909 222.989 
L 407.659091 248.536153 
L 408.927273 245.808305 
L 410.195455 268.285268 
L 411.463636 260.693794 
L 412.731818 274.969917 
L 414 261.801807 
L 415.268182 271.320329 
L 416.536364 256.227953 
L 417.804545 266.374075 
L 419.072727 256.838324 
L 420.340909 271.427325 
L 421.609091 261.30688 
L 422.877273 274.276986 
L 424.145455 266.204797 
L 425.413636 271.784551 
L 426.681818 254.09328 
L 427.95 259.286612 
L 429.218182 250.028878 
L 430.486364 251.421244 
L 431.120455 239.947383 
L 431.754545 242.001272 
L 433.022727 238.00676 
L 434.290909 235.624473 
L 435.559091 239.658405 
L 436.827273 247.554846 
L 438.095455 257.992159 
L 439.363636 258.771372 
L 440.631818 266.715412 
L 441.9 262.768465 
L 443.168182 263.581164 
L 444.436364 258.038652 
L 445.704545 266.872354 
L 446.972727 273.040691 
L 448.240909 282.356515 
L 449.509091 286.578831 
L 450.777273 295.995284 
L 452.045455 299.899291 
L 453.313636 302.904988 
L 454.581818 302.899525 
L 455.85 308.03919 
L 457.118182 310.999702 
L 457.752273 313.359899 
L 459.654545 323.13817 
L 460.922727 329.340295 
L 462.190909 333.742984 
L 464.093182 339.029602 
L 465.995455 341.302479 
L 467.263636 344.742164 
L 468.531818 348.660484 
L 469.8 351.934713 
L 471.702273 355.512031 
L 472.336364 354.942857 
L 473.604545 354.105386 
L 474.872727 353.505909 
L 476.140909 353.191154 
L 477.409091 352.566369 
L 478.677273 352.92403 
L 479.311364 353.668952 
L 479.945455 354.231556 
L 481.213636 353.928667 
L 483.75 351.441797 
L 484.384091 350.308945 
L 485.018182 349.768598 
L 486.286364 351.643756 
L 487.554545 354.160259 
L 488.822727 357.82778 
L 490.090909 358.415592 
L 491.359091 360.505046 
L 492.627273 358.774259 
L 493.895455 359.887099 
L 495.163636 355.156951 
L 496.431818 349.875561 
L 497.7 339.060374 
L 498.968182 332.093484 
L 499.602273 325.59209 
L 500.236364 324.70826 
L 501.504545 329.61734 
L 502.772727 337.232714 
L 504.040909 345.650396 
L 505.309091 347.361271 
L 506.577273 349.916288 
L 507.845455 346.144083 
L 509.113636 347.095254 
L 510.381818 339.331888 
L 511.65 332.316025 
L 514.186364 289.682542 
L 514.820455 258.514003 
L 515.454545 235.9162 
L 516.722727 221.376238 
L 517.990909 217.069551 
L 519.259091 217.402475 
L 519.893182 221.332092 
L 520.527273 223.162769 
L 521.795455 219.128636 
L 523.063636 210.243647 
L 524.331818 199.792725 
L 525.6 184.967942 
L 526.868182 178.445464 
L 528.136364 173.672443 
L 529.404545 174.313686 
L 530.672727 165.430709 
L 531.940909 158.746294 
L 533.209091 144.314167 
L 535.745455 111.696043 
L 537.013636 103.461583 
L 538.281818 99.166159 
L 539.55 93.350657 
L 542.086364 82.920954 
L 543.354545 83.882215 
L 544.622727 105.121508 
L 545.890909 131.973337 
L 547.159091 169.668411 
L 548.427273 187.219232 
L 549.695455 195.87474 
L 550.963636 140.381433 
L 552.231818 114.500619 
L 553.5 115.795977 
L 554.768182 122.044192 
L 555.402273 129.192092 
L 556.036364 130.394632 
L 557.304545 117.993165 
L 558.572727 81.518465 
L 559.840909 88.374504 
L 560.475 111.614991 
L 561.109091 142.326079 
L 562.377273 170.148689 
L 563.645455 187.869659 
L 564.913636 198.432036 
L 566.181818 196.9434 
L 567.45 188.412185 
L 568.718182 172.584877 
L 569.986364 161.397246 
L 571.254545 148.810344 
L 573.790909 155.462847 
L 575.059091 168.424137 
L 576.327273 174.399665 
L 577.595455 191.830718 
L 580.131818 200.960706 
L 581.4 194.190111 
L 582.668182 201.029758 
L 583.936364 195.055471 
L 585.204545 198.087984 
L 586.472727 202.444046 
L 587.106818 220.819969 
L 587.740909 234.399608 
L 589.009091 245.883558 
L 590.277273 251.89274 
L 591.545455 255.244769 
L 592.813636 261.927106 
L 594.081818 272.369748 
L 595.35 281.858705 
L 596.618182 282.84323 
L 597.886364 285.652666 
L 599.154545 285.03063 
L 601.690909 295.232328 
L 602.959091 303.439805 
L 605.495455 310.95331 
L 606.763636 310.72135 
L 608.031818 315.214074 
L 609.3 318.852903 
L 610.568182 328.153677 
L 613.104545 340.618162 
L 614.372727 342.685191 
L 615.640909 345.481856 
L 616.909091 344.661983 
L 618.177273 344.830858 
L 619.445455 344.33925 
L 621.981818 346.045332 
L 624.518182 349.551085 
L 625.786364 350.927662 
L 628.322727 352.782407 
L 628.956818 352.742619 
L 630.859091 352.122326 
L 632.127273 351.475552 
L 633.395455 350.681322 
L 634.663636 349.752274 
L 635.931818 348.435328 
L 638.468182 344.331473 
L 639.736364 341.725472 
L 641.004545 340.646688 
L 643.540909 337.154846 
L 644.809091 332.617205 
L 646.077273 327.538244 
L 649.881818 304.772303 
L 651.15 294.155053 
L 652.418182 289.336277 
L 653.052273 284.755663 
L 653.686364 283.930226 
L 654.954545 282.970205 
L 656.222727 281.400449 
L 657.490909 275.78255 
L 658.759091 272.728348 
L 659.393182 269.398007 
L 660.027273 268.125745 
L 661.295455 273.108837 
L 662.563636 281.678031 
L 663.831818 289.374256 
L 665.1 284.392571 
L 666.368182 282.767843 
L 667.636364 273.548087 
L 668.904545 274.960565 
L 670.172727 266.346756 
L 671.440909 263.648607 
L 672.709091 244.848318 
L 673.977273 232.345853 
L 675.245455 209.063867 
L 676.513636 207.20034 
L 677.781818 202.986639 
L 679.05 216.48355 
L 680.318182 210.933864 
L 681.586364 204.626988 
L 682.854545 178.073891 
L 684.122727 172.065011 
L 685.390909 162.601295 
L 686.659091 167.150367 
L 687.293182 158.536524 
L 687.927273 154.06713 
L 689.195455 152.811292 
L 689.829545 165.773487 
L 690.463636 181.146327 
L 691.731818 195.416685 
L 692.365909 197.073995 
L 693 181.043219 
L 694.268182 165.076768 
L 695.536364 146.317675 
L 696.804545 142.367711 
L 699.340909 129.870945 
L 701.877273 86.202288 
L 703.145455 67.321315 
L 704.413636 66.96 
L 705.681818 67.447117 
L 706.95 67.554717 
L 708.218182 68.317404 
L 709.486364 68.738888 
L 710.754545 70.088382 
L 712.022727 87.332291 
L 714.559091 129.23168 
L 715.827273 134.969783 
L 717.095455 138.064108 
L 718.363636 126.152707 
L 719.631818 116.943846 
L 720.9 111.243754 
L 722.168182 128.329246 
L 723.436364 168.265989 
L 724.704545 181.496447 
L 725.338636 191.672838 
L 725.972727 194.500006 
L 727.240909 188.59467 
L 729.777273 169.547335 
L 731.045455 160.494276 
L 732.313636 164.991124 
L 732.947727 189.684314 
L 733.581818 222.079259 
L 734.85 241.181198 
L 736.118182 247.537047 
L 737.386364 243.647219 
L 739.922727 210.881237 
L 741.190909 204.434112 
L 741.825 210.421841 
L 742.459091 218.204314 
L 744.995455 233.216174 
L 746.263636 239.438914 
L 747.531818 248.130959 
L 748.8 261.216543 
L 750.068182 264.783101 
L 751.336364 270.276205 
L 752.604545 273.635709 
L 753.872727 274.961571 
L 755.140909 276.565751 
L 756.409091 280.821688 
L 758.945455 293.426993 
L 761.481818 305.204715 
L 764.018182 315.962214 
L 765.286364 320.808879 
L 766.554545 328.890754 
L 767.822727 332.185162 
L 769.090909 336.119639 
L 771.627273 344.644318 
L 772.895455 347.953776 
L 774.163636 350.495117 
L 775.431818 351.751792 
L 776.7 351.905181 
L 777.968182 351.766105 
L 779.236364 352.04429 
L 780.504545 352.545218 
L 781.772727 352.610079 
L 783.040909 352.396153 
L 784.309091 351.70778 
L 785.577273 350.669255 
L 786.845455 349.244877 
L 788.113636 347.483721 
L 789.381818 345.329774 
L 790.65 342.778579 
L 791.918182 339.848268 
L 793.186364 336.625997 
L 794.454545 333.035136 
L 795.722727 325.774272 
L 796.990909 322.204865 
L 798.259091 318.281114 
L 799.527273 316.885396 
L 800.795455 314.903643 
L 802.063636 318.081065 
L 804.6 329.462342 
L 805.868182 327.700248 
L 807.136364 320.639366 
L 808.404545 310.417623 
L 810.940909 280.235686 
L 812.209091 268.587386 
L 813.477273 261.869786 
L 814.745455 254.522541 
L 816.013636 255.459567 
L 817.281818 261.452023 
L 818.55 270.822687 
L 819.818182 275.99651 
L 821.086364 288.009377 
L 821.720455 301.326786 
L 822.354545 305.474352 
L 823.622727 304.732347 
L 824.890909 297.58133 
L 826.159091 292.139378 
L 827.427273 270.574905 
L 828.695455 265.710306 
L 829.963636 254.591459 
L 831.231818 264.880646 
L 832.5 255.227439 
L 833.768182 262.371685 
L 835.036364 250.731832 
L 836.304545 261.180643 
L 837.572727 253.500105 
L 838.840909 264.507565 
L 840.109091 253.85475 
L 841.377273 266.31699 
L 842.645455 255.632934 
L 843.913636 266.387885 
L 845.181818 257.268758 
L 846.45 273.22941 
L 847.718182 263.323896 
L 848.986364 276.012063 
L 850.254545 272.133464 
L 851.522727 292.612148 
L 852.790909 298.790608 
L 854.059091 322.958401 
L 855.327273 331.875602 
L 856.595455 345.143938 
L 857.863636 344.749639 
L 859.131818 349.276185 
L 860.4 347.386244 
L 861.668182 349.978368 
L 862.936364 351.828721 
L 864.204545 357.214426 
L 865.472727 357.817154 
L 866.740909 357.900788 
L 868.009091 355.987617 
L 869.277273 356.528903 
L 870.545455 355.435437 
L 871.813636 358.040266 
L 873.081818 358.60411 
L 874.35 361.22171 
L 875.618182 359.057439 
L 876.886364 359.313835 
L 878.154545 356.848016 
L 879.422727 357.894285 
L 880.690909 354.594849 
L 881.959091 355.957751 
L 883.227273 352.562279 
L 884.495455 354.188315 
L 885.763636 348.382568 
L 887.031818 348.702385 
L 888.3 339.65003 
L 889.568182 337.069939 
L 890.836364 320.682474 
L 892.104545 315.800176 
L 893.372727 298.417225 
L 894.640909 297.46488 
L 895.909091 284.622822 
L 897.177273 289.20652 
L 898.445455 284.172108 
L 899.713636 289.611009 
L 900.981818 286.408381 
L 902.25 296.214607 
L 903.518182 303.188905 
L 904.786364 316.608786 
L 906.054545 323.017497 
L 907.322727 328.534568 
L 908.590909 321.192384 
L 909.859091 317.056316 
L 911.127273 320.606416 
L 912.395455 325.166416 
L 913.663636 332.794594 
L 914.931818 338.163706 
L 917.468182 342.849575 
L 918.736364 343.389888 
L 920.004545 345.530896 
L 921.272727 345.265985 
L 922.540909 346.840534 
L 923.809091 346.240219 
L 925.077273 347.437128 
L 926.345455 347.637277 
L 927.613636 348.882489 
L 928.881818 349.673501 
L 930.15 351.085912 
L 931.418182 352.007686 
L 932.686364 352.57981 
L 933.954545 352.997473 
L 933.954545 352.997473 
" clip-path="url(#p88cf820159)" style="fill: none; stroke: #008000; stroke-width: 1.5; stroke-linecap: square"/>
   </g>
   <g id="patch_3">
    <path d="M 135 384.48 
L 135 51.84 
" style="fill: none; stroke: #000000; stroke-width: 0.8; stroke-linejoin: miter; stroke-linecap: square"/>
   </g>
   <g id="patch_4">
    <path d="M 972 384.48 
L 972 51.84 
" style="fill: none; stroke: #000000; stroke-width: 0.8; stroke-linejoin: miter; stroke-linecap: square"/>
   </g>
   <g id="patch_5">
    <path d="M 135 384.48 
L 972 384.48 
" style="fill: none; stroke: #000000; stroke-width: 0.8; stroke-linejoin: miter; stroke-linecap: square"/>
   </g>
   <g id="patch_6">
    <path d="M 135 51.84 
L 972 51.84 
" style="fill: none; stroke: #000000; stroke-width: 0.8; stroke-linejoin: miter; stroke-linecap: square"/>
   </g>
  </g>
  <g id="axes_2">
   <g id="matplotlib.axis_3">
    <g id="ytick_7">
     <g id="line2d_16">
      <path d="M 135 369.36 
L 972 369.36 
" clip-path="url(#p88cf820159)" style="fill: none; stroke: #b0b0b0; stroke-width: 0.8; stroke-linecap: square"/>
     </g>
     <g id="line2d_17">
      <defs>
       <path id="m08edd90ca7" d="M 0 0 
L 3.5 0 
" style="stroke: #000000; stroke-width: 0.8"/>
      </defs>
      <g>
       <use xlink:href="#m08edd90ca7" x="972" y="369.36" style="stroke: #000000; stroke-width: 0.8"/>
      </g>
     </g>
     <g id="text_15">
      <!-- 0 -->
      <g transform="translate(979 372.934219) scale(0.1 -0.1)">
       <use xlink:href="#Times New Roman-30"/>
      </g>
     </g>
    </g>
    <g id="ytick_8">
     <g id="line2d_18">
      <path d="M 135 320.783247 
L 972 320.783247 
" clip-path="url(#p88cf820159)" style="fill: none; stroke: #b0b0b0; stroke-width: 0.8; stroke-linecap: square"/>
     </g>
     <g id="line2d_19">
      <g>
       <use xlink:href="#m08edd90ca7" x="972" y="320.783247" style="stroke: #000000; stroke-width: 0.8"/>
      </g>
     </g>
     <g id="text_16">
      <!-- 5 -->
      <g transform="translate(979 324.357466) scale(0.1 -0.1)">
       <use xlink:href="#Times New Roman-35"/>
      </g>
     </g>
    </g>
    <g id="ytick_9">
     <g id="line2d_20">
      <path d="M 135 272.206495 
L 972 272.206495 
" clip-path="url(#p88cf820159)" style="fill: none; stroke: #b0b0b0; stroke-width: 0.8; stroke-linecap: square"/>
     </g>
     <g id="line2d_21">
      <g>
       <use xlink:href="#m08edd90ca7" x="972" y="272.206495" style="stroke: #000000; stroke-width: 0.8"/>
      </g>
     </g>
     <g id="text_17">
      <!-- 10 -->
      <g transform="translate(979 275.780714) scale(0.1 -0.1)">
       <use xlink:href="#Times New Roman-31"/>
       <use xlink:href="#Times New Roman-30" x="50"/>
      </g>
     </g>
    </g>
    <g id="ytick_10">
     <g id="line2d_22">
      <path d="M 135 223.629742 
L 972 223.629742 
" clip-path="url(#p88cf820159)" style="fill: none; stroke: #b0b0b0; stroke-width: 0.8; stroke-linecap: square"/>
     </g>
     <g id="line2d_23">
      <g>
       <use xlink:href="#m08edd90ca7" x="972" y="223.629742" style="stroke: #000000; stroke-width: 0.8"/>
      </g>
     </g>
     <g id="text_18">
      <!-- 15 -->
      <g transform="translate(979 227.203961) scale(0.1 -0.1)">
       <use xlink:href="#Times New Roman-31"/>
       <use xlink:href="#Times New Roman-35" x="50"/>
      </g>
     </g>
    </g>
    <g id="ytick_11">
     <g id="line2d_24">
      <path d="M 135 175.05299 
L 972 175.05299 
" clip-path="url(#p88cf820159)" style="fill: none; stroke: #b0b0b0; stroke-width: 0.8; stroke-linecap: square"/>
     </g>
     <g id="line2d_25">
      <g>
       <use xlink:href="#m08edd90ca7" x="972" y="175.05299" style="stroke: #000000; stroke-width: 0.8"/>
      </g>
     </g>
     <g id="text_19">
      <!-- 20 -->
      <g transform="translate(979 178.627209) scale(0.1 -0.1)">
       <use xlink:href="#Times New Roman-32"/>
       <use xlink:href="#Times New Roman-30" x="50"/>
      </g>
     </g>
    </g>
    <g id="ytick_12">
     <g id="line2d_26">
      <path d="M 135 126.476237 
L 972 126.476237 
" clip-path="url(#p88cf820159)" style="fill: none; stroke: #b0b0b0; stroke-width: 0.8; stroke-linecap: square"/>
     </g>
     <g id="line2d_27">
      <g>
       <use xlink:href="#m08edd90ca7" x="972" y="126.476237" style="stroke: #000000; stroke-width: 0.8"/>
      </g>
     </g>
     <g id="text_20">
      <!-- 25 -->
      <g transform="translate(979 130.050456) scale(0.1 -0.1)">
       <use xlink:href="#Times New Roman-32"/>
       <use xlink:href="#Times New Roman-35" x="50"/>
      </g>
     </g>
    </g>
    <g id="ytick_13">
     <g id="line2d_28">
      <path d="M 135 77.899485 
L 972 77.899485 
" clip-path="url(#p88cf820159)" style="fill: none; stroke: #b0b0b0; stroke-width: 0.8; stroke-linecap: square"/>
     </g>
     <g id="line2d_29">
      <g>
       <use xlink:href="#m08edd90ca7" x="972" y="77.899485" style="stroke: #000000; stroke-width: 0.8"/>
      </g>
     </g>
     <g id="text_21">
      <!-- 30 -->
      <g transform="translate(979 81.473703) scale(0.1 -0.1)">
       <use xlink:href="#Times New Roman-33"/>
       <use xlink:href="#Times New Roman-30" x="50"/>
      </g>
     </g>
    </g>
    <g id="text_22">
     <!-- buffer (s) -->
     <g transform="translate(1000.617188 243.16) rotate(-90) scale(0.1 -0.1)">
      <defs>
       <path id="Times New Roman-75" d="M 1450 325
Q 1750 325 1962 475 
Q 2175 625 2275 950 
L 2275 2525 
Q 2275 2625 2225 2687 
Q 2175 2750 2050 2750 
L 1900 2750 
L 1900 2900 
L 2050 2900 
Q 2200 2900 2325 2925 
Q 2450 2950 2575 3050 
L 2625 3050 
L 2625 600 
Q 2625 500 2687 450 
Q 2750 400 2850 400 
L 3000 400 
L 3000 250 
L 2850 250 
Q 2725 250 2600 212 
Q 2475 175 2325 100 
L 2275 100 
L 2275 625 
Q 2150 350 1900 212 
Q 1650 75 1325 75 
Q 925 75 725 300 
Q 525 525 525 1025 
L 525 2525 
Q 525 2625 475 2687 
Q 425 2750 300 2750 
L 150 2750 
L 150 2900 
L 300 2900 
Q 450 2900 575 2925 
Q 700 2950 825 3050 
L 875 3050 
L 875 975 
Q 875 625 1025 475 
Q 1175 325 1450 325 
z
" transform="scale(0.015625)"/>
       <path id="Times New Roman-66" d="M 1125 3325
Q 1125 3850 1450 4112 
Q 1775 4375 2175 4375 
Q 2600 4375 2812 4225 
Q 3025 4075 3025 3875 
Q 3025 3775 2975 3700 
Q 2925 3625 2775 3625 
Q 2675 3625 2612 3675 
Q 2550 3725 2550 3850 
Q 2550 3875 2575 3925 
Q 2575 3975 2575 4000 
Q 2575 4100 2500 4162 
Q 2425 4225 2150 4225 
Q 1850 4225 1662 4037 
Q 1475 3850 1475 3400 
L 1475 2900 
L 2525 2900 
L 2525 2750 
L 1475 2750 
L 1475 450 
Q 1475 350 1537 300 
Q 1600 250 1700 250 
L 2300 250 
L 2300 100 
L 475 100 
L 475 250 
L 900 250 
Q 1025 250 1075 300 
Q 1125 350 1125 450 
L 1125 2750 
L 350 2750 
L 350 2900 
L 1125 2900 
L 1125 3325 
z
" transform="scale(0.015625)"/>
      </defs>
      <use xlink:href="#Times New Roman-62"/>
      <use xlink:href="#Times New Roman-75" x="50"/>
      <use xlink:href="#Times New Roman-66" x="100"/>
      <use xlink:href="#Times New Roman-66" x="150"/>
      <use xlink:href="#Times New Roman-65" x="200"/>
      <use xlink:href="#Times New Roman-72" x="250"/>
      <use xlink:href="#Times New Roman-20" x="300"/>
      <use xlink:href="#Times New Roman-28" x="350"/>
      <use xlink:href="#Times New Roman-73" x="400"/>
      <use xlink:href="#Times New Roman-29" x="450"/>
     </g>
    </g>
   </g>
   <g id="line2d_30">
    <path d="M 173.045455 369.36 
L 173.679545 369.36 
L 174.313636 358.747599 
L 175.581818 351.551763 
L 176.215909 344.355926 
L 176.85 343.902543 
L 178.118182 336.969021 
L 179.386364 323.963406 
L 180.654545 324.37145 
L 181.922727 327.376732 
L 182.556818 333.390534 
L 183.190909 326.499112 
L 184.459091 320.446449 
L 185.727273 311.320496 
L 186.361364 311.683202 
L 186.995455 298.952855 
L 188.263636 292.058194 
L 188.897727 285.163534 
L 189.531818 271.895604 
L 190.8 252.837324 
L 192.068182 236.991588 
L 194.604545 217.415156 
L 195.872727 194.720098 
L 198.409091 162.779264 
L 200.945455 155.78745 
L 202.213636 152.714161 
L 204.75 133.419474 
L 208.554545 85.027313 
L 211.090909 78.041976 
L 211.725 77.773185 
L 212.359091 78.18123 
L 213.627273 85.030552 
L 216.163636 90.976346 
L 216.797727 90.526202 
L 217.431818 90.92777 
L 218.7 91.326099 
L 221.236364 85.328489 
L 221.870455 78.777105 
L 222.504545 78.586036 
L 223.772727 85.092083 
L 225.040909 88.200995 
L 226.309091 85.276674 
L 226.943182 78.922835 
L 228.845455 78.666997 
L 230.113636 81.066689 
L 231.381818 77.559447 
L 232.65 80.558252 
L 233.918182 78.029023 
L 235.186364 81.866586 
L 238.990909 90.69784 
L 240.259091 91.504214 
L 241.527273 85.137421 
L 242.161364 78.770628 
L 242.795455 78.317245 
L 244.063636 84.638699 
L 245.331818 87.91925 
L 246.6 91.526883 
L 247.868182 88.042311 
L 249.136364 91.028162 
L 249.770455 90.811186 
L 250.404545 91.241899 
L 252.306818 89.075376 
L 252.940909 85.895218 
L 254.209091 82.685914 
L 254.843182 78.644328 
L 255.477273 78.385252 
L 256.745455 84.648415 
L 257.379545 90.911577 
L 258.013636 91.348768 
L 259.281818 90.875955 
L 259.915909 90.403141 
L 260.55 96.436373 
L 261.818182 96.889756 
L 263.086364 97.741469 
L 264.354545 103.709933 
L 265.622727 115.68896 
L 266.890909 122.577143 
L 268.159091 132.894845 
L 270.695455 138.866548 
L 271.963636 135.381975 
L 273.231818 139.271354 
L 274.5 135.83212 
L 275.768182 138.873024 
L 277.036364 135.398167 
L 277.670455 135.819166 
L 278.304545 129.753549 
L 279.572727 129.277497 
L 280.840909 128.344823 
L 282.109091 128.765821 
L 283.377273 132.619577 
L 284.645455 142.934041 
L 288.45 151.885117 
L 289.718182 162.215773 
L 290.986364 175.143666 
L 292.254545 181.150991 
L 292.888636 187.158317 
L 293.522727 187.5275 
L 294.790909 187.938783 
L 296.059091 190.924634 
L 298.595455 209.872806 
L 299.863636 213.716846 
L 300.497727 214.092507 
L 301.131818 213.677985 
L 302.4 219.714456 
L 304.936364 239.472241 
L 307.472727 259.268886 
L 311.277273 288.486184 
L 316.35 327.224525 
L 316.984091 334.106231 
L 317.618182 334.119185 
L 318.252273 330.666997 
L 318.886364 330.187707 
L 320.154545 336.622507 
L 323.325 362.04758 
L 323.959091 361.590958 
L 325.227273 361.982811 
L 326.495455 357.730725 
L 327.763636 359.129736 
L 329.031818 360.305293 
L 330.3 363.287906 
L 331.568182 359.83248 
L 335.372727 341.101284 
L 336.640909 342.157019 
L 337.909091 345.712837 
L 339.177273 348.705165 
L 341.713636 341.978904 
L 342.981818 332.823805 
L 344.25 319.789043 
L 345.518182 319.338899 
L 346.786364 322.327988 
L 348.054545 332.642452 
L 348.688636 339.517682 
L 349.322727 333.251281 
L 349.956818 323.548884 
L 350.590909 316.615362 
L 351.859091 322.823471 
L 354.395455 328.992719 
L 355.663636 325.508146 
L 356.931818 328.490759 
L 358.2 325.864376 
L 359.468182 316.667177 
L 360.736364 300.241758 
L 362.004545 277.316769 
L 364.540909 219.471572 
L 365.809091 196.559537 
L 367.077273 186.601303 
L 370.881818 138.137896 
L 373.418182 131.133129 
L 374.686364 134.957738 
L 375.954545 132.107902 
L 377.222727 128.943936 
L 379.759091 109.555335 
L 381.027273 93.337177 
L 382.295455 83.025951 
L 382.929545 76.092429 
L 383.563636 75.988799 
L 384.831818 76.403321 
L 386.1 80.247361 
L 387.368182 83.226735 
L 389.904545 76.503713 
L 391.172727 73.851422 
L 392.440909 76.597628 
L 393.709091 73.080671 
L 394.977273 76.063283 
L 396.245455 79.887893 
L 397.513636 82.873744 
L 398.781818 79.904085 
L 400.05 76.451897 
L 401.318182 73.822276 
L 402.586364 76.273783 
L 403.854545 73.106578 
L 405.122727 76.095668 
L 406.390909 73.517862 
L 407.659091 77.005672 
L 408.927273 74.152598 
L 410.195455 77.112541 
L 411.463636 73.653877 
L 412.731818 76.889088 
L 414 73.372131 
L 416.536364 79.295257 
L 417.804545 83.152251 
L 419.072727 80.104869 
L 421.609091 73.109817 
L 422.877273 76.484282 
L 424.145455 73.569677 
L 425.413636 76.568482 
L 426.681818 73.177824 
L 427.95 76.474567 
L 429.218182 80.302415 
L 430.486364 83.229974 
L 431.754545 82.3394 
L 433.022727 82.747445 
L 434.290909 86.5591 
L 435.559091 83.097197 
L 436.827273 86.044187 
L 438.095455 82.591999 
L 439.363636 80.023908 
L 440.631818 76.562005 
L 443.168182 82.643814 
L 444.436364 86.465185 
L 445.704545 83.003282 
L 446.972727 85.76568 
L 448.240909 82.4236 
L 449.509091 86.426324 
L 450.777273 83.78051 
L 453.313636 89.395983 
L 454.581818 98.839303 
L 455.85 102.67039 
L 457.118182 105.672433 
L 458.386364 104.879013 
L 459.654545 98.97208 
L 460.922727 96.345697 
L 463.459091 89.133668 
L 464.093182 82.19367 
L 464.727273 82.598476 
L 465.995455 83.158728 
L 467.263636 86.14134 
L 469.8 79.317926 
L 471.068182 76.707735 
L 471.702273 77.028342 
L 472.336364 82.938513 
L 473.604545 83.061574 
L 474.872727 79.891132 
L 476.140909 77.180549 
L 477.409091 79.625579 
L 478.677273 88.819539 
L 479.311364 94.865725 
L 479.945455 95.267293 
L 481.213636 89.198437 
L 482.481818 86.546147 
L 483.75 83.04862 
L 485.018182 82.122424 
L 486.286364 82.517515 
L 487.554545 79.874939 
L 488.822727 76.743358 
L 490.090909 73.262024 
L 491.359091 76.270544 
L 492.627273 73.255547 
L 493.895455 76.231683 
L 495.163636 73.320316 
L 496.431818 76.338552 
L 497.7 73.705692 
L 498.968182 76.960334 
L 499.602273 77.342471 
L 500.236364 84.023394 
L 501.504545 83.553819 
L 505.309091 73.352701 
L 506.577273 76.332075 
L 507.845455 72.834549 
L 509.113636 76.678589 
L 510.381818 73.14544 
L 511.65 76.115099 
L 512.918182 72.611096 
L 514.186364 76.48752 
L 514.820455 76.921473 
L 515.454545 82.938513 
L 516.722727 83.032428 
L 517.990909 85.99561 
L 519.259091 89.829935 
L 519.893182 96.131959 
L 520.527273 96.559435 
L 521.795455 89.629151 
L 524.331818 82.621145 
L 525.6 86.465185 
L 526.868182 82.967659 
L 528.136364 85.956749 
L 529.404545 82.465699 
L 530.672727 86.30974 
L 531.940909 82.821929 
L 534.477273 89.305306 
L 537.013636 108.723053 
L 538.281818 111.793104 
L 539.55 115.637145 
L 540.818182 112.146095 
L 542.086364 115.106039 
L 543.354545 111.614989 
L 544.622727 115.468745 
L 545.890909 112.609194 
L 547.159091 115.591806 
L 548.427273 99.137241 
L 549.695455 89.434844 
L 550.329545 76.92795 
L 550.963636 82.951467 
L 552.231818 82.472176 
L 553.5 85.409451 
L 554.768182 89.259968 
L 555.402273 96.125482 
L 556.036364 96.533527 
L 557.304545 89.606482 
L 557.938636 82.679437 
L 558.572727 82.307015 
L 559.840909 89.282637 
L 560.475 96.258259 
L 561.109091 95.850214 
L 562.377273 88.919931 
L 563.645455 85.422404 
L 564.913636 82.763637 
L 566.181818 86.610916 
L 567.45 83.129582 
L 568.718182 86.118671 
L 569.986364 82.621145 
L 571.254545 86.458708 
L 573.790909 92.433649 
L 575.059091 88.958792 
L 576.327273 79.85227 
L 577.595455 77.128734 
L 581.4 86.173725 
L 582.668182 82.705345 
L 585.204545 88.673808 
L 586.472727 98.975318 
L 587.106818 105.853787 
L 587.740909 106.268308 
L 589.009091 99.937138 
L 590.277273 89.959473 
L 592.813636 83.252643 
L 594.081818 86.235255 
L 595.35 82.737729 
L 596.618182 85.684719 
L 597.886364 83.045382 
L 601.690909 92.057989 
L 602.959091 89.457513 
L 605.495455 82.465699 
L 606.763636 85.428881 
L 608.031818 82.805737 
L 609.3 86.614154 
L 610.568182 83.103674 
L 611.836364 86.105717 
L 613.104545 82.614668 
L 614.372727 86.481378 
L 618.177273 76.021184 
L 619.445455 79.910562 
L 621.981818 98.823111 
L 623.25 101.805724 
L 624.518182 105.61738 
L 625.786364 108.596754 
L 627.054545 118.020644 
L 627.688636 124.037684 
L 628.322727 124.439252 
L 628.956818 121.401586 
L 629.590909 115.345684 
L 630.859091 114.91497 
L 633.395455 120.889911 
L 635.931818 115.679244 
L 638.468182 121.566747 
L 639.736364 118.273243 
L 641.004545 109.199106 
L 643.540909 89.136907 
L 644.809091 85.820734 
L 646.077273 83.204066 
L 648.613636 88.926408 
L 649.881818 98.369728 
L 650.515909 105.225527 
L 651.15 105.620618 
L 652.418182 106.038378 
L 653.052273 106.456138 
L 653.686364 106.018948 
L 654.954545 105.555849 
L 656.222727 102.061561 
L 657.490909 99.418986 
L 658.759091 89.878512 
L 659.393182 83.369227 
L 660.027273 82.90289 
L 661.295455 83.04862 
L 662.563636 86.461947 
L 666.368182 76.409798 
L 667.636364 80.02067 
L 670.172727 85.966464 
L 671.440909 82.546661 
L 672.709091 86.151056 
L 673.977273 82.893175 
L 676.513636 88.851923 
L 677.781818 92.47251 
L 679.05 89.405698 
L 681.586364 82.452746 
L 682.854545 85.869311 
L 684.122727 83.204066 
L 686.659091 89.198437 
L 687.293182 95.257578 
L 687.927273 95.646192 
L 689.195455 89.544951 
L 689.829545 83.443711 
L 690.463636 83.000044 
L 691.731818 89.020323 
L 692.365909 95.040601 
L 693 95.633238 
L 694.268182 89.570859 
L 695.536364 86.076571 
L 698.072727 79.797216 
L 699.340909 77.190264 
L 700.609091 80.49996 
L 704.413636 89.289114 
L 705.681818 92.880555 
L 706.95 95.882598 
L 708.218182 92.443364 
L 709.486364 95.438931 
L 710.754545 92.899986 
L 712.022727 95.834022 
L 714.559091 88.796869 
L 715.827273 86.167248 
L 717.095455 82.692391 
L 719.631818 88.618755 
L 722.168182 96.326266 
L 722.802273 96.727834 
L 723.436364 96.225874 
L 724.704545 89.292352 
L 725.338636 82.358831 
L 725.972727 82.770114 
L 727.240909 83.17492 
L 728.509091 86.16401 
L 729.777273 82.695629 
L 731.045455 85.678242 
L 732.313636 89.519044 
L 732.947727 96.365128 
L 733.581818 95.914983 
L 734.85 89.143384 
L 736.118182 85.66205 
L 737.386364 83.064813 
L 739.922727 88.881069 
L 741.190909 98.308198 
L 741.825 105.183427 
L 742.459091 105.581757 
L 743.727273 105.99304 
L 746.263636 99.01418 
L 747.531818 89.04623 
L 748.165909 82.98709 
L 748.8 83.408088 
L 750.068182 89.418652 
L 751.336364 98.878165 
L 752.604545 101.857539 
L 753.872727 105.717772 
L 755.140909 108.693907 
L 756.409091 118.15342 
L 757.677273 121.456639 
L 758.945455 125.310395 
L 760.213636 128.293008 
L 761.481818 137.470776 
L 762.75 140.51168 
L 764.018182 144.407536 
L 765.286364 147.396625 
L 765.920455 153.407189 
L 766.554545 152.98619 
L 767.822727 153.468719 
L 769.090909 157.37429 
L 771.627273 176.338655 
L 772.895455 179.392513 
L 774.163636 183.275415 
L 777.968182 192.33336 
L 779.236364 189.820323 
L 780.504545 192.802935 
L 781.772727 189.360463 
L 783.040909 192.33336 
L 784.309091 189.749077 
L 785.577273 192.770551 
L 786.845455 189.441424 
L 788.113636 192.430513 
L 790.65 199.927526 
L 794.454545 208.917463 
L 795.088636 209.322269 
L 795.722727 203.259891 
L 796.990909 202.991099 
L 798.259091 199.801226 
L 799.527273 196.310177 
L 802.063636 176.947483 
L 803.331818 160.479964 
L 804.6 137.64889 
L 805.868182 108.85583 
L 807.136364 85.947033 
L 808.404545 75.907838 
L 809.672727 72.795687 
L 812.209091 80.503199 
L 816.013636 89.415413 
L 818.55 96.183774 
L 819.818182 86.588246 
L 821.086364 83.081005 
L 821.720455 76.707735 
L 822.354545 83.229974 
L 823.622727 83.171682 
L 824.890909 80.130777 
L 826.159091 76.665635 
L 827.427273 80.121061 
L 828.695455 82.643814 
L 829.963636 85.584327 
L 831.231818 82.112708 
L 832.5 85.972941 
L 833.768182 83.343319 
L 835.036364 80.240884 
L 837.572727 73.29117 
L 838.840909 76.710973 
L 840.109091 73.459569 
L 841.377273 76.419513 
L 842.645455 73.009425 
L 843.913636 76.600866 
L 845.181818 73.252309 
L 846.45 76.179868 
L 847.718182 72.941417 
L 848.986364 76.630012 
L 851.522727 82.598476 
L 852.790909 79.466895 
L 854.059091 76.863181 
L 855.327273 73.948575 
L 856.595455 76.617058 
L 857.863636 73.113055 
L 859.131818 76.134529 
L 860.4 73.508146 
L 861.668182 70.483434 
L 862.936364 66.972954 
L 864.204545 69.936136 
L 865.472727 73.342985 
L 866.740909 76.312644 
L 868.009091 72.808641 
L 869.277273 75.775061 
L 871.813636 70.464003 
L 873.081818 66.96 
L 875.618182 73.038571 
L 876.886364 76.889088 
L 878.154545 73.388324 
L 879.422727 76.364459 
L 880.690909 72.853979 
L 881.959091 76.694781 
L 883.227273 73.226401 
L 884.495455 76.23816 
L 885.763636 72.967325 
L 887.031818 76.75955 
L 888.3 73.440139 
L 889.568182 76.205775 
L 890.836364 72.740634 
L 892.104545 76.390367 
L 893.372727 79.363264 
L 894.640909 82.67296 
L 895.909091 79.586717 
L 897.177273 76.983003 
L 898.445455 80.490245 
L 899.713636 83.093959 
L 900.981818 86.044187 
L 902.25 82.549899 
L 903.518182 86.41337 
L 906.054545 79.651486 
L 907.322727 75.454455 
L 907.956818 74.997833 
L 909.859091 76.328836 
L 911.127273 79.865224 
L 913.663636 86.011802 
L 914.931818 83.463142 
L 916.2 80.334799 
L 917.468182 76.811365 
L 918.736364 79.949424 
L 920.004545 82.666483 
L 921.272727 79.674155 
L 922.540909 76.247875 
L 923.809091 80.085439 
L 925.077273 82.789544 
L 927.613636 88.738577 
L 928.881818 99.036849 
L 931.418182 92.342972 
L 932.686364 88.864877 
L 933.954545 98.92998 
L 933.954545 98.92998 
" clip-path="url(#p88cf820159)" style="fill: none; stroke: #1f77b4; stroke-width: 1.5; stroke-linecap: square"/>
   </g>
   <g id="patch_7">
    <path d="M 135 384.48 
L 135 51.84 
" style="fill: none; stroke: #000000; stroke-width: 0.8; stroke-linejoin: miter; stroke-linecap: square"/>
   </g>
   <g id="patch_8">
    <path d="M 972 384.48 
L 972 51.84 
" style="fill: none; stroke: #000000; stroke-width: 0.8; stroke-linejoin: miter; stroke-linecap: square"/>
   </g>
   <g id="patch_9">
    <path d="M 135 384.48 
L 972 384.48 
" style="fill: none; stroke: #000000; stroke-width: 0.8; stroke-linejoin: miter; stroke-linecap: square"/>
   </g>
   <g id="patch_10">
    <path d="M 135 51.84 
L 972 51.84 
" style="fill: none; stroke: #000000; stroke-width: 0.8; stroke-linejoin: miter; stroke-linecap: square"/>
   </g>
   <g id="text_23">
    <!-- ./tcp/tp6_wave -->
    <g transform="translate(511.5 45.84) scale(0.12 -0.12)">
     <defs>
      <path id="Times New Roman-2e" d="M 800 25
Q 650 25 537 125 
Q 425 225 425 400 
Q 425 575 537 675 
Q 650 775 800 775 
Q 950 775 1062 662 
Q 1175 550 1175 400 
Q 1175 225 1062 125 
Q 950 25 800 25 
z
" transform="scale(0.015625)"/>
      <path id="Times New Roman-2f" d="M 400 -475
L 225 -375 
L 2775 4975 
L 2950 4875 
L 400 -475 
z
" transform="scale(0.015625)"/>
      <path id="Times New Roman-63" d="M 2150 2225
Q 2150 2300 2175 2325 
Q 2175 2350 2200 2425 
Q 2225 2525 2100 2662 
Q 1975 2800 1675 2800 
Q 1300 2800 1037 2437 
Q 775 2075 775 1475 
Q 775 925 1000 587 
Q 1225 250 1750 250 
Q 2100 250 2337 475 
Q 2575 700 2675 1000 
L 2800 950 
Q 2700 575 2425 312 
Q 2150 50 1675 50 
Q 1075 50 725 425 
Q 375 800 375 1500 
Q 375 2125 750 2537 
Q 1125 2950 1725 2950 
Q 2150 2950 2387 2725 
Q 2625 2500 2625 2275 
Q 2625 2125 2562 2062 
Q 2500 2000 2375 2000 
Q 2275 2000 2212 2062 
Q 2150 2125 2150 2225 
z
" transform="scale(0.015625)"/>
      <path id="Times New Roman-5f" d="M 0 -875
L 0 -725 
L 3175 -725 
L 3175 -875 
L 0 -875 
z
" transform="scale(0.015625)"/>
      <path id="Times New Roman-77" d="M 2325 2900
L 3175 2900 
L 3175 2750 
L 3075 2750 
Q 2975 2750 2900 2675 
Q 2825 2600 2775 2425 
L 2175 75 
L 2025 75 
L 1575 1975 
L 1100 75 
L 950 75 
L 375 2375 
Q 350 2550 275 2650 
Q 200 2750 125 2750 
L 25 2750 
L 25 2900 
L 925 2900 
L 925 2750 
L 825 2750 
Q 725 2750 700 2662 
Q 675 2575 700 2425 
L 1075 800 
L 1125 800 
L 1500 2300 
Q 1475 2525 1400 2637 
Q 1325 2750 1225 2750 
L 1150 2750 
L 1150 2900 
L 2000 2900 
L 2000 2750 
L 1925 2750 
Q 1825 2750 1800 2662 
Q 1775 2575 1800 2425 
L 2175 800 
L 2200 800 
L 2625 2550 
Q 2650 2650 2600 2700 
Q 2550 2750 2450 2750 
L 2325 2750 
L 2325 2900 
z
M 1725 2750 
L 1725 2750 
z
M 625 2750 
L 625 2750 
z
M 275 2750 
L 275 2750 
z
M 2875 2750 
L 2875 2750 
z
M 2675 2750 
L 2675 2750 
z
" transform="scale(0.015625)"/>
      <path id="Times New Roman-76" d="M 1625 75
L 1475 75 
L 625 2525 
Q 600 2625 525 2687 
Q 450 2750 350 2750 
L 225 2750 
L 225 2900 
L 1300 2900 
L 1300 2750 
L 1200 2750 
Q 1050 2750 1025 2700 
Q 1000 2650 1000 2600 
Q 1000 2500 1025 2425 
L 1625 675 
L 1675 675 
L 2275 2400 
Q 2325 2525 2325 2575 
Q 2325 2600 2275 2675 
Q 2225 2750 2075 2750 
L 2025 2750 
L 2025 2900 
L 2925 2900 
L 2925 2750 
L 2875 2750 
Q 2725 2750 2637 2662 
Q 2550 2575 2475 2400 
L 1625 75 
z
M 2600 2750 
L 2600 2750 
z
M 2400 2750 
L 2400 2750 
z
M 925 2750 
L 925 2750 
z
M 550 2750 
L 550 2750 
z
" transform="scale(0.015625)"/>
     </defs>
     <use xlink:href="#Times New Roman-2e"/>
     <use xlink:href="#Times New Roman-2f" x="50"/>
     <use xlink:href="#Times New Roman-74" x="100"/>
     <use xlink:href="#Times New Roman-63" x="150"/>
     <use xlink:href="#Times New Roman-70" x="200"/>
     <use xlink:href="#Times New Roman-2f" x="250"/>
     <use xlink:href="#Times New Roman-74" x="300"/>
     <use xlink:href="#Times New Roman-70" x="350"/>
     <use xlink:href="#Times New Roman-36" x="400"/>
     <use xlink:href="#Times New Roman-5f" x="450"/>
     <use xlink:href="#Times New Roman-77" x="500"/>
     <use xlink:href="#Times New Roman-61" x="550"/>
     <use xlink:href="#Times New Roman-76" x="600"/>
     <use xlink:href="#Times New Roman-65" x="650"/>
    </g>
   </g>
   <g id="legend_1">
    <g id="patch_11">
     <path d="M 903 73.2775 
L 965 73.2775 
Q 967 73.2775 967 71.2775 
L 967 58.84 
Q 967 56.84 965 56.84 
L 903 56.84 
Q 901 56.84 901 58.84 
L 901 71.2775 
Q 901 73.2775 903 73.2775 
z
" style="fill: #ffffff; opacity: 0.8; stroke: #cccccc; stroke-linejoin: miter"/>
    </g>
    <g id="line2d_31">
     <path d="M 905 64.488437 
L 915 64.488437 
L 925 64.488437 
" style="fill: none; stroke: #1f77b4; stroke-width: 1.5; stroke-linecap: square"/>
    </g>
    <g id="text_24">
     <!-- buffer -->
     <g transform="translate(933 67.988437) scale(0.1 -0.1)">
      <use xlink:href="#Times New Roman-62"/>
      <use xlink:href="#Times New Roman-75" x="50"/>
      <use xlink:href="#Times New Roman-66" x="100"/>
      <use xlink:href="#Times New Roman-66" x="150"/>
      <use xlink:href="#Times New Roman-65" x="200"/>
      <use xlink:href="#Times New Roman-72" x="250"/>
     </g>
    </g>
   </g>
  </g>
 </g>
 <defs>
  <clipPath id="p88cf820159">
   <rect x="135" y="51.84" width="837" height="332.64"/>
  </clipPath>
 </defs>
</svg>
