<?xml version="1.0" encoding="utf-8" standalone="no"?>
<!DOCTYPE svg PUBLIC "-//W3C//DTD SVG 1.1//EN"
  "http://www.w3.org/Graphics/SVG/1.1/DTD/svg11.dtd">
<svg xmlns:xlink="http://www.w3.org/1999/xlink" width="1080pt" height="432pt" viewBox="0 0 1080 432" xmlns="http://www.w3.org/2000/svg" version="1.1">
 <metadata>
  <rdf:RDF xmlns:dc="http://purl.org/dc/elements/1.1/" xmlns:cc="http://creativecommons.org/ns#" xmlns:rdf="http://www.w3.org/1999/02/22-rdf-syntax-ns#">
   <cc:Work>
    <dc:type rdf:resource="http://purl.org/dc/dcmitype/StillImage"/>
    <dc:date>2024-04-12T06:12:37.511418</dc:date>
    <dc:format>image/svg+xml</dc:format>
    <dc:creator>
     <cc:Agent>
      <dc:title>Matplotlib v3.8.3, https://matplotlib.org/</dc:title>
     </cc:Agent>
    </dc:creator>
   </cc:Work>
  </rdf:RDF>
 </metadata>
 <defs>
  <style type="text/css">*{stroke-linejoin: round; stroke-linecap: butt}</style>
 </defs>
 <g id="figure_1">
  <g id="patch_1">
   <path d="M 0 432 
L 1080 432 
L 1080 0 
L 0 0 
z
" style="fill: #ffffff"/>
  </g>
  <g id="axes_1">
   <g id="patch_2">
    <path d="M 135 384.48 
L 972 384.48 
L 972 51.84 
L 135 51.84 
z
" style="fill: #ffffff"/>
   </g>
   <g id="matplotlib.axis_1">
    <g id="xtick_1">
     <g id="line2d_1">
      <defs>
       <path id="m5266655e9e" d="M 0 0 
L 0 3.5 
" style="stroke: #000000; stroke-width: 0.8"/>
      </defs>
      <g>
       <use xlink:href="#m5266655e9e" x="173.045455" y="384.48" style="stroke: #000000; stroke-width: 0.8"/>
      </g>
     </g>
     <g id="text_1">
      <!-- 0 -->
      <g transform="translate(170.545455 398.628438) scale(0.1 -0.1)">
       <defs>
        <path id="Times New Roman-30" d="M 1600 4225
Q 1250 4225 1012 3687 
Q 775 3150 775 2250 
Q 775 1300 1012 775 
Q 1250 250 1600 250 
Q 1975 250 2187 775 
Q 2400 1300 2400 2250 
Q 2400 3150 2200 3687 
Q 2000 4225 1600 4225 
z
M 1600 50 
Q 1050 50 675 625 
Q 300 1200 300 2250 
Q 300 3225 662 3825 
Q 1025 4425 1600 4425 
Q 2150 4425 2512 3850 
Q 2875 3275 2875 2250 
Q 2875 1225 2512 637 
Q 2150 50 1600 50 
z
" transform="scale(0.015625)"/>
       </defs>
       <use xlink:href="#Times New Roman-30"/>
      </g>
     </g>
    </g>
    <g id="xtick_2">
     <g id="line2d_2">
      <g>
       <use xlink:href="#m5266655e9e" x="299.969406" y="384.48" style="stroke: #000000; stroke-width: 0.8"/>
      </g>
     </g>
     <g id="text_2">
      <!-- 100 -->
      <g transform="translate(292.469406 398.628438) scale(0.1 -0.1)">
       <defs>
        <path id="Times New Roman-31" d="M 1825 4450
L 1825 650 
Q 1825 450 1950 350 
Q 2075 250 2300 250 
L 2550 250 
L 2550 100 
L 725 100 
L 725 250 
L 950 250 
Q 1200 250 1312 350 
Q 1425 450 1425 650 
L 1425 3675 
Q 1425 3775 1362 3837 
Q 1300 3900 1175 3900 
L 725 3900 
L 725 4050 
L 950 4050 
Q 1250 4050 1437 4150 
Q 1625 4250 1725 4450 
L 1825 4450 
z
" transform="scale(0.015625)"/>
       </defs>
       <use xlink:href="#Times New Roman-31"/>
       <use xlink:href="#Times New Roman-30" x="50"/>
       <use xlink:href="#Times New Roman-30" x="100"/>
      </g>
     </g>
    </g>
    <g id="xtick_3">
     <g id="line2d_3">
      <g>
       <use xlink:href="#m5266655e9e" x="426.893358" y="384.48" style="stroke: #000000; stroke-width: 0.8"/>
      </g>
     </g>
     <g id="text_3">
      <!-- 200 -->
      <g transform="translate(419.393358 398.628438) scale(0.1 -0.1)">
       <defs>
        <path id="Times New Roman-32" d="M 2325 3325
Q 2325 3775 2125 4012 
Q 1925 4250 1525 4250 
Q 1225 4250 1012 4087 
Q 800 3925 800 3675 
Q 800 3525 900 3425 
Q 975 3325 975 3225 
Q 975 3100 912 3037 
Q 850 2975 725 2975 
Q 575 2975 487 3062 
Q 400 3150 400 3350 
Q 400 3875 775 4150 
Q 1150 4425 1575 4425 
Q 2175 4425 2462 4125 
Q 2750 3825 2750 3375 
Q 2750 3075 2612 2775 
Q 2475 2475 2175 2200 
Q 1450 1500 1062 1062 
Q 675 625 600 475 
L 2075 475 
Q 2300 475 2450 650 
Q 2600 825 2650 1175 
L 2800 1175 
L 2650 100 
L 325 100 
L 325 425 
Q 450 650 737 1000 
Q 1025 1350 1500 1825 
Q 1925 2250 2125 2625 
Q 2325 3000 2325 3325 
z
" transform="scale(0.015625)"/>
       </defs>
       <use xlink:href="#Times New Roman-32"/>
       <use xlink:href="#Times New Roman-30" x="50"/>
       <use xlink:href="#Times New Roman-30" x="100"/>
      </g>
     </g>
    </g>
    <g id="xtick_4">
     <g id="line2d_4">
      <g>
       <use xlink:href="#m5266655e9e" x="553.81731" y="384.48" style="stroke: #000000; stroke-width: 0.8"/>
      </g>
     </g>
     <g id="text_4">
      <!-- 300 -->
      <g transform="translate(546.31731 398.628438) scale(0.1 -0.1)">
       <defs>
        <path id="Times New Roman-33" d="M 2800 1250
Q 2800 775 2450 412 
Q 2100 50 1475 50 
Q 1025 50 700 300 
Q 375 550 375 875 
Q 375 1025 475 1137 
Q 575 1250 675 1250 
Q 825 1250 887 1137 
Q 950 1025 950 950 
Q 950 825 900 750 
Q 850 650 850 575 
Q 850 425 1037 325 
Q 1225 225 1450 225 
Q 1900 225 2125 487 
Q 2350 750 2350 1300 
Q 2350 1750 2112 2025 
Q 1875 2300 1225 2300 
L 1225 2475 
Q 1725 2475 1962 2712 
Q 2200 2950 2200 3375 
Q 2200 3725 2012 3987 
Q 1825 4250 1425 4250 
Q 1250 4250 1050 4162 
Q 850 4075 850 3875 
Q 850 3675 900 3625 
Q 950 3575 950 3500 
Q 950 3375 900 3300 
Q 850 3225 725 3225 
Q 625 3225 537 3300 
Q 450 3375 450 3575 
Q 450 3950 775 4187 
Q 1100 4425 1525 4425 
Q 2025 4425 2325 4112 
Q 2625 3800 2625 3450 
Q 2625 3075 2437 2812 
Q 2250 2550 1850 2425 
Q 2400 2225 2600 1900 
Q 2800 1575 2800 1250 
z
" transform="scale(0.015625)"/>
       </defs>
       <use xlink:href="#Times New Roman-33"/>
       <use xlink:href="#Times New Roman-30" x="50"/>
       <use xlink:href="#Times New Roman-30" x="100"/>
      </g>
     </g>
    </g>
    <g id="xtick_5">
     <g id="line2d_5">
      <g>
       <use xlink:href="#m5266655e9e" x="680.741262" y="384.48" style="stroke: #000000; stroke-width: 0.8"/>
      </g>
     </g>
     <g id="text_5">
      <!-- 400 -->
      <g transform="translate(673.241262 398.628438) scale(0.1 -0.1)">
       <defs>
        <path id="Times New Roman-34" d="M 2300 575
Q 2300 400 2400 325 
Q 2500 250 2675 250 
L 2900 250 
L 2900 100 
L 1250 100 
L 1250 250 
L 1525 250 
Q 1725 250 1812 325 
Q 1900 400 1900 575 
L 1900 1400 
L 225 1400 
L 225 1525 
L 2050 4425 
L 2300 4425 
L 2300 1550 
L 2975 1550 
L 2975 1400 
L 2300 1400 
L 2300 575 
z
M 1875 3800 
L 450 1550 
L 1900 1550 
L 1900 3800 
L 1875 3800 
z
" transform="scale(0.015625)"/>
       </defs>
       <use xlink:href="#Times New Roman-34"/>
       <use xlink:href="#Times New Roman-30" x="50"/>
       <use xlink:href="#Times New Roman-30" x="100"/>
      </g>
     </g>
    </g>
    <g id="xtick_6">
     <g id="line2d_6">
      <g>
       <use xlink:href="#m5266655e9e" x="807.665213" y="384.48" style="stroke: #000000; stroke-width: 0.8"/>
      </g>
     </g>
     <g id="text_6">
      <!-- 500 -->
      <g transform="translate(800.165213 398.628438) scale(0.1 -0.1)">
       <defs>
        <path id="Times New Roman-35" d="M 1725 2850
Q 2200 2850 2500 2487 
Q 2800 2125 2800 1525 
Q 2800 850 2487 450 
Q 2175 50 1525 50 
Q 1075 50 725 312 
Q 375 575 375 950 
Q 375 1100 462 1212 
Q 550 1325 700 1325 
Q 850 1325 900 1225 
Q 950 1125 950 1050 
Q 950 900 875 825 
Q 800 725 800 625 
Q 800 425 1037 325 
Q 1275 225 1550 225 
Q 1950 225 2162 550 
Q 2375 875 2375 1475 
Q 2375 1975 2187 2287 
Q 2000 2600 1625 2600 
Q 1350 2600 1150 2500 
Q 950 2400 775 2075 
L 550 2100 
L 675 4375 
L 2725 4375 
L 2650 4000 
L 850 4000 
L 750 2350 
Q 1000 2700 1237 2775 
Q 1475 2850 1725 2850 
z
" transform="scale(0.015625)"/>
       </defs>
       <use xlink:href="#Times New Roman-35"/>
       <use xlink:href="#Times New Roman-30" x="50"/>
       <use xlink:href="#Times New Roman-30" x="100"/>
      </g>
     </g>
    </g>
    <g id="xtick_7">
     <g id="line2d_7">
      <g>
       <use xlink:href="#m5266655e9e" x="934.589165" y="384.48" style="stroke: #000000; stroke-width: 0.8"/>
      </g>
     </g>
     <g id="text_7">
      <!-- 600 -->
      <g transform="translate(927.089165 398.628438) scale(0.1 -0.1)">
       <defs>
        <path id="Times New Roman-36" d="M 775 1800
Q 775 1050 1037 637 
Q 1300 225 1675 225 
Q 2050 225 2250 500 
Q 2450 775 2450 1525 
Q 2450 2025 2237 2300 
Q 2025 2575 1725 2575 
Q 1450 2575 1212 2412 
Q 975 2250 775 1800 
z
M 1750 2825 
Q 2350 2825 2612 2425 
Q 2875 2025 2875 1525 
Q 2875 775 2512 412 
Q 2150 50 1675 50 
Q 1000 50 650 562 
Q 300 1075 300 2050 
Q 300 3200 725 3812 
Q 1150 4425 1875 4425 
Q 2225 4425 2437 4225 
Q 2650 4025 2650 3875 
Q 2650 3725 2587 3650 
Q 2525 3575 2375 3575 
Q 2250 3575 2187 3637 
Q 2125 3700 2125 3825 
Q 2125 3875 2150 3925 
Q 2150 3975 2150 4025 
Q 2150 4125 2075 4187 
Q 2000 4250 1800 4250 
Q 1375 4250 1075 3862 
Q 775 3475 775 2175 
Q 925 2500 1187 2662 
Q 1450 2825 1750 2825 
z
" transform="scale(0.015625)"/>
       </defs>
       <use xlink:href="#Times New Roman-36"/>
       <use xlink:href="#Times New Roman-30" x="50"/>
       <use xlink:href="#Times New Roman-30" x="100"/>
      </g>
     </g>
    </g>
   </g>
   <g id="matplotlib.axis_2">
    <g id="ytick_1">
     <g id="line2d_8">
      <defs>
       <path id="m06d5d40e9c" d="M 0 0 
L -3.5 0 
" style="stroke: #000000; stroke-width: 0.8"/>
      </defs>
      <g>
       <use xlink:href="#m06d5d40e9c" x="135" y="378.2199" style="stroke: #000000; stroke-width: 0.8"/>
      </g>
     </g>
     <g id="text_8">
      <!-- 0 -->
      <g transform="translate(123 381.794119) scale(0.1 -0.1)">
       <use xlink:href="#Times New Roman-30"/>
      </g>
     </g>
    </g>
    <g id="ytick_2">
     <g id="line2d_9">
      <g>
       <use xlink:href="#m06d5d40e9c" x="135" y="315.826235" style="stroke: #000000; stroke-width: 0.8"/>
      </g>
     </g>
     <g id="text_9">
      <!-- 1000 -->
      <g transform="translate(108 319.400454) scale(0.1 -0.1)">
       <use xlink:href="#Times New Roman-31"/>
       <use xlink:href="#Times New Roman-30" x="50"/>
       <use xlink:href="#Times New Roman-30" x="100"/>
       <use xlink:href="#Times New Roman-30" x="150"/>
      </g>
     </g>
    </g>
    <g id="ytick_3">
     <g id="line2d_10">
      <g>
       <use xlink:href="#m06d5d40e9c" x="135" y="253.43257" style="stroke: #000000; stroke-width: 0.8"/>
      </g>
     </g>
     <g id="text_10">
      <!-- 2000 -->
      <g transform="translate(108 257.006789) scale(0.1 -0.1)">
       <use xlink:href="#Times New Roman-32"/>
       <use xlink:href="#Times New Roman-30" x="50"/>
       <use xlink:href="#Times New Roman-30" x="100"/>
       <use xlink:href="#Times New Roman-30" x="150"/>
      </g>
     </g>
    </g>
    <g id="ytick_4">
     <g id="line2d_11">
      <g>
       <use xlink:href="#m06d5d40e9c" x="135" y="191.038905" style="stroke: #000000; stroke-width: 0.8"/>
      </g>
     </g>
     <g id="text_11">
      <!-- 3000 -->
      <g transform="translate(108 194.613123) scale(0.1 -0.1)">
       <use xlink:href="#Times New Roman-33"/>
       <use xlink:href="#Times New Roman-30" x="50"/>
       <use xlink:href="#Times New Roman-30" x="100"/>
       <use xlink:href="#Times New Roman-30" x="150"/>
      </g>
     </g>
    </g>
    <g id="ytick_5">
     <g id="line2d_12">
      <g>
       <use xlink:href="#m06d5d40e9c" x="135" y="128.645239" style="stroke: #000000; stroke-width: 0.8"/>
      </g>
     </g>
     <g id="text_12">
      <!-- 4000 -->
      <g transform="translate(108 132.219458) scale(0.1 -0.1)">
       <use xlink:href="#Times New Roman-34"/>
       <use xlink:href="#Times New Roman-30" x="50"/>
       <use xlink:href="#Times New Roman-30" x="100"/>
       <use xlink:href="#Times New Roman-30" x="150"/>
      </g>
     </g>
    </g>
    <g id="ytick_6">
     <g id="line2d_13">
      <g>
       <use xlink:href="#m06d5d40e9c" x="135" y="66.251574" style="stroke: #000000; stroke-width: 0.8"/>
      </g>
     </g>
     <g id="text_13">
      <!-- 5000 -->
      <g transform="translate(108 69.825793) scale(0.1 -0.1)">
       <use xlink:href="#Times New Roman-35"/>
       <use xlink:href="#Times New Roman-30" x="50"/>
       <use xlink:href="#Times New Roman-30" x="100"/>
       <use xlink:href="#Times New Roman-30" x="150"/>
      </g>
     </g>
    </g>
    <g id="text_14">
     <!-- Bitrate (kbps) -->
     <g transform="translate(102.710938 253.16) rotate(-90) scale(0.1 -0.1)">
      <defs>
       <path id="Times New Roman-42" d="M 100 100
L 100 250 
L 300 250 
Q 425 250 475 300 
Q 525 350 525 450 
L 525 4025 
Q 525 4125 475 4175 
Q 425 4225 300 4225 
L 150 4225 
L 150 4375 
L 1600 4375 
Q 2200 4375 2487 4137 
Q 2775 3900 2775 3400 
Q 2775 3050 2625 2825 
Q 2475 2600 2000 2425 
Q 2575 2250 2775 1925 
Q 2975 1600 2975 1200 
Q 2975 700 2625 400 
Q 2275 100 1675 100 
L 100 100 
z
M 1600 250 
Q 2025 250 2262 512 
Q 2500 775 2500 1250 
Q 2500 1800 2250 2062 
Q 2000 2325 1500 2325 
L 925 2325 
L 925 450 
Q 925 350 987 300 
Q 1050 250 1150 250 
L 1600 250 
z
M 2350 3400 
Q 2350 3850 2100 4037 
Q 1850 4225 1450 4225 
L 1150 4225 
Q 1050 4225 987 4175 
Q 925 4125 925 4025 
L 925 2475 
L 1575 2475 
Q 1850 2475 2100 2700 
Q 2350 2925 2350 3400 
z
" transform="scale(0.015625)"/>
       <path id="Times New Roman-69" d="M 1425 2525
Q 1425 2625 1375 2687 
Q 1325 2750 1200 2750 
L 675 2750 
L 675 2900 
L 925 2900 
Q 1150 2900 1350 2937 
Q 1550 2975 1725 3075 
L 1775 3075 
L 1775 450 
Q 1775 350 1837 300 
Q 1900 250 2000 250 
L 2525 250 
L 2525 100 
L 675 100 
L 675 250 
L 1200 250 
Q 1325 250 1375 300 
Q 1425 350 1425 450 
L 1425 2525 
z
M 1725 3025 
L 1725 3025 
z
M 1625 4425 
Q 1750 4425 1850 4337 
Q 1950 4250 1950 4125 
Q 1950 4000 1850 3900 
Q 1750 3800 1625 3800 
Q 1500 3800 1400 3900 
Q 1300 4000 1300 4125 
Q 1300 4250 1400 4337 
Q 1500 4425 1625 4425 
z
" transform="scale(0.015625)"/>
       <path id="Times New Roman-74" d="M 1500 900
Q 1500 550 1625 425 
Q 1750 300 2000 300 
Q 2250 300 2400 462 
Q 2550 625 2600 925 
L 2725 875 
Q 2675 525 2462 300 
Q 2250 75 1900 75 
Q 1525 75 1337 300 
Q 1150 525 1150 1000 
L 1150 2750 
L 400 2750 
L 400 2900 
L 600 2900 
Q 900 2900 1087 3087 
Q 1275 3275 1325 3675 
L 1350 3875 
L 1500 3875 
L 1500 2900 
L 2500 2900 
L 2500 2750 
L 1500 2750 
L 1500 900 
z
" transform="scale(0.015625)"/>
       <path id="Times New Roman-72" d="M 1275 2125
Q 1525 2525 1812 2737 
Q 2100 2950 2400 2950 
Q 2650 2950 2787 2837 
Q 2925 2725 2925 2575 
Q 2925 2450 2862 2375 
Q 2800 2300 2675 2300 
Q 2550 2300 2487 2375 
Q 2425 2450 2450 2575 
Q 2450 2650 2425 2700 
Q 2400 2750 2275 2750 
Q 2075 2750 1787 2500 
Q 1500 2250 1275 1800 
L 1275 450 
Q 1275 350 1337 300 
Q 1400 250 1500 250 
L 2050 250 
L 2050 100 
L 200 100 
L 200 250 
L 700 250 
Q 825 250 875 300 
Q 925 350 925 450 
L 925 2525 
Q 925 2625 875 2687 
Q 825 2750 700 2750 
L 225 2750 
L 225 2900 
L 425 2900 
Q 600 2900 837 2937 
Q 1075 2975 1200 3025 
L 1275 3025 
L 1275 2125 
z
" transform="scale(0.015625)"/>
       <path id="Times New Roman-61" d="M 1225 75
Q 775 75 525 287 
Q 275 500 275 775 
Q 275 1225 662 1512 
Q 1050 1800 2200 1925 
L 2200 2225 
Q 2200 2475 2087 2637 
Q 1975 2800 1575 2800 
Q 1150 2800 975 2662 
Q 800 2525 850 2375 
Q 875 2325 875 2275 
Q 875 2225 837 2150 
Q 800 2075 650 2075 
Q 550 2075 487 2137 
Q 425 2200 425 2325 
Q 425 2550 750 2750 
Q 1075 2950 1550 2950 
Q 2050 2950 2300 2762 
Q 2550 2575 2550 2225 
L 2550 575 
Q 2550 375 2587 337 
Q 2625 300 2725 300 
Q 2850 300 2900 412 
Q 2950 525 2950 725 
L 3075 725 
Q 3075 375 2950 237 
Q 2825 100 2625 100 
Q 2450 100 2350 175 
Q 2250 250 2200 425 
Q 1950 250 1737 162 
Q 1525 75 1225 75 
z
M 700 850 
Q 700 625 837 437 
Q 975 250 1275 250 
Q 1500 250 1725 337 
Q 1950 425 2200 600 
L 2200 1775 
Q 1350 1675 1025 1437 
Q 700 1200 700 850 
z
" transform="scale(0.015625)"/>
       <path id="Times New Roman-65" d="M 2400 1650
Q 2425 2200 2212 2487 
Q 2000 2775 1650 2775 
Q 1275 2775 1037 2475 
Q 800 2175 800 1650 
L 2400 1650 
z
M 800 1500 
Q 800 825 1062 537 
Q 1325 250 1750 250 
Q 2075 250 2300 437 
Q 2525 625 2625 900 
L 2750 850 
Q 2675 575 2412 312 
Q 2150 50 1700 50 
Q 1125 50 762 425 
Q 400 800 400 1500 
Q 400 2125 762 2537 
Q 1125 2950 1650 2950 
Q 2125 2950 2475 2625 
Q 2825 2300 2825 1500 
L 800 1500 
z
" transform="scale(0.015625)"/>
       <path id="Times New Roman-20" d="M 0 0
Q 0 0 0 0 
z
" transform="scale(0.015625)"/>
       <path id="Times New Roman-28" d="M 2900 5025
Q 2325 4425 2037 3737 
Q 1750 3050 1750 2300 
Q 1750 1525 2037 850 
Q 2325 175 2900 -425 
L 2775 -550 
Q 2075 75 1725 787 
Q 1375 1500 1375 2300 
Q 1375 3075 1725 3787 
Q 2075 4500 2775 5150 
L 2900 5025 
z
" transform="scale(0.015625)"/>
       <path id="Times New Roman-6b" d="M 1675 1900
L 2625 425 
Q 2700 325 2762 287 
Q 2825 250 2900 250 
L 3000 250 
L 3000 100 
L 1975 100 
L 1975 250 
L 2050 250 
Q 2175 250 2225 287 
Q 2275 325 2200 425 
L 1425 1650 
L 925 1125 
L 925 450 
Q 925 350 987 300 
Q 1050 250 1150 250 
L 1275 250 
L 1275 100 
L 225 100 
L 225 250 
L 350 250 
Q 475 250 525 300 
Q 575 350 575 450 
L 575 4025 
Q 575 4125 525 4175 
Q 475 4225 350 4225 
L 200 4225 
L 200 4375 
L 425 4375 
Q 575 4375 687 4425 
Q 800 4475 875 4575 
L 925 4575 
L 925 1400 
L 1975 2525 
Q 2025 2625 2012 2687 
Q 2000 2750 1900 2750 
L 1750 2750 
L 1750 2900 
L 2800 2900 
L 2800 2750 
L 2675 2750 
Q 2600 2750 2487 2712 
Q 2375 2675 2275 2575 
L 1675 1900 
z
M 2450 2750 
L 2450 2750 
z
M 2175 2750 
L 2175 2750 
z
M 2300 250 
L 2300 250 
z
M 2750 250 
L 2750 250 
z
" transform="scale(0.015625)"/>
       <path id="Times New Roman-62" d="M 875 2325
Q 1000 2600 1275 2762 
Q 1550 2925 1800 2925 
Q 2325 2925 2587 2562 
Q 2850 2200 2850 1500 
Q 2850 800 2512 437 
Q 2175 75 1675 75 
Q 1425 75 1212 162 
Q 1000 250 850 400 
L 625 100 
L 525 100 
L 525 4025 
Q 525 4125 475 4175 
Q 425 4225 300 4225 
L 150 4225 
L 150 4375 
L 375 4375 
Q 500 4375 625 4425 
Q 750 4475 875 4575 
L 875 2325 
z
M 875 925 
Q 875 650 1062 450 
Q 1250 250 1625 250 
Q 2075 250 2262 562 
Q 2450 875 2450 1500 
Q 2450 2100 2287 2412 
Q 2125 2725 1775 2725 
Q 1475 2725 1250 2550 
Q 1025 2375 875 1925 
L 875 925 
z
" transform="scale(0.015625)"/>
       <path id="Times New Roman-70" d="M 1150 -675
L 1325 -675 
L 1325 -825 
L 175 -825 
L 175 -675 
L 325 -675 
Q 450 -675 500 -625 
Q 550 -575 550 -450 
L 550 2500 
Q 550 2600 500 2662 
Q 450 2725 325 2725 
L 175 2725 
L 175 2875 
L 400 2875 
Q 525 2875 637 2900 
Q 750 2925 850 3000 
L 900 3000 
L 900 2425 
Q 1075 2675 1287 2800 
Q 1500 2925 1750 2925 
Q 2250 2925 2575 2587 
Q 2900 2250 2900 1525 
Q 2900 825 2550 450 
Q 2200 75 1725 75 
Q 1450 75 1262 162 
Q 1075 250 900 425 
L 900 -450 
Q 900 -575 975 -625 
Q 1050 -675 1150 -675 
z
M 900 750 
Q 1025 500 1212 375 
Q 1400 250 1650 250 
Q 2000 250 2250 562 
Q 2500 875 2500 1525 
Q 2500 2125 2312 2425 
Q 2125 2725 1750 2725 
Q 1525 2725 1300 2587 
Q 1075 2450 900 2150 
L 900 750 
z
" transform="scale(0.015625)"/>
       <path id="Times New Roman-73" d="M 625 2175
Q 625 2550 912 2750 
Q 1200 2950 1600 2950 
Q 1825 2950 2025 2900 
Q 2225 2825 2300 2825 
Q 2375 2825 2425 2850 
Q 2475 2875 2550 2950 
L 2650 2125 
L 2500 2100 
Q 2400 2425 2162 2612 
Q 1925 2800 1625 2800 
Q 1300 2800 1112 2675 
Q 925 2550 925 2325 
Q 925 2125 1012 2012 
Q 1100 1900 1325 1850 
Q 1500 1775 1775 1700 
Q 2025 1600 2250 1500 
Q 2450 1400 2587 1237 
Q 2725 1075 2725 875 
Q 2725 500 2462 287 
Q 2200 75 1700 75 
Q 1375 75 1225 150 
Q 1050 200 950 200 
Q 875 200 787 162 
Q 700 125 600 75 
L 525 1000 
L 675 1025 
Q 750 625 1000 425 
Q 1250 225 1700 225 
Q 2050 225 2237 350 
Q 2425 475 2425 725 
Q 2425 900 2325 1012 
Q 2225 1125 2125 1175 
Q 1875 1275 1575 1400 
Q 1275 1500 1050 1600 
Q 825 1700 725 1850 
Q 625 2000 625 2175 
z
" transform="scale(0.015625)"/>
       <path id="Times New Roman-29" d="M 275 5025
L 400 5150 
Q 1100 4500 1450 3787 
Q 1800 3075 1800 2300 
Q 1800 1500 1450 787 
Q 1100 75 400 -550 
L 275 -425 
Q 850 175 1137 850 
Q 1425 1525 1425 2300 
Q 1425 3050 1137 3737 
Q 850 4425 275 5025 
z
" transform="scale(0.015625)"/>
      </defs>
      <use xlink:href="#Times New Roman-42"/>
      <use xlink:href="#Times New Roman-69" x="50"/>
      <use xlink:href="#Times New Roman-74" x="100"/>
      <use xlink:href="#Times New Roman-72" x="150"/>
      <use xlink:href="#Times New Roman-61" x="200"/>
      <use xlink:href="#Times New Roman-74" x="250"/>
      <use xlink:href="#Times New Roman-65" x="300"/>
      <use xlink:href="#Times New Roman-20" x="350"/>
      <use xlink:href="#Times New Roman-28" x="400"/>
      <use xlink:href="#Times New Roman-6b" x="450"/>
      <use xlink:href="#Times New Roman-62" x="500"/>
      <use xlink:href="#Times New Roman-70" x="550"/>
      <use xlink:href="#Times New Roman-73" x="600"/>
      <use xlink:href="#Times New Roman-29" x="650"/>
     </g>
    </g>
   </g>
   <g id="line2d_14">
    <path d="M 173.045455 310.023624 
L 174.949314 310.023624 
L 175.583934 369.36 
L 177.487793 369.36 
L 178.122413 310.023624 
L 182.564751 310.023624 
L 183.199371 259.422362 
L 188.910949 259.422362 
L 190.180188 337.851199 
L 192.718667 337.851199 
L 193.353287 310.023624 
L 207.949541 310.023624 
L 208.584161 259.422362 
L 221.911176 259.422362 
L 223.180415 135.758117 
L 225.084275 135.758117 
L 225.718895 259.422362 
L 238.41129 259.422362 
L 239.045909 135.758117 
L 244.122868 135.758117 
L 244.757487 259.422362 
L 246.026727 259.422362 
L 247.295966 135.758117 
L 252.372924 135.758117 
L 253.642164 259.422362 
L 256.180643 259.422362 
L 257.449882 135.758117 
L 259.988362 135.758117 
L 261.257601 259.422362 
L 279.661574 259.422362 
L 280.296194 310.023624 
L 296.796308 310.023624 
L 297.430927 337.851199 
L 308.219463 337.851199 
L 309.488703 369.36 
L 322.181098 369.36 
L 322.815718 337.851199 
L 328.527295 337.851199 
L 329.796535 369.36 
L 341.85431 369.36 
L 342.48893 337.851199 
L 343.75817 310.023624 
L 346.296649 310.023624 
L 347.565888 259.422362 
L 348.835128 259.422362 
L 350.104367 135.758117 
L 350.738987 135.758117 
L 351.373607 310.023624 
L 355.181325 310.023624 
L 356.450565 259.422362 
L 361.527523 259.422362 
L 362.796762 135.758117 
L 368.50834 135.758117 
L 369.14296 259.422362 
L 376.758397 259.422362 
L 378.027637 135.758117 
L 409.124005 135.758117 
L 409.758625 259.422362 
L 412.297104 259.422362 
L 413.566343 135.758117 
L 421.8164 135.758117 
L 422.45102 259.422362 
L 427.527978 259.422362 
L 428.797217 135.758117 
L 431.970316 135.758117 
L 432.604936 259.422362 
L 436.412654 259.422362 
L 437.681894 135.758117 
L 438.951134 310.023624 
L 440.220373 310.023624 
L 441.489613 259.422362 
L 444.662711 259.422362 
L 445.297331 310.023624 
L 455.451247 310.023624 
L 456.720487 337.851199 
L 469.412882 337.851199 
L 470.047502 369.36 
L 471.951361 369.36 
L 473.220601 310.023624 
L 475.75908 310.023624 
L 477.028319 369.36 
L 478.297559 369.36 
L 479.566798 310.023624 
L 482.739897 310.023624 
L 483.374517 259.422362 
L 490.989954 259.422362 
L 492.259193 337.851199 
L 493.528433 337.851199 
L 494.797672 259.422362 
L 495.432292 259.422362 
L 496.066912 369.36 
L 498.605391 369.36 
L 499.87463 259.422362 
L 500.50925 259.422362 
L 501.14387 310.023624 
L 503.682349 310.023624 
L 504.951588 135.758117 
L 506.855448 135.758117 
L 507.490067 259.422362 
L 508.124687 259.422362 
L 508.759307 310.023624 
L 511.297786 310.023624 
L 512.567026 259.422362 
L 513.836265 259.422362 
L 515.105505 135.758117 
L 520.817082 135.758117 
L 521.451702 259.422362 
L 525.259421 259.422362 
L 525.89404 135.758117 
L 528.43252 135.758117 
L 529.067139 259.422362 
L 531.605618 259.422362 
L 532.874858 135.758117 
L 533.509478 135.758117 
L 534.144097 259.422362 
L 537.951816 259.422362 
L 538.586436 135.758117 
L 540.490295 135.758117 
L 541.124915 259.422362 
L 546.201873 259.422362 
L 546.836493 135.758117 
L 556.355789 135.758117 
L 556.990409 259.422362 
L 562.067367 259.422362 
L 563.336606 135.758117 
L 564.605846 135.758117 
L 565.875085 259.422362 
L 570.952043 259.422362 
L 571.586663 135.758117 
L 574.125142 135.758117 
L 574.759762 259.422362 
L 577.298241 259.422362 
L 578.56748 135.758117 
L 580.47134 135.758117 
L 581.10596 259.422362 
L 584.913678 259.422362 
L 586.182918 135.758117 
L 588.721397 135.758117 
L 589.990636 259.422362 
L 595.702214 259.422362 
L 596.336834 310.023624 
L 596.971453 310.023624 
L 597.606073 337.851199 
L 600.144552 337.851199 
L 601.413792 259.422362 
L 602.048412 259.422362 
L 602.683031 310.023624 
L 609.663849 310.023624 
L 610.298468 337.851199 
L 612.836947 337.851199 
L 614.106187 369.36 
L 633.14478 369.36 
L 634.414019 337.851199 
L 635.683259 337.851199 
L 636.952498 369.36 
L 639.490977 369.36 
L 640.125597 337.851199 
L 640.760217 337.851199 
L 642.029456 369.36 
L 643.298696 369.36 
L 644.567935 310.023624 
L 645.837175 310.023624 
L 647.106414 337.851199 
L 650.914133 337.851199 
L 652.183373 310.023624 
L 652.817992 310.023624 
L 653.452612 337.851199 
L 655.991091 337.851199 
L 657.260331 259.422362 
L 658.52957 259.422362 
L 659.79881 310.023624 
L 664.875768 310.023624 
L 665.510387 259.422362 
L 666.145007 310.023624 
L 668.683486 310.023624 
L 669.952726 135.758117 
L 671.221965 135.758117 
L 672.491205 259.422362 
L 676.298923 259.422362 
L 677.568163 135.758117 
L 678.837402 135.758117 
L 680.106642 259.422362 
L 681.375881 259.422362 
L 682.645121 135.758117 
L 690.895178 135.758117 
L 691.529798 259.422362 
L 694.068277 259.422362 
L 695.337516 135.758117 
L 701.049094 135.758117 
L 701.683714 259.422362 
L 704.222193 259.422362 
L 705.491432 135.758117 
L 706.126052 135.758117 
L 706.760672 259.422362 
L 709.299151 259.422362 
L 710.56839 135.758117 
L 715.010729 135.758117 
L 715.645348 259.422362 
L 719.453067 259.422362 
L 720.722306 135.758117 
L 724.530025 135.758117 
L 725.799265 259.422362 
L 730.876223 259.422362 
L 731.510842 135.758117 
L 732.145462 259.422362 
L 734.683941 259.422362 
L 735.953181 135.758117 
L 738.49166 135.758117 
L 739.126279 259.422362 
L 741.030139 259.422362 
L 741.664759 310.023624 
L 743.568618 310.023624 
L 744.203238 259.422362 
L 745.472477 259.422362 
L 746.107097 310.023624 
L 749.280196 310.023624 
L 749.914815 337.851199 
L 752.453294 337.851199 
L 753.722534 310.023624 
L 754.357154 310.023624 
L 754.991773 337.851199 
L 765.14569 337.851199 
L 766.414929 369.36 
L 782.915043 369.36 
L 784.184282 337.851199 
L 786.088142 337.851199 
L 786.722761 369.36 
L 793.068959 369.36 
L 794.338198 337.851199 
L 796.242058 337.851199 
L 796.876678 369.36 
L 798.145917 369.36 
L 799.415157 337.851199 
L 803.222875 337.851199 
L 803.857495 135.758117 
L 804.492115 310.023624 
L 818.453749 310.023624 
L 819.722989 135.758117 
L 820.357609 135.758117 
L 820.992228 259.422362 
L 823.530707 259.422362 
L 824.799947 135.758117 
L 825.434567 135.758117 
L 826.069186 259.422362 
L 828.607665 259.422362 
L 829.876905 135.758117 
L 884.454204 135.758117 
L 885.723444 259.422362 
L 904.127417 259.422362 
L 904.762037 310.023624 
L 914.281333 310.023624 
L 914.915953 337.851199 
L 922.53139 337.851199 
L 923.800629 369.36 
L 925.069869 369.36 
L 926.339108 310.023624 
L 927.608348 310.023624 
L 928.877587 369.36 
L 932.685306 369.36 
L 933.319926 310.023624 
L 933.954545 369.36 
L 933.954545 369.36 
" clip-path="url(#p574235420f)" style="fill: none; stroke: #ff0000; stroke-width: 1.5; stroke-linecap: square"/>
   </g>
   <g id="line2d_15">
    <path d="M 173.045455 343.748149 
L 174.949314 341.130984 
L 175.583934 339.677004 
L 176.218553 336.762388 
L 176.853173 335.2396 
L 178.757032 328.420804 
L 180.026272 326.16435 
L 181.295511 320.733272 
L 182.564751 317.47193 
L 183.83399 310.539079 
L 185.10323 306.858485 
L 185.73785 303.100623 
L 186.372469 300.866464 
L 187.641709 298.498167 
L 188.276329 296.007811 
L 188.910949 291.866702 
L 190.180188 287.641602 
L 191.449428 276.307385 
L 192.084047 271.628859 
L 193.353287 265.05453 
L 193.987907 261.227186 
L 195.257146 256.926449 
L 196.526386 246.488371 
L 200.334104 230.140432 
L 202.872583 217.875901 
L 204.141823 206.572032 
L 206.680302 194.996027 
L 207.949541 188.536536 
L 209.218781 175.129119 
L 210.48802 168.982162 
L 211.75726 158.93768 
L 214.295739 149.502826 
L 215.564978 144.317763 
L 216.834218 143.003469 
L 218.103457 141.400335 
L 219.372697 139.360112 
L 220.641936 133.598797 
L 221.276556 128.884898 
L 221.911176 121.798009 
L 223.180415 115.234461 
L 223.815035 109.078586 
L 225.084275 102.986169 
L 225.718895 98.467703 
L 226.988134 94.184136 
L 228.257374 90.518251 
L 229.526613 88.014351 
L 230.795853 85.835032 
L 233.334332 80.733526 
L 235.872811 75.177861 
L 236.50743 72.357535 
L 237.14205 70.980781 
L 237.77667 70.939984 
L 238.41129 71.361233 
L 239.680529 71.283931 
L 240.949769 71.380633 
L 241.584389 71.169093 
L 242.219008 70.614239 
L 243.488248 70.92238 
L 244.122868 71.60342 
L 244.757487 72.019577 
L 245.392107 71.762881 
L 246.026727 72.210851 
L 247.295966 73.400624 
L 248.565206 75.013575 
L 249.834445 94.197048 
L 252.372924 137.53459 
L 253.642164 142.114617 
L 254.911403 145.460881 
L 256.180643 132.020787 
L 258.719122 111.273745 
L 259.988362 118.364494 
L 261.257601 122.862827 
L 262.526841 127.820645 
L 263.79608 128.913649 
L 266.334559 132.558004 
L 268.873038 145.61229 
L 270.142278 157.49404 
L 273.949996 174.826335 
L 275.219236 186.728451 
L 276.488475 192.774081 
L 277.757715 203.269527 
L 279.026954 208.502675 
L 280.296194 218.856629 
L 281.565433 223.730224 
L 282.834673 233.337051 
L 284.103912 237.803972 
L 285.373152 242.79054 
L 286.642391 248.416984 
L 289.18087 261.294305 
L 290.45011 273.669182 
L 291.719349 279.001594 
L 292.988589 288.091136 
L 295.527068 296.640533 
L 296.796308 301.274202 
L 298.065547 310.047916 
L 300.604026 318.221819 
L 306.950224 337.380601 
L 308.219463 340.593259 
L 309.488703 343.435282 
L 310.757942 345.870399 
L 312.027182 347.975744 
L 313.296421 349.695846 
L 314.565661 351.009241 
L 315.200281 351.921919 
L 315.8349 353.442561 
L 317.10414 355.523181 
L 318.373379 357.29586 
L 319.642619 357.859966 
L 320.911858 357.257526 
L 321.546478 355.550568 
L 322.815718 349.716544 
L 323.450337 347.550835 
L 324.719577 346.171918 
L 325.988816 342.966348 
L 327.258056 341.089014 
L 328.527295 339.805003 
L 329.796535 338.186661 
L 331.065775 336.067872 
L 332.335014 332.500352 
L 333.604254 328.258215 
L 336.142733 316.667169 
L 337.411972 310.505503 
L 341.219691 294.034108 
L 342.48893 284.078042 
L 343.75817 279.374525 
L 345.027409 274.001415 
L 346.296649 262.833149 
L 347.565888 257.043682 
L 348.200508 251.218177 
L 350.104367 261.41846 
L 350.738987 271.325276 
L 351.373607 279.014405 
L 352.642846 284.936978 
L 353.912086 287.866253 
L 355.181325 285.946125 
L 356.450565 285.681543 
L 357.719804 285.634789 
L 358.989044 293.403416 
L 360.258283 288.575045 
L 360.892903 277.887925 
L 361.527523 256.915434 
L 362.796762 237.918909 
L 365.335241 188.177914 
L 366.604481 182.618089 
L 367.873721 181.917483 
L 368.50834 181.36995 
L 369.14296 169.527499 
L 370.4122 167.232044 
L 371.681439 167.852287 
L 372.950679 168.78736 
L 373.585298 166.963535 
L 374.219918 170.383806 
L 375.489158 178.488727 
L 376.123777 179.988338 
L 376.758397 184.857439 
L 378.027637 192.180559 
L 379.296876 210.109104 
L 380.566116 222.687501 
L 383.104595 251.314946 
L 383.739214 266.2064 
L 384.373834 277.262191 
L 385.643074 282.127466 
L 386.277694 273.172129 
L 386.912313 267.2234 
L 388.181553 257.485563 
L 389.450792 230.902301 
L 390.720032 225.378348 
L 391.989271 212.265263 
L 393.258511 211.550082 
L 394.52775 217.461441 
L 395.79699 219.611144 
L 397.066229 228.170756 
L 398.335469 235.422197 
L 398.970089 233.884751 
L 399.604708 220.953123 
L 400.873948 214.697351 
L 402.143188 215.286347 
L 403.412427 212.420532 
L 404.681667 217.377517 
L 405.950906 227.422431 
L 406.585526 246.531864 
L 407.220146 253.429176 
L 408.489385 260.926398 
L 409.124005 258.908338 
L 409.758625 260.107028 
L 411.027864 252.061007 
L 411.662484 245.706437 
L 412.297104 251.604785 
L 414.200963 263.194234 
L 414.835583 258.499302 
L 416.104822 251.190191 
L 417.374062 246.452333 
L 418.643301 250.412816 
L 419.912541 264.589189 
L 421.18178 284.917744 
L 421.8164 301.449237 
L 422.45102 312.659765 
L 423.720259 315.917646 
L 424.989499 317.557718 
L 426.258738 308.32066 
L 426.893358 296.152764 
L 427.527978 271.410597 
L 428.797217 258.898654 
L 430.066457 253.653693 
L 431.335696 256.834938 
L 431.970316 258.084741 
L 432.604936 262.958469 
L 433.874175 262.017406 
L 435.143415 259.402995 
L 436.412654 257.562598 
L 437.681894 264.473953 
L 438.951134 275.626745 
L 439.585753 287.540308 
L 440.220373 294.4103 
L 441.489613 300.807531 
L 442.758852 306.051727 
L 444.028092 315.2407 
L 445.297331 331.698052 
L 446.566571 336.293487 
L 447.20119 337.509448 
L 447.83581 337.575835 
L 449.10505 335.643295 
L 450.374289 328.33312 
L 451.643529 326.798402 
L 452.912768 326.706692 
L 454.182008 327.044949 
L 454.816627 328.262241 
L 455.451247 330.637992 
L 457.989726 335.313424 
L 459.258966 338.06184 
L 460.528205 343.044215 
L 463.066684 347.133579 
L 464.335924 348.867658 
L 464.970544 350.372559 
L 465.605163 351.5416 
L 466.874403 352.46476 
L 468.143642 352.901683 
L 469.412882 352.959318 
L 471.951361 352.312953 
L 473.220601 351.72755 
L 474.48984 350.83587 
L 475.75908 348.19933 
L 477.028319 346.573534 
L 478.297559 343.23722 
L 479.566798 341.407904 
L 480.836038 339.13165 
L 482.105277 336.453448 
L 483.374517 330.55703 
L 485.912996 323.825802 
L 487.182235 316.651462 
L 488.451475 313.67793 
L 489.720714 310.240887 
L 490.989954 307.886733 
L 492.259193 308.736751 
L 492.893813 314.058914 
L 493.528433 321.896257 
L 494.797672 325.318325 
L 495.432292 323.159537 
L 496.066912 312.86202 
L 497.336151 299.216043 
L 497.970771 283.360598 
L 498.605391 278.20159 
L 499.87463 276.253644 
L 500.50925 277.58604 
L 501.14387 271.295893 
L 502.413109 263.803196 
L 503.682349 238.585407 
L 504.951588 235.866573 
L 505.586208 247.088615 
L 507.490067 300.498424 
L 508.124687 313.635103 
L 508.759307 320.986208 
L 510.028547 313.096155 
L 510.663166 297.250992 
L 511.297786 275.97818 
L 512.567026 252.22992 
L 513.201645 226.645355 
L 513.836265 209.879828 
L 515.105505 200.654118 
L 516.374744 188.896855 
L 517.643984 191.347579 
L 518.278603 201.838333 
L 518.913223 223.679843 
L 520.817082 244.039578 
L 521.451702 233.744523 
L 522.720942 215.866026 
L 523.355561 188.372582 
L 523.990181 169.73581 
L 525.259421 174.951022 
L 526.52866 234.735934 
L 527.7979 249.389294 
L 528.43252 247.841698 
L 529.067139 225.980555 
L 530.336379 191.018406 
L 530.970999 154.918729 
L 531.605618 146.256259 
L 532.874858 151.798946 
L 533.509478 160.664071 
L 534.144097 150.269686 
L 535.413337 138.016934 
L 536.682576 94.014193 
L 537.951816 75.662602 
L 538.586436 74.878505 
L 539.221055 73.684007 
L 540.490295 72.721381 
L 541.124915 71.118979 
L 541.759534 69.939023 
L 543.028774 68.900792 
L 543.663394 68.581037 
L 544.298013 67.944256 
L 545.567253 67.530727 
L 546.201873 66.983527 
L 546.836493 66.96 
L 548.105732 67.21643 
L 549.374972 69.091002 
L 550.644211 70.389655 
L 551.278831 71.665381 
L 551.913451 78.025275 
L 553.18269 84.39309 
L 554.45193 96.8853 
L 555.721169 107.985449 
L 556.990409 136.444314 
L 558.259648 147.098357 
L 558.894268 148.594907 
L 559.528888 141.947103 
L 560.798127 136.401986 
L 561.432747 131.475882 
L 562.067367 130.497782 
L 563.336606 136.917741 
L 564.605846 166.340663 
L 566.509705 205.912856 
L 567.144325 209.425636 
L 568.413564 208.803097 
L 569.048184 194.605293 
L 569.682804 172.978883 
L 570.952043 159.264889 
L 571.586663 155.979688 
L 572.221283 159.392937 
L 573.490522 163.205873 
L 574.125142 173.783379 
L 574.759762 178.014202 
L 576.029001 185.525168 
L 577.298241 195.651943 
L 578.56748 197.812095 
L 579.83672 208.372996 
L 580.47134 220.48745 
L 581.10596 229.227056 
L 581.740579 232.35386 
L 582.375199 233.879294 
L 583.644439 233.25539 
L 584.913678 223.023827 
L 586.182918 223.902963 
L 589.990636 242.741058 
L 591.259876 248.842792 
L 592.529115 260.843506 
L 593.798355 269.190015 
L 595.067594 281.912766 
L 596.336834 313.781753 
L 596.971453 325.46035 
L 597.606073 332.668898 
L 598.875313 335.246372 
L 599.509933 333.936271 
L 600.144552 331.898111 
L 601.413792 332.251908 
L 602.683031 335.180983 
L 603.952271 335.872272 
L 606.49075 339.22559 
L 607.12537 340.794782 
L 607.759989 341.076902 
L 609.029229 341.02672 
L 609.663849 340.699145 
L 610.298468 342.024886 
L 611.567708 344.240976 
L 612.202328 347.408844 
L 612.836947 349.979929 
L 614.106187 352.928171 
L 614.740807 355.114877 
L 615.375426 357.791449 
L 616.644666 359.692077 
L 617.279286 361.785975 
L 617.913906 362.721081 
L 619.183145 362.545214 
L 620.452385 361.138977 
L 621.721624 359.224008 
L 624.260103 356.233937 
L 625.529343 353.894258 
L 626.798582 353.867104 
L 628.067822 353.42549 
L 629.337061 352.376278 
L 630.606301 350.273195 
L 631.87554 347.164726 
L 633.14478 339.435699 
L 634.414019 336.337013 
L 635.683259 331.335071 
L 636.952498 328.839457 
L 637.587118 325.917337 
L 638.221738 324.787563 
L 639.490977 323.157674 
L 640.125597 321.720357 
L 640.760217 317.892048 
L 642.029456 313.607217 
L 643.298696 301.23031 
L 644.567935 296.670681 
L 645.837175 297.539567 
L 647.106414 297.803251 
L 647.741034 296.605492 
L 648.375654 291.362494 
L 649.644893 287.512456 
L 650.279513 282.801318 
L 652.183373 277.93225 
L 652.817992 275.769702 
L 653.452612 268.135213 
L 654.721852 257.713308 
L 655.356471 244.702448 
L 655.991091 239.200758 
L 657.260331 241.492718 
L 658.52957 255.543273 
L 659.79881 264.280216 
L 661.068049 267.684015 
L 662.337289 261.694323 
L 663.606528 257.595043 
L 664.875768 243.671871 
L 666.145007 213.376103 
L 667.414247 202.347798 
L 668.683486 168.532395 
L 669.952726 157.217811 
L 670.587346 152.958803 
L 671.221965 155.392988 
L 672.491205 157.414276 
L 673.125825 159.213576 
L 673.760444 154.23586 
L 675.029684 150.354441 
L 675.664304 140.018656 
L 676.298923 138.269703 
L 677.568163 143.824104 
L 678.837402 184.816309 
L 680.106642 205.390313 
L 680.741262 217.69035 
L 681.375881 223.719309 
L 682.645121 219.745947 
L 683.279741 211.588383 
L 685.1836 198.35863 
L 686.452839 184.573623 
L 687.722079 168.154173 
L 688.356699 163.559237 
L 688.991319 166.482388 
L 690.260558 165.607746 
L 690.895178 160.553925 
L 691.529798 150.057714 
L 692.799037 131.177291 
L 693.433657 101.387194 
L 694.068277 89.665937 
L 695.337516 86.820586 
L 695.972136 95.587278 
L 696.606756 95.726475 
L 699.145235 118.193518 
L 700.414474 129.34092 
L 701.049094 130.186213 
L 701.683714 135.11478 
L 702.952953 135.575262 
L 703.587573 132.149134 
L 704.222193 138.682533 
L 705.491432 150.124666 
L 706.126052 160.812551 
L 706.760672 151.738116 
L 708.029911 137.242088 
L 708.664531 113.982395 
L 709.299151 96.693992 
L 710.56839 85.813968 
L 711.83763 89.41573 
L 713.106869 105.605239 
L 713.741489 133.468919 
L 715.010729 219.511347 
L 715.645348 250.82904 
L 716.279968 254.80919 
L 718.183827 211.744717 
L 719.453067 156.196086 
L 720.722306 146.175896 
L 721.991546 143.868196 
L 723.260786 143.613563 
L 724.530025 156.027606 
L 727.068504 195.417675 
L 728.337744 206.174976 
L 728.972363 219.292786 
L 729.606983 227.592375 
L 730.876223 231.557451 
L 732.145462 232.625564 
L 733.414702 229.087726 
L 734.049321 218.092598 
L 734.683941 211.295183 
L 735.953181 208.564636 
L 737.22242 214.187653 
L 738.49166 220.389018 
L 739.760899 232.701701 
L 741.030139 239.729656 
L 742.299378 253.503615 
L 742.933998 258.141445 
L 744.203238 270.391434 
L 744.837857 277.218433 
L 745.472477 282.672471 
L 747.376336 304.775568 
L 748.645576 308.175807 
L 749.280196 310.289471 
L 749.914815 309.521979 
L 751.184055 307.68511 
L 751.818675 304.399909 
L 752.453294 303.335589 
L 753.722534 304.69038 
L 754.991773 311.589289 
L 756.261013 314.844475 
L 757.530252 321.509583 
L 761.337971 330.889597 
L 763.24183 339.274174 
L 763.87645 341.589595 
L 766.414929 345.256845 
L 767.684169 348.231475 
L 768.953408 349.377988 
L 769.588028 350.409496 
L 770.222648 351.194625 
L 771.491887 351.881089 
L 772.126507 352.415212 
L 772.761127 352.768077 
L 774.030366 352.910767 
L 774.664986 352.846809 
L 776.568845 352.209495 
L 777.203465 351.748747 
L 777.838085 351.117989 
L 779.107324 350.284243 
L 780.376564 348.110781 
L 781.645803 346.659854 
L 782.915043 343.297417 
L 784.184282 341.361716 
L 785.453522 338.95585 
L 787.992001 328.694205 
L 789.26124 326.258922 
L 790.53048 320.840822 
L 791.799719 317.645102 
L 793.068959 310.639541 
L 795.607438 302.857105 
L 797.511297 290.394278 
L 798.145917 288.941121 
L 799.415157 287.840663 
L 800.684396 286.037403 
L 801.953636 281.02428 
L 802.588255 275.534702 
L 804.492115 252.021808 
L 805.761354 250.462332 
L 807.030594 248.339849 
L 808.299833 250.51827 
L 809.569073 254.904495 
L 810.838312 269.338995 
L 813.376791 294.152639 
L 814.646031 290.773698 
L 815.91527 284.005333 
L 817.18451 265.840657 
L 817.81913 250.597901 
L 818.453749 240.011243 
L 819.722989 236.315275 
L 820.357609 229.260465 
L 820.992228 214.411472 
L 822.261468 209.510957 
L 822.896088 215.524109 
L 823.530707 235.023144 
L 824.799947 248.319584 
L 825.434567 260.518394 
L 826.069186 261.459623 
L 827.338426 251.512908 
L 827.973046 235.363265 
L 828.607665 227.45065 
L 829.876905 232.974802 
L 830.511525 238.819807 
L 831.146145 249.315254 
L 832.415384 253.464283 
L 833.050004 256.515416 
L 833.684624 251.428685 
L 834.953863 249.097258 
L 835.588483 244.821911 
L 836.223103 243.76671 
L 837.492342 247.146916 
L 838.761582 261.790825 
L 840.030821 266.061181 
L 840.665441 259.676029 
L 841.300061 254.801803 
L 842.5693 249.979655 
L 843.83854 244.566779 
L 845.107779 238.026759 
L 846.377019 247.726262 
L 847.646258 252.534567 
L 848.915498 256.856135 
L 850.184737 252.95738 
L 851.453977 263.728922 
L 852.723216 265.092931 
L 853.992456 272.984648 
L 855.261695 282.422264 
L 855.896315 299.585147 
L 856.530935 310.461877 
L 857.800174 322.240603 
L 859.069414 343.696737 
L 860.338653 349.362115 
L 860.973273 353.180607 
L 861.607893 352.977819 
L 862.877132 352.011599 
L 863.511752 352.495708 
L 864.146372 353.333713 
L 865.415611 354.200868 
L 866.050231 357.076534 
L 866.684851 361.353013 
L 867.954091 363.568437 
L 869.22333 363.752989 
L 870.49257 363.627636 
L 871.761809 361.598228 
L 874.300288 355.444449 
L 875.569528 356.672057 
L 876.838767 355.876712 
L 878.108007 358.53984 
L 879.377246 358.428297 
L 880.646486 360.351952 
L 881.915725 360.284367 
L 883.184965 361.037384 
L 884.454204 359.088805 
L 885.723444 358.20531 
L 886.992683 357.850149 
L 888.261923 357.914439 
L 889.531162 355.92117 
L 890.800402 356.058236 
L 893.338881 353.365459 
L 894.60812 347.867129 
L 895.87736 345.315611 
L 897.146599 342.442541 
L 898.415839 338.317238 
L 899.685078 334.592553 
L 900.954318 332.478988 
L 902.223558 334.453789 
L 903.492797 333.475523 
L 904.127417 334.249504 
L 904.762037 333.279324 
L 906.031276 334.833475 
L 907.300516 336.044578 
L 908.569755 338.790565 
L 909.838995 343.37991 
L 911.108234 346.295741 
L 912.377474 348.881434 
L 913.646713 348.776014 
L 914.915953 351.607921 
L 916.185192 353.661987 
L 917.454432 354.882141 
L 918.723671 355.469273 
L 919.992911 356.511597 
L 921.26215 356.379822 
L 921.89677 356.793284 
L 922.53139 356.42774 
L 923.800629 356.292537 
L 924.435249 354.917913 
L 925.069869 353.876588 
L 926.339108 353.62475 
L 927.608348 354.079076 
L 928.877587 354.307786 
L 930.146827 353.615466 
L 931.416066 352.646151 
L 932.050686 350.919194 
L 932.685306 349.730287 
L 933.319926 349.243617 
L 933.954545 349.295795 
L 933.954545 349.295795 
" clip-path="url(#p574235420f)" style="fill: none; stroke: #008000; stroke-width: 1.5; stroke-linecap: square"/>
   </g>
   <g id="patch_3">
    <path d="M 135 384.48 
L 135 51.84 
" style="fill: none; stroke: #000000; stroke-width: 0.8; stroke-linejoin: miter; stroke-linecap: square"/>
   </g>
   <g id="patch_4">
    <path d="M 972 384.48 
L 972 51.84 
" style="fill: none; stroke: #000000; stroke-width: 0.8; stroke-linejoin: miter; stroke-linecap: square"/>
   </g>
   <g id="patch_5">
    <path d="M 135 384.48 
L 972 384.48 
" style="fill: none; stroke: #000000; stroke-width: 0.8; stroke-linejoin: miter; stroke-linecap: square"/>
   </g>
   <g id="patch_6">
    <path d="M 135 51.84 
L 972 51.84 
" style="fill: none; stroke: #000000; stroke-width: 0.8; stroke-linejoin: miter; stroke-linecap: square"/>
   </g>
  </g>
  <g id="axes_2">
   <g id="matplotlib.axis_3">
    <g id="ytick_7">
     <g id="line2d_16">
      <path d="M 135 369.36 
L 972 369.36 
" clip-path="url(#p574235420f)" style="fill: none; stroke: #b0b0b0; stroke-width: 0.8; stroke-linecap: square"/>
     </g>
     <g id="line2d_17">
      <defs>
       <path id="m079b67b978" d="M 0 0 
L 3.5 0 
" style="stroke: #000000; stroke-width: 0.8"/>
      </defs>
      <g>
       <use xlink:href="#m079b67b978" x="972" y="369.36" style="stroke: #000000; stroke-width: 0.8"/>
      </g>
     </g>
     <g id="text_15">
      <!-- 0 -->
      <g transform="translate(979 372.934219) scale(0.1 -0.1)">
       <use xlink:href="#Times New Roman-30"/>
      </g>
     </g>
    </g>
    <g id="ytick_8">
     <g id="line2d_18">
      <path d="M 135 320.370886 
L 972 320.370886 
" clip-path="url(#p574235420f)" style="fill: none; stroke: #b0b0b0; stroke-width: 0.8; stroke-linecap: square"/>
     </g>
     <g id="line2d_19">
      <g>
       <use xlink:href="#m079b67b978" x="972" y="320.370886" style="stroke: #000000; stroke-width: 0.8"/>
      </g>
     </g>
     <g id="text_16">
      <!-- 5 -->
      <g transform="translate(979 323.945105) scale(0.1 -0.1)">
       <use xlink:href="#Times New Roman-35"/>
      </g>
     </g>
    </g>
    <g id="ytick_9">
     <g id="line2d_20">
      <path d="M 135 271.381773 
L 972 271.381773 
" clip-path="url(#p574235420f)" style="fill: none; stroke: #b0b0b0; stroke-width: 0.8; stroke-linecap: square"/>
     </g>
     <g id="line2d_21">
      <g>
       <use xlink:href="#m079b67b978" x="972" y="271.381773" style="stroke: #000000; stroke-width: 0.8"/>
      </g>
     </g>
     <g id="text_17">
      <!-- 10 -->
      <g transform="translate(979 274.955992) scale(0.1 -0.1)">
       <use xlink:href="#Times New Roman-31"/>
       <use xlink:href="#Times New Roman-30" x="50"/>
      </g>
     </g>
    </g>
    <g id="ytick_10">
     <g id="line2d_22">
      <path d="M 135 222.392659 
L 972 222.392659 
" clip-path="url(#p574235420f)" style="fill: none; stroke: #b0b0b0; stroke-width: 0.8; stroke-linecap: square"/>
     </g>
     <g id="line2d_23">
      <g>
       <use xlink:href="#m079b67b978" x="972" y="222.392659" style="stroke: #000000; stroke-width: 0.8"/>
      </g>
     </g>
     <g id="text_18">
      <!-- 15 -->
      <g transform="translate(979 225.966878) scale(0.1 -0.1)">
       <use xlink:href="#Times New Roman-31"/>
       <use xlink:href="#Times New Roman-35" x="50"/>
      </g>
     </g>
    </g>
    <g id="ytick_11">
     <g id="line2d_24">
      <path d="M 135 173.403546 
L 972 173.403546 
" clip-path="url(#p574235420f)" style="fill: none; stroke: #b0b0b0; stroke-width: 0.8; stroke-linecap: square"/>
     </g>
     <g id="line2d_25">
      <g>
       <use xlink:href="#m079b67b978" x="972" y="173.403546" style="stroke: #000000; stroke-width: 0.8"/>
      </g>
     </g>
     <g id="text_19">
      <!-- 20 -->
      <g transform="translate(979 176.977765) scale(0.1 -0.1)">
       <use xlink:href="#Times New Roman-32"/>
       <use xlink:href="#Times New Roman-30" x="50"/>
      </g>
     </g>
    </g>
    <g id="ytick_12">
     <g id="line2d_26">
      <path d="M 135 124.414432 
L 972 124.414432 
" clip-path="url(#p574235420f)" style="fill: none; stroke: #b0b0b0; stroke-width: 0.8; stroke-linecap: square"/>
     </g>
     <g id="line2d_27">
      <g>
       <use xlink:href="#m079b67b978" x="972" y="124.414432" style="stroke: #000000; stroke-width: 0.8"/>
      </g>
     </g>
     <g id="text_20">
      <!-- 25 -->
      <g transform="translate(979 127.988651) scale(0.1 -0.1)">
       <use xlink:href="#Times New Roman-32"/>
       <use xlink:href="#Times New Roman-35" x="50"/>
      </g>
     </g>
    </g>
    <g id="ytick_13">
     <g id="line2d_28">
      <path d="M 135 75.425319 
L 972 75.425319 
" clip-path="url(#p574235420f)" style="fill: none; stroke: #b0b0b0; stroke-width: 0.8; stroke-linecap: square"/>
     </g>
     <g id="line2d_29">
      <g>
       <use xlink:href="#m079b67b978" x="972" y="75.425319" style="stroke: #000000; stroke-width: 0.8"/>
      </g>
     </g>
     <g id="text_21">
      <!-- 30 -->
      <g transform="translate(979 78.999538) scale(0.1 -0.1)">
       <use xlink:href="#Times New Roman-33"/>
       <use xlink:href="#Times New Roman-30" x="50"/>
      </g>
     </g>
    </g>
    <g id="text_22">
     <!-- buffer (s) -->
     <g transform="translate(1000.617188 243.16) rotate(-90) scale(0.1 -0.1)">
      <defs>
       <path id="Times New Roman-75" d="M 1450 325
Q 1750 325 1962 475 
Q 2175 625 2275 950 
L 2275 2525 
Q 2275 2625 2225 2687 
Q 2175 2750 2050 2750 
L 1900 2750 
L 1900 2900 
L 2050 2900 
Q 2200 2900 2325 2925 
Q 2450 2950 2575 3050 
L 2625 3050 
L 2625 600 
Q 2625 500 2687 450 
Q 2750 400 2850 400 
L 3000 400 
L 3000 250 
L 2850 250 
Q 2725 250 2600 212 
Q 2475 175 2325 100 
L 2275 100 
L 2275 625 
Q 2150 350 1900 212 
Q 1650 75 1325 75 
Q 925 75 725 300 
Q 525 525 525 1025 
L 525 2525 
Q 525 2625 475 2687 
Q 425 2750 300 2750 
L 150 2750 
L 150 2900 
L 300 2900 
Q 450 2900 575 2925 
Q 700 2950 825 3050 
L 875 3050 
L 875 975 
Q 875 625 1025 475 
Q 1175 325 1450 325 
z
" transform="scale(0.015625)"/>
       <path id="Times New Roman-66" d="M 1125 3325
Q 1125 3850 1450 4112 
Q 1775 4375 2175 4375 
Q 2600 4375 2812 4225 
Q 3025 4075 3025 3875 
Q 3025 3775 2975 3700 
Q 2925 3625 2775 3625 
Q 2675 3625 2612 3675 
Q 2550 3725 2550 3850 
Q 2550 3875 2575 3925 
Q 2575 3975 2575 4000 
Q 2575 4100 2500 4162 
Q 2425 4225 2150 4225 
Q 1850 4225 1662 4037 
Q 1475 3850 1475 3400 
L 1475 2900 
L 2525 2900 
L 2525 2750 
L 1475 2750 
L 1475 450 
Q 1475 350 1537 300 
Q 1600 250 1700 250 
L 2300 250 
L 2300 100 
L 475 100 
L 475 250 
L 900 250 
Q 1025 250 1075 300 
Q 1125 350 1125 450 
L 1125 2750 
L 350 2750 
L 350 2900 
L 1125 2900 
L 1125 3325 
z
" transform="scale(0.015625)"/>
      </defs>
      <use xlink:href="#Times New Roman-62"/>
      <use xlink:href="#Times New Roman-75" x="50"/>
      <use xlink:href="#Times New Roman-66" x="100"/>
      <use xlink:href="#Times New Roman-66" x="150"/>
      <use xlink:href="#Times New Roman-65" x="200"/>
      <use xlink:href="#Times New Roman-72" x="250"/>
      <use xlink:href="#Times New Roman-20" x="300"/>
      <use xlink:href="#Times New Roman-28" x="350"/>
      <use xlink:href="#Times New Roman-73" x="400"/>
      <use xlink:href="#Times New Roman-29" x="450"/>
     </g>
    </g>
   </g>
   <g id="line2d_30">
    <path d="M 173.045455 369.36 
L 175.583934 356.296236 
L 176.218553 345.714588 
L 176.853173 341.664821 
L 177.487793 333.98986 
L 178.122413 330.364666 
L 178.757032 329.936827 
L 180.026272 336.589549 
L 180.660892 343.242271 
L 181.295511 337.085972 
L 182.564751 330.077263 
L 183.199371 323.068554 
L 183.83399 329.153002 
L 185.10323 323.284106 
L 186.372469 311.285039 
L 187.641709 317.454401 
L 188.276329 323.623764 
L 188.910949 323.656423 
L 190.180188 317.202924 
L 191.449428 304.13916 
L 192.084047 301.06591 
L 192.718667 294.948802 
L 193.353287 291.904946 
L 195.257146 271.744292 
L 195.891766 258.569487 
L 196.526386 252.458911 
L 197.795625 259.020187 
L 199.064865 261.646003 
L 200.334104 264.631073 
L 201.603344 261.103857 
L 202.872583 265.000124 
L 203.507203 265.414899 
L 204.141823 264.957667 
L 205.411062 257.962022 
L 206.680302 248.271975 
L 207.949541 245.626563 
L 208.584161 246.03154 
L 209.218781 251.730607 
L 210.48802 257.808523 
L 211.12264 263.886439 
L 211.75726 264.288149 
L 213.026499 264.696392 
L 214.295739 262.044448 
L 215.564978 265.091571 
L 216.834218 261.874619 
L 218.103457 264.872753 
L 219.372697 262.191415 
L 220.641936 264.889082 
L 221.276556 264.431851 
L 221.911176 264.327341 
L 223.180415 264.742115 
L 223.815035 265.15689 
L 224.449655 271.731229 
L 225.084275 275.186594 
L 226.988134 254.859378 
L 228.257374 238.281462 
L 232.065092 209.475863 
L 233.334332 205.945381 
L 235.872811 186.996392 
L 236.50743 174.344137 
L 237.14205 167.250513 
L 237.77667 163.321586 
L 238.41129 149.794059 
L 239.045909 140.195459 
L 239.680529 127.54647 
L 240.949769 121.432628 
L 242.219008 108.326407 
L 243.488248 107.856112 
L 244.122868 107.385816 
L 244.757487 107.790793 
L 245.392107 104.737138 
L 246.026727 98.613499 
L 247.295966 98.770264 
L 248.565206 95.239782 
L 249.834445 98.254246 
L 252.372924 91.457823 
L 253.642164 81.401991 
L 254.911403 77.887838 
L 257.449882 85.647714 
L 258.719122 88.652379 
L 259.988362 85.451757 
L 261.257601 88.479285 
L 262.526841 85.837138 
L 263.79608 88.528274 
L 266.334559 94.544137 
L 267.603799 98.424075 
L 268.873038 101.425474 
L 269.507658 107.483795 
L 270.142278 107.046159 
L 271.411517 107.457667 
L 273.949996 102.072131 
L 274.584616 95.889705 
L 275.219236 96.049736 
L 276.488475 95.661089 
L 277.123095 95.272442 
L 277.757715 95.066687 
L 279.026954 101.993748 
L 279.661574 108.920809 
L 280.296194 108.447247 
L 281.565433 107.98675 
L 282.200053 107.526252 
L 282.834673 107.934495 
L 284.103912 108.352535 
L 285.373152 111.941804 
L 289.18087 140.913966 
L 289.81549 147.841026 
L 290.45011 147.387061 
L 291.719349 146.920031 
L 292.353969 146.453002 
L 292.988589 153.399658 
L 294.257828 160.352846 
L 296.796308 179.399813 
L 297.430927 185.458134 
L 298.065547 186.147247 
L 299.334787 186.55549 
L 300.604026 190.428896 
L 304.411745 218.80339 
L 306.950224 238.748491 
L 309.488703 244.757823 
L 310.757942 248.621431 
L 312.027182 251.98535 
L 313.296421 255.029207 
L 314.565661 251.524852 
L 315.200281 251.596703 
L 315.8349 251.995148 
L 317.10414 252.328274 
L 319.642619 258.363733 
L 320.911858 267.978663 
L 321.546478 274.915521 
L 322.181098 275.023297 
L 322.815718 271.688771 
L 323.450337 271.897792 
L 324.719577 278.246781 
L 325.988816 290.86311 
L 327.258056 297.819565 
L 329.796535 316.928585 
L 331.065775 319.93325 
L 332.335014 323.806656 
L 334.873493 316.791415 
L 336.142733 306.911944 
L 337.411972 291.153779 
L 338.681212 268.644914 
L 339.950451 239.003235 
L 341.219691 200.481462 
L 342.48893 146.580373 
L 343.75817 126.984728 
L 345.027409 100.857201 
L 345.662029 81.261555 
L 346.296649 77.92703 
L 347.565888 77.388149 
L 348.200508 76.849269 
L 348.835128 76.839471 
L 350.104367 83.893904 
L 350.738987 90.948336 
L 351.373607 90.905879 
L 352.642846 84.458911 
L 353.912086 80.872908 
L 355.181325 77.737605 
L 356.450565 80.761866 
L 357.719804 77.848647 
L 358.989044 80.471198 
L 360.258283 77.37182 
L 360.892903 77.348958 
L 361.527523 77.913966 
L 362.796762 77.907434 
L 364.066002 80.513655 
L 365.335241 77.411011 
L 366.604481 80.405879 
L 367.873721 84.259689 
L 368.50834 90.618476 
L 369.14296 90.618476 
L 370.4122 84.151913 
L 371.681439 80.624697 
L 372.950679 84.044137 
L 373.585298 90.458445 
L 374.219918 90.892815 
L 375.489158 84.445848 
L 376.123777 77.99888 
L 376.758397 77.508989 
L 378.027637 77.391415 
L 379.296876 80.722675 
L 380.566116 77.815988 
L 381.835355 80.801058 
L 383.104595 77.303235 
L 383.739214 77.126874 
L 384.373834 77.544914 
L 385.643074 77.071353 
L 386.277694 76.597792 
L 386.912313 76.545537 
L 388.181553 76.953779 
L 388.816173 77.362022 
L 389.450792 77.352224 
L 390.720032 77.678818 
L 391.354652 78.005412 
L 391.989271 77.59717 
L 393.258511 77.277107 
L 394.52775 80.405879 
L 395.79699 77.721275 
L 397.066229 80.732473 
L 398.335469 77.211788 
L 398.970089 76.78395 
L 399.604708 77.237916 
L 400.873948 77.659222 
L 402.143188 80.680218 
L 403.412427 77.107278 
L 404.681667 80.105412 
L 405.950906 77.469798 
L 406.585526 77.891104 
L 407.220146 77.430607 
L 408.489385 76.943981 
L 409.124005 76.457356 
L 409.758625 70.418631 
L 411.027864 70.859533 
L 411.662484 71.300435 
L 412.297104 77.907434 
L 413.566343 77.440404 
L 414.200963 76.973375 
L 414.835583 76.761089 
L 416.104822 77.316299 
L 417.374062 80.330762 
L 418.643301 76.836205 
L 419.912541 79.674308 
L 421.18178 77.012566 
L 421.8164 77.417543 
L 422.45102 71.293904 
L 423.720259 70.826874 
L 424.989499 67.613188 
L 426.258738 70.627652 
L 426.893358 71.026096 
L 427.527978 77.642893 
L 428.797217 77.286905 
L 431.335696 83.296236 
L 431.970316 90.128585 
L 432.604936 90.536827 
L 433.874175 83.596703 
L 435.143415 80.177263 
L 436.412654 83.198258 
L 437.681894 87.039005 
L 438.951134 83.41381 
L 439.585753 76.411633 
L 440.220373 75.987061 
L 441.489613 76.499813 
L 442.758852 80.389549 
L 444.028092 76.839471 
L 444.662711 76.297325 
L 445.297331 75.947869 
L 446.566571 76.48675 
L 447.20119 77.02563 
L 447.83581 71.048958 
L 449.10505 71.346159 
L 449.739669 71.643359 
L 450.374289 78.025008 
L 451.643529 77.561244 
L 452.912768 80.552846 
L 454.182008 77.32283 
L 454.816627 77.695148 
L 455.451247 77.224852 
L 456.720487 83.332162 
L 457.989726 86.346625 
L 459.258966 83.688149 
L 459.893586 77.535117 
L 460.528205 77.365288 
L 461.797445 83.459533 
L 464.335924 90.380062 
L 464.970544 90.788305 
L 465.605163 90.899347 
L 466.874403 90.918942 
L 469.412882 96.960933 
L 470.047502 96.879285 
L 470.682121 90.758911 
L 471.951361 90.327807 
L 473.220601 93.394526 
L 474.48984 102.947403 
L 475.12446 109.894059 
L 475.75908 110.276174 
L 477.662939 110.406812 
L 478.297559 109.96591 
L 479.566798 109.841804 
L 482.105277 103.68224 
L 482.739897 97.22874 
L 483.374517 96.768243 
L 484.643756 103.185816 
L 485.912996 113.065288 
L 486.547615 119.982551 
L 487.182235 113.669487 
L 488.451475 107.284572 
L 489.720714 103.78675 
L 490.989954 113.515988 
L 492.259193 116.78846 
L 492.893813 117.173841 
L 493.528433 103.66591 
L 494.797672 96.693126 
L 496.066912 83.580373 
L 497.336151 77.473064 
L 497.970771 71.365754 
L 498.605391 77.433872 
L 499.87463 83.462799 
L 500.50925 89.491726 
L 501.14387 90.053468 
L 502.413109 83.936361 
L 503.047729 77.819253 
L 503.682349 77.711477 
L 504.951588 83.779596 
L 506.220828 96.294681 
L 506.855448 99.782706 
L 507.490067 100.197481 
L 508.124687 97.12423 
L 508.759307 83.998414 
L 510.028547 77.045226 
L 510.663166 70.092037 
L 511.297786 70.219409 
L 512.567026 70.634184 
L 513.201645 71.048958 
L 513.836265 77.724541 
L 515.740124 77.724541 
L 516.374744 77.463266 
L 518.278603 77.391415 
L 518.913223 77.78986 
L 520.182463 83.86451 
L 520.817082 89.93916 
L 521.451702 89.475397 
L 522.720942 83.328896 
L 523.355561 77.182395 
L 523.990181 77.59717 
L 526.52866 77.825785 
L 528.43252 77.440404 
L 529.067139 70.996703 
L 530.336379 70.513344 
L 530.970999 70.029984 
L 531.605618 76.058911 
L 532.874858 83.008834 
L 533.509478 89.958756 
L 534.144097 90.370264 
L 535.413337 83.720809 
L 536.047957 77.071353 
L 536.682576 77.0093 
L 537.951816 83.596703 
L 539.221055 96.784572 
L 540.490295 103.727963 
L 541.124915 110.671353 
L 541.759534 110.168398 
L 543.028774 103.662644 
L 543.663394 97.15689 
L 544.298013 97.555334 
L 546.201873 97.398569 
L 546.836493 97.130762 
L 548.105732 103.202146 
L 549.374972 116.017698 
L 550.644211 122.957823 
L 551.278831 129.897947 
L 551.913451 130.051446 
L 553.18269 129.590949 
L 555.721169 123.081928 
L 556.355789 116.958289 
L 556.990409 103.492815 
L 558.259648 96.503701 
L 558.894268 89.514588 
L 559.528888 89.831384 
L 560.798127 83.717543 
L 561.432747 77.603701 
L 562.067367 77.753935 
L 563.336606 83.822053 
L 564.605846 93.694992 
L 565.875085 96.709456 
L 566.509705 97.111166 
L 567.144325 90.654401 
L 568.413564 83.789393 
L 569.048184 76.924386 
L 569.682804 76.718631 
L 570.952043 83.531384 
L 571.586663 90.344137 
L 572.221283 90.504168 
L 573.490522 90.06 
L 574.759762 89.145537 
L 576.029001 83.345226 
L 576.663621 77.544914 
L 577.298241 77.972753 
L 578.56748 83.704479 
L 579.83672 92.95689 
L 580.47134 99.054401 
L 581.10596 99.730451 
L 581.740579 96.885816 
L 582.375199 90.762177 
L 583.644439 84.148647 
L 584.279058 77.535117 
L 584.913678 77.133406 
L 586.182918 83.531384 
L 587.452157 93.410855 
L 589.990636 100.599191 
L 591.259876 103.600591 
L 591.894495 109.838538 
L 592.529115 109.789549 
L 593.798355 103.662644 
L 595.067594 100.14196 
L 596.336834 99.289549 
L 596.971453 96.297947 
L 597.606073 90.177574 
L 598.875313 84.011477 
L 599.509933 77.845381 
L 600.144552 77.427341 
L 601.413792 76.973375 
L 602.048412 76.519409 
L 602.683031 77.084417 
L 603.952271 77.453468 
L 605.22151 80.464666 
L 606.49075 76.849269 
L 607.12537 76.503079 
L 607.759989 76.957045 
L 609.029229 77.316299 
L 609.663849 77.675552 
L 610.298468 77.211788 
L 611.567708 76.803546 
L 612.202328 76.395303 
L 612.836947 76.787216 
L 614.106187 77.153002 
L 614.740807 77.518787 
L 615.375426 77.724541 
L 616.644666 77.247714 
L 617.279286 76.770886 
L 617.913906 69.971198 
L 619.183145 70.382706 
L 620.452385 67.737294 
L 624.260103 76.806812 
L 625.529343 77.59717 
L 626.798582 77.466532 
L 628.067822 80.928429 
L 629.337061 77.411011 
L 630.606301 80.957823 
L 631.87554 76.996236 
L 633.14478 76.101369 
L 634.414019 83.044759 
L 635.683259 96.928274 
L 636.952498 90.311477 
L 638.221738 77.228118 
L 639.490977 83.779596 
L 640.125597 90.331073 
L 640.760217 90.233095 
L 642.029456 84.122519 
L 642.664076 78.011944 
L 643.298696 77.515521 
L 644.567935 83.580373 
L 645.837175 86.669953 
L 647.106414 90.523764 
L 647.741034 90.922208 
L 648.375654 90.386594 
L 649.644893 83.400747 
L 650.279513 76.414899 
L 650.914133 76.832939 
L 652.183373 83.789393 
L 652.817992 90.745848 
L 653.452612 90.941804 
L 654.721852 83.946159 
L 655.356471 76.950513 
L 655.991091 76.67944 
L 657.260331 83.62283 
L 658.52957 87.225163 
L 662.337289 76.960311 
L 663.606528 80.801058 
L 664.875768 83.799191 
L 665.510387 89.864044 
L 666.145007 89.710544 
L 667.414247 83.619565 
L 668.048866 77.528585 
L 668.683486 77.642893 
L 669.952726 83.691415 
L 670.587346 89.739938 
L 671.221965 89.442737 
L 672.491205 89.83465 
L 673.125825 90.226563 
L 673.760444 90.461711 
L 675.029684 84.19437 
L 675.664304 77.92703 
L 676.298923 77.502457 
L 677.568163 83.724075 
L 678.202783 89.945692 
L 678.837402 90.324541 
L 680.106642 83.874308 
L 680.741262 77.424075 
L 681.375881 76.950513 
L 683.279741 76.69577 
L 683.91436 77.117076 
L 685.1836 77.531851 
L 686.452839 80.536516 
L 687.722079 77.015832 
L 688.356699 76.555334 
L 688.991319 76.963577 
L 690.260558 83.903701 
L 690.895178 90.843826 
L 691.529798 91.095303 
L 692.799037 84.115988 
L 693.433657 77.136672 
L 694.068277 76.832939 
L 695.337516 83.746936 
L 695.972136 90.660933 
L 696.606756 90.971198 
L 697.875995 84.543826 
L 699.145235 81.026407 
L 700.414474 84.135583 
L 701.049094 90.513966 
L 701.683714 90.046936 
L 702.952953 83.048025 
L 703.587573 76.049114 
L 704.222193 76.731695 
L 705.491432 83.675086 
L 706.126052 90.618476 
L 706.760672 90.755645 
L 708.029911 84.455645 
L 708.664531 78.155645 
L 709.299151 77.698414 
L 710.56839 83.955956 
L 711.83763 93.678663 
L 713.106869 96.683328 
L 714.376109 95.749269 
L 715.010729 99.220964 
L 715.645348 99.645537 
L 716.279968 96.598414 
L 716.914588 90.474774 
L 718.183827 83.498725 
L 718.818447 76.522675 
L 719.453067 76.071975 
L 720.722306 76.829673 
L 721.991546 80.676952 
L 725.799265 89.860778 
L 727.068504 87.205568 
L 728.337744 84.014743 
L 728.972363 77.891104 
L 729.606983 77.946625 
L 730.876223 84.018009 
L 731.510842 90.089393 
L 732.145462 89.991415 
L 733.414702 83.874308 
L 734.049321 77.757201 
L 734.683941 77.296703 
L 735.953181 83.377885 
L 737.22242 92.930762 
L 738.49166 96.797636 
L 739.126279 97.189549 
L 739.760899 97.022986 
L 741.030139 103.107434 
L 741.664759 109.191882 
L 742.299378 109.51521 
L 742.933998 106.667309 
L 743.568618 100.537138 
L 744.203238 97.254868 
L 744.837857 96.578818 
L 745.472477 99.185039 
L 746.107097 99.096858 
L 746.741717 96.402457 
L 747.376336 96.833561 
L 749.280196 96.918476 
L 749.914815 90.765443 
L 751.184055 84.174774 
L 751.818675 77.584106 
L 752.453294 77.13014 
L 753.722534 83.681617 
L 754.357154 90.233095 
L 754.991773 90.644603 
L 756.261013 90.174308 
L 756.895633 89.704012 
L 757.530252 95.765599 
L 758.799492 96.177107 
L 760.068732 100.043981 
L 761.337971 103.068243 
L 762.607211 115.256734 
L 763.24183 118.757823 
L 763.87645 112.640715 
L 765.14569 106.474619 
L 766.414929 102.914743 
L 767.684169 115.615988 
L 768.953408 116.030762 
L 769.588028 116.445537 
L 770.222648 116.314899 
L 771.491887 116.726407 
L 772.126507 117.137916 
L 772.761127 116.674152 
L 774.030366 116.210389 
L 774.664986 115.746625 
L 775.299606 109.632784 
L 776.568845 110.044292 
L 777.203465 110.455801 
L 777.838085 109.978974 
L 779.107324 109.502146 
L 779.741944 109.025319 
L 780.376564 109.590327 
L 781.645803 110.044292 
L 782.280423 110.498258 
L 782.915043 110.1586 
L 784.184282 109.685039 
L 785.453522 112.663577 
L 786.088142 119.316299 
L 786.722761 119.783328 
L 787.357381 116.798258 
L 787.992001 110.615832 
L 789.26124 110.106345 
L 789.89586 109.596858 
L 790.53048 109.263733 
L 791.799719 103.104168 
L 793.068959 90.739316 
L 794.338198 90.311477 
L 795.607438 93.329207 
L 796.242058 99.413655 
L 796.876678 99.821897 
L 797.511297 96.784572 
L 798.145917 90.673997 
L 799.415157 90.177574 
L 800.684396 86.617698 
L 801.953636 89.638694 
L 803.222875 90.517232 
L 803.857495 87.443981 
L 804.492115 86.95409 
L 805.761354 86.88224 
L 807.030594 89.883639 
L 808.299833 87.30028 
L 809.569073 89.899969 
L 810.838312 86.389082 
L 812.107552 89.338227 
L 814.646031 84.086594 
L 817.18451 76.986439 
L 817.81913 76.503079 
L 818.453749 77.019098 
L 819.722989 77.424075 
L 820.357609 77.829051 
L 820.992228 77.254246 
L 822.261468 76.790482 
L 822.896088 76.326719 
L 823.530707 76.741493 
L 824.799947 83.684883 
L 825.434567 90.628274 
L 826.069186 83.815521 
L 827.338426 76.849269 
L 827.973046 69.883017 
L 828.607665 76.636983 
L 829.876905 77.110544 
L 830.511525 77.584106 
L 831.146145 77.793126 
L 832.415384 77.237916 
L 833.050004 76.682706 
L 833.684624 76.421431 
L 834.953863 76.832939 
L 836.223103 77.655956 
L 837.492342 77.303235 
L 838.761582 80.317698 
L 840.030821 76.806812 
L 841.300061 77.538383 
L 842.5693 77.133406 
L 843.83854 80.503857 
L 845.107779 77.244448 
L 846.377019 81.052535 
L 847.646258 77.172597 
L 848.915498 79.919253 
L 850.184737 76.401835 
L 851.453977 80.265443 
L 852.723216 76.855801 
L 853.992456 79.866998 
L 855.261695 76.369176 
L 855.896315 76.682706 
L 856.530935 77.14647 
L 857.800174 77.554712 
L 858.434794 77.962955 
L 859.069414 71.166532 
L 860.338653 70.686439 
L 860.973273 70.206345 
L 862.877132 70.764821 
L 863.511752 71.169798 
L 864.146372 71.058756 
L 865.415611 70.630918 
L 866.050231 70.203079 
L 866.684851 70.278196 
L 867.954091 70.689705 
L 869.22333 67.779751 
L 870.49257 70.790949 
L 871.761809 67.266998 
L 873.031049 70.510078 
L 874.300288 67.587061 
L 875.569528 70.60479 
L 876.838767 67.09717 
L 878.108007 70.405568 
L 879.377246 67.734028 
L 880.646486 70.745226 
L 881.915725 67.528274 
L 883.184965 70.539471 
L 884.454204 67.910389 
L 885.723444 70.572131 
L 886.992683 67.250669 
L 888.261923 70.255334 
L 889.531162 67.616454 
L 890.800402 70.421897 
L 892.069641 66.96 
L 893.338881 69.958134 
L 894.60812 67.325785 
L 895.87736 70.27493 
L 897.146599 67.012255 
L 898.415839 70.020187 
L 900.954318 77.489393 
L 902.223558 80.487527 
L 903.492797 77.420809 
L 904.127417 77.401213 
L 904.762037 77.871509 
L 906.031276 77.897636 
L 907.300516 81.032939 
L 908.569755 77.920498 
L 909.838995 80.918631 
L 911.108234 77.740871 
L 912.377474 80.320964 
L 913.646713 76.836205 
L 914.281333 76.418165 
L 914.915953 76.839471 
L 916.185192 77.208523 
L 917.454432 80.187061 
L 918.723671 76.669642 
L 919.992911 79.925785 
L 921.26215 77.283639 
L 921.89677 77.68535 
L 922.53139 71.284106 
L 923.800629 70.820342 
L 924.435249 70.356579 
L 925.069869 76.45409 
L 926.339108 83.404012 
L 927.608348 87.270886 
L 931.416066 76.738227 
L 932.685306 77.561244 
L 933.319926 81.059067 
L 933.954545 87.342737 
L 933.954545 87.342737 
" clip-path="url(#p574235420f)" style="fill: none; stroke: #1f77b4; stroke-width: 1.5; stroke-linecap: square"/>
   </g>
   <g id="patch_7">
    <path d="M 135 384.48 
L 135 51.84 
" style="fill: none; stroke: #000000; stroke-width: 0.8; stroke-linejoin: miter; stroke-linecap: square"/>
   </g>
   <g id="patch_8">
    <path d="M 972 384.48 
L 972 51.84 
" style="fill: none; stroke: #000000; stroke-width: 0.8; stroke-linejoin: miter; stroke-linecap: square"/>
   </g>
   <g id="patch_9">
    <path d="M 135 384.48 
L 972 384.48 
" style="fill: none; stroke: #000000; stroke-width: 0.8; stroke-linejoin: miter; stroke-linecap: square"/>
   </g>
   <g id="patch_10">
    <path d="M 135 51.84 
L 972 51.84 
" style="fill: none; stroke: #000000; stroke-width: 0.8; stroke-linejoin: miter; stroke-linecap: square"/>
   </g>
   <g id="text_23">
    <!-- ./tcp/tp7_wave -->
    <g transform="translate(511.5 45.84) scale(0.12 -0.12)">
     <defs>
      <path id="Times New Roman-2e" d="M 800 25
Q 650 25 537 125 
Q 425 225 425 400 
Q 425 575 537 675 
Q 650 775 800 775 
Q 950 775 1062 662 
Q 1175 550 1175 400 
Q 1175 225 1062 125 
Q 950 25 800 25 
z
" transform="scale(0.015625)"/>
      <path id="Times New Roman-2f" d="M 400 -475
L 225 -375 
L 2775 4975 
L 2950 4875 
L 400 -475 
z
" transform="scale(0.015625)"/>
      <path id="Times New Roman-63" d="M 2150 2225
Q 2150 2300 2175 2325 
Q 2175 2350 2200 2425 
Q 2225 2525 2100 2662 
Q 1975 2800 1675 2800 
Q 1300 2800 1037 2437 
Q 775 2075 775 1475 
Q 775 925 1000 587 
Q 1225 250 1750 250 
Q 2100 250 2337 475 
Q 2575 700 2675 1000 
L 2800 950 
Q 2700 575 2425 312 
Q 2150 50 1675 50 
Q 1075 50 725 425 
Q 375 800 375 1500 
Q 375 2125 750 2537 
Q 1125 2950 1725 2950 
Q 2150 2950 2387 2725 
Q 2625 2500 2625 2275 
Q 2625 2125 2562 2062 
Q 2500 2000 2375 2000 
Q 2275 2000 2212 2062 
Q 2150 2125 2150 2225 
z
" transform="scale(0.015625)"/>
      <path id="Times New Roman-37" d="M 2825 4200
Q 2300 3350 1987 2537 
Q 1675 1725 1675 1125 
Q 1675 1025 1700 850 
Q 1700 650 1700 400 
Q 1700 200 1637 125 
Q 1575 50 1425 50 
Q 1300 50 1212 137 
Q 1125 225 1125 450 
Q 1125 925 1337 1625 
Q 1550 2325 2475 4000 
L 1225 4000 
Q 950 4000 787 3825 
Q 625 3650 550 3300 
L 400 3325 
L 575 4375 
L 2825 4375 
L 2825 4200 
z
" transform="scale(0.015625)"/>
      <path id="Times New Roman-5f" d="M 0 -875
L 0 -725 
L 3175 -725 
L 3175 -875 
L 0 -875 
z
" transform="scale(0.015625)"/>
      <path id="Times New Roman-77" d="M 2325 2900
L 3175 2900 
L 3175 2750 
L 3075 2750 
Q 2975 2750 2900 2675 
Q 2825 2600 2775 2425 
L 2175 75 
L 2025 75 
L 1575 1975 
L 1100 75 
L 950 75 
L 375 2375 
Q 350 2550 275 2650 
Q 200 2750 125 2750 
L 25 2750 
L 25 2900 
L 925 2900 
L 925 2750 
L 825 2750 
Q 725 2750 700 2662 
Q 675 2575 700 2425 
L 1075 800 
L 1125 800 
L 1500 2300 
Q 1475 2525 1400 2637 
Q 1325 2750 1225 2750 
L 1150 2750 
L 1150 2900 
L 2000 2900 
L 2000 2750 
L 1925 2750 
Q 1825 2750 1800 2662 
Q 1775 2575 1800 2425 
L 2175 800 
L 2200 800 
L 2625 2550 
Q 2650 2650 2600 2700 
Q 2550 2750 2450 2750 
L 2325 2750 
L 2325 2900 
z
M 1725 2750 
L 1725 2750 
z
M 625 2750 
L 625 2750 
z
M 275 2750 
L 275 2750 
z
M 2875 2750 
L 2875 2750 
z
M 2675 2750 
L 2675 2750 
z
" transform="scale(0.015625)"/>
      <path id="Times New Roman-76" d="M 1625 75
L 1475 75 
L 625 2525 
Q 600 2625 525 2687 
Q 450 2750 350 2750 
L 225 2750 
L 225 2900 
L 1300 2900 
L 1300 2750 
L 1200 2750 
Q 1050 2750 1025 2700 
Q 1000 2650 1000 2600 
Q 1000 2500 1025 2425 
L 1625 675 
L 1675 675 
L 2275 2400 
Q 2325 2525 2325 2575 
Q 2325 2600 2275 2675 
Q 2225 2750 2075 2750 
L 2025 2750 
L 2025 2900 
L 2925 2900 
L 2925 2750 
L 2875 2750 
Q 2725 2750 2637 2662 
Q 2550 2575 2475 2400 
L 1625 75 
z
M 2600 2750 
L 2600 2750 
z
M 2400 2750 
L 2400 2750 
z
M 925 2750 
L 925 2750 
z
M 550 2750 
L 550 2750 
z
" transform="scale(0.015625)"/>
     </defs>
     <use xlink:href="#Times New Roman-2e"/>
     <use xlink:href="#Times New Roman-2f" x="50"/>
     <use xlink:href="#Times New Roman-74" x="100"/>
     <use xlink:href="#Times New Roman-63" x="150"/>
     <use xlink:href="#Times New Roman-70" x="200"/>
     <use xlink:href="#Times New Roman-2f" x="250"/>
     <use xlink:href="#Times New Roman-74" x="300"/>
     <use xlink:href="#Times New Roman-70" x="350"/>
     <use xlink:href="#Times New Roman-37" x="400"/>
     <use xlink:href="#Times New Roman-5f" x="450"/>
     <use xlink:href="#Times New Roman-77" x="500"/>
     <use xlink:href="#Times New Roman-61" x="550"/>
     <use xlink:href="#Times New Roman-76" x="600"/>
     <use xlink:href="#Times New Roman-65" x="650"/>
    </g>
   </g>
   <g id="legend_1">
    <g id="patch_11">
     <path d="M 142 73.2775 
L 204 73.2775 
Q 206 73.2775 206 71.2775 
L 206 58.84 
Q 206 56.84 204 56.84 
L 142 56.84 
Q 140 56.84 140 58.84 
L 140 71.2775 
Q 140 73.2775 142 73.2775 
z
" style="fill: #ffffff; opacity: 0.8; stroke: #cccccc; stroke-linejoin: miter"/>
    </g>
    <g id="line2d_31">
     <path d="M 144 64.488437 
L 154 64.488437 
L 164 64.488437 
" style="fill: none; stroke: #1f77b4; stroke-width: 1.5; stroke-linecap: square"/>
    </g>
    <g id="text_24">
     <!-- buffer -->
     <g transform="translate(172 67.988437) scale(0.1 -0.1)">
      <use xlink:href="#Times New Roman-62"/>
      <use xlink:href="#Times New Roman-75" x="50"/>
      <use xlink:href="#Times New Roman-66" x="100"/>
      <use xlink:href="#Times New Roman-66" x="150"/>
      <use xlink:href="#Times New Roman-65" x="200"/>
      <use xlink:href="#Times New Roman-72" x="250"/>
     </g>
    </g>
   </g>
  </g>
 </g>
 <defs>
  <clipPath id="p574235420f">
   <rect x="135" y="51.84" width="837" height="332.64"/>
  </clipPath>
 </defs>
</svg>
