<?xml version="1.0" encoding="utf-8" standalone="no"?>
<!DOCTYPE svg PUBLIC "-//W3C//DTD SVG 1.1//EN"
  "http://www.w3.org/Graphics/SVG/1.1/DTD/svg11.dtd">
<svg xmlns:xlink="http://www.w3.org/1999/xlink" width="1080pt" height="432pt" viewBox="0 0 1080 432" xmlns="http://www.w3.org/2000/svg" version="1.1">
 <metadata>
  <rdf:RDF xmlns:dc="http://purl.org/dc/elements/1.1/" xmlns:cc="http://creativecommons.org/ns#" xmlns:rdf="http://www.w3.org/1999/02/22-rdf-syntax-ns#">
   <cc:Work>
    <dc:type rdf:resource="http://purl.org/dc/dcmitype/StillImage"/>
    <dc:date>2024-04-12T06:12:37.835968</dc:date>
    <dc:format>image/svg+xml</dc:format>
    <dc:creator>
     <cc:Agent>
      <dc:title>Matplotlib v3.8.3, https://matplotlib.org/</dc:title>
     </cc:Agent>
    </dc:creator>
   </cc:Work>
  </rdf:RDF>
 </metadata>
 <defs>
  <style type="text/css">*{stroke-linejoin: round; stroke-linecap: butt}</style>
 </defs>
 <g id="figure_1">
  <g id="patch_1">
   <path d="M 0 432 
L 1080 432 
L 1080 0 
L 0 0 
z
" style="fill: #ffffff"/>
  </g>
  <g id="axes_1">
   <g id="patch_2">
    <path d="M 135 384.48 
L 972 384.48 
L 972 51.84 
L 135 51.84 
z
" style="fill: #ffffff"/>
   </g>
   <g id="matplotlib.axis_1">
    <g id="xtick_1">
     <g id="line2d_1">
      <defs>
       <path id="m25a9277bc2" d="M 0 0 
L 0 3.5 
" style="stroke: #000000; stroke-width: 0.8"/>
      </defs>
      <g>
       <use xlink:href="#m25a9277bc2" x="173.045455" y="384.48" style="stroke: #000000; stroke-width: 0.8"/>
      </g>
     </g>
     <g id="text_1">
      <!-- 0 -->
      <g transform="translate(170.545455 398.628438) scale(0.1 -0.1)">
       <defs>
        <path id="Times New Roman-30" d="M 1600 4225
Q 1250 4225 1012 3687 
Q 775 3150 775 2250 
Q 775 1300 1012 775 
Q 1250 250 1600 250 
Q 1975 250 2187 775 
Q 2400 1300 2400 2250 
Q 2400 3150 2200 3687 
Q 2000 4225 1600 4225 
z
M 1600 50 
Q 1050 50 675 625 
Q 300 1200 300 2250 
Q 300 3225 662 3825 
Q 1025 4425 1600 4425 
Q 2150 4425 2512 3850 
Q 2875 3275 2875 2250 
Q 2875 1225 2512 637 
Q 2150 50 1600 50 
z
" transform="scale(0.015625)"/>
       </defs>
       <use xlink:href="#Times New Roman-30"/>
      </g>
     </g>
    </g>
    <g id="xtick_2">
     <g id="line2d_2">
      <g>
       <use xlink:href="#m25a9277bc2" x="299.863636" y="384.48" style="stroke: #000000; stroke-width: 0.8"/>
      </g>
     </g>
     <g id="text_2">
      <!-- 100 -->
      <g transform="translate(292.363636 398.628438) scale(0.1 -0.1)">
       <defs>
        <path id="Times New Roman-31" d="M 1825 4450
L 1825 650 
Q 1825 450 1950 350 
Q 2075 250 2300 250 
L 2550 250 
L 2550 100 
L 725 100 
L 725 250 
L 950 250 
Q 1200 250 1312 350 
Q 1425 450 1425 650 
L 1425 3675 
Q 1425 3775 1362 3837 
Q 1300 3900 1175 3900 
L 725 3900 
L 725 4050 
L 950 4050 
Q 1250 4050 1437 4150 
Q 1625 4250 1725 4450 
L 1825 4450 
z
" transform="scale(0.015625)"/>
       </defs>
       <use xlink:href="#Times New Roman-31"/>
       <use xlink:href="#Times New Roman-30" x="50"/>
       <use xlink:href="#Times New Roman-30" x="100"/>
      </g>
     </g>
    </g>
    <g id="xtick_3">
     <g id="line2d_3">
      <g>
       <use xlink:href="#m25a9277bc2" x="426.681818" y="384.48" style="stroke: #000000; stroke-width: 0.8"/>
      </g>
     </g>
     <g id="text_3">
      <!-- 200 -->
      <g transform="translate(419.181818 398.628438) scale(0.1 -0.1)">
       <defs>
        <path id="Times New Roman-32" d="M 2325 3325
Q 2325 3775 2125 4012 
Q 1925 4250 1525 4250 
Q 1225 4250 1012 4087 
Q 800 3925 800 3675 
Q 800 3525 900 3425 
Q 975 3325 975 3225 
Q 975 3100 912 3037 
Q 850 2975 725 2975 
Q 575 2975 487 3062 
Q 400 3150 400 3350 
Q 400 3875 775 4150 
Q 1150 4425 1575 4425 
Q 2175 4425 2462 4125 
Q 2750 3825 2750 3375 
Q 2750 3075 2612 2775 
Q 2475 2475 2175 2200 
Q 1450 1500 1062 1062 
Q 675 625 600 475 
L 2075 475 
Q 2300 475 2450 650 
Q 2600 825 2650 1175 
L 2800 1175 
L 2650 100 
L 325 100 
L 325 425 
Q 450 650 737 1000 
Q 1025 1350 1500 1825 
Q 1925 2250 2125 2625 
Q 2325 3000 2325 3325 
z
" transform="scale(0.015625)"/>
       </defs>
       <use xlink:href="#Times New Roman-32"/>
       <use xlink:href="#Times New Roman-30" x="50"/>
       <use xlink:href="#Times New Roman-30" x="100"/>
      </g>
     </g>
    </g>
    <g id="xtick_4">
     <g id="line2d_4">
      <g>
       <use xlink:href="#m25a9277bc2" x="553.5" y="384.48" style="stroke: #000000; stroke-width: 0.8"/>
      </g>
     </g>
     <g id="text_4">
      <!-- 300 -->
      <g transform="translate(546 398.628438) scale(0.1 -0.1)">
       <defs>
        <path id="Times New Roman-33" d="M 2800 1250
Q 2800 775 2450 412 
Q 2100 50 1475 50 
Q 1025 50 700 300 
Q 375 550 375 875 
Q 375 1025 475 1137 
Q 575 1250 675 1250 
Q 825 1250 887 1137 
Q 950 1025 950 950 
Q 950 825 900 750 
Q 850 650 850 575 
Q 850 425 1037 325 
Q 1225 225 1450 225 
Q 1900 225 2125 487 
Q 2350 750 2350 1300 
Q 2350 1750 2112 2025 
Q 1875 2300 1225 2300 
L 1225 2475 
Q 1725 2475 1962 2712 
Q 2200 2950 2200 3375 
Q 2200 3725 2012 3987 
Q 1825 4250 1425 4250 
Q 1250 4250 1050 4162 
Q 850 4075 850 3875 
Q 850 3675 900 3625 
Q 950 3575 950 3500 
Q 950 3375 900 3300 
Q 850 3225 725 3225 
Q 625 3225 537 3300 
Q 450 3375 450 3575 
Q 450 3950 775 4187 
Q 1100 4425 1525 4425 
Q 2025 4425 2325 4112 
Q 2625 3800 2625 3450 
Q 2625 3075 2437 2812 
Q 2250 2550 1850 2425 
Q 2400 2225 2600 1900 
Q 2800 1575 2800 1250 
z
" transform="scale(0.015625)"/>
       </defs>
       <use xlink:href="#Times New Roman-33"/>
       <use xlink:href="#Times New Roman-30" x="50"/>
       <use xlink:href="#Times New Roman-30" x="100"/>
      </g>
     </g>
    </g>
    <g id="xtick_5">
     <g id="line2d_5">
      <g>
       <use xlink:href="#m25a9277bc2" x="680.318182" y="384.48" style="stroke: #000000; stroke-width: 0.8"/>
      </g>
     </g>
     <g id="text_5">
      <!-- 400 -->
      <g transform="translate(672.818182 398.628438) scale(0.1 -0.1)">
       <defs>
        <path id="Times New Roman-34" d="M 2300 575
Q 2300 400 2400 325 
Q 2500 250 2675 250 
L 2900 250 
L 2900 100 
L 1250 100 
L 1250 250 
L 1525 250 
Q 1725 250 1812 325 
Q 1900 400 1900 575 
L 1900 1400 
L 225 1400 
L 225 1525 
L 2050 4425 
L 2300 4425 
L 2300 1550 
L 2975 1550 
L 2975 1400 
L 2300 1400 
L 2300 575 
z
M 1875 3800 
L 450 1550 
L 1900 1550 
L 1900 3800 
L 1875 3800 
z
" transform="scale(0.015625)"/>
       </defs>
       <use xlink:href="#Times New Roman-34"/>
       <use xlink:href="#Times New Roman-30" x="50"/>
       <use xlink:href="#Times New Roman-30" x="100"/>
      </g>
     </g>
    </g>
    <g id="xtick_6">
     <g id="line2d_6">
      <g>
       <use xlink:href="#m25a9277bc2" x="807.136364" y="384.48" style="stroke: #000000; stroke-width: 0.8"/>
      </g>
     </g>
     <g id="text_6">
      <!-- 500 -->
      <g transform="translate(799.636364 398.628438) scale(0.1 -0.1)">
       <defs>
        <path id="Times New Roman-35" d="M 1725 2850
Q 2200 2850 2500 2487 
Q 2800 2125 2800 1525 
Q 2800 850 2487 450 
Q 2175 50 1525 50 
Q 1075 50 725 312 
Q 375 575 375 950 
Q 375 1100 462 1212 
Q 550 1325 700 1325 
Q 850 1325 900 1225 
Q 950 1125 950 1050 
Q 950 900 875 825 
Q 800 725 800 625 
Q 800 425 1037 325 
Q 1275 225 1550 225 
Q 1950 225 2162 550 
Q 2375 875 2375 1475 
Q 2375 1975 2187 2287 
Q 2000 2600 1625 2600 
Q 1350 2600 1150 2500 
Q 950 2400 775 2075 
L 550 2100 
L 675 4375 
L 2725 4375 
L 2650 4000 
L 850 4000 
L 750 2350 
Q 1000 2700 1237 2775 
Q 1475 2850 1725 2850 
z
" transform="scale(0.015625)"/>
       </defs>
       <use xlink:href="#Times New Roman-35"/>
       <use xlink:href="#Times New Roman-30" x="50"/>
       <use xlink:href="#Times New Roman-30" x="100"/>
      </g>
     </g>
    </g>
    <g id="xtick_7">
     <g id="line2d_7">
      <g>
       <use xlink:href="#m25a9277bc2" x="933.954545" y="384.48" style="stroke: #000000; stroke-width: 0.8"/>
      </g>
     </g>
     <g id="text_7">
      <!-- 600 -->
      <g transform="translate(926.454545 398.628438) scale(0.1 -0.1)">
       <defs>
        <path id="Times New Roman-36" d="M 775 1800
Q 775 1050 1037 637 
Q 1300 225 1675 225 
Q 2050 225 2250 500 
Q 2450 775 2450 1525 
Q 2450 2025 2237 2300 
Q 2025 2575 1725 2575 
Q 1450 2575 1212 2412 
Q 975 2250 775 1800 
z
M 1750 2825 
Q 2350 2825 2612 2425 
Q 2875 2025 2875 1525 
Q 2875 775 2512 412 
Q 2150 50 1675 50 
Q 1000 50 650 562 
Q 300 1075 300 2050 
Q 300 3200 725 3812 
Q 1150 4425 1875 4425 
Q 2225 4425 2437 4225 
Q 2650 4025 2650 3875 
Q 2650 3725 2587 3650 
Q 2525 3575 2375 3575 
Q 2250 3575 2187 3637 
Q 2125 3700 2125 3825 
Q 2125 3875 2150 3925 
Q 2150 3975 2150 4025 
Q 2150 4125 2075 4187 
Q 2000 4250 1800 4250 
Q 1375 4250 1075 3862 
Q 775 3475 775 2175 
Q 925 2500 1187 2662 
Q 1450 2825 1750 2825 
z
" transform="scale(0.015625)"/>
       </defs>
       <use xlink:href="#Times New Roman-36"/>
       <use xlink:href="#Times New Roman-30" x="50"/>
       <use xlink:href="#Times New Roman-30" x="100"/>
      </g>
     </g>
    </g>
   </g>
   <g id="matplotlib.axis_2">
    <g id="ytick_1">
     <g id="line2d_8">
      <defs>
       <path id="mcd0cd78335" d="M 0 0 
L -3.5 0 
" style="stroke: #000000; stroke-width: 0.8"/>
      </defs>
      <g>
       <use xlink:href="#mcd0cd78335" x="135" y="378.227334" style="stroke: #000000; stroke-width: 0.8"/>
      </g>
     </g>
     <g id="text_8">
      <!-- 0 -->
      <g transform="translate(123 381.801553) scale(0.1 -0.1)">
       <use xlink:href="#Times New Roman-30"/>
      </g>
     </g>
    </g>
    <g id="ytick_2">
     <g id="line2d_9">
      <g>
       <use xlink:href="#mcd0cd78335" x="135" y="315.78132" style="stroke: #000000; stroke-width: 0.8"/>
      </g>
     </g>
     <g id="text_9">
      <!-- 1000 -->
      <g transform="translate(108 319.355539) scale(0.1 -0.1)">
       <use xlink:href="#Times New Roman-31"/>
       <use xlink:href="#Times New Roman-30" x="50"/>
       <use xlink:href="#Times New Roman-30" x="100"/>
       <use xlink:href="#Times New Roman-30" x="150"/>
      </g>
     </g>
    </g>
    <g id="ytick_3">
     <g id="line2d_10">
      <g>
       <use xlink:href="#mcd0cd78335" x="135" y="253.335307" style="stroke: #000000; stroke-width: 0.8"/>
      </g>
     </g>
     <g id="text_10">
      <!-- 2000 -->
      <g transform="translate(108 256.909525) scale(0.1 -0.1)">
       <use xlink:href="#Times New Roman-32"/>
       <use xlink:href="#Times New Roman-30" x="50"/>
       <use xlink:href="#Times New Roman-30" x="100"/>
       <use xlink:href="#Times New Roman-30" x="150"/>
      </g>
     </g>
    </g>
    <g id="ytick_4">
     <g id="line2d_11">
      <g>
       <use xlink:href="#mcd0cd78335" x="135" y="190.889293" style="stroke: #000000; stroke-width: 0.8"/>
      </g>
     </g>
     <g id="text_11">
      <!-- 3000 -->
      <g transform="translate(108 194.463512) scale(0.1 -0.1)">
       <use xlink:href="#Times New Roman-33"/>
       <use xlink:href="#Times New Roman-30" x="50"/>
       <use xlink:href="#Times New Roman-30" x="100"/>
       <use xlink:href="#Times New Roman-30" x="150"/>
      </g>
     </g>
    </g>
    <g id="ytick_5">
     <g id="line2d_12">
      <g>
       <use xlink:href="#mcd0cd78335" x="135" y="128.443279" style="stroke: #000000; stroke-width: 0.8"/>
      </g>
     </g>
     <g id="text_12">
      <!-- 4000 -->
      <g transform="translate(108 132.017498) scale(0.1 -0.1)">
       <use xlink:href="#Times New Roman-34"/>
       <use xlink:href="#Times New Roman-30" x="50"/>
       <use xlink:href="#Times New Roman-30" x="100"/>
       <use xlink:href="#Times New Roman-30" x="150"/>
      </g>
     </g>
    </g>
    <g id="ytick_6">
     <g id="line2d_13">
      <g>
       <use xlink:href="#mcd0cd78335" x="135" y="65.997266" style="stroke: #000000; stroke-width: 0.8"/>
      </g>
     </g>
     <g id="text_13">
      <!-- 5000 -->
      <g transform="translate(108 69.571484) scale(0.1 -0.1)">
       <use xlink:href="#Times New Roman-35"/>
       <use xlink:href="#Times New Roman-30" x="50"/>
       <use xlink:href="#Times New Roman-30" x="100"/>
       <use xlink:href="#Times New Roman-30" x="150"/>
      </g>
     </g>
    </g>
    <g id="text_14">
     <!-- Bitrate (kbps) -->
     <g transform="translate(102.710938 253.16) rotate(-90) scale(0.1 -0.1)">
      <defs>
       <path id="Times New Roman-42" d="M 100 100
L 100 250 
L 300 250 
Q 425 250 475 300 
Q 525 350 525 450 
L 525 4025 
Q 525 4125 475 4175 
Q 425 4225 300 4225 
L 150 4225 
L 150 4375 
L 1600 4375 
Q 2200 4375 2487 4137 
Q 2775 3900 2775 3400 
Q 2775 3050 2625 2825 
Q 2475 2600 2000 2425 
Q 2575 2250 2775 1925 
Q 2975 1600 2975 1200 
Q 2975 700 2625 400 
Q 2275 100 1675 100 
L 100 100 
z
M 1600 250 
Q 2025 250 2262 512 
Q 2500 775 2500 1250 
Q 2500 1800 2250 2062 
Q 2000 2325 1500 2325 
L 925 2325 
L 925 450 
Q 925 350 987 300 
Q 1050 250 1150 250 
L 1600 250 
z
M 2350 3400 
Q 2350 3850 2100 4037 
Q 1850 4225 1450 4225 
L 1150 4225 
Q 1050 4225 987 4175 
Q 925 4125 925 4025 
L 925 2475 
L 1575 2475 
Q 1850 2475 2100 2700 
Q 2350 2925 2350 3400 
z
" transform="scale(0.015625)"/>
       <path id="Times New Roman-69" d="M 1425 2525
Q 1425 2625 1375 2687 
Q 1325 2750 1200 2750 
L 675 2750 
L 675 2900 
L 925 2900 
Q 1150 2900 1350 2937 
Q 1550 2975 1725 3075 
L 1775 3075 
L 1775 450 
Q 1775 350 1837 300 
Q 1900 250 2000 250 
L 2525 250 
L 2525 100 
L 675 100 
L 675 250 
L 1200 250 
Q 1325 250 1375 300 
Q 1425 350 1425 450 
L 1425 2525 
z
M 1725 3025 
L 1725 3025 
z
M 1625 4425 
Q 1750 4425 1850 4337 
Q 1950 4250 1950 4125 
Q 1950 4000 1850 3900 
Q 1750 3800 1625 3800 
Q 1500 3800 1400 3900 
Q 1300 4000 1300 4125 
Q 1300 4250 1400 4337 
Q 1500 4425 1625 4425 
z
" transform="scale(0.015625)"/>
       <path id="Times New Roman-74" d="M 1500 900
Q 1500 550 1625 425 
Q 1750 300 2000 300 
Q 2250 300 2400 462 
Q 2550 625 2600 925 
L 2725 875 
Q 2675 525 2462 300 
Q 2250 75 1900 75 
Q 1525 75 1337 300 
Q 1150 525 1150 1000 
L 1150 2750 
L 400 2750 
L 400 2900 
L 600 2900 
Q 900 2900 1087 3087 
Q 1275 3275 1325 3675 
L 1350 3875 
L 1500 3875 
L 1500 2900 
L 2500 2900 
L 2500 2750 
L 1500 2750 
L 1500 900 
z
" transform="scale(0.015625)"/>
       <path id="Times New Roman-72" d="M 1275 2125
Q 1525 2525 1812 2737 
Q 2100 2950 2400 2950 
Q 2650 2950 2787 2837 
Q 2925 2725 2925 2575 
Q 2925 2450 2862 2375 
Q 2800 2300 2675 2300 
Q 2550 2300 2487 2375 
Q 2425 2450 2450 2575 
Q 2450 2650 2425 2700 
Q 2400 2750 2275 2750 
Q 2075 2750 1787 2500 
Q 1500 2250 1275 1800 
L 1275 450 
Q 1275 350 1337 300 
Q 1400 250 1500 250 
L 2050 250 
L 2050 100 
L 200 100 
L 200 250 
L 700 250 
Q 825 250 875 300 
Q 925 350 925 450 
L 925 2525 
Q 925 2625 875 2687 
Q 825 2750 700 2750 
L 225 2750 
L 225 2900 
L 425 2900 
Q 600 2900 837 2937 
Q 1075 2975 1200 3025 
L 1275 3025 
L 1275 2125 
z
" transform="scale(0.015625)"/>
       <path id="Times New Roman-61" d="M 1225 75
Q 775 75 525 287 
Q 275 500 275 775 
Q 275 1225 662 1512 
Q 1050 1800 2200 1925 
L 2200 2225 
Q 2200 2475 2087 2637 
Q 1975 2800 1575 2800 
Q 1150 2800 975 2662 
Q 800 2525 850 2375 
Q 875 2325 875 2275 
Q 875 2225 837 2150 
Q 800 2075 650 2075 
Q 550 2075 487 2137 
Q 425 2200 425 2325 
Q 425 2550 750 2750 
Q 1075 2950 1550 2950 
Q 2050 2950 2300 2762 
Q 2550 2575 2550 2225 
L 2550 575 
Q 2550 375 2587 337 
Q 2625 300 2725 300 
Q 2850 300 2900 412 
Q 2950 525 2950 725 
L 3075 725 
Q 3075 375 2950 237 
Q 2825 100 2625 100 
Q 2450 100 2350 175 
Q 2250 250 2200 425 
Q 1950 250 1737 162 
Q 1525 75 1225 75 
z
M 700 850 
Q 700 625 837 437 
Q 975 250 1275 250 
Q 1500 250 1725 337 
Q 1950 425 2200 600 
L 2200 1775 
Q 1350 1675 1025 1437 
Q 700 1200 700 850 
z
" transform="scale(0.015625)"/>
       <path id="Times New Roman-65" d="M 2400 1650
Q 2425 2200 2212 2487 
Q 2000 2775 1650 2775 
Q 1275 2775 1037 2475 
Q 800 2175 800 1650 
L 2400 1650 
z
M 800 1500 
Q 800 825 1062 537 
Q 1325 250 1750 250 
Q 2075 250 2300 437 
Q 2525 625 2625 900 
L 2750 850 
Q 2675 575 2412 312 
Q 2150 50 1700 50 
Q 1125 50 762 425 
Q 400 800 400 1500 
Q 400 2125 762 2537 
Q 1125 2950 1650 2950 
Q 2125 2950 2475 2625 
Q 2825 2300 2825 1500 
L 800 1500 
z
" transform="scale(0.015625)"/>
       <path id="Times New Roman-20" d="M 0 0
Q 0 0 0 0 
z
" transform="scale(0.015625)"/>
       <path id="Times New Roman-28" d="M 2900 5025
Q 2325 4425 2037 3737 
Q 1750 3050 1750 2300 
Q 1750 1525 2037 850 
Q 2325 175 2900 -425 
L 2775 -550 
Q 2075 75 1725 787 
Q 1375 1500 1375 2300 
Q 1375 3075 1725 3787 
Q 2075 4500 2775 5150 
L 2900 5025 
z
" transform="scale(0.015625)"/>
       <path id="Times New Roman-6b" d="M 1675 1900
L 2625 425 
Q 2700 325 2762 287 
Q 2825 250 2900 250 
L 3000 250 
L 3000 100 
L 1975 100 
L 1975 250 
L 2050 250 
Q 2175 250 2225 287 
Q 2275 325 2200 425 
L 1425 1650 
L 925 1125 
L 925 450 
Q 925 350 987 300 
Q 1050 250 1150 250 
L 1275 250 
L 1275 100 
L 225 100 
L 225 250 
L 350 250 
Q 475 250 525 300 
Q 575 350 575 450 
L 575 4025 
Q 575 4125 525 4175 
Q 475 4225 350 4225 
L 200 4225 
L 200 4375 
L 425 4375 
Q 575 4375 687 4425 
Q 800 4475 875 4575 
L 925 4575 
L 925 1400 
L 1975 2525 
Q 2025 2625 2012 2687 
Q 2000 2750 1900 2750 
L 1750 2750 
L 1750 2900 
L 2800 2900 
L 2800 2750 
L 2675 2750 
Q 2600 2750 2487 2712 
Q 2375 2675 2275 2575 
L 1675 1900 
z
M 2450 2750 
L 2450 2750 
z
M 2175 2750 
L 2175 2750 
z
M 2300 250 
L 2300 250 
z
M 2750 250 
L 2750 250 
z
" transform="scale(0.015625)"/>
       <path id="Times New Roman-62" d="M 875 2325
Q 1000 2600 1275 2762 
Q 1550 2925 1800 2925 
Q 2325 2925 2587 2562 
Q 2850 2200 2850 1500 
Q 2850 800 2512 437 
Q 2175 75 1675 75 
Q 1425 75 1212 162 
Q 1000 250 850 400 
L 625 100 
L 525 100 
L 525 4025 
Q 525 4125 475 4175 
Q 425 4225 300 4225 
L 150 4225 
L 150 4375 
L 375 4375 
Q 500 4375 625 4425 
Q 750 4475 875 4575 
L 875 2325 
z
M 875 925 
Q 875 650 1062 450 
Q 1250 250 1625 250 
Q 2075 250 2262 562 
Q 2450 875 2450 1500 
Q 2450 2100 2287 2412 
Q 2125 2725 1775 2725 
Q 1475 2725 1250 2550 
Q 1025 2375 875 1925 
L 875 925 
z
" transform="scale(0.015625)"/>
       <path id="Times New Roman-70" d="M 1150 -675
L 1325 -675 
L 1325 -825 
L 175 -825 
L 175 -675 
L 325 -675 
Q 450 -675 500 -625 
Q 550 -575 550 -450 
L 550 2500 
Q 550 2600 500 2662 
Q 450 2725 325 2725 
L 175 2725 
L 175 2875 
L 400 2875 
Q 525 2875 637 2900 
Q 750 2925 850 3000 
L 900 3000 
L 900 2425 
Q 1075 2675 1287 2800 
Q 1500 2925 1750 2925 
Q 2250 2925 2575 2587 
Q 2900 2250 2900 1525 
Q 2900 825 2550 450 
Q 2200 75 1725 75 
Q 1450 75 1262 162 
Q 1075 250 900 425 
L 900 -450 
Q 900 -575 975 -625 
Q 1050 -675 1150 -675 
z
M 900 750 
Q 1025 500 1212 375 
Q 1400 250 1650 250 
Q 2000 250 2250 562 
Q 2500 875 2500 1525 
Q 2500 2125 2312 2425 
Q 2125 2725 1750 2725 
Q 1525 2725 1300 2587 
Q 1075 2450 900 2150 
L 900 750 
z
" transform="scale(0.015625)"/>
       <path id="Times New Roman-73" d="M 625 2175
Q 625 2550 912 2750 
Q 1200 2950 1600 2950 
Q 1825 2950 2025 2900 
Q 2225 2825 2300 2825 
Q 2375 2825 2425 2850 
Q 2475 2875 2550 2950 
L 2650 2125 
L 2500 2100 
Q 2400 2425 2162 2612 
Q 1925 2800 1625 2800 
Q 1300 2800 1112 2675 
Q 925 2550 925 2325 
Q 925 2125 1012 2012 
Q 1100 1900 1325 1850 
Q 1500 1775 1775 1700 
Q 2025 1600 2250 1500 
Q 2450 1400 2587 1237 
Q 2725 1075 2725 875 
Q 2725 500 2462 287 
Q 2200 75 1700 75 
Q 1375 75 1225 150 
Q 1050 200 950 200 
Q 875 200 787 162 
Q 700 125 600 75 
L 525 1000 
L 675 1025 
Q 750 625 1000 425 
Q 1250 225 1700 225 
Q 2050 225 2237 350 
Q 2425 475 2425 725 
Q 2425 900 2325 1012 
Q 2225 1125 2125 1175 
Q 1875 1275 1575 1400 
Q 1275 1500 1050 1600 
Q 825 1700 725 1850 
Q 625 2000 625 2175 
z
" transform="scale(0.015625)"/>
       <path id="Times New Roman-29" d="M 275 5025
L 400 5150 
Q 1100 4500 1450 3787 
Q 1800 3075 1800 2300 
Q 1800 1500 1450 787 
Q 1100 75 400 -550 
L 275 -425 
Q 850 175 1137 850 
Q 1425 1525 1425 2300 
Q 1425 3050 1137 3737 
Q 850 4425 275 5025 
z
" transform="scale(0.015625)"/>
      </defs>
      <use xlink:href="#Times New Roman-42"/>
      <use xlink:href="#Times New Roman-69" x="50"/>
      <use xlink:href="#Times New Roman-74" x="100"/>
      <use xlink:href="#Times New Roman-72" x="150"/>
      <use xlink:href="#Times New Roman-61" x="200"/>
      <use xlink:href="#Times New Roman-74" x="250"/>
      <use xlink:href="#Times New Roman-65" x="300"/>
      <use xlink:href="#Times New Roman-20" x="350"/>
      <use xlink:href="#Times New Roman-28" x="400"/>
      <use xlink:href="#Times New Roman-6b" x="450"/>
      <use xlink:href="#Times New Roman-62" x="500"/>
      <use xlink:href="#Times New Roman-70" x="550"/>
      <use xlink:href="#Times New Roman-73" x="600"/>
      <use xlink:href="#Times New Roman-29" x="650"/>
     </g>
    </g>
   </g>
   <g id="line2d_14">
    <path d="M 173.045455 337.824763 
L 173.679545 337.824763 
L 174.313636 369.36 
L 175.581818 369.36 
L 176.215909 259.330124 
L 178.118182 369.36 
L 189.531818 369.36 
L 190.8 337.824763 
L 195.872727 337.824763 
L 197.140909 309.973841 
L 212.359091 309.973841 
L 213.627273 259.330124 
L 216.163636 259.330124 
L 217.431818 135.562125 
L 218.7 259.330124 
L 231.381818 259.330124 
L 232.65 135.562125 
L 245.965909 135.562125 
L 246.6 259.330124 
L 250.404545 259.330124 
L 251.672727 135.562125 
L 261.818182 135.562125 
L 263.086364 259.330124 
L 295.425 259.330124 
L 296.059091 309.973841 
L 304.302273 309.973841 
L 304.936364 337.824763 
L 319.520455 337.824763 
L 320.154545 369.36 
L 342.981818 369.36 
L 343.615909 337.824763 
L 344.25 369.36 
L 345.518182 369.36 
L 346.786364 337.824763 
L 360.736364 337.824763 
L 362.004545 309.973841 
L 364.540909 309.973841 
L 365.809091 259.330124 
L 384.831818 259.330124 
L 386.1 135.562125 
L 436.193182 135.562125 
L 436.827273 259.330124 
L 440.631818 259.330124 
L 441.9 135.562125 
L 443.168182 259.330124 
L 445.704545 259.330124 
L 446.338636 135.562125 
L 446.972727 309.973841 
L 449.509091 309.973841 
L 450.777273 259.330124 
L 452.045455 259.330124 
L 452.679545 135.562125 
L 453.313636 337.824763 
L 466.629545 337.824763 
L 467.263636 369.36 
L 469.8 369.36 
L 471.068182 309.973841 
L 472.336364 309.973841 
L 473.604545 369.36 
L 477.409091 369.36 
L 478.677273 337.824763 
L 479.945455 337.824763 
L 481.213636 369.36 
L 485.018182 369.36 
L 486.286364 337.824763 
L 487.554545 337.824763 
L 488.822727 259.330124 
L 490.725 259.330124 
L 491.359091 369.36 
L 492.627273 369.36 
L 493.895455 337.824763 
L 495.163636 337.824763 
L 496.431818 309.973841 
L 497.7 309.973841 
L 498.968182 337.824763 
L 500.236364 337.824763 
L 501.504545 309.973841 
L 506.577273 309.973841 
L 507.211364 259.330124 
L 507.845455 259.330124 
L 509.113636 135.562125 
L 510.381818 135.562125 
L 511.65 259.330124 
L 516.722727 259.330124 
L 517.356818 135.562125 
L 517.990909 135.562125 
L 519.259091 259.330124 
L 521.795455 259.330124 
L 522.429545 135.562125 
L 523.063636 259.330124 
L 526.868182 259.330124 
L 527.502273 135.562125 
L 533.843182 135.562125 
L 534.477273 259.330124 
L 548.427273 259.330124 
L 549.695455 135.562125 
L 566.815909 135.562125 
L 567.45 259.330124 
L 572.522727 259.330124 
L 573.790909 135.562125 
L 574.425 135.562125 
L 575.059091 259.330124 
L 580.131818 259.330124 
L 581.4 135.562125 
L 582.668182 259.330124 
L 583.936364 259.330124 
L 585.204545 135.562125 
L 588.375 135.562125 
L 589.009091 259.330124 
L 594.081818 259.330124 
L 595.35 135.562125 
L 598.520455 135.562125 
L 599.154545 259.330124 
L 603.593182 259.330124 
L 604.227273 309.973841 
L 609.3 309.973841 
L 609.934091 135.562125 
L 610.568182 337.824763 
L 620.079545 337.824763 
L 620.713636 369.36 
L 634.663636 369.36 
L 635.931818 337.824763 
L 636.565909 369.36 
L 650.515909 369.36 
L 651.15 309.973841 
L 665.1 309.973841 
L 666.368182 259.330124 
L 667.636364 259.330124 
L 668.904545 135.562125 
L 671.440909 135.562125 
L 672.709091 259.330124 
L 680.318182 259.330124 
L 681.586364 135.562125 
L 687.927273 135.562125 
L 689.195455 259.330124 
L 690.463636 259.330124 
L 691.731818 135.562125 
L 692.365909 135.562125 
L 693 259.330124 
L 696.804545 259.330124 
L 697.438636 135.562125 
L 698.072727 259.330124 
L 700.609091 259.330124 
L 701.877273 135.562125 
L 720.9 135.562125 
L 722.168182 259.330124 
L 723.436364 259.330124 
L 724.704545 135.562125 
L 725.972727 135.562125 
L 727.240909 259.330124 
L 731.045455 259.330124 
L 732.313636 135.562125 
L 733.581818 135.562125 
L 734.85 259.330124 
L 739.922727 259.330124 
L 741.190909 135.562125 
L 743.093182 135.562125 
L 743.727273 259.330124 
L 748.8 259.330124 
L 750.068182 309.973841 
L 756.409091 309.973841 
L 757.677273 337.824763 
L 760.213636 337.824763 
L 760.847727 309.973841 
L 763.384091 309.973841 
L 764.018182 337.824763 
L 765.920455 337.824763 
L 766.554545 369.36 
L 784.309091 369.36 
L 785.577273 337.824763 
L 804.6 337.824763 
L 805.868182 309.973841 
L 809.672727 309.973841 
L 810.940909 259.330124 
L 822.354545 259.330124 
L 823.622727 135.562125 
L 825.525 135.562125 
L 826.159091 259.330124 
L 827.427273 259.330124 
L 828.695455 135.562125 
L 829.329545 259.330124 
L 831.231818 259.330124 
L 831.865909 135.562125 
L 832.5 135.562125 
L 833.768182 259.330124 
L 837.572727 259.330124 
L 838.840909 135.562125 
L 900.347727 135.562125 
L 900.981818 259.330124 
L 903.518182 259.330124 
L 904.786364 135.562125 
L 906.054545 135.562125 
L 907.322727 259.330124 
L 912.395455 259.330124 
L 913.663636 135.562125 
L 914.297727 135.562125 
L 914.931818 337.824763 
L 923.809091 337.824763 
L 925.077273 259.330124 
L 926.979545 259.330124 
L 927.613636 369.36 
L 933.954545 369.36 
L 933.954545 369.36 
" clip-path="url(#p10ab10f41e)" style="fill: none; stroke: #ff0000; stroke-width: 1.5; stroke-linecap: square"/>
   </g>
   <g id="line2d_15">
    <path d="M 173.045455 345.811858 
L 174.313636 345.811858 
L 174.947727 345.612739 
L 175.581818 345.294147 
L 176.215909 344.593187 
L 178.118182 343.563768 
L 179.386364 341.817345 
L 180.654545 336.838915 
L 183.190909 330.953903 
L 186.995455 321.219352 
L 188.263636 317.334011 
L 189.531818 307.445294 
L 194.604545 286.146973 
L 195.872727 274.638156 
L 198.409091 263.387683 
L 200.945455 252.144136 
L 202.213636 246.035784 
L 204.75 231.930711 
L 207.286364 217.492194 
L 211.090909 199.246335 
L 212.359091 185.762559 
L 213.627273 178.594256 
L 214.895455 172.10803 
L 215.529545 165.406857 
L 216.163636 160.211115 
L 219.968182 144.242121 
L 221.236364 133.38201 
L 223.772727 123.6766 
L 225.040909 119.42351 
L 226.309091 127.068468 
L 227.577273 136.234244 
L 228.845455 157.702251 
L 230.113636 172.498692 
L 230.747727 194.354364 
L 231.381818 201.130739 
L 232.65 201.160447 
L 233.918182 197.484558 
L 235.186364 195.413815 
L 236.454545 199.435338 
L 237.722727 197.404427 
L 238.356818 197.227613 
L 238.990909 176.366515 
L 240.259091 153.948296 
L 241.527273 119.907992 
L 242.795455 101.29082 
L 243.429545 107.396841 
L 244.063636 146.494074 
L 245.965909 218.547515 
L 246.6 218.254102 
L 247.868182 192.27323 
L 250.404545 100.867086 
L 251.672727 80.897451 
L 252.940909 86.114407 
L 254.209091 96.959631 
L 255.477273 109.227092 
L 256.745455 117.630461 
L 258.013636 122.338324 
L 259.281818 121.72562 
L 260.55 121.517733 
L 261.818182 119.914486 
L 264.354545 117.066681 
L 265.622727 117.608613 
L 266.890909 118.566951 
L 268.159091 120.145087 
L 268.793182 130.029508 
L 269.427273 143.095346 
L 270.695455 155.863907 
L 271.963636 164.578606 
L 273.231818 169.943135 
L 274.5 171.738683 
L 275.768182 170.373763 
L 277.036364 169.67883 
L 278.304545 173.133876 
L 283.377273 202.579353 
L 284.645455 217.14596 
L 285.913636 223.699261 
L 287.181818 234.844259 
L 289.718182 244.467706 
L 292.254545 255.646775 
L 294.790909 268.240954 
L 296.059091 281.121751 
L 297.327273 286.650505 
L 298.595455 291.613348 
L 299.863636 300.748883 
L 303.668182 313.170611 
L 304.936364 321.096325 
L 307.472727 328.310722 
L 310.009091 334.5048 
L 313.813636 343.34146 
L 315.081818 345.826579 
L 316.35 347.921734 
L 317.618182 349.646376 
L 318.886364 350.98352 
L 319.520455 351.950784 
L 320.154545 352.607117 
L 321.422727 352.928472 
L 322.056818 352.952685 
L 323.959091 352.348274 
L 324.593182 351.667562 
L 325.227273 350.775334 
L 326.495455 350.438092 
L 327.763636 349.154468 
L 330.3 346.107835 
L 331.568182 343.418794 
L 332.836364 340.260657 
L 336.640909 329.163285 
L 339.177273 320.240199 
L 341.713636 310.273282 
L 342.981818 304.879712 
L 344.884091 288.426036 
L 345.518182 283.716874 
L 349.322727 271.626693 
L 349.956818 270.703391 
L 350.590909 273.445421 
L 351.859091 275.771144 
L 352.493182 274.019092 
L 353.127273 268.6119 
L 354.395455 260.456583 
L 355.663636 240.260677 
L 356.931818 234.371435 
L 358.2 231.4811 
L 359.468182 226.151441 
L 360.736364 218.918661 
L 362.004545 209.368717 
L 363.272727 190.983112 
L 364.540909 177.611172 
L 365.809091 172.439044 
L 368.345455 163.841843 
L 369.613636 159.047221 
L 370.881818 147.525982 
L 372.15 141.894584 
L 373.418182 151.38721 
L 374.686364 167.634497 
L 375.954545 200.086109 
L 377.222727 229.047271 
L 377.856818 267.197922 
L 378.490909 290.938764 
L 379.759091 306.441961 
L 381.027273 308.082476 
L 382.295455 304.299047 
L 383.563636 297.707179 
L 384.831818 276.899135 
L 386.1 269.336939 
L 387.368182 249.700249 
L 388.002273 254.756844 
L 388.636364 254.246785 
L 389.904545 268.858087 
L 390.538636 271.3105 
L 391.172727 283.135577 
L 392.440909 276.717425 
L 393.709091 265.153989 
L 394.977273 262.102427 
L 396.245455 260.95049 
L 397.513636 246.83406 
L 398.781818 246.666772 
L 400.05 229.613415 
L 401.318182 228.057826 
L 402.586364 210.512362 
L 403.854545 225.577071 
L 405.122727 212.949888 
L 406.390909 233.934512 
L 407.659091 229.009071 
L 408.927273 253.237391 
L 410.195455 247.042181 
L 411.463636 265.894649 
L 412.731818 256.5044 
L 414 269.910877 
L 415.268182 255.878641 
L 416.536364 267.616327 
L 417.804545 258.410919 
L 419.072727 269.921701 
L 420.340909 258.58227 
L 420.975 270.610105 
L 421.609091 273.030013 
L 422.877273 281.094075 
L 424.145455 279.839793 
L 425.413636 276.474136 
L 426.681818 270.383568 
L 427.95 250.482007 
L 429.218182 240.224441 
L 430.486364 225.377444 
L 431.754545 224.208454 
L 433.022727 215.547009 
L 434.290909 230.669402 
L 435.559091 242.010164 
L 436.193182 256.562716 
L 436.827273 259.797453 
L 438.095455 264.00425 
L 439.363636 262.440069 
L 440.631818 261.151682 
L 441.9 262.004145 
L 443.168182 270.106741 
L 444.436364 285.143874 
L 445.704545 295.496091 
L 446.338636 304.492746 
L 446.972727 307.970473 
L 448.240909 314.288944 
L 448.875 313.958863 
L 449.509091 312.071128 
L 450.777273 310.150322 
L 451.411364 314.522442 
L 453.313636 332.492873 
L 454.581818 336.78676 
L 455.85 339.827998 
L 457.118182 341.742376 
L 458.386364 341.212534 
L 459.654545 342.713137 
L 460.922727 343.441507 
L 462.190909 343.950434 
L 463.459091 343.061103 
L 464.727273 344.73399 
L 465.995455 346.181472 
L 466.629545 348.122361 
L 467.263636 349.114836 
L 469.165909 351.430867 
L 469.8 351.945422 
L 471.068182 352.584669 
L 472.336364 354.637761 
L 473.604545 356.464282 
L 474.238636 357.605062 
L 474.872727 357.305521 
L 476.140909 356.379822 
L 477.409091 352.1635 
L 479.311364 349.321657 
L 479.945455 347.974921 
L 481.213636 346.322317 
L 482.481818 342.986434 
L 483.75 341.38695 
L 484.384091 339.555134 
L 485.018182 337.335819 
L 486.286364 334.675452 
L 487.554545 329.88203 
L 488.822727 328.583552 
L 489.456818 329.265529 
L 490.090909 331.750714 
L 490.725 332.846434 
L 491.359091 331.180907 
L 492.627273 325.06203 
L 493.895455 320.146546 
L 494.529545 318.478122 
L 495.163636 321.428538 
L 496.431818 325.298659 
L 497.7 325.951428 
L 498.968182 323.873491 
L 499.602273 323.755393 
L 500.236364 322.916751 
L 501.504545 320.854767 
L 502.772727 321.49941 
L 504.040909 319.009896 
L 504.675 314.571 
L 505.309091 305.459943 
L 506.577273 300.688468 
L 507.211364 297.454031 
L 507.845455 303.309369 
L 509.113636 303.807405 
L 509.747727 307.851676 
L 510.381818 309.162942 
L 511.65 307.199806 
L 512.918182 292.54351 
L 514.186364 271.032041 
L 514.820455 254.981417 
L 515.454545 246.540781 
L 516.722727 242.221881 
L 517.356818 238.961633 
L 517.990909 236.978115 
L 519.259091 229.617145 
L 520.527273 227.681818 
L 521.795455 223.50836 
L 522.429545 228.794156 
L 523.063636 235.300698 
L 524.331818 238.163989 
L 524.965909 225.127626 
L 525.6 208.062346 
L 526.868182 192.434157 
L 528.136364 163.084198 
L 529.404545 147.354663 
L 530.038636 133.881944 
L 530.672727 117.984488 
L 532.575 101.714287 
L 534.477273 92.532425 
L 535.745455 87.705798 
L 537.013636 85.746059 
L 537.647727 84.061149 
L 538.281818 82.018015 
L 539.55 79.729793 
L 540.818182 77.82121 
L 542.086364 77.983237 
L 542.720455 95.385192 
L 543.354545 130.000133 
L 544.622727 171.635805 
L 545.890909 263.490327 
L 547.159091 287.365353 
L 547.793182 293.206237 
L 548.427273 291.538046 
L 549.695455 293.61595 
L 550.963636 272.842442 
L 552.231818 239.085759 
L 553.5 156.454962 
L 555.402273 81.04146 
L 556.036364 72.498112 
L 557.304545 73.671598 
L 557.938636 75.266719 
L 558.572727 77.316014 
L 559.840909 79.508585 
L 561.109091 84.758213 
L 562.377273 87.708163 
L 563.011364 96.889259 
L 563.645455 112.516249 
L 564.913636 135.02449 
L 566.181818 163.316764 
L 566.815909 190.198457 
L 567.45 208.772632 
L 568.718182 209.000169 
L 569.986364 198.070951 
L 571.254545 157.989236 
L 572.522727 140.641167 
L 573.790909 148.276 
L 574.425 162.820259 
L 575.059091 183.790364 
L 576.327273 191.982381 
L 577.595455 199.077614 
L 578.863636 196.780167 
L 580.131818 193.833814 
L 581.4 189.040291 
L 582.668182 192.905983 
L 583.936364 208.682044 
L 585.838636 218.369735 
L 586.472727 222.883666 
L 587.740909 224.976657 
L 588.375 231.121045 
L 589.009091 244.392505 
L 590.277273 261.052868 
L 591.545455 275.543007 
L 593.447727 288.815666 
L 594.081818 286.727538 
L 595.35 284.686802 
L 596.618182 290.612013 
L 597.886364 301.730967 
L 598.520455 311.65279 
L 599.154545 318.013291 
L 600.422727 322.540344 
L 601.690909 324.61152 
L 602.959091 324.577449 
L 603.593182 325.40157 
L 604.227273 328.495429 
L 605.495455 333.032306 
L 606.763636 334.044298 
L 608.031818 334.737699 
L 608.665909 334.046296 
L 609.934091 335.81973 
L 610.568182 338.014566 
L 611.836364 347.57903 
L 613.104545 350.335814 
L 614.372727 351.424173 
L 616.275 352.333553 
L 616.909091 350.630692 
L 618.177273 349.057519 
L 618.811364 348.528743 
L 619.445455 349.472393 
L 620.079545 350.079069 
L 621.347727 351.679519 
L 621.981818 352.240367 
L 623.25 352.721085 
L 624.518182 353.567853 
L 625.786364 353.782167 
L 627.054545 353.695909 
L 628.322727 353.153311 
L 629.590909 353.543141 
L 630.859091 353.520893 
L 631.493182 353.190146 
L 632.127273 351.462706 
L 633.395455 349.702361 
L 634.663636 343.456494 
L 635.931818 340.814112 
L 636.565909 340.902203 
L 637.2 342.43541 
L 638.468182 344.667248 
L 641.004545 351.959576 
L 641.638636 355.132767 
L 642.272727 356.249235 
L 643.540909 356.417522 
L 644.809091 355.411392 
L 646.077273 351.998509 
L 646.711364 344.182567 
L 647.345455 332.593386 
L 649.881818 304.778266 
L 650.515909 291.76515 
L 651.15 281.50039 
L 652.418182 275.071282 
L 653.686364 270.221675 
L 656.856818 256.494042 
L 658.759091 259.41162 
L 660.027273 267.064204 
L 661.295455 271.111838 
L 662.563636 274.728478 
L 663.831818 266.190426 
L 664.465909 256.168324 
L 665.1 236.705184 
L 666.368182 220.513449 
L 667.002273 201.845688 
L 667.636364 191.904182 
L 668.904545 182.469206 
L 672.709091 166.595795 
L 673.977273 169.028492 
L 676.513636 201.796896 
L 677.781818 224.939989 
L 679.05 234.383391 
L 679.684091 246.515869 
L 680.318182 240.369649 
L 681.586364 240.247355 
L 682.854545 222.963964 
L 684.122727 208.980586 
L 685.390909 186.519304 
L 686.659091 168.261655 
L 687.927273 124.358477 
L 689.195455 121.77964 
L 689.829545 137.066025 
L 690.463636 172.471116 
L 691.731818 205.061774 
L 692.365909 226.322693 
L 693 221.390391 
L 696.804545 142.730228 
L 697.438636 136.334024 
L 698.072727 131.107176 
L 699.340909 127.985142 
L 700.609091 85.846206 
L 701.877273 66.96716 
L 702.511364 66.96 
L 704.413636 67.633984 
L 705.681818 69.168491 
L 706.95 70.09519 
L 708.218182 72.497812 
L 709.486364 73.891374 
L 710.754545 75.657547 
L 712.022727 77.804025 
L 713.290909 94.475112 
L 715.827273 137.308215 
L 717.095455 145.675648 
L 717.729545 158.441312 
L 718.363636 165.314436 
L 719.631818 167.470905 
L 720.9 161.310531 
L 722.168182 161.35113 
L 722.802273 169.676166 
L 723.436364 182.04434 
L 724.704545 198.722821 
L 725.338636 225.494609 
L 725.972727 261.402632 
L 727.240909 280.766858 
L 727.875 274.198603 
L 728.509091 250.286609 
L 729.777273 225.130657 
L 731.045455 175.59305 
L 732.313636 166.673928 
L 732.947727 175.80943 
L 733.581818 188.69096 
L 734.85 202.49799 
L 735.484091 212.298617 
L 736.118182 218.182864 
L 737.386364 218.825208 
L 738.020455 215.552271 
L 738.654545 211.610745 
L 739.922727 211.734505 
L 741.190909 215.804953 
L 742.459091 221.326146 
L 743.727273 232.821841 
L 748.8 255.817927 
L 751.336364 268.173712 
L 755.140909 288.003735 
L 757.677273 300.164255 
L 758.945455 310.9466 
L 760.213636 319.366254 
L 760.847727 322.682787 
L 761.481818 325.195082 
L 762.75 327.492762 
L 764.018182 331.932257 
L 765.286364 334.089059 
L 766.554545 338.600626 
L 767.822727 340.691052 
L 769.090909 344.455497 
L 770.359091 346.154895 
L 771.627273 348.887033 
L 772.895455 350.015457 
L 774.163636 350.884606 
L 775.431818 351.60132 
L 776.7 352.744764 
L 778.602273 353.088234 
L 780.504545 352.495713 
L 781.772727 351.756252 
L 783.040909 350.680616 
L 784.309091 347.820422 
L 785.577273 346.130349 
L 786.845455 342.304623 
L 789.381818 338.2065 
L 790.65 335.644182 
L 791.918182 329.447306 
L 793.186364 327.144197 
L 794.454545 322.230245 
L 795.722727 318.874546 
L 796.356818 315.404413 
L 796.990909 310.78464 
L 802.063636 292.08131 
L 803.331818 286.663793 
L 804.6 276.520962 
L 807.136364 267.069466 
L 808.404545 261.378153 
L 809.672727 254.929428 
L 810.940909 247.296327 
L 813.477273 236.584921 
L 814.111364 231.953359 
L 814.745455 225.249288 
L 816.013636 219.028866 
L 819.818182 196.502507 
L 821.086364 190.328444 
L 822.354545 176.925698 
L 823.622727 170.179397 
L 824.890909 164.104915 
L 826.793182 149.068881 
L 827.427273 144.391325 
L 828.695455 139.803791 
L 829.329545 139.984835 
L 830.597727 148.739533 
L 831.231818 149.758652 
L 831.865909 153.681061 
L 832.5 160.636481 
L 833.768182 163.034108 
L 834.402273 175.195294 
L 835.036364 200.532556 
L 836.304545 227.409753 
L 837.572727 271.046561 
L 838.840909 286.938889 
L 840.109091 291.748198 
L 841.377273 279.460354 
L 842.645455 275.389407 
L 843.913636 261.378553 
L 844.547727 256.276131 
L 845.181818 253.441914 
L 847.084091 273.014094 
L 847.718182 293.17946 
L 848.986364 302.372712 
L 849.620455 310.238113 
L 850.254545 314.978814 
L 851.522727 320.191175 
L 852.156818 321.260517 
L 852.790909 321.786662 
L 854.059091 329.159121 
L 855.327273 339.206902 
L 856.595455 343.673707 
L 857.863636 357.06413 
L 859.131818 357.49266 
L 859.765909 356.079914 
L 860.4 355.701808 
L 861.668182 353.825397 
L 862.936364 351.273836 
L 864.204545 347.794644 
L 865.472727 348.568342 
L 866.740909 347.027774 
L 868.009091 347.657662 
L 869.277273 346.030569 
L 870.545455 349.019718 
L 871.813636 346.540528 
L 873.081818 349.031008 
L 874.35 348.642911 
L 874.984091 353.047603 
L 875.618182 356.080181 
L 876.886364 359.930286 
L 878.154545 361.571267 
L 879.422727 360.956598 
L 880.690909 360.790575 
L 881.959091 356.373993 
L 883.227273 356.015736 
L 884.495455 352.66127 
L 885.763636 355.576083 
L 887.031818 349.794182 
L 888.3 350.114239 
L 889.568182 339.809647 
L 890.836364 337.22295 
L 892.104545 324.860238 
L 893.372727 320.686979 
L 894.640909 309.563995 
L 895.909091 303.986617 
L 897.177273 292.781471 
L 898.445455 293.350912 
L 899.713636 293.030422 
L 900.347727 297.264395 
L 900.981818 297.969752 
L 902.25 301.643776 
L 902.884091 304.56182 
L 903.518182 310.503317 
L 904.786364 318.02608 
L 906.054545 329.833372 
L 907.322727 337.127033 
L 908.590909 338.692047 
L 909.859091 334.15377 
L 911.127273 327.604965 
L 912.395455 323.94403 
L 913.663636 325.863171 
L 914.297727 330.913005 
L 914.931818 338.674895 
L 916.2 345.774657 
L 917.468182 350.632557 
L 918.736364 352.822364 
L 920.004545 352.598591 
L 922.540909 350.636787 
L 923.175 350.463703 
L 923.809091 350.077937 
L 925.077273 350.542335 
L 926.345455 350.847105 
L 926.979545 351.821229 
L 927.613636 352.457213 
L 928.881818 352.821665 
L 930.15 352.958779 
L 931.418182 352.933335 
L 932.686364 352.623669 
L 933.954545 351.922042 
L 933.954545 351.922042 
" clip-path="url(#p10ab10f41e)" style="fill: none; stroke: #008000; stroke-width: 1.5; stroke-linecap: square"/>
   </g>
   <g id="patch_3">
    <path d="M 135 384.48 
L 135 51.84 
" style="fill: none; stroke: #000000; stroke-width: 0.8; stroke-linejoin: miter; stroke-linecap: square"/>
   </g>
   <g id="patch_4">
    <path d="M 972 384.48 
L 972 51.84 
" style="fill: none; stroke: #000000; stroke-width: 0.8; stroke-linejoin: miter; stroke-linecap: square"/>
   </g>
   <g id="patch_5">
    <path d="M 135 384.48 
L 972 384.48 
" style="fill: none; stroke: #000000; stroke-width: 0.8; stroke-linejoin: miter; stroke-linecap: square"/>
   </g>
   <g id="patch_6">
    <path d="M 135 51.84 
L 972 51.84 
" style="fill: none; stroke: #000000; stroke-width: 0.8; stroke-linejoin: miter; stroke-linecap: square"/>
   </g>
  </g>
  <g id="axes_2">
   <g id="matplotlib.axis_3">
    <g id="ytick_7">
     <g id="line2d_16">
      <path d="M 135 369.36 
L 972 369.36 
" clip-path="url(#p10ab10f41e)" style="fill: none; stroke: #b0b0b0; stroke-width: 0.8; stroke-linecap: square"/>
     </g>
     <g id="line2d_17">
      <defs>
       <path id="m1b7ba3311c" d="M 0 0 
L 3.5 0 
" style="stroke: #000000; stroke-width: 0.8"/>
      </defs>
      <g>
       <use xlink:href="#m1b7ba3311c" x="972" y="369.36" style="stroke: #000000; stroke-width: 0.8"/>
      </g>
     </g>
     <g id="text_15">
      <!-- 0 -->
      <g transform="translate(979 372.934219) scale(0.1 -0.1)">
       <use xlink:href="#Times New Roman-30"/>
      </g>
     </g>
    </g>
    <g id="ytick_8">
     <g id="line2d_18">
      <path d="M 135 320.997151 
L 972 320.997151 
" clip-path="url(#p10ab10f41e)" style="fill: none; stroke: #b0b0b0; stroke-width: 0.8; stroke-linecap: square"/>
     </g>
     <g id="line2d_19">
      <g>
       <use xlink:href="#m1b7ba3311c" x="972" y="320.997151" style="stroke: #000000; stroke-width: 0.8"/>
      </g>
     </g>
     <g id="text_16">
      <!-- 5 -->
      <g transform="translate(979 324.571369) scale(0.1 -0.1)">
       <use xlink:href="#Times New Roman-35"/>
      </g>
     </g>
    </g>
    <g id="ytick_9">
     <g id="line2d_20">
      <path d="M 135 272.634301 
L 972 272.634301 
" clip-path="url(#p10ab10f41e)" style="fill: none; stroke: #b0b0b0; stroke-width: 0.8; stroke-linecap: square"/>
     </g>
     <g id="line2d_21">
      <g>
       <use xlink:href="#m1b7ba3311c" x="972" y="272.634301" style="stroke: #000000; stroke-width: 0.8"/>
      </g>
     </g>
     <g id="text_17">
      <!-- 10 -->
      <g transform="translate(979 276.20852) scale(0.1 -0.1)">
       <use xlink:href="#Times New Roman-31"/>
       <use xlink:href="#Times New Roman-30" x="50"/>
      </g>
     </g>
    </g>
    <g id="ytick_10">
     <g id="line2d_22">
      <path d="M 135 224.271452 
L 972 224.271452 
" clip-path="url(#p10ab10f41e)" style="fill: none; stroke: #b0b0b0; stroke-width: 0.8; stroke-linecap: square"/>
     </g>
     <g id="line2d_23">
      <g>
       <use xlink:href="#m1b7ba3311c" x="972" y="224.271452" style="stroke: #000000; stroke-width: 0.8"/>
      </g>
     </g>
     <g id="text_18">
      <!-- 15 -->
      <g transform="translate(979 227.845671) scale(0.1 -0.1)">
       <use xlink:href="#Times New Roman-31"/>
       <use xlink:href="#Times New Roman-35" x="50"/>
      </g>
     </g>
    </g>
    <g id="ytick_11">
     <g id="line2d_24">
      <path d="M 135 175.908603 
L 972 175.908603 
" clip-path="url(#p10ab10f41e)" style="fill: none; stroke: #b0b0b0; stroke-width: 0.8; stroke-linecap: square"/>
     </g>
     <g id="line2d_25">
      <g>
       <use xlink:href="#m1b7ba3311c" x="972" y="175.908603" style="stroke: #000000; stroke-width: 0.8"/>
      </g>
     </g>
     <g id="text_19">
      <!-- 20 -->
      <g transform="translate(979 179.482821) scale(0.1 -0.1)">
       <use xlink:href="#Times New Roman-32"/>
       <use xlink:href="#Times New Roman-30" x="50"/>
      </g>
     </g>
    </g>
    <g id="ytick_12">
     <g id="line2d_26">
      <path d="M 135 127.545753 
L 972 127.545753 
" clip-path="url(#p10ab10f41e)" style="fill: none; stroke: #b0b0b0; stroke-width: 0.8; stroke-linecap: square"/>
     </g>
     <g id="line2d_27">
      <g>
       <use xlink:href="#m1b7ba3311c" x="972" y="127.545753" style="stroke: #000000; stroke-width: 0.8"/>
      </g>
     </g>
     <g id="text_20">
      <!-- 25 -->
      <g transform="translate(979 131.119972) scale(0.1 -0.1)">
       <use xlink:href="#Times New Roman-32"/>
       <use xlink:href="#Times New Roman-35" x="50"/>
      </g>
     </g>
    </g>
    <g id="ytick_13">
     <g id="line2d_28">
      <path d="M 135 79.182904 
L 972 79.182904 
" clip-path="url(#p10ab10f41e)" style="fill: none; stroke: #b0b0b0; stroke-width: 0.8; stroke-linecap: square"/>
     </g>
     <g id="line2d_29">
      <g>
       <use xlink:href="#m1b7ba3311c" x="972" y="79.182904" style="stroke: #000000; stroke-width: 0.8"/>
      </g>
     </g>
     <g id="text_21">
      <!-- 30 -->
      <g transform="translate(979 82.757123) scale(0.1 -0.1)">
       <use xlink:href="#Times New Roman-33"/>
       <use xlink:href="#Times New Roman-30" x="50"/>
      </g>
     </g>
    </g>
    <g id="text_22">
     <!-- buffer (s) -->
     <g transform="translate(1000.617188 243.16) rotate(-90) scale(0.1 -0.1)">
      <defs>
       <path id="Times New Roman-75" d="M 1450 325
Q 1750 325 1962 475 
Q 2175 625 2275 950 
L 2275 2525 
Q 2275 2625 2225 2687 
Q 2175 2750 2050 2750 
L 1900 2750 
L 1900 2900 
L 2050 2900 
Q 2200 2900 2325 2925 
Q 2450 2950 2575 3050 
L 2625 3050 
L 2625 600 
Q 2625 500 2687 450 
Q 2750 400 2850 400 
L 3000 400 
L 3000 250 
L 2850 250 
Q 2725 250 2600 212 
Q 2475 175 2325 100 
L 2275 100 
L 2275 625 
Q 2150 350 1900 212 
Q 1650 75 1325 75 
Q 925 75 725 300 
Q 525 525 525 1025 
L 525 2525 
Q 525 2625 475 2687 
Q 425 2750 300 2750 
L 150 2750 
L 150 2900 
L 300 2900 
Q 450 2900 575 2925 
Q 700 2950 825 3050 
L 875 3050 
L 875 975 
Q 875 625 1025 475 
Q 1175 325 1450 325 
z
" transform="scale(0.015625)"/>
       <path id="Times New Roman-66" d="M 1125 3325
Q 1125 3850 1450 4112 
Q 1775 4375 2175 4375 
Q 2600 4375 2812 4225 
Q 3025 4075 3025 3875 
Q 3025 3775 2975 3700 
Q 2925 3625 2775 3625 
Q 2675 3625 2612 3675 
Q 2550 3725 2550 3850 
Q 2550 3875 2575 3925 
Q 2575 3975 2575 4000 
Q 2575 4100 2500 4162 
Q 2425 4225 2150 4225 
Q 1850 4225 1662 4037 
Q 1475 3850 1475 3400 
L 1475 2900 
L 2525 2900 
L 2525 2750 
L 1475 2750 
L 1475 450 
Q 1475 350 1537 300 
Q 1600 250 1700 250 
L 2300 250 
L 2300 100 
L 475 100 
L 475 250 
L 900 250 
Q 1025 250 1075 300 
Q 1125 350 1125 450 
L 1125 2750 
L 350 2750 
L 350 2900 
L 1125 2900 
L 1125 3325 
z
" transform="scale(0.015625)"/>
      </defs>
      <use xlink:href="#Times New Roman-62"/>
      <use xlink:href="#Times New Roman-75" x="50"/>
      <use xlink:href="#Times New Roman-66" x="100"/>
      <use xlink:href="#Times New Roman-66" x="150"/>
      <use xlink:href="#Times New Roman-65" x="200"/>
      <use xlink:href="#Times New Roman-72" x="250"/>
      <use xlink:href="#Times New Roman-20" x="300"/>
      <use xlink:href="#Times New Roman-28" x="350"/>
      <use xlink:href="#Times New Roman-73" x="400"/>
      <use xlink:href="#Times New Roman-29" x="450"/>
     </g>
    </g>
   </g>
   <g id="line2d_30">
    <path d="M 173.045455 369.36 
L 173.679545 369.36 
L 174.947727 343.56648 
L 175.581818 324.221341 
L 176.215909 317.772961 
L 178.118182 312.417581 
L 179.386364 304.279726 
L 180.020455 296.14187 
L 180.654545 290.096514 
L 181.922727 283.780326 
L 183.190909 274.088411 
L 184.459091 257.680508 
L 185.727273 247.743555 
L 188.263636 202.485601 
L 188.897727 182.708419 
L 189.531818 175.792532 
L 190.8 176.221349 
L 193.336364 183.775626 
L 194.604545 186.716087 
L 195.872727 185.903592 
L 197.140909 186.322736 
L 198.409091 183.698246 
L 199.677273 187.309338 
L 203.481818 196.433796 
L 204.75 192.948447 
L 206.018182 195.911477 
L 207.286364 192.445473 
L 208.554545 196.253241 
L 211.090909 189.292215 
L 212.359091 176.546992 
L 213.627273 176.946792 
L 214.895455 173.870915 
L 215.529545 173.638773 
L 216.163636 167.196841 
L 217.431818 161.196624 
L 219.968182 155.112578 
L 220.602273 155.090008 
L 221.236364 148.551351 
L 222.504545 148.467522 
L 223.772727 144.956379 
L 225.040909 141.9869 
L 227.577273 122.312893 
L 230.113636 103.403019 
L 231.381818 90.209634 
L 232.65 89.748575 
L 233.918182 86.272898 
L 235.186364 89.722781 
L 236.454545 87.101515 
L 237.722727 83.993396 
L 238.356818 77.422496 
L 238.990909 77.013024 
L 240.259091 83.500094 
L 241.527273 86.998341 
L 242.795455 89.935578 
L 243.429545 89.477743 
L 244.063636 89.271394 
L 245.331818 89.671194 
L 245.965909 90.070994 
L 246.6 90.180616 
L 247.868182 83.89667 
L 249.136364 80.420993 
L 251.672727 86.663025 
L 252.940909 89.832404 
L 254.209091 86.604989 
L 255.477273 89.555123 
L 256.745455 86.756526 
L 258.013636 90.303135 
L 259.281818 93.26939 
L 260.55 96.63222 
L 261.818182 99.614596 
L 263.086364 96.993329 
L 265.622727 89.932353 
L 266.890909 92.914729 
L 268.159091 96.445217 
L 268.793182 96.841792 
L 269.427273 96.383958 
L 270.695455 102.380951 
L 271.963636 105.35043 
L 273.231818 109.174319 
L 274.5 105.68897 
L 275.768182 108.664897 
L 277.036364 105.18922 
L 278.304545 102.584075 
L 280.840909 95.771361 
L 282.109091 98.744065 
L 283.377273 102.584075 
L 284.645455 116.151466 
L 286.547727 116.402953 
L 287.181818 116.032171 
L 288.45 122.322566 
L 292.254545 150.78249 
L 293.522727 160.197125 
L 294.790909 170.472618 
L 295.425 177.31435 
L 296.059091 176.859739 
L 297.327273 176.408352 
L 298.595455 179.597076 
L 299.863636 193.541698 
L 301.131818 199.309773 
L 302.4 208.51806 
L 303.668182 211.606834 
L 304.936364 212.777215 
L 306.204545 219.489978 
L 310.009091 247.395342 
L 312.545455 267.043556 
L 315.081818 285.921188 
L 316.35 296.225699 
L 317.618182 305.61454 
L 318.886364 309.032182 
L 319.520455 309.009612 
L 320.154545 309.412636 
L 321.422727 315.838447 
L 322.690909 328.596566 
L 323.959091 335.051395 
L 324.593182 341.506223 
L 325.227273 341.580379 
L 327.129545 341.438515 
L 327.763636 341.831866 
L 329.031818 341.361134 
L 331.568182 347.316213 
L 332.836364 344.698171 
L 335.372727 337.753266 
L 336.640909 340.909748 
L 339.177273 335.431849 
L 341.713636 328.296717 
L 342.981818 325.040285 
L 344.25 312.956021 
L 344.884091 309.91561 
L 345.518182 303.002947 
L 346.786364 302.554784 
L 348.054545 305.524263 
L 349.322727 309.344928 
L 349.956818 309.741504 
L 350.590909 303.457557 
L 351.859091 303.009395 
L 352.493182 302.561233 
L 353.127273 302.371005 
L 354.395455 302.777253 
L 355.029545 303.183501 
L 355.663636 302.735339 
L 356.931818 302.287176 
L 358.2 285.905067 
L 359.468182 263.916092 
L 360.736364 228.791766 
L 362.004545 200.044889 
L 362.638636 180.764233 
L 363.272727 167.677246 
L 363.906818 164.146758 
L 365.809091 144.930586 
L 368.345455 112.192161 
L 369.613636 108.858348 
L 370.881818 109.638602 
L 372.15 109.193664 
L 374.686364 115.284159 
L 375.954545 112.662893 
L 377.222727 96.944967 
L 377.856818 84.13526 
L 378.490909 77.293529 
L 379.759091 77.083956 
L 381.027273 80.327492 
L 382.295455 76.83247 
L 383.563636 79.821294 
L 384.831818 76.310151 
L 386.1 80.163058 
L 387.368182 77.38703 
L 388.002273 77.657862 
L 388.636364 77.196803 
L 389.904545 76.884057 
L 390.538636 76.57131 
L 391.172727 76.954989 
L 392.440909 77.219372 
L 393.075 77.483756 
L 393.709091 77.045266 
L 394.977273 76.758313 
L 396.245455 79.872881 
L 397.513636 77.238718 
L 398.781818 80.204972 
L 400.05 77.061387 
L 401.318182 80.05666 
L 402.586364 77.403151 
L 403.854545 80.037314 
L 405.122727 76.539068 
L 406.390909 79.511771 
L 407.659091 76.903402 
L 408.927273 79.879329 
L 410.195455 76.429446 
L 411.463636 79.37958 
L 412.731818 76.838918 
L 414 79.782603 
L 415.268182 76.303702 
L 416.536364 79.195801 
L 417.804545 76.797004 
L 419.072727 80.627341 
L 420.340909 77.212924 
L 420.975 76.603552 
L 421.609091 76.19408 
L 422.877273 76.797004 
L 424.145455 80.559633 
L 425.413636 77.628845 
L 426.681818 80.362958 
L 427.95 77.096853 
L 430.486364 83.287298 
L 433.022727 89.023132 
L 434.290909 86.401865 
L 435.559091 89.377793 
L 436.827273 88.478244 
L 438.095455 82.71984 
L 439.363636 80.101798 
L 440.631818 83.948257 
L 441.9 87.111187 
L 444.436364 80.556409 
L 445.704545 83.903118 
L 446.338636 90.525604 
L 446.972727 89.86787 
L 448.240909 83.071277 
L 448.875 76.274685 
L 449.509091 76.851815 
L 450.777273 83.629062 
L 451.411364 90.406309 
L 452.045455 90.019407 
L 452.679545 86.356727 
L 453.313636 86.089119 
L 454.581818 86.256777 
L 455.85 83.393696 
L 457.118182 79.711671 
L 458.386364 76.513275 
L 459.654545 79.505323 
L 462.190909 86.898391 
L 463.459091 90.386964 
L 464.727273 86.940305 
L 465.995455 89.893663 
L 466.629545 89.771144 
L 467.263636 90.14515 
L 468.531818 83.770926 
L 469.165909 77.396703 
L 469.8 76.980782 
L 471.068182 83.313091 
L 473.604545 90.264445 
L 474.238636 90.415982 
L 474.872727 89.880766 
L 476.775 89.925905 
L 477.409091 90.328929 
L 479.311364 90.644899 
L 479.945455 96.625772 
L 481.213636 96.213075 
L 481.847727 95.800379 
L 482.481818 89.771144 
L 483.75 83.687097 
L 484.384091 77.603051 
L 485.018182 77.145216 
L 486.286364 83.138985 
L 486.920455 89.132754 
L 487.554545 89.513209 
L 488.822727 89.916232 
L 489.456818 90.319256 
L 490.090909 96.348491 
L 490.725 98.947189 
L 491.359091 98.847239 
L 491.993182 96.148592 
L 492.627273 90.280566 
L 493.895455 83.890221 
L 494.529545 77.499877 
L 495.163636 76.861487 
L 496.431818 82.858481 
L 497.7 85.815063 
L 498.968182 83.184124 
L 499.602273 77.138768 
L 500.236364 77.061387 
L 501.504545 83.548457 
L 502.772727 86.540506 
L 504.040909 83.548457 
L 504.675 76.996903 
L 505.309091 77.370909 
L 506.577273 76.929195 
L 507.845455 76.023198 
L 509.113636 82.864929 
L 509.747727 89.70666 
L 510.381818 90.129029 
L 511.65 83.548457 
L 514.186364 76.780883 
L 514.820455 77.058163 
L 515.454545 77.535343 
L 516.722727 83.335661 
L 517.356818 89.135979 
L 517.990909 88.810335 
L 519.259091 89.206911 
L 520.527273 86.627559 
L 521.795455 89.439052 
L 523.063636 88.59109 
L 524.331818 82.555407 
L 524.965909 76.519723 
L 525.6 76.93242 
L 526.868182 83.777375 
L 527.502273 90.62233 
L 528.136364 90.154823 
L 529.404545 89.70666 
L 530.038636 89.258498 
L 530.672727 89.661521 
L 531.940909 90.054873 
L 532.575 90.448224 
L 533.209091 96.451666 
L 533.843182 99.037466 
L 534.477273 98.582855 
L 535.111364 95.542444 
L 535.745455 95.929347 
L 537.013636 96.383958 
L 537.647727 96.838568 
L 538.281818 96.387182 
L 539.55 96.280783 
L 540.818182 99.2019 
L 542.086364 96.580633 
L 542.720455 96.587081 
L 543.354545 96.132471 
L 544.622727 102.132688 
L 545.256818 108.132906 
L 545.890909 108.535929 
L 547.159091 96.058314 
L 547.793182 83.580699 
L 548.427273 76.680933 
L 549.695455 76.206977 
L 550.963636 79.157111 
L 552.231818 76.639018 
L 553.5 77.557912 
L 554.768182 83.45818 
L 556.036364 95.33932 
L 557.304545 95.73912 
L 558.572727 96.541943 
L 559.840909 96.796654 
L 560.475 97.051365 
L 561.109091 96.609651 
L 562.377273 96.338819 
L 563.011364 96.067987 
L 563.645455 96.464562 
L 564.913636 103.122515 
L 566.181818 106.053303 
L 566.815909 105.592244 
L 567.45 98.844014 
L 568.718182 92.814779 
L 569.986364 90.193513 
L 570.620455 90.593312 
L 571.254545 90.141926 
L 572.522727 89.693763 
L 573.790909 92.666467 
L 574.425 99.498525 
L 575.059091 99.898325 
L 576.327273 93.001782 
L 577.595455 83.448507 
L 578.863636 79.9954 
L 580.131818 83.838634 
L 582.668182 90.048424 
L 583.302273 89.580917 
L 583.936364 89.332654 
L 585.204545 89.738902 
L 585.838636 90.14515 
L 586.472727 96.138919 
L 587.740909 102.145585 
L 588.375 108.152251 
L 589.009091 108.561723 
L 590.277273 102.529264 
L 591.545455 93.088835 
L 592.813636 90.154823 
L 593.447727 90.219306 
L 595.35 90.019407 
L 596.618182 86.8597 
L 597.886364 89.800162 
L 599.154545 88.887716 
L 600.422727 82.877826 
L 601.690909 80.27268 
L 602.959091 83.822513 
L 603.593182 90.386964 
L 604.227273 90.14515 
L 605.495455 83.525888 
L 608.031818 77.122647 
L 609.3 77.283856 
L 609.934091 80.782102 
L 610.568182 87.162774 
L 611.202273 90.0452 
L 611.836364 89.883991 
L 613.104545 83.790272 
L 614.372727 80.27268 
L 615.640909 83.509767 
L 616.275 89.796937 
L 616.909091 90.212858 
L 618.811364 90.438551 
L 619.445455 89.971044 
L 620.079545 86.095567 
L 620.713636 85.673198 
L 621.347727 89.126306 
L 621.981818 95.97771 
L 623.25 96.390406 
L 623.884091 96.803102 
L 624.518182 90.577191 
L 625.786364 90.10646 
L 627.054545 86.604989 
L 628.322727 89.755023 
L 630.859091 82.832687 
L 631.493182 75.95549 
L 632.127273 76.319823 
L 633.395455 83.174451 
L 634.029545 90.029079 
L 634.663636 90.425654 
L 635.931818 89.951699 
L 636.565909 89.477743 
L 637.2 95.503754 
L 638.468182 95.910002 
L 639.736364 93.324201 
L 641.004545 83.916015 
L 641.638636 77.54824 
L 642.272727 77.07106 
L 643.540909 76.958213 
L 644.809091 80.243663 
L 646.077273 76.761537 
L 647.345455 75.874885 
L 648.613636 76.281133 
L 649.881818 80.137264 
L 650.515909 80.540288 
L 651.15 86.785544 
L 652.418182 92.740623 
L 653.686364 95.958364 
L 654.954545 99.537215 
L 656.222727 96.912725 
L 656.856818 97.025571 
L 657.490909 96.580633 
L 658.759091 96.129247 
L 660.027273 92.660018 
L 661.295455 90.016182 
L 663.831818 83.064829 
L 664.465909 76.168287 
L 665.1 76.616449 
L 666.368182 83.464628 
L 667.002273 90.312808 
L 668.904545 89.577693 
L 670.172727 92.543947 
L 671.440909 102.609868 
L 672.709091 106.278996 
L 673.977273 103.377226 
L 676.513636 96.580633 
L 677.781818 92.543947 
L 679.05 83.109967 
L 679.684091 76.70995 
L 680.318182 77.096853 
L 681.586364 77.016248 
L 682.854545 80.353285 
L 686.659091 89.287515 
L 687.293182 89.664746 
L 687.927273 96.512925 
L 689.195455 96.067987 
L 689.829545 95.623049 
L 690.463636 88.726506 
L 691.731818 89.300412 
L 692.365909 89.874318 
L 693 90.267669 
L 694.268182 83.206693 
L 695.536364 79.918019 
L 696.804545 82.897171 
L 697.438636 89.735678 
L 698.072727 89.777592 
L 699.340909 83.548457 
L 699.975 77.319322 
L 700.609091 76.855039 
L 701.877273 83.01969 
L 702.511364 89.184341 
L 703.145455 89.609934 
L 704.413636 90.022631 
L 705.047727 90.435327 
L 705.681818 90.66102 
L 706.95 90.20641 
L 707.584091 89.751799 
L 708.218182 95.903553 
L 709.486364 96.31625 
L 710.754545 99.282504 
L 712.022727 95.806828 
L 713.290909 98.779531 
L 714.559091 96.15504 
L 715.827273 93.233924 
L 717.095455 83.75803 
L 717.729545 77.325771 
L 718.363636 77.2097 
L 719.631818 83.600044 
L 720.9 93.411254 
L 722.168182 96.954639 
L 722.802273 97.106176 
L 723.436364 90.219306 
L 725.338636 89.832404 
L 725.972727 96.674135 
L 727.875 96.841792 
L 728.509091 89.977492 
L 729.777273 83.545233 
L 730.411364 77.112974 
L 731.045455 77.480532 
L 732.313636 83.329212 
L 733.581818 95.165214 
L 734.85 95.545668 
L 736.118182 96.33237 
L 738.020455 96.480683 
L 738.654545 90.132253 
L 739.922727 90.019407 
L 741.190909 93.337098 
L 742.459091 102.900045 
L 743.093182 109.587015 
L 743.727273 109.577343 
L 744.995455 109.280717 
L 750.068182 95.935795 
L 751.336364 98.90205 
L 752.604545 96.325922 
L 755.140909 103.228913 
L 756.409091 112.637099 
L 757.677273 116.038619 
L 758.945455 115.93867 
L 759.579545 118.908149 
L 760.213636 118.447089 
L 760.847727 115.016551 
L 761.481818 115.006879 
L 762.75 121.838937 
L 763.384091 128.670996 
L 764.018182 129.048226 
L 765.286364 128.587167 
L 765.920455 128.126108 
L 766.554545 134.161791 
L 767.822727 134.638971 
L 769.090909 135.486933 
L 770.359091 134.967839 
L 770.993182 134.448744 
L 771.627273 127.568323 
L 772.895455 127.971347 
L 774.163636 125.375874 
L 775.431818 128.361473 
L 776.7 127.474821 
L 777.968182 127.839155 
L 778.602273 128.203488 
L 779.236364 135.041995 
L 780.504545 141.793449 
L 783.040909 147.725958 
L 783.675 147.361625 
L 784.309091 147.764649 
L 785.577273 147.335831 
L 786.211364 146.907014 
L 786.845455 152.920128 
L 788.113636 159.774756 
L 790.65 167.399965 
L 791.284091 167.796541 
L 791.918182 173.832224 
L 793.820455 173.632325 
L 794.454545 173.99021 
L 795.722727 180.496625 
L 796.990909 193.000034 
L 798.259091 192.55832 
L 799.527273 195.508453 
L 800.795455 192.93555 
L 803.331818 198.848714 
L 803.965909 204.810241 
L 804.6 198.76811 
L 805.868182 192.764668 
L 807.136364 183.620865 
L 808.404545 186.590344 
L 809.672727 183.066304 
L 810.940909 186.103491 
L 812.209091 189.956398 
L 813.477273 193.199933 
L 814.111364 193.022603 
L 814.745455 192.555095 
L 816.013636 199.135667 
L 817.281818 202.679052 
L 818.55 199.790178 
L 819.818182 196.308053 
L 821.086364 199.290428 
L 821.720455 205.551805 
L 822.354545 205.958053 
L 823.622727 205.509891 
L 824.890909 208.476145 
L 825.525 214.463466 
L 826.159091 214.879387 
L 826.793182 211.88089 
L 827.427273 205.829086 
L 828.695455 199.76116 
L 829.963636 186.812813 
L 830.597727 182.947009 
L 831.231818 176.324523 
L 831.865909 173.567841 
L 832.5 173.974089 
L 834.402273 174.225576 
L 836.304545 134.813078 
L 836.938636 108.768071 
L 837.572727 89.825955 
L 838.840909 83.577475 
L 841.377273 76.422998 
L 842.645455 79.408597 
L 843.913636 76.793779 
L 844.547727 77.203251 
L 845.181818 76.735744 
L 846.45 76.271461 
L 847.084091 75.807177 
L 847.718182 76.210201 
L 848.986364 76.616449 
L 849.620455 77.022697 
L 850.254545 76.574534 
L 851.522727 76.123148 
L 852.156818 75.671761 
L 852.790909 76.09413 
L 854.059091 76.49393 
L 855.327273 80.317819 
L 856.595455 77.380582 
L 857.229545 77.493429 
L 857.863636 70.590438 
L 859.765909 70.306709 
L 860.4 70.709733 
L 861.668182 70.24545 
L 864.204545 76.200528 
L 865.472727 80.037314 
L 869.277273 69.832753 
L 870.545455 67.321109 
L 873.081818 73.047271 
L 874.35 75.9168 
L 875.618182 76.713175 
L 876.886364 77.103302 
L 880.690909 66.96 
L 881.959091 70.654922 
L 885.763636 79.466633 
L 888.3 73.914578 
L 889.568182 70.432453 
L 890.836364 73.40838 
L 892.104545 76.684157 
L 893.372727 79.624618 
L 894.640909 76.658363 
L 895.909091 79.5956 
L 897.177273 83.435611 
L 898.445455 86.750078 
L 899.713636 89.742126 
L 900.981818 88.842577 
L 902.25 82.832687 
L 902.884091 76.822797 
L 903.518182 77.303201 
L 904.786364 83.290522 
L 906.054545 86.466349 
L 907.322727 83.090622 
L 908.590909 80.514495 
L 909.859091 77.48698 
L 912.395455 83.393696 
L 913.663636 93.059818 
L 914.297727 99.888652 
L 914.931818 93.682086 
L 916.2 86.775871 
L 917.468182 76.874384 
L 918.736364 79.998624 
L 920.004545 83.674201 
L 921.272727 86.653352 
L 922.540909 83.1809 
L 923.175 76.439118 
L 923.809091 76.83247 
L 925.077273 83.674201 
L 926.345455 93.09206 
L 927.613636 105.095719 
L 928.881818 105.55033 
L 930.15 109.412909 
L 931.418182 105.90499 
L 932.686364 102.74206 
L 933.954545 92.782537 
L 933.954545 92.782537 
" clip-path="url(#p10ab10f41e)" style="fill: none; stroke: #1f77b4; stroke-width: 1.5; stroke-linecap: square"/>
   </g>
   <g id="patch_7">
    <path d="M 135 384.48 
L 135 51.84 
" style="fill: none; stroke: #000000; stroke-width: 0.8; stroke-linejoin: miter; stroke-linecap: square"/>
   </g>
   <g id="patch_8">
    <path d="M 972 384.48 
L 972 51.84 
" style="fill: none; stroke: #000000; stroke-width: 0.8; stroke-linejoin: miter; stroke-linecap: square"/>
   </g>
   <g id="patch_9">
    <path d="M 135 384.48 
L 972 384.48 
" style="fill: none; stroke: #000000; stroke-width: 0.8; stroke-linejoin: miter; stroke-linecap: square"/>
   </g>
   <g id="patch_10">
    <path d="M 135 51.84 
L 972 51.84 
" style="fill: none; stroke: #000000; stroke-width: 0.8; stroke-linejoin: miter; stroke-linecap: square"/>
   </g>
   <g id="text_23">
    <!-- ./tcp/tp8_wave -->
    <g transform="translate(511.5 45.84) scale(0.12 -0.12)">
     <defs>
      <path id="Times New Roman-2e" d="M 800 25
Q 650 25 537 125 
Q 425 225 425 400 
Q 425 575 537 675 
Q 650 775 800 775 
Q 950 775 1062 662 
Q 1175 550 1175 400 
Q 1175 225 1062 125 
Q 950 25 800 25 
z
" transform="scale(0.015625)"/>
      <path id="Times New Roman-2f" d="M 400 -475
L 225 -375 
L 2775 4975 
L 2950 4875 
L 400 -475 
z
" transform="scale(0.015625)"/>
      <path id="Times New Roman-63" d="M 2150 2225
Q 2150 2300 2175 2325 
Q 2175 2350 2200 2425 
Q 2225 2525 2100 2662 
Q 1975 2800 1675 2800 
Q 1300 2800 1037 2437 
Q 775 2075 775 1475 
Q 775 925 1000 587 
Q 1225 250 1750 250 
Q 2100 250 2337 475 
Q 2575 700 2675 1000 
L 2800 950 
Q 2700 575 2425 312 
Q 2150 50 1675 50 
Q 1075 50 725 425 
Q 375 800 375 1500 
Q 375 2125 750 2537 
Q 1125 2950 1725 2950 
Q 2150 2950 2387 2725 
Q 2625 2500 2625 2275 
Q 2625 2125 2562 2062 
Q 2500 2000 2375 2000 
Q 2275 2000 2212 2062 
Q 2150 2125 2150 2225 
z
" transform="scale(0.015625)"/>
      <path id="Times New Roman-38" d="M 625 1125
Q 625 725 887 475 
Q 1150 225 1550 225 
Q 2025 225 2237 475 
Q 2450 725 2450 1100 
Q 2450 1425 2150 1725 
Q 1850 2025 1250 2275 
Q 950 2075 787 1775 
Q 625 1475 625 1125 
z
M 2825 1175 
Q 2825 700 2475 375 
Q 2125 50 1550 50 
Q 1025 50 650 375 
Q 275 700 275 1125 
Q 275 1550 487 1850 
Q 700 2150 1100 2375 
Q 750 2550 562 2812 
Q 375 3075 375 3400 
Q 375 3825 700 4125 
Q 1025 4425 1600 4425 
Q 2125 4425 2450 4125 
Q 2775 3825 2775 3400 
Q 2775 3100 2587 2837 
Q 2400 2575 2000 2375 
Q 2425 2125 2625 1825 
Q 2825 1525 2825 1175 
z
M 2425 3375 
Q 2425 3725 2225 3987 
Q 2025 4250 1600 4250 
Q 1125 4250 925 4000 
Q 725 3750 725 3475 
Q 725 3200 1012 2937 
Q 1300 2675 1825 2475 
Q 2125 2625 2275 2850 
Q 2425 3075 2425 3375 
z
" transform="scale(0.015625)"/>
      <path id="Times New Roman-5f" d="M 0 -875
L 0 -725 
L 3175 -725 
L 3175 -875 
L 0 -875 
z
" transform="scale(0.015625)"/>
      <path id="Times New Roman-77" d="M 2325 2900
L 3175 2900 
L 3175 2750 
L 3075 2750 
Q 2975 2750 2900 2675 
Q 2825 2600 2775 2425 
L 2175 75 
L 2025 75 
L 1575 1975 
L 1100 75 
L 950 75 
L 375 2375 
Q 350 2550 275 2650 
Q 200 2750 125 2750 
L 25 2750 
L 25 2900 
L 925 2900 
L 925 2750 
L 825 2750 
Q 725 2750 700 2662 
Q 675 2575 700 2425 
L 1075 800 
L 1125 800 
L 1500 2300 
Q 1475 2525 1400 2637 
Q 1325 2750 1225 2750 
L 1150 2750 
L 1150 2900 
L 2000 2900 
L 2000 2750 
L 1925 2750 
Q 1825 2750 1800 2662 
Q 1775 2575 1800 2425 
L 2175 800 
L 2200 800 
L 2625 2550 
Q 2650 2650 2600 2700 
Q 2550 2750 2450 2750 
L 2325 2750 
L 2325 2900 
z
M 1725 2750 
L 1725 2750 
z
M 625 2750 
L 625 2750 
z
M 275 2750 
L 275 2750 
z
M 2875 2750 
L 2875 2750 
z
M 2675 2750 
L 2675 2750 
z
" transform="scale(0.015625)"/>
      <path id="Times New Roman-76" d="M 1625 75
L 1475 75 
L 625 2525 
Q 600 2625 525 2687 
Q 450 2750 350 2750 
L 225 2750 
L 225 2900 
L 1300 2900 
L 1300 2750 
L 1200 2750 
Q 1050 2750 1025 2700 
Q 1000 2650 1000 2600 
Q 1000 2500 1025 2425 
L 1625 675 
L 1675 675 
L 2275 2400 
Q 2325 2525 2325 2575 
Q 2325 2600 2275 2675 
Q 2225 2750 2075 2750 
L 2025 2750 
L 2025 2900 
L 2925 2900 
L 2925 2750 
L 2875 2750 
Q 2725 2750 2637 2662 
Q 2550 2575 2475 2400 
L 1625 75 
z
M 2600 2750 
L 2600 2750 
z
M 2400 2750 
L 2400 2750 
z
M 925 2750 
L 925 2750 
z
M 550 2750 
L 550 2750 
z
" transform="scale(0.015625)"/>
     </defs>
     <use xlink:href="#Times New Roman-2e"/>
     <use xlink:href="#Times New Roman-2f" x="50"/>
     <use xlink:href="#Times New Roman-74" x="100"/>
     <use xlink:href="#Times New Roman-63" x="150"/>
     <use xlink:href="#Times New Roman-70" x="200"/>
     <use xlink:href="#Times New Roman-2f" x="250"/>
     <use xlink:href="#Times New Roman-74" x="300"/>
     <use xlink:href="#Times New Roman-70" x="350"/>
     <use xlink:href="#Times New Roman-38" x="400"/>
     <use xlink:href="#Times New Roman-5f" x="450"/>
     <use xlink:href="#Times New Roman-77" x="500"/>
     <use xlink:href="#Times New Roman-61" x="550"/>
     <use xlink:href="#Times New Roman-76" x="600"/>
     <use xlink:href="#Times New Roman-65" x="650"/>
    </g>
   </g>
   <g id="legend_1">
    <g id="patch_11">
     <path d="M 903 73.2775 
L 965 73.2775 
Q 967 73.2775 967 71.2775 
L 967 58.84 
Q 967 56.84 965 56.84 
L 903 56.84 
Q 901 56.84 901 58.84 
L 901 71.2775 
Q 901 73.2775 903 73.2775 
z
" style="fill: #ffffff; opacity: 0.8; stroke: #cccccc; stroke-linejoin: miter"/>
    </g>
    <g id="line2d_31">
     <path d="M 905 64.488437 
L 915 64.488437 
L 925 64.488437 
" style="fill: none; stroke: #1f77b4; stroke-width: 1.5; stroke-linecap: square"/>
    </g>
    <g id="text_24">
     <!-- buffer -->
     <g transform="translate(933 67.988437) scale(0.1 -0.1)">
      <use xlink:href="#Times New Roman-62"/>
      <use xlink:href="#Times New Roman-75" x="50"/>
      <use xlink:href="#Times New Roman-66" x="100"/>
      <use xlink:href="#Times New Roman-66" x="150"/>
      <use xlink:href="#Times New Roman-65" x="200"/>
      <use xlink:href="#Times New Roman-72" x="250"/>
     </g>
    </g>
   </g>
  </g>
 </g>
 <defs>
  <clipPath id="p10ab10f41e">
   <rect x="135" y="51.84" width="837" height="332.64"/>
  </clipPath>
 </defs>
</svg>
