<?xml version="1.0" encoding="utf-8" standalone="no"?>
<!DOCTYPE svg PUBLIC "-//W3C//DTD SVG 1.1//EN"
  "http://www.w3.org/Graphics/SVG/1.1/DTD/svg11.dtd">
<svg xmlns:xlink="http://www.w3.org/1999/xlink" width="1080pt" height="432pt" viewBox="0 0 1080 432" xmlns="http://www.w3.org/2000/svg" version="1.1">
 <metadata>
  <rdf:RDF xmlns:dc="http://purl.org/dc/elements/1.1/" xmlns:cc="http://creativecommons.org/ns#" xmlns:rdf="http://www.w3.org/1999/02/22-rdf-syntax-ns#">
   <cc:Work>
    <dc:type rdf:resource="http://purl.org/dc/dcmitype/StillImage"/>
    <dc:date>2024-04-12T06:12:38.154483</dc:date>
    <dc:format>image/svg+xml</dc:format>
    <dc:creator>
     <cc:Agent>
      <dc:title>Matplotlib v3.8.3, https://matplotlib.org/</dc:title>
     </cc:Agent>
    </dc:creator>
   </cc:Work>
  </rdf:RDF>
 </metadata>
 <defs>
  <style type="text/css">*{stroke-linejoin: round; stroke-linecap: butt}</style>
 </defs>
 <g id="figure_1">
  <g id="patch_1">
   <path d="M 0 432 
L 1080 432 
L 1080 0 
L 0 0 
z
" style="fill: #ffffff"/>
  </g>
  <g id="axes_1">
   <g id="patch_2">
    <path d="M 135 384.48 
L 972 384.48 
L 972 51.84 
L 135 51.84 
z
" style="fill: #ffffff"/>
   </g>
   <g id="matplotlib.axis_1">
    <g id="xtick_1">
     <g id="line2d_1">
      <defs>
       <path id="m7f67b658c5" d="M 0 0 
L 0 3.5 
" style="stroke: #000000; stroke-width: 0.8"/>
      </defs>
      <g>
       <use xlink:href="#m7f67b658c5" x="173.045455" y="384.48" style="stroke: #000000; stroke-width: 0.8"/>
      </g>
     </g>
     <g id="text_1">
      <!-- 0 -->
      <g transform="translate(170.545455 398.628438) scale(0.1 -0.1)">
       <defs>
        <path id="Times New Roman-30" d="M 1600 4225
Q 1250 4225 1012 3687 
Q 775 3150 775 2250 
Q 775 1300 1012 775 
Q 1250 250 1600 250 
Q 1975 250 2187 775 
Q 2400 1300 2400 2250 
Q 2400 3150 2200 3687 
Q 2000 4225 1600 4225 
z
M 1600 50 
Q 1050 50 675 625 
Q 300 1200 300 2250 
Q 300 3225 662 3825 
Q 1025 4425 1600 4425 
Q 2150 4425 2512 3850 
Q 2875 3275 2875 2250 
Q 2875 1225 2512 637 
Q 2150 50 1600 50 
z
" transform="scale(0.015625)"/>
       </defs>
       <use xlink:href="#Times New Roman-30"/>
      </g>
     </g>
    </g>
    <g id="xtick_2">
     <g id="line2d_2">
      <g>
       <use xlink:href="#m7f67b658c5" x="299.863636" y="384.48" style="stroke: #000000; stroke-width: 0.8"/>
      </g>
     </g>
     <g id="text_2">
      <!-- 100 -->
      <g transform="translate(292.363636 398.628438) scale(0.1 -0.1)">
       <defs>
        <path id="Times New Roman-31" d="M 1825 4450
L 1825 650 
Q 1825 450 1950 350 
Q 2075 250 2300 250 
L 2550 250 
L 2550 100 
L 725 100 
L 725 250 
L 950 250 
Q 1200 250 1312 350 
Q 1425 450 1425 650 
L 1425 3675 
Q 1425 3775 1362 3837 
Q 1300 3900 1175 3900 
L 725 3900 
L 725 4050 
L 950 4050 
Q 1250 4050 1437 4150 
Q 1625 4250 1725 4450 
L 1825 4450 
z
" transform="scale(0.015625)"/>
       </defs>
       <use xlink:href="#Times New Roman-31"/>
       <use xlink:href="#Times New Roman-30" x="50"/>
       <use xlink:href="#Times New Roman-30" x="100"/>
      </g>
     </g>
    </g>
    <g id="xtick_3">
     <g id="line2d_3">
      <g>
       <use xlink:href="#m7f67b658c5" x="426.681818" y="384.48" style="stroke: #000000; stroke-width: 0.8"/>
      </g>
     </g>
     <g id="text_3">
      <!-- 200 -->
      <g transform="translate(419.181818 398.628438) scale(0.1 -0.1)">
       <defs>
        <path id="Times New Roman-32" d="M 2325 3325
Q 2325 3775 2125 4012 
Q 1925 4250 1525 4250 
Q 1225 4250 1012 4087 
Q 800 3925 800 3675 
Q 800 3525 900 3425 
Q 975 3325 975 3225 
Q 975 3100 912 3037 
Q 850 2975 725 2975 
Q 575 2975 487 3062 
Q 400 3150 400 3350 
Q 400 3875 775 4150 
Q 1150 4425 1575 4425 
Q 2175 4425 2462 4125 
Q 2750 3825 2750 3375 
Q 2750 3075 2612 2775 
Q 2475 2475 2175 2200 
Q 1450 1500 1062 1062 
Q 675 625 600 475 
L 2075 475 
Q 2300 475 2450 650 
Q 2600 825 2650 1175 
L 2800 1175 
L 2650 100 
L 325 100 
L 325 425 
Q 450 650 737 1000 
Q 1025 1350 1500 1825 
Q 1925 2250 2125 2625 
Q 2325 3000 2325 3325 
z
" transform="scale(0.015625)"/>
       </defs>
       <use xlink:href="#Times New Roman-32"/>
       <use xlink:href="#Times New Roman-30" x="50"/>
       <use xlink:href="#Times New Roman-30" x="100"/>
      </g>
     </g>
    </g>
    <g id="xtick_4">
     <g id="line2d_4">
      <g>
       <use xlink:href="#m7f67b658c5" x="553.5" y="384.48" style="stroke: #000000; stroke-width: 0.8"/>
      </g>
     </g>
     <g id="text_4">
      <!-- 300 -->
      <g transform="translate(546 398.628438) scale(0.1 -0.1)">
       <defs>
        <path id="Times New Roman-33" d="M 2800 1250
Q 2800 775 2450 412 
Q 2100 50 1475 50 
Q 1025 50 700 300 
Q 375 550 375 875 
Q 375 1025 475 1137 
Q 575 1250 675 1250 
Q 825 1250 887 1137 
Q 950 1025 950 950 
Q 950 825 900 750 
Q 850 650 850 575 
Q 850 425 1037 325 
Q 1225 225 1450 225 
Q 1900 225 2125 487 
Q 2350 750 2350 1300 
Q 2350 1750 2112 2025 
Q 1875 2300 1225 2300 
L 1225 2475 
Q 1725 2475 1962 2712 
Q 2200 2950 2200 3375 
Q 2200 3725 2012 3987 
Q 1825 4250 1425 4250 
Q 1250 4250 1050 4162 
Q 850 4075 850 3875 
Q 850 3675 900 3625 
Q 950 3575 950 3500 
Q 950 3375 900 3300 
Q 850 3225 725 3225 
Q 625 3225 537 3300 
Q 450 3375 450 3575 
Q 450 3950 775 4187 
Q 1100 4425 1525 4425 
Q 2025 4425 2325 4112 
Q 2625 3800 2625 3450 
Q 2625 3075 2437 2812 
Q 2250 2550 1850 2425 
Q 2400 2225 2600 1900 
Q 2800 1575 2800 1250 
z
" transform="scale(0.015625)"/>
       </defs>
       <use xlink:href="#Times New Roman-33"/>
       <use xlink:href="#Times New Roman-30" x="50"/>
       <use xlink:href="#Times New Roman-30" x="100"/>
      </g>
     </g>
    </g>
    <g id="xtick_5">
     <g id="line2d_5">
      <g>
       <use xlink:href="#m7f67b658c5" x="680.318182" y="384.48" style="stroke: #000000; stroke-width: 0.8"/>
      </g>
     </g>
     <g id="text_5">
      <!-- 400 -->
      <g transform="translate(672.818182 398.628438) scale(0.1 -0.1)">
       <defs>
        <path id="Times New Roman-34" d="M 2300 575
Q 2300 400 2400 325 
Q 2500 250 2675 250 
L 2900 250 
L 2900 100 
L 1250 100 
L 1250 250 
L 1525 250 
Q 1725 250 1812 325 
Q 1900 400 1900 575 
L 1900 1400 
L 225 1400 
L 225 1525 
L 2050 4425 
L 2300 4425 
L 2300 1550 
L 2975 1550 
L 2975 1400 
L 2300 1400 
L 2300 575 
z
M 1875 3800 
L 450 1550 
L 1900 1550 
L 1900 3800 
L 1875 3800 
z
" transform="scale(0.015625)"/>
       </defs>
       <use xlink:href="#Times New Roman-34"/>
       <use xlink:href="#Times New Roman-30" x="50"/>
       <use xlink:href="#Times New Roman-30" x="100"/>
      </g>
     </g>
    </g>
    <g id="xtick_6">
     <g id="line2d_6">
      <g>
       <use xlink:href="#m7f67b658c5" x="807.136364" y="384.48" style="stroke: #000000; stroke-width: 0.8"/>
      </g>
     </g>
     <g id="text_6">
      <!-- 500 -->
      <g transform="translate(799.636364 398.628438) scale(0.1 -0.1)">
       <defs>
        <path id="Times New Roman-35" d="M 1725 2850
Q 2200 2850 2500 2487 
Q 2800 2125 2800 1525 
Q 2800 850 2487 450 
Q 2175 50 1525 50 
Q 1075 50 725 312 
Q 375 575 375 950 
Q 375 1100 462 1212 
Q 550 1325 700 1325 
Q 850 1325 900 1225 
Q 950 1125 950 1050 
Q 950 900 875 825 
Q 800 725 800 625 
Q 800 425 1037 325 
Q 1275 225 1550 225 
Q 1950 225 2162 550 
Q 2375 875 2375 1475 
Q 2375 1975 2187 2287 
Q 2000 2600 1625 2600 
Q 1350 2600 1150 2500 
Q 950 2400 775 2075 
L 550 2100 
L 675 4375 
L 2725 4375 
L 2650 4000 
L 850 4000 
L 750 2350 
Q 1000 2700 1237 2775 
Q 1475 2850 1725 2850 
z
" transform="scale(0.015625)"/>
       </defs>
       <use xlink:href="#Times New Roman-35"/>
       <use xlink:href="#Times New Roman-30" x="50"/>
       <use xlink:href="#Times New Roman-30" x="100"/>
      </g>
     </g>
    </g>
    <g id="xtick_7">
     <g id="line2d_7">
      <g>
       <use xlink:href="#m7f67b658c5" x="933.954545" y="384.48" style="stroke: #000000; stroke-width: 0.8"/>
      </g>
     </g>
     <g id="text_7">
      <!-- 600 -->
      <g transform="translate(926.454545 398.628438) scale(0.1 -0.1)">
       <defs>
        <path id="Times New Roman-36" d="M 775 1800
Q 775 1050 1037 637 
Q 1300 225 1675 225 
Q 2050 225 2250 500 
Q 2450 775 2450 1525 
Q 2450 2025 2237 2300 
Q 2025 2575 1725 2575 
Q 1450 2575 1212 2412 
Q 975 2250 775 1800 
z
M 1750 2825 
Q 2350 2825 2612 2425 
Q 2875 2025 2875 1525 
Q 2875 775 2512 412 
Q 2150 50 1675 50 
Q 1000 50 650 562 
Q 300 1075 300 2050 
Q 300 3200 725 3812 
Q 1150 4425 1875 4425 
Q 2225 4425 2437 4225 
Q 2650 4025 2650 3875 
Q 2650 3725 2587 3650 
Q 2525 3575 2375 3575 
Q 2250 3575 2187 3637 
Q 2125 3700 2125 3825 
Q 2125 3875 2150 3925 
Q 2150 3975 2150 4025 
Q 2150 4125 2075 4187 
Q 2000 4250 1800 4250 
Q 1375 4250 1075 3862 
Q 775 3475 775 2175 
Q 925 2500 1187 2662 
Q 1450 2825 1750 2825 
z
" transform="scale(0.015625)"/>
       </defs>
       <use xlink:href="#Times New Roman-36"/>
       <use xlink:href="#Times New Roman-30" x="50"/>
       <use xlink:href="#Times New Roman-30" x="100"/>
      </g>
     </g>
    </g>
   </g>
   <g id="matplotlib.axis_2">
    <g id="ytick_1">
     <g id="line2d_8">
      <defs>
       <path id="med27df0da8" d="M 0 0 
L -3.5 0 
" style="stroke: #000000; stroke-width: 0.8"/>
      </defs>
      <g>
       <use xlink:href="#med27df0da8" x="135" y="378.245037" style="stroke: #000000; stroke-width: 0.8"/>
      </g>
     </g>
     <g id="text_8">
      <!-- 0 -->
      <g transform="translate(123 381.819256) scale(0.1 -0.1)">
       <use xlink:href="#Times New Roman-30"/>
      </g>
     </g>
    </g>
    <g id="ytick_2">
     <g id="line2d_9">
      <g>
       <use xlink:href="#med27df0da8" x="135" y="315.674355" style="stroke: #000000; stroke-width: 0.8"/>
      </g>
     </g>
     <g id="text_9">
      <!-- 1000 -->
      <g transform="translate(108 319.248574) scale(0.1 -0.1)">
       <use xlink:href="#Times New Roman-31"/>
       <use xlink:href="#Times New Roman-30" x="50"/>
       <use xlink:href="#Times New Roman-30" x="100"/>
       <use xlink:href="#Times New Roman-30" x="150"/>
      </g>
     </g>
    </g>
    <g id="ytick_3">
     <g id="line2d_10">
      <g>
       <use xlink:href="#med27df0da8" x="135" y="253.103673" style="stroke: #000000; stroke-width: 0.8"/>
      </g>
     </g>
     <g id="text_10">
      <!-- 2000 -->
      <g transform="translate(108 256.677892) scale(0.1 -0.1)">
       <use xlink:href="#Times New Roman-32"/>
       <use xlink:href="#Times New Roman-30" x="50"/>
       <use xlink:href="#Times New Roman-30" x="100"/>
       <use xlink:href="#Times New Roman-30" x="150"/>
      </g>
     </g>
    </g>
    <g id="ytick_4">
     <g id="line2d_11">
      <g>
       <use xlink:href="#med27df0da8" x="135" y="190.532992" style="stroke: #000000; stroke-width: 0.8"/>
      </g>
     </g>
     <g id="text_11">
      <!-- 3000 -->
      <g transform="translate(108 194.10721) scale(0.1 -0.1)">
       <use xlink:href="#Times New Roman-33"/>
       <use xlink:href="#Times New Roman-30" x="50"/>
       <use xlink:href="#Times New Roman-30" x="100"/>
       <use xlink:href="#Times New Roman-30" x="150"/>
      </g>
     </g>
    </g>
    <g id="ytick_5">
     <g id="line2d_12">
      <g>
       <use xlink:href="#med27df0da8" x="135" y="127.96231" style="stroke: #000000; stroke-width: 0.8"/>
      </g>
     </g>
     <g id="text_12">
      <!-- 4000 -->
      <g transform="translate(108 131.536529) scale(0.1 -0.1)">
       <use xlink:href="#Times New Roman-34"/>
       <use xlink:href="#Times New Roman-30" x="50"/>
       <use xlink:href="#Times New Roman-30" x="100"/>
       <use xlink:href="#Times New Roman-30" x="150"/>
      </g>
     </g>
    </g>
    <g id="ytick_6">
     <g id="line2d_13">
      <g>
       <use xlink:href="#med27df0da8" x="135" y="65.391628" style="stroke: #000000; stroke-width: 0.8"/>
      </g>
     </g>
     <g id="text_13">
      <!-- 5000 -->
      <g transform="translate(108 68.965847) scale(0.1 -0.1)">
       <use xlink:href="#Times New Roman-35"/>
       <use xlink:href="#Times New Roman-30" x="50"/>
       <use xlink:href="#Times New Roman-30" x="100"/>
       <use xlink:href="#Times New Roman-30" x="150"/>
      </g>
     </g>
    </g>
    <g id="text_14">
     <!-- Bitrate (kbps) -->
     <g transform="translate(102.710938 253.16) rotate(-90) scale(0.1 -0.1)">
      <defs>
       <path id="Times New Roman-42" d="M 100 100
L 100 250 
L 300 250 
Q 425 250 475 300 
Q 525 350 525 450 
L 525 4025 
Q 525 4125 475 4175 
Q 425 4225 300 4225 
L 150 4225 
L 150 4375 
L 1600 4375 
Q 2200 4375 2487 4137 
Q 2775 3900 2775 3400 
Q 2775 3050 2625 2825 
Q 2475 2600 2000 2425 
Q 2575 2250 2775 1925 
Q 2975 1600 2975 1200 
Q 2975 700 2625 400 
Q 2275 100 1675 100 
L 100 100 
z
M 1600 250 
Q 2025 250 2262 512 
Q 2500 775 2500 1250 
Q 2500 1800 2250 2062 
Q 2000 2325 1500 2325 
L 925 2325 
L 925 450 
Q 925 350 987 300 
Q 1050 250 1150 250 
L 1600 250 
z
M 2350 3400 
Q 2350 3850 2100 4037 
Q 1850 4225 1450 4225 
L 1150 4225 
Q 1050 4225 987 4175 
Q 925 4125 925 4025 
L 925 2475 
L 1575 2475 
Q 1850 2475 2100 2700 
Q 2350 2925 2350 3400 
z
" transform="scale(0.015625)"/>
       <path id="Times New Roman-69" d="M 1425 2525
Q 1425 2625 1375 2687 
Q 1325 2750 1200 2750 
L 675 2750 
L 675 2900 
L 925 2900 
Q 1150 2900 1350 2937 
Q 1550 2975 1725 3075 
L 1775 3075 
L 1775 450 
Q 1775 350 1837 300 
Q 1900 250 2000 250 
L 2525 250 
L 2525 100 
L 675 100 
L 675 250 
L 1200 250 
Q 1325 250 1375 300 
Q 1425 350 1425 450 
L 1425 2525 
z
M 1725 3025 
L 1725 3025 
z
M 1625 4425 
Q 1750 4425 1850 4337 
Q 1950 4250 1950 4125 
Q 1950 4000 1850 3900 
Q 1750 3800 1625 3800 
Q 1500 3800 1400 3900 
Q 1300 4000 1300 4125 
Q 1300 4250 1400 4337 
Q 1500 4425 1625 4425 
z
" transform="scale(0.015625)"/>
       <path id="Times New Roman-74" d="M 1500 900
Q 1500 550 1625 425 
Q 1750 300 2000 300 
Q 2250 300 2400 462 
Q 2550 625 2600 925 
L 2725 875 
Q 2675 525 2462 300 
Q 2250 75 1900 75 
Q 1525 75 1337 300 
Q 1150 525 1150 1000 
L 1150 2750 
L 400 2750 
L 400 2900 
L 600 2900 
Q 900 2900 1087 3087 
Q 1275 3275 1325 3675 
L 1350 3875 
L 1500 3875 
L 1500 2900 
L 2500 2900 
L 2500 2750 
L 1500 2750 
L 1500 900 
z
" transform="scale(0.015625)"/>
       <path id="Times New Roman-72" d="M 1275 2125
Q 1525 2525 1812 2737 
Q 2100 2950 2400 2950 
Q 2650 2950 2787 2837 
Q 2925 2725 2925 2575 
Q 2925 2450 2862 2375 
Q 2800 2300 2675 2300 
Q 2550 2300 2487 2375 
Q 2425 2450 2450 2575 
Q 2450 2650 2425 2700 
Q 2400 2750 2275 2750 
Q 2075 2750 1787 2500 
Q 1500 2250 1275 1800 
L 1275 450 
Q 1275 350 1337 300 
Q 1400 250 1500 250 
L 2050 250 
L 2050 100 
L 200 100 
L 200 250 
L 700 250 
Q 825 250 875 300 
Q 925 350 925 450 
L 925 2525 
Q 925 2625 875 2687 
Q 825 2750 700 2750 
L 225 2750 
L 225 2900 
L 425 2900 
Q 600 2900 837 2937 
Q 1075 2975 1200 3025 
L 1275 3025 
L 1275 2125 
z
" transform="scale(0.015625)"/>
       <path id="Times New Roman-61" d="M 1225 75
Q 775 75 525 287 
Q 275 500 275 775 
Q 275 1225 662 1512 
Q 1050 1800 2200 1925 
L 2200 2225 
Q 2200 2475 2087 2637 
Q 1975 2800 1575 2800 
Q 1150 2800 975 2662 
Q 800 2525 850 2375 
Q 875 2325 875 2275 
Q 875 2225 837 2150 
Q 800 2075 650 2075 
Q 550 2075 487 2137 
Q 425 2200 425 2325 
Q 425 2550 750 2750 
Q 1075 2950 1550 2950 
Q 2050 2950 2300 2762 
Q 2550 2575 2550 2225 
L 2550 575 
Q 2550 375 2587 337 
Q 2625 300 2725 300 
Q 2850 300 2900 412 
Q 2950 525 2950 725 
L 3075 725 
Q 3075 375 2950 237 
Q 2825 100 2625 100 
Q 2450 100 2350 175 
Q 2250 250 2200 425 
Q 1950 250 1737 162 
Q 1525 75 1225 75 
z
M 700 850 
Q 700 625 837 437 
Q 975 250 1275 250 
Q 1500 250 1725 337 
Q 1950 425 2200 600 
L 2200 1775 
Q 1350 1675 1025 1437 
Q 700 1200 700 850 
z
" transform="scale(0.015625)"/>
       <path id="Times New Roman-65" d="M 2400 1650
Q 2425 2200 2212 2487 
Q 2000 2775 1650 2775 
Q 1275 2775 1037 2475 
Q 800 2175 800 1650 
L 2400 1650 
z
M 800 1500 
Q 800 825 1062 537 
Q 1325 250 1750 250 
Q 2075 250 2300 437 
Q 2525 625 2625 900 
L 2750 850 
Q 2675 575 2412 312 
Q 2150 50 1700 50 
Q 1125 50 762 425 
Q 400 800 400 1500 
Q 400 2125 762 2537 
Q 1125 2950 1650 2950 
Q 2125 2950 2475 2625 
Q 2825 2300 2825 1500 
L 800 1500 
z
" transform="scale(0.015625)"/>
       <path id="Times New Roman-20" d="M 0 0
Q 0 0 0 0 
z
" transform="scale(0.015625)"/>
       <path id="Times New Roman-28" d="M 2900 5025
Q 2325 4425 2037 3737 
Q 1750 3050 1750 2300 
Q 1750 1525 2037 850 
Q 2325 175 2900 -425 
L 2775 -550 
Q 2075 75 1725 787 
Q 1375 1500 1375 2300 
Q 1375 3075 1725 3787 
Q 2075 4500 2775 5150 
L 2900 5025 
z
" transform="scale(0.015625)"/>
       <path id="Times New Roman-6b" d="M 1675 1900
L 2625 425 
Q 2700 325 2762 287 
Q 2825 250 2900 250 
L 3000 250 
L 3000 100 
L 1975 100 
L 1975 250 
L 2050 250 
Q 2175 250 2225 287 
Q 2275 325 2200 425 
L 1425 1650 
L 925 1125 
L 925 450 
Q 925 350 987 300 
Q 1050 250 1150 250 
L 1275 250 
L 1275 100 
L 225 100 
L 225 250 
L 350 250 
Q 475 250 525 300 
Q 575 350 575 450 
L 575 4025 
Q 575 4125 525 4175 
Q 475 4225 350 4225 
L 200 4225 
L 200 4375 
L 425 4375 
Q 575 4375 687 4425 
Q 800 4475 875 4575 
L 925 4575 
L 925 1400 
L 1975 2525 
Q 2025 2625 2012 2687 
Q 2000 2750 1900 2750 
L 1750 2750 
L 1750 2900 
L 2800 2900 
L 2800 2750 
L 2675 2750 
Q 2600 2750 2487 2712 
Q 2375 2675 2275 2575 
L 1675 1900 
z
M 2450 2750 
L 2450 2750 
z
M 2175 2750 
L 2175 2750 
z
M 2300 250 
L 2300 250 
z
M 2750 250 
L 2750 250 
z
" transform="scale(0.015625)"/>
       <path id="Times New Roman-62" d="M 875 2325
Q 1000 2600 1275 2762 
Q 1550 2925 1800 2925 
Q 2325 2925 2587 2562 
Q 2850 2200 2850 1500 
Q 2850 800 2512 437 
Q 2175 75 1675 75 
Q 1425 75 1212 162 
Q 1000 250 850 400 
L 625 100 
L 525 100 
L 525 4025 
Q 525 4125 475 4175 
Q 425 4225 300 4225 
L 150 4225 
L 150 4375 
L 375 4375 
Q 500 4375 625 4425 
Q 750 4475 875 4575 
L 875 2325 
z
M 875 925 
Q 875 650 1062 450 
Q 1250 250 1625 250 
Q 2075 250 2262 562 
Q 2450 875 2450 1500 
Q 2450 2100 2287 2412 
Q 2125 2725 1775 2725 
Q 1475 2725 1250 2550 
Q 1025 2375 875 1925 
L 875 925 
z
" transform="scale(0.015625)"/>
       <path id="Times New Roman-70" d="M 1150 -675
L 1325 -675 
L 1325 -825 
L 175 -825 
L 175 -675 
L 325 -675 
Q 450 -675 500 -625 
Q 550 -575 550 -450 
L 550 2500 
Q 550 2600 500 2662 
Q 450 2725 325 2725 
L 175 2725 
L 175 2875 
L 400 2875 
Q 525 2875 637 2900 
Q 750 2925 850 3000 
L 900 3000 
L 900 2425 
Q 1075 2675 1287 2800 
Q 1500 2925 1750 2925 
Q 2250 2925 2575 2587 
Q 2900 2250 2900 1525 
Q 2900 825 2550 450 
Q 2200 75 1725 75 
Q 1450 75 1262 162 
Q 1075 250 900 425 
L 900 -450 
Q 900 -575 975 -625 
Q 1050 -675 1150 -675 
z
M 900 750 
Q 1025 500 1212 375 
Q 1400 250 1650 250 
Q 2000 250 2250 562 
Q 2500 875 2500 1525 
Q 2500 2125 2312 2425 
Q 2125 2725 1750 2725 
Q 1525 2725 1300 2587 
Q 1075 2450 900 2150 
L 900 750 
z
" transform="scale(0.015625)"/>
       <path id="Times New Roman-73" d="M 625 2175
Q 625 2550 912 2750 
Q 1200 2950 1600 2950 
Q 1825 2950 2025 2900 
Q 2225 2825 2300 2825 
Q 2375 2825 2425 2850 
Q 2475 2875 2550 2950 
L 2650 2125 
L 2500 2100 
Q 2400 2425 2162 2612 
Q 1925 2800 1625 2800 
Q 1300 2800 1112 2675 
Q 925 2550 925 2325 
Q 925 2125 1012 2012 
Q 1100 1900 1325 1850 
Q 1500 1775 1775 1700 
Q 2025 1600 2250 1500 
Q 2450 1400 2587 1237 
Q 2725 1075 2725 875 
Q 2725 500 2462 287 
Q 2200 75 1700 75 
Q 1375 75 1225 150 
Q 1050 200 950 200 
Q 875 200 787 162 
Q 700 125 600 75 
L 525 1000 
L 675 1025 
Q 750 625 1000 425 
Q 1250 225 1700 225 
Q 2050 225 2237 350 
Q 2425 475 2425 725 
Q 2425 900 2325 1012 
Q 2225 1125 2125 1175 
Q 1875 1275 1575 1400 
Q 1275 1500 1050 1600 
Q 825 1700 725 1850 
Q 625 2000 625 2175 
z
" transform="scale(0.015625)"/>
       <path id="Times New Roman-29" d="M 275 5025
L 400 5150 
Q 1100 4500 1450 3787 
Q 1800 3075 1800 2300 
Q 1800 1500 1450 787 
Q 1100 75 400 -550 
L 275 -425 
Q 850 175 1137 850 
Q 1425 1525 1425 2300 
Q 1425 3050 1137 3737 
Q 850 4425 275 5025 
z
" transform="scale(0.015625)"/>
      </defs>
      <use xlink:href="#Times New Roman-42"/>
      <use xlink:href="#Times New Roman-69" x="50"/>
      <use xlink:href="#Times New Roman-74" x="100"/>
      <use xlink:href="#Times New Roman-72" x="150"/>
      <use xlink:href="#Times New Roman-61" x="200"/>
      <use xlink:href="#Times New Roman-74" x="250"/>
      <use xlink:href="#Times New Roman-65" x="300"/>
      <use xlink:href="#Times New Roman-20" x="350"/>
      <use xlink:href="#Times New Roman-28" x="400"/>
      <use xlink:href="#Times New Roman-6b" x="450"/>
      <use xlink:href="#Times New Roman-62" x="500"/>
      <use xlink:href="#Times New Roman-70" x="550"/>
      <use xlink:href="#Times New Roman-73" x="600"/>
      <use xlink:href="#Times New Roman-29" x="650"/>
     </g>
    </g>
   </g>
   <g id="line2d_14">
    <path d="M 173.045455 369.36 
L 175.581818 369.36 
L 176.85 337.761806 
L 178.118182 337.761806 
L 179.386364 369.36 
L 181.922727 369.36 
L 183.190909 337.761806 
L 185.727273 337.761806 
L 186.995455 259.110459 
L 189.531818 259.110459 
L 190.8 309.855282 
L 193.336364 309.855282 
L 193.970455 259.110459 
L 195.872727 259.110459 
L 197.140909 337.761806 
L 202.213636 337.761806 
L 203.481818 309.855282 
L 206.018182 309.855282 
L 207.286364 259.110459 
L 240.259091 259.110459 
L 240.893182 135.095368 
L 241.527273 259.110459 
L 242.795455 259.110459 
L 244.063636 135.095368 
L 263.720455 135.095368 
L 264.354545 259.110459 
L 297.327273 259.110459 
L 298.595455 337.761806 
L 302.4 337.761806 
L 303.668182 309.855282 
L 328.397727 309.855282 
L 342.981818 337.761806 
L 351.859091 337.761806 
L 352.493182 309.855282 
L 356.297727 309.855282 
L 356.931818 369.36 
L 358.2 369.36 
L 358.834091 259.110459 
L 359.468182 309.855282 
L 371.515909 309.855282 
L 372.15 337.761806 
L 374.686364 337.761806 
L 375.954545 259.110459 
L 376.588636 259.110459 
L 377.222727 337.761806 
L 378.490909 337.761806 
L 379.759091 259.110459 
L 391.172727 259.110459 
L 392.440909 135.095368 
L 393.709091 259.110459 
L 398.781818 259.110459 
L 400.05 135.095368 
L 426.047727 135.095368 
L 426.681818 259.110459 
L 430.486364 259.110459 
L 431.120455 135.095368 
L 431.754545 259.110459 
L 435.559091 259.110459 
L 436.827273 135.095368 
L 446.338636 135.095368 
L 446.972727 259.110459 
L 449.509091 259.110459 
L 450.777273 309.855282 
L 458.386364 309.855282 
L 459.654545 135.095368 
L 461.556818 135.095368 
L 462.190909 309.855282 
L 476.775 309.855282 
L 477.409091 369.36 
L 496.431818 369.36 
L 497.7 337.761806 
L 498.968182 337.761806 
L 500.236364 309.855282 
L 506.577273 309.855282 
L 507.845455 135.095368 
L 508.479545 135.095368 
L 509.113636 309.855282 
L 511.65 309.855282 
L 512.918182 259.110459 
L 516.722727 259.110459 
L 517.990909 135.095368 
L 520.527273 135.095368 
L 521.795455 259.110459 
L 524.331818 259.110459 
L 525.6 135.095368 
L 526.868182 259.110459 
L 528.136364 259.110459 
L 529.404545 135.095368 
L 556.670455 135.095368 
L 557.304545 259.110459 
L 572.522727 259.110459 
L 573.790909 135.095368 
L 580.131818 135.095368 
L 581.4 259.110459 
L 588.375 259.110459 
L 589.009091 309.855282 
L 592.813636 309.855282 
L 593.447727 259.110459 
L 599.788636 259.110459 
L 600.422727 309.855282 
L 609.934091 309.855282 
L 610.568182 337.761806 
L 621.347727 337.761806 
L 621.981818 369.36 
L 628.322727 369.36 
L 628.956818 309.855282 
L 630.225 309.855282 
L 630.859091 369.36 
L 647.345455 369.36 
L 648.613636 309.855282 
L 651.15 309.855282 
L 652.418182 337.761806 
L 656.222727 337.761806 
L 657.490909 309.855282 
L 658.759091 337.761806 
L 660.661364 337.761806 
L 661.295455 309.855282 
L 676.513636 309.855282 
L 677.781818 259.110459 
L 680.318182 259.110459 
L 681.586364 135.095368 
L 682.854545 135.095368 
L 684.122727 259.110459 
L 699.340909 259.110459 
L 700.609091 135.095368 
L 701.877273 259.110459 
L 703.145455 259.110459 
L 704.413636 135.095368 
L 712.656818 135.095368 
L 713.290909 259.110459 
L 717.095455 259.110459 
L 717.729545 135.095368 
L 718.363636 135.095368 
L 719.631818 259.110459 
L 743.093182 259.110459 
L 743.727273 309.855282 
L 747.531818 309.855282 
L 748.8 259.110459 
L 749.434091 259.110459 
L 750.068182 337.761806 
L 752.604545 337.761806 
L 753.238636 259.110459 
L 753.872727 259.110459 
L 755.140909 337.761806 
L 757.677273 337.761806 
L 758.945455 309.855282 
L 760.213636 337.761806 
L 772.895455 337.761806 
L 774.163636 369.36 
L 795.722727 369.36 
L 796.356818 337.761806 
L 796.990909 369.36 
L 810.940909 369.36 
L 812.209091 309.855282 
L 812.843182 309.855282 
L 813.477273 337.761806 
L 818.55 337.761806 
L 819.818182 309.855282 
L 823.622727 309.855282 
L 824.256818 259.110459 
L 824.890909 309.855282 
L 828.695455 309.855282 
L 829.963636 259.110459 
L 830.597727 259.110459 
L 831.231818 309.855282 
L 833.768182 309.855282 
L 835.036364 259.110459 
L 856.595455 259.110459 
L 857.863636 135.095368 
L 873.081818 135.095368 
L 874.35 259.110459 
L 905.420455 259.110459 
L 906.054545 309.855282 
L 915.565909 309.855282 
L 916.2 337.761806 
L 926.345455 337.761806 
L 927.613636 369.36 
L 931.418182 369.36 
L 932.686364 337.761806 
L 933.954545 337.761806 
L 933.954545 337.761806 
" clip-path="url(#pdaa86b713a)" style="fill: none; stroke: #ff0000; stroke-width: 1.5; stroke-linecap: square"/>
   </g>
   <g id="line2d_15">
    <path d="M 173.045455 347.87473 
L 174.313636 347.87473 
L 174.947727 347.610598 
L 175.581818 347.2144 
L 176.85 346.593632 
L 178.118182 345.782983 
L 179.386364 344.347078 
L 180.654545 342.361535 
L 181.922727 339.770408 
L 183.190909 336.733444 
L 185.727273 322.752918 
L 189.531818 313.458452 
L 190.8 309.517166 
L 192.068182 304.698323 
L 194.604545 283.521901 
L 195.872727 279.157972 
L 197.140909 275.379303 
L 198.409091 270.975862 
L 199.677273 261.018114 
L 200.945455 255.8718 
L 203.481818 244.386126 
L 206.018182 219.834592 
L 207.286364 214.967127 
L 209.822727 206.120567 
L 211.090909 200.960371 
L 212.359091 194.791202 
L 214.895455 180.702654 
L 218.7 171.356029 
L 219.968182 164.367401 
L 220.602273 157.652516 
L 221.236364 147.425029 
L 223.772727 129.11598 
L 227.577273 115.221818 
L 231.381818 101.185729 
L 233.918182 92.820713 
L 235.186364 88.862642 
L 236.454545 85.566785 
L 237.722727 82.871341 
L 240.259091 78.52136 
L 242.161364 71.750712 
L 242.795455 70.052994 
L 244.063636 68.66289 
L 246.6 67.246957 
L 247.868182 67.043995 
L 249.136364 66.96 
L 251.672727 68.821202 
L 254.209091 72.634677 
L 255.477273 75.169407 
L 256.745455 77.292906 
L 258.013636 80.144961 
L 259.281818 83.292984 
L 261.818182 91.091994 
L 263.086364 95.313796 
L 264.354545 103.591447 
L 265.622727 111.134334 
L 266.890909 114.954049 
L 268.159091 118.400208 
L 269.427273 122.465768 
L 270.695455 132.01669 
L 273.231818 142.305246 
L 277.036364 159.387509 
L 279.572727 173.130333 
L 284.645455 202.107934 
L 292.254545 246.432804 
L 294.790909 260.989815 
L 296.059091 274.382577 
L 297.327273 280.191139 
L 299.863636 290.1602 
L 301.131818 294.897385 
L 302.4 305.131646 
L 303.668182 309.996241 
L 306.204545 318.27516 
L 312.545455 337.191194 
L 313.813636 340.366114 
L 315.081818 343.234188 
L 316.35 345.728539 
L 317.618182 347.892616 
L 318.252273 349.627543 
L 318.886364 350.942695 
L 320.154545 351.897874 
L 321.422727 352.476261 
L 328.397727 352.136777 
L 342.981818 347.57142 
L 349.322727 336.733311 
L 350.590909 319.786233 
L 351.859091 299.914319 
L 352.493182 281.753938 
L 353.127273 269.164416 
L 354.395455 261.584987 
L 355.663636 256.536852 
L 356.297727 250.458452 
L 356.931818 242.312183 
L 358.2 221.909536 
L 358.834091 214.767334 
L 360.736364 204.522962 
L 363.272727 196.572414 
L 364.540909 191.575102 
L 365.809091 186.109595 
L 368.345455 173.354053 
L 370.881818 159.991725 
L 372.15 147.6059 
L 373.418182 138.197706 
L 374.686364 130.282564 
L 375.954545 126.337341 
L 377.856818 114.181142 
L 378.490909 111.250632 
L 379.759091 108.75568 
L 381.027273 102.894793 
L 382.295455 99.606211 
L 383.563636 92.427736 
L 384.831818 90.074044 
L 385.465909 92.989804 
L 386.1 100.936881 
L 387.368182 108.22171 
L 388.636364 111.3112 
L 389.904545 109.056453 
L 390.538636 102.03936 
L 391.172727 89.815618 
L 392.440909 78.381535 
L 393.709091 71.782147 
L 394.977273 70.387138 
L 396.245455 78.482216 
L 397.513636 91.991109 
L 400.05 156.903503 
L 401.318182 201.843235 
L 402.586364 229.764208 
L 403.854545 264.158528 
L 405.122727 268.932521 
L 406.390909 282.725535 
L 407.659091 269.350793 
L 408.927273 275.717318 
L 410.195455 262.694574 
L 411.463636 267.488923 
L 412.731818 253.721972 
L 414 257.392819 
L 415.268182 244.783942 
L 416.536364 242.496758 
L 417.804545 223.702461 
L 419.072727 226.820016 
L 420.340909 227.006226 
L 421.609091 236.949625 
L 422.877273 236.293351 
L 424.145455 266.778488 
L 425.413636 278.411061 
L 426.681818 274.445582 
L 427.95 265.487896 
L 429.218182 257.584302 
L 430.486364 251.118364 
L 431.120455 260.544913 
L 431.754545 275.128053 
L 433.022727 289.271964 
L 433.656818 289.865467 
L 434.290909 287.124671 
L 435.559091 275.816631 
L 436.827273 272.00102 
L 438.095455 266.455189 
L 439.363636 268.162685 
L 440.631818 269.106718 
L 441.9 271.253142 
L 443.168182 270.620761 
L 445.704545 283.536752 
L 446.972727 314.451073 
L 448.240909 327.38158 
L 449.509091 334.2449 
L 450.777273 333.833335 
L 452.045455 331.875556 
L 453.313636 328.208414 
L 454.581818 326.82138 
L 455.85 324.498256 
L 457.118182 325.526584 
L 458.386364 324.466587 
L 459.654545 325.938416 
L 460.922727 327.046335 
L 461.556818 329.784594 
L 462.190909 333.538835 
L 463.459091 336.798084 
L 464.727273 341.768265 
L 465.995455 343.670247 
L 467.263636 346.769114 
L 468.531818 348.08757 
L 469.8 350.283517 
L 471.068182 351.163411 
L 472.336364 352.427039 
L 473.604545 352.813375 
L 474.872727 352.991209 
L 476.140909 352.908282 
L 476.775 352.586619 
L 477.409091 352.027421 
L 478.677273 351.611451 
L 479.945455 350.913028 
L 481.213636 350.608084 
L 482.481818 349.642059 
L 483.75 348.360211 
L 485.018182 342.906351 
L 486.286364 339.929988 
L 487.554545 335.425834 
L 488.822727 334.304967 
L 491.359091 338.746151 
L 492.627273 342.875983 
L 493.895455 344.153059 
L 495.163636 347.136429 
L 496.431818 342.773467 
L 497.7 340.124441 
L 498.968182 331.144197 
L 500.236364 330.888575 
L 501.504545 325.159637 
L 502.772727 321.807049 
L 504.040909 308.064559 
L 505.309091 299.199144 
L 506.577273 286.653973 
L 507.845455 280.424035 
L 508.479545 273.6357 
L 509.113636 273.831288 
L 510.381818 280.220505 
L 511.65 282.924627 
L 512.918182 284.2285 
L 514.186364 275.436334 
L 515.454545 264.724134 
L 516.722727 241.324 
L 517.990909 227.650454 
L 519.259091 215.968424 
L 520.527273 215.313918 
L 521.795455 210.173478 
L 523.063636 218.768421 
L 524.331818 222.146336 
L 525.6 234.752443 
L 526.868182 239.568884 
L 527.502273 262.782907 
L 528.136364 277.292598 
L 529.404545 286.039946 
L 531.940909 280.67355 
L 532.575 272.155929 
L 533.209091 255.377342 
L 534.477273 234.042875 
L 535.111364 216.258052 
L 535.745455 212.012723 
L 537.013636 202.561813 
L 538.281818 199.850784 
L 539.55 199.998718 
L 540.818182 204.343826 
L 542.086364 193.704307 
L 543.354545 192.700874 
L 544.622727 186.553196 
L 545.256818 203.977746 
L 547.159091 234.01768 
L 548.427273 235.04731 
L 549.695455 224.673958 
L 550.963636 194.583134 
L 552.231818 155.276165 
L 552.865909 117.011473 
L 553.5 88.934056 
L 554.768182 79.637221 
L 556.036364 71.394609 
L 557.304545 72.693644 
L 557.938636 73.625596 
L 558.572727 75.17201 
L 559.840909 76.899261 
L 561.109091 80.246309 
L 562.377273 81.916896 
L 563.645455 86.799011 
L 564.913636 93.335828 
L 565.547727 118.261385 
L 566.181818 161.717775 
L 568.718182 247.01316 
L 569.986364 267.184746 
L 571.254545 280.225311 
L 573.790909 241.152073 
L 575.059091 209.715261 
L 576.327273 199.281174 
L 577.595455 181.954034 
L 578.863636 179.928412 
L 580.131818 174.399667 
L 581.4 180.111085 
L 582.668182 183.4582 
L 583.936364 183.584609 
L 585.204545 186.941301 
L 586.472727 204.985317 
L 587.740909 232.063005 
L 588.375 256.003683 
L 589.009091 268.546285 
L 590.277273 271.760949 
L 591.545455 263.609608 
L 592.813636 250.099246 
L 593.447727 239.624781 
L 594.081818 239.917378 
L 599.154545 262.723874 
L 600.422727 274.564116 
L 601.690909 280.465949 
L 604.227273 290.672245 
L 606.763636 300.585076 
L 608.031818 305.812114 
L 609.3 316.136577 
L 609.934091 320.451985 
L 610.568182 323.867744 
L 613.104545 332.232827 
L 614.372727 337.457862 
L 615.640909 341.522254 
L 616.275 346.475783 
L 616.909091 349.701026 
L 618.177273 352.753808 
L 619.445455 354.576 
L 620.713636 357.297107 
L 621.981818 361.227513 
L 623.25 362.311838 
L 624.518182 362.238055 
L 625.786364 361.160671 
L 626.420455 359.268801 
L 627.054545 357.840687 
L 628.322727 356.470239 
L 629.590909 354.060851 
L 630.225 353.037829 
L 630.859091 351.77914 
L 633.395455 349.168491 
L 634.663636 349.045385 
L 635.931818 350.19475 
L 637.2 354.539325 
L 638.468182 355.890318 
L 639.736364 356.698497 
L 641.004545 356.144672 
L 642.272727 354.978921 
L 643.540909 350.595136 
L 644.809091 344.222003 
L 646.077273 334.484971 
L 647.345455 312.014855 
L 648.613636 302.610898 
L 649.881818 298.10097 
L 651.15 297.746837 
L 652.418182 297.12727 
L 653.686364 293.661322 
L 654.954545 291.680951 
L 656.222727 287.69338 
L 657.490909 281.259846 
L 658.759091 270.556822 
L 660.027273 256.754364 
L 661.295455 243.923203 
L 662.563636 249.710507 
L 663.831818 254.95126 
L 665.1 277.442768 
L 667.636364 300.028348 
L 668.904545 305.095171 
L 670.172727 305.081055 
L 671.440909 294.094344 
L 672.709091 279.889865 
L 675.245455 235.30113 
L 676.513636 210.985529 
L 677.781818 196.852497 
L 679.05 176.978881 
L 679.684091 170.542343 
L 680.318182 165.788406 
L 681.586364 167.855975 
L 684.122727 194.172703 
L 684.756818 216.729484 
L 685.390909 231.92575 
L 686.659091 246.70024 
L 687.293182 252.218874 
L 687.927273 265.13967 
L 689.195455 262.850651 
L 690.463636 256.015463 
L 691.731818 239.295342 
L 692.365909 235.355858 
L 694.268182 228.7236 
L 694.902273 215.083324 
L 695.536364 198.482505 
L 696.804545 174.140007 
L 697.438636 169.333711 
L 698.072727 186.157749 
L 699.340909 208.633639 
L 700.609091 242.958013 
L 701.877273 252.318787 
L 702.511364 258.590004 
L 703.145455 245.123058 
L 704.413636 241.567342 
L 705.681818 221.581532 
L 706.95 203.558305 
L 708.218182 167.691089 
L 709.486364 137.488571 
L 710.754545 126.169652 
L 712.022727 137.325854 
L 712.656818 161.790757 
L 713.290909 167.396156 
L 714.559091 164.503455 
L 715.827273 159.568079 
L 717.095455 161.580453 
L 717.729545 177.190052 
L 718.363636 203.275786 
L 719.631818 222.704133 
L 720.9 232.702161 
L 722.168182 233.784683 
L 723.436364 230.527137 
L 724.704545 225.257351 
L 725.972727 226.058255 
L 727.240909 216.22755 
L 728.509091 208.043706 
L 729.777273 194.499873 
L 731.045455 206.202392 
L 732.313636 221.334319 
L 733.581818 246.403605 
L 734.85 259.796534 
L 735.484091 278.401284 
L 736.118182 282.74202 
L 737.386364 287.550285 
L 738.020455 278.016482 
L 738.654545 270.523785 
L 740.556818 251.237966 
L 741.190909 252.172789 
L 742.459091 262.193008 
L 743.093182 271.956303 
L 743.727273 277.6488 
L 744.995455 275.028307 
L 746.263636 270.396141 
L 747.531818 267.443472 
L 748.8 271.929873 
L 749.434091 279.464084 
L 751.336364 296.282016 
L 752.604545 302.830747 
L 753.238636 309.154624 
L 753.872727 313.997261 
L 755.140909 313.434124 
L 755.775 308.87424 
L 756.409091 303.184379 
L 757.677273 301.699769 
L 758.945455 304.526729 
L 761.481818 312.642697 
L 762.75 321.016924 
L 764.018182 325.0387 
L 766.554545 331.685241 
L 771.627273 343.502657 
L 772.895455 345.967175 
L 775.431818 350.227154 
L 776.7 352.622626 
L 777.968182 354.75657 
L 779.236364 356.116306 
L 780.504545 356.410639 
L 781.138636 355.715487 
L 781.772727 354.112443 
L 783.040909 352.107778 
L 783.675 350.383363 
L 784.309091 349.185711 
L 785.577273 348.007413 
L 786.845455 345.065456 
L 788.113636 343.331698 
L 789.381818 339.234169 
L 790.65 337.029178 
L 791.918182 332.182103 
L 793.186364 329.561342 
L 794.454545 324.201054 
L 795.722727 322.41814 
L 796.356818 325.123963 
L 796.990909 332.402251 
L 799.527273 348.266973 
L 800.795455 352.209626 
L 802.063636 355.514326 
L 803.331818 352.419297 
L 804.6 351.999689 
L 805.868182 346.928995 
L 807.136364 340.017554 
L 808.404545 322.104452 
L 809.038636 302.384876 
L 809.672727 278.963452 
L 810.940909 261.312346 
L 812.209091 256.728435 
L 812.843182 259.256424 
L 813.477273 264.040962 
L 814.745455 266.474945 
L 816.013636 270.317452 
L 817.281818 266.247287 
L 818.55 258.360044 
L 819.818182 247.216623 
L 821.086364 238.74185 
L 822.354545 237.547834 
L 823.622727 238.867125 
L 824.256818 240.33872 
L 824.890909 231.955484 
L 826.159091 219.851811 
L 827.427273 205.243276 
L 828.695455 194.904263 
L 829.963636 201.512461 
L 831.231818 243.126036 
L 832.5 260.090766 
L 833.768182 269.934586 
L 835.036364 274.102761 
L 836.304545 269.543644 
L 837.572727 277.785188 
L 838.840909 275.581565 
L 840.109091 283.862253 
L 841.377273 274.357349 
L 842.645455 287.8292 
L 843.913636 282.220131 
L 845.181818 295.861407 
L 846.45 292.687989 
L 847.084091 308.831025 
L 847.718182 311.854774 
L 848.986364 322.346526 
L 850.254545 322.255122 
L 851.522727 317.651455 
L 852.790909 308.582477 
L 854.059091 289.134241 
L 855.327273 283.022971 
L 856.595455 264.873703 
L 857.863636 271.009434 
L 859.131818 260.079854 
L 860.4 273.046535 
L 861.668182 258.455419 
L 862.302273 264.503518 
L 862.936364 256.518731 
L 864.204545 263.372807 
L 864.838636 262.157 
L 865.472727 280.039668 
L 866.740909 288.266328 
L 867.375 296.489884 
L 868.009091 301.548298 
L 869.911364 311.700766 
L 870.545455 317.612978 
L 873.081818 334.21253 
L 874.35 333.9504 
L 875.618182 339.203434 
L 876.886364 342.217172 
L 878.154545 346.569255 
L 879.422727 349.814988 
L 880.690909 358.082661 
L 881.959091 356.439037 
L 883.227273 358.373222 
L 884.495455 354.892791 
L 885.763636 357.088471 
L 887.031818 355.183386 
L 888.3 359.239201 
L 889.568182 358.029234 
L 890.836364 361.315179 
L 892.104545 359.873584 
L 893.372727 362.212559 
L 894.640909 361.010835 
L 895.909091 362.850547 
L 897.177273 361.026653 
L 898.445455 361.562926 
L 899.713636 359.457681 
L 900.981818 359.905019 
L 902.25 357.687381 
L 903.518182 359.230691 
L 904.786364 358.777145 
L 905.420455 360.846316 
L 906.054545 360.840943 
L 907.322727 363.08331 
L 908.590909 363.822478 
L 909.859091 363.611073 
L 910.493182 362.789678 
L 911.127273 361.573104 
L 912.395455 361.204287 
L 913.663636 359.948902 
L 914.931818 359.14119 
L 915.565909 357.189485 
L 916.2 355.711482 
L 917.468182 353.154594 
L 918.736364 351.343982 
L 920.004545 350.49796 
L 921.272727 350.433687 
L 922.540909 350.7405 
L 923.809091 352.214632 
L 925.077273 354.539325 
L 926.345455 357.563875 
L 927.613636 359.169155 
L 928.881818 360.460714 
L 930.15 361.936514 
L 930.784091 362.442052 
L 931.418182 362.125795 
L 933.954545 358.709435 
L 933.954545 358.709435 
" clip-path="url(#pdaa86b713a)" style="fill: none; stroke: #008000; stroke-width: 1.5; stroke-linecap: square"/>
   </g>
   <g id="patch_3">
    <path d="M 135 384.48 
L 135 51.84 
" style="fill: none; stroke: #000000; stroke-width: 0.8; stroke-linejoin: miter; stroke-linecap: square"/>
   </g>
   <g id="patch_4">
    <path d="M 972 384.48 
L 972 51.84 
" style="fill: none; stroke: #000000; stroke-width: 0.8; stroke-linejoin: miter; stroke-linecap: square"/>
   </g>
   <g id="patch_5">
    <path d="M 135 384.48 
L 972 384.48 
" style="fill: none; stroke: #000000; stroke-width: 0.8; stroke-linejoin: miter; stroke-linecap: square"/>
   </g>
   <g id="patch_6">
    <path d="M 135 51.84 
L 972 51.84 
" style="fill: none; stroke: #000000; stroke-width: 0.8; stroke-linejoin: miter; stroke-linecap: square"/>
   </g>
  </g>
  <g id="axes_2">
   <g id="matplotlib.axis_3">
    <g id="ytick_7">
     <g id="line2d_16">
      <path d="M 135 369.553348 
L 972 369.553348 
" clip-path="url(#pdaa86b713a)" style="fill: none; stroke: #b0b0b0; stroke-width: 0.8; stroke-linecap: square"/>
     </g>
     <g id="line2d_17">
      <defs>
       <path id="m2eb51bd271" d="M 0 0 
L 3.5 0 
" style="stroke: #000000; stroke-width: 0.8"/>
      </defs>
      <g>
       <use xlink:href="#m2eb51bd271" x="972" y="369.553348" style="stroke: #000000; stroke-width: 0.8"/>
      </g>
     </g>
     <g id="text_15">
      <!-- 0 -->
      <g transform="translate(979 373.127567) scale(0.1 -0.1)">
       <use xlink:href="#Times New Roman-30"/>
      </g>
     </g>
    </g>
    <g id="ytick_8">
     <g id="line2d_18">
      <path d="M 135 321.216268 
L 972 321.216268 
" clip-path="url(#pdaa86b713a)" style="fill: none; stroke: #b0b0b0; stroke-width: 0.8; stroke-linecap: square"/>
     </g>
     <g id="line2d_19">
      <g>
       <use xlink:href="#m2eb51bd271" x="972" y="321.216268" style="stroke: #000000; stroke-width: 0.8"/>
      </g>
     </g>
     <g id="text_16">
      <!-- 5 -->
      <g transform="translate(979 324.790486) scale(0.1 -0.1)">
       <use xlink:href="#Times New Roman-35"/>
      </g>
     </g>
    </g>
    <g id="ytick_9">
     <g id="line2d_20">
      <path d="M 135 272.879187 
L 972 272.879187 
" clip-path="url(#pdaa86b713a)" style="fill: none; stroke: #b0b0b0; stroke-width: 0.8; stroke-linecap: square"/>
     </g>
     <g id="line2d_21">
      <g>
       <use xlink:href="#m2eb51bd271" x="972" y="272.879187" style="stroke: #000000; stroke-width: 0.8"/>
      </g>
     </g>
     <g id="text_17">
      <!-- 10 -->
      <g transform="translate(979 276.453405) scale(0.1 -0.1)">
       <use xlink:href="#Times New Roman-31"/>
       <use xlink:href="#Times New Roman-30" x="50"/>
      </g>
     </g>
    </g>
    <g id="ytick_10">
     <g id="line2d_22">
      <path d="M 135 224.542106 
L 972 224.542106 
" clip-path="url(#pdaa86b713a)" style="fill: none; stroke: #b0b0b0; stroke-width: 0.8; stroke-linecap: square"/>
     </g>
     <g id="line2d_23">
      <g>
       <use xlink:href="#m2eb51bd271" x="972" y="224.542106" style="stroke: #000000; stroke-width: 0.8"/>
      </g>
     </g>
     <g id="text_18">
      <!-- 15 -->
      <g transform="translate(979 228.116325) scale(0.1 -0.1)">
       <use xlink:href="#Times New Roman-31"/>
       <use xlink:href="#Times New Roman-35" x="50"/>
      </g>
     </g>
    </g>
    <g id="ytick_11">
     <g id="line2d_24">
      <path d="M 135 176.205025 
L 972 176.205025 
" clip-path="url(#pdaa86b713a)" style="fill: none; stroke: #b0b0b0; stroke-width: 0.8; stroke-linecap: square"/>
     </g>
     <g id="line2d_25">
      <g>
       <use xlink:href="#m2eb51bd271" x="972" y="176.205025" style="stroke: #000000; stroke-width: 0.8"/>
      </g>
     </g>
     <g id="text_19">
      <!-- 20 -->
      <g transform="translate(979 179.779244) scale(0.1 -0.1)">
       <use xlink:href="#Times New Roman-32"/>
       <use xlink:href="#Times New Roman-30" x="50"/>
      </g>
     </g>
    </g>
    <g id="ytick_12">
     <g id="line2d_26">
      <path d="M 135 127.867944 
L 972 127.867944 
" clip-path="url(#pdaa86b713a)" style="fill: none; stroke: #b0b0b0; stroke-width: 0.8; stroke-linecap: square"/>
     </g>
     <g id="line2d_27">
      <g>
       <use xlink:href="#m2eb51bd271" x="972" y="127.867944" style="stroke: #000000; stroke-width: 0.8"/>
      </g>
     </g>
     <g id="text_20">
      <!-- 25 -->
      <g transform="translate(979 131.442163) scale(0.1 -0.1)">
       <use xlink:href="#Times New Roman-32"/>
       <use xlink:href="#Times New Roman-35" x="50"/>
      </g>
     </g>
    </g>
    <g id="ytick_13">
     <g id="line2d_28">
      <path d="M 135 79.530863 
L 972 79.530863 
" clip-path="url(#pdaa86b713a)" style="fill: none; stroke: #b0b0b0; stroke-width: 0.8; stroke-linecap: square"/>
     </g>
     <g id="line2d_29">
      <g>
       <use xlink:href="#m2eb51bd271" x="972" y="79.530863" style="stroke: #000000; stroke-width: 0.8"/>
      </g>
     </g>
     <g id="text_21">
      <!-- 30 -->
      <g transform="translate(979 83.105082) scale(0.1 -0.1)">
       <use xlink:href="#Times New Roman-33"/>
       <use xlink:href="#Times New Roman-30" x="50"/>
      </g>
     </g>
    </g>
    <g id="text_22">
     <!-- buffer (s) -->
     <g transform="translate(1000.617188 243.16) rotate(-90) scale(0.1 -0.1)">
      <defs>
       <path id="Times New Roman-75" d="M 1450 325
Q 1750 325 1962 475 
Q 2175 625 2275 950 
L 2275 2525 
Q 2275 2625 2225 2687 
Q 2175 2750 2050 2750 
L 1900 2750 
L 1900 2900 
L 2050 2900 
Q 2200 2900 2325 2925 
Q 2450 2950 2575 3050 
L 2625 3050 
L 2625 600 
Q 2625 500 2687 450 
Q 2750 400 2850 400 
L 3000 400 
L 3000 250 
L 2850 250 
Q 2725 250 2600 212 
Q 2475 175 2325 100 
L 2275 100 
L 2275 625 
Q 2150 350 1900 212 
Q 1650 75 1325 75 
Q 925 75 725 300 
Q 525 525 525 1025 
L 525 2525 
Q 525 2625 475 2687 
Q 425 2750 300 2750 
L 150 2750 
L 150 2900 
L 300 2900 
Q 450 2900 575 2925 
Q 700 2950 825 3050 
L 875 3050 
L 875 975 
Q 875 625 1025 475 
Q 1175 325 1450 325 
z
" transform="scale(0.015625)"/>
       <path id="Times New Roman-66" d="M 1125 3325
Q 1125 3850 1450 4112 
Q 1775 4375 2175 4375 
Q 2600 4375 2812 4225 
Q 3025 4075 3025 3875 
Q 3025 3775 2975 3700 
Q 2925 3625 2775 3625 
Q 2675 3625 2612 3675 
Q 2550 3725 2550 3850 
Q 2550 3875 2575 3925 
Q 2575 3975 2575 4000 
Q 2575 4100 2500 4162 
Q 2425 4225 2150 4225 
Q 1850 4225 1662 4037 
Q 1475 3850 1475 3400 
L 1475 2900 
L 2525 2900 
L 2525 2750 
L 1475 2750 
L 1475 450 
Q 1475 350 1537 300 
Q 1600 250 1700 250 
L 2300 250 
L 2300 100 
L 475 100 
L 475 250 
L 900 250 
Q 1025 250 1075 300 
Q 1125 350 1125 450 
L 1125 2750 
L 350 2750 
L 350 2900 
L 1125 2900 
L 1125 3325 
z
" transform="scale(0.015625)"/>
      </defs>
      <use xlink:href="#Times New Roman-62"/>
      <use xlink:href="#Times New Roman-75" x="50"/>
      <use xlink:href="#Times New Roman-66" x="100"/>
      <use xlink:href="#Times New Roman-66" x="150"/>
      <use xlink:href="#Times New Roman-65" x="200"/>
      <use xlink:href="#Times New Roman-72" x="250"/>
      <use xlink:href="#Times New Roman-20" x="300"/>
      <use xlink:href="#Times New Roman-28" x="350"/>
      <use xlink:href="#Times New Roman-73" x="400"/>
      <use xlink:href="#Times New Roman-29" x="450"/>
     </g>
    </g>
   </g>
   <g id="line2d_30">
    <path d="M 173.045455 330.883684 
L 174.313636 325.097735 
L 174.947727 323.169086 
L 175.581818 316.26655 
L 176.85 315.78318 
L 179.386364 321.709306 
L 180.654545 319.102326 
L 181.922727 309.496137 
L 183.190909 306.022312 
L 183.825 305.577611 
L 184.459091 312.109561 
L 185.093182 315.512492 
L 185.727273 309.425242 
L 186.995455 302.516262 
L 188.263636 299.438801 
L 189.531818 308.890312 
L 190.8 306.380006 
L 192.068182 303.350882 
L 193.336364 290.293426 
L 193.970455 279.991183 
L 194.604545 273.10476 
L 195.872727 273.675137 
L 197.140909 277.516324 
L 198.409091 280.500333 
L 199.043182 286.329785 
L 199.677273 285.872194 
L 200.945455 286.28467 
L 202.213636 283.664801 
L 203.481818 286.639142 
L 204.75 285.733628 
L 205.384091 282.704504 
L 206.018182 276.646257 
L 207.286364 277.032953 
L 208.554545 279.971848 
L 212.359091 290.067853 
L 213.627273 293.590015 
L 216.163636 299.722379 
L 217.431818 302.693498 
L 218.7 306.312334 
L 219.968182 309.302788 
L 220.602273 315.303031 
L 221.236364 315.19669 
L 222.504545 315.589831 
L 223.772727 312.957072 
L 225.040909 315.567274 
L 227.577273 309.064325 
L 230.113636 277.174742 
L 231.381818 267.152854 
L 232.65 263.666139 
L 233.918182 260.904481 
L 236.454545 241.821001 
L 238.990909 222.09625 
L 240.259091 212.983099 
L 240.893182 206.940964 
L 241.527273 193.947956 
L 242.161364 184.129084 
L 242.795455 170.894391 
L 244.063636 164.501007 
L 245.331818 154.952822 
L 246.6 151.97848 
L 247.868182 148.378979 
L 249.136364 151.321096 
L 250.404545 148.082511 
L 251.672727 151.024628 
L 252.940909 147.566916 
L 254.209091 150.550925 
L 255.477273 147.914943 
L 259.281818 138.112183 
L 260.55 141.6279 
L 261.818182 139.001585 
L 263.086364 141.650457 
L 264.354545 140.738498 
L 264.988636 137.735154 
L 265.622727 131.973374 
L 266.890909 132.379405 
L 268.159091 135.395639 
L 269.427273 144.550682 
L 270.061364 150.541258 
L 270.695455 150.908619 
L 271.963636 151.314651 
L 273.231818 148.491765 
L 274.5 151.45644 
L 275.768182 147.96328 
L 277.036364 151.140637 
L 279.572727 145.63021 
L 280.840909 142.156385 
L 283.377273 148.385424 
L 284.645455 151.904363 
L 285.913636 154.901262 
L 287.181818 164.330216 
L 288.45 167.626804 
L 290.986364 173.498149 
L 292.254545 182.904544 
L 296.059091 214.620114 
L 297.327273 215.254941 
L 298.595455 219.073571 
L 299.863636 222.038245 
L 301.131818 231.241625 
L 301.765909 237.261203 
L 302.4 237.683347 
L 303.668182 238.028151 
L 304.936364 241.814556 
L 308.740909 270.14653 
L 311.277273 289.822945 
L 313.813636 308.619624 
L 316.35 328.289594 
L 317.618182 337.705657 
L 318.886364 350.540763 
L 320.154545 357.398184 
L 321.422727 364.880764 
L 328.397727 368.928189 
L 342.981818 369.36 
L 349.322727 369.166652 
L 350.590909 357.501303 
L 351.859091 342.784273 
L 352.493182 328.067243 
L 353.127273 328.215477 
L 354.395455 334.157715 
L 355.663636 343.535109 
L 356.297727 349.51924 
L 356.931818 343.809019 
L 357.565909 334.663643 
L 358.2 322.166897 
L 358.834091 318.815526 
L 359.468182 318.164586 
L 360.102273 320.865018 
L 360.736364 327.322852 
L 362.004545 334.064264 
L 363.272727 344.198938 
L 364.540909 346.735024 
L 367.077273 352.722377 
L 369.613636 360.491757 
L 370.881818 362.67337 
L 371.515909 367.751986 
L 372.15 361.039577 
L 372.784091 352.525806 
L 373.418182 340.944241 
L 374.052273 337.876448 
L 374.686364 331.644187 
L 375.954545 331.051252 
L 377.222727 330.007171 
L 377.856818 326.984492 
L 378.490909 320.942357 
L 379.759091 321.380614 
L 380.393182 321.81887 
L 381.027273 321.358056 
L 382.295455 320.865018 
L 382.929545 320.37198 
L 383.563636 314.329845 
L 384.831818 289.091444 
L 385.465909 263.853042 
L 386.1 244.921019 
L 387.368182 225.23816 
L 388.636364 202.300604 
L 391.172727 128.499549 
L 392.440909 128.048403 
L 394.977273 121.081418 
L 396.245455 118.451881 
L 397.513636 108.942366 
L 398.781818 105.887462 
L 400.05 95.975138 
L 401.318182 92.946015 
L 402.586364 82.637327 
L 405.122727 75.812131 
L 406.390909 79.672652 
L 407.659091 76.160158 
L 408.927273 79.160279 
L 410.195455 75.702567 
L 411.463636 79.559866 
L 412.731818 76.910994 
L 416.536364 85.885578 
L 417.804545 89.68165 
L 419.072727 86.207826 
L 420.340909 89.091938 
L 421.609091 85.631003 
L 422.877273 83.117475 
L 423.511364 77.181681 
L 424.145455 77.339582 
L 425.413636 83.204482 
L 426.047727 89.069381 
L 426.681818 88.966262 
L 427.95 82.946684 
L 429.218182 80.19147 
L 430.486364 83.065915 
L 431.120455 89.069381 
L 431.754545 88.869587 
L 433.022727 82.827452 
L 433.656818 76.785317 
L 434.290909 77.094675 
L 435.559091 77.08823 
L 436.827273 80.378374 
L 438.095455 83.355938 
L 439.363636 86.733089 
L 441.9 80.046459 
L 443.168182 83.024023 
L 444.436364 86.359282 
L 445.704545 89.188612 
L 446.972727 88.308877 
L 448.240909 82.2893 
L 449.509091 79.720989 
L 450.777273 76.221385 
L 452.045455 79.173169 
L 453.313636 75.812131 
L 454.581818 79.650095 
L 458.386364 88.392662 
L 459.654545 92.227403 
L 460.922727 102.487754 
L 462.190909 115.890016 
L 463.459091 121.874146 
L 464.093182 127.858277 
L 464.727273 127.961396 
L 465.995455 128.37065 
L 466.629545 128.779904 
L 467.263636 134.532016 
L 469.165909 134.190434 
L 469.8 134.596466 
L 471.068182 141.160642 
L 472.336364 153.702503 
L 473.604545 153.241689 
L 474.872727 156.486719 
L 476.140909 160.315015 
L 476.775 167.169213 
L 477.409091 167.027425 
L 478.677273 167.040315 
L 479.945455 163.560045 
L 481.213636 166.814742 
L 482.481818 163.743726 
L 483.75 166.743847 
L 485.018182 165.82222 
L 486.286364 153.341586 
L 487.554545 128.377095 
L 488.822727 122.189949 
L 491.359091 89.475412 
L 492.627273 79.675875 
L 493.895455 76.933551 
L 495.163636 80.381596 
L 496.431818 76.885214 
L 497.7 79.96912 
L 498.968182 76.298724 
L 500.236364 79.782216 
L 501.504545 76.260054 
L 502.772727 79.824108 
L 504.040909 76.7112 
L 506.577273 82.669551 
L 507.845455 92.098504 
L 508.479545 98.955925 
L 509.113636 99.323287 
L 510.381818 92.388527 
L 512.918182 85.643893 
L 515.454545 80.214028 
L 517.990909 85.946805 
L 519.259091 89.140275 
L 520.527273 86.504293 
L 521.795455 89.462522 
L 523.063636 85.969363 
L 524.331818 88.975929 
L 525.6 86.368949 
L 526.868182 82.946684 
L 527.502273 76.086041 
L 528.136364 75.673564 
L 529.404545 76.079596 
L 530.672727 79.911115 
L 531.940909 76.472738 
L 533.209091 75.605893 
L 534.477273 75.947475 
L 535.745455 76.72409 
L 537.013636 82.763003 
L 538.281818 86.159488 
L 539.55 89.082271 
L 540.818182 86.433399 
L 542.086364 88.975929 
L 543.354545 85.531106 
L 544.622727 88.511893 
L 545.890909 89.336846 
L 547.159091 83.285043 
L 549.695455 76.359951 
L 550.963636 79.430967 
L 552.231818 83.252819 
L 552.865909 90.055457 
L 553.5 89.507637 
L 554.768182 89.062936 
L 556.036364 92.06628 
L 556.670455 98.93659 
L 557.304545 99.442518 
L 557.938636 96.500401 
L 558.572727 96.004141 
L 559.840909 95.446653 
L 560.475 94.889165 
L 561.109091 95.308087 
L 562.377273 95.720563 
L 563.011364 96.13304 
L 563.645455 96.336055 
L 564.913636 95.868797 
L 565.547727 95.401538 
L 566.181818 95.146963 
L 567.45 95.733453 
L 568.718182 99.542415 
L 569.986364 89.636536 
L 571.254545 86.443066 
L 572.522727 76.559744 
L 573.790909 80.378374 
L 575.059091 76.653196 
L 576.327273 79.95623 
L 577.595455 82.917682 
L 578.863636 92.984684 
L 580.131818 102.030163 
L 581.4 104.988393 
L 582.668182 101.511345 
L 583.936364 98.926923 
L 585.204545 95.485323 
L 586.472727 98.446774 
L 587.740909 95.001952 
L 588.375 95.430541 
L 589.009091 89.439965 
L 590.277273 83.362383 
L 591.545455 79.833776 
L 592.813636 82.78556 
L 593.447727 88.798693 
L 594.081818 89.224059 
L 595.35 89.597866 
L 599.154545 98.485444 
L 600.422727 99.278172 
L 601.690909 99.57464 
L 605.495455 89.404518 
L 606.763636 86.694419 
L 608.031818 89.552752 
L 608.665909 89.079048 
L 609.3 95.166298 
L 609.934091 98.640123 
L 610.568182 99.068712 
L 611.836364 92.962127 
L 613.104545 89.44641 
L 615.640909 82.8629 
L 616.275 76.840099 
L 616.909091 76.881991 
L 618.177273 76.698311 
L 619.445455 79.688765 
L 620.713636 76.301946 
L 621.347727 76.482405 
L 621.981818 76.843322 
L 623.25 76.324504 
L 624.518182 79.247286 
L 625.786364 75.776684 
L 627.054545 76.585524 
L 628.322727 82.601879 
L 629.590909 94.589475 
L 630.225 97.989183 
L 630.859091 98.682015 
L 632.127273 92.65277 
L 633.395455 89.44641 
L 634.663636 92.485201 
L 635.931818 89.033934 
L 637.2 76.353506 
L 638.468182 76.720868 
L 639.736364 80.201138 
L 641.004545 76.740203 
L 642.272727 79.717767 
L 643.540909 76.579079 
L 644.809091 79.546976 
L 646.077273 76.604859 
L 646.711364 76.666086 
L 647.345455 77.068895 
L 648.613636 83.38494 
L 649.881818 92.298298 
L 651.15 95.814015 
L 652.418182 92.565763 
L 653.686364 89.920113 
L 654.954545 85.853354 
L 657.490909 91.521682 
L 658.759091 95.349979 
L 659.393182 95.74312 
L 660.027273 89.752545 
L 660.661364 86.778203 
L 661.295455 87.055336 
L 662.563636 93.026576 
L 663.831818 95.962248 
L 664.465909 95.646446 
L 665.1 89.591421 
L 666.368182 83.349493 
L 667.002273 77.107564 
L 667.636364 76.649973 
L 668.904545 76.379286 
L 670.172727 79.563088 
L 671.440909 76.646751 
L 675.245455 85.869466 
L 676.513636 89.69454 
L 677.781818 86.720199 
L 679.05 89.678428 
L 679.684091 89.227282 
L 680.318182 89.156388 
L 681.586364 89.568864 
L 682.854545 86.80076 
L 684.122727 89.742877 
L 684.756818 89.272397 
L 685.390909 88.982374 
L 686.659091 82.959574 
L 687.293182 76.936773 
L 687.927273 76.48885 
L 689.195455 76.028036 
L 690.463636 79.182837 
L 691.731818 76.559744 
L 692.365909 76.972221 
L 693 76.343839 
L 694.268182 82.298967 
L 694.902273 88.254095 
L 695.536364 88.631125 
L 696.804545 89.050046 
L 697.438636 89.468967 
L 698.072727 88.995264 
L 699.340909 88.544118 
L 700.609091 85.083183 
L 701.877273 82.514873 
L 702.511364 76.50174 
L 703.145455 76.891659 
L 704.413636 76.43729 
L 705.681818 79.39552 
L 706.95 75.960364 
L 708.218182 79.769326 
L 712.022727 88.5989 
L 713.290909 89.439965 
L 714.559091 82.559987 
L 715.827273 79.59209 
L 717.095455 82.543875 
L 717.729545 89.359403 
L 718.363636 89.230504 
L 719.631818 83.194814 
L 720.9 79.737102 
L 723.436364 85.711565 
L 724.704545 83.08525 
L 725.972727 79.633983 
L 728.509091 85.689008 
L 729.777273 89.494747 
L 731.045455 86.069259 
L 732.313636 88.876032 
L 733.581818 85.40543 
L 734.85 82.756558 
L 735.484091 76.733758 
L 736.118182 76.285834 
L 737.386364 82.286077 
L 738.020455 88.28632 
L 738.654545 88.708464 
L 739.922727 89.098383 
L 741.190909 89.781547 
L 742.459091 89.333623 
L 743.727273 88.499003 
L 744.995455 82.489093 
L 746.263636 79.869223 
L 747.531818 82.872567 
L 748.8 92.253183 
L 749.434091 98.243759 
L 750.068182 98.669125 
L 750.702273 95.688338 
L 751.336364 89.665538 
L 752.604545 89.178945 
L 753.238636 88.692352 
L 753.872727 88.63757 
L 755.140909 82.608324 
L 755.775 76.579079 
L 756.409091 76.569412 
L 757.677273 82.55032 
L 758.945455 91.943826 
L 760.213636 94.9085 
L 761.481818 92.34019 
L 762.115909 86.359282 
L 762.75 86.755646 
L 764.018182 92.691439 
L 765.286364 95.633556 
L 766.554545 92.259628 
L 767.822727 89.633313 
L 769.090909 86.607412 
L 770.359091 89.501192 
L 771.627273 86.075704 
L 772.895455 89.494747 
L 776.7 98.495112 
L 779.236364 105.903575 
L 780.504545 108.842469 
L 781.138636 108.371988 
L 781.772727 108.429993 
L 783.040909 102.371745 
L 783.675 96.313498 
L 784.309091 95.601332 
L 785.577273 101.598352 
L 786.211364 107.595373 
L 786.845455 107.982069 
L 788.113636 101.939934 
L 788.747727 95.897799 
L 789.381818 95.449875 
L 791.284091 95.327421 
L 791.918182 96.155597 
L 793.820455 96.149152 
L 794.454545 89.675206 
L 796.356818 89.642981 
L 796.990909 95.643224 
L 798.259091 95.630334 
L 799.527273 92.591543 
L 800.795455 82.975686 
L 803.331818 76.044149 
L 804.6 79.537308 
L 805.868182 76.521075 
L 807.136364 79.498639 
L 808.404545 76.034481 
L 809.038636 75.950697 
L 809.672727 76.350284 
L 810.940909 83.207704 
L 812.209091 92.668882 
L 812.843182 98.68846 
L 813.477273 98.211534 
L 814.745455 92.146842 
L 816.013636 83.043358 
L 817.281818 80.24303 
L 821.086364 89.340068 
L 822.354545 86.436621 
L 823.622727 89.44641 
L 824.256818 89.001709 
L 824.890909 88.830918 
L 826.159091 82.788783 
L 827.427273 79.31818 
L 828.695455 82.27641 
L 829.963636 91.921269 
L 830.597727 98.994595 
L 831.231818 99.426406 
L 832.5 92.855785 
L 833.768182 83.343048 
L 835.036364 79.849888 
L 836.304545 76.685421 
L 837.572727 79.859556 
L 838.840909 76.946441 
L 840.109091 79.882113 
L 841.377273 76.417955 
L 842.645455 79.68232 
L 843.913636 76.833654 
L 845.181818 79.782216 
L 846.45 76.311614 
L 847.084091 76.089263 
L 847.718182 76.521075 
L 848.986364 76.714423 
L 850.254545 79.691987 
L 851.522727 76.18916 
L 852.790909 79.35685 
L 854.059091 75.892693 
L 855.327273 79.389075 
L 856.595455 75.934585 
L 857.863636 79.727434 
L 859.131818 76.604859 
L 860.4 79.575978 
L 861.668182 76.102153 
L 862.302273 75.61556 
L 862.936364 76.031259 
L 864.204545 76.430845 
L 864.838636 76.830432 
L 865.472727 76.343839 
L 866.740909 75.905582 
L 867.375 75.467326 
L 868.009091 76.086041 
L 869.277273 76.504962 
L 869.911364 76.923884 
L 870.545455 76.266499 
L 871.813636 75.973254 
L 873.081818 79.099052 
L 874.35 76.47596 
L 875.618182 80.114131 
L 878.154545 73.015025 
L 879.422727 69.57987 
L 880.690909 66.96 
L 884.495455 75.963587 
L 885.763636 79.801551 
L 889.568182 69.647542 
L 890.836364 67.079231 
L 892.104545 69.81511 
L 895.909091 80.152801 
L 897.177273 77.065672 
L 898.445455 79.759659 
L 899.713636 76.276167 
L 900.981818 79.237619 
L 902.25 76.611304 
L 903.518182 79.575978 
L 904.786364 76.48885 
L 905.420455 76.417955 
L 906.054545 70.530499 
L 907.322727 70.549834 
L 908.590909 73.124589 
L 909.859091 76.385731 
L 910.493182 76.398621 
L 911.127273 76.798207 
L 912.395455 76.743425 
L 913.663636 79.279511 
L 914.931818 76.411511 
L 915.565909 76.540409 
L 916.2 76.930329 
L 917.468182 76.76276 
L 918.736364 79.843443 
L 920.004545 76.340616 
L 921.272727 79.295623 
L 922.540909 75.976477 
L 923.809091 79.840221 
L 926.345455 85.737345 
L 927.613636 82.234518 
L 928.881818 79.63076 
L 930.15 76.20205 
L 930.784091 75.776684 
L 931.418182 75.702567 
L 932.686364 82.521318 
L 933.954545 92.801003 
L 933.954545 92.801003 
" clip-path="url(#pdaa86b713a)" style="fill: none; stroke: #1f77b4; stroke-width: 1.5; stroke-linecap: square"/>
   </g>
   <g id="patch_7">
    <path d="M 135 384.48 
L 135 51.84 
" style="fill: none; stroke: #000000; stroke-width: 0.8; stroke-linejoin: miter; stroke-linecap: square"/>
   </g>
   <g id="patch_8">
    <path d="M 972 384.48 
L 972 51.84 
" style="fill: none; stroke: #000000; stroke-width: 0.8; stroke-linejoin: miter; stroke-linecap: square"/>
   </g>
   <g id="patch_9">
    <path d="M 135 384.48 
L 972 384.48 
" style="fill: none; stroke: #000000; stroke-width: 0.8; stroke-linejoin: miter; stroke-linecap: square"/>
   </g>
   <g id="patch_10">
    <path d="M 135 51.84 
L 972 51.84 
" style="fill: none; stroke: #000000; stroke-width: 0.8; stroke-linejoin: miter; stroke-linecap: square"/>
   </g>
   <g id="text_23">
    <!-- ./tcp/tp9_wave -->
    <g transform="translate(511.5 45.84) scale(0.12 -0.12)">
     <defs>
      <path id="Times New Roman-2e" d="M 800 25
Q 650 25 537 125 
Q 425 225 425 400 
Q 425 575 537 675 
Q 650 775 800 775 
Q 950 775 1062 662 
Q 1175 550 1175 400 
Q 1175 225 1062 125 
Q 950 25 800 25 
z
" transform="scale(0.015625)"/>
      <path id="Times New Roman-2f" d="M 400 -475
L 225 -375 
L 2775 4975 
L 2950 4875 
L 400 -475 
z
" transform="scale(0.015625)"/>
      <path id="Times New Roman-63" d="M 2150 2225
Q 2150 2300 2175 2325 
Q 2175 2350 2200 2425 
Q 2225 2525 2100 2662 
Q 1975 2800 1675 2800 
Q 1300 2800 1037 2437 
Q 775 2075 775 1475 
Q 775 925 1000 587 
Q 1225 250 1750 250 
Q 2100 250 2337 475 
Q 2575 700 2675 1000 
L 2800 950 
Q 2700 575 2425 312 
Q 2150 50 1675 50 
Q 1075 50 725 425 
Q 375 800 375 1500 
Q 375 2125 750 2537 
Q 1125 2950 1725 2950 
Q 2150 2950 2387 2725 
Q 2625 2500 2625 2275 
Q 2625 2125 2562 2062 
Q 2500 2000 2375 2000 
Q 2275 2000 2212 2062 
Q 2150 2125 2150 2225 
z
" transform="scale(0.015625)"/>
      <path id="Times New Roman-39" d="M 700 3050
Q 700 2500 912 2212 
Q 1125 1925 1450 1925 
Q 1825 1925 2100 2275 
Q 2375 2625 2375 2925 
Q 2375 3525 2175 3887 
Q 1975 4250 1525 4250 
Q 1100 4250 900 3912 
Q 700 3575 700 3050 
z
M 1375 1700 
Q 875 1700 575 2012 
Q 275 2325 275 3025 
Q 275 3625 600 4025 
Q 925 4425 1525 4425 
Q 2150 4425 2500 3925 
Q 2850 3425 2850 2475 
Q 2850 1425 2437 737 
Q 2025 50 1300 50 
Q 975 50 737 200 
Q 500 350 500 600 
Q 500 700 562 800 
Q 625 900 775 900 
Q 925 900 975 787 
Q 1025 675 1025 525 
Q 1025 425 1050 362 
Q 1075 300 1100 275 
Q 1125 250 1187 237 
Q 1250 225 1325 225 
Q 1775 225 2050 725 
Q 2325 1225 2375 2400 
Q 2250 2100 2000 1900 
Q 1750 1700 1375 1700 
z
" transform="scale(0.015625)"/>
      <path id="Times New Roman-5f" d="M 0 -875
L 0 -725 
L 3175 -725 
L 3175 -875 
L 0 -875 
z
" transform="scale(0.015625)"/>
      <path id="Times New Roman-77" d="M 2325 2900
L 3175 2900 
L 3175 2750 
L 3075 2750 
Q 2975 2750 2900 2675 
Q 2825 2600 2775 2425 
L 2175 75 
L 2025 75 
L 1575 1975 
L 1100 75 
L 950 75 
L 375 2375 
Q 350 2550 275 2650 
Q 200 2750 125 2750 
L 25 2750 
L 25 2900 
L 925 2900 
L 925 2750 
L 825 2750 
Q 725 2750 700 2662 
Q 675 2575 700 2425 
L 1075 800 
L 1125 800 
L 1500 2300 
Q 1475 2525 1400 2637 
Q 1325 2750 1225 2750 
L 1150 2750 
L 1150 2900 
L 2000 2900 
L 2000 2750 
L 1925 2750 
Q 1825 2750 1800 2662 
Q 1775 2575 1800 2425 
L 2175 800 
L 2200 800 
L 2625 2550 
Q 2650 2650 2600 2700 
Q 2550 2750 2450 2750 
L 2325 2750 
L 2325 2900 
z
M 1725 2750 
L 1725 2750 
z
M 625 2750 
L 625 2750 
z
M 275 2750 
L 275 2750 
z
M 2875 2750 
L 2875 2750 
z
M 2675 2750 
L 2675 2750 
z
" transform="scale(0.015625)"/>
      <path id="Times New Roman-76" d="M 1625 75
L 1475 75 
L 625 2525 
Q 600 2625 525 2687 
Q 450 2750 350 2750 
L 225 2750 
L 225 2900 
L 1300 2900 
L 1300 2750 
L 1200 2750 
Q 1050 2750 1025 2700 
Q 1000 2650 1000 2600 
Q 1000 2500 1025 2425 
L 1625 675 
L 1675 675 
L 2275 2400 
Q 2325 2525 2325 2575 
Q 2325 2600 2275 2675 
Q 2225 2750 2075 2750 
L 2025 2750 
L 2025 2900 
L 2925 2900 
L 2925 2750 
L 2875 2750 
Q 2725 2750 2637 2662 
Q 2550 2575 2475 2400 
L 1625 75 
z
M 2600 2750 
L 2600 2750 
z
M 2400 2750 
L 2400 2750 
z
M 925 2750 
L 925 2750 
z
M 550 2750 
L 550 2750 
z
" transform="scale(0.015625)"/>
     </defs>
     <use xlink:href="#Times New Roman-2e"/>
     <use xlink:href="#Times New Roman-2f" x="50"/>
     <use xlink:href="#Times New Roman-74" x="100"/>
     <use xlink:href="#Times New Roman-63" x="150"/>
     <use xlink:href="#Times New Roman-70" x="200"/>
     <use xlink:href="#Times New Roman-2f" x="250"/>
     <use xlink:href="#Times New Roman-74" x="300"/>
     <use xlink:href="#Times New Roman-70" x="350"/>
     <use xlink:href="#Times New Roman-39" x="400"/>
     <use xlink:href="#Times New Roman-5f" x="450"/>
     <use xlink:href="#Times New Roman-77" x="500"/>
     <use xlink:href="#Times New Roman-61" x="550"/>
     <use xlink:href="#Times New Roman-76" x="600"/>
     <use xlink:href="#Times New Roman-65" x="650"/>
    </g>
   </g>
   <g id="legend_1">
    <g id="patch_11">
     <path d="M 142 73.2775 
L 204 73.2775 
Q 206 73.2775 206 71.2775 
L 206 58.84 
Q 206 56.84 204 56.84 
L 142 56.84 
Q 140 56.84 140 58.84 
L 140 71.2775 
Q 140 73.2775 142 73.2775 
z
" style="fill: #ffffff; opacity: 0.8; stroke: #cccccc; stroke-linejoin: miter"/>
    </g>
    <g id="line2d_31">
     <path d="M 144 64.488437 
L 154 64.488437 
L 164 64.488437 
" style="fill: none; stroke: #1f77b4; stroke-width: 1.5; stroke-linecap: square"/>
    </g>
    <g id="text_24">
     <!-- buffer -->
     <g transform="translate(172 67.988437) scale(0.1 -0.1)">
      <use xlink:href="#Times New Roman-62"/>
      <use xlink:href="#Times New Roman-75" x="50"/>
      <use xlink:href="#Times New Roman-66" x="100"/>
      <use xlink:href="#Times New Roman-66" x="150"/>
      <use xlink:href="#Times New Roman-65" x="200"/>
      <use xlink:href="#Times New Roman-72" x="250"/>
     </g>
    </g>
   </g>
  </g>
 </g>
 <defs>
  <clipPath id="pdaa86b713a">
   <rect x="135" y="51.84" width="837" height="332.64"/>
  </clipPath>
 </defs>
</svg>
