<?xml version="1.0" encoding="utf-8" standalone="no"?>
<!DOCTYPE svg PUBLIC "-//W3C//DTD SVG 1.1//EN"
  "http://www.w3.org/Graphics/SVG/1.1/DTD/svg11.dtd">
<svg xmlns:xlink="http://www.w3.org/1999/xlink" width="1080pt" height="432pt" viewBox="0 0 1080 432" xmlns="http://www.w3.org/2000/svg" version="1.1">
 <metadata>
  <rdf:RDF xmlns:dc="http://purl.org/dc/elements/1.1/" xmlns:cc="http://creativecommons.org/ns#" xmlns:rdf="http://www.w3.org/1999/02/22-rdf-syntax-ns#">
   <cc:Work>
    <dc:type rdf:resource="http://purl.org/dc/dcmitype/StillImage"/>
    <dc:date>2024-04-12T06:13:24.793151</dc:date>
    <dc:format>image/svg+xml</dc:format>
    <dc:creator>
     <cc:Agent>
      <dc:title>Matplotlib v3.8.3, https://matplotlib.org/</dc:title>
     </cc:Agent>
    </dc:creator>
   </cc:Work>
  </rdf:RDF>
 </metadata>
 <defs>
  <style type="text/css">*{stroke-linejoin: round; stroke-linecap: butt}</style>
 </defs>
 <g id="figure_1">
  <g id="patch_1">
   <path d="M 0 432 
L 1080 432 
L 1080 0 
L 0 0 
z
" style="fill: #ffffff"/>
  </g>
  <g id="axes_1">
   <g id="patch_2">
    <path d="M 135 384.48 
L 972 384.48 
L 972 51.84 
L 135 51.84 
z
" style="fill: #ffffff"/>
   </g>
   <g id="matplotlib.axis_1">
    <g id="xtick_1">
     <g id="line2d_1">
      <defs>
       <path id="md7f633a3f1" d="M 0 0 
L 0 3.5 
" style="stroke: #000000; stroke-width: 0.8"/>
      </defs>
      <g>
       <use xlink:href="#md7f633a3f1" x="173.045455" y="384.48" style="stroke: #000000; stroke-width: 0.8"/>
      </g>
     </g>
     <g id="text_1">
      <!-- 0 -->
      <g transform="translate(170.545455 398.628438) scale(0.1 -0.1)">
       <defs>
        <path id="Times New Roman-30" d="M 1600 4225
Q 1250 4225 1012 3687 
Q 775 3150 775 2250 
Q 775 1300 1012 775 
Q 1250 250 1600 250 
Q 1975 250 2187 775 
Q 2400 1300 2400 2250 
Q 2400 3150 2200 3687 
Q 2000 4225 1600 4225 
z
M 1600 50 
Q 1050 50 675 625 
Q 300 1200 300 2250 
Q 300 3225 662 3825 
Q 1025 4425 1600 4425 
Q 2150 4425 2512 3850 
Q 2875 3275 2875 2250 
Q 2875 1225 2512 637 
Q 2150 50 1600 50 
z
" transform="scale(0.015625)"/>
       </defs>
       <use xlink:href="#Times New Roman-30"/>
      </g>
     </g>
    </g>
    <g id="xtick_2">
     <g id="line2d_2">
      <g>
       <use xlink:href="#md7f633a3f1" x="299.863636" y="384.48" style="stroke: #000000; stroke-width: 0.8"/>
      </g>
     </g>
     <g id="text_2">
      <!-- 100 -->
      <g transform="translate(292.363636 398.628438) scale(0.1 -0.1)">
       <defs>
        <path id="Times New Roman-31" d="M 1825 4450
L 1825 650 
Q 1825 450 1950 350 
Q 2075 250 2300 250 
L 2550 250 
L 2550 100 
L 725 100 
L 725 250 
L 950 250 
Q 1200 250 1312 350 
Q 1425 450 1425 650 
L 1425 3675 
Q 1425 3775 1362 3837 
Q 1300 3900 1175 3900 
L 725 3900 
L 725 4050 
L 950 4050 
Q 1250 4050 1437 4150 
Q 1625 4250 1725 4450 
L 1825 4450 
z
" transform="scale(0.015625)"/>
       </defs>
       <use xlink:href="#Times New Roman-31"/>
       <use xlink:href="#Times New Roman-30" x="50"/>
       <use xlink:href="#Times New Roman-30" x="100"/>
      </g>
     </g>
    </g>
    <g id="xtick_3">
     <g id="line2d_3">
      <g>
       <use xlink:href="#md7f633a3f1" x="426.681818" y="384.48" style="stroke: #000000; stroke-width: 0.8"/>
      </g>
     </g>
     <g id="text_3">
      <!-- 200 -->
      <g transform="translate(419.181818 398.628438) scale(0.1 -0.1)">
       <defs>
        <path id="Times New Roman-32" d="M 2325 3325
Q 2325 3775 2125 4012 
Q 1925 4250 1525 4250 
Q 1225 4250 1012 4087 
Q 800 3925 800 3675 
Q 800 3525 900 3425 
Q 975 3325 975 3225 
Q 975 3100 912 3037 
Q 850 2975 725 2975 
Q 575 2975 487 3062 
Q 400 3150 400 3350 
Q 400 3875 775 4150 
Q 1150 4425 1575 4425 
Q 2175 4425 2462 4125 
Q 2750 3825 2750 3375 
Q 2750 3075 2612 2775 
Q 2475 2475 2175 2200 
Q 1450 1500 1062 1062 
Q 675 625 600 475 
L 2075 475 
Q 2300 475 2450 650 
Q 2600 825 2650 1175 
L 2800 1175 
L 2650 100 
L 325 100 
L 325 425 
Q 450 650 737 1000 
Q 1025 1350 1500 1825 
Q 1925 2250 2125 2625 
Q 2325 3000 2325 3325 
z
" transform="scale(0.015625)"/>
       </defs>
       <use xlink:href="#Times New Roman-32"/>
       <use xlink:href="#Times New Roman-30" x="50"/>
       <use xlink:href="#Times New Roman-30" x="100"/>
      </g>
     </g>
    </g>
    <g id="xtick_4">
     <g id="line2d_4">
      <g>
       <use xlink:href="#md7f633a3f1" x="553.5" y="384.48" style="stroke: #000000; stroke-width: 0.8"/>
      </g>
     </g>
     <g id="text_4">
      <!-- 300 -->
      <g transform="translate(546 398.628438) scale(0.1 -0.1)">
       <defs>
        <path id="Times New Roman-33" d="M 2800 1250
Q 2800 775 2450 412 
Q 2100 50 1475 50 
Q 1025 50 700 300 
Q 375 550 375 875 
Q 375 1025 475 1137 
Q 575 1250 675 1250 
Q 825 1250 887 1137 
Q 950 1025 950 950 
Q 950 825 900 750 
Q 850 650 850 575 
Q 850 425 1037 325 
Q 1225 225 1450 225 
Q 1900 225 2125 487 
Q 2350 750 2350 1300 
Q 2350 1750 2112 2025 
Q 1875 2300 1225 2300 
L 1225 2475 
Q 1725 2475 1962 2712 
Q 2200 2950 2200 3375 
Q 2200 3725 2012 3987 
Q 1825 4250 1425 4250 
Q 1250 4250 1050 4162 
Q 850 4075 850 3875 
Q 850 3675 900 3625 
Q 950 3575 950 3500 
Q 950 3375 900 3300 
Q 850 3225 725 3225 
Q 625 3225 537 3300 
Q 450 3375 450 3575 
Q 450 3950 775 4187 
Q 1100 4425 1525 4425 
Q 2025 4425 2325 4112 
Q 2625 3800 2625 3450 
Q 2625 3075 2437 2812 
Q 2250 2550 1850 2425 
Q 2400 2225 2600 1900 
Q 2800 1575 2800 1250 
z
" transform="scale(0.015625)"/>
       </defs>
       <use xlink:href="#Times New Roman-33"/>
       <use xlink:href="#Times New Roman-30" x="50"/>
       <use xlink:href="#Times New Roman-30" x="100"/>
      </g>
     </g>
    </g>
    <g id="xtick_5">
     <g id="line2d_5">
      <g>
       <use xlink:href="#md7f633a3f1" x="680.318182" y="384.48" style="stroke: #000000; stroke-width: 0.8"/>
      </g>
     </g>
     <g id="text_5">
      <!-- 400 -->
      <g transform="translate(672.818182 398.628438) scale(0.1 -0.1)">
       <defs>
        <path id="Times New Roman-34" d="M 2300 575
Q 2300 400 2400 325 
Q 2500 250 2675 250 
L 2900 250 
L 2900 100 
L 1250 100 
L 1250 250 
L 1525 250 
Q 1725 250 1812 325 
Q 1900 400 1900 575 
L 1900 1400 
L 225 1400 
L 225 1525 
L 2050 4425 
L 2300 4425 
L 2300 1550 
L 2975 1550 
L 2975 1400 
L 2300 1400 
L 2300 575 
z
M 1875 3800 
L 450 1550 
L 1900 1550 
L 1900 3800 
L 1875 3800 
z
" transform="scale(0.015625)"/>
       </defs>
       <use xlink:href="#Times New Roman-34"/>
       <use xlink:href="#Times New Roman-30" x="50"/>
       <use xlink:href="#Times New Roman-30" x="100"/>
      </g>
     </g>
    </g>
    <g id="xtick_6">
     <g id="line2d_6">
      <g>
       <use xlink:href="#md7f633a3f1" x="807.136364" y="384.48" style="stroke: #000000; stroke-width: 0.8"/>
      </g>
     </g>
     <g id="text_6">
      <!-- 500 -->
      <g transform="translate(799.636364 398.628438) scale(0.1 -0.1)">
       <defs>
        <path id="Times New Roman-35" d="M 1725 2850
Q 2200 2850 2500 2487 
Q 2800 2125 2800 1525 
Q 2800 850 2487 450 
Q 2175 50 1525 50 
Q 1075 50 725 312 
Q 375 575 375 950 
Q 375 1100 462 1212 
Q 550 1325 700 1325 
Q 850 1325 900 1225 
Q 950 1125 950 1050 
Q 950 900 875 825 
Q 800 725 800 625 
Q 800 425 1037 325 
Q 1275 225 1550 225 
Q 1950 225 2162 550 
Q 2375 875 2375 1475 
Q 2375 1975 2187 2287 
Q 2000 2600 1625 2600 
Q 1350 2600 1150 2500 
Q 950 2400 775 2075 
L 550 2100 
L 675 4375 
L 2725 4375 
L 2650 4000 
L 850 4000 
L 750 2350 
Q 1000 2700 1237 2775 
Q 1475 2850 1725 2850 
z
" transform="scale(0.015625)"/>
       </defs>
       <use xlink:href="#Times New Roman-35"/>
       <use xlink:href="#Times New Roman-30" x="50"/>
       <use xlink:href="#Times New Roman-30" x="100"/>
      </g>
     </g>
    </g>
    <g id="xtick_7">
     <g id="line2d_7">
      <g>
       <use xlink:href="#md7f633a3f1" x="933.954545" y="384.48" style="stroke: #000000; stroke-width: 0.8"/>
      </g>
     </g>
     <g id="text_7">
      <!-- 600 -->
      <g transform="translate(926.454545 398.628438) scale(0.1 -0.1)">
       <defs>
        <path id="Times New Roman-36" d="M 775 1800
Q 775 1050 1037 637 
Q 1300 225 1675 225 
Q 2050 225 2250 500 
Q 2450 775 2450 1525 
Q 2450 2025 2237 2300 
Q 2025 2575 1725 2575 
Q 1450 2575 1212 2412 
Q 975 2250 775 1800 
z
M 1750 2825 
Q 2350 2825 2612 2425 
Q 2875 2025 2875 1525 
Q 2875 775 2512 412 
Q 2150 50 1675 50 
Q 1000 50 650 562 
Q 300 1075 300 2050 
Q 300 3200 725 3812 
Q 1150 4425 1875 4425 
Q 2225 4425 2437 4225 
Q 2650 4025 2650 3875 
Q 2650 3725 2587 3650 
Q 2525 3575 2375 3575 
Q 2250 3575 2187 3637 
Q 2125 3700 2125 3825 
Q 2125 3875 2150 3925 
Q 2150 3975 2150 4025 
Q 2150 4125 2075 4187 
Q 2000 4250 1800 4250 
Q 1375 4250 1075 3862 
Q 775 3475 775 2175 
Q 925 2500 1187 2662 
Q 1450 2825 1750 2825 
z
" transform="scale(0.015625)"/>
       </defs>
       <use xlink:href="#Times New Roman-36"/>
       <use xlink:href="#Times New Roman-30" x="50"/>
       <use xlink:href="#Times New Roman-30" x="100"/>
      </g>
     </g>
    </g>
   </g>
   <g id="matplotlib.axis_2">
    <g id="ytick_1">
     <g id="line2d_8">
      <defs>
       <path id="m61a06b4d01" d="M 0 0 
L -3.5 0 
" style="stroke: #000000; stroke-width: 0.8"/>
      </defs>
      <g>
       <use xlink:href="#m61a06b4d01" x="135" y="370.181704" style="stroke: #000000; stroke-width: 0.8"/>
      </g>
     </g>
     <g id="text_8">
      <!-- 0 -->
      <g transform="translate(123 373.755923) scale(0.1 -0.1)">
       <use xlink:href="#Times New Roman-30"/>
      </g>
     </g>
    </g>
    <g id="ytick_2">
     <g id="line2d_9">
      <g>
       <use xlink:href="#m61a06b4d01" x="135" y="309.173717" style="stroke: #000000; stroke-width: 0.8"/>
      </g>
     </g>
     <g id="text_9">
      <!-- 1000 -->
      <g transform="translate(108 312.747936) scale(0.1 -0.1)">
       <use xlink:href="#Times New Roman-31"/>
       <use xlink:href="#Times New Roman-30" x="50"/>
       <use xlink:href="#Times New Roman-30" x="100"/>
       <use xlink:href="#Times New Roman-30" x="150"/>
      </g>
     </g>
    </g>
    <g id="ytick_3">
     <g id="line2d_10">
      <g>
       <use xlink:href="#m61a06b4d01" x="135" y="248.165729" style="stroke: #000000; stroke-width: 0.8"/>
      </g>
     </g>
     <g id="text_10">
      <!-- 2000 -->
      <g transform="translate(108 251.739948) scale(0.1 -0.1)">
       <use xlink:href="#Times New Roman-32"/>
       <use xlink:href="#Times New Roman-30" x="50"/>
       <use xlink:href="#Times New Roman-30" x="100"/>
       <use xlink:href="#Times New Roman-30" x="150"/>
      </g>
     </g>
    </g>
    <g id="ytick_4">
     <g id="line2d_11">
      <g>
       <use xlink:href="#m61a06b4d01" x="135" y="187.157742" style="stroke: #000000; stroke-width: 0.8"/>
      </g>
     </g>
     <g id="text_11">
      <!-- 3000 -->
      <g transform="translate(108 190.731961) scale(0.1 -0.1)">
       <use xlink:href="#Times New Roman-33"/>
       <use xlink:href="#Times New Roman-30" x="50"/>
       <use xlink:href="#Times New Roman-30" x="100"/>
       <use xlink:href="#Times New Roman-30" x="150"/>
      </g>
     </g>
    </g>
    <g id="ytick_5">
     <g id="line2d_12">
      <g>
       <use xlink:href="#m61a06b4d01" x="135" y="126.149754" style="stroke: #000000; stroke-width: 0.8"/>
      </g>
     </g>
     <g id="text_12">
      <!-- 4000 -->
      <g transform="translate(108 129.723973) scale(0.1 -0.1)">
       <use xlink:href="#Times New Roman-34"/>
       <use xlink:href="#Times New Roman-30" x="50"/>
       <use xlink:href="#Times New Roman-30" x="100"/>
       <use xlink:href="#Times New Roman-30" x="150"/>
      </g>
     </g>
    </g>
    <g id="ytick_6">
     <g id="line2d_13">
      <g>
       <use xlink:href="#m61a06b4d01" x="135" y="65.141767" style="stroke: #000000; stroke-width: 0.8"/>
      </g>
     </g>
     <g id="text_13">
      <!-- 5000 -->
      <g transform="translate(108 68.715985) scale(0.1 -0.1)">
       <use xlink:href="#Times New Roman-35"/>
       <use xlink:href="#Times New Roman-30" x="50"/>
       <use xlink:href="#Times New Roman-30" x="100"/>
       <use xlink:href="#Times New Roman-30" x="150"/>
      </g>
     </g>
    </g>
    <g id="text_14">
     <!-- Bitrate (kbps) -->
     <g transform="translate(102.710938 253.16) rotate(-90) scale(0.1 -0.1)">
      <defs>
       <path id="Times New Roman-42" d="M 100 100
L 100 250 
L 300 250 
Q 425 250 475 300 
Q 525 350 525 450 
L 525 4025 
Q 525 4125 475 4175 
Q 425 4225 300 4225 
L 150 4225 
L 150 4375 
L 1600 4375 
Q 2200 4375 2487 4137 
Q 2775 3900 2775 3400 
Q 2775 3050 2625 2825 
Q 2475 2600 2000 2425 
Q 2575 2250 2775 1925 
Q 2975 1600 2975 1200 
Q 2975 700 2625 400 
Q 2275 100 1675 100 
L 100 100 
z
M 1600 250 
Q 2025 250 2262 512 
Q 2500 775 2500 1250 
Q 2500 1800 2250 2062 
Q 2000 2325 1500 2325 
L 925 2325 
L 925 450 
Q 925 350 987 300 
Q 1050 250 1150 250 
L 1600 250 
z
M 2350 3400 
Q 2350 3850 2100 4037 
Q 1850 4225 1450 4225 
L 1150 4225 
Q 1050 4225 987 4175 
Q 925 4125 925 4025 
L 925 2475 
L 1575 2475 
Q 1850 2475 2100 2700 
Q 2350 2925 2350 3400 
z
" transform="scale(0.015625)"/>
       <path id="Times New Roman-69" d="M 1425 2525
Q 1425 2625 1375 2687 
Q 1325 2750 1200 2750 
L 675 2750 
L 675 2900 
L 925 2900 
Q 1150 2900 1350 2937 
Q 1550 2975 1725 3075 
L 1775 3075 
L 1775 450 
Q 1775 350 1837 300 
Q 1900 250 2000 250 
L 2525 250 
L 2525 100 
L 675 100 
L 675 250 
L 1200 250 
Q 1325 250 1375 300 
Q 1425 350 1425 450 
L 1425 2525 
z
M 1725 3025 
L 1725 3025 
z
M 1625 4425 
Q 1750 4425 1850 4337 
Q 1950 4250 1950 4125 
Q 1950 4000 1850 3900 
Q 1750 3800 1625 3800 
Q 1500 3800 1400 3900 
Q 1300 4000 1300 4125 
Q 1300 4250 1400 4337 
Q 1500 4425 1625 4425 
z
" transform="scale(0.015625)"/>
       <path id="Times New Roman-74" d="M 1500 900
Q 1500 550 1625 425 
Q 1750 300 2000 300 
Q 2250 300 2400 462 
Q 2550 625 2600 925 
L 2725 875 
Q 2675 525 2462 300 
Q 2250 75 1900 75 
Q 1525 75 1337 300 
Q 1150 525 1150 1000 
L 1150 2750 
L 400 2750 
L 400 2900 
L 600 2900 
Q 900 2900 1087 3087 
Q 1275 3275 1325 3675 
L 1350 3875 
L 1500 3875 
L 1500 2900 
L 2500 2900 
L 2500 2750 
L 1500 2750 
L 1500 900 
z
" transform="scale(0.015625)"/>
       <path id="Times New Roman-72" d="M 1275 2125
Q 1525 2525 1812 2737 
Q 2100 2950 2400 2950 
Q 2650 2950 2787 2837 
Q 2925 2725 2925 2575 
Q 2925 2450 2862 2375 
Q 2800 2300 2675 2300 
Q 2550 2300 2487 2375 
Q 2425 2450 2450 2575 
Q 2450 2650 2425 2700 
Q 2400 2750 2275 2750 
Q 2075 2750 1787 2500 
Q 1500 2250 1275 1800 
L 1275 450 
Q 1275 350 1337 300 
Q 1400 250 1500 250 
L 2050 250 
L 2050 100 
L 200 100 
L 200 250 
L 700 250 
Q 825 250 875 300 
Q 925 350 925 450 
L 925 2525 
Q 925 2625 875 2687 
Q 825 2750 700 2750 
L 225 2750 
L 225 2900 
L 425 2900 
Q 600 2900 837 2937 
Q 1075 2975 1200 3025 
L 1275 3025 
L 1275 2125 
z
" transform="scale(0.015625)"/>
       <path id="Times New Roman-61" d="M 1225 75
Q 775 75 525 287 
Q 275 500 275 775 
Q 275 1225 662 1512 
Q 1050 1800 2200 1925 
L 2200 2225 
Q 2200 2475 2087 2637 
Q 1975 2800 1575 2800 
Q 1150 2800 975 2662 
Q 800 2525 850 2375 
Q 875 2325 875 2275 
Q 875 2225 837 2150 
Q 800 2075 650 2075 
Q 550 2075 487 2137 
Q 425 2200 425 2325 
Q 425 2550 750 2750 
Q 1075 2950 1550 2950 
Q 2050 2950 2300 2762 
Q 2550 2575 2550 2225 
L 2550 575 
Q 2550 375 2587 337 
Q 2625 300 2725 300 
Q 2850 300 2900 412 
Q 2950 525 2950 725 
L 3075 725 
Q 3075 375 2950 237 
Q 2825 100 2625 100 
Q 2450 100 2350 175 
Q 2250 250 2200 425 
Q 1950 250 1737 162 
Q 1525 75 1225 75 
z
M 700 850 
Q 700 625 837 437 
Q 975 250 1275 250 
Q 1500 250 1725 337 
Q 1950 425 2200 600 
L 2200 1775 
Q 1350 1675 1025 1437 
Q 700 1200 700 850 
z
" transform="scale(0.015625)"/>
       <path id="Times New Roman-65" d="M 2400 1650
Q 2425 2200 2212 2487 
Q 2000 2775 1650 2775 
Q 1275 2775 1037 2475 
Q 800 2175 800 1650 
L 2400 1650 
z
M 800 1500 
Q 800 825 1062 537 
Q 1325 250 1750 250 
Q 2075 250 2300 437 
Q 2525 625 2625 900 
L 2750 850 
Q 2675 575 2412 312 
Q 2150 50 1700 50 
Q 1125 50 762 425 
Q 400 800 400 1500 
Q 400 2125 762 2537 
Q 1125 2950 1650 2950 
Q 2125 2950 2475 2625 
Q 2825 2300 2825 1500 
L 800 1500 
z
" transform="scale(0.015625)"/>
       <path id="Times New Roman-20" d="M 0 0
Q 0 0 0 0 
z
" transform="scale(0.015625)"/>
       <path id="Times New Roman-28" d="M 2900 5025
Q 2325 4425 2037 3737 
Q 1750 3050 1750 2300 
Q 1750 1525 2037 850 
Q 2325 175 2900 -425 
L 2775 -550 
Q 2075 75 1725 787 
Q 1375 1500 1375 2300 
Q 1375 3075 1725 3787 
Q 2075 4500 2775 5150 
L 2900 5025 
z
" transform="scale(0.015625)"/>
       <path id="Times New Roman-6b" d="M 1675 1900
L 2625 425 
Q 2700 325 2762 287 
Q 2825 250 2900 250 
L 3000 250 
L 3000 100 
L 1975 100 
L 1975 250 
L 2050 250 
Q 2175 250 2225 287 
Q 2275 325 2200 425 
L 1425 1650 
L 925 1125 
L 925 450 
Q 925 350 987 300 
Q 1050 250 1150 250 
L 1275 250 
L 1275 100 
L 225 100 
L 225 250 
L 350 250 
Q 475 250 525 300 
Q 575 350 575 450 
L 575 4025 
Q 575 4125 525 4175 
Q 475 4225 350 4225 
L 200 4225 
L 200 4375 
L 425 4375 
Q 575 4375 687 4425 
Q 800 4475 875 4575 
L 925 4575 
L 925 1400 
L 1975 2525 
Q 2025 2625 2012 2687 
Q 2000 2750 1900 2750 
L 1750 2750 
L 1750 2900 
L 2800 2900 
L 2800 2750 
L 2675 2750 
Q 2600 2750 2487 2712 
Q 2375 2675 2275 2575 
L 1675 1900 
z
M 2450 2750 
L 2450 2750 
z
M 2175 2750 
L 2175 2750 
z
M 2300 250 
L 2300 250 
z
M 2750 250 
L 2750 250 
z
" transform="scale(0.015625)"/>
       <path id="Times New Roman-62" d="M 875 2325
Q 1000 2600 1275 2762 
Q 1550 2925 1800 2925 
Q 2325 2925 2587 2562 
Q 2850 2200 2850 1500 
Q 2850 800 2512 437 
Q 2175 75 1675 75 
Q 1425 75 1212 162 
Q 1000 250 850 400 
L 625 100 
L 525 100 
L 525 4025 
Q 525 4125 475 4175 
Q 425 4225 300 4225 
L 150 4225 
L 150 4375 
L 375 4375 
Q 500 4375 625 4425 
Q 750 4475 875 4575 
L 875 2325 
z
M 875 925 
Q 875 650 1062 450 
Q 1250 250 1625 250 
Q 2075 250 2262 562 
Q 2450 875 2450 1500 
Q 2450 2100 2287 2412 
Q 2125 2725 1775 2725 
Q 1475 2725 1250 2550 
Q 1025 2375 875 1925 
L 875 925 
z
" transform="scale(0.015625)"/>
       <path id="Times New Roman-70" d="M 1150 -675
L 1325 -675 
L 1325 -825 
L 175 -825 
L 175 -675 
L 325 -675 
Q 450 -675 500 -625 
Q 550 -575 550 -450 
L 550 2500 
Q 550 2600 500 2662 
Q 450 2725 325 2725 
L 175 2725 
L 175 2875 
L 400 2875 
Q 525 2875 637 2900 
Q 750 2925 850 3000 
L 900 3000 
L 900 2425 
Q 1075 2675 1287 2800 
Q 1500 2925 1750 2925 
Q 2250 2925 2575 2587 
Q 2900 2250 2900 1525 
Q 2900 825 2550 450 
Q 2200 75 1725 75 
Q 1450 75 1262 162 
Q 1075 250 900 425 
L 900 -450 
Q 900 -575 975 -625 
Q 1050 -675 1150 -675 
z
M 900 750 
Q 1025 500 1212 375 
Q 1400 250 1650 250 
Q 2000 250 2250 562 
Q 2500 875 2500 1525 
Q 2500 2125 2312 2425 
Q 2125 2725 1750 2725 
Q 1525 2725 1300 2587 
Q 1075 2450 900 2150 
L 900 750 
z
" transform="scale(0.015625)"/>
       <path id="Times New Roman-73" d="M 625 2175
Q 625 2550 912 2750 
Q 1200 2950 1600 2950 
Q 1825 2950 2025 2900 
Q 2225 2825 2300 2825 
Q 2375 2825 2425 2850 
Q 2475 2875 2550 2950 
L 2650 2125 
L 2500 2100 
Q 2400 2425 2162 2612 
Q 1925 2800 1625 2800 
Q 1300 2800 1112 2675 
Q 925 2550 925 2325 
Q 925 2125 1012 2012 
Q 1100 1900 1325 1850 
Q 1500 1775 1775 1700 
Q 2025 1600 2250 1500 
Q 2450 1400 2587 1237 
Q 2725 1075 2725 875 
Q 2725 500 2462 287 
Q 2200 75 1700 75 
Q 1375 75 1225 150 
Q 1050 200 950 200 
Q 875 200 787 162 
Q 700 125 600 75 
L 525 1000 
L 675 1025 
Q 750 625 1000 425 
Q 1250 225 1700 225 
Q 2050 225 2237 350 
Q 2425 475 2425 725 
Q 2425 900 2325 1012 
Q 2225 1125 2125 1175 
Q 1875 1275 1575 1400 
Q 1275 1500 1050 1600 
Q 825 1700 725 1850 
Q 625 2000 625 2175 
z
" transform="scale(0.015625)"/>
       <path id="Times New Roman-29" d="M 275 5025
L 400 5150 
Q 1100 4500 1450 3787 
Q 1800 3075 1800 2300 
Q 1800 1500 1450 787 
Q 1100 75 400 -550 
L 275 -425 
Q 850 175 1137 850 
Q 1425 1525 1425 2300 
Q 1425 3050 1137 3737 
Q 850 4425 275 5025 
z
" transform="scale(0.015625)"/>
      </defs>
      <use xlink:href="#Times New Roman-42"/>
      <use xlink:href="#Times New Roman-69" x="50"/>
      <use xlink:href="#Times New Roman-74" x="100"/>
      <use xlink:href="#Times New Roman-72" x="150"/>
      <use xlink:href="#Times New Roman-61" x="200"/>
      <use xlink:href="#Times New Roman-74" x="250"/>
      <use xlink:href="#Times New Roman-65" x="300"/>
      <use xlink:href="#Times New Roman-20" x="350"/>
      <use xlink:href="#Times New Roman-28" x="400"/>
      <use xlink:href="#Times New Roman-6b" x="450"/>
      <use xlink:href="#Times New Roman-62" x="500"/>
      <use xlink:href="#Times New Roman-70" x="550"/>
      <use xlink:href="#Times New Roman-73" x="600"/>
      <use xlink:href="#Times New Roman-29" x="650"/>
     </g>
    </g>
   </g>
   <g id="line2d_14">
    <path d="M 173.045455 361.51857 
L 179.386364 361.51857 
L 180.654545 330.709536 
L 192.068182 330.709536 
L 193.336364 303.499974 
L 206.018182 303.499974 
L 207.286364 254.022496 
L 230.113636 254.022496 
L 231.381818 133.104665 
L 261.184091 133.104665 
L 261.818182 254.022496 
L 283.377273 254.022496 
L 284.645455 303.499974 
L 288.45 303.499974 
L 289.718182 330.709536 
L 304.302273 330.709536 
L 304.936364 361.51857 
L 334.104545 361.51857 
L 335.372727 330.709536 
L 346.786364 330.709536 
L 348.054545 303.499974 
L 354.395455 303.499974 
L 355.663636 254.022496 
L 382.295455 254.022496 
L 383.563636 133.104665 
L 446.972727 133.104665 
L 448.240909 330.709536 
L 492.627273 330.709536 
L 493.895455 303.499974 
L 504.040909 303.499974 
L 505.309091 254.022496 
L 534.477273 254.022496 
L 535.745455 133.104665 
L 546.525 133.104665 
L 547.159091 254.022496 
L 608.031818 254.022496 
L 609.3 361.51857 
L 635.931818 361.51857 
L 637.2 330.709536 
L 647.345455 330.709536 
L 648.613636 303.499974 
L 657.490909 303.499974 
L 658.759091 254.022496 
L 696.804545 254.022496 
L 698.072727 133.104665 
L 732.947727 133.104665 
L 733.581818 254.022496 
L 746.897727 254.022496 
L 747.531818 303.499974 
L 757.043182 303.499974 
L 757.677273 361.51857 
L 790.65 361.51857 
L 791.918182 330.709536 
L 803.331818 330.709536 
L 804.6 303.499974 
L 812.209091 303.499974 
L 813.477273 254.022496 
L 836.304545 254.022496 
L 837.572727 133.104665 
L 911.761364 133.104665 
L 912.395455 361.51857 
L 933.954545 361.51857 
L 933.954545 361.51857 
" clip-path="url(#pa4ecc7898f)" style="fill: none; stroke: #ff0000; stroke-width: 1.5; stroke-linecap: square"/>
   </g>
   <g id="line2d_15">
    <path d="M 173.045455 309.639818 
L 178.118182 304.027398 
L 179.386364 301.495561 
L 180.654545 296.443611 
L 181.922727 290.552778 
L 186.995455 261.744188 
L 190.8 241.369114 
L 192.068182 228.319815 
L 194.604545 216.7868 
L 197.140909 205.629561 
L 199.677273 192.331642 
L 204.75 164.122818 
L 206.018182 151.10957 
L 208.554545 140.172025 
L 209.822727 135.406342 
L 211.090909 138.524907 
L 212.359091 148.423559 
L 213.627273 175.714173 
L 214.895455 198.274178 
L 216.163636 229.518695 
L 217.431818 240.730824 
L 218.7 254.180401 
L 219.968182 248.166022 
L 221.236364 256.552294 
L 222.504545 257.646013 
L 223.772727 273.886762 
L 225.040909 269.355739 
L 226.309091 270.565845 
L 227.577273 246.545975 
L 228.845455 228.381213 
L 230.113636 196.859541 
L 231.381818 191.997449 
L 232.65 174.903954 
L 233.918182 169.07094 
L 235.186364 143.192327 
L 236.454545 137.847377 
L 237.722727 118.58574 
L 238.990909 117.760164 
L 240.259091 113.666609 
L 241.527273 128.222236 
L 242.795455 126.934854 
L 244.063636 131.547676 
L 245.331818 123.467941 
L 246.6 123.113248 
L 247.868182 113.72599 
L 249.136364 111.859699 
L 250.404545 105.024722 
L 251.672727 102.562797 
L 252.940909 102.226196 
L 255.477273 112.71085 
L 258.013636 124.352573 
L 260.55 136.462577 
L 261.818182 147.726148 
L 264.354545 158.401993 
L 265.622727 164.031224 
L 268.159091 176.917153 
L 273.231818 206.075782 
L 280.840909 249.197854 
L 284.645455 269.330881 
L 287.181818 281.854503 
L 289.718182 293.727991 
L 292.254545 304.633193 
L 294.790909 314.420078 
L 297.327273 322.887662 
L 299.863636 330.19144 
L 301.131818 333.308347 
L 302.4 336.098836 
L 303.668182 338.541465 
L 304.302273 340.615054 
L 304.936364 342.251597 
L 306.204545 343.485195 
L 307.472727 344.409523 
L 308.740909 344.984364 
L 310.009091 345.247366 
L 311.277273 345.232398 
L 312.545455 344.97379 
L 313.813636 344.34217 
L 315.081818 344.163213 
L 316.35 343.870537 
L 317.618182 343.245425 
L 318.886364 341.394492 
L 320.154545 338.897069 
L 321.422727 335.437834 
L 325.227273 322.881024 
L 326.495455 318.749954 
L 329.031818 309.275332 
L 332.836364 293.163496 
L 334.104545 282.318066 
L 337.909091 267.031319 
L 340.445455 255.877529 
L 342.981818 242.989682 
L 344.25 241.77206 
L 345.518182 244.662114 
L 348.054545 268.361976 
L 349.322727 282.803462 
L 350.590909 293.055667 
L 351.859091 298.408524 
L 353.127273 298.184568 
L 354.395455 292.408982 
L 355.663636 288.293497 
L 356.931818 271.596571 
L 358.2 257.573584 
L 359.468182 230.474682 
L 360.736364 210.068014 
L 362.004545 182.05806 
L 363.272727 178.588999 
L 364.540909 181.717619 
L 365.809091 199.125036 
L 367.077273 220.656984 
L 368.345455 246.803087 
L 369.613636 268.582646 
L 370.881818 277.834451 
L 373.418182 303.562121 
L 374.686364 316.786017 
L 375.954545 318.891948 
L 377.222727 315.405219 
L 378.490909 299.655299 
L 379.759091 279.734321 
L 382.295455 251.906511 
L 383.563636 247.702231 
L 384.831818 242.209235 
L 386.1 251.843844 
L 387.368182 244.138226 
L 388.636364 247.173105 
L 389.904545 235.716098 
L 391.172727 243.503515 
L 392.440909 226.119785 
L 393.709091 228.864039 
L 394.977273 213.988469 
L 396.245455 224.211781 
L 397.513636 210.49032 
L 398.781818 220.984475 
L 400.05 212.078708 
L 401.318182 225.737371 
L 402.586364 223.591484 
L 403.854545 237.794534 
L 405.122727 237.395135 
L 406.390909 253.751816 
L 407.659091 255.167299 
L 408.927273 264.365384 
L 410.195455 260.450135 
L 411.463636 263.759111 
L 412.731818 258.437034 
L 414 257.432891 
L 415.268182 256.152537 
L 416.536364 267.220297 
L 417.804545 269.098204 
L 419.072727 268.892176 
L 420.340909 257.159868 
L 421.609091 250.309339 
L 422.877273 236.949012 
L 424.145455 229.864049 
L 425.413636 223.568968 
L 426.681818 228.584573 
L 427.95 229.088483 
L 430.486364 234.761315 
L 435.559091 262.548875 
L 439.363636 281.833451 
L 441.9 293.689955 
L 443.168182 299.242267 
L 445.704545 313.391793 
L 446.972727 321.589379 
L 448.240909 327.772498 
L 449.509091 333.36955 
L 450.777273 335.601499 
L 452.045455 337.067187 
L 453.313636 336.842808 
L 455.85 339.05826 
L 457.118182 341.008368 
L 458.386364 342.582602 
L 459.654545 343.791796 
L 460.922727 344.649227 
L 462.190909 345.074982 
L 463.459091 345.257583 
L 464.727273 345.054743 
L 465.995455 344.504142 
L 467.263636 344.608588 
L 469.8 344.114016 
L 471.068182 342.401498 
L 472.336364 340.296413 
L 474.872727 332.03053 
L 476.140909 327.49466 
L 478.677273 319.7376 
L 479.945455 317.526052 
L 481.213636 316.803913 
L 482.481818 319.473167 
L 483.75 321.647621 
L 485.018182 326.975522 
L 486.286364 327.166355 
L 487.554545 323.320932 
L 490.090909 298.479228 
L 491.359091 289.462345 
L 492.627273 283.10092 
L 495.163636 287.489884 
L 496.431818 299.058462 
L 497.7 300.381213 
L 498.968182 304.854449 
L 500.236364 297.507656 
L 501.504545 300.83316 
L 502.772727 295.542483 
L 504.040909 296.1851 
L 505.309091 295.046545 
L 506.577273 296.379415 
L 507.845455 293.233485 
L 509.113636 282.027765 
L 510.381818 274.216433 
L 511.65 265.014476 
L 512.918182 268.238464 
L 514.186364 266.508049 
L 515.454545 279.541828 
L 516.722727 278.810774 
L 517.990909 282.561512 
L 519.259091 269.498579 
L 520.527273 269.875885 
L 521.795455 252.611568 
L 523.063636 242.955973 
L 524.331818 213.265809 
L 525.6 191.634719 
L 526.868182 151.776753 
L 529.404545 113.226245 
L 530.672727 111.298783 
L 531.940909 100.276608 
L 533.209091 98.517301 
L 535.745455 77.854074 
L 537.013636 67.659558 
L 538.281818 67.385071 
L 539.55 66.96 
L 540.818182 67.425776 
L 542.086364 68.112449 
L 544.622727 87.925859 
L 545.890909 106.885091 
L 546.525 126.028194 
L 547.159091 154.066847 
L 548.427273 174.358266 
L 549.695455 191.23737 
L 550.963636 203.928594 
L 552.231818 208.582673 
L 553.5 215.727668 
L 554.768182 214.469505 
L 556.036364 227.830222 
L 557.304545 231.00768 
L 558.572727 252.607046 
L 559.840909 254.265129 
L 561.109091 267.714283 
L 562.377273 256.35876 
L 563.645455 255.52736 
L 564.913636 232.069284 
L 566.181818 227.52375 
L 567.45 213.392868 
L 568.718182 220.036134 
L 569.986364 216.145874 
L 571.254545 233.550526 
L 572.522727 236.322403 
L 573.790909 247.353591 
L 575.059091 244.354178 
L 576.327273 247.849464 
L 577.595455 238.509255 
L 578.863636 238.067882 
L 580.131818 237.862375 
L 581.4 248.997943 
L 582.668182 258.324421 
L 583.936364 274.361355 
L 586.472727 296.213343 
L 587.740909 301.210336 
L 589.009091 310.110637 
L 590.277273 311.924933 
L 591.545455 315.603015 
L 592.813636 312.999878 
L 594.081818 315.129691 
L 595.35 313.510132 
L 596.618182 316.103118 
L 597.886364 316.786668 
L 599.154545 320.399967 
L 600.422727 322.057563 
L 602.959091 328.289976 
L 604.227273 332.686488 
L 605.495455 336.034216 
L 606.763636 340.600314 
L 608.031818 345.754009 
L 609.3 352.013363 
L 611.836364 363.274103 
L 613.104545 366.955439 
L 614.372727 368.820885 
L 615.640909 368.828791 
L 618.177273 369.1651 
L 619.445455 368.394447 
L 620.713636 366.186771 
L 621.981818 362.795964 
L 623.25 359.752397 
L 624.518182 356.310245 
L 625.786364 354.534083 
L 627.054545 352.457566 
L 628.322727 351.986877 
L 629.590909 348.869158 
L 630.859091 343.958877 
L 633.395455 324.99818 
L 634.663636 313.599122 
L 635.931818 303.373468 
L 637.2 294.121338 
L 638.468182 287.072491 
L 642.272727 268.393212 
L 646.077273 248.367397 
L 656.222727 192.203542 
L 661.295455 163.513096 
L 665.1 143.296903 
L 666.368182 136.745459 
L 667.636364 137.742053 
L 668.904545 152.593707 
L 670.172727 180.011575 
L 672.709091 247.002055 
L 673.977273 273.602481 
L 675.245455 289.382107 
L 676.513636 285.763179 
L 679.05 257.018428 
L 680.318182 255.698182 
L 681.586364 251.907227 
L 682.854545 253.100966 
L 684.122727 250.834951 
L 685.390909 262.464277 
L 686.659091 254.608954 
L 687.927273 252.455746 
L 689.195455 240.252684 
L 690.463636 245.223778 
L 691.731818 222.167249 
L 693 204.66814 
L 694.268182 169.668948 
L 695.536364 148.259472 
L 696.804545 115.54315 
L 698.072727 97.405328 
L 699.340909 82.382949 
L 700.609091 80.498307 
L 701.877273 78.972554 
L 703.145455 82.171097 
L 706.95 93.565274 
L 709.486364 110.575635 
L 710.754545 119.253932 
L 713.290909 129.790483 
L 715.827273 133.772759 
L 717.095455 136.199055 
L 720.9 155.809332 
L 724.704545 176.894051 
L 732.313636 220.497615 
L 733.581818 233.556578 
L 736.118182 244.859942 
L 738.654545 259.875293 
L 741.190909 276.418252 
L 742.459091 285.470405 
L 743.727273 292.4982 
L 744.995455 297.473784 
L 746.263636 301.414542 
L 746.897727 304.823603 
L 747.531818 306.91538 
L 748.8 308.48431 
L 750.068182 311.626205 
L 753.872727 323.12421 
L 755.140909 327.875219 
L 756.409091 333.095681 
L 757.677273 344.462754 
L 760.213636 357.084835 
L 761.481818 360.808697 
L 762.75 362.500359 
L 764.018182 362.824532 
L 765.286364 361.42112 
L 766.554545 358.051494 
L 767.822727 354.207243 
L 772.895455 342.010266 
L 774.163636 340.951232 
L 775.431818 339.706669 
L 776.7 338.100125 
L 777.968182 336.070951 
L 779.236364 333.708494 
L 781.772727 330.23862 
L 783.040909 330.814861 
L 784.309091 330.972701 
L 785.577273 329.620471 
L 786.845455 323.631536 
L 788.113636 315.306142 
L 791.918182 282.560406 
L 793.186364 274.870276 
L 796.990909 255.2722 
L 800.795455 234.263815 
L 802.063636 227.101249 
L 803.331818 214.235852 
L 804.6 208.628258 
L 805.868182 204.195369 
L 807.136364 201.749649 
L 808.404545 198.821363 
L 809.672727 194.354179 
L 810.940909 187.317371 
L 811.575 179.714409 
L 812.209091 170.559827 
L 813.477273 171.648958 
L 814.745455 186.228208 
L 816.013636 212.285744 
L 818.55 270.553448 
L 819.818182 293.367865 
L 821.086364 302.020913 
L 822.354545 304.367361 
L 823.622727 303.708247 
L 824.890909 304.688052 
L 826.159091 305.185324 
L 827.427273 311.772462 
L 828.695455 315.120808 
L 829.963636 319.504988 
L 832.5 300.063841 
L 833.768182 277.088787 
L 835.036364 260.605567 
L 835.670455 237.502184 
L 836.304545 235.101918 
L 837.572727 234.664222 
L 838.840909 245.584717 
L 840.109091 244.872795 
L 841.377273 252.749007 
L 842.645455 256.308457 
L 843.913636 263.041787 
L 845.181818 268.450706 
L 846.45 284.828536 
L 848.986364 314.927372 
L 850.254545 324.1864 
L 851.522727 334.51432 
L 852.790909 341.512668 
L 854.059091 345.115263 
L 855.327273 346.06253 
L 856.595455 343.613946 
L 857.863636 343.672058 
L 859.131818 343.862013 
L 860.4 346.104113 
L 861.668182 348.118255 
L 862.936364 351.167809 
L 864.204545 350.774331 
L 866.740909 349.687446 
L 868.009091 349.757759 
L 869.277273 349.688845 
L 870.545455 350.219175 
L 871.813636 349.861619 
L 873.081818 348.680212 
L 874.35 347.748368 
L 875.618182 347.293687 
L 876.886364 347.009602 
L 878.154545 344.97418 
L 879.422727 345.335185 
L 880.690909 344.0588 
L 881.959091 343.067217 
L 885.763636 328.924231 
L 887.031818 322.289914 
L 888.3 316.653817 
L 889.568182 307.397815 
L 890.836364 301.479975 
L 892.104545 291.213356 
L 894.640909 281.967896 
L 897.177273 288.075137 
L 899.713636 299.432612 
L 902.25 309.555903 
L 904.786364 318.717579 
L 907.322727 326.768941 
L 908.590909 330.318239 
L 909.859091 335.32623 
L 911.127273 341.763468 
L 912.395455 356.618897 
L 913.663636 363.161621 
L 914.931818 367.342799 
L 916.2 369.36 
L 920.004545 369.321931 
L 921.272727 368.113875 
L 922.540909 366.306087 
L 923.809091 363.32343 
L 925.077273 360.690488 
L 926.345455 357.719253 
L 927.613636 356.173197 
L 928.881818 355.090704 
L 930.15 355.277567 
L 931.418182 354.587672 
L 932.686364 354.766759 
L 933.954545 352.808289 
L 933.954545 352.808289 
" clip-path="url(#pa4ecc7898f)" style="fill: none; stroke: #008000; stroke-width: 1.5; stroke-linecap: square"/>
   </g>
   <g id="patch_3">
    <path d="M 135 384.48 
L 135 51.84 
" style="fill: none; stroke: #000000; stroke-width: 0.8; stroke-linejoin: miter; stroke-linecap: square"/>
   </g>
   <g id="patch_4">
    <path d="M 972 384.48 
L 972 51.84 
" style="fill: none; stroke: #000000; stroke-width: 0.8; stroke-linejoin: miter; stroke-linecap: square"/>
   </g>
   <g id="patch_5">
    <path d="M 135 384.48 
L 972 384.48 
" style="fill: none; stroke: #000000; stroke-width: 0.8; stroke-linejoin: miter; stroke-linecap: square"/>
   </g>
   <g id="patch_6">
    <path d="M 135 51.84 
L 972 51.84 
" style="fill: none; stroke: #000000; stroke-width: 0.8; stroke-linejoin: miter; stroke-linecap: square"/>
   </g>
  </g>
  <g id="axes_2">
   <g id="matplotlib.axis_3">
    <g id="ytick_7">
     <g id="line2d_16">
      <path d="M 135 336.310686 
L 972 336.310686 
" clip-path="url(#pa4ecc7898f)" style="fill: none; stroke: #b0b0b0; stroke-width: 0.8; stroke-linecap: square"/>
     </g>
     <g id="line2d_17">
      <defs>
       <path id="m18f258a3de" d="M 0 0 
L 3.5 0 
" style="stroke: #000000; stroke-width: 0.8"/>
      </defs>
      <g>
       <use xlink:href="#m18f258a3de" x="972" y="336.310686" style="stroke: #000000; stroke-width: 0.8"/>
      </g>
     </g>
     <g id="text_15">
      <!-- 5 -->
      <g transform="translate(979 339.884904) scale(0.1 -0.1)">
       <use xlink:href="#Times New Roman-35"/>
      </g>
     </g>
    </g>
    <g id="ytick_8">
     <g id="line2d_18">
      <path d="M 135 283.734621 
L 972 283.734621 
" clip-path="url(#pa4ecc7898f)" style="fill: none; stroke: #b0b0b0; stroke-width: 0.8; stroke-linecap: square"/>
     </g>
     <g id="line2d_19">
      <g>
       <use xlink:href="#m18f258a3de" x="972" y="283.734621" style="stroke: #000000; stroke-width: 0.8"/>
      </g>
     </g>
     <g id="text_16">
      <!-- 10 -->
      <g transform="translate(979 287.308839) scale(0.1 -0.1)">
       <use xlink:href="#Times New Roman-31"/>
       <use xlink:href="#Times New Roman-30" x="50"/>
      </g>
     </g>
    </g>
    <g id="ytick_9">
     <g id="line2d_20">
      <path d="M 135 231.158556 
L 972 231.158556 
" clip-path="url(#pa4ecc7898f)" style="fill: none; stroke: #b0b0b0; stroke-width: 0.8; stroke-linecap: square"/>
     </g>
     <g id="line2d_21">
      <g>
       <use xlink:href="#m18f258a3de" x="972" y="231.158556" style="stroke: #000000; stroke-width: 0.8"/>
      </g>
     </g>
     <g id="text_17">
      <!-- 15 -->
      <g transform="translate(979 234.732775) scale(0.1 -0.1)">
       <use xlink:href="#Times New Roman-31"/>
       <use xlink:href="#Times New Roman-35" x="50"/>
      </g>
     </g>
    </g>
    <g id="ytick_10">
     <g id="line2d_22">
      <path d="M 135 178.582491 
L 972 178.582491 
" clip-path="url(#pa4ecc7898f)" style="fill: none; stroke: #b0b0b0; stroke-width: 0.8; stroke-linecap: square"/>
     </g>
     <g id="line2d_23">
      <g>
       <use xlink:href="#m18f258a3de" x="972" y="178.582491" style="stroke: #000000; stroke-width: 0.8"/>
      </g>
     </g>
     <g id="text_18">
      <!-- 20 -->
      <g transform="translate(979 182.15671) scale(0.1 -0.1)">
       <use xlink:href="#Times New Roman-32"/>
       <use xlink:href="#Times New Roman-30" x="50"/>
      </g>
     </g>
    </g>
    <g id="ytick_11">
     <g id="line2d_24">
      <path d="M 135 126.006426 
L 972 126.006426 
" clip-path="url(#pa4ecc7898f)" style="fill: none; stroke: #b0b0b0; stroke-width: 0.8; stroke-linecap: square"/>
     </g>
     <g id="line2d_25">
      <g>
       <use xlink:href="#m18f258a3de" x="972" y="126.006426" style="stroke: #000000; stroke-width: 0.8"/>
      </g>
     </g>
     <g id="text_19">
      <!-- 25 -->
      <g transform="translate(979 129.580645) scale(0.1 -0.1)">
       <use xlink:href="#Times New Roman-32"/>
       <use xlink:href="#Times New Roman-35" x="50"/>
      </g>
     </g>
    </g>
    <g id="ytick_12">
     <g id="line2d_26">
      <path d="M 135 73.430361 
L 972 73.430361 
" clip-path="url(#pa4ecc7898f)" style="fill: none; stroke: #b0b0b0; stroke-width: 0.8; stroke-linecap: square"/>
     </g>
     <g id="line2d_27">
      <g>
       <use xlink:href="#m18f258a3de" x="972" y="73.430361" style="stroke: #000000; stroke-width: 0.8"/>
      </g>
     </g>
     <g id="text_20">
      <!-- 30 -->
      <g transform="translate(979 77.00458) scale(0.1 -0.1)">
       <use xlink:href="#Times New Roman-33"/>
       <use xlink:href="#Times New Roman-30" x="50"/>
      </g>
     </g>
    </g>
    <g id="text_21">
     <!-- buffer (s) -->
     <g transform="translate(1000.617188 243.16) rotate(-90) scale(0.1 -0.1)">
      <defs>
       <path id="Times New Roman-75" d="M 1450 325
Q 1750 325 1962 475 
Q 2175 625 2275 950 
L 2275 2525 
Q 2275 2625 2225 2687 
Q 2175 2750 2050 2750 
L 1900 2750 
L 1900 2900 
L 2050 2900 
Q 2200 2900 2325 2925 
Q 2450 2950 2575 3050 
L 2625 3050 
L 2625 600 
Q 2625 500 2687 450 
Q 2750 400 2850 400 
L 3000 400 
L 3000 250 
L 2850 250 
Q 2725 250 2600 212 
Q 2475 175 2325 100 
L 2275 100 
L 2275 625 
Q 2150 350 1900 212 
Q 1650 75 1325 75 
Q 925 75 725 300 
Q 525 525 525 1025 
L 525 2525 
Q 525 2625 475 2687 
Q 425 2750 300 2750 
L 150 2750 
L 150 2900 
L 300 2900 
Q 450 2900 575 2925 
Q 700 2950 825 3050 
L 875 3050 
L 875 975 
Q 875 625 1025 475 
Q 1175 325 1450 325 
z
" transform="scale(0.015625)"/>
       <path id="Times New Roman-66" d="M 1125 3325
Q 1125 3850 1450 4112 
Q 1775 4375 2175 4375 
Q 2600 4375 2812 4225 
Q 3025 4075 3025 3875 
Q 3025 3775 2975 3700 
Q 2925 3625 2775 3625 
Q 2675 3625 2612 3675 
Q 2550 3725 2550 3850 
Q 2550 3875 2575 3925 
Q 2575 3975 2575 4000 
Q 2575 4100 2500 4162 
Q 2425 4225 2150 4225 
Q 1850 4225 1662 4037 
Q 1475 3850 1475 3400 
L 1475 2900 
L 2525 2900 
L 2525 2750 
L 1475 2750 
L 1475 450 
Q 1475 350 1537 300 
Q 1600 250 1700 250 
L 2300 250 
L 2300 100 
L 475 100 
L 475 250 
L 900 250 
Q 1025 250 1075 300 
Q 1125 350 1125 450 
L 1125 2750 
L 350 2750 
L 350 2900 
L 1125 2900 
L 1125 3325 
z
" transform="scale(0.015625)"/>
      </defs>
      <use xlink:href="#Times New Roman-62"/>
      <use xlink:href="#Times New Roman-75" x="50"/>
      <use xlink:href="#Times New Roman-66" x="100"/>
      <use xlink:href="#Times New Roman-66" x="150"/>
      <use xlink:href="#Times New Roman-65" x="200"/>
      <use xlink:href="#Times New Roman-72" x="250"/>
      <use xlink:href="#Times New Roman-20" x="300"/>
      <use xlink:href="#Times New Roman-28" x="350"/>
      <use xlink:href="#Times New Roman-73" x="400"/>
      <use xlink:href="#Times New Roman-29" x="450"/>
     </g>
    </g>
   </g>
   <g id="line2d_28">
    <path d="M 173.045455 369.36 
L 175.581818 338.396203 
L 176.85 306.475521 
L 178.118182 268.000357 
L 179.386364 236.465233 
L 180.654545 212.539619 
L 183.190909 204.470945 
L 184.459091 200.699489 
L 185.727273 197.706158 
L 186.995455 193.871611 
L 188.263636 197.141842 
L 189.531818 193.36688 
L 190.8 190.405095 
L 192.068182 177.233039 
L 193.336364 176.994694 
L 194.604545 173.59828 
L 195.872727 176.868511 
L 197.140909 173.748998 
L 198.409091 176.815935 
L 199.677273 173.019943 
L 200.945455 176.595116 
L 202.213636 173.524673 
L 203.481818 169.739197 
L 204.75 158.614101 
L 206.018182 144.534231 
L 207.286364 130.969606 
L 209.822727 109.437955 
L 211.090909 105.666499 
L 212.359091 95.803229 
L 213.627273 92.936081 
L 216.163636 85.466775 
L 217.431818 74.909501 
L 218.7 72.094929 
L 219.968182 75.182897 
L 222.504545 81.814491 
L 223.772727 78.982394 
L 225.040909 74.790329 
L 227.577273 67.324527 
L 228.845455 71.492057 
L 232.65 81.071416 
L 233.918182 78.400552 
L 235.186364 82.561071 
L 236.454545 78.779099 
L 237.722727 81.828511 
L 238.990909 78.144682 
L 240.259091 82.287675 
L 241.527273 78.512714 
L 242.795455 81.642742 
L 244.063636 77.972933 
L 246.6 86.013566 
L 249.136364 92.459391 
L 250.404545 89.066483 
L 251.672727 92.287643 
L 252.940909 88.43557 
L 254.209091 91.544568 
L 255.477273 88.680925 
L 256.745455 92.844949 
L 258.013636 89.062978 
L 259.281818 92.669696 
L 260.55 95.911886 
L 261.184091 103.353152 
L 261.818182 103.430264 
L 263.086364 102.932544 
L 264.354545 106.150199 
L 265.622727 116.377996 
L 266.890909 120.531505 
L 270.695455 130.289623 
L 271.963636 134.467667 
L 273.231818 131.495367 
L 277.036364 141.295546 
L 278.304545 145.501631 
L 279.572727 141.744195 
L 282.109091 148.211051 
L 284.645455 156.150037 
L 285.913636 159.336146 
L 288.45 180.184308 
L 292.254545 189.935416 
L 294.790909 211.312844 
L 296.059091 214.505963 
L 297.327273 218.060105 
L 298.595455 222.192584 
L 303.668182 263.825817 
L 304.302273 271.288114 
L 304.936364 271.687692 
L 306.204545 271.182961 
L 308.740909 277.660333 
L 310.009091 281.817347 
L 313.813636 291.519383 
L 315.081818 295.714953 
L 317.618182 302.269436 
L 318.886364 298.501485 
L 320.154545 302.704065 
L 321.422727 298.922093 
L 322.690909 302.679529 
L 323.959091 298.851992 
L 325.227273 303.047562 
L 327.763636 296.033915 
L 330.3 288.469972 
L 331.568182 285.508187 
L 332.836364 268.000357 
L 334.104545 239.216714 
L 335.372727 239.535675 
L 336.640909 236.412657 
L 339.177273 243.012706 
L 340.445455 246.601899 
L 341.713636 243.755781 
L 342.981818 239.830101 
L 344.25 221.936714 
L 345.518182 197.499359 
L 346.786364 166.447935 
L 349.322727 117.303335 
L 350.590909 99.508089 
L 351.859091 88.845663 
L 353.127273 85.70512 
L 354.395455 75.154856 
L 355.663636 71.3834 
L 356.931818 74.583529 
L 358.2 78.495189 
L 359.468182 81.733874 
L 360.736364 78.418077 
L 362.004545 81.632227 
L 363.272727 78.775594 
L 364.540909 81.555116 
L 367.077273 88.018467 
L 368.345455 85.165339 
L 369.613636 75.33011 
L 372.15 67.773176 
L 373.418182 71.127529 
L 374.686364 68.302442 
L 375.954545 71.534118 
L 377.222727 67.668024 
L 378.490909 70.882174 
L 379.759091 68.078118 
L 381.027273 71.264227 
L 382.295455 67.748641 
L 383.563636 70.959286 
L 384.831818 68.113168 
L 386.1 71.818028 
L 387.368182 68.628414 
L 388.636364 71.860089 
L 389.904545 68.298937 
L 392.440909 75.091765 
L 394.977273 81.53058 
L 396.245455 78.677452 
L 397.513636 81.846037 
L 398.781818 78.519724 
L 400.05 81.75841 
L 401.318182 78.954353 
L 402.586364 81.754905 
L 403.854545 77.979943 
L 405.122727 81.232649 
L 407.659091 75.33712 
L 410.195455 67.703075 
L 411.463636 71.239692 
L 412.731818 75.400211 
L 414 78.628381 
L 416.536364 71.288763 
L 417.804545 68.470686 
L 419.072727 71.428966 
L 420.340909 67.622458 
L 421.609091 70.840114 
L 424.145455 78.901777 
L 425.413636 82.126442 
L 426.681818 78.33045 
L 429.218182 85.035651 
L 431.754545 91.484982 
L 433.022727 88.6634 
L 434.290909 92.844949 
L 435.559091 89.059473 
L 439.363636 100.065396 
L 440.631818 102.936049 
L 443.168182 109.371359 
L 444.436364 113.503838 
L 448.240909 123.23742 
L 449.509091 120.412333 
L 450.777273 123.679059 
L 452.045455 119.855026 
L 453.313636 123.128763 
L 455.85 131.421761 
L 457.118182 134.611375 
L 458.386364 130.801363 
L 459.654545 134.085615 
L 462.190909 142.122742 
L 464.727273 148.551043 
L 467.263636 155.333355 
L 468.531818 151.943951 
L 469.8 155.189647 
L 471.068182 159.294085 
L 472.336364 169.16787 
L 473.604545 172.385525 
L 474.872727 175.953688 
L 477.409091 170.264957 
L 479.945455 148.89454 
L 481.213636 145.158134 
L 483.75 138.5686 
L 485.018182 127.741436 
L 486.286364 123.917404 
L 487.554545 120.51398 
L 488.822727 123.73514 
L 491.359091 116.542734 
L 492.627273 106.72503 
L 493.895455 103.563456 
L 496.431818 95.761168 
L 497.7 92.361249 
L 500.236364 86.185314 
L 502.772727 78.817655 
L 505.309091 71.495562 
L 506.577273 67.731116 
L 507.845455 70.941761 
L 509.113636 68.148219 
L 512.918182 77.972933 
L 514.186364 82.150978 
L 517.990909 70.65785 
L 519.259091 67.811732 
L 523.063636 77.545314 
L 525.6 71.814523 
L 529.404545 81.467489 
L 530.672727 78.617866 
L 531.940909 81.856552 
L 533.209091 78.116641 
L 534.477273 81.341306 
L 535.745455 85.515846 
L 537.013636 95.694572 
L 538.281818 99.420462 
L 539.55 102.648633 
L 540.818182 106.833688 
L 543.354545 126.809087 
L 544.622727 130.019732 
L 545.890909 134.183757 
L 546.525 134.628901 
L 547.159091 128.091943 
L 548.427273 107.131619 
L 549.695455 89.311838 
L 550.963636 78.631886 
L 552.231818 75.210937 
L 553.5 71.442986 
L 556.036364 77.780154 
L 557.304545 81.926653 
L 558.572727 78.817655 
L 559.840909 82.038815 
L 562.377273 74.772803 
L 563.645455 71.733907 
L 567.45 81.590166 
L 568.718182 78.733533 
L 569.986364 81.982734 
L 571.254545 78.235813 
L 572.522727 81.478004 
L 573.790909 78.628381 
L 575.059091 81.891602 
L 576.327273 78.481168 
L 577.595455 81.723359 
L 578.863636 78.824665 
L 580.131818 81.684803 
L 582.668182 88.151659 
L 583.936364 85.266986 
L 586.472727 77.717063 
L 587.740909 80.973274 
L 589.009091 78.186742 
L 590.277273 82.336746 
L 591.545455 78.56529 
L 592.813636 81.709339 
L 594.081818 77.986953 
L 595.35 82.154483 
L 596.618182 78.400552 
L 597.886364 81.593671 
L 599.154545 77.801185 
L 601.690909 85.873363 
L 605.495455 95.841785 
L 606.763636 106.062572 
L 609.3 112.476852 
L 610.568182 109.725371 
L 611.836364 113.899911 
L 613.104545 117.152617 
L 624.518182 211.155116 
L 625.786364 214.383286 
L 627.054545 211.565209 
L 628.322727 208.210856 
L 630.859091 214.607611 
L 632.127273 218.30546 
L 633.395455 215.424292 
L 634.663636 218.662978 
L 635.931818 214.891521 
L 637.2 218.119692 
L 639.736364 212.171586 
L 641.004545 201.386483 
L 643.540909 194.081915 
L 644.809091 190.948381 
L 646.077273 180.166783 
L 648.613636 172.956852 
L 649.881818 169.8794 
L 651.15 159.385217 
L 654.954545 149.129379 
L 656.222727 138.747359 
L 658.759091 131.197436 
L 660.027273 134.660446 
L 663.831818 123.321542 
L 665.1 120.468414 
L 666.368182 116.686442 
L 667.636364 106.497201 
L 668.904545 102.715229 
L 670.172727 99.855091 
L 671.440909 95.932917 
L 673.977273 74.983108 
L 675.245455 71.765452 
L 676.513636 67.902864 
L 677.781818 71.779473 
L 679.05 67.95544 
L 682.854545 79.171667 
L 685.390909 71.611229 
L 687.927273 78.319935 
L 690.463636 71.092479 
L 691.731818 75.249493 
L 693 79.017444 
L 694.268182 82.080876 
L 695.536364 78.30241 
L 698.072727 84.941014 
L 700.609091 91.411375 
L 701.877273 88.579278 
L 703.145455 92.739797 
L 706.95 102.445339 
L 708.218182 99.578191 
L 709.486364 103.328617 
L 712.022727 95.803229 
L 714.559091 89.080503 
L 715.827273 92.795878 
L 717.095455 89.003391 
L 718.363636 92.743302 
L 719.631818 95.498288 
L 720.9 99.154077 
L 722.168182 102.364722 
L 723.436364 106.507716 
L 724.704545 110.254637 
L 728.509091 100.005809 
L 729.777273 103.756235 
L 731.045455 106.472665 
L 732.313636 116.59531 
L 732.947727 123.107732 
L 733.581818 123.556381 
L 734.85 123.984 
L 736.118182 127.215675 
L 737.386364 130.836414 
L 738.654545 134.040049 
L 739.922727 131.179911 
L 742.459091 138.014799 
L 744.995455 144.646394 
L 746.263636 148.803408 
L 746.897727 156.272714 
L 747.531818 156.107976 
L 748.8 155.58572 
L 750.068182 151.821274 
L 751.336364 148.66671 
L 752.604545 144.933809 
L 753.872727 148.593103 
L 755.140909 158.845436 
L 756.409091 162.998945 
L 757.043182 163.00245 
L 757.677273 162.50473 
L 758.945455 168.982101 
L 760.213636 172.504698 
L 761.481818 176.623156 
L 762.75 179.875862 
L 765.286364 200.135172 
L 766.554545 211.382945 
L 769.090909 231.863075 
L 770.359091 235.007124 
L 772.895455 229.244787 
L 775.431818 235.757209 
L 776.7 231.989258 
L 777.968182 229.160665 
L 779.236364 233.026759 
L 780.504545 236.251424 
L 785.577273 221.393428 
L 786.845455 217.635992 
L 788.113636 214.919562 
L 789.381818 218.161753 
L 791.918182 210.787083 
L 794.454545 205.368243 
L 795.722727 208.235391 
L 796.990909 204.208065 
L 798.259091 207.380154 
L 799.527273 204.544552 
L 800.795455 200.745055 
L 802.063636 189.977477 
L 803.331818 175.908122 
L 804.6 176.360276 
L 807.136364 168.901485 
L 808.404545 158.081331 
L 810.940909 152.273428 
L 811.575 152.722077 
L 812.209091 145.273801 
L 813.477273 137.80099 
L 816.013636 117.282304 
L 818.55 82.119432 
L 819.818182 71.358864 
L 821.086364 67.881834 
L 822.354545 71.071448 
L 823.622727 67.275456 
L 824.890909 70.524657 
L 826.159091 67.794207 
L 827.427273 71.018872 
L 828.695455 67.233396 
L 829.963636 70.67187 
L 831.231818 68.032552 
L 832.5 71.288763 
L 833.768182 67.328032 
L 835.036364 70.349404 
L 835.670455 70.766507 
L 836.304545 78.064065 
L 837.572727 78.516219 
L 838.840909 75.140836 
L 841.377273 67.804722 
L 842.645455 71.565663 
L 843.913636 67.990491 
L 845.181818 70.980316 
L 846.45 67.527822 
L 847.718182 71.520097 
L 848.986364 67.906369 
L 850.254545 70.801558 
L 851.522727 67.349063 
L 852.790909 71.365874 
L 854.059091 67.913379 
L 855.327273 71.344844 
L 856.595455 67.580398 
L 857.863636 71.442986 
L 859.131818 68.043067 
L 860.4 71.274742 
L 861.668182 67.510296 
L 862.936364 70.727951 
L 864.204545 67.888844 
L 865.472727 71.088974 
L 866.740909 67.338548 
L 868.009091 70.833103 
L 869.277273 68.011521 
L 870.545455 71.232682 
L 871.813636 67.184325 
L 873.081818 70.42301 
L 874.35 67.573387 
L 875.618182 70.801558 
L 876.886364 66.96 
L 878.154545 70.16714 
L 879.422727 67.349063 
L 880.690909 71.509582 
L 881.959091 67.759156 
L 883.227273 70.941761 
L 884.495455 67.191335 
L 885.763636 71.355359 
L 887.031818 67.594418 
L 888.3 70.833103 
L 889.568182 67.271951 
L 890.836364 71.428966 
L 892.104545 74.643116 
L 893.372727 85.182864 
L 894.640909 88.390004 
L 895.909091 92.550523 
L 897.177273 89.157615 
L 898.445455 92.38228 
L 899.713636 88.638864 
L 900.981818 91.89858 
L 902.25 96.090645 
L 906.054545 105.932884 
L 907.322727 110.103919 
L 911.127273 119.599156 
L 912.395455 120.447383 
L 913.663636 120.706759 
L 916.2 127.180625 
L 922.540909 179.504325 
L 925.077273 200.899278 
L 926.345455 211.134085 
L 927.613636 214.477923 
L 928.881818 211.712422 
L 930.15 208.067148 
L 932.686364 215.080795 
L 933.954545 212.192617 
L 933.954545 212.192617 
" clip-path="url(#pa4ecc7898f)" style="fill: none; stroke: #1f77b4; stroke-width: 1.5; stroke-linecap: square"/>
   </g>
   <g id="patch_7">
    <path d="M 135 384.48 
L 135 51.84 
" style="fill: none; stroke: #000000; stroke-width: 0.8; stroke-linejoin: miter; stroke-linecap: square"/>
   </g>
   <g id="patch_8">
    <path d="M 972 384.48 
L 972 51.84 
" style="fill: none; stroke: #000000; stroke-width: 0.8; stroke-linejoin: miter; stroke-linecap: square"/>
   </g>
   <g id="patch_9">
    <path d="M 135 384.48 
L 972 384.48 
" style="fill: none; stroke: #000000; stroke-width: 0.8; stroke-linejoin: miter; stroke-linecap: square"/>
   </g>
   <g id="patch_10">
    <path d="M 135 51.84 
L 972 51.84 
" style="fill: none; stroke: #000000; stroke-width: 0.8; stroke-linejoin: miter; stroke-linecap: square"/>
   </g>
   <g id="text_22">
    <!-- ./source/bola1_wave -->
    <g transform="translate(496.5 45.84) scale(0.12 -0.12)">
     <defs>
      <path id="Times New Roman-2e" d="M 800 25
Q 650 25 537 125 
Q 425 225 425 400 
Q 425 575 537 675 
Q 650 775 800 775 
Q 950 775 1062 662 
Q 1175 550 1175 400 
Q 1175 225 1062 125 
Q 950 25 800 25 
z
" transform="scale(0.015625)"/>
      <path id="Times New Roman-2f" d="M 400 -475
L 225 -375 
L 2775 4975 
L 2950 4875 
L 400 -475 
z
" transform="scale(0.015625)"/>
      <path id="Times New Roman-6f" d="M 2900 1500
Q 2900 875 2525 462 
Q 2150 50 1600 50 
Q 1025 50 662 475 
Q 300 900 300 1500 
Q 300 2050 662 2500 
Q 1025 2950 1600 2950 
Q 2200 2950 2550 2500 
Q 2900 2050 2900 1500 
z
M 700 1475 
Q 700 825 962 512 
Q 1225 200 1600 200 
Q 2025 200 2262 537 
Q 2500 875 2500 1475 
Q 2500 2125 2237 2462 
Q 1975 2800 1600 2800 
Q 1250 2800 975 2462 
Q 700 2125 700 1475 
z
" transform="scale(0.015625)"/>
      <path id="Times New Roman-63" d="M 2150 2225
Q 2150 2300 2175 2325 
Q 2175 2350 2200 2425 
Q 2225 2525 2100 2662 
Q 1975 2800 1675 2800 
Q 1300 2800 1037 2437 
Q 775 2075 775 1475 
Q 775 925 1000 587 
Q 1225 250 1750 250 
Q 2100 250 2337 475 
Q 2575 700 2675 1000 
L 2800 950 
Q 2700 575 2425 312 
Q 2150 50 1675 50 
Q 1075 50 725 425 
Q 375 800 375 1500 
Q 375 2125 750 2537 
Q 1125 2950 1725 2950 
Q 2150 2950 2387 2725 
Q 2625 2500 2625 2275 
Q 2625 2125 2562 2062 
Q 2500 2000 2375 2000 
Q 2275 2000 2212 2062 
Q 2150 2125 2150 2225 
z
" transform="scale(0.015625)"/>
      <path id="Times New Roman-6c" d="M 925 4375
Q 1150 4375 1350 4425 
Q 1550 4475 1725 4575 
L 1775 4575 
L 1775 450 
Q 1775 350 1837 300 
Q 1900 250 2000 250 
L 2575 250 
L 2575 100 
L 625 100 
L 625 250 
L 1200 250 
Q 1325 250 1375 300 
Q 1425 350 1425 450 
L 1425 4025 
Q 1425 4125 1375 4175 
Q 1325 4225 1200 4225 
L 650 4225 
L 650 4375 
L 925 4375 
z
" transform="scale(0.015625)"/>
      <path id="Times New Roman-5f" d="M 0 -875
L 0 -725 
L 3175 -725 
L 3175 -875 
L 0 -875 
z
" transform="scale(0.015625)"/>
      <path id="Times New Roman-77" d="M 2325 2900
L 3175 2900 
L 3175 2750 
L 3075 2750 
Q 2975 2750 2900 2675 
Q 2825 2600 2775 2425 
L 2175 75 
L 2025 75 
L 1575 1975 
L 1100 75 
L 950 75 
L 375 2375 
Q 350 2550 275 2650 
Q 200 2750 125 2750 
L 25 2750 
L 25 2900 
L 925 2900 
L 925 2750 
L 825 2750 
Q 725 2750 700 2662 
Q 675 2575 700 2425 
L 1075 800 
L 1125 800 
L 1500 2300 
Q 1475 2525 1400 2637 
Q 1325 2750 1225 2750 
L 1150 2750 
L 1150 2900 
L 2000 2900 
L 2000 2750 
L 1925 2750 
Q 1825 2750 1800 2662 
Q 1775 2575 1800 2425 
L 2175 800 
L 2200 800 
L 2625 2550 
Q 2650 2650 2600 2700 
Q 2550 2750 2450 2750 
L 2325 2750 
L 2325 2900 
z
M 1725 2750 
L 1725 2750 
z
M 625 2750 
L 625 2750 
z
M 275 2750 
L 275 2750 
z
M 2875 2750 
L 2875 2750 
z
M 2675 2750 
L 2675 2750 
z
" transform="scale(0.015625)"/>
      <path id="Times New Roman-76" d="M 1625 75
L 1475 75 
L 625 2525 
Q 600 2625 525 2687 
Q 450 2750 350 2750 
L 225 2750 
L 225 2900 
L 1300 2900 
L 1300 2750 
L 1200 2750 
Q 1050 2750 1025 2700 
Q 1000 2650 1000 2600 
Q 1000 2500 1025 2425 
L 1625 675 
L 1675 675 
L 2275 2400 
Q 2325 2525 2325 2575 
Q 2325 2600 2275 2675 
Q 2225 2750 2075 2750 
L 2025 2750 
L 2025 2900 
L 2925 2900 
L 2925 2750 
L 2875 2750 
Q 2725 2750 2637 2662 
Q 2550 2575 2475 2400 
L 1625 75 
z
M 2600 2750 
L 2600 2750 
z
M 2400 2750 
L 2400 2750 
z
M 925 2750 
L 925 2750 
z
M 550 2750 
L 550 2750 
z
" transform="scale(0.015625)"/>
     </defs>
     <use xlink:href="#Times New Roman-2e"/>
     <use xlink:href="#Times New Roman-2f" x="50"/>
     <use xlink:href="#Times New Roman-73" x="100"/>
     <use xlink:href="#Times New Roman-6f" x="150"/>
     <use xlink:href="#Times New Roman-75" x="200"/>
     <use xlink:href="#Times New Roman-72" x="250"/>
     <use xlink:href="#Times New Roman-63" x="300"/>
     <use xlink:href="#Times New Roman-65" x="350"/>
     <use xlink:href="#Times New Roman-2f" x="400"/>
     <use xlink:href="#Times New Roman-62" x="450"/>
     <use xlink:href="#Times New Roman-6f" x="500"/>
     <use xlink:href="#Times New Roman-6c" x="550"/>
     <use xlink:href="#Times New Roman-61" x="600"/>
     <use xlink:href="#Times New Roman-31" x="650"/>
     <use xlink:href="#Times New Roman-5f" x="700"/>
     <use xlink:href="#Times New Roman-77" x="750"/>
     <use xlink:href="#Times New Roman-61" x="800"/>
     <use xlink:href="#Times New Roman-76" x="850"/>
     <use xlink:href="#Times New Roman-65" x="900"/>
    </g>
   </g>
   <g id="legend_1">
    <g id="patch_11">
     <path d="M 903 73.2775 
L 965 73.2775 
Q 967 73.2775 967 71.2775 
L 967 58.84 
Q 967 56.84 965 56.84 
L 903 56.84 
Q 901 56.84 901 58.84 
L 901 71.2775 
Q 901 73.2775 903 73.2775 
z
" style="fill: #ffffff; opacity: 0.8; stroke: #cccccc; stroke-linejoin: miter"/>
    </g>
    <g id="line2d_29">
     <path d="M 905 64.488437 
L 915 64.488437 
L 925 64.488437 
" style="fill: none; stroke: #1f77b4; stroke-width: 1.5; stroke-linecap: square"/>
    </g>
    <g id="text_23">
     <!-- buffer -->
     <g transform="translate(933 67.988437) scale(0.1 -0.1)">
      <use xlink:href="#Times New Roman-62"/>
      <use xlink:href="#Times New Roman-75" x="50"/>
      <use xlink:href="#Times New Roman-66" x="100"/>
      <use xlink:href="#Times New Roman-66" x="150"/>
      <use xlink:href="#Times New Roman-65" x="200"/>
      <use xlink:href="#Times New Roman-72" x="250"/>
     </g>
    </g>
   </g>
  </g>
 </g>
 <defs>
  <clipPath id="pa4ecc7898f">
   <rect x="135" y="51.84" width="837" height="332.64"/>
  </clipPath>
 </defs>
</svg>
