<?xml version="1.0" encoding="utf-8" standalone="no"?>
<!DOCTYPE svg PUBLIC "-//W3C//DTD SVG 1.1//EN"
  "http://www.w3.org/Graphics/SVG/1.1/DTD/svg11.dtd">
<svg xmlns:xlink="http://www.w3.org/1999/xlink" width="1080pt" height="432pt" viewBox="0 0 1080 432" xmlns="http://www.w3.org/2000/svg" version="1.1">
 <metadata>
  <rdf:RDF xmlns:dc="http://purl.org/dc/elements/1.1/" xmlns:cc="http://creativecommons.org/ns#" xmlns:rdf="http://www.w3.org/1999/02/22-rdf-syntax-ns#">
   <cc:Work>
    <dc:type rdf:resource="http://purl.org/dc/dcmitype/StillImage"/>
    <dc:date>2024-04-12T06:13:25.168695</dc:date>
    <dc:format>image/svg+xml</dc:format>
    <dc:creator>
     <cc:Agent>
      <dc:title>Matplotlib v3.8.3, https://matplotlib.org/</dc:title>
     </cc:Agent>
    </dc:creator>
   </cc:Work>
  </rdf:RDF>
 </metadata>
 <defs>
  <style type="text/css">*{stroke-linejoin: round; stroke-linecap: butt}</style>
 </defs>
 <g id="figure_1">
  <g id="patch_1">
   <path d="M 0 432 
L 1080 432 
L 1080 0 
L 0 0 
z
" style="fill: #ffffff"/>
  </g>
  <g id="axes_1">
   <g id="patch_2">
    <path d="M 135 384.48 
L 972 384.48 
L 972 51.84 
L 135 51.84 
z
" style="fill: #ffffff"/>
   </g>
   <g id="matplotlib.axis_1">
    <g id="xtick_1">
     <g id="line2d_1">
      <defs>
       <path id="ma4b40f6ac0" d="M 0 0 
L 0 3.5 
" style="stroke: #000000; stroke-width: 0.8"/>
      </defs>
      <g>
       <use xlink:href="#ma4b40f6ac0" x="173.045455" y="384.48" style="stroke: #000000; stroke-width: 0.8"/>
      </g>
     </g>
     <g id="text_1">
      <!-- 0 -->
      <g transform="translate(170.545455 398.628438) scale(0.1 -0.1)">
       <defs>
        <path id="Times New Roman-30" d="M 1600 4225
Q 1250 4225 1012 3687 
Q 775 3150 775 2250 
Q 775 1300 1012 775 
Q 1250 250 1600 250 
Q 1975 250 2187 775 
Q 2400 1300 2400 2250 
Q 2400 3150 2200 3687 
Q 2000 4225 1600 4225 
z
M 1600 50 
Q 1050 50 675 625 
Q 300 1200 300 2250 
Q 300 3225 662 3825 
Q 1025 4425 1600 4425 
Q 2150 4425 2512 3850 
Q 2875 3275 2875 2250 
Q 2875 1225 2512 637 
Q 2150 50 1600 50 
z
" transform="scale(0.015625)"/>
       </defs>
       <use xlink:href="#Times New Roman-30"/>
      </g>
     </g>
    </g>
    <g id="xtick_2">
     <g id="line2d_2">
      <g>
       <use xlink:href="#ma4b40f6ac0" x="300.941158" y="384.48" style="stroke: #000000; stroke-width: 0.8"/>
      </g>
     </g>
     <g id="text_2">
      <!-- 100 -->
      <g transform="translate(293.441158 398.628438) scale(0.1 -0.1)">
       <defs>
        <path id="Times New Roman-31" d="M 1825 4450
L 1825 650 
Q 1825 450 1950 350 
Q 2075 250 2300 250 
L 2550 250 
L 2550 100 
L 725 100 
L 725 250 
L 950 250 
Q 1200 250 1312 350 
Q 1425 450 1425 650 
L 1425 3675 
Q 1425 3775 1362 3837 
Q 1300 3900 1175 3900 
L 725 3900 
L 725 4050 
L 950 4050 
Q 1250 4050 1437 4150 
Q 1625 4250 1725 4450 
L 1825 4450 
z
" transform="scale(0.015625)"/>
       </defs>
       <use xlink:href="#Times New Roman-31"/>
       <use xlink:href="#Times New Roman-30" x="50"/>
       <use xlink:href="#Times New Roman-30" x="100"/>
      </g>
     </g>
    </g>
    <g id="xtick_3">
     <g id="line2d_3">
      <g>
       <use xlink:href="#ma4b40f6ac0" x="428.836861" y="384.48" style="stroke: #000000; stroke-width: 0.8"/>
      </g>
     </g>
     <g id="text_3">
      <!-- 200 -->
      <g transform="translate(421.336861 398.628438) scale(0.1 -0.1)">
       <defs>
        <path id="Times New Roman-32" d="M 2325 3325
Q 2325 3775 2125 4012 
Q 1925 4250 1525 4250 
Q 1225 4250 1012 4087 
Q 800 3925 800 3675 
Q 800 3525 900 3425 
Q 975 3325 975 3225 
Q 975 3100 912 3037 
Q 850 2975 725 2975 
Q 575 2975 487 3062 
Q 400 3150 400 3350 
Q 400 3875 775 4150 
Q 1150 4425 1575 4425 
Q 2175 4425 2462 4125 
Q 2750 3825 2750 3375 
Q 2750 3075 2612 2775 
Q 2475 2475 2175 2200 
Q 1450 1500 1062 1062 
Q 675 625 600 475 
L 2075 475 
Q 2300 475 2450 650 
Q 2600 825 2650 1175 
L 2800 1175 
L 2650 100 
L 325 100 
L 325 425 
Q 450 650 737 1000 
Q 1025 1350 1500 1825 
Q 1925 2250 2125 2625 
Q 2325 3000 2325 3325 
z
" transform="scale(0.015625)"/>
       </defs>
       <use xlink:href="#Times New Roman-32"/>
       <use xlink:href="#Times New Roman-30" x="50"/>
       <use xlink:href="#Times New Roman-30" x="100"/>
      </g>
     </g>
    </g>
    <g id="xtick_4">
     <g id="line2d_4">
      <g>
       <use xlink:href="#ma4b40f6ac0" x="556.732564" y="384.48" style="stroke: #000000; stroke-width: 0.8"/>
      </g>
     </g>
     <g id="text_4">
      <!-- 300 -->
      <g transform="translate(549.232564 398.628438) scale(0.1 -0.1)">
       <defs>
        <path id="Times New Roman-33" d="M 2800 1250
Q 2800 775 2450 412 
Q 2100 50 1475 50 
Q 1025 50 700 300 
Q 375 550 375 875 
Q 375 1025 475 1137 
Q 575 1250 675 1250 
Q 825 1250 887 1137 
Q 950 1025 950 950 
Q 950 825 900 750 
Q 850 650 850 575 
Q 850 425 1037 325 
Q 1225 225 1450 225 
Q 1900 225 2125 487 
Q 2350 750 2350 1300 
Q 2350 1750 2112 2025 
Q 1875 2300 1225 2300 
L 1225 2475 
Q 1725 2475 1962 2712 
Q 2200 2950 2200 3375 
Q 2200 3725 2012 3987 
Q 1825 4250 1425 4250 
Q 1250 4250 1050 4162 
Q 850 4075 850 3875 
Q 850 3675 900 3625 
Q 950 3575 950 3500 
Q 950 3375 900 3300 
Q 850 3225 725 3225 
Q 625 3225 537 3300 
Q 450 3375 450 3575 
Q 450 3950 775 4187 
Q 1100 4425 1525 4425 
Q 2025 4425 2325 4112 
Q 2625 3800 2625 3450 
Q 2625 3075 2437 2812 
Q 2250 2550 1850 2425 
Q 2400 2225 2600 1900 
Q 2800 1575 2800 1250 
z
" transform="scale(0.015625)"/>
       </defs>
       <use xlink:href="#Times New Roman-33"/>
       <use xlink:href="#Times New Roman-30" x="50"/>
       <use xlink:href="#Times New Roman-30" x="100"/>
      </g>
     </g>
    </g>
    <g id="xtick_5">
     <g id="line2d_5">
      <g>
       <use xlink:href="#ma4b40f6ac0" x="684.628267" y="384.48" style="stroke: #000000; stroke-width: 0.8"/>
      </g>
     </g>
     <g id="text_5">
      <!-- 400 -->
      <g transform="translate(677.128267 398.628438) scale(0.1 -0.1)">
       <defs>
        <path id="Times New Roman-34" d="M 2300 575
Q 2300 400 2400 325 
Q 2500 250 2675 250 
L 2900 250 
L 2900 100 
L 1250 100 
L 1250 250 
L 1525 250 
Q 1725 250 1812 325 
Q 1900 400 1900 575 
L 1900 1400 
L 225 1400 
L 225 1525 
L 2050 4425 
L 2300 4425 
L 2300 1550 
L 2975 1550 
L 2975 1400 
L 2300 1400 
L 2300 575 
z
M 1875 3800 
L 450 1550 
L 1900 1550 
L 1900 3800 
L 1875 3800 
z
" transform="scale(0.015625)"/>
       </defs>
       <use xlink:href="#Times New Roman-34"/>
       <use xlink:href="#Times New Roman-30" x="50"/>
       <use xlink:href="#Times New Roman-30" x="100"/>
      </g>
     </g>
    </g>
    <g id="xtick_6">
     <g id="line2d_6">
      <g>
       <use xlink:href="#ma4b40f6ac0" x="812.52397" y="384.48" style="stroke: #000000; stroke-width: 0.8"/>
      </g>
     </g>
     <g id="text_6">
      <!-- 500 -->
      <g transform="translate(805.02397 398.628438) scale(0.1 -0.1)">
       <defs>
        <path id="Times New Roman-35" d="M 1725 2850
Q 2200 2850 2500 2487 
Q 2800 2125 2800 1525 
Q 2800 850 2487 450 
Q 2175 50 1525 50 
Q 1075 50 725 312 
Q 375 575 375 950 
Q 375 1100 462 1212 
Q 550 1325 700 1325 
Q 850 1325 900 1225 
Q 950 1125 950 1050 
Q 950 900 875 825 
Q 800 725 800 625 
Q 800 425 1037 325 
Q 1275 225 1550 225 
Q 1950 225 2162 550 
Q 2375 875 2375 1475 
Q 2375 1975 2187 2287 
Q 2000 2600 1625 2600 
Q 1350 2600 1150 2500 
Q 950 2400 775 2075 
L 550 2100 
L 675 4375 
L 2725 4375 
L 2650 4000 
L 850 4000 
L 750 2350 
Q 1000 2700 1237 2775 
Q 1475 2850 1725 2850 
z
" transform="scale(0.015625)"/>
       </defs>
       <use xlink:href="#Times New Roman-35"/>
       <use xlink:href="#Times New Roman-30" x="50"/>
       <use xlink:href="#Times New Roman-30" x="100"/>
      </g>
     </g>
    </g>
    <g id="xtick_7">
     <g id="line2d_7">
      <g>
       <use xlink:href="#ma4b40f6ac0" x="940.419673" y="384.48" style="stroke: #000000; stroke-width: 0.8"/>
      </g>
     </g>
     <g id="text_7">
      <!-- 600 -->
      <g transform="translate(932.919673 398.628438) scale(0.1 -0.1)">
       <defs>
        <path id="Times New Roman-36" d="M 775 1800
Q 775 1050 1037 637 
Q 1300 225 1675 225 
Q 2050 225 2250 500 
Q 2450 775 2450 1525 
Q 2450 2025 2237 2300 
Q 2025 2575 1725 2575 
Q 1450 2575 1212 2412 
Q 975 2250 775 1800 
z
M 1750 2825 
Q 2350 2825 2612 2425 
Q 2875 2025 2875 1525 
Q 2875 775 2512 412 
Q 2150 50 1675 50 
Q 1000 50 650 562 
Q 300 1075 300 2050 
Q 300 3200 725 3812 
Q 1150 4425 1875 4425 
Q 2225 4425 2437 4225 
Q 2650 4025 2650 3875 
Q 2650 3725 2587 3650 
Q 2525 3575 2375 3575 
Q 2250 3575 2187 3637 
Q 2125 3700 2125 3825 
Q 2125 3875 2150 3925 
Q 2150 3975 2150 4025 
Q 2150 4125 2075 4187 
Q 2000 4250 1800 4250 
Q 1375 4250 1075 3862 
Q 775 3475 775 2175 
Q 925 2500 1187 2662 
Q 1450 2825 1750 2825 
z
" transform="scale(0.015625)"/>
       </defs>
       <use xlink:href="#Times New Roman-36"/>
       <use xlink:href="#Times New Roman-30" x="50"/>
       <use xlink:href="#Times New Roman-30" x="100"/>
      </g>
     </g>
    </g>
   </g>
   <g id="matplotlib.axis_2">
    <g id="ytick_1">
     <g id="line2d_8">
      <defs>
       <path id="m5196a19bab" d="M 0 0 
L -3.5 0 
" style="stroke: #000000; stroke-width: 0.8"/>
      </defs>
      <g>
       <use xlink:href="#m5196a19bab" x="135" y="370.140637" style="stroke: #000000; stroke-width: 0.8"/>
      </g>
     </g>
     <g id="text_8">
      <!-- 0 -->
      <g transform="translate(123 373.714856) scale(0.1 -0.1)">
       <use xlink:href="#Times New Roman-30"/>
      </g>
     </g>
    </g>
    <g id="ytick_2">
     <g id="line2d_9">
      <g>
       <use xlink:href="#m5196a19bab" x="135" y="309.153373" style="stroke: #000000; stroke-width: 0.8"/>
      </g>
     </g>
     <g id="text_9">
      <!-- 1000 -->
      <g transform="translate(108 312.727591) scale(0.1 -0.1)">
       <use xlink:href="#Times New Roman-31"/>
       <use xlink:href="#Times New Roman-30" x="50"/>
       <use xlink:href="#Times New Roman-30" x="100"/>
       <use xlink:href="#Times New Roman-30" x="150"/>
      </g>
     </g>
    </g>
    <g id="ytick_3">
     <g id="line2d_10">
      <g>
       <use xlink:href="#m5196a19bab" x="135" y="248.166108" style="stroke: #000000; stroke-width: 0.8"/>
      </g>
     </g>
     <g id="text_10">
      <!-- 2000 -->
      <g transform="translate(108 251.740327) scale(0.1 -0.1)">
       <use xlink:href="#Times New Roman-32"/>
       <use xlink:href="#Times New Roman-30" x="50"/>
       <use xlink:href="#Times New Roman-30" x="100"/>
       <use xlink:href="#Times New Roman-30" x="150"/>
      </g>
     </g>
    </g>
    <g id="ytick_4">
     <g id="line2d_11">
      <g>
       <use xlink:href="#m5196a19bab" x="135" y="187.178844" style="stroke: #000000; stroke-width: 0.8"/>
      </g>
     </g>
     <g id="text_11">
      <!-- 3000 -->
      <g transform="translate(108 190.753062) scale(0.1 -0.1)">
       <use xlink:href="#Times New Roman-33"/>
       <use xlink:href="#Times New Roman-30" x="50"/>
       <use xlink:href="#Times New Roman-30" x="100"/>
       <use xlink:href="#Times New Roman-30" x="150"/>
      </g>
     </g>
    </g>
    <g id="ytick_5">
     <g id="line2d_12">
      <g>
       <use xlink:href="#m5196a19bab" x="135" y="126.191579" style="stroke: #000000; stroke-width: 0.8"/>
      </g>
     </g>
     <g id="text_12">
      <!-- 4000 -->
      <g transform="translate(108 129.765798) scale(0.1 -0.1)">
       <use xlink:href="#Times New Roman-34"/>
       <use xlink:href="#Times New Roman-30" x="50"/>
       <use xlink:href="#Times New Roman-30" x="100"/>
       <use xlink:href="#Times New Roman-30" x="150"/>
      </g>
     </g>
    </g>
    <g id="ytick_6">
     <g id="line2d_13">
      <g>
       <use xlink:href="#m5196a19bab" x="135" y="65.204315" style="stroke: #000000; stroke-width: 0.8"/>
      </g>
     </g>
     <g id="text_13">
      <!-- 5000 -->
      <g transform="translate(108 68.778534) scale(0.1 -0.1)">
       <use xlink:href="#Times New Roman-35"/>
       <use xlink:href="#Times New Roman-30" x="50"/>
       <use xlink:href="#Times New Roman-30" x="100"/>
       <use xlink:href="#Times New Roman-30" x="150"/>
      </g>
     </g>
    </g>
    <g id="text_14">
     <!-- Bitrate (kbps) -->
     <g transform="translate(102.710938 253.16) rotate(-90) scale(0.1 -0.1)">
      <defs>
       <path id="Times New Roman-42" d="M 100 100
L 100 250 
L 300 250 
Q 425 250 475 300 
Q 525 350 525 450 
L 525 4025 
Q 525 4125 475 4175 
Q 425 4225 300 4225 
L 150 4225 
L 150 4375 
L 1600 4375 
Q 2200 4375 2487 4137 
Q 2775 3900 2775 3400 
Q 2775 3050 2625 2825 
Q 2475 2600 2000 2425 
Q 2575 2250 2775 1925 
Q 2975 1600 2975 1200 
Q 2975 700 2625 400 
Q 2275 100 1675 100 
L 100 100 
z
M 1600 250 
Q 2025 250 2262 512 
Q 2500 775 2500 1250 
Q 2500 1800 2250 2062 
Q 2000 2325 1500 2325 
L 925 2325 
L 925 450 
Q 925 350 987 300 
Q 1050 250 1150 250 
L 1600 250 
z
M 2350 3400 
Q 2350 3850 2100 4037 
Q 1850 4225 1450 4225 
L 1150 4225 
Q 1050 4225 987 4175 
Q 925 4125 925 4025 
L 925 2475 
L 1575 2475 
Q 1850 2475 2100 2700 
Q 2350 2925 2350 3400 
z
" transform="scale(0.015625)"/>
       <path id="Times New Roman-69" d="M 1425 2525
Q 1425 2625 1375 2687 
Q 1325 2750 1200 2750 
L 675 2750 
L 675 2900 
L 925 2900 
Q 1150 2900 1350 2937 
Q 1550 2975 1725 3075 
L 1775 3075 
L 1775 450 
Q 1775 350 1837 300 
Q 1900 250 2000 250 
L 2525 250 
L 2525 100 
L 675 100 
L 675 250 
L 1200 250 
Q 1325 250 1375 300 
Q 1425 350 1425 450 
L 1425 2525 
z
M 1725 3025 
L 1725 3025 
z
M 1625 4425 
Q 1750 4425 1850 4337 
Q 1950 4250 1950 4125 
Q 1950 4000 1850 3900 
Q 1750 3800 1625 3800 
Q 1500 3800 1400 3900 
Q 1300 4000 1300 4125 
Q 1300 4250 1400 4337 
Q 1500 4425 1625 4425 
z
" transform="scale(0.015625)"/>
       <path id="Times New Roman-74" d="M 1500 900
Q 1500 550 1625 425 
Q 1750 300 2000 300 
Q 2250 300 2400 462 
Q 2550 625 2600 925 
L 2725 875 
Q 2675 525 2462 300 
Q 2250 75 1900 75 
Q 1525 75 1337 300 
Q 1150 525 1150 1000 
L 1150 2750 
L 400 2750 
L 400 2900 
L 600 2900 
Q 900 2900 1087 3087 
Q 1275 3275 1325 3675 
L 1350 3875 
L 1500 3875 
L 1500 2900 
L 2500 2900 
L 2500 2750 
L 1500 2750 
L 1500 900 
z
" transform="scale(0.015625)"/>
       <path id="Times New Roman-72" d="M 1275 2125
Q 1525 2525 1812 2737 
Q 2100 2950 2400 2950 
Q 2650 2950 2787 2837 
Q 2925 2725 2925 2575 
Q 2925 2450 2862 2375 
Q 2800 2300 2675 2300 
Q 2550 2300 2487 2375 
Q 2425 2450 2450 2575 
Q 2450 2650 2425 2700 
Q 2400 2750 2275 2750 
Q 2075 2750 1787 2500 
Q 1500 2250 1275 1800 
L 1275 450 
Q 1275 350 1337 300 
Q 1400 250 1500 250 
L 2050 250 
L 2050 100 
L 200 100 
L 200 250 
L 700 250 
Q 825 250 875 300 
Q 925 350 925 450 
L 925 2525 
Q 925 2625 875 2687 
Q 825 2750 700 2750 
L 225 2750 
L 225 2900 
L 425 2900 
Q 600 2900 837 2937 
Q 1075 2975 1200 3025 
L 1275 3025 
L 1275 2125 
z
" transform="scale(0.015625)"/>
       <path id="Times New Roman-61" d="M 1225 75
Q 775 75 525 287 
Q 275 500 275 775 
Q 275 1225 662 1512 
Q 1050 1800 2200 1925 
L 2200 2225 
Q 2200 2475 2087 2637 
Q 1975 2800 1575 2800 
Q 1150 2800 975 2662 
Q 800 2525 850 2375 
Q 875 2325 875 2275 
Q 875 2225 837 2150 
Q 800 2075 650 2075 
Q 550 2075 487 2137 
Q 425 2200 425 2325 
Q 425 2550 750 2750 
Q 1075 2950 1550 2950 
Q 2050 2950 2300 2762 
Q 2550 2575 2550 2225 
L 2550 575 
Q 2550 375 2587 337 
Q 2625 300 2725 300 
Q 2850 300 2900 412 
Q 2950 525 2950 725 
L 3075 725 
Q 3075 375 2950 237 
Q 2825 100 2625 100 
Q 2450 100 2350 175 
Q 2250 250 2200 425 
Q 1950 250 1737 162 
Q 1525 75 1225 75 
z
M 700 850 
Q 700 625 837 437 
Q 975 250 1275 250 
Q 1500 250 1725 337 
Q 1950 425 2200 600 
L 2200 1775 
Q 1350 1675 1025 1437 
Q 700 1200 700 850 
z
" transform="scale(0.015625)"/>
       <path id="Times New Roman-65" d="M 2400 1650
Q 2425 2200 2212 2487 
Q 2000 2775 1650 2775 
Q 1275 2775 1037 2475 
Q 800 2175 800 1650 
L 2400 1650 
z
M 800 1500 
Q 800 825 1062 537 
Q 1325 250 1750 250 
Q 2075 250 2300 437 
Q 2525 625 2625 900 
L 2750 850 
Q 2675 575 2412 312 
Q 2150 50 1700 50 
Q 1125 50 762 425 
Q 400 800 400 1500 
Q 400 2125 762 2537 
Q 1125 2950 1650 2950 
Q 2125 2950 2475 2625 
Q 2825 2300 2825 1500 
L 800 1500 
z
" transform="scale(0.015625)"/>
       <path id="Times New Roman-20" d="M 0 0
Q 0 0 0 0 
z
" transform="scale(0.015625)"/>
       <path id="Times New Roman-28" d="M 2900 5025
Q 2325 4425 2037 3737 
Q 1750 3050 1750 2300 
Q 1750 1525 2037 850 
Q 2325 175 2900 -425 
L 2775 -550 
Q 2075 75 1725 787 
Q 1375 1500 1375 2300 
Q 1375 3075 1725 3787 
Q 2075 4500 2775 5150 
L 2900 5025 
z
" transform="scale(0.015625)"/>
       <path id="Times New Roman-6b" d="M 1675 1900
L 2625 425 
Q 2700 325 2762 287 
Q 2825 250 2900 250 
L 3000 250 
L 3000 100 
L 1975 100 
L 1975 250 
L 2050 250 
Q 2175 250 2225 287 
Q 2275 325 2200 425 
L 1425 1650 
L 925 1125 
L 925 450 
Q 925 350 987 300 
Q 1050 250 1150 250 
L 1275 250 
L 1275 100 
L 225 100 
L 225 250 
L 350 250 
Q 475 250 525 300 
Q 575 350 575 450 
L 575 4025 
Q 575 4125 525 4175 
Q 475 4225 350 4225 
L 200 4225 
L 200 4375 
L 425 4375 
Q 575 4375 687 4425 
Q 800 4475 875 4575 
L 925 4575 
L 925 1400 
L 1975 2525 
Q 2025 2625 2012 2687 
Q 2000 2750 1900 2750 
L 1750 2750 
L 1750 2900 
L 2800 2900 
L 2800 2750 
L 2675 2750 
Q 2600 2750 2487 2712 
Q 2375 2675 2275 2575 
L 1675 1900 
z
M 2450 2750 
L 2450 2750 
z
M 2175 2750 
L 2175 2750 
z
M 2300 250 
L 2300 250 
z
M 2750 250 
L 2750 250 
z
" transform="scale(0.015625)"/>
       <path id="Times New Roman-62" d="M 875 2325
Q 1000 2600 1275 2762 
Q 1550 2925 1800 2925 
Q 2325 2925 2587 2562 
Q 2850 2200 2850 1500 
Q 2850 800 2512 437 
Q 2175 75 1675 75 
Q 1425 75 1212 162 
Q 1000 250 850 400 
L 625 100 
L 525 100 
L 525 4025 
Q 525 4125 475 4175 
Q 425 4225 300 4225 
L 150 4225 
L 150 4375 
L 375 4375 
Q 500 4375 625 4425 
Q 750 4475 875 4575 
L 875 2325 
z
M 875 925 
Q 875 650 1062 450 
Q 1250 250 1625 250 
Q 2075 250 2262 562 
Q 2450 875 2450 1500 
Q 2450 2100 2287 2412 
Q 2125 2725 1775 2725 
Q 1475 2725 1250 2550 
Q 1025 2375 875 1925 
L 875 925 
z
" transform="scale(0.015625)"/>
       <path id="Times New Roman-70" d="M 1150 -675
L 1325 -675 
L 1325 -825 
L 175 -825 
L 175 -675 
L 325 -675 
Q 450 -675 500 -625 
Q 550 -575 550 -450 
L 550 2500 
Q 550 2600 500 2662 
Q 450 2725 325 2725 
L 175 2725 
L 175 2875 
L 400 2875 
Q 525 2875 637 2900 
Q 750 2925 850 3000 
L 900 3000 
L 900 2425 
Q 1075 2675 1287 2800 
Q 1500 2925 1750 2925 
Q 2250 2925 2575 2587 
Q 2900 2250 2900 1525 
Q 2900 825 2550 450 
Q 2200 75 1725 75 
Q 1450 75 1262 162 
Q 1075 250 900 425 
L 900 -450 
Q 900 -575 975 -625 
Q 1050 -675 1150 -675 
z
M 900 750 
Q 1025 500 1212 375 
Q 1400 250 1650 250 
Q 2000 250 2250 562 
Q 2500 875 2500 1525 
Q 2500 2125 2312 2425 
Q 2125 2725 1750 2725 
Q 1525 2725 1300 2587 
Q 1075 2450 900 2150 
L 900 750 
z
" transform="scale(0.015625)"/>
       <path id="Times New Roman-73" d="M 625 2175
Q 625 2550 912 2750 
Q 1200 2950 1600 2950 
Q 1825 2950 2025 2900 
Q 2225 2825 2300 2825 
Q 2375 2825 2425 2850 
Q 2475 2875 2550 2950 
L 2650 2125 
L 2500 2100 
Q 2400 2425 2162 2612 
Q 1925 2800 1625 2800 
Q 1300 2800 1112 2675 
Q 925 2550 925 2325 
Q 925 2125 1012 2012 
Q 1100 1900 1325 1850 
Q 1500 1775 1775 1700 
Q 2025 1600 2250 1500 
Q 2450 1400 2587 1237 
Q 2725 1075 2725 875 
Q 2725 500 2462 287 
Q 2200 75 1700 75 
Q 1375 75 1225 150 
Q 1050 200 950 200 
Q 875 200 787 162 
Q 700 125 600 75 
L 525 1000 
L 675 1025 
Q 750 625 1000 425 
Q 1250 225 1700 225 
Q 2050 225 2237 350 
Q 2425 475 2425 725 
Q 2425 900 2325 1012 
Q 2225 1125 2125 1175 
Q 1875 1275 1575 1400 
Q 1275 1500 1050 1600 
Q 825 1700 725 1850 
Q 625 2000 625 2175 
z
" transform="scale(0.015625)"/>
       <path id="Times New Roman-29" d="M 275 5025
L 400 5150 
Q 1100 4500 1450 3787 
Q 1800 3075 1800 2300 
Q 1800 1500 1450 787 
Q 1100 75 400 -550 
L 275 -425 
Q 850 175 1137 850 
Q 1425 1525 1425 2300 
Q 1425 3050 1137 3737 
Q 850 4425 275 5025 
z
" transform="scale(0.015625)"/>
      </defs>
      <use xlink:href="#Times New Roman-42"/>
      <use xlink:href="#Times New Roman-69" x="50"/>
      <use xlink:href="#Times New Roman-74" x="100"/>
      <use xlink:href="#Times New Roman-72" x="150"/>
      <use xlink:href="#Times New Roman-61" x="200"/>
      <use xlink:href="#Times New Roman-74" x="250"/>
      <use xlink:href="#Times New Roman-65" x="300"/>
      <use xlink:href="#Times New Roman-20" x="350"/>
      <use xlink:href="#Times New Roman-28" x="400"/>
      <use xlink:href="#Times New Roman-6b" x="450"/>
      <use xlink:href="#Times New Roman-62" x="500"/>
      <use xlink:href="#Times New Roman-70" x="550"/>
      <use xlink:href="#Times New Roman-73" x="600"/>
      <use xlink:href="#Times New Roman-29" x="650"/>
     </g>
    </g>
   </g>
   <g id="line2d_14">
    <path d="M 173.045455 361.480445 
L 193.093106 361.480445 
L 193.591899 330.681877 
L 199.62346 330.681877 
L 200.820564 303.481557 
L 208.617086 303.481557 
L 209.131227 254.020886 
L 234.454576 254.020886 
L 235.736091 133.144127 
L 260.506931 133.144127 
L 262.949739 254.020886 
L 289.974101 254.020886 
L 291.021567 330.681877 
L 314.944458 330.681877 
L 316.24132 361.480445 
L 344.565103 361.480445 
L 346.56795 330.681877 
L 349.407234 330.681877 
L 349.506993 303.481557 
L 359.325546 303.481557 
L 359.34473 254.020886 
L 386.704179 254.020886 
L 387.92942 133.144127 
L 449.837335 133.144127 
L 450.531809 330.681877 
L 502.882078 330.681877 
L 502.981837 303.481557 
L 512.80039 303.481557 
L 512.819574 254.020886 
L 542.685779 254.020886 
L 543.936599 133.144127 
L 585.854416 133.144127 
L 586.21636 254.020886 
L 618.741517 254.020886 
L 619.423201 361.480445 
L 647.839068 361.480445 
L 648.649927 330.681877 
L 656.456681 330.681877 
L 657.653784 303.481557 
L 666.294418 303.481557 
L 667.802308 254.020886 
L 693.653867 254.020886 
L 694.879108 133.144127 
L 747.536327 133.144127 
L 748.257658 303.481557 
L 760.814458 303.481557 
L 761.448821 330.681877 
L 769.717278 330.681877 
L 770.391289 361.480445 
L 802.124771 361.480445 
L 802.503342 330.681877 
L 813.522836 330.681877 
L 814.719939 303.481557 
L 819.769262 303.481557 
L 821.277152 254.020886 
L 847.12871 254.020886 
L 848.353951 133.144127 
L 921.804454 133.144127 
L 922.58206 361.480445 
L 933.954545 361.480445 
L 933.954545 361.480445 
" clip-path="url(#pc8e57bcf9a)" style="fill: none; stroke: #ff0000; stroke-width: 1.5; stroke-linecap: square"/>
   </g>
   <g id="line2d_15">
    <path d="M 173.045455 369.36 
L 175.566279 334.53493 
L 176.249242 315.187669 
L 178.041061 270.394313 
L 178.571828 240.689628 
L 180.009375 202.267239 
L 180.4698 170.512667 
L 181.275543 139.307972 
L 182.852497 128.226212 
L 183.769509 125.500293 
L 186.212317 131.672301 
L 186.973296 135.497748 
L 188.225395 140.638633 
L 188.603967 143.739225 
L 190.687388 147.710976 
L 191.090259 151.050801 
L 193.093106 157.355226 
L 193.591899 163.427248 
L 195.932391 172.930527 
L 196.032149 182.517107 
L 197.179374 192.03008 
L 198.822833 198.805781 
L 199.62346 205.329727 
L 200.820564 209.120891 
L 201.311684 212.265979 
L 202.167306 215.252794 
L 205.869887 241.07825 
L 207.377777 246.954169 
L 208.617086 253.079437 
L 209.131227 256.477648 
L 211.095705 259.903018 
L 211.983301 263.269905 
L 212.335015 269.334836 
L 213.236679 275.138319 
L 214.284145 280.127468 
L 215.462064 284.902429 
L 219.625069 299.217067 
L 220.319543 304.405799 
L 222.010324 309.475776 
L 223.059069 314.218471 
L 224.286868 318.682706 
L 225.663026 322.832572 
L 226.707934 326.688268 
L 227.970264 330.183896 
L 231.945263 338.984764 
L 233.229335 342.727561 
L 234.454576 346.930641 
L 235.736091 350.7287 
L 236.986911 352.816416 
L 238.207036 353.53187 
L 239.503899 352.792964 
L 240.133146 351.516232 
L 240.759834 349.76959 
L 242.04007 348.508893 
L 243.317749 346.946058 
L 248.218712 344.527385 
L 249.782876 340.440978 
L 250.623151 335.723068 
L 252.303701 331.385003 
L 252.986664 328.100441 
L 254.778482 327.564891 
L 256.746797 331.340051 
L 257.207222 333.553775 
L 258.012965 335.289424 
L 259.589919 335.92535 
L 260.506931 334.820912 
L 262.949739 329.19704 
L 263.710718 319.127669 
L 264.962817 305.881203 
L 265.341389 290.867992 
L 267.42481 275.931024 
L 267.827681 263.21435 
L 269.830528 254.659772 
L 270.329321 248.180062 
L 272.669812 241.246639 
L 272.769571 234.13676 
L 273.916795 227.579995 
L 275.560255 223.641552 
L 276.360882 223.058578 
L 278.049106 222.129946 
L 278.904728 219.161053 
L 280.151711 212.917551 
L 281.359046 204.188696 
L 282.607309 192.105964 
L 285.354508 170.524734 
L 285.868649 163.652917 
L 287.833127 156.768837 
L 288.720723 150.103433 
L 289.974101 151.563778 
L 291.021567 169.502848 
L 292.199486 193.949276 
L 293.492512 224.76388 
L 294.727984 248.332124 
L 294.885296 267.263481 
L 296.362491 273.693263 
L 297.056965 273.3289 
L 298.747746 276.582823 
L 299.796491 276.374686 
L 301.02429 277.896505 
L 302.400448 271.60932 
L 303.445355 274.859047 
L 306.141397 235.050756 
L 307.431865 194.710429 
L 308.682685 168.564099 
L 309.966757 134.046479 
L 311.191998 121.741949 
L 312.473513 114.515429 
L 313.724333 122.869839 
L 314.944458 112.833384 
L 316.24132 112.532058 
L 317.497256 103.07565 
L 318.777492 103.606776 
L 320.05517 95.200909 
L 324.956134 105.510001 
L 326.520298 107.589488 
L 327.360573 110.679769 
L 329.041123 106.276554 
L 329.724086 111.700192 
L 331.515904 108.628386 
L 332.046671 104.718598 
L 333.484219 100.292288 
L 333.944644 103.6273 
L 334.750387 106.834482 
L 336.327341 109.91146 
L 337.244353 114.151913 
L 339.687161 119.394963 
L 340.44814 125.280283 
L 341.700239 131.56015 
L 342.078811 137.885782 
L 344.162231 144.31771 
L 344.565103 150.414225 
L 346.56795 156.739206 
L 347.066743 163.042231 
L 349.407234 176.311661 
L 349.506993 182.433059 
L 350.654217 187.519559 
L 352.297677 192.822361 
L 353.098304 197.660034 
L 354.786527 203.604227 
L 355.64215 209.521878 
L 359.325546 229.377932 
L 359.34473 235.089365 
L 360.852621 240.885953 
L 362.09193 246.206774 
L 362.606071 251.937918 
L 364.570549 257.459559 
L 365.458145 263.346863 
L 366.711523 269.387757 
L 367.758989 275.716251 
L 368.936908 281.806423 
L 370.229934 287.8319 
L 371.622718 293.579957 
L 373.099913 299.12196 
L 373.794387 304.422777 
L 375.485168 309.473239 
L 376.533913 314.247289 
L 377.761712 318.730813 
L 379.13787 322.910506 
L 380.182777 326.717347 
L 381.445108 330.176024 
L 384.169287 336.017758 
L 385.420106 339.323789 
L 386.030169 343.10591 
L 386.704179 346.488019 
L 387.92942 348.620492 
L 389.210935 349.539594 
L 390.461755 349.279024 
L 391.68188 347.874658 
L 392.978742 346.165746 
L 394.234678 345.014242 
L 395.514914 344.373014 
L 396.792592 343.34576 
L 401.693556 341.558427 
L 403.25772 338.734635 
L 404.097995 335.094395 
L 405.778544 330.661841 
L 406.461507 325.971188 
L 408.253326 321.180647 
L 408.784093 316.91723 
L 410.221641 312.660319 
L 410.682066 308.783546 
L 411.487809 304.719127 
L 413.064763 300.885581 
L 413.981775 296.527838 
L 416.424583 291.572452 
L 417.185562 285.997045 
L 418.437661 279.885145 
L 418.816232 273.58316 
L 420.899653 267.187011 
L 421.302525 264.339898 
L 423.305372 266.223608 
L 423.804165 276.135843 
L 426.144656 288.038703 
L 426.244415 304.874961 
L 427.391639 320.540427 
L 427.441519 336.438099 
L 429.035099 334.920996 
L 429.835726 321.596824 
L 431.523949 297.346726 
L 432.379572 275.787777 
L 433.626555 248.942029 
L 434.83389 227.31061 
L 436.082152 210.358753 
L 437.590043 199.3708 
L 438.829352 184.483695 
L 439.343493 175.228723 
L 441.307971 183.10883 
L 442.195567 201.305316 
L 443.448945 229.332753 
L 445.67433 272.447301 
L 446.967356 277.723919 
L 448.36014 289.400525 
L 449.837335 287.120935 
L 450.531809 299.249334 
L 452.22259 297.843211 
L 453.271335 307.411837 
L 454.499133 300.397976 
L 455.875291 304.379615 
L 456.920199 292.410889 
L 458.18253 290.008088 
L 459.616241 267.685578 
L 460.906708 262.930653 
L 462.157528 247.378055 
L 463.441601 247.066548 
L 464.666842 228.707528 
L 465.948357 233.666752 
L 467.199177 224.650688 
L 468.419302 231.468901 
L 469.716164 219.187757 
L 470.9721 229.011228 
L 472.252336 221.703946 
L 473.530014 224.631367 
L 478.430978 210.980465 
L 479.995142 212.152917 
L 480.835417 199.791791 
L 482.515966 195.955838 
L 483.198929 185.232586 
L 484.990748 192.696516 
L 485.521515 198.518734 
L 486.959063 221.728405 
L 487.419487 244.784974 
L 488.22523 265.905563 
L 489.802185 275.318679 
L 490.719197 277.761227 
L 493.162004 274.822161 
L 493.922984 264.961318 
L 495.175083 257.704126 
L 495.553654 250.615649 
L 497.637075 249.245566 
L 498.039947 239.420014 
L 500.042793 232.023804 
L 500.541587 220.904053 
L 501.769385 210.727572 
L 502.882078 206.141264 
L 502.981837 207.457971 
L 505.772521 220.868957 
L 506.573148 227.601723 
L 508.261371 230.717343 
L 509.116994 230.552043 
L 510.363977 230.922097 
L 511.571312 232.178045 
L 512.80039 236.078172 
L 512.819574 242.636043 
L 515.566774 259.288949 
L 516.080915 265.633251 
L 518.045393 269.190191 
L 518.932989 271.197892 
L 520.186367 272.772664 
L 521.233833 277.62325 
L 522.411752 285.354776 
L 523.704777 295.584666 
L 525.097562 307.934505 
L 526.574757 322.460013 
L 527.269231 337.04254 
L 528.960012 348.815619 
L 530.008757 354.928657 
L 531.236555 355.589206 
L 532.612713 351.359454 
L 534.919952 338.94596 
L 536.353663 339.03723 
L 537.64413 340.495817 
L 538.89495 341.334384 
L 542.685779 346.860546 
L 543.936599 348.005773 
L 545.156724 348.805308 
L 546.453586 348.147133 
L 547.709522 346.811073 
L 548.989758 345.1221 
L 550.267436 342.777066 
L 556.732564 341.073521 
L 557.572838 341.69055 
L 559.253388 340.983683 
L 559.936351 338.285899 
L 561.72817 333.074399 
L 562.258937 327.446559 
L 563.696485 321.340482 
L 564.156909 317.422237 
L 564.962652 315.612981 
L 566.539606 317.808848 
L 567.456619 321.336969 
L 569.899426 325.971611 
L 570.660406 329.726182 
L 571.912505 328.426942 
L 572.291076 320.509429 
L 574.374497 305.311728 
L 574.777369 294.225804 
L 576.780215 287.339708 
L 577.279008 292.493051 
L 579.6195 300.551631 
L 579.719259 316.816951 
L 580.866483 327.682702 
L 582.509943 327.454561 
L 583.31057 310.393512 
L 584.998793 287.811571 
L 585.854416 264.882799 
L 586.21636 247.249022 
L 587.101399 239.99362 
L 588.308734 243.573523 
L 589.556996 257.864872 
L 591.064886 264.450391 
L 592.304196 273.258741 
L 592.818336 273.309027 
L 594.782814 281.883674 
L 595.670411 274.33654 
L 596.923789 279.736531 
L 597.971254 271.440019 
L 599.149174 265.606677 
L 600.442199 234.108983 
L 603.312179 181.194188 
L 604.006652 158.246811 
L 606.746179 121.407999 
L 607.973977 114.217031 
L 609.350135 102.324482 
L 610.395043 90.909682 
L 611.657374 82.64072 
L 613.091084 85.459438 
L 614.381552 108.352008 
L 615.632372 138.221911 
L 616.916445 181.473233 
L 618.141686 213.107896 
L 618.741517 240.776989 
L 619.423201 243.622313 
L 620.674021 238.126564 
L 623.191008 183.8801 
L 624.446944 149.126401 
L 627.004858 93.542023 
L 631.905821 76.997691 
L 633.469986 75.070883 
L 634.31026 80.083744 
L 635.99081 84.738227 
L 636.673773 89.865743 
L 638.465592 101.666665 
L 638.996359 117.935888 
L 640.433907 133.775012 
L 640.894331 142.270359 
L 641.700074 146.186457 
L 643.277028 142.184001 
L 644.194041 133.723946 
L 646.636848 125.599791 
L 647.397828 126.029695 
L 647.839068 135.209075 
L 648.649927 147.597459 
L 649.028498 159.666659 
L 651.111919 171.330677 
L 651.514791 179.550849 
L 652.773284 184.378113 
L 653.517637 182.845723 
L 654.01643 181.452904 
L 656.356922 180.447411 
L 656.456681 183.134364 
L 657.603905 185.418215 
L 657.653784 190.528459 
L 659.247365 195.563861 
L 660.047992 200.448014 
L 661.736215 205.711328 
L 662.591837 210.949923 
L 663.83882 223.535385 
L 665.046156 238.387784 
L 666.294418 261.620647 
L 667.802308 279.908629 
L 669.555758 309.42601 
L 671.520236 317.613851 
L 672.407833 313.407551 
L 673.66121 315.48668 
L 674.708676 311.764961 
L 675.886596 314.272237 
L 677.179621 311.672586 
L 678.572405 311.762391 
L 680.049601 309.589586 
L 680.744074 309.90698 
L 682.434856 310.849924 
L 683.483601 314.205655 
L 684.711399 318.67568 
L 686.087557 322.844282 
L 687.132465 326.690968 
L 688.394795 330.19798 
L 691.118974 336.083072 
L 692.369794 338.513943 
L 694.879108 342.622045 
L 695.478938 344.624184 
L 696.160623 347.877261 
L 697.411442 351.958984 
L 698.631567 357.014161 
L 701.184366 365.583734 
L 702.464602 368.063622 
L 703.74228 369.328319 
L 708.643243 367.42942 
L 710.207408 362.873752 
L 711.047682 355.667757 
L 712.728232 348.294283 
L 713.411195 341.459741 
L 715.203014 338.519375 
L 715.733781 335.98559 
L 717.171329 333.485307 
L 717.631753 327.114951 
L 718.437496 319.443859 
L 720.01445 309.090596 
L 720.931462 299.785436 
L 723.37427 291.465797 
L 724.13525 285.881706 
L 725.387349 279.815213 
L 725.76592 275.233134 
L 727.849341 270.463052 
L 728.252212 265.96964 
L 730.255059 259.636886 
L 730.753852 253.23036 
L 733.094344 244.559825 
L 733.194102 235.943024 
L 734.341327 227.673119 
L 735.984787 221.151059 
L 736.785414 214.986369 
L 738.473637 208.345035 
L 739.329259 202.01872 
L 743.03184 182.609483 
L 744.53973 176.5829 
L 745.77904 170.319459 
L 746.29318 164.034681 
L 747.536327 157.261126 
L 748.257658 150.896105 
L 749.145254 145.245172 
L 750.398632 146.982447 
L 751.446098 157.339613 
L 752.624018 182.098491 
L 753.917043 201.649186 
L 755.309827 228.105657 
L 756.787023 243.648952 
L 757.481496 259.684797 
L 759.172277 253.001341 
L 760.221022 255.648514 
L 760.814458 255.447272 
L 761.448821 256.499831 
L 762.824979 253.01497 
L 763.869887 244.470182 
L 765.132217 231.838598 
L 767.856396 175.73695 
L 769.107216 142.436928 
L 770.391289 96.214371 
L 772.898044 76.438332 
L 774.148864 70.128898 
L 775.368989 68.524006 
L 777.295099 66.96 
L 777.921788 67.499843 
L 779.202024 67.864726 
L 780.479702 68.837627 
L 785.380665 70.498009 
L 786.94483 75.199266 
L 787.785104 82.43486 
L 789.465654 90.74448 
L 790.148617 97.516766 
L 791.940436 102.278457 
L 792.471203 104.879116 
L 794.369175 105.935578 
L 796.751872 111.636408 
L 797.668884 115.73589 
L 800.111692 125.612574 
L 800.872671 141.271729 
L 802.124771 157.539749 
L 802.503342 168.834037 
L 804.843833 175.871089 
L 804.989634 171.148756 
L 806.992481 166.262164 
L 807.491274 166.67138 
L 809.831766 172.3605 
L 809.931524 178.104915 
L 811.078749 183.883385 
L 812.722209 190.189891 
L 813.522836 196.392279 
L 814.719939 202.603417 
L 815.211059 208.350922 
L 816.066681 214.216986 
L 818.521 225.099521 
L 819.769262 232.729109 
L 821.277152 240.714668 
L 822.516461 249.140538 
L 823.030602 255.604375 
L 824.99508 262.523876 
L 825.882676 267.079056 
L 827.136054 271.507707 
L 828.18352 275.669543 
L 829.361439 281.871801 
L 830.654465 287.921608 
L 832.047249 293.703461 
L 833.524444 299.250374 
L 834.218918 304.51834 
L 835.909699 309.538519 
L 836.958444 314.202012 
L 838.186243 318.621035 
L 839.562401 322.765697 
L 840.607309 326.658084 
L 841.869639 330.202338 
L 843.30335 333.331879 
L 844.593818 337.387679 
L 845.844638 342.752184 
L 847.12871 355.798839 
L 848.353951 360.154826 
L 848.953782 361.202929 
L 850.886286 355.381719 
L 852.106411 351.200953 
L 853.403274 348.150093 
L 854.65921 346.53154 
L 855.939445 345.578675 
L 857.217124 344.197891 
L 862.118087 341.989924 
L 863.682251 339.26459 
L 864.522526 335.830471 
L 866.203076 332.451093 
L 866.886039 329.546961 
L 868.677857 329.762742 
L 870.646172 334.795639 
L 871.106597 338.135984 
L 871.91234 339.085954 
L 873.489294 333.567599 
L 874.406306 323.420034 
L 876.849114 310.101781 
L 877.610093 296.204459 
L 878.862192 283.30684 
L 879.240764 273.684871 
L 881.324185 267.228027 
L 881.727056 261.004757 
L 883.729903 254.734225 
L 884.228696 248.349851 
L 886.569188 241.349911 
L 886.668946 234.223801 
L 887.81617 227.594144 
L 889.45963 220.956128 
L 890.260257 214.820711 
L 891.948481 208.316672 
L 892.804103 202.36516 
L 894.051086 195.857055 
L 895.258421 190.191289 
L 896.506684 186.721521 
L 898.014574 189.960644 
L 899.253883 206.883975 
L 899.768024 228.7557 
L 901.732502 258.110838 
L 902.620098 280.188976 
L 903.873476 303.092442 
L 904.920942 307.089141 
L 906.098861 313.590708 
L 907.391887 306.862138 
L 908.784671 313.257539 
L 910.261866 305.797512 
L 910.95634 312.585638 
L 912.647121 306.246768 
L 913.695866 313.095589 
L 914.923665 304.572627 
L 916.299823 311.359453 
L 917.344731 297.667178 
L 918.607061 298.150424 
L 920.040772 278.784707 
L 921.33124 280.119239 
L 921.804454 274.356381 
L 922.58206 283.836632 
L 923.866132 285.624518 
L 925.091373 295.778947 
L 926.372888 302.585678 
L 927.623708 308.288036 
L 928.843833 316.853348 
L 930.140695 323.817183 
L 931.396631 338.196972 
L 932.676867 339.613567 
L 933.954545 345.30298 
L 933.954545 345.30298 
" clip-path="url(#pc8e57bcf9a)" style="fill: none; stroke: #008000; stroke-width: 1.5; stroke-linecap: square"/>
   </g>
   <g id="patch_3">
    <path d="M 135 384.48 
L 135 51.84 
" style="fill: none; stroke: #000000; stroke-width: 0.8; stroke-linejoin: miter; stroke-linecap: square"/>
   </g>
   <g id="patch_4">
    <path d="M 972 384.48 
L 972 51.84 
" style="fill: none; stroke: #000000; stroke-width: 0.8; stroke-linejoin: miter; stroke-linecap: square"/>
   </g>
   <g id="patch_5">
    <path d="M 135 384.48 
L 972 384.48 
" style="fill: none; stroke: #000000; stroke-width: 0.8; stroke-linejoin: miter; stroke-linecap: square"/>
   </g>
   <g id="patch_6">
    <path d="M 135 51.84 
L 972 51.84 
" style="fill: none; stroke: #000000; stroke-width: 0.8; stroke-linejoin: miter; stroke-linecap: square"/>
   </g>
  </g>
  <g id="axes_2">
   <g id="matplotlib.axis_3">
    <g id="ytick_7">
     <g id="line2d_16">
      <path d="M 135 357.166929 
L 972 357.166929 
" clip-path="url(#pc8e57bcf9a)" style="fill: none; stroke: #b0b0b0; stroke-width: 0.8; stroke-linecap: square"/>
     </g>
     <g id="line2d_17">
      <defs>
       <path id="m84c32709ce" d="M 0 0 
L 3.5 0 
" style="stroke: #000000; stroke-width: 0.8"/>
      </defs>
      <g>
       <use xlink:href="#m84c32709ce" x="972" y="357.166929" style="stroke: #000000; stroke-width: 0.8"/>
      </g>
     </g>
     <g id="text_15">
      <!-- 5 -->
      <g transform="translate(979 360.741148) scale(0.1 -0.1)">
       <use xlink:href="#Times New Roman-35"/>
      </g>
     </g>
    </g>
    <g id="ytick_8">
     <g id="line2d_18">
      <path d="M 135 301.676618 
L 972 301.676618 
" clip-path="url(#pc8e57bcf9a)" style="fill: none; stroke: #b0b0b0; stroke-width: 0.8; stroke-linecap: square"/>
     </g>
     <g id="line2d_19">
      <g>
       <use xlink:href="#m84c32709ce" x="972" y="301.676618" style="stroke: #000000; stroke-width: 0.8"/>
      </g>
     </g>
     <g id="text_16">
      <!-- 10 -->
      <g transform="translate(979 305.250836) scale(0.1 -0.1)">
       <use xlink:href="#Times New Roman-31"/>
       <use xlink:href="#Times New Roman-30" x="50"/>
      </g>
     </g>
    </g>
    <g id="ytick_9">
     <g id="line2d_20">
      <path d="M 135 246.186307 
L 972 246.186307 
" clip-path="url(#pc8e57bcf9a)" style="fill: none; stroke: #b0b0b0; stroke-width: 0.8; stroke-linecap: square"/>
     </g>
     <g id="line2d_21">
      <g>
       <use xlink:href="#m84c32709ce" x="972" y="246.186307" style="stroke: #000000; stroke-width: 0.8"/>
      </g>
     </g>
     <g id="text_17">
      <!-- 15 -->
      <g transform="translate(979 249.760525) scale(0.1 -0.1)">
       <use xlink:href="#Times New Roman-31"/>
       <use xlink:href="#Times New Roman-35" x="50"/>
      </g>
     </g>
    </g>
    <g id="ytick_10">
     <g id="line2d_22">
      <path d="M 135 190.695995 
L 972 190.695995 
" clip-path="url(#pc8e57bcf9a)" style="fill: none; stroke: #b0b0b0; stroke-width: 0.8; stroke-linecap: square"/>
     </g>
     <g id="line2d_23">
      <g>
       <use xlink:href="#m84c32709ce" x="972" y="190.695995" style="stroke: #000000; stroke-width: 0.8"/>
      </g>
     </g>
     <g id="text_18">
      <!-- 20 -->
      <g transform="translate(979 194.270214) scale(0.1 -0.1)">
       <use xlink:href="#Times New Roman-32"/>
       <use xlink:href="#Times New Roman-30" x="50"/>
      </g>
     </g>
    </g>
    <g id="ytick_11">
     <g id="line2d_24">
      <path d="M 135 135.205684 
L 972 135.205684 
" clip-path="url(#pc8e57bcf9a)" style="fill: none; stroke: #b0b0b0; stroke-width: 0.8; stroke-linecap: square"/>
     </g>
     <g id="line2d_25">
      <g>
       <use xlink:href="#m84c32709ce" x="972" y="135.205684" style="stroke: #000000; stroke-width: 0.8"/>
      </g>
     </g>
     <g id="text_19">
      <!-- 25 -->
      <g transform="translate(979 138.779903) scale(0.1 -0.1)">
       <use xlink:href="#Times New Roman-32"/>
       <use xlink:href="#Times New Roman-35" x="50"/>
      </g>
     </g>
    </g>
    <g id="ytick_12">
     <g id="line2d_26">
      <path d="M 135 79.715373 
L 972 79.715373 
" clip-path="url(#pc8e57bcf9a)" style="fill: none; stroke: #b0b0b0; stroke-width: 0.8; stroke-linecap: square"/>
     </g>
     <g id="line2d_27">
      <g>
       <use xlink:href="#m84c32709ce" x="972" y="79.715373" style="stroke: #000000; stroke-width: 0.8"/>
      </g>
     </g>
     <g id="text_20">
      <!-- 30 -->
      <g transform="translate(979 83.289592) scale(0.1 -0.1)">
       <use xlink:href="#Times New Roman-33"/>
       <use xlink:href="#Times New Roman-30" x="50"/>
      </g>
     </g>
    </g>
    <g id="text_21">
     <!-- buffer (s) -->
     <g transform="translate(1000.617188 243.16) rotate(-90) scale(0.1 -0.1)">
      <defs>
       <path id="Times New Roman-75" d="M 1450 325
Q 1750 325 1962 475 
Q 2175 625 2275 950 
L 2275 2525 
Q 2275 2625 2225 2687 
Q 2175 2750 2050 2750 
L 1900 2750 
L 1900 2900 
L 2050 2900 
Q 2200 2900 2325 2925 
Q 2450 2950 2575 3050 
L 2625 3050 
L 2625 600 
Q 2625 500 2687 450 
Q 2750 400 2850 400 
L 3000 400 
L 3000 250 
L 2850 250 
Q 2725 250 2600 212 
Q 2475 175 2325 100 
L 2275 100 
L 2275 625 
Q 2150 350 1900 212 
Q 1650 75 1325 75 
Q 925 75 725 300 
Q 525 525 525 1025 
L 525 2525 
Q 525 2625 475 2687 
Q 425 2750 300 2750 
L 150 2750 
L 150 2900 
L 300 2900 
Q 450 2900 575 2925 
Q 700 2950 825 3050 
L 875 3050 
L 875 975 
Q 875 625 1025 475 
Q 1175 325 1450 325 
z
" transform="scale(0.015625)"/>
       <path id="Times New Roman-66" d="M 1125 3325
Q 1125 3850 1450 4112 
Q 1775 4375 2175 4375 
Q 2600 4375 2812 4225 
Q 3025 4075 3025 3875 
Q 3025 3775 2975 3700 
Q 2925 3625 2775 3625 
Q 2675 3625 2612 3675 
Q 2550 3725 2550 3850 
Q 2550 3875 2575 3925 
Q 2575 3975 2575 4000 
Q 2575 4100 2500 4162 
Q 2425 4225 2150 4225 
Q 1850 4225 1662 4037 
Q 1475 3850 1475 3400 
L 1475 2900 
L 2525 2900 
L 2525 2750 
L 1475 2750 
L 1475 450 
Q 1475 350 1537 300 
Q 1600 250 1700 250 
L 2300 250 
L 2300 100 
L 475 100 
L 475 250 
L 900 250 
Q 1025 250 1075 300 
Q 1125 350 1125 450 
L 1125 2750 
L 350 2750 
L 350 2900 
L 1125 2900 
L 1125 3325 
z
" transform="scale(0.015625)"/>
      </defs>
      <use xlink:href="#Times New Roman-62"/>
      <use xlink:href="#Times New Roman-75" x="50"/>
      <use xlink:href="#Times New Roman-66" x="100"/>
      <use xlink:href="#Times New Roman-66" x="150"/>
      <use xlink:href="#Times New Roman-65" x="200"/>
      <use xlink:href="#Times New Roman-72" x="250"/>
      <use xlink:href="#Times New Roman-20" x="300"/>
      <use xlink:href="#Times New Roman-28" x="350"/>
      <use xlink:href="#Times New Roman-73" x="400"/>
      <use xlink:href="#Times New Roman-29" x="450"/>
     </g>
    </g>
   </g>
   <g id="line2d_28">
    <path d="M 173.045455 338.566577 
L 175.566279 322.091503 
L 176.249242 342.517487 
L 178.041061 327.801456 
L 178.571828 342.195643 
L 180.009375 301.169806 
L 180.4698 304.41044 
L 181.275543 264.03569 
L 182.852497 275.470393 
L 183.769509 246.319483 
L 186.212317 245.771979 
L 186.973296 223.390887 
L 188.225395 229.927645 
L 188.603967 233.85266 
L 190.687388 233.364345 
L 191.090259 230.349372 
L 193.093106 223.43158 
L 193.591899 220.401809 
L 195.932391 216.402807 
L 196.032149 212.599871 
L 197.179374 208.589771 
L 198.822833 197.94303 
L 199.62346 194.243676 
L 200.820564 190.803277 
L 201.311684 194.021715 
L 202.167306 190.011615 
L 203.414289 182.53892 
L 204.621625 178.52512 
L 205.869887 167.826588 
L 207.377777 156.432578 
L 208.617086 138.649783 
L 209.131227 134.961527 
L 211.095705 131.598814 
L 211.983301 127.633106 
L 212.335015 119.742384 
L 213.236679 119.579612 
L 214.284145 120.001339 
L 215.462064 116.490652 
L 218.147874 94.283429 
L 220.319543 78.834927 
L 222.010324 82.267927 
L 223.059069 85.704627 
L 224.286868 82.693353 
L 225.663026 78.716547 
L 226.707934 75.250252 
L 227.970264 78.664756 
L 229.403975 75.646083 
L 230.694443 79.478614 
L 231.945263 76.119601 
L 235.736091 87.06229 
L 236.986911 90.084662 
L 238.207036 86.122654 
L 239.503899 89.518661 
L 240.759834 90.4435 
L 242.04007 90.572977 
L 243.317749 93.983782 
L 248.218712 97.357592 
L 249.782876 97.113435 
L 250.623151 90.203042 
L 252.303701 86.692355 
L 252.986664 86.26323 
L 254.778482 90.106858 
L 255.30925 90.103159 
L 256.746797 94.409207 
L 257.207222 90.306624 
L 258.012965 94.16505 
L 259.589919 90.628467 
L 260.506931 97.631345 
L 262.949739 104.523241 
L 263.710718 119.324357 
L 264.962817 126.660176 
L 265.341389 130.574093 
L 267.42481 130.052484 
L 267.827681 134.454715 
L 269.830528 134.698873 
L 270.329321 130.718368 
L 272.669812 126.734163 
L 272.769571 129.849019 
L 275.560255 123.093999 
L 276.360882 120.093823 
L 278.049106 123.271568 
L 278.904728 131.1031 
L 280.151711 138.453717 
L 281.359046 142.486013 
L 282.607309 145.915314 
L 284.115199 149.307622 
L 285.354508 160.48707 
L 285.868649 171.285484 
L 287.833127 182.109794 
L 288.720723 192.897111 
L 291.021567 200.713846 
L 293.492512 207.809207 
L 294.727984 208.519483 
L 294.885296 209.007798 
L 296.362491 216.61367 
L 297.056965 227.138332 
L 298.747746 237.940446 
L 299.796491 248.74256 
L 301.02429 253.159589 
L 302.400448 256.570393 
L 303.445355 259.973799 
L 313.724333 348.451251 
L 314.944458 359.227469 
L 316.24132 363.57791 
L 317.497256 366.985015 
L 318.777492 363.555713 
L 320.05517 366.985015 
L 324.956134 363.955244 
L 326.520298 362.153658 
L 327.360573 354.362819 
L 329.041123 355.605802 
L 329.724086 356.956066 
L 331.515904 366.689066 
L 332.046671 367.81367 
L 333.484219 369.36 
L 333.944644 365.98249 
L 334.750387 358.642971 
L 336.327341 355.683488 
L 337.244353 337.371685 
L 339.687161 322.492883 
L 340.44814 296.527117 
L 342.078811 277.32377 
L 344.162231 263.014668 
L 344.565103 236.997111 
L 346.56795 214.815784 
L 347.066743 188.842619 
L 348.294542 177.866635 
L 349.506993 137.040564 
L 350.654217 118.073975 
L 352.297677 115.051603 
L 353.098304 96.421656 
L 354.786527 92.400458 
L 355.64215 91.889947 
L 356.889133 91.727176 
L 358.096468 96.092413 
L 359.325546 96.547434 
L 359.34473 96.003629 
L 360.852621 88.234985 
L 362.09193 84.25448 
L 362.606071 88.641914 
L 364.570549 92.90357 
L 365.458145 96.303277 
L 366.711523 92.589125 
L 367.758989 95.992531 
L 368.936908 92.992355 
L 370.229934 89.315197 
L 371.622718 78.098755 
L 373.099913 74.107152 
L 373.794387 77.913787 
L 375.485168 81.357886 
L 377.761712 73.733517 
L 379.13787 70.537275 
L 380.182777 73.670628 
L 382.878819 80.895467 
L 385.420106 75.024592 
L 386.030169 75.054187 
L 386.704179 82.068162 
L 387.92942 81.546553 
L 389.210935 84.931462 
L 390.461755 81.661233 
L 391.68188 85.075737 
L 392.978742 81.357886 
L 394.234678 84.739096 
L 395.514914 81.698227 
L 396.792592 84.838978 
L 401.693556 81.235807 
L 403.25772 80.658708 
L 404.097995 81.121127 
L 405.778544 84.613318 
L 406.461507 85.138626 
L 408.253326 81.616841 
L 408.784093 81.150722 
L 410.221641 84.506036 
L 410.682066 81.036042 
L 411.487809 77.976676 
L 413.064763 74.673153 
L 413.981775 74.643558 
L 417.185562 73.973975 
L 418.437661 81.283899 
L 418.816232 85.175619 
L 420.899653 85.197816 
L 421.302525 81.39118 
L 423.305372 81.339389 
L 423.804165 85.142325 
L 426.144656 88.368162 
L 426.244415 85.023946 
L 427.391639 81.33569 
L 427.441519 78.054363 
L 429.835726 89.378086 
L 431.523949 92.603922 
L 432.379572 84.676207 
L 433.626555 84.60222 
L 434.83389 81.587246 
L 436.082152 84.990652 
L 437.590043 88.419953 
L 438.829352 91.838156 
L 439.343493 96.232989 
L 441.307971 92.263582 
L 442.195567 88.26458 
L 443.448945 84.287775 
L 444.496411 88.649313 
L 449.837335 103.975737 
L 450.531809 100.328174 
L 452.22259 96.34027 
L 453.271335 92.33017 
L 454.499133 95.759472 
L 455.875291 100.146905 
L 456.920199 110.952719 
L 458.18253 121.751133 
L 459.616241 132.664228 
L 460.906708 137.047962 
L 462.157528 140.425473 
L 463.441601 136.359883 
L 464.666842 139.778086 
L 465.948357 136.803805 
L 468.419302 143.59212 
L 469.716164 154.36094 
L 472.252336 163.158004 
L 473.530014 159.884075 
L 478.430978 163.305978 
L 479.995142 155.500341 
L 480.835417 155.481844 
L 482.515966 151.978555 
L 483.198929 159.747199 
L 484.990748 156.007152 
L 485.521515 155.703805 
L 487.419487 139.970452 
L 488.22523 136.696524 
L 489.802185 140.577146 
L 490.719197 140.680728 
L 493.162004 140.159119 
L 493.922984 132.749313 
L 495.175083 133.326412 
L 495.553654 129.90081 
L 497.637075 129.934105 
L 498.039947 126.027587 
L 500.042793 125.968397 
L 500.541587 129.78613 
L 501.769385 133.629759 
L 502.882078 126.145966 
L 502.981837 122.28754 
L 504.129061 110.897228 
L 505.772521 106.890828 
L 506.573148 95.937041 
L 508.261371 91.982431 
L 509.116994 92.455948 
L 510.363977 92.393059 
L 511.571312 96.580728 
L 512.80039 96.861879 
L 512.819574 96.310675 
L 514.327464 88.571627 
L 515.566774 84.757592 
L 516.080915 81.746318 
L 518.045393 85.146025 
L 518.932989 81.184016 
L 520.186367 84.591122 
L 521.233833 81.62054 
L 522.411752 85.049841 
L 523.704777 81.424474 
L 525.097562 84.809383 
L 526.574757 81.779612 
L 527.269231 84.861174 
L 528.960012 88.305273 
L 530.008757 91.690182 
L 531.236555 96.059119 
L 532.612713 92.030523 
L 533.657621 95.448726 
L 534.472317 94.923417 
L 534.919952 95.378438 
L 536.353663 95.859354 
L 537.64413 92.855479 
L 541.404264 103.050898 
L 542.685779 92.659413 
L 543.936599 81.294997 
L 545.156724 77.318191 
L 546.453586 80.725297 
L 547.709522 85.097933 
L 548.989758 81.750018 
L 549.627958 81.864698 
L 550.267436 81.339389 
L 555.168399 88.54943 
L 556.732564 95.703981 
L 557.572838 96.22559 
L 559.253388 92.718602 
L 559.936351 92.252484 
L 561.72817 96.085015 
L 562.258937 95.618896 
L 563.696485 99.954539 
L 564.156909 102.888127 
L 564.962652 107.205273 
L 566.539606 103.576207 
L 567.456619 96.162701 
L 569.899426 88.797287 
L 570.660406 88.900869 
L 571.912505 89.618544 
L 572.291076 92.999753 
L 574.374497 92.492942 
L 574.777369 96.062819 
L 576.780215 103.409736 
L 577.279008 106.816841 
L 579.6195 110.238743 
L 579.719259 106.239742 
L 580.866483 103.27286 
L 582.509943 106.687363 
L 583.31057 111.096994 
L 584.998793 114.456007 
L 585.854416 114.907328 
L 586.21636 114.370922 
L 587.101399 122.235749 
L 588.308734 122.320834 
L 589.556996 122.261644 
L 591.064886 110.878732 
L 592.304196 99.869454 
L 592.818336 88.497639 
L 594.782814 77.543852 
L 595.670411 73.589243 
L 597.971254 81.598344 
L 599.149174 84.986952 
L 600.442199 81.224709 
L 601.834983 85.005449 
L 603.312179 82.012672 
L 604.006652 85.23111 
L 605.697434 88.604921 
L 607.973977 96.351368 
L 609.350135 99.773271 
L 610.395043 103.539213 
L 611.657374 106.987011 
L 613.091084 111.359648 
L 614.381552 121.802924 
L 616.916445 128.606036 
L 618.141686 125.753834 
L 618.741517 126.367927 
L 619.423201 125.890711 
L 620.674021 132.59394 
L 621.894146 135.949254 
L 623.191008 140.336688 
L 624.446944 137.340211 
L 625.72718 141.206036 
L 627.004858 144.62054 
L 631.905821 155.426353 
L 633.469986 177.463406 
L 634.31026 185.309736 
L 635.99081 204.002572 
L 636.673773 196.156242 
L 638.465592 213.853952 
L 638.996359 206.011321 
L 640.433907 217.719777 
L 640.894331 214.78249 
L 641.700074 225.495819 
L 643.277028 229.172977 
L 644.194041 228.588479 
L 647.397828 229.254363 
L 647.839068 233.149783 
L 648.649927 229.187775 
L 649.028498 225.277557 
L 651.111919 225.233165 
L 651.514791 222.195995 
L 652.773284 218.637217 
L 653.517637 215.174621 
L 654.01643 211.312496 
L 656.356922 199.936982 
L 656.456681 188.528174 
L 657.603905 184.973095 
L 657.653784 188.431991 
L 659.247365 188.372801 
L 660.047992 184.458884 
L 661.736215 180.977792 
L 662.591837 174.037804 
L 663.83882 166.565109 
L 665.046156 155.79259 
L 666.294418 151.808385 
L 667.802308 148.242208 
L 669.041618 151.974856 
L 669.555758 147.986952 
L 671.520236 144.006447 
L 672.407833 140.014844 
L 673.66121 137.018368 
L 674.708676 140.462466 
L 675.886596 136.511556 
L 677.179621 132.630934 
L 680.049601 96.425355 
L 680.744074 85.016547 
L 682.434856 81.069336 
L 683.483601 85.105332 
L 684.711399 81.365285 
L 686.087557 84.779789 
L 687.132465 80.795584 
L 688.394795 84.905567 
L 689.828506 81.627939 
L 691.118974 85.031345 
L 692.369794 81.069336 
L 693.653867 84.731697 
L 694.879108 89.133928 
L 695.478938 96.97286 
L 696.160623 96.440153 
L 697.411442 95.918544 
L 698.631567 91.93064 
L 699.92843 96.318074 
L 701.184366 92.441151 
L 702.464602 96.192296 
L 703.74228 92.496641 
L 708.643243 96.765696 
L 710.207408 96.813787 
L 711.047682 103.406036 
L 712.728232 106.298931 
L 713.411195 105.840211 
L 715.203014 102.318426 
L 715.733781 102.832637 
L 717.171329 99.762173 
L 717.631753 96.295878 
L 718.437496 92.252484 
L 720.01445 88.471744 
L 720.931462 88.412554 
L 723.37427 88.882372 
L 724.13525 95.556007 
L 725.387349 102.899225 
L 725.76592 99.455126 
L 727.849341 99.939742 
L 728.252212 96.599225 
L 730.255059 96.51414 
L 730.753852 92.507739 
L 733.094344 96.251486 
L 733.194102 99.654891 
L 734.341327 103.069395 
L 735.984787 106.487598 
L 736.785414 109.920599 
L 738.473637 114.304334 
L 739.329259 114.755655 
L 740.576242 122.076676 
L 741.783578 125.794527 
L 744.53973 133.62606 
L 745.77904 144.158121 
L 746.29318 147.561527 
L 747.536327 147.014022 
L 749.145254 147.935161 
L 750.398632 144.50956 
L 751.446098 133.115549 
L 752.624018 129.127645 
L 753.917043 125.668749 
L 756.787023 132.471861 
L 757.481496 143.174093 
L 759.172277 155.004627 
L 760.221022 159.39576 
L 760.814458 159.850781 
L 761.448821 159.28478 
L 762.824979 166.172977 
L 763.869887 177.015784 
L 765.132217 181.425414 
L 769.107216 192.246025 
L 769.717278 192.16094 
L 770.391289 192.634457 
L 771.616529 199.496759 
L 774.148864 206.618015 
L 775.368989 210.972155 
L 776.665852 221.445026 
L 777.921788 235.195526 
L 779.202024 236.08707 
L 780.479702 240.493001 
L 785.380665 244.90633 
L 786.94483 244.910029 
L 787.785104 244.421715 
L 789.465654 239.919601 
L 790.148617 246.848491 
L 791.940436 243.30081 
L 792.471203 243.774328 
L 793.908751 232.950018 
L 794.369175 236.856536 
L 795.174918 232.813142 
L 796.751872 236.653071 
L 797.668884 229.224768 
L 800.111692 229.73158 
L 800.872671 229.150781 
L 802.124771 229.065696 
L 802.503342 225.292355 
L 804.586763 225.728878 
L 804.843833 229.224768 
L 804.989634 232.894527 
L 806.992481 229.161879 
L 807.491274 225.632695 
L 809.831766 214.704803 
L 809.931524 210.972155 
L 811.078749 207.775913 
L 812.722209 203.791709 
L 813.522836 199.807504 
L 814.719939 195.519953 
L 815.211059 192.075854 
L 816.066681 188.095349 
L 817.313664 180.655948 
L 818.521 176.819718 
L 819.769262 166.424533 
L 821.277152 155.052719 
L 822.516461 143.492237 
L 823.030602 132.098227 
L 824.99508 121.658649 
L 825.882676 111.270863 
L 827.136054 92.467046 
L 828.18352 81.095232 
L 829.361439 69.727117 
L 830.654465 74.12195 
L 833.524444 80.939859 
L 834.218918 76.970452 
L 835.909699 73.992472 
L 836.958444 77.355185 
L 838.186243 80.769689 
L 841.869639 70.344909 
L 843.30335 74.055361 
L 844.593818 70.048961 
L 845.844638 74.066459 
L 846.4547 74.036864 
L 847.12871 74.506682 
L 848.353951 73.977675 
L 848.953782 73.448667 
L 849.635466 80.318368 
L 850.886286 80.802983 
L 852.106411 85.190417 
L 853.403274 81.206213 
L 854.65921 84.591122 
L 855.939445 80.795584 
L 857.217124 77.806506 
L 862.118087 73.8334 
L 864.522526 72.708796 
L 866.203076 69.545849 
L 866.886039 70.037863 
L 868.677857 73.781609 
L 869.208625 73.94808 
L 870.646172 70.411497 
L 871.106597 66.96 
L 871.91234 70.326412 
L 873.489294 74.269924 
L 874.406306 74.181139 
L 876.849114 74.63616 
L 877.610093 74.05906 
L 878.862192 74.022067 
L 879.240764 69.571744 
L 881.324185 70.026765 
L 881.727056 73.822302 
L 883.729903 74.458591 
L 884.228696 77.858297 
L 886.569188 74.380904 
L 886.668946 78.06916 
L 887.81617 74.092355 
L 889.45963 77.566048 
L 890.260257 73.589243 
L 891.948481 70.622361 
L 892.804103 70.085954 
L 894.051086 77.410675 
L 895.258421 80.843676 
L 896.506684 85.253306 
L 898.014574 81.243206 
L 899.253883 84.594821 
L 899.768024 80.599518 
L 901.732502 84.983253 
L 902.620098 81.006447 
L 903.873476 84.454245 
L 904.920942 87.890945 
L 906.098861 92.285778 
L 907.391887 89.152425 
L 908.784671 85.175619 
L 910.261866 88.590123 
L 910.95634 92.093412 
L 912.647121 95.470922 
L 913.695866 91.457123 
L 914.923665 94.886424 
L 916.299823 99.299753 
L 917.344731 103.694586 
L 921.804454 115.477029 
L 922.58206 115.551016 
L 923.866132 114.892531 
L 926.372888 121.333106 
L 928.843833 143.777087 
L 931.396631 165.370217 
L 933.954545 188.972096 
L 933.954545 188.972096 
" clip-path="url(#pc8e57bcf9a)" style="fill: none; stroke: #1f77b4; stroke-width: 1.5; stroke-linecap: square"/>
   </g>
   <g id="patch_7">
    <path d="M 135 384.48 
L 135 51.84 
" style="fill: none; stroke: #000000; stroke-width: 0.8; stroke-linejoin: miter; stroke-linecap: square"/>
   </g>
   <g id="patch_8">
    <path d="M 972 384.48 
L 972 51.84 
" style="fill: none; stroke: #000000; stroke-width: 0.8; stroke-linejoin: miter; stroke-linecap: square"/>
   </g>
   <g id="patch_9">
    <path d="M 135 384.48 
L 972 384.48 
" style="fill: none; stroke: #000000; stroke-width: 0.8; stroke-linejoin: miter; stroke-linecap: square"/>
   </g>
   <g id="patch_10">
    <path d="M 135 51.84 
L 972 51.84 
" style="fill: none; stroke: #000000; stroke-width: 0.8; stroke-linejoin: miter; stroke-linecap: square"/>
   </g>
   <g id="text_22">
    <!-- ./source/bola2_wave -->
    <g transform="translate(496.5 45.84) scale(0.12 -0.12)">
     <defs>
      <path id="Times New Roman-2e" d="M 800 25
Q 650 25 537 125 
Q 425 225 425 400 
Q 425 575 537 675 
Q 650 775 800 775 
Q 950 775 1062 662 
Q 1175 550 1175 400 
Q 1175 225 1062 125 
Q 950 25 800 25 
z
" transform="scale(0.015625)"/>
      <path id="Times New Roman-2f" d="M 400 -475
L 225 -375 
L 2775 4975 
L 2950 4875 
L 400 -475 
z
" transform="scale(0.015625)"/>
      <path id="Times New Roman-6f" d="M 2900 1500
Q 2900 875 2525 462 
Q 2150 50 1600 50 
Q 1025 50 662 475 
Q 300 900 300 1500 
Q 300 2050 662 2500 
Q 1025 2950 1600 2950 
Q 2200 2950 2550 2500 
Q 2900 2050 2900 1500 
z
M 700 1475 
Q 700 825 962 512 
Q 1225 200 1600 200 
Q 2025 200 2262 537 
Q 2500 875 2500 1475 
Q 2500 2125 2237 2462 
Q 1975 2800 1600 2800 
Q 1250 2800 975 2462 
Q 700 2125 700 1475 
z
" transform="scale(0.015625)"/>
      <path id="Times New Roman-63" d="M 2150 2225
Q 2150 2300 2175 2325 
Q 2175 2350 2200 2425 
Q 2225 2525 2100 2662 
Q 1975 2800 1675 2800 
Q 1300 2800 1037 2437 
Q 775 2075 775 1475 
Q 775 925 1000 587 
Q 1225 250 1750 250 
Q 2100 250 2337 475 
Q 2575 700 2675 1000 
L 2800 950 
Q 2700 575 2425 312 
Q 2150 50 1675 50 
Q 1075 50 725 425 
Q 375 800 375 1500 
Q 375 2125 750 2537 
Q 1125 2950 1725 2950 
Q 2150 2950 2387 2725 
Q 2625 2500 2625 2275 
Q 2625 2125 2562 2062 
Q 2500 2000 2375 2000 
Q 2275 2000 2212 2062 
Q 2150 2125 2150 2225 
z
" transform="scale(0.015625)"/>
      <path id="Times New Roman-6c" d="M 925 4375
Q 1150 4375 1350 4425 
Q 1550 4475 1725 4575 
L 1775 4575 
L 1775 450 
Q 1775 350 1837 300 
Q 1900 250 2000 250 
L 2575 250 
L 2575 100 
L 625 100 
L 625 250 
L 1200 250 
Q 1325 250 1375 300 
Q 1425 350 1425 450 
L 1425 4025 
Q 1425 4125 1375 4175 
Q 1325 4225 1200 4225 
L 650 4225 
L 650 4375 
L 925 4375 
z
" transform="scale(0.015625)"/>
      <path id="Times New Roman-5f" d="M 0 -875
L 0 -725 
L 3175 -725 
L 3175 -875 
L 0 -875 
z
" transform="scale(0.015625)"/>
      <path id="Times New Roman-77" d="M 2325 2900
L 3175 2900 
L 3175 2750 
L 3075 2750 
Q 2975 2750 2900 2675 
Q 2825 2600 2775 2425 
L 2175 75 
L 2025 75 
L 1575 1975 
L 1100 75 
L 950 75 
L 375 2375 
Q 350 2550 275 2650 
Q 200 2750 125 2750 
L 25 2750 
L 25 2900 
L 925 2900 
L 925 2750 
L 825 2750 
Q 725 2750 700 2662 
Q 675 2575 700 2425 
L 1075 800 
L 1125 800 
L 1500 2300 
Q 1475 2525 1400 2637 
Q 1325 2750 1225 2750 
L 1150 2750 
L 1150 2900 
L 2000 2900 
L 2000 2750 
L 1925 2750 
Q 1825 2750 1800 2662 
Q 1775 2575 1800 2425 
L 2175 800 
L 2200 800 
L 2625 2550 
Q 2650 2650 2600 2700 
Q 2550 2750 2450 2750 
L 2325 2750 
L 2325 2900 
z
M 1725 2750 
L 1725 2750 
z
M 625 2750 
L 625 2750 
z
M 275 2750 
L 275 2750 
z
M 2875 2750 
L 2875 2750 
z
M 2675 2750 
L 2675 2750 
z
" transform="scale(0.015625)"/>
      <path id="Times New Roman-76" d="M 1625 75
L 1475 75 
L 625 2525 
Q 600 2625 525 2687 
Q 450 2750 350 2750 
L 225 2750 
L 225 2900 
L 1300 2900 
L 1300 2750 
L 1200 2750 
Q 1050 2750 1025 2700 
Q 1000 2650 1000 2600 
Q 1000 2500 1025 2425 
L 1625 675 
L 1675 675 
L 2275 2400 
Q 2325 2525 2325 2575 
Q 2325 2600 2275 2675 
Q 2225 2750 2075 2750 
L 2025 2750 
L 2025 2900 
L 2925 2900 
L 2925 2750 
L 2875 2750 
Q 2725 2750 2637 2662 
Q 2550 2575 2475 2400 
L 1625 75 
z
M 2600 2750 
L 2600 2750 
z
M 2400 2750 
L 2400 2750 
z
M 925 2750 
L 925 2750 
z
M 550 2750 
L 550 2750 
z
" transform="scale(0.015625)"/>
     </defs>
     <use xlink:href="#Times New Roman-2e"/>
     <use xlink:href="#Times New Roman-2f" x="50"/>
     <use xlink:href="#Times New Roman-73" x="100"/>
     <use xlink:href="#Times New Roman-6f" x="150"/>
     <use xlink:href="#Times New Roman-75" x="200"/>
     <use xlink:href="#Times New Roman-72" x="250"/>
     <use xlink:href="#Times New Roman-63" x="300"/>
     <use xlink:href="#Times New Roman-65" x="350"/>
     <use xlink:href="#Times New Roman-2f" x="400"/>
     <use xlink:href="#Times New Roman-62" x="450"/>
     <use xlink:href="#Times New Roman-6f" x="500"/>
     <use xlink:href="#Times New Roman-6c" x="550"/>
     <use xlink:href="#Times New Roman-61" x="600"/>
     <use xlink:href="#Times New Roman-32" x="650"/>
     <use xlink:href="#Times New Roman-5f" x="700"/>
     <use xlink:href="#Times New Roman-77" x="750"/>
     <use xlink:href="#Times New Roman-61" x="800"/>
     <use xlink:href="#Times New Roman-76" x="850"/>
     <use xlink:href="#Times New Roman-65" x="900"/>
    </g>
   </g>
   <g id="legend_1">
    <g id="patch_11">
     <path d="M 903 73.2775 
L 965 73.2775 
Q 967 73.2775 967 71.2775 
L 967 58.84 
Q 967 56.84 965 56.84 
L 903 56.84 
Q 901 56.84 901 58.84 
L 901 71.2775 
Q 901 73.2775 903 73.2775 
z
" style="fill: #ffffff; opacity: 0.8; stroke: #cccccc; stroke-linejoin: miter"/>
    </g>
    <g id="line2d_29">
     <path d="M 905 64.488437 
L 915 64.488437 
L 925 64.488437 
" style="fill: none; stroke: #1f77b4; stroke-width: 1.5; stroke-linecap: square"/>
    </g>
    <g id="text_23">
     <!-- buffer -->
     <g transform="translate(933 67.988437) scale(0.1 -0.1)">
      <use xlink:href="#Times New Roman-62"/>
      <use xlink:href="#Times New Roman-75" x="50"/>
      <use xlink:href="#Times New Roman-66" x="100"/>
      <use xlink:href="#Times New Roman-66" x="150"/>
      <use xlink:href="#Times New Roman-65" x="200"/>
      <use xlink:href="#Times New Roman-72" x="250"/>
     </g>
    </g>
   </g>
  </g>
 </g>
 <defs>
  <clipPath id="pc8e57bcf9a">
   <rect x="135" y="51.84" width="837" height="332.64"/>
  </clipPath>
 </defs>
</svg>
