<?xml version="1.0" encoding="utf-8" standalone="no"?>
<!DOCTYPE svg PUBLIC "-//W3C//DTD SVG 1.1//EN"
  "http://www.w3.org/Graphics/SVG/1.1/DTD/svg11.dtd">
<svg xmlns:xlink="http://www.w3.org/1999/xlink" width="1080pt" height="432pt" viewBox="0 0 1080 432" xmlns="http://www.w3.org/2000/svg" version="1.1">
 <metadata>
  <rdf:RDF xmlns:dc="http://purl.org/dc/elements/1.1/" xmlns:cc="http://creativecommons.org/ns#" xmlns:rdf="http://www.w3.org/1999/02/22-rdf-syntax-ns#">
   <cc:Work>
    <dc:type rdf:resource="http://purl.org/dc/dcmitype/StillImage"/>
    <dc:date>2024-04-12T06:13:25.794780</dc:date>
    <dc:format>image/svg+xml</dc:format>
    <dc:creator>
     <cc:Agent>
      <dc:title>Matplotlib v3.8.3, https://matplotlib.org/</dc:title>
     </cc:Agent>
    </dc:creator>
   </cc:Work>
  </rdf:RDF>
 </metadata>
 <defs>
  <style type="text/css">*{stroke-linejoin: round; stroke-linecap: butt}</style>
 </defs>
 <g id="figure_1">
  <g id="patch_1">
   <path d="M 0 432 
L 1080 432 
L 1080 0 
L 0 0 
z
" style="fill: #ffffff"/>
  </g>
  <g id="axes_1">
   <g id="patch_2">
    <path d="M 135 384.48 
L 972 384.48 
L 972 51.84 
L 135 51.84 
z
" style="fill: #ffffff"/>
   </g>
   <g id="matplotlib.axis_1">
    <g id="xtick_1">
     <g id="line2d_1">
      <defs>
       <path id="m01d3dc7754" d="M 0 0 
L 0 3.5 
" style="stroke: #000000; stroke-width: 0.8"/>
      </defs>
      <g>
       <use xlink:href="#m01d3dc7754" x="173.045455" y="384.48" style="stroke: #000000; stroke-width: 0.8"/>
      </g>
     </g>
     <g id="text_1">
      <!-- 0 -->
      <g transform="translate(170.545455 398.628438) scale(0.1 -0.1)">
       <defs>
        <path id="Times New Roman-30" d="M 1600 4225
Q 1250 4225 1012 3687 
Q 775 3150 775 2250 
Q 775 1300 1012 775 
Q 1250 250 1600 250 
Q 1975 250 2187 775 
Q 2400 1300 2400 2250 
Q 2400 3150 2200 3687 
Q 2000 4225 1600 4225 
z
M 1600 50 
Q 1050 50 675 625 
Q 300 1200 300 2250 
Q 300 3225 662 3825 
Q 1025 4425 1600 4425 
Q 2150 4425 2512 3850 
Q 2875 3275 2875 2250 
Q 2875 1225 2512 637 
Q 2150 50 1600 50 
z
" transform="scale(0.015625)"/>
       </defs>
       <use xlink:href="#Times New Roman-30"/>
      </g>
     </g>
    </g>
    <g id="xtick_2">
     <g id="line2d_2">
      <g>
       <use xlink:href="#m01d3dc7754" x="299.863636" y="384.48" style="stroke: #000000; stroke-width: 0.8"/>
      </g>
     </g>
     <g id="text_2">
      <!-- 100 -->
      <g transform="translate(292.363636 398.628438) scale(0.1 -0.1)">
       <defs>
        <path id="Times New Roman-31" d="M 1825 4450
L 1825 650 
Q 1825 450 1950 350 
Q 2075 250 2300 250 
L 2550 250 
L 2550 100 
L 725 100 
L 725 250 
L 950 250 
Q 1200 250 1312 350 
Q 1425 450 1425 650 
L 1425 3675 
Q 1425 3775 1362 3837 
Q 1300 3900 1175 3900 
L 725 3900 
L 725 4050 
L 950 4050 
Q 1250 4050 1437 4150 
Q 1625 4250 1725 4450 
L 1825 4450 
z
" transform="scale(0.015625)"/>
       </defs>
       <use xlink:href="#Times New Roman-31"/>
       <use xlink:href="#Times New Roman-30" x="50"/>
       <use xlink:href="#Times New Roman-30" x="100"/>
      </g>
     </g>
    </g>
    <g id="xtick_3">
     <g id="line2d_3">
      <g>
       <use xlink:href="#m01d3dc7754" x="426.681818" y="384.48" style="stroke: #000000; stroke-width: 0.8"/>
      </g>
     </g>
     <g id="text_3">
      <!-- 200 -->
      <g transform="translate(419.181818 398.628438) scale(0.1 -0.1)">
       <defs>
        <path id="Times New Roman-32" d="M 2325 3325
Q 2325 3775 2125 4012 
Q 1925 4250 1525 4250 
Q 1225 4250 1012 4087 
Q 800 3925 800 3675 
Q 800 3525 900 3425 
Q 975 3325 975 3225 
Q 975 3100 912 3037 
Q 850 2975 725 2975 
Q 575 2975 487 3062 
Q 400 3150 400 3350 
Q 400 3875 775 4150 
Q 1150 4425 1575 4425 
Q 2175 4425 2462 4125 
Q 2750 3825 2750 3375 
Q 2750 3075 2612 2775 
Q 2475 2475 2175 2200 
Q 1450 1500 1062 1062 
Q 675 625 600 475 
L 2075 475 
Q 2300 475 2450 650 
Q 2600 825 2650 1175 
L 2800 1175 
L 2650 100 
L 325 100 
L 325 425 
Q 450 650 737 1000 
Q 1025 1350 1500 1825 
Q 1925 2250 2125 2625 
Q 2325 3000 2325 3325 
z
" transform="scale(0.015625)"/>
       </defs>
       <use xlink:href="#Times New Roman-32"/>
       <use xlink:href="#Times New Roman-30" x="50"/>
       <use xlink:href="#Times New Roman-30" x="100"/>
      </g>
     </g>
    </g>
    <g id="xtick_4">
     <g id="line2d_4">
      <g>
       <use xlink:href="#m01d3dc7754" x="553.5" y="384.48" style="stroke: #000000; stroke-width: 0.8"/>
      </g>
     </g>
     <g id="text_4">
      <!-- 300 -->
      <g transform="translate(546 398.628438) scale(0.1 -0.1)">
       <defs>
        <path id="Times New Roman-33" d="M 2800 1250
Q 2800 775 2450 412 
Q 2100 50 1475 50 
Q 1025 50 700 300 
Q 375 550 375 875 
Q 375 1025 475 1137 
Q 575 1250 675 1250 
Q 825 1250 887 1137 
Q 950 1025 950 950 
Q 950 825 900 750 
Q 850 650 850 575 
Q 850 425 1037 325 
Q 1225 225 1450 225 
Q 1900 225 2125 487 
Q 2350 750 2350 1300 
Q 2350 1750 2112 2025 
Q 1875 2300 1225 2300 
L 1225 2475 
Q 1725 2475 1962 2712 
Q 2200 2950 2200 3375 
Q 2200 3725 2012 3987 
Q 1825 4250 1425 4250 
Q 1250 4250 1050 4162 
Q 850 4075 850 3875 
Q 850 3675 900 3625 
Q 950 3575 950 3500 
Q 950 3375 900 3300 
Q 850 3225 725 3225 
Q 625 3225 537 3300 
Q 450 3375 450 3575 
Q 450 3950 775 4187 
Q 1100 4425 1525 4425 
Q 2025 4425 2325 4112 
Q 2625 3800 2625 3450 
Q 2625 3075 2437 2812 
Q 2250 2550 1850 2425 
Q 2400 2225 2600 1900 
Q 2800 1575 2800 1250 
z
" transform="scale(0.015625)"/>
       </defs>
       <use xlink:href="#Times New Roman-33"/>
       <use xlink:href="#Times New Roman-30" x="50"/>
       <use xlink:href="#Times New Roman-30" x="100"/>
      </g>
     </g>
    </g>
    <g id="xtick_5">
     <g id="line2d_5">
      <g>
       <use xlink:href="#m01d3dc7754" x="680.318182" y="384.48" style="stroke: #000000; stroke-width: 0.8"/>
      </g>
     </g>
     <g id="text_5">
      <!-- 400 -->
      <g transform="translate(672.818182 398.628438) scale(0.1 -0.1)">
       <defs>
        <path id="Times New Roman-34" d="M 2300 575
Q 2300 400 2400 325 
Q 2500 250 2675 250 
L 2900 250 
L 2900 100 
L 1250 100 
L 1250 250 
L 1525 250 
Q 1725 250 1812 325 
Q 1900 400 1900 575 
L 1900 1400 
L 225 1400 
L 225 1525 
L 2050 4425 
L 2300 4425 
L 2300 1550 
L 2975 1550 
L 2975 1400 
L 2300 1400 
L 2300 575 
z
M 1875 3800 
L 450 1550 
L 1900 1550 
L 1900 3800 
L 1875 3800 
z
" transform="scale(0.015625)"/>
       </defs>
       <use xlink:href="#Times New Roman-34"/>
       <use xlink:href="#Times New Roman-30" x="50"/>
       <use xlink:href="#Times New Roman-30" x="100"/>
      </g>
     </g>
    </g>
    <g id="xtick_6">
     <g id="line2d_6">
      <g>
       <use xlink:href="#m01d3dc7754" x="807.136364" y="384.48" style="stroke: #000000; stroke-width: 0.8"/>
      </g>
     </g>
     <g id="text_6">
      <!-- 500 -->
      <g transform="translate(799.636364 398.628438) scale(0.1 -0.1)">
       <defs>
        <path id="Times New Roman-35" d="M 1725 2850
Q 2200 2850 2500 2487 
Q 2800 2125 2800 1525 
Q 2800 850 2487 450 
Q 2175 50 1525 50 
Q 1075 50 725 312 
Q 375 575 375 950 
Q 375 1100 462 1212 
Q 550 1325 700 1325 
Q 850 1325 900 1225 
Q 950 1125 950 1050 
Q 950 900 875 825 
Q 800 725 800 625 
Q 800 425 1037 325 
Q 1275 225 1550 225 
Q 1950 225 2162 550 
Q 2375 875 2375 1475 
Q 2375 1975 2187 2287 
Q 2000 2600 1625 2600 
Q 1350 2600 1150 2500 
Q 950 2400 775 2075 
L 550 2100 
L 675 4375 
L 2725 4375 
L 2650 4000 
L 850 4000 
L 750 2350 
Q 1000 2700 1237 2775 
Q 1475 2850 1725 2850 
z
" transform="scale(0.015625)"/>
       </defs>
       <use xlink:href="#Times New Roman-35"/>
       <use xlink:href="#Times New Roman-30" x="50"/>
       <use xlink:href="#Times New Roman-30" x="100"/>
      </g>
     </g>
    </g>
    <g id="xtick_7">
     <g id="line2d_7">
      <g>
       <use xlink:href="#m01d3dc7754" x="933.954545" y="384.48" style="stroke: #000000; stroke-width: 0.8"/>
      </g>
     </g>
     <g id="text_7">
      <!-- 600 -->
      <g transform="translate(926.454545 398.628438) scale(0.1 -0.1)">
       <defs>
        <path id="Times New Roman-36" d="M 775 1800
Q 775 1050 1037 637 
Q 1300 225 1675 225 
Q 2050 225 2250 500 
Q 2450 775 2450 1525 
Q 2450 2025 2237 2300 
Q 2025 2575 1725 2575 
Q 1450 2575 1212 2412 
Q 975 2250 775 1800 
z
M 1750 2825 
Q 2350 2825 2612 2425 
Q 2875 2025 2875 1525 
Q 2875 775 2512 412 
Q 2150 50 1675 50 
Q 1000 50 650 562 
Q 300 1075 300 2050 
Q 300 3200 725 3812 
Q 1150 4425 1875 4425 
Q 2225 4425 2437 4225 
Q 2650 4025 2650 3875 
Q 2650 3725 2587 3650 
Q 2525 3575 2375 3575 
Q 2250 3575 2187 3637 
Q 2125 3700 2125 3825 
Q 2125 3875 2150 3925 
Q 2150 3975 2150 4025 
Q 2150 4125 2075 4187 
Q 2000 4250 1800 4250 
Q 1375 4250 1075 3862 
Q 775 3475 775 2175 
Q 925 2500 1187 2662 
Q 1450 2825 1750 2825 
z
" transform="scale(0.015625)"/>
       </defs>
       <use xlink:href="#Times New Roman-36"/>
       <use xlink:href="#Times New Roman-30" x="50"/>
       <use xlink:href="#Times New Roman-30" x="100"/>
      </g>
     </g>
    </g>
   </g>
   <g id="matplotlib.axis_2">
    <g id="ytick_1">
     <g id="line2d_8">
      <defs>
       <path id="m1ec3344633" d="M 0 0 
L -3.5 0 
" style="stroke: #000000; stroke-width: 0.8"/>
      </defs>
      <g>
       <use xlink:href="#m1ec3344633" x="135" y="370.129806" style="stroke: #000000; stroke-width: 0.8"/>
      </g>
     </g>
     <g id="text_8">
      <!-- 0 -->
      <g transform="translate(123 373.704025) scale(0.1 -0.1)">
       <use xlink:href="#Times New Roman-30"/>
      </g>
     </g>
    </g>
    <g id="ytick_2">
     <g id="line2d_9">
      <g>
       <use xlink:href="#m1ec3344633" x="135" y="309.206852" style="stroke: #000000; stroke-width: 0.8"/>
      </g>
     </g>
     <g id="text_9">
      <!-- 1000 -->
      <g transform="translate(108 312.781071) scale(0.1 -0.1)">
       <use xlink:href="#Times New Roman-31"/>
       <use xlink:href="#Times New Roman-30" x="50"/>
       <use xlink:href="#Times New Roman-30" x="100"/>
       <use xlink:href="#Times New Roman-30" x="150"/>
      </g>
     </g>
    </g>
    <g id="ytick_3">
     <g id="line2d_10">
      <g>
       <use xlink:href="#m1ec3344633" x="135" y="248.283899" style="stroke: #000000; stroke-width: 0.8"/>
      </g>
     </g>
     <g id="text_10">
      <!-- 2000 -->
      <g transform="translate(108 251.858117) scale(0.1 -0.1)">
       <use xlink:href="#Times New Roman-32"/>
       <use xlink:href="#Times New Roman-30" x="50"/>
       <use xlink:href="#Times New Roman-30" x="100"/>
       <use xlink:href="#Times New Roman-30" x="150"/>
      </g>
     </g>
    </g>
    <g id="ytick_4">
     <g id="line2d_11">
      <g>
       <use xlink:href="#m1ec3344633" x="135" y="187.360945" style="stroke: #000000; stroke-width: 0.8"/>
      </g>
     </g>
     <g id="text_11">
      <!-- 3000 -->
      <g transform="translate(108 190.935164) scale(0.1 -0.1)">
       <use xlink:href="#Times New Roman-33"/>
       <use xlink:href="#Times New Roman-30" x="50"/>
       <use xlink:href="#Times New Roman-30" x="100"/>
       <use xlink:href="#Times New Roman-30" x="150"/>
      </g>
     </g>
    </g>
    <g id="ytick_5">
     <g id="line2d_12">
      <g>
       <use xlink:href="#m1ec3344633" x="135" y="126.437991" style="stroke: #000000; stroke-width: 0.8"/>
      </g>
     </g>
     <g id="text_12">
      <!-- 4000 -->
      <g transform="translate(108 130.01221) scale(0.1 -0.1)">
       <use xlink:href="#Times New Roman-34"/>
       <use xlink:href="#Times New Roman-30" x="50"/>
       <use xlink:href="#Times New Roman-30" x="100"/>
       <use xlink:href="#Times New Roman-30" x="150"/>
      </g>
     </g>
    </g>
    <g id="ytick_6">
     <g id="line2d_13">
      <g>
       <use xlink:href="#m1ec3344633" x="135" y="65.515038" style="stroke: #000000; stroke-width: 0.8"/>
      </g>
     </g>
     <g id="text_13">
      <!-- 5000 -->
      <g transform="translate(108 69.089256) scale(0.1 -0.1)">
       <use xlink:href="#Times New Roman-35"/>
       <use xlink:href="#Times New Roman-30" x="50"/>
       <use xlink:href="#Times New Roman-30" x="100"/>
       <use xlink:href="#Times New Roman-30" x="150"/>
      </g>
     </g>
    </g>
    <g id="text_14">
     <!-- Bitrate (kbps) -->
     <g transform="translate(102.710938 253.16) rotate(-90) scale(0.1 -0.1)">
      <defs>
       <path id="Times New Roman-42" d="M 100 100
L 100 250 
L 300 250 
Q 425 250 475 300 
Q 525 350 525 450 
L 525 4025 
Q 525 4125 475 4175 
Q 425 4225 300 4225 
L 150 4225 
L 150 4375 
L 1600 4375 
Q 2200 4375 2487 4137 
Q 2775 3900 2775 3400 
Q 2775 3050 2625 2825 
Q 2475 2600 2000 2425 
Q 2575 2250 2775 1925 
Q 2975 1600 2975 1200 
Q 2975 700 2625 400 
Q 2275 100 1675 100 
L 100 100 
z
M 1600 250 
Q 2025 250 2262 512 
Q 2500 775 2500 1250 
Q 2500 1800 2250 2062 
Q 2000 2325 1500 2325 
L 925 2325 
L 925 450 
Q 925 350 987 300 
Q 1050 250 1150 250 
L 1600 250 
z
M 2350 3400 
Q 2350 3850 2100 4037 
Q 1850 4225 1450 4225 
L 1150 4225 
Q 1050 4225 987 4175 
Q 925 4125 925 4025 
L 925 2475 
L 1575 2475 
Q 1850 2475 2100 2700 
Q 2350 2925 2350 3400 
z
" transform="scale(0.015625)"/>
       <path id="Times New Roman-69" d="M 1425 2525
Q 1425 2625 1375 2687 
Q 1325 2750 1200 2750 
L 675 2750 
L 675 2900 
L 925 2900 
Q 1150 2900 1350 2937 
Q 1550 2975 1725 3075 
L 1775 3075 
L 1775 450 
Q 1775 350 1837 300 
Q 1900 250 2000 250 
L 2525 250 
L 2525 100 
L 675 100 
L 675 250 
L 1200 250 
Q 1325 250 1375 300 
Q 1425 350 1425 450 
L 1425 2525 
z
M 1725 3025 
L 1725 3025 
z
M 1625 4425 
Q 1750 4425 1850 4337 
Q 1950 4250 1950 4125 
Q 1950 4000 1850 3900 
Q 1750 3800 1625 3800 
Q 1500 3800 1400 3900 
Q 1300 4000 1300 4125 
Q 1300 4250 1400 4337 
Q 1500 4425 1625 4425 
z
" transform="scale(0.015625)"/>
       <path id="Times New Roman-74" d="M 1500 900
Q 1500 550 1625 425 
Q 1750 300 2000 300 
Q 2250 300 2400 462 
Q 2550 625 2600 925 
L 2725 875 
Q 2675 525 2462 300 
Q 2250 75 1900 75 
Q 1525 75 1337 300 
Q 1150 525 1150 1000 
L 1150 2750 
L 400 2750 
L 400 2900 
L 600 2900 
Q 900 2900 1087 3087 
Q 1275 3275 1325 3675 
L 1350 3875 
L 1500 3875 
L 1500 2900 
L 2500 2900 
L 2500 2750 
L 1500 2750 
L 1500 900 
z
" transform="scale(0.015625)"/>
       <path id="Times New Roman-72" d="M 1275 2125
Q 1525 2525 1812 2737 
Q 2100 2950 2400 2950 
Q 2650 2950 2787 2837 
Q 2925 2725 2925 2575 
Q 2925 2450 2862 2375 
Q 2800 2300 2675 2300 
Q 2550 2300 2487 2375 
Q 2425 2450 2450 2575 
Q 2450 2650 2425 2700 
Q 2400 2750 2275 2750 
Q 2075 2750 1787 2500 
Q 1500 2250 1275 1800 
L 1275 450 
Q 1275 350 1337 300 
Q 1400 250 1500 250 
L 2050 250 
L 2050 100 
L 200 100 
L 200 250 
L 700 250 
Q 825 250 875 300 
Q 925 350 925 450 
L 925 2525 
Q 925 2625 875 2687 
Q 825 2750 700 2750 
L 225 2750 
L 225 2900 
L 425 2900 
Q 600 2900 837 2937 
Q 1075 2975 1200 3025 
L 1275 3025 
L 1275 2125 
z
" transform="scale(0.015625)"/>
       <path id="Times New Roman-61" d="M 1225 75
Q 775 75 525 287 
Q 275 500 275 775 
Q 275 1225 662 1512 
Q 1050 1800 2200 1925 
L 2200 2225 
Q 2200 2475 2087 2637 
Q 1975 2800 1575 2800 
Q 1150 2800 975 2662 
Q 800 2525 850 2375 
Q 875 2325 875 2275 
Q 875 2225 837 2150 
Q 800 2075 650 2075 
Q 550 2075 487 2137 
Q 425 2200 425 2325 
Q 425 2550 750 2750 
Q 1075 2950 1550 2950 
Q 2050 2950 2300 2762 
Q 2550 2575 2550 2225 
L 2550 575 
Q 2550 375 2587 337 
Q 2625 300 2725 300 
Q 2850 300 2900 412 
Q 2950 525 2950 725 
L 3075 725 
Q 3075 375 2950 237 
Q 2825 100 2625 100 
Q 2450 100 2350 175 
Q 2250 250 2200 425 
Q 1950 250 1737 162 
Q 1525 75 1225 75 
z
M 700 850 
Q 700 625 837 437 
Q 975 250 1275 250 
Q 1500 250 1725 337 
Q 1950 425 2200 600 
L 2200 1775 
Q 1350 1675 1025 1437 
Q 700 1200 700 850 
z
" transform="scale(0.015625)"/>
       <path id="Times New Roman-65" d="M 2400 1650
Q 2425 2200 2212 2487 
Q 2000 2775 1650 2775 
Q 1275 2775 1037 2475 
Q 800 2175 800 1650 
L 2400 1650 
z
M 800 1500 
Q 800 825 1062 537 
Q 1325 250 1750 250 
Q 2075 250 2300 437 
Q 2525 625 2625 900 
L 2750 850 
Q 2675 575 2412 312 
Q 2150 50 1700 50 
Q 1125 50 762 425 
Q 400 800 400 1500 
Q 400 2125 762 2537 
Q 1125 2950 1650 2950 
Q 2125 2950 2475 2625 
Q 2825 2300 2825 1500 
L 800 1500 
z
" transform="scale(0.015625)"/>
       <path id="Times New Roman-20" d="M 0 0
Q 0 0 0 0 
z
" transform="scale(0.015625)"/>
       <path id="Times New Roman-28" d="M 2900 5025
Q 2325 4425 2037 3737 
Q 1750 3050 1750 2300 
Q 1750 1525 2037 850 
Q 2325 175 2900 -425 
L 2775 -550 
Q 2075 75 1725 787 
Q 1375 1500 1375 2300 
Q 1375 3075 1725 3787 
Q 2075 4500 2775 5150 
L 2900 5025 
z
" transform="scale(0.015625)"/>
       <path id="Times New Roman-6b" d="M 1675 1900
L 2625 425 
Q 2700 325 2762 287 
Q 2825 250 2900 250 
L 3000 250 
L 3000 100 
L 1975 100 
L 1975 250 
L 2050 250 
Q 2175 250 2225 287 
Q 2275 325 2200 425 
L 1425 1650 
L 925 1125 
L 925 450 
Q 925 350 987 300 
Q 1050 250 1150 250 
L 1275 250 
L 1275 100 
L 225 100 
L 225 250 
L 350 250 
Q 475 250 525 300 
Q 575 350 575 450 
L 575 4025 
Q 575 4125 525 4175 
Q 475 4225 350 4225 
L 200 4225 
L 200 4375 
L 425 4375 
Q 575 4375 687 4425 
Q 800 4475 875 4575 
L 925 4575 
L 925 1400 
L 1975 2525 
Q 2025 2625 2012 2687 
Q 2000 2750 1900 2750 
L 1750 2750 
L 1750 2900 
L 2800 2900 
L 2800 2750 
L 2675 2750 
Q 2600 2750 2487 2712 
Q 2375 2675 2275 2575 
L 1675 1900 
z
M 2450 2750 
L 2450 2750 
z
M 2175 2750 
L 2175 2750 
z
M 2300 250 
L 2300 250 
z
M 2750 250 
L 2750 250 
z
" transform="scale(0.015625)"/>
       <path id="Times New Roman-62" d="M 875 2325
Q 1000 2600 1275 2762 
Q 1550 2925 1800 2925 
Q 2325 2925 2587 2562 
Q 2850 2200 2850 1500 
Q 2850 800 2512 437 
Q 2175 75 1675 75 
Q 1425 75 1212 162 
Q 1000 250 850 400 
L 625 100 
L 525 100 
L 525 4025 
Q 525 4125 475 4175 
Q 425 4225 300 4225 
L 150 4225 
L 150 4375 
L 375 4375 
Q 500 4375 625 4425 
Q 750 4475 875 4575 
L 875 2325 
z
M 875 925 
Q 875 650 1062 450 
Q 1250 250 1625 250 
Q 2075 250 2262 562 
Q 2450 875 2450 1500 
Q 2450 2100 2287 2412 
Q 2125 2725 1775 2725 
Q 1475 2725 1250 2550 
Q 1025 2375 875 1925 
L 875 925 
z
" transform="scale(0.015625)"/>
       <path id="Times New Roman-70" d="M 1150 -675
L 1325 -675 
L 1325 -825 
L 175 -825 
L 175 -675 
L 325 -675 
Q 450 -675 500 -625 
Q 550 -575 550 -450 
L 550 2500 
Q 550 2600 500 2662 
Q 450 2725 325 2725 
L 175 2725 
L 175 2875 
L 400 2875 
Q 525 2875 637 2900 
Q 750 2925 850 3000 
L 900 3000 
L 900 2425 
Q 1075 2675 1287 2800 
Q 1500 2925 1750 2925 
Q 2250 2925 2575 2587 
Q 2900 2250 2900 1525 
Q 2900 825 2550 450 
Q 2200 75 1725 75 
Q 1450 75 1262 162 
Q 1075 250 900 425 
L 900 -450 
Q 900 -575 975 -625 
Q 1050 -675 1150 -675 
z
M 900 750 
Q 1025 500 1212 375 
Q 1400 250 1650 250 
Q 2000 250 2250 562 
Q 2500 875 2500 1525 
Q 2500 2125 2312 2425 
Q 2125 2725 1750 2725 
Q 1525 2725 1300 2587 
Q 1075 2450 900 2150 
L 900 750 
z
" transform="scale(0.015625)"/>
       <path id="Times New Roman-73" d="M 625 2175
Q 625 2550 912 2750 
Q 1200 2950 1600 2950 
Q 1825 2950 2025 2900 
Q 2225 2825 2300 2825 
Q 2375 2825 2425 2850 
Q 2475 2875 2550 2950 
L 2650 2125 
L 2500 2100 
Q 2400 2425 2162 2612 
Q 1925 2800 1625 2800 
Q 1300 2800 1112 2675 
Q 925 2550 925 2325 
Q 925 2125 1012 2012 
Q 1100 1900 1325 1850 
Q 1500 1775 1775 1700 
Q 2025 1600 2250 1500 
Q 2450 1400 2587 1237 
Q 2725 1075 2725 875 
Q 2725 500 2462 287 
Q 2200 75 1700 75 
Q 1375 75 1225 150 
Q 1050 200 950 200 
Q 875 200 787 162 
Q 700 125 600 75 
L 525 1000 
L 675 1025 
Q 750 625 1000 425 
Q 1250 225 1700 225 
Q 2050 225 2237 350 
Q 2425 475 2425 725 
Q 2425 900 2325 1012 
Q 2225 1125 2125 1175 
Q 1875 1275 1575 1400 
Q 1275 1500 1050 1600 
Q 825 1700 725 1850 
Q 625 2000 625 2175 
z
" transform="scale(0.015625)"/>
       <path id="Times New Roman-29" d="M 275 5025
L 400 5150 
Q 1100 4500 1450 3787 
Q 1800 3075 1800 2300 
Q 1800 1500 1450 787 
Q 1100 75 400 -550 
L 275 -425 
Q 850 175 1137 850 
Q 1425 1525 1425 2300 
Q 1425 3050 1137 3737 
Q 850 4425 275 5025 
z
" transform="scale(0.015625)"/>
      </defs>
      <use xlink:href="#Times New Roman-42"/>
      <use xlink:href="#Times New Roman-69" x="50"/>
      <use xlink:href="#Times New Roman-74" x="100"/>
      <use xlink:href="#Times New Roman-72" x="150"/>
      <use xlink:href="#Times New Roman-61" x="200"/>
      <use xlink:href="#Times New Roman-74" x="250"/>
      <use xlink:href="#Times New Roman-65" x="300"/>
      <use xlink:href="#Times New Roman-20" x="350"/>
      <use xlink:href="#Times New Roman-28" x="400"/>
      <use xlink:href="#Times New Roman-6b" x="450"/>
      <use xlink:href="#Times New Roman-62" x="500"/>
      <use xlink:href="#Times New Roman-70" x="550"/>
      <use xlink:href="#Times New Roman-73" x="600"/>
      <use xlink:href="#Times New Roman-29" x="650"/>
     </g>
    </g>
   </g>
   <g id="line2d_14">
    <path d="M 173.045455 361.478747 
L 193.336364 361.478747 
L 194.604545 330.712655 
L 200.945455 330.712655 
L 202.213636 303.541018 
L 209.822727 303.541018 
L 211.090909 254.132502 
L 236.454545 254.132502 
L 237.722727 133.383208 
L 260.55 133.383208 
L 261.818182 254.132502 
L 290.986364 254.132502 
L 292.254545 330.712655 
L 316.35 330.712655 
L 317.618182 361.478747 
L 344.25 361.478747 
L 345.518182 330.712655 
L 348.054545 330.712655 
L 349.322727 303.541018 
L 359.468182 303.541018 
L 360.736364 254.132502 
L 387.368182 254.132502 
L 388.636364 133.383208 
L 449.509091 133.383208 
L 450.777273 330.712655 
L 500.236364 330.712655 
L 501.504545 303.541018 
L 511.65 303.541018 
L 512.918182 254.132502 
L 542.086364 254.132502 
L 543.354545 133.383208 
L 583.302273 133.383208 
L 583.936364 254.132502 
L 617.543182 254.132502 
L 618.177273 361.478747 
L 643.540909 361.478747 
L 644.809091 330.712655 
L 653.686364 330.712655 
L 654.954545 303.541018 
L 663.831818 303.541018 
L 665.1 254.132502 
L 691.731818 254.132502 
L 693 133.383208 
L 744.361364 133.383208 
L 744.995455 303.541018 
L 758.311364 303.541018 
L 758.945455 330.712655 
L 767.188636 330.712655 
L 767.822727 361.478747 
L 798.259091 361.478747 
L 799.527273 330.712655 
L 809.672727 330.712655 
L 810.940909 303.541018 
L 816.013636 303.541018 
L 817.281818 254.132502 
L 843.913636 254.132502 
L 845.181818 133.383208 
L 918.102273 133.383208 
L 918.736364 361.478747 
L 933.954545 361.478747 
L 933.954545 361.478747 
" clip-path="url(#pbea1711a11)" style="fill: none; stroke: #ff0000; stroke-width: 1.5; stroke-linecap: square"/>
   </g>
   <g id="line2d_15">
    <path d="M 173.045455 333.109608 
L 174.313636 332.485391 
L 175.581818 331.671095 
L 176.85 330.084296 
L 179.386364 326.401609 
L 180.654545 326.608203 
L 181.922727 327.690974 
L 183.190909 330.295617 
L 184.459091 331.781585 
L 185.727273 334.802421 
L 186.995455 334.445721 
L 188.263636 330.089129 
L 189.531818 319.414485 
L 190.8 307.12462 
L 193.336364 277.206023 
L 194.604545 264.107263 
L 195.872727 255.16621 
L 199.677273 234.269345 
L 200.945455 221.500576 
L 204.75 213.069587 
L 207.286364 200.704664 
L 211.090909 171.031416 
L 213.627273 156.983006 
L 214.895455 145.187347 
L 216.163636 147.940317 
L 217.431818 167.227225 
L 218.7 192.821786 
L 219.968182 224.458865 
L 221.236364 248.449739 
L 222.504545 275.596357 
L 223.772727 280.366121 
L 225.040909 288.804161 
L 226.309091 280.07941 
L 227.577273 283.539378 
L 228.845455 271.70239 
L 230.113636 274.94869 
L 231.381818 256.395295 
L 232.65 235.182377 
L 233.918182 194.884589 
L 235.186364 168.76583 
L 236.454545 134.284608 
L 237.722727 121.993053 
L 238.990909 114.774154 
L 240.259091 123.119754 
L 241.527273 113.093882 
L 242.795455 94.03637 
L 244.063636 94.152042 
L 245.331818 94.535094 
L 246.6 95.452512 
L 247.868182 96.838306 
L 249.136364 89.514457 
L 251.672727 92.934038 
L 252.940909 104.131157 
L 254.209091 107.168662 
L 255.477273 111.163323 
L 259.281818 98.696148 
L 263.086364 112.825951 
L 264.354545 118.141617 
L 268.159091 136.733353 
L 271.963636 156.491236 
L 275.768182 177.023668 
L 288.45 249.338142 
L 292.254545 269.48317 
L 294.790909 281.88874 
L 296.059091 292.65368 
L 298.595455 301.494364 
L 301.131818 309.868524 
L 304.936364 322.949479 
L 307.472727 330.207336 
L 308.740909 333.288185 
L 310.009091 336.04291 
L 311.277273 339.345454 
L 312.545455 342.3041 
L 313.813636 344.895779 
L 315.081818 346.223249 
L 316.35 347.209324 
L 317.618182 346.898211 
L 318.886364 346.180197 
L 320.154545 345.029907 
L 321.422727 344.389355 
L 322.690909 343.363185 
L 323.959091 341.948245 
L 325.227273 340.200877 
L 326.495455 338.146913 
L 327.763636 335.726923 
L 329.031818 332.921673 
L 330.3 329.726548 
L 331.568182 326.202504 
L 334.104545 318.168538 
L 336.640909 308.980252 
L 342.981818 283.932795 
L 345.518182 271.248051 
L 346.786364 267.082838 
L 347.420455 266.557471 
L 348.054545 271.124678 
L 349.322727 281.895596 
L 350.590909 295.047026 
L 351.859091 309.956383 
L 353.127273 320.38048 
L 354.395455 319.969323 
L 355.663636 310.66062 
L 356.931818 295.894326 
L 358.2 275.813406 
L 359.468182 226.688385 
L 360.736364 206.872374 
L 363.272727 174.517736 
L 364.540909 170.347975 
L 365.809091 183.295223 
L 367.077273 201.472521 
L 368.345455 229.470403 
L 369.613636 249.596553 
L 370.881818 272.539487 
L 372.15 277.810541 
L 373.418182 289.474834 
L 374.686364 287.197647 
L 375.954545 299.313257 
L 377.222727 297.908618 
L 378.490909 307.467153 
L 379.759091 300.460688 
L 381.027273 304.438129 
L 382.295455 292.482023 
L 383.563636 290.081756 
L 384.831818 267.782786 
L 386.1 263.032875 
L 386.734091 255.704607 
L 387.368182 265.012302 
L 389.904545 258.487243 
L 391.172727 251.759041 
L 392.440909 239.757545 
L 393.709091 231.604299 
L 394.977273 219.336105 
L 396.245455 229.149217 
L 397.513636 221.84964 
L 398.781818 224.773975 
L 400.05 209.422657 
L 401.318182 219.062228 
L 402.586364 216.507656 
L 403.854545 235.887556 
L 405.122727 237.138735 
L 406.390909 256.487605 
L 407.659091 252.87593 
L 408.927273 266.786313 
L 410.195455 256.285698 
L 411.463636 266.701899 
L 412.731818 254.110732 
L 414 265.039401 
L 415.268182 256.227017 
L 416.536364 269.651934 
L 417.804545 265.016136 
L 419.072727 274.693561 
L 420.340909 267.612559 
L 421.609091 266.24392 
L 422.877273 250.801495 
L 424.145455 237.78585 
L 424.779545 220.639532 
L 425.413636 206.706436 
L 426.681818 198.357619 
L 427.95 196.316652 
L 429.218182 203.51599 
L 430.486364 213.188703 
L 431.754545 224.206498 
L 433.022727 230.078885 
L 434.290909 232.718718 
L 435.559091 232.516453 
L 436.827273 235.50392 
L 438.095455 241.150389 
L 440.631818 257.353978 
L 441.9 264.172085 
L 443.168182 268.986623 
L 444.436364 272.864507 
L 445.704545 277.709978 
L 446.972727 285.433351 
L 448.240909 295.652454 
L 449.509091 307.989271 
L 452.045455 337.066611 
L 453.313636 348.827275 
L 454.581818 354.933867 
L 455.85 355.593719 
L 457.118182 351.368428 
L 458.386364 345.69798 
L 459.654545 340.566317 
L 460.922727 338.589814 
L 462.190909 338.673677 
L 463.459091 340.434269 
L 467.263636 346.874264 
L 468.531818 348.018283 
L 469.8 348.816975 
L 471.068182 348.159494 
L 472.336364 346.824843 
L 473.604545 345.137651 
L 474.872727 343.911946 
L 476.140909 342.302378 
L 477.409091 340.283732 
L 478.677273 338.722415 
L 479.945455 336.803943 
L 481.213636 336.252063 
L 482.481818 334.814021 
L 483.75 333.149638 
L 485.018182 328.821997 
L 486.286364 325.047698 
L 487.554545 320.444294 
L 488.822727 317.630206 
L 490.090909 316.93341 
L 491.359091 320.390487 
L 492.627273 323.073177 
L 493.895455 325.354457 
L 495.163636 321.990373 
L 496.431818 314.081209 
L 497.7 298.899533 
L 498.968182 289.981875 
L 499.602273 287.169704 
L 500.236364 294.037134 
L 501.504545 304.499311 
L 502.772727 318.371907 
L 504.040909 329.197769 
L 505.309091 330.005754 
L 506.577273 319.223301 
L 507.845455 305.12378 
L 509.113636 289.641909 
L 510.381818 277.102308 
L 511.015909 266.908582 
L 511.65 264.661158 
L 512.918182 268.066735 
L 514.186364 269.59816 
L 515.454545 273.350071 
L 516.722727 273.400304 
L 517.990909 281.965909 
L 519.259091 274.426734 
L 520.527273 279.821031 
L 521.795455 271.533268 
L 523.063636 265.706076 
L 524.331818 234.241597 
L 525.6 209.514058 
L 526.868182 181.3826 
L 529.404545 134.835514 
L 530.672727 121.659455 
L 531.940909 114.47607 
L 533.209091 102.596061 
L 533.843182 91.251005 
L 534.477273 83.202547 
L 535.745455 80.748765 
L 537.013636 84.166689 
L 538.281818 107.870787 
L 539.55 138.109692 
L 540.818182 181.661351 
L 543.354545 246.503454 
L 544.622727 247.147807 
L 545.890909 233.57609 
L 547.159091 193.70551 
L 548.427273 160.296597 
L 549.061364 120.161985 
L 549.695455 93.323295 
L 550.963636 74.806389 
L 552.231818 70.289318 
L 553.5 71.817915 
L 554.768182 74.913191 
L 558.572727 98.677237 
L 559.840909 102.298855 
L 561.109091 112.826861 
L 563.645455 136.43072 
L 564.913636 142.311654 
L 566.181818 147.515026 
L 567.45 145.285051 
L 569.986364 130.243515 
L 571.254545 134.086275 
L 572.522727 143.413985 
L 573.790909 156.203484 
L 576.327273 176.206326 
L 578.863636 183.326383 
L 580.131818 183.864162 
L 582.668182 192.063645 
L 583.936364 205.305565 
L 585.204545 211.047237 
L 586.472727 223.140492 
L 587.740909 237.544238 
L 589.009091 260.31961 
L 590.277273 279.056521 
L 591.545455 301.123887 
L 594.081818 317.65841 
L 595.35 313.456545 
L 596.618182 315.533482 
L 597.886364 311.815687 
L 599.154545 314.320319 
L 600.422727 311.723409 
L 601.690909 311.81312 
L 602.959091 309.642606 
L 604.227273 309.959665 
L 605.495455 310.901615 
L 606.763636 314.253807 
L 609.3 322.883324 
L 611.836364 330.229268 
L 613.104545 333.371593 
L 614.372727 336.108154 
L 615.640909 338.536462 
L 616.909091 340.577722 
L 618.177273 343.876952 
L 619.445455 346.744945 
L 620.713636 350.822364 
L 623.25 360.735357 
L 624.518182 365.196054 
L 625.786364 368.054982 
L 627.054545 369.318345 
L 628.322727 369.274415 
L 629.590909 368.720585 
L 630.859091 366.22804 
L 632.127273 363.094943 
L 633.395455 357.813394 
L 634.663636 354.000722 
L 635.931818 349.307998 
L 637.2 348.514732 
L 638.468182 344.556332 
L 639.736364 340.136218 
L 642.272727 319.954636 
L 642.906818 307.335104 
L 643.540909 297.717856 
L 644.809091 289.832508 
L 647.345455 280.143972 
L 648.613636 276.277037 
L 649.881818 271.833886 
L 650.515909 267.305605 
L 651.15 261.539889 
L 652.418182 256.0268 
L 653.686364 242.786926 
L 654.954545 236.462929 
L 657.490909 226.150573 
L 660.027273 214.474519 
L 663.831818 192.854831 
L 667.636364 171.093022 
L 671.440909 150.731888 
L 672.709091 151.220702 
L 673.977273 160.190055 
L 675.245455 183.587816 
L 676.513636 202.124412 
L 677.781818 228.244601 
L 680.318182 259.790441 
L 681.586364 253.114033 
L 682.854545 255.758414 
L 684.122727 244.813922 
L 685.390909 249.058676 
L 686.659091 230.879072 
L 687.927273 221.385424 
L 689.195455 195.427599 
L 690.463636 175.931117 
L 691.731818 142.666209 
L 693 118.431123 
L 693.634091 94.959475 
L 694.268182 84.261794 
L 695.536364 74.43783 
L 696.804545 68.135049 
L 698.072727 67.298309 
L 699.340909 66.96 
L 700.609091 67.193587 
L 701.877273 67.732211 
L 703.145455 68.501529 
L 704.413636 70.031557 
L 705.681818 71.768462 
L 706.95 74.009712 
L 708.218182 87.500101 
L 710.754545 118.897322 
L 712.022727 124.088672 
L 713.290909 127.751653 
L 714.559091 121.37401 
L 715.827273 113.212154 
L 717.095455 105.822476 
L 718.363636 109.034074 
L 719.631818 114.594504 
L 720.9 121.19657 
L 723.436364 145.487998 
L 724.704545 156.770376 
L 725.972727 162.878431 
L 727.240909 167.888377 
L 728.509091 167.736118 
L 729.777273 168.001352 
L 731.045455 169.841258 
L 739.922727 220.471319 
L 743.727273 248.741974 
L 744.995455 261.299674 
L 747.531818 267.755655 
L 748.8 270.738897 
L 751.336364 281.954049 
L 753.872727 293.773232 
L 756.409091 304.576708 
L 757.677273 309.591593 
L 758.945455 317.885855 
L 761.481818 324.549559 
L 765.286364 333.359863 
L 766.554545 337.411386 
L 767.188636 342.300006 
L 767.822727 348.470445 
L 769.090909 354.392449 
L 770.359091 358.743842 
L 771.627273 360.252879 
L 772.895455 358.783905 
L 774.163636 355.376184 
L 774.797727 351.194627 
L 775.431818 348.122291 
L 776.7 346.043405 
L 777.968182 345.080237 
L 780.504545 342.374543 
L 781.772727 340.59777 
L 783.040909 338.396031 
L 785.577273 333.240487 
L 786.845455 333.105319 
L 788.113636 333.413508 
L 789.381818 336.570811 
L 790.65 338.134468 
L 791.918182 341.796799 
L 793.186364 338.944337 
L 794.454545 333.408991 
L 796.990909 309.729783 
L 797.625 296.017082 
L 798.259091 285.896333 
L 799.527273 277.606977 
L 802.063636 267.275192 
L 804.6 255.255174 
L 808.404545 234.356294 
L 809.672727 221.558315 
L 816.013636 192.959098 
L 817.281818 189.037285 
L 818.55 191.258129 
L 819.818182 207.604457 
L 821.086364 228.893958 
L 822.354545 258.218142 
L 824.890909 303.152313 
L 826.159091 307.144797 
L 827.427273 313.639509 
L 828.695455 306.918034 
L 829.963636 313.306691 
L 831.231818 305.85453 
L 832.5 312.635499 
L 833.768182 306.303313 
L 835.036364 313.144912 
L 836.304545 304.630938 
L 837.572727 311.410606 
L 838.840909 297.73277 
L 840.109091 298.215507 
L 841.377273 278.870211 
L 842.645455 280.203335 
L 843.279545 274.446554 
L 843.913636 283.916808 
L 845.181818 285.702809 
L 845.815909 299.70911 
L 846.45 305.623543 
L 847.718182 312.429433 
L 848.986364 315.293429 
L 850.254545 324.467094 
L 851.522727 332.04097 
L 852.790909 338.219825 
L 854.059091 339.634927 
L 855.327273 345.31834 
L 856.595455 341.67648 
L 857.863636 343.574839 
L 859.131818 341.325661 
L 860.4 346.596455 
L 861.668182 346.372779 
L 862.936364 351.009909 
L 864.204545 349.737123 
L 865.472727 352.550399 
L 866.740909 349.578723 
L 868.009091 351.528388 
L 869.277273 349.329378 
L 870.545455 351.845317 
L 871.813636 349.939744 
L 873.081818 352.011125 
L 874.35 349.671261 
L 875.618182 350.561678 
L 876.886364 347.486385 
L 878.154545 347.789213 
L 879.422727 344.519876 
L 880.690909 346.005909 
L 881.959091 342.380782 
L 883.227273 342.596075 
L 884.495455 336.42934 
L 885.763636 332.988639 
L 887.031818 319.837599 
L 888.3 312.283315 
L 889.568182 299.60481 
L 890.836364 294.74488 
L 892.104545 284.197509 
L 894.640909 280.128635 
L 895.909091 282.64087 
L 897.177273 280.487317 
L 898.445455 281.755067 
L 899.713636 284.116246 
L 900.981818 286.841208 
L 902.25 288.030489 
L 903.518182 290.362977 
L 904.786364 295.036596 
L 907.322727 300.730179 
L 908.590909 304.59864 
L 911.127273 314.3172 
L 914.931818 327.333624 
L 916.2 333.031756 
L 917.468182 340.33598 
L 918.736364 356.118924 
L 920.004545 362.580396 
L 921.272727 366.952877 
L 922.540909 368.896108 
L 923.809091 369.36 
L 927.613636 369.277405 
L 928.881818 369.043038 
L 930.15 368.147714 
L 931.418182 365.881251 
L 933.954545 358.701082 
L 933.954545 358.701082 
" clip-path="url(#pbea1711a11)" style="fill: none; stroke: #008000; stroke-width: 1.5; stroke-linecap: square"/>
   </g>
   <g id="patch_3">
    <path d="M 135 384.48 
L 135 51.84 
" style="fill: none; stroke: #000000; stroke-width: 0.8; stroke-linejoin: miter; stroke-linecap: square"/>
   </g>
   <g id="patch_4">
    <path d="M 972 384.48 
L 972 51.84 
" style="fill: none; stroke: #000000; stroke-width: 0.8; stroke-linejoin: miter; stroke-linecap: square"/>
   </g>
   <g id="patch_5">
    <path d="M 135 384.48 
L 972 384.48 
" style="fill: none; stroke: #000000; stroke-width: 0.8; stroke-linejoin: miter; stroke-linecap: square"/>
   </g>
   <g id="patch_6">
    <path d="M 135 51.84 
L 972 51.84 
" style="fill: none; stroke: #000000; stroke-width: 0.8; stroke-linejoin: miter; stroke-linecap: square"/>
   </g>
  </g>
  <g id="axes_2">
   <g id="matplotlib.axis_3">
    <g id="ytick_7">
     <g id="line2d_16">
      <path d="M 135 344.109199 
L 972 344.109199 
" clip-path="url(#pbea1711a11)" style="fill: none; stroke: #b0b0b0; stroke-width: 0.8; stroke-linecap: square"/>
     </g>
     <g id="line2d_17">
      <defs>
       <path id="m61ea82fea3" d="M 0 0 
L 3.5 0 
" style="stroke: #000000; stroke-width: 0.8"/>
      </defs>
      <g>
       <use xlink:href="#m61ea82fea3" x="972" y="344.109199" style="stroke: #000000; stroke-width: 0.8"/>
      </g>
     </g>
     <g id="text_15">
      <!-- 5 -->
      <g transform="translate(979 347.683418) scale(0.1 -0.1)">
       <use xlink:href="#Times New Roman-35"/>
      </g>
     </g>
    </g>
    <g id="ytick_8">
     <g id="line2d_18">
      <path d="M 135 290.634398 
L 972 290.634398 
" clip-path="url(#pbea1711a11)" style="fill: none; stroke: #b0b0b0; stroke-width: 0.8; stroke-linecap: square"/>
     </g>
     <g id="line2d_19">
      <g>
       <use xlink:href="#m61ea82fea3" x="972" y="290.634398" style="stroke: #000000; stroke-width: 0.8"/>
      </g>
     </g>
     <g id="text_16">
      <!-- 10 -->
      <g transform="translate(979 294.208617) scale(0.1 -0.1)">
       <use xlink:href="#Times New Roman-31"/>
       <use xlink:href="#Times New Roman-30" x="50"/>
      </g>
     </g>
    </g>
    <g id="ytick_9">
     <g id="line2d_20">
      <path d="M 135 237.159597 
L 972 237.159597 
" clip-path="url(#pbea1711a11)" style="fill: none; stroke: #b0b0b0; stroke-width: 0.8; stroke-linecap: square"/>
     </g>
     <g id="line2d_21">
      <g>
       <use xlink:href="#m61ea82fea3" x="972" y="237.159597" style="stroke: #000000; stroke-width: 0.8"/>
      </g>
     </g>
     <g id="text_17">
      <!-- 15 -->
      <g transform="translate(979 240.733816) scale(0.1 -0.1)">
       <use xlink:href="#Times New Roman-31"/>
       <use xlink:href="#Times New Roman-35" x="50"/>
      </g>
     </g>
    </g>
    <g id="ytick_10">
     <g id="line2d_22">
      <path d="M 135 183.684796 
L 972 183.684796 
" clip-path="url(#pbea1711a11)" style="fill: none; stroke: #b0b0b0; stroke-width: 0.8; stroke-linecap: square"/>
     </g>
     <g id="line2d_23">
      <g>
       <use xlink:href="#m61ea82fea3" x="972" y="183.684796" style="stroke: #000000; stroke-width: 0.8"/>
      </g>
     </g>
     <g id="text_18">
      <!-- 20 -->
      <g transform="translate(979 187.259015) scale(0.1 -0.1)">
       <use xlink:href="#Times New Roman-32"/>
       <use xlink:href="#Times New Roman-30" x="50"/>
      </g>
     </g>
    </g>
    <g id="ytick_11">
     <g id="line2d_24">
      <path d="M 135 130.209995 
L 972 130.209995 
" clip-path="url(#pbea1711a11)" style="fill: none; stroke: #b0b0b0; stroke-width: 0.8; stroke-linecap: square"/>
     </g>
     <g id="line2d_25">
      <g>
       <use xlink:href="#m61ea82fea3" x="972" y="130.209995" style="stroke: #000000; stroke-width: 0.8"/>
      </g>
     </g>
     <g id="text_19">
      <!-- 25 -->
      <g transform="translate(979 133.784213) scale(0.1 -0.1)">
       <use xlink:href="#Times New Roman-32"/>
       <use xlink:href="#Times New Roman-35" x="50"/>
      </g>
     </g>
    </g>
    <g id="ytick_12">
     <g id="line2d_26">
      <path d="M 135 76.735194 
L 972 76.735194 
" clip-path="url(#pbea1711a11)" style="fill: none; stroke: #b0b0b0; stroke-width: 0.8; stroke-linecap: square"/>
     </g>
     <g id="line2d_27">
      <g>
       <use xlink:href="#m61ea82fea3" x="972" y="76.735194" style="stroke: #000000; stroke-width: 0.8"/>
      </g>
     </g>
     <g id="text_20">
      <!-- 30 -->
      <g transform="translate(979 80.309412) scale(0.1 -0.1)">
       <use xlink:href="#Times New Roman-33"/>
       <use xlink:href="#Times New Roman-30" x="50"/>
      </g>
     </g>
    </g>
    <g id="text_21">
     <!-- buffer (s) -->
     <g transform="translate(1000.617188 243.16) rotate(-90) scale(0.1 -0.1)">
      <defs>
       <path id="Times New Roman-75" d="M 1450 325
Q 1750 325 1962 475 
Q 2175 625 2275 950 
L 2275 2525 
Q 2275 2625 2225 2687 
Q 2175 2750 2050 2750 
L 1900 2750 
L 1900 2900 
L 2050 2900 
Q 2200 2900 2325 2925 
Q 2450 2950 2575 3050 
L 2625 3050 
L 2625 600 
Q 2625 500 2687 450 
Q 2750 400 2850 400 
L 3000 400 
L 3000 250 
L 2850 250 
Q 2725 250 2600 212 
Q 2475 175 2325 100 
L 2275 100 
L 2275 625 
Q 2150 350 1900 212 
Q 1650 75 1325 75 
Q 925 75 725 300 
Q 525 525 525 1025 
L 525 2525 
Q 525 2625 475 2687 
Q 425 2750 300 2750 
L 150 2750 
L 150 2900 
L 300 2900 
Q 450 2900 575 2925 
Q 700 2950 825 3050 
L 875 3050 
L 875 975 
Q 875 625 1025 475 
Q 1175 325 1450 325 
z
" transform="scale(0.015625)"/>
       <path id="Times New Roman-66" d="M 1125 3325
Q 1125 3850 1450 4112 
Q 1775 4375 2175 4375 
Q 2600 4375 2812 4225 
Q 3025 4075 3025 3875 
Q 3025 3775 2975 3700 
Q 2925 3625 2775 3625 
Q 2675 3625 2612 3675 
Q 2550 3725 2550 3850 
Q 2550 3875 2575 3925 
Q 2575 3975 2575 4000 
Q 2575 4100 2500 4162 
Q 2425 4225 2150 4225 
Q 1850 4225 1662 4037 
Q 1475 3850 1475 3400 
L 1475 2900 
L 2525 2900 
L 2525 2750 
L 1475 2750 
L 1475 450 
Q 1475 350 1537 300 
Q 1600 250 1700 250 
L 2300 250 
L 2300 100 
L 475 100 
L 475 250 
L 900 250 
Q 1025 250 1075 300 
Q 1125 350 1125 450 
L 1125 2750 
L 350 2750 
L 350 2900 
L 1125 2900 
L 1125 3325 
z
" transform="scale(0.015625)"/>
      </defs>
      <use xlink:href="#Times New Roman-62"/>
      <use xlink:href="#Times New Roman-75" x="50"/>
      <use xlink:href="#Times New Roman-66" x="100"/>
      <use xlink:href="#Times New Roman-66" x="150"/>
      <use xlink:href="#Times New Roman-65" x="200"/>
      <use xlink:href="#Times New Roman-72" x="250"/>
      <use xlink:href="#Times New Roman-20" x="300"/>
      <use xlink:href="#Times New Roman-28" x="350"/>
      <use xlink:href="#Times New Roman-73" x="400"/>
      <use xlink:href="#Times New Roman-29" x="450"/>
     </g>
    </g>
   </g>
   <g id="line2d_28">
    <path d="M 173.045455 369.36 
L 174.313636 352.702599 
L 175.581818 343.863215 
L 176.85 318.886918 
L 178.118182 301.418483 
L 179.386364 290.359894 
L 180.654545 286.819862 
L 181.922727 275.857528 
L 184.459091 226.268562 
L 185.727273 215.263448 
L 189.531818 225.273931 
L 190.8 221.47722 
L 192.068182 218.136828 
L 194.604545 212.311639 
L 197.140909 204.793082 
L 199.677273 197.36365 
L 200.945455 183.78818 
L 202.213636 183.281952 
L 206.018182 171.955989 
L 208.554545 150.665889 
L 209.822727 133.528997 
L 213.627273 122.912467 
L 214.261364 115.30835 
L 214.895455 115.151491 
L 216.163636 115.557899 
L 217.431818 112.174727 
L 221.236364 80.260966 
L 222.504545 75.886727 
L 225.040909 82.506907 
L 226.309091 79.605008 
L 227.577273 75.772647 
L 228.845455 72.432255 
L 230.113636 75.722737 
L 231.381818 72.813708 
L 232.65 76.507034 
L 233.918182 73.270027 
L 235.186364 76.913443 
L 236.454545 80.203926 
L 237.722727 83.815257 
L 238.990909 86.727851 
L 240.259091 82.909751 
L 241.527273 86.182408 
L 242.795455 87.073655 
L 244.063636 87.19843 
L 246.6 93.736615 
L 250.404545 83.041655 
L 251.672727 86.303618 
L 252.940909 83.387459 
L 254.209091 87.16278 
L 255.477273 83.651268 
L 256.745455 87.308944 
L 258.013636 90.602992 
L 259.281818 94.499523 
L 260.55 97.408552 
L 261.818182 100.699034 
L 263.086364 111.112361 
L 264.354545 122.466844 
L 266.890909 129.037114 
L 268.159091 125.479257 
L 269.427273 129.721592 
L 270.695455 125.885666 
L 271.963636 128.887385 
L 273.231818 125.047894 
L 275.768182 119.48295 
L 277.036364 115.647024 
L 279.572727 121.98557 
L 280.840909 133.340053 
L 282.109091 137.225889 
L 284.645455 143.799724 
L 288.45 175.410462 
L 289.718182 185.805963 
L 290.986364 190.037602 
L 294.790909 200.176424 
L 295.425 200.860902 
L 296.059091 201.33148 
L 297.327273 208.661093 
L 301.131818 239.623003 
L 302.4 243.879597 
L 304.936364 250.446302 
L 306.204545 260.838239 
L 308.740909 282.698737 
L 316.35 346.094897 
L 317.618182 350.287321 
L 318.886364 353.570674 
L 320.154545 350.265931 
L 321.422727 353.570674 
L 322.690909 350.65095 
L 323.959091 346.415745 
L 325.227273 342.708159 
L 327.763636 347.488806 
L 329.031818 349.032446 
L 330.3 351.984255 
L 331.568182 355.609846 
L 332.836364 352.704382 
L 334.104545 348.615342 
L 335.372727 341.845432 
L 336.640909 327.884944 
L 339.177273 288.998069 
L 341.713636 267.16609 
L 344.25 232.001061 
L 346.786364 181.898737 
L 347.420455 161.129125 
L 348.054545 146.958302 
L 349.322727 131.978228 
L 351.859091 95.747268 
L 353.127273 92.834674 
L 354.395455 88.959533 
L 355.663636 92.121676 
L 356.931818 88.310706 
L 358.2 92.51739 
L 358.834091 92.955883 
L 359.468182 92.43183 
L 360.736364 84.945358 
L 362.004545 81.109432 
L 364.540909 89.444371 
L 365.809091 92.720594 
L 367.077273 89.141347 
L 368.345455 92.421135 
L 369.613636 89.529931 
L 370.881818 85.986334 
L 372.15 75.177294 
L 373.418182 71.330674 
L 374.686364 74.999045 
L 375.954545 78.318048 
L 379.759091 67.890462 
L 382.295455 74.168403 
L 383.563636 77.872424 
L 386.1 72.21479 
L 386.734091 72.24331 
L 387.368182 79.002525 
L 388.636364 78.499862 
L 389.904545 81.761825 
L 391.172727 78.610377 
L 392.440909 81.900859 
L 393.709091 78.318048 
L 394.977273 81.576446 
L 396.245455 78.646027 
L 397.513636 81.6727 
L 398.781818 78.200403 
L 400.05 81.494451 
L 401.318182 78.596117 
L 402.586364 81.512276 
L 403.854545 77.66209 
L 405.122727 80.956138 
L 407.659091 75.173729 
L 408.927273 71.929592 
L 411.463636 78.503427 
L 412.731818 75.03113 
L 414 71.220159 
L 416.536364 77.79756 
L 417.804545 81.997114 
L 419.072727 78.724456 
L 420.340909 81.968594 
L 421.609091 78.300223 
L 422.877273 81.965029 
L 424.145455 78.742281 
L 424.779545 78.688806 
L 425.413636 78.186143 
L 426.681818 78.296658 
L 427.95 81.911554 
L 429.218182 86.157454 
L 430.486364 89.155607 
L 433.022727 81.444541 
L 434.290909 78.539077 
L 438.095455 88.417655 
L 439.363636 92.652859 
L 443.168182 81.141517 
L 444.436364 85.344637 
L 445.704545 88.645814 
L 446.972727 92.56017 
L 448.240909 95.857782 
L 449.509091 100.114377 
L 450.777273 96.5993 
L 453.313636 88.891798 
L 454.581818 92.196541 
L 455.85 96.424615 
L 459.654545 127.760849 
L 460.922727 131.985358 
L 462.190909 135.240191 
L 463.459091 131.322271 
L 464.727273 134.616318 
L 465.995455 131.750069 
L 468.531818 138.29182 
L 469.8 148.669496 
L 472.336364 157.147034 
L 473.604545 153.992021 
L 474.872727 157.289634 
L 476.140909 153.653347 
L 477.409091 157.236159 
L 479.945455 149.681952 
L 481.213636 145.853156 
L 482.481818 142.769443 
L 483.75 138.929952 
L 485.018182 135.457655 
L 486.286364 131.621729 
L 487.554545 135.671554 
L 488.822727 131.746504 
L 490.090909 135.008467 
L 491.359091 131.204626 
L 492.627273 127.989008 
L 493.895455 125.097804 
L 495.163636 121.768106 
L 496.431818 125.072849 
L 497.7 121.308223 
L 498.968182 124.987289 
L 499.602273 125.393698 
L 500.236364 125.379438 
L 501.504545 117.761061 
L 504.040909 96.228541 
L 506.577273 88.55669 
L 507.845455 91.807958 
L 509.113636 88.952403 
L 510.381818 92.987968 
L 511.015909 93.258907 
L 511.65 92.727724 
L 512.918182 85.269772 
L 514.186364 81.594271 
L 515.454545 78.692371 
L 516.722727 81.968594 
L 517.990909 78.150493 
L 519.259091 81.433846 
L 520.527273 78.571162 
L 521.795455 81.875905 
L 523.063636 78.382218 
L 524.331818 81.64418 
L 525.6 78.724456 
L 526.868182 81.69409 
L 529.404545 88.275056 
L 530.672727 92.485305 
L 531.940909 88.603034 
L 533.209091 91.897082 
L 533.843182 91.390854 
L 534.477273 91.829347 
L 535.745455 92.292796 
L 537.013636 89.398027 
L 540.818182 99.22313 
L 542.086364 89.209082 
L 543.354545 78.257443 
L 544.622727 74.425082 
L 545.890909 77.708435 
L 547.159091 81.922249 
L 548.427273 78.695936 
L 549.061364 78.806451 
L 549.695455 78.300223 
L 550.963636 85.248382 
L 552.231818 88.909623 
L 553.5 92.196541 
L 554.768182 88.367745 
L 556.036364 91.601188 
L 557.304545 88.724244 
L 558.572727 92.959448 
L 562.377273 103.073316 
L 563.645455 100.171416 
L 564.913636 96.082377 
L 566.181818 85.640531 
L 567.45 81.80104 
L 568.718182 85.989899 
L 571.254545 92.834674 
L 575.059091 102.852286 
L 576.327273 98.998536 
L 577.595455 102.296149 
L 578.863636 99.437029 
L 580.131818 103.686493 
L 582.668182 110.213984 
L 583.302273 109.697061 
L 583.936364 110.131989 
L 585.204545 117.711151 
L 586.472727 121.586292 
L 587.740909 117.736106 
L 592.813636 74.642546 
L 594.081818 70.831576 
L 595.35 75.05965 
L 597.886364 81.8153 
L 599.154545 78.189708 
L 600.422727 81.833125 
L 601.690909 78.94905 
L 604.227273 85.301857 
L 605.495455 88.581645 
L 606.763636 92.766939 
L 608.031818 96.064552 
L 611.836364 107.23009 
L 613.104545 117.294048 
L 615.640909 123.850058 
L 616.909091 121.101454 
L 617.543182 121.693241 
L 618.177273 121.233358 
L 619.445455 127.693114 
L 620.713636 130.926557 
L 621.981818 135.154631 
L 623.25 132.266992 
L 624.518182 135.992403 
L 625.786364 139.282886 
L 632.127273 191.791576 
L 634.663636 213.56295 
L 635.931818 217.384615 
L 637.2 220.846218 
L 638.468182 217.915798 
L 639.736364 220.664403 
L 641.004545 216.657358 
L 642.272727 219.947841 
L 643.540909 220.828393 
L 644.809091 221.281146 
L 646.077273 217.463045 
L 647.345455 220.735703 
L 648.613636 216.903342 
L 649.881818 213.976488 
L 651.15 200.187119 
L 652.418182 192.558048 
L 653.686364 177.688488 
L 654.954545 178.169761 
L 656.222727 174.879279 
L 657.490909 178.155501 
L 658.759091 174.319576 
L 660.027273 170.865103 
L 662.563636 150.049146 
L 663.831818 146.209655 
L 665.1 142.773008 
L 666.368182 146.37008 
L 670.172727 134.844477 
L 671.440909 131.956838 
L 672.709091 135.275841 
L 675.245455 127.728764 
L 677.781818 92.838239 
L 679.05 81.84382 
L 680.318182 78.039979 
L 681.586364 81.929379 
L 682.854545 78.325178 
L 684.122727 81.61566 
L 685.390909 77.77617 
L 686.659091 81.73687 
L 687.927273 78.578292 
L 689.195455 81.85808 
L 690.463636 78.039979 
L 691.731818 81.569316 
L 693 85.81165 
L 693.634091 93.365857 
L 694.268182 92.852499 
L 695.536364 92.349836 
L 696.804545 88.50678 
L 698.072727 92.734854 
L 699.340909 88.998748 
L 700.609091 92.613645 
L 701.877273 89.052223 
L 703.145455 93.166218 
L 705.681818 99.12331 
L 706.95 102.406663 
L 708.218182 99.504764 
L 709.486364 102.791682 
L 712.022727 95.12696 
L 713.290909 85.237687 
L 714.559091 82.328658 
L 718.363636 92.057507 
L 719.631818 89.191257 
L 723.436364 99.034186 
L 724.704545 96.142981 
L 725.972727 92.923798 
L 727.240909 89.062918 
L 728.509091 92.342706 
L 731.045455 99.240955 
L 733.581818 105.84331 
L 736.118182 114.288764 
L 737.386364 117.557857 
L 739.922727 124.427586 
L 741.190909 128.687745 
L 742.459091 138.837263 
L 743.727273 142.11705 
L 744.361364 141.589432 
L 744.995455 142.013666 
L 746.263636 142.477114 
L 747.531818 139.175936 
L 748.8 128.195777 
L 750.068182 124.352721 
L 751.336364 121.019459 
L 753.872727 127.575469 
L 755.140909 137.888976 
L 756.409091 149.289804 
L 757.677273 153.521443 
L 758.311364 153.959936 
L 758.945455 153.414493 
L 760.213636 160.052499 
L 761.481818 170.501475 
L 762.75 174.750939 
L 764.018182 178.601125 
L 766.554545 185.178525 
L 767.188636 185.096531 
L 767.822727 185.552849 
L 769.090909 192.165899 
L 771.627273 199.028499 
L 772.895455 203.224488 
L 774.163636 213.316966 
L 775.431818 226.568021 
L 776.7 227.427183 
L 779.236364 235.926111 
L 780.504545 238.842271 
L 781.772727 242.136318 
L 783.040909 238.254048 
L 784.309091 235.341454 
L 786.845455 227.701687 
L 788.113636 230.960085 
L 789.381818 228.051056 
L 790.65 224.803353 
L 793.186364 217.113676 
L 794.454545 220.771353 
L 795.722727 217.623469 
L 796.990909 220.910387 
L 797.625 220.393464 
L 798.259091 220.143915 
L 799.527273 220.564584 
L 800.795455 217.38818 
L 802.063636 221.174196 
L 804.6 213.755459 
L 805.868182 203.224488 
L 807.136364 200.14434 
L 808.404545 196.304849 
L 809.038636 195.805751 
L 809.672727 188.333538 
L 810.940909 181.674143 
L 814.745455 170.312531 
L 816.013636 160.294918 
L 821.086364 117.155013 
L 822.354545 107.144531 
L 823.622727 89.023703 
L 826.159091 67.109729 
L 827.427273 71.344934 
L 829.963636 77.915204 
L 831.231818 74.089973 
L 832.5 71.220159 
L 835.036364 77.751215 
L 836.304545 74.065019 
L 837.572727 71.191639 
L 838.840909 67.705082 
L 840.109091 71.280764 
L 841.377273 67.419883 
L 842.645455 71.291459 
L 843.279545 71.262939 
L 843.913636 71.715692 
L 845.181818 71.205899 
L 845.815909 70.696106 
L 846.45 77.316286 
L 847.718182 77.7833 
L 848.986364 82.011374 
L 850.254545 78.171883 
L 851.522727 81.433846 
L 852.790909 77.77617 
L 854.059091 74.89566 
L 856.595455 67.184594 
L 857.863636 70.457252 
L 859.131818 67.569613 
L 860.4 70.738886 
L 861.668182 67.259459 
L 862.936364 70.542812 
L 864.204545 67.655172 
L 865.472727 71.526748 
L 866.740909 68.154271 
L 868.009091 71.441188 
L 869.277273 67.601698 
L 870.545455 71.373454 
L 871.813636 67.523268 
L 873.081818 70.806621 
L 874.35 66.96 
L 875.618182 71.159554 
L 876.886364 68.011671 
L 878.154545 71.669347 
L 880.690909 78.499862 
L 881.959091 75.148775 
L 884.495455 67.484053 
L 885.763636 70.831576 
L 887.031818 67.972456 
L 890.836364 77.822515 
L 892.104545 82.071979 
L 893.372727 78.207533 
L 894.640909 81.437411 
L 895.909091 77.587225 
L 897.177273 81.811735 
L 898.445455 77.979374 
L 900.981818 84.613814 
L 902.25 88.849019 
L 903.518182 85.829475 
L 904.786364 81.997114 
L 908.590909 91.918472 
L 909.859091 88.050462 
L 911.127273 91.355204 
L 913.663636 99.843438 
L 914.931818 103.105401 
L 917.468182 110.395798 
L 918.102273 111.19792 
L 918.736364 111.26922 
L 920.004545 110.634653 
L 921.272727 113.550812 
L 922.540909 116.841294 
L 925.077273 138.470069 
L 927.613636 159.278897 
L 931.418182 192.422578 
L 933.954545 213.213581 
L 933.954545 213.213581 
" clip-path="url(#pbea1711a11)" style="fill: none; stroke: #1f77b4; stroke-width: 1.5; stroke-linecap: square"/>
   </g>
   <g id="patch_7">
    <path d="M 135 384.48 
L 135 51.84 
" style="fill: none; stroke: #000000; stroke-width: 0.8; stroke-linejoin: miter; stroke-linecap: square"/>
   </g>
   <g id="patch_8">
    <path d="M 972 384.48 
L 972 51.84 
" style="fill: none; stroke: #000000; stroke-width: 0.8; stroke-linejoin: miter; stroke-linecap: square"/>
   </g>
   <g id="patch_9">
    <path d="M 135 384.48 
L 972 384.48 
" style="fill: none; stroke: #000000; stroke-width: 0.8; stroke-linejoin: miter; stroke-linecap: square"/>
   </g>
   <g id="patch_10">
    <path d="M 135 51.84 
L 972 51.84 
" style="fill: none; stroke: #000000; stroke-width: 0.8; stroke-linejoin: miter; stroke-linecap: square"/>
   </g>
   <g id="text_22">
    <!-- ./source/bola4_wave -->
    <g transform="translate(496.5 45.84) scale(0.12 -0.12)">
     <defs>
      <path id="Times New Roman-2e" d="M 800 25
Q 650 25 537 125 
Q 425 225 425 400 
Q 425 575 537 675 
Q 650 775 800 775 
Q 950 775 1062 662 
Q 1175 550 1175 400 
Q 1175 225 1062 125 
Q 950 25 800 25 
z
" transform="scale(0.015625)"/>
      <path id="Times New Roman-2f" d="M 400 -475
L 225 -375 
L 2775 4975 
L 2950 4875 
L 400 -475 
z
" transform="scale(0.015625)"/>
      <path id="Times New Roman-6f" d="M 2900 1500
Q 2900 875 2525 462 
Q 2150 50 1600 50 
Q 1025 50 662 475 
Q 300 900 300 1500 
Q 300 2050 662 2500 
Q 1025 2950 1600 2950 
Q 2200 2950 2550 2500 
Q 2900 2050 2900 1500 
z
M 700 1475 
Q 700 825 962 512 
Q 1225 200 1600 200 
Q 2025 200 2262 537 
Q 2500 875 2500 1475 
Q 2500 2125 2237 2462 
Q 1975 2800 1600 2800 
Q 1250 2800 975 2462 
Q 700 2125 700 1475 
z
" transform="scale(0.015625)"/>
      <path id="Times New Roman-63" d="M 2150 2225
Q 2150 2300 2175 2325 
Q 2175 2350 2200 2425 
Q 2225 2525 2100 2662 
Q 1975 2800 1675 2800 
Q 1300 2800 1037 2437 
Q 775 2075 775 1475 
Q 775 925 1000 587 
Q 1225 250 1750 250 
Q 2100 250 2337 475 
Q 2575 700 2675 1000 
L 2800 950 
Q 2700 575 2425 312 
Q 2150 50 1675 50 
Q 1075 50 725 425 
Q 375 800 375 1500 
Q 375 2125 750 2537 
Q 1125 2950 1725 2950 
Q 2150 2950 2387 2725 
Q 2625 2500 2625 2275 
Q 2625 2125 2562 2062 
Q 2500 2000 2375 2000 
Q 2275 2000 2212 2062 
Q 2150 2125 2150 2225 
z
" transform="scale(0.015625)"/>
      <path id="Times New Roman-6c" d="M 925 4375
Q 1150 4375 1350 4425 
Q 1550 4475 1725 4575 
L 1775 4575 
L 1775 450 
Q 1775 350 1837 300 
Q 1900 250 2000 250 
L 2575 250 
L 2575 100 
L 625 100 
L 625 250 
L 1200 250 
Q 1325 250 1375 300 
Q 1425 350 1425 450 
L 1425 4025 
Q 1425 4125 1375 4175 
Q 1325 4225 1200 4225 
L 650 4225 
L 650 4375 
L 925 4375 
z
" transform="scale(0.015625)"/>
      <path id="Times New Roman-5f" d="M 0 -875
L 0 -725 
L 3175 -725 
L 3175 -875 
L 0 -875 
z
" transform="scale(0.015625)"/>
      <path id="Times New Roman-77" d="M 2325 2900
L 3175 2900 
L 3175 2750 
L 3075 2750 
Q 2975 2750 2900 2675 
Q 2825 2600 2775 2425 
L 2175 75 
L 2025 75 
L 1575 1975 
L 1100 75 
L 950 75 
L 375 2375 
Q 350 2550 275 2650 
Q 200 2750 125 2750 
L 25 2750 
L 25 2900 
L 925 2900 
L 925 2750 
L 825 2750 
Q 725 2750 700 2662 
Q 675 2575 700 2425 
L 1075 800 
L 1125 800 
L 1500 2300 
Q 1475 2525 1400 2637 
Q 1325 2750 1225 2750 
L 1150 2750 
L 1150 2900 
L 2000 2900 
L 2000 2750 
L 1925 2750 
Q 1825 2750 1800 2662 
Q 1775 2575 1800 2425 
L 2175 800 
L 2200 800 
L 2625 2550 
Q 2650 2650 2600 2700 
Q 2550 2750 2450 2750 
L 2325 2750 
L 2325 2900 
z
M 1725 2750 
L 1725 2750 
z
M 625 2750 
L 625 2750 
z
M 275 2750 
L 275 2750 
z
M 2875 2750 
L 2875 2750 
z
M 2675 2750 
L 2675 2750 
z
" transform="scale(0.015625)"/>
      <path id="Times New Roman-76" d="M 1625 75
L 1475 75 
L 625 2525 
Q 600 2625 525 2687 
Q 450 2750 350 2750 
L 225 2750 
L 225 2900 
L 1300 2900 
L 1300 2750 
L 1200 2750 
Q 1050 2750 1025 2700 
Q 1000 2650 1000 2600 
Q 1000 2500 1025 2425 
L 1625 675 
L 1675 675 
L 2275 2400 
Q 2325 2525 2325 2575 
Q 2325 2600 2275 2675 
Q 2225 2750 2075 2750 
L 2025 2750 
L 2025 2900 
L 2925 2900 
L 2925 2750 
L 2875 2750 
Q 2725 2750 2637 2662 
Q 2550 2575 2475 2400 
L 1625 75 
z
M 2600 2750 
L 2600 2750 
z
M 2400 2750 
L 2400 2750 
z
M 925 2750 
L 925 2750 
z
M 550 2750 
L 550 2750 
z
" transform="scale(0.015625)"/>
     </defs>
     <use xlink:href="#Times New Roman-2e"/>
     <use xlink:href="#Times New Roman-2f" x="50"/>
     <use xlink:href="#Times New Roman-73" x="100"/>
     <use xlink:href="#Times New Roman-6f" x="150"/>
     <use xlink:href="#Times New Roman-75" x="200"/>
     <use xlink:href="#Times New Roman-72" x="250"/>
     <use xlink:href="#Times New Roman-63" x="300"/>
     <use xlink:href="#Times New Roman-65" x="350"/>
     <use xlink:href="#Times New Roman-2f" x="400"/>
     <use xlink:href="#Times New Roman-62" x="450"/>
     <use xlink:href="#Times New Roman-6f" x="500"/>
     <use xlink:href="#Times New Roman-6c" x="550"/>
     <use xlink:href="#Times New Roman-61" x="600"/>
     <use xlink:href="#Times New Roman-34" x="650"/>
     <use xlink:href="#Times New Roman-5f" x="700"/>
     <use xlink:href="#Times New Roman-77" x="750"/>
     <use xlink:href="#Times New Roman-61" x="800"/>
     <use xlink:href="#Times New Roman-76" x="850"/>
     <use xlink:href="#Times New Roman-65" x="900"/>
    </g>
   </g>
   <g id="legend_1">
    <g id="patch_11">
     <path d="M 903 73.2775 
L 965 73.2775 
Q 967 73.2775 967 71.2775 
L 967 58.84 
Q 967 56.84 965 56.84 
L 903 56.84 
Q 901 56.84 901 58.84 
L 901 71.2775 
Q 901 73.2775 903 73.2775 
z
" style="fill: #ffffff; opacity: 0.8; stroke: #cccccc; stroke-linejoin: miter"/>
    </g>
    <g id="line2d_29">
     <path d="M 905 64.488437 
L 915 64.488437 
L 925 64.488437 
" style="fill: none; stroke: #1f77b4; stroke-width: 1.5; stroke-linecap: square"/>
    </g>
    <g id="text_23">
     <!-- buffer -->
     <g transform="translate(933 67.988437) scale(0.1 -0.1)">
      <use xlink:href="#Times New Roman-62"/>
      <use xlink:href="#Times New Roman-75" x="50"/>
      <use xlink:href="#Times New Roman-66" x="100"/>
      <use xlink:href="#Times New Roman-66" x="150"/>
      <use xlink:href="#Times New Roman-65" x="200"/>
      <use xlink:href="#Times New Roman-72" x="250"/>
     </g>
    </g>
   </g>
  </g>
 </g>
 <defs>
  <clipPath id="pbea1711a11">
   <rect x="135" y="51.84" width="837" height="332.64"/>
  </clipPath>
 </defs>
</svg>
