<?xml version="1.0" encoding="utf-8" standalone="no"?>
<!DOCTYPE svg PUBLIC "-//W3C//DTD SVG 1.1//EN"
  "http://www.w3.org/Graphics/SVG/1.1/DTD/svg11.dtd">
<svg xmlns:xlink="http://www.w3.org/1999/xlink" width="1080pt" height="432pt" viewBox="0 0 1080 432" xmlns="http://www.w3.org/2000/svg" version="1.1">
 <metadata>
  <rdf:RDF xmlns:dc="http://purl.org/dc/elements/1.1/" xmlns:cc="http://creativecommons.org/ns#" xmlns:rdf="http://www.w3.org/1999/02/22-rdf-syntax-ns#">
   <cc:Work>
    <dc:type rdf:resource="http://purl.org/dc/dcmitype/StillImage"/>
    <dc:date>2024-04-12T06:13:26.081455</dc:date>
    <dc:format>image/svg+xml</dc:format>
    <dc:creator>
     <cc:Agent>
      <dc:title>Matplotlib v3.8.3, https://matplotlib.org/</dc:title>
     </cc:Agent>
    </dc:creator>
   </cc:Work>
  </rdf:RDF>
 </metadata>
 <defs>
  <style type="text/css">*{stroke-linejoin: round; stroke-linecap: butt}</style>
 </defs>
 <g id="figure_1">
  <g id="patch_1">
   <path d="M 0 432 
L 1080 432 
L 1080 0 
L 0 0 
z
" style="fill: #ffffff"/>
  </g>
  <g id="axes_1">
   <g id="patch_2">
    <path d="M 135 384.48 
L 972 384.48 
L 972 51.84 
L 135 51.84 
z
" style="fill: #ffffff"/>
   </g>
   <g id="matplotlib.axis_1">
    <g id="xtick_1">
     <g id="line2d_1">
      <defs>
       <path id="mf5be91e72b" d="M 0 0 
L 0 3.5 
" style="stroke: #000000; stroke-width: 0.8"/>
      </defs>
      <g>
       <use xlink:href="#mf5be91e72b" x="173.045455" y="384.48" style="stroke: #000000; stroke-width: 0.8"/>
      </g>
     </g>
     <g id="text_1">
      <!-- 0 -->
      <g transform="translate(170.545455 398.628438) scale(0.1 -0.1)">
       <defs>
        <path id="Times New Roman-30" d="M 1600 4225
Q 1250 4225 1012 3687 
Q 775 3150 775 2250 
Q 775 1300 1012 775 
Q 1250 250 1600 250 
Q 1975 250 2187 775 
Q 2400 1300 2400 2250 
Q 2400 3150 2200 3687 
Q 2000 4225 1600 4225 
z
M 1600 50 
Q 1050 50 675 625 
Q 300 1200 300 2250 
Q 300 3225 662 3825 
Q 1025 4425 1600 4425 
Q 2150 4425 2512 3850 
Q 2875 3275 2875 2250 
Q 2875 1225 2512 637 
Q 2150 50 1600 50 
z
" transform="scale(0.015625)"/>
       </defs>
       <use xlink:href="#Times New Roman-30"/>
      </g>
     </g>
    </g>
    <g id="xtick_2">
     <g id="line2d_2">
      <g>
       <use xlink:href="#mf5be91e72b" x="299.863636" y="384.48" style="stroke: #000000; stroke-width: 0.8"/>
      </g>
     </g>
     <g id="text_2">
      <!-- 100 -->
      <g transform="translate(292.363636 398.628438) scale(0.1 -0.1)">
       <defs>
        <path id="Times New Roman-31" d="M 1825 4450
L 1825 650 
Q 1825 450 1950 350 
Q 2075 250 2300 250 
L 2550 250 
L 2550 100 
L 725 100 
L 725 250 
L 950 250 
Q 1200 250 1312 350 
Q 1425 450 1425 650 
L 1425 3675 
Q 1425 3775 1362 3837 
Q 1300 3900 1175 3900 
L 725 3900 
L 725 4050 
L 950 4050 
Q 1250 4050 1437 4150 
Q 1625 4250 1725 4450 
L 1825 4450 
z
" transform="scale(0.015625)"/>
       </defs>
       <use xlink:href="#Times New Roman-31"/>
       <use xlink:href="#Times New Roman-30" x="50"/>
       <use xlink:href="#Times New Roman-30" x="100"/>
      </g>
     </g>
    </g>
    <g id="xtick_3">
     <g id="line2d_3">
      <g>
       <use xlink:href="#mf5be91e72b" x="426.681818" y="384.48" style="stroke: #000000; stroke-width: 0.8"/>
      </g>
     </g>
     <g id="text_3">
      <!-- 200 -->
      <g transform="translate(419.181818 398.628438) scale(0.1 -0.1)">
       <defs>
        <path id="Times New Roman-32" d="M 2325 3325
Q 2325 3775 2125 4012 
Q 1925 4250 1525 4250 
Q 1225 4250 1012 4087 
Q 800 3925 800 3675 
Q 800 3525 900 3425 
Q 975 3325 975 3225 
Q 975 3100 912 3037 
Q 850 2975 725 2975 
Q 575 2975 487 3062 
Q 400 3150 400 3350 
Q 400 3875 775 4150 
Q 1150 4425 1575 4425 
Q 2175 4425 2462 4125 
Q 2750 3825 2750 3375 
Q 2750 3075 2612 2775 
Q 2475 2475 2175 2200 
Q 1450 1500 1062 1062 
Q 675 625 600 475 
L 2075 475 
Q 2300 475 2450 650 
Q 2600 825 2650 1175 
L 2800 1175 
L 2650 100 
L 325 100 
L 325 425 
Q 450 650 737 1000 
Q 1025 1350 1500 1825 
Q 1925 2250 2125 2625 
Q 2325 3000 2325 3325 
z
" transform="scale(0.015625)"/>
       </defs>
       <use xlink:href="#Times New Roman-32"/>
       <use xlink:href="#Times New Roman-30" x="50"/>
       <use xlink:href="#Times New Roman-30" x="100"/>
      </g>
     </g>
    </g>
    <g id="xtick_4">
     <g id="line2d_4">
      <g>
       <use xlink:href="#mf5be91e72b" x="553.5" y="384.48" style="stroke: #000000; stroke-width: 0.8"/>
      </g>
     </g>
     <g id="text_4">
      <!-- 300 -->
      <g transform="translate(546 398.628438) scale(0.1 -0.1)">
       <defs>
        <path id="Times New Roman-33" d="M 2800 1250
Q 2800 775 2450 412 
Q 2100 50 1475 50 
Q 1025 50 700 300 
Q 375 550 375 875 
Q 375 1025 475 1137 
Q 575 1250 675 1250 
Q 825 1250 887 1137 
Q 950 1025 950 950 
Q 950 825 900 750 
Q 850 650 850 575 
Q 850 425 1037 325 
Q 1225 225 1450 225 
Q 1900 225 2125 487 
Q 2350 750 2350 1300 
Q 2350 1750 2112 2025 
Q 1875 2300 1225 2300 
L 1225 2475 
Q 1725 2475 1962 2712 
Q 2200 2950 2200 3375 
Q 2200 3725 2012 3987 
Q 1825 4250 1425 4250 
Q 1250 4250 1050 4162 
Q 850 4075 850 3875 
Q 850 3675 900 3625 
Q 950 3575 950 3500 
Q 950 3375 900 3300 
Q 850 3225 725 3225 
Q 625 3225 537 3300 
Q 450 3375 450 3575 
Q 450 3950 775 4187 
Q 1100 4425 1525 4425 
Q 2025 4425 2325 4112 
Q 2625 3800 2625 3450 
Q 2625 3075 2437 2812 
Q 2250 2550 1850 2425 
Q 2400 2225 2600 1900 
Q 2800 1575 2800 1250 
z
" transform="scale(0.015625)"/>
       </defs>
       <use xlink:href="#Times New Roman-33"/>
       <use xlink:href="#Times New Roman-30" x="50"/>
       <use xlink:href="#Times New Roman-30" x="100"/>
      </g>
     </g>
    </g>
    <g id="xtick_5">
     <g id="line2d_5">
      <g>
       <use xlink:href="#mf5be91e72b" x="680.318182" y="384.48" style="stroke: #000000; stroke-width: 0.8"/>
      </g>
     </g>
     <g id="text_5">
      <!-- 400 -->
      <g transform="translate(672.818182 398.628438) scale(0.1 -0.1)">
       <defs>
        <path id="Times New Roman-34" d="M 2300 575
Q 2300 400 2400 325 
Q 2500 250 2675 250 
L 2900 250 
L 2900 100 
L 1250 100 
L 1250 250 
L 1525 250 
Q 1725 250 1812 325 
Q 1900 400 1900 575 
L 1900 1400 
L 225 1400 
L 225 1525 
L 2050 4425 
L 2300 4425 
L 2300 1550 
L 2975 1550 
L 2975 1400 
L 2300 1400 
L 2300 575 
z
M 1875 3800 
L 450 1550 
L 1900 1550 
L 1900 3800 
L 1875 3800 
z
" transform="scale(0.015625)"/>
       </defs>
       <use xlink:href="#Times New Roman-34"/>
       <use xlink:href="#Times New Roman-30" x="50"/>
       <use xlink:href="#Times New Roman-30" x="100"/>
      </g>
     </g>
    </g>
    <g id="xtick_6">
     <g id="line2d_6">
      <g>
       <use xlink:href="#mf5be91e72b" x="807.136364" y="384.48" style="stroke: #000000; stroke-width: 0.8"/>
      </g>
     </g>
     <g id="text_6">
      <!-- 500 -->
      <g transform="translate(799.636364 398.628438) scale(0.1 -0.1)">
       <defs>
        <path id="Times New Roman-35" d="M 1725 2850
Q 2200 2850 2500 2487 
Q 2800 2125 2800 1525 
Q 2800 850 2487 450 
Q 2175 50 1525 50 
Q 1075 50 725 312 
Q 375 575 375 950 
Q 375 1100 462 1212 
Q 550 1325 700 1325 
Q 850 1325 900 1225 
Q 950 1125 950 1050 
Q 950 900 875 825 
Q 800 725 800 625 
Q 800 425 1037 325 
Q 1275 225 1550 225 
Q 1950 225 2162 550 
Q 2375 875 2375 1475 
Q 2375 1975 2187 2287 
Q 2000 2600 1625 2600 
Q 1350 2600 1150 2500 
Q 950 2400 775 2075 
L 550 2100 
L 675 4375 
L 2725 4375 
L 2650 4000 
L 850 4000 
L 750 2350 
Q 1000 2700 1237 2775 
Q 1475 2850 1725 2850 
z
" transform="scale(0.015625)"/>
       </defs>
       <use xlink:href="#Times New Roman-35"/>
       <use xlink:href="#Times New Roman-30" x="50"/>
       <use xlink:href="#Times New Roman-30" x="100"/>
      </g>
     </g>
    </g>
    <g id="xtick_7">
     <g id="line2d_7">
      <g>
       <use xlink:href="#mf5be91e72b" x="933.954545" y="384.48" style="stroke: #000000; stroke-width: 0.8"/>
      </g>
     </g>
     <g id="text_7">
      <!-- 600 -->
      <g transform="translate(926.454545 398.628438) scale(0.1 -0.1)">
       <defs>
        <path id="Times New Roman-36" d="M 775 1800
Q 775 1050 1037 637 
Q 1300 225 1675 225 
Q 2050 225 2250 500 
Q 2450 775 2450 1525 
Q 2450 2025 2237 2300 
Q 2025 2575 1725 2575 
Q 1450 2575 1212 2412 
Q 975 2250 775 1800 
z
M 1750 2825 
Q 2350 2825 2612 2425 
Q 2875 2025 2875 1525 
Q 2875 775 2512 412 
Q 2150 50 1675 50 
Q 1000 50 650 562 
Q 300 1075 300 2050 
Q 300 3200 725 3812 
Q 1150 4425 1875 4425 
Q 2225 4425 2437 4225 
Q 2650 4025 2650 3875 
Q 2650 3725 2587 3650 
Q 2525 3575 2375 3575 
Q 2250 3575 2187 3637 
Q 2125 3700 2125 3825 
Q 2125 3875 2150 3925 
Q 2150 3975 2150 4025 
Q 2150 4125 2075 4187 
Q 2000 4250 1800 4250 
Q 1375 4250 1075 3862 
Q 775 3475 775 2175 
Q 925 2500 1187 2662 
Q 1450 2825 1750 2825 
z
" transform="scale(0.015625)"/>
       </defs>
       <use xlink:href="#Times New Roman-36"/>
       <use xlink:href="#Times New Roman-30" x="50"/>
       <use xlink:href="#Times New Roman-30" x="100"/>
      </g>
     </g>
    </g>
   </g>
   <g id="matplotlib.axis_2">
    <g id="ytick_1">
     <g id="line2d_8">
      <defs>
       <path id="mcb0ad52a7c" d="M 0 0 
L -3.5 0 
" style="stroke: #000000; stroke-width: 0.8"/>
      </defs>
      <g>
       <use xlink:href="#mcb0ad52a7c" x="135" y="370.210684" style="stroke: #000000; stroke-width: 0.8"/>
      </g>
     </g>
     <g id="text_8">
      <!-- 0 -->
      <g transform="translate(123 373.784903) scale(0.1 -0.1)">
       <use xlink:href="#Times New Roman-30"/>
      </g>
     </g>
    </g>
    <g id="ytick_2">
     <g id="line2d_9">
      <g>
       <use xlink:href="#mcb0ad52a7c" x="135" y="308.547849" style="stroke: #000000; stroke-width: 0.8"/>
      </g>
     </g>
     <g id="text_9">
      <!-- 1000 -->
      <g transform="translate(108 312.122068) scale(0.1 -0.1)">
       <use xlink:href="#Times New Roman-31"/>
       <use xlink:href="#Times New Roman-30" x="50"/>
       <use xlink:href="#Times New Roman-30" x="100"/>
       <use xlink:href="#Times New Roman-30" x="150"/>
      </g>
     </g>
    </g>
    <g id="ytick_3">
     <g id="line2d_10">
      <g>
       <use xlink:href="#mcb0ad52a7c" x="135" y="246.885015" style="stroke: #000000; stroke-width: 0.8"/>
      </g>
     </g>
     <g id="text_10">
      <!-- 2000 -->
      <g transform="translate(108 250.459234) scale(0.1 -0.1)">
       <use xlink:href="#Times New Roman-32"/>
       <use xlink:href="#Times New Roman-30" x="50"/>
       <use xlink:href="#Times New Roman-30" x="100"/>
       <use xlink:href="#Times New Roman-30" x="150"/>
      </g>
     </g>
    </g>
    <g id="ytick_4">
     <g id="line2d_11">
      <g>
       <use xlink:href="#mcb0ad52a7c" x="135" y="185.22218" style="stroke: #000000; stroke-width: 0.8"/>
      </g>
     </g>
     <g id="text_11">
      <!-- 3000 -->
      <g transform="translate(108 188.796399) scale(0.1 -0.1)">
       <use xlink:href="#Times New Roman-33"/>
       <use xlink:href="#Times New Roman-30" x="50"/>
       <use xlink:href="#Times New Roman-30" x="100"/>
       <use xlink:href="#Times New Roman-30" x="150"/>
      </g>
     </g>
    </g>
    <g id="ytick_5">
     <g id="line2d_12">
      <g>
       <use xlink:href="#mcb0ad52a7c" x="135" y="123.559346" style="stroke: #000000; stroke-width: 0.8"/>
      </g>
     </g>
     <g id="text_12">
      <!-- 4000 -->
      <g transform="translate(108 127.133564) scale(0.1 -0.1)">
       <use xlink:href="#Times New Roman-34"/>
       <use xlink:href="#Times New Roman-30" x="50"/>
       <use xlink:href="#Times New Roman-30" x="100"/>
       <use xlink:href="#Times New Roman-30" x="150"/>
      </g>
     </g>
    </g>
    <g id="ytick_6">
     <g id="line2d_13">
      <g>
       <use xlink:href="#mcb0ad52a7c" x="135" y="61.896511" style="stroke: #000000; stroke-width: 0.8"/>
      </g>
     </g>
     <g id="text_13">
      <!-- 5000 -->
      <g transform="translate(108 65.47073) scale(0.1 -0.1)">
       <use xlink:href="#Times New Roman-35"/>
       <use xlink:href="#Times New Roman-30" x="50"/>
       <use xlink:href="#Times New Roman-30" x="100"/>
       <use xlink:href="#Times New Roman-30" x="150"/>
      </g>
     </g>
    </g>
    <g id="text_14">
     <!-- Bitrate (kbps) -->
     <g transform="translate(102.710938 253.16) rotate(-90) scale(0.1 -0.1)">
      <defs>
       <path id="Times New Roman-42" d="M 100 100
L 100 250 
L 300 250 
Q 425 250 475 300 
Q 525 350 525 450 
L 525 4025 
Q 525 4125 475 4175 
Q 425 4225 300 4225 
L 150 4225 
L 150 4375 
L 1600 4375 
Q 2200 4375 2487 4137 
Q 2775 3900 2775 3400 
Q 2775 3050 2625 2825 
Q 2475 2600 2000 2425 
Q 2575 2250 2775 1925 
Q 2975 1600 2975 1200 
Q 2975 700 2625 400 
Q 2275 100 1675 100 
L 100 100 
z
M 1600 250 
Q 2025 250 2262 512 
Q 2500 775 2500 1250 
Q 2500 1800 2250 2062 
Q 2000 2325 1500 2325 
L 925 2325 
L 925 450 
Q 925 350 987 300 
Q 1050 250 1150 250 
L 1600 250 
z
M 2350 3400 
Q 2350 3850 2100 4037 
Q 1850 4225 1450 4225 
L 1150 4225 
Q 1050 4225 987 4175 
Q 925 4125 925 4025 
L 925 2475 
L 1575 2475 
Q 1850 2475 2100 2700 
Q 2350 2925 2350 3400 
z
" transform="scale(0.015625)"/>
       <path id="Times New Roman-69" d="M 1425 2525
Q 1425 2625 1375 2687 
Q 1325 2750 1200 2750 
L 675 2750 
L 675 2900 
L 925 2900 
Q 1150 2900 1350 2937 
Q 1550 2975 1725 3075 
L 1775 3075 
L 1775 450 
Q 1775 350 1837 300 
Q 1900 250 2000 250 
L 2525 250 
L 2525 100 
L 675 100 
L 675 250 
L 1200 250 
Q 1325 250 1375 300 
Q 1425 350 1425 450 
L 1425 2525 
z
M 1725 3025 
L 1725 3025 
z
M 1625 4425 
Q 1750 4425 1850 4337 
Q 1950 4250 1950 4125 
Q 1950 4000 1850 3900 
Q 1750 3800 1625 3800 
Q 1500 3800 1400 3900 
Q 1300 4000 1300 4125 
Q 1300 4250 1400 4337 
Q 1500 4425 1625 4425 
z
" transform="scale(0.015625)"/>
       <path id="Times New Roman-74" d="M 1500 900
Q 1500 550 1625 425 
Q 1750 300 2000 300 
Q 2250 300 2400 462 
Q 2550 625 2600 925 
L 2725 875 
Q 2675 525 2462 300 
Q 2250 75 1900 75 
Q 1525 75 1337 300 
Q 1150 525 1150 1000 
L 1150 2750 
L 400 2750 
L 400 2900 
L 600 2900 
Q 900 2900 1087 3087 
Q 1275 3275 1325 3675 
L 1350 3875 
L 1500 3875 
L 1500 2900 
L 2500 2900 
L 2500 2750 
L 1500 2750 
L 1500 900 
z
" transform="scale(0.015625)"/>
       <path id="Times New Roman-72" d="M 1275 2125
Q 1525 2525 1812 2737 
Q 2100 2950 2400 2950 
Q 2650 2950 2787 2837 
Q 2925 2725 2925 2575 
Q 2925 2450 2862 2375 
Q 2800 2300 2675 2300 
Q 2550 2300 2487 2375 
Q 2425 2450 2450 2575 
Q 2450 2650 2425 2700 
Q 2400 2750 2275 2750 
Q 2075 2750 1787 2500 
Q 1500 2250 1275 1800 
L 1275 450 
Q 1275 350 1337 300 
Q 1400 250 1500 250 
L 2050 250 
L 2050 100 
L 200 100 
L 200 250 
L 700 250 
Q 825 250 875 300 
Q 925 350 925 450 
L 925 2525 
Q 925 2625 875 2687 
Q 825 2750 700 2750 
L 225 2750 
L 225 2900 
L 425 2900 
Q 600 2900 837 2937 
Q 1075 2975 1200 3025 
L 1275 3025 
L 1275 2125 
z
" transform="scale(0.015625)"/>
       <path id="Times New Roman-61" d="M 1225 75
Q 775 75 525 287 
Q 275 500 275 775 
Q 275 1225 662 1512 
Q 1050 1800 2200 1925 
L 2200 2225 
Q 2200 2475 2087 2637 
Q 1975 2800 1575 2800 
Q 1150 2800 975 2662 
Q 800 2525 850 2375 
Q 875 2325 875 2275 
Q 875 2225 837 2150 
Q 800 2075 650 2075 
Q 550 2075 487 2137 
Q 425 2200 425 2325 
Q 425 2550 750 2750 
Q 1075 2950 1550 2950 
Q 2050 2950 2300 2762 
Q 2550 2575 2550 2225 
L 2550 575 
Q 2550 375 2587 337 
Q 2625 300 2725 300 
Q 2850 300 2900 412 
Q 2950 525 2950 725 
L 3075 725 
Q 3075 375 2950 237 
Q 2825 100 2625 100 
Q 2450 100 2350 175 
Q 2250 250 2200 425 
Q 1950 250 1737 162 
Q 1525 75 1225 75 
z
M 700 850 
Q 700 625 837 437 
Q 975 250 1275 250 
Q 1500 250 1725 337 
Q 1950 425 2200 600 
L 2200 1775 
Q 1350 1675 1025 1437 
Q 700 1200 700 850 
z
" transform="scale(0.015625)"/>
       <path id="Times New Roman-65" d="M 2400 1650
Q 2425 2200 2212 2487 
Q 2000 2775 1650 2775 
Q 1275 2775 1037 2475 
Q 800 2175 800 1650 
L 2400 1650 
z
M 800 1500 
Q 800 825 1062 537 
Q 1325 250 1750 250 
Q 2075 250 2300 437 
Q 2525 625 2625 900 
L 2750 850 
Q 2675 575 2412 312 
Q 2150 50 1700 50 
Q 1125 50 762 425 
Q 400 800 400 1500 
Q 400 2125 762 2537 
Q 1125 2950 1650 2950 
Q 2125 2950 2475 2625 
Q 2825 2300 2825 1500 
L 800 1500 
z
" transform="scale(0.015625)"/>
       <path id="Times New Roman-20" d="M 0 0
Q 0 0 0 0 
z
" transform="scale(0.015625)"/>
       <path id="Times New Roman-28" d="M 2900 5025
Q 2325 4425 2037 3737 
Q 1750 3050 1750 2300 
Q 1750 1525 2037 850 
Q 2325 175 2900 -425 
L 2775 -550 
Q 2075 75 1725 787 
Q 1375 1500 1375 2300 
Q 1375 3075 1725 3787 
Q 2075 4500 2775 5150 
L 2900 5025 
z
" transform="scale(0.015625)"/>
       <path id="Times New Roman-6b" d="M 1675 1900
L 2625 425 
Q 2700 325 2762 287 
Q 2825 250 2900 250 
L 3000 250 
L 3000 100 
L 1975 100 
L 1975 250 
L 2050 250 
Q 2175 250 2225 287 
Q 2275 325 2200 425 
L 1425 1650 
L 925 1125 
L 925 450 
Q 925 350 987 300 
Q 1050 250 1150 250 
L 1275 250 
L 1275 100 
L 225 100 
L 225 250 
L 350 250 
Q 475 250 525 300 
Q 575 350 575 450 
L 575 4025 
Q 575 4125 525 4175 
Q 475 4225 350 4225 
L 200 4225 
L 200 4375 
L 425 4375 
Q 575 4375 687 4425 
Q 800 4475 875 4575 
L 925 4575 
L 925 1400 
L 1975 2525 
Q 2025 2625 2012 2687 
Q 2000 2750 1900 2750 
L 1750 2750 
L 1750 2900 
L 2800 2900 
L 2800 2750 
L 2675 2750 
Q 2600 2750 2487 2712 
Q 2375 2675 2275 2575 
L 1675 1900 
z
M 2450 2750 
L 2450 2750 
z
M 2175 2750 
L 2175 2750 
z
M 2300 250 
L 2300 250 
z
M 2750 250 
L 2750 250 
z
" transform="scale(0.015625)"/>
       <path id="Times New Roman-62" d="M 875 2325
Q 1000 2600 1275 2762 
Q 1550 2925 1800 2925 
Q 2325 2925 2587 2562 
Q 2850 2200 2850 1500 
Q 2850 800 2512 437 
Q 2175 75 1675 75 
Q 1425 75 1212 162 
Q 1000 250 850 400 
L 625 100 
L 525 100 
L 525 4025 
Q 525 4125 475 4175 
Q 425 4225 300 4225 
L 150 4225 
L 150 4375 
L 375 4375 
Q 500 4375 625 4425 
Q 750 4475 875 4575 
L 875 2325 
z
M 875 925 
Q 875 650 1062 450 
Q 1250 250 1625 250 
Q 2075 250 2262 562 
Q 2450 875 2450 1500 
Q 2450 2100 2287 2412 
Q 2125 2725 1775 2725 
Q 1475 2725 1250 2550 
Q 1025 2375 875 1925 
L 875 925 
z
" transform="scale(0.015625)"/>
       <path id="Times New Roman-70" d="M 1150 -675
L 1325 -675 
L 1325 -825 
L 175 -825 
L 175 -675 
L 325 -675 
Q 450 -675 500 -625 
Q 550 -575 550 -450 
L 550 2500 
Q 550 2600 500 2662 
Q 450 2725 325 2725 
L 175 2725 
L 175 2875 
L 400 2875 
Q 525 2875 637 2900 
Q 750 2925 850 3000 
L 900 3000 
L 900 2425 
Q 1075 2675 1287 2800 
Q 1500 2925 1750 2925 
Q 2250 2925 2575 2587 
Q 2900 2250 2900 1525 
Q 2900 825 2550 450 
Q 2200 75 1725 75 
Q 1450 75 1262 162 
Q 1075 250 900 425 
L 900 -450 
Q 900 -575 975 -625 
Q 1050 -675 1150 -675 
z
M 900 750 
Q 1025 500 1212 375 
Q 1400 250 1650 250 
Q 2000 250 2250 562 
Q 2500 875 2500 1525 
Q 2500 2125 2312 2425 
Q 2125 2725 1750 2725 
Q 1525 2725 1300 2587 
Q 1075 2450 900 2150 
L 900 750 
z
" transform="scale(0.015625)"/>
       <path id="Times New Roman-73" d="M 625 2175
Q 625 2550 912 2750 
Q 1200 2950 1600 2950 
Q 1825 2950 2025 2900 
Q 2225 2825 2300 2825 
Q 2375 2825 2425 2850 
Q 2475 2875 2550 2950 
L 2650 2125 
L 2500 2100 
Q 2400 2425 2162 2612 
Q 1925 2800 1625 2800 
Q 1300 2800 1112 2675 
Q 925 2550 925 2325 
Q 925 2125 1012 2012 
Q 1100 1900 1325 1850 
Q 1500 1775 1775 1700 
Q 2025 1600 2250 1500 
Q 2450 1400 2587 1237 
Q 2725 1075 2725 875 
Q 2725 500 2462 287 
Q 2200 75 1700 75 
Q 1375 75 1225 150 
Q 1050 200 950 200 
Q 875 200 787 162 
Q 700 125 600 75 
L 525 1000 
L 675 1025 
Q 750 625 1000 425 
Q 1250 225 1700 225 
Q 2050 225 2237 350 
Q 2425 475 2425 725 
Q 2425 900 2325 1012 
Q 2225 1125 2125 1175 
Q 1875 1275 1575 1400 
Q 1275 1500 1050 1600 
Q 825 1700 725 1850 
Q 625 2000 625 2175 
z
" transform="scale(0.015625)"/>
       <path id="Times New Roman-29" d="M 275 5025
L 400 5150 
Q 1100 4500 1450 3787 
Q 1800 3075 1800 2300 
Q 1800 1500 1450 787 
Q 1100 75 400 -550 
L 275 -425 
Q 850 175 1137 850 
Q 1425 1525 1425 2300 
Q 1425 3050 1137 3737 
Q 850 4425 275 5025 
z
" transform="scale(0.015625)"/>
      </defs>
      <use xlink:href="#Times New Roman-42"/>
      <use xlink:href="#Times New Roman-69" x="50"/>
      <use xlink:href="#Times New Roman-74" x="100"/>
      <use xlink:href="#Times New Roman-72" x="150"/>
      <use xlink:href="#Times New Roman-61" x="200"/>
      <use xlink:href="#Times New Roman-74" x="250"/>
      <use xlink:href="#Times New Roman-65" x="300"/>
      <use xlink:href="#Times New Roman-20" x="350"/>
      <use xlink:href="#Times New Roman-28" x="400"/>
      <use xlink:href="#Times New Roman-6b" x="450"/>
      <use xlink:href="#Times New Roman-62" x="500"/>
      <use xlink:href="#Times New Roman-70" x="550"/>
      <use xlink:href="#Times New Roman-73" x="600"/>
      <use xlink:href="#Times New Roman-29" x="650"/>
     </g>
    </g>
   </g>
   <g id="line2d_14">
    <path d="M 173.045455 302.813206 
L 174.947727 302.813206 
L 175.581818 361.454562 
L 189.531818 361.454562 
L 190.8 330.31483 
L 199.677273 330.31483 
L 200.945455 302.813206 
L 209.822727 302.813206 
L 211.090909 252.804647 
L 232.65 252.804647 
L 233.918182 130.588909 
L 263.720455 130.588909 
L 264.354545 252.804647 
L 284.645455 252.804647 
L 285.913636 302.813206 
L 300.497727 302.813206 
L 301.131818 330.31483 
L 301.765909 330.31483 
L 302.4 361.454562 
L 341.713636 361.454562 
L 342.981818 330.31483 
L 344.25 330.31483 
L 345.518182 302.813206 
L 359.468182 302.813206 
L 360.736364 252.804647 
L 384.831818 252.804647 
L 386.1 130.588909 
L 452.045455 130.588909 
L 453.313636 330.31483 
L 497.7 330.31483 
L 498.968182 302.813206 
L 511.65 302.813206 
L 512.918182 252.804647 
L 559.840909 252.804647 
L 561.109091 130.588909 
L 587.106818 130.588909 
L 587.740909 252.804647 
L 613.738636 252.804647 
L 614.372727 361.454562 
L 638.468182 361.454562 
L 639.736364 330.31483 
L 651.15 330.31483 
L 652.418182 302.813206 
L 661.295455 302.813206 
L 662.563636 252.804647 
L 689.195455 252.804647 
L 690.463636 130.588909 
L 736.118182 130.588909 
L 737.386364 252.804647 
L 748.8 252.804647 
L 750.068182 302.813206 
L 758.311364 302.813206 
L 758.945455 330.31483 
L 767.822727 330.31483 
L 769.090909 361.454562 
L 798.259091 361.454562 
L 799.527273 330.31483 
L 808.404545 330.31483 
L 809.672727 302.813206 
L 814.745455 302.813206 
L 816.013636 252.804647 
L 841.377273 252.804647 
L 842.645455 130.588909 
L 912.395455 130.588909 
L 913.663636 361.454562 
L 933.954545 361.454562 
L 933.954545 361.454562 
" clip-path="url(#p9ad11f4a00)" style="fill: none; stroke: #ff0000; stroke-width: 1.5; stroke-linecap: square"/>
   </g>
   <g id="line2d_15">
    <path d="M 173.045455 322.719942 
L 174.947727 321.526643 
L 175.581818 320.863699 
L 176.85 319.349506 
L 178.118182 318.53707 
L 179.386364 318.035984 
L 180.654545 321.398417 
L 181.922727 326.177928 
L 183.190909 334.589692 
L 184.459091 337.504092 
L 185.727273 335.81943 
L 186.995455 325.716822 
L 188.263636 312.557512 
L 189.531818 294.98196 
L 190.8 279.561121 
L 192.068182 266.93961 
L 195.872727 239.599165 
L 198.409091 225.782743 
L 199.677273 212.076822 
L 202.213636 201.607196 
L 203.481818 196.675517 
L 206.018182 185.500995 
L 207.286364 178.308938 
L 209.822727 162.362304 
L 213.627273 141.082246 
L 214.895455 134.854366 
L 216.163636 139.340296 
L 217.431818 149.87017 
L 219.968182 202.120099 
L 221.236364 232.03519 
L 223.772727 258.670739 
L 225.040909 259.922774 
L 226.309091 267.863139 
L 227.577273 269.176574 
L 228.845455 271.569157 
L 230.113636 265.700927 
L 231.381818 247.677785 
L 232.65 194.719342 
L 233.918182 179.391935 
L 235.186364 172.261508 
L 236.454545 169.016891 
L 240.259091 132.503778 
L 241.527273 117.000196 
L 242.795455 105.328885 
L 244.063636 95.942914 
L 245.331818 94.332774 
L 246.6 89.054731 
L 247.868182 89.545238 
L 249.136364 93.211431 
L 250.404545 101.285743 
L 251.672727 104.322811 
L 252.940909 104.511252 
L 254.209091 99.575759 
L 255.477273 95.400741 
L 256.745455 94.706072 
L 259.281818 104.557754 
L 263.086364 121.074547 
L 264.354545 133.185523 
L 266.890909 144.306999 
L 270.695455 161.401087 
L 271.963636 167.811654 
L 284.645455 240.607673 
L 288.45 267.159821 
L 290.986364 280.419566 
L 293.522727 288.907036 
L 294.790909 292.829154 
L 297.327273 303.841281 
L 298.595455 308.9689 
L 299.863636 315.197339 
L 301.131818 326.410076 
L 301.765909 329.850632 
L 302.4 332.614147 
L 303.668182 333.564379 
L 306.204545 334.525958 
L 311.277273 342.003999 
L 312.545455 343.325261 
L 313.813636 344.264673 
L 315.081818 344.784877 
L 316.35 344.948687 
L 317.618182 344.726635 
L 318.886364 344.143781 
L 320.154545 343.187498 
L 321.422727 341.85239 
L 322.690909 340.077257 
L 323.959091 337.94859 
L 325.227273 335.433076 
L 326.495455 332.576162 
L 329.031818 325.878033 
L 331.568182 318.007027 
L 332.836364 316.649951 
L 334.104545 316.463022 
L 335.372727 320.927346 
L 336.640909 322.269359 
L 337.909091 321.926876 
L 339.177273 313.25376 
L 340.445455 302.616871 
L 341.713636 286.665765 
L 342.981818 273.338206 
L 343.615909 261.239893 
L 344.25 254.538014 
L 345.518182 249.480083 
L 346.786364 251.406134 
L 348.054545 260.474583 
L 350.590909 287.765205 
L 351.859091 302.479503 
L 353.127273 315.731783 
L 354.395455 314.201328 
L 355.663636 310.026014 
L 356.931818 301.760827 
L 358.2 296.943364 
L 360.736364 268.556196 
L 362.004545 246.815788 
L 363.272727 220.609906 
L 364.540909 189.145285 
L 365.809091 170.321414 
L 367.077273 166.557317 
L 368.345455 184.042069 
L 369.613636 209.978049 
L 370.881818 244.179184 
L 373.418182 285.451221 
L 374.686364 288.15475 
L 375.954545 296.611964 
L 377.222727 297.599687 
L 378.490909 308.218225 
L 379.759091 303.127703 
L 381.027273 303.20844 
L 382.295455 290.606727 
L 383.563636 283.653757 
L 384.831818 261.11877 
L 386.1 254.852873 
L 387.368182 247.718631 
L 388.636364 250.674698 
L 389.904545 241.356177 
L 391.172727 239.678159 
L 392.440909 232.387408 
L 393.709091 228.208411 
L 394.977273 216.863699 
L 396.245455 218.987203 
L 398.781818 231.766274 
L 400.05 224.012773 
L 401.318182 218.818395 
L 402.586364 210.335693 
L 403.854545 210.496313 
L 405.122727 207.751577 
L 406.390909 225.772154 
L 407.659091 239.475247 
L 408.927273 256.94099 
L 410.195455 253.367604 
L 411.463636 263.754223 
L 412.731818 259.550791 
L 414 267.141766 
L 415.268182 259.56046 
L 416.536364 265.610653 
L 417.804545 259.420987 
L 419.072727 263.417791 
L 420.340909 255.48943 
L 421.609091 260.982948 
L 422.877273 257.528086 
L 424.145455 258.574381 
L 425.413636 248.692575 
L 426.681818 243.208693 
L 427.95 232.169204 
L 430.486364 219.964962 
L 431.754545 219.295945 
L 433.022727 221.926169 
L 434.290909 226.192447 
L 438.095455 247.741323 
L 441.9 273.944969 
L 444.436364 286.756664 
L 446.972727 294.812922 
L 448.240909 298.514895 
L 449.509091 303.981149 
L 453.313636 325.162448 
L 455.85 334.647606 
L 457.118182 336.444313 
L 458.386364 337.962173 
L 459.654545 338.229674 
L 460.922727 340.128692 
L 462.190909 341.21307 
L 463.459091 342.473886 
L 465.995455 344.325777 
L 467.263636 344.877651 
L 468.531818 344.992361 
L 469.8 344.763238 
L 472.336364 343.398039 
L 473.604545 343.089824 
L 474.872727 342.396141 
L 476.140909 341.109148 
L 477.409091 338.621521 
L 478.677273 335.540418 
L 481.213636 326.583094 
L 482.481818 321.836207 
L 483.75 318.435806 
L 485.018182 315.577709 
L 486.286364 316.888019 
L 487.554545 319.575236 
L 488.822727 325.11348 
L 490.090909 328.048894 
L 491.359091 333.363243 
L 492.627273 330.09531 
L 493.895455 322.020274 
L 495.163636 305.436524 
L 496.431818 292.043455 
L 497.7 280.273286 
L 498.968182 276.622254 
L 500.236364 281.198754 
L 501.504545 293.963783 
L 502.772727 309.90111 
L 504.040909 320.766299 
L 505.309091 327.50603 
L 506.577273 324.012823 
L 507.845455 316.142935 
L 509.113636 300.817994 
L 511.65 273.548682 
L 512.918182 266.92195 
L 514.186364 259.252277 
L 515.454545 263.006146 
L 516.722727 264.459909 
L 517.990909 273.450811 
L 519.259091 273.100763 
L 520.527273 282.740194 
L 523.063636 288.880529 
L 524.331818 279.852104 
L 525.6 264.843008 
L 526.868182 243.213988 
L 530.672727 139.260216 
L 533.209091 113.803891 
L 534.477273 111.788157 
L 535.745455 101.549989 
L 536.379545 99.044406 
L 537.013636 87.453569 
L 538.281818 76.289834 
L 539.55 66.96 
L 540.818182 86.477948 
L 542.086364 119.815211 
L 543.354545 171.133291 
L 544.622727 213.230854 
L 545.890909 260.970977 
L 547.159091 283.695721 
L 548.427273 285.058914 
L 549.695455 256.627118 
L 552.231818 216.214217 
L 553.5 201.483015 
L 554.768182 191.244978 
L 556.036364 186.624903 
L 557.304545 176.918153 
L 559.840909 133.153359 
L 561.109091 122.579383 
L 562.377273 129.562708 
L 563.645455 143.405603 
L 564.913636 158.825291 
L 566.181818 164.182525 
L 567.45 163.946299 
L 569.986364 143.83767 
L 571.254545 140.232582 
L 575.059091 160.791069 
L 576.327273 167.980923 
L 580.131818 198.113429 
L 582.668182 212.520465 
L 586.472727 226.142492 
L 587.740909 240.295313 
L 590.277273 252.054761 
L 594.081818 268.629336 
L 599.154545 292.991319 
L 601.690909 303.885679 
L 604.227273 313.76002 
L 606.763636 322.402025 
L 609.3 329.769139 
L 610.568182 332.957683 
L 613.104545 340.067917 
L 614.372727 350.323877 
L 615.640909 356.459576 
L 616.909091 361.50774 
L 618.177273 365.760864 
L 619.445455 368.08774 
L 620.713636 369.347371 
L 621.981818 369.36 
L 623.25 368.301833 
L 624.518182 366.10782 
L 625.786364 362.336324 
L 627.054545 359.316917 
L 628.322727 355.504049 
L 629.590909 354.106654 
L 630.859091 351.9795 
L 632.127273 352.102661 
L 633.395455 348.14736 
L 634.663636 343.098637 
L 638.468182 315.026657 
L 639.736364 307.611725 
L 641.004545 300.897975 
L 643.540909 289.368472 
L 646.077273 275.446385 
L 647.345455 268.05135 
L 649.881818 254.676007 
L 651.15 240.83719 
L 652.418182 234.463193 
L 658.759091 205.442789 
L 660.027273 198.246917 
L 661.295455 184.218145 
L 663.831818 172.303833 
L 666.368182 160.875029 
L 668.904545 147.91235 
L 670.172727 140.987598 
L 671.440909 138.745077 
L 672.709091 152.869944 
L 673.977273 175.005125 
L 675.245455 209.678384 
L 676.513636 236.980023 
L 677.781818 269.797642 
L 679.05 278.864216 
L 680.318182 283.466006 
L 681.586364 265.477987 
L 682.854545 263.279337 
L 684.122727 252.74009 
L 685.390909 243.519309 
L 687.927273 184.931197 
L 689.195455 109.834613 
L 690.463636 79.401521 
L 691.731818 75.18033 
L 693 83.49248 
L 694.268182 96.708684 
L 695.536364 100.666188 
L 696.804545 105.164845 
L 698.072727 95.87543 
L 699.340909 87.581992 
L 700.609091 74.650359 
L 701.877273 71.617928 
L 703.145455 69.420133 
L 706.95 78.229237 
L 708.218182 88.578135 
L 709.486364 104.554202 
L 710.754545 125.366149 
L 712.022727 138.99038 
L 713.290909 147.964937 
L 714.559091 145.408741 
L 715.827273 137.324529 
L 717.095455 124.858343 
L 718.363636 119.962347 
L 719.631818 121.476457 
L 723.436364 140.44582 
L 728.509091 168.007199 
L 733.581818 197.433493 
L 737.386364 219.868833 
L 739.922727 234.028363 
L 743.727273 260.426634 
L 746.263636 274.087336 
L 747.531818 278.851028 
L 750.068182 291.491975 
L 751.336364 299.248074 
L 753.872727 309.899071 
L 756.409091 318.700545 
L 757.677273 322.669724 
L 758.945455 330.523267 
L 760.213636 332.162939 
L 761.481818 333.33062 
L 762.75 334.183934 
L 766.554545 341.332976 
L 769.090909 348.285912 
L 770.359091 350.693262 
L 771.627273 351.26625 
L 772.895455 352.197474 
L 774.163636 352.022417 
L 775.431818 351.180843 
L 776.7 349.032148 
L 777.968182 347.50018 
L 779.236364 344.445123 
L 780.504545 341.031305 
L 781.772727 338.948054 
L 783.040909 337.838617 
L 784.309091 336.21348 
L 785.577273 332.531667 
L 786.845455 329.552677 
L 788.113636 324.535592 
L 789.381818 321.894252 
L 790.65 320.463608 
L 791.918182 325.070464 
L 793.186364 325.533741 
L 794.454545 323.316509 
L 795.722727 313.724732 
L 796.990909 302.655217 
L 798.259091 286.724271 
L 799.527273 272.883414 
L 800.795455 261.316881 
L 807.136364 225.802936 
L 808.404545 211.753774 
L 809.672727 205.548454 
L 813.477273 189.12427 
L 814.745455 178.29894 
L 816.013636 173.000015 
L 817.281818 176.043659 
L 818.55 185.396546 
L 821.086364 232.325811 
L 822.354545 263.640862 
L 824.890909 300.46742 
L 826.159091 301.993041 
L 827.427273 310.705654 
L 828.695455 305.141989 
L 829.963636 312.394755 
L 831.231818 308.8584 
L 832.5 315.300078 
L 833.768182 307.957399 
L 835.036364 312.391138 
L 836.304545 303.588743 
L 837.572727 300.187356 
L 838.840909 278.298102 
L 840.109091 271.862574 
L 841.377273 257.342177 
L 842.645455 258.898579 
L 843.913636 247.735534 
L 845.181818 258.190953 
L 846.45 254.784468 
L 847.718182 266.713875 
L 848.986364 264.240423 
L 850.254545 284.414068 
L 851.522727 294.163637 
L 852.790909 316.102977 
L 854.059091 322.868525 
L 855.327273 338.252662 
L 856.595455 338.859227 
L 857.863636 344.832465 
L 859.131818 341.786682 
L 860.4 344.849961 
L 861.668182 342.984586 
L 862.936364 347.363239 
L 864.204545 347.833126 
L 865.472727 351.118982 
L 866.740909 350.366301 
L 868.009091 351.827234 
L 869.277273 351.246057 
L 870.545455 351.26625 
L 871.813636 349.072533 
L 873.081818 349.218222 
L 874.35 348.684435 
L 875.618182 349.570341 
L 876.886364 348.240068 
L 878.154545 348.85765 
L 879.422727 346.733653 
L 880.690909 346.911209 
L 881.959091 344.309531 
L 883.227273 346.050626 
L 884.495455 344.197551 
L 885.763636 343.669948 
L 887.031818 334.550557 
L 888.3 328.610995 
L 889.568182 318.544924 
L 890.836364 312.603258 
L 892.104545 301.770693 
L 893.372727 296.479989 
L 894.640909 289.500611 
L 895.909091 284.627208 
L 897.177273 280.572852 
L 898.445455 282.416686 
L 899.713636 286.492977 
L 900.981818 289.421156 
L 902.25 293.261518 
L 903.518182 296.590785 
L 906.054545 304.239245 
L 909.859091 322.684819 
L 911.127273 330.61831 
L 912.395455 339.829817 
L 913.663636 347.145758 
L 914.931818 353.406131 
L 916.2 357.591377 
L 917.468182 359.7036 
L 920.004545 356.984088 
L 921.272727 355.660491 
L 922.540909 355.295316 
L 923.809091 354.214095 
L 925.077273 354.81428 
L 926.345455 356.154781 
L 928.881818 361.586175 
L 930.15 364.577332 
L 931.418182 366.764636 
L 932.686364 368.432196 
L 933.954545 369.083685 
L 933.954545 369.083685 
" clip-path="url(#p9ad11f4a00)" style="fill: none; stroke: #008000; stroke-width: 1.5; stroke-linecap: square"/>
   </g>
   <g id="patch_3">
    <path d="M 135 384.48 
L 135 51.84 
" style="fill: none; stroke: #000000; stroke-width: 0.8; stroke-linejoin: miter; stroke-linecap: square"/>
   </g>
   <g id="patch_4">
    <path d="M 972 384.48 
L 972 51.84 
" style="fill: none; stroke: #000000; stroke-width: 0.8; stroke-linejoin: miter; stroke-linecap: square"/>
   </g>
   <g id="patch_5">
    <path d="M 135 384.48 
L 972 384.48 
" style="fill: none; stroke: #000000; stroke-width: 0.8; stroke-linejoin: miter; stroke-linecap: square"/>
   </g>
   <g id="patch_6">
    <path d="M 135 51.84 
L 972 51.84 
" style="fill: none; stroke: #000000; stroke-width: 0.8; stroke-linejoin: miter; stroke-linecap: square"/>
   </g>
  </g>
  <g id="axes_2">
   <g id="matplotlib.axis_3">
    <g id="ytick_7">
     <g id="line2d_16">
      <path d="M 135 369.36 
L 972 369.36 
" clip-path="url(#p9ad11f4a00)" style="fill: none; stroke: #b0b0b0; stroke-width: 0.8; stroke-linecap: square"/>
     </g>
     <g id="line2d_17">
      <defs>
       <path id="mc7cf801aa8" d="M 0 0 
L 3.5 0 
" style="stroke: #000000; stroke-width: 0.8"/>
      </defs>
      <g>
       <use xlink:href="#mc7cf801aa8" x="972" y="369.36" style="stroke: #000000; stroke-width: 0.8"/>
      </g>
     </g>
     <g id="text_15">
      <!-- 0 -->
      <g transform="translate(979 372.934219) scale(0.1 -0.1)">
       <use xlink:href="#Times New Roman-30"/>
      </g>
     </g>
    </g>
    <g id="ytick_8">
     <g id="line2d_18">
      <path d="M 135 320.818596 
L 972 320.818596 
" clip-path="url(#p9ad11f4a00)" style="fill: none; stroke: #b0b0b0; stroke-width: 0.8; stroke-linecap: square"/>
     </g>
     <g id="line2d_19">
      <g>
       <use xlink:href="#mc7cf801aa8" x="972" y="320.818596" style="stroke: #000000; stroke-width: 0.8"/>
      </g>
     </g>
     <g id="text_16">
      <!-- 5 -->
      <g transform="translate(979 324.392815) scale(0.1 -0.1)">
       <use xlink:href="#Times New Roman-35"/>
      </g>
     </g>
    </g>
    <g id="ytick_9">
     <g id="line2d_20">
      <path d="M 135 272.277193 
L 972 272.277193 
" clip-path="url(#p9ad11f4a00)" style="fill: none; stroke: #b0b0b0; stroke-width: 0.8; stroke-linecap: square"/>
     </g>
     <g id="line2d_21">
      <g>
       <use xlink:href="#mc7cf801aa8" x="972" y="272.277193" style="stroke: #000000; stroke-width: 0.8"/>
      </g>
     </g>
     <g id="text_17">
      <!-- 10 -->
      <g transform="translate(979 275.851412) scale(0.1 -0.1)">
       <use xlink:href="#Times New Roman-31"/>
       <use xlink:href="#Times New Roman-30" x="50"/>
      </g>
     </g>
    </g>
    <g id="ytick_10">
     <g id="line2d_22">
      <path d="M 135 223.735789 
L 972 223.735789 
" clip-path="url(#p9ad11f4a00)" style="fill: none; stroke: #b0b0b0; stroke-width: 0.8; stroke-linecap: square"/>
     </g>
     <g id="line2d_23">
      <g>
       <use xlink:href="#mc7cf801aa8" x="972" y="223.735789" style="stroke: #000000; stroke-width: 0.8"/>
      </g>
     </g>
     <g id="text_18">
      <!-- 15 -->
      <g transform="translate(979 227.310008) scale(0.1 -0.1)">
       <use xlink:href="#Times New Roman-31"/>
       <use xlink:href="#Times New Roman-35" x="50"/>
      </g>
     </g>
    </g>
    <g id="ytick_11">
     <g id="line2d_24">
      <path d="M 135 175.194386 
L 972 175.194386 
" clip-path="url(#p9ad11f4a00)" style="fill: none; stroke: #b0b0b0; stroke-width: 0.8; stroke-linecap: square"/>
     </g>
     <g id="line2d_25">
      <g>
       <use xlink:href="#mc7cf801aa8" x="972" y="175.194386" style="stroke: #000000; stroke-width: 0.8"/>
      </g>
     </g>
     <g id="text_19">
      <!-- 20 -->
      <g transform="translate(979 178.768604) scale(0.1 -0.1)">
       <use xlink:href="#Times New Roman-32"/>
       <use xlink:href="#Times New Roman-30" x="50"/>
      </g>
     </g>
    </g>
    <g id="ytick_12">
     <g id="line2d_26">
      <path d="M 135 126.652982 
L 972 126.652982 
" clip-path="url(#p9ad11f4a00)" style="fill: none; stroke: #b0b0b0; stroke-width: 0.8; stroke-linecap: square"/>
     </g>
     <g id="line2d_27">
      <g>
       <use xlink:href="#mc7cf801aa8" x="972" y="126.652982" style="stroke: #000000; stroke-width: 0.8"/>
      </g>
     </g>
     <g id="text_20">
      <!-- 25 -->
      <g transform="translate(979 130.227201) scale(0.1 -0.1)">
       <use xlink:href="#Times New Roman-32"/>
       <use xlink:href="#Times New Roman-35" x="50"/>
      </g>
     </g>
    </g>
    <g id="ytick_13">
     <g id="line2d_28">
      <path d="M 135 78.111578 
L 972 78.111578 
" clip-path="url(#p9ad11f4a00)" style="fill: none; stroke: #b0b0b0; stroke-width: 0.8; stroke-linecap: square"/>
     </g>
     <g id="line2d_29">
      <g>
       <use xlink:href="#mc7cf801aa8" x="972" y="78.111578" style="stroke: #000000; stroke-width: 0.8"/>
      </g>
     </g>
     <g id="text_21">
      <!-- 30 -->
      <g transform="translate(979 81.685797) scale(0.1 -0.1)">
       <use xlink:href="#Times New Roman-33"/>
       <use xlink:href="#Times New Roman-30" x="50"/>
      </g>
     </g>
    </g>
    <g id="text_22">
     <!-- buffer (s) -->
     <g transform="translate(1000.617188 243.16) rotate(-90) scale(0.1 -0.1)">
      <defs>
       <path id="Times New Roman-75" d="M 1450 325
Q 1750 325 1962 475 
Q 2175 625 2275 950 
L 2275 2525 
Q 2275 2625 2225 2687 
Q 2175 2750 2050 2750 
L 1900 2750 
L 1900 2900 
L 2050 2900 
Q 2200 2900 2325 2925 
Q 2450 2950 2575 3050 
L 2625 3050 
L 2625 600 
Q 2625 500 2687 450 
Q 2750 400 2850 400 
L 3000 400 
L 3000 250 
L 2850 250 
Q 2725 250 2600 212 
Q 2475 175 2325 100 
L 2275 100 
L 2275 625 
Q 2150 350 1900 212 
Q 1650 75 1325 75 
Q 925 75 725 300 
Q 525 525 525 1025 
L 525 2525 
Q 525 2625 475 2687 
Q 425 2750 300 2750 
L 150 2750 
L 150 2900 
L 300 2900 
Q 450 2900 575 2925 
Q 700 2950 825 3050 
L 875 3050 
L 875 975 
Q 875 625 1025 475 
Q 1175 325 1450 325 
z
" transform="scale(0.015625)"/>
       <path id="Times New Roman-66" d="M 1125 3325
Q 1125 3850 1450 4112 
Q 1775 4375 2175 4375 
Q 2600 4375 2812 4225 
Q 3025 4075 3025 3875 
Q 3025 3775 2975 3700 
Q 2925 3625 2775 3625 
Q 2675 3625 2612 3675 
Q 2550 3725 2550 3850 
Q 2550 3875 2575 3925 
Q 2575 3975 2575 4000 
Q 2575 4100 2500 4162 
Q 2425 4225 2150 4225 
Q 1850 4225 1662 4037 
Q 1475 3850 1475 3400 
L 1475 2900 
L 2525 2900 
L 2525 2750 
L 1475 2750 
L 1475 450 
Q 1475 350 1537 300 
Q 1600 250 1700 250 
L 2300 250 
L 2300 100 
L 475 100 
L 475 250 
L 900 250 
Q 1025 250 1075 300 
Q 1125 350 1125 450 
L 1125 2750 
L 350 2750 
L 350 2900 
L 1125 2900 
L 1125 3325 
z
" transform="scale(0.015625)"/>
      </defs>
      <use xlink:href="#Times New Roman-62"/>
      <use xlink:href="#Times New Roman-75" x="50"/>
      <use xlink:href="#Times New Roman-66" x="100"/>
      <use xlink:href="#Times New Roman-66" x="150"/>
      <use xlink:href="#Times New Roman-65" x="200"/>
      <use xlink:href="#Times New Roman-72" x="250"/>
      <use xlink:href="#Times New Roman-20" x="300"/>
      <use xlink:href="#Times New Roman-28" x="350"/>
      <use xlink:href="#Times New Roman-73" x="400"/>
      <use xlink:href="#Times New Roman-29" x="450"/>
     </g>
    </g>
   </g>
   <g id="line2d_30">
    <path d="M 173.045455 369.36 
L 174.947727 369.36 
L 175.581818 357.069317 
L 176.85 341.778774 
L 178.118182 316.485467 
L 179.386364 300.065528 
L 181.922727 254.698733 
L 183.190909 225.732459 
L 184.459091 209.29634 
L 185.727273 199.348588 
L 186.995455 202.804736 
L 188.263636 199.821058 
L 190.8 205.765762 
L 192.068182 209.095702 
L 193.336364 212.927237 
L 195.872727 205.927566 
L 199.043182 180.812244 
L 199.677273 174.323876 
L 200.945455 173.887004 
L 202.213636 170.401731 
L 203.481818 173.786685 
L 204.75 170.741521 
L 206.018182 167.259484 
L 212.359091 118.203542 
L 213.627273 108.74444 
L 218.7 96.062189 
L 219.968182 86.942878 
L 221.236364 83.049857 
L 222.504545 73.616644 
L 223.772727 76.606795 
L 225.040909 80.45451 
L 226.309091 82.943066 
L 227.577273 80.030582 
L 228.845455 76.551781 
L 230.113636 73.891712 
L 231.381818 76.29613 
L 232.015909 75.830132 
L 232.65 81.8881 
L 233.918182 82.344389 
L 235.186364 86.247118 
L 236.454545 83.460841 
L 237.722727 86.444519 
L 238.990909 82.93983 
L 240.259091 86.085313 
L 241.527273 83.451133 
L 242.795455 86.438047 
L 244.063636 82.968955 
L 245.331818 85.946161 
L 246.6 83.324925 
L 247.868182 86.94935 
L 249.136364 83.499674 
L 250.404545 86.473644 
L 251.672727 83.185773 
L 252.940909 86.130618 
L 254.209091 82.632401 
L 255.477273 85.619316 
L 256.745455 82.985135 
L 258.013636 86.447755 
L 260.55 92.69018 
L 261.818182 96.055717 
L 263.086364 99.884016 
L 263.720455 106.495355 
L 264.354545 106.543897 
L 265.622727 106.084371 
L 266.890909 109.071286 
L 268.159091 118.883121 
L 271.963636 127.869753 
L 273.231818 131.665691 
L 274.5 134.646133 
L 275.768182 131.167333 
L 277.036364 134.180136 
L 278.304545 131.5589 
L 279.572727 134.53287 
L 280.840909 131.015236 
L 282.109091 134.015095 
L 284.645455 141.736414 
L 285.913636 145.215215 
L 287.181818 148.179476 
L 289.718182 167.414817 
L 293.522727 176.407921 
L 296.059091 196.167508 
L 298.595455 215.415793 
L 299.863636 225.732459 
L 300.497727 232.622102 
L 301.131818 231.838968 
L 301.765909 227.952419 
L 302.4 227.767962 
L 303.668182 234.638188 
L 306.204545 242.01001 
L 307.472727 238.854818 
L 310.009091 244.857772 
L 311.277273 248.365697 
L 312.545455 251.333195 
L 315.081818 244.388538 
L 316.35 241.780247 
L 320.154545 250.715101 
L 321.422727 248.055032 
L 322.690909 251.054891 
L 323.959091 254.478678 
L 325.227273 257.45912 
L 326.495455 254.896134 
L 327.763636 251.789484 
L 329.031818 248.300976 
L 330.3 251.236112 
L 331.568182 247.812325 
L 332.836364 245.210506 
L 336.640909 215.354307 
L 337.909091 212.720127 
L 339.177273 209.251034 
L 340.445455 212.089088 
L 341.713636 208.607052 
L 342.981818 212.448295 
L 343.615909 212.843098 
L 344.25 199.448907 
L 345.518182 179.579292 
L 346.786364 150.418853 
L 349.322727 106.404745 
L 350.590909 89.826237 
L 351.859091 86.25359 
L 353.127273 89.240504 
L 354.395455 93.023498 
L 358.2 82.532082 
L 359.468182 79.962624 
L 360.736364 76.467643 
L 362.004545 79.852597 
L 363.272727 82.781261 
L 364.540909 86.619268 
L 365.809091 82.875108 
L 367.077273 85.917036 
L 368.345455 82.778025 
L 369.613636 86.499533 
L 373.418182 75.729814 
L 374.686364 73.179772 
L 375.954545 77.024251 
L 377.222727 73.532506 
L 378.490909 76.464407 
L 379.759091 73.072981 
L 381.027273 76.923932 
L 382.295455 73.432187 
L 383.563636 76.700642 
L 384.831818 73.425715 
L 386.1 77.244305 
L 387.368182 74.024392 
L 388.636364 76.794488 
L 389.904545 73.636061 
L 393.709091 82.949538 
L 394.977273 85.939689 
L 396.245455 83.311981 
L 397.513636 80.205331 
L 398.781818 76.729766 
L 400.05 73.590756 
L 401.318182 76.571198 
L 402.586364 80.386552 
L 403.854545 83.046621 
L 405.122727 80.046762 
L 406.390909 76.600323 
L 407.659091 73.956434 
L 408.927273 76.44499 
L 410.195455 73.360993 
L 411.463636 76.347907 
L 412.731818 73.726672 
L 414 76.289658 
L 415.268182 73.276855 
L 416.536364 76.263769 
L 417.804545 73.765505 
L 419.072727 77.121334 
L 420.340909 74.072934 
L 421.609091 76.898043 
L 422.877273 73.425715 
L 424.145455 76.797724 
L 425.413636 73.888476 
L 430.486364 86.111202 
L 431.754545 82.975427 
L 433.022727 85.933217 
L 434.290909 83.305509 
L 435.559091 86.156507 
L 436.827273 83.185773 
L 441.9 96.395507 
L 444.436364 102.3661 
L 445.704545 105.906386 
L 446.972727 102.735014 
L 448.240909 106.081135 
L 449.509091 109.061577 
L 450.777273 119.051398 
L 452.045455 121.67587 
L 453.313636 124.678965 
L 454.581818 121.18722 
L 455.85 125.04788 
L 457.118182 121.844147 
L 459.654545 127.81474 
L 462.190909 135.248047 
L 463.459091 132.38734 
L 465.995455 138.338516 
L 467.263636 148.030616 
L 469.8 153.994737 
L 471.068182 150.502992 
L 472.336364 154.311874 
L 473.604545 150.833073 
L 476.140909 157.033429 
L 477.409091 167.369511 
L 478.677273 170.304648 
L 479.945455 166.612265 
L 481.213636 156.648333 
L 482.481818 147.571091 
L 483.75 144.927202 
L 486.286364 137.93724 
L 487.554545 127.983017 
L 488.822727 125.335892 
L 490.090909 121.821494 
L 491.359091 124.805173 
L 492.627273 121.358733 
L 493.895455 118.750442 
L 496.431818 111.99995 
L 497.7 114.986865 
L 498.968182 112.355921 
L 500.236364 108.618233 
L 502.772727 89.470267 
L 504.040909 86.839323 
L 505.309091 82.904233 
L 506.577273 85.535177 
L 507.845455 82.11139 
L 509.113636 85.955869 
L 510.381818 83.328161 
L 511.65 86.230937 
L 514.186364 79.541932 
L 515.454545 76.930404 
L 516.722727 74.047045 
L 517.990909 76.771836 
L 519.259091 73.318924 
L 520.527273 76.532365 
L 521.795455 73.344813 
L 523.063636 76.309074 
L 524.331818 72.872343 
L 528.136364 83.266676 
L 529.404545 86.205048 
L 530.672727 82.946302 
L 531.940909 86.671046 
L 533.209091 83.263439 
L 534.477273 86.023827 
L 535.745455 82.651818 
L 537.013636 83.506146 
L 538.281818 89.408781 
L 542.086364 99.521574 
L 543.354545 102.08456 
L 547.159091 73.328632 
L 548.427273 76.920696 
L 549.695455 73.441895 
L 552.231818 79.613126 
L 553.5 83.441425 
L 554.768182 80.567773 
L 556.036364 76.875391 
L 561.109091 89.052811 
L 562.377273 92.343918 
L 563.645455 96.233702 
L 564.913636 93.457134 
L 568.718182 83.017496 
L 569.986364 86.616032 
L 573.790909 95.554123 
L 575.059091 99.395366 
L 577.595455 105.857845 
L 578.863636 102.379044 
L 580.131818 106.084371 
L 581.4 108.699135 
L 583.936364 114.650311 
L 585.204545 118.491554 
L 586.472727 121.572315 
L 587.740909 120.918624 
L 589.009091 127.707949 
L 591.545455 135.22863 
L 592.813636 131.785426 
L 594.081818 134.846771 
L 595.35 131.342082 
L 596.618182 128.678777 
L 599.154545 121.575551 
L 600.422727 118.077334 
L 601.690909 115.456098 
L 602.959091 112.559795 
L 604.227273 115.530528 
L 605.495455 112.07438 
L 606.763636 115.316946 
L 608.031818 111.919048 
L 610.568182 117.847571 
L 611.836364 128.109224 
L 613.104545 131.943995 
L 613.738636 132.361451 
L 614.372727 131.885745 
L 615.640909 138.338516 
L 616.909091 141.331902 
L 618.177273 145.156965 
L 619.445455 147.694062 
L 621.981818 166.596085 
L 624.518182 186.365381 
L 627.054545 205.312709 
L 628.322727 209.17984 
L 629.590909 206.361203 
L 630.859091 202.882402 
L 633.395455 208.992147 
L 634.663636 212.820446 
L 635.931818 209.341645 
L 637.2 212.328559 
L 638.468182 208.836814 
L 639.736364 212.668349 
L 642.272727 206.665396 
L 644.809091 199.986098 
L 649.881818 186.468936 
L 651.15 173.4922 
L 652.418182 166.634918 
L 653.686364 163.382644 
L 656.222727 158.052798 
L 658.759091 150.800712 
L 660.027273 147.308967 
L 661.295455 135.144492 
L 662.563636 134.691438 
L 665.1 127.743546 
L 666.368182 125.135254 
L 668.904545 118.161473 
L 670.172727 108.281679 
L 671.440909 105.657207 
L 673.977273 98.576634 
L 676.513636 79.516043 
L 677.781818 76.03077 
L 679.05 73.085925 
L 680.318182 76.134325 
L 681.586364 73.52927 
L 682.854545 76.040479 
L 684.122727 73.082689 
L 685.390909 76.1052 
L 686.659091 73.490437 
L 687.927273 76.781544 
L 688.561364 77.163403 
L 689.195455 83.143704 
L 690.463636 89.146658 
L 691.731818 92.288904 
L 693 89.755043 
L 695.536364 82.60004 
L 696.804545 85.4834 
L 698.072727 89.321407 
L 700.609091 95.30818 
L 701.877273 91.819671 
L 703.145455 95.667386 
L 704.413636 93.036442 
L 708.218182 102.010129 
L 709.486364 105.848136 
L 710.754545 102.369336 
L 712.022727 105.320653 
L 713.290909 101.945408 
L 714.559091 105.883733 
L 718.363636 95.848607 
L 719.631818 99.67367 
L 720.9 102.333739 
L 722.168182 105.327125 
L 723.436364 101.838617 
L 724.704545 105.673387 
L 728.509091 114.718269 
L 729.777273 112.067908 
L 731.045455 115.01599 
L 732.313636 111.566314 
L 733.581818 114.575881 
L 734.85 118.472137 
L 737.386364 125.491224 
L 738.654545 128.474903 
L 741.190909 135.108895 
L 742.459091 132.138161 
L 744.995455 138.105517 
L 746.263636 141.451638 
L 747.531818 144.412664 
L 748.8 141.432221 
L 750.068182 144.390011 
L 751.336364 141.759067 
L 752.604545 144.729801 
L 753.872727 141.241292 
L 756.409091 147.817034 
L 757.677273 151.321723 
L 758.311364 151.146974 
L 758.945455 150.690685 
L 760.213636 157.08197 
L 764.018182 185.769939 
L 766.554545 205.523055 
L 767.822727 209.383714 
L 770.359091 215.357543 
L 771.627273 224.819881 
L 772.895455 228.638471 
L 775.431818 234.906784 
L 776.7 244.64419 
L 777.968182 247.961186 
L 779.236364 250.957808 
L 780.504545 253.475489 
L 781.772727 256.730999 
L 784.309091 250.307354 
L 785.577273 254.028861 
L 786.845455 257.25201 
L 788.113636 254.769927 
L 789.381818 244.945147 
L 790.65 241.599026 
L 794.454545 212.276782 
L 795.722727 208.768856 
L 796.990909 211.784896 
L 798.259091 209.23809 
L 799.527273 212.218532 
L 802.063636 205.235042 
L 804.6 199.824294 
L 805.868182 196.358438 
L 807.136364 186.397742 
L 808.404545 173.485728 
L 809.672727 167.424525 
L 810.940909 157.483246 
L 813.477273 150.496519 
L 814.111364 150.884851 
L 814.745455 144.836592 
L 816.013636 137.908115 
L 819.818182 108.87712 
L 821.086364 93.207955 
L 823.622727 73.331868 
L 824.890909 76.412629 
L 826.159091 72.92412 
L 827.427273 75.914271 
L 828.695455 72.445179 
L 829.963636 76.273477 
L 831.231818 73.623117 
L 832.5 76.603559 
L 833.768182 73.124758 
L 835.036364 76.118145 
L 836.304545 73.461312 
L 837.572727 76.454699 
L 838.840909 72.985606 
L 840.109091 75.991937 
L 841.377273 73.348049 
L 842.645455 76.289658 
L 843.913636 72.807621 
L 845.181818 75.791299 
L 846.45 73.328632 
L 847.718182 76.318783 
L 848.986364 72.92412 
L 850.254545 75.80748 
L 851.522727 73.202425 
L 852.790909 76.14727 
L 855.327273 69.574764 
L 856.595455 66.96 
L 857.863636 70.726813 
L 859.131818 73.360993 
L 860.4 76.31231 
L 861.668182 72.846454 
L 862.936364 76.665045 
L 864.204545 73.422479 
L 865.472727 76.399685 
L 866.740909 72.911176 
L 868.009091 76.522657 
L 869.277273 73.373937 
L 870.545455 76.402921 
L 871.813636 72.904704 
L 873.081818 76.415865 
L 874.35 72.92412 
L 875.618182 75.923979 
L 876.886364 72.406345 
L 878.154545 76.244352 
L 879.422727 73.600464 
L 880.690909 76.593851 
L 881.959091 73.066509 
L 883.227273 76.07284 
L 884.495455 73.435423 
L 885.763636 76.435282 
L 887.031818 72.930593 
L 888.3 75.904563 
L 889.568182 73.293035 
L 890.836364 76.302602 
L 892.104545 72.836746 
L 893.372727 75.784827 
L 894.640909 79.603418 
L 897.177273 85.551358 
L 898.445455 82.040196 
L 899.713636 85.907328 
L 900.981818 83.289328 
L 904.786364 92.272724 
L 906.054545 96.110731 
L 907.322727 92.596333 
L 909.859091 98.553982 
L 911.127273 102.495544 
L 912.395455 105.459805 
L 913.663636 102.081324 
L 914.931818 105.009988 
L 916.2 108.870648 
L 920.004545 117.81521 
L 921.272727 121.552899 
L 922.540909 118.899302 
L 925.077273 112.148811 
L 926.345455 115.391376 
L 927.613636 112.750724 
L 930.15 118.242375 
L 931.418182 127.695004 
L 933.954545 147.470772 
L 933.954545 147.470772 
" clip-path="url(#p9ad11f4a00)" style="fill: none; stroke: #1f77b4; stroke-width: 1.5; stroke-linecap: square"/>
   </g>
   <g id="patch_7">
    <path d="M 135 384.48 
L 135 51.84 
" style="fill: none; stroke: #000000; stroke-width: 0.8; stroke-linejoin: miter; stroke-linecap: square"/>
   </g>
   <g id="patch_8">
    <path d="M 972 384.48 
L 972 51.84 
" style="fill: none; stroke: #000000; stroke-width: 0.8; stroke-linejoin: miter; stroke-linecap: square"/>
   </g>
   <g id="patch_9">
    <path d="M 135 384.48 
L 972 384.48 
" style="fill: none; stroke: #000000; stroke-width: 0.8; stroke-linejoin: miter; stroke-linecap: square"/>
   </g>
   <g id="patch_10">
    <path d="M 135 51.84 
L 972 51.84 
" style="fill: none; stroke: #000000; stroke-width: 0.8; stroke-linejoin: miter; stroke-linecap: square"/>
   </g>
   <g id="text_23">
    <!-- ./source/bola5_wave -->
    <g transform="translate(496.5 45.84) scale(0.12 -0.12)">
     <defs>
      <path id="Times New Roman-2e" d="M 800 25
Q 650 25 537 125 
Q 425 225 425 400 
Q 425 575 537 675 
Q 650 775 800 775 
Q 950 775 1062 662 
Q 1175 550 1175 400 
Q 1175 225 1062 125 
Q 950 25 800 25 
z
" transform="scale(0.015625)"/>
      <path id="Times New Roman-2f" d="M 400 -475
L 225 -375 
L 2775 4975 
L 2950 4875 
L 400 -475 
z
" transform="scale(0.015625)"/>
      <path id="Times New Roman-6f" d="M 2900 1500
Q 2900 875 2525 462 
Q 2150 50 1600 50 
Q 1025 50 662 475 
Q 300 900 300 1500 
Q 300 2050 662 2500 
Q 1025 2950 1600 2950 
Q 2200 2950 2550 2500 
Q 2900 2050 2900 1500 
z
M 700 1475 
Q 700 825 962 512 
Q 1225 200 1600 200 
Q 2025 200 2262 537 
Q 2500 875 2500 1475 
Q 2500 2125 2237 2462 
Q 1975 2800 1600 2800 
Q 1250 2800 975 2462 
Q 700 2125 700 1475 
z
" transform="scale(0.015625)"/>
      <path id="Times New Roman-63" d="M 2150 2225
Q 2150 2300 2175 2325 
Q 2175 2350 2200 2425 
Q 2225 2525 2100 2662 
Q 1975 2800 1675 2800 
Q 1300 2800 1037 2437 
Q 775 2075 775 1475 
Q 775 925 1000 587 
Q 1225 250 1750 250 
Q 2100 250 2337 475 
Q 2575 700 2675 1000 
L 2800 950 
Q 2700 575 2425 312 
Q 2150 50 1675 50 
Q 1075 50 725 425 
Q 375 800 375 1500 
Q 375 2125 750 2537 
Q 1125 2950 1725 2950 
Q 2150 2950 2387 2725 
Q 2625 2500 2625 2275 
Q 2625 2125 2562 2062 
Q 2500 2000 2375 2000 
Q 2275 2000 2212 2062 
Q 2150 2125 2150 2225 
z
" transform="scale(0.015625)"/>
      <path id="Times New Roman-6c" d="M 925 4375
Q 1150 4375 1350 4425 
Q 1550 4475 1725 4575 
L 1775 4575 
L 1775 450 
Q 1775 350 1837 300 
Q 1900 250 2000 250 
L 2575 250 
L 2575 100 
L 625 100 
L 625 250 
L 1200 250 
Q 1325 250 1375 300 
Q 1425 350 1425 450 
L 1425 4025 
Q 1425 4125 1375 4175 
Q 1325 4225 1200 4225 
L 650 4225 
L 650 4375 
L 925 4375 
z
" transform="scale(0.015625)"/>
      <path id="Times New Roman-5f" d="M 0 -875
L 0 -725 
L 3175 -725 
L 3175 -875 
L 0 -875 
z
" transform="scale(0.015625)"/>
      <path id="Times New Roman-77" d="M 2325 2900
L 3175 2900 
L 3175 2750 
L 3075 2750 
Q 2975 2750 2900 2675 
Q 2825 2600 2775 2425 
L 2175 75 
L 2025 75 
L 1575 1975 
L 1100 75 
L 950 75 
L 375 2375 
Q 350 2550 275 2650 
Q 200 2750 125 2750 
L 25 2750 
L 25 2900 
L 925 2900 
L 925 2750 
L 825 2750 
Q 725 2750 700 2662 
Q 675 2575 700 2425 
L 1075 800 
L 1125 800 
L 1500 2300 
Q 1475 2525 1400 2637 
Q 1325 2750 1225 2750 
L 1150 2750 
L 1150 2900 
L 2000 2900 
L 2000 2750 
L 1925 2750 
Q 1825 2750 1800 2662 
Q 1775 2575 1800 2425 
L 2175 800 
L 2200 800 
L 2625 2550 
Q 2650 2650 2600 2700 
Q 2550 2750 2450 2750 
L 2325 2750 
L 2325 2900 
z
M 1725 2750 
L 1725 2750 
z
M 625 2750 
L 625 2750 
z
M 275 2750 
L 275 2750 
z
M 2875 2750 
L 2875 2750 
z
M 2675 2750 
L 2675 2750 
z
" transform="scale(0.015625)"/>
      <path id="Times New Roman-76" d="M 1625 75
L 1475 75 
L 625 2525 
Q 600 2625 525 2687 
Q 450 2750 350 2750 
L 225 2750 
L 225 2900 
L 1300 2900 
L 1300 2750 
L 1200 2750 
Q 1050 2750 1025 2700 
Q 1000 2650 1000 2600 
Q 1000 2500 1025 2425 
L 1625 675 
L 1675 675 
L 2275 2400 
Q 2325 2525 2325 2575 
Q 2325 2600 2275 2675 
Q 2225 2750 2075 2750 
L 2025 2750 
L 2025 2900 
L 2925 2900 
L 2925 2750 
L 2875 2750 
Q 2725 2750 2637 2662 
Q 2550 2575 2475 2400 
L 1625 75 
z
M 2600 2750 
L 2600 2750 
z
M 2400 2750 
L 2400 2750 
z
M 925 2750 
L 925 2750 
z
M 550 2750 
L 550 2750 
z
" transform="scale(0.015625)"/>
     </defs>
     <use xlink:href="#Times New Roman-2e"/>
     <use xlink:href="#Times New Roman-2f" x="50"/>
     <use xlink:href="#Times New Roman-73" x="100"/>
     <use xlink:href="#Times New Roman-6f" x="150"/>
     <use xlink:href="#Times New Roman-75" x="200"/>
     <use xlink:href="#Times New Roman-72" x="250"/>
     <use xlink:href="#Times New Roman-63" x="300"/>
     <use xlink:href="#Times New Roman-65" x="350"/>
     <use xlink:href="#Times New Roman-2f" x="400"/>
     <use xlink:href="#Times New Roman-62" x="450"/>
     <use xlink:href="#Times New Roman-6f" x="500"/>
     <use xlink:href="#Times New Roman-6c" x="550"/>
     <use xlink:href="#Times New Roman-61" x="600"/>
     <use xlink:href="#Times New Roman-35" x="650"/>
     <use xlink:href="#Times New Roman-5f" x="700"/>
     <use xlink:href="#Times New Roman-77" x="750"/>
     <use xlink:href="#Times New Roman-61" x="800"/>
     <use xlink:href="#Times New Roman-76" x="850"/>
     <use xlink:href="#Times New Roman-65" x="900"/>
    </g>
   </g>
   <g id="legend_1">
    <g id="patch_11">
     <path d="M 903 73.2775 
L 965 73.2775 
Q 967 73.2775 967 71.2775 
L 967 58.84 
Q 967 56.84 965 56.84 
L 903 56.84 
Q 901 56.84 901 58.84 
L 901 71.2775 
Q 901 73.2775 903 73.2775 
z
" style="fill: #ffffff; opacity: 0.8; stroke: #cccccc; stroke-linejoin: miter"/>
    </g>
    <g id="line2d_31">
     <path d="M 905 64.488437 
L 915 64.488437 
L 925 64.488437 
" style="fill: none; stroke: #1f77b4; stroke-width: 1.5; stroke-linecap: square"/>
    </g>
    <g id="text_24">
     <!-- buffer -->
     <g transform="translate(933 67.988437) scale(0.1 -0.1)">
      <use xlink:href="#Times New Roman-62"/>
      <use xlink:href="#Times New Roman-75" x="50"/>
      <use xlink:href="#Times New Roman-66" x="100"/>
      <use xlink:href="#Times New Roman-66" x="150"/>
      <use xlink:href="#Times New Roman-65" x="200"/>
      <use xlink:href="#Times New Roman-72" x="250"/>
     </g>
    </g>
   </g>
  </g>
 </g>
 <defs>
  <clipPath id="p9ad11f4a00">
   <rect x="135" y="51.84" width="837" height="332.64"/>
  </clipPath>
 </defs>
</svg>
