<?xml version="1.0" encoding="utf-8" standalone="no"?>
<!DOCTYPE svg PUBLIC "-//W3C//DTD SVG 1.1//EN"
  "http://www.w3.org/Graphics/SVG/1.1/DTD/svg11.dtd">
<svg xmlns:xlink="http://www.w3.org/1999/xlink" width="411.2pt" height="340.853125pt" viewBox="0 0 411.2 340.853125" xmlns="http://www.w3.org/2000/svg" version="1.1">
 <metadata>
  <rdf:RDF xmlns:dc="http://purl.org/dc/elements/1.1/" xmlns:cc="http://creativecommons.org/ns#" xmlns:rdf="http://www.w3.org/1999/02/22-rdf-syntax-ns#">
   <cc:Work>
    <dc:type rdf:resource="http://purl.org/dc/dcmitype/StillImage"/>
    <dc:date>2024-04-13T13:25:13.067920</dc:date>
    <dc:format>image/svg+xml</dc:format>
    <dc:creator>
     <cc:Agent>
      <dc:title>Matplotlib v3.8.3, https://matplotlib.org/</dc:title>
     </cc:Agent>
    </dc:creator>
   </cc:Work>
  </rdf:RDF>
 </metadata>
 <defs>
  <style type="text/css">*{stroke-linejoin: round; stroke-linecap: butt}</style>
 </defs>
 <g id="figure_1">
  <g id="patch_1">
   <path d="M 0 340.853125 
L 411.2 340.853125 
L 411.2 0 
L 0 0 
z
" style="fill: #ffffff"/>
  </g>
  <g id="axes_1">
   <g id="patch_2">
    <path d="M 46.2 289.955 
L 381 289.955 
L 381 12.755 
L 46.2 12.755 
z
" style="fill: #ffffff"/>
   </g>
   <g id="PolyCollection_1">
    <defs>
     <path id="m78da9c71a5" d="M 46.2 -320.197925 
L 46.2 -154.744175 
L 51.78 -178.938538 
L 57.36 -200.01055 
L 62.94 -235.650963 
L 68.52 -248.469345 
L 74.1 -265.256885 
L 79.68 -278.992145 
L 85.26 -297.305825 
L 90.84 -311.041085 
L 96.42 -320.197925 
L 102 -320.197925 
L 107.58 -320.197925 
L 113.16 -320.197925 
L 118.74 -320.197925 
L 124.32 -320.197925 
L 129.9 -320.197925 
L 135.48 -320.197925 
L 141.06 -320.197925 
L 146.64 -320.197925 
L 152.22 -320.197925 
L 157.8 -320.197925 
L 163.38 -320.197925 
L 168.96 -320.197925 
L 174.54 -320.197925 
L 180.12 -320.197925 
L 185.7 -320.197925 
L 191.28 -320.197925 
L 196.86 -320.197925 
L 202.44 -320.197925 
L 208.02 -320.197925 
L 213.6 -320.197925 
L 219.18 -320.197925 
L 224.76 -320.197925 
L 230.34 -320.197925 
L 235.92 -320.197925 
L 241.5 -320.197925 
L 247.08 -320.197925 
L 252.66 -320.197925 
L 258.24 -320.197925 
L 263.82 -320.197925 
L 269.4 -320.197925 
L 274.98 -320.197925 
L 280.56 -320.197925 
L 286.14 -320.197925 
L 291.72 -320.197925 
L 297.3 -320.197925 
L 302.88 -320.197925 
L 308.46 -320.197925 
L 314.04 -320.197925 
L 319.62 -320.197925 
L 325.2 -320.197925 
L 330.78 -320.197925 
L 336.36 -320.197925 
L 341.94 -320.197925 
L 347.52 -320.197925 
L 353.1 -320.197925 
L 358.68 -320.197925 
L 364.26 -320.197925 
L 369.84 -320.197925 
L 375.42 -320.197925 
L 375.42 -320.197925 
L 375.42 -320.197925 
L 369.84 -320.197925 
L 364.26 -320.197925 
L 358.68 -320.197925 
L 353.1 -320.197925 
L 347.52 -320.197925 
L 341.94 -320.197925 
L 336.36 -320.197925 
L 330.78 -320.197925 
L 325.2 -320.197925 
L 319.62 -320.197925 
L 314.04 -320.197925 
L 308.46 -320.197925 
L 302.88 -320.197925 
L 297.3 -320.197925 
L 291.72 -320.197925 
L 286.14 -320.197925 
L 280.56 -320.197925 
L 274.98 -320.197925 
L 269.4 -320.197925 
L 263.82 -320.197925 
L 258.24 -320.197925 
L 252.66 -320.197925 
L 247.08 -320.197925 
L 241.5 -320.197925 
L 235.92 -320.197925 
L 230.34 -320.197925 
L 224.76 -320.197925 
L 219.18 -320.197925 
L 213.6 -320.197925 
L 208.02 -320.197925 
L 202.44 -320.197925 
L 196.86 -320.197925 
L 191.28 -320.197925 
L 185.7 -320.197925 
L 180.12 -320.197925 
L 174.54 -320.197925 
L 168.96 -320.197925 
L 163.38 -320.197925 
L 157.8 -320.197925 
L 152.22 -320.197925 
L 146.64 -320.197925 
L 141.06 -320.197925 
L 135.48 -320.197925 
L 129.9 -320.197925 
L 124.32 -320.197925 
L 118.74 -320.197925 
L 113.16 -320.197925 
L 107.58 -320.197925 
L 102 -320.197925 
L 96.42 -320.197925 
L 90.84 -320.197925 
L 85.26 -320.197925 
L 79.68 -320.197925 
L 74.1 -320.197925 
L 68.52 -320.197925 
L 62.94 -320.197925 
L 57.36 -320.197925 
L 51.78 -320.197925 
L 46.2 -320.197925 
z
" style="stroke: #ff0000; stroke-opacity: 0.3"/>
    </defs>
    <g clip-path="url(#p44dc2fd5ad)">
     <use xlink:href="#m78da9c71a5" x="0" y="340.853125" style="fill: #ff0000; fill-opacity: 0.3; stroke: #ff0000; stroke-opacity: 0.3"/>
    </g>
   </g>
   <g id="matplotlib.axis_1">
    <g id="xtick_1">
     <g id="line2d_1">
      <defs>
       <path id="m1c7c954887" d="M 0 0 
L 0 3.5 
" style="stroke: #000000; stroke-width: 0.8"/>
      </defs>
      <g>
       <use xlink:href="#m1c7c954887" x="46.2" y="289.955" style="stroke: #000000; stroke-width: 0.8"/>
      </g>
     </g>
     <g id="text_1">
      <!-- 0 -->
      <g transform="translate(42.2 308.065) scale(0.16 -0.16)">
       <defs>
        <path id="TimesNewRomanPSMT-30" d="M 231 2094 
Q 231 2819 450 3342 
Q 669 3866 1031 4122 
Q 1313 4325 1613 4325 
Q 2100 4325 2488 3828 
Q 2972 3213 2972 2159 
Q 2972 1422 2759 906 
Q 2547 391 2217 158 
Q 1888 -75 1581 -75 
Q 975 -75 572 641 
Q 231 1244 231 2094 
z
M 844 2016 
Q 844 1141 1059 588 
Q 1238 122 1591 122 
Q 1759 122 1940 273 
Q 2122 425 2216 781 
Q 2359 1319 2359 2297 
Q 2359 3022 2209 3506 
Q 2097 3866 1919 4016 
Q 1791 4119 1609 4119 
Q 1397 4119 1231 3928 
Q 1006 3669 925 3112 
Q 844 2556 844 2016 
z
" transform="scale(0.015625)"/>
       </defs>
       <use xlink:href="#TimesNewRomanPSMT-30"/>
      </g>
     </g>
    </g>
    <g id="xtick_2">
     <g id="line2d_2">
      <g>
       <use xlink:href="#m1c7c954887" x="102" y="289.955" style="stroke: #000000; stroke-width: 0.8"/>
      </g>
     </g>
     <g id="text_2">
      <!-- 10 -->
      <g transform="translate(94 308.065) scale(0.16 -0.16)">
       <defs>
        <path id="TimesNewRomanPSMT-31" d="M 750 3822 
L 1781 4325 
L 1884 4325 
L 1884 747 
Q 1884 391 1914 303 
Q 1944 216 2037 169 
Q 2131 122 2419 116 
L 2419 0 
L 825 0 
L 825 116 
Q 1125 122 1212 167 
Q 1300 213 1334 289 
Q 1369 366 1369 747 
L 1369 3034 
Q 1369 3497 1338 3628 
Q 1316 3728 1258 3775 
Q 1200 3822 1119 3822 
Q 1003 3822 797 3725 
L 750 3822 
z
" transform="scale(0.015625)"/>
       </defs>
       <use xlink:href="#TimesNewRomanPSMT-31"/>
       <use xlink:href="#TimesNewRomanPSMT-30" x="50"/>
      </g>
     </g>
    </g>
    <g id="xtick_3">
     <g id="line2d_3">
      <g>
       <use xlink:href="#m1c7c954887" x="157.8" y="289.955" style="stroke: #000000; stroke-width: 0.8"/>
      </g>
     </g>
     <g id="text_3">
      <!-- 20 -->
      <g transform="translate(149.8 308.065) scale(0.16 -0.16)">
       <defs>
        <path id="TimesNewRomanPSMT-32" d="M 2934 816 
L 2638 0 
L 138 0 
L 138 116 
Q 1241 1122 1691 1759 
Q 2141 2397 2141 2925 
Q 2141 3328 1894 3587 
Q 1647 3847 1303 3847 
Q 991 3847 742 3664 
Q 494 3481 375 3128 
L 259 3128 
Q 338 3706 661 4015 
Q 984 4325 1469 4325 
Q 1984 4325 2329 3994 
Q 2675 3663 2675 3213 
Q 2675 2891 2525 2569 
Q 2294 2063 1775 1497 
Q 997 647 803 472 
L 1909 472 
Q 2247 472 2383 497 
Q 2519 522 2628 598 
Q 2738 675 2819 816 
L 2934 816 
z
" transform="scale(0.015625)"/>
       </defs>
       <use xlink:href="#TimesNewRomanPSMT-32"/>
       <use xlink:href="#TimesNewRomanPSMT-30" x="50"/>
      </g>
     </g>
    </g>
    <g id="xtick_4">
     <g id="line2d_4">
      <g>
       <use xlink:href="#m1c7c954887" x="213.6" y="289.955" style="stroke: #000000; stroke-width: 0.8"/>
      </g>
     </g>
     <g id="text_4">
      <!-- 30 -->
      <g transform="translate(205.6 308.065) scale(0.16 -0.16)">
       <defs>
        <path id="TimesNewRomanPSMT-33" d="M 325 3431 
Q 506 3859 782 4092 
Q 1059 4325 1472 4325 
Q 1981 4325 2253 3994 
Q 2459 3747 2459 3466 
Q 2459 3003 1878 2509 
Q 2269 2356 2469 2072 
Q 2669 1788 2669 1403 
Q 2669 853 2319 450 
Q 1863 -75 997 -75 
Q 569 -75 414 31 
Q 259 138 259 259 
Q 259 350 332 419 
Q 406 488 509 488 
Q 588 488 669 463 
Q 722 447 909 348 
Q 1097 250 1169 231 
Q 1284 197 1416 197 
Q 1734 197 1970 444 
Q 2206 691 2206 1028 
Q 2206 1275 2097 1509 
Q 2016 1684 1919 1775 
Q 1784 1900 1550 2001 
Q 1316 2103 1072 2103 
L 972 2103 
L 972 2197 
Q 1219 2228 1467 2375 
Q 1716 2522 1828 2728 
Q 1941 2934 1941 3181 
Q 1941 3503 1739 3701 
Q 1538 3900 1238 3900 
Q 753 3900 428 3381 
L 325 3431 
z
" transform="scale(0.015625)"/>
       </defs>
       <use xlink:href="#TimesNewRomanPSMT-33"/>
       <use xlink:href="#TimesNewRomanPSMT-30" x="50"/>
      </g>
     </g>
    </g>
    <g id="xtick_5">
     <g id="line2d_5">
      <g>
       <use xlink:href="#m1c7c954887" x="269.4" y="289.955" style="stroke: #000000; stroke-width: 0.8"/>
      </g>
     </g>
     <g id="text_5">
      <!-- 40 -->
      <g transform="translate(261.4 308.065) scale(0.16 -0.16)">
       <defs>
        <path id="TimesNewRomanPSMT-34" d="M 2978 1563 
L 2978 1119 
L 2409 1119 
L 2409 0 
L 1894 0 
L 1894 1119 
L 100 1119 
L 100 1519 
L 2066 4325 
L 2409 4325 
L 2409 1563 
L 2978 1563 
z
M 1894 1563 
L 1894 3666 
L 406 1563 
L 1894 1563 
z
" transform="scale(0.015625)"/>
       </defs>
       <use xlink:href="#TimesNewRomanPSMT-34"/>
       <use xlink:href="#TimesNewRomanPSMT-30" x="50"/>
      </g>
     </g>
    </g>
    <g id="xtick_6">
     <g id="line2d_6">
      <g>
       <use xlink:href="#m1c7c954887" x="325.2" y="289.955" style="stroke: #000000; stroke-width: 0.8"/>
      </g>
     </g>
     <g id="text_6">
      <!-- 50 -->
      <g transform="translate(317.2 308.065) scale(0.16 -0.16)">
       <defs>
        <path id="TimesNewRomanPSMT-35" d="M 2778 4238 
L 2534 3706 
L 1259 3706 
L 981 3138 
Q 1809 3016 2294 2522 
Q 2709 2097 2709 1522 
Q 2709 1188 2573 903 
Q 2438 619 2231 419 
Q 2025 219 1772 97 
Q 1413 -75 1034 -75 
Q 653 -75 479 54 
Q 306 184 306 341 
Q 306 428 378 495 
Q 450 563 559 563 
Q 641 563 702 538 
Q 763 513 909 409 
Q 1144 247 1384 247 
Q 1750 247 2026 523 
Q 2303 800 2303 1197 
Q 2303 1581 2056 1914 
Q 1809 2247 1375 2428 
Q 1034 2569 447 2591 
L 1259 4238 
L 2778 4238 
z
" transform="scale(0.015625)"/>
       </defs>
       <use xlink:href="#TimesNewRomanPSMT-35"/>
       <use xlink:href="#TimesNewRomanPSMT-30" x="50"/>
      </g>
     </g>
    </g>
    <g id="xtick_7">
     <g id="line2d_7">
      <g>
       <use xlink:href="#m1c7c954887" x="381" y="289.955" style="stroke: #000000; stroke-width: 0.8"/>
      </g>
     </g>
     <g id="text_7">
      <!-- 60 -->
      <g transform="translate(373 308.065) scale(0.16 -0.16)">
       <defs>
        <path id="TimesNewRomanPSMT-36" d="M 2869 4325 
L 2869 4209 
Q 2456 4169 2195 4045 
Q 1934 3922 1679 3669 
Q 1425 3416 1258 3105 
Q 1091 2794 978 2366 
Q 1428 2675 1881 2675 
Q 2316 2675 2634 2325 
Q 2953 1975 2953 1425 
Q 2953 894 2631 456 
Q 2244 -75 1606 -75 
Q 1172 -75 869 213 
Q 275 772 275 1663 
Q 275 2231 503 2743 
Q 731 3256 1154 3653 
Q 1578 4050 1965 4187 
Q 2353 4325 2688 4325 
L 2869 4325 
z
M 925 2138 
Q 869 1716 869 1456 
Q 869 1156 980 804 
Q 1091 453 1309 247 
Q 1469 100 1697 100 
Q 1969 100 2183 356 
Q 2397 613 2397 1088 
Q 2397 1622 2184 2012 
Q 1972 2403 1581 2403 
Q 1463 2403 1327 2353 
Q 1191 2303 925 2138 
z
" transform="scale(0.015625)"/>
       </defs>
       <use xlink:href="#TimesNewRomanPSMT-36"/>
       <use xlink:href="#TimesNewRomanPSMT-30" x="50"/>
      </g>
     </g>
    </g>
    <g id="text_8">
     <!-- Time (s) -->
     <g transform="translate(179.795313 329.375) scale(0.2 -0.2)">
      <defs>
       <path id="TimesNewRomanPSMT-54" d="M 3703 4238 
L 3750 3244 
L 3631 3244 
Q 3597 3506 3538 3619 
Q 3441 3800 3280 3886 
Q 3119 3972 2856 3972 
L 2259 3972 
L 2259 734 
Q 2259 344 2344 247 
Q 2463 116 2709 116 
L 2856 116 
L 2856 0 
L 1059 0 
L 1059 116 
L 1209 116 
Q 1478 116 1591 278 
Q 1659 378 1659 734 
L 1659 3972 
L 1150 3972 
Q 853 3972 728 3928 
Q 566 3869 450 3700 
Q 334 3531 313 3244 
L 194 3244 
L 244 4238 
L 3703 4238 
z
" transform="scale(0.015625)"/>
       <path id="TimesNewRomanPSMT-69" d="M 928 4444 
Q 1059 4444 1151 4351 
Q 1244 4259 1244 4128 
Q 1244 3997 1151 3903 
Q 1059 3809 928 3809 
Q 797 3809 703 3903 
Q 609 3997 609 4128 
Q 609 4259 701 4351 
Q 794 4444 928 4444 
z
M 1188 2947 
L 1188 647 
Q 1188 378 1227 289 
Q 1266 200 1342 156 
Q 1419 113 1622 113 
L 1622 0 
L 231 0 
L 231 113 
Q 441 113 512 153 
Q 584 194 626 287 
Q 669 381 669 647 
L 669 1750 
Q 669 2216 641 2353 
Q 619 2453 572 2492 
Q 525 2531 444 2531 
Q 356 2531 231 2484 
L 188 2597 
L 1050 2947 
L 1188 2947 
z
" transform="scale(0.015625)"/>
       <path id="TimesNewRomanPSMT-6d" d="M 1050 2338 
Q 1363 2650 1419 2697 
Q 1559 2816 1721 2881 
Q 1884 2947 2044 2947 
Q 2313 2947 2506 2790 
Q 2700 2634 2766 2338 
Q 3088 2713 3309 2830 
Q 3531 2947 3766 2947 
Q 3994 2947 4170 2830 
Q 4347 2713 4450 2447 
Q 4519 2266 4519 1878 
L 4519 647 
Q 4519 378 4559 278 
Q 4591 209 4675 161 
Q 4759 113 4950 113 
L 4950 0 
L 3538 0 
L 3538 113 
L 3597 113 
Q 3781 113 3884 184 
Q 3956 234 3988 344 
Q 4000 397 4000 647 
L 4000 1878 
Q 4000 2228 3916 2372 
Q 3794 2572 3525 2572 
Q 3359 2572 3192 2489 
Q 3025 2406 2788 2181 
L 2781 2147 
L 2788 2013 
L 2788 647 
Q 2788 353 2820 281 
Q 2853 209 2943 161 
Q 3034 113 3253 113 
L 3253 0 
L 1806 0 
L 1806 113 
Q 2044 113 2133 169 
Q 2222 225 2256 338 
Q 2272 391 2272 647 
L 2272 1878 
Q 2272 2228 2169 2381 
Q 2031 2581 1784 2581 
Q 1616 2581 1450 2491 
Q 1191 2353 1050 2181 
L 1050 647 
Q 1050 366 1089 281 
Q 1128 197 1204 155 
Q 1281 113 1516 113 
L 1516 0 
L 100 0 
L 100 113 
Q 297 113 375 155 
Q 453 197 493 289 
Q 534 381 534 647 
L 534 1741 
Q 534 2213 506 2350 
Q 484 2453 437 2492 
Q 391 2531 309 2531 
Q 222 2531 100 2484 
L 53 2597 
L 916 2947 
L 1050 2947 
L 1050 2338 
z
" transform="scale(0.015625)"/>
       <path id="TimesNewRomanPSMT-65" d="M 681 1784 
Q 678 1147 991 784 
Q 1303 422 1725 422 
Q 2006 422 2214 576 
Q 2422 731 2563 1106 
L 2659 1044 
Q 2594 616 2278 264 
Q 1963 -88 1488 -88 
Q 972 -88 605 314 
Q 238 716 238 1394 
Q 238 2128 614 2539 
Q 991 2950 1559 2950 
Q 2041 2950 2350 2633 
Q 2659 2316 2659 1784 
L 681 1784 
z
M 681 1966 
L 2006 1966 
Q 1991 2241 1941 2353 
Q 1863 2528 1708 2628 
Q 1553 2728 1384 2728 
Q 1125 2728 920 2526 
Q 716 2325 681 1966 
z
" transform="scale(0.015625)"/>
       <path id="TimesNewRomanPSMT-20" transform="scale(0.015625)"/>
       <path id="TimesNewRomanPSMT-28" d="M 1988 -1253 
L 1988 -1369 
Q 1516 -1131 1200 -813 
Q 750 -359 506 256 
Q 263 872 263 1534 
Q 263 2503 741 3301 
Q 1219 4100 1988 4444 
L 1988 4313 
Q 1603 4100 1356 3731 
Q 1109 3363 987 2797 
Q 866 2231 866 1616 
Q 866 947 969 400 
Q 1050 -31 1165 -292 
Q 1281 -553 1476 -793 
Q 1672 -1034 1988 -1253 
z
" transform="scale(0.015625)"/>
       <path id="TimesNewRomanPSMT-73" d="M 2050 2947 
L 2050 1972 
L 1947 1972 
Q 1828 2431 1642 2597 
Q 1456 2763 1169 2763 
Q 950 2763 815 2647 
Q 681 2531 681 2391 
Q 681 2216 781 2091 
Q 878 1963 1175 1819 
L 1631 1597 
Q 2266 1288 2266 781 
Q 2266 391 1970 151 
Q 1675 -88 1309 -88 
Q 1047 -88 709 6 
Q 606 38 541 38 
Q 469 38 428 -44 
L 325 -44 
L 325 978 
L 428 978 
Q 516 541 762 319 
Q 1009 97 1316 97 
Q 1531 97 1667 223 
Q 1803 350 1803 528 
Q 1803 744 1651 891 
Q 1500 1038 1047 1263 
Q 594 1488 453 1669 
Q 313 1847 313 2119 
Q 313 2472 555 2709 
Q 797 2947 1181 2947 
Q 1350 2947 1591 2875 
Q 1750 2828 1803 2828 
Q 1853 2828 1881 2850 
Q 1909 2872 1947 2947 
L 2050 2947 
z
" transform="scale(0.015625)"/>
       <path id="TimesNewRomanPSMT-29" d="M 144 4313 
L 144 4444 
Q 619 4209 934 3891 
Q 1381 3434 1625 2820 
Q 1869 2206 1869 1541 
Q 1869 572 1392 -226 
Q 916 -1025 144 -1369 
L 144 -1253 
Q 528 -1038 776 -670 
Q 1025 -303 1145 264 
Q 1266 831 1266 1447 
Q 1266 2113 1163 2663 
Q 1084 3094 967 3353 
Q 850 3613 656 3853 
Q 463 4094 144 4313 
z
" transform="scale(0.015625)"/>
      </defs>
      <use xlink:href="#TimesNewRomanPSMT-54"/>
      <use xlink:href="#TimesNewRomanPSMT-69" x="57.583984"/>
      <use xlink:href="#TimesNewRomanPSMT-6d" x="85.367188"/>
      <use xlink:href="#TimesNewRomanPSMT-65" x="163.150391"/>
      <use xlink:href="#TimesNewRomanPSMT-20" x="207.535156"/>
      <use xlink:href="#TimesNewRomanPSMT-28" x="232.535156"/>
      <use xlink:href="#TimesNewRomanPSMT-73" x="265.835938"/>
      <use xlink:href="#TimesNewRomanPSMT-29" x="304.751953"/>
     </g>
    </g>
   </g>
   <g id="matplotlib.axis_2">
    <g id="ytick_1">
     <g id="line2d_8">
      <defs>
       <path id="m0aea3b9ec6" d="M 0 0 
L -3.5 0 
" style="stroke: #000000; stroke-width: 0.8"/>
      </defs>
      <g>
       <use xlink:href="#m0aea3b9ec6" x="46.2" y="289.955" style="stroke: #000000; stroke-width: 0.8"/>
      </g>
     </g>
     <g id="text_9">
      <!-- 0 -->
      <g transform="translate(31.2 295.51) scale(0.16 -0.16)">
       <use xlink:href="#TimesNewRomanPSMT-30"/>
      </g>
     </g>
    </g>
    <g id="ytick_2">
     <g id="line2d_9">
      <g>
       <use xlink:href="#m0aea3b9ec6" x="46.2" y="255.305" style="stroke: #000000; stroke-width: 0.8"/>
      </g>
     </g>
     <g id="text_10">
      <!-- 500 -->
      <g transform="translate(15.2 260.86) scale(0.16 -0.16)">
       <use xlink:href="#TimesNewRomanPSMT-35"/>
       <use xlink:href="#TimesNewRomanPSMT-30" x="50"/>
       <use xlink:href="#TimesNewRomanPSMT-30" x="100"/>
      </g>
     </g>
    </g>
    <g id="ytick_3">
     <g id="line2d_10">
      <g>
       <use xlink:href="#m0aea3b9ec6" x="46.2" y="220.655" style="stroke: #000000; stroke-width: 0.8"/>
      </g>
     </g>
     <g id="text_11">
      <!-- 1000 -->
      <g transform="translate(7.2 226.21) scale(0.16 -0.16)">
       <use xlink:href="#TimesNewRomanPSMT-31"/>
       <use xlink:href="#TimesNewRomanPSMT-30" x="50"/>
       <use xlink:href="#TimesNewRomanPSMT-30" x="100"/>
       <use xlink:href="#TimesNewRomanPSMT-30" x="150"/>
      </g>
     </g>
    </g>
    <g id="ytick_4">
     <g id="line2d_11">
      <g>
       <use xlink:href="#m0aea3b9ec6" x="46.2" y="186.005" style="stroke: #000000; stroke-width: 0.8"/>
      </g>
     </g>
     <g id="text_12">
      <!-- 1500 -->
      <g transform="translate(7.2 191.56) scale(0.16 -0.16)">
       <use xlink:href="#TimesNewRomanPSMT-31"/>
       <use xlink:href="#TimesNewRomanPSMT-35" x="50"/>
       <use xlink:href="#TimesNewRomanPSMT-30" x="100"/>
       <use xlink:href="#TimesNewRomanPSMT-30" x="150"/>
      </g>
     </g>
    </g>
    <g id="ytick_5">
     <g id="line2d_12">
      <g>
       <use xlink:href="#m0aea3b9ec6" x="46.2" y="151.355" style="stroke: #000000; stroke-width: 0.8"/>
      </g>
     </g>
     <g id="text_13">
      <!-- 2000 -->
      <g transform="translate(7.2 156.91) scale(0.16 -0.16)">
       <use xlink:href="#TimesNewRomanPSMT-32"/>
       <use xlink:href="#TimesNewRomanPSMT-30" x="50"/>
       <use xlink:href="#TimesNewRomanPSMT-30" x="100"/>
       <use xlink:href="#TimesNewRomanPSMT-30" x="150"/>
      </g>
     </g>
    </g>
    <g id="ytick_6">
     <g id="line2d_13">
      <g>
       <use xlink:href="#m0aea3b9ec6" x="46.2" y="116.705" style="stroke: #000000; stroke-width: 0.8"/>
      </g>
     </g>
     <g id="text_14">
      <!-- 2500 -->
      <g transform="translate(7.2 122.26) scale(0.16 -0.16)">
       <use xlink:href="#TimesNewRomanPSMT-32"/>
       <use xlink:href="#TimesNewRomanPSMT-35" x="50"/>
       <use xlink:href="#TimesNewRomanPSMT-30" x="100"/>
       <use xlink:href="#TimesNewRomanPSMT-30" x="150"/>
      </g>
     </g>
    </g>
    <g id="ytick_7">
     <g id="line2d_14">
      <g>
       <use xlink:href="#m0aea3b9ec6" x="46.2" y="82.055" style="stroke: #000000; stroke-width: 0.8"/>
      </g>
     </g>
     <g id="text_15">
      <!-- 3000 -->
      <g transform="translate(7.2 87.61) scale(0.16 -0.16)">
       <use xlink:href="#TimesNewRomanPSMT-33"/>
       <use xlink:href="#TimesNewRomanPSMT-30" x="50"/>
       <use xlink:href="#TimesNewRomanPSMT-30" x="100"/>
       <use xlink:href="#TimesNewRomanPSMT-30" x="150"/>
      </g>
     </g>
    </g>
    <g id="ytick_8">
     <g id="line2d_15">
      <g>
       <use xlink:href="#m0aea3b9ec6" x="46.2" y="47.405" style="stroke: #000000; stroke-width: 0.8"/>
      </g>
     </g>
     <g id="text_16">
      <!-- 3500 -->
      <g transform="translate(7.2 52.96) scale(0.16 -0.16)">
       <use xlink:href="#TimesNewRomanPSMT-33"/>
       <use xlink:href="#TimesNewRomanPSMT-35" x="50"/>
       <use xlink:href="#TimesNewRomanPSMT-30" x="100"/>
       <use xlink:href="#TimesNewRomanPSMT-30" x="150"/>
      </g>
     </g>
    </g>
    <g id="ytick_9">
     <g id="line2d_16">
      <g>
       <use xlink:href="#m0aea3b9ec6" x="46.2" y="12.755" style="stroke: #000000; stroke-width: 0.8"/>
      </g>
     </g>
     <g id="text_17">
      <!-- 4000 -->
      <g transform="translate(7.2 18.31) scale(0.16 -0.16)">
       <use xlink:href="#TimesNewRomanPSMT-34"/>
       <use xlink:href="#TimesNewRomanPSMT-30" x="50"/>
       <use xlink:href="#TimesNewRomanPSMT-30" x="100"/>
       <use xlink:href="#TimesNewRomanPSMT-30" x="150"/>
      </g>
     </g>
    </g>
   </g>
   <g id="line2d_17">
    <path d="M 46.2 89.3315 
L 51.78 89.3315 
L 57.36 96.9622 
L 62.94 96.9622 
L 68.52 92.38378 
L 74.1 75.59624 
L 79.68 61.86098 
L 85.26 43.5473 
L 90.84 29.81204 
L 96.42 20.6552 
L 102 20.6552 
L 107.58 20.6552 
L 113.16 20.6552 
L 118.74 20.6552 
L 124.32 20.6552 
L 129.9 20.6552 
L 135.48 20.6552 
L 141.06 20.6552 
L 146.64 20.6552 
L 152.22 20.6552 
L 157.8 20.6552 
L 163.38 20.6552 
L 168.96 20.6552 
L 174.54 20.6552 
L 180.12 20.6552 
L 185.7 20.6552 
L 191.28 20.6552 
L 196.86 20.6552 
L 202.44 20.6552 
L 208.02 20.6552 
L 213.6 20.6552 
L 219.18 20.6552 
L 224.76 20.6552 
L 230.34 20.6552 
L 235.92 20.6552 
L 241.5 20.6552 
L 247.08 20.6552 
L 252.66 20.6552 
L 258.24 20.6552 
L 263.82 20.6552 
L 269.4 20.6552 
L 274.98 20.6552 
L 280.56 20.6552 
L 286.14 20.6552 
L 291.72 20.6552 
L 297.3 20.6552 
L 302.88 20.6552 
L 308.46 20.6552 
L 314.04 20.6552 
L 319.62 20.6552 
L 325.2 20.6552 
L 330.78 20.6552 
L 336.36 20.6552 
L 341.94 20.6552 
L 347.52 20.6552 
L 353.1 20.6552 
L 358.68 20.6552 
L 364.26 20.6552 
L 369.84 20.6552 
L 375.42 20.6552 
" clip-path="url(#p44dc2fd5ad)" style="fill: none; stroke: #1f77b4; stroke-opacity: 0.1; stroke-width: 1.5; stroke-linecap: square"/>
   </g>
   <g id="line2d_18">
    <path d="M 46.2 89.3315 
L 51.78 72.162425 
L 57.36 62.62405 
L 62.94 45.454975 
L 68.52 38.587345 
L 74.1 30.956645 
L 79.68 25.23362 
L 85.26 20.6552 
L 90.84 20.6552 
L 96.42 20.6552 
L 102 20.6552 
L 107.58 20.6552 
L 113.16 20.6552 
L 118.74 20.6552 
L 124.32 20.6552 
L 129.9 20.6552 
L 135.48 20.6552 
L 141.06 20.6552 
L 146.64 20.6552 
L 152.22 20.6552 
L 157.8 20.6552 
L 163.38 20.6552 
L 168.96 20.6552 
L 174.54 20.6552 
L 180.12 20.6552 
L 185.7 20.6552 
L 191.28 20.6552 
L 196.86 20.6552 
L 202.44 20.6552 
L 208.02 20.6552 
L 213.6 20.6552 
L 219.18 20.6552 
L 224.76 20.6552 
L 230.34 20.6552 
L 235.92 20.6552 
L 241.5 20.6552 
L 247.08 20.6552 
L 252.66 20.6552 
L 258.24 20.6552 
L 263.82 20.6552 
L 269.4 20.6552 
L 274.98 20.6552 
L 280.56 20.6552 
L 286.14 20.6552 
L 291.72 20.6552 
L 297.3 20.6552 
L 302.88 20.6552 
L 308.46 20.6552 
L 314.04 20.6552 
L 319.62 20.6552 
L 325.2 20.6552 
L 330.78 20.6552 
L 336.36 20.6552 
L 341.94 20.6552 
L 347.52 20.6552 
L 353.1 20.6552 
L 358.68 20.6552 
L 364.26 20.6552 
L 369.84 20.6552 
L 375.42 20.6552 
" clip-path="url(#p44dc2fd5ad)" style="fill: none; stroke: #ff7f0e; stroke-opacity: 0.1; stroke-width: 1.5; stroke-linecap: square"/>
   </g>
   <g id="line2d_19">
    <path d="M 46.2 158.0078 
L 51.78 140.838725 
L 57.36 123.66965 
L 62.94 95.054525 
L 68.52 74.451635 
L 74.1 56.137955 
L 79.68 38.96888 
L 85.26 25.23362 
L 90.84 20.6552 
L 96.42 20.6552 
L 102 20.6552 
L 107.58 20.6552 
L 113.16 20.6552 
L 118.74 20.6552 
L 124.32 20.6552 
L 129.9 20.6552 
L 135.48 20.6552 
L 141.06 20.6552 
L 146.64 20.6552 
L 152.22 20.6552 
L 157.8 20.6552 
L 163.38 20.6552 
L 168.96 20.6552 
L 174.54 20.6552 
L 180.12 20.6552 
L 185.7 20.6552 
L 191.28 20.6552 
L 196.86 20.6552 
L 202.44 20.6552 
L 208.02 20.6552 
L 213.6 20.6552 
L 219.18 20.6552 
L 224.76 20.6552 
L 230.34 20.6552 
L 235.92 20.6552 
L 241.5 20.6552 
L 247.08 20.6552 
L 252.66 20.6552 
L 258.24 20.6552 
L 263.82 20.6552 
L 269.4 20.6552 
L 274.98 20.6552 
L 280.56 20.6552 
L 286.14 20.6552 
L 291.72 20.6552 
L 297.3 20.6552 
L 302.88 20.6552 
L 308.46 20.6552 
L 314.04 20.6552 
L 319.62 20.6552 
L 325.2 20.6552 
L 330.78 20.6552 
L 336.36 20.6552 
L 341.94 20.6552 
L 347.52 20.6552 
L 353.1 20.6552 
L 358.68 20.6552 
L 364.26 20.6552 
L 369.84 20.6552 
L 375.42 20.6552 
" clip-path="url(#p44dc2fd5ad)" style="fill: none; stroke: #2ca02c; stroke-opacity: 0.1; stroke-width: 1.5; stroke-linecap: square"/>
   </g>
   <g id="line2d_20">
    <path d="M 46.2 89.3315 
L 51.78 72.162425 
L 57.36 62.62405 
L 62.94 45.454975 
L 68.52 38.587345 
L 74.1 30.956645 
L 79.68 25.23362 
L 85.26 20.6552 
L 90.84 20.6552 
L 96.42 20.6552 
L 102 20.6552 
L 107.58 20.6552 
L 113.16 20.6552 
L 118.74 20.6552 
L 124.32 20.6552 
L 129.9 20.6552 
L 135.48 20.6552 
L 141.06 20.6552 
L 146.64 20.6552 
L 152.22 20.6552 
L 157.8 20.6552 
L 163.38 20.6552 
L 168.96 20.6552 
L 174.54 20.6552 
L 180.12 20.6552 
L 185.7 20.6552 
L 191.28 20.6552 
L 196.86 20.6552 
L 202.44 20.6552 
L 208.02 20.6552 
L 213.6 20.6552 
L 219.18 20.6552 
L 224.76 20.6552 
L 230.34 20.6552 
L 235.92 20.6552 
L 241.5 20.6552 
L 247.08 20.6552 
L 252.66 20.6552 
L 258.24 20.6552 
L 263.82 20.6552 
L 269.4 20.6552 
L 274.98 20.6552 
L 280.56 20.6552 
L 286.14 20.6552 
L 291.72 20.6552 
L 297.3 20.6552 
L 302.88 20.6552 
L 308.46 20.6552 
L 314.04 20.6552 
L 319.62 20.6552 
L 325.2 20.6552 
L 330.78 20.6552 
L 336.36 20.6552 
L 341.94 20.6552 
L 347.52 20.6552 
L 353.1 20.6552 
L 358.68 20.6552 
L 364.26 20.6552 
L 369.84 20.6552 
L 375.42 20.6552 
" clip-path="url(#p44dc2fd5ad)" style="fill: none; stroke: #d62728; stroke-opacity: 0.1; stroke-width: 1.5; stroke-linecap: square"/>
   </g>
   <g id="line2d_21">
    <path d="M 46.2 20.6552 
L 51.78 20.6552 
L 57.36 20.6552 
L 62.94 20.6552 
L 68.52 20.6552 
L 74.1 20.6552 
L 79.68 20.6552 
L 85.26 20.6552 
L 90.84 20.6552 
L 96.42 20.6552 
L 102 20.6552 
L 107.58 20.6552 
L 113.16 20.6552 
L 118.74 20.6552 
L 124.32 20.6552 
L 129.9 20.6552 
L 135.48 20.6552 
L 141.06 20.6552 
L 146.64 20.6552 
L 152.22 20.6552 
L 157.8 20.6552 
L 163.38 20.6552 
L 168.96 20.6552 
L 174.54 20.6552 
L 180.12 20.6552 
L 185.7 20.6552 
L 191.28 20.6552 
L 196.86 20.6552 
L 202.44 20.6552 
L 208.02 20.6552 
L 213.6 20.6552 
L 219.18 20.6552 
L 224.76 20.6552 
L 230.34 20.6552 
L 235.92 20.6552 
L 241.5 20.6552 
L 247.08 20.6552 
L 252.66 20.6552 
L 258.24 20.6552 
L 263.82 20.6552 
L 269.4 20.6552 
L 274.98 20.6552 
L 280.56 20.6552 
L 286.14 20.6552 
L 291.72 20.6552 
L 297.3 20.6552 
L 302.88 20.6552 
L 308.46 20.6552 
L 314.04 20.6552 
L 319.62 20.6552 
L 325.2 20.6552 
L 330.78 20.6552 
L 336.36 20.6552 
L 341.94 20.6552 
L 347.52 20.6552 
L 353.1 20.6552 
L 358.68 20.6552 
L 364.26 20.6552 
L 369.84 20.6552 
L 375.42 20.6552 
" clip-path="url(#p44dc2fd5ad)" style="fill: none; stroke: #9467bd; stroke-opacity: 0.1; stroke-width: 1.5; stroke-linecap: square"/>
   </g>
   <g id="line2d_22">
    <path d="M 46.2 20.6552 
L 51.78 20.6552 
L 57.36 20.6552 
L 62.94 20.6552 
L 68.52 20.6552 
L 74.1 20.6552 
L 79.68 20.6552 
L 85.26 20.6552 
L 90.84 20.6552 
L 96.42 20.6552 
L 102 20.6552 
L 107.58 20.6552 
L 113.16 20.6552 
L 118.74 20.6552 
L 124.32 20.6552 
L 129.9 20.6552 
L 135.48 20.6552 
L 141.06 20.6552 
L 146.64 20.6552 
L 152.22 20.6552 
L 157.8 20.6552 
L 163.38 20.6552 
L 168.96 20.6552 
L 174.54 20.6552 
L 180.12 20.6552 
L 185.7 20.6552 
L 191.28 20.6552 
L 196.86 20.6552 
L 202.44 20.6552 
L 208.02 20.6552 
L 213.6 20.6552 
L 219.18 20.6552 
L 224.76 20.6552 
L 230.34 20.6552 
L 235.92 20.6552 
L 241.5 20.6552 
L 247.08 20.6552 
L 252.66 20.6552 
L 258.24 20.6552 
L 263.82 20.6552 
L 269.4 20.6552 
L 274.98 20.6552 
L 280.56 20.6552 
L 286.14 20.6552 
L 291.72 20.6552 
L 297.3 20.6552 
L 302.88 20.6552 
L 308.46 20.6552 
L 314.04 20.6552 
L 319.62 20.6552 
L 325.2 20.6552 
L 330.78 20.6552 
L 336.36 20.6552 
L 341.94 20.6552 
L 347.52 20.6552 
L 353.1 20.6552 
L 358.68 20.6552 
L 364.26 20.6552 
L 369.84 20.6552 
L 375.42 20.6552 
" clip-path="url(#p44dc2fd5ad)" style="fill: none; stroke: #8c564b; stroke-opacity: 0.1; stroke-width: 1.5; stroke-linecap: square"/>
   </g>
   <g id="line2d_23">
    <path d="M 46.2 117.43265 
L 51.78 93.238287 
L 57.36 79.796975 
L 62.94 55.602612 
L 68.52 45.924867 
L 74.1 35.171817 
L 79.68 27.10703 
L 85.26 20.6552 
L 90.84 20.6552 
L 96.42 20.6552 
L 102 20.6552 
L 107.58 20.6552 
L 113.16 20.6552 
L 118.74 20.6552 
L 124.32 20.6552 
L 129.9 20.6552 
L 135.48 20.6552 
L 141.06 20.6552 
L 146.64 20.6552 
L 152.22 20.6552 
L 157.8 20.6552 
L 163.38 20.6552 
L 168.96 20.6552 
L 174.54 20.6552 
L 180.12 20.6552 
L 185.7 20.6552 
L 191.28 20.6552 
L 196.86 20.6552 
L 202.44 20.6552 
L 208.02 20.6552 
L 213.6 20.6552 
L 219.18 20.6552 
L 224.76 20.6552 
L 230.34 20.6552 
L 235.92 20.6552 
L 241.5 20.6552 
L 247.08 20.6552 
L 252.66 20.6552 
L 258.24 20.6552 
L 263.82 20.6552 
L 269.4 20.6552 
L 274.98 20.6552 
L 280.56 20.6552 
L 286.14 20.6552 
L 291.72 20.6552 
L 297.3 20.6552 
L 302.88 20.6552 
L 308.46 20.6552 
L 314.04 20.6552 
L 319.62 20.6552 
L 325.2 20.6552 
L 330.78 20.6552 
L 336.36 20.6552 
L 341.94 20.6552 
L 347.52 20.6552 
L 353.1 20.6552 
L 358.68 20.6552 
L 364.26 20.6552 
L 369.84 20.6552 
L 375.42 20.6552 
" clip-path="url(#p44dc2fd5ad)" style="fill: none; stroke: #e377c2; stroke-opacity: 0.1; stroke-width: 1.5; stroke-linecap: square"/>
   </g>
   <g id="line2d_24">
    <path d="M 46.2 117.43265 
L 51.78 93.238287 
L 57.36 79.796975 
L 62.94 55.602612 
L 68.52 45.924867 
L 74.1 35.171817 
L 79.68 27.10703 
L 85.26 20.6552 
L 90.84 20.6552 
L 96.42 20.6552 
L 102 20.6552 
L 107.58 20.6552 
L 113.16 20.6552 
L 118.74 20.6552 
L 124.32 20.6552 
L 129.9 20.6552 
L 135.48 20.6552 
L 141.06 20.6552 
L 146.64 20.6552 
L 152.22 20.6552 
L 157.8 20.6552 
L 163.38 20.6552 
L 168.96 20.6552 
L 174.54 20.6552 
L 180.12 20.6552 
L 185.7 20.6552 
L 191.28 20.6552 
L 196.86 20.6552 
L 202.44 20.6552 
L 208.02 20.6552 
L 213.6 20.6552 
L 219.18 20.6552 
L 224.76 20.6552 
L 230.34 20.6552 
L 235.92 20.6552 
L 241.5 20.6552 
L 247.08 20.6552 
L 252.66 20.6552 
L 258.24 20.6552 
L 263.82 20.6552 
L 269.4 20.6552 
L 274.98 20.6552 
L 280.56 20.6552 
L 286.14 20.6552 
L 291.72 20.6552 
L 297.3 20.6552 
L 302.88 20.6552 
L 308.46 20.6552 
L 314.04 20.6552 
L 319.62 20.6552 
L 325.2 20.6552 
L 330.78 20.6552 
L 336.36 20.6552 
L 341.94 20.6552 
L 347.52 20.6552 
L 353.1 20.6552 
L 358.68 20.6552 
L 364.26 20.6552 
L 369.84 20.6552 
L 375.42 20.6552 
" clip-path="url(#p44dc2fd5ad)" style="fill: none; stroke: #7f7f7f; stroke-opacity: 0.1; stroke-width: 1.5; stroke-linecap: square"/>
   </g>
   <g id="line2d_25">
    <path d="M 46.2 132.88655 
L 51.78 104.828712 
L 57.36 89.241025 
L 62.94 61.183187 
L 68.52 49.960052 
L 74.1 37.489902 
L 79.68 28.13729 
L 85.26 20.6552 
L 90.84 20.6552 
L 96.42 20.6552 
L 102 20.6552 
L 107.58 20.6552 
L 113.16 20.6552 
L 118.74 20.6552 
L 124.32 20.6552 
L 129.9 20.6552 
L 135.48 20.6552 
L 141.06 20.6552 
L 146.64 20.6552 
L 152.22 20.6552 
L 157.8 20.6552 
L 163.38 20.6552 
L 168.96 20.6552 
L 174.54 20.6552 
L 180.12 20.6552 
L 185.7 20.6552 
L 191.28 20.6552 
L 196.86 20.6552 
L 202.44 20.6552 
L 208.02 20.6552 
L 213.6 20.6552 
L 219.18 20.6552 
L 224.76 20.6552 
L 230.34 20.6552 
L 235.92 20.6552 
L 241.5 20.6552 
L 247.08 20.6552 
L 252.66 20.6552 
L 258.24 20.6552 
L 263.82 20.6552 
L 269.4 20.6552 
L 274.98 20.6552 
L 280.56 20.6552 
L 286.14 20.6552 
L 291.72 20.6552 
L 297.3 20.6552 
L 302.88 20.6552 
L 308.46 20.6552 
L 314.04 20.6552 
L 319.62 20.6552 
L 325.2 20.6552 
L 330.78 20.6552 
L 336.36 20.6552 
L 341.94 20.6552 
L 347.52 20.6552 
L 353.1 20.6552 
L 358.68 20.6552 
L 364.26 20.6552 
L 369.84 20.6552 
L 375.42 20.6552 
" clip-path="url(#p44dc2fd5ad)" style="fill: none; stroke: #bcbd22; stroke-opacity: 0.1; stroke-width: 1.5; stroke-linecap: square"/>
   </g>
   <g id="line2d_26">
    <path d="M 46.2 89.3315 
L 51.78 72.162425 
L 57.36 62.62405 
L 62.94 45.454975 
L 68.52 38.587345 
L 74.1 30.956645 
L 79.68 25.23362 
L 85.26 20.6552 
L 90.84 20.6552 
L 96.42 20.6552 
L 102 20.6552 
L 107.58 20.6552 
L 113.16 20.6552 
L 118.74 20.6552 
L 124.32 20.6552 
L 129.9 20.6552 
L 135.48 20.6552 
L 141.06 20.6552 
L 146.64 20.6552 
L 152.22 20.6552 
L 157.8 20.6552 
L 163.38 20.6552 
L 168.96 20.6552 
L 174.54 20.6552 
L 180.12 20.6552 
L 185.7 20.6552 
L 191.28 20.6552 
L 196.86 20.6552 
L 202.44 20.6552 
L 208.02 20.6552 
L 213.6 20.6552 
L 219.18 20.6552 
L 224.76 20.6552 
L 230.34 20.6552 
L 235.92 20.6552 
L 241.5 20.6552 
L 247.08 20.6552 
L 252.66 20.6552 
L 258.24 20.6552 
L 263.82 20.6552 
L 269.4 20.6552 
L 274.98 20.6552 
L 280.56 20.6552 
L 286.14 20.6552 
L 291.72 20.6552 
L 297.3 20.6552 
L 302.88 20.6552 
L 308.46 20.6552 
L 314.04 20.6552 
L 319.62 20.6552 
L 325.2 20.6552 
L 330.78 20.6552 
L 336.36 20.6552 
L 341.94 20.6552 
L 347.52 20.6552 
L 353.1 20.6552 
L 358.68 20.6552 
L 364.26 20.6552 
L 369.84 20.6552 
L 375.42 20.6552 
" clip-path="url(#p44dc2fd5ad)" style="fill: none; stroke: #17becf; stroke-opacity: 0.1; stroke-width: 1.5; stroke-linecap: square"/>
   </g>
   <g id="line2d_27">
    <path d="M 46.2 158.0078 
L 51.78 123.66965 
L 57.36 104.5929 
L 62.94 70.25475 
L 68.52 56.51949 
L 74.1 41.25809 
L 79.68 29.81204 
L 85.26 20.6552 
L 90.84 20.6552 
L 96.42 20.6552 
L 102 20.6552 
L 107.58 20.6552 
L 113.16 20.6552 
L 118.74 20.6552 
L 124.32 20.6552 
L 129.9 20.6552 
L 135.48 20.6552 
L 141.06 20.6552 
L 146.64 20.6552 
L 152.22 20.6552 
L 157.8 20.6552 
L 163.38 20.6552 
L 168.96 20.6552 
L 174.54 20.6552 
L 180.12 20.6552 
L 185.7 20.6552 
L 191.28 20.6552 
L 196.86 20.6552 
L 202.44 20.6552 
L 208.02 20.6552 
L 213.6 20.6552 
L 219.18 20.6552 
L 224.76 20.6552 
L 230.34 20.6552 
L 235.92 20.6552 
L 241.5 20.6552 
L 247.08 20.6552 
L 252.66 20.6552 
L 258.24 20.6552 
L 263.82 20.6552 
L 269.4 20.6552 
L 274.98 20.6552 
L 280.56 20.6552 
L 286.14 20.6552 
L 291.72 20.6552 
L 297.3 20.6552 
L 302.88 20.6552 
L 308.46 20.6552 
L 314.04 20.6552 
L 319.62 20.6552 
L 325.2 20.6552 
L 330.78 20.6552 
L 336.36 20.6552 
L 341.94 20.6552 
L 347.52 20.6552 
L 353.1 20.6552 
L 358.68 20.6552 
L 364.26 20.6552 
L 369.84 20.6552 
L 375.42 20.6552 
" clip-path="url(#p44dc2fd5ad)" style="fill: none; stroke: #1f77b4; stroke-opacity: 0.1; stroke-width: 1.5; stroke-linecap: square"/>
   </g>
   <g id="line2d_28">
    <path d="M 46.2 186.10895 
L 51.78 161.914587 
L 57.36 140.842575 
L 62.94 105.202162 
L 68.52 81.789157 
L 74.1 60.353127 
L 79.68 40.84229 
L 85.26 25.23362 
L 90.84 20.6552 
L 96.42 20.6552 
L 102 20.6552 
L 107.58 20.6552 
L 113.16 20.6552 
L 118.74 20.6552 
L 124.32 20.6552 
L 129.9 20.6552 
L 135.48 20.6552 
L 141.06 20.6552 
L 146.64 20.6552 
L 152.22 20.6552 
L 157.8 20.6552 
L 163.38 20.6552 
L 168.96 20.6552 
L 174.54 20.6552 
L 180.12 20.6552 
L 185.7 20.6552 
L 191.28 20.6552 
L 196.86 20.6552 
L 202.44 20.6552 
L 208.02 20.6552 
L 213.6 20.6552 
L 219.18 20.6552 
L 224.76 20.6552 
L 230.34 20.6552 
L 235.92 20.6552 
L 241.5 20.6552 
L 247.08 20.6552 
L 252.66 20.6552 
L 258.24 20.6552 
L 263.82 20.6552 
L 269.4 20.6552 
L 274.98 20.6552 
L 280.56 20.6552 
L 286.14 20.6552 
L 291.72 20.6552 
L 297.3 20.6552 
L 302.88 20.6552 
L 308.46 20.6552 
L 314.04 20.6552 
L 319.62 20.6552 
L 325.2 20.6552 
L 330.78 20.6552 
L 336.36 20.6552 
L 341.94 20.6552 
L 347.52 20.6552 
L 353.1 20.6552 
L 358.68 20.6552 
L 364.26 20.6552 
L 369.84 20.6552 
L 375.42 20.6552 
" clip-path="url(#p44dc2fd5ad)" style="fill: none; stroke: #ff7f0e; stroke-opacity: 0.1; stroke-width: 1.5; stroke-linecap: square"/>
   </g>
   <g id="line2d_29">
    <path d="M 46.2 89.3315 
L 51.78 72.162425 
L 57.36 62.62405 
L 62.94 45.454975 
L 68.52 38.587345 
L 74.1 30.956645 
L 79.68 25.23362 
L 85.26 20.6552 
L 90.84 20.6552 
L 96.42 20.6552 
L 102 20.6552 
L 107.58 20.6552 
L 113.16 20.6552 
L 118.74 20.6552 
L 124.32 20.6552 
L 129.9 20.6552 
L 135.48 20.6552 
L 141.06 20.6552 
L 146.64 20.6552 
L 152.22 20.6552 
L 157.8 20.6552 
L 163.38 20.6552 
L 168.96 20.6552 
L 174.54 20.6552 
L 180.12 20.6552 
L 185.7 20.6552 
L 191.28 20.6552 
L 196.86 20.6552 
L 202.44 20.6552 
L 208.02 20.6552 
L 213.6 20.6552 
L 219.18 20.6552 
L 224.76 20.6552 
L 230.34 20.6552 
L 235.92 20.6552 
L 241.5 20.6552 
L 247.08 20.6552 
L 252.66 20.6552 
L 258.24 20.6552 
L 263.82 20.6552 
L 269.4 20.6552 
L 274.98 20.6552 
L 280.56 20.6552 
L 286.14 20.6552 
L 291.72 20.6552 
L 297.3 20.6552 
L 302.88 20.6552 
L 308.46 20.6552 
L 314.04 20.6552 
L 319.62 20.6552 
L 325.2 20.6552 
L 330.78 20.6552 
L 336.36 20.6552 
L 341.94 20.6552 
L 347.52 20.6552 
L 353.1 20.6552 
L 358.68 20.6552 
L 364.26 20.6552 
L 369.84 20.6552 
L 375.42 20.6552 
" clip-path="url(#p44dc2fd5ad)" style="fill: none; stroke: #2ca02c; stroke-opacity: 0.1; stroke-width: 1.5; stroke-linecap: square"/>
   </g>
   <g id="line2d_30">
    <path d="M 46.2 20.6552 
L 51.78 20.6552 
L 57.36 20.6552 
L 62.94 20.6552 
L 68.52 20.6552 
L 74.1 20.6552 
L 79.68 20.6552 
L 85.26 20.6552 
L 90.84 20.6552 
L 96.42 20.6552 
L 102 20.6552 
L 107.58 20.6552 
L 113.16 20.6552 
L 118.74 20.6552 
L 124.32 20.6552 
L 129.9 20.6552 
L 135.48 20.6552 
L 141.06 20.6552 
L 146.64 20.6552 
L 152.22 20.6552 
L 157.8 20.6552 
L 163.38 20.6552 
L 168.96 20.6552 
L 174.54 20.6552 
L 180.12 20.6552 
L 185.7 20.6552 
L 191.28 20.6552 
L 196.86 20.6552 
L 202.44 20.6552 
L 208.02 20.6552 
L 213.6 20.6552 
L 219.18 20.6552 
L 224.76 20.6552 
L 230.34 20.6552 
L 235.92 20.6552 
L 241.5 20.6552 
L 247.08 20.6552 
L 252.66 20.6552 
L 258.24 20.6552 
L 263.82 20.6552 
L 269.4 20.6552 
L 274.98 20.6552 
L 280.56 20.6552 
L 286.14 20.6552 
L 291.72 20.6552 
L 297.3 20.6552 
L 302.88 20.6552 
L 308.46 20.6552 
L 314.04 20.6552 
L 319.62 20.6552 
L 325.2 20.6552 
L 330.78 20.6552 
L 336.36 20.6552 
L 341.94 20.6552 
L 347.52 20.6552 
L 353.1 20.6552 
L 358.68 20.6552 
L 364.26 20.6552 
L 369.84 20.6552 
L 375.42 20.6552 
" clip-path="url(#p44dc2fd5ad)" style="fill: none; stroke: #ffa500; stroke-opacity: 0.6; stroke-width: 1.5; stroke-linecap: square"/>
   </g>
   <g id="line2d_31">
    <path d="M 46.2 186.10895 
L 51.78 161.914587 
L 57.36 140.842575 
L 62.94 105.202162 
L 68.52 92.38378 
L 74.1 75.59624 
L 79.68 61.86098 
L 85.26 43.5473 
L 90.84 29.81204 
L 96.42 20.6552 
L 102 20.6552 
L 107.58 20.6552 
L 113.16 20.6552 
L 118.74 20.6552 
L 124.32 20.6552 
L 129.9 20.6552 
L 135.48 20.6552 
L 141.06 20.6552 
L 146.64 20.6552 
L 152.22 20.6552 
L 157.8 20.6552 
L 163.38 20.6552 
L 168.96 20.6552 
L 174.54 20.6552 
L 180.12 20.6552 
L 185.7 20.6552 
L 191.28 20.6552 
L 196.86 20.6552 
L 202.44 20.6552 
L 208.02 20.6552 
L 213.6 20.6552 
L 219.18 20.6552 
L 224.76 20.6552 
L 230.34 20.6552 
L 235.92 20.6552 
L 241.5 20.6552 
L 247.08 20.6552 
L 252.66 20.6552 
L 258.24 20.6552 
L 263.82 20.6552 
L 269.4 20.6552 
L 274.98 20.6552 
L 280.56 20.6552 
L 286.14 20.6552 
L 291.72 20.6552 
L 297.3 20.6552 
L 302.88 20.6552 
L 308.46 20.6552 
L 314.04 20.6552 
L 319.62 20.6552 
L 325.2 20.6552 
L 330.78 20.6552 
L 336.36 20.6552 
L 341.94 20.6552 
L 347.52 20.6552 
L 353.1 20.6552 
L 358.68 20.6552 
L 364.26 20.6552 
L 369.84 20.6552 
L 375.42 20.6552 
" clip-path="url(#p44dc2fd5ad)" style="fill: none; stroke: #00ffff; stroke-opacity: 0.6; stroke-width: 1.5; stroke-linecap: square"/>
   </g>
   <g id="line2d_32">
    <path d="M 46.2 104.449562 
L 51.78 87.463065 
L 57.36 77.439146 
L 62.94 58.691719 
L 68.52 49.431818 
L 74.1 38.947379 
L 79.68 30.467725 
L 85.26 23.120503 
L 90.84 21.359572 
L 96.42 20.6552 
L 102 20.6552 
L 107.58 20.6552 
L 113.16 20.6552 
L 118.74 20.6552 
L 124.32 20.6552 
L 129.9 20.6552 
L 135.48 20.6552 
L 141.06 20.6552 
L 146.64 20.6552 
L 152.22 20.6552 
L 157.8 20.6552 
L 163.38 20.6552 
L 168.96 20.6552 
L 174.54 20.6552 
L 180.12 20.6552 
L 185.7 20.6552 
L 191.28 20.6552 
L 196.86 20.6552 
L 202.44 20.6552 
L 208.02 20.6552 
L 213.6 20.6552 
L 219.18 20.6552 
L 224.76 20.6552 
L 230.34 20.6552 
L 235.92 20.6552 
L 241.5 20.6552 
L 247.08 20.6552 
L 252.66 20.6552 
L 258.24 20.6552 
L 263.82 20.6552 
L 269.4 20.6552 
L 274.98 20.6552 
L 280.56 20.6552 
L 286.14 20.6552 
L 291.72 20.6552 
L 297.3 20.6552 
L 302.88 20.6552 
L 308.46 20.6552 
L 314.04 20.6552 
L 319.62 20.6552 
L 325.2 20.6552 
L 330.78 20.6552 
L 336.36 20.6552 
L 341.94 20.6552 
L 347.52 20.6552 
L 353.1 20.6552 
L 358.68 20.6552 
L 364.26 20.6552 
L 369.84 20.6552 
L 375.42 20.6552 
" clip-path="url(#p44dc2fd5ad)" style="fill: none; stroke: #ff0000; stroke-width: 2; stroke-linecap: square"/>
   </g>
   <g id="patch_3">
    <path d="M 46.2 289.955 
L 46.2 12.755 
" style="fill: none; stroke: #000000; stroke-width: 0.8; stroke-linejoin: miter; stroke-linecap: square"/>
   </g>
   <g id="patch_4">
    <path d="M 381 289.955 
L 381 12.755 
" style="fill: none; stroke: #000000; stroke-width: 0.8; stroke-linejoin: miter; stroke-linecap: square"/>
   </g>
   <g id="patch_5">
    <path d="M 46.2 289.955 
L 381 289.955 
" style="fill: none; stroke: #000000; stroke-width: 0.8; stroke-linejoin: miter; stroke-linecap: square"/>
   </g>
   <g id="patch_6">
    <path d="M 46.2 12.755 
L 381 12.755 
" style="fill: none; stroke: #000000; stroke-width: 0.8; stroke-linejoin: miter; stroke-linecap: square"/>
   </g>
  </g>
  <g id="axes_2">
   <g id="PolyCollection_2">
    <defs>
     <path id="m930737b312" d="M 46.2 -68.153825 
L 46.2 -50.898125 
L 51.78 -54.68075 
L 57.36 -56.235508 
L 62.94 -61.095748 
L 68.52 -65.652762 
L 74.1 -74.007057 
L 79.68 -83.668709 
L 85.26 -95.718593 
L 90.84 -107.743529 
L 96.42 -120.390317 
L 102 -132.404781 
L 107.58 -145.583177 
L 113.16 -158.778205 
L 118.74 -170.766489 
L 124.32 -179.680933 
L 129.9 -186.042673 
L 135.48 -187.706489 
L 141.06 -187.357833 
L 146.64 -187.011641 
L 152.22 -187.276213 
L 157.8 -187.589757 
L 163.38 -188.515297 
L 168.96 -188.741677 
L 174.54 -188.313095 
L 180.12 -188.501437 
L 185.7 -188.244257 
L 191.28 -187.539245 
L 196.86 -187.247877 
L 202.44 -187.140077 
L 208.02 -187.457933 
L 213.6 -187.740677 
L 219.18 -188.551333 
L 224.76 -188.201137 
L 230.34 -188.278445 
L 235.92 -188.119825 
L 241.5 -188.193129 
L 247.08 -188.319717 
L 252.66 -188.586753 
L 258.24 -188.227009 
L 263.82 -188.448153 
L 269.4 -188.109661 
L 274.98 -188.397333 
L 280.56 -188.136149 
L 286.14 -188.494353 
L 291.72 -188.122597 
L 297.3 -188.080709 
L 302.88 -188.172493 
L 308.46 -188.230705 
L 314.04 -188.195285 
L 319.62 -188.146621 
L 325.2 -188.180501 
L 330.78 -188.010485 
L 336.36 -188.116437 
L 341.94 -187.984921 
L 347.52 -188.104117 
L 353.1 -188.083481 
L 358.68 -188.177729 
L 364.26 -188.143541 
L 369.84 -188.102269 
L 375.42 -188.133993 
L 375.42 -190.474485 
L 375.42 -190.474485 
L 369.84 -190.817289 
L 364.26 -191.179189 
L 358.68 -190.931557 
L 353.1 -190.624481 
L 347.52 -190.841005 
L 341.94 -191.077241 
L 336.36 -190.735977 
L 330.78 -190.453233 
L 325.2 -190.614317 
L 319.62 -190.962973 
L 314.04 -190.764005 
L 308.46 -190.491733 
L 302.88 -190.702405 
L 297.3 -190.975909 
L 291.72 -190.630025 
L 286.14 -190.565961 
L 280.56 -190.729509 
L 274.98 -190.961125 
L 269.4 -190.777557 
L 263.82 -190.431981 
L 258.24 -190.217613 
L 252.66 -190.542553 
L 247.08 -190.865645 
L 241.5 -190.986997 
L 235.92 -190.671913 
L 230.34 -190.971905 
L 224.76 -190.804969 
L 219.18 -190.469865 
L 213.6 -190.184349 
L 208.02 -189.953657 
L 202.44 -190.192049 
L 196.86 -190.483109 
L 191.28 -190.767085 
L 185.7 -190.771397 
L 180.12 -190.858561 
L 174.54 -191.196745 
L 168.96 -191.586057 
L 163.38 -191.338733 
L 157.8 -191.080013 
L 152.22 -190.786489 
L 146.64 -190.515141 
L 141.06 -190.460317 
L 135.48 -190.656513 
L 129.9 -190.977757 
L 124.32 -191.320253 
L 118.74 -191.028269 
L 113.16 -188.793421 
L 107.58 -182.246265 
L 102 -171.395425 
L 96.42 -156.252297 
L 90.84 -139.169385 
L 85.26 -122.804421 
L 79.68 -107.117673 
L 74.1 -97.264599 
L 68.52 -90.380388 
L 62.94 -85.530158 
L 57.36 -78.115058 
L 51.78 -74.390825 
L 46.2 -68.153825 
z
" style="stroke: #ff0000; stroke-opacity: 0.3"/>
    </defs>
    <g clip-path="url(#p44dc2fd5ad)">
     <use xlink:href="#m930737b312" x="0" y="340.853125" style="fill: #ff0000; fill-opacity: 0.3; stroke: #ff0000; stroke-opacity: 0.3"/>
    </g>
   </g>
   <g id="matplotlib.axis_3">
    <g id="ytick_10">
     <g id="line2d_33">
      <defs>
       <path id="m17800f5b9b" d="M 0 0 
L 3.5 0 
" style="stroke: #000000; stroke-width: 0.8"/>
      </defs>
      <g>
       <use xlink:href="#m17800f5b9b" x="381" y="289.955" style="stroke: #000000; stroke-width: 0.8"/>
      </g>
     </g>
     <g id="text_18">
      <!-- 0 -->
      <g transform="translate(388 295.51) scale(0.16 -0.16)">
       <use xlink:href="#TimesNewRomanPSMT-30"/>
      </g>
     </g>
    </g>
    <g id="ytick_11">
     <g id="line2d_34">
      <g>
       <use xlink:href="#m17800f5b9b" x="381" y="243.755" style="stroke: #000000; stroke-width: 0.8"/>
      </g>
     </g>
     <g id="text_19">
      <!-- 10 -->
      <g transform="translate(388 249.31) scale(0.16 -0.16)">
       <use xlink:href="#TimesNewRomanPSMT-31"/>
       <use xlink:href="#TimesNewRomanPSMT-30" x="50"/>
      </g>
     </g>
    </g>
    <g id="ytick_12">
     <g id="line2d_35">
      <g>
       <use xlink:href="#m17800f5b9b" x="381" y="197.555" style="stroke: #000000; stroke-width: 0.8"/>
      </g>
     </g>
     <g id="text_20">
      <!-- 20 -->
      <g transform="translate(388 203.11) scale(0.16 -0.16)">
       <use xlink:href="#TimesNewRomanPSMT-32"/>
       <use xlink:href="#TimesNewRomanPSMT-30" x="50"/>
      </g>
     </g>
    </g>
    <g id="ytick_13">
     <g id="line2d_36">
      <g>
       <use xlink:href="#m17800f5b9b" x="381" y="151.355" style="stroke: #000000; stroke-width: 0.8"/>
      </g>
     </g>
     <g id="text_21">
      <!-- 30 -->
      <g transform="translate(388 156.91) scale(0.16 -0.16)">
       <use xlink:href="#TimesNewRomanPSMT-33"/>
       <use xlink:href="#TimesNewRomanPSMT-30" x="50"/>
      </g>
     </g>
    </g>
    <g id="ytick_14">
     <g id="line2d_37">
      <g>
       <use xlink:href="#m17800f5b9b" x="381" y="105.155" style="stroke: #000000; stroke-width: 0.8"/>
      </g>
     </g>
     <g id="text_22">
      <!-- 40 -->
      <g transform="translate(388 110.71) scale(0.16 -0.16)">
       <use xlink:href="#TimesNewRomanPSMT-34"/>
       <use xlink:href="#TimesNewRomanPSMT-30" x="50"/>
      </g>
     </g>
    </g>
    <g id="ytick_15">
     <g id="line2d_38">
      <g>
       <use xlink:href="#m17800f5b9b" x="381" y="58.955" style="stroke: #000000; stroke-width: 0.8"/>
      </g>
     </g>
     <g id="text_23">
      <!-- 50 -->
      <g transform="translate(388 64.51) scale(0.16 -0.16)">
       <use xlink:href="#TimesNewRomanPSMT-35"/>
       <use xlink:href="#TimesNewRomanPSMT-30" x="50"/>
      </g>
     </g>
    </g>
    <g id="ytick_16">
     <g id="line2d_39">
      <g>
       <use xlink:href="#m17800f5b9b" x="381" y="12.755" style="stroke: #000000; stroke-width: 0.8"/>
      </g>
     </g>
     <g id="text_24">
      <!-- 60 -->
      <g transform="translate(388 18.31) scale(0.16 -0.16)">
       <use xlink:href="#TimesNewRomanPSMT-36"/>
       <use xlink:href="#TimesNewRomanPSMT-30" x="50"/>
      </g>
     </g>
    </g>
   </g>
   <g id="line2d_40">
    <path d="M 46.2 282.01784 
L 51.78 280.734635 
L 57.36 278.51665 
L 62.94 273.076215 
L 68.52 265.896581 
L 74.1 256.476709 
L 79.68 244.63742 
L 85.26 230.784196 
L 90.84 216.956536 
L 96.42 203.669416 
L 102 190.3786 
L 107.58 177.71364 
L 113.16 166.89514 
L 118.74 159.10582 
L 124.32 154.411284 
L 129.9 152.267296 
L 135.48 151.953444 
L 141.06 151.62912 
L 146.64 151.286624 
L 152.22 150.413444 
L 157.8 150.143636 
L 163.38 149.884916 
L 168.96 150.232032 
L 174.54 150.59424 
L 180.12 151.548116 
L 185.7 152.419756 
L 191.28 153.31388 
L 196.86 153.605248 
L 202.44 153.362852 
L 208.02 152.402508 
L 213.6 151.444012 
L 219.18 150.476584 
L 224.76 150.203388 
L 230.34 149.88122 
L 235.92 150.181212 
L 241.5 149.866128 
L 247.08 150.191068 
L 252.66 150.436544 
L 258.24 151.26106 
L 263.82 151.49668 
L 269.4 151.81392 
L 274.98 152.169044 
L 280.56 152.522628 
L 286.14 152.261752 
L 291.72 151.995948 
L 297.3 151.730144 
L 302.88 151.38272 
L 308.46 150.428536 
L 314.04 150.08912 
L 319.62 150.460876 
L 325.2 151.361468 
L 330.78 151.645752 
L 336.36 151.9094 
L 341.94 152.25436 
L 347.52 152.504764 
L 353.1 152.145328 
L 358.68 151.7862 
L 364.26 152.136088 
L 369.84 152.485668 
L 375.42 152.226948 
" clip-path="url(#p44dc2fd5ad)" style="fill: none; stroke: #1f77b4; stroke-opacity: 0.1; stroke-width: 1.5; stroke-linecap: square"/>
   </g>
   <g id="line2d_41">
    <path d="M 46.2 289.955 
L 51.78 286.172375 
L 57.36 284.617617 
L 62.94 279.757377 
L 68.52 275.200363 
L 74.1 266.846068 
L 79.68 257.184416 
L 85.26 245.134532 
L 90.84 233.109596 
L 96.42 220.462808 
L 102 208.448344 
L 107.58 195.269948 
L 113.16 182.07492 
L 118.74 170.086636 
L 124.32 161.172192 
L 129.9 154.705424 
L 135.48 151.316808 
L 141.06 150.392808 
L 146.64 150.721444 
L 152.22 151.06548 
L 157.8 151.420912 
L 163.38 151.74924 
L 168.96 151.39196 
L 174.54 151.036528 
L 180.12 150.7005 
L 185.7 150.421452 
L 191.28 150.08604 
L 196.86 150.370016 
L 202.44 150.661076 
L 208.02 150.929036 
L 213.6 151.12862 
L 219.18 151.94482 
L 224.76 152.224792 
L 230.34 152.57468 
L 235.92 152.309492 
L 241.5 152.659996 
L 247.08 152.3945 
L 252.66 152.130544 
L 258.24 151.190528 
L 263.82 150.864972 
L 269.4 150.537876 
L 274.98 150.887148 
L 280.56 151.21024 
L 286.14 152.130236 
L 291.72 152.436388 
L 297.3 152.772416 
L 302.88 152.510616 
L 308.46 152.23742 
L 314.04 151.34422 
L 319.62 151.068868 
L 325.2 150.802756 
L 330.78 150.519088 
L 336.36 150.192916 
L 341.94 150.482436 
L 347.52 150.790744 
L 353.1 151.057472 
L 358.68 151.263832 
L 364.26 152.085884 
L 369.84 152.375712 
L 375.42 152.719132 
" clip-path="url(#p44dc2fd5ad)" style="fill: none; stroke: #ff7f0e; stroke-opacity: 0.1; stroke-width: 1.5; stroke-linecap: square"/>
   </g>
   <g id="line2d_42">
    <path d="M 46.2 275.1017 
L 51.78 273.91898 
L 57.36 270.729127 
L 62.94 265.317952 
L 68.52 259.3061 
L 74.1 252.688617 
L 79.68 243.908692 
L 85.26 233.107132 
L 90.84 222.31512 
L 96.42 210.903412 
L 102 198.916052 
L 107.58 186.307148 
L 113.16 175.50682 
L 118.74 165.922784 
L 124.32 159.421828 
L 129.9 154.810452 
L 135.48 152.666772 
L 141.06 151.15634 
L 146.64 150.880372 
L 152.22 150.616416 
L 157.8 150.891768 
L 163.38 151.115992 
L 168.96 151.36578 
L 174.54 151.082112 
L 180.12 150.762716 
L 185.7 150.427304 
L 191.28 150.708508 
L 196.86 151.046076 
L 202.44 151.906628 
L 208.02 152.175512 
L 213.6 152.458564 
L 219.18 152.204464 
L 224.76 152.457024 
L 230.34 152.15888 
L 235.92 152.452404 
L 241.5 152.210624 
L 247.08 152.533408 
L 252.66 152.266372 
L 258.24 152.56236 
L 263.82 152.242656 
L 269.4 151.926032 
L 274.98 150.966612 
L 280.56 150.62812 
L 286.14 150.287164 
L 291.72 150.643828 
L 297.3 150.972772 
L 302.88 151.919872 
L 308.46 152.254052 
L 314.04 152.619032 
L 319.62 152.335056 
L 325.2 152.607328 
L 330.78 152.258056 
L 336.36 152.553736 
L 341.94 152.28516 
L 347.52 152.585768 
L 353.1 152.270992 
L 358.68 151.968536 
L 364.26 151.095356 
L 369.84 150.759636 
L 375.42 150.414984 
" clip-path="url(#p44dc2fd5ad)" style="fill: none; stroke: #2ca02c; stroke-opacity: 0.1; stroke-width: 1.5; stroke-linecap: square"/>
   </g>
   <g id="line2d_43">
    <path d="M 46.2 275.06474 
L 51.78 276.195485 
L 57.36 274.29089 
L 62.94 269.69938 
L 68.52 262.800026 
L 74.1 254.194506 
L 79.68 242.82022 
L 85.26 227.712512 
L 90.84 212.570924 
L 96.42 197.439192 
L 102 183.578268 
L 107.58 170.896984 
L 113.16 162.497516 
L 118.74 156.59716 
L 124.32 153.825468 
L 129.9 152.302716 
L 135.48 152.619032 
L 141.06 152.356 
L 146.64 152.666772 
L 152.22 152.36524 
L 157.8 151.98024 
L 163.38 151.023284 
L 168.96 150.676476 
L 174.54 150.413752 
L 180.12 150.679556 
L 185.7 150.949672 
L 191.28 151.829936 
L 196.86 152.183212 
L 202.44 152.455792 
L 208.02 152.114836 
L 213.6 152.383104 
L 219.18 152.117916 
L 224.76 152.46842 
L 230.34 152.210624 
L 235.92 152.570676 
L 241.5 152.3175 
L 247.08 152.061552 
L 252.66 151.143404 
L 258.24 150.83294 
L 263.82 150.515392 
L 269.4 150.242196 
L 274.98 149.892 
L 280.56 150.123616 
L 286.14 150.350304 
L 291.72 150.662308 
L 297.3 150.979856 
L 302.88 151.918024 
L 308.46 152.242348 
L 314.04 152.607636 
L 319.62 152.279308 
L 325.2 152.520164 
L 330.78 152.134548 
L 336.36 152.439468 
L 341.94 152.088656 
L 347.52 152.355384 
L 353.1 152.005804 
L 358.68 152.361236 
L 364.26 152.100052 
L 369.84 151.905396 
L 375.42 151.090736 
" clip-path="url(#p44dc2fd5ad)" style="fill: none; stroke: #d62728; stroke-opacity: 0.1; stroke-width: 1.5; stroke-linecap: square"/>
   </g>
   <g id="line2d_44">
    <path d="M 46.2 275.25416 
L 51.78 274.035635 
L 57.36 272.879737 
L 62.94 268.967752 
L 68.52 264.180354 
L 74.1 255.526683 
L 79.68 244.000476 
L 85.26 228.281388 
L 90.84 211.36726 
L 96.42 193.80356 
L 102 178.11404 
L 107.58 165.43522 
L 113.16 157.064704 
L 118.74 152.354768 
L 124.32 150.766412 
L 129.9 151.032216 
L 135.48 151.928188 
L 141.06 152.20816 
L 146.64 152.51924 
L 152.22 152.251588 
L 157.8 151.982396 
L 163.38 151.096896 
L 168.96 150.824624 
L 174.54 150.55882 
L 180.12 150.830784 
L 185.7 151.051928 
L 191.28 151.882296 
L 196.86 152.17736 
L 202.44 152.44224 
L 208.02 152.090504 
L 213.6 152.349532 
L 219.18 152.082188 
L 224.76 152.35446 
L 230.34 152.036296 
L 235.92 152.329512 
L 241.5 152.088348 
L 247.08 152.4407 
L 252.66 152.23588 
L 258.24 152.626116 
L 263.82 152.404972 
L 269.4 152.743464 
L 274.98 152.455792 
L 280.56 152.716976 
L 286.14 152.357848 
L 291.72 152.642748 
L 297.3 152.3637 
L 302.88 152.650448 
L 308.46 152.327664 
L 314.04 152.015044 
L 319.62 151.128004 
L 325.2 150.781196 
L 330.78 150.439316 
L 336.36 150.117148 
L 341.94 149.791284 
L 347.52 150.01212 
L 353.1 150.228644 
L 358.68 149.921568 
L 364.26 149.673936 
L 369.84 150.035836 
L 375.42 150.37864 
" clip-path="url(#p44dc2fd5ad)" style="fill: none; stroke: #9467bd; stroke-opacity: 0.1; stroke-width: 1.5; stroke-linecap: square"/>
   </g>
   <g id="line2d_45">
    <path d="M 46.2 272.6993 
L 51.78 266.4623 
L 57.36 262.738067 
L 62.94 255.322967 
L 68.52 250.472737 
L 74.1 243.588526 
L 79.68 234.858882 
L 85.26 224.135708 
L 90.84 213.228196 
L 96.42 201.642622 
L 102 189.197266 
L 107.58 177.735046 
L 113.16 167.649432 
L 118.74 159.880748 
L 124.32 153.996408 
L 129.9 151.115068 
L 135.48 150.196612 
L 141.06 150.594548 
L 146.64 151.059628 
L 152.22 151.604634 
L 157.8 151.534256 
L 163.38 151.308646 
L 168.96 150.879294 
L 174.54 150.988018 
L 180.12 151.053468 
L 185.7 151.732146 
L 191.28 152.037836 
L 196.86 152.467188 
L 202.44 152.277152 
L 208.02 152.542648 
L 213.6 152.280232 
L 219.18 152.017816 
L 224.76 151.135088 
L 230.34 150.866512 
L 235.92 150.600092 
L 241.5 150.33244 
L 247.08 149.98748 
L 252.66 150.310572 
L 258.24 150.635512 
L 263.82 150.421144 
L 269.4 150.075568 
L 274.98 150.346608 
L 280.56 150.572988 
L 286.14 150.880064 
L 291.72 151.103672 
L 297.3 151.989172 
L 302.88 152.266372 
L 308.46 152.62242 
L 314.04 152.361236 
L 319.62 152.706504 
L 325.2 152.4715 
L 330.78 152.84264 
L 336.36 152.602708 
L 341.94 152.868204 
L 347.52 152.529096 
L 353.1 152.769644 
L 358.68 152.474888 
L 364.26 152.709584 
L 369.84 152.359388 
L 375.42 152.627964 
" clip-path="url(#p44dc2fd5ad)" style="fill: none; stroke: #8c564b; stroke-opacity: 0.1; stroke-width: 1.5; stroke-linecap: square"/>
   </g>
   <g id="line2d_46">
    <path d="M 46.2 277.42556 
L 51.78 276.295392 
L 57.36 273.331598 
L 62.94 266.809506 
L 68.52 259.413425 
L 74.1 251.219649 
L 79.68 241.102504 
L 85.26 227.39404 
L 90.84 212.416462 
L 96.42 196.709386 
L 102 181.124432 
L 107.58 167.406574 
L 113.16 157.961908 
L 118.74 153.162806 
L 124.32 151.45356 
L 129.9 151.587078 
L 135.48 151.878138 
L 141.06 152.02644 
L 146.64 151.76464 
L 152.22 152.058164 
L 157.8 151.90709 
L 163.38 152.206158 
L 168.96 152.111448 
L 174.54 152.54003 
L 180.12 152.351688 
L 185.7 152.608868 
L 191.28 152.332592 
L 196.86 152.031368 
L 202.44 151.158496 
L 208.02 150.899468 
L 213.6 150.668776 
L 219.18 150.38326 
L 224.76 150.048156 
L 230.34 150.289936 
L 235.92 150.552968 
L 241.5 150.8699 
L 247.08 151.162808 
L 252.66 152.112988 
L 258.24 152.450864 
L 263.82 152.235572 
L 269.4 151.275228 
L 274.98 150.925032 
L 280.56 150.528944 
L 286.14 150.832324 
L 291.72 151.055008 
L 297.3 151.377176 
L 302.88 151.084268 
L 308.46 150.8699 
L 314.04 150.536336 
L 319.62 150.823392 
L 325.2 151.066096 
L 330.78 152.002724 
L 336.36 152.251896 
L 341.94 151.950364 
L 347.52 151.02544 
L 353.1 150.788588 
L 358.68 150.4695 
L 364.26 150.766104 
L 369.84 151.068252 
L 375.42 152.055392 
" clip-path="url(#p44dc2fd5ad)" style="fill: none; stroke: #e377c2; stroke-opacity: 0.1; stroke-width: 1.5; stroke-linecap: square"/>
   </g>
   <g id="line2d_47">
    <path d="M 46.2 274.82912 
L 51.78 271.446125 
L 57.36 268.057997 
L 62.94 262.025432 
L 68.52 255.804602 
L 74.1 246.623019 
L 79.68 233.735452 
L 85.26 218.048704 
L 90.84 201.68374 
L 96.42 185.887344 
L 102 171.959892 
L 107.58 161.709652 
L 113.16 155.143092 
L 118.74 151.65992 
L 124.32 150.121152 
L 129.9 149.875368 
L 135.48 150.241888 
L 141.06 150.592392 
L 146.64 150.349072 
L 152.22 150.088812 
L 157.8 149.806068 
L 163.38 149.541496 
L 168.96 149.29448 
L 174.54 149.661616 
L 180.12 150.524324 
L 185.7 151.32882 
L 191.28 152.119764 
L 196.86 152.372016 
L 202.44 152.598396 
L 208.02 152.244812 
L 213.6 152.510308 
L 219.18 152.242348 
L 224.76 151.98178 
L 230.34 151.106136 
L 235.92 150.846184 
L 241.5 150.58038 
L 247.08 150.926572 
L 252.66 151.189912 
L 258.24 152.070792 
L 263.82 152.34984 
L 269.4 152.717284 
L 274.98 152.392652 
L 280.56 152.6717 
L 286.14 152.358772 
L 291.72 152.730528 
L 297.3 152.41298 
L 302.88 152.680632 
L 308.46 152.338752 
L 314.04 152.65784 
L 319.62 152.363392 
L 325.2 152.672624 
L 330.78 152.3945 
L 336.36 152.736688 
L 341.94 152.47458 
L 347.52 152.749008 
L 353.1 152.404664 
L 358.68 152.675396 
L 364.26 152.40836 
L 369.84 152.750856 
L 375.42 152.476736 
" clip-path="url(#p44dc2fd5ad)" style="fill: none; stroke: #7f7f7f; stroke-opacity: 0.1; stroke-width: 1.5; stroke-linecap: square"/>
   </g>
   <g id="line2d_48">
    <path d="M 46.2 275.39276 
L 51.78 274.273565 
L 57.36 272.10717 
L 62.94 267.51797 
L 68.52 260.886884 
L 74.1 251.41342 
L 79.68 238.129688 
L 85.26 221.131784 
L 90.84 202.253232 
L 96.42 184.600828 
L 102 169.4577 
L 107.58 158.60686 
L 113.16 152.059704 
L 118.74 149.824856 
L 124.32 149.532872 
L 129.9 149.891692 
L 135.48 150.25236 
L 141.06 150.601324 
L 146.64 150.337984 
L 152.22 150.066636 
L 157.8 149.773112 
L 163.38 149.514392 
L 168.96 149.267068 
L 174.54 149.65638 
L 180.12 149.994564 
L 185.7 150.273612 
L 191.28 150.516008 
L 196.86 150.77134 
L 202.44 151.002032 
L 208.02 151.202232 
L 213.6 152.019664 
L 219.18 152.301792 
L 224.76 152.651988 
L 230.34 152.384952 
L 235.92 152.7333 
L 241.5 152.463492 
L 247.08 152.19738 
L 252.66 151.23488 
L 258.24 150.893616 
L 263.82 150.547732 
L 269.4 150.286548 
L 274.98 149.941896 
L 280.56 150.217248 
L 286.14 150.486132 
L 291.72 150.2231 
L 297.3 149.877216 
L 302.88 150.15072 
L 308.46 150.42022 
L 314.04 150.155956 
L 319.62 149.890152 
L 325.2 150.238808 
L 330.78 150.585924 
L 336.36 150.317964 
L 341.94 150.05216 
L 347.52 150.321352 
L 353.1 150.588696 
L 358.68 150.856656 
L 364.26 151.20562 
L 369.84 152.0942 
L 375.42 152.364316 
" clip-path="url(#p44dc2fd5ad)" style="fill: none; stroke: #bcbd22; stroke-opacity: 0.1; stroke-width: 1.5; stroke-linecap: square"/>
   </g>
   <g id="line2d_49">
    <path d="M 46.2 275.9564 
L 51.78 274.881095 
L 57.36 272.77245 
L 62.94 268.2718 
L 68.52 261.73527 
L 74.1 252.34281 
L 79.68 239.143932 
L 85.26 222.843032 
L 90.84 205.867612 
L 96.42 190.081688 
L 102 176.16132 
L 107.58 165.299084 
L 113.16 158.116216 
L 118.74 154.012424 
L 124.32 152.449324 
L 129.9 152.182596 
L 135.48 153.146636 
L 141.06 153.495292 
L 146.64 153.841484 
L 152.22 153.576912 
L 157.8 153.263368 
L 163.38 152.337828 
L 168.96 152.027056 
L 174.54 151.767412 
L 180.12 152.03568 
L 185.7 152.27284 
L 191.28 153.124768 
L 196.86 153.444164 
L 202.44 153.713048 
L 208.02 153.395192 
L 213.6 153.112448 
L 219.18 152.295016 
L 224.76 152.065556 
L 230.34 151.828396 
L 235.92 151.59832 
L 241.5 151.334672 
L 247.08 151.656224 
L 252.66 151.886608 
L 258.24 151.556124 
L 263.82 151.192684 
L 269.4 151.526864 
L 274.98 151.789896 
L 280.56 151.510232 
L 286.14 151.183444 
L 291.72 150.911788 
L 297.3 150.522784 
L 302.88 150.152568 
L 308.46 150.361392 
L 314.04 150.669392 
L 319.62 151.004496 
L 325.2 151.370708 
L 330.78 151.720288 
L 336.36 151.452328 
L 341.94 151.169584 
L 347.52 151.4166 
L 353.1 151.66608 
L 358.68 151.928804 
L 364.26 152.276228 
L 369.84 152.546036 
L 375.42 152.206928 
" clip-path="url(#p44dc2fd5ad)" style="fill: none; stroke: #17becf; stroke-opacity: 0.1; stroke-width: 1.5; stroke-linecap: square"/>
   </g>
   <g id="line2d_50">
    <path d="M 46.2 282.62306 
L 51.78 279.600425 
L 57.36 276.655047 
L 62.94 270.348939 
L 68.52 263.887253 
L 74.1 253.629672 
L 79.68 239.887444 
L 85.26 222.273078 
L 90.84 204.560768 
L 96.42 187.291516 
L 102 173.299846 
L 107.58 162.945348 
L 113.16 157.051768 
L 118.74 153.596932 
L 124.32 152.662768 
L 129.9 152.369552 
L 135.48 152.6948 
L 141.06 152.402508 
L 146.64 152.728988 
L 152.22 152.470884 
L 157.8 152.17274 
L 163.38 151.2549 
L 168.96 150.953368 
L 174.54 150.69126 
L 180.12 150.40944 
L 185.7 150.081728 
L 191.28 150.368476 
L 196.86 150.67278 
L 202.44 150.936428 
L 208.02 151.132624 
L 213.6 151.948516 
L 219.18 152.234032 
L 224.76 152.50538 
L 230.34 152.16196 
L 235.92 152.440392 
L 241.5 152.189372 
L 247.08 152.473656 
L 252.66 152.141016 
L 258.24 152.421912 
L 263.82 152.167196 
L 269.4 152.521704 
L 274.98 152.258364 
L 280.56 152.611024 
L 286.14 152.349224 
L 291.72 152.702808 
L 297.3 152.356616 
L 302.88 152.626732 
L 308.46 152.280848 
L 314.04 152.02952 
L 319.62 151.078108 
L 325.2 150.744852 
L 330.78 150.399892 
L 336.36 150.136244 
L 341.94 149.775884 
L 347.52 150.034296 
L 353.1 150.294556 
L 358.68 150.6466 
L 364.26 150.995872 
L 369.84 151.960528 
L 375.42 152.311032 
" clip-path="url(#p44dc2fd5ad)" style="fill: none; stroke: #1f77b4; stroke-opacity: 0.1; stroke-width: 1.5; stroke-linecap: square"/>
   </g>
   <g id="line2d_51">
    <path d="M 46.2 272.6993 
L 51.78 266.4623 
L 57.36 262.738067 
L 62.94 255.322967 
L 68.52 250.472737 
L 74.1 243.588526 
L 79.68 233.735452 
L 85.26 218.048704 
L 90.84 201.68374 
L 96.42 184.600828 
L 102 169.4577 
L 107.58 158.60686 
L 113.16 152.059704 
L 118.74 149.824856 
L 124.32 149.532872 
L 129.9 149.875368 
L 135.48 150.196612 
L 141.06 150.392808 
L 146.64 150.337984 
L 152.22 150.066636 
L 157.8 149.773112 
L 163.38 149.514392 
L 168.96 149.267068 
L 174.54 149.65638 
L 180.12 149.994564 
L 185.7 150.081728 
L 191.28 150.08604 
L 196.86 150.370016 
L 202.44 150.661076 
L 208.02 150.899468 
L 213.6 150.668776 
L 219.18 150.38326 
L 224.76 150.048156 
L 230.34 149.88122 
L 235.92 150.181212 
L 241.5 149.866128 
L 247.08 149.98748 
L 252.66 150.310572 
L 258.24 150.635512 
L 263.82 150.421144 
L 269.4 150.075568 
L 274.98 149.892 
L 280.56 150.123616 
L 286.14 150.287164 
L 291.72 150.2231 
L 297.3 149.877216 
L 302.88 150.15072 
L 308.46 150.361392 
L 314.04 150.08912 
L 319.62 149.890152 
L 325.2 150.238808 
L 330.78 150.399892 
L 336.36 150.117148 
L 341.94 149.775884 
L 347.52 150.01212 
L 353.1 150.228644 
L 358.68 149.921568 
L 364.26 149.673936 
L 369.84 150.035836 
L 375.42 150.37864 
" clip-path="url(#p44dc2fd5ad)" style="fill: none; stroke: #ffa500; stroke-opacity: 0.6; stroke-width: 1.5; stroke-linecap: square"/>
   </g>
   <g id="line2d_52">
    <path d="M 46.2 289.955 
L 51.78 286.172375 
L 57.36 284.617617 
L 62.94 279.757377 
L 68.52 275.200363 
L 74.1 266.846068 
L 79.68 257.184416 
L 85.26 245.134532 
L 90.84 233.109596 
L 96.42 220.462808 
L 102 208.448344 
L 107.58 195.269948 
L 113.16 182.07492 
L 118.74 170.086636 
L 124.32 161.172192 
L 129.9 154.810452 
L 135.48 153.146636 
L 141.06 153.495292 
L 146.64 153.841484 
L 152.22 153.576912 
L 157.8 153.263368 
L 163.38 152.337828 
L 168.96 152.111448 
L 174.54 152.54003 
L 180.12 152.351688 
L 185.7 152.608868 
L 191.28 153.31388 
L 196.86 153.605248 
L 202.44 153.713048 
L 208.02 153.395192 
L 213.6 153.112448 
L 219.18 152.301792 
L 224.76 152.651988 
L 230.34 152.57468 
L 235.92 152.7333 
L 241.5 152.659996 
L 247.08 152.533408 
L 252.66 152.266372 
L 258.24 152.626116 
L 263.82 152.404972 
L 269.4 152.743464 
L 274.98 152.455792 
L 280.56 152.716976 
L 286.14 152.358772 
L 291.72 152.730528 
L 297.3 152.772416 
L 302.88 152.680632 
L 308.46 152.62242 
L 314.04 152.65784 
L 319.62 152.706504 
L 325.2 152.672624 
L 330.78 152.84264 
L 336.36 152.736688 
L 341.94 152.868204 
L 347.52 152.749008 
L 353.1 152.769644 
L 358.68 152.675396 
L 364.26 152.709584 
L 369.84 152.750856 
L 375.42 152.719132 
" clip-path="url(#p44dc2fd5ad)" style="fill: none; stroke: #00ffff; stroke-opacity: 0.6; stroke-width: 1.5; stroke-linecap: square"/>
   </g>
   <g id="line2d_53">
    <path d="M 46.2 277.84724 
L 51.78 275.819637 
L 57.36 273.336032 
L 62.94 267.919572 
L 68.52 261.780327 
L 74.1 253.14088 
L 79.68 241.764466 
L 85.26 227.349646 
L 90.84 212.393586 
L 96.42 197.499252 
L 102 183.69416 
L 107.58 171.756864 
L 113.16 162.91102 
L 118.74 156.927714 
L 124.32 153.619388 
L 129.9 152.012678 
L 135.48 151.717698 
L 141.06 151.586812 
L 146.64 151.650568 
L 152.22 151.50711 
L 157.8 151.352326 
L 163.38 151.003068 
L 168.96 150.820326 
L 174.54 150.817288 
L 180.12 150.990076 
L 185.7 151.233466 
L 191.28 151.665464 
L 196.86 151.921888 
L 202.44 152.04674 
L 208.02 151.920852 
L 213.6 152.027616 
L 219.18 151.845476 
L 224.76 151.826912 
L 230.34 151.590872 
L 235.92 151.692232 
L 241.5 151.537532 
L 247.08 151.638668 
L 252.66 151.55352 
L 258.24 151.681984 
L 263.82 151.49444 
L 269.4 151.424244 
L 274.98 151.275004 
L 280.56 151.392156 
L 286.14 151.407024 
L 291.72 151.555284 
L 297.3 151.577712 
L 302.88 151.758452 
L 308.46 151.671232 
L 314.04 151.553212 
L 319.62 151.376196 
L 325.2 151.5125 
L 330.78 151.540248 
L 336.36 151.519136 
L 341.94 151.381152 
L 347.52 151.484052 
L 353.1 151.474588 
L 358.68 151.486656 
L 364.26 151.586644 
L 369.84 151.849228 
L 375.42 151.897528 
" clip-path="url(#p44dc2fd5ad)" style="fill: none; stroke: #0000ff; stroke-width: 2; stroke-linecap: square"/>
   </g>
   <g id="line2d_54">
    <path d="M 96.42 289.955 
L 96.42 12.755 
" clip-path="url(#p44dc2fd5ad)" style="fill: none; stroke-dasharray: 5.55,2.4; stroke-dashoffset: 0; stroke: #ff0000; stroke-width: 1.5"/>
   </g>
   <g id="line2d_55">
    <path d="M 124.32 289.955 
L 124.32 12.755 
" clip-path="url(#p44dc2fd5ad)" style="fill: none; stroke-dasharray: 5.55,2.4; stroke-dashoffset: 0; stroke: #0000ff; stroke-width: 1.5"/>
   </g>
   <g id="patch_7">
    <path d="M 46.2 289.955 
L 46.2 12.755 
" style="fill: none; stroke: #000000; stroke-width: 0.8; stroke-linejoin: miter; stroke-linecap: square"/>
   </g>
   <g id="patch_8">
    <path d="M 381 289.955 
L 381 12.755 
" style="fill: none; stroke: #000000; stroke-width: 0.8; stroke-linejoin: miter; stroke-linecap: square"/>
   </g>
   <g id="patch_9">
    <path d="M 46.2 289.955 
L 381 289.955 
" style="fill: none; stroke: #000000; stroke-width: 0.8; stroke-linejoin: miter; stroke-linecap: square"/>
   </g>
   <g id="patch_10">
    <path d="M 46.2 12.755 
L 381 12.755 
" style="fill: none; stroke: #000000; stroke-width: 0.8; stroke-linejoin: miter; stroke-linecap: square"/>
   </g>
  </g>
 </g>
 <defs>
  <clipPath id="p44dc2fd5ad">
   <rect x="46.2" y="12.755" width="334.8" height="277.2"/>
  </clipPath>
 </defs>
</svg>
