<?xml version="1.0" encoding="utf-8" standalone="no"?>
<!DOCTYPE svg PUBLIC "-//W3C//DTD SVG 1.1//EN"
  "http://www.w3.org/Graphics/SVG/1.1/DTD/svg11.dtd">
<svg xmlns:xlink="http://www.w3.org/1999/xlink" width="433.365625pt" height="340.853125pt" viewBox="0 0 433.365625 340.853125" xmlns="http://www.w3.org/2000/svg" version="1.1">
 <metadata>
  <rdf:RDF xmlns:dc="http://purl.org/dc/elements/1.1/" xmlns:cc="http://creativecommons.org/ns#" xmlns:rdf="http://www.w3.org/1999/02/22-rdf-syntax-ns#">
   <cc:Work>
    <dc:type rdf:resource="http://purl.org/dc/dcmitype/StillImage"/>
    <dc:date>2024-04-13T20:50:52.080092</dc:date>
    <dc:format>image/svg+xml</dc:format>
    <dc:creator>
     <cc:Agent>
      <dc:title>Matplotlib v3.8.3, https://matplotlib.org/</dc:title>
     </cc:Agent>
    </dc:creator>
   </cc:Work>
  </rdf:RDF>
 </metadata>
 <defs>
  <style type="text/css">*{stroke-linejoin: round; stroke-linecap: butt}</style>
 </defs>
 <g id="figure_1">
  <g id="patch_1">
   <path d="M 0 340.853125 
L 433.365625 340.853125 
L 433.365625 0 
L 0 0 
z
" style="fill: #ffffff"/>
  </g>
  <g id="axes_1">
   <g id="patch_2">
    <path d="M 68.365625 289.955 
L 403.165625 289.955 
L 403.165625 12.755 
L 68.365625 12.755 
z
" style="fill: #ffffff"/>
   </g>
   <g id="PolyCollection_1">
    <defs>
     <path id="m6d514e1ae7" d="M 68.365625 -320.197925 
L 68.365625 -154.744175 
L 73.945625 -178.938538 
L 79.525625 -200.01055 
L 85.105625 -235.650963 
L 90.685625 -248.469345 
L 96.265625 -265.256885 
L 101.845625 -278.992145 
L 107.425625 -297.305825 
L 113.005625 -311.041085 
L 118.585625 -320.197925 
L 124.165625 -320.197925 
L 129.745625 -320.197925 
L 135.325625 -320.197925 
L 140.905625 -320.197925 
L 146.485625 -320.197925 
L 152.065625 -320.197925 
L 157.645625 -320.197925 
L 163.225625 -320.197925 
L 168.805625 -320.197925 
L 174.385625 -320.197925 
L 179.965625 -320.197925 
L 185.545625 -320.197925 
L 191.125625 -320.197925 
L 196.705625 -320.197925 
L 202.285625 -320.197925 
L 207.865625 -320.197925 
L 213.445625 -320.197925 
L 219.025625 -320.197925 
L 224.605625 -320.197925 
L 230.185625 -320.197925 
L 235.765625 -320.197925 
L 241.345625 -320.197925 
L 246.925625 -320.197925 
L 252.505625 -320.197925 
L 258.085625 -320.197925 
L 263.665625 -320.197925 
L 269.245625 -320.197925 
L 274.825625 -320.197925 
L 280.405625 -320.197925 
L 285.985625 -320.197925 
L 291.565625 -320.197925 
L 297.145625 -320.197925 
L 302.725625 -320.197925 
L 308.305625 -320.197925 
L 313.885625 -320.197925 
L 319.465625 -320.197925 
L 325.045625 -320.197925 
L 330.625625 -320.197925 
L 336.205625 -320.197925 
L 341.785625 -320.197925 
L 347.365625 -320.197925 
L 352.945625 -320.197925 
L 358.525625 -320.197925 
L 364.105625 -320.197925 
L 369.685625 -320.197925 
L 375.265625 -320.197925 
L 380.845625 -320.197925 
L 386.425625 -320.197925 
L 392.005625 -320.197925 
L 397.585625 -320.197925 
L 397.585625 -320.197925 
L 397.585625 -320.197925 
L 392.005625 -320.197925 
L 386.425625 -320.197925 
L 380.845625 -320.197925 
L 375.265625 -320.197925 
L 369.685625 -320.197925 
L 364.105625 -320.197925 
L 358.525625 -320.197925 
L 352.945625 -320.197925 
L 347.365625 -320.197925 
L 341.785625 -320.197925 
L 336.205625 -320.197925 
L 330.625625 -320.197925 
L 325.045625 -320.197925 
L 319.465625 -320.197925 
L 313.885625 -320.197925 
L 308.305625 -320.197925 
L 302.725625 -320.197925 
L 297.145625 -320.197925 
L 291.565625 -320.197925 
L 285.985625 -320.197925 
L 280.405625 -320.197925 
L 274.825625 -320.197925 
L 269.245625 -320.197925 
L 263.665625 -320.197925 
L 258.085625 -320.197925 
L 252.505625 -320.197925 
L 246.925625 -320.197925 
L 241.345625 -320.197925 
L 235.765625 -320.197925 
L 230.185625 -320.197925 
L 224.605625 -320.197925 
L 219.025625 -320.197925 
L 213.445625 -320.197925 
L 207.865625 -320.197925 
L 202.285625 -320.197925 
L 196.705625 -320.197925 
L 191.125625 -320.197925 
L 185.545625 -320.197925 
L 179.965625 -320.197925 
L 174.385625 -320.197925 
L 168.805625 -320.197925 
L 163.225625 -320.197925 
L 157.645625 -320.197925 
L 152.065625 -320.197925 
L 146.485625 -320.197925 
L 140.905625 -320.197925 
L 135.325625 -320.197925 
L 129.745625 -320.197925 
L 124.165625 -320.197925 
L 118.585625 -320.197925 
L 113.005625 -320.197925 
L 107.425625 -320.197925 
L 101.845625 -320.197925 
L 96.265625 -320.197925 
L 90.685625 -320.197925 
L 85.105625 -320.197925 
L 79.525625 -320.197925 
L 73.945625 -320.197925 
L 68.365625 -320.197925 
z
" style="stroke: #ff0000; stroke-opacity: 0.3"/>
    </defs>
    <g clip-path="url(#p2ccfc77ec0)">
     <use xlink:href="#m6d514e1ae7" x="0" y="340.853125" style="fill: #ff0000; fill-opacity: 0.3; stroke: #ff0000; stroke-opacity: 0.3"/>
    </g>
   </g>
   <g id="matplotlib.axis_1">
    <g id="xtick_1">
     <g id="line2d_1">
      <defs>
       <path id="m8a7b066663" d="M 0 0 
L 0 3.5 
" style="stroke: #000000; stroke-width: 0.8"/>
      </defs>
      <g>
       <use xlink:href="#m8a7b066663" x="68.365625" y="289.955" style="stroke: #000000; stroke-width: 0.8"/>
      </g>
     </g>
     <g id="text_1">
      <!-- 0 -->
      <g transform="translate(64.365625 308.065) scale(0.16 -0.16)">
       <defs>
        <path id="TimesNewRomanPSMT-30" d="M 231 2094 
Q 231 2819 450 3342 
Q 669 3866 1031 4122 
Q 1313 4325 1613 4325 
Q 2100 4325 2488 3828 
Q 2972 3213 2972 2159 
Q 2972 1422 2759 906 
Q 2547 391 2217 158 
Q 1888 -75 1581 -75 
Q 975 -75 572 641 
Q 231 1244 231 2094 
z
M 844 2016 
Q 844 1141 1059 588 
Q 1238 122 1591 122 
Q 1759 122 1940 273 
Q 2122 425 2216 781 
Q 2359 1319 2359 2297 
Q 2359 3022 2209 3506 
Q 2097 3866 1919 4016 
Q 1791 4119 1609 4119 
Q 1397 4119 1231 3928 
Q 1006 3669 925 3112 
Q 844 2556 844 2016 
z
" transform="scale(0.015625)"/>
       </defs>
       <use xlink:href="#TimesNewRomanPSMT-30"/>
      </g>
     </g>
    </g>
    <g id="xtick_2">
     <g id="line2d_2">
      <g>
       <use xlink:href="#m8a7b066663" x="124.165625" y="289.955" style="stroke: #000000; stroke-width: 0.8"/>
      </g>
     </g>
     <g id="text_2">
      <!-- 10 -->
      <g transform="translate(116.165625 308.065) scale(0.16 -0.16)">
       <defs>
        <path id="TimesNewRomanPSMT-31" d="M 750 3822 
L 1781 4325 
L 1884 4325 
L 1884 747 
Q 1884 391 1914 303 
Q 1944 216 2037 169 
Q 2131 122 2419 116 
L 2419 0 
L 825 0 
L 825 116 
Q 1125 122 1212 167 
Q 1300 213 1334 289 
Q 1369 366 1369 747 
L 1369 3034 
Q 1369 3497 1338 3628 
Q 1316 3728 1258 3775 
Q 1200 3822 1119 3822 
Q 1003 3822 797 3725 
L 750 3822 
z
" transform="scale(0.015625)"/>
       </defs>
       <use xlink:href="#TimesNewRomanPSMT-31"/>
       <use xlink:href="#TimesNewRomanPSMT-30" x="50"/>
      </g>
     </g>
    </g>
    <g id="xtick_3">
     <g id="line2d_3">
      <g>
       <use xlink:href="#m8a7b066663" x="179.965625" y="289.955" style="stroke: #000000; stroke-width: 0.8"/>
      </g>
     </g>
     <g id="text_3">
      <!-- 20 -->
      <g transform="translate(171.965625 308.065) scale(0.16 -0.16)">
       <defs>
        <path id="TimesNewRomanPSMT-32" d="M 2934 816 
L 2638 0 
L 138 0 
L 138 116 
Q 1241 1122 1691 1759 
Q 2141 2397 2141 2925 
Q 2141 3328 1894 3587 
Q 1647 3847 1303 3847 
Q 991 3847 742 3664 
Q 494 3481 375 3128 
L 259 3128 
Q 338 3706 661 4015 
Q 984 4325 1469 4325 
Q 1984 4325 2329 3994 
Q 2675 3663 2675 3213 
Q 2675 2891 2525 2569 
Q 2294 2063 1775 1497 
Q 997 647 803 472 
L 1909 472 
Q 2247 472 2383 497 
Q 2519 522 2628 598 
Q 2738 675 2819 816 
L 2934 816 
z
" transform="scale(0.015625)"/>
       </defs>
       <use xlink:href="#TimesNewRomanPSMT-32"/>
       <use xlink:href="#TimesNewRomanPSMT-30" x="50"/>
      </g>
     </g>
    </g>
    <g id="xtick_4">
     <g id="line2d_4">
      <g>
       <use xlink:href="#m8a7b066663" x="235.765625" y="289.955" style="stroke: #000000; stroke-width: 0.8"/>
      </g>
     </g>
     <g id="text_4">
      <!-- 30 -->
      <g transform="translate(227.765625 308.065) scale(0.16 -0.16)">
       <defs>
        <path id="TimesNewRomanPSMT-33" d="M 325 3431 
Q 506 3859 782 4092 
Q 1059 4325 1472 4325 
Q 1981 4325 2253 3994 
Q 2459 3747 2459 3466 
Q 2459 3003 1878 2509 
Q 2269 2356 2469 2072 
Q 2669 1788 2669 1403 
Q 2669 853 2319 450 
Q 1863 -75 997 -75 
Q 569 -75 414 31 
Q 259 138 259 259 
Q 259 350 332 419 
Q 406 488 509 488 
Q 588 488 669 463 
Q 722 447 909 348 
Q 1097 250 1169 231 
Q 1284 197 1416 197 
Q 1734 197 1970 444 
Q 2206 691 2206 1028 
Q 2206 1275 2097 1509 
Q 2016 1684 1919 1775 
Q 1784 1900 1550 2001 
Q 1316 2103 1072 2103 
L 972 2103 
L 972 2197 
Q 1219 2228 1467 2375 
Q 1716 2522 1828 2728 
Q 1941 2934 1941 3181 
Q 1941 3503 1739 3701 
Q 1538 3900 1238 3900 
Q 753 3900 428 3381 
L 325 3431 
z
" transform="scale(0.015625)"/>
       </defs>
       <use xlink:href="#TimesNewRomanPSMT-33"/>
       <use xlink:href="#TimesNewRomanPSMT-30" x="50"/>
      </g>
     </g>
    </g>
    <g id="xtick_5">
     <g id="line2d_5">
      <g>
       <use xlink:href="#m8a7b066663" x="291.565625" y="289.955" style="stroke: #000000; stroke-width: 0.8"/>
      </g>
     </g>
     <g id="text_5">
      <!-- 40 -->
      <g transform="translate(283.565625 308.065) scale(0.16 -0.16)">
       <defs>
        <path id="TimesNewRomanPSMT-34" d="M 2978 1563 
L 2978 1119 
L 2409 1119 
L 2409 0 
L 1894 0 
L 1894 1119 
L 100 1119 
L 100 1519 
L 2066 4325 
L 2409 4325 
L 2409 1563 
L 2978 1563 
z
M 1894 1563 
L 1894 3666 
L 406 1563 
L 1894 1563 
z
" transform="scale(0.015625)"/>
       </defs>
       <use xlink:href="#TimesNewRomanPSMT-34"/>
       <use xlink:href="#TimesNewRomanPSMT-30" x="50"/>
      </g>
     </g>
    </g>
    <g id="xtick_6">
     <g id="line2d_6">
      <g>
       <use xlink:href="#m8a7b066663" x="347.365625" y="289.955" style="stroke: #000000; stroke-width: 0.8"/>
      </g>
     </g>
     <g id="text_6">
      <!-- 50 -->
      <g transform="translate(339.365625 308.065) scale(0.16 -0.16)">
       <defs>
        <path id="TimesNewRomanPSMT-35" d="M 2778 4238 
L 2534 3706 
L 1259 3706 
L 981 3138 
Q 1809 3016 2294 2522 
Q 2709 2097 2709 1522 
Q 2709 1188 2573 903 
Q 2438 619 2231 419 
Q 2025 219 1772 97 
Q 1413 -75 1034 -75 
Q 653 -75 479 54 
Q 306 184 306 341 
Q 306 428 378 495 
Q 450 563 559 563 
Q 641 563 702 538 
Q 763 513 909 409 
Q 1144 247 1384 247 
Q 1750 247 2026 523 
Q 2303 800 2303 1197 
Q 2303 1581 2056 1914 
Q 1809 2247 1375 2428 
Q 1034 2569 447 2591 
L 1259 4238 
L 2778 4238 
z
" transform="scale(0.015625)"/>
       </defs>
       <use xlink:href="#TimesNewRomanPSMT-35"/>
       <use xlink:href="#TimesNewRomanPSMT-30" x="50"/>
      </g>
     </g>
    </g>
    <g id="xtick_7">
     <g id="line2d_7">
      <g>
       <use xlink:href="#m8a7b066663" x="403.165625" y="289.955" style="stroke: #000000; stroke-width: 0.8"/>
      </g>
     </g>
     <g id="text_7">
      <!-- 60 -->
      <g transform="translate(395.165625 308.065) scale(0.16 -0.16)">
       <defs>
        <path id="TimesNewRomanPSMT-36" d="M 2869 4325 
L 2869 4209 
Q 2456 4169 2195 4045 
Q 1934 3922 1679 3669 
Q 1425 3416 1258 3105 
Q 1091 2794 978 2366 
Q 1428 2675 1881 2675 
Q 2316 2675 2634 2325 
Q 2953 1975 2953 1425 
Q 2953 894 2631 456 
Q 2244 -75 1606 -75 
Q 1172 -75 869 213 
Q 275 772 275 1663 
Q 275 2231 503 2743 
Q 731 3256 1154 3653 
Q 1578 4050 1965 4187 
Q 2353 4325 2688 4325 
L 2869 4325 
z
M 925 2138 
Q 869 1716 869 1456 
Q 869 1156 980 804 
Q 1091 453 1309 247 
Q 1469 100 1697 100 
Q 1969 100 2183 356 
Q 2397 613 2397 1088 
Q 2397 1622 2184 2012 
Q 1972 2403 1581 2403 
Q 1463 2403 1327 2353 
Q 1191 2303 925 2138 
z
" transform="scale(0.015625)"/>
       </defs>
       <use xlink:href="#TimesNewRomanPSMT-36"/>
       <use xlink:href="#TimesNewRomanPSMT-30" x="50"/>
      </g>
     </g>
    </g>
    <g id="text_8">
     <!-- Time (s) -->
     <g transform="translate(201.960938 329.375) scale(0.2 -0.2)">
      <defs>
       <path id="TimesNewRomanPSMT-54" d="M 3703 4238 
L 3750 3244 
L 3631 3244 
Q 3597 3506 3538 3619 
Q 3441 3800 3280 3886 
Q 3119 3972 2856 3972 
L 2259 3972 
L 2259 734 
Q 2259 344 2344 247 
Q 2463 116 2709 116 
L 2856 116 
L 2856 0 
L 1059 0 
L 1059 116 
L 1209 116 
Q 1478 116 1591 278 
Q 1659 378 1659 734 
L 1659 3972 
L 1150 3972 
Q 853 3972 728 3928 
Q 566 3869 450 3700 
Q 334 3531 313 3244 
L 194 3244 
L 244 4238 
L 3703 4238 
z
" transform="scale(0.015625)"/>
       <path id="TimesNewRomanPSMT-69" d="M 928 4444 
Q 1059 4444 1151 4351 
Q 1244 4259 1244 4128 
Q 1244 3997 1151 3903 
Q 1059 3809 928 3809 
Q 797 3809 703 3903 
Q 609 3997 609 4128 
Q 609 4259 701 4351 
Q 794 4444 928 4444 
z
M 1188 2947 
L 1188 647 
Q 1188 378 1227 289 
Q 1266 200 1342 156 
Q 1419 113 1622 113 
L 1622 0 
L 231 0 
L 231 113 
Q 441 113 512 153 
Q 584 194 626 287 
Q 669 381 669 647 
L 669 1750 
Q 669 2216 641 2353 
Q 619 2453 572 2492 
Q 525 2531 444 2531 
Q 356 2531 231 2484 
L 188 2597 
L 1050 2947 
L 1188 2947 
z
" transform="scale(0.015625)"/>
       <path id="TimesNewRomanPSMT-6d" d="M 1050 2338 
Q 1363 2650 1419 2697 
Q 1559 2816 1721 2881 
Q 1884 2947 2044 2947 
Q 2313 2947 2506 2790 
Q 2700 2634 2766 2338 
Q 3088 2713 3309 2830 
Q 3531 2947 3766 2947 
Q 3994 2947 4170 2830 
Q 4347 2713 4450 2447 
Q 4519 2266 4519 1878 
L 4519 647 
Q 4519 378 4559 278 
Q 4591 209 4675 161 
Q 4759 113 4950 113 
L 4950 0 
L 3538 0 
L 3538 113 
L 3597 113 
Q 3781 113 3884 184 
Q 3956 234 3988 344 
Q 4000 397 4000 647 
L 4000 1878 
Q 4000 2228 3916 2372 
Q 3794 2572 3525 2572 
Q 3359 2572 3192 2489 
Q 3025 2406 2788 2181 
L 2781 2147 
L 2788 2013 
L 2788 647 
Q 2788 353 2820 281 
Q 2853 209 2943 161 
Q 3034 113 3253 113 
L 3253 0 
L 1806 0 
L 1806 113 
Q 2044 113 2133 169 
Q 2222 225 2256 338 
Q 2272 391 2272 647 
L 2272 1878 
Q 2272 2228 2169 2381 
Q 2031 2581 1784 2581 
Q 1616 2581 1450 2491 
Q 1191 2353 1050 2181 
L 1050 647 
Q 1050 366 1089 281 
Q 1128 197 1204 155 
Q 1281 113 1516 113 
L 1516 0 
L 100 0 
L 100 113 
Q 297 113 375 155 
Q 453 197 493 289 
Q 534 381 534 647 
L 534 1741 
Q 534 2213 506 2350 
Q 484 2453 437 2492 
Q 391 2531 309 2531 
Q 222 2531 100 2484 
L 53 2597 
L 916 2947 
L 1050 2947 
L 1050 2338 
z
" transform="scale(0.015625)"/>
       <path id="TimesNewRomanPSMT-65" d="M 681 1784 
Q 678 1147 991 784 
Q 1303 422 1725 422 
Q 2006 422 2214 576 
Q 2422 731 2563 1106 
L 2659 1044 
Q 2594 616 2278 264 
Q 1963 -88 1488 -88 
Q 972 -88 605 314 
Q 238 716 238 1394 
Q 238 2128 614 2539 
Q 991 2950 1559 2950 
Q 2041 2950 2350 2633 
Q 2659 2316 2659 1784 
L 681 1784 
z
M 681 1966 
L 2006 1966 
Q 1991 2241 1941 2353 
Q 1863 2528 1708 2628 
Q 1553 2728 1384 2728 
Q 1125 2728 920 2526 
Q 716 2325 681 1966 
z
" transform="scale(0.015625)"/>
       <path id="TimesNewRomanPSMT-20" transform="scale(0.015625)"/>
       <path id="TimesNewRomanPSMT-28" d="M 1988 -1253 
L 1988 -1369 
Q 1516 -1131 1200 -813 
Q 750 -359 506 256 
Q 263 872 263 1534 
Q 263 2503 741 3301 
Q 1219 4100 1988 4444 
L 1988 4313 
Q 1603 4100 1356 3731 
Q 1109 3363 987 2797 
Q 866 2231 866 1616 
Q 866 947 969 400 
Q 1050 -31 1165 -292 
Q 1281 -553 1476 -793 
Q 1672 -1034 1988 -1253 
z
" transform="scale(0.015625)"/>
       <path id="TimesNewRomanPSMT-73" d="M 2050 2947 
L 2050 1972 
L 1947 1972 
Q 1828 2431 1642 2597 
Q 1456 2763 1169 2763 
Q 950 2763 815 2647 
Q 681 2531 681 2391 
Q 681 2216 781 2091 
Q 878 1963 1175 1819 
L 1631 1597 
Q 2266 1288 2266 781 
Q 2266 391 1970 151 
Q 1675 -88 1309 -88 
Q 1047 -88 709 6 
Q 606 38 541 38 
Q 469 38 428 -44 
L 325 -44 
L 325 978 
L 428 978 
Q 516 541 762 319 
Q 1009 97 1316 97 
Q 1531 97 1667 223 
Q 1803 350 1803 528 
Q 1803 744 1651 891 
Q 1500 1038 1047 1263 
Q 594 1488 453 1669 
Q 313 1847 313 2119 
Q 313 2472 555 2709 
Q 797 2947 1181 2947 
Q 1350 2947 1591 2875 
Q 1750 2828 1803 2828 
Q 1853 2828 1881 2850 
Q 1909 2872 1947 2947 
L 2050 2947 
z
" transform="scale(0.015625)"/>
       <path id="TimesNewRomanPSMT-29" d="M 144 4313 
L 144 4444 
Q 619 4209 934 3891 
Q 1381 3434 1625 2820 
Q 1869 2206 1869 1541 
Q 1869 572 1392 -226 
Q 916 -1025 144 -1369 
L 144 -1253 
Q 528 -1038 776 -670 
Q 1025 -303 1145 264 
Q 1266 831 1266 1447 
Q 1266 2113 1163 2663 
Q 1084 3094 967 3353 
Q 850 3613 656 3853 
Q 463 4094 144 4313 
z
" transform="scale(0.015625)"/>
      </defs>
      <use xlink:href="#TimesNewRomanPSMT-54"/>
      <use xlink:href="#TimesNewRomanPSMT-69" x="57.583984"/>
      <use xlink:href="#TimesNewRomanPSMT-6d" x="85.367188"/>
      <use xlink:href="#TimesNewRomanPSMT-65" x="163.150391"/>
      <use xlink:href="#TimesNewRomanPSMT-20" x="207.535156"/>
      <use xlink:href="#TimesNewRomanPSMT-28" x="232.535156"/>
      <use xlink:href="#TimesNewRomanPSMT-73" x="265.835938"/>
      <use xlink:href="#TimesNewRomanPSMT-29" x="304.751953"/>
     </g>
    </g>
   </g>
   <g id="matplotlib.axis_2">
    <g id="ytick_1">
     <g id="line2d_8">
      <defs>
       <path id="md6cb50b68c" d="M 0 0 
L -3.5 0 
" style="stroke: #000000; stroke-width: 0.8"/>
      </defs>
      <g>
       <use xlink:href="#md6cb50b68c" x="68.365625" y="289.955" style="stroke: #000000; stroke-width: 0.8"/>
      </g>
     </g>
     <g id="text_9">
      <!-- 0 -->
      <g transform="translate(53.365625 295.51) scale(0.16 -0.16)">
       <use xlink:href="#TimesNewRomanPSMT-30"/>
      </g>
     </g>
    </g>
    <g id="ytick_2">
     <g id="line2d_9">
      <g>
       <use xlink:href="#md6cb50b68c" x="68.365625" y="255.305" style="stroke: #000000; stroke-width: 0.8"/>
      </g>
     </g>
     <g id="text_10">
      <!-- 500 -->
      <g transform="translate(37.365625 260.86) scale(0.16 -0.16)">
       <use xlink:href="#TimesNewRomanPSMT-35"/>
       <use xlink:href="#TimesNewRomanPSMT-30" x="50"/>
       <use xlink:href="#TimesNewRomanPSMT-30" x="100"/>
      </g>
     </g>
    </g>
    <g id="ytick_3">
     <g id="line2d_10">
      <g>
       <use xlink:href="#md6cb50b68c" x="68.365625" y="220.655" style="stroke: #000000; stroke-width: 0.8"/>
      </g>
     </g>
     <g id="text_11">
      <!-- 1000 -->
      <g transform="translate(29.365625 226.21) scale(0.16 -0.16)">
       <use xlink:href="#TimesNewRomanPSMT-31"/>
       <use xlink:href="#TimesNewRomanPSMT-30" x="50"/>
       <use xlink:href="#TimesNewRomanPSMT-30" x="100"/>
       <use xlink:href="#TimesNewRomanPSMT-30" x="150"/>
      </g>
     </g>
    </g>
    <g id="ytick_4">
     <g id="line2d_11">
      <g>
       <use xlink:href="#md6cb50b68c" x="68.365625" y="186.005" style="stroke: #000000; stroke-width: 0.8"/>
      </g>
     </g>
     <g id="text_12">
      <!-- 1500 -->
      <g transform="translate(29.365625 191.56) scale(0.16 -0.16)">
       <use xlink:href="#TimesNewRomanPSMT-31"/>
       <use xlink:href="#TimesNewRomanPSMT-35" x="50"/>
       <use xlink:href="#TimesNewRomanPSMT-30" x="100"/>
       <use xlink:href="#TimesNewRomanPSMT-30" x="150"/>
      </g>
     </g>
    </g>
    <g id="ytick_5">
     <g id="line2d_12">
      <g>
       <use xlink:href="#md6cb50b68c" x="68.365625" y="151.355" style="stroke: #000000; stroke-width: 0.8"/>
      </g>
     </g>
     <g id="text_13">
      <!-- 2000 -->
      <g transform="translate(29.365625 156.91) scale(0.16 -0.16)">
       <use xlink:href="#TimesNewRomanPSMT-32"/>
       <use xlink:href="#TimesNewRomanPSMT-30" x="50"/>
       <use xlink:href="#TimesNewRomanPSMT-30" x="100"/>
       <use xlink:href="#TimesNewRomanPSMT-30" x="150"/>
      </g>
     </g>
    </g>
    <g id="ytick_6">
     <g id="line2d_13">
      <g>
       <use xlink:href="#md6cb50b68c" x="68.365625" y="116.705" style="stroke: #000000; stroke-width: 0.8"/>
      </g>
     </g>
     <g id="text_14">
      <!-- 2500 -->
      <g transform="translate(29.365625 122.26) scale(0.16 -0.16)">
       <use xlink:href="#TimesNewRomanPSMT-32"/>
       <use xlink:href="#TimesNewRomanPSMT-35" x="50"/>
       <use xlink:href="#TimesNewRomanPSMT-30" x="100"/>
       <use xlink:href="#TimesNewRomanPSMT-30" x="150"/>
      </g>
     </g>
    </g>
    <g id="ytick_7">
     <g id="line2d_14">
      <g>
       <use xlink:href="#md6cb50b68c" x="68.365625" y="82.055" style="stroke: #000000; stroke-width: 0.8"/>
      </g>
     </g>
     <g id="text_15">
      <!-- 3000 -->
      <g transform="translate(29.365625 87.61) scale(0.16 -0.16)">
       <use xlink:href="#TimesNewRomanPSMT-33"/>
       <use xlink:href="#TimesNewRomanPSMT-30" x="50"/>
       <use xlink:href="#TimesNewRomanPSMT-30" x="100"/>
       <use xlink:href="#TimesNewRomanPSMT-30" x="150"/>
      </g>
     </g>
    </g>
    <g id="ytick_8">
     <g id="line2d_15">
      <g>
       <use xlink:href="#md6cb50b68c" x="68.365625" y="47.405" style="stroke: #000000; stroke-width: 0.8"/>
      </g>
     </g>
     <g id="text_16">
      <!-- 3500 -->
      <g transform="translate(29.365625 52.96) scale(0.16 -0.16)">
       <use xlink:href="#TimesNewRomanPSMT-33"/>
       <use xlink:href="#TimesNewRomanPSMT-35" x="50"/>
       <use xlink:href="#TimesNewRomanPSMT-30" x="100"/>
       <use xlink:href="#TimesNewRomanPSMT-30" x="150"/>
      </g>
     </g>
    </g>
    <g id="ytick_9">
     <g id="line2d_16">
      <g>
       <use xlink:href="#md6cb50b68c" x="68.365625" y="12.755" style="stroke: #000000; stroke-width: 0.8"/>
      </g>
     </g>
     <g id="text_17">
      <!-- 4000 -->
      <g transform="translate(29.365625 18.31) scale(0.16 -0.16)">
       <use xlink:href="#TimesNewRomanPSMT-34"/>
       <use xlink:href="#TimesNewRomanPSMT-30" x="50"/>
       <use xlink:href="#TimesNewRomanPSMT-30" x="100"/>
       <use xlink:href="#TimesNewRomanPSMT-30" x="150"/>
      </g>
     </g>
    </g>
    <g id="text_18">
     <!-- Bitrate (kbps) -->
     <g transform="translate(21.0875 206.619062) rotate(-90) scale(0.2 -0.2)">
      <defs>
       <path id="TimesNewRomanPSMT-42" d="M 2956 2163 
Q 3397 2069 3616 1863 
Q 3919 1575 3919 1159 
Q 3919 844 3719 555 
Q 3519 266 3170 133 
Q 2822 0 2106 0 
L 106 0 
L 106 116 
L 266 116 
Q 531 116 647 284 
Q 719 394 719 750 
L 719 3488 
Q 719 3881 628 3984 
Q 506 4122 266 4122 
L 106 4122 
L 106 4238 
L 1938 4238 
Q 2450 4238 2759 4163 
Q 3228 4050 3475 3764 
Q 3722 3478 3722 3106 
Q 3722 2788 3528 2536 
Q 3334 2284 2956 2163 
z
M 1319 2331 
Q 1434 2309 1582 2298 
Q 1731 2288 1909 2288 
Q 2366 2288 2595 2386 
Q 2825 2484 2947 2687 
Q 3069 2891 3069 3131 
Q 3069 3503 2766 3765 
Q 2463 4028 1881 4028 
Q 1569 4028 1319 3959 
L 1319 2331 
z
M 1319 306 
Q 1681 222 2034 222 
Q 2600 222 2897 476 
Q 3194 731 3194 1106 
Q 3194 1353 3059 1581 
Q 2925 1809 2622 1940 
Q 2319 2072 1872 2072 
Q 1678 2072 1540 2065 
Q 1403 2059 1319 2044 
L 1319 306 
z
" transform="scale(0.015625)"/>
       <path id="TimesNewRomanPSMT-74" d="M 1031 3803 
L 1031 2863 
L 1700 2863 
L 1700 2644 
L 1031 2644 
L 1031 788 
Q 1031 509 1111 412 
Q 1191 316 1316 316 
Q 1419 316 1516 380 
Q 1613 444 1666 569 
L 1788 569 
Q 1678 263 1478 108 
Q 1278 -47 1066 -47 
Q 922 -47 784 33 
Q 647 113 581 261 
Q 516 409 516 719 
L 516 2644 
L 63 2644 
L 63 2747 
Q 234 2816 414 2980 
Q 594 3144 734 3369 
Q 806 3488 934 3803 
L 1031 3803 
z
" transform="scale(0.015625)"/>
       <path id="TimesNewRomanPSMT-72" d="M 1038 2947 
L 1038 2303 
Q 1397 2947 1775 2947 
Q 1947 2947 2059 2842 
Q 2172 2738 2172 2600 
Q 2172 2478 2090 2393 
Q 2009 2309 1897 2309 
Q 1788 2309 1652 2417 
Q 1516 2525 1450 2525 
Q 1394 2525 1328 2463 
Q 1188 2334 1038 2041 
L 1038 669 
Q 1038 431 1097 309 
Q 1138 225 1241 169 
Q 1344 113 1538 113 
L 1538 0 
L 72 0 
L 72 113 
Q 291 113 397 181 
Q 475 231 506 341 
Q 522 394 522 644 
L 522 1753 
Q 522 2253 501 2348 
Q 481 2444 426 2487 
Q 372 2531 291 2531 
Q 194 2531 72 2484 
L 41 2597 
L 906 2947 
L 1038 2947 
z
" transform="scale(0.015625)"/>
       <path id="TimesNewRomanPSMT-61" d="M 1822 413 
Q 1381 72 1269 19 
Q 1100 -59 909 -59 
Q 613 -59 420 144 
Q 228 347 228 678 
Q 228 888 322 1041 
Q 450 1253 767 1440 
Q 1084 1628 1822 1897 
L 1822 2009 
Q 1822 2438 1686 2597 
Q 1550 2756 1291 2756 
Q 1094 2756 978 2650 
Q 859 2544 859 2406 
L 866 2225 
Q 866 2081 792 2003 
Q 719 1925 600 1925 
Q 484 1925 411 2006 
Q 338 2088 338 2228 
Q 338 2497 613 2722 
Q 888 2947 1384 2947 
Q 1766 2947 2009 2819 
Q 2194 2722 2281 2516 
Q 2338 2381 2338 1966 
L 2338 994 
Q 2338 584 2353 492 
Q 2369 400 2405 369 
Q 2441 338 2488 338 
Q 2538 338 2575 359 
Q 2641 400 2828 588 
L 2828 413 
Q 2478 -56 2159 -56 
Q 2006 -56 1915 50 
Q 1825 156 1822 413 
z
M 1822 616 
L 1822 1706 
Q 1350 1519 1213 1441 
Q 966 1303 859 1153 
Q 753 1003 753 825 
Q 753 600 887 451 
Q 1022 303 1197 303 
Q 1434 303 1822 616 
z
" transform="scale(0.015625)"/>
       <path id="TimesNewRomanPSMT-6b" d="M 1047 4444 
L 1047 1597 
L 1775 2259 
Q 2006 2472 2044 2528 
Q 2069 2566 2069 2603 
Q 2069 2666 2017 2711 
Q 1966 2756 1847 2763 
L 1847 2863 
L 3091 2863 
L 3091 2763 
Q 2834 2756 2664 2684 
Q 2494 2613 2291 2428 
L 1556 1750 
L 2291 822 
Q 2597 438 2703 334 
Q 2853 188 2966 144 
Q 3044 113 3238 113 
L 3238 0 
L 1847 0 
L 1847 113 
Q 1966 116 2008 148 
Q 2050 181 2050 241 
Q 2050 313 1925 472 
L 1047 1594 
L 1047 644 
Q 1047 366 1086 278 
Q 1125 191 1197 153 
Q 1269 116 1509 113 
L 1509 0 
L 53 0 
L 53 113 
Q 272 113 381 166 
Q 447 200 481 272 
Q 528 375 528 628 
L 528 3234 
Q 528 3731 506 3842 
Q 484 3953 434 3995 
Q 384 4038 303 4038 
Q 238 4038 106 3984 
L 53 4094 
L 903 4444 
L 1047 4444 
z
" transform="scale(0.015625)"/>
       <path id="TimesNewRomanPSMT-62" d="M 984 2369 
Q 1400 2947 1881 2947 
Q 2322 2947 2650 2570 
Q 2978 2194 2978 1541 
Q 2978 778 2472 313 
Q 2038 -88 1503 -88 
Q 1253 -88 995 3 
Q 738 94 469 275 
L 469 3241 
Q 469 3728 445 3840 
Q 422 3953 372 3993 
Q 322 4034 247 4034 
Q 159 4034 28 3984 
L -16 4094 
L 844 4444 
L 984 4444 
L 984 2369 
z
M 984 2169 
L 984 456 
Q 1144 300 1314 220 
Q 1484 141 1663 141 
Q 1947 141 2192 453 
Q 2438 766 2438 1363 
Q 2438 1913 2192 2208 
Q 1947 2503 1634 2503 
Q 1469 2503 1303 2419 
Q 1178 2356 984 2169 
z
" transform="scale(0.015625)"/>
       <path id="TimesNewRomanPSMT-70" d="M -6 2578 
L 875 2934 
L 994 2934 
L 994 2266 
Q 1216 2644 1439 2795 
Q 1663 2947 1909 2947 
Q 2341 2947 2628 2609 
Q 2981 2197 2981 1534 
Q 2981 794 2556 309 
Q 2206 -88 1675 -88 
Q 1444 -88 1275 -22 
Q 1150 25 994 166 
L 994 -706 
Q 994 -1000 1030 -1079 
Q 1066 -1159 1155 -1206 
Q 1244 -1253 1478 -1253 
L 1478 -1369 
L -22 -1369 
L -22 -1253 
L 56 -1253 
Q 228 -1256 350 -1188 
Q 409 -1153 442 -1076 
Q 475 -1000 475 -688 
L 475 2019 
Q 475 2297 450 2372 
Q 425 2447 370 2484 
Q 316 2522 222 2522 
Q 147 2522 31 2478 
L -6 2578 
z
M 994 2081 
L 994 1013 
Q 994 666 1022 556 
Q 1066 375 1236 237 
Q 1406 100 1666 100 
Q 1978 100 2172 344 
Q 2425 663 2425 1241 
Q 2425 1897 2138 2250 
Q 1938 2494 1663 2494 
Q 1513 2494 1366 2419 
Q 1253 2363 994 2081 
z
" transform="scale(0.015625)"/>
      </defs>
      <use xlink:href="#TimesNewRomanPSMT-42"/>
      <use xlink:href="#TimesNewRomanPSMT-69" x="66.699219"/>
      <use xlink:href="#TimesNewRomanPSMT-74" x="94.482422"/>
      <use xlink:href="#TimesNewRomanPSMT-72" x="122.265625"/>
      <use xlink:href="#TimesNewRomanPSMT-61" x="155.566406"/>
      <use xlink:href="#TimesNewRomanPSMT-74" x="199.951172"/>
      <use xlink:href="#TimesNewRomanPSMT-65" x="227.734375"/>
      <use xlink:href="#TimesNewRomanPSMT-20" x="272.119141"/>
      <use xlink:href="#TimesNewRomanPSMT-28" x="297.119141"/>
      <use xlink:href="#TimesNewRomanPSMT-6b" x="330.419922"/>
      <use xlink:href="#TimesNewRomanPSMT-62" x="380.419922"/>
      <use xlink:href="#TimesNewRomanPSMT-70" x="430.419922"/>
      <use xlink:href="#TimesNewRomanPSMT-73" x="480.419922"/>
      <use xlink:href="#TimesNewRomanPSMT-29" x="519.335938"/>
     </g>
    </g>
   </g>
   <g id="line2d_17">
    <path d="M 68.365625 89.3315 
L 73.945625 89.3315 
L 79.525625 96.9622 
L 85.105625 96.9622 
L 90.685625 92.38378 
L 96.265625 75.59624 
L 101.845625 61.86098 
L 107.425625 43.5473 
L 113.005625 29.81204 
L 118.585625 20.6552 
L 124.165625 20.6552 
L 129.745625 20.6552 
L 135.325625 20.6552 
L 140.905625 20.6552 
L 146.485625 20.6552 
L 152.065625 20.6552 
L 157.645625 20.6552 
L 163.225625 20.6552 
L 168.805625 20.6552 
L 174.385625 20.6552 
L 179.965625 20.6552 
L 185.545625 20.6552 
L 191.125625 20.6552 
L 196.705625 20.6552 
L 202.285625 20.6552 
L 207.865625 20.6552 
L 213.445625 20.6552 
L 219.025625 20.6552 
L 224.605625 20.6552 
L 230.185625 20.6552 
L 235.765625 20.6552 
L 241.345625 20.6552 
L 246.925625 20.6552 
L 252.505625 20.6552 
L 258.085625 20.6552 
L 263.665625 20.6552 
L 269.245625 20.6552 
L 274.825625 20.6552 
L 280.405625 20.6552 
L 285.985625 20.6552 
L 291.565625 20.6552 
L 297.145625 20.6552 
L 302.725625 20.6552 
L 308.305625 20.6552 
L 313.885625 20.6552 
L 319.465625 20.6552 
L 325.045625 20.6552 
L 330.625625 20.6552 
L 336.205625 20.6552 
L 341.785625 20.6552 
L 347.365625 20.6552 
L 352.945625 20.6552 
L 358.525625 20.6552 
L 364.105625 20.6552 
L 369.685625 20.6552 
L 375.265625 20.6552 
L 380.845625 20.6552 
L 386.425625 20.6552 
L 392.005625 20.6552 
L 397.585625 20.6552 
" clip-path="url(#p2ccfc77ec0)" style="fill: none; stroke: #1f77b4; stroke-opacity: 0.1; stroke-width: 1.5; stroke-linecap: square"/>
   </g>
   <g id="line2d_18">
    <path d="M 68.365625 89.3315 
L 73.945625 72.162425 
L 79.525625 62.62405 
L 85.105625 45.454975 
L 90.685625 38.587345 
L 96.265625 30.956645 
L 101.845625 25.23362 
L 107.425625 20.6552 
L 113.005625 20.6552 
L 118.585625 20.6552 
L 124.165625 20.6552 
L 129.745625 20.6552 
L 135.325625 20.6552 
L 140.905625 20.6552 
L 146.485625 20.6552 
L 152.065625 20.6552 
L 157.645625 20.6552 
L 163.225625 20.6552 
L 168.805625 20.6552 
L 174.385625 20.6552 
L 179.965625 20.6552 
L 185.545625 20.6552 
L 191.125625 20.6552 
L 196.705625 20.6552 
L 202.285625 20.6552 
L 207.865625 20.6552 
L 213.445625 20.6552 
L 219.025625 20.6552 
L 224.605625 20.6552 
L 230.185625 20.6552 
L 235.765625 20.6552 
L 241.345625 20.6552 
L 246.925625 20.6552 
L 252.505625 20.6552 
L 258.085625 20.6552 
L 263.665625 20.6552 
L 269.245625 20.6552 
L 274.825625 20.6552 
L 280.405625 20.6552 
L 285.985625 20.6552 
L 291.565625 20.6552 
L 297.145625 20.6552 
L 302.725625 20.6552 
L 308.305625 20.6552 
L 313.885625 20.6552 
L 319.465625 20.6552 
L 325.045625 20.6552 
L 330.625625 20.6552 
L 336.205625 20.6552 
L 341.785625 20.6552 
L 347.365625 20.6552 
L 352.945625 20.6552 
L 358.525625 20.6552 
L 364.105625 20.6552 
L 369.685625 20.6552 
L 375.265625 20.6552 
L 380.845625 20.6552 
L 386.425625 20.6552 
L 392.005625 20.6552 
L 397.585625 20.6552 
" clip-path="url(#p2ccfc77ec0)" style="fill: none; stroke: #ff7f0e; stroke-opacity: 0.1; stroke-width: 1.5; stroke-linecap: square"/>
   </g>
   <g id="line2d_19">
    <path d="M 68.365625 158.0078 
L 73.945625 140.838725 
L 79.525625 123.66965 
L 85.105625 95.054525 
L 90.685625 74.451635 
L 96.265625 56.137955 
L 101.845625 38.96888 
L 107.425625 25.23362 
L 113.005625 20.6552 
L 118.585625 20.6552 
L 124.165625 20.6552 
L 129.745625 20.6552 
L 135.325625 20.6552 
L 140.905625 20.6552 
L 146.485625 20.6552 
L 152.065625 20.6552 
L 157.645625 20.6552 
L 163.225625 20.6552 
L 168.805625 20.6552 
L 174.385625 20.6552 
L 179.965625 20.6552 
L 185.545625 20.6552 
L 191.125625 20.6552 
L 196.705625 20.6552 
L 202.285625 20.6552 
L 207.865625 20.6552 
L 213.445625 20.6552 
L 219.025625 20.6552 
L 224.605625 20.6552 
L 230.185625 20.6552 
L 235.765625 20.6552 
L 241.345625 20.6552 
L 246.925625 20.6552 
L 252.505625 20.6552 
L 258.085625 20.6552 
L 263.665625 20.6552 
L 269.245625 20.6552 
L 274.825625 20.6552 
L 280.405625 20.6552 
L 285.985625 20.6552 
L 291.565625 20.6552 
L 297.145625 20.6552 
L 302.725625 20.6552 
L 308.305625 20.6552 
L 313.885625 20.6552 
L 319.465625 20.6552 
L 325.045625 20.6552 
L 330.625625 20.6552 
L 336.205625 20.6552 
L 341.785625 20.6552 
L 347.365625 20.6552 
L 352.945625 20.6552 
L 358.525625 20.6552 
L 364.105625 20.6552 
L 369.685625 20.6552 
L 375.265625 20.6552 
L 380.845625 20.6552 
L 386.425625 20.6552 
L 392.005625 20.6552 
L 397.585625 20.6552 
" clip-path="url(#p2ccfc77ec0)" style="fill: none; stroke: #2ca02c; stroke-opacity: 0.1; stroke-width: 1.5; stroke-linecap: square"/>
   </g>
   <g id="line2d_20">
    <path d="M 68.365625 89.3315 
L 73.945625 72.162425 
L 79.525625 62.62405 
L 85.105625 45.454975 
L 90.685625 38.587345 
L 96.265625 30.956645 
L 101.845625 25.23362 
L 107.425625 20.6552 
L 113.005625 20.6552 
L 118.585625 20.6552 
L 124.165625 20.6552 
L 129.745625 20.6552 
L 135.325625 20.6552 
L 140.905625 20.6552 
L 146.485625 20.6552 
L 152.065625 20.6552 
L 157.645625 20.6552 
L 163.225625 20.6552 
L 168.805625 20.6552 
L 174.385625 20.6552 
L 179.965625 20.6552 
L 185.545625 20.6552 
L 191.125625 20.6552 
L 196.705625 20.6552 
L 202.285625 20.6552 
L 207.865625 20.6552 
L 213.445625 20.6552 
L 219.025625 20.6552 
L 224.605625 20.6552 
L 230.185625 20.6552 
L 235.765625 20.6552 
L 241.345625 20.6552 
L 246.925625 20.6552 
L 252.505625 20.6552 
L 258.085625 20.6552 
L 263.665625 20.6552 
L 269.245625 20.6552 
L 274.825625 20.6552 
L 280.405625 20.6552 
L 285.985625 20.6552 
L 291.565625 20.6552 
L 297.145625 20.6552 
L 302.725625 20.6552 
L 308.305625 20.6552 
L 313.885625 20.6552 
L 319.465625 20.6552 
L 325.045625 20.6552 
L 330.625625 20.6552 
L 336.205625 20.6552 
L 341.785625 20.6552 
L 347.365625 20.6552 
L 352.945625 20.6552 
L 358.525625 20.6552 
L 364.105625 20.6552 
L 369.685625 20.6552 
L 375.265625 20.6552 
L 380.845625 20.6552 
L 386.425625 20.6552 
L 392.005625 20.6552 
L 397.585625 20.6552 
" clip-path="url(#p2ccfc77ec0)" style="fill: none; stroke: #d62728; stroke-opacity: 0.1; stroke-width: 1.5; stroke-linecap: square"/>
   </g>
   <g id="line2d_21">
    <path d="M 68.365625 20.6552 
L 73.945625 20.6552 
L 79.525625 20.6552 
L 85.105625 20.6552 
L 90.685625 20.6552 
L 96.265625 20.6552 
L 101.845625 20.6552 
L 107.425625 20.6552 
L 113.005625 20.6552 
L 118.585625 20.6552 
L 124.165625 20.6552 
L 129.745625 20.6552 
L 135.325625 20.6552 
L 140.905625 20.6552 
L 146.485625 20.6552 
L 152.065625 20.6552 
L 157.645625 20.6552 
L 163.225625 20.6552 
L 168.805625 20.6552 
L 174.385625 20.6552 
L 179.965625 20.6552 
L 185.545625 20.6552 
L 191.125625 20.6552 
L 196.705625 20.6552 
L 202.285625 20.6552 
L 207.865625 20.6552 
L 213.445625 20.6552 
L 219.025625 20.6552 
L 224.605625 20.6552 
L 230.185625 20.6552 
L 235.765625 20.6552 
L 241.345625 20.6552 
L 246.925625 20.6552 
L 252.505625 20.6552 
L 258.085625 20.6552 
L 263.665625 20.6552 
L 269.245625 20.6552 
L 274.825625 20.6552 
L 280.405625 20.6552 
L 285.985625 20.6552 
L 291.565625 20.6552 
L 297.145625 20.6552 
L 302.725625 20.6552 
L 308.305625 20.6552 
L 313.885625 20.6552 
L 319.465625 20.6552 
L 325.045625 20.6552 
L 330.625625 20.6552 
L 336.205625 20.6552 
L 341.785625 20.6552 
L 347.365625 20.6552 
L 352.945625 20.6552 
L 358.525625 20.6552 
L 364.105625 20.6552 
L 369.685625 20.6552 
L 375.265625 20.6552 
L 380.845625 20.6552 
L 386.425625 20.6552 
L 392.005625 20.6552 
L 397.585625 20.6552 
" clip-path="url(#p2ccfc77ec0)" style="fill: none; stroke: #9467bd; stroke-opacity: 0.1; stroke-width: 1.5; stroke-linecap: square"/>
   </g>
   <g id="line2d_22">
    <path d="M 68.365625 20.6552 
L 73.945625 20.6552 
L 79.525625 20.6552 
L 85.105625 20.6552 
L 90.685625 20.6552 
L 96.265625 20.6552 
L 101.845625 20.6552 
L 107.425625 20.6552 
L 113.005625 20.6552 
L 118.585625 20.6552 
L 124.165625 20.6552 
L 129.745625 20.6552 
L 135.325625 20.6552 
L 140.905625 20.6552 
L 146.485625 20.6552 
L 152.065625 20.6552 
L 157.645625 20.6552 
L 163.225625 20.6552 
L 168.805625 20.6552 
L 174.385625 20.6552 
L 179.965625 20.6552 
L 185.545625 20.6552 
L 191.125625 20.6552 
L 196.705625 20.6552 
L 202.285625 20.6552 
L 207.865625 20.6552 
L 213.445625 20.6552 
L 219.025625 20.6552 
L 224.605625 20.6552 
L 230.185625 20.6552 
L 235.765625 20.6552 
L 241.345625 20.6552 
L 246.925625 20.6552 
L 252.505625 20.6552 
L 258.085625 20.6552 
L 263.665625 20.6552 
L 269.245625 20.6552 
L 274.825625 20.6552 
L 280.405625 20.6552 
L 285.985625 20.6552 
L 291.565625 20.6552 
L 297.145625 20.6552 
L 302.725625 20.6552 
L 308.305625 20.6552 
L 313.885625 20.6552 
L 319.465625 20.6552 
L 325.045625 20.6552 
L 330.625625 20.6552 
L 336.205625 20.6552 
L 341.785625 20.6552 
L 347.365625 20.6552 
L 352.945625 20.6552 
L 358.525625 20.6552 
L 364.105625 20.6552 
L 369.685625 20.6552 
L 375.265625 20.6552 
L 380.845625 20.6552 
L 386.425625 20.6552 
L 392.005625 20.6552 
L 397.585625 20.6552 
" clip-path="url(#p2ccfc77ec0)" style="fill: none; stroke: #8c564b; stroke-opacity: 0.1; stroke-width: 1.5; stroke-linecap: square"/>
   </g>
   <g id="line2d_23">
    <path d="M 68.365625 117.43265 
L 73.945625 93.238287 
L 79.525625 79.796975 
L 85.105625 55.602612 
L 90.685625 45.924867 
L 96.265625 35.171817 
L 101.845625 27.10703 
L 107.425625 20.6552 
L 113.005625 20.6552 
L 118.585625 20.6552 
L 124.165625 20.6552 
L 129.745625 20.6552 
L 135.325625 20.6552 
L 140.905625 20.6552 
L 146.485625 20.6552 
L 152.065625 20.6552 
L 157.645625 20.6552 
L 163.225625 20.6552 
L 168.805625 20.6552 
L 174.385625 20.6552 
L 179.965625 20.6552 
L 185.545625 20.6552 
L 191.125625 20.6552 
L 196.705625 20.6552 
L 202.285625 20.6552 
L 207.865625 20.6552 
L 213.445625 20.6552 
L 219.025625 20.6552 
L 224.605625 20.6552 
L 230.185625 20.6552 
L 235.765625 20.6552 
L 241.345625 20.6552 
L 246.925625 20.6552 
L 252.505625 20.6552 
L 258.085625 20.6552 
L 263.665625 20.6552 
L 269.245625 20.6552 
L 274.825625 20.6552 
L 280.405625 20.6552 
L 285.985625 20.6552 
L 291.565625 20.6552 
L 297.145625 20.6552 
L 302.725625 20.6552 
L 308.305625 20.6552 
L 313.885625 20.6552 
L 319.465625 20.6552 
L 325.045625 20.6552 
L 330.625625 20.6552 
L 336.205625 20.6552 
L 341.785625 20.6552 
L 347.365625 20.6552 
L 352.945625 20.6552 
L 358.525625 20.6552 
L 364.105625 20.6552 
L 369.685625 20.6552 
L 375.265625 20.6552 
L 380.845625 20.6552 
L 386.425625 20.6552 
L 392.005625 20.6552 
L 397.585625 20.6552 
" clip-path="url(#p2ccfc77ec0)" style="fill: none; stroke: #e377c2; stroke-opacity: 0.1; stroke-width: 1.5; stroke-linecap: square"/>
   </g>
   <g id="line2d_24">
    <path d="M 68.365625 117.43265 
L 73.945625 93.238287 
L 79.525625 79.796975 
L 85.105625 55.602612 
L 90.685625 45.924867 
L 96.265625 35.171817 
L 101.845625 27.10703 
L 107.425625 20.6552 
L 113.005625 20.6552 
L 118.585625 20.6552 
L 124.165625 20.6552 
L 129.745625 20.6552 
L 135.325625 20.6552 
L 140.905625 20.6552 
L 146.485625 20.6552 
L 152.065625 20.6552 
L 157.645625 20.6552 
L 163.225625 20.6552 
L 168.805625 20.6552 
L 174.385625 20.6552 
L 179.965625 20.6552 
L 185.545625 20.6552 
L 191.125625 20.6552 
L 196.705625 20.6552 
L 202.285625 20.6552 
L 207.865625 20.6552 
L 213.445625 20.6552 
L 219.025625 20.6552 
L 224.605625 20.6552 
L 230.185625 20.6552 
L 235.765625 20.6552 
L 241.345625 20.6552 
L 246.925625 20.6552 
L 252.505625 20.6552 
L 258.085625 20.6552 
L 263.665625 20.6552 
L 269.245625 20.6552 
L 274.825625 20.6552 
L 280.405625 20.6552 
L 285.985625 20.6552 
L 291.565625 20.6552 
L 297.145625 20.6552 
L 302.725625 20.6552 
L 308.305625 20.6552 
L 313.885625 20.6552 
L 319.465625 20.6552 
L 325.045625 20.6552 
L 330.625625 20.6552 
L 336.205625 20.6552 
L 341.785625 20.6552 
L 347.365625 20.6552 
L 352.945625 20.6552 
L 358.525625 20.6552 
L 364.105625 20.6552 
L 369.685625 20.6552 
L 375.265625 20.6552 
L 380.845625 20.6552 
L 386.425625 20.6552 
L 392.005625 20.6552 
L 397.585625 20.6552 
" clip-path="url(#p2ccfc77ec0)" style="fill: none; stroke: #7f7f7f; stroke-opacity: 0.1; stroke-width: 1.5; stroke-linecap: square"/>
   </g>
   <g id="line2d_25">
    <path d="M 68.365625 132.88655 
L 73.945625 104.828712 
L 79.525625 89.241025 
L 85.105625 61.183187 
L 90.685625 49.960052 
L 96.265625 37.489902 
L 101.845625 28.13729 
L 107.425625 20.6552 
L 113.005625 20.6552 
L 118.585625 20.6552 
L 124.165625 20.6552 
L 129.745625 20.6552 
L 135.325625 20.6552 
L 140.905625 20.6552 
L 146.485625 20.6552 
L 152.065625 20.6552 
L 157.645625 20.6552 
L 163.225625 20.6552 
L 168.805625 20.6552 
L 174.385625 20.6552 
L 179.965625 20.6552 
L 185.545625 20.6552 
L 191.125625 20.6552 
L 196.705625 20.6552 
L 202.285625 20.6552 
L 207.865625 20.6552 
L 213.445625 20.6552 
L 219.025625 20.6552 
L 224.605625 20.6552 
L 230.185625 20.6552 
L 235.765625 20.6552 
L 241.345625 20.6552 
L 246.925625 20.6552 
L 252.505625 20.6552 
L 258.085625 20.6552 
L 263.665625 20.6552 
L 269.245625 20.6552 
L 274.825625 20.6552 
L 280.405625 20.6552 
L 285.985625 20.6552 
L 291.565625 20.6552 
L 297.145625 20.6552 
L 302.725625 20.6552 
L 308.305625 20.6552 
L 313.885625 20.6552 
L 319.465625 20.6552 
L 325.045625 20.6552 
L 330.625625 20.6552 
L 336.205625 20.6552 
L 341.785625 20.6552 
L 347.365625 20.6552 
L 352.945625 20.6552 
L 358.525625 20.6552 
L 364.105625 20.6552 
L 369.685625 20.6552 
L 375.265625 20.6552 
L 380.845625 20.6552 
L 386.425625 20.6552 
L 392.005625 20.6552 
L 397.585625 20.6552 
" clip-path="url(#p2ccfc77ec0)" style="fill: none; stroke: #bcbd22; stroke-opacity: 0.1; stroke-width: 1.5; stroke-linecap: square"/>
   </g>
   <g id="line2d_26">
    <path d="M 68.365625 89.3315 
L 73.945625 72.162425 
L 79.525625 62.62405 
L 85.105625 45.454975 
L 90.685625 38.587345 
L 96.265625 30.956645 
L 101.845625 25.23362 
L 107.425625 20.6552 
L 113.005625 20.6552 
L 118.585625 20.6552 
L 124.165625 20.6552 
L 129.745625 20.6552 
L 135.325625 20.6552 
L 140.905625 20.6552 
L 146.485625 20.6552 
L 152.065625 20.6552 
L 157.645625 20.6552 
L 163.225625 20.6552 
L 168.805625 20.6552 
L 174.385625 20.6552 
L 179.965625 20.6552 
L 185.545625 20.6552 
L 191.125625 20.6552 
L 196.705625 20.6552 
L 202.285625 20.6552 
L 207.865625 20.6552 
L 213.445625 20.6552 
L 219.025625 20.6552 
L 224.605625 20.6552 
L 230.185625 20.6552 
L 235.765625 20.6552 
L 241.345625 20.6552 
L 246.925625 20.6552 
L 252.505625 20.6552 
L 258.085625 20.6552 
L 263.665625 20.6552 
L 269.245625 20.6552 
L 274.825625 20.6552 
L 280.405625 20.6552 
L 285.985625 20.6552 
L 291.565625 20.6552 
L 297.145625 20.6552 
L 302.725625 20.6552 
L 308.305625 20.6552 
L 313.885625 20.6552 
L 319.465625 20.6552 
L 325.045625 20.6552 
L 330.625625 20.6552 
L 336.205625 20.6552 
L 341.785625 20.6552 
L 347.365625 20.6552 
L 352.945625 20.6552 
L 358.525625 20.6552 
L 364.105625 20.6552 
L 369.685625 20.6552 
L 375.265625 20.6552 
L 380.845625 20.6552 
L 386.425625 20.6552 
L 392.005625 20.6552 
L 397.585625 20.6552 
" clip-path="url(#p2ccfc77ec0)" style="fill: none; stroke: #17becf; stroke-opacity: 0.1; stroke-width: 1.5; stroke-linecap: square"/>
   </g>
   <g id="line2d_27">
    <path d="M 68.365625 158.0078 
L 73.945625 123.66965 
L 79.525625 104.5929 
L 85.105625 70.25475 
L 90.685625 56.51949 
L 96.265625 41.25809 
L 101.845625 29.81204 
L 107.425625 20.6552 
L 113.005625 20.6552 
L 118.585625 20.6552 
L 124.165625 20.6552 
L 129.745625 20.6552 
L 135.325625 20.6552 
L 140.905625 20.6552 
L 146.485625 20.6552 
L 152.065625 20.6552 
L 157.645625 20.6552 
L 163.225625 20.6552 
L 168.805625 20.6552 
L 174.385625 20.6552 
L 179.965625 20.6552 
L 185.545625 20.6552 
L 191.125625 20.6552 
L 196.705625 20.6552 
L 202.285625 20.6552 
L 207.865625 20.6552 
L 213.445625 20.6552 
L 219.025625 20.6552 
L 224.605625 20.6552 
L 230.185625 20.6552 
L 235.765625 20.6552 
L 241.345625 20.6552 
L 246.925625 20.6552 
L 252.505625 20.6552 
L 258.085625 20.6552 
L 263.665625 20.6552 
L 269.245625 20.6552 
L 274.825625 20.6552 
L 280.405625 20.6552 
L 285.985625 20.6552 
L 291.565625 20.6552 
L 297.145625 20.6552 
L 302.725625 20.6552 
L 308.305625 20.6552 
L 313.885625 20.6552 
L 319.465625 20.6552 
L 325.045625 20.6552 
L 330.625625 20.6552 
L 336.205625 20.6552 
L 341.785625 20.6552 
L 347.365625 20.6552 
L 352.945625 20.6552 
L 358.525625 20.6552 
L 364.105625 20.6552 
L 369.685625 20.6552 
L 375.265625 20.6552 
L 380.845625 20.6552 
L 386.425625 20.6552 
L 392.005625 20.6552 
L 397.585625 20.6552 
" clip-path="url(#p2ccfc77ec0)" style="fill: none; stroke: #1f77b4; stroke-opacity: 0.1; stroke-width: 1.5; stroke-linecap: square"/>
   </g>
   <g id="line2d_28">
    <path d="M 68.365625 186.10895 
L 73.945625 161.914587 
L 79.525625 140.842575 
L 85.105625 105.202162 
L 90.685625 81.789157 
L 96.265625 60.353127 
L 101.845625 40.84229 
L 107.425625 25.23362 
L 113.005625 20.6552 
L 118.585625 20.6552 
L 124.165625 20.6552 
L 129.745625 20.6552 
L 135.325625 20.6552 
L 140.905625 20.6552 
L 146.485625 20.6552 
L 152.065625 20.6552 
L 157.645625 20.6552 
L 163.225625 20.6552 
L 168.805625 20.6552 
L 174.385625 20.6552 
L 179.965625 20.6552 
L 185.545625 20.6552 
L 191.125625 20.6552 
L 196.705625 20.6552 
L 202.285625 20.6552 
L 207.865625 20.6552 
L 213.445625 20.6552 
L 219.025625 20.6552 
L 224.605625 20.6552 
L 230.185625 20.6552 
L 235.765625 20.6552 
L 241.345625 20.6552 
L 246.925625 20.6552 
L 252.505625 20.6552 
L 258.085625 20.6552 
L 263.665625 20.6552 
L 269.245625 20.6552 
L 274.825625 20.6552 
L 280.405625 20.6552 
L 285.985625 20.6552 
L 291.565625 20.6552 
L 297.145625 20.6552 
L 302.725625 20.6552 
L 308.305625 20.6552 
L 313.885625 20.6552 
L 319.465625 20.6552 
L 325.045625 20.6552 
L 330.625625 20.6552 
L 336.205625 20.6552 
L 341.785625 20.6552 
L 347.365625 20.6552 
L 352.945625 20.6552 
L 358.525625 20.6552 
L 364.105625 20.6552 
L 369.685625 20.6552 
L 375.265625 20.6552 
L 380.845625 20.6552 
L 386.425625 20.6552 
L 392.005625 20.6552 
L 397.585625 20.6552 
" clip-path="url(#p2ccfc77ec0)" style="fill: none; stroke: #ff7f0e; stroke-opacity: 0.1; stroke-width: 1.5; stroke-linecap: square"/>
   </g>
   <g id="line2d_29">
    <path d="M 68.365625 89.3315 
L 73.945625 72.162425 
L 79.525625 62.62405 
L 85.105625 45.454975 
L 90.685625 38.587345 
L 96.265625 30.956645 
L 101.845625 25.23362 
L 107.425625 20.6552 
L 113.005625 20.6552 
L 118.585625 20.6552 
L 124.165625 20.6552 
L 129.745625 20.6552 
L 135.325625 20.6552 
L 140.905625 20.6552 
L 146.485625 20.6552 
L 152.065625 20.6552 
L 157.645625 20.6552 
L 163.225625 20.6552 
L 168.805625 20.6552 
L 174.385625 20.6552 
L 179.965625 20.6552 
L 185.545625 20.6552 
L 191.125625 20.6552 
L 196.705625 20.6552 
L 202.285625 20.6552 
L 207.865625 20.6552 
L 213.445625 20.6552 
L 219.025625 20.6552 
L 224.605625 20.6552 
L 230.185625 20.6552 
L 235.765625 20.6552 
L 241.345625 20.6552 
L 246.925625 20.6552 
L 252.505625 20.6552 
L 258.085625 20.6552 
L 263.665625 20.6552 
L 269.245625 20.6552 
L 274.825625 20.6552 
L 280.405625 20.6552 
L 285.985625 20.6552 
L 291.565625 20.6552 
L 297.145625 20.6552 
L 302.725625 20.6552 
L 308.305625 20.6552 
L 313.885625 20.6552 
L 319.465625 20.6552 
L 325.045625 20.6552 
L 330.625625 20.6552 
L 336.205625 20.6552 
L 341.785625 20.6552 
L 347.365625 20.6552 
L 352.945625 20.6552 
L 358.525625 20.6552 
L 364.105625 20.6552 
L 369.685625 20.6552 
L 375.265625 20.6552 
L 380.845625 20.6552 
L 386.425625 20.6552 
L 392.005625 20.6552 
L 397.585625 20.6552 
" clip-path="url(#p2ccfc77ec0)" style="fill: none; stroke: #2ca02c; stroke-opacity: 0.1; stroke-width: 1.5; stroke-linecap: square"/>
   </g>
   <g id="line2d_30">
    <path d="M 68.365625 20.6552 
L 73.945625 20.6552 
L 79.525625 20.6552 
L 85.105625 20.6552 
L 90.685625 20.6552 
L 96.265625 20.6552 
L 101.845625 20.6552 
L 107.425625 20.6552 
L 113.005625 20.6552 
L 118.585625 20.6552 
L 124.165625 20.6552 
L 129.745625 20.6552 
L 135.325625 20.6552 
L 140.905625 20.6552 
L 146.485625 20.6552 
L 152.065625 20.6552 
L 157.645625 20.6552 
L 163.225625 20.6552 
L 168.805625 20.6552 
L 174.385625 20.6552 
L 179.965625 20.6552 
L 185.545625 20.6552 
L 191.125625 20.6552 
L 196.705625 20.6552 
L 202.285625 20.6552 
L 207.865625 20.6552 
L 213.445625 20.6552 
L 219.025625 20.6552 
L 224.605625 20.6552 
L 230.185625 20.6552 
L 235.765625 20.6552 
L 241.345625 20.6552 
L 246.925625 20.6552 
L 252.505625 20.6552 
L 258.085625 20.6552 
L 263.665625 20.6552 
L 269.245625 20.6552 
L 274.825625 20.6552 
L 280.405625 20.6552 
L 285.985625 20.6552 
L 291.565625 20.6552 
L 297.145625 20.6552 
L 302.725625 20.6552 
L 308.305625 20.6552 
L 313.885625 20.6552 
L 319.465625 20.6552 
L 325.045625 20.6552 
L 330.625625 20.6552 
L 336.205625 20.6552 
L 341.785625 20.6552 
L 347.365625 20.6552 
L 352.945625 20.6552 
L 358.525625 20.6552 
L 364.105625 20.6552 
L 369.685625 20.6552 
L 375.265625 20.6552 
L 380.845625 20.6552 
L 386.425625 20.6552 
L 392.005625 20.6552 
L 397.585625 20.6552 
" clip-path="url(#p2ccfc77ec0)" style="fill: none; stroke: #ffa500; stroke-opacity: 0.6; stroke-width: 1.5; stroke-linecap: square"/>
   </g>
   <g id="line2d_31">
    <path d="M 68.365625 186.10895 
L 73.945625 161.914587 
L 79.525625 140.842575 
L 85.105625 105.202162 
L 90.685625 92.38378 
L 96.265625 75.59624 
L 101.845625 61.86098 
L 107.425625 43.5473 
L 113.005625 29.81204 
L 118.585625 20.6552 
L 124.165625 20.6552 
L 129.745625 20.6552 
L 135.325625 20.6552 
L 140.905625 20.6552 
L 146.485625 20.6552 
L 152.065625 20.6552 
L 157.645625 20.6552 
L 163.225625 20.6552 
L 168.805625 20.6552 
L 174.385625 20.6552 
L 179.965625 20.6552 
L 185.545625 20.6552 
L 191.125625 20.6552 
L 196.705625 20.6552 
L 202.285625 20.6552 
L 207.865625 20.6552 
L 213.445625 20.6552 
L 219.025625 20.6552 
L 224.605625 20.6552 
L 230.185625 20.6552 
L 235.765625 20.6552 
L 241.345625 20.6552 
L 246.925625 20.6552 
L 252.505625 20.6552 
L 258.085625 20.6552 
L 263.665625 20.6552 
L 269.245625 20.6552 
L 274.825625 20.6552 
L 280.405625 20.6552 
L 285.985625 20.6552 
L 291.565625 20.6552 
L 297.145625 20.6552 
L 302.725625 20.6552 
L 308.305625 20.6552 
L 313.885625 20.6552 
L 319.465625 20.6552 
L 325.045625 20.6552 
L 330.625625 20.6552 
L 336.205625 20.6552 
L 341.785625 20.6552 
L 347.365625 20.6552 
L 352.945625 20.6552 
L 358.525625 20.6552 
L 364.105625 20.6552 
L 369.685625 20.6552 
L 375.265625 20.6552 
L 380.845625 20.6552 
L 386.425625 20.6552 
L 392.005625 20.6552 
L 397.585625 20.6552 
" clip-path="url(#p2ccfc77ec0)" style="fill: none; stroke: #00ffff; stroke-opacity: 0.6; stroke-width: 1.5; stroke-linecap: square"/>
   </g>
   <g id="line2d_32">
    <path d="M 68.365625 104.449562 
L 73.945625 87.463065 
L 79.525625 77.439146 
L 85.105625 58.691719 
L 90.685625 49.431818 
L 96.265625 38.947379 
L 101.845625 30.467725 
L 107.425625 23.120503 
L 113.005625 21.359572 
L 118.585625 20.6552 
L 124.165625 20.6552 
L 129.745625 20.6552 
L 135.325625 20.6552 
L 140.905625 20.6552 
L 146.485625 20.6552 
L 152.065625 20.6552 
L 157.645625 20.6552 
L 163.225625 20.6552 
L 168.805625 20.6552 
L 174.385625 20.6552 
L 179.965625 20.6552 
L 185.545625 20.6552 
L 191.125625 20.6552 
L 196.705625 20.6552 
L 202.285625 20.6552 
L 207.865625 20.6552 
L 213.445625 20.6552 
L 219.025625 20.6552 
L 224.605625 20.6552 
L 230.185625 20.6552 
L 235.765625 20.6552 
L 241.345625 20.6552 
L 246.925625 20.6552 
L 252.505625 20.6552 
L 258.085625 20.6552 
L 263.665625 20.6552 
L 269.245625 20.6552 
L 274.825625 20.6552 
L 280.405625 20.6552 
L 285.985625 20.6552 
L 291.565625 20.6552 
L 297.145625 20.6552 
L 302.725625 20.6552 
L 308.305625 20.6552 
L 313.885625 20.6552 
L 319.465625 20.6552 
L 325.045625 20.6552 
L 330.625625 20.6552 
L 336.205625 20.6552 
L 341.785625 20.6552 
L 347.365625 20.6552 
L 352.945625 20.6552 
L 358.525625 20.6552 
L 364.105625 20.6552 
L 369.685625 20.6552 
L 375.265625 20.6552 
L 380.845625 20.6552 
L 386.425625 20.6552 
L 392.005625 20.6552 
L 397.585625 20.6552 
" clip-path="url(#p2ccfc77ec0)" style="fill: none; stroke: #ff0000; stroke-width: 2; stroke-linecap: square"/>
   </g>
   <g id="patch_3">
    <path d="M 68.365625 289.955 
L 68.365625 12.755 
" style="fill: none; stroke: #000000; stroke-width: 0.8; stroke-linejoin: miter; stroke-linecap: square"/>
   </g>
   <g id="patch_4">
    <path d="M 403.165625 289.955 
L 403.165625 12.755 
" style="fill: none; stroke: #000000; stroke-width: 0.8; stroke-linejoin: miter; stroke-linecap: square"/>
   </g>
   <g id="patch_5">
    <path d="M 68.365625 289.955 
L 403.165625 289.955 
" style="fill: none; stroke: #000000; stroke-width: 0.8; stroke-linejoin: miter; stroke-linecap: square"/>
   </g>
   <g id="patch_6">
    <path d="M 68.365625 12.755 
L 403.165625 12.755 
" style="fill: none; stroke: #000000; stroke-width: 0.8; stroke-linejoin: miter; stroke-linecap: square"/>
   </g>
  </g>
  <g id="axes_2">
   <g id="PolyCollection_2">
    <defs>
     <path id="m929ddbf212" d="M 68.365625 -68.153825 
L 68.365625 -50.898125 
L 73.945625 -54.68075 
L 79.525625 -56.235508 
L 85.105625 -61.095748 
L 90.685625 -65.652762 
L 96.265625 -74.007057 
L 101.845625 -83.668709 
L 107.425625 -95.718593 
L 113.005625 -107.743529 
L 118.585625 -120.390317 
L 124.165625 -132.404781 
L 129.745625 -145.583177 
L 135.325625 -158.778205 
L 140.905625 -170.766489 
L 146.485625 -179.680933 
L 152.065625 -186.042673 
L 157.645625 -187.706489 
L 163.225625 -187.357833 
L 168.805625 -187.011641 
L 174.385625 -187.276213 
L 179.965625 -187.589757 
L 185.545625 -188.515297 
L 191.125625 -188.741677 
L 196.705625 -188.313095 
L 202.285625 -188.501437 
L 207.865625 -188.244257 
L 213.445625 -187.539245 
L 219.025625 -187.247877 
L 224.605625 -187.140077 
L 230.185625 -187.457933 
L 235.765625 -187.740677 
L 241.345625 -188.551333 
L 246.925625 -188.201137 
L 252.505625 -188.278445 
L 258.085625 -188.119825 
L 263.665625 -188.193129 
L 269.245625 -188.319717 
L 274.825625 -188.586753 
L 280.405625 -188.227009 
L 285.985625 -188.448153 
L 291.565625 -188.109661 
L 297.145625 -188.397333 
L 302.725625 -188.136149 
L 308.305625 -188.494353 
L 313.885625 -188.122597 
L 319.465625 -188.080709 
L 325.045625 -188.172493 
L 330.625625 -188.230705 
L 336.205625 -188.195285 
L 341.785625 -188.146621 
L 347.365625 -188.180501 
L 352.945625 -188.010485 
L 358.525625 -188.116437 
L 364.105625 -187.984921 
L 369.685625 -188.104117 
L 375.265625 -188.083481 
L 380.845625 -188.177729 
L 386.425625 -188.143541 
L 392.005625 -188.102269 
L 397.585625 -188.133993 
L 397.585625 -190.474485 
L 397.585625 -190.474485 
L 392.005625 -190.817289 
L 386.425625 -191.179189 
L 380.845625 -190.931557 
L 375.265625 -190.624481 
L 369.685625 -190.841005 
L 364.105625 -191.077241 
L 358.525625 -190.735977 
L 352.945625 -190.453233 
L 347.365625 -190.614317 
L 341.785625 -190.962973 
L 336.205625 -190.764005 
L 330.625625 -190.491733 
L 325.045625 -190.702405 
L 319.465625 -190.975909 
L 313.885625 -190.630025 
L 308.305625 -190.565961 
L 302.725625 -190.729509 
L 297.145625 -190.961125 
L 291.565625 -190.777557 
L 285.985625 -190.431981 
L 280.405625 -190.217613 
L 274.825625 -190.542553 
L 269.245625 -190.865645 
L 263.665625 -190.986997 
L 258.085625 -190.671913 
L 252.505625 -190.971905 
L 246.925625 -190.804969 
L 241.345625 -190.469865 
L 235.765625 -190.184349 
L 230.185625 -189.953657 
L 224.605625 -190.192049 
L 219.025625 -190.483109 
L 213.445625 -190.767085 
L 207.865625 -190.771397 
L 202.285625 -190.858561 
L 196.705625 -191.196745 
L 191.125625 -191.586057 
L 185.545625 -191.338733 
L 179.965625 -191.080013 
L 174.385625 -190.786489 
L 168.805625 -190.515141 
L 163.225625 -190.460317 
L 157.645625 -190.656513 
L 152.065625 -190.977757 
L 146.485625 -191.320253 
L 140.905625 -191.028269 
L 135.325625 -188.793421 
L 129.745625 -182.246265 
L 124.165625 -171.395425 
L 118.585625 -156.252297 
L 113.005625 -139.169385 
L 107.425625 -122.804421 
L 101.845625 -107.117673 
L 96.265625 -97.264599 
L 90.685625 -90.380388 
L 85.105625 -85.530158 
L 79.525625 -78.115058 
L 73.945625 -74.390825 
L 68.365625 -68.153825 
z
" style="stroke: #ff0000; stroke-opacity: 0.3"/>
    </defs>
    <g clip-path="url(#p2ccfc77ec0)">
     <use xlink:href="#m929ddbf212" x="0" y="340.853125" style="fill: #ff0000; fill-opacity: 0.3; stroke: #ff0000; stroke-opacity: 0.3"/>
    </g>
   </g>
   <g id="matplotlib.axis_3">
    <g id="ytick_10">
     <g id="line2d_33">
      <defs>
       <path id="m932eaa60de" d="M 0 0 
L 3.5 0 
" style="stroke: #000000; stroke-width: 0.8"/>
      </defs>
      <g>
       <use xlink:href="#m932eaa60de" x="403.165625" y="289.955" style="stroke: #000000; stroke-width: 0.8"/>
      </g>
     </g>
     <g id="text_19">
      <!-- 0 -->
      <g transform="translate(410.165625 295.51) scale(0.16 -0.16)">
       <use xlink:href="#TimesNewRomanPSMT-30"/>
      </g>
     </g>
    </g>
    <g id="ytick_11">
     <g id="line2d_34">
      <g>
       <use xlink:href="#m932eaa60de" x="403.165625" y="243.755" style="stroke: #000000; stroke-width: 0.8"/>
      </g>
     </g>
     <g id="text_20">
      <!-- 10 -->
      <g transform="translate(410.165625 249.31) scale(0.16 -0.16)">
       <use xlink:href="#TimesNewRomanPSMT-31"/>
       <use xlink:href="#TimesNewRomanPSMT-30" x="50"/>
      </g>
     </g>
    </g>
    <g id="ytick_12">
     <g id="line2d_35">
      <g>
       <use xlink:href="#m932eaa60de" x="403.165625" y="197.555" style="stroke: #000000; stroke-width: 0.8"/>
      </g>
     </g>
     <g id="text_21">
      <!-- 20 -->
      <g transform="translate(410.165625 203.11) scale(0.16 -0.16)">
       <use xlink:href="#TimesNewRomanPSMT-32"/>
       <use xlink:href="#TimesNewRomanPSMT-30" x="50"/>
      </g>
     </g>
    </g>
    <g id="ytick_13">
     <g id="line2d_36">
      <g>
       <use xlink:href="#m932eaa60de" x="403.165625" y="151.355" style="stroke: #000000; stroke-width: 0.8"/>
      </g>
     </g>
     <g id="text_22">
      <!-- 30 -->
      <g transform="translate(410.165625 156.91) scale(0.16 -0.16)">
       <use xlink:href="#TimesNewRomanPSMT-33"/>
       <use xlink:href="#TimesNewRomanPSMT-30" x="50"/>
      </g>
     </g>
    </g>
    <g id="ytick_14">
     <g id="line2d_37">
      <g>
       <use xlink:href="#m932eaa60de" x="403.165625" y="105.155" style="stroke: #000000; stroke-width: 0.8"/>
      </g>
     </g>
     <g id="text_23">
      <!-- 40 -->
      <g transform="translate(410.165625 110.71) scale(0.16 -0.16)">
       <use xlink:href="#TimesNewRomanPSMT-34"/>
       <use xlink:href="#TimesNewRomanPSMT-30" x="50"/>
      </g>
     </g>
    </g>
    <g id="ytick_15">
     <g id="line2d_38">
      <g>
       <use xlink:href="#m932eaa60de" x="403.165625" y="58.955" style="stroke: #000000; stroke-width: 0.8"/>
      </g>
     </g>
     <g id="text_24">
      <!-- 50 -->
      <g transform="translate(410.165625 64.51) scale(0.16 -0.16)">
       <use xlink:href="#TimesNewRomanPSMT-35"/>
       <use xlink:href="#TimesNewRomanPSMT-30" x="50"/>
      </g>
     </g>
    </g>
    <g id="ytick_16">
     <g id="line2d_39">
      <g>
       <use xlink:href="#m932eaa60de" x="403.165625" y="12.755" style="stroke: #000000; stroke-width: 0.8"/>
      </g>
     </g>
     <g id="text_25">
      <!-- 60 -->
      <g transform="translate(410.165625 18.31) scale(0.16 -0.16)">
       <use xlink:href="#TimesNewRomanPSMT-36"/>
       <use xlink:href="#TimesNewRomanPSMT-30" x="50"/>
      </g>
     </g>
    </g>
   </g>
   <g id="line2d_40">
    <path d="M 68.365625 282.01784 
L 73.945625 280.734635 
L 79.525625 278.51665 
L 85.105625 273.076215 
L 90.685625 265.896581 
L 96.265625 256.476709 
L 101.845625 244.63742 
L 107.425625 230.784196 
L 113.005625 216.956536 
L 118.585625 203.669416 
L 124.165625 190.3786 
L 129.745625 177.71364 
L 135.325625 166.89514 
L 140.905625 159.10582 
L 146.485625 154.411284 
L 152.065625 152.267296 
L 157.645625 151.953444 
L 163.225625 151.62912 
L 168.805625 151.286624 
L 174.385625 150.413444 
L 179.965625 150.143636 
L 185.545625 149.884916 
L 191.125625 150.232032 
L 196.705625 150.59424 
L 202.285625 151.548116 
L 207.865625 152.419756 
L 213.445625 153.31388 
L 219.025625 153.605248 
L 224.605625 153.362852 
L 230.185625 152.402508 
L 235.765625 151.444012 
L 241.345625 150.476584 
L 246.925625 150.203388 
L 252.505625 149.88122 
L 258.085625 150.181212 
L 263.665625 149.866128 
L 269.245625 150.191068 
L 274.825625 150.436544 
L 280.405625 151.26106 
L 285.985625 151.49668 
L 291.565625 151.81392 
L 297.145625 152.169044 
L 302.725625 152.522628 
L 308.305625 152.261752 
L 313.885625 151.995948 
L 319.465625 151.730144 
L 325.045625 151.38272 
L 330.625625 150.428536 
L 336.205625 150.08912 
L 341.785625 150.460876 
L 347.365625 151.361468 
L 352.945625 151.645752 
L 358.525625 151.9094 
L 364.105625 152.25436 
L 369.685625 152.504764 
L 375.265625 152.145328 
L 380.845625 151.7862 
L 386.425625 152.136088 
L 392.005625 152.485668 
L 397.585625 152.226948 
" clip-path="url(#p2ccfc77ec0)" style="fill: none; stroke: #1f77b4; stroke-opacity: 0.1; stroke-width: 1.5; stroke-linecap: square"/>
   </g>
   <g id="line2d_41">
    <path d="M 68.365625 289.955 
L 73.945625 286.172375 
L 79.525625 284.617617 
L 85.105625 279.757377 
L 90.685625 275.200363 
L 96.265625 266.846068 
L 101.845625 257.184416 
L 107.425625 245.134532 
L 113.005625 233.109596 
L 118.585625 220.462808 
L 124.165625 208.448344 
L 129.745625 195.269948 
L 135.325625 182.07492 
L 140.905625 170.086636 
L 146.485625 161.172192 
L 152.065625 154.705424 
L 157.645625 151.316808 
L 163.225625 150.392808 
L 168.805625 150.721444 
L 174.385625 151.06548 
L 179.965625 151.420912 
L 185.545625 151.74924 
L 191.125625 151.39196 
L 196.705625 151.036528 
L 202.285625 150.7005 
L 207.865625 150.421452 
L 213.445625 150.08604 
L 219.025625 150.370016 
L 224.605625 150.661076 
L 230.185625 150.929036 
L 235.765625 151.12862 
L 241.345625 151.94482 
L 246.925625 152.224792 
L 252.505625 152.57468 
L 258.085625 152.309492 
L 263.665625 152.659996 
L 269.245625 152.3945 
L 274.825625 152.130544 
L 280.405625 151.190528 
L 285.985625 150.864972 
L 291.565625 150.537876 
L 297.145625 150.887148 
L 302.725625 151.21024 
L 308.305625 152.130236 
L 313.885625 152.436388 
L 319.465625 152.772416 
L 325.045625 152.510616 
L 330.625625 152.23742 
L 336.205625 151.34422 
L 341.785625 151.068868 
L 347.365625 150.802756 
L 352.945625 150.519088 
L 358.525625 150.192916 
L 364.105625 150.482436 
L 369.685625 150.790744 
L 375.265625 151.057472 
L 380.845625 151.263832 
L 386.425625 152.085884 
L 392.005625 152.375712 
L 397.585625 152.719132 
" clip-path="url(#p2ccfc77ec0)" style="fill: none; stroke: #ff7f0e; stroke-opacity: 0.1; stroke-width: 1.5; stroke-linecap: square"/>
   </g>
   <g id="line2d_42">
    <path d="M 68.365625 275.1017 
L 73.945625 273.91898 
L 79.525625 270.729127 
L 85.105625 265.317952 
L 90.685625 259.3061 
L 96.265625 252.688617 
L 101.845625 243.908692 
L 107.425625 233.107132 
L 113.005625 222.31512 
L 118.585625 210.903412 
L 124.165625 198.916052 
L 129.745625 186.307148 
L 135.325625 175.50682 
L 140.905625 165.922784 
L 146.485625 159.421828 
L 152.065625 154.810452 
L 157.645625 152.666772 
L 163.225625 151.15634 
L 168.805625 150.880372 
L 174.385625 150.616416 
L 179.965625 150.891768 
L 185.545625 151.115992 
L 191.125625 151.36578 
L 196.705625 151.082112 
L 202.285625 150.762716 
L 207.865625 150.427304 
L 213.445625 150.708508 
L 219.025625 151.046076 
L 224.605625 151.906628 
L 230.185625 152.175512 
L 235.765625 152.458564 
L 241.345625 152.204464 
L 246.925625 152.457024 
L 252.505625 152.15888 
L 258.085625 152.452404 
L 263.665625 152.210624 
L 269.245625 152.533408 
L 274.825625 152.266372 
L 280.405625 152.56236 
L 285.985625 152.242656 
L 291.565625 151.926032 
L 297.145625 150.966612 
L 302.725625 150.62812 
L 308.305625 150.287164 
L 313.885625 150.643828 
L 319.465625 150.972772 
L 325.045625 151.919872 
L 330.625625 152.254052 
L 336.205625 152.619032 
L 341.785625 152.335056 
L 347.365625 152.607328 
L 352.945625 152.258056 
L 358.525625 152.553736 
L 364.105625 152.28516 
L 369.685625 152.585768 
L 375.265625 152.270992 
L 380.845625 151.968536 
L 386.425625 151.095356 
L 392.005625 150.759636 
L 397.585625 150.414984 
" clip-path="url(#p2ccfc77ec0)" style="fill: none; stroke: #2ca02c; stroke-opacity: 0.1; stroke-width: 1.5; stroke-linecap: square"/>
   </g>
   <g id="line2d_43">
    <path d="M 68.365625 275.06474 
L 73.945625 276.195485 
L 79.525625 274.29089 
L 85.105625 269.69938 
L 90.685625 262.800026 
L 96.265625 254.194506 
L 101.845625 242.82022 
L 107.425625 227.712512 
L 113.005625 212.570924 
L 118.585625 197.439192 
L 124.165625 183.578268 
L 129.745625 170.896984 
L 135.325625 162.497516 
L 140.905625 156.59716 
L 146.485625 153.825468 
L 152.065625 152.302716 
L 157.645625 152.619032 
L 163.225625 152.356 
L 168.805625 152.666772 
L 174.385625 152.36524 
L 179.965625 151.98024 
L 185.545625 151.023284 
L 191.125625 150.676476 
L 196.705625 150.413752 
L 202.285625 150.679556 
L 207.865625 150.949672 
L 213.445625 151.829936 
L 219.025625 152.183212 
L 224.605625 152.455792 
L 230.185625 152.114836 
L 235.765625 152.383104 
L 241.345625 152.117916 
L 246.925625 152.46842 
L 252.505625 152.210624 
L 258.085625 152.570676 
L 263.665625 152.3175 
L 269.245625 152.061552 
L 274.825625 151.143404 
L 280.405625 150.83294 
L 285.985625 150.515392 
L 291.565625 150.242196 
L 297.145625 149.892 
L 302.725625 150.123616 
L 308.305625 150.350304 
L 313.885625 150.662308 
L 319.465625 150.979856 
L 325.045625 151.918024 
L 330.625625 152.242348 
L 336.205625 152.607636 
L 341.785625 152.279308 
L 347.365625 152.520164 
L 352.945625 152.134548 
L 358.525625 152.439468 
L 364.105625 152.088656 
L 369.685625 152.355384 
L 375.265625 152.005804 
L 380.845625 152.361236 
L 386.425625 152.100052 
L 392.005625 151.905396 
L 397.585625 151.090736 
" clip-path="url(#p2ccfc77ec0)" style="fill: none; stroke: #d62728; stroke-opacity: 0.1; stroke-width: 1.5; stroke-linecap: square"/>
   </g>
   <g id="line2d_44">
    <path d="M 68.365625 275.25416 
L 73.945625 274.035635 
L 79.525625 272.879737 
L 85.105625 268.967752 
L 90.685625 264.180354 
L 96.265625 255.526683 
L 101.845625 244.000476 
L 107.425625 228.281388 
L 113.005625 211.36726 
L 118.585625 193.80356 
L 124.165625 178.11404 
L 129.745625 165.43522 
L 135.325625 157.064704 
L 140.905625 152.354768 
L 146.485625 150.766412 
L 152.065625 151.032216 
L 157.645625 151.928188 
L 163.225625 152.20816 
L 168.805625 152.51924 
L 174.385625 152.251588 
L 179.965625 151.982396 
L 185.545625 151.096896 
L 191.125625 150.824624 
L 196.705625 150.55882 
L 202.285625 150.830784 
L 207.865625 151.051928 
L 213.445625 151.882296 
L 219.025625 152.17736 
L 224.605625 152.44224 
L 230.185625 152.090504 
L 235.765625 152.349532 
L 241.345625 152.082188 
L 246.925625 152.35446 
L 252.505625 152.036296 
L 258.085625 152.329512 
L 263.665625 152.088348 
L 269.245625 152.4407 
L 274.825625 152.23588 
L 280.405625 152.626116 
L 285.985625 152.404972 
L 291.565625 152.743464 
L 297.145625 152.455792 
L 302.725625 152.716976 
L 308.305625 152.357848 
L 313.885625 152.642748 
L 319.465625 152.3637 
L 325.045625 152.650448 
L 330.625625 152.327664 
L 336.205625 152.015044 
L 341.785625 151.128004 
L 347.365625 150.781196 
L 352.945625 150.439316 
L 358.525625 150.117148 
L 364.105625 149.791284 
L 369.685625 150.01212 
L 375.265625 150.228644 
L 380.845625 149.921568 
L 386.425625 149.673936 
L 392.005625 150.035836 
L 397.585625 150.37864 
" clip-path="url(#p2ccfc77ec0)" style="fill: none; stroke: #9467bd; stroke-opacity: 0.1; stroke-width: 1.5; stroke-linecap: square"/>
   </g>
   <g id="line2d_45">
    <path d="M 68.365625 272.6993 
L 73.945625 266.4623 
L 79.525625 262.738067 
L 85.105625 255.322967 
L 90.685625 250.472737 
L 96.265625 243.588526 
L 101.845625 234.858882 
L 107.425625 224.135708 
L 113.005625 213.228196 
L 118.585625 201.642622 
L 124.165625 189.197266 
L 129.745625 177.735046 
L 135.325625 167.649432 
L 140.905625 159.880748 
L 146.485625 153.996408 
L 152.065625 151.115068 
L 157.645625 150.196612 
L 163.225625 150.594548 
L 168.805625 151.059628 
L 174.385625 151.604634 
L 179.965625 151.534256 
L 185.545625 151.308646 
L 191.125625 150.879294 
L 196.705625 150.988018 
L 202.285625 151.053468 
L 207.865625 151.732146 
L 213.445625 152.037836 
L 219.025625 152.467188 
L 224.605625 152.277152 
L 230.185625 152.542648 
L 235.765625 152.280232 
L 241.345625 152.017816 
L 246.925625 151.135088 
L 252.505625 150.866512 
L 258.085625 150.600092 
L 263.665625 150.33244 
L 269.245625 149.98748 
L 274.825625 150.310572 
L 280.405625 150.635512 
L 285.985625 150.421144 
L 291.565625 150.075568 
L 297.145625 150.346608 
L 302.725625 150.572988 
L 308.305625 150.880064 
L 313.885625 151.103672 
L 319.465625 151.989172 
L 325.045625 152.266372 
L 330.625625 152.62242 
L 336.205625 152.361236 
L 341.785625 152.706504 
L 347.365625 152.4715 
L 352.945625 152.84264 
L 358.525625 152.602708 
L 364.105625 152.868204 
L 369.685625 152.529096 
L 375.265625 152.769644 
L 380.845625 152.474888 
L 386.425625 152.709584 
L 392.005625 152.359388 
L 397.585625 152.627964 
" clip-path="url(#p2ccfc77ec0)" style="fill: none; stroke: #8c564b; stroke-opacity: 0.1; stroke-width: 1.5; stroke-linecap: square"/>
   </g>
   <g id="line2d_46">
    <path d="M 68.365625 277.42556 
L 73.945625 276.295392 
L 79.525625 273.331598 
L 85.105625 266.809506 
L 90.685625 259.413425 
L 96.265625 251.219649 
L 101.845625 241.102504 
L 107.425625 227.39404 
L 113.005625 212.416462 
L 118.585625 196.709386 
L 124.165625 181.124432 
L 129.745625 167.406574 
L 135.325625 157.961908 
L 140.905625 153.162806 
L 146.485625 151.45356 
L 152.065625 151.587078 
L 157.645625 151.878138 
L 163.225625 152.02644 
L 168.805625 151.76464 
L 174.385625 152.058164 
L 179.965625 151.90709 
L 185.545625 152.206158 
L 191.125625 152.111448 
L 196.705625 152.54003 
L 202.285625 152.351688 
L 207.865625 152.608868 
L 213.445625 152.332592 
L 219.025625 152.031368 
L 224.605625 151.158496 
L 230.185625 150.899468 
L 235.765625 150.668776 
L 241.345625 150.38326 
L 246.925625 150.048156 
L 252.505625 150.289936 
L 258.085625 150.552968 
L 263.665625 150.8699 
L 269.245625 151.162808 
L 274.825625 152.112988 
L 280.405625 152.450864 
L 285.985625 152.235572 
L 291.565625 151.275228 
L 297.145625 150.925032 
L 302.725625 150.528944 
L 308.305625 150.832324 
L 313.885625 151.055008 
L 319.465625 151.377176 
L 325.045625 151.084268 
L 330.625625 150.8699 
L 336.205625 150.536336 
L 341.785625 150.823392 
L 347.365625 151.066096 
L 352.945625 152.002724 
L 358.525625 152.251896 
L 364.105625 151.950364 
L 369.685625 151.02544 
L 375.265625 150.788588 
L 380.845625 150.4695 
L 386.425625 150.766104 
L 392.005625 151.068252 
L 397.585625 152.055392 
" clip-path="url(#p2ccfc77ec0)" style="fill: none; stroke: #e377c2; stroke-opacity: 0.1; stroke-width: 1.5; stroke-linecap: square"/>
   </g>
   <g id="line2d_47">
    <path d="M 68.365625 274.82912 
L 73.945625 271.446125 
L 79.525625 268.057997 
L 85.105625 262.025432 
L 90.685625 255.804602 
L 96.265625 246.623019 
L 101.845625 233.735452 
L 107.425625 218.048704 
L 113.005625 201.68374 
L 118.585625 185.887344 
L 124.165625 171.959892 
L 129.745625 161.709652 
L 135.325625 155.143092 
L 140.905625 151.65992 
L 146.485625 150.121152 
L 152.065625 149.875368 
L 157.645625 150.241888 
L 163.225625 150.592392 
L 168.805625 150.349072 
L 174.385625 150.088812 
L 179.965625 149.806068 
L 185.545625 149.541496 
L 191.125625 149.29448 
L 196.705625 149.661616 
L 202.285625 150.524324 
L 207.865625 151.32882 
L 213.445625 152.119764 
L 219.025625 152.372016 
L 224.605625 152.598396 
L 230.185625 152.244812 
L 235.765625 152.510308 
L 241.345625 152.242348 
L 246.925625 151.98178 
L 252.505625 151.106136 
L 258.085625 150.846184 
L 263.665625 150.58038 
L 269.245625 150.926572 
L 274.825625 151.189912 
L 280.405625 152.070792 
L 285.985625 152.34984 
L 291.565625 152.717284 
L 297.145625 152.392652 
L 302.725625 152.6717 
L 308.305625 152.358772 
L 313.885625 152.730528 
L 319.465625 152.41298 
L 325.045625 152.680632 
L 330.625625 152.338752 
L 336.205625 152.65784 
L 341.785625 152.363392 
L 347.365625 152.672624 
L 352.945625 152.3945 
L 358.525625 152.736688 
L 364.105625 152.47458 
L 369.685625 152.749008 
L 375.265625 152.404664 
L 380.845625 152.675396 
L 386.425625 152.40836 
L 392.005625 152.750856 
L 397.585625 152.476736 
" clip-path="url(#p2ccfc77ec0)" style="fill: none; stroke: #7f7f7f; stroke-opacity: 0.1; stroke-width: 1.5; stroke-linecap: square"/>
   </g>
   <g id="line2d_48">
    <path d="M 68.365625 275.39276 
L 73.945625 274.273565 
L 79.525625 272.10717 
L 85.105625 267.51797 
L 90.685625 260.886884 
L 96.265625 251.41342 
L 101.845625 238.129688 
L 107.425625 221.131784 
L 113.005625 202.253232 
L 118.585625 184.600828 
L 124.165625 169.4577 
L 129.745625 158.60686 
L 135.325625 152.059704 
L 140.905625 149.824856 
L 146.485625 149.532872 
L 152.065625 149.891692 
L 157.645625 150.25236 
L 163.225625 150.601324 
L 168.805625 150.337984 
L 174.385625 150.066636 
L 179.965625 149.773112 
L 185.545625 149.514392 
L 191.125625 149.267068 
L 196.705625 149.65638 
L 202.285625 149.994564 
L 207.865625 150.273612 
L 213.445625 150.516008 
L 219.025625 150.77134 
L 224.605625 151.002032 
L 230.185625 151.202232 
L 235.765625 152.019664 
L 241.345625 152.301792 
L 246.925625 152.651988 
L 252.505625 152.384952 
L 258.085625 152.7333 
L 263.665625 152.463492 
L 269.245625 152.19738 
L 274.825625 151.23488 
L 280.405625 150.893616 
L 285.985625 150.547732 
L 291.565625 150.286548 
L 297.145625 149.941896 
L 302.725625 150.217248 
L 308.305625 150.486132 
L 313.885625 150.2231 
L 319.465625 149.877216 
L 325.045625 150.15072 
L 330.625625 150.42022 
L 336.205625 150.155956 
L 341.785625 149.890152 
L 347.365625 150.238808 
L 352.945625 150.585924 
L 358.525625 150.317964 
L 364.105625 150.05216 
L 369.685625 150.321352 
L 375.265625 150.588696 
L 380.845625 150.856656 
L 386.425625 151.20562 
L 392.005625 152.0942 
L 397.585625 152.364316 
" clip-path="url(#p2ccfc77ec0)" style="fill: none; stroke: #bcbd22; stroke-opacity: 0.1; stroke-width: 1.5; stroke-linecap: square"/>
   </g>
   <g id="line2d_49">
    <path d="M 68.365625 275.9564 
L 73.945625 274.881095 
L 79.525625 272.77245 
L 85.105625 268.2718 
L 90.685625 261.73527 
L 96.265625 252.34281 
L 101.845625 239.143932 
L 107.425625 222.843032 
L 113.005625 205.867612 
L 118.585625 190.081688 
L 124.165625 176.16132 
L 129.745625 165.299084 
L 135.325625 158.116216 
L 140.905625 154.012424 
L 146.485625 152.449324 
L 152.065625 152.182596 
L 157.645625 153.146636 
L 163.225625 153.495292 
L 168.805625 153.841484 
L 174.385625 153.576912 
L 179.965625 153.263368 
L 185.545625 152.337828 
L 191.125625 152.027056 
L 196.705625 151.767412 
L 202.285625 152.03568 
L 207.865625 152.27284 
L 213.445625 153.124768 
L 219.025625 153.444164 
L 224.605625 153.713048 
L 230.185625 153.395192 
L 235.765625 153.112448 
L 241.345625 152.295016 
L 246.925625 152.065556 
L 252.505625 151.828396 
L 258.085625 151.59832 
L 263.665625 151.334672 
L 269.245625 151.656224 
L 274.825625 151.886608 
L 280.405625 151.556124 
L 285.985625 151.192684 
L 291.565625 151.526864 
L 297.145625 151.789896 
L 302.725625 151.510232 
L 308.305625 151.183444 
L 313.885625 150.911788 
L 319.465625 150.522784 
L 325.045625 150.152568 
L 330.625625 150.361392 
L 336.205625 150.669392 
L 341.785625 151.004496 
L 347.365625 151.370708 
L 352.945625 151.720288 
L 358.525625 151.452328 
L 364.105625 151.169584 
L 369.685625 151.4166 
L 375.265625 151.66608 
L 380.845625 151.928804 
L 386.425625 152.276228 
L 392.005625 152.546036 
L 397.585625 152.206928 
" clip-path="url(#p2ccfc77ec0)" style="fill: none; stroke: #17becf; stroke-opacity: 0.1; stroke-width: 1.5; stroke-linecap: square"/>
   </g>
   <g id="line2d_50">
    <path d="M 68.365625 282.62306 
L 73.945625 279.600425 
L 79.525625 276.655047 
L 85.105625 270.348939 
L 90.685625 263.887253 
L 96.265625 253.629672 
L 101.845625 239.887444 
L 107.425625 222.273078 
L 113.005625 204.560768 
L 118.585625 187.291516 
L 124.165625 173.299846 
L 129.745625 162.945348 
L 135.325625 157.051768 
L 140.905625 153.596932 
L 146.485625 152.662768 
L 152.065625 152.369552 
L 157.645625 152.6948 
L 163.225625 152.402508 
L 168.805625 152.728988 
L 174.385625 152.470884 
L 179.965625 152.17274 
L 185.545625 151.2549 
L 191.125625 150.953368 
L 196.705625 150.69126 
L 202.285625 150.40944 
L 207.865625 150.081728 
L 213.445625 150.368476 
L 219.025625 150.67278 
L 224.605625 150.936428 
L 230.185625 151.132624 
L 235.765625 151.948516 
L 241.345625 152.234032 
L 246.925625 152.50538 
L 252.505625 152.16196 
L 258.085625 152.440392 
L 263.665625 152.189372 
L 269.245625 152.473656 
L 274.825625 152.141016 
L 280.405625 152.421912 
L 285.985625 152.167196 
L 291.565625 152.521704 
L 297.145625 152.258364 
L 302.725625 152.611024 
L 308.305625 152.349224 
L 313.885625 152.702808 
L 319.465625 152.356616 
L 325.045625 152.626732 
L 330.625625 152.280848 
L 336.205625 152.02952 
L 341.785625 151.078108 
L 347.365625 150.744852 
L 352.945625 150.399892 
L 358.525625 150.136244 
L 364.105625 149.775884 
L 369.685625 150.034296 
L 375.265625 150.294556 
L 380.845625 150.6466 
L 386.425625 150.995872 
L 392.005625 151.960528 
L 397.585625 152.311032 
" clip-path="url(#p2ccfc77ec0)" style="fill: none; stroke: #1f77b4; stroke-opacity: 0.1; stroke-width: 1.5; stroke-linecap: square"/>
   </g>
   <g id="line2d_51">
    <path d="M 68.365625 272.6993 
L 73.945625 266.4623 
L 79.525625 262.738067 
L 85.105625 255.322967 
L 90.685625 250.472737 
L 96.265625 243.588526 
L 101.845625 233.735452 
L 107.425625 218.048704 
L 113.005625 201.68374 
L 118.585625 184.600828 
L 124.165625 169.4577 
L 129.745625 158.60686 
L 135.325625 152.059704 
L 140.905625 149.824856 
L 146.485625 149.532872 
L 152.065625 149.875368 
L 157.645625 150.196612 
L 163.225625 150.392808 
L 168.805625 150.337984 
L 174.385625 150.066636 
L 179.965625 149.773112 
L 185.545625 149.514392 
L 191.125625 149.267068 
L 196.705625 149.65638 
L 202.285625 149.994564 
L 207.865625 150.081728 
L 213.445625 150.08604 
L 219.025625 150.370016 
L 224.605625 150.661076 
L 230.185625 150.899468 
L 235.765625 150.668776 
L 241.345625 150.38326 
L 246.925625 150.048156 
L 252.505625 149.88122 
L 258.085625 150.181212 
L 263.665625 149.866128 
L 269.245625 149.98748 
L 274.825625 150.310572 
L 280.405625 150.635512 
L 285.985625 150.421144 
L 291.565625 150.075568 
L 297.145625 149.892 
L 302.725625 150.123616 
L 308.305625 150.287164 
L 313.885625 150.2231 
L 319.465625 149.877216 
L 325.045625 150.15072 
L 330.625625 150.361392 
L 336.205625 150.08912 
L 341.785625 149.890152 
L 347.365625 150.238808 
L 352.945625 150.399892 
L 358.525625 150.117148 
L 364.105625 149.775884 
L 369.685625 150.01212 
L 375.265625 150.228644 
L 380.845625 149.921568 
L 386.425625 149.673936 
L 392.005625 150.035836 
L 397.585625 150.37864 
" clip-path="url(#p2ccfc77ec0)" style="fill: none; stroke: #ffa500; stroke-opacity: 0.6; stroke-width: 1.5; stroke-linecap: square"/>
   </g>
   <g id="line2d_52">
    <path d="M 68.365625 289.955 
L 73.945625 286.172375 
L 79.525625 284.617617 
L 85.105625 279.757377 
L 90.685625 275.200363 
L 96.265625 266.846068 
L 101.845625 257.184416 
L 107.425625 245.134532 
L 113.005625 233.109596 
L 118.585625 220.462808 
L 124.165625 208.448344 
L 129.745625 195.269948 
L 135.325625 182.07492 
L 140.905625 170.086636 
L 146.485625 161.172192 
L 152.065625 154.810452 
L 157.645625 153.146636 
L 163.225625 153.495292 
L 168.805625 153.841484 
L 174.385625 153.576912 
L 179.965625 153.263368 
L 185.545625 152.337828 
L 191.125625 152.111448 
L 196.705625 152.54003 
L 202.285625 152.351688 
L 207.865625 152.608868 
L 213.445625 153.31388 
L 219.025625 153.605248 
L 224.605625 153.713048 
L 230.185625 153.395192 
L 235.765625 153.112448 
L 241.345625 152.301792 
L 246.925625 152.651988 
L 252.505625 152.57468 
L 258.085625 152.7333 
L 263.665625 152.659996 
L 269.245625 152.533408 
L 274.825625 152.266372 
L 280.405625 152.626116 
L 285.985625 152.404972 
L 291.565625 152.743464 
L 297.145625 152.455792 
L 302.725625 152.716976 
L 308.305625 152.358772 
L 313.885625 152.730528 
L 319.465625 152.772416 
L 325.045625 152.680632 
L 330.625625 152.62242 
L 336.205625 152.65784 
L 341.785625 152.706504 
L 347.365625 152.672624 
L 352.945625 152.84264 
L 358.525625 152.736688 
L 364.105625 152.868204 
L 369.685625 152.749008 
L 375.265625 152.769644 
L 380.845625 152.675396 
L 386.425625 152.709584 
L 392.005625 152.750856 
L 397.585625 152.719132 
" clip-path="url(#p2ccfc77ec0)" style="fill: none; stroke: #00ffff; stroke-opacity: 0.6; stroke-width: 1.5; stroke-linecap: square"/>
   </g>
   <g id="line2d_53">
    <path d="M 68.365625 277.84724 
L 73.945625 275.819637 
L 79.525625 273.336032 
L 85.105625 267.919572 
L 90.685625 261.780327 
L 96.265625 253.14088 
L 101.845625 241.764466 
L 107.425625 227.349646 
L 113.005625 212.393586 
L 118.585625 197.499252 
L 124.165625 183.69416 
L 129.745625 171.756864 
L 135.325625 162.91102 
L 140.905625 156.927714 
L 146.485625 153.619388 
L 152.065625 152.012678 
L 157.645625 151.717698 
L 163.225625 151.586812 
L 168.805625 151.650568 
L 174.385625 151.50711 
L 179.965625 151.352326 
L 185.545625 151.003068 
L 191.125625 150.820326 
L 196.705625 150.817288 
L 202.285625 150.990076 
L 207.865625 151.233466 
L 213.445625 151.665464 
L 219.025625 151.921888 
L 224.605625 152.04674 
L 230.185625 151.920852 
L 235.765625 152.027616 
L 241.345625 151.845476 
L 246.925625 151.826912 
L 252.505625 151.590872 
L 258.085625 151.692232 
L 263.665625 151.537532 
L 269.245625 151.638668 
L 274.825625 151.55352 
L 280.405625 151.681984 
L 285.985625 151.49444 
L 291.565625 151.424244 
L 297.145625 151.275004 
L 302.725625 151.392156 
L 308.305625 151.407024 
L 313.885625 151.555284 
L 319.465625 151.577712 
L 325.045625 151.758452 
L 330.625625 151.671232 
L 336.205625 151.553212 
L 341.785625 151.376196 
L 347.365625 151.5125 
L 352.945625 151.540248 
L 358.525625 151.519136 
L 364.105625 151.381152 
L 369.685625 151.484052 
L 375.265625 151.474588 
L 380.845625 151.486656 
L 386.425625 151.586644 
L 392.005625 151.849228 
L 397.585625 151.897528 
" clip-path="url(#p2ccfc77ec0)" style="fill: none; stroke: #0000ff; stroke-width: 2; stroke-linecap: square"/>
   </g>
   <g id="line2d_54">
    <path d="M 118.585625 289.955 
L 118.585625 12.755 
" clip-path="url(#p2ccfc77ec0)" style="fill: none; stroke-dasharray: 5.55,2.4; stroke-dashoffset: 0; stroke: #ff0000; stroke-width: 1.5"/>
   </g>
   <g id="line2d_55">
    <path d="M 146.485625 289.955 
L 146.485625 12.755 
" clip-path="url(#p2ccfc77ec0)" style="fill: none; stroke-dasharray: 5.55,2.4; stroke-dashoffset: 0; stroke: #0000ff; stroke-width: 1.5"/>
   </g>
   <g id="patch_7">
    <path d="M 68.365625 289.955 
L 68.365625 12.755 
" style="fill: none; stroke: #000000; stroke-width: 0.8; stroke-linejoin: miter; stroke-linecap: square"/>
   </g>
   <g id="patch_8">
    <path d="M 403.165625 289.955 
L 403.165625 12.755 
" style="fill: none; stroke: #000000; stroke-width: 0.8; stroke-linejoin: miter; stroke-linecap: square"/>
   </g>
   <g id="patch_9">
    <path d="M 68.365625 289.955 
L 403.165625 289.955 
" style="fill: none; stroke: #000000; stroke-width: 0.8; stroke-linejoin: miter; stroke-linecap: square"/>
   </g>
   <g id="patch_10">
    <path d="M 68.365625 12.755 
L 403.165625 12.755 
" style="fill: none; stroke: #000000; stroke-width: 0.8; stroke-linejoin: miter; stroke-linecap: square"/>
   </g>
   <g id="legend_1">
    <g id="patch_11">
     <path d="M 241.095625 116.105 
L 391.965625 116.105 
Q 395.165625 116.105 395.165625 112.905 
L 395.165625 23.955 
Q 395.165625 20.755 391.965625 20.755 
L 241.095625 20.755 
Q 237.895625 20.755 237.895625 23.955 
L 237.895625 112.905 
Q 237.895625 116.105 241.095625 116.105 
z
" style="fill: #ffffff; opacity: 0.8; stroke: #cccccc; stroke-linejoin: miter"/>
    </g>
    <g id="line2d_56">
     <path d="M 244.295625 32.755 
L 260.295625 32.755 
L 276.295625 32.755 
" style="fill: none; stroke: #ffa500; stroke-width: 1.5; stroke-linecap: square"/>
    </g>
    <g id="text_26">
     <!-- Upper Bound -->
     <g transform="translate(289.095625 38.355) scale(0.16 -0.16)">
      <defs>
       <path id="TimesNewRomanPSMT-55" d="M 3053 4122 
L 3053 4238 
L 4553 4238 
L 4553 4122 
L 4394 4122 
Q 4144 4122 4009 3913 
Q 3944 3816 3944 3463 
L 3944 1744 
Q 3944 1106 3817 754 
Q 3691 403 3320 151 
Q 2950 -100 2313 -100 
Q 1619 -100 1259 140 
Q 900 381 750 788 
Q 650 1066 650 1831 
L 650 3488 
Q 650 3878 542 4000 
Q 434 4122 194 4122 
L 34 4122 
L 34 4238 
L 1866 4238 
L 1866 4122 
L 1703 4122 
Q 1441 4122 1328 3956 
Q 1250 3844 1250 3488 
L 1250 1641 
Q 1250 1394 1295 1075 
Q 1341 756 1459 578 
Q 1578 400 1801 284 
Q 2025 169 2350 169 
Q 2766 169 3094 350 
Q 3422 531 3542 814 
Q 3663 1097 3663 1772 
L 3663 3488 
Q 3663 3884 3575 3984 
Q 3453 4122 3213 4122 
L 3053 4122 
z
" transform="scale(0.015625)"/>
       <path id="TimesNewRomanPSMT-6f" d="M 1600 2947 
Q 2250 2947 2644 2453 
Q 2978 2031 2978 1484 
Q 2978 1100 2793 706 
Q 2609 313 2286 112 
Q 1963 -88 1566 -88 
Q 919 -88 538 428 
Q 216 863 216 1403 
Q 216 1797 411 2186 
Q 606 2575 925 2761 
Q 1244 2947 1600 2947 
z
M 1503 2744 
Q 1338 2744 1170 2645 
Q 1003 2547 900 2300 
Q 797 2053 797 1666 
Q 797 1041 1045 587 
Q 1294 134 1700 134 
Q 2003 134 2200 384 
Q 2397 634 2397 1244 
Q 2397 2006 2069 2444 
Q 1847 2744 1503 2744 
z
" transform="scale(0.015625)"/>
       <path id="TimesNewRomanPSMT-75" d="M 2709 2863 
L 2709 1128 
Q 2709 631 2732 520 
Q 2756 409 2807 365 
Q 2859 322 2928 322 
Q 3025 322 3147 375 
L 3191 266 
L 2334 -88 
L 2194 -88 
L 2194 519 
Q 1825 119 1631 15 
Q 1438 -88 1222 -88 
Q 981 -88 804 51 
Q 628 191 559 409 
Q 491 628 491 1028 
L 491 2306 
Q 491 2509 447 2587 
Q 403 2666 317 2708 
Q 231 2750 6 2747 
L 6 2863 
L 1009 2863 
L 1009 947 
Q 1009 547 1148 422 
Q 1288 297 1484 297 
Q 1619 297 1789 381 
Q 1959 466 2194 703 
L 2194 2325 
Q 2194 2569 2105 2655 
Q 2016 2741 1734 2747 
L 1734 2863 
L 2709 2863 
z
" transform="scale(0.015625)"/>
       <path id="TimesNewRomanPSMT-6e" d="M 1034 2341 
Q 1538 2947 1994 2947 
Q 2228 2947 2397 2830 
Q 2566 2713 2666 2444 
Q 2734 2256 2734 1869 
L 2734 647 
Q 2734 375 2778 278 
Q 2813 200 2889 156 
Q 2966 113 3172 113 
L 3172 0 
L 1756 0 
L 1756 113 
L 1816 113 
Q 2016 113 2095 173 
Q 2175 234 2206 353 
Q 2219 400 2219 647 
L 2219 1819 
Q 2219 2209 2117 2386 
Q 2016 2563 1775 2563 
Q 1403 2563 1034 2156 
L 1034 647 
Q 1034 356 1069 288 
Q 1113 197 1189 155 
Q 1266 113 1500 113 
L 1500 0 
L 84 0 
L 84 113 
L 147 113 
Q 366 113 442 223 
Q 519 334 519 647 
L 519 1709 
Q 519 2225 495 2337 
Q 472 2450 423 2490 
Q 375 2531 294 2531 
Q 206 2531 84 2484 
L 38 2597 
L 900 2947 
L 1034 2947 
L 1034 2341 
z
" transform="scale(0.015625)"/>
       <path id="TimesNewRomanPSMT-64" d="M 2222 322 
Q 2013 103 1813 7 
Q 1613 -88 1381 -88 
Q 913 -88 563 304 
Q 213 697 213 1313 
Q 213 1928 600 2439 
Q 988 2950 1597 2950 
Q 1975 2950 2222 2709 
L 2222 3238 
Q 2222 3728 2198 3840 
Q 2175 3953 2125 3993 
Q 2075 4034 2000 4034 
Q 1919 4034 1784 3984 
L 1744 4094 
L 2597 4444 
L 2738 4444 
L 2738 1134 
Q 2738 631 2761 520 
Q 2784 409 2836 365 
Q 2888 322 2956 322 
Q 3041 322 3181 375 
L 3216 266 
L 2366 -88 
L 2222 -88 
L 2222 322 
z
M 2222 541 
L 2222 2016 
Q 2203 2228 2109 2403 
Q 2016 2578 1861 2667 
Q 1706 2756 1559 2756 
Q 1284 2756 1069 2509 
Q 784 2184 784 1559 
Q 784 928 1059 592 
Q 1334 256 1672 256 
Q 1956 256 2222 541 
z
" transform="scale(0.015625)"/>
      </defs>
      <use xlink:href="#TimesNewRomanPSMT-55"/>
      <use xlink:href="#TimesNewRomanPSMT-70" x="72.216797"/>
      <use xlink:href="#TimesNewRomanPSMT-70" x="122.216797"/>
      <use xlink:href="#TimesNewRomanPSMT-65" x="172.216797"/>
      <use xlink:href="#TimesNewRomanPSMT-72" x="216.601562"/>
      <use xlink:href="#TimesNewRomanPSMT-20" x="249.902344"/>
      <use xlink:href="#TimesNewRomanPSMT-42" x="274.902344"/>
      <use xlink:href="#TimesNewRomanPSMT-6f" x="341.601562"/>
      <use xlink:href="#TimesNewRomanPSMT-75" x="391.601562"/>
      <use xlink:href="#TimesNewRomanPSMT-6e" x="441.601562"/>
      <use xlink:href="#TimesNewRomanPSMT-64" x="491.601562"/>
     </g>
    </g>
    <g id="line2d_57">
     <path d="M 244.295625 55.3775 
L 260.295625 55.3775 
L 276.295625 55.3775 
" style="fill: none; stroke: #00ffff; stroke-width: 1.5; stroke-linecap: square"/>
    </g>
    <g id="text_27">
     <!-- Lower Bound -->
     <g transform="translate(289.095625 60.9775) scale(0.16 -0.16)">
      <defs>
       <path id="TimesNewRomanPSMT-4c" d="M 3669 1172 
L 3772 1150 
L 3409 0 
L 128 0 
L 128 116 
L 288 116 
Q 556 116 672 291 
Q 738 391 738 753 
L 738 3488 
Q 738 3884 650 3984 
Q 528 4122 288 4122 
L 128 4122 
L 128 4238 
L 2047 4238 
L 2047 4122 
Q 1709 4125 1573 4059 
Q 1438 3994 1388 3894 
Q 1338 3794 1338 3416 
L 1338 753 
Q 1338 494 1388 397 
Q 1425 331 1503 300 
Q 1581 269 1991 269 
L 2300 269 
Q 2788 269 2984 341 
Q 3181 413 3343 595 
Q 3506 778 3669 1172 
z
" transform="scale(0.015625)"/>
       <path id="TimesNewRomanPSMT-77" d="M 41 2863 
L 1241 2863 
L 1241 2747 
Q 1075 2734 1023 2687 
Q 972 2641 972 2553 
Q 972 2456 1025 2319 
L 1638 672 
L 2253 2013 
L 2091 2434 
Q 2016 2622 1894 2694 
Q 1825 2738 1638 2747 
L 1638 2863 
L 3000 2863 
L 3000 2747 
Q 2775 2738 2681 2666 
Q 2619 2616 2619 2506 
Q 2619 2444 2644 2378 
L 3294 734 
L 3897 2319 
Q 3959 2488 3959 2588 
Q 3959 2647 3898 2694 
Q 3838 2741 3659 2747 
L 3659 2863 
L 4563 2863 
L 4563 2747 
Q 4291 2706 4163 2378 
L 3206 -88 
L 3078 -88 
L 2363 1741 
L 1528 -88 
L 1413 -88 
L 494 2319 
Q 403 2547 315 2626 
Q 228 2706 41 2747 
L 41 2863 
z
" transform="scale(0.015625)"/>
      </defs>
      <use xlink:href="#TimesNewRomanPSMT-4c"/>
      <use xlink:href="#TimesNewRomanPSMT-6f" x="61.083984"/>
      <use xlink:href="#TimesNewRomanPSMT-77" x="111.083984"/>
      <use xlink:href="#TimesNewRomanPSMT-65" x="183.300781"/>
      <use xlink:href="#TimesNewRomanPSMT-72" x="227.685547"/>
      <use xlink:href="#TimesNewRomanPSMT-20" x="260.986328"/>
      <use xlink:href="#TimesNewRomanPSMT-42" x="285.986328"/>
      <use xlink:href="#TimesNewRomanPSMT-6f" x="352.685547"/>
      <use xlink:href="#TimesNewRomanPSMT-75" x="402.685547"/>
      <use xlink:href="#TimesNewRomanPSMT-6e" x="452.685547"/>
      <use xlink:href="#TimesNewRomanPSMT-64" x="502.685547"/>
     </g>
    </g>
    <g id="line2d_58">
     <path d="M 244.295625 78 
L 260.295625 78 
L 276.295625 78 
" style="fill: none; stroke: #ff0000; stroke-width: 1.5; stroke-linecap: square"/>
    </g>
    <g id="text_28">
     <!-- Bitrate Average -->
     <g transform="translate(289.095625 83.6) scale(0.16 -0.16)">
      <defs>
       <path id="TimesNewRomanPSMT-41" d="M 2928 1419 
L 1288 1419 
L 1000 750 
Q 894 503 894 381 
Q 894 284 986 211 
Q 1078 138 1384 116 
L 1384 0 
L 50 0 
L 50 116 
Q 316 163 394 238 
Q 553 388 747 847 
L 2238 4334 
L 2347 4334 
L 3822 809 
Q 4000 384 4145 257 
Q 4291 131 4550 116 
L 4550 0 
L 2878 0 
L 2878 116 
Q 3131 128 3220 200 
Q 3309 272 3309 375 
Q 3309 513 3184 809 
L 2928 1419 
z
M 2841 1650 
L 2122 3363 
L 1384 1650 
L 2841 1650 
z
" transform="scale(0.015625)"/>
       <path id="TimesNewRomanPSMT-76" d="M 53 2863 
L 1400 2863 
L 1400 2747 
L 1313 2747 
Q 1191 2747 1127 2687 
Q 1063 2628 1063 2528 
Q 1063 2419 1128 2269 
L 1794 688 
L 2463 2328 
Q 2534 2503 2534 2594 
Q 2534 2638 2509 2666 
Q 2475 2713 2422 2730 
Q 2369 2747 2206 2747 
L 2206 2863 
L 3141 2863 
L 3141 2747 
Q 2978 2734 2916 2681 
Q 2806 2588 2719 2369 
L 1703 -88 
L 1575 -88 
L 553 2328 
Q 484 2497 421 2570 
Q 359 2644 263 2694 
Q 209 2722 53 2747 
L 53 2863 
z
" transform="scale(0.015625)"/>
       <path id="TimesNewRomanPSMT-67" d="M 966 1044 
Q 703 1172 562 1401 
Q 422 1631 422 1909 
Q 422 2334 742 2640 
Q 1063 2947 1563 2947 
Q 1972 2947 2272 2747 
L 2878 2747 
Q 3013 2747 3034 2739 
Q 3056 2731 3066 2713 
Q 3084 2684 3084 2613 
Q 3084 2531 3069 2500 
Q 3059 2484 3036 2475 
Q 3013 2466 2878 2466 
L 2506 2466 
Q 2681 2241 2681 1891 
Q 2681 1491 2375 1206 
Q 2069 922 1553 922 
Q 1341 922 1119 984 
Q 981 866 932 777 
Q 884 688 884 625 
Q 884 572 936 522 
Q 988 472 1138 450 
Q 1225 438 1575 428 
Q 2219 413 2409 384 
Q 2700 344 2873 169 
Q 3047 -6 3047 -263 
Q 3047 -616 2716 -925 
Q 2228 -1381 1444 -1381 
Q 841 -1381 425 -1109 
Q 191 -953 191 -784 
Q 191 -709 225 -634 
Q 278 -519 444 -313 
Q 466 -284 763 25 
Q 600 122 533 198 
Q 466 275 466 372 
Q 466 481 555 628 
Q 644 775 966 1044 
z
M 1509 2797 
Q 1278 2797 1122 2612 
Q 966 2428 966 2047 
Q 966 1553 1178 1281 
Q 1341 1075 1591 1075 
Q 1828 1075 1981 1253 
Q 2134 1431 2134 1813 
Q 2134 2309 1919 2591 
Q 1759 2797 1509 2797 
z
M 934 0 
Q 788 -159 713 -296 
Q 638 -434 638 -550 
Q 638 -700 819 -813 
Q 1131 -1006 1722 -1006 
Q 2284 -1006 2551 -807 
Q 2819 -609 2819 -384 
Q 2819 -222 2659 -153 
Q 2497 -84 2016 -72 
Q 1313 -53 934 0 
z
" transform="scale(0.015625)"/>
      </defs>
      <use xlink:href="#TimesNewRomanPSMT-42"/>
      <use xlink:href="#TimesNewRomanPSMT-69" x="66.699219"/>
      <use xlink:href="#TimesNewRomanPSMT-74" x="94.482422"/>
      <use xlink:href="#TimesNewRomanPSMT-72" x="122.265625"/>
      <use xlink:href="#TimesNewRomanPSMT-61" x="155.566406"/>
      <use xlink:href="#TimesNewRomanPSMT-74" x="199.951172"/>
      <use xlink:href="#TimesNewRomanPSMT-65" x="227.734375"/>
      <use xlink:href="#TimesNewRomanPSMT-20" x="272.119141"/>
      <use xlink:href="#TimesNewRomanPSMT-41" x="291.619141"/>
      <use xlink:href="#TimesNewRomanPSMT-76" x="356.460938"/>
      <use xlink:href="#TimesNewRomanPSMT-65" x="406.460938"/>
      <use xlink:href="#TimesNewRomanPSMT-72" x="450.845703"/>
      <use xlink:href="#TimesNewRomanPSMT-61" x="484.146484"/>
      <use xlink:href="#TimesNewRomanPSMT-67" x="528.53125"/>
      <use xlink:href="#TimesNewRomanPSMT-65" x="578.53125"/>
     </g>
    </g>
    <g id="line2d_59">
     <path d="M 244.295625 100.6525 
L 260.295625 100.6525 
L 276.295625 100.6525 
" style="fill: none; stroke: #0000ff; stroke-width: 1.5; stroke-linecap: square"/>
    </g>
    <g id="text_29">
     <!-- Buffer Average -->
     <g transform="translate(289.095625 106.2525) scale(0.16 -0.16)">
      <defs>
       <path id="TimesNewRomanPSMT-66" d="M 1319 2638 
L 1319 756 
Q 1319 356 1406 250 
Q 1522 113 1716 113 
L 1975 113 
L 1975 0 
L 266 0 
L 266 113 
L 394 113 
Q 519 113 622 175 
Q 725 238 764 344 
Q 803 450 803 756 
L 803 2638 
L 247 2638 
L 247 2863 
L 803 2863 
L 803 3050 
Q 803 3478 940 3775 
Q 1078 4072 1361 4255 
Q 1644 4438 1997 4438 
Q 2325 4438 2600 4225 
Q 2781 4084 2781 3909 
Q 2781 3816 2700 3733 
Q 2619 3650 2525 3650 
Q 2453 3650 2373 3701 
Q 2294 3753 2178 3923 
Q 2063 4094 1966 4153 
Q 1869 4213 1750 4213 
Q 1606 4213 1506 4136 
Q 1406 4059 1362 3898 
Q 1319 3738 1319 3069 
L 1319 2863 
L 2056 2863 
L 2056 2638 
L 1319 2638 
z
" transform="scale(0.015625)"/>
      </defs>
      <use xlink:href="#TimesNewRomanPSMT-42"/>
      <use xlink:href="#TimesNewRomanPSMT-75" x="66.699219"/>
      <use xlink:href="#TimesNewRomanPSMT-66" x="116.699219"/>
      <use xlink:href="#TimesNewRomanPSMT-66" x="148.25"/>
      <use xlink:href="#TimesNewRomanPSMT-65" x="181.550781"/>
      <use xlink:href="#TimesNewRomanPSMT-72" x="225.935547"/>
      <use xlink:href="#TimesNewRomanPSMT-20" x="259.236328"/>
      <use xlink:href="#TimesNewRomanPSMT-41" x="278.736328"/>
      <use xlink:href="#TimesNewRomanPSMT-76" x="343.578125"/>
      <use xlink:href="#TimesNewRomanPSMT-65" x="393.578125"/>
      <use xlink:href="#TimesNewRomanPSMT-72" x="437.962891"/>
      <use xlink:href="#TimesNewRomanPSMT-61" x="471.263672"/>
      <use xlink:href="#TimesNewRomanPSMT-67" x="515.648438"/>
      <use xlink:href="#TimesNewRomanPSMT-65" x="565.648438"/>
     </g>
    </g>
   </g>
  </g>
 </g>
 <defs>
  <clipPath id="p2ccfc77ec0">
   <rect x="68.365625" y="12.755" width="334.8" height="277.2"/>
  </clipPath>
 </defs>
</svg>
