<?xml version="1.0" encoding="utf-8" standalone="no"?>
<!DOCTYPE svg PUBLIC "-//W3C//DTD SVG 1.1//EN"
  "http://www.w3.org/Graphics/SVG/1.1/DTD/svg11.dtd">
<svg xmlns:xlink="http://www.w3.org/1999/xlink" width="1080pt" height="432pt" viewBox="0 0 1080 432" xmlns="http://www.w3.org/2000/svg" version="1.1">
 <metadata>
  <rdf:RDF xmlns:dc="http://purl.org/dc/elements/1.1/" xmlns:cc="http://creativecommons.org/ns#" xmlns:rdf="http://www.w3.org/1999/02/22-rdf-syntax-ns#">
   <cc:Work>
    <dc:type rdf:resource="http://purl.org/dc/dcmitype/StillImage"/>
    <dc:date>2024-04-10T23:36:38.685549</dc:date>
    <dc:format>image/svg+xml</dc:format>
    <dc:creator>
     <cc:Agent>
      <dc:title>Matplotlib v3.8.3, https://matplotlib.org/</dc:title>
     </cc:Agent>
    </dc:creator>
   </cc:Work>
  </rdf:RDF>
 </metadata>
 <defs>
  <style type="text/css">*{stroke-linejoin: round; stroke-linecap: butt}</style>
 </defs>
 <g id="figure_1">
  <g id="patch_1">
   <path d="M 0 432 
L 1080 432 
L 1080 0 
L 0 0 
z
" style="fill: #ffffff"/>
  </g>
  <g id="axes_1">
   <g id="patch_2">
    <path d="M 135 384.48 
L 972 384.48 
L 972 51.84 
L 135 51.84 
z
" style="fill: #ffffff"/>
   </g>
   <g id="matplotlib.axis_1">
    <g id="xtick_1">
     <g id="line2d_1">
      <defs>
       <path id="m5f29f48c13" d="M 0 0 
L 0 3.5 
" style="stroke: #000000; stroke-width: 0.8"/>
      </defs>
      <g>
       <use xlink:href="#m5f29f48c13" x="173.045455" y="384.48" style="stroke: #000000; stroke-width: 0.8"/>
      </g>
     </g>
     <g id="text_1">
      <!-- 0 -->
      <g transform="translate(170.545455 398.628438) scale(0.1 -0.1)">
       <defs>
        <path id="Times New Roman-30" d="M 1600 4225
Q 1250 4225 1012 3687 
Q 775 3150 775 2250 
Q 775 1300 1012 775 
Q 1250 250 1600 250 
Q 1975 250 2187 775 
Q 2400 1300 2400 2250 
Q 2400 3150 2200 3687 
Q 2000 4225 1600 4225 
z
M 1600 50 
Q 1050 50 675 625 
Q 300 1200 300 2250 
Q 300 3225 662 3825 
Q 1025 4425 1600 4425 
Q 2150 4425 2512 3850 
Q 2875 3275 2875 2250 
Q 2875 1225 2512 637 
Q 2150 50 1600 50 
z
" transform="scale(0.015625)"/>
       </defs>
       <use xlink:href="#Times New Roman-30"/>
      </g>
     </g>
    </g>
    <g id="xtick_2">
     <g id="line2d_2">
      <g>
       <use xlink:href="#m5f29f48c13" x="280.975822" y="384.48" style="stroke: #000000; stroke-width: 0.8"/>
      </g>
     </g>
     <g id="text_2">
      <!-- 10 -->
      <g transform="translate(275.975822 398.628438) scale(0.1 -0.1)">
       <defs>
        <path id="Times New Roman-31" d="M 1825 4450
L 1825 650 
Q 1825 450 1950 350 
Q 2075 250 2300 250 
L 2550 250 
L 2550 100 
L 725 100 
L 725 250 
L 950 250 
Q 1200 250 1312 350 
Q 1425 450 1425 650 
L 1425 3675 
Q 1425 3775 1362 3837 
Q 1300 3900 1175 3900 
L 725 3900 
L 725 4050 
L 950 4050 
Q 1250 4050 1437 4150 
Q 1625 4250 1725 4450 
L 1825 4450 
z
" transform="scale(0.015625)"/>
       </defs>
       <use xlink:href="#Times New Roman-31"/>
       <use xlink:href="#Times New Roman-30" x="50"/>
      </g>
     </g>
    </g>
    <g id="xtick_3">
     <g id="line2d_3">
      <g>
       <use xlink:href="#m5f29f48c13" x="388.90619" y="384.48" style="stroke: #000000; stroke-width: 0.8"/>
      </g>
     </g>
     <g id="text_3">
      <!-- 20 -->
      <g transform="translate(383.90619 398.628438) scale(0.1 -0.1)">
       <defs>
        <path id="Times New Roman-32" d="M 2325 3325
Q 2325 3775 2125 4012 
Q 1925 4250 1525 4250 
Q 1225 4250 1012 4087 
Q 800 3925 800 3675 
Q 800 3525 900 3425 
Q 975 3325 975 3225 
Q 975 3100 912 3037 
Q 850 2975 725 2975 
Q 575 2975 487 3062 
Q 400 3150 400 3350 
Q 400 3875 775 4150 
Q 1150 4425 1575 4425 
Q 2175 4425 2462 4125 
Q 2750 3825 2750 3375 
Q 2750 3075 2612 2775 
Q 2475 2475 2175 2200 
Q 1450 1500 1062 1062 
Q 675 625 600 475 
L 2075 475 
Q 2300 475 2450 650 
Q 2600 825 2650 1175 
L 2800 1175 
L 2650 100 
L 325 100 
L 325 425 
Q 450 650 737 1000 
Q 1025 1350 1500 1825 
Q 1925 2250 2125 2625 
Q 2325 3000 2325 3325 
z
" transform="scale(0.015625)"/>
       </defs>
       <use xlink:href="#Times New Roman-32"/>
       <use xlink:href="#Times New Roman-30" x="50"/>
      </g>
     </g>
    </g>
    <g id="xtick_4">
     <g id="line2d_4">
      <g>
       <use xlink:href="#m5f29f48c13" x="496.836557" y="384.48" style="stroke: #000000; stroke-width: 0.8"/>
      </g>
     </g>
     <g id="text_4">
      <!-- 30 -->
      <g transform="translate(491.836557 398.628438) scale(0.1 -0.1)">
       <defs>
        <path id="Times New Roman-33" d="M 2800 1250
Q 2800 775 2450 412 
Q 2100 50 1475 50 
Q 1025 50 700 300 
Q 375 550 375 875 
Q 375 1025 475 1137 
Q 575 1250 675 1250 
Q 825 1250 887 1137 
Q 950 1025 950 950 
Q 950 825 900 750 
Q 850 650 850 575 
Q 850 425 1037 325 
Q 1225 225 1450 225 
Q 1900 225 2125 487 
Q 2350 750 2350 1300 
Q 2350 1750 2112 2025 
Q 1875 2300 1225 2300 
L 1225 2475 
Q 1725 2475 1962 2712 
Q 2200 2950 2200 3375 
Q 2200 3725 2012 3987 
Q 1825 4250 1425 4250 
Q 1250 4250 1050 4162 
Q 850 4075 850 3875 
Q 850 3675 900 3625 
Q 950 3575 950 3500 
Q 950 3375 900 3300 
Q 850 3225 725 3225 
Q 625 3225 537 3300 
Q 450 3375 450 3575 
Q 450 3950 775 4187 
Q 1100 4425 1525 4425 
Q 2025 4425 2325 4112 
Q 2625 3800 2625 3450 
Q 2625 3075 2437 2812 
Q 2250 2550 1850 2425 
Q 2400 2225 2600 1900 
Q 2800 1575 2800 1250 
z
" transform="scale(0.015625)"/>
       </defs>
       <use xlink:href="#Times New Roman-33"/>
       <use xlink:href="#Times New Roman-30" x="50"/>
      </g>
     </g>
    </g>
    <g id="xtick_5">
     <g id="line2d_5">
      <g>
       <use xlink:href="#m5f29f48c13" x="604.766925" y="384.48" style="stroke: #000000; stroke-width: 0.8"/>
      </g>
     </g>
     <g id="text_5">
      <!-- 40 -->
      <g transform="translate(599.766925 398.628438) scale(0.1 -0.1)">
       <defs>
        <path id="Times New Roman-34" d="M 2300 575
Q 2300 400 2400 325 
Q 2500 250 2675 250 
L 2900 250 
L 2900 100 
L 1250 100 
L 1250 250 
L 1525 250 
Q 1725 250 1812 325 
Q 1900 400 1900 575 
L 1900 1400 
L 225 1400 
L 225 1525 
L 2050 4425 
L 2300 4425 
L 2300 1550 
L 2975 1550 
L 2975 1400 
L 2300 1400 
L 2300 575 
z
M 1875 3800 
L 450 1550 
L 1900 1550 
L 1900 3800 
L 1875 3800 
z
" transform="scale(0.015625)"/>
       </defs>
       <use xlink:href="#Times New Roman-34"/>
       <use xlink:href="#Times New Roman-30" x="50"/>
      </g>
     </g>
    </g>
    <g id="xtick_6">
     <g id="line2d_6">
      <g>
       <use xlink:href="#m5f29f48c13" x="712.697292" y="384.48" style="stroke: #000000; stroke-width: 0.8"/>
      </g>
     </g>
     <g id="text_6">
      <!-- 50 -->
      <g transform="translate(707.697292 398.628438) scale(0.1 -0.1)">
       <defs>
        <path id="Times New Roman-35" d="M 1725 2850
Q 2200 2850 2500 2487 
Q 2800 2125 2800 1525 
Q 2800 850 2487 450 
Q 2175 50 1525 50 
Q 1075 50 725 312 
Q 375 575 375 950 
Q 375 1100 462 1212 
Q 550 1325 700 1325 
Q 850 1325 900 1225 
Q 950 1125 950 1050 
Q 950 900 875 825 
Q 800 725 800 625 
Q 800 425 1037 325 
Q 1275 225 1550 225 
Q 1950 225 2162 550 
Q 2375 875 2375 1475 
Q 2375 1975 2187 2287 
Q 2000 2600 1625 2600 
Q 1350 2600 1150 2500 
Q 950 2400 775 2075 
L 550 2100 
L 675 4375 
L 2725 4375 
L 2650 4000 
L 850 4000 
L 750 2350 
Q 1000 2700 1237 2775 
Q 1475 2850 1725 2850 
z
" transform="scale(0.015625)"/>
       </defs>
       <use xlink:href="#Times New Roman-35"/>
       <use xlink:href="#Times New Roman-30" x="50"/>
      </g>
     </g>
    </g>
    <g id="xtick_7">
     <g id="line2d_7">
      <g>
       <use xlink:href="#m5f29f48c13" x="820.62766" y="384.48" style="stroke: #000000; stroke-width: 0.8"/>
      </g>
     </g>
     <g id="text_7">
      <!-- 60 -->
      <g transform="translate(815.62766 398.628438) scale(0.1 -0.1)">
       <defs>
        <path id="Times New Roman-36" d="M 775 1800
Q 775 1050 1037 637 
Q 1300 225 1675 225 
Q 2050 225 2250 500 
Q 2450 775 2450 1525 
Q 2450 2025 2237 2300 
Q 2025 2575 1725 2575 
Q 1450 2575 1212 2412 
Q 975 2250 775 1800 
z
M 1750 2825 
Q 2350 2825 2612 2425 
Q 2875 2025 2875 1525 
Q 2875 775 2512 412 
Q 2150 50 1675 50 
Q 1000 50 650 562 
Q 300 1075 300 2050 
Q 300 3200 725 3812 
Q 1150 4425 1875 4425 
Q 2225 4425 2437 4225 
Q 2650 4025 2650 3875 
Q 2650 3725 2587 3650 
Q 2525 3575 2375 3575 
Q 2250 3575 2187 3637 
Q 2125 3700 2125 3825 
Q 2125 3875 2150 3925 
Q 2150 3975 2150 4025 
Q 2150 4125 2075 4187 
Q 2000 4250 1800 4250 
Q 1375 4250 1075 3862 
Q 775 3475 775 2175 
Q 925 2500 1187 2662 
Q 1450 2825 1750 2825 
z
" transform="scale(0.015625)"/>
       </defs>
       <use xlink:href="#Times New Roman-36"/>
       <use xlink:href="#Times New Roman-30" x="50"/>
      </g>
     </g>
    </g>
    <g id="xtick_8">
     <g id="line2d_8">
      <g>
       <use xlink:href="#m5f29f48c13" x="928.558027" y="384.48" style="stroke: #000000; stroke-width: 0.8"/>
      </g>
     </g>
     <g id="text_8">
      <!-- 70 -->
      <g transform="translate(923.558027 398.628438) scale(0.1 -0.1)">
       <defs>
        <path id="Times New Roman-37" d="M 2825 4200
Q 2300 3350 1987 2537 
Q 1675 1725 1675 1125 
Q 1675 1025 1700 850 
Q 1700 650 1700 400 
Q 1700 200 1637 125 
Q 1575 50 1425 50 
Q 1300 50 1212 137 
Q 1125 225 1125 450 
Q 1125 925 1337 1625 
Q 1550 2325 2475 4000 
L 1225 4000 
Q 950 4000 787 3825 
Q 625 3650 550 3300 
L 400 3325 
L 575 4375 
L 2825 4375 
L 2825 4200 
z
" transform="scale(0.015625)"/>
       </defs>
       <use xlink:href="#Times New Roman-37"/>
       <use xlink:href="#Times New Roman-30" x="50"/>
      </g>
     </g>
    </g>
    <g id="text_9">
     <!-- Time (s) -->
     <g transform="translate(533.5 411.534688) scale(0.1 -0.1)">
      <defs>
       <path id="Times New Roman-54" d="M 2225 100
L 925 100 
L 925 250 
L 1150 250 
Q 1275 250 1325 300 
Q 1375 350 1375 450 
L 1375 3950 
Q 1375 4150 1350 4175 
Q 1325 4200 1150 4200 
Q 800 4200 662 4075 
Q 525 3950 325 3400 
L 175 3425 
L 400 4375 
L 2775 4375 
L 2975 3425 
L 2850 3400 
Q 2650 3925 2537 4062 
Q 2425 4200 2075 4200 
Q 1825 4200 1800 4175 
Q 1775 4150 1775 3925 
L 1775 450 
Q 1775 350 1837 300 
Q 1900 250 2000 250 
L 2225 250 
L 2225 100 
z
" transform="scale(0.015625)"/>
       <path id="Times New Roman-69" d="M 1425 2525
Q 1425 2625 1375 2687 
Q 1325 2750 1200 2750 
L 675 2750 
L 675 2900 
L 925 2900 
Q 1150 2900 1350 2937 
Q 1550 2975 1725 3075 
L 1775 3075 
L 1775 450 
Q 1775 350 1837 300 
Q 1900 250 2000 250 
L 2525 250 
L 2525 100 
L 675 100 
L 675 250 
L 1200 250 
Q 1325 250 1375 300 
Q 1425 350 1425 450 
L 1425 2525 
z
M 1725 3025 
L 1725 3025 
z
M 1625 4425 
Q 1750 4425 1850 4337 
Q 1950 4250 1950 4125 
Q 1950 4000 1850 3900 
Q 1750 3800 1625 3800 
Q 1500 3800 1400 3900 
Q 1300 4000 1300 4125 
Q 1300 4250 1400 4337 
Q 1500 4425 1625 4425 
z
" transform="scale(0.015625)"/>
       <path id="Times New Roman-6d" d="M 175 2900
Q 300 2900 425 2925 
Q 550 2950 625 3000 
L 675 3000 
L 675 2575 
Q 800 2775 950 2862 
Q 1100 2950 1275 2950 
Q 1500 2950 1625 2862 
Q 1750 2775 1775 2575 
Q 1900 2775 2062 2862 
Q 2225 2950 2400 2950 
Q 2700 2950 2812 2775 
Q 2925 2600 2925 2325 
L 2925 425 
Q 2925 325 2975 287 
Q 3025 250 3125 250 
L 3175 250 
L 3175 100 
L 2325 100 
L 2325 250 
L 2375 250 
Q 2475 250 2525 287 
Q 2575 325 2575 425 
L 2575 2300 
Q 2575 2575 2512 2662 
Q 2450 2750 2325 2750 
Q 2150 2750 2012 2625 
Q 1875 2500 1800 2275 
L 1800 425 
Q 1800 325 1850 287 
Q 1900 250 2000 250 
L 2050 250 
L 2050 100 
L 1200 100 
L 1200 250 
L 1250 250 
Q 1350 250 1400 287 
Q 1450 325 1450 425 
L 1450 2300 
Q 1450 2525 1400 2637 
Q 1350 2750 1200 2750 
Q 1025 2750 887 2625 
Q 750 2500 675 2250 
L 675 425 
Q 675 325 725 287 
Q 775 250 875 250 
L 925 250 
L 925 100 
L 75 100 
L 75 250 
L 125 250 
Q 225 250 275 287 
Q 325 325 325 425 
L 325 2600 
Q 325 2675 300 2712 
Q 275 2750 200 2750 
L 100 2750 
L 100 2900 
L 175 2900 
z
" transform="scale(0.015625)"/>
       <path id="Times New Roman-65" d="M 2400 1650
Q 2425 2200 2212 2487 
Q 2000 2775 1650 2775 
Q 1275 2775 1037 2475 
Q 800 2175 800 1650 
L 2400 1650 
z
M 800 1500 
Q 800 825 1062 537 
Q 1325 250 1750 250 
Q 2075 250 2300 437 
Q 2525 625 2625 900 
L 2750 850 
Q 2675 575 2412 312 
Q 2150 50 1700 50 
Q 1125 50 762 425 
Q 400 800 400 1500 
Q 400 2125 762 2537 
Q 1125 2950 1650 2950 
Q 2125 2950 2475 2625 
Q 2825 2300 2825 1500 
L 800 1500 
z
" transform="scale(0.015625)"/>
       <path id="Times New Roman-20" d="M 0 0
Q 0 0 0 0 
z
" transform="scale(0.015625)"/>
       <path id="Times New Roman-28" d="M 2900 5025
Q 2325 4425 2037 3737 
Q 1750 3050 1750 2300 
Q 1750 1525 2037 850 
Q 2325 175 2900 -425 
L 2775 -550 
Q 2075 75 1725 787 
Q 1375 1500 1375 2300 
Q 1375 3075 1725 3787 
Q 2075 4500 2775 5150 
L 2900 5025 
z
" transform="scale(0.015625)"/>
       <path id="Times New Roman-73" d="M 625 2175
Q 625 2550 912 2750 
Q 1200 2950 1600 2950 
Q 1825 2950 2025 2900 
Q 2225 2825 2300 2825 
Q 2375 2825 2425 2850 
Q 2475 2875 2550 2950 
L 2650 2125 
L 2500 2100 
Q 2400 2425 2162 2612 
Q 1925 2800 1625 2800 
Q 1300 2800 1112 2675 
Q 925 2550 925 2325 
Q 925 2125 1012 2012 
Q 1100 1900 1325 1850 
Q 1500 1775 1775 1700 
Q 2025 1600 2250 1500 
Q 2450 1400 2587 1237 
Q 2725 1075 2725 875 
Q 2725 500 2462 287 
Q 2200 75 1700 75 
Q 1375 75 1225 150 
Q 1050 200 950 200 
Q 875 200 787 162 
Q 700 125 600 75 
L 525 1000 
L 675 1025 
Q 750 625 1000 425 
Q 1250 225 1700 225 
Q 2050 225 2237 350 
Q 2425 475 2425 725 
Q 2425 900 2325 1012 
Q 2225 1125 2125 1175 
Q 1875 1275 1575 1400 
Q 1275 1500 1050 1600 
Q 825 1700 725 1850 
Q 625 2000 625 2175 
z
" transform="scale(0.015625)"/>
       <path id="Times New Roman-29" d="M 275 5025
L 400 5150 
Q 1100 4500 1450 3787 
Q 1800 3075 1800 2300 
Q 1800 1500 1450 787 
Q 1100 75 400 -550 
L 275 -425 
Q 850 175 1137 850 
Q 1425 1525 1425 2300 
Q 1425 3050 1137 3737 
Q 850 4425 275 5025 
z
" transform="scale(0.015625)"/>
      </defs>
      <use xlink:href="#Times New Roman-54"/>
      <use xlink:href="#Times New Roman-69" x="50"/>
      <use xlink:href="#Times New Roman-6d" x="100"/>
      <use xlink:href="#Times New Roman-65" x="150"/>
      <use xlink:href="#Times New Roman-20" x="200"/>
      <use xlink:href="#Times New Roman-28" x="250"/>
      <use xlink:href="#Times New Roman-73" x="300"/>
      <use xlink:href="#Times New Roman-29" x="350"/>
     </g>
    </g>
   </g>
   <g id="matplotlib.axis_2">
    <g id="ytick_1">
     <g id="line2d_9">
      <defs>
       <path id="mac64fc28a1" d="M 0 0 
L -3.5 0 
" style="stroke: #000000; stroke-width: 0.8"/>
      </defs>
      <g>
       <use xlink:href="#mac64fc28a1" x="135" y="383.019324" style="stroke: #000000; stroke-width: 0.8"/>
      </g>
     </g>
     <g id="text_10">
      <!-- 0 -->
      <g transform="translate(123 386.593543) scale(0.1 -0.1)">
       <use xlink:href="#Times New Roman-30"/>
      </g>
     </g>
    </g>
    <g id="ytick_2">
     <g id="line2d_10">
      <g>
       <use xlink:href="#mac64fc28a1" x="135" y="320.533853" style="stroke: #000000; stroke-width: 0.8"/>
      </g>
     </g>
     <g id="text_11">
      <!-- 5000 -->
      <g transform="translate(108 324.108072) scale(0.1 -0.1)">
       <use xlink:href="#Times New Roman-35"/>
       <use xlink:href="#Times New Roman-30" x="50"/>
       <use xlink:href="#Times New Roman-30" x="100"/>
       <use xlink:href="#Times New Roman-30" x="150"/>
      </g>
     </g>
    </g>
    <g id="ytick_3">
     <g id="line2d_11">
      <g>
       <use xlink:href="#mac64fc28a1" x="135" y="258.048382" style="stroke: #000000; stroke-width: 0.8"/>
      </g>
     </g>
     <g id="text_12">
      <!-- 10000 -->
      <g transform="translate(103 261.622601) scale(0.1 -0.1)">
       <use xlink:href="#Times New Roman-31"/>
       <use xlink:href="#Times New Roman-30" x="50"/>
       <use xlink:href="#Times New Roman-30" x="100"/>
       <use xlink:href="#Times New Roman-30" x="150"/>
       <use xlink:href="#Times New Roman-30" x="200"/>
      </g>
     </g>
    </g>
    <g id="ytick_4">
     <g id="line2d_12">
      <g>
       <use xlink:href="#mac64fc28a1" x="135" y="195.562911" style="stroke: #000000; stroke-width: 0.8"/>
      </g>
     </g>
     <g id="text_13">
      <!-- 15000 -->
      <g transform="translate(103 199.13713) scale(0.1 -0.1)">
       <use xlink:href="#Times New Roman-31"/>
       <use xlink:href="#Times New Roman-35" x="50"/>
       <use xlink:href="#Times New Roman-30" x="100"/>
       <use xlink:href="#Times New Roman-30" x="150"/>
       <use xlink:href="#Times New Roman-30" x="200"/>
      </g>
     </g>
    </g>
    <g id="ytick_5">
     <g id="line2d_13">
      <g>
       <use xlink:href="#mac64fc28a1" x="135" y="133.07744" style="stroke: #000000; stroke-width: 0.8"/>
      </g>
     </g>
     <g id="text_14">
      <!-- 20000 -->
      <g transform="translate(103 136.651659) scale(0.1 -0.1)">
       <use xlink:href="#Times New Roman-32"/>
       <use xlink:href="#Times New Roman-30" x="50"/>
       <use xlink:href="#Times New Roman-30" x="100"/>
       <use xlink:href="#Times New Roman-30" x="150"/>
       <use xlink:href="#Times New Roman-30" x="200"/>
      </g>
     </g>
    </g>
    <g id="ytick_6">
     <g id="line2d_14">
      <g>
       <use xlink:href="#mac64fc28a1" x="135" y="70.591969" style="stroke: #000000; stroke-width: 0.8"/>
      </g>
     </g>
     <g id="text_15">
      <!-- 25000 -->
      <g transform="translate(103 74.166188) scale(0.1 -0.1)">
       <use xlink:href="#Times New Roman-32"/>
       <use xlink:href="#Times New Roman-35" x="50"/>
       <use xlink:href="#Times New Roman-30" x="100"/>
       <use xlink:href="#Times New Roman-30" x="150"/>
       <use xlink:href="#Times New Roman-30" x="200"/>
      </g>
     </g>
    </g>
    <g id="text_16">
     <!-- Bite Rate (kbps) -->
     <g transform="translate(97.710938 258.16) rotate(-90) scale(0.1 -0.1)">
      <defs>
       <path id="Times New Roman-42" d="M 100 100
L 100 250 
L 300 250 
Q 425 250 475 300 
Q 525 350 525 450 
L 525 4025 
Q 525 4125 475 4175 
Q 425 4225 300 4225 
L 150 4225 
L 150 4375 
L 1600 4375 
Q 2200 4375 2487 4137 
Q 2775 3900 2775 3400 
Q 2775 3050 2625 2825 
Q 2475 2600 2000 2425 
Q 2575 2250 2775 1925 
Q 2975 1600 2975 1200 
Q 2975 700 2625 400 
Q 2275 100 1675 100 
L 100 100 
z
M 1600 250 
Q 2025 250 2262 512 
Q 2500 775 2500 1250 
Q 2500 1800 2250 2062 
Q 2000 2325 1500 2325 
L 925 2325 
L 925 450 
Q 925 350 987 300 
Q 1050 250 1150 250 
L 1600 250 
z
M 2350 3400 
Q 2350 3850 2100 4037 
Q 1850 4225 1450 4225 
L 1150 4225 
Q 1050 4225 987 4175 
Q 925 4125 925 4025 
L 925 2475 
L 1575 2475 
Q 1850 2475 2100 2700 
Q 2350 2925 2350 3400 
z
" transform="scale(0.015625)"/>
       <path id="Times New Roman-74" d="M 1500 900
Q 1500 550 1625 425 
Q 1750 300 2000 300 
Q 2250 300 2400 462 
Q 2550 625 2600 925 
L 2725 875 
Q 2675 525 2462 300 
Q 2250 75 1900 75 
Q 1525 75 1337 300 
Q 1150 525 1150 1000 
L 1150 2750 
L 400 2750 
L 400 2900 
L 600 2900 
Q 900 2900 1087 3087 
Q 1275 3275 1325 3675 
L 1350 3875 
L 1500 3875 
L 1500 2900 
L 2500 2900 
L 2500 2750 
L 1500 2750 
L 1500 900 
z
" transform="scale(0.015625)"/>
       <path id="Times New Roman-52" d="M 2825 3375
Q 2825 2875 2550 2600 
Q 2275 2325 1925 2275 
L 2675 425 
Q 2725 325 2787 287 
Q 2850 250 2925 250 
L 3075 250 
L 3075 100 
L 2375 100 
L 1550 2250 
L 975 2250 
L 975 450 
Q 975 350 1037 300 
Q 1100 250 1200 250 
L 1350 250 
L 1350 100 
L 200 100 
L 200 250 
L 350 250 
Q 475 250 525 300 
Q 575 350 575 450 
L 575 4025 
Q 575 4125 525 4175 
Q 475 4225 350 4225 
L 200 4225 
L 200 4375 
L 1625 4375 
Q 2200 4375 2512 4125 
Q 2825 3875 2825 3375 
z
M 2750 250 
L 2750 250 
z
M 975 2400 
L 1525 2400 
Q 1900 2400 2150 2625 
Q 2400 2850 2400 3325 
Q 2400 3750 2175 3987 
Q 1950 4225 1475 4225 
L 1200 4225 
Q 1100 4225 1037 4175 
Q 975 4125 975 4025 
L 975 2400 
z
" transform="scale(0.015625)"/>
       <path id="Times New Roman-61" d="M 1225 75
Q 775 75 525 287 
Q 275 500 275 775 
Q 275 1225 662 1512 
Q 1050 1800 2200 1925 
L 2200 2225 
Q 2200 2475 2087 2637 
Q 1975 2800 1575 2800 
Q 1150 2800 975 2662 
Q 800 2525 850 2375 
Q 875 2325 875 2275 
Q 875 2225 837 2150 
Q 800 2075 650 2075 
Q 550 2075 487 2137 
Q 425 2200 425 2325 
Q 425 2550 750 2750 
Q 1075 2950 1550 2950 
Q 2050 2950 2300 2762 
Q 2550 2575 2550 2225 
L 2550 575 
Q 2550 375 2587 337 
Q 2625 300 2725 300 
Q 2850 300 2900 412 
Q 2950 525 2950 725 
L 3075 725 
Q 3075 375 2950 237 
Q 2825 100 2625 100 
Q 2450 100 2350 175 
Q 2250 250 2200 425 
Q 1950 250 1737 162 
Q 1525 75 1225 75 
z
M 700 850 
Q 700 625 837 437 
Q 975 250 1275 250 
Q 1500 250 1725 337 
Q 1950 425 2200 600 
L 2200 1775 
Q 1350 1675 1025 1437 
Q 700 1200 700 850 
z
" transform="scale(0.015625)"/>
       <path id="Times New Roman-6b" d="M 1675 1900
L 2625 425 
Q 2700 325 2762 287 
Q 2825 250 2900 250 
L 3000 250 
L 3000 100 
L 1975 100 
L 1975 250 
L 2050 250 
Q 2175 250 2225 287 
Q 2275 325 2200 425 
L 1425 1650 
L 925 1125 
L 925 450 
Q 925 350 987 300 
Q 1050 250 1150 250 
L 1275 250 
L 1275 100 
L 225 100 
L 225 250 
L 350 250 
Q 475 250 525 300 
Q 575 350 575 450 
L 575 4025 
Q 575 4125 525 4175 
Q 475 4225 350 4225 
L 200 4225 
L 200 4375 
L 425 4375 
Q 575 4375 687 4425 
Q 800 4475 875 4575 
L 925 4575 
L 925 1400 
L 1975 2525 
Q 2025 2625 2012 2687 
Q 2000 2750 1900 2750 
L 1750 2750 
L 1750 2900 
L 2800 2900 
L 2800 2750 
L 2675 2750 
Q 2600 2750 2487 2712 
Q 2375 2675 2275 2575 
L 1675 1900 
z
M 2450 2750 
L 2450 2750 
z
M 2175 2750 
L 2175 2750 
z
M 2300 250 
L 2300 250 
z
M 2750 250 
L 2750 250 
z
" transform="scale(0.015625)"/>
       <path id="Times New Roman-62" d="M 875 2325
Q 1000 2600 1275 2762 
Q 1550 2925 1800 2925 
Q 2325 2925 2587 2562 
Q 2850 2200 2850 1500 
Q 2850 800 2512 437 
Q 2175 75 1675 75 
Q 1425 75 1212 162 
Q 1000 250 850 400 
L 625 100 
L 525 100 
L 525 4025 
Q 525 4125 475 4175 
Q 425 4225 300 4225 
L 150 4225 
L 150 4375 
L 375 4375 
Q 500 4375 625 4425 
Q 750 4475 875 4575 
L 875 2325 
z
M 875 925 
Q 875 650 1062 450 
Q 1250 250 1625 250 
Q 2075 250 2262 562 
Q 2450 875 2450 1500 
Q 2450 2100 2287 2412 
Q 2125 2725 1775 2725 
Q 1475 2725 1250 2550 
Q 1025 2375 875 1925 
L 875 925 
z
" transform="scale(0.015625)"/>
       <path id="Times New Roman-70" d="M 1150 -675
L 1325 -675 
L 1325 -825 
L 175 -825 
L 175 -675 
L 325 -675 
Q 450 -675 500 -625 
Q 550 -575 550 -450 
L 550 2500 
Q 550 2600 500 2662 
Q 450 2725 325 2725 
L 175 2725 
L 175 2875 
L 400 2875 
Q 525 2875 637 2900 
Q 750 2925 850 3000 
L 900 3000 
L 900 2425 
Q 1075 2675 1287 2800 
Q 1500 2925 1750 2925 
Q 2250 2925 2575 2587 
Q 2900 2250 2900 1525 
Q 2900 825 2550 450 
Q 2200 75 1725 75 
Q 1450 75 1262 162 
Q 1075 250 900 425 
L 900 -450 
Q 900 -575 975 -625 
Q 1050 -675 1150 -675 
z
M 900 750 
Q 1025 500 1212 375 
Q 1400 250 1650 250 
Q 2000 250 2250 562 
Q 2500 875 2500 1525 
Q 2500 2125 2312 2425 
Q 2125 2725 1750 2725 
Q 1525 2725 1300 2587 
Q 1075 2450 900 2150 
L 900 750 
z
" transform="scale(0.015625)"/>
      </defs>
      <use xlink:href="#Times New Roman-42"/>
      <use xlink:href="#Times New Roman-69" x="50"/>
      <use xlink:href="#Times New Roman-74" x="100"/>
      <use xlink:href="#Times New Roman-65" x="150"/>
      <use xlink:href="#Times New Roman-20" x="200"/>
      <use xlink:href="#Times New Roman-52" x="250"/>
      <use xlink:href="#Times New Roman-61" x="300"/>
      <use xlink:href="#Times New Roman-74" x="350"/>
      <use xlink:href="#Times New Roman-65" x="400"/>
      <use xlink:href="#Times New Roman-20" x="450"/>
      <use xlink:href="#Times New Roman-28" x="500"/>
      <use xlink:href="#Times New Roman-6b" x="550"/>
      <use xlink:href="#Times New Roman-62" x="600"/>
      <use xlink:href="#Times New Roman-70" x="650"/>
      <use xlink:href="#Times New Roman-73" x="700"/>
      <use xlink:href="#Times New Roman-29" x="750"/>
     </g>
    </g>
   </g>
   <g id="line2d_15">
    <path d="M 173.045455 369.36 
L 178.441973 334.455616 
L 183.838491 334.455616 
L 189.23501 334.455616 
L 194.631528 334.455616 
L 205.424565 334.455616 
L 210.821083 334.455616 
L 216.217602 334.455616 
L 227.010638 334.455616 
L 237.803675 334.455616 
L 248.596712 334.455616 
L 259.389749 334.455616 
L 270.182785 334.455616 
L 280.975822 334.455616 
L 291.768859 334.455616 
L 302.561896 334.455616 
L 313.354932 334.455616 
L 324.147969 334.455616 
L 334.941006 334.455616 
L 345.734043 334.455616 
L 356.527079 334.455616 
L 367.320116 334.455616 
L 378.113153 334.455616 
L 388.90619 334.455616 
L 399.699226 334.455616 
L 410.492263 334.455616 
L 421.2853 334.455616 
L 432.078337 334.455616 
L 442.871373 334.455616 
L 453.66441 334.455616 
L 464.457447 334.455616 
L 475.250484 334.455616 
L 486.04352 334.455616 
L 496.836557 334.455616 
L 507.629594 334.455616 
L 518.422631 334.455616 
L 529.215667 334.455616 
L 540.008704 334.455616 
L 550.801741 334.455616 
L 561.594778 334.455616 
L 572.387814 334.455616 
L 583.180851 334.455616 
L 593.973888 334.455616 
L 604.766925 334.455616 
L 615.559961 334.455616 
L 626.352998 334.455616 
L 637.146035 334.455616 
L 647.939072 334.455616 
L 658.732108 334.455616 
L 669.525145 334.455616 
L 680.318182 334.455616 
L 691.111219 334.455616 
L 701.904255 334.455616 
L 712.697292 334.455616 
L 723.490329 334.455616 
L 734.283366 334.455616 
L 745.076402 334.455616 
L 755.869439 334.455616 
L 766.662476 334.455616 
L 777.455513 334.455616 
L 788.248549 334.455616 
L 799.041586 334.455616 
L 809.834623 334.455616 
L 820.62766 334.455616 
L 831.420696 334.455616 
L 842.213733 334.455616 
L 853.00677 334.455616 
L 863.799807 334.455616 
L 874.592843 334.455616 
L 885.38588 334.455616 
L 896.178917 334.455616 
L 906.971954 334.455616 
L 917.76499 334.455616 
L 933.954545 334.455616 
" clip-path="url(#p3ffee83d8c)" style="fill: none; stroke: #ff0000; stroke-width: 1.5; stroke-linecap: square"/>
   </g>
   <g id="line2d_16">
    <path d="M 183.838491 384.48 
L 183.838491 51.84 
" clip-path="url(#p3ffee83d8c)" style="fill: none; stroke-dasharray: 5.55,2.4; stroke-dashoffset: 0; stroke: #ff0000; stroke-width: 1.5"/>
   </g>
   <g id="line2d_17">
    <path d="M 173.045455 234.968248 
L 178.441973 234.968248 
L 183.838491 234.968248 
L 189.23501 232.056326 
L 194.631528 227.397249 
L 205.424565 213.644513 
L 210.821083 184.805979 
L 216.217602 139.716876 
L 227.010638 88.363197 
L 237.803675 66.96 
L 248.596712 69.305675 
L 259.389749 114.516162 
L 270.182785 170.43648 
L 280.975822 240.49719 
L 291.768859 271.537539 
L 302.561896 292.740609 
L 313.354932 288.987841 
L 324.147969 296.139338 
L 334.941006 288.393606 
L 345.734043 297.227026 
L 356.527079 303.254784 
L 367.320116 316.481608 
L 378.113153 322.720405 
L 388.90619 339.567747 
L 399.699226 345.843261 
L 410.492263 351.0081 
L 421.2853 347.010283 
L 432.078337 343.343869 
L 442.871373 330.718551 
L 453.66441 325.435613 
L 464.457447 322.896464 
L 475.250484 321.89405 
L 486.04352 314.54082 
L 496.836557 317.29384 
L 507.629594 322.867997 
L 518.422631 327.267181 
L 529.215667 324.186237 
L 540.008704 329.423346 
L 550.801741 331.31442 
L 561.594778 333.422996 
L 572.387814 328.508292 
L 583.180851 334.872346 
L 593.973888 340.822269 
L 604.766925 348.451855 
L 615.559961 346.568 
L 626.352998 349.411785 
L 637.146035 345.853899 
L 647.939072 345.808363 
L 658.732108 340.282614 
L 669.525145 343.889456 
L 680.318182 342.833615 
L 691.111219 344.747669 
L 701.904255 335.737664 
L 712.697292 336.118723 
L 723.490329 330.935021 
L 734.283366 332.855728 
L 745.076402 331.848515 
L 755.869439 333.387851 
L 766.662476 331.918326 
L 777.455513 328.352248 
L 788.248549 329.229291 
L 799.041586 326.153813 
L 809.834623 323.17142 
L 820.62766 318.795344 
L 831.420696 324.417617 
L 842.213733 324.306329 
L 853.00677 320.307106 
L 863.799807 320.281078 
L 874.592843 317.307496 
L 885.38588 302.692975 
L 896.178917 271.409182 
L 906.971954 257.484293 
L 917.76499 249.468517 
L 933.954545 258.847976 
" clip-path="url(#p3ffee83d8c)" style="fill: none; stroke: #008000; stroke-width: 1.5; stroke-linecap: square"/>
   </g>
   <g id="patch_3">
    <path d="M 135 384.48 
L 135 51.84 
" style="fill: none; stroke: #000000; stroke-width: 0.8; stroke-linejoin: miter; stroke-linecap: square"/>
   </g>
   <g id="patch_4">
    <path d="M 972 384.48 
L 972 51.84 
" style="fill: none; stroke: #000000; stroke-width: 0.8; stroke-linejoin: miter; stroke-linecap: square"/>
   </g>
   <g id="patch_5">
    <path d="M 135 384.48 
L 972 384.48 
" style="fill: none; stroke: #000000; stroke-width: 0.8; stroke-linejoin: miter; stroke-linecap: square"/>
   </g>
   <g id="patch_6">
    <path d="M 135 51.84 
L 972 51.84 
" style="fill: none; stroke: #000000; stroke-width: 0.8; stroke-linejoin: miter; stroke-linecap: square"/>
   </g>
  </g>
  <g id="axes_2">
   <g id="matplotlib.axis_3">
    <g id="ytick_7">
     <g id="line2d_18">
      <path d="M 135 348.909074 
L 972 348.909074 
" clip-path="url(#p3ffee83d8c)" style="fill: none; stroke: #b0b0b0; stroke-width: 0.8; stroke-linecap: square"/>
     </g>
     <g id="line2d_19">
      <defs>
       <path id="me3f0a6b722" d="M 0 0 
L 3.5 0 
" style="stroke: #000000; stroke-width: 0.8"/>
      </defs>
      <g>
       <use xlink:href="#me3f0a6b722" x="972" y="348.909074" style="stroke: #000000; stroke-width: 0.8"/>
      </g>
     </g>
     <g id="text_17">
      <!-- 5 -->
      <g transform="translate(979 352.483292) scale(0.1 -0.1)">
       <use xlink:href="#Times New Roman-35"/>
      </g>
     </g>
    </g>
    <g id="ytick_8">
     <g id="line2d_20">
      <path d="M 135 293.57648 
L 972 293.57648 
" clip-path="url(#p3ffee83d8c)" style="fill: none; stroke: #b0b0b0; stroke-width: 0.8; stroke-linecap: square"/>
     </g>
     <g id="line2d_21">
      <g>
       <use xlink:href="#me3f0a6b722" x="972" y="293.57648" style="stroke: #000000; stroke-width: 0.8"/>
      </g>
     </g>
     <g id="text_18">
      <!-- 10 -->
      <g transform="translate(979 297.150699) scale(0.1 -0.1)">
       <use xlink:href="#Times New Roman-31"/>
       <use xlink:href="#Times New Roman-30" x="50"/>
      </g>
     </g>
    </g>
    <g id="ytick_9">
     <g id="line2d_22">
      <path d="M 135 238.243887 
L 972 238.243887 
" clip-path="url(#p3ffee83d8c)" style="fill: none; stroke: #b0b0b0; stroke-width: 0.8; stroke-linecap: square"/>
     </g>
     <g id="line2d_23">
      <g>
       <use xlink:href="#me3f0a6b722" x="972" y="238.243887" style="stroke: #000000; stroke-width: 0.8"/>
      </g>
     </g>
     <g id="text_19">
      <!-- 15 -->
      <g transform="translate(979 241.818106) scale(0.1 -0.1)">
       <use xlink:href="#Times New Roman-31"/>
       <use xlink:href="#Times New Roman-35" x="50"/>
      </g>
     </g>
    </g>
    <g id="ytick_10">
     <g id="line2d_24">
      <path d="M 135 182.911294 
L 972 182.911294 
" clip-path="url(#p3ffee83d8c)" style="fill: none; stroke: #b0b0b0; stroke-width: 0.8; stroke-linecap: square"/>
     </g>
     <g id="line2d_25">
      <g>
       <use xlink:href="#me3f0a6b722" x="972" y="182.911294" style="stroke: #000000; stroke-width: 0.8"/>
      </g>
     </g>
     <g id="text_20">
      <!-- 20 -->
      <g transform="translate(979 186.485512) scale(0.1 -0.1)">
       <use xlink:href="#Times New Roman-32"/>
       <use xlink:href="#Times New Roman-30" x="50"/>
      </g>
     </g>
    </g>
    <g id="ytick_11">
     <g id="line2d_26">
      <path d="M 135 127.5787 
L 972 127.5787 
" clip-path="url(#p3ffee83d8c)" style="fill: none; stroke: #b0b0b0; stroke-width: 0.8; stroke-linecap: square"/>
     </g>
     <g id="line2d_27">
      <g>
       <use xlink:href="#me3f0a6b722" x="972" y="127.5787" style="stroke: #000000; stroke-width: 0.8"/>
      </g>
     </g>
     <g id="text_21">
      <!-- 25 -->
      <g transform="translate(979 131.152919) scale(0.1 -0.1)">
       <use xlink:href="#Times New Roman-32"/>
       <use xlink:href="#Times New Roman-35" x="50"/>
      </g>
     </g>
    </g>
    <g id="ytick_12">
     <g id="line2d_28">
      <path d="M 135 72.246107 
L 972 72.246107 
" clip-path="url(#p3ffee83d8c)" style="fill: none; stroke: #b0b0b0; stroke-width: 0.8; stroke-linecap: square"/>
     </g>
     <g id="line2d_29">
      <g>
       <use xlink:href="#me3f0a6b722" x="972" y="72.246107" style="stroke: #000000; stroke-width: 0.8"/>
      </g>
     </g>
     <g id="text_22">
      <!-- 30 -->
      <g transform="translate(979 75.820326) scale(0.1 -0.1)">
       <use xlink:href="#Times New Roman-33"/>
       <use xlink:href="#Times New Roman-30" x="50"/>
      </g>
     </g>
    </g>
    <g id="text_23">
     <!-- Buffer Length (s) -->
     <g transform="translate(1001.046875 260.66) rotate(-90) scale(0.1 -0.1)">
      <defs>
       <path id="Times New Roman-75" d="M 1450 325
Q 1750 325 1962 475 
Q 2175 625 2275 950 
L 2275 2525 
Q 2275 2625 2225 2687 
Q 2175 2750 2050 2750 
L 1900 2750 
L 1900 2900 
L 2050 2900 
Q 2200 2900 2325 2925 
Q 2450 2950 2575 3050 
L 2625 3050 
L 2625 600 
Q 2625 500 2687 450 
Q 2750 400 2850 400 
L 3000 400 
L 3000 250 
L 2850 250 
Q 2725 250 2600 212 
Q 2475 175 2325 100 
L 2275 100 
L 2275 625 
Q 2150 350 1900 212 
Q 1650 75 1325 75 
Q 925 75 725 300 
Q 525 525 525 1025 
L 525 2525 
Q 525 2625 475 2687 
Q 425 2750 300 2750 
L 150 2750 
L 150 2900 
L 300 2900 
Q 450 2900 575 2925 
Q 700 2950 825 3050 
L 875 3050 
L 875 975 
Q 875 625 1025 475 
Q 1175 325 1450 325 
z
" transform="scale(0.015625)"/>
       <path id="Times New Roman-66" d="M 1125 3325
Q 1125 3850 1450 4112 
Q 1775 4375 2175 4375 
Q 2600 4375 2812 4225 
Q 3025 4075 3025 3875 
Q 3025 3775 2975 3700 
Q 2925 3625 2775 3625 
Q 2675 3625 2612 3675 
Q 2550 3725 2550 3850 
Q 2550 3875 2575 3925 
Q 2575 3975 2575 4000 
Q 2575 4100 2500 4162 
Q 2425 4225 2150 4225 
Q 1850 4225 1662 4037 
Q 1475 3850 1475 3400 
L 1475 2900 
L 2525 2900 
L 2525 2750 
L 1475 2750 
L 1475 450 
Q 1475 350 1537 300 
Q 1600 250 1700 250 
L 2300 250 
L 2300 100 
L 475 100 
L 475 250 
L 900 250 
Q 1025 250 1075 300 
Q 1125 350 1125 450 
L 1125 2750 
L 350 2750 
L 350 2900 
L 1125 2900 
L 1125 3325 
z
" transform="scale(0.015625)"/>
       <path id="Times New Roman-72" d="M 1275 2125
Q 1525 2525 1812 2737 
Q 2100 2950 2400 2950 
Q 2650 2950 2787 2837 
Q 2925 2725 2925 2575 
Q 2925 2450 2862 2375 
Q 2800 2300 2675 2300 
Q 2550 2300 2487 2375 
Q 2425 2450 2450 2575 
Q 2450 2650 2425 2700 
Q 2400 2750 2275 2750 
Q 2075 2750 1787 2500 
Q 1500 2250 1275 1800 
L 1275 450 
Q 1275 350 1337 300 
Q 1400 250 1500 250 
L 2050 250 
L 2050 100 
L 200 100 
L 200 250 
L 700 250 
Q 825 250 875 300 
Q 925 350 925 450 
L 925 2525 
Q 925 2625 875 2687 
Q 825 2750 700 2750 
L 225 2750 
L 225 2900 
L 425 2900 
Q 600 2900 837 2937 
Q 1075 2975 1200 3025 
L 1275 3025 
L 1275 2125 
z
" transform="scale(0.015625)"/>
       <path id="Times New Roman-4c" d="M 1000 450
Q 1000 350 1062 300 
Q 1125 250 1225 250 
L 1900 250 
Q 2250 250 2500 462 
Q 2750 675 2875 1125 
L 3000 1075 
L 2775 100 
L 200 100 
L 200 250 
L 375 250 
Q 500 250 550 300 
Q 600 350 600 450 
L 600 4025 
Q 600 4125 550 4175 
Q 500 4225 375 4225 
L 225 4225 
L 225 4375 
L 1400 4375 
L 1400 4225 
L 1225 4225 
Q 1125 4225 1062 4175 
Q 1000 4125 1000 4025 
L 1000 450 
z
" transform="scale(0.015625)"/>
       <path id="Times New Roman-6e" d="M 200 100
L 200 250 
L 325 250 
Q 450 250 500 300 
Q 550 350 550 450 
L 550 2600 
Q 550 2675 525 2712 
Q 500 2750 425 2750 
L 225 2750 
L 225 2900 
L 400 2900 
Q 525 2900 637 2925 
Q 750 2950 850 3025 
L 900 3025 
L 900 2450 
Q 1125 2700 1350 2825 
Q 1575 2950 1825 2950 
Q 2250 2950 2450 2725 
Q 2650 2500 2650 2050 
L 2650 450 
Q 2650 350 2712 300 
Q 2775 250 2875 250 
L 3000 250 
L 3000 100 
L 1950 100 
L 1950 250 
L 2075 250 
Q 2200 250 2250 300 
Q 2300 350 2300 450 
L 2300 2125 
Q 2300 2425 2175 2587 
Q 2050 2750 1800 2750 
Q 1575 2750 1337 2600 
Q 1100 2450 900 2175 
L 900 450 
Q 900 350 962 300 
Q 1025 250 1125 250 
L 1250 250 
L 1250 100 
L 200 100 
z
" transform="scale(0.015625)"/>
       <path id="Times New Roman-67" d="M 875 1975
Q 875 1675 1050 1462 
Q 1225 1250 1525 1250 
Q 1850 1250 2012 1437 
Q 2175 1625 2175 1975 
Q 2175 2400 1987 2587 
Q 1800 2775 1525 2775 
Q 1250 2775 1062 2587 
Q 875 2400 875 1975 
z
M 2100 625 
Q 2475 575 2650 412 
Q 2825 250 2825 -25 
Q 2825 -400 2512 -625 
Q 2200 -850 1525 -850 
Q 1000 -850 675 -637 
Q 350 -425 350 -150 
Q 350 25 475 200 
Q 600 375 875 475 
Q 725 550 637 637 
Q 550 725 550 850 
Q 550 1000 650 1112 
Q 750 1225 900 1300 
Q 750 1425 637 1600 
Q 525 1775 525 1975 
Q 525 2350 787 2637 
Q 1050 2925 1525 2925 
Q 1725 2925 1912 2875 
Q 2100 2825 2225 2700 
Q 2400 2825 2537 2887 
Q 2675 2950 2775 2950 
Q 2900 2950 2950 2862 
Q 3000 2775 3000 2700 
Q 3000 2600 2962 2537 
Q 2925 2475 2825 2475 
Q 2750 2475 2700 2512 
Q 2650 2550 2625 2625 
Q 2600 2700 2512 2687 
Q 2425 2675 2325 2600 
Q 2425 2500 2475 2325 
Q 2525 2150 2525 1975 
Q 2525 1675 2287 1387 
Q 2050 1100 1525 1100 
Q 1375 1100 1250 1137 
Q 1125 1175 1050 1225 
Q 950 1175 900 1100 
Q 850 1025 850 975 
Q 850 875 900 825 
Q 950 775 1050 775 
Q 1375 725 1637 687 
Q 1900 650 2100 625 
z
M 1075 425 
Q 850 325 762 187 
Q 675 50 675 -150 
Q 675 -350 900 -525 
Q 1125 -700 1575 -700 
Q 2000 -700 2250 -562 
Q 2500 -425 2500 -150 
Q 2500 25 2437 125 
Q 2375 225 2250 250 
Q 2000 300 1700 350 
Q 1400 375 1075 425 
z
" transform="scale(0.015625)"/>
       <path id="Times New Roman-68" d="M 200 100
L 200 250 
L 325 250 
Q 450 250 500 300 
Q 550 350 550 450 
L 550 4025 
Q 550 4125 500 4175 
Q 450 4225 325 4225 
L 175 4225 
L 175 4375 
L 450 4375 
Q 550 4375 650 4425 
Q 750 4475 850 4575 
L 900 4575 
L 900 2450 
Q 1125 2725 1362 2837 
Q 1600 2950 1875 2950 
Q 2250 2950 2450 2737 
Q 2650 2525 2650 2075 
L 2650 450 
Q 2650 350 2712 300 
Q 2775 250 2875 250 
L 3000 250 
L 3000 100 
L 1950 100 
L 1950 250 
L 2075 250 
Q 2200 250 2250 300 
Q 2300 350 2300 450 
L 2300 2025 
Q 2300 2450 2162 2587 
Q 2025 2725 1800 2725 
Q 1600 2725 1362 2600 
Q 1125 2475 900 2175 
L 900 450 
Q 900 350 962 300 
Q 1025 250 1125 250 
L 1250 250 
L 1250 100 
L 200 100 
z
" transform="scale(0.015625)"/>
      </defs>
      <use xlink:href="#Times New Roman-42"/>
      <use xlink:href="#Times New Roman-75" x="50"/>
      <use xlink:href="#Times New Roman-66" x="100"/>
      <use xlink:href="#Times New Roman-66" x="150"/>
      <use xlink:href="#Times New Roman-65" x="200"/>
      <use xlink:href="#Times New Roman-72" x="250"/>
      <use xlink:href="#Times New Roman-20" x="300"/>
      <use xlink:href="#Times New Roman-4c" x="350"/>
      <use xlink:href="#Times New Roman-65" x="400"/>
      <use xlink:href="#Times New Roman-6e" x="450"/>
      <use xlink:href="#Times New Roman-67" x="500"/>
      <use xlink:href="#Times New Roman-74" x="550"/>
      <use xlink:href="#Times New Roman-68" x="600"/>
      <use xlink:href="#Times New Roman-20" x="650"/>
      <use xlink:href="#Times New Roman-28" x="700"/>
      <use xlink:href="#Times New Roman-73" x="750"/>
      <use xlink:href="#Times New Roman-29" x="800"/>
     </g>
    </g>
   </g>
   <g id="line2d_30">
    <path d="M 173.045455 369.36 
L 178.441973 369.36 
L 183.838491 369.36 
L 189.23501 369.36 
L 194.631528 365.785514 
L 205.424565 362.211029 
L 210.821083 347.536825 
L 216.217602 325.389033 
L 227.010638 303.24124 
L 237.803675 273.531326 
L 248.596712 243.73288 
L 259.389749 195.696812 
L 270.182785 147.531634 
L 280.975822 99.285301 
L 291.768859 73.160939 
L 302.561896 69.117971 
L 313.354932 72.519081 
L 324.147969 72.519081 
L 334.941006 72.519081 
L 345.734043 70.058625 
L 356.527079 73.297426 
L 367.320116 73.297426 
L 378.113153 73.297426 
L 388.90619 69.365123 
L 399.699226 66.96 
L 410.492263 70.335288 
L 421.2853 74.027817 
L 432.078337 74.027817 
L 442.871373 74.027817 
L 453.66441 70.464398 
L 464.457447 73.393336 
L 475.250484 76.790757 
L 486.04352 76.790757 
L 496.836557 76.790757 
L 507.629594 76.281698 
L 518.422631 77.587547 
L 529.215667 77.587547 
L 540.008704 77.587547 
L 550.801741 77.034221 
L 561.594778 77.034221 
L 572.387814 73.050274 
L 583.180851 70.054936 
L 593.973888 72.891654 
L 604.766925 72.891654 
L 615.559961 72.891654 
L 626.352998 69.922138 
L 637.146035 72.725656 
L 647.939072 72.725656 
L 658.732108 72.725656 
L 669.525145 69.741385 
L 680.318182 72.58548 
L 691.111219 72.58548 
L 701.904255 72.58548 
L 712.697292 69.955338 
L 723.490329 73.360137 
L 734.283366 73.360137 
L 745.076402 73.360137 
L 755.869439 69.781962 
L 766.662476 73.15725 
L 777.455513 76.569427 
L 788.248549 76.569427 
L 799.041586 77.019465 
L 809.834623 77.019465 
L 820.62766 77.019465 
L 831.420696 76.436629 
L 842.213733 76.436629 
L 853.00677 73.38227 
L 863.799807 69.601209 
L 874.592843 73.245783 
L 885.38588 73.245783 
L 896.178917 73.245783 
L 906.971954 70.239378 
L 917.76499 73.625733 
L 933.954545 73.625733 
" clip-path="url(#p3ffee83d8c)" style="fill: none; stroke: #1f77b4; stroke-width: 1.5; stroke-linecap: square"/>
   </g>
   <g id="patch_7">
    <path d="M 135 384.48 
L 135 51.84 
" style="fill: none; stroke: #000000; stroke-width: 0.8; stroke-linejoin: miter; stroke-linecap: square"/>
   </g>
   <g id="patch_8">
    <path d="M 972 384.48 
L 972 51.84 
" style="fill: none; stroke: #000000; stroke-width: 0.8; stroke-linejoin: miter; stroke-linecap: square"/>
   </g>
   <g id="patch_9">
    <path d="M 135 384.48 
L 972 384.48 
" style="fill: none; stroke: #000000; stroke-width: 0.8; stroke-linejoin: miter; stroke-linecap: square"/>
   </g>
   <g id="patch_10">
    <path d="M 135 51.84 
L 972 51.84 
" style="fill: none; stroke: #000000; stroke-width: 0.8; stroke-linejoin: miter; stroke-linecap: square"/>
   </g>
   <g id="text_24">
    <!-- withtcp/tp/tp3_wave________QoE:3474 -->
    <g transform="translate(448.5 45.84) scale(0.12 -0.12)">
     <defs>
      <path id="Times New Roman-77" d="M 2325 2900
L 3175 2900 
L 3175 2750 
L 3075 2750 
Q 2975 2750 2900 2675 
Q 2825 2600 2775 2425 
L 2175 75 
L 2025 75 
L 1575 1975 
L 1100 75 
L 950 75 
L 375 2375 
Q 350 2550 275 2650 
Q 200 2750 125 2750 
L 25 2750 
L 25 2900 
L 925 2900 
L 925 2750 
L 825 2750 
Q 725 2750 700 2662 
Q 675 2575 700 2425 
L 1075 800 
L 1125 800 
L 1500 2300 
Q 1475 2525 1400 2637 
Q 1325 2750 1225 2750 
L 1150 2750 
L 1150 2900 
L 2000 2900 
L 2000 2750 
L 1925 2750 
Q 1825 2750 1800 2662 
Q 1775 2575 1800 2425 
L 2175 800 
L 2200 800 
L 2625 2550 
Q 2650 2650 2600 2700 
Q 2550 2750 2450 2750 
L 2325 2750 
L 2325 2900 
z
M 1725 2750 
L 1725 2750 
z
M 625 2750 
L 625 2750 
z
M 275 2750 
L 275 2750 
z
M 2875 2750 
L 2875 2750 
z
M 2675 2750 
L 2675 2750 
z
" transform="scale(0.015625)"/>
      <path id="Times New Roman-63" d="M 2150 2225
Q 2150 2300 2175 2325 
Q 2175 2350 2200 2425 
Q 2225 2525 2100 2662 
Q 1975 2800 1675 2800 
Q 1300 2800 1037 2437 
Q 775 2075 775 1475 
Q 775 925 1000 587 
Q 1225 250 1750 250 
Q 2100 250 2337 475 
Q 2575 700 2675 1000 
L 2800 950 
Q 2700 575 2425 312 
Q 2150 50 1675 50 
Q 1075 50 725 425 
Q 375 800 375 1500 
Q 375 2125 750 2537 
Q 1125 2950 1725 2950 
Q 2150 2950 2387 2725 
Q 2625 2500 2625 2275 
Q 2625 2125 2562 2062 
Q 2500 2000 2375 2000 
Q 2275 2000 2212 2062 
Q 2150 2125 2150 2225 
z
" transform="scale(0.015625)"/>
      <path id="Times New Roman-2f" d="M 400 -475
L 225 -375 
L 2775 4975 
L 2950 4875 
L 400 -475 
z
" transform="scale(0.015625)"/>
      <path id="Times New Roman-5f" d="M 0 -875
L 0 -725 
L 3175 -725 
L 3175 -875 
L 0 -875 
z
" transform="scale(0.015625)"/>
      <path id="Times New Roman-76" d="M 1625 75
L 1475 75 
L 625 2525 
Q 600 2625 525 2687 
Q 450 2750 350 2750 
L 225 2750 
L 225 2900 
L 1300 2900 
L 1300 2750 
L 1200 2750 
Q 1050 2750 1025 2700 
Q 1000 2650 1000 2600 
Q 1000 2500 1025 2425 
L 1625 675 
L 1675 675 
L 2275 2400 
Q 2325 2525 2325 2575 
Q 2325 2600 2275 2675 
Q 2225 2750 2075 2750 
L 2025 2750 
L 2025 2900 
L 2925 2900 
L 2925 2750 
L 2875 2750 
Q 2725 2750 2637 2662 
Q 2550 2575 2475 2400 
L 1625 75 
z
M 2600 2750 
L 2600 2750 
z
M 2400 2750 
L 2400 2750 
z
M 925 2750 
L 925 2750 
z
M 550 2750 
L 550 2750 
z
" transform="scale(0.015625)"/>
      <path id="Times New Roman-51" d="M 1850 275
Q 1775 650 1675 887 
Q 1575 1125 1375 1125 
Q 1275 1125 1137 1025 
Q 1000 925 1000 700 
Q 1000 525 1175 387 
Q 1350 250 1600 250 
Q 1700 250 1762 250 
Q 1825 250 1850 275 
z
M 1425 1375 
Q 1725 1375 1887 1162 
Q 2050 950 2175 525 
Q 2350 650 2437 1087 
Q 2525 1525 2525 2250 
Q 2525 3225 2312 3737 
Q 2100 4250 1600 4250 
Q 1175 4250 925 3750 
Q 675 3250 675 2250 
Q 675 1750 712 1412 
Q 750 1075 825 925 
Q 925 1150 1050 1262 
Q 1175 1375 1425 1375 
z
M 1600 75 
Q 1050 75 625 575 
Q 200 1075 200 2250 
Q 200 3250 575 3837 
Q 950 4425 1600 4425 
Q 2200 4425 2600 3862 
Q 3000 3300 3000 2250 
Q 3000 1375 2787 925 
Q 2575 475 2275 250 
Q 2325 75 2400 0 
Q 2475 -75 2550 -75 
Q 2650 -75 2725 -25 
Q 2800 25 2825 150 
L 2925 100 
Q 2850 -200 2725 -337 
Q 2600 -475 2425 -475 
Q 2300 -475 2187 -400 
Q 2075 -325 1900 100 
Q 1875 75 1800 75 
Q 1725 75 1600 75 
z
" transform="scale(0.015625)"/>
      <path id="Times New Roman-6f" d="M 2900 1500
Q 2900 875 2525 462 
Q 2150 50 1600 50 
Q 1025 50 662 475 
Q 300 900 300 1500 
Q 300 2050 662 2500 
Q 1025 2950 1600 2950 
Q 2200 2950 2550 2500 
Q 2900 2050 2900 1500 
z
M 700 1475 
Q 700 825 962 512 
Q 1225 200 1600 200 
Q 2025 200 2262 537 
Q 2500 875 2500 1475 
Q 2500 2125 2237 2462 
Q 1975 2800 1600 2800 
Q 1250 2800 975 2462 
Q 700 2125 700 1475 
z
" transform="scale(0.015625)"/>
      <path id="Times New Roman-45" d="M 200 4225
L 200 4375 
L 2650 4375 
L 2925 3525 
L 2800 3475 
Q 2600 3850 2375 4037 
Q 2150 4225 1875 4225 
L 1175 4225 
Q 1075 4225 1012 4175 
Q 950 4125 950 4025 
L 950 2475 
L 1675 2475 
Q 1925 2475 2037 2600 
Q 2150 2725 2150 2975 
L 2150 3125 
L 2300 3125 
L 2300 1650 
L 2150 1650 
L 2150 1750 
Q 2150 2025 2037 2175 
Q 1925 2325 1675 2325 
L 950 2325 
L 950 450 
Q 950 350 1012 300 
Q 1075 250 1175 250 
L 1825 250 
Q 2200 250 2462 462 
Q 2725 675 2875 1125 
L 3000 1075 
L 2725 100 
L 175 100 
L 175 250 
L 325 250 
Q 450 250 500 300 
Q 550 350 550 450 
L 550 4025 
Q 550 4125 500 4175 
Q 450 4225 325 4225 
L 200 4225 
z
" transform="scale(0.015625)"/>
      <path id="Times New Roman-3a" d="M 1900 2725
Q 1900 2575 1800 2475 
Q 1700 2375 1550 2375 
Q 1400 2375 1300 2475 
Q 1200 2575 1200 2725 
Q 1200 2875 1300 2975 
Q 1400 3075 1550 3075 
Q 1700 3075 1800 2975 
Q 1900 2875 1900 2725 
z
M 1900 375 
Q 1900 225 1800 125 
Q 1700 25 1550 25 
Q 1400 25 1300 125 
Q 1200 225 1200 375 
Q 1200 525 1300 625 
Q 1400 725 1550 725 
Q 1700 725 1800 625 
Q 1900 525 1900 375 
z
" transform="scale(0.015625)"/>
     </defs>
     <use xlink:href="#Times New Roman-77"/>
     <use xlink:href="#Times New Roman-69" x="50"/>
     <use xlink:href="#Times New Roman-74" x="100"/>
     <use xlink:href="#Times New Roman-68" x="150"/>
     <use xlink:href="#Times New Roman-74" x="200"/>
     <use xlink:href="#Times New Roman-63" x="250"/>
     <use xlink:href="#Times New Roman-70" x="300"/>
     <use xlink:href="#Times New Roman-2f" x="350"/>
     <use xlink:href="#Times New Roman-74" x="400"/>
     <use xlink:href="#Times New Roman-70" x="450"/>
     <use xlink:href="#Times New Roman-2f" x="500"/>
     <use xlink:href="#Times New Roman-74" x="550"/>
     <use xlink:href="#Times New Roman-70" x="600"/>
     <use xlink:href="#Times New Roman-33" x="650"/>
     <use xlink:href="#Times New Roman-5f" x="700"/>
     <use xlink:href="#Times New Roman-77" x="750"/>
     <use xlink:href="#Times New Roman-61" x="800"/>
     <use xlink:href="#Times New Roman-76" x="850"/>
     <use xlink:href="#Times New Roman-65" x="900"/>
     <use xlink:href="#Times New Roman-5f" x="950"/>
     <use xlink:href="#Times New Roman-5f" x="1000"/>
     <use xlink:href="#Times New Roman-5f" x="1050"/>
     <use xlink:href="#Times New Roman-5f" x="1100"/>
     <use xlink:href="#Times New Roman-5f" x="1150"/>
     <use xlink:href="#Times New Roman-5f" x="1200"/>
     <use xlink:href="#Times New Roman-5f" x="1250"/>
     <use xlink:href="#Times New Roman-5f" x="1300"/>
     <use xlink:href="#Times New Roman-51" x="1350"/>
     <use xlink:href="#Times New Roman-6f" x="1400"/>
     <use xlink:href="#Times New Roman-45" x="1450"/>
     <use xlink:href="#Times New Roman-3a" x="1500"/>
     <use xlink:href="#Times New Roman-33" x="1550"/>
     <use xlink:href="#Times New Roman-34" x="1600"/>
     <use xlink:href="#Times New Roman-37" x="1650"/>
     <use xlink:href="#Times New Roman-34" x="1700"/>
    </g>
   </g>
  </g>
  <g id="legend_1">
   <g id="patch_11">
    <path d="M 991 48.351562 
L 1073 48.351562 
Q 1075 48.351562 1075 46.351562 
L 1075 7 
Q 1075 5 1073 5 
L 991 5 
Q 989 5 989 7 
L 989 46.351562 
Q 989 48.351562 991 48.351562 
z
" style="fill: #ffffff; opacity: 0.8; stroke: #cccccc; stroke-linejoin: miter"/>
   </g>
   <g id="line2d_31">
    <path d="M 993 12.648438 
L 1003 12.648438 
L 1013 12.648438 
" style="fill: none; stroke: #ff0000; stroke-width: 1.5; stroke-linecap: square"/>
   </g>
   <g id="text_25">
    <!-- Bitrate -->
    <g transform="translate(1021 16.148438) scale(0.1 -0.1)">
     <use xlink:href="#Times New Roman-42"/>
     <use xlink:href="#Times New Roman-69" x="50"/>
     <use xlink:href="#Times New Roman-74" x="100"/>
     <use xlink:href="#Times New Roman-72" x="150"/>
     <use xlink:href="#Times New Roman-61" x="200"/>
     <use xlink:href="#Times New Roman-74" x="250"/>
     <use xlink:href="#Times New Roman-65" x="300"/>
    </g>
   </g>
   <g id="line2d_32">
    <path d="M 993 26.085938 
L 1003 26.085938 
L 1013 26.085938 
" style="fill: none; stroke: #008000; stroke-width: 1.5; stroke-linecap: square"/>
   </g>
   <g id="text_26">
    <!-- Throughput -->
    <g transform="translate(1021 29.585938) scale(0.1 -0.1)">
     <use xlink:href="#Times New Roman-54"/>
     <use xlink:href="#Times New Roman-68" x="50"/>
     <use xlink:href="#Times New Roman-72" x="100"/>
     <use xlink:href="#Times New Roman-6f" x="150"/>
     <use xlink:href="#Times New Roman-75" x="200"/>
     <use xlink:href="#Times New Roman-67" x="250"/>
     <use xlink:href="#Times New Roman-68" x="300"/>
     <use xlink:href="#Times New Roman-70" x="350"/>
     <use xlink:href="#Times New Roman-75" x="400"/>
     <use xlink:href="#Times New Roman-74" x="450"/>
    </g>
   </g>
   <g id="line2d_33">
    <path d="M 993 39.5625 
L 1003 39.5625 
L 1013 39.5625 
" style="fill: none; stroke: #1f77b4; stroke-width: 1.5; stroke-linecap: square"/>
   </g>
   <g id="text_27">
    <!-- buffer -->
    <g transform="translate(1021 43.0625) scale(0.1 -0.1)">
     <use xlink:href="#Times New Roman-62"/>
     <use xlink:href="#Times New Roman-75" x="50"/>
     <use xlink:href="#Times New Roman-66" x="100"/>
     <use xlink:href="#Times New Roman-66" x="150"/>
     <use xlink:href="#Times New Roman-65" x="200"/>
     <use xlink:href="#Times New Roman-72" x="250"/>
    </g>
   </g>
  </g>
 </g>
 <defs>
  <clipPath id="p3ffee83d8c">
   <rect x="135" y="51.84" width="837" height="332.64"/>
  </clipPath>
 </defs>
</svg>
