<?xml version="1.0" encoding="utf-8" standalone="no"?>
<!DOCTYPE svg PUBLIC "-//W3C//DTD SVG 1.1//EN"
  "http://www.w3.org/Graphics/SVG/1.1/DTD/svg11.dtd">
<svg xmlns:xlink="http://www.w3.org/1999/xlink" width="433.365625pt" height="340.853125pt" viewBox="0 0 433.365625 340.853125" xmlns="http://www.w3.org/2000/svg" version="1.1">
 <metadata>
  <rdf:RDF xmlns:dc="http://purl.org/dc/elements/1.1/" xmlns:cc="http://creativecommons.org/ns#" xmlns:rdf="http://www.w3.org/1999/02/22-rdf-syntax-ns#">
   <cc:Work>
    <dc:type rdf:resource="http://purl.org/dc/dcmitype/StillImage"/>
    <dc:date>2024-04-13T13:24:59.534698</dc:date>
    <dc:format>image/svg+xml</dc:format>
    <dc:creator>
     <cc:Agent>
      <dc:title>Matplotlib v3.8.3, https://matplotlib.org/</dc:title>
     </cc:Agent>
    </dc:creator>
   </cc:Work>
  </rdf:RDF>
 </metadata>
 <defs>
  <style type="text/css">*{stroke-linejoin: round; stroke-linecap: butt}</style>
 </defs>
 <g id="figure_1">
  <g id="patch_1">
   <path d="M 0 340.853125 
L 433.365625 340.853125 
L 433.365625 0 
L 0 0 
z
" style="fill: #ffffff"/>
  </g>
  <g id="axes_1">
   <g id="patch_2">
    <path d="M 46.2 289.955 
L 381 289.955 
L 381 12.755 
L 46.2 12.755 
z
" style="fill: #ffffff"/>
   </g>
   <g id="PolyCollection_1">
    <defs>
     <path id="m1a48eadf39" d="M 46.2 -207.931925 
L 46.2 -95.735225 
L 51.78 -86.968775 
L 57.36 -85.994725 
L 62.94 -92.4223 
L 68.52 -118.37284 
L 74.1 -157.33946 
L 79.68 -203.284205 
L 85.26 -250.514465 
L 90.84 -290.264945 
L 96.42 -312.713525 
L 102 -320.197925 
L 107.58 -320.197925 
L 113.16 -320.197925 
L 118.74 -320.197925 
L 124.32 -320.197925 
L 129.9 -320.197925 
L 135.48 -320.197925 
L 141.06 -320.197925 
L 146.64 -320.197925 
L 152.22 -320.197925 
L 157.8 -320.197925 
L 163.38 -320.197925 
L 168.96 -320.197925 
L 174.54 -320.197925 
L 180.12 -320.197925 
L 185.7 -320.197925 
L 191.28 -320.197925 
L 196.86 -320.197925 
L 202.44 -320.197925 
L 208.02 -320.197925 
L 213.6 -320.197925 
L 219.18 -320.197925 
L 224.76 -320.197925 
L 230.34 -320.197925 
L 235.92 -320.197925 
L 241.5 -320.197925 
L 247.08 -320.197925 
L 252.66 -320.197925 
L 258.24 -320.197925 
L 263.82 -320.197925 
L 269.4 -320.197925 
L 274.98 -320.197925 
L 280.56 -320.197925 
L 286.14 -320.197925 
L 291.72 -320.197925 
L 297.3 -320.197925 
L 302.88 -320.197925 
L 308.46 -320.197925 
L 314.04 -320.197925 
L 319.62 -320.197925 
L 325.2 -320.197925 
L 330.78 -320.197925 
L 336.36 -320.197925 
L 341.94 -320.197925 
L 347.52 -320.197925 
L 353.1 -320.197925 
L 358.68 -320.197925 
L 364.26 -320.197925 
L 369.84 -320.197925 
L 375.42 -320.197925 
L 375.42 -320.197925 
L 375.42 -320.197925 
L 369.84 -320.197925 
L 364.26 -320.197925 
L 358.68 -320.197925 
L 353.1 -320.197925 
L 347.52 -320.197925 
L 341.94 -320.197925 
L 336.36 -320.197925 
L 330.78 -320.197925 
L 325.2 -320.197925 
L 319.62 -320.197925 
L 314.04 -320.197925 
L 308.46 -320.197925 
L 302.88 -320.197925 
L 297.3 -320.197925 
L 291.72 -320.197925 
L 286.14 -320.197925 
L 280.56 -320.197925 
L 274.98 -320.197925 
L 269.4 -320.197925 
L 263.82 -320.197925 
L 258.24 -320.197925 
L 252.66 -320.197925 
L 247.08 -320.197925 
L 241.5 -320.197925 
L 235.92 -320.197925 
L 230.34 -320.197925 
L 224.76 -320.197925 
L 219.18 -320.197925 
L 213.6 -320.197925 
L 208.02 -320.197925 
L 202.44 -320.197925 
L 196.86 -320.197925 
L 191.28 -320.197925 
L 185.7 -320.197925 
L 180.12 -320.197925 
L 174.54 -320.197925 
L 168.96 -320.197925 
L 163.38 -320.197925 
L 157.8 -320.197925 
L 152.22 -320.197925 
L 146.64 -320.197925 
L 141.06 -320.197925 
L 135.48 -320.197925 
L 129.9 -320.197925 
L 124.32 -320.197925 
L 118.74 -320.197925 
L 113.16 -320.197925 
L 107.58 -320.197925 
L 102 -320.197925 
L 96.42 -320.197925 
L 90.84 -320.197925 
L 85.26 -320.197925 
L 79.68 -312.713525 
L 74.1 -303.358025 
L 68.52 -290.884025 
L 62.94 -279.657425 
L 57.36 -251.590925 
L 51.78 -235.998425 
L 46.2 -207.931925 
z
" style="stroke: #ff0000; stroke-opacity: 0.3"/>
    </defs>
    <g clip-path="url(#pe2eaee7b11)">
     <use xlink:href="#m1a48eadf39" x="0" y="340.853125" style="fill: #ff0000; fill-opacity: 0.3; stroke: #ff0000; stroke-opacity: 0.3"/>
    </g>
   </g>
   <g id="matplotlib.axis_1">
    <g id="xtick_1">
     <g id="line2d_1">
      <defs>
       <path id="m9011ab03fc" d="M 0 0 
L 0 3.5 
" style="stroke: #000000; stroke-width: 0.8"/>
      </defs>
      <g>
       <use xlink:href="#m9011ab03fc" x="46.2" y="289.955" style="stroke: #000000; stroke-width: 0.8"/>
      </g>
     </g>
     <g id="text_1">
      <!-- 0 -->
      <g transform="translate(42.2 308.065) scale(0.16 -0.16)">
       <defs>
        <path id="TimesNewRomanPSMT-30" d="M 231 2094 
Q 231 2819 450 3342 
Q 669 3866 1031 4122 
Q 1313 4325 1613 4325 
Q 2100 4325 2488 3828 
Q 2972 3213 2972 2159 
Q 2972 1422 2759 906 
Q 2547 391 2217 158 
Q 1888 -75 1581 -75 
Q 975 -75 572 641 
Q 231 1244 231 2094 
z
M 844 2016 
Q 844 1141 1059 588 
Q 1238 122 1591 122 
Q 1759 122 1940 273 
Q 2122 425 2216 781 
Q 2359 1319 2359 2297 
Q 2359 3022 2209 3506 
Q 2097 3866 1919 4016 
Q 1791 4119 1609 4119 
Q 1397 4119 1231 3928 
Q 1006 3669 925 3112 
Q 844 2556 844 2016 
z
" transform="scale(0.015625)"/>
       </defs>
       <use xlink:href="#TimesNewRomanPSMT-30"/>
      </g>
     </g>
    </g>
    <g id="xtick_2">
     <g id="line2d_2">
      <g>
       <use xlink:href="#m9011ab03fc" x="102" y="289.955" style="stroke: #000000; stroke-width: 0.8"/>
      </g>
     </g>
     <g id="text_2">
      <!-- 10 -->
      <g transform="translate(94 308.065) scale(0.16 -0.16)">
       <defs>
        <path id="TimesNewRomanPSMT-31" d="M 750 3822 
L 1781 4325 
L 1884 4325 
L 1884 747 
Q 1884 391 1914 303 
Q 1944 216 2037 169 
Q 2131 122 2419 116 
L 2419 0 
L 825 0 
L 825 116 
Q 1125 122 1212 167 
Q 1300 213 1334 289 
Q 1369 366 1369 747 
L 1369 3034 
Q 1369 3497 1338 3628 
Q 1316 3728 1258 3775 
Q 1200 3822 1119 3822 
Q 1003 3822 797 3725 
L 750 3822 
z
" transform="scale(0.015625)"/>
       </defs>
       <use xlink:href="#TimesNewRomanPSMT-31"/>
       <use xlink:href="#TimesNewRomanPSMT-30" x="50"/>
      </g>
     </g>
    </g>
    <g id="xtick_3">
     <g id="line2d_3">
      <g>
       <use xlink:href="#m9011ab03fc" x="157.8" y="289.955" style="stroke: #000000; stroke-width: 0.8"/>
      </g>
     </g>
     <g id="text_3">
      <!-- 20 -->
      <g transform="translate(149.8 308.065) scale(0.16 -0.16)">
       <defs>
        <path id="TimesNewRomanPSMT-32" d="M 2934 816 
L 2638 0 
L 138 0 
L 138 116 
Q 1241 1122 1691 1759 
Q 2141 2397 2141 2925 
Q 2141 3328 1894 3587 
Q 1647 3847 1303 3847 
Q 991 3847 742 3664 
Q 494 3481 375 3128 
L 259 3128 
Q 338 3706 661 4015 
Q 984 4325 1469 4325 
Q 1984 4325 2329 3994 
Q 2675 3663 2675 3213 
Q 2675 2891 2525 2569 
Q 2294 2063 1775 1497 
Q 997 647 803 472 
L 1909 472 
Q 2247 472 2383 497 
Q 2519 522 2628 598 
Q 2738 675 2819 816 
L 2934 816 
z
" transform="scale(0.015625)"/>
       </defs>
       <use xlink:href="#TimesNewRomanPSMT-32"/>
       <use xlink:href="#TimesNewRomanPSMT-30" x="50"/>
      </g>
     </g>
    </g>
    <g id="xtick_4">
     <g id="line2d_4">
      <g>
       <use xlink:href="#m9011ab03fc" x="213.6" y="289.955" style="stroke: #000000; stroke-width: 0.8"/>
      </g>
     </g>
     <g id="text_4">
      <!-- 30 -->
      <g transform="translate(205.6 308.065) scale(0.16 -0.16)">
       <defs>
        <path id="TimesNewRomanPSMT-33" d="M 325 3431 
Q 506 3859 782 4092 
Q 1059 4325 1472 4325 
Q 1981 4325 2253 3994 
Q 2459 3747 2459 3466 
Q 2459 3003 1878 2509 
Q 2269 2356 2469 2072 
Q 2669 1788 2669 1403 
Q 2669 853 2319 450 
Q 1863 -75 997 -75 
Q 569 -75 414 31 
Q 259 138 259 259 
Q 259 350 332 419 
Q 406 488 509 488 
Q 588 488 669 463 
Q 722 447 909 348 
Q 1097 250 1169 231 
Q 1284 197 1416 197 
Q 1734 197 1970 444 
Q 2206 691 2206 1028 
Q 2206 1275 2097 1509 
Q 2016 1684 1919 1775 
Q 1784 1900 1550 2001 
Q 1316 2103 1072 2103 
L 972 2103 
L 972 2197 
Q 1219 2228 1467 2375 
Q 1716 2522 1828 2728 
Q 1941 2934 1941 3181 
Q 1941 3503 1739 3701 
Q 1538 3900 1238 3900 
Q 753 3900 428 3381 
L 325 3431 
z
" transform="scale(0.015625)"/>
       </defs>
       <use xlink:href="#TimesNewRomanPSMT-33"/>
       <use xlink:href="#TimesNewRomanPSMT-30" x="50"/>
      </g>
     </g>
    </g>
    <g id="xtick_5">
     <g id="line2d_5">
      <g>
       <use xlink:href="#m9011ab03fc" x="269.4" y="289.955" style="stroke: #000000; stroke-width: 0.8"/>
      </g>
     </g>
     <g id="text_5">
      <!-- 40 -->
      <g transform="translate(261.4 308.065) scale(0.16 -0.16)">
       <defs>
        <path id="TimesNewRomanPSMT-34" d="M 2978 1563 
L 2978 1119 
L 2409 1119 
L 2409 0 
L 1894 0 
L 1894 1119 
L 100 1119 
L 100 1519 
L 2066 4325 
L 2409 4325 
L 2409 1563 
L 2978 1563 
z
M 1894 1563 
L 1894 3666 
L 406 1563 
L 1894 1563 
z
" transform="scale(0.015625)"/>
       </defs>
       <use xlink:href="#TimesNewRomanPSMT-34"/>
       <use xlink:href="#TimesNewRomanPSMT-30" x="50"/>
      </g>
     </g>
    </g>
    <g id="xtick_6">
     <g id="line2d_6">
      <g>
       <use xlink:href="#m9011ab03fc" x="325.2" y="289.955" style="stroke: #000000; stroke-width: 0.8"/>
      </g>
     </g>
     <g id="text_6">
      <!-- 50 -->
      <g transform="translate(317.2 308.065) scale(0.16 -0.16)">
       <defs>
        <path id="TimesNewRomanPSMT-35" d="M 2778 4238 
L 2534 3706 
L 1259 3706 
L 981 3138 
Q 1809 3016 2294 2522 
Q 2709 2097 2709 1522 
Q 2709 1188 2573 903 
Q 2438 619 2231 419 
Q 2025 219 1772 97 
Q 1413 -75 1034 -75 
Q 653 -75 479 54 
Q 306 184 306 341 
Q 306 428 378 495 
Q 450 563 559 563 
Q 641 563 702 538 
Q 763 513 909 409 
Q 1144 247 1384 247 
Q 1750 247 2026 523 
Q 2303 800 2303 1197 
Q 2303 1581 2056 1914 
Q 1809 2247 1375 2428 
Q 1034 2569 447 2591 
L 1259 4238 
L 2778 4238 
z
" transform="scale(0.015625)"/>
       </defs>
       <use xlink:href="#TimesNewRomanPSMT-35"/>
       <use xlink:href="#TimesNewRomanPSMT-30" x="50"/>
      </g>
     </g>
    </g>
    <g id="xtick_7">
     <g id="line2d_7">
      <g>
       <use xlink:href="#m9011ab03fc" x="381" y="289.955" style="stroke: #000000; stroke-width: 0.8"/>
      </g>
     </g>
     <g id="text_7">
      <!-- 60 -->
      <g transform="translate(373 308.065) scale(0.16 -0.16)">
       <defs>
        <path id="TimesNewRomanPSMT-36" d="M 2869 4325 
L 2869 4209 
Q 2456 4169 2195 4045 
Q 1934 3922 1679 3669 
Q 1425 3416 1258 3105 
Q 1091 2794 978 2366 
Q 1428 2675 1881 2675 
Q 2316 2675 2634 2325 
Q 2953 1975 2953 1425 
Q 2953 894 2631 456 
Q 2244 -75 1606 -75 
Q 1172 -75 869 213 
Q 275 772 275 1663 
Q 275 2231 503 2743 
Q 731 3256 1154 3653 
Q 1578 4050 1965 4187 
Q 2353 4325 2688 4325 
L 2869 4325 
z
M 925 2138 
Q 869 1716 869 1456 
Q 869 1156 980 804 
Q 1091 453 1309 247 
Q 1469 100 1697 100 
Q 1969 100 2183 356 
Q 2397 613 2397 1088 
Q 2397 1622 2184 2012 
Q 1972 2403 1581 2403 
Q 1463 2403 1327 2353 
Q 1191 2303 925 2138 
z
" transform="scale(0.015625)"/>
       </defs>
       <use xlink:href="#TimesNewRomanPSMT-36"/>
       <use xlink:href="#TimesNewRomanPSMT-30" x="50"/>
      </g>
     </g>
    </g>
    <g id="text_8">
     <!-- Time (s) -->
     <g transform="translate(179.795313 329.375) scale(0.2 -0.2)">
      <defs>
       <path id="TimesNewRomanPSMT-54" d="M 3703 4238 
L 3750 3244 
L 3631 3244 
Q 3597 3506 3538 3619 
Q 3441 3800 3280 3886 
Q 3119 3972 2856 3972 
L 2259 3972 
L 2259 734 
Q 2259 344 2344 247 
Q 2463 116 2709 116 
L 2856 116 
L 2856 0 
L 1059 0 
L 1059 116 
L 1209 116 
Q 1478 116 1591 278 
Q 1659 378 1659 734 
L 1659 3972 
L 1150 3972 
Q 853 3972 728 3928 
Q 566 3869 450 3700 
Q 334 3531 313 3244 
L 194 3244 
L 244 4238 
L 3703 4238 
z
" transform="scale(0.015625)"/>
       <path id="TimesNewRomanPSMT-69" d="M 928 4444 
Q 1059 4444 1151 4351 
Q 1244 4259 1244 4128 
Q 1244 3997 1151 3903 
Q 1059 3809 928 3809 
Q 797 3809 703 3903 
Q 609 3997 609 4128 
Q 609 4259 701 4351 
Q 794 4444 928 4444 
z
M 1188 2947 
L 1188 647 
Q 1188 378 1227 289 
Q 1266 200 1342 156 
Q 1419 113 1622 113 
L 1622 0 
L 231 0 
L 231 113 
Q 441 113 512 153 
Q 584 194 626 287 
Q 669 381 669 647 
L 669 1750 
Q 669 2216 641 2353 
Q 619 2453 572 2492 
Q 525 2531 444 2531 
Q 356 2531 231 2484 
L 188 2597 
L 1050 2947 
L 1188 2947 
z
" transform="scale(0.015625)"/>
       <path id="TimesNewRomanPSMT-6d" d="M 1050 2338 
Q 1363 2650 1419 2697 
Q 1559 2816 1721 2881 
Q 1884 2947 2044 2947 
Q 2313 2947 2506 2790 
Q 2700 2634 2766 2338 
Q 3088 2713 3309 2830 
Q 3531 2947 3766 2947 
Q 3994 2947 4170 2830 
Q 4347 2713 4450 2447 
Q 4519 2266 4519 1878 
L 4519 647 
Q 4519 378 4559 278 
Q 4591 209 4675 161 
Q 4759 113 4950 113 
L 4950 0 
L 3538 0 
L 3538 113 
L 3597 113 
Q 3781 113 3884 184 
Q 3956 234 3988 344 
Q 4000 397 4000 647 
L 4000 1878 
Q 4000 2228 3916 2372 
Q 3794 2572 3525 2572 
Q 3359 2572 3192 2489 
Q 3025 2406 2788 2181 
L 2781 2147 
L 2788 2013 
L 2788 647 
Q 2788 353 2820 281 
Q 2853 209 2943 161 
Q 3034 113 3253 113 
L 3253 0 
L 1806 0 
L 1806 113 
Q 2044 113 2133 169 
Q 2222 225 2256 338 
Q 2272 391 2272 647 
L 2272 1878 
Q 2272 2228 2169 2381 
Q 2031 2581 1784 2581 
Q 1616 2581 1450 2491 
Q 1191 2353 1050 2181 
L 1050 647 
Q 1050 366 1089 281 
Q 1128 197 1204 155 
Q 1281 113 1516 113 
L 1516 0 
L 100 0 
L 100 113 
Q 297 113 375 155 
Q 453 197 493 289 
Q 534 381 534 647 
L 534 1741 
Q 534 2213 506 2350 
Q 484 2453 437 2492 
Q 391 2531 309 2531 
Q 222 2531 100 2484 
L 53 2597 
L 916 2947 
L 1050 2947 
L 1050 2338 
z
" transform="scale(0.015625)"/>
       <path id="TimesNewRomanPSMT-65" d="M 681 1784 
Q 678 1147 991 784 
Q 1303 422 1725 422 
Q 2006 422 2214 576 
Q 2422 731 2563 1106 
L 2659 1044 
Q 2594 616 2278 264 
Q 1963 -88 1488 -88 
Q 972 -88 605 314 
Q 238 716 238 1394 
Q 238 2128 614 2539 
Q 991 2950 1559 2950 
Q 2041 2950 2350 2633 
Q 2659 2316 2659 1784 
L 681 1784 
z
M 681 1966 
L 2006 1966 
Q 1991 2241 1941 2353 
Q 1863 2528 1708 2628 
Q 1553 2728 1384 2728 
Q 1125 2728 920 2526 
Q 716 2325 681 1966 
z
" transform="scale(0.015625)"/>
       <path id="TimesNewRomanPSMT-20" transform="scale(0.015625)"/>
       <path id="TimesNewRomanPSMT-28" d="M 1988 -1253 
L 1988 -1369 
Q 1516 -1131 1200 -813 
Q 750 -359 506 256 
Q 263 872 263 1534 
Q 263 2503 741 3301 
Q 1219 4100 1988 4444 
L 1988 4313 
Q 1603 4100 1356 3731 
Q 1109 3363 987 2797 
Q 866 2231 866 1616 
Q 866 947 969 400 
Q 1050 -31 1165 -292 
Q 1281 -553 1476 -793 
Q 1672 -1034 1988 -1253 
z
" transform="scale(0.015625)"/>
       <path id="TimesNewRomanPSMT-73" d="M 2050 2947 
L 2050 1972 
L 1947 1972 
Q 1828 2431 1642 2597 
Q 1456 2763 1169 2763 
Q 950 2763 815 2647 
Q 681 2531 681 2391 
Q 681 2216 781 2091 
Q 878 1963 1175 1819 
L 1631 1597 
Q 2266 1288 2266 781 
Q 2266 391 1970 151 
Q 1675 -88 1309 -88 
Q 1047 -88 709 6 
Q 606 38 541 38 
Q 469 38 428 -44 
L 325 -44 
L 325 978 
L 428 978 
Q 516 541 762 319 
Q 1009 97 1316 97 
Q 1531 97 1667 223 
Q 1803 350 1803 528 
Q 1803 744 1651 891 
Q 1500 1038 1047 1263 
Q 594 1488 453 1669 
Q 313 1847 313 2119 
Q 313 2472 555 2709 
Q 797 2947 1181 2947 
Q 1350 2947 1591 2875 
Q 1750 2828 1803 2828 
Q 1853 2828 1881 2850 
Q 1909 2872 1947 2947 
L 2050 2947 
z
" transform="scale(0.015625)"/>
       <path id="TimesNewRomanPSMT-29" d="M 144 4313 
L 144 4444 
Q 619 4209 934 3891 
Q 1381 3434 1625 2820 
Q 1869 2206 1869 1541 
Q 1869 572 1392 -226 
Q 916 -1025 144 -1369 
L 144 -1253 
Q 528 -1038 776 -670 
Q 1025 -303 1145 264 
Q 1266 831 1266 1447 
Q 1266 2113 1163 2663 
Q 1084 3094 967 3353 
Q 850 3613 656 3853 
Q 463 4094 144 4313 
z
" transform="scale(0.015625)"/>
      </defs>
      <use xlink:href="#TimesNewRomanPSMT-54"/>
      <use xlink:href="#TimesNewRomanPSMT-69" x="57.583984"/>
      <use xlink:href="#TimesNewRomanPSMT-6d" x="85.367188"/>
      <use xlink:href="#TimesNewRomanPSMT-65" x="163.150391"/>
      <use xlink:href="#TimesNewRomanPSMT-20" x="207.535156"/>
      <use xlink:href="#TimesNewRomanPSMT-28" x="232.535156"/>
      <use xlink:href="#TimesNewRomanPSMT-73" x="265.835938"/>
      <use xlink:href="#TimesNewRomanPSMT-29" x="304.751953"/>
     </g>
    </g>
   </g>
   <g id="matplotlib.axis_2">
    <g id="ytick_1">
     <g id="line2d_8">
      <defs>
       <path id="m019ac1b6e6" d="M 0 0 
L -3.5 0 
" style="stroke: #000000; stroke-width: 0.8"/>
      </defs>
      <g>
       <use xlink:href="#m019ac1b6e6" x="46.2" y="289.955" style="stroke: #000000; stroke-width: 0.8"/>
      </g>
     </g>
     <g id="text_9">
      <!-- 0 -->
      <g transform="translate(31.2 295.51) scale(0.16 -0.16)">
       <use xlink:href="#TimesNewRomanPSMT-30"/>
      </g>
     </g>
    </g>
    <g id="ytick_2">
     <g id="line2d_9">
      <g>
       <use xlink:href="#m019ac1b6e6" x="46.2" y="255.305" style="stroke: #000000; stroke-width: 0.8"/>
      </g>
     </g>
     <g id="text_10">
      <!-- 500 -->
      <g transform="translate(15.2 260.86) scale(0.16 -0.16)">
       <use xlink:href="#TimesNewRomanPSMT-35"/>
       <use xlink:href="#TimesNewRomanPSMT-30" x="50"/>
       <use xlink:href="#TimesNewRomanPSMT-30" x="100"/>
      </g>
     </g>
    </g>
    <g id="ytick_3">
     <g id="line2d_10">
      <g>
       <use xlink:href="#m019ac1b6e6" x="46.2" y="220.655" style="stroke: #000000; stroke-width: 0.8"/>
      </g>
     </g>
     <g id="text_11">
      <!-- 1000 -->
      <g transform="translate(7.2 226.21) scale(0.16 -0.16)">
       <use xlink:href="#TimesNewRomanPSMT-31"/>
       <use xlink:href="#TimesNewRomanPSMT-30" x="50"/>
       <use xlink:href="#TimesNewRomanPSMT-30" x="100"/>
       <use xlink:href="#TimesNewRomanPSMT-30" x="150"/>
      </g>
     </g>
    </g>
    <g id="ytick_4">
     <g id="line2d_11">
      <g>
       <use xlink:href="#m019ac1b6e6" x="46.2" y="186.005" style="stroke: #000000; stroke-width: 0.8"/>
      </g>
     </g>
     <g id="text_12">
      <!-- 1500 -->
      <g transform="translate(7.2 191.56) scale(0.16 -0.16)">
       <use xlink:href="#TimesNewRomanPSMT-31"/>
       <use xlink:href="#TimesNewRomanPSMT-35" x="50"/>
       <use xlink:href="#TimesNewRomanPSMT-30" x="100"/>
       <use xlink:href="#TimesNewRomanPSMT-30" x="150"/>
      </g>
     </g>
    </g>
    <g id="ytick_5">
     <g id="line2d_12">
      <g>
       <use xlink:href="#m019ac1b6e6" x="46.2" y="151.355" style="stroke: #000000; stroke-width: 0.8"/>
      </g>
     </g>
     <g id="text_13">
      <!-- 2000 -->
      <g transform="translate(7.2 156.91) scale(0.16 -0.16)">
       <use xlink:href="#TimesNewRomanPSMT-32"/>
       <use xlink:href="#TimesNewRomanPSMT-30" x="50"/>
       <use xlink:href="#TimesNewRomanPSMT-30" x="100"/>
       <use xlink:href="#TimesNewRomanPSMT-30" x="150"/>
      </g>
     </g>
    </g>
    <g id="ytick_6">
     <g id="line2d_13">
      <g>
       <use xlink:href="#m019ac1b6e6" x="46.2" y="116.705" style="stroke: #000000; stroke-width: 0.8"/>
      </g>
     </g>
     <g id="text_14">
      <!-- 2500 -->
      <g transform="translate(7.2 122.26) scale(0.16 -0.16)">
       <use xlink:href="#TimesNewRomanPSMT-32"/>
       <use xlink:href="#TimesNewRomanPSMT-35" x="50"/>
       <use xlink:href="#TimesNewRomanPSMT-30" x="100"/>
       <use xlink:href="#TimesNewRomanPSMT-30" x="150"/>
      </g>
     </g>
    </g>
    <g id="ytick_7">
     <g id="line2d_14">
      <g>
       <use xlink:href="#m019ac1b6e6" x="46.2" y="82.055" style="stroke: #000000; stroke-width: 0.8"/>
      </g>
     </g>
     <g id="text_15">
      <!-- 3000 -->
      <g transform="translate(7.2 87.61) scale(0.16 -0.16)">
       <use xlink:href="#TimesNewRomanPSMT-33"/>
       <use xlink:href="#TimesNewRomanPSMT-30" x="50"/>
       <use xlink:href="#TimesNewRomanPSMT-30" x="100"/>
       <use xlink:href="#TimesNewRomanPSMT-30" x="150"/>
      </g>
     </g>
    </g>
    <g id="ytick_8">
     <g id="line2d_15">
      <g>
       <use xlink:href="#m019ac1b6e6" x="46.2" y="47.405" style="stroke: #000000; stroke-width: 0.8"/>
      </g>
     </g>
     <g id="text_16">
      <!-- 3500 -->
      <g transform="translate(7.2 52.96) scale(0.16 -0.16)">
       <use xlink:href="#TimesNewRomanPSMT-33"/>
       <use xlink:href="#TimesNewRomanPSMT-35" x="50"/>
       <use xlink:href="#TimesNewRomanPSMT-30" x="100"/>
       <use xlink:href="#TimesNewRomanPSMT-30" x="150"/>
      </g>
     </g>
    </g>
    <g id="ytick_9">
     <g id="line2d_16">
      <g>
       <use xlink:href="#m019ac1b6e6" x="46.2" y="12.755" style="stroke: #000000; stroke-width: 0.8"/>
      </g>
     </g>
     <g id="text_17">
      <!-- 4000 -->
      <g transform="translate(7.2 18.31) scale(0.16 -0.16)">
       <use xlink:href="#TimesNewRomanPSMT-34"/>
       <use xlink:href="#TimesNewRomanPSMT-30" x="50"/>
       <use xlink:href="#TimesNewRomanPSMT-30" x="100"/>
       <use xlink:href="#TimesNewRomanPSMT-30" x="150"/>
      </g>
     </g>
    </g>
   </g>
   <g id="line2d_17">
    <path d="M 46.2 245.1179 
L 51.78 206.1713 
L 57.36 176.9036 
L 62.94 126.51095 
L 68.52 97.19705 
L 74.1 69.20447 
L 79.68 44.77622 
L 85.26 25.23362 
L 90.84 20.6552 
L 96.42 20.6552 
L 102 20.6552 
L 107.58 20.6552 
L 113.16 20.6552 
L 118.74 20.6552 
L 124.32 20.6552 
L 129.9 20.6552 
L 135.48 20.6552 
L 141.06 20.6552 
L 146.64 20.6552 
L 152.22 20.6552 
L 157.8 20.6552 
L 163.38 20.6552 
L 168.96 20.6552 
L 174.54 20.6552 
L 180.12 20.6552 
L 185.7 20.6552 
L 191.28 20.6552 
L 196.86 20.6552 
L 202.44 20.6552 
L 208.02 20.6552 
L 213.6 20.6552 
L 219.18 20.6552 
L 224.76 20.6552 
L 230.34 20.6552 
L 235.92 20.6552 
L 241.5 20.6552 
L 247.08 20.6552 
L 252.66 20.6552 
L 258.24 20.6552 
L 263.82 20.6552 
L 269.4 20.6552 
L 274.98 20.6552 
L 280.56 20.6552 
L 286.14 20.6552 
L 291.72 20.6552 
L 297.3 20.6552 
L 302.88 20.6552 
L 308.46 20.6552 
L 314.04 20.6552 
L 319.62 20.6552 
L 325.2 20.6552 
L 330.78 20.6552 
L 336.36 20.6552 
L 341.94 20.6552 
L 347.52 20.6552 
L 353.1 20.6552 
L 358.68 20.6552 
L 364.26 20.6552 
L 369.84 20.6552 
L 375.42 20.6552 
" clip-path="url(#pe2eaee7b11)" style="fill: none; stroke: #1f77b4; stroke-opacity: 0.1; stroke-width: 1.5; stroke-linecap: square"/>
   </g>
   <g id="line2d_18">
    <path d="M 46.2 245.1179 
L 51.78 223.340375 
L 57.36 195.98035 
L 62.94 151.310725 
L 68.52 115.129195 
L 74.1 84.084335 
L 79.68 53.93306 
L 85.26 29.81204 
L 90.84 20.6552 
L 96.42 20.6552 
L 102 20.6552 
L 107.58 20.6552 
L 113.16 20.6552 
L 118.74 20.6552 
L 124.32 20.6552 
L 129.9 20.6552 
L 135.48 20.6552 
L 141.06 20.6552 
L 146.64 20.6552 
L 152.22 20.6552 
L 157.8 20.6552 
L 163.38 20.6552 
L 168.96 20.6552 
L 174.54 20.6552 
L 180.12 20.6552 
L 185.7 20.6552 
L 191.28 20.6552 
L 196.86 20.6552 
L 202.44 20.6552 
L 208.02 20.6552 
L 213.6 20.6552 
L 219.18 20.6552 
L 224.76 20.6552 
L 230.34 20.6552 
L 235.92 20.6552 
L 241.5 20.6552 
L 247.08 20.6552 
L 252.66 20.6552 
L 258.24 20.6552 
L 263.82 20.6552 
L 269.4 20.6552 
L 274.98 20.6552 
L 280.56 20.6552 
L 286.14 20.6552 
L 291.72 20.6552 
L 297.3 20.6552 
L 302.88 20.6552 
L 308.46 20.6552 
L 314.04 20.6552 
L 319.62 20.6552 
L 325.2 20.6552 
L 330.78 20.6552 
L 336.36 20.6552 
L 341.94 20.6552 
L 347.52 20.6552 
L 353.1 20.6552 
L 358.68 20.6552 
L 364.26 20.6552 
L 369.84 20.6552 
L 375.42 20.6552 
" clip-path="url(#pe2eaee7b11)" style="fill: none; stroke: #ff7f0e; stroke-opacity: 0.1; stroke-width: 1.5; stroke-linecap: square"/>
   </g>
   <g id="line2d_19">
    <path d="M 46.2 245.1179 
L 51.78 189.002225 
L 57.36 157.82685 
L 62.94 101.711175 
L 68.52 79.264905 
L 74.1 54.324605 
L 79.68 35.61938 
L 85.26 20.6552 
L 90.84 20.6552 
L 96.42 20.6552 
L 102 20.6552 
L 107.58 20.6552 
L 113.16 20.6552 
L 118.74 20.6552 
L 124.32 20.6552 
L 129.9 20.6552 
L 135.48 20.6552 
L 141.06 20.6552 
L 146.64 20.6552 
L 152.22 20.6552 
L 157.8 20.6552 
L 163.38 20.6552 
L 168.96 20.6552 
L 174.54 20.6552 
L 180.12 20.6552 
L 185.7 20.6552 
L 191.28 20.6552 
L 196.86 20.6552 
L 202.44 20.6552 
L 208.02 20.6552 
L 213.6 20.6552 
L 219.18 20.6552 
L 224.76 20.6552 
L 230.34 20.6552 
L 235.92 20.6552 
L 241.5 20.6552 
L 247.08 20.6552 
L 252.66 20.6552 
L 258.24 20.6552 
L 263.82 20.6552 
L 269.4 20.6552 
L 274.98 20.6552 
L 280.56 20.6552 
L 286.14 20.6552 
L 291.72 20.6552 
L 297.3 20.6552 
L 302.88 20.6552 
L 308.46 20.6552 
L 314.04 20.6552 
L 319.62 20.6552 
L 325.2 20.6552 
L 330.78 20.6552 
L 336.36 20.6552 
L 341.94 20.6552 
L 347.52 20.6552 
L 353.1 20.6552 
L 358.68 20.6552 
L 364.26 20.6552 
L 369.84 20.6552 
L 375.42 20.6552 
" clip-path="url(#pe2eaee7b11)" style="fill: none; stroke: #2ca02c; stroke-opacity: 0.1; stroke-width: 1.5; stroke-linecap: square"/>
   </g>
   <g id="line2d_20">
    <path d="M 46.2 201.5975 
L 51.78 156.361925 
L 57.36 131.23105 
L 62.94 85.995475 
L 68.52 67.901245 
L 74.1 47.796545 
L 79.68 32.71802 
L 85.26 20.6552 
L 90.84 20.6552 
L 96.42 20.6552 
L 102 20.6552 
L 107.58 20.6552 
L 113.16 20.6552 
L 118.74 20.6552 
L 124.32 20.6552 
L 129.9 20.6552 
L 135.48 20.6552 
L 141.06 20.6552 
L 146.64 20.6552 
L 152.22 20.6552 
L 157.8 20.6552 
L 163.38 20.6552 
L 168.96 20.6552 
L 174.54 20.6552 
L 180.12 20.6552 
L 185.7 20.6552 
L 191.28 20.6552 
L 196.86 20.6552 
L 202.44 20.6552 
L 208.02 20.6552 
L 213.6 20.6552 
L 219.18 20.6552 
L 224.76 20.6552 
L 230.34 20.6552 
L 235.92 20.6552 
L 241.5 20.6552 
L 247.08 20.6552 
L 252.66 20.6552 
L 258.24 20.6552 
L 263.82 20.6552 
L 269.4 20.6552 
L 274.98 20.6552 
L 280.56 20.6552 
L 286.14 20.6552 
L 291.72 20.6552 
L 297.3 20.6552 
L 302.88 20.6552 
L 308.46 20.6552 
L 314.04 20.6552 
L 319.62 20.6552 
L 325.2 20.6552 
L 330.78 20.6552 
L 336.36 20.6552 
L 341.94 20.6552 
L 347.52 20.6552 
L 353.1 20.6552 
L 358.68 20.6552 
L 364.26 20.6552 
L 369.84 20.6552 
L 375.42 20.6552 
" clip-path="url(#pe2eaee7b11)" style="fill: none; stroke: #d62728; stroke-opacity: 0.1; stroke-width: 1.5; stroke-linecap: square"/>
   </g>
   <g id="line2d_21">
    <path d="M 46.2 245.1179 
L 51.78 189.002225 
L 57.36 157.82685 
L 62.94 101.711175 
L 68.52 79.264905 
L 74.1 54.324605 
L 79.68 35.61938 
L 85.26 20.6552 
L 90.84 20.6552 
L 96.42 20.6552 
L 102 20.6552 
L 107.58 20.6552 
L 113.16 20.6552 
L 118.74 20.6552 
L 124.32 20.6552 
L 129.9 20.6552 
L 135.48 20.6552 
L 141.06 20.6552 
L 146.64 20.6552 
L 152.22 20.6552 
L 157.8 20.6552 
L 163.38 20.6552 
L 168.96 20.6552 
L 174.54 20.6552 
L 180.12 20.6552 
L 185.7 20.6552 
L 191.28 20.6552 
L 196.86 20.6552 
L 202.44 20.6552 
L 208.02 20.6552 
L 213.6 20.6552 
L 219.18 20.6552 
L 224.76 20.6552 
L 230.34 20.6552 
L 235.92 20.6552 
L 241.5 20.6552 
L 247.08 20.6552 
L 252.66 20.6552 
L 258.24 20.6552 
L 263.82 20.6552 
L 269.4 20.6552 
L 274.98 20.6552 
L 280.56 20.6552 
L 286.14 20.6552 
L 291.72 20.6552 
L 297.3 20.6552 
L 302.88 20.6552 
L 308.46 20.6552 
L 314.04 20.6552 
L 319.62 20.6552 
L 325.2 20.6552 
L 330.78 20.6552 
L 336.36 20.6552 
L 341.94 20.6552 
L 347.52 20.6552 
L 353.1 20.6552 
L 358.68 20.6552 
L 364.26 20.6552 
L 369.84 20.6552 
L 375.42 20.6552 
" clip-path="url(#pe2eaee7b11)" style="fill: none; stroke: #9467bd; stroke-opacity: 0.1; stroke-width: 1.5; stroke-linecap: square"/>
   </g>
   <g id="line2d_22">
    <path d="M 46.2 132.9212 
L 51.78 104.8547 
L 57.36 89.2622 
L 62.94 61.1957 
L 68.52 49.9691 
L 74.1 37.4951 
L 79.68 28.1396 
L 85.26 20.6552 
L 90.84 20.6552 
L 96.42 20.6552 
L 102 20.6552 
L 107.58 20.6552 
L 113.16 20.6552 
L 118.74 20.6552 
L 124.32 20.6552 
L 129.9 20.6552 
L 135.48 20.6552 
L 141.06 20.6552 
L 146.64 20.6552 
L 152.22 20.6552 
L 157.8 20.6552 
L 163.38 20.6552 
L 168.96 20.6552 
L 174.54 20.6552 
L 180.12 20.6552 
L 185.7 20.6552 
L 191.28 20.6552 
L 196.86 20.6552 
L 202.44 20.6552 
L 208.02 20.6552 
L 213.6 20.6552 
L 219.18 20.6552 
L 224.76 20.6552 
L 230.34 20.6552 
L 235.92 20.6552 
L 241.5 20.6552 
L 247.08 20.6552 
L 252.66 20.6552 
L 258.24 20.6552 
L 263.82 20.6552 
L 269.4 20.6552 
L 274.98 20.6552 
L 280.56 20.6552 
L 286.14 20.6552 
L 291.72 20.6552 
L 297.3 20.6552 
L 302.88 20.6552 
L 308.46 20.6552 
L 314.04 20.6552 
L 319.62 20.6552 
L 325.2 20.6552 
L 330.78 20.6552 
L 336.36 20.6552 
L 341.94 20.6552 
L 347.52 20.6552 
L 353.1 20.6552 
L 358.68 20.6552 
L 364.26 20.6552 
L 369.84 20.6552 
L 375.42 20.6552 
" clip-path="url(#pe2eaee7b11)" style="fill: none; stroke: #8c564b; stroke-opacity: 0.1; stroke-width: 1.5; stroke-linecap: square"/>
   </g>
   <g id="line2d_23">
    <path d="M 46.2 245.1179 
L 51.78 237.39095 
L 57.36 211.5921 
L 62.94 171.606 
L 68.52 129.80424 
L 74.1 96.2615 
L 79.68 61.4267 
L 85.26 33.55886 
L 90.84 20.6552 
L 96.42 20.6552 
L 102 20.6552 
L 107.58 20.6552 
L 113.16 20.6552 
L 118.74 20.6552 
L 124.32 20.6552 
L 129.9 20.6552 
L 135.48 20.6552 
L 141.06 20.6552 
L 146.64 20.6552 
L 152.22 20.6552 
L 157.8 20.6552 
L 163.38 20.6552 
L 168.96 20.6552 
L 174.54 20.6552 
L 180.12 20.6552 
L 185.7 20.6552 
L 191.28 20.6552 
L 196.86 20.6552 
L 202.44 20.6552 
L 208.02 20.6552 
L 213.6 20.6552 
L 219.18 20.6552 
L 224.76 20.6552 
L 230.34 20.6552 
L 235.92 20.6552 
L 241.5 20.6552 
L 247.08 20.6552 
L 252.66 20.6552 
L 258.24 20.6552 
L 263.82 20.6552 
L 269.4 20.6552 
L 274.98 20.6552 
L 280.56 20.6552 
L 286.14 20.6552 
L 291.72 20.6552 
L 297.3 20.6552 
L 302.88 20.6552 
L 308.46 20.6552 
L 314.04 20.6552 
L 319.62 20.6552 
L 325.2 20.6552 
L 330.78 20.6552 
L 336.36 20.6552 
L 341.94 20.6552 
L 347.52 20.6552 
L 353.1 20.6552 
L 358.68 20.6552 
L 364.26 20.6552 
L 369.84 20.6552 
L 375.42 20.6552 
" clip-path="url(#pe2eaee7b11)" style="fill: none; stroke: #e377c2; stroke-opacity: 0.1; stroke-width: 1.5; stroke-linecap: square"/>
   </g>
   <g id="line2d_24">
    <path d="M 46.2 245.1179 
L 51.78 253.88435 
L 57.36 254.8584 
L 62.94 248.430825 
L 68.52 222.480285 
L 74.1 183.513665 
L 79.68 137.56892 
L 85.26 90.33866 
L 90.84 50.58818 
L 96.42 28.1396 
L 102 20.6552 
L 107.58 20.6552 
L 113.16 20.6552 
L 118.74 20.6552 
L 124.32 20.6552 
L 129.9 20.6552 
L 135.48 20.6552 
L 141.06 20.6552 
L 146.64 20.6552 
L 152.22 20.6552 
L 157.8 20.6552 
L 163.38 20.6552 
L 168.96 20.6552 
L 174.54 20.6552 
L 180.12 20.6552 
L 185.7 20.6552 
L 191.28 20.6552 
L 196.86 20.6552 
L 202.44 20.6552 
L 208.02 20.6552 
L 213.6 20.6552 
L 219.18 20.6552 
L 224.76 20.6552 
L 230.34 20.6552 
L 235.92 20.6552 
L 241.5 20.6552 
L 247.08 20.6552 
L 252.66 20.6552 
L 258.24 20.6552 
L 263.82 20.6552 
L 269.4 20.6552 
L 274.98 20.6552 
L 280.56 20.6552 
L 286.14 20.6552 
L 291.72 20.6552 
L 297.3 20.6552 
L 302.88 20.6552 
L 308.46 20.6552 
L 314.04 20.6552 
L 319.62 20.6552 
L 325.2 20.6552 
L 330.78 20.6552 
L 336.36 20.6552 
L 341.94 20.6552 
L 347.52 20.6552 
L 353.1 20.6552 
L 358.68 20.6552 
L 364.26 20.6552 
L 369.84 20.6552 
L 375.42 20.6552 
" clip-path="url(#pe2eaee7b11)" style="fill: none; stroke: #7f7f7f; stroke-opacity: 0.1; stroke-width: 1.5; stroke-linecap: square"/>
   </g>
   <g id="line2d_25">
    <path d="M 46.2 201.5975 
L 51.78 156.361925 
L 57.36 131.23105 
L 62.94 85.995475 
L 68.52 67.901245 
L 74.1 47.796545 
L 79.68 32.71802 
L 85.26 20.6552 
L 90.84 20.6552 
L 96.42 20.6552 
L 102 20.6552 
L 107.58 20.6552 
L 113.16 20.6552 
L 118.74 20.6552 
L 124.32 20.6552 
L 129.9 20.6552 
L 135.48 20.6552 
L 141.06 20.6552 
L 146.64 20.6552 
L 152.22 20.6552 
L 157.8 20.6552 
L 163.38 20.6552 
L 168.96 20.6552 
L 174.54 20.6552 
L 180.12 20.6552 
L 185.7 20.6552 
L 191.28 20.6552 
L 196.86 20.6552 
L 202.44 20.6552 
L 208.02 20.6552 
L 213.6 20.6552 
L 219.18 20.6552 
L 224.76 20.6552 
L 230.34 20.6552 
L 235.92 20.6552 
L 241.5 20.6552 
L 247.08 20.6552 
L 252.66 20.6552 
L 258.24 20.6552 
L 263.82 20.6552 
L 269.4 20.6552 
L 274.98 20.6552 
L 280.56 20.6552 
L 286.14 20.6552 
L 291.72 20.6552 
L 297.3 20.6552 
L 302.88 20.6552 
L 308.46 20.6552 
L 314.04 20.6552 
L 319.62 20.6552 
L 325.2 20.6552 
L 330.78 20.6552 
L 336.36 20.6552 
L 341.94 20.6552 
L 347.52 20.6552 
L 353.1 20.6552 
L 358.68 20.6552 
L 364.26 20.6552 
L 369.84 20.6552 
L 375.42 20.6552 
" clip-path="url(#pe2eaee7b11)" style="fill: none; stroke: #bcbd22; stroke-opacity: 0.1; stroke-width: 1.5; stroke-linecap: square"/>
   </g>
   <g id="line2d_26">
    <path d="M 46.2 245.1179 
L 51.78 206.1713 
L 57.36 176.9036 
L 62.94 126.51095 
L 68.52 97.19705 
L 74.1 69.20447 
L 79.68 44.77622 
L 85.26 25.23362 
L 90.84 20.6552 
L 96.42 20.6552 
L 102 20.6552 
L 107.58 20.6552 
L 113.16 20.6552 
L 118.74 20.6552 
L 124.32 20.6552 
L 129.9 20.6552 
L 135.48 20.6552 
L 141.06 20.6552 
L 146.64 20.6552 
L 152.22 20.6552 
L 157.8 20.6552 
L 163.38 20.6552 
L 168.96 20.6552 
L 174.54 20.6552 
L 180.12 20.6552 
L 185.7 20.6552 
L 191.28 20.6552 
L 196.86 20.6552 
L 202.44 20.6552 
L 208.02 20.6552 
L 213.6 20.6552 
L 219.18 20.6552 
L 224.76 20.6552 
L 230.34 20.6552 
L 235.92 20.6552 
L 241.5 20.6552 
L 247.08 20.6552 
L 252.66 20.6552 
L 258.24 20.6552 
L 263.82 20.6552 
L 269.4 20.6552 
L 274.98 20.6552 
L 280.56 20.6552 
L 286.14 20.6552 
L 291.72 20.6552 
L 297.3 20.6552 
L 302.88 20.6552 
L 308.46 20.6552 
L 314.04 20.6552 
L 319.62 20.6552 
L 325.2 20.6552 
L 330.78 20.6552 
L 336.36 20.6552 
L 341.94 20.6552 
L 347.52 20.6552 
L 353.1 20.6552 
L 358.68 20.6552 
L 364.26 20.6552 
L 369.84 20.6552 
L 375.42 20.6552 
" clip-path="url(#pe2eaee7b11)" style="fill: none; stroke: #17becf; stroke-opacity: 0.1; stroke-width: 1.5; stroke-linecap: square"/>
   </g>
   <g id="line2d_27">
    <path d="M 46.2 132.9212 
L 51.78 104.8547 
L 57.36 89.2622 
L 62.94 61.1957 
L 68.52 49.9691 
L 74.1 37.4951 
L 79.68 28.1396 
L 85.26 20.6552 
L 90.84 20.6552 
L 96.42 20.6552 
L 102 20.6552 
L 107.58 20.6552 
L 113.16 20.6552 
L 118.74 20.6552 
L 124.32 20.6552 
L 129.9 20.6552 
L 135.48 20.6552 
L 141.06 20.6552 
L 146.64 20.6552 
L 152.22 20.6552 
L 157.8 20.6552 
L 163.38 20.6552 
L 168.96 20.6552 
L 174.54 20.6552 
L 180.12 20.6552 
L 185.7 20.6552 
L 191.28 20.6552 
L 196.86 20.6552 
L 202.44 20.6552 
L 208.02 20.6552 
L 213.6 20.6552 
L 219.18 20.6552 
L 224.76 20.6552 
L 230.34 20.6552 
L 235.92 20.6552 
L 241.5 20.6552 
L 247.08 20.6552 
L 252.66 20.6552 
L 258.24 20.6552 
L 263.82 20.6552 
L 269.4 20.6552 
L 274.98 20.6552 
L 280.56 20.6552 
L 286.14 20.6552 
L 291.72 20.6552 
L 297.3 20.6552 
L 302.88 20.6552 
L 308.46 20.6552 
L 314.04 20.6552 
L 319.62 20.6552 
L 325.2 20.6552 
L 330.78 20.6552 
L 336.36 20.6552 
L 341.94 20.6552 
L 347.52 20.6552 
L 353.1 20.6552 
L 358.68 20.6552 
L 364.26 20.6552 
L 369.84 20.6552 
L 375.42 20.6552 
" clip-path="url(#pe2eaee7b11)" style="fill: none; stroke: #ffa500; stroke-opacity: 0.6; stroke-width: 1.5; stroke-linecap: square"/>
   </g>
   <g id="line2d_28">
    <path d="M 46.2 245.1179 
L 51.78 253.88435 
L 57.36 254.8584 
L 62.94 248.430825 
L 68.52 222.480285 
L 74.1 183.513665 
L 79.68 137.56892 
L 85.26 90.33866 
L 90.84 50.58818 
L 96.42 28.1396 
L 102 20.6552 
L 107.58 20.6552 
L 113.16 20.6552 
L 118.74 20.6552 
L 124.32 20.6552 
L 129.9 20.6552 
L 135.48 20.6552 
L 141.06 20.6552 
L 146.64 20.6552 
L 152.22 20.6552 
L 157.8 20.6552 
L 163.38 20.6552 
L 168.96 20.6552 
L 174.54 20.6552 
L 180.12 20.6552 
L 185.7 20.6552 
L 191.28 20.6552 
L 196.86 20.6552 
L 202.44 20.6552 
L 208.02 20.6552 
L 213.6 20.6552 
L 219.18 20.6552 
L 224.76 20.6552 
L 230.34 20.6552 
L 235.92 20.6552 
L 241.5 20.6552 
L 247.08 20.6552 
L 252.66 20.6552 
L 258.24 20.6552 
L 263.82 20.6552 
L 269.4 20.6552 
L 274.98 20.6552 
L 280.56 20.6552 
L 286.14 20.6552 
L 291.72 20.6552 
L 297.3 20.6552 
L 302.88 20.6552 
L 308.46 20.6552 
L 314.04 20.6552 
L 319.62 20.6552 
L 325.2 20.6552 
L 330.78 20.6552 
L 336.36 20.6552 
L 341.94 20.6552 
L 347.52 20.6552 
L 353.1 20.6552 
L 358.68 20.6552 
L 364.26 20.6552 
L 369.84 20.6552 
L 375.42 20.6552 
" clip-path="url(#pe2eaee7b11)" style="fill: none; stroke: #00ffff; stroke-opacity: 0.6; stroke-width: 1.5; stroke-linecap: square"/>
   </g>
   <g id="line2d_29">
    <path d="M 46.2 225.19415 
L 51.78 192.254127 
L 57.36 168.361605 
L 62.94 126.097845 
L 68.52 100.610922 
L 74.1 74.400584 
L 79.68 50.729552 
L 85.26 30.74528 
L 90.84 23.648498 
L 96.42 21.40364 
L 102 20.6552 
L 107.58 20.6552 
L 113.16 20.6552 
L 118.74 20.6552 
L 124.32 20.6552 
L 129.9 20.6552 
L 135.48 20.6552 
L 141.06 20.6552 
L 146.64 20.6552 
L 152.22 20.6552 
L 157.8 20.6552 
L 163.38 20.6552 
L 168.96 20.6552 
L 174.54 20.6552 
L 180.12 20.6552 
L 185.7 20.6552 
L 191.28 20.6552 
L 196.86 20.6552 
L 202.44 20.6552 
L 208.02 20.6552 
L 213.6 20.6552 
L 219.18 20.6552 
L 224.76 20.6552 
L 230.34 20.6552 
L 235.92 20.6552 
L 241.5 20.6552 
L 247.08 20.6552 
L 252.66 20.6552 
L 258.24 20.6552 
L 263.82 20.6552 
L 269.4 20.6552 
L 274.98 20.6552 
L 280.56 20.6552 
L 286.14 20.6552 
L 291.72 20.6552 
L 297.3 20.6552 
L 302.88 20.6552 
L 308.46 20.6552 
L 314.04 20.6552 
L 319.62 20.6552 
L 325.2 20.6552 
L 330.78 20.6552 
L 336.36 20.6552 
L 341.94 20.6552 
L 347.52 20.6552 
L 353.1 20.6552 
L 358.68 20.6552 
L 364.26 20.6552 
L 369.84 20.6552 
L 375.42 20.6552 
" clip-path="url(#pe2eaee7b11)" style="fill: none; stroke: #ff0000; stroke-width: 2; stroke-linecap: square"/>
   </g>
   <g id="patch_3">
    <path d="M 46.2 289.955 
L 46.2 12.755 
" style="fill: none; stroke: #000000; stroke-width: 0.8; stroke-linejoin: miter; stroke-linecap: square"/>
   </g>
   <g id="patch_4">
    <path d="M 381 289.955 
L 381 12.755 
" style="fill: none; stroke: #000000; stroke-width: 0.8; stroke-linejoin: miter; stroke-linecap: square"/>
   </g>
   <g id="patch_5">
    <path d="M 46.2 289.955 
L 381 289.955 
" style="fill: none; stroke: #000000; stroke-width: 0.8; stroke-linejoin: miter; stroke-linecap: square"/>
   </g>
   <g id="patch_6">
    <path d="M 46.2 12.755 
L 381 12.755 
" style="fill: none; stroke: #000000; stroke-width: 0.8; stroke-linejoin: miter; stroke-linecap: square"/>
   </g>
  </g>
  <g id="axes_2">
   <g id="PolyCollection_2">
    <defs>
     <path id="mb1a18e560d" d="M 46.2 -50.898125 
L 46.2 -50.898125 
L 51.78 -55.518125 
L 57.36 -59.136847 
L 62.94 -66.805261 
L 68.52 -74.079785 
L 74.1 -83.568283 
L 79.68 -94.389266 
L 85.26 -107.462414 
L 90.84 -120.185008 
L 96.42 -132.536664 
L 102 -143.91356 
L 107.58 -154.007799 
L 113.16 -162.775056 
L 118.74 -170.27006 
L 124.32 -176.837177 
L 129.9 -182.243826 
L 135.48 -186.226306 
L 141.06 -188.532511 
L 146.64 -189.353602 
L 152.22 -189.498125 
L 157.8 -189.498125 
L 163.38 -189.498125 
L 168.96 -189.498125 
L 174.54 -189.498125 
L 180.12 -189.498125 
L 185.7 -189.498125 
L 191.28 -189.498125 
L 196.86 -189.498125 
L 202.44 -189.498125 
L 208.02 -189.498125 
L 213.6 -189.498125 
L 219.18 -189.498125 
L 224.76 -189.498125 
L 230.34 -189.498125 
L 235.92 -189.498125 
L 241.5 -189.498125 
L 247.08 -189.498125 
L 252.66 -189.498125 
L 258.24 -189.498125 
L 263.82 -189.498125 
L 269.4 -189.498125 
L 274.98 -189.498125 
L 280.56 -189.498125 
L 286.14 -189.498125 
L 291.72 -189.498125 
L 297.3 -189.498125 
L 302.88 -189.498125 
L 308.46 -189.498125 
L 314.04 -189.498125 
L 319.62 -189.498125 
L 325.2 -189.498125 
L 330.78 -189.498125 
L 336.36 -189.498125 
L 341.94 -189.498125 
L 347.52 -189.498125 
L 353.1 -189.498125 
L 358.68 -189.498125 
L 364.26 -189.498125 
L 369.84 -189.498125 
L 375.42 -189.498125 
L 375.42 -189.498125 
L 375.42 -189.498125 
L 369.84 -189.498125 
L 364.26 -189.498125 
L 358.68 -189.498125 
L 353.1 -189.498125 
L 347.52 -189.498125 
L 341.94 -189.498125 
L 336.36 -189.498125 
L 330.78 -189.498125 
L 325.2 -189.498125 
L 319.62 -189.498125 
L 314.04 -189.498125 
L 308.46 -189.498125 
L 302.88 -189.498125 
L 297.3 -189.498125 
L 291.72 -189.498125 
L 286.14 -189.498125 
L 280.56 -189.498125 
L 274.98 -189.498125 
L 269.4 -189.498125 
L 263.82 -189.498125 
L 258.24 -189.498125 
L 252.66 -189.498125 
L 247.08 -189.498125 
L 241.5 -189.498125 
L 235.92 -189.498125 
L 230.34 -189.498125 
L 224.76 -189.498125 
L 219.18 -189.498125 
L 213.6 -189.498125 
L 208.02 -189.498125 
L 202.44 -189.498125 
L 196.86 -189.498125 
L 191.28 -189.498125 
L 185.7 -189.498125 
L 180.12 -189.498125 
L 174.54 -189.498125 
L 168.96 -189.498125 
L 163.38 -189.498125 
L 157.8 -189.787101 
L 152.22 -190.024744 
L 146.64 -189.870736 
L 141.06 -189.753939 
L 135.48 -189.498125 
L 129.9 -189.777846 
L 124.32 -189.770141 
L 118.74 -188.847368 
L 113.16 -186.074948 
L 107.58 -181.131072 
L 102 -173.150797 
L 96.42 -162.107872 
L 90.84 -148.282531 
L 85.26 -132.620654 
L 79.68 -114.810236 
L 74.1 -98.994287 
L 68.52 -85.635387 
L 62.94 -75.486608 
L 57.36 -63.879479 
L 51.78 -58.092813 
L 46.2 -50.898125 
z
" style="stroke: #ff0000; stroke-opacity: 0.3"/>
    </defs>
    <g clip-path="url(#pe2eaee7b11)">
     <use xlink:href="#mb1a18e560d" x="0" y="340.853125" style="fill: #ff0000; fill-opacity: 0.3; stroke: #ff0000; stroke-opacity: 0.3"/>
    </g>
   </g>
   <g id="matplotlib.axis_3">
    <g id="ytick_10">
     <g id="line2d_30">
      <defs>
       <path id="m1b52c87a6d" d="M 0 0 
L 3.5 0 
" style="stroke: #000000; stroke-width: 0.8"/>
      </defs>
      <g>
       <use xlink:href="#m1b52c87a6d" x="381" y="289.955" style="stroke: #000000; stroke-width: 0.8"/>
      </g>
     </g>
     <g id="text_18">
      <!-- 0 -->
      <g transform="translate(388 295.51) scale(0.16 -0.16)">
       <use xlink:href="#TimesNewRomanPSMT-30"/>
      </g>
     </g>
    </g>
    <g id="ytick_11">
     <g id="line2d_31">
      <g>
       <use xlink:href="#m1b52c87a6d" x="381" y="243.755" style="stroke: #000000; stroke-width: 0.8"/>
      </g>
     </g>
     <g id="text_19">
      <!-- 10 -->
      <g transform="translate(388 249.31) scale(0.16 -0.16)">
       <use xlink:href="#TimesNewRomanPSMT-31"/>
       <use xlink:href="#TimesNewRomanPSMT-30" x="50"/>
      </g>
     </g>
    </g>
    <g id="ytick_12">
     <g id="line2d_32">
      <g>
       <use xlink:href="#m1b52c87a6d" x="381" y="197.555" style="stroke: #000000; stroke-width: 0.8"/>
      </g>
     </g>
     <g id="text_20">
      <!-- 20 -->
      <g transform="translate(388 203.11) scale(0.16 -0.16)">
       <use xlink:href="#TimesNewRomanPSMT-32"/>
       <use xlink:href="#TimesNewRomanPSMT-30" x="50"/>
      </g>
     </g>
    </g>
    <g id="ytick_13">
     <g id="line2d_33">
      <g>
       <use xlink:href="#m1b52c87a6d" x="381" y="151.355" style="stroke: #000000; stroke-width: 0.8"/>
      </g>
     </g>
     <g id="text_21">
      <!-- 30 -->
      <g transform="translate(388 156.91) scale(0.16 -0.16)">
       <use xlink:href="#TimesNewRomanPSMT-33"/>
       <use xlink:href="#TimesNewRomanPSMT-30" x="50"/>
      </g>
     </g>
    </g>
    <g id="ytick_14">
     <g id="line2d_34">
      <g>
       <use xlink:href="#m1b52c87a6d" x="381" y="105.155" style="stroke: #000000; stroke-width: 0.8"/>
      </g>
     </g>
     <g id="text_22">
      <!-- 40 -->
      <g transform="translate(388 110.71) scale(0.16 -0.16)">
       <use xlink:href="#TimesNewRomanPSMT-34"/>
       <use xlink:href="#TimesNewRomanPSMT-30" x="50"/>
      </g>
     </g>
    </g>
    <g id="ytick_15">
     <g id="line2d_35">
      <g>
       <use xlink:href="#m1b52c87a6d" x="381" y="58.955" style="stroke: #000000; stroke-width: 0.8"/>
      </g>
     </g>
     <g id="text_23">
      <!-- 50 -->
      <g transform="translate(388 64.51) scale(0.16 -0.16)">
       <use xlink:href="#TimesNewRomanPSMT-35"/>
       <use xlink:href="#TimesNewRomanPSMT-30" x="50"/>
      </g>
     </g>
    </g>
    <g id="ytick_16">
     <g id="line2d_36">
      <g>
       <use xlink:href="#m1b52c87a6d" x="381" y="12.755" style="stroke: #000000; stroke-width: 0.8"/>
      </g>
     </g>
     <g id="text_24">
      <!-- 60 -->
      <g transform="translate(388 18.31) scale(0.16 -0.16)">
       <use xlink:href="#TimesNewRomanPSMT-36"/>
       <use xlink:href="#TimesNewRomanPSMT-30" x="50"/>
      </g>
     </g>
    </g>
    <g id="text_25">
     <!-- buffer(s) -->
     <g transform="translate(421.8875 186.159687) rotate(-90) scale(0.2 -0.2)">
      <defs>
       <path id="TimesNewRomanPSMT-62" d="M 984 2369 
Q 1400 2947 1881 2947 
Q 2322 2947 2650 2570 
Q 2978 2194 2978 1541 
Q 2978 778 2472 313 
Q 2038 -88 1503 -88 
Q 1253 -88 995 3 
Q 738 94 469 275 
L 469 3241 
Q 469 3728 445 3840 
Q 422 3953 372 3993 
Q 322 4034 247 4034 
Q 159 4034 28 3984 
L -16 4094 
L 844 4444 
L 984 4444 
L 984 2369 
z
M 984 2169 
L 984 456 
Q 1144 300 1314 220 
Q 1484 141 1663 141 
Q 1947 141 2192 453 
Q 2438 766 2438 1363 
Q 2438 1913 2192 2208 
Q 1947 2503 1634 2503 
Q 1469 2503 1303 2419 
Q 1178 2356 984 2169 
z
" transform="scale(0.015625)"/>
       <path id="TimesNewRomanPSMT-75" d="M 2709 2863 
L 2709 1128 
Q 2709 631 2732 520 
Q 2756 409 2807 365 
Q 2859 322 2928 322 
Q 3025 322 3147 375 
L 3191 266 
L 2334 -88 
L 2194 -88 
L 2194 519 
Q 1825 119 1631 15 
Q 1438 -88 1222 -88 
Q 981 -88 804 51 
Q 628 191 559 409 
Q 491 628 491 1028 
L 491 2306 
Q 491 2509 447 2587 
Q 403 2666 317 2708 
Q 231 2750 6 2747 
L 6 2863 
L 1009 2863 
L 1009 947 
Q 1009 547 1148 422 
Q 1288 297 1484 297 
Q 1619 297 1789 381 
Q 1959 466 2194 703 
L 2194 2325 
Q 2194 2569 2105 2655 
Q 2016 2741 1734 2747 
L 1734 2863 
L 2709 2863 
z
" transform="scale(0.015625)"/>
       <path id="TimesNewRomanPSMT-66" d="M 1319 2638 
L 1319 756 
Q 1319 356 1406 250 
Q 1522 113 1716 113 
L 1975 113 
L 1975 0 
L 266 0 
L 266 113 
L 394 113 
Q 519 113 622 175 
Q 725 238 764 344 
Q 803 450 803 756 
L 803 2638 
L 247 2638 
L 247 2863 
L 803 2863 
L 803 3050 
Q 803 3478 940 3775 
Q 1078 4072 1361 4255 
Q 1644 4438 1997 4438 
Q 2325 4438 2600 4225 
Q 2781 4084 2781 3909 
Q 2781 3816 2700 3733 
Q 2619 3650 2525 3650 
Q 2453 3650 2373 3701 
Q 2294 3753 2178 3923 
Q 2063 4094 1966 4153 
Q 1869 4213 1750 4213 
Q 1606 4213 1506 4136 
Q 1406 4059 1362 3898 
Q 1319 3738 1319 3069 
L 1319 2863 
L 2056 2863 
L 2056 2638 
L 1319 2638 
z
" transform="scale(0.015625)"/>
       <path id="TimesNewRomanPSMT-72" d="M 1038 2947 
L 1038 2303 
Q 1397 2947 1775 2947 
Q 1947 2947 2059 2842 
Q 2172 2738 2172 2600 
Q 2172 2478 2090 2393 
Q 2009 2309 1897 2309 
Q 1788 2309 1652 2417 
Q 1516 2525 1450 2525 
Q 1394 2525 1328 2463 
Q 1188 2334 1038 2041 
L 1038 669 
Q 1038 431 1097 309 
Q 1138 225 1241 169 
Q 1344 113 1538 113 
L 1538 0 
L 72 0 
L 72 113 
Q 291 113 397 181 
Q 475 231 506 341 
Q 522 394 522 644 
L 522 1753 
Q 522 2253 501 2348 
Q 481 2444 426 2487 
Q 372 2531 291 2531 
Q 194 2531 72 2484 
L 41 2597 
L 906 2947 
L 1038 2947 
z
" transform="scale(0.015625)"/>
      </defs>
      <use xlink:href="#TimesNewRomanPSMT-62"/>
      <use xlink:href="#TimesNewRomanPSMT-75" x="50"/>
      <use xlink:href="#TimesNewRomanPSMT-66" x="100"/>
      <use xlink:href="#TimesNewRomanPSMT-66" x="131.550781"/>
      <use xlink:href="#TimesNewRomanPSMT-65" x="164.851562"/>
      <use xlink:href="#TimesNewRomanPSMT-72" x="209.236328"/>
      <use xlink:href="#TimesNewRomanPSMT-28" x="242.537109"/>
      <use xlink:href="#TimesNewRomanPSMT-73" x="275.837891"/>
      <use xlink:href="#TimesNewRomanPSMT-29" x="314.753906"/>
     </g>
    </g>
   </g>
   <g id="line2d_37">
    <path d="M 46.2 289.955 
L 51.78 284.565 
L 57.36 280.038965 
L 62.94 271.16991 
L 68.52 263.427964 
L 74.1 253.237487 
L 79.68 240.672596 
L 85.26 225.696357 
L 90.84 211.602307 
L 96.42 198.694004 
L 102 187.500413 
L 107.58 178.341448 
L 113.16 171.245028 
L 118.74 165.725313 
L 124.32 160.945458 
L 129.9 156.938838 
L 135.48 153.897559 
L 141.06 152.043838 
L 146.64 151.032848 
L 152.22 150.898951 
L 157.8 151.09872 
L 163.38 151.355 
L 168.96 151.355 
L 174.54 151.355 
L 180.12 151.355 
L 185.7 151.355 
L 191.28 151.355 
L 196.86 151.355 
L 202.44 151.355 
L 208.02 151.355 
L 213.6 151.355 
L 219.18 151.355 
L 224.76 151.355 
L 230.34 151.355 
L 235.92 151.355 
L 241.5 151.355 
L 247.08 151.355 
L 252.66 151.355 
L 258.24 151.355 
L 263.82 151.355 
L 269.4 151.355 
L 274.98 151.355 
L 280.56 151.355 
L 286.14 151.355 
L 291.72 151.355 
L 297.3 151.355 
L 302.88 151.355 
L 308.46 151.355 
L 314.04 151.355 
L 319.62 151.355 
L 325.2 151.355 
L 330.78 151.355 
L 336.36 151.355 
L 341.94 151.355 
L 347.52 151.355 
L 353.1 151.355 
L 358.68 151.355 
L 364.26 151.355 
L 369.84 151.355 
L 375.42 151.355 
" clip-path="url(#pe2eaee7b11)" style="fill: none; stroke: #1f77b4; stroke-opacity: 0.1; stroke-width: 1.5; stroke-linecap: square"/>
   </g>
   <g id="line2d_38">
    <path d="M 46.2 289.955 
L 51.78 285.335 
L 57.36 281.699325 
L 62.94 273.995958 
L 68.52 266.67617 
L 74.1 256.259604 
L 79.68 243.438732 
L 85.26 228.174268 
L 90.84 213.54411 
L 96.42 200.075584 
L 102 188.35116 
L 107.58 178.250047 
L 113.16 169.494228 
L 118.74 162.509756 
L 124.32 157.227579 
L 129.9 153.71884 
L 135.48 151.693498 
L 141.06 151.099186 
L 146.64 151.15651 
L 152.22 151.355 
L 157.8 151.355 
L 163.38 151.355 
L 168.96 151.355 
L 174.54 151.355 
L 180.12 151.355 
L 185.7 151.355 
L 191.28 151.355 
L 196.86 151.355 
L 202.44 151.355 
L 208.02 151.355 
L 213.6 151.355 
L 219.18 151.355 
L 224.76 151.355 
L 230.34 151.355 
L 235.92 151.355 
L 241.5 151.355 
L 247.08 151.355 
L 252.66 151.355 
L 258.24 151.355 
L 263.82 151.355 
L 269.4 151.355 
L 274.98 151.355 
L 280.56 151.355 
L 286.14 151.355 
L 291.72 151.355 
L 297.3 151.355 
L 302.88 151.355 
L 308.46 151.355 
L 314.04 151.355 
L 319.62 151.355 
L 325.2 151.355 
L 330.78 151.355 
L 336.36 151.355 
L 341.94 151.355 
L 347.52 151.355 
L 353.1 151.355 
L 358.68 151.355 
L 364.26 151.355 
L 369.84 151.355 
L 375.42 151.355 
" clip-path="url(#pe2eaee7b11)" style="fill: none; stroke: #ff7f0e; stroke-opacity: 0.1; stroke-width: 1.5; stroke-linecap: square"/>
   </g>
   <g id="line2d_39">
    <path d="M 46.2 289.955 
L 51.78 284.486438 
L 57.36 279.935333 
L 62.94 271.315757 
L 68.52 264.31382 
L 74.1 255.139532 
L 79.68 243.600105 
L 85.26 229.717339 
L 90.84 216.72871 
L 96.42 204.65949 
L 102 193.838127 
L 107.58 184.525542 
L 113.16 176.762122 
L 118.74 170.016124 
L 124.32 163.715271 
L 129.9 158.340753 
L 135.48 154.399089 
L 141.06 152.14965 
L 146.64 151.059937 
L 152.22 150.899373 
L 157.8 151.099125 
L 163.38 151.355 
L 168.96 151.355 
L 174.54 151.355 
L 180.12 151.355 
L 185.7 151.355 
L 191.28 151.355 
L 196.86 151.355 
L 202.44 151.355 
L 208.02 151.355 
L 213.6 151.355 
L 219.18 151.355 
L 224.76 151.355 
L 230.34 151.355 
L 235.92 151.355 
L 241.5 151.355 
L 247.08 151.355 
L 252.66 151.355 
L 258.24 151.355 
L 263.82 151.355 
L 269.4 151.355 
L 274.98 151.355 
L 280.56 151.355 
L 286.14 151.355 
L 291.72 151.355 
L 297.3 151.355 
L 302.88 151.355 
L 308.46 151.355 
L 314.04 151.355 
L 319.62 151.355 
L 325.2 151.355 
L 330.78 151.355 
L 336.36 151.355 
L 341.94 151.355 
L 347.52 151.355 
L 353.1 151.355 
L 358.68 151.355 
L 364.26 151.355 
L 369.84 151.355 
L 375.42 151.355 
" clip-path="url(#pe2eaee7b11)" style="fill: none; stroke: #2ca02c; stroke-opacity: 0.1; stroke-width: 1.5; stroke-linecap: square"/>
   </g>
   <g id="line2d_40">
    <path d="M 46.2 289.955 
L 51.78 282.897233 
L 57.36 276.973646 
L 62.94 265.366517 
L 68.52 255.217738 
L 74.1 241.858838 
L 79.68 226.042889 
L 85.26 208.232471 
L 90.84 192.570594 
L 96.42 178.745253 
L 102 167.702328 
L 107.58 159.722053 
L 113.16 154.778177 
L 118.74 152.005757 
L 124.32 151.082984 
L 129.9 151.075279 
L 135.48 151.355 
L 141.06 151.355 
L 146.64 151.355 
L 152.22 151.355 
L 157.8 151.355 
L 163.38 151.355 
L 168.96 151.355 
L 174.54 151.355 
L 180.12 151.355 
L 185.7 151.355 
L 191.28 151.355 
L 196.86 151.355 
L 202.44 151.355 
L 208.02 151.355 
L 213.6 151.355 
L 219.18 151.355 
L 224.76 151.355 
L 230.34 151.355 
L 235.92 151.355 
L 241.5 151.355 
L 247.08 151.355 
L 252.66 151.355 
L 258.24 151.355 
L 263.82 151.355 
L 269.4 151.355 
L 274.98 151.355 
L 280.56 151.355 
L 286.14 151.355 
L 291.72 151.355 
L 297.3 151.355 
L 302.88 151.355 
L 308.46 151.355 
L 314.04 151.355 
L 319.62 151.355 
L 325.2 151.355 
L 330.78 151.355 
L 336.36 151.355 
L 341.94 151.355 
L 347.52 151.355 
L 353.1 151.355 
L 358.68 151.355 
L 364.26 151.355 
L 369.84 151.355 
L 375.42 151.355 
" clip-path="url(#pe2eaee7b11)" style="fill: none; stroke: #d62728; stroke-opacity: 0.1; stroke-width: 1.5; stroke-linecap: square"/>
   </g>
   <g id="line2d_41">
    <path d="M 46.2 289.955 
L 51.78 283.019842 
L 57.36 277.580931 
L 62.94 267.074453 
L 68.52 258.594274 
L 74.1 247.588631 
L 79.68 234.590603 
L 85.26 219.546698 
L 90.84 205.863752 
L 96.42 192.963456 
L 102 181.170165 
L 107.58 171.026179 
L 113.16 163.051796 
L 118.74 157.419925 
L 124.32 153.854463 
L 129.9 152.033648 
L 135.48 151.406333 
L 141.06 151.355 
L 146.64 151.355 
L 152.22 151.355 
L 157.8 151.355 
L 163.38 151.355 
L 168.96 151.355 
L 174.54 151.355 
L 180.12 151.355 
L 185.7 151.355 
L 191.28 151.355 
L 196.86 151.355 
L 202.44 151.355 
L 208.02 151.355 
L 213.6 151.355 
L 219.18 151.355 
L 224.76 151.355 
L 230.34 151.355 
L 235.92 151.355 
L 241.5 151.355 
L 247.08 151.355 
L 252.66 151.355 
L 258.24 151.355 
L 263.82 151.355 
L 269.4 151.355 
L 274.98 151.355 
L 280.56 151.355 
L 286.14 151.355 
L 291.72 151.355 
L 297.3 151.355 
L 302.88 151.355 
L 308.46 151.355 
L 314.04 151.355 
L 319.62 151.355 
L 325.2 151.355 
L 330.78 151.355 
L 336.36 151.355 
L 341.94 151.355 
L 347.52 151.355 
L 353.1 151.355 
L 358.68 151.355 
L 364.26 151.355 
L 369.84 151.355 
L 375.42 151.355 
" clip-path="url(#pe2eaee7b11)" style="fill: none; stroke: #9467bd; stroke-opacity: 0.1; stroke-width: 1.5; stroke-linecap: square"/>
   </g>
   <g id="line2d_42">
    <path d="M 46.2 289.955 
L 51.78 282.760312 
L 57.36 277.194519 
L 62.94 266.458418 
L 68.52 257.912881 
L 74.1 246.835658 
L 79.68 233.804543 
L 85.26 218.98242 
L 90.84 205.863506 
L 96.42 193.817846 
L 102 183.159378 
L 107.58 174.094004 
L 113.16 166.586467 
L 118.74 160.655147 
L 124.32 156.292607 
L 129.9 153.493906 
L 135.48 151.936199 
L 141.06 151.324272 
L 146.64 151.243386 
L 152.22 151.355 
L 157.8 151.355 
L 163.38 151.355 
L 168.96 151.355 
L 174.54 151.355 
L 180.12 151.355 
L 185.7 151.355 
L 191.28 151.355 
L 196.86 151.355 
L 202.44 151.355 
L 208.02 151.355 
L 213.6 151.355 
L 219.18 151.355 
L 224.76 151.355 
L 230.34 151.355 
L 235.92 151.355 
L 241.5 151.355 
L 247.08 151.355 
L 252.66 151.355 
L 258.24 151.355 
L 263.82 151.355 
L 269.4 151.355 
L 274.98 151.355 
L 280.56 151.355 
L 286.14 151.355 
L 291.72 151.355 
L 297.3 151.355 
L 302.88 151.355 
L 308.46 151.355 
L 314.04 151.355 
L 319.62 151.355 
L 325.2 151.355 
L 330.78 151.355 
L 336.36 151.355 
L 341.94 151.355 
L 347.52 151.355 
L 353.1 151.355 
L 358.68 151.355 
L 364.26 151.355 
L 369.84 151.355 
L 375.42 151.355 
" clip-path="url(#pe2eaee7b11)" style="fill: none; stroke: #8c564b; stroke-opacity: 0.1; stroke-width: 1.5; stroke-linecap: square"/>
   </g>
   <g id="line2d_43">
    <path d="M 46.2 289.955 
L 51.78 285.335 
L 57.36 281.716278 
L 62.94 274.047864 
L 68.52 266.77334 
L 74.1 256.413836 
L 79.68 243.687357 
L 85.26 228.496804 
L 90.84 213.929788 
L 96.42 200.502566 
L 102 189.034729 
L 107.58 179.508192 
L 113.16 171.527298 
L 118.74 165.076866 
L 124.32 159.941964 
L 129.9 156.112794 
L 135.48 153.411493 
L 141.06 151.958173 
L 146.64 151.390352 
L 152.22 151.355 
L 157.8 151.355 
L 163.38 151.355 
L 168.96 151.355 
L 174.54 151.355 
L 180.12 151.355 
L 185.7 151.355 
L 191.28 151.355 
L 196.86 151.355 
L 202.44 151.355 
L 208.02 151.355 
L 213.6 151.355 
L 219.18 151.355 
L 224.76 151.355 
L 230.34 151.355 
L 235.92 151.355 
L 241.5 151.355 
L 247.08 151.355 
L 252.66 151.355 
L 258.24 151.355 
L 263.82 151.355 
L 269.4 151.355 
L 274.98 151.355 
L 280.56 151.355 
L 286.14 151.355 
L 291.72 151.355 
L 297.3 151.355 
L 302.88 151.355 
L 308.46 151.355 
L 314.04 151.355 
L 319.62 151.355 
L 325.2 151.355 
L 330.78 151.355 
L 336.36 151.355 
L 341.94 151.355 
L 347.52 151.355 
L 353.1 151.355 
L 358.68 151.355 
L 364.26 151.355 
L 369.84 151.355 
L 375.42 151.355 
" clip-path="url(#pe2eaee7b11)" style="fill: none; stroke: #e377c2; stroke-opacity: 0.1; stroke-width: 1.5; stroke-linecap: square"/>
   </g>
   <g id="line2d_44">
    <path d="M 46.2 289.955 
L 51.78 284.437828 
L 57.36 280.321236 
L 62.94 272.377592 
L 68.52 265.999714 
L 74.1 257.284842 
L 79.68 246.463859 
L 85.26 233.390711 
L 90.84 220.668117 
L 96.42 208.316461 
L 102 196.939565 
L 107.58 186.845326 
L 113.16 178.078069 
L 118.74 170.583065 
L 124.32 164.015948 
L 129.9 158.609299 
L 135.48 154.626819 
L 141.06 152.320614 
L 146.64 151.173128 
L 152.22 150.956648 
L 157.8 151.117324 
L 163.38 151.355 
L 168.96 151.355 
L 174.54 151.355 
L 180.12 151.355 
L 185.7 151.355 
L 191.28 151.355 
L 196.86 151.355 
L 202.44 151.355 
L 208.02 151.355 
L 213.6 151.355 
L 219.18 151.355 
L 224.76 151.355 
L 230.34 151.355 
L 235.92 151.355 
L 241.5 151.355 
L 247.08 151.355 
L 252.66 151.355 
L 258.24 151.355 
L 263.82 151.355 
L 269.4 151.355 
L 274.98 151.355 
L 280.56 151.355 
L 286.14 151.355 
L 291.72 151.355 
L 297.3 151.355 
L 302.88 151.355 
L 308.46 151.355 
L 314.04 151.355 
L 319.62 151.355 
L 325.2 151.355 
L 330.78 151.355 
L 336.36 151.355 
L 341.94 151.355 
L 347.52 151.355 
L 353.1 151.355 
L 358.68 151.355 
L 364.26 151.355 
L 369.84 151.355 
L 375.42 151.355 
" clip-path="url(#pe2eaee7b11)" style="fill: none; stroke: #7f7f7f; stroke-opacity: 0.1; stroke-width: 1.5; stroke-linecap: square"/>
   </g>
   <g id="line2d_45">
    <path d="M 46.2 289.955 
L 51.78 283.772666 
L 57.36 279.305598 
L 62.94 270.425359 
L 68.52 263.316599 
L 74.1 253.545466 
L 79.68 241.761989 
L 85.26 227.695574 
L 90.84 214.424349 
L 96.42 201.80335 
L 102 190.641294 
L 107.58 181.180993 
L 113.16 173.240827 
L 118.74 166.695691 
L 124.32 161.322906 
L 129.9 157.147234 
L 135.48 154.095681 
L 141.06 152.29897 
L 146.64 151.499523 
L 152.22 151.355 
L 157.8 151.355 
L 163.38 151.355 
L 168.96 151.355 
L 174.54 151.355 
L 180.12 151.355 
L 185.7 151.355 
L 191.28 151.355 
L 196.86 151.355 
L 202.44 151.355 
L 208.02 151.355 
L 213.6 151.355 
L 219.18 151.355 
L 224.76 151.355 
L 230.34 151.355 
L 235.92 151.355 
L 241.5 151.355 
L 247.08 151.355 
L 252.66 151.355 
L 258.24 151.355 
L 263.82 151.355 
L 269.4 151.355 
L 274.98 151.355 
L 280.56 151.355 
L 286.14 151.355 
L 291.72 151.355 
L 297.3 151.355 
L 302.88 151.355 
L 308.46 151.355 
L 314.04 151.355 
L 319.62 151.355 
L 325.2 151.355 
L 330.78 151.355 
L 336.36 151.355 
L 341.94 151.355 
L 347.52 151.355 
L 353.1 151.355 
L 358.68 151.355 
L 364.26 151.355 
L 369.84 151.355 
L 375.42 151.355 
" clip-path="url(#pe2eaee7b11)" style="fill: none; stroke: #bcbd22; stroke-opacity: 0.1; stroke-width: 1.5; stroke-linecap: square"/>
   </g>
   <g id="line2d_46">
    <path d="M 46.2 289.955 
L 51.78 284.553269 
L 57.36 280.01781 
L 62.94 271.133956 
L 68.52 263.416799 
L 74.1 253.334718 
L 79.68 241.229849 
L 85.26 227.248814 
L 90.84 214.660781 
L 96.42 203.286507 
L 102 193.161907 
L 107.58 184.246677 
L 113.16 176.511727 
L 118.74 169.661327 
L 124.32 163.347458 
L 129.9 158.130911 
L 135.48 154.359266 
L 141.06 152.156873 
L 146.64 150.982389 
L 152.22 150.828381 
L 157.8 151.066024 
L 163.38 151.355 
L 168.96 151.355 
L 174.54 151.355 
L 180.12 151.355 
L 185.7 151.355 
L 191.28 151.355 
L 196.86 151.355 
L 202.44 151.355 
L 208.02 151.355 
L 213.6 151.355 
L 219.18 151.355 
L 224.76 151.355 
L 230.34 151.355 
L 235.92 151.355 
L 241.5 151.355 
L 247.08 151.355 
L 252.66 151.355 
L 258.24 151.355 
L 263.82 151.355 
L 269.4 151.355 
L 274.98 151.355 
L 280.56 151.355 
L 286.14 151.355 
L 291.72 151.355 
L 297.3 151.355 
L 302.88 151.355 
L 308.46 151.355 
L 314.04 151.355 
L 319.62 151.355 
L 325.2 151.355 
L 330.78 151.355 
L 336.36 151.355 
L 341.94 151.355 
L 347.52 151.355 
L 353.1 151.355 
L 358.68 151.355 
L 364.26 151.355 
L 369.84 151.355 
L 375.42 151.355 
" clip-path="url(#pe2eaee7b11)" style="fill: none; stroke: #17becf; stroke-opacity: 0.1; stroke-width: 1.5; stroke-linecap: square"/>
   </g>
   <g id="line2d_47">
    <path d="M 46.2 289.955 
L 51.78 282.760312 
L 57.36 276.973646 
L 62.94 265.366517 
L 68.52 255.217738 
L 74.1 241.858838 
L 79.68 226.042889 
L 85.26 208.232471 
L 90.84 192.570594 
L 96.42 178.745253 
L 102 167.702328 
L 107.58 159.722053 
L 113.16 154.778177 
L 118.74 152.005757 
L 124.32 151.082984 
L 129.9 151.075279 
L 135.48 151.355 
L 141.06 151.099186 
L 146.64 150.982389 
L 152.22 150.828381 
L 157.8 151.066024 
L 163.38 151.355 
L 168.96 151.355 
L 174.54 151.355 
L 180.12 151.355 
L 185.7 151.355 
L 191.28 151.355 
L 196.86 151.355 
L 202.44 151.355 
L 208.02 151.355 
L 213.6 151.355 
L 219.18 151.355 
L 224.76 151.355 
L 230.34 151.355 
L 235.92 151.355 
L 241.5 151.355 
L 247.08 151.355 
L 252.66 151.355 
L 258.24 151.355 
L 263.82 151.355 
L 269.4 151.355 
L 274.98 151.355 
L 280.56 151.355 
L 286.14 151.355 
L 291.72 151.355 
L 297.3 151.355 
L 302.88 151.355 
L 308.46 151.355 
L 314.04 151.355 
L 319.62 151.355 
L 325.2 151.355 
L 330.78 151.355 
L 336.36 151.355 
L 341.94 151.355 
L 347.52 151.355 
L 353.1 151.355 
L 358.68 151.355 
L 364.26 151.355 
L 369.84 151.355 
L 375.42 151.355 
" clip-path="url(#pe2eaee7b11)" style="fill: none; stroke: #ffa500; stroke-opacity: 0.6; stroke-width: 1.5; stroke-linecap: square"/>
   </g>
   <g id="line2d_48">
    <path d="M 46.2 289.955 
L 51.78 285.335 
L 57.36 281.716278 
L 62.94 274.047864 
L 68.52 266.77334 
L 74.1 257.284842 
L 79.68 246.463859 
L 85.26 233.390711 
L 90.84 220.668117 
L 96.42 208.316461 
L 102 196.939565 
L 107.58 186.845326 
L 113.16 178.078069 
L 118.74 170.583065 
L 124.32 164.015948 
L 129.9 158.609299 
L 135.48 154.626819 
L 141.06 152.320614 
L 146.64 151.499523 
L 152.22 151.355 
L 157.8 151.355 
L 163.38 151.355 
L 168.96 151.355 
L 174.54 151.355 
L 180.12 151.355 
L 185.7 151.355 
L 191.28 151.355 
L 196.86 151.355 
L 202.44 151.355 
L 208.02 151.355 
L 213.6 151.355 
L 219.18 151.355 
L 224.76 151.355 
L 230.34 151.355 
L 235.92 151.355 
L 241.5 151.355 
L 247.08 151.355 
L 252.66 151.355 
L 258.24 151.355 
L 263.82 151.355 
L 269.4 151.355 
L 274.98 151.355 
L 280.56 151.355 
L 286.14 151.355 
L 291.72 151.355 
L 297.3 151.355 
L 302.88 151.355 
L 308.46 151.355 
L 314.04 151.355 
L 319.62 151.355 
L 325.2 151.355 
L 330.78 151.355 
L 336.36 151.355 
L 341.94 151.355 
L 347.52 151.355 
L 353.1 151.355 
L 358.68 151.355 
L 364.26 151.355 
L 369.84 151.355 
L 375.42 151.355 
" clip-path="url(#pe2eaee7b11)" style="fill: none; stroke: #00ffff; stroke-opacity: 0.6; stroke-width: 1.5; stroke-linecap: square"/>
   </g>
   <g id="line2d_49">
    <path d="M 46.2 289.955 
L 51.78 284.116259 
L 57.36 279.478364 
L 62.94 270.336578 
L 68.52 262.56493 
L 74.1 252.149861 
L 79.68 239.529252 
L 85.26 224.718145 
L 90.84 210.985601 
L 96.42 198.286452 
L 102 187.149907 
L 107.58 177.774046 
L 113.16 170.127574 
L 118.74 164.034897 
L 124.32 159.174664 
L 129.9 155.56015 
L 135.48 153.118094 
L 141.06 151.806158 
L 146.64 151.224807 
L 152.22 151.171335 
L 157.8 151.251119 
L 163.38 151.355 
L 168.96 151.355 
L 174.54 151.355 
L 180.12 151.355 
L 185.7 151.355 
L 191.28 151.355 
L 196.86 151.355 
L 202.44 151.355 
L 208.02 151.355 
L 213.6 151.355 
L 219.18 151.355 
L 224.76 151.355 
L 230.34 151.355 
L 235.92 151.355 
L 241.5 151.355 
L 247.08 151.355 
L 252.66 151.355 
L 258.24 151.355 
L 263.82 151.355 
L 269.4 151.355 
L 274.98 151.355 
L 280.56 151.355 
L 286.14 151.355 
L 291.72 151.355 
L 297.3 151.355 
L 302.88 151.355 
L 308.46 151.355 
L 314.04 151.355 
L 319.62 151.355 
L 325.2 151.355 
L 330.78 151.355 
L 336.36 151.355 
L 341.94 151.355 
L 347.52 151.355 
L 353.1 151.355 
L 358.68 151.355 
L 364.26 151.355 
L 369.84 151.355 
L 375.42 151.355 
" clip-path="url(#pe2eaee7b11)" style="fill: none; stroke: #0000ff; stroke-width: 2; stroke-linecap: square"/>
   </g>
   <g id="line2d_50">
    <path d="M 102 289.955 
L 102 12.755 
" clip-path="url(#pe2eaee7b11)" style="fill: none; stroke-dasharray: 5.55,2.4; stroke-dashoffset: 0; stroke: #ff0000; stroke-width: 1.5"/>
   </g>
   <g id="line2d_51">
    <path d="M 146.64 289.955 
L 146.64 12.755 
" clip-path="url(#pe2eaee7b11)" style="fill: none; stroke-dasharray: 5.55,2.4; stroke-dashoffset: 0; stroke: #0000ff; stroke-width: 1.5"/>
   </g>
   <g id="patch_7">
    <path d="M 46.2 289.955 
L 46.2 12.755 
" style="fill: none; stroke: #000000; stroke-width: 0.8; stroke-linejoin: miter; stroke-linecap: square"/>
   </g>
   <g id="patch_8">
    <path d="M 381 289.955 
L 381 12.755 
" style="fill: none; stroke: #000000; stroke-width: 0.8; stroke-linejoin: miter; stroke-linecap: square"/>
   </g>
   <g id="patch_9">
    <path d="M 46.2 289.955 
L 381 289.955 
" style="fill: none; stroke: #000000; stroke-width: 0.8; stroke-linejoin: miter; stroke-linecap: square"/>
   </g>
   <g id="patch_10">
    <path d="M 46.2 12.755 
L 381 12.755 
" style="fill: none; stroke: #000000; stroke-width: 0.8; stroke-linejoin: miter; stroke-linecap: square"/>
   </g>
  </g>
 </g>
 <defs>
  <clipPath id="pe2eaee7b11">
   <rect x="46.2" y="12.755" width="334.8" height="277.2"/>
  </clipPath>
 </defs>
</svg>
