<?xml version="1.0" encoding="utf-8" standalone="no"?>
<!DOCTYPE svg PUBLIC "-//W3C//DTD SVG 1.1//EN"
  "http://www.w3.org/Graphics/SVG/1.1/DTD/svg11.dtd">
<svg xmlns:xlink="http://www.w3.org/1999/xlink" width="864pt" height="252pt" viewBox="0 0 864 252" xmlns="http://www.w3.org/2000/svg" version="1.1">
 <metadata>
  <rdf:RDF xmlns:dc="http://purl.org/dc/elements/1.1/" xmlns:cc="http://creativecommons.org/ns#" xmlns:rdf="http://www.w3.org/1999/02/22-rdf-syntax-ns#">
   <cc:Work>
    <dc:type rdf:resource="http://purl.org/dc/dcmitype/StillImage"/>
    <dc:date>2024-04-13T13:55:52.251731</dc:date>
    <dc:format>image/svg+xml</dc:format>
    <dc:creator>
     <cc:Agent>
      <dc:title>Matplotlib v3.8.3, https://matplotlib.org/</dc:title>
     </cc:Agent>
    </dc:creator>
   </cc:Work>
  </rdf:RDF>
 </metadata>
 <defs>
  <style type="text/css">*{stroke-linejoin: round; stroke-linecap: butt}</style>
 </defs>
 <g id="figure_1">
  <g id="patch_1">
   <path d="M 0 252 
L 864 252 
L 864 0 
L 0 0 
z
" style="fill: #ffffff"/>
  </g>
  <g id="axes_1">
   <g id="patch_2">
    <path d="M 108 224.28 
L 777.6 224.28 
L 777.6 30.24 
L 108 30.24 
z
" style="fill: #ffffff"/>
   </g>
   <g id="PolyCollection_1">
    <path d="M 340.503508 80.817922 
L 340.503508 79.510717 
L 343.029347 79.510717 
L 345.555187 79.510717 
L 348.081026 79.510717 
L 350.606865 79.510717 
L 353.132705 79.510717 
L 355.658544 79.510717 
L 358.184383 79.510717 
L 360.710223 79.510717 
L 363.236062 79.510717 
L 365.761901 79.510717 
L 368.28774 79.510717 
L 370.81358 79.510717 
L 373.339419 79.510717 
L 375.865258 79.510717 
L 378.391098 79.510717 
L 380.916937 79.510717 
L 383.442776 79.510717 
L 385.968616 79.510717 
L 388.494455 89.311726 
L 391.020294 99.112735 
L 393.546134 130.475963 
L 396.071973 152.038183 
L 396.071973 171.665234 
L 396.071973 171.665234 
L 393.546134 168.061841 
L 391.020294 164.333774 
L 388.494455 160.491251 
L 385.968616 156.544805 
L 383.442776 152.505253 
L 380.916937 148.383666 
L 378.391098 144.191341 
L 375.865258 139.93977 
L 373.339419 135.640606 
L 370.81358 131.305632 
L 368.28774 126.94673 
L 365.761901 122.575848 
L 363.236062 118.204966 
L 360.710223 113.846064 
L 358.184383 109.51109 
L 355.658544 105.211926 
L 353.132705 100.960355 
L 350.606865 96.76803 
L 348.081026 92.646443 
L 345.555187 88.606891 
L 343.029347 84.660445 
L 340.503508 80.817922 
z
" clip-path="url(#p51103f953e)" style="fill: #808080; fill-opacity: 0.3"/>
    <path d="M 421.330366 198.871375 
L 421.330366 197.122824 
L 423.856205 197.122824 
L 426.382045 197.122824 
L 428.907884 197.122824 
L 431.433723 197.122824 
L 433.959562 197.122824 
L 436.485402 197.122824 
L 439.011241 197.122824 
L 441.53708 197.122824 
L 444.06292 197.122824 
L 446.588759 197.122824 
L 449.114598 197.122824 
L 451.640438 197.122824 
L 454.166277 197.122824 
L 456.692116 197.122824 
L 459.217955 197.122824 
L 461.743795 197.122824 
L 461.743795 198.871375 
L 461.743795 198.871375 
L 459.217955 200.544613 
L 456.692116 202.004143 
L 454.166277 203.245966 
L 451.640438 204.266678 
L 449.114598 205.063481 
L 446.588759 205.634191 
L 444.06292 205.977244 
L 441.53708 206.0917 
L 439.011241 205.977244 
L 436.485402 205.634191 
L 433.959562 205.063481 
L 431.433723 204.266678 
L 428.907884 203.245966 
L 426.382045 202.004143 
L 423.856205 200.544613 
L 421.330366 198.871375 
z
" clip-path="url(#p51103f953e)" style="fill: #808080; fill-opacity: 0.3"/>
    <path d="M 651.181743 92.646443 
L 651.181743 91.50553 
L 653.707582 93.504666 
L 656.233421 97.502937 
L 656.233421 100.960355 
L 656.233421 100.960355 
L 653.707582 96.76803 
L 651.181743 92.646443 
z
" clip-path="url(#p51103f953e)" style="fill: #808080; fill-opacity: 0.3"/>
    <path d="M 686.543493 152.505253 
L 686.543493 151.479595 
L 689.069332 151.479595 
L 691.595172 151.479595 
L 694.121011 151.479595 
L 696.64685 151.479595 
L 699.17269 151.479595 
L 701.698529 151.479595 
L 704.224368 151.479595 
L 706.750207 151.479595 
L 709.276047 155.744955 
L 711.801886 160.010316 
L 714.327725 164.275676 
L 716.853565 164.275676 
L 719.379404 167.11925 
L 721.905243 173.51729 
L 724.431083 183.469798 
L 726.956922 191.594293 
L 726.956922 200.544613 
L 726.956922 200.544613 
L 724.431083 198.871375 
L 721.905243 196.989017 
L 719.379404 194.902698 
L 716.853565 192.618135 
L 714.327725 190.141592 
L 711.801886 187.479855 
L 709.276047 184.640221 
L 706.750207 181.630473 
L 704.224368 178.458861 
L 701.698529 175.134077 
L 699.17269 171.665234 
L 696.64685 168.061841 
L 694.121011 164.333774 
L 691.595172 160.491251 
L 689.069332 156.544805 
L 686.543493 152.505253 
z
" clip-path="url(#p51103f953e)" style="fill: #808080; fill-opacity: 0.3"/>
   </g>
   <g id="PolyCollection_2">
    <path d="M 140.962203 215.46 
L 140.962203 205.977244 
L 143.488042 205.634191 
L 146.013882 205.063481 
L 148.539721 204.266678 
L 151.06556 203.245966 
L 153.591399 202.004143 
L 156.117239 200.544613 
L 158.643078 198.871375 
L 161.168917 196.989017 
L 163.694757 194.902698 
L 166.220596 192.618135 
L 168.746435 190.141592 
L 171.272275 187.479855 
L 173.798114 184.640221 
L 176.323953 181.630473 
L 178.849793 178.458861 
L 181.375632 175.134077 
L 183.901471 171.665234 
L 186.42731 168.061841 
L 188.95315 164.333774 
L 191.478989 160.491251 
L 194.004828 156.544805 
L 196.530668 152.505253 
L 199.056507 148.383666 
L 201.582346 144.191341 
L 204.108186 139.93977 
L 206.634025 135.640606 
L 209.159864 131.305632 
L 211.685704 126.94673 
L 214.211543 122.575848 
L 216.737382 118.204966 
L 219.263221 113.846064 
L 221.789061 109.51109 
L 224.3149 105.211926 
L 226.840739 100.960355 
L 229.366579 96.76803 
L 231.892418 92.646443 
L 234.418257 88.606891 
L 236.944097 84.660445 
L 239.469936 80.817922 
L 241.995775 77.089855 
L 244.521614 75.371236 
L 247.047454 75.371236 
L 249.573293 75.371236 
L 252.099132 75.371236 
L 254.624972 75.371236 
L 257.150811 75.371236 
L 259.67665 75.371236 
L 262.20249 75.371236 
L 264.728329 75.371236 
L 267.254168 75.371236 
L 269.780008 75.371236 
L 272.305847 75.371236 
L 274.831686 75.371236 
L 277.357525 75.371236 
L 279.883365 75.371236 
L 282.409204 75.371236 
L 284.935043 75.371236 
L 287.460883 75.371236 
L 289.986722 75.371236 
L 292.512561 75.371236 
L 295.038401 75.371236 
L 297.56424 75.371236 
L 300.090079 75.371236 
L 302.615919 75.371236 
L 305.141758 75.371236 
L 307.667597 75.371236 
L 310.193436 75.371236 
L 312.719276 75.371236 
L 315.245115 75.371236 
L 317.770954 75.371236 
L 320.296794 75.371236 
L 322.822633 75.371236 
L 325.348472 75.371236 
L 327.874312 75.371236 
L 330.400151 75.371236 
L 332.92599 75.371236 
L 335.451829 75.371236 
L 337.977669 77.089855 
L 337.977669 79.510717 
L 337.977669 79.510717 
L 335.451829 79.510717 
L 332.92599 79.510717 
L 330.400151 79.510717 
L 327.874312 79.510717 
L 325.348472 79.510717 
L 322.822633 79.510717 
L 320.296794 79.510717 
L 317.770954 79.510717 
L 315.245115 79.510717 
L 312.719276 79.510717 
L 310.193436 79.510717 
L 307.667597 79.510717 
L 305.141758 79.510717 
L 302.615919 79.510717 
L 300.090079 79.510717 
L 297.56424 79.510717 
L 295.038401 79.510717 
L 292.512561 79.510717 
L 289.986722 79.510717 
L 287.460883 79.510717 
L 284.935043 79.510717 
L 282.409204 79.510717 
L 279.883365 79.510717 
L 277.357525 79.510717 
L 274.831686 79.510717 
L 272.305847 79.510717 
L 269.780008 79.510717 
L 267.254168 86.364896 
L 264.728329 95.960746 
L 262.20249 107.955559 
L 259.67665 120.293081 
L 257.150811 129.888932 
L 254.624972 141.883745 
L 252.099132 146.68167 
L 249.573293 151.479595 
L 247.047454 151.479595 
L 244.521614 151.479595 
L 241.995775 151.479595 
L 239.469936 151.479595 
L 236.944097 151.479595 
L 234.418257 151.479595 
L 231.892418 151.479595 
L 229.366579 151.479595 
L 226.840739 151.479595 
L 224.3149 151.479595 
L 221.789061 151.479595 
L 219.263221 151.479595 
L 216.737382 151.479595 
L 214.211543 151.479595 
L 211.685704 154.284206 
L 209.159864 160.173889 
L 206.634025 166.063572 
L 204.108186 171.111872 
L 201.582346 173.402304 
L 199.056507 177.32876 
L 196.530668 179.291988 
L 194.004828 180.928011 
L 191.478989 180.928011 
L 188.95315 182.127627 
L 186.42731 185.366589 
L 183.901471 189.685206 
L 181.375632 192.984149 
L 178.849793 197.588415 
L 176.323953 202.335504 
L 173.798114 207.81951 
L 171.272275 209.958847 
L 168.746435 210.875706 
L 166.220596 211.181326 
L 163.694757 211.486945 
L 161.168917 211.996311 
L 158.643078 213.21879 
L 156.117239 214.441268 
L 153.591399 215.46 
L 151.06556 215.46 
L 148.539721 215.46 
L 146.013882 215.46 
L 143.488042 215.46 
L 140.962203 215.46 
z
" clip-path="url(#p51103f953e)" style="fill: #808080; fill-opacity: 0.3"/>
    <path d="M 398.597812 181.44121 
L 398.597812 175.134077 
L 401.123651 178.458861 
L 403.649491 181.630473 
L 406.17533 184.640221 
L 408.701169 187.479855 
L 411.227009 190.141592 
L 413.752848 192.618135 
L 416.278687 194.902698 
L 418.804527 196.989017 
L 418.804527 197.122824 
L 418.804527 197.122824 
L 416.278687 197.122824 
L 413.752848 197.122824 
L 411.227009 197.122824 
L 408.701169 197.122824 
L 406.17533 197.122824 
L 403.649491 197.122824 
L 401.123651 189.282017 
L 398.597812 181.44121 
z
" clip-path="url(#p51103f953e)" style="fill: #808080; fill-opacity: 0.3"/>
    <path d="M 464.269634 197.122824 
L 464.269634 196.989017 
L 466.795473 194.902698 
L 469.321313 192.618135 
L 471.847152 190.141592 
L 474.372991 187.479855 
L 476.898831 184.640221 
L 479.42467 181.630473 
L 481.950509 178.458861 
L 484.476349 175.134077 
L 487.002188 171.665234 
L 489.528027 168.061841 
L 492.053866 164.333774 
L 494.579706 160.491251 
L 497.105545 156.544805 
L 499.631384 152.505253 
L 502.157224 148.383666 
L 504.683063 144.191341 
L 507.208902 139.93977 
L 509.734742 135.640606 
L 512.260581 131.305632 
L 514.78642 126.94673 
L 517.31226 122.575848 
L 519.838099 118.204966 
L 522.363938 113.846064 
L 524.889777 109.51109 
L 527.415617 105.211926 
L 529.941456 100.960355 
L 532.467295 96.76803 
L 534.993135 92.646443 
L 537.518974 88.606891 
L 540.044813 84.660445 
L 542.570653 80.817922 
L 545.096492 77.089855 
L 547.622331 75.371236 
L 550.148171 75.371236 
L 552.67401 75.371236 
L 555.199849 75.371236 
L 557.725688 75.371236 
L 560.251528 75.371236 
L 562.777367 75.371236 
L 565.303206 75.371236 
L 567.829046 75.371236 
L 570.354885 75.371236 
L 572.880724 75.371236 
L 575.406564 75.371236 
L 577.932403 75.371236 
L 580.458242 75.371236 
L 582.984081 75.371236 
L 585.509921 75.371236 
L 588.03576 75.371236 
L 590.561599 75.371236 
L 593.087439 75.371236 
L 595.613278 75.371236 
L 598.139117 75.371236 
L 600.664957 75.371236 
L 603.190796 75.371236 
L 605.716635 75.371236 
L 608.242475 75.371236 
L 610.768314 75.371236 
L 613.294153 75.371236 
L 615.819992 75.371236 
L 618.345832 75.371236 
L 620.871671 75.371236 
L 623.39751 75.371236 
L 625.92335 75.371236 
L 628.449189 75.371236 
L 630.975028 75.371236 
L 633.500868 75.371236 
L 636.026707 75.371236 
L 638.552546 75.371236 
L 641.078386 77.089855 
L 643.604225 80.817922 
L 646.130064 84.660445 
L 648.655903 88.606891 
L 648.655903 91.50553 
L 648.655903 91.50553 
L 646.130064 91.50553 
L 643.604225 91.50553 
L 641.078386 92.305184 
L 638.552546 93.104839 
L 636.026707 93.904493 
L 633.500868 93.904493 
L 630.975028 93.104839 
L 628.449189 92.305184 
L 625.92335 91.50553 
L 623.39751 92.305184 
L 620.871671 93.104839 
L 618.345832 93.104839 
L 615.819992 92.305184 
L 613.294153 91.50553 
L 610.768314 92.305184 
L 608.242475 97.902764 
L 605.716635 101.901035 
L 603.190796 105.099652 
L 600.664957 103.500343 
L 598.139117 105.099652 
L 595.613278 105.099652 
L 593.087439 105.099652 
L 590.561599 102.35798 
L 588.03576 99.159363 
L 585.509921 95.960746 
L 582.984081 93.904493 
L 580.458242 93.904493 
L 577.932403 93.904493 
L 575.406564 93.904493 
L 572.880724 101.101381 
L 570.354885 110.697231 
L 567.829046 121.89239 
L 565.303206 125.890661 
L 562.777367 130.688586 
L 560.251528 135.258038 
L 557.725688 143.25458 
L 555.199849 148.052506 
L 552.67401 151.479595 
L 550.148171 151.479595 
L 547.622331 151.479595 
L 545.096492 151.479595 
L 542.570653 151.479595 
L 540.044813 151.479595 
L 537.518974 151.479595 
L 534.993135 151.479595 
L 532.467295 151.479595 
L 529.941456 151.479595 
L 527.415617 151.479595 
L 524.889777 151.479595 
L 522.363938 151.479595 
L 519.838099 151.479595 
L 517.31226 151.479595 
L 514.78642 154.284206 
L 512.260581 160.173889 
L 509.734742 166.063572 
L 507.208902 170.621065 
L 504.683063 172.093486 
L 502.157224 173.565907 
L 499.631384 174.383918 
L 497.105545 176.837953 
L 494.579706 179.291988 
L 492.053866 182.127627 
L 489.528027 185.366589 
L 487.002188 188.605552 
L 484.476349 191.724553 
L 481.950509 192.804207 
L 479.42467 193.883861 
L 476.898831 193.883861 
L 474.372991 194.963515 
L 471.847152 196.04317 
L 469.321313 197.122824 
L 466.795473 197.122824 
L 464.269634 197.122824 
z
" clip-path="url(#p51103f953e)" style="fill: #808080; fill-opacity: 0.3"/>
    <path d="M 658.759261 108.498182 
L 658.759261 105.211926 
L 661.2851 109.51109 
L 663.810939 113.846064 
L 666.336779 118.204966 
L 668.862618 122.575848 
L 671.388457 126.94673 
L 673.914296 131.305632 
L 676.440136 135.640606 
L 678.965975 139.93977 
L 681.491814 144.191341 
L 684.017654 148.383666 
L 684.017654 151.479595 
L 684.017654 151.479595 
L 681.491814 151.479595 
L 678.965975 151.479595 
L 676.440136 151.479595 
L 673.914296 151.479595 
L 671.388457 147.481324 
L 668.862618 142.683399 
L 666.336779 137.885474 
L 663.810939 132.887635 
L 661.2851 121.692476 
L 658.759261 108.498182 
z
" clip-path="url(#p51103f953e)" style="fill: #808080; fill-opacity: 0.3"/>
    <path d="M 729.482761 202.257694 
L 729.482761 202.004143 
L 732.008601 203.245966 
L 734.53444 204.266678 
L 737.060279 205.063481 
L 739.586118 205.634191 
L 742.111958 205.977244 
L 744.637797 206.0917 
L 747.163636 205.977244 
L 747.163636 215.46 
L 747.163636 215.46 
L 744.637797 215.46 
L 742.111958 215.46 
L 739.586118 215.46 
L 737.060279 215.46 
L 734.53444 215.46 
L 732.008601 209.366628 
L 729.482761 202.257694 
z
" clip-path="url(#p51103f953e)" style="fill: #808080; fill-opacity: 0.3"/>
   </g>
   <g id="matplotlib.axis_1">
    <g id="xtick_1">
     <g id="line2d_1">
      <defs>
       <path id="mbce00201a9" d="M 0 0 
L 0 3.5 
" style="stroke: #000000; stroke-width: 0.8"/>
      </defs>
      <g>
       <use xlink:href="#mbce00201a9" x="138.436364" y="224.28" style="stroke: #000000; stroke-width: 0.8"/>
      </g>
     </g>
     <g id="text_1">
      <!-- 0 -->
      <g transform="translate(134.436364 242.39) scale(0.16 -0.16)">
       <defs>
        <path id="TimesNewRomanPSMT-30" d="M 231 2094 
Q 231 2819 450 3342 
Q 669 3866 1031 4122 
Q 1313 4325 1613 4325 
Q 2100 4325 2488 3828 
Q 2972 3213 2972 2159 
Q 2972 1422 2759 906 
Q 2547 391 2217 158 
Q 1888 -75 1581 -75 
Q 975 -75 572 641 
Q 231 1244 231 2094 
z
M 844 2016 
Q 844 1141 1059 588 
Q 1238 122 1591 122 
Q 1759 122 1940 273 
Q 2122 425 2216 781 
Q 2359 1319 2359 2297 
Q 2359 3022 2209 3506 
Q 2097 3866 1919 4016 
Q 1791 4119 1609 4119 
Q 1397 4119 1231 3928 
Q 1006 3669 925 3112 
Q 844 2556 844 2016 
z
" transform="scale(0.015625)"/>
       </defs>
       <use xlink:href="#TimesNewRomanPSMT-30"/>
      </g>
     </g>
    </g>
    <g id="xtick_2">
     <g id="line2d_2">
      <g>
       <use xlink:href="#mbce00201a9" x="264.728329" y="224.28" style="stroke: #000000; stroke-width: 0.8"/>
      </g>
     </g>
     <g id="text_2">
      <!-- 50 -->
      <g transform="translate(256.728329 242.39) scale(0.16 -0.16)">
       <defs>
        <path id="TimesNewRomanPSMT-35" d="M 2778 4238 
L 2534 3706 
L 1259 3706 
L 981 3138 
Q 1809 3016 2294 2522 
Q 2709 2097 2709 1522 
Q 2709 1188 2573 903 
Q 2438 619 2231 419 
Q 2025 219 1772 97 
Q 1413 -75 1034 -75 
Q 653 -75 479 54 
Q 306 184 306 341 
Q 306 428 378 495 
Q 450 563 559 563 
Q 641 563 702 538 
Q 763 513 909 409 
Q 1144 247 1384 247 
Q 1750 247 2026 523 
Q 2303 800 2303 1197 
Q 2303 1581 2056 1914 
Q 1809 2247 1375 2428 
Q 1034 2569 447 2591 
L 1259 4238 
L 2778 4238 
z
" transform="scale(0.015625)"/>
       </defs>
       <use xlink:href="#TimesNewRomanPSMT-35"/>
       <use xlink:href="#TimesNewRomanPSMT-30" x="50"/>
      </g>
     </g>
    </g>
    <g id="xtick_3">
     <g id="line2d_3">
      <g>
       <use xlink:href="#mbce00201a9" x="391.020294" y="224.28" style="stroke: #000000; stroke-width: 0.8"/>
      </g>
     </g>
     <g id="text_3">
      <!-- 100 -->
      <g transform="translate(379.020294 242.39) scale(0.16 -0.16)">
       <defs>
        <path id="TimesNewRomanPSMT-31" d="M 750 3822 
L 1781 4325 
L 1884 4325 
L 1884 747 
Q 1884 391 1914 303 
Q 1944 216 2037 169 
Q 2131 122 2419 116 
L 2419 0 
L 825 0 
L 825 116 
Q 1125 122 1212 167 
Q 1300 213 1334 289 
Q 1369 366 1369 747 
L 1369 3034 
Q 1369 3497 1338 3628 
Q 1316 3728 1258 3775 
Q 1200 3822 1119 3822 
Q 1003 3822 797 3725 
L 750 3822 
z
" transform="scale(0.015625)"/>
       </defs>
       <use xlink:href="#TimesNewRomanPSMT-31"/>
       <use xlink:href="#TimesNewRomanPSMT-30" x="50"/>
       <use xlink:href="#TimesNewRomanPSMT-30" x="100"/>
      </g>
     </g>
    </g>
    <g id="xtick_4">
     <g id="line2d_4">
      <g>
       <use xlink:href="#mbce00201a9" x="517.31226" y="224.28" style="stroke: #000000; stroke-width: 0.8"/>
      </g>
     </g>
     <g id="text_4">
      <!-- 150 -->
      <g transform="translate(505.31226 242.39) scale(0.16 -0.16)">
       <use xlink:href="#TimesNewRomanPSMT-31"/>
       <use xlink:href="#TimesNewRomanPSMT-35" x="50"/>
       <use xlink:href="#TimesNewRomanPSMT-30" x="100"/>
      </g>
     </g>
    </g>
    <g id="xtick_5">
     <g id="line2d_5">
      <g>
       <use xlink:href="#mbce00201a9" x="643.604225" y="224.28" style="stroke: #000000; stroke-width: 0.8"/>
      </g>
     </g>
     <g id="text_5">
      <!-- 200 -->
      <g transform="translate(631.604225 242.39) scale(0.16 -0.16)">
       <defs>
        <path id="TimesNewRomanPSMT-32" d="M 2934 816 
L 2638 0 
L 138 0 
L 138 116 
Q 1241 1122 1691 1759 
Q 2141 2397 2141 2925 
Q 2141 3328 1894 3587 
Q 1647 3847 1303 3847 
Q 991 3847 742 3664 
Q 494 3481 375 3128 
L 259 3128 
Q 338 3706 661 4015 
Q 984 4325 1469 4325 
Q 1984 4325 2329 3994 
Q 2675 3663 2675 3213 
Q 2675 2891 2525 2569 
Q 2294 2063 1775 1497 
Q 997 647 803 472 
L 1909 472 
Q 2247 472 2383 497 
Q 2519 522 2628 598 
Q 2738 675 2819 816 
L 2934 816 
z
" transform="scale(0.015625)"/>
       </defs>
       <use xlink:href="#TimesNewRomanPSMT-32"/>
       <use xlink:href="#TimesNewRomanPSMT-30" x="50"/>
       <use xlink:href="#TimesNewRomanPSMT-30" x="100"/>
      </g>
     </g>
    </g>
    <g id="xtick_6">
     <g id="line2d_6">
      <g>
       <use xlink:href="#mbce00201a9" x="769.89619" y="224.28" style="stroke: #000000; stroke-width: 0.8"/>
      </g>
     </g>
     <g id="text_6">
      <!-- 250 -->
      <g transform="translate(757.89619 242.39) scale(0.16 -0.16)">
       <use xlink:href="#TimesNewRomanPSMT-32"/>
       <use xlink:href="#TimesNewRomanPSMT-35" x="50"/>
       <use xlink:href="#TimesNewRomanPSMT-30" x="100"/>
      </g>
     </g>
    </g>
    <g id="text_7">
     <!-- Time (s) -->
     <g transform="translate(408.995313 263.7) scale(0.2 -0.2)">
      <defs>
       <path id="TimesNewRomanPSMT-54" d="M 3703 4238 
L 3750 3244 
L 3631 3244 
Q 3597 3506 3538 3619 
Q 3441 3800 3280 3886 
Q 3119 3972 2856 3972 
L 2259 3972 
L 2259 734 
Q 2259 344 2344 247 
Q 2463 116 2709 116 
L 2856 116 
L 2856 0 
L 1059 0 
L 1059 116 
L 1209 116 
Q 1478 116 1591 278 
Q 1659 378 1659 734 
L 1659 3972 
L 1150 3972 
Q 853 3972 728 3928 
Q 566 3869 450 3700 
Q 334 3531 313 3244 
L 194 3244 
L 244 4238 
L 3703 4238 
z
" transform="scale(0.015625)"/>
       <path id="TimesNewRomanPSMT-69" d="M 928 4444 
Q 1059 4444 1151 4351 
Q 1244 4259 1244 4128 
Q 1244 3997 1151 3903 
Q 1059 3809 928 3809 
Q 797 3809 703 3903 
Q 609 3997 609 4128 
Q 609 4259 701 4351 
Q 794 4444 928 4444 
z
M 1188 2947 
L 1188 647 
Q 1188 378 1227 289 
Q 1266 200 1342 156 
Q 1419 113 1622 113 
L 1622 0 
L 231 0 
L 231 113 
Q 441 113 512 153 
Q 584 194 626 287 
Q 669 381 669 647 
L 669 1750 
Q 669 2216 641 2353 
Q 619 2453 572 2492 
Q 525 2531 444 2531 
Q 356 2531 231 2484 
L 188 2597 
L 1050 2947 
L 1188 2947 
z
" transform="scale(0.015625)"/>
       <path id="TimesNewRomanPSMT-6d" d="M 1050 2338 
Q 1363 2650 1419 2697 
Q 1559 2816 1721 2881 
Q 1884 2947 2044 2947 
Q 2313 2947 2506 2790 
Q 2700 2634 2766 2338 
Q 3088 2713 3309 2830 
Q 3531 2947 3766 2947 
Q 3994 2947 4170 2830 
Q 4347 2713 4450 2447 
Q 4519 2266 4519 1878 
L 4519 647 
Q 4519 378 4559 278 
Q 4591 209 4675 161 
Q 4759 113 4950 113 
L 4950 0 
L 3538 0 
L 3538 113 
L 3597 113 
Q 3781 113 3884 184 
Q 3956 234 3988 344 
Q 4000 397 4000 647 
L 4000 1878 
Q 4000 2228 3916 2372 
Q 3794 2572 3525 2572 
Q 3359 2572 3192 2489 
Q 3025 2406 2788 2181 
L 2781 2147 
L 2788 2013 
L 2788 647 
Q 2788 353 2820 281 
Q 2853 209 2943 161 
Q 3034 113 3253 113 
L 3253 0 
L 1806 0 
L 1806 113 
Q 2044 113 2133 169 
Q 2222 225 2256 338 
Q 2272 391 2272 647 
L 2272 1878 
Q 2272 2228 2169 2381 
Q 2031 2581 1784 2581 
Q 1616 2581 1450 2491 
Q 1191 2353 1050 2181 
L 1050 647 
Q 1050 366 1089 281 
Q 1128 197 1204 155 
Q 1281 113 1516 113 
L 1516 0 
L 100 0 
L 100 113 
Q 297 113 375 155 
Q 453 197 493 289 
Q 534 381 534 647 
L 534 1741 
Q 534 2213 506 2350 
Q 484 2453 437 2492 
Q 391 2531 309 2531 
Q 222 2531 100 2484 
L 53 2597 
L 916 2947 
L 1050 2947 
L 1050 2338 
z
" transform="scale(0.015625)"/>
       <path id="TimesNewRomanPSMT-65" d="M 681 1784 
Q 678 1147 991 784 
Q 1303 422 1725 422 
Q 2006 422 2214 576 
Q 2422 731 2563 1106 
L 2659 1044 
Q 2594 616 2278 264 
Q 1963 -88 1488 -88 
Q 972 -88 605 314 
Q 238 716 238 1394 
Q 238 2128 614 2539 
Q 991 2950 1559 2950 
Q 2041 2950 2350 2633 
Q 2659 2316 2659 1784 
L 681 1784 
z
M 681 1966 
L 2006 1966 
Q 1991 2241 1941 2353 
Q 1863 2528 1708 2628 
Q 1553 2728 1384 2728 
Q 1125 2728 920 2526 
Q 716 2325 681 1966 
z
" transform="scale(0.015625)"/>
       <path id="TimesNewRomanPSMT-20" transform="scale(0.015625)"/>
       <path id="TimesNewRomanPSMT-28" d="M 1988 -1253 
L 1988 -1369 
Q 1516 -1131 1200 -813 
Q 750 -359 506 256 
Q 263 872 263 1534 
Q 263 2503 741 3301 
Q 1219 4100 1988 4444 
L 1988 4313 
Q 1603 4100 1356 3731 
Q 1109 3363 987 2797 
Q 866 2231 866 1616 
Q 866 947 969 400 
Q 1050 -31 1165 -292 
Q 1281 -553 1476 -793 
Q 1672 -1034 1988 -1253 
z
" transform="scale(0.015625)"/>
       <path id="TimesNewRomanPSMT-73" d="M 2050 2947 
L 2050 1972 
L 1947 1972 
Q 1828 2431 1642 2597 
Q 1456 2763 1169 2763 
Q 950 2763 815 2647 
Q 681 2531 681 2391 
Q 681 2216 781 2091 
Q 878 1963 1175 1819 
L 1631 1597 
Q 2266 1288 2266 781 
Q 2266 391 1970 151 
Q 1675 -88 1309 -88 
Q 1047 -88 709 6 
Q 606 38 541 38 
Q 469 38 428 -44 
L 325 -44 
L 325 978 
L 428 978 
Q 516 541 762 319 
Q 1009 97 1316 97 
Q 1531 97 1667 223 
Q 1803 350 1803 528 
Q 1803 744 1651 891 
Q 1500 1038 1047 1263 
Q 594 1488 453 1669 
Q 313 1847 313 2119 
Q 313 2472 555 2709 
Q 797 2947 1181 2947 
Q 1350 2947 1591 2875 
Q 1750 2828 1803 2828 
Q 1853 2828 1881 2850 
Q 1909 2872 1947 2947 
L 2050 2947 
z
" transform="scale(0.015625)"/>
       <path id="TimesNewRomanPSMT-29" d="M 144 4313 
L 144 4444 
Q 619 4209 934 3891 
Q 1381 3434 1625 2820 
Q 1869 2206 1869 1541 
Q 1869 572 1392 -226 
Q 916 -1025 144 -1369 
L 144 -1253 
Q 528 -1038 776 -670 
Q 1025 -303 1145 264 
Q 1266 831 1266 1447 
Q 1266 2113 1163 2663 
Q 1084 3094 967 3353 
Q 850 3613 656 3853 
Q 463 4094 144 4313 
z
" transform="scale(0.015625)"/>
      </defs>
      <use xlink:href="#TimesNewRomanPSMT-54"/>
      <use xlink:href="#TimesNewRomanPSMT-69" x="57.583984"/>
      <use xlink:href="#TimesNewRomanPSMT-6d" x="85.367188"/>
      <use xlink:href="#TimesNewRomanPSMT-65" x="163.150391"/>
      <use xlink:href="#TimesNewRomanPSMT-20" x="207.535156"/>
      <use xlink:href="#TimesNewRomanPSMT-28" x="232.535156"/>
      <use xlink:href="#TimesNewRomanPSMT-73" x="265.835938"/>
      <use xlink:href="#TimesNewRomanPSMT-29" x="304.751953"/>
     </g>
    </g>
   </g>
   <g id="matplotlib.axis_2">
    <g id="ytick_1">
     <g id="line2d_7">
      <defs>
       <path id="m1ab7264971" d="M 0 0 
L -3.5 0 
" style="stroke: #000000; stroke-width: 0.8"/>
      </defs>
      <g>
       <use xlink:href="#m1ab7264971" x="108" y="220.616196" style="stroke: #000000; stroke-width: 0.8"/>
      </g>
     </g>
     <g id="text_8">
      <!-- 0 -->
      <g transform="translate(93 226.171196) scale(0.16 -0.16)">
       <use xlink:href="#TimesNewRomanPSMT-30"/>
      </g>
     </g>
    </g>
    <g id="ytick_2">
     <g id="line2d_8">
      <g>
       <use xlink:href="#m1ab7264971" x="108" y="184.304956" style="stroke: #000000; stroke-width: 0.8"/>
      </g>
     </g>
     <g id="text_9">
      <!-- 1000 -->
      <g transform="translate(69 189.859956) scale(0.16 -0.16)">
       <use xlink:href="#TimesNewRomanPSMT-31"/>
       <use xlink:href="#TimesNewRomanPSMT-30" x="50"/>
       <use xlink:href="#TimesNewRomanPSMT-30" x="100"/>
       <use xlink:href="#TimesNewRomanPSMT-30" x="150"/>
      </g>
     </g>
    </g>
    <g id="ytick_3">
     <g id="line2d_9">
      <g>
       <use xlink:href="#m1ab7264971" x="108" y="147.993716" style="stroke: #000000; stroke-width: 0.8"/>
      </g>
     </g>
     <g id="text_10">
      <!-- 2000 -->
      <g transform="translate(69 153.548716) scale(0.16 -0.16)">
       <use xlink:href="#TimesNewRomanPSMT-32"/>
       <use xlink:href="#TimesNewRomanPSMT-30" x="50"/>
       <use xlink:href="#TimesNewRomanPSMT-30" x="100"/>
       <use xlink:href="#TimesNewRomanPSMT-30" x="150"/>
      </g>
     </g>
    </g>
    <g id="ytick_4">
     <g id="line2d_10">
      <g>
       <use xlink:href="#m1ab7264971" x="108" y="111.682476" style="stroke: #000000; stroke-width: 0.8"/>
      </g>
     </g>
     <g id="text_11">
      <!-- 3000 -->
      <g transform="translate(69 117.237476) scale(0.16 -0.16)">
       <defs>
        <path id="TimesNewRomanPSMT-33" d="M 325 3431 
Q 506 3859 782 4092 
Q 1059 4325 1472 4325 
Q 1981 4325 2253 3994 
Q 2459 3747 2459 3466 
Q 2459 3003 1878 2509 
Q 2269 2356 2469 2072 
Q 2669 1788 2669 1403 
Q 2669 853 2319 450 
Q 1863 -75 997 -75 
Q 569 -75 414 31 
Q 259 138 259 259 
Q 259 350 332 419 
Q 406 488 509 488 
Q 588 488 669 463 
Q 722 447 909 348 
Q 1097 250 1169 231 
Q 1284 197 1416 197 
Q 1734 197 1970 444 
Q 2206 691 2206 1028 
Q 2206 1275 2097 1509 
Q 2016 1684 1919 1775 
Q 1784 1900 1550 2001 
Q 1316 2103 1072 2103 
L 972 2103 
L 972 2197 
Q 1219 2228 1467 2375 
Q 1716 2522 1828 2728 
Q 1941 2934 1941 3181 
Q 1941 3503 1739 3701 
Q 1538 3900 1238 3900 
Q 753 3900 428 3381 
L 325 3431 
z
" transform="scale(0.015625)"/>
       </defs>
       <use xlink:href="#TimesNewRomanPSMT-33"/>
       <use xlink:href="#TimesNewRomanPSMT-30" x="50"/>
       <use xlink:href="#TimesNewRomanPSMT-30" x="100"/>
       <use xlink:href="#TimesNewRomanPSMT-30" x="150"/>
      </g>
     </g>
    </g>
    <g id="ytick_5">
     <g id="line2d_11">
      <g>
       <use xlink:href="#m1ab7264971" x="108" y="75.371236" style="stroke: #000000; stroke-width: 0.8"/>
      </g>
     </g>
     <g id="text_12">
      <!-- 4000 -->
      <g transform="translate(69 80.926236) scale(0.16 -0.16)">
       <defs>
        <path id="TimesNewRomanPSMT-34" d="M 2978 1563 
L 2978 1119 
L 2409 1119 
L 2409 0 
L 1894 0 
L 1894 1119 
L 100 1119 
L 100 1519 
L 2066 4325 
L 2409 4325 
L 2409 1563 
L 2978 1563 
z
M 1894 1563 
L 1894 3666 
L 406 1563 
L 1894 1563 
z
" transform="scale(0.015625)"/>
       </defs>
       <use xlink:href="#TimesNewRomanPSMT-34"/>
       <use xlink:href="#TimesNewRomanPSMT-30" x="50"/>
       <use xlink:href="#TimesNewRomanPSMT-30" x="100"/>
       <use xlink:href="#TimesNewRomanPSMT-30" x="150"/>
      </g>
     </g>
    </g>
    <g id="ytick_6">
     <g id="line2d_12">
      <g>
       <use xlink:href="#m1ab7264971" x="108" y="39.059996" style="stroke: #000000; stroke-width: 0.8"/>
      </g>
     </g>
     <g id="text_13">
      <!-- 5000 -->
      <g transform="translate(69 44.614996) scale(0.16 -0.16)">
       <use xlink:href="#TimesNewRomanPSMT-35"/>
       <use xlink:href="#TimesNewRomanPSMT-30" x="50"/>
       <use xlink:href="#TimesNewRomanPSMT-30" x="100"/>
       <use xlink:href="#TimesNewRomanPSMT-30" x="150"/>
      </g>
     </g>
    </g>
    <g id="text_14">
     <!-- Bitrate (kbps) -->
     <g transform="translate(60.721875 182.524063) rotate(-90) scale(0.2 -0.2)">
      <defs>
       <path id="TimesNewRomanPSMT-42" d="M 2956 2163 
Q 3397 2069 3616 1863 
Q 3919 1575 3919 1159 
Q 3919 844 3719 555 
Q 3519 266 3170 133 
Q 2822 0 2106 0 
L 106 0 
L 106 116 
L 266 116 
Q 531 116 647 284 
Q 719 394 719 750 
L 719 3488 
Q 719 3881 628 3984 
Q 506 4122 266 4122 
L 106 4122 
L 106 4238 
L 1938 4238 
Q 2450 4238 2759 4163 
Q 3228 4050 3475 3764 
Q 3722 3478 3722 3106 
Q 3722 2788 3528 2536 
Q 3334 2284 2956 2163 
z
M 1319 2331 
Q 1434 2309 1582 2298 
Q 1731 2288 1909 2288 
Q 2366 2288 2595 2386 
Q 2825 2484 2947 2687 
Q 3069 2891 3069 3131 
Q 3069 3503 2766 3765 
Q 2463 4028 1881 4028 
Q 1569 4028 1319 3959 
L 1319 2331 
z
M 1319 306 
Q 1681 222 2034 222 
Q 2600 222 2897 476 
Q 3194 731 3194 1106 
Q 3194 1353 3059 1581 
Q 2925 1809 2622 1940 
Q 2319 2072 1872 2072 
Q 1678 2072 1540 2065 
Q 1403 2059 1319 2044 
L 1319 306 
z
" transform="scale(0.015625)"/>
       <path id="TimesNewRomanPSMT-74" d="M 1031 3803 
L 1031 2863 
L 1700 2863 
L 1700 2644 
L 1031 2644 
L 1031 788 
Q 1031 509 1111 412 
Q 1191 316 1316 316 
Q 1419 316 1516 380 
Q 1613 444 1666 569 
L 1788 569 
Q 1678 263 1478 108 
Q 1278 -47 1066 -47 
Q 922 -47 784 33 
Q 647 113 581 261 
Q 516 409 516 719 
L 516 2644 
L 63 2644 
L 63 2747 
Q 234 2816 414 2980 
Q 594 3144 734 3369 
Q 806 3488 934 3803 
L 1031 3803 
z
" transform="scale(0.015625)"/>
       <path id="TimesNewRomanPSMT-72" d="M 1038 2947 
L 1038 2303 
Q 1397 2947 1775 2947 
Q 1947 2947 2059 2842 
Q 2172 2738 2172 2600 
Q 2172 2478 2090 2393 
Q 2009 2309 1897 2309 
Q 1788 2309 1652 2417 
Q 1516 2525 1450 2525 
Q 1394 2525 1328 2463 
Q 1188 2334 1038 2041 
L 1038 669 
Q 1038 431 1097 309 
Q 1138 225 1241 169 
Q 1344 113 1538 113 
L 1538 0 
L 72 0 
L 72 113 
Q 291 113 397 181 
Q 475 231 506 341 
Q 522 394 522 644 
L 522 1753 
Q 522 2253 501 2348 
Q 481 2444 426 2487 
Q 372 2531 291 2531 
Q 194 2531 72 2484 
L 41 2597 
L 906 2947 
L 1038 2947 
z
" transform="scale(0.015625)"/>
       <path id="TimesNewRomanPSMT-61" d="M 1822 413 
Q 1381 72 1269 19 
Q 1100 -59 909 -59 
Q 613 -59 420 144 
Q 228 347 228 678 
Q 228 888 322 1041 
Q 450 1253 767 1440 
Q 1084 1628 1822 1897 
L 1822 2009 
Q 1822 2438 1686 2597 
Q 1550 2756 1291 2756 
Q 1094 2756 978 2650 
Q 859 2544 859 2406 
L 866 2225 
Q 866 2081 792 2003 
Q 719 1925 600 1925 
Q 484 1925 411 2006 
Q 338 2088 338 2228 
Q 338 2497 613 2722 
Q 888 2947 1384 2947 
Q 1766 2947 2009 2819 
Q 2194 2722 2281 2516 
Q 2338 2381 2338 1966 
L 2338 994 
Q 2338 584 2353 492 
Q 2369 400 2405 369 
Q 2441 338 2488 338 
Q 2538 338 2575 359 
Q 2641 400 2828 588 
L 2828 413 
Q 2478 -56 2159 -56 
Q 2006 -56 1915 50 
Q 1825 156 1822 413 
z
M 1822 616 
L 1822 1706 
Q 1350 1519 1213 1441 
Q 966 1303 859 1153 
Q 753 1003 753 825 
Q 753 600 887 451 
Q 1022 303 1197 303 
Q 1434 303 1822 616 
z
" transform="scale(0.015625)"/>
       <path id="TimesNewRomanPSMT-6b" d="M 1047 4444 
L 1047 1597 
L 1775 2259 
Q 2006 2472 2044 2528 
Q 2069 2566 2069 2603 
Q 2069 2666 2017 2711 
Q 1966 2756 1847 2763 
L 1847 2863 
L 3091 2863 
L 3091 2763 
Q 2834 2756 2664 2684 
Q 2494 2613 2291 2428 
L 1556 1750 
L 2291 822 
Q 2597 438 2703 334 
Q 2853 188 2966 144 
Q 3044 113 3238 113 
L 3238 0 
L 1847 0 
L 1847 113 
Q 1966 116 2008 148 
Q 2050 181 2050 241 
Q 2050 313 1925 472 
L 1047 1594 
L 1047 644 
Q 1047 366 1086 278 
Q 1125 191 1197 153 
Q 1269 116 1509 113 
L 1509 0 
L 53 0 
L 53 113 
Q 272 113 381 166 
Q 447 200 481 272 
Q 528 375 528 628 
L 528 3234 
Q 528 3731 506 3842 
Q 484 3953 434 3995 
Q 384 4038 303 4038 
Q 238 4038 106 3984 
L 53 4094 
L 903 4444 
L 1047 4444 
z
" transform="scale(0.015625)"/>
       <path id="TimesNewRomanPSMT-62" d="M 984 2369 
Q 1400 2947 1881 2947 
Q 2322 2947 2650 2570 
Q 2978 2194 2978 1541 
Q 2978 778 2472 313 
Q 2038 -88 1503 -88 
Q 1253 -88 995 3 
Q 738 94 469 275 
L 469 3241 
Q 469 3728 445 3840 
Q 422 3953 372 3993 
Q 322 4034 247 4034 
Q 159 4034 28 3984 
L -16 4094 
L 844 4444 
L 984 4444 
L 984 2369 
z
M 984 2169 
L 984 456 
Q 1144 300 1314 220 
Q 1484 141 1663 141 
Q 1947 141 2192 453 
Q 2438 766 2438 1363 
Q 2438 1913 2192 2208 
Q 1947 2503 1634 2503 
Q 1469 2503 1303 2419 
Q 1178 2356 984 2169 
z
" transform="scale(0.015625)"/>
       <path id="TimesNewRomanPSMT-70" d="M -6 2578 
L 875 2934 
L 994 2934 
L 994 2266 
Q 1216 2644 1439 2795 
Q 1663 2947 1909 2947 
Q 2341 2947 2628 2609 
Q 2981 2197 2981 1534 
Q 2981 794 2556 309 
Q 2206 -88 1675 -88 
Q 1444 -88 1275 -22 
Q 1150 25 994 166 
L 994 -706 
Q 994 -1000 1030 -1079 
Q 1066 -1159 1155 -1206 
Q 1244 -1253 1478 -1253 
L 1478 -1369 
L -22 -1369 
L -22 -1253 
L 56 -1253 
Q 228 -1256 350 -1188 
Q 409 -1153 442 -1076 
Q 475 -1000 475 -688 
L 475 2019 
Q 475 2297 450 2372 
Q 425 2447 370 2484 
Q 316 2522 222 2522 
Q 147 2522 31 2478 
L -6 2578 
z
M 994 2081 
L 994 1013 
Q 994 666 1022 556 
Q 1066 375 1236 237 
Q 1406 100 1666 100 
Q 1978 100 2172 344 
Q 2425 663 2425 1241 
Q 2425 1897 2138 2250 
Q 1938 2494 1663 2494 
Q 1513 2494 1366 2419 
Q 1253 2363 994 2081 
z
" transform="scale(0.015625)"/>
      </defs>
      <use xlink:href="#TimesNewRomanPSMT-42"/>
      <use xlink:href="#TimesNewRomanPSMT-69" x="66.699219"/>
      <use xlink:href="#TimesNewRomanPSMT-74" x="94.482422"/>
      <use xlink:href="#TimesNewRomanPSMT-72" x="122.265625"/>
      <use xlink:href="#TimesNewRomanPSMT-61" x="155.566406"/>
      <use xlink:href="#TimesNewRomanPSMT-74" x="199.951172"/>
      <use xlink:href="#TimesNewRomanPSMT-65" x="227.734375"/>
      <use xlink:href="#TimesNewRomanPSMT-20" x="272.119141"/>
      <use xlink:href="#TimesNewRomanPSMT-28" x="297.119141"/>
      <use xlink:href="#TimesNewRomanPSMT-6b" x="330.419922"/>
      <use xlink:href="#TimesNewRomanPSMT-62" x="380.419922"/>
      <use xlink:href="#TimesNewRomanPSMT-70" x="430.419922"/>
      <use xlink:href="#TimesNewRomanPSMT-73" x="480.419922"/>
      <use xlink:href="#TimesNewRomanPSMT-29" x="519.335938"/>
     </g>
    </g>
   </g>
   <g id="line2d_13">
    <path d="M 138.436364 206.0917 
L 140.922038 205.980855 
L 143.407713 205.648613 
L 145.954013 205.079632 
L 148.500314 204.280836 
L 151.107241 203.22726 
L 153.774794 201.905456 
L 156.502973 200.302803 
L 159.291778 198.407698 
L 162.201836 196.160173 
L 165.233147 193.534473 
L 168.385709 190.506777 
L 171.720151 186.989097 
L 175.236471 182.946635 
L 178.934669 178.349574 
L 182.875373 173.091192 
L 187.119207 167.052594 
L 191.787425 160.014698 
L 197.061905 151.644833 
L 203.245778 141.397341 
L 211.794073 126.759361 
L 226.889998 100.877992 
L 233.195124 90.552089 
L 238.469603 82.326604 
L 243.137821 75.444556 
L 247.442282 69.488168 
L 251.382985 64.404394 
L 255.081184 59.985764 
L 258.597504 56.125066 
L 261.931945 52.78976 
L 265.084508 49.942654 
L 268.115818 47.49735 
L 271.025876 45.428563 
L 273.875308 43.674779 
L 276.603487 42.253442 
L 279.27104 41.111998 
L 281.877967 40.237088 
L 284.424268 39.614591 
L 286.970568 39.223185 
L 289.456243 39.065045 
L 291.941917 39.128583 
L 294.427592 39.41363 
L 296.913266 39.919428 
L 299.459567 40.66505 
L 302.066494 41.664779 
L 304.734047 42.932271 
L 307.462226 44.480372 
L 310.251031 46.320931 
L 313.161089 48.513049 
L 316.1924 51.082887 
L 319.344962 54.054728 
L 322.618777 57.450317 
L 326.074471 61.359496 
L 329.712043 65.813248 
L 333.592121 70.91884 
L 337.775329 76.796467 
L 342.322294 83.573883 
L 347.414896 91.572685 
L 353.356264 101.334436 
L 361.116418 114.545743 
L 379.971168 146.821574 
L 385.973163 156.551997 
L 391.12639 164.492744 
L 395.733982 171.190637 
L 399.91719 176.889343 
L 403.797267 181.811101 
L 407.434839 186.077966 
L 410.890533 189.797551 
L 414.164348 193.00359 
L 417.316911 195.784595 
L 420.348221 198.164018 
L 423.258279 200.167663 
L 426.047085 201.82303 
L 428.775264 203.186237 
L 431.442817 204.26995 
L 434.049744 205.087761 
L 436.596045 205.653996 
L 439.081719 205.983541 
L 441.567393 206.091684 
L 444.053068 205.978135 
L 446.538742 205.643198 
L 449.085043 205.07147 
L 451.631344 204.26995 
L 454.23827 203.213618 
L 456.905824 201.889033 
L 459.634003 200.283589 
L 462.483435 198.341599 
L 465.393492 196.085579 
L 468.424803 193.45132 
L 471.577365 190.415071 
L 474.911807 186.888771 
L 478.428127 182.837739 
L 482.126325 178.23229 
L 486.067029 172.965729 
L 490.310863 166.919259 
L 494.979081 159.873898 
L 500.253561 151.497187 
L 506.49806 141.1416 
L 515.106981 126.392424 
L 529.899776 101.030064 
L 536.265527 90.600564 
L 541.540007 82.372595 
L 546.208225 75.48789 
L 550.512686 69.528691 
L 554.453389 64.442061 
L 558.151588 60.020522 
L 561.667907 56.156868 
L 565.002349 52.818603 
L 568.154912 49.968572 
L 571.186222 47.520351 
L 574.09628 45.448679 
L 576.945711 43.691998 
L 579.673891 42.267831 
L 582.341444 41.123576 
L 584.948371 40.245884 
L 587.494671 39.620646 
L 590.040972 39.22648 
L 592.526646 39.065639 
L 595.012321 39.126473 
L 597.497995 39.408822 
L 599.98367 39.911935 
L 602.52997 40.654826 
L 605.136897 41.651791 
L 607.80445 42.916492 
L 610.532629 44.461789 
L 613.321435 46.299544 
L 616.231493 48.488811 
L 619.262803 51.055774 
L 622.415366 54.024738 
L 625.689181 57.417476 
L 629.144875 61.323809 
L 632.782447 65.774764 
L 636.662524 70.877614 
L 640.845732 76.752583 
L 645.392698 83.527485 
L 650.485299 91.523962 
L 656.426667 101.283686 
L 664.126196 114.389047 
L 683.162824 146.97219 
L 689.164819 156.695758 
L 694.318046 164.628842 
L 698.925638 171.318567 
L 703.108846 177.008844 
L 706.988923 181.921981 
L 710.626496 186.18011 
L 714.082189 189.890858 
L 717.356004 193.088083 
L 720.508567 195.860232 
L 723.539877 198.230835 
L 726.449935 200.225764 
L 729.238741 201.87258 
L 731.96692 203.22726 
L 734.634473 204.30251 
L 737.2414 205.111952 
L 739.787701 205.669946 
L 742.273375 205.991403 
L 744.637797 206.0917 
L 744.637797 206.0917 
" clip-path="url(#p51103f953e)" style="fill: none; stroke: #0000ff; stroke-opacity: 0.3; stroke-width: 2.5; stroke-linecap: square"/>
   </g>
   <g id="line2d_14">
    <path d="M 140.962203 215.46 
L 153.591399 215.46 
L 156.117239 214.441268 
L 161.168917 211.996311 
L 163.694757 211.486945 
L 168.746435 210.875706 
L 171.272275 209.958847 
L 173.798114 207.81951 
L 176.323953 202.335504 
L 181.375632 192.984149 
L 183.901471 189.685206 
L 186.42731 185.366589 
L 188.95315 182.127627 
L 191.478989 180.928011 
L 194.004828 180.928011 
L 196.530668 179.291988 
L 199.056507 177.32876 
L 201.582346 173.402304 
L 204.108186 171.111872 
L 206.634025 166.063572 
L 211.685704 154.284206 
L 214.211543 151.479595 
L 249.573293 151.479595 
L 254.624972 141.883745 
L 257.150811 129.888932 
L 259.67665 120.293081 
L 264.728329 95.960746 
L 267.254168 86.364896 
L 269.780008 79.510717 
L 385.968616 79.510717 
L 391.020294 99.112735 
L 393.546134 130.475963 
L 396.071973 152.038183 
L 398.597812 181.44121 
L 403.649491 197.122824 
L 469.321313 197.122824 
L 476.898831 193.883861 
L 479.42467 193.883861 
L 484.476349 191.724553 
L 489.528027 185.366589 
L 492.053866 182.127627 
L 494.579706 179.291988 
L 499.631384 174.383918 
L 502.157224 173.565907 
L 507.208902 170.621065 
L 509.734742 166.063572 
L 514.78642 154.284206 
L 517.31226 151.479595 
L 552.67401 151.479595 
L 555.199849 148.052506 
L 557.725688 143.25458 
L 560.251528 135.258038 
L 565.303206 125.890661 
L 567.829046 121.89239 
L 570.354885 110.697231 
L 572.880724 101.101381 
L 575.406564 93.904493 
L 582.984081 93.904493 
L 585.509921 95.960746 
L 590.561599 102.35798 
L 593.087439 105.099652 
L 598.139117 105.099652 
L 600.664957 103.500343 
L 603.190796 105.099652 
L 605.716635 101.901035 
L 608.242475 97.902764 
L 610.768314 92.305184 
L 613.294153 91.50553 
L 618.345832 93.104839 
L 620.871671 93.104839 
L 625.92335 91.50553 
L 633.500868 93.904493 
L 636.026707 93.904493 
L 643.604225 91.50553 
L 651.181743 91.50553 
L 653.707582 93.504666 
L 656.233421 97.502937 
L 658.759261 108.498182 
L 661.2851 121.692476 
L 663.810939 132.887635 
L 668.862618 142.683399 
L 671.388457 147.481324 
L 673.914296 151.479595 
L 706.750207 151.479595 
L 714.327725 164.275676 
L 716.853565 164.275676 
L 719.379404 167.11925 
L 721.905243 173.51729 
L 724.431083 183.469798 
L 726.956922 191.594293 
L 729.482761 202.257694 
L 732.008601 209.366628 
L 734.53444 215.46 
L 747.163636 215.46 
L 747.163636 215.46 
" clip-path="url(#p51103f953e)" style="fill: none; stroke: #1f77b4; stroke-opacity: 0.7; stroke-width: 2.5; stroke-linecap: square"/>
   </g>
   <g id="patch_3">
    <path d="M 108 224.28 
L 108 30.24 
" style="fill: none; stroke: #000000; stroke-width: 0.8; stroke-linejoin: miter; stroke-linecap: square"/>
   </g>
   <g id="patch_4">
    <path d="M 777.6 224.28 
L 777.6 30.24 
" style="fill: none; stroke: #000000; stroke-width: 0.8; stroke-linejoin: miter; stroke-linecap: square"/>
   </g>
   <g id="patch_5">
    <path d="M 108 224.28 
L 777.6 224.28 
" style="fill: none; stroke: #000000; stroke-width: 0.8; stroke-linejoin: miter; stroke-linecap: square"/>
   </g>
   <g id="patch_6">
    <path d="M 108 30.24 
L 777.6 30.24 
" style="fill: none; stroke: #000000; stroke-width: 0.8; stroke-linejoin: miter; stroke-linecap: square"/>
   </g>
  </g>
  <g id="axes_2">
   <g id="matplotlib.axis_3">
    <g id="ytick_7">
     <g id="line2d_15">
      <defs>
       <path id="m8015db25bf" d="M 0 0 
L 3.5 0 
" style="stroke: #000000; stroke-width: 0.8"/>
      </defs>
      <g>
       <use xlink:href="#m8015db25bf" x="777.6" y="224.28" style="stroke: #000000; stroke-width: 0.8"/>
      </g>
     </g>
     <g id="text_15">
      <!-- 0 -->
      <g transform="translate(784.6 230.529375) scale(0.18 -0.18)">
       <use xlink:href="#TimesNewRomanPSMT-30"/>
      </g>
     </g>
    </g>
    <g id="ytick_8">
     <g id="line2d_16">
      <g>
       <use xlink:href="#m8015db25bf" x="777.6" y="168.84" style="stroke: #000000; stroke-width: 0.8"/>
      </g>
     </g>
     <g id="text_16">
      <!-- 20 -->
      <g transform="translate(784.6 175.089375) scale(0.18 -0.18)">
       <use xlink:href="#TimesNewRomanPSMT-32"/>
       <use xlink:href="#TimesNewRomanPSMT-30" x="50"/>
      </g>
     </g>
    </g>
    <g id="ytick_9">
     <g id="line2d_17">
      <g>
       <use xlink:href="#m8015db25bf" x="777.6" y="113.4" style="stroke: #000000; stroke-width: 0.8"/>
      </g>
     </g>
     <g id="text_17">
      <!-- 40 -->
      <g transform="translate(784.6 119.649375) scale(0.18 -0.18)">
       <use xlink:href="#TimesNewRomanPSMT-34"/>
       <use xlink:href="#TimesNewRomanPSMT-30" x="50"/>
      </g>
     </g>
    </g>
    <g id="ytick_10">
     <g id="line2d_18">
      <g>
       <use xlink:href="#m8015db25bf" x="777.6" y="57.96" style="stroke: #000000; stroke-width: 0.8"/>
      </g>
     </g>
     <g id="text_18">
      <!-- 60 -->
      <g transform="translate(784.6 64.209375) scale(0.18 -0.18)">
       <defs>
        <path id="TimesNewRomanPSMT-36" d="M 2869 4325 
L 2869 4209 
Q 2456 4169 2195 4045 
Q 1934 3922 1679 3669 
Q 1425 3416 1258 3105 
Q 1091 2794 978 2366 
Q 1428 2675 1881 2675 
Q 2316 2675 2634 2325 
Q 2953 1975 2953 1425 
Q 2953 894 2631 456 
Q 2244 -75 1606 -75 
Q 1172 -75 869 213 
Q 275 772 275 1663 
Q 275 2231 503 2743 
Q 731 3256 1154 3653 
Q 1578 4050 1965 4187 
Q 2353 4325 2688 4325 
L 2869 4325 
z
M 925 2138 
Q 869 1716 869 1456 
Q 869 1156 980 804 
Q 1091 453 1309 247 
Q 1469 100 1697 100 
Q 1969 100 2183 356 
Q 2397 613 2397 1088 
Q 2397 1622 2184 2012 
Q 1972 2403 1581 2403 
Q 1463 2403 1327 2353 
Q 1191 2303 925 2138 
z
" transform="scale(0.015625)"/>
       </defs>
       <use xlink:href="#TimesNewRomanPSMT-36"/>
       <use xlink:href="#TimesNewRomanPSMT-30" x="50"/>
      </g>
     </g>
    </g>
    <g id="text_19">
     <!-- Buffer (s) -->
     <g transform="translate(820.4875 166.235) rotate(-90) scale(0.2 -0.2)">
      <defs>
       <path id="TimesNewRomanPSMT-75" d="M 2709 2863 
L 2709 1128 
Q 2709 631 2732 520 
Q 2756 409 2807 365 
Q 2859 322 2928 322 
Q 3025 322 3147 375 
L 3191 266 
L 2334 -88 
L 2194 -88 
L 2194 519 
Q 1825 119 1631 15 
Q 1438 -88 1222 -88 
Q 981 -88 804 51 
Q 628 191 559 409 
Q 491 628 491 1028 
L 491 2306 
Q 491 2509 447 2587 
Q 403 2666 317 2708 
Q 231 2750 6 2747 
L 6 2863 
L 1009 2863 
L 1009 947 
Q 1009 547 1148 422 
Q 1288 297 1484 297 
Q 1619 297 1789 381 
Q 1959 466 2194 703 
L 2194 2325 
Q 2194 2569 2105 2655 
Q 2016 2741 1734 2747 
L 1734 2863 
L 2709 2863 
z
" transform="scale(0.015625)"/>
       <path id="TimesNewRomanPSMT-66" d="M 1319 2638 
L 1319 756 
Q 1319 356 1406 250 
Q 1522 113 1716 113 
L 1975 113 
L 1975 0 
L 266 0 
L 266 113 
L 394 113 
Q 519 113 622 175 
Q 725 238 764 344 
Q 803 450 803 756 
L 803 2638 
L 247 2638 
L 247 2863 
L 803 2863 
L 803 3050 
Q 803 3478 940 3775 
Q 1078 4072 1361 4255 
Q 1644 4438 1997 4438 
Q 2325 4438 2600 4225 
Q 2781 4084 2781 3909 
Q 2781 3816 2700 3733 
Q 2619 3650 2525 3650 
Q 2453 3650 2373 3701 
Q 2294 3753 2178 3923 
Q 2063 4094 1966 4153 
Q 1869 4213 1750 4213 
Q 1606 4213 1506 4136 
Q 1406 4059 1362 3898 
Q 1319 3738 1319 3069 
L 1319 2863 
L 2056 2863 
L 2056 2638 
L 1319 2638 
z
" transform="scale(0.015625)"/>
      </defs>
      <use xlink:href="#TimesNewRomanPSMT-42"/>
      <use xlink:href="#TimesNewRomanPSMT-75" x="66.699219"/>
      <use xlink:href="#TimesNewRomanPSMT-66" x="116.699219"/>
      <use xlink:href="#TimesNewRomanPSMT-66" x="148.25"/>
      <use xlink:href="#TimesNewRomanPSMT-65" x="181.550781"/>
      <use xlink:href="#TimesNewRomanPSMT-72" x="225.935547"/>
      <use xlink:href="#TimesNewRomanPSMT-20" x="259.236328"/>
      <use xlink:href="#TimesNewRomanPSMT-28" x="284.236328"/>
      <use xlink:href="#TimesNewRomanPSMT-73" x="317.537109"/>
      <use xlink:href="#TimesNewRomanPSMT-29" x="356.453125"/>
     </g>
    </g>
   </g>
   <g id="line2d_19">
    <path d="M 140.962203 205.652622 
L 143.488042 205.412105 
L 146.013882 203.875862 
L 148.539721 205.531301 
L 151.06556 206.410025 
L 153.591399 205.610118 
L 156.117239 197.505252 
L 158.643078 199.984529 
L 161.168917 196.059931 
L 163.694757 189.793548 
L 166.220596 190.929144 
L 168.746435 187.997846 
L 171.272275 188.052732 
L 173.798114 183.30485 
L 176.323953 179.106102 
L 178.849793 173.467022 
L 181.375632 164.935361 
L 183.901471 158.216156 
L 186.42731 152.216316 
L 188.95315 146.528865 
L 191.478989 145.044228 
L 194.004828 143.907246 
L 196.530668 145.107522 
L 199.056507 142.534829 
L 201.582346 144.169754 
L 204.108186 144.092046 
L 206.634025 144.144648 
L 209.159864 142.450006 
L 211.685704 142.025335 
L 214.211543 143.817156 
L 216.737382 144.324432 
L 219.263221 143.843213 
L 221.789061 145.215907 
L 224.3149 143.793871 
L 226.840739 143.323186 
L 229.366579 141.717643 
L 231.892418 141.34176 
L 234.418257 138.212865 
L 236.944097 140.97253 
L 239.469936 140.601636 
L 241.995775 140.895468 
L 244.521614 138.519402 
L 247.047454 141.487013 
L 249.573293 138.487293 
L 252.099132 140.859432 
L 254.624972 140.328317 
L 257.150811 141.142638 
L 259.67665 139.473432 
L 262.20249 141.087528 
L 264.728329 141.490062 
L 267.254168 141.391656 
L 269.780008 141.099487 
L 272.305847 141.735384 
L 274.831686 142.980012 
L 277.357525 141.508634 
L 279.883365 143.859429 
L 282.409204 141.260679 
L 284.935043 142.271766 
L 287.460883 141.025752 
L 289.986722 142.509465 
L 292.512561 141.438318 
L 295.038401 143.552707 
L 297.56424 140.819515 
L 300.090079 142.151184 
L 302.615919 141.545225 
L 305.141758 139.257216 
L 307.667597 140.954234 
L 310.193436 141.001913 
L 312.719276 140.545087 
L 315.245115 139.935663 
L 317.770954 140.66724 
L 320.296794 141.575162 
L 322.822633 141.538572 
L 325.348472 141.17544 
L 327.874312 141.029633 
L 330.400151 141.415495 
L 332.92599 141.597338 
L 335.451829 142.374792 
L 337.977669 140.957145 
L 340.503508 142.338294 
L 343.029347 142.39974 
L 345.555187 143.950905 
L 348.081026 144.151644 
L 350.606865 143.529422 
L 353.132705 142.103506 
L 355.658544 143.731778 
L 358.184383 143.350906 
L 360.710223 143.525542 
L 363.236062 145.476475 
L 365.761901 144.864418 
L 368.28774 145.524154 
L 370.81358 144.712512 
L 375.865258 145.870099 
L 378.391098 147.793313 
L 380.916937 147.98569 
L 383.442776 147.04053 
L 385.968616 150.790122 
L 388.494455 148.77571 
L 391.020294 148.248475 
L 393.546134 148.529556 
L 396.071973 149.614332 
L 398.597812 151.545492 
L 401.123651 152.393031 
L 403.649491 154.093514 
L 406.17533 154.754914 
L 408.701169 157.589006 
L 411.227009 156.067733 
L 413.752848 157.554634 
L 416.278687 156.087876 
L 418.804527 159.208409 
L 421.330366 158.829754 
L 423.856205 160.222961 
L 426.382045 160.866065 
L 428.907884 162.590803 
L 431.433723 161.966133 
L 433.959562 164.727045 
L 436.485402 161.8407 
L 439.011241 164.212978 
L 441.53708 163.439451 
L 444.06292 162.829842 
L 449.114598 159.812705 
L 451.640438 159.903626 
L 454.166277 158.288105 
L 456.692116 155.648976 
L 459.217955 156.498502 
L 461.743795 155.399681 
L 464.269634 154.920125 
L 466.795473 154.822689 
L 469.321313 154.589148 
L 471.847152 153.789149 
L 474.372991 151.598714 
L 476.898831 152.26843 
L 479.42467 150.929554 
L 481.950509 151.465658 
L 484.476349 151.643621 
L 487.002188 152.059852 
L 489.528027 147.656376 
L 492.053866 146.57391 
L 494.579706 144.18306 
L 497.105545 142.670934 
L 499.631384 143.869362 
L 502.157224 142.527067 
L 504.683063 144.33552 
L 507.208902 143.334828 
L 509.734742 144.120096 
L 512.260581 143.578764 
L 514.78642 141.01799 
L 517.31226 142.712791 
L 519.838099 141.037394 
L 522.363938 141.427138 
L 524.889777 140.953126 
L 527.415617 141.53081 
L 529.941456 141.058462 
L 532.467295 142.452223 
L 534.993135 141.347766 
L 537.518974 141.108219 
L 540.044813 142.219375 
L 542.570653 143.603712 
L 545.096492 144.205236 
L 547.622331 144.019974 
L 550.148171 144.22926 
L 552.67401 143.611335 
L 555.199849 144.653904 
L 557.725688 143.74841 
L 562.777367 146.01757 
L 565.303206 146.382365 
L 567.829046 145.043304 
L 570.354885 147.092551 
L 572.880724 144.352706 
L 575.406564 145.744805 
L 577.932403 144.241826 
L 580.458242 146.159496 
L 582.984081 144.042381 
L 585.509921 141.05994 
L 588.03576 142.254441 
L 590.561599 144.299484 
L 593.087439 142.66539 
L 595.613278 144.008424 
L 598.139117 142.580844 
L 600.664957 144.161438 
L 603.190796 144.442519 
L 605.716635 143.890891 
L 608.242475 147.148638 
L 610.768314 145.454854 
L 613.294153 145.538568 
L 615.819992 144.957002 
L 618.345832 143.681328 
L 620.871671 141.975162 
L 623.39751 143.805514 
L 625.92335 143.902534 
L 628.449189 144.35825 
L 630.975028 145.282435 
L 633.500868 147.050971 
L 636.026707 146.000383 
L 638.552546 147.640668 
L 641.078386 145.325678 
L 643.604225 148.013964 
L 646.130064 146.998026 
L 648.655903 148.099203 
L 651.181743 150.416826 
L 653.707582 149.074947 
L 656.233421 149.912784 
L 658.759261 151.517772 
L 661.2851 149.284926 
L 663.810939 148.118746 
L 666.336779 146.473841 
L 668.862618 145.042934 
L 671.388457 144.154786 
L 673.914296 143.755618 
L 676.440136 144.336074 
L 678.965975 146.036419 
L 681.491814 143.227274 
L 684.017654 145.798027 
L 686.543493 143.241966 
L 689.069332 145.353537 
L 691.595172 145.573495 
L 694.121011 144.762962 
L 696.64685 147.58375 
L 699.17269 146.932884 
L 701.698529 149.337871 
L 704.224368 149.073561 
L 706.750207 149.87065 
L 709.276047 151.471202 
L 711.801886 153.285754 
L 714.327725 154.858494 
L 716.853565 153.85503 
L 719.379404 157.013262 
L 721.905243 154.927332 
L 724.431083 158.563087 
L 726.956922 160.234049 
L 729.482761 160.942018 
L 732.008601 163.777774 
L 734.53444 164.732589 
L 737.060279 167.332032 
L 739.586118 168.696549 
L 742.111958 168.763493 
L 744.637797 171.70902 
L 747.163636 171.795414 
L 747.163636 171.795414 
" clip-path="url(#p51103f953e)" style="fill: none; stroke: #ffa500; stroke-opacity: 0.7; stroke-width: 2.5; stroke-linecap: square"/>
   </g>
   <g id="patch_7">
    <path d="M 108 224.28 
L 108 30.24 
" style="fill: none; stroke: #000000; stroke-width: 0.8; stroke-linejoin: miter; stroke-linecap: square"/>
   </g>
   <g id="patch_8">
    <path d="M 777.6 224.28 
L 777.6 30.24 
" style="fill: none; stroke: #000000; stroke-width: 0.8; stroke-linejoin: miter; stroke-linecap: square"/>
   </g>
   <g id="patch_9">
    <path d="M 108 224.28 
L 777.6 224.28 
" style="fill: none; stroke: #000000; stroke-width: 0.8; stroke-linejoin: miter; stroke-linecap: square"/>
   </g>
   <g id="patch_10">
    <path d="M 108 30.24 
L 777.6 30.24 
" style="fill: none; stroke: #000000; stroke-width: 0.8; stroke-linejoin: miter; stroke-linecap: square"/>
   </g>
  </g>
 </g>
 <defs>
  <clipPath id="p51103f953e">
   <rect x="108" y="30.24" width="669.6" height="194.04"/>
  </clipPath>
 </defs>
</svg>
