<?xml version="1.0" encoding="utf-8" standalone="no"?>
<!DOCTYPE svg PUBLIC "-//W3C//DTD SVG 1.1//EN"
  "http://www.w3.org/Graphics/SVG/1.1/DTD/svg11.dtd">
<svg xmlns:xlink="http://www.w3.org/1999/xlink" width="864pt" height="216pt" viewBox="0 0 864 216" xmlns="http://www.w3.org/2000/svg" version="1.1">
 <metadata>
  <rdf:RDF xmlns:dc="http://purl.org/dc/elements/1.1/" xmlns:cc="http://creativecommons.org/ns#" xmlns:rdf="http://www.w3.org/1999/02/22-rdf-syntax-ns#">
   <cc:Work>
    <dc:type rdf:resource="http://purl.org/dc/dcmitype/StillImage"/>
    <dc:date>2024-04-13T04:22:11.683894</dc:date>
    <dc:format>image/svg+xml</dc:format>
    <dc:creator>
     <cc:Agent>
      <dc:title>Matplotlib v3.8.3, https://matplotlib.org/</dc:title>
     </cc:Agent>
    </dc:creator>
   </cc:Work>
  </rdf:RDF>
 </metadata>
 <defs>
  <style type="text/css">*{stroke-linejoin: round; stroke-linecap: butt}</style>
 </defs>
 <g id="figure_1">
  <g id="patch_1">
   <path d="M 0 216 
L 864 216 
L 864 0 
L 0 0 
z
" style="fill: #ffffff"/>
  </g>
  <g id="axes_1">
   <g id="patch_2">
    <path d="M 108 192.24 
L 777.6 192.24 
L 777.6 25.92 
L 108 25.92 
z
" style="fill: #ffffff"/>
   </g>
   <g id="matplotlib.axis_1">
    <g id="xtick_1">
     <g id="line2d_1">
      <path d="M 137.421818 192.24 
L 137.421818 25.92 
" clip-path="url(#p388cc4d86f)" style="fill: none; stroke: #b0b0b0; stroke-width: 0.8; stroke-linecap: square"/>
     </g>
     <g id="line2d_2">
      <defs>
       <path id="m6669b5e381" d="M 0 0 
L 0 3.5 
" style="stroke: #000000; stroke-width: 0.8"/>
      </defs>
      <g>
       <use xlink:href="#m6669b5e381" x="137.421818" y="192.24" style="stroke: #000000; stroke-width: 0.8"/>
      </g>
     </g>
     <g id="text_1">
      <!-- 0 -->
      <g transform="translate(132.921818 211.73875) scale(0.18 -0.18)">
       <defs>
        <path id="TimesNewRomanPSMT-30" d="M 231 2094 
Q 231 2819 450 3342 
Q 669 3866 1031 4122 
Q 1313 4325 1613 4325 
Q 2100 4325 2488 3828 
Q 2972 3213 2972 2159 
Q 2972 1422 2759 906 
Q 2547 391 2217 158 
Q 1888 -75 1581 -75 
Q 975 -75 572 641 
Q 231 1244 231 2094 
z
M 844 2016 
Q 844 1141 1059 588 
Q 1238 122 1591 122 
Q 1759 122 1940 273 
Q 2122 425 2216 781 
Q 2359 1319 2359 2297 
Q 2359 3022 2209 3506 
Q 2097 3866 1919 4016 
Q 1791 4119 1609 4119 
Q 1397 4119 1231 3928 
Q 1006 3669 925 3112 
Q 844 2556 844 2016 
z
" transform="scale(0.015625)"/>
       </defs>
       <use xlink:href="#TimesNewRomanPSMT-30"/>
      </g>
     </g>
    </g>
    <g id="xtick_2">
     <g id="line2d_3">
      <path d="M 238.876364 192.24 
L 238.876364 25.92 
" clip-path="url(#p388cc4d86f)" style="fill: none; stroke: #b0b0b0; stroke-width: 0.8; stroke-linecap: square"/>
     </g>
     <g id="line2d_4">
      <g>
       <use xlink:href="#m6669b5e381" x="238.876364" y="192.24" style="stroke: #000000; stroke-width: 0.8"/>
      </g>
     </g>
     <g id="text_2">
      <!-- 100 -->
      <g transform="translate(225.376364 211.73875) scale(0.18 -0.18)">
       <defs>
        <path id="TimesNewRomanPSMT-31" d="M 750 3822 
L 1781 4325 
L 1884 4325 
L 1884 747 
Q 1884 391 1914 303 
Q 1944 216 2037 169 
Q 2131 122 2419 116 
L 2419 0 
L 825 0 
L 825 116 
Q 1125 122 1212 167 
Q 1300 213 1334 289 
Q 1369 366 1369 747 
L 1369 3034 
Q 1369 3497 1338 3628 
Q 1316 3728 1258 3775 
Q 1200 3822 1119 3822 
Q 1003 3822 797 3725 
L 750 3822 
z
" transform="scale(0.015625)"/>
       </defs>
       <use xlink:href="#TimesNewRomanPSMT-31"/>
       <use xlink:href="#TimesNewRomanPSMT-30" x="50"/>
       <use xlink:href="#TimesNewRomanPSMT-30" x="100"/>
      </g>
     </g>
    </g>
    <g id="xtick_3">
     <g id="line2d_5">
      <path d="M 340.330909 192.24 
L 340.330909 25.92 
" clip-path="url(#p388cc4d86f)" style="fill: none; stroke: #b0b0b0; stroke-width: 0.8; stroke-linecap: square"/>
     </g>
     <g id="line2d_6">
      <g>
       <use xlink:href="#m6669b5e381" x="340.330909" y="192.24" style="stroke: #000000; stroke-width: 0.8"/>
      </g>
     </g>
     <g id="text_3">
      <!-- 200 -->
      <g transform="translate(326.830909 211.73875) scale(0.18 -0.18)">
       <defs>
        <path id="TimesNewRomanPSMT-32" d="M 2934 816 
L 2638 0 
L 138 0 
L 138 116 
Q 1241 1122 1691 1759 
Q 2141 2397 2141 2925 
Q 2141 3328 1894 3587 
Q 1647 3847 1303 3847 
Q 991 3847 742 3664 
Q 494 3481 375 3128 
L 259 3128 
Q 338 3706 661 4015 
Q 984 4325 1469 4325 
Q 1984 4325 2329 3994 
Q 2675 3663 2675 3213 
Q 2675 2891 2525 2569 
Q 2294 2063 1775 1497 
Q 997 647 803 472 
L 1909 472 
Q 2247 472 2383 497 
Q 2519 522 2628 598 
Q 2738 675 2819 816 
L 2934 816 
z
" transform="scale(0.015625)"/>
       </defs>
       <use xlink:href="#TimesNewRomanPSMT-32"/>
       <use xlink:href="#TimesNewRomanPSMT-30" x="50"/>
       <use xlink:href="#TimesNewRomanPSMT-30" x="100"/>
      </g>
     </g>
    </g>
    <g id="xtick_4">
     <g id="line2d_7">
      <path d="M 441.785455 192.24 
L 441.785455 25.92 
" clip-path="url(#p388cc4d86f)" style="fill: none; stroke: #b0b0b0; stroke-width: 0.8; stroke-linecap: square"/>
     </g>
     <g id="line2d_8">
      <g>
       <use xlink:href="#m6669b5e381" x="441.785455" y="192.24" style="stroke: #000000; stroke-width: 0.8"/>
      </g>
     </g>
     <g id="text_4">
      <!-- 300 -->
      <g transform="translate(428.285455 211.73875) scale(0.18 -0.18)">
       <defs>
        <path id="TimesNewRomanPSMT-33" d="M 325 3431 
Q 506 3859 782 4092 
Q 1059 4325 1472 4325 
Q 1981 4325 2253 3994 
Q 2459 3747 2459 3466 
Q 2459 3003 1878 2509 
Q 2269 2356 2469 2072 
Q 2669 1788 2669 1403 
Q 2669 853 2319 450 
Q 1863 -75 997 -75 
Q 569 -75 414 31 
Q 259 138 259 259 
Q 259 350 332 419 
Q 406 488 509 488 
Q 588 488 669 463 
Q 722 447 909 348 
Q 1097 250 1169 231 
Q 1284 197 1416 197 
Q 1734 197 1970 444 
Q 2206 691 2206 1028 
Q 2206 1275 2097 1509 
Q 2016 1684 1919 1775 
Q 1784 1900 1550 2001 
Q 1316 2103 1072 2103 
L 972 2103 
L 972 2197 
Q 1219 2228 1467 2375 
Q 1716 2522 1828 2728 
Q 1941 2934 1941 3181 
Q 1941 3503 1739 3701 
Q 1538 3900 1238 3900 
Q 753 3900 428 3381 
L 325 3431 
z
" transform="scale(0.015625)"/>
       </defs>
       <use xlink:href="#TimesNewRomanPSMT-33"/>
       <use xlink:href="#TimesNewRomanPSMT-30" x="50"/>
       <use xlink:href="#TimesNewRomanPSMT-30" x="100"/>
      </g>
     </g>
    </g>
    <g id="xtick_5">
     <g id="line2d_9">
      <path d="M 543.24 192.24 
L 543.24 25.92 
" clip-path="url(#p388cc4d86f)" style="fill: none; stroke: #b0b0b0; stroke-width: 0.8; stroke-linecap: square"/>
     </g>
     <g id="line2d_10">
      <g>
       <use xlink:href="#m6669b5e381" x="543.24" y="192.24" style="stroke: #000000; stroke-width: 0.8"/>
      </g>
     </g>
     <g id="text_5">
      <!-- 400 -->
      <g transform="translate(529.74 211.73875) scale(0.18 -0.18)">
       <defs>
        <path id="TimesNewRomanPSMT-34" d="M 2978 1563 
L 2978 1119 
L 2409 1119 
L 2409 0 
L 1894 0 
L 1894 1119 
L 100 1119 
L 100 1519 
L 2066 4325 
L 2409 4325 
L 2409 1563 
L 2978 1563 
z
M 1894 1563 
L 1894 3666 
L 406 1563 
L 1894 1563 
z
" transform="scale(0.015625)"/>
       </defs>
       <use xlink:href="#TimesNewRomanPSMT-34"/>
       <use xlink:href="#TimesNewRomanPSMT-30" x="50"/>
       <use xlink:href="#TimesNewRomanPSMT-30" x="100"/>
      </g>
     </g>
    </g>
    <g id="xtick_6">
     <g id="line2d_11">
      <path d="M 644.694545 192.24 
L 644.694545 25.92 
" clip-path="url(#p388cc4d86f)" style="fill: none; stroke: #b0b0b0; stroke-width: 0.8; stroke-linecap: square"/>
     </g>
     <g id="line2d_12">
      <g>
       <use xlink:href="#m6669b5e381" x="644.694545" y="192.24" style="stroke: #000000; stroke-width: 0.8"/>
      </g>
     </g>
     <g id="text_6">
      <!-- 500 -->
      <g transform="translate(631.194545 211.73875) scale(0.18 -0.18)">
       <defs>
        <path id="TimesNewRomanPSMT-35" d="M 2778 4238 
L 2534 3706 
L 1259 3706 
L 981 3138 
Q 1809 3016 2294 2522 
Q 2709 2097 2709 1522 
Q 2709 1188 2573 903 
Q 2438 619 2231 419 
Q 2025 219 1772 97 
Q 1413 -75 1034 -75 
Q 653 -75 479 54 
Q 306 184 306 341 
Q 306 428 378 495 
Q 450 563 559 563 
Q 641 563 702 538 
Q 763 513 909 409 
Q 1144 247 1384 247 
Q 1750 247 2026 523 
Q 2303 800 2303 1197 
Q 2303 1581 2056 1914 
Q 1809 2247 1375 2428 
Q 1034 2569 447 2591 
L 1259 4238 
L 2778 4238 
z
" transform="scale(0.015625)"/>
       </defs>
       <use xlink:href="#TimesNewRomanPSMT-35"/>
       <use xlink:href="#TimesNewRomanPSMT-30" x="50"/>
       <use xlink:href="#TimesNewRomanPSMT-30" x="100"/>
      </g>
     </g>
    </g>
    <g id="xtick_7">
     <g id="line2d_13">
      <path d="M 746.149091 192.24 
L 746.149091 25.92 
" clip-path="url(#p388cc4d86f)" style="fill: none; stroke: #b0b0b0; stroke-width: 0.8; stroke-linecap: square"/>
     </g>
     <g id="line2d_14">
      <g>
       <use xlink:href="#m6669b5e381" x="746.149091" y="192.24" style="stroke: #000000; stroke-width: 0.8"/>
      </g>
     </g>
     <g id="text_7">
      <!-- 600 -->
      <g transform="translate(732.649091 211.73875) scale(0.18 -0.18)">
       <defs>
        <path id="TimesNewRomanPSMT-36" d="M 2869 4325 
L 2869 4209 
Q 2456 4169 2195 4045 
Q 1934 3922 1679 3669 
Q 1425 3416 1258 3105 
Q 1091 2794 978 2366 
Q 1428 2675 1881 2675 
Q 2316 2675 2634 2325 
Q 2953 1975 2953 1425 
Q 2953 894 2631 456 
Q 2244 -75 1606 -75 
Q 1172 -75 869 213 
Q 275 772 275 1663 
Q 275 2231 503 2743 
Q 731 3256 1154 3653 
Q 1578 4050 1965 4187 
Q 2353 4325 2688 4325 
L 2869 4325 
z
M 925 2138 
Q 869 1716 869 1456 
Q 869 1156 980 804 
Q 1091 453 1309 247 
Q 1469 100 1697 100 
Q 1969 100 2183 356 
Q 2397 613 2397 1088 
Q 2397 1622 2184 2012 
Q 1972 2403 1581 2403 
Q 1463 2403 1327 2353 
Q 1191 2303 925 2138 
z
" transform="scale(0.015625)"/>
       </defs>
       <use xlink:href="#TimesNewRomanPSMT-36"/>
       <use xlink:href="#TimesNewRomanPSMT-30" x="50"/>
       <use xlink:href="#TimesNewRomanPSMT-30" x="100"/>
      </g>
     </g>
    </g>
    <g id="text_8">
     <!-- Time (s) -->
     <g transform="translate(408.995313 233.476562) scale(0.2 -0.2)">
      <defs>
       <path id="TimesNewRomanPSMT-54" d="M 3703 4238 
L 3750 3244 
L 3631 3244 
Q 3597 3506 3538 3619 
Q 3441 3800 3280 3886 
Q 3119 3972 2856 3972 
L 2259 3972 
L 2259 734 
Q 2259 344 2344 247 
Q 2463 116 2709 116 
L 2856 116 
L 2856 0 
L 1059 0 
L 1059 116 
L 1209 116 
Q 1478 116 1591 278 
Q 1659 378 1659 734 
L 1659 3972 
L 1150 3972 
Q 853 3972 728 3928 
Q 566 3869 450 3700 
Q 334 3531 313 3244 
L 194 3244 
L 244 4238 
L 3703 4238 
z
" transform="scale(0.015625)"/>
       <path id="TimesNewRomanPSMT-69" d="M 928 4444 
Q 1059 4444 1151 4351 
Q 1244 4259 1244 4128 
Q 1244 3997 1151 3903 
Q 1059 3809 928 3809 
Q 797 3809 703 3903 
Q 609 3997 609 4128 
Q 609 4259 701 4351 
Q 794 4444 928 4444 
z
M 1188 2947 
L 1188 647 
Q 1188 378 1227 289 
Q 1266 200 1342 156 
Q 1419 113 1622 113 
L 1622 0 
L 231 0 
L 231 113 
Q 441 113 512 153 
Q 584 194 626 287 
Q 669 381 669 647 
L 669 1750 
Q 669 2216 641 2353 
Q 619 2453 572 2492 
Q 525 2531 444 2531 
Q 356 2531 231 2484 
L 188 2597 
L 1050 2947 
L 1188 2947 
z
" transform="scale(0.015625)"/>
       <path id="TimesNewRomanPSMT-6d" d="M 1050 2338 
Q 1363 2650 1419 2697 
Q 1559 2816 1721 2881 
Q 1884 2947 2044 2947 
Q 2313 2947 2506 2790 
Q 2700 2634 2766 2338 
Q 3088 2713 3309 2830 
Q 3531 2947 3766 2947 
Q 3994 2947 4170 2830 
Q 4347 2713 4450 2447 
Q 4519 2266 4519 1878 
L 4519 647 
Q 4519 378 4559 278 
Q 4591 209 4675 161 
Q 4759 113 4950 113 
L 4950 0 
L 3538 0 
L 3538 113 
L 3597 113 
Q 3781 113 3884 184 
Q 3956 234 3988 344 
Q 4000 397 4000 647 
L 4000 1878 
Q 4000 2228 3916 2372 
Q 3794 2572 3525 2572 
Q 3359 2572 3192 2489 
Q 3025 2406 2788 2181 
L 2781 2147 
L 2788 2013 
L 2788 647 
Q 2788 353 2820 281 
Q 2853 209 2943 161 
Q 3034 113 3253 113 
L 3253 0 
L 1806 0 
L 1806 113 
Q 2044 113 2133 169 
Q 2222 225 2256 338 
Q 2272 391 2272 647 
L 2272 1878 
Q 2272 2228 2169 2381 
Q 2031 2581 1784 2581 
Q 1616 2581 1450 2491 
Q 1191 2353 1050 2181 
L 1050 647 
Q 1050 366 1089 281 
Q 1128 197 1204 155 
Q 1281 113 1516 113 
L 1516 0 
L 100 0 
L 100 113 
Q 297 113 375 155 
Q 453 197 493 289 
Q 534 381 534 647 
L 534 1741 
Q 534 2213 506 2350 
Q 484 2453 437 2492 
Q 391 2531 309 2531 
Q 222 2531 100 2484 
L 53 2597 
L 916 2947 
L 1050 2947 
L 1050 2338 
z
" transform="scale(0.015625)"/>
       <path id="TimesNewRomanPSMT-65" d="M 681 1784 
Q 678 1147 991 784 
Q 1303 422 1725 422 
Q 2006 422 2214 576 
Q 2422 731 2563 1106 
L 2659 1044 
Q 2594 616 2278 264 
Q 1963 -88 1488 -88 
Q 972 -88 605 314 
Q 238 716 238 1394 
Q 238 2128 614 2539 
Q 991 2950 1559 2950 
Q 2041 2950 2350 2633 
Q 2659 2316 2659 1784 
L 681 1784 
z
M 681 1966 
L 2006 1966 
Q 1991 2241 1941 2353 
Q 1863 2528 1708 2628 
Q 1553 2728 1384 2728 
Q 1125 2728 920 2526 
Q 716 2325 681 1966 
z
" transform="scale(0.015625)"/>
       <path id="TimesNewRomanPSMT-20" transform="scale(0.015625)"/>
       <path id="TimesNewRomanPSMT-28" d="M 1988 -1253 
L 1988 -1369 
Q 1516 -1131 1200 -813 
Q 750 -359 506 256 
Q 263 872 263 1534 
Q 263 2503 741 3301 
Q 1219 4100 1988 4444 
L 1988 4313 
Q 1603 4100 1356 3731 
Q 1109 3363 987 2797 
Q 866 2231 866 1616 
Q 866 947 969 400 
Q 1050 -31 1165 -292 
Q 1281 -553 1476 -793 
Q 1672 -1034 1988 -1253 
z
" transform="scale(0.015625)"/>
       <path id="TimesNewRomanPSMT-73" d="M 2050 2947 
L 2050 1972 
L 1947 1972 
Q 1828 2431 1642 2597 
Q 1456 2763 1169 2763 
Q 950 2763 815 2647 
Q 681 2531 681 2391 
Q 681 2216 781 2091 
Q 878 1963 1175 1819 
L 1631 1597 
Q 2266 1288 2266 781 
Q 2266 391 1970 151 
Q 1675 -88 1309 -88 
Q 1047 -88 709 6 
Q 606 38 541 38 
Q 469 38 428 -44 
L 325 -44 
L 325 978 
L 428 978 
Q 516 541 762 319 
Q 1009 97 1316 97 
Q 1531 97 1667 223 
Q 1803 350 1803 528 
Q 1803 744 1651 891 
Q 1500 1038 1047 1263 
Q 594 1488 453 1669 
Q 313 1847 313 2119 
Q 313 2472 555 2709 
Q 797 2947 1181 2947 
Q 1350 2947 1591 2875 
Q 1750 2828 1803 2828 
Q 1853 2828 1881 2850 
Q 1909 2872 1947 2947 
L 2050 2947 
z
" transform="scale(0.015625)"/>
       <path id="TimesNewRomanPSMT-29" d="M 144 4313 
L 144 4444 
Q 619 4209 934 3891 
Q 1381 3434 1625 2820 
Q 1869 2206 1869 1541 
Q 1869 572 1392 -226 
Q 916 -1025 144 -1369 
L 144 -1253 
Q 528 -1038 776 -670 
Q 1025 -303 1145 264 
Q 1266 831 1266 1447 
Q 1266 2113 1163 2663 
Q 1084 3094 967 3353 
Q 850 3613 656 3853 
Q 463 4094 144 4313 
z
" transform="scale(0.015625)"/>
      </defs>
      <use xlink:href="#TimesNewRomanPSMT-54"/>
      <use xlink:href="#TimesNewRomanPSMT-69" x="57.583984"/>
      <use xlink:href="#TimesNewRomanPSMT-6d" x="85.367188"/>
      <use xlink:href="#TimesNewRomanPSMT-65" x="163.150391"/>
      <use xlink:href="#TimesNewRomanPSMT-20" x="207.535156"/>
      <use xlink:href="#TimesNewRomanPSMT-28" x="232.535156"/>
      <use xlink:href="#TimesNewRomanPSMT-73" x="265.835938"/>
      <use xlink:href="#TimesNewRomanPSMT-29" x="304.751953"/>
     </g>
    </g>
   </g>
   <g id="matplotlib.axis_2">
    <g id="ytick_1">
     <g id="line2d_15">
      <path d="M 108 188.080637 
L 777.6 188.080637 
" clip-path="url(#p388cc4d86f)" style="fill: none; stroke: #b0b0b0; stroke-width: 0.8; stroke-linecap: square"/>
     </g>
     <g id="line2d_16">
      <defs>
       <path id="mbfa216b23e" d="M 0 0 
L -3.5 0 
" style="stroke: #000000; stroke-width: 0.8"/>
      </defs>
      <g>
       <use xlink:href="#mbfa216b23e" x="108" y="188.080637" style="stroke: #000000; stroke-width: 0.8"/>
      </g>
     </g>
     <g id="text_9">
      <!-- 0 -->
      <g transform="translate(92 194.330012) scale(0.18 -0.18)">
       <use xlink:href="#TimesNewRomanPSMT-30"/>
      </g>
     </g>
    </g>
    <g id="ytick_2">
     <g id="line2d_17">
      <path d="M 108 163.241203 
L 777.6 163.241203 
" clip-path="url(#p388cc4d86f)" style="fill: none; stroke: #b0b0b0; stroke-width: 0.8; stroke-linecap: square"/>
     </g>
     <g id="line2d_18">
      <g>
       <use xlink:href="#mbfa216b23e" x="108" y="163.241203" style="stroke: #000000; stroke-width: 0.8"/>
      </g>
     </g>
     <g id="text_10">
      <!-- 5 -->
      <g transform="translate(92 169.490578) scale(0.18 -0.18)">
       <use xlink:href="#TimesNewRomanPSMT-35"/>
      </g>
     </g>
    </g>
    <g id="ytick_3">
     <g id="line2d_19">
      <path d="M 108 138.401769 
L 777.6 138.401769 
" clip-path="url(#p388cc4d86f)" style="fill: none; stroke: #b0b0b0; stroke-width: 0.8; stroke-linecap: square"/>
     </g>
     <g id="line2d_20">
      <g>
       <use xlink:href="#mbfa216b23e" x="108" y="138.401769" style="stroke: #000000; stroke-width: 0.8"/>
      </g>
     </g>
     <g id="text_11">
      <!-- 10 -->
      <g transform="translate(83 144.651144) scale(0.18 -0.18)">
       <use xlink:href="#TimesNewRomanPSMT-31"/>
       <use xlink:href="#TimesNewRomanPSMT-30" x="50"/>
      </g>
     </g>
    </g>
    <g id="ytick_4">
     <g id="line2d_21">
      <path d="M 108 113.562335 
L 777.6 113.562335 
" clip-path="url(#p388cc4d86f)" style="fill: none; stroke: #b0b0b0; stroke-width: 0.8; stroke-linecap: square"/>
     </g>
     <g id="line2d_22">
      <g>
       <use xlink:href="#mbfa216b23e" x="108" y="113.562335" style="stroke: #000000; stroke-width: 0.8"/>
      </g>
     </g>
     <g id="text_12">
      <!-- 15 -->
      <g transform="translate(83 119.81171) scale(0.18 -0.18)">
       <use xlink:href="#TimesNewRomanPSMT-31"/>
       <use xlink:href="#TimesNewRomanPSMT-35" x="50"/>
      </g>
     </g>
    </g>
    <g id="ytick_5">
     <g id="line2d_23">
      <path d="M 108 88.722901 
L 777.6 88.722901 
" clip-path="url(#p388cc4d86f)" style="fill: none; stroke: #b0b0b0; stroke-width: 0.8; stroke-linecap: square"/>
     </g>
     <g id="line2d_24">
      <g>
       <use xlink:href="#mbfa216b23e" x="108" y="88.722901" style="stroke: #000000; stroke-width: 0.8"/>
      </g>
     </g>
     <g id="text_13">
      <!-- 20 -->
      <g transform="translate(83 94.972276) scale(0.18 -0.18)">
       <use xlink:href="#TimesNewRomanPSMT-32"/>
       <use xlink:href="#TimesNewRomanPSMT-30" x="50"/>
      </g>
     </g>
    </g>
    <g id="ytick_6">
     <g id="line2d_25">
      <path d="M 108 63.883467 
L 777.6 63.883467 
" clip-path="url(#p388cc4d86f)" style="fill: none; stroke: #b0b0b0; stroke-width: 0.8; stroke-linecap: square"/>
     </g>
     <g id="line2d_26">
      <g>
       <use xlink:href="#mbfa216b23e" x="108" y="63.883467" style="stroke: #000000; stroke-width: 0.8"/>
      </g>
     </g>
     <g id="text_14">
      <!-- 25 -->
      <g transform="translate(83 70.132842) scale(0.18 -0.18)">
       <use xlink:href="#TimesNewRomanPSMT-32"/>
       <use xlink:href="#TimesNewRomanPSMT-35" x="50"/>
      </g>
     </g>
    </g>
    <g id="ytick_7">
     <g id="line2d_27">
      <path d="M 108 39.044033 
L 777.6 39.044033 
" clip-path="url(#p388cc4d86f)" style="fill: none; stroke: #b0b0b0; stroke-width: 0.8; stroke-linecap: square"/>
     </g>
     <g id="line2d_28">
      <g>
       <use xlink:href="#mbfa216b23e" x="108" y="39.044033" style="stroke: #000000; stroke-width: 0.8"/>
      </g>
     </g>
     <g id="text_15">
      <!-- 30 -->
      <g transform="translate(83 45.293408) scale(0.18 -0.18)">
       <use xlink:href="#TimesNewRomanPSMT-33"/>
       <use xlink:href="#TimesNewRomanPSMT-30" x="50"/>
      </g>
     </g>
    </g>
    <g id="text_16">
     <!-- Buffer (s) -->
     <g transform="translate(74.721875 148.055) rotate(-90) scale(0.2 -0.2)">
      <defs>
       <path id="TimesNewRomanPSMT-42" d="M 2956 2163 
Q 3397 2069 3616 1863 
Q 3919 1575 3919 1159 
Q 3919 844 3719 555 
Q 3519 266 3170 133 
Q 2822 0 2106 0 
L 106 0 
L 106 116 
L 266 116 
Q 531 116 647 284 
Q 719 394 719 750 
L 719 3488 
Q 719 3881 628 3984 
Q 506 4122 266 4122 
L 106 4122 
L 106 4238 
L 1938 4238 
Q 2450 4238 2759 4163 
Q 3228 4050 3475 3764 
Q 3722 3478 3722 3106 
Q 3722 2788 3528 2536 
Q 3334 2284 2956 2163 
z
M 1319 2331 
Q 1434 2309 1582 2298 
Q 1731 2288 1909 2288 
Q 2366 2288 2595 2386 
Q 2825 2484 2947 2687 
Q 3069 2891 3069 3131 
Q 3069 3503 2766 3765 
Q 2463 4028 1881 4028 
Q 1569 4028 1319 3959 
L 1319 2331 
z
M 1319 306 
Q 1681 222 2034 222 
Q 2600 222 2897 476 
Q 3194 731 3194 1106 
Q 3194 1353 3059 1581 
Q 2925 1809 2622 1940 
Q 2319 2072 1872 2072 
Q 1678 2072 1540 2065 
Q 1403 2059 1319 2044 
L 1319 306 
z
" transform="scale(0.015625)"/>
       <path id="TimesNewRomanPSMT-75" d="M 2709 2863 
L 2709 1128 
Q 2709 631 2732 520 
Q 2756 409 2807 365 
Q 2859 322 2928 322 
Q 3025 322 3147 375 
L 3191 266 
L 2334 -88 
L 2194 -88 
L 2194 519 
Q 1825 119 1631 15 
Q 1438 -88 1222 -88 
Q 981 -88 804 51 
Q 628 191 559 409 
Q 491 628 491 1028 
L 491 2306 
Q 491 2509 447 2587 
Q 403 2666 317 2708 
Q 231 2750 6 2747 
L 6 2863 
L 1009 2863 
L 1009 947 
Q 1009 547 1148 422 
Q 1288 297 1484 297 
Q 1619 297 1789 381 
Q 1959 466 2194 703 
L 2194 2325 
Q 2194 2569 2105 2655 
Q 2016 2741 1734 2747 
L 1734 2863 
L 2709 2863 
z
" transform="scale(0.015625)"/>
       <path id="TimesNewRomanPSMT-66" d="M 1319 2638 
L 1319 756 
Q 1319 356 1406 250 
Q 1522 113 1716 113 
L 1975 113 
L 1975 0 
L 266 0 
L 266 113 
L 394 113 
Q 519 113 622 175 
Q 725 238 764 344 
Q 803 450 803 756 
L 803 2638 
L 247 2638 
L 247 2863 
L 803 2863 
L 803 3050 
Q 803 3478 940 3775 
Q 1078 4072 1361 4255 
Q 1644 4438 1997 4438 
Q 2325 4438 2600 4225 
Q 2781 4084 2781 3909 
Q 2781 3816 2700 3733 
Q 2619 3650 2525 3650 
Q 2453 3650 2373 3701 
Q 2294 3753 2178 3923 
Q 2063 4094 1966 4153 
Q 1869 4213 1750 4213 
Q 1606 4213 1506 4136 
Q 1406 4059 1362 3898 
Q 1319 3738 1319 3069 
L 1319 2863 
L 2056 2863 
L 2056 2638 
L 1319 2638 
z
" transform="scale(0.015625)"/>
       <path id="TimesNewRomanPSMT-72" d="M 1038 2947 
L 1038 2303 
Q 1397 2947 1775 2947 
Q 1947 2947 2059 2842 
Q 2172 2738 2172 2600 
Q 2172 2478 2090 2393 
Q 2009 2309 1897 2309 
Q 1788 2309 1652 2417 
Q 1516 2525 1450 2525 
Q 1394 2525 1328 2463 
Q 1188 2334 1038 2041 
L 1038 669 
Q 1038 431 1097 309 
Q 1138 225 1241 169 
Q 1344 113 1538 113 
L 1538 0 
L 72 0 
L 72 113 
Q 291 113 397 181 
Q 475 231 506 341 
Q 522 394 522 644 
L 522 1753 
Q 522 2253 501 2348 
Q 481 2444 426 2487 
Q 372 2531 291 2531 
Q 194 2531 72 2484 
L 41 2597 
L 906 2947 
L 1038 2947 
z
" transform="scale(0.015625)"/>
      </defs>
      <use xlink:href="#TimesNewRomanPSMT-42"/>
      <use xlink:href="#TimesNewRomanPSMT-75" x="66.699219"/>
      <use xlink:href="#TimesNewRomanPSMT-66" x="116.699219"/>
      <use xlink:href="#TimesNewRomanPSMT-66" x="148.25"/>
      <use xlink:href="#TimesNewRomanPSMT-65" x="181.550781"/>
      <use xlink:href="#TimesNewRomanPSMT-72" x="225.935547"/>
      <use xlink:href="#TimesNewRomanPSMT-20" x="259.236328"/>
      <use xlink:href="#TimesNewRomanPSMT-28" x="284.236328"/>
      <use xlink:href="#TimesNewRomanPSMT-73" x="317.537109"/>
      <use xlink:href="#TimesNewRomanPSMT-29" x="356.453125"/>
     </g>
    </g>
   </g>
   <g id="line2d_29">
    <path d="M 138.436364 174.35834 
L 139.450909 168.336268 
L 140.465455 165.791054 
L 141.48 155.251848 
L 142.494545 147.070732 
L 143.509091 137.236634 
L 144.523636 129.979545 
L 145.538182 123.634229 
L 146.552727 113.883261 
L 148.581818 100.522626 
L 149.596364 99.811224 
L 150.610909 100.872696 
L 151.625455 102.185543 
L 152.64 102.405234 
L 153.654545 100.822134 
L 154.669091 98.987659 
L 156.698182 96.898166 
L 157.712727 95.737337 
L 160.756364 88.995741 
L 161.770909 87.37304 
L 162.785455 86.010656 
L 164.814545 79.541694 
L 165.829091 73.424239 
L 166.843636 69.276274 
L 167.858182 63.788084 
L 170.901818 56.16815 
L 171.916364 54.610362 
L 172.930909 52.290028 
L 173.945455 49.147863 
L 174.96 45.521109 
L 175.974545 42.45526 
L 176.989091 40.736703 
L 178.003636 39.502735 
L 179.018182 39.207973 
L 180.032727 39.229501 
L 181.047273 38.858234 
L 183.076364 37.650624 
L 184.090909 37.425744 
L 187.134545 37.450446 
L 189.163636 38.775657 
L 190.178182 40.327735 
L 191.192727 41.224936 
L 192.207273 42.277079 
L 194.236364 42.59207 
L 198.294545 42.690876 
L 199.309091 42.746765 
L 202.352727 42.373511 
L 204.381818 42.861026 
L 205.396364 43.247638 
L 206.410909 43.390493 
L 207.425455 44.188666 
L 208.44 45.388135 
L 209.454545 46.925751 
L 210.469091 48.705579 
L 211.483636 51.372231 
L 213.512727 57.593184 
L 214.527273 59.434725 
L 215.541818 61.005736 
L 216.556364 61.673475 
L 217.570909 62.179261 
L 218.585455 62.173686 
L 221.629091 60.887003 
L 223.658182 61.904868 
L 224.672727 63.666426 
L 225.687273 65.143599 
L 226.701818 67.663367 
L 227.716364 69.301113 
L 229.745455 74.030542 
L 230.76 77.658424 
L 232.789091 86.128671 
L 233.803636 89.36144 
L 235.832727 92.620374 
L 236.847273 95.053921 
L 237.861818 98.018756 
L 238.876364 100.52315 
L 239.890909 103.830162 
L 240.905455 108.190642 
L 241.92 113.211934 
L 242.934545 116.677768 
L 243.949091 119.393877 
L 244.963636 122.452108 
L 245.978182 124.925548 
L 246.992727 128.140765 
L 248.007273 130.917482 
L 250.036364 138.125886 
L 251.050909 142.731779 
L 252.065455 146.766697 
L 253.08 149.315885 
L 254.094545 150.901635 
L 255.109091 151.576522 
L 256.123636 151.985793 
L 257.138182 151.386583 
L 258.152727 151.483871 
L 261.196364 149.083968 
L 264.24 151.513016 
L 265.254545 152.501957 
L 267.283636 144.890492 
L 268.298182 139.2324 
L 271.341818 125.202425 
L 272.356364 124.129693 
L 273.370909 120.253416 
L 274.385455 114.941586 
L 275.4 106.261032 
L 276.414545 95.287301 
L 279.458182 59.117102 
L 280.472727 51.248337 
L 281.487273 46.28459 
L 283.516364 43.219376 
L 285.545455 41.579643 
L 286.56 42.509907 
L 287.574545 42.459235 
L 288.589091 42.154869 
L 289.603636 40.920238 
L 290.618182 40.666545 
L 293.661818 43.879443 
L 294.676364 43.584351 
L 295.690909 42.314559 
L 296.705455 40.849694 
L 297.72 37.796845 
L 299.749091 33.833962 
L 300.763636 35.260987 
L 302.792727 35.627231 
L 303.807273 34.364146 
L 305.836364 34.325783 
L 306.850909 35.42559 
L 308.88 36.603807 
L 309.894545 36.093108 
L 312.938182 39.000127 
L 313.952727 39.007271 
L 315.981818 39.496111 
L 316.996364 39.592405 
L 318.010909 39.444279 
L 319.025455 39.155811 
L 321.054545 38.875125 
L 322.069091 39.121587 
L 324.098182 38.87518 
L 325.112727 38.505514 
L 328.156364 35.705613 
L 329.170909 36.474973 
L 331.2 37.285567 
L 332.214545 36.921504 
L 333.229091 37.35854 
L 335.258182 38.752694 
L 336.272727 38.969184 
L 337.287273 38.88208 
L 338.301818 39.11259 
L 340.330909 39.025983 
L 341.345455 38.75217 
L 343.374545 40.439043 
L 344.389091 41.975694 
L 346.418182 41.658466 
L 347.432727 40.806639 
L 350.476364 43.146514 
L 352.505455 44.864078 
L 353.52 45.573161 
L 354.534545 45.482414 
L 355.549091 45.850701 
L 356.563636 46.54223 
L 357.578182 47.932963 
L 358.592727 48.955409 
L 362.650909 51.819451 
L 363.665455 51.987365 
L 364.68 52.803313 
L 365.694545 54.772915 
L 366.709091 57.080912 
L 367.723636 59.756726 
L 368.738182 61.674 
L 369.752727 63.869226 
L 370.767273 65.048602 
L 371.781818 65.844899 
L 372.796364 65.856933 
L 374.825455 69.144901 
L 375.84 71.615155 
L 376.854545 72.831625 
L 377.869091 74.705263 
L 378.883636 75.671683 
L 379.898182 76.253919 
L 380.912727 76.178987 
L 381.927273 76.76989 
L 382.941818 76.491357 
L 383.956364 75.279855 
L 385.985455 71.633702 
L 388.014545 66.65897 
L 389.029091 64.933458 
L 392.072727 63.520232 
L 393.087273 62.844599 
L 395.116364 59.13218 
L 396.130909 57.42389 
L 398.16 56.624391 
L 399.174545 56.944654 
L 400.189091 54.989294 
L 401.203636 52.38728 
L 402.218182 48.036736 
L 403.232727 45.058488 
L 404.247273 42.726893 
L 405.261818 41.737621 
L 407.290909 41.565733 
L 409.32 42.530827 
L 410.334545 41.629321 
L 412.363636 38.861215 
L 415.407273 38.795308 
L 416.421818 38.744966 
L 421.494545 39.02292 
L 422.509091 39.686712 
L 423.523636 41.177492 
L 424.538182 42.916943 
L 425.552727 43.748484 
L 426.567273 43.753038 
L 427.581818 43.508921 
L 429.610909 43.672696 
L 432.654545 45.954088 
L 433.669091 45.662694 
L 435.698182 44.771344 
L 436.712727 44.705106 
L 437.727273 44.519721 
L 440.770909 38.936396 
L 441.785455 39.649977 
L 443.814545 41.517627 
L 444.829091 41.712616 
L 445.843636 41.66211 
L 448.887273 44.009933 
L 449.901818 44.944227 
L 450.916364 45.58111 
L 451.930909 45.455919 
L 452.945455 43.37719 
L 453.96 41.595871 
L 454.974545 40.576626 
L 457.003636 42.821449 
L 458.018182 44.245079 
L 459.032727 45.127376 
L 460.047273 46.380608 
L 461.061818 46.958539 
L 462.076364 46.984372 
L 463.090909 46.581311 
L 465.12 48.579395 
L 466.134545 50.236268 
L 468.163636 52.717728 
L 469.178182 53.426065 
L 470.192727 52.854841 
L 471.207273 51.300969 
L 473.236364 46.398824 
L 474.250909 44.774987 
L 475.265455 44.005959 
L 477.294545 43.451874 
L 479.323636 42.820621 
L 481.352727 42.838174 
L 484.396364 45.57283 
L 486.425455 48.165405 
L 487.44 50.740509 
L 488.454545 52.019326 
L 489.469091 53.774314 
L 490.483636 55.206639 
L 492.512727 60.103181 
L 493.527273 61.527254 
L 494.541818 62.507915 
L 495.556364 63.148496 
L 496.570909 65.961037 
L 497.585455 69.131212 
L 498.6 72.724319 
L 499.614545 75.839515 
L 500.629091 78.526893 
L 501.643636 82.344217 
L 502.658182 85.28264 
L 504.687273 90.305421 
L 505.701818 92.156649 
L 506.716364 95.714981 
L 507.730909 97.854815 
L 508.745455 100.969404 
L 509.76 102.336898 
L 510.774545 103.363264 
L 511.789091 103.775267 
L 513.818182 102.106057 
L 514.832727 100.859449 
L 515.847273 101.15156 
L 517.876364 99.332651 
L 518.890909 97.960576 
L 519.905455 96.285902 
L 522.949091 84.214682 
L 523.963636 82.731216 
L 524.978182 79.700805 
L 525.992727 78.095763 
L 527.007273 76.168554 
L 528.021818 74.783204 
L 529.036364 72.455335 
L 530.050909 69.491494 
L 531.065455 67.590835 
L 532.08 65.969317 
L 533.094545 65.305939 
L 534.109091 63.893734 
L 537.152727 58.978176 
L 538.167273 57.922665 
L 539.181818 54.598487 
L 540.196364 50.710563 
L 541.210909 44.961062 
L 542.225455 41.32192 
L 543.24 38.831739 
L 544.254545 38.673429 
L 552.370909 38.975145 
L 553.385455 39.875326 
L 554.4 41.438831 
L 555.414545 43.21485 
L 556.429091 43.879222 
L 557.443636 43.789027 
L 558.458182 43.486318 
L 561.501818 43.39466 
L 563.530909 43.880685 
L 565.56 47.424361 
L 566.574545 48.997029 
L 568.603636 48.8417 
L 570.632727 46.326734 
L 571.647273 45.006601 
L 572.661818 44.8813 
L 575.705455 43.867851 
L 578.749091 47.474537 
L 581.792727 48.079626 
L 583.821818 48.933661 
L 584.836364 49.76661 
L 586.865455 52.73851 
L 587.88 55.09097 
L 588.894545 56.40608 
L 589.909091 58.37237 
L 590.923636 59.407015 
L 591.938182 61.332954 
L 594.981818 66.188803 
L 595.996364 67.353844 
L 597.010909 68.221142 
L 598.025455 67.972842 
L 600.054545 65.546053 
L 601.069091 64.580958 
L 603.098182 65.62289 
L 604.112727 66.844742 
L 605.127273 68.933904 
L 607.156364 75.039483 
L 608.170909 76.717267 
L 610.2 80.754622 
L 611.214545 84.480574 
L 613.243636 89.813297 
L 616.287273 96.6233 
L 619.330909 105.143865 
L 620.345455 106.652446 
L 622.374545 111.170085 
L 624.403636 114.517825 
L 626.432727 115.582278 
L 630.490909 112.930972 
L 631.505455 111.684032 
L 632.52 110.065826 
L 634.549091 105.757371 
L 635.563636 104.22751 
L 636.578182 103.54691 
L 638.607273 103.231118 
L 639.621818 103.774991 
L 640.636364 103.10532 
L 641.650909 101.781544 
L 642.665455 99.323268 
L 643.68 97.799782 
L 644.694545 95.051299 
L 645.709091 92.77025 
L 646.723636 90.135614 
L 647.738182 87.88116 
L 648.752727 83.932478 
L 650.781818 77.634854 
L 651.796364 74.915212 
L 652.810909 70.504501 
L 654.84 59.118933 
L 655.854545 54.201387 
L 656.869091 48.716509 
L 657.883636 44.846525 
L 658.898182 39.086426 
L 660.927273 33.533653 
L 662.956364 34.947845 
L 663.970909 36.345256 
L 666 36.475746 
L 667.014545 35.850676 
L 668.029091 36.426343 
L 670.058182 36.973804 
L 671.072727 35.653947 
L 673.101818 33.618107 
L 675.130909 33.848617 
L 677.16 35.447946 
L 678.174545 37.038001 
L 679.189091 37.886019 
L 680.203636 38.321702 
L 682.232727 37.497033 
L 685.276364 33.93125 
L 689.334545 33.893494 
L 690.349091 34.188421 
L 692.378182 34.146138 
L 693.392727 33.83686 
L 694.407273 34.184557 
L 696.436364 34.329177 
L 697.450909 33.862527 
L 699.48 33.48 
L 700.494545 33.909557 
L 702.523636 34.140729 
L 703.538182 33.826758 
L 704.552727 35.226102 
L 706.581818 35.341854 
L 707.596364 34.000386 
L 709.625455 34.013634 
L 711.654545 35.182246 
L 712.669091 36.677663 
L 714.698182 38.590631 
L 717.741818 40.514528 
L 718.756364 40.49565 
L 720.785455 41.708476 
L 721.8 42.761337 
L 723.829091 44.193524 
L 724.843636 44.46317 
L 727.887273 45.618535 
L 728.901818 47.116849 
L 729.916364 48.882823 
L 730.930909 51.303453 
L 731.945455 52.230461 
L 733.974545 53.626437 
L 736.003636 56.017173 
L 738.032727 61.088573 
L 739.047273 64.686554 
L 740.061818 67.311585 
L 742.090909 74.767776 
L 743.105455 78.331572 
L 745.134545 82.063449 
L 746.149091 84.533731 
L 747.163636 88.57966 
L 747.163636 88.57966 
" clip-path="url(#p388cc4d86f)" style="fill: none; stroke: #1f77b4; stroke-opacity: 0.7; stroke-width: 1.5; stroke-linecap: square"/>
   </g>
   <g id="line2d_30">
    <path d="M 138.436364 183.08787 
L 139.450909 176.502347 
L 140.465455 170.661662 
L 143.509091 146.655056 
L 145.538182 132.798547 
L 147.567273 106.43035 
L 148.581818 94.743383 
L 149.596364 85.601607 
L 151.625455 71.529255 
L 152.64 65.649661 
L 153.654545 60.686225 
L 154.669091 57.092793 
L 155.683636 54.633036 
L 156.698182 52.889386 
L 158.727273 50.383753 
L 159.741818 49.715924 
L 160.756364 49.341968 
L 161.770909 49.095624 
L 162.785455 48.655786 
L 163.8 47.883125 
L 165.829091 45.915738 
L 166.843636 45.60911 
L 167.858182 45.871377 
L 168.872727 46.825862 
L 169.887273 48.314882 
L 171.916364 52.489083 
L 173.945455 57.156108 
L 174.96 59.175804 
L 175.974545 60.653 
L 176.989091 61.695179 
L 178.003636 62.30234 
L 179.018182 62.698169 
L 180.032727 62.894643 
L 181.047273 62.493908 
L 182.061818 61.211416 
L 183.076364 59.128329 
L 186.12 51.877204 
L 188.149091 46.712489 
L 189.163636 44.427581 
L 190.178182 42.71558 
L 191.192727 42.110607 
L 192.207273 42.412867 
L 193.221818 43.495313 
L 197.28 48.599698 
L 198.294545 49.674879 
L 199.309091 50.279755 
L 200.323636 50.446932 
L 203.367273 49.731837 
L 204.381818 49.625866 
L 205.396364 50.085964 
L 206.410909 51.047927 
L 207.425455 53.424148 
L 208.44 56.977744 
L 210.469091 67.185157 
L 212.498182 78.694388 
L 214.527273 92.049285 
L 215.541818 97.640661 
L 216.556364 101.599646 
L 218.585455 106.439546 
L 220.614545 110.747658 
L 221.629091 112.185571 
L 223.658182 114.590183 
L 226.701818 119.018007 
L 228.730909 121.271187 
L 229.745455 121.907307 
L 230.76 122.271213 
L 234.818182 122.8919 
L 235.832727 122.90526 
L 236.847273 123.041035 
L 237.861818 123.710689 
L 242.934545 129.541386 
L 244.963636 132.228971 
L 248.007273 135.489218 
L 249.021818 137.493033 
L 252.065455 144.93865 
L 254.094545 150.686843 
L 257.138182 160.13041 
L 260.181818 168.495893 
L 262.210909 173.51359 
L 263.225455 175.197 
L 264.24 176.46911 
L 266.269091 178.398318 
L 267.283636 179.279126 
L 268.298182 179.660948 
L 269.312727 179.520844 
L 270.327273 179.046402 
L 272.356364 178.449788 
L 273.370909 177.754211 
L 274.385455 176.462288 
L 275.4 174.909823 
L 276.414545 173.920137 
L 277.429091 173.392319 
L 278.443636 173.138779 
L 280.472727 172.069665 
L 281.487273 172.022098 
L 283.516364 172.706284 
L 285.545455 172.093328 
L 286.56 171.625477 
L 287.574545 171.004423 
L 288.589091 169.807533 
L 290.618182 166.453521 
L 291.632727 165.08861 
L 292.647273 164.642962 
L 293.661818 164.563339 
L 294.676364 165.367481 
L 295.690909 166.861229 
L 299.749091 175.080364 
L 300.763636 176.591535 
L 301.778182 177.819217 
L 302.792727 178.31585 
L 304.821818 178.980631 
L 305.836364 179.745815 
L 307.865455 182.049732 
L 308.88 183.060664 
L 309.894545 183.737097 
L 310.909091 184.181075 
L 311.923636 184.328811 
L 312.938182 184.340574 
L 315.981818 183.90824 
L 319.025455 183.941318 
L 321.054545 183.810824 
L 324.098182 183.927056 
L 327.141818 183.714212 
L 330.185455 183.651546 
L 331.2 183.330698 
L 332.214545 182.751668 
L 335.258182 180.34931 
L 336.272727 179.037287 
L 337.287273 177.234747 
L 338.301818 175.86548 
L 339.316364 175.107344 
L 340.330909 174.613525 
L 341.345455 173.918991 
L 342.36 172.750963 
L 343.374545 171.843369 
L 344.389091 171.138387 
L 345.403636 170.730934 
L 347.432727 168.924631 
L 348.447273 168.293529 
L 349.461818 168.372351 
L 352.505455 171.659581 
L 353.52 171.376509 
L 354.534545 170.338256 
L 356.563636 167.136661 
L 357.578182 165.745722 
L 358.592727 163.301034 
L 359.607273 159.935485 
L 360.621818 156.143271 
L 361.636364 153.914379 
L 362.650909 152.662321 
L 363.665455 151.892902 
L 364.68 150.876879 
L 365.694545 149.407258 
L 366.709091 148.205571 
L 367.723636 147.324322 
L 368.738182 146.928779 
L 369.752727 146.107785 
L 370.767273 145.055439 
L 374.825455 140.032928 
L 375.84 138.461817 
L 376.854545 136.450923 
L 377.869091 133.873666 
L 379.898182 127.84501 
L 381.927273 121.842146 
L 382.941818 119.565198 
L 383.956364 118.530222 
L 384.970909 118.944212 
L 385.985455 120.80717 
L 387 123.498109 
L 389.029091 129.500972 
L 392.072727 138.401769 
L 396.130909 151.065923 
L 398.16 159.04503 
L 399.174545 163.367015 
L 400.189091 167.114971 
L 401.203636 169.794702 
L 402.218182 170.804184 
L 403.232727 170.861121 
L 404.247273 170.233753 
L 405.261818 169.097656 
L 406.276364 167.488865 
L 408.305455 162.83821 
L 409.32 161.046579 
L 410.334545 160.465437 
L 411.349091 160.667224 
L 412.363636 161.027937 
L 413.378182 161.547575 
L 414.392727 161.703665 
L 415.407273 161.496207 
L 416.421818 160.82278 
L 417.436364 159.721228 
L 418.450909 157.891464 
L 419.465455 155.352761 
L 421.494545 149.458857 
L 424.538182 141.734703 
L 427.581818 132.132994 
L 429.610909 126.889173 
L 430.625455 124.492008 
L 431.64 122.544899 
L 432.654545 121.080964 
L 433.669091 120.372123 
L 434.683636 119.460855 
L 435.698182 118.347159 
L 436.712727 116.311534 
L 437.727273 113.863348 
L 438.741818 110.959277 
L 439.756364 107.573002 
L 445.843636 83.963125 
L 447.872727 75.465614 
L 450.916364 62.001996 
L 451.930909 58.307527 
L 453.96 52.304585 
L 454.974545 49.590661 
L 455.989091 47.486091 
L 457.003636 46.081273 
L 461.061818 42.920513 
L 462.076364 42.39412 
L 465.12 41.710576 
L 467.149091 40.8036 
L 468.163636 40.638795 
L 469.178182 40.829287 
L 474.250909 42.533507 
L 475.265455 42.533507 
L 477.294545 42.124596 
L 478.309091 42.088473 
L 480.338182 42.870155 
L 482.367273 44.074975 
L 483.381818 44.858485 
L 485.410909 46.768092 
L 486.425455 47.574938 
L 488.454545 48.485789 
L 489.469091 49.219002 
L 490.483636 50.295006 
L 491.498182 51.67951 
L 492.512727 52.81705 
L 493.527273 53.428537 
L 494.541818 53.480548 
L 495.556364 53.21859 
L 498.6 53.120628 
L 499.614545 52.754932 
L 500.629091 52.893066 
L 501.643636 54.324534 
L 502.658182 57.046978 
L 503.672727 60.422435 
L 504.687273 62.940265 
L 505.701818 64.695434 
L 506.716364 65.823536 
L 508.745455 69.405435 
L 509.76 71.278152 
L 511.789091 73.917157 
L 512.803636 75.714153 
L 513.818182 78.087676 
L 515.847273 83.742988 
L 516.861818 85.855786 
L 517.876364 86.96797 
L 519.905455 88.805709 
L 520.92 90.041773 
L 521.934545 91.058819 
L 522.949091 91.684093 
L 523.963636 91.980643 
L 524.978182 92.596246 
L 528.021818 95.749722 
L 529.036364 96.22635 
L 530.050909 96.56669 
L 532.08 96.877058 
L 533.094545 96.679908 
L 534.109091 96.179289 
L 537.152727 93.639782 
L 538.167273 93.173394 
L 539.181818 93.037333 
L 540.196364 93.187766 
L 541.210909 93.066334 
L 542.225455 92.508685 
L 543.24 91.579586 
L 544.254545 90.423612 
L 545.269091 89.05243 
L 547.298182 85.535691 
L 548.312727 83.800194 
L 549.327273 82.290517 
L 550.341818 81.171013 
L 551.356364 80.742731 
L 552.370909 80.817077 
L 554.4 82.056598 
L 556.429091 84.385148 
L 557.443636 85.639678 
L 558.458182 86.671826 
L 559.472727 87.164901 
L 563.530909 88.18013 
L 564.545455 88.095497 
L 565.56 88.336915 
L 566.574545 89.142711 
L 567.589091 90.386563 
L 568.603636 91.360604 
L 569.618182 91.924536 
L 570.632727 92.289231 
L 571.647273 93.007476 
L 572.661818 94.293828 
L 573.676364 95.131616 
L 574.690909 95.120241 
L 575.705455 94.303066 
L 576.72 93.877425 
L 578.749091 93.787173 
L 579.763636 93.058818 
L 580.778182 91.559656 
L 581.792727 90.316168 
L 582.807273 89.762635 
L 584.836364 90.168977 
L 585.850909 90.311502 
L 586.865455 90.732396 
L 587.88 91.529044 
L 589.909091 93.745093 
L 590.923636 95.355868 
L 591.938182 97.493336 
L 593.967273 104.108547 
L 597.010909 114.991867 
L 600.054545 125.013223 
L 601.069091 127.570655 
L 602.083636 129.290002 
L 603.098182 130.220138 
L 604.112727 131.801468 
L 605.127273 133.917448 
L 606.141818 136.56808 
L 607.156364 138.469671 
L 610.2 142.296426 
L 611.214545 143.447054 
L 612.229091 143.35229 
L 613.243636 143.387071 
L 614.258182 143.930223 
L 615.272727 145.022573 
L 616.287273 145.87724 
L 618.316364 146.098518 
L 619.330909 146.431113 
L 620.345455 147.113185 
L 621.36 146.994299 
L 622.374545 145.695631 
L 623.389091 143.731897 
L 624.403636 142.421543 
L 625.418182 142.143393 
L 626.432727 142.723103 
L 627.447273 143.643185 
L 628.461818 144.903639 
L 629.476364 146.571922 
L 630.490909 148.855031 
L 631.505455 151.54597 
L 632.52 153.71942 
L 633.534545 155.168387 
L 636.578182 157.962823 
L 638.607273 160.084525 
L 639.621818 161.762049 
L 640.636364 163.926875 
L 644.694545 175.416153 
L 645.709091 177.862616 
L 646.723636 179.834712 
L 647.738182 180.778974 
L 648.752727 181.354128 
L 649.767273 181.56166 
L 650.781818 181.654705 
L 651.796364 181.515071 
L 655.854545 179.649345 
L 656.869091 178.890698 
L 658.898182 176.609991 
L 661.941818 173.058523 
L 662.956364 171.882546 
L 663.970909 170.41553 
L 664.985455 168.328059 
L 667.014545 162.896372 
L 668.029091 160.947603 
L 669.043636 159.845628 
L 670.058182 159.847442 
L 671.072727 160.232241 
L 672.087273 161.177526 
L 673.101818 162.725239 
L 674.116364 165.021563 
L 675.130909 167.758638 
L 676.145455 169.872376 
L 677.16 171.202399 
L 678.174545 171.364635 
L 679.189091 171.154515 
L 680.203636 170.728311 
L 681.218182 170.60269 
L 682.232727 170.631467 
L 683.247273 170.858689 
L 684.261818 171.200481 
L 688.32 173.255338 
L 689.334545 173.546761 
L 690.349091 173.697503 
L 693.392727 173.497066 
L 695.421818 173.796289 
L 706.581818 178.029092 
L 707.596364 178.499319 
L 708.610909 179.138217 
L 709.625455 179.972618 
L 710.64 180.321429 
L 711.654545 180.141149 
L 715.712727 176.987798 
L 716.727273 175.943622 
L 717.741818 174.708646 
L 718.756364 173.984372 
L 719.770909 173.796289 
L 730.930909 178.029092 
L 731.945455 178.499319 
L 732.96 179.138217 
L 732.96 179.138217 
" clip-path="url(#p388cc4d86f)" style="fill: none; stroke: #ff7f0e; stroke-opacity: 0.7; stroke-width: 1.5; stroke-linecap: square"/>
   </g>
   <g id="line2d_31">
    <path d="M 138.436364 184.68 
L 139.450909 168.045713 
L 140.465455 156.154198 
L 141.48 134.157959 
L 142.494545 118.880321 
L 143.509091 107.431462 
L 144.523636 97.646194 
L 145.538182 91.70893 
L 146.552727 87.396225 
L 147.567273 84.857345 
L 148.581818 82.841385 
L 149.596364 81.718838 
L 150.610909 82.284168 
L 152.64 87.2321 
L 153.654545 89.115636 
L 155.683636 89.065436 
L 156.698182 89.281908 
L 158.727273 92.742465 
L 159.741818 94.125274 
L 161.770909 93.863278 
L 164.814545 96.548116 
L 165.829091 96.545921 
L 167.858182 96.862177 
L 168.872727 96.709818 
L 169.887273 95.299815 
L 170.901818 93.618378 
L 171.916364 89.794866 
L 173.945455 76.904969 
L 174.96 73.048302 
L 175.974545 74.35863 
L 176.989091 73.432223 
L 178.003636 71.885766 
L 179.018182 69.028983 
L 180.032727 67.493829 
L 181.047273 65.656361 
L 182.061818 63.326784 
L 183.076364 59.723948 
L 184.090909 56.854045 
L 186.12 49.795419 
L 187.134545 45.03086 
L 188.149091 41.623033 
L 189.163636 39.993144 
L 190.178182 40.197274 
L 192.207273 39.968178 
L 193.221818 39.6495 
L 196.265455 40.022099 
L 201.338182 39.889777 
L 203.367273 43.380719 
L 204.381818 48.296003 
L 205.396364 51.340042 
L 206.410909 52.293454 
L 207.425455 50.077055 
L 208.44 47.009862 
L 210.469091 44.430935 
L 211.483636 44.118039 
L 213.512727 68.786173 
L 214.527273 82.093098 
L 215.541818 83.573653 
L 216.556364 86.97206 
L 217.570909 89.905306 
L 218.585455 95.866302 
L 220.614545 102.221762 
L 221.629091 103.302892 
L 222.643636 105.319723 
L 223.658182 109.45032 
L 224.672727 112.649765 
L 225.687273 118.598479 
L 227.716364 127.278253 
L 228.730909 127.783193 
L 229.745455 128.552773 
L 231.774545 130.927494 
L 232.789091 131.345273 
L 233.803636 133.204284 
L 234.818182 138.739867 
L 235.832727 143.197894 
L 236.847273 145.461676 
L 237.861818 143.446844 
L 238.876364 142.509569 
L 239.890909 141.907528 
L 240.905455 143.417945 
L 242.934545 149.498384 
L 243.949091 152.971674 
L 244.963636 154.944585 
L 245.978182 158.004475 
L 246.992727 159.580925 
L 248.007273 162.4725 
L 250.036364 172.867314 
L 251.050909 177.447086 
L 252.065455 176.162152 
L 253.08 174.669389 
L 254.094545 168.88699 
L 257.138182 158.362891 
L 258.152727 154.712019 
L 259.167273 150.621285 
L 261.196364 149.741561 
L 263.225455 150.190407 
L 265.254545 143.721951 
L 266.269091 140.375511 
L 267.283636 138.737488 
L 269.312727 134.207925 
L 270.327273 133.295477 
L 271.341818 132.712693 
L 272.356364 130.781993 
L 273.370909 129.136983 
L 274.385455 126.648004 
L 275.4 124.61831 
L 276.414545 118.248919 
L 277.429091 113.020591 
L 278.443636 108.680893 
L 280.472727 113.178067 
L 281.487273 112.437378 
L 282.501818 109.448101 
L 283.516364 101.999876 
L 285.545455 89.994437 
L 286.56 88.450666 
L 288.589091 80.642331 
L 289.603636 72.813467 
L 291.632727 64.964074 
L 292.647273 65.855477 
L 293.661818 64.943538 
L 294.676364 60.895785 
L 295.690909 55.956629 
L 296.705455 52.820814 
L 299.749091 64.679453 
L 300.763636 62.667152 
L 302.792727 52.951113 
L 303.807273 49.554655 
L 305.836364 48.332944 
L 306.850909 46.720668 
L 308.88 42.653211 
L 309.894545 42.231759 
L 311.923636 41.892488 
L 312.938182 41.423772 
L 315.981818 39.017362 
L 316.996364 38.850969 
L 319.025455 38.866772 
L 321.054545 40.649191 
L 322.069091 41.310964 
L 323.083636 40.911697 
L 326.127273 39.100275 
L 327.141818 38.825351 
L 330.185455 38.984234 
L 333.229091 38.866937 
L 339.316364 38.841284 
L 340.330909 38.795638 
L 344.389091 38.984891 
L 347.432727 39.048309 
L 349.461818 39.021366 
L 350.476364 39.157785 
L 352.505455 39.169119 
L 353.52 39.044033 
L 355.549091 40.286002 
L 356.563636 42.439495 
L 358.592727 43.353758 
L 359.607273 42.278381 
L 360.621818 47.616554 
L 362.650909 56.219573 
L 363.665455 55.182909 
L 366.709091 72.645542 
L 367.723636 72.72168 
L 368.738182 71.650144 
L 369.752727 66.617832 
L 371.781818 52.431787 
L 372.796364 49.592525 
L 373.810909 49.030819 
L 374.825455 50.779152 
L 376.854545 54.798163 
L 377.869091 55.059335 
L 378.883636 55.820304 
L 380.912727 57.887934 
L 381.927273 59.779174 
L 382.941818 61.035702 
L 383.956364 61.988968 
L 384.970909 61.323839 
L 385.985455 59.997373 
L 388.014545 55.71751 
L 389.029091 54.600781 
L 392.072727 53.492081 
L 393.087273 53.644852 
L 394.101818 53.395565 
L 397.145455 46.753432 
L 400.189091 42.58397 
L 401.203636 43.042599 
L 403.232727 42.284523 
L 404.247273 41.446855 
L 407.290909 39.546211 
L 408.305455 39.569405 
L 409.32 39.717137 
L 411.349091 39.548631 
L 412.363636 39.328243 
L 415.407273 40.010642 
L 418.450909 42.081527 
L 419.465455 42.343437 
L 421.494545 44.665239 
L 422.509091 45.564231 
L 425.552727 48.717765 
L 426.567273 49.029461 
L 428.596364 51.708158 
L 429.610909 52.685561 
L 430.625455 52.585061 
L 433.669091 52.983435 
L 436.712727 52.280849 
L 437.727273 53.335165 
L 438.741818 53.70559 
L 439.756364 53.689796 
L 440.770909 52.619687 
L 441.785455 52.233469 
L 444.829091 50.100509 
L 445.843636 49.732104 
L 447.872727 43.487605 
L 448.887273 40.733759 
L 449.901818 43.921274 
L 451.930909 51.151669 
L 452.945455 50.989653 
L 454.974545 49.231039 
L 455.989091 48.94143 
L 457.003636 50.388358 
L 459.032727 57.411756 
L 460.047273 60.133713 
L 462.076364 60.535739 
L 463.090909 60.079565 
L 464.105455 60.217541 
L 465.12 62.564576 
L 466.134545 62.903453 
L 467.149091 63.104354 
L 468.163636 61.096196 
L 469.178182 61.144998 
L 472.221818 72.831139 
L 473.236364 72.765936 
L 475.265455 72.874599 
L 478.309091 88.532073 
L 479.323636 89.038075 
L 481.352727 90.470386 
L 482.367273 92.028124 
L 484.396364 94.723293 
L 486.425455 96.657424 
L 487.44 98.362734 
L 488.454545 95.079845 
L 489.469091 90.648788 
L 490.483636 84.397305 
L 491.498182 82.166953 
L 492.512727 81.08477 
L 493.527273 82.012746 
L 494.541818 84.499704 
L 495.556364 87.304085 
L 496.570909 89.336142 
L 497.585455 89.809217 
L 498.6 92.163114 
L 500.629091 95.802338 
L 501.643636 95.423705 
L 503.672727 98.563275 
L 504.687273 100.04403 
L 505.701818 99.595691 
L 507.730909 93.6702 
L 508.745455 90.160692 
L 510.774545 88.526611 
L 512.803636 96.209386 
L 513.818182 100.224007 
L 514.832727 99.148685 
L 516.861818 92.98446 
L 517.876364 91.324137 
L 520.92 100.862102 
L 522.949091 105.713883 
L 523.963636 108.908455 
L 524.978182 109.389711 
L 525.992727 109.60322 
L 527.007273 108.86565 
L 528.021818 108.597903 
L 529.036364 109.400131 
L 530.050909 110.910332 
L 531.065455 112.020285 
L 532.08 112.328012 
L 533.094545 111.830747 
L 536.138182 107.973459 
L 537.152727 108.566003 
L 538.167273 108.514254 
L 539.181818 106.897103 
L 540.196364 104.687407 
L 541.210909 103.122005 
L 544.254545 99.895823 
L 545.269091 99.814631 
L 546.283636 97.108167 
L 548.312727 87.18792 
L 549.327273 83.952806 
L 550.341818 83.011946 
L 551.356364 80.997157 
L 553.385455 73.685409 
L 554.4 71.103463 
L 557.443636 67.73192 
L 560.487273 58.253191 
L 563.530909 61.995862 
L 565.56 58.584694 
L 566.574545 55.86836 
L 568.603636 53.476076 
L 569.618182 53.295613 
L 571.647273 53.441552 
L 572.661818 53.853614 
L 573.676364 53.411149 
L 574.690909 50.920572 
L 575.705455 48.127043 
L 576.72 46.151215 
L 577.734545 48.821939 
L 578.749091 53.843226 
L 580.778182 65.380999 
L 581.792727 68.078097 
L 582.807273 69.985034 
L 583.821818 69.306368 
L 586.865455 75.22537 
L 587.88 76.295467 
L 588.894545 78.779594 
L 589.909091 85.023542 
L 591.938182 95.543207 
L 592.952727 95.131978 
L 593.967273 94.55799 
L 594.981818 91.959998 
L 597.010909 90.432938 
L 598.025455 93.562763 
L 599.04 98.099167 
L 600.054545 101.606009 
L 601.069091 101.690094 
L 602.083636 100.3676 
L 603.098182 99.271189 
L 605.127273 95.602985 
L 606.141818 94.572362 
L 607.156364 96.118461 
L 608.170909 98.763174 
L 611.214545 115.288933 
L 612.229091 118.781026 
L 613.243636 118.429207 
L 614.258182 111.660069 
L 615.272727 104.119372 
L 616.287273 99.349682 
L 617.301818 102.645165 
L 618.316364 107.576197 
L 619.330909 113.10836 
L 620.345455 113.886317 
L 621.36 113.028724 
L 622.374545 111.57 
L 624.403636 121.403577 
L 625.418182 123.110268 
L 627.447273 115.915881 
L 628.461818 115.528784 
L 629.476364 117.681325 
L 630.490909 120.83195 
L 631.505455 123.322938 
L 632.52 123.661384 
L 633.534545 122.738755 
L 635.563636 118.906939 
L 636.578182 117.254023 
L 637.592727 118.81412 
L 640.636364 124.310638 
L 641.650909 124.446114 
L 642.665455 124.415163 
L 643.68 123.36726 
L 644.694545 123.601228 
L 647.738182 133.464737 
L 648.752727 131.848189 
L 650.781818 127.503845 
L 651.796364 125.917138 
L 653.825455 121.819893 
L 654.84 120.889439 
L 656.869091 120.579604 
L 657.883636 120.038265 
L 659.912727 113.139787 
L 660.927273 110.231887 
L 661.941818 111.990787 
L 662.956364 104.070709 
L 663.970909 94.245479 
L 664.985455 82.661348 
L 666 80.756195 
L 667.014545 82.780563 
L 669.043636 78.293475 
L 671.072727 69.510687 
L 673.101818 61.232263 
L 674.116364 63.389085 
L 675.130909 64.768694 
L 676.145455 65.663153 
L 677.16 59.664766 
L 679.189091 49.707569 
L 681.218182 53.487158 
L 682.232727 53.827688 
L 683.247273 52.278423 
L 684.261818 49.446143 
L 685.276364 47.760983 
L 686.290909 44.746011 
L 687.305455 43.014054 
L 688.32 41.684243 
L 689.334545 41.717584 
L 690.349091 43.386749 
L 691.363636 42.275711 
L 692.378182 40.550377 
L 693.392727 37.189218 
L 694.407273 36.608263 
L 697.450909 37.316766 
L 700.494545 37.36452 
L 701.509091 37.397206 
L 703.538182 37.742675 
L 705.567273 38.277366 
L 706.581818 38.495995 
L 708.610909 38.359138 
L 709.625455 38.25306 
L 711.654545 38.595222 
L 713.683636 39.291173 
L 719.770909 41.555579 
L 721.8 41.827447 
L 723.829091 42.858412 
L 724.843636 43.620872 
L 726.872727 42.824947 
L 727.887273 42.180007 
L 728.901818 45.126584 
L 730.930909 52.003727 
L 731.945455 52.618347 
L 733.974545 52.863598 
L 740.061818 63.046956 
L 741.076364 63.16163 
L 741.076364 63.16163 
" clip-path="url(#p388cc4d86f)" style="fill: none; stroke: #2ca02c; stroke-opacity: 0.7; stroke-width: 1.5; stroke-linecap: square"/>
   </g>
   <g id="patch_3">
    <path d="M 108 192.24 
L 108 25.92 
" style="fill: none; stroke: #000000; stroke-width: 0.8; stroke-linejoin: miter; stroke-linecap: square"/>
   </g>
   <g id="patch_4">
    <path d="M 777.6 192.24 
L 777.6 25.92 
" style="fill: none; stroke: #000000; stroke-width: 0.8; stroke-linejoin: miter; stroke-linecap: square"/>
   </g>
   <g id="patch_5">
    <path d="M 108 192.24 
L 777.6 192.24 
" style="fill: none; stroke: #000000; stroke-width: 0.8; stroke-linejoin: miter; stroke-linecap: square"/>
   </g>
   <g id="patch_6">
    <path d="M 108 25.92 
L 777.6 25.92 
" style="fill: none; stroke: #000000; stroke-width: 0.8; stroke-linejoin: miter; stroke-linecap: square"/>
   </g>
   <g id="legend_1">
    <g id="patch_7">
     <path d="M 703.6125 131.797969 
L 770.6 131.797969 
Q 772.6 131.797969 772.6 129.797969 
L 772.6 88.362031 
Q 772.6 86.362031 770.6 86.362031 
L 703.6125 86.362031 
Q 701.6125 86.362031 701.6125 88.362031 
L 701.6125 129.797969 
Q 701.6125 131.797969 703.6125 131.797969 
z
" style="fill: #ffffff; opacity: 0.8; stroke: #cccccc; stroke-linejoin: miter"/>
    </g>
    <g id="line2d_32">
     <path d="M 705.6125 93.862031 
L 715.6125 93.862031 
L 725.6125 93.862031 
" style="fill: none; stroke: #1f77b4; stroke-opacity: 0.7; stroke-width: 1.5; stroke-linecap: square"/>
    </g>
    <g id="text_17">
     <!-- bola -->
     <g transform="translate(733.6125 97.362031) scale(0.1 -0.1)">
      <defs>
       <path id="TimesNewRomanPSMT-62" d="M 984 2369 
Q 1400 2947 1881 2947 
Q 2322 2947 2650 2570 
Q 2978 2194 2978 1541 
Q 2978 778 2472 313 
Q 2038 -88 1503 -88 
Q 1253 -88 995 3 
Q 738 94 469 275 
L 469 3241 
Q 469 3728 445 3840 
Q 422 3953 372 3993 
Q 322 4034 247 4034 
Q 159 4034 28 3984 
L -16 4094 
L 844 4444 
L 984 4444 
L 984 2369 
z
M 984 2169 
L 984 456 
Q 1144 300 1314 220 
Q 1484 141 1663 141 
Q 1947 141 2192 453 
Q 2438 766 2438 1363 
Q 2438 1913 2192 2208 
Q 1947 2503 1634 2503 
Q 1469 2503 1303 2419 
Q 1178 2356 984 2169 
z
" transform="scale(0.015625)"/>
       <path id="TimesNewRomanPSMT-6f" d="M 1600 2947 
Q 2250 2947 2644 2453 
Q 2978 2031 2978 1484 
Q 2978 1100 2793 706 
Q 2609 313 2286 112 
Q 1963 -88 1566 -88 
Q 919 -88 538 428 
Q 216 863 216 1403 
Q 216 1797 411 2186 
Q 606 2575 925 2761 
Q 1244 2947 1600 2947 
z
M 1503 2744 
Q 1338 2744 1170 2645 
Q 1003 2547 900 2300 
Q 797 2053 797 1666 
Q 797 1041 1045 587 
Q 1294 134 1700 134 
Q 2003 134 2200 384 
Q 2397 634 2397 1244 
Q 2397 2006 2069 2444 
Q 1847 2744 1503 2744 
z
" transform="scale(0.015625)"/>
       <path id="TimesNewRomanPSMT-6c" d="M 1184 4444 
L 1184 647 
Q 1184 378 1223 290 
Q 1263 203 1344 158 
Q 1425 113 1647 113 
L 1647 0 
L 244 0 
L 244 113 
Q 441 113 512 153 
Q 584 194 625 287 
Q 666 381 666 647 
L 666 3247 
Q 666 3731 644 3842 
Q 622 3953 573 3993 
Q 525 4034 450 4034 
Q 369 4034 244 3984 
L 191 4094 
L 1044 4444 
L 1184 4444 
z
" transform="scale(0.015625)"/>
       <path id="TimesNewRomanPSMT-61" d="M 1822 413 
Q 1381 72 1269 19 
Q 1100 -59 909 -59 
Q 613 -59 420 144 
Q 228 347 228 678 
Q 228 888 322 1041 
Q 450 1253 767 1440 
Q 1084 1628 1822 1897 
L 1822 2009 
Q 1822 2438 1686 2597 
Q 1550 2756 1291 2756 
Q 1094 2756 978 2650 
Q 859 2544 859 2406 
L 866 2225 
Q 866 2081 792 2003 
Q 719 1925 600 1925 
Q 484 1925 411 2006 
Q 338 2088 338 2228 
Q 338 2497 613 2722 
Q 888 2947 1384 2947 
Q 1766 2947 2009 2819 
Q 2194 2722 2281 2516 
Q 2338 2381 2338 1966 
L 2338 994 
Q 2338 584 2353 492 
Q 2369 400 2405 369 
Q 2441 338 2488 338 
Q 2538 338 2575 359 
Q 2641 400 2828 588 
L 2828 413 
Q 2478 -56 2159 -56 
Q 2006 -56 1915 50 
Q 1825 156 1822 413 
z
M 1822 616 
L 1822 1706 
Q 1350 1519 1213 1441 
Q 966 1303 859 1153 
Q 753 1003 753 825 
Q 753 600 887 451 
Q 1022 303 1197 303 
Q 1434 303 1822 616 
z
" transform="scale(0.015625)"/>
      </defs>
      <use xlink:href="#TimesNewRomanPSMT-62"/>
      <use xlink:href="#TimesNewRomanPSMT-6f" x="50"/>
      <use xlink:href="#TimesNewRomanPSMT-6c" x="100"/>
      <use xlink:href="#TimesNewRomanPSMT-61" x="127.783203"/>
     </g>
    </g>
    <g id="line2d_33">
     <path d="M 705.6125 108.001094 
L 715.6125 108.001094 
L 725.6125 108.001094 
" style="fill: none; stroke: #ff7f0e; stroke-opacity: 0.7; stroke-width: 1.5; stroke-linecap: square"/>
    </g>
    <g id="text_18">
     <!-- comyco -->
     <g transform="translate(733.6125 111.501094) scale(0.1 -0.1)">
      <defs>
       <path id="TimesNewRomanPSMT-63" d="M 2631 1088 
Q 2516 522 2178 217 
Q 1841 -88 1431 -88 
Q 944 -88 581 321 
Q 219 731 219 1428 
Q 219 2103 620 2525 
Q 1022 2947 1584 2947 
Q 2006 2947 2278 2723 
Q 2550 2500 2550 2259 
Q 2550 2141 2473 2067 
Q 2397 1994 2259 1994 
Q 2075 1994 1981 2113 
Q 1928 2178 1911 2362 
Q 1894 2547 1784 2644 
Q 1675 2738 1481 2738 
Q 1169 2738 978 2506 
Q 725 2200 725 1697 
Q 725 1184 976 792 
Q 1228 400 1656 400 
Q 1963 400 2206 609 
Q 2378 753 2541 1131 
L 2631 1088 
z
" transform="scale(0.015625)"/>
       <path id="TimesNewRomanPSMT-79" d="M 38 2863 
L 1372 2863 
L 1372 2747 
L 1306 2747 
Q 1166 2747 1095 2686 
Q 1025 2625 1025 2534 
Q 1025 2413 1128 2197 
L 1825 753 
L 2466 2334 
Q 2519 2463 2519 2588 
Q 2519 2644 2497 2672 
Q 2472 2706 2419 2726 
Q 2366 2747 2231 2747 
L 2231 2863 
L 3163 2863 
L 3163 2747 
Q 3047 2734 2984 2696 
Q 2922 2659 2847 2556 
Q 2819 2513 2741 2316 
L 1575 -541 
Q 1406 -956 1132 -1168 
Q 859 -1381 606 -1381 
Q 422 -1381 303 -1275 
Q 184 -1169 184 -1031 
Q 184 -900 270 -820 
Q 356 -741 506 -741 
Q 609 -741 788 -809 
Q 913 -856 944 -856 
Q 1038 -856 1148 -759 
Q 1259 -663 1372 -384 
L 1575 113 
L 547 2272 
Q 500 2369 397 2513 
Q 319 2622 269 2659 
Q 197 2709 38 2747 
L 38 2863 
z
" transform="scale(0.015625)"/>
      </defs>
      <use xlink:href="#TimesNewRomanPSMT-63"/>
      <use xlink:href="#TimesNewRomanPSMT-6f" x="44.384766"/>
      <use xlink:href="#TimesNewRomanPSMT-6d" x="94.384766"/>
      <use xlink:href="#TimesNewRomanPSMT-79" x="172.167969"/>
      <use xlink:href="#TimesNewRomanPSMT-63" x="222.167969"/>
      <use xlink:href="#TimesNewRomanPSMT-6f" x="266.552734"/>
     </g>
    </g>
    <g id="line2d_34">
     <path d="M 705.6125 122.158906 
L 715.6125 122.158906 
L 725.6125 122.158906 
" style="fill: none; stroke: #2ca02c; stroke-opacity: 0.7; stroke-width: 1.5; stroke-linecap: square"/>
    </g>
    <g id="text_19">
     <!-- pensieve -->
     <g transform="translate(733.6125 125.658906) scale(0.1 -0.1)">
      <defs>
       <path id="TimesNewRomanPSMT-70" d="M -6 2578 
L 875 2934 
L 994 2934 
L 994 2266 
Q 1216 2644 1439 2795 
Q 1663 2947 1909 2947 
Q 2341 2947 2628 2609 
Q 2981 2197 2981 1534 
Q 2981 794 2556 309 
Q 2206 -88 1675 -88 
Q 1444 -88 1275 -22 
Q 1150 25 994 166 
L 994 -706 
Q 994 -1000 1030 -1079 
Q 1066 -1159 1155 -1206 
Q 1244 -1253 1478 -1253 
L 1478 -1369 
L -22 -1369 
L -22 -1253 
L 56 -1253 
Q 228 -1256 350 -1188 
Q 409 -1153 442 -1076 
Q 475 -1000 475 -688 
L 475 2019 
Q 475 2297 450 2372 
Q 425 2447 370 2484 
Q 316 2522 222 2522 
Q 147 2522 31 2478 
L -6 2578 
z
M 994 2081 
L 994 1013 
Q 994 666 1022 556 
Q 1066 375 1236 237 
Q 1406 100 1666 100 
Q 1978 100 2172 344 
Q 2425 663 2425 1241 
Q 2425 1897 2138 2250 
Q 1938 2494 1663 2494 
Q 1513 2494 1366 2419 
Q 1253 2363 994 2081 
z
" transform="scale(0.015625)"/>
       <path id="TimesNewRomanPSMT-6e" d="M 1034 2341 
Q 1538 2947 1994 2947 
Q 2228 2947 2397 2830 
Q 2566 2713 2666 2444 
Q 2734 2256 2734 1869 
L 2734 647 
Q 2734 375 2778 278 
Q 2813 200 2889 156 
Q 2966 113 3172 113 
L 3172 0 
L 1756 0 
L 1756 113 
L 1816 113 
Q 2016 113 2095 173 
Q 2175 234 2206 353 
Q 2219 400 2219 647 
L 2219 1819 
Q 2219 2209 2117 2386 
Q 2016 2563 1775 2563 
Q 1403 2563 1034 2156 
L 1034 647 
Q 1034 356 1069 288 
Q 1113 197 1189 155 
Q 1266 113 1500 113 
L 1500 0 
L 84 0 
L 84 113 
L 147 113 
Q 366 113 442 223 
Q 519 334 519 647 
L 519 1709 
Q 519 2225 495 2337 
Q 472 2450 423 2490 
Q 375 2531 294 2531 
Q 206 2531 84 2484 
L 38 2597 
L 900 2947 
L 1034 2947 
L 1034 2341 
z
" transform="scale(0.015625)"/>
       <path id="TimesNewRomanPSMT-76" d="M 53 2863 
L 1400 2863 
L 1400 2747 
L 1313 2747 
Q 1191 2747 1127 2687 
Q 1063 2628 1063 2528 
Q 1063 2419 1128 2269 
L 1794 688 
L 2463 2328 
Q 2534 2503 2534 2594 
Q 2534 2638 2509 2666 
Q 2475 2713 2422 2730 
Q 2369 2747 2206 2747 
L 2206 2863 
L 3141 2863 
L 3141 2747 
Q 2978 2734 2916 2681 
Q 2806 2588 2719 2369 
L 1703 -88 
L 1575 -88 
L 553 2328 
Q 484 2497 421 2570 
Q 359 2644 263 2694 
Q 209 2722 53 2747 
L 53 2863 
z
" transform="scale(0.015625)"/>
      </defs>
      <use xlink:href="#TimesNewRomanPSMT-70"/>
      <use xlink:href="#TimesNewRomanPSMT-65" x="50"/>
      <use xlink:href="#TimesNewRomanPSMT-6e" x="94.384766"/>
      <use xlink:href="#TimesNewRomanPSMT-73" x="144.384766"/>
      <use xlink:href="#TimesNewRomanPSMT-69" x="183.300781"/>
      <use xlink:href="#TimesNewRomanPSMT-65" x="211.083984"/>
      <use xlink:href="#TimesNewRomanPSMT-76" x="255.46875"/>
      <use xlink:href="#TimesNewRomanPSMT-65" x="305.46875"/>
     </g>
    </g>
   </g>
  </g>
 </g>
 <defs>
  <clipPath id="p388cc4d86f">
   <rect x="108" y="25.92" width="669.6" height="166.32"/>
  </clipPath>
 </defs>
</svg>
