<?xml version="1.0" encoding="utf-8" standalone="no"?>
<!DOCTYPE svg PUBLIC "-//W3C//DTD SVG 1.1//EN"
  "http://www.w3.org/Graphics/SVG/1.1/DTD/svg11.dtd">
<svg xmlns:xlink="http://www.w3.org/1999/xlink" width="864pt" height="252pt" viewBox="0 0 864 252" xmlns="http://www.w3.org/2000/svg" version="1.1">
 <metadata>
  <rdf:RDF xmlns:dc="http://purl.org/dc/elements/1.1/" xmlns:cc="http://creativecommons.org/ns#" xmlns:rdf="http://www.w3.org/1999/02/22-rdf-syntax-ns#">
   <cc:Work>
    <dc:type rdf:resource="http://purl.org/dc/dcmitype/StillImage"/>
    <dc:date>2024-04-13T13:55:52.481277</dc:date>
    <dc:format>image/svg+xml</dc:format>
    <dc:creator>
     <cc:Agent>
      <dc:title>Matplotlib v3.8.3, https://matplotlib.org/</dc:title>
     </cc:Agent>
    </dc:creator>
   </cc:Work>
  </rdf:RDF>
 </metadata>
 <defs>
  <style type="text/css">*{stroke-linejoin: round; stroke-linecap: butt}</style>
 </defs>
 <g id="figure_1">
  <g id="patch_1">
   <path d="M 0 252 
L 864 252 
L 864 0 
L 0 0 
z
" style="fill: #ffffff"/>
  </g>
  <g id="axes_1">
   <g id="patch_2">
    <path d="M 108 224.28 
L 777.6 224.28 
L 777.6 30.24 
L 108 30.24 
z
" style="fill: #ffffff"/>
   </g>
   <g id="PolyCollection_1">
    <path d="M 140.962203 215.339125 
L 140.962203 143.08327 
L 143.488042 143.08327 
L 146.013882 143.08327 
L 148.539721 140.902237 
L 151.06556 138.721205 
L 153.591399 136.540172 
L 156.117239 144.981807 
L 158.643078 144.999238 
L 161.168917 145.016669 
L 163.694757 136.592464 
L 166.220596 140.306277 
L 168.746435 144.02009 
L 171.272275 147.733903 
L 173.798114 146.094746 
L 176.323953 144.45559 
L 178.849793 142.816433 
L 181.375632 148.025772 
L 183.901471 140.347685 
L 186.42731 130.136085 
L 188.95315 104.581093 
L 191.478989 91.913527 
L 194.004828 81.779475 
L 196.530668 86.846501 
L 199.056507 95.291545 
L 201.582346 103.736589 
L 204.108186 111.008432 
L 206.634025 116.844119 
L 209.159864 122.679806 
L 211.685704 128.19185 
L 214.211543 124.045172 
L 216.737382 109.764441 
L 219.263221 91.913527 
L 221.789061 81.779475 
L 224.3149 81.779475 
L 226.840739 81.779475 
L 229.366579 88.679953 
L 231.892418 95.013736 
L 231.892418 95.651944 
L 231.892418 95.651944 
L 229.366579 100.004698 
L 226.840739 104.432157 
L 224.3149 108.922186 
L 221.789061 113.462478 
L 219.263221 118.040587 
L 216.737382 122.643966 
L 214.211543 127.259998 
L 211.685704 131.876029 
L 209.159864 136.479409 
L 206.634025 141.057518 
L 204.108186 145.597809 
L 201.582346 150.087838 
L 199.056507 154.515297 
L 196.530668 158.868052 
L 194.004828 163.134171 
L 191.478989 167.301961 
L 188.95315 171.359999 
L 186.42731 175.297162 
L 183.901471 179.102658 
L 181.375632 182.766058 
L 178.849793 186.277319 
L 176.323953 189.626817 
L 173.798114 192.805373 
L 171.272275 195.804273 
L 168.746435 198.615298 
L 166.220596 201.230744 
L 163.694757 203.64344 
L 161.168917 205.846775 
L 158.643078 207.834709 
L 156.117239 209.601793 
L 153.591399 211.143185 
L 151.06556 212.454658 
L 148.539721 213.532618 
L 146.013882 214.374112 
L 143.488042 214.976831 
L 140.962203 215.339125 
z
" clip-path="url(#p5c07e04280)" style="fill: #808080; fill-opacity: 0.3"/>
    <path d="M 350.606865 100.004698 
L 350.606865 94.44704 
L 353.132705 92.758032 
L 355.658544 91.069023 
L 358.184383 89.380014 
L 360.710223 86.846501 
L 363.236062 84.312988 
L 365.761901 81.779475 
L 368.28774 84.946366 
L 370.81358 88.113258 
L 373.339419 93.180284 
L 375.865258 94.235914 
L 378.391098 95.291545 
L 380.916937 94.44704 
L 383.442776 94.44704 
L 385.968616 98.669562 
L 388.494455 102.892084 
L 391.020294 107.114606 
L 393.546134 111.337128 
L 396.071973 115.55965 
L 398.597812 126.115954 
L 401.123651 132.449737 
L 403.649491 132.449737 
L 406.17533 126.115954 
L 408.701169 119.782172 
L 411.227009 123.540259 
L 413.752848 127.298346 
L 416.278687 127.298346 
L 418.804527 123.540259 
L 421.330366 119.782172 
L 423.856205 119.782172 
L 426.382045 119.782172 
L 428.907884 119.782172 
L 431.433723 119.782172 
L 433.959562 119.782172 
L 436.485402 124.96552 
L 439.011241 124.96552 
L 441.53708 124.96552 
L 444.06292 119.782172 
L 446.588759 119.782172 
L 449.114598 128.74278 
L 451.640438 133.929963 
L 454.166277 139.117146 
L 456.692116 135.34372 
L 459.217955 135.51245 
L 461.743795 133.106398 
L 464.269634 130.700346 
L 466.795473 128.125563 
L 469.321313 131.744868 
L 471.847152 138.156031 
L 474.372991 140.379292 
L 476.898831 138.983248 
L 479.42467 134.795346 
L 481.950509 133.807889 
L 484.476349 132.820433 
L 487.002188 131.832976 
L 489.528027 132.422894 
L 492.053866 130.372654 
L 494.579706 128.083502 
L 497.105545 120.525288 
L 499.631384 115.607229 
L 502.157224 110.928084 
L 504.683063 104.831186 
L 507.208902 98.734287 
L 509.734742 92.637388 
L 512.260581 92.637388 
L 514.78642 92.637388 
L 517.31226 92.637388 
L 519.838099 92.637388 
L 522.363938 92.637388 
L 524.889777 93.240606 
L 527.415617 89.621301 
L 529.941456 86.001997 
L 532.467295 81.779475 
L 534.993135 85.746345 
L 537.518974 89.713214 
L 537.518974 91.385825 
L 537.518974 91.385825 
L 534.993135 95.651944 
L 532.467295 100.004698 
L 529.941456 104.432157 
L 527.415617 108.922186 
L 524.889777 113.462478 
L 522.363938 118.040587 
L 519.838099 122.643966 
L 517.31226 127.259998 
L 514.78642 131.876029 
L 512.260581 136.479409 
L 509.734742 141.057518 
L 507.208902 145.597809 
L 504.683063 150.087838 
L 502.157224 154.515297 
L 499.631384 158.868052 
L 497.105545 163.134171 
L 494.579706 167.301961 
L 492.053866 171.359999 
L 489.528027 175.297162 
L 487.002188 179.102658 
L 484.476349 182.766058 
L 481.950509 186.277319 
L 479.42467 189.626817 
L 476.898831 192.805373 
L 474.372991 195.804273 
L 471.847152 198.615298 
L 469.321313 201.230744 
L 466.795473 203.64344 
L 464.269634 205.846775 
L 461.743795 207.834709 
L 459.217955 209.601793 
L 456.692116 211.143185 
L 454.166277 212.454658 
L 451.640438 213.532618 
L 449.114598 214.374112 
L 446.588759 214.976831 
L 444.06292 215.339125 
L 441.53708 215.46 
L 439.011241 215.339125 
L 436.485402 214.976831 
L 433.959562 214.374112 
L 431.433723 213.532618 
L 428.907884 212.454658 
L 426.382045 211.143185 
L 423.856205 209.601793 
L 421.330366 207.834709 
L 418.804527 205.846775 
L 416.278687 203.64344 
L 413.752848 201.230744 
L 411.227009 198.615298 
L 408.701169 195.804273 
L 406.17533 192.805373 
L 403.649491 189.626817 
L 401.123651 186.277319 
L 398.597812 182.766058 
L 396.071973 179.102658 
L 393.546134 175.297162 
L 391.020294 171.359999 
L 388.494455 167.301961 
L 385.968616 163.134171 
L 383.442776 158.868052 
L 380.916937 154.515297 
L 378.391098 150.087838 
L 375.865258 145.597809 
L 373.339419 141.057518 
L 370.81358 136.479409 
L 368.28774 131.876029 
L 365.761901 127.259998 
L 363.236062 122.643966 
L 360.710223 118.040587 
L 358.184383 113.462478 
L 355.658544 108.922186 
L 353.132705 104.432157 
L 350.606865 100.004698 
z
" clip-path="url(#p5c07e04280)" style="fill: #808080; fill-opacity: 0.3"/>
    <path d="M 646.130064 87.218035 
L 646.130064 84.312988 
L 648.655903 81.779475 
L 651.181743 81.779475 
L 653.707582 81.779475 
L 656.233421 81.779475 
L 658.759261 81.779475 
L 661.2851 81.779475 
L 663.810939 81.779475 
L 666.336779 81.779475 
L 668.862618 81.779475 
L 671.388457 81.779475 
L 673.914296 81.779475 
L 676.440136 81.779475 
L 678.965975 81.779475 
L 681.491814 81.779475 
L 684.017654 85.543372 
L 686.543493 87.166764 
L 689.069332 88.790155 
L 691.595172 86.649649 
L 694.121011 87.329451 
L 696.64685 87.329451 
L 699.17269 87.329451 
L 701.698529 85.026258 
L 704.224368 83.402866 
L 706.750207 81.779475 
L 709.276047 84.082669 
L 711.801886 92.527712 
L 714.327725 100.972756 
L 716.853565 107.114606 
L 719.379404 107.114606 
L 721.905243 107.114606 
L 724.431083 107.114606 
L 726.956922 107.114606 
L 729.482761 100.972756 
L 732.008601 94.830906 
L 734.53444 88.689056 
L 737.060279 94.830906 
L 739.586118 100.972756 
L 742.111958 110.63728 
L 744.637797 114.159954 
L 747.163636 117.682628 
L 747.163636 215.339125 
L 747.163636 215.339125 
L 744.637797 215.46 
L 742.111958 215.339125 
L 739.586118 214.976831 
L 737.060279 214.374112 
L 734.53444 213.532618 
L 732.008601 212.454658 
L 729.482761 211.143185 
L 726.956922 209.601793 
L 724.431083 207.834709 
L 721.905243 205.846775 
L 719.379404 203.64344 
L 716.853565 201.230744 
L 714.327725 198.615298 
L 711.801886 195.804273 
L 709.276047 192.805373 
L 706.750207 189.626817 
L 704.224368 186.277319 
L 701.698529 182.766058 
L 699.17269 179.102658 
L 696.64685 175.297162 
L 694.121011 171.359999 
L 691.595172 167.301961 
L 689.069332 163.134171 
L 686.543493 158.868052 
L 684.017654 154.515297 
L 681.491814 150.087838 
L 678.965975 145.597809 
L 676.440136 141.057518 
L 673.914296 136.479409 
L 671.388457 131.876029 
L 668.862618 127.259998 
L 666.336779 122.643966 
L 663.810939 118.040587 
L 661.2851 113.462478 
L 658.759261 108.922186 
L 656.233421 104.432157 
L 653.707582 100.004698 
L 651.181743 95.651944 
L 648.655903 91.385825 
L 646.130064 87.218035 
z
" clip-path="url(#p5c07e04280)" style="fill: #808080; fill-opacity: 0.3"/>
   </g>
   <g id="PolyCollection_2">
    <path d="M 234.418257 101.347519 
L 234.418257 91.385825 
L 236.944097 87.218035 
L 239.469936 83.159997 
L 241.995775 79.222834 
L 244.521614 77.407823 
L 247.047454 77.407823 
L 249.573293 77.407823 
L 252.099132 77.407823 
L 254.624972 77.407823 
L 257.150811 77.407823 
L 259.67665 77.407823 
L 262.20249 77.407823 
L 264.728329 77.407823 
L 267.254168 77.407823 
L 269.780008 77.407823 
L 272.305847 77.407823 
L 274.831686 77.407823 
L 277.357525 77.407823 
L 279.883365 77.407823 
L 282.409204 77.407823 
L 284.935043 77.407823 
L 287.460883 77.407823 
L 289.986722 77.407823 
L 292.512561 77.407823 
L 295.038401 77.407823 
L 297.56424 77.407823 
L 300.090079 77.407823 
L 302.615919 77.407823 
L 305.141758 77.407823 
L 307.667597 77.407823 
L 310.193436 77.407823 
L 312.719276 77.407823 
L 315.245115 77.407823 
L 317.770954 77.407823 
L 320.296794 77.407823 
L 322.822633 77.407823 
L 325.348472 77.407823 
L 327.874312 77.407823 
L 330.400151 77.407823 
L 332.92599 77.407823 
L 335.451829 77.407823 
L 337.977669 79.222834 
L 340.503508 83.159997 
L 343.029347 87.218035 
L 345.555187 91.385825 
L 348.081026 95.651944 
L 348.081026 98.594803 
L 348.081026 98.594803 
L 345.555187 102.045043 
L 343.029347 104.732102 
L 340.503508 103.271398 
L 337.977669 102.508219 
L 335.451829 104.811412 
L 332.92599 105.880918 
L 330.400151 106.950424 
L 327.874312 105.716736 
L 325.348472 108.674084 
L 322.822633 111.021379 
L 320.296794 113.368673 
L 317.770954 112.75862 
L 315.245115 114.00689 
L 312.719276 112.066814 
L 310.193436 109.027271 
L 307.667597 104.739458 
L 305.141758 103.639992 
L 302.615919 106.193365 
L 300.090079 104.856831 
L 297.56424 103.520296 
L 295.038401 99.630388 
L 292.512561 100.689602 
L 289.986722 101.748815 
L 287.460883 102.808029 
L 284.935043 103.428131 
L 282.409204 103.428131 
L 279.883365 101.593971 
L 277.357525 93.964352 
L 274.831686 86.954834 
L 272.305847 81.779475 
L 269.780008 81.779475 
L 267.254168 81.779475 
L 264.728329 84.59449 
L 262.20249 87.409504 
L 259.67665 93.476595 
L 257.150811 98.59532 
L 254.624972 107.162509 
L 252.099132 110.302731 
L 249.573293 108.702774 
L 247.047454 103.654354 
L 244.521614 100.780823 
L 241.995775 100.780823 
L 239.469936 100.780823 
L 236.944097 100.780823 
L 234.418257 101.347519 
z
" clip-path="url(#p5c07e04280)" style="fill: #808080; fill-opacity: 0.3"/>
    <path d="M 540.044813 98.638671 
L 540.044813 87.218035 
L 542.570653 83.159997 
L 545.096492 79.222834 
L 547.622331 77.407823 
L 550.148171 77.407823 
L 552.67401 77.407823 
L 555.199849 77.407823 
L 557.725688 77.407823 
L 560.251528 77.407823 
L 562.777367 77.407823 
L 565.303206 77.407823 
L 567.829046 77.407823 
L 570.354885 77.407823 
L 572.880724 77.407823 
L 575.406564 77.407823 
L 577.932403 77.407823 
L 580.458242 77.407823 
L 582.984081 77.407823 
L 585.509921 77.407823 
L 588.03576 77.407823 
L 590.561599 77.407823 
L 593.087439 77.407823 
L 595.613278 77.407823 
L 598.139117 77.407823 
L 600.664957 77.407823 
L 603.190796 77.407823 
L 605.716635 77.407823 
L 608.242475 77.407823 
L 610.768314 77.407823 
L 613.294153 77.407823 
L 615.819992 77.407823 
L 618.345832 77.407823 
L 620.871671 77.407823 
L 623.39751 77.407823 
L 625.92335 77.407823 
L 628.449189 77.407823 
L 630.975028 77.407823 
L 633.500868 77.407823 
L 636.026707 77.407823 
L 638.552546 77.407823 
L 641.078386 79.222834 
L 643.604225 83.159997 
L 643.604225 86.846501 
L 643.604225 86.846501 
L 641.078386 89.380014 
L 638.552546 86.846501 
L 636.026707 84.312988 
L 633.500868 81.779475 
L 630.975028 84.312988 
L 628.449189 84.312988 
L 625.92335 84.312988 
L 623.39751 81.779475 
L 620.871671 81.779475 
L 618.345832 86.379794 
L 615.819992 90.980113 
L 613.294153 99.114113 
L 610.768314 101.35249 
L 608.242475 102.73603 
L 605.716635 100.585888 
L 603.190796 99.731051 
L 600.664957 99.731051 
L 598.139117 93.747193 
L 595.613278 87.763334 
L 593.087439 81.779475 
L 590.561599 87.763334 
L 588.03576 93.747193 
L 585.509921 99.731051 
L 582.984081 100.585888 
L 580.458242 98.568899 
L 577.932403 92.58504 
L 575.406564 85.746345 
L 572.880724 81.779475 
L 570.354885 81.779475 
L 567.829046 81.779475 
L 565.303206 81.779475 
L 562.777367 81.779475 
L 560.251528 81.779475 
L 557.725688 87.694171 
L 555.199849 92.86953 
L 552.67401 98.044888 
L 550.148171 97.305551 
L 547.622331 101.76828 
L 545.096492 105.518378 
L 542.570653 104.309889 
L 540.044813 98.638671 
z
" clip-path="url(#p5c07e04280)" style="fill: #808080; fill-opacity: 0.3"/>
   </g>
   <g id="matplotlib.axis_1">
    <g id="xtick_1">
     <g id="line2d_1">
      <defs>
       <path id="m338e5f84ad" d="M 0 0 
L 0 3.5 
" style="stroke: #000000; stroke-width: 0.8"/>
      </defs>
      <g>
       <use xlink:href="#m338e5f84ad" x="138.436364" y="224.28" style="stroke: #000000; stroke-width: 0.8"/>
      </g>
     </g>
     <g id="text_1">
      <!-- 0 -->
      <g transform="translate(134.436364 242.39) scale(0.16 -0.16)">
       <defs>
        <path id="TimesNewRomanPSMT-30" d="M 231 2094 
Q 231 2819 450 3342 
Q 669 3866 1031 4122 
Q 1313 4325 1613 4325 
Q 2100 4325 2488 3828 
Q 2972 3213 2972 2159 
Q 2972 1422 2759 906 
Q 2547 391 2217 158 
Q 1888 -75 1581 -75 
Q 975 -75 572 641 
Q 231 1244 231 2094 
z
M 844 2016 
Q 844 1141 1059 588 
Q 1238 122 1591 122 
Q 1759 122 1940 273 
Q 2122 425 2216 781 
Q 2359 1319 2359 2297 
Q 2359 3022 2209 3506 
Q 2097 3866 1919 4016 
Q 1791 4119 1609 4119 
Q 1397 4119 1231 3928 
Q 1006 3669 925 3112 
Q 844 2556 844 2016 
z
" transform="scale(0.015625)"/>
       </defs>
       <use xlink:href="#TimesNewRomanPSMT-30"/>
      </g>
     </g>
    </g>
    <g id="xtick_2">
     <g id="line2d_2">
      <g>
       <use xlink:href="#m338e5f84ad" x="264.728329" y="224.28" style="stroke: #000000; stroke-width: 0.8"/>
      </g>
     </g>
     <g id="text_2">
      <!-- 50 -->
      <g transform="translate(256.728329 242.39) scale(0.16 -0.16)">
       <defs>
        <path id="TimesNewRomanPSMT-35" d="M 2778 4238 
L 2534 3706 
L 1259 3706 
L 981 3138 
Q 1809 3016 2294 2522 
Q 2709 2097 2709 1522 
Q 2709 1188 2573 903 
Q 2438 619 2231 419 
Q 2025 219 1772 97 
Q 1413 -75 1034 -75 
Q 653 -75 479 54 
Q 306 184 306 341 
Q 306 428 378 495 
Q 450 563 559 563 
Q 641 563 702 538 
Q 763 513 909 409 
Q 1144 247 1384 247 
Q 1750 247 2026 523 
Q 2303 800 2303 1197 
Q 2303 1581 2056 1914 
Q 1809 2247 1375 2428 
Q 1034 2569 447 2591 
L 1259 4238 
L 2778 4238 
z
" transform="scale(0.015625)"/>
       </defs>
       <use xlink:href="#TimesNewRomanPSMT-35"/>
       <use xlink:href="#TimesNewRomanPSMT-30" x="50"/>
      </g>
     </g>
    </g>
    <g id="xtick_3">
     <g id="line2d_3">
      <g>
       <use xlink:href="#m338e5f84ad" x="391.020294" y="224.28" style="stroke: #000000; stroke-width: 0.8"/>
      </g>
     </g>
     <g id="text_3">
      <!-- 100 -->
      <g transform="translate(379.020294 242.39) scale(0.16 -0.16)">
       <defs>
        <path id="TimesNewRomanPSMT-31" d="M 750 3822 
L 1781 4325 
L 1884 4325 
L 1884 747 
Q 1884 391 1914 303 
Q 1944 216 2037 169 
Q 2131 122 2419 116 
L 2419 0 
L 825 0 
L 825 116 
Q 1125 122 1212 167 
Q 1300 213 1334 289 
Q 1369 366 1369 747 
L 1369 3034 
Q 1369 3497 1338 3628 
Q 1316 3728 1258 3775 
Q 1200 3822 1119 3822 
Q 1003 3822 797 3725 
L 750 3822 
z
" transform="scale(0.015625)"/>
       </defs>
       <use xlink:href="#TimesNewRomanPSMT-31"/>
       <use xlink:href="#TimesNewRomanPSMT-30" x="50"/>
       <use xlink:href="#TimesNewRomanPSMT-30" x="100"/>
      </g>
     </g>
    </g>
    <g id="xtick_4">
     <g id="line2d_4">
      <g>
       <use xlink:href="#m338e5f84ad" x="517.31226" y="224.28" style="stroke: #000000; stroke-width: 0.8"/>
      </g>
     </g>
     <g id="text_4">
      <!-- 150 -->
      <g transform="translate(505.31226 242.39) scale(0.16 -0.16)">
       <use xlink:href="#TimesNewRomanPSMT-31"/>
       <use xlink:href="#TimesNewRomanPSMT-35" x="50"/>
       <use xlink:href="#TimesNewRomanPSMT-30" x="100"/>
      </g>
     </g>
    </g>
    <g id="xtick_5">
     <g id="line2d_5">
      <g>
       <use xlink:href="#m338e5f84ad" x="643.604225" y="224.28" style="stroke: #000000; stroke-width: 0.8"/>
      </g>
     </g>
     <g id="text_5">
      <!-- 200 -->
      <g transform="translate(631.604225 242.39) scale(0.16 -0.16)">
       <defs>
        <path id="TimesNewRomanPSMT-32" d="M 2934 816 
L 2638 0 
L 138 0 
L 138 116 
Q 1241 1122 1691 1759 
Q 2141 2397 2141 2925 
Q 2141 3328 1894 3587 
Q 1647 3847 1303 3847 
Q 991 3847 742 3664 
Q 494 3481 375 3128 
L 259 3128 
Q 338 3706 661 4015 
Q 984 4325 1469 4325 
Q 1984 4325 2329 3994 
Q 2675 3663 2675 3213 
Q 2675 2891 2525 2569 
Q 2294 2063 1775 1497 
Q 997 647 803 472 
L 1909 472 
Q 2247 472 2383 497 
Q 2519 522 2628 598 
Q 2738 675 2819 816 
L 2934 816 
z
" transform="scale(0.015625)"/>
       </defs>
       <use xlink:href="#TimesNewRomanPSMT-32"/>
       <use xlink:href="#TimesNewRomanPSMT-30" x="50"/>
       <use xlink:href="#TimesNewRomanPSMT-30" x="100"/>
      </g>
     </g>
    </g>
    <g id="xtick_6">
     <g id="line2d_6">
      <g>
       <use xlink:href="#m338e5f84ad" x="769.89619" y="224.28" style="stroke: #000000; stroke-width: 0.8"/>
      </g>
     </g>
     <g id="text_6">
      <!-- 250 -->
      <g transform="translate(757.89619 242.39) scale(0.16 -0.16)">
       <use xlink:href="#TimesNewRomanPSMT-32"/>
       <use xlink:href="#TimesNewRomanPSMT-35" x="50"/>
       <use xlink:href="#TimesNewRomanPSMT-30" x="100"/>
      </g>
     </g>
    </g>
    <g id="text_7">
     <!-- Time (s) -->
     <g transform="translate(408.995313 263.7) scale(0.2 -0.2)">
      <defs>
       <path id="TimesNewRomanPSMT-54" d="M 3703 4238 
L 3750 3244 
L 3631 3244 
Q 3597 3506 3538 3619 
Q 3441 3800 3280 3886 
Q 3119 3972 2856 3972 
L 2259 3972 
L 2259 734 
Q 2259 344 2344 247 
Q 2463 116 2709 116 
L 2856 116 
L 2856 0 
L 1059 0 
L 1059 116 
L 1209 116 
Q 1478 116 1591 278 
Q 1659 378 1659 734 
L 1659 3972 
L 1150 3972 
Q 853 3972 728 3928 
Q 566 3869 450 3700 
Q 334 3531 313 3244 
L 194 3244 
L 244 4238 
L 3703 4238 
z
" transform="scale(0.015625)"/>
       <path id="TimesNewRomanPSMT-69" d="M 928 4444 
Q 1059 4444 1151 4351 
Q 1244 4259 1244 4128 
Q 1244 3997 1151 3903 
Q 1059 3809 928 3809 
Q 797 3809 703 3903 
Q 609 3997 609 4128 
Q 609 4259 701 4351 
Q 794 4444 928 4444 
z
M 1188 2947 
L 1188 647 
Q 1188 378 1227 289 
Q 1266 200 1342 156 
Q 1419 113 1622 113 
L 1622 0 
L 231 0 
L 231 113 
Q 441 113 512 153 
Q 584 194 626 287 
Q 669 381 669 647 
L 669 1750 
Q 669 2216 641 2353 
Q 619 2453 572 2492 
Q 525 2531 444 2531 
Q 356 2531 231 2484 
L 188 2597 
L 1050 2947 
L 1188 2947 
z
" transform="scale(0.015625)"/>
       <path id="TimesNewRomanPSMT-6d" d="M 1050 2338 
Q 1363 2650 1419 2697 
Q 1559 2816 1721 2881 
Q 1884 2947 2044 2947 
Q 2313 2947 2506 2790 
Q 2700 2634 2766 2338 
Q 3088 2713 3309 2830 
Q 3531 2947 3766 2947 
Q 3994 2947 4170 2830 
Q 4347 2713 4450 2447 
Q 4519 2266 4519 1878 
L 4519 647 
Q 4519 378 4559 278 
Q 4591 209 4675 161 
Q 4759 113 4950 113 
L 4950 0 
L 3538 0 
L 3538 113 
L 3597 113 
Q 3781 113 3884 184 
Q 3956 234 3988 344 
Q 4000 397 4000 647 
L 4000 1878 
Q 4000 2228 3916 2372 
Q 3794 2572 3525 2572 
Q 3359 2572 3192 2489 
Q 3025 2406 2788 2181 
L 2781 2147 
L 2788 2013 
L 2788 647 
Q 2788 353 2820 281 
Q 2853 209 2943 161 
Q 3034 113 3253 113 
L 3253 0 
L 1806 0 
L 1806 113 
Q 2044 113 2133 169 
Q 2222 225 2256 338 
Q 2272 391 2272 647 
L 2272 1878 
Q 2272 2228 2169 2381 
Q 2031 2581 1784 2581 
Q 1616 2581 1450 2491 
Q 1191 2353 1050 2181 
L 1050 647 
Q 1050 366 1089 281 
Q 1128 197 1204 155 
Q 1281 113 1516 113 
L 1516 0 
L 100 0 
L 100 113 
Q 297 113 375 155 
Q 453 197 493 289 
Q 534 381 534 647 
L 534 1741 
Q 534 2213 506 2350 
Q 484 2453 437 2492 
Q 391 2531 309 2531 
Q 222 2531 100 2484 
L 53 2597 
L 916 2947 
L 1050 2947 
L 1050 2338 
z
" transform="scale(0.015625)"/>
       <path id="TimesNewRomanPSMT-65" d="M 681 1784 
Q 678 1147 991 784 
Q 1303 422 1725 422 
Q 2006 422 2214 576 
Q 2422 731 2563 1106 
L 2659 1044 
Q 2594 616 2278 264 
Q 1963 -88 1488 -88 
Q 972 -88 605 314 
Q 238 716 238 1394 
Q 238 2128 614 2539 
Q 991 2950 1559 2950 
Q 2041 2950 2350 2633 
Q 2659 2316 2659 1784 
L 681 1784 
z
M 681 1966 
L 2006 1966 
Q 1991 2241 1941 2353 
Q 1863 2528 1708 2628 
Q 1553 2728 1384 2728 
Q 1125 2728 920 2526 
Q 716 2325 681 1966 
z
" transform="scale(0.015625)"/>
       <path id="TimesNewRomanPSMT-20" transform="scale(0.015625)"/>
       <path id="TimesNewRomanPSMT-28" d="M 1988 -1253 
L 1988 -1369 
Q 1516 -1131 1200 -813 
Q 750 -359 506 256 
Q 263 872 263 1534 
Q 263 2503 741 3301 
Q 1219 4100 1988 4444 
L 1988 4313 
Q 1603 4100 1356 3731 
Q 1109 3363 987 2797 
Q 866 2231 866 1616 
Q 866 947 969 400 
Q 1050 -31 1165 -292 
Q 1281 -553 1476 -793 
Q 1672 -1034 1988 -1253 
z
" transform="scale(0.015625)"/>
       <path id="TimesNewRomanPSMT-73" d="M 2050 2947 
L 2050 1972 
L 1947 1972 
Q 1828 2431 1642 2597 
Q 1456 2763 1169 2763 
Q 950 2763 815 2647 
Q 681 2531 681 2391 
Q 681 2216 781 2091 
Q 878 1963 1175 1819 
L 1631 1597 
Q 2266 1288 2266 781 
Q 2266 391 1970 151 
Q 1675 -88 1309 -88 
Q 1047 -88 709 6 
Q 606 38 541 38 
Q 469 38 428 -44 
L 325 -44 
L 325 978 
L 428 978 
Q 516 541 762 319 
Q 1009 97 1316 97 
Q 1531 97 1667 223 
Q 1803 350 1803 528 
Q 1803 744 1651 891 
Q 1500 1038 1047 1263 
Q 594 1488 453 1669 
Q 313 1847 313 2119 
Q 313 2472 555 2709 
Q 797 2947 1181 2947 
Q 1350 2947 1591 2875 
Q 1750 2828 1803 2828 
Q 1853 2828 1881 2850 
Q 1909 2872 1947 2947 
L 2050 2947 
z
" transform="scale(0.015625)"/>
       <path id="TimesNewRomanPSMT-29" d="M 144 4313 
L 144 4444 
Q 619 4209 934 3891 
Q 1381 3434 1625 2820 
Q 1869 2206 1869 1541 
Q 1869 572 1392 -226 
Q 916 -1025 144 -1369 
L 144 -1253 
Q 528 -1038 776 -670 
Q 1025 -303 1145 264 
Q 1266 831 1266 1447 
Q 1266 2113 1163 2663 
Q 1084 3094 967 3353 
Q 850 3613 656 3853 
Q 463 4094 144 4313 
z
" transform="scale(0.015625)"/>
      </defs>
      <use xlink:href="#TimesNewRomanPSMT-54"/>
      <use xlink:href="#TimesNewRomanPSMT-69" x="57.583984"/>
      <use xlink:href="#TimesNewRomanPSMT-6d" x="85.367188"/>
      <use xlink:href="#TimesNewRomanPSMT-65" x="163.150391"/>
      <use xlink:href="#TimesNewRomanPSMT-20" x="207.535156"/>
      <use xlink:href="#TimesNewRomanPSMT-28" x="232.535156"/>
      <use xlink:href="#TimesNewRomanPSMT-73" x="265.835938"/>
      <use xlink:href="#TimesNewRomanPSMT-29" x="304.751953"/>
     </g>
    </g>
   </g>
   <g id="matplotlib.axis_2">
    <g id="ytick_1">
     <g id="line2d_7">
      <defs>
       <path id="m71303b686a" d="M 0 0 
L -3.5 0 
" style="stroke: #000000; stroke-width: 0.8"/>
      </defs>
      <g>
       <use xlink:href="#m71303b686a" x="108" y="192.451304" style="stroke: #000000; stroke-width: 0.8"/>
      </g>
     </g>
     <g id="text_8">
      <!-- 1000 -->
      <g transform="translate(69 198.006304) scale(0.16 -0.16)">
       <use xlink:href="#TimesNewRomanPSMT-31"/>
       <use xlink:href="#TimesNewRomanPSMT-30" x="50"/>
       <use xlink:href="#TimesNewRomanPSMT-30" x="100"/>
       <use xlink:href="#TimesNewRomanPSMT-30" x="150"/>
      </g>
     </g>
    </g>
    <g id="ytick_2">
     <g id="line2d_8">
      <g>
       <use xlink:href="#m71303b686a" x="108" y="154.103477" style="stroke: #000000; stroke-width: 0.8"/>
      </g>
     </g>
     <g id="text_9">
      <!-- 2000 -->
      <g transform="translate(69 159.658477) scale(0.16 -0.16)">
       <use xlink:href="#TimesNewRomanPSMT-32"/>
       <use xlink:href="#TimesNewRomanPSMT-30" x="50"/>
       <use xlink:href="#TimesNewRomanPSMT-30" x="100"/>
       <use xlink:href="#TimesNewRomanPSMT-30" x="150"/>
      </g>
     </g>
    </g>
    <g id="ytick_3">
     <g id="line2d_9">
      <g>
       <use xlink:href="#m71303b686a" x="108" y="115.75565" style="stroke: #000000; stroke-width: 0.8"/>
      </g>
     </g>
     <g id="text_10">
      <!-- 3000 -->
      <g transform="translate(69 121.31065) scale(0.16 -0.16)">
       <defs>
        <path id="TimesNewRomanPSMT-33" d="M 325 3431 
Q 506 3859 782 4092 
Q 1059 4325 1472 4325 
Q 1981 4325 2253 3994 
Q 2459 3747 2459 3466 
Q 2459 3003 1878 2509 
Q 2269 2356 2469 2072 
Q 2669 1788 2669 1403 
Q 2669 853 2319 450 
Q 1863 -75 997 -75 
Q 569 -75 414 31 
Q 259 138 259 259 
Q 259 350 332 419 
Q 406 488 509 488 
Q 588 488 669 463 
Q 722 447 909 348 
Q 1097 250 1169 231 
Q 1284 197 1416 197 
Q 1734 197 1970 444 
Q 2206 691 2206 1028 
Q 2206 1275 2097 1509 
Q 2016 1684 1919 1775 
Q 1784 1900 1550 2001 
Q 1316 2103 1072 2103 
L 972 2103 
L 972 2197 
Q 1219 2228 1467 2375 
Q 1716 2522 1828 2728 
Q 1941 2934 1941 3181 
Q 1941 3503 1739 3701 
Q 1538 3900 1238 3900 
Q 753 3900 428 3381 
L 325 3431 
z
" transform="scale(0.015625)"/>
       </defs>
       <use xlink:href="#TimesNewRomanPSMT-33"/>
       <use xlink:href="#TimesNewRomanPSMT-30" x="50"/>
       <use xlink:href="#TimesNewRomanPSMT-30" x="100"/>
       <use xlink:href="#TimesNewRomanPSMT-30" x="150"/>
      </g>
     </g>
    </g>
    <g id="ytick_4">
     <g id="line2d_10">
      <g>
       <use xlink:href="#m71303b686a" x="108" y="77.407823" style="stroke: #000000; stroke-width: 0.8"/>
      </g>
     </g>
     <g id="text_11">
      <!-- 4000 -->
      <g transform="translate(69 82.962823) scale(0.16 -0.16)">
       <defs>
        <path id="TimesNewRomanPSMT-34" d="M 2978 1563 
L 2978 1119 
L 2409 1119 
L 2409 0 
L 1894 0 
L 1894 1119 
L 100 1119 
L 100 1519 
L 2066 4325 
L 2409 4325 
L 2409 1563 
L 2978 1563 
z
M 1894 1563 
L 1894 3666 
L 406 1563 
L 1894 1563 
z
" transform="scale(0.015625)"/>
       </defs>
       <use xlink:href="#TimesNewRomanPSMT-34"/>
       <use xlink:href="#TimesNewRomanPSMT-30" x="50"/>
       <use xlink:href="#TimesNewRomanPSMT-30" x="100"/>
       <use xlink:href="#TimesNewRomanPSMT-30" x="150"/>
      </g>
     </g>
    </g>
    <g id="ytick_5">
     <g id="line2d_11">
      <g>
       <use xlink:href="#m71303b686a" x="108" y="39.059996" style="stroke: #000000; stroke-width: 0.8"/>
      </g>
     </g>
     <g id="text_12">
      <!-- 5000 -->
      <g transform="translate(69 44.614996) scale(0.16 -0.16)">
       <use xlink:href="#TimesNewRomanPSMT-35"/>
       <use xlink:href="#TimesNewRomanPSMT-30" x="50"/>
       <use xlink:href="#TimesNewRomanPSMT-30" x="100"/>
       <use xlink:href="#TimesNewRomanPSMT-30" x="150"/>
      </g>
     </g>
    </g>
    <g id="text_13">
     <!-- Bitrate (kbps) -->
     <g transform="translate(60.721875 182.524063) rotate(-90) scale(0.2 -0.2)">
      <defs>
       <path id="TimesNewRomanPSMT-42" d="M 2956 2163 
Q 3397 2069 3616 1863 
Q 3919 1575 3919 1159 
Q 3919 844 3719 555 
Q 3519 266 3170 133 
Q 2822 0 2106 0 
L 106 0 
L 106 116 
L 266 116 
Q 531 116 647 284 
Q 719 394 719 750 
L 719 3488 
Q 719 3881 628 3984 
Q 506 4122 266 4122 
L 106 4122 
L 106 4238 
L 1938 4238 
Q 2450 4238 2759 4163 
Q 3228 4050 3475 3764 
Q 3722 3478 3722 3106 
Q 3722 2788 3528 2536 
Q 3334 2284 2956 2163 
z
M 1319 2331 
Q 1434 2309 1582 2298 
Q 1731 2288 1909 2288 
Q 2366 2288 2595 2386 
Q 2825 2484 2947 2687 
Q 3069 2891 3069 3131 
Q 3069 3503 2766 3765 
Q 2463 4028 1881 4028 
Q 1569 4028 1319 3959 
L 1319 2331 
z
M 1319 306 
Q 1681 222 2034 222 
Q 2600 222 2897 476 
Q 3194 731 3194 1106 
Q 3194 1353 3059 1581 
Q 2925 1809 2622 1940 
Q 2319 2072 1872 2072 
Q 1678 2072 1540 2065 
Q 1403 2059 1319 2044 
L 1319 306 
z
" transform="scale(0.015625)"/>
       <path id="TimesNewRomanPSMT-74" d="M 1031 3803 
L 1031 2863 
L 1700 2863 
L 1700 2644 
L 1031 2644 
L 1031 788 
Q 1031 509 1111 412 
Q 1191 316 1316 316 
Q 1419 316 1516 380 
Q 1613 444 1666 569 
L 1788 569 
Q 1678 263 1478 108 
Q 1278 -47 1066 -47 
Q 922 -47 784 33 
Q 647 113 581 261 
Q 516 409 516 719 
L 516 2644 
L 63 2644 
L 63 2747 
Q 234 2816 414 2980 
Q 594 3144 734 3369 
Q 806 3488 934 3803 
L 1031 3803 
z
" transform="scale(0.015625)"/>
       <path id="TimesNewRomanPSMT-72" d="M 1038 2947 
L 1038 2303 
Q 1397 2947 1775 2947 
Q 1947 2947 2059 2842 
Q 2172 2738 2172 2600 
Q 2172 2478 2090 2393 
Q 2009 2309 1897 2309 
Q 1788 2309 1652 2417 
Q 1516 2525 1450 2525 
Q 1394 2525 1328 2463 
Q 1188 2334 1038 2041 
L 1038 669 
Q 1038 431 1097 309 
Q 1138 225 1241 169 
Q 1344 113 1538 113 
L 1538 0 
L 72 0 
L 72 113 
Q 291 113 397 181 
Q 475 231 506 341 
Q 522 394 522 644 
L 522 1753 
Q 522 2253 501 2348 
Q 481 2444 426 2487 
Q 372 2531 291 2531 
Q 194 2531 72 2484 
L 41 2597 
L 906 2947 
L 1038 2947 
z
" transform="scale(0.015625)"/>
       <path id="TimesNewRomanPSMT-61" d="M 1822 413 
Q 1381 72 1269 19 
Q 1100 -59 909 -59 
Q 613 -59 420 144 
Q 228 347 228 678 
Q 228 888 322 1041 
Q 450 1253 767 1440 
Q 1084 1628 1822 1897 
L 1822 2009 
Q 1822 2438 1686 2597 
Q 1550 2756 1291 2756 
Q 1094 2756 978 2650 
Q 859 2544 859 2406 
L 866 2225 
Q 866 2081 792 2003 
Q 719 1925 600 1925 
Q 484 1925 411 2006 
Q 338 2088 338 2228 
Q 338 2497 613 2722 
Q 888 2947 1384 2947 
Q 1766 2947 2009 2819 
Q 2194 2722 2281 2516 
Q 2338 2381 2338 1966 
L 2338 994 
Q 2338 584 2353 492 
Q 2369 400 2405 369 
Q 2441 338 2488 338 
Q 2538 338 2575 359 
Q 2641 400 2828 588 
L 2828 413 
Q 2478 -56 2159 -56 
Q 2006 -56 1915 50 
Q 1825 156 1822 413 
z
M 1822 616 
L 1822 1706 
Q 1350 1519 1213 1441 
Q 966 1303 859 1153 
Q 753 1003 753 825 
Q 753 600 887 451 
Q 1022 303 1197 303 
Q 1434 303 1822 616 
z
" transform="scale(0.015625)"/>
       <path id="TimesNewRomanPSMT-6b" d="M 1047 4444 
L 1047 1597 
L 1775 2259 
Q 2006 2472 2044 2528 
Q 2069 2566 2069 2603 
Q 2069 2666 2017 2711 
Q 1966 2756 1847 2763 
L 1847 2863 
L 3091 2863 
L 3091 2763 
Q 2834 2756 2664 2684 
Q 2494 2613 2291 2428 
L 1556 1750 
L 2291 822 
Q 2597 438 2703 334 
Q 2853 188 2966 144 
Q 3044 113 3238 113 
L 3238 0 
L 1847 0 
L 1847 113 
Q 1966 116 2008 148 
Q 2050 181 2050 241 
Q 2050 313 1925 472 
L 1047 1594 
L 1047 644 
Q 1047 366 1086 278 
Q 1125 191 1197 153 
Q 1269 116 1509 113 
L 1509 0 
L 53 0 
L 53 113 
Q 272 113 381 166 
Q 447 200 481 272 
Q 528 375 528 628 
L 528 3234 
Q 528 3731 506 3842 
Q 484 3953 434 3995 
Q 384 4038 303 4038 
Q 238 4038 106 3984 
L 53 4094 
L 903 4444 
L 1047 4444 
z
" transform="scale(0.015625)"/>
       <path id="TimesNewRomanPSMT-62" d="M 984 2369 
Q 1400 2947 1881 2947 
Q 2322 2947 2650 2570 
Q 2978 2194 2978 1541 
Q 2978 778 2472 313 
Q 2038 -88 1503 -88 
Q 1253 -88 995 3 
Q 738 94 469 275 
L 469 3241 
Q 469 3728 445 3840 
Q 422 3953 372 3993 
Q 322 4034 247 4034 
Q 159 4034 28 3984 
L -16 4094 
L 844 4444 
L 984 4444 
L 984 2369 
z
M 984 2169 
L 984 456 
Q 1144 300 1314 220 
Q 1484 141 1663 141 
Q 1947 141 2192 453 
Q 2438 766 2438 1363 
Q 2438 1913 2192 2208 
Q 1947 2503 1634 2503 
Q 1469 2503 1303 2419 
Q 1178 2356 984 2169 
z
" transform="scale(0.015625)"/>
       <path id="TimesNewRomanPSMT-70" d="M -6 2578 
L 875 2934 
L 994 2934 
L 994 2266 
Q 1216 2644 1439 2795 
Q 1663 2947 1909 2947 
Q 2341 2947 2628 2609 
Q 2981 2197 2981 1534 
Q 2981 794 2556 309 
Q 2206 -88 1675 -88 
Q 1444 -88 1275 -22 
Q 1150 25 994 166 
L 994 -706 
Q 994 -1000 1030 -1079 
Q 1066 -1159 1155 -1206 
Q 1244 -1253 1478 -1253 
L 1478 -1369 
L -22 -1369 
L -22 -1253 
L 56 -1253 
Q 228 -1256 350 -1188 
Q 409 -1153 442 -1076 
Q 475 -1000 475 -688 
L 475 2019 
Q 475 2297 450 2372 
Q 425 2447 370 2484 
Q 316 2522 222 2522 
Q 147 2522 31 2478 
L -6 2578 
z
M 994 2081 
L 994 1013 
Q 994 666 1022 556 
Q 1066 375 1236 237 
Q 1406 100 1666 100 
Q 1978 100 2172 344 
Q 2425 663 2425 1241 
Q 2425 1897 2138 2250 
Q 1938 2494 1663 2494 
Q 1513 2494 1366 2419 
Q 1253 2363 994 2081 
z
" transform="scale(0.015625)"/>
      </defs>
      <use xlink:href="#TimesNewRomanPSMT-42"/>
      <use xlink:href="#TimesNewRomanPSMT-69" x="66.699219"/>
      <use xlink:href="#TimesNewRomanPSMT-74" x="94.482422"/>
      <use xlink:href="#TimesNewRomanPSMT-72" x="122.265625"/>
      <use xlink:href="#TimesNewRomanPSMT-61" x="155.566406"/>
      <use xlink:href="#TimesNewRomanPSMT-74" x="199.951172"/>
      <use xlink:href="#TimesNewRomanPSMT-65" x="227.734375"/>
      <use xlink:href="#TimesNewRomanPSMT-20" x="272.119141"/>
      <use xlink:href="#TimesNewRomanPSMT-28" x="297.119141"/>
      <use xlink:href="#TimesNewRomanPSMT-6b" x="330.419922"/>
      <use xlink:href="#TimesNewRomanPSMT-62" x="380.419922"/>
      <use xlink:href="#TimesNewRomanPSMT-70" x="430.419922"/>
      <use xlink:href="#TimesNewRomanPSMT-73" x="480.419922"/>
      <use xlink:href="#TimesNewRomanPSMT-29" x="519.335938"/>
     </g>
    </g>
   </g>
   <g id="line2d_12">
    <path d="M 138.436364 215.46 
L 140.861412 215.348577 
L 143.28646 215.014591 
L 145.711508 214.458884 
L 148.197183 213.660654 
L 150.743483 212.605169 
L 153.35041 211.278295 
L 156.017963 209.666667 
L 158.746143 207.75788 
L 161.595574 205.489556 
L 164.566258 202.83431 
L 167.658195 199.766557 
L 170.871384 196.263176 
L 174.266451 192.229324 
L 177.843398 187.631802 
L 181.662848 182.35697 
L 185.78543 176.277133 
L 190.27177 169.255875 
L 195.243119 161.054277 
L 201.002608 151.110017 
L 208.338379 137.971741 
L 229.73943 99.357178 
L 235.498919 89.589959 
L 240.470268 81.58566 
L 244.956608 74.776023 
L 249.07919 68.917117 
L 252.89864 63.868151 
L 256.475587 59.499341 
L 259.870654 55.696782 
L 263.083843 52.423998 
L 266.17578 49.587906 
L 269.146464 47.163363 
L 271.995895 45.122988 
L 274.724075 43.43782 
L 277.391628 42.049221 
L 279.998555 40.943835 
L 282.544855 40.10743 
L 285.03053 39.525087 
L 287.455578 39.181379 
L 289.880626 39.060209 
L 292.305674 39.161884 
L 294.730723 39.486147 
L 297.155771 40.032179 
L 299.641445 40.820568 
L 302.187746 41.866079 
L 304.794673 43.182883 
L 307.462226 44.784384 
L 310.190405 46.683032 
L 313.039837 48.941038 
L 316.010521 51.585859 
L 319.102457 54.643164 
L 322.315646 58.136168 
L 325.710714 62.159637 
L 329.28766 66.746923 
L 333.107111 72.011683 
L 337.229693 78.081715 
L 341.716032 85.093642 
L 346.687381 93.286624 
L 352.446871 103.223282 
L 359.722015 116.245747 
L 381.486823 155.504332 
L 387.185687 165.155399 
L 392.157036 173.147512 
L 396.643375 179.944205 
L 400.765957 185.789688 
L 404.585408 190.825 
L 408.162354 195.180037 
L 411.557421 198.968711 
L 414.77061 202.22769 
L 417.862547 205.049945 
L 420.833231 207.460737 
L 423.682663 209.487551 
L 426.410842 211.15944 
L 429.078395 212.534814 
L 431.685322 213.627087 
L 434.231623 214.45054 
L 436.717297 215.020136 
L 439.142345 215.351345 
L 441.567393 215.459983 
L 443.992442 215.345775 
L 446.41749 215.00901 
L 448.842538 214.45054 
L 451.328213 213.649499 
L 453.874513 212.591165 
L 456.48144 211.261415 
L 459.148993 209.646895 
L 461.877172 207.735214 
L 464.726604 205.463943 
L 467.697288 202.805721 
L 470.789225 199.734985 
L 474.002414 196.228642 
L 477.397481 192.191828 
L 480.974427 187.591385 
L 484.793878 182.31368 
L 488.91646 176.231048 
L 493.4028 169.207129 
L 498.374148 161.003076 
L 504.133638 151.056654 
L 511.469409 137.916726 
L 532.809833 99.40976 
L 538.569323 89.64008 
L 543.540672 81.633082 
L 548.027011 74.820577 
L 552.149593 68.958694 
L 555.969044 63.906699 
L 559.54599 59.534832 
L 562.941058 55.729193 
L 566.154247 52.453344 
L 569.246183 49.61418 
L 572.216867 47.186585 
L 575.066299 45.143199 
L 577.794478 43.45508 
L 580.462031 42.063545 
L 583.068958 40.955246 
L 585.615259 40.115963 
L 588.100933 39.530789 
L 590.525982 39.184303 
L 592.95103 39.060348 
L 595.376078 39.159238 
L 597.801126 39.480723 
L 600.226174 40.02399 
L 602.711849 40.809567 
L 605.25815 41.852227 
L 607.865076 43.166153 
L 610.532629 44.764759 
L 613.260809 46.660509 
L 616.11024 48.915564 
L 619.080925 51.557404 
L 622.172861 54.611722 
L 625.38605 58.101757 
L 628.781117 62.122256 
L 632.358064 66.706614 
L 636.177515 71.968492 
L 640.300097 78.035716 
L 644.786436 85.044971 
L 649.757785 93.235483 
L 655.517274 103.169961 
L 662.792419 116.19076 
L 684.617853 155.556831 
L 690.316717 165.205438 
L 695.288065 173.194834 
L 699.774405 179.988643 
L 703.896987 185.831138 
L 707.716438 190.86341 
L 711.293384 195.215381 
L 714.688451 199.000966 
L 717.90164 202.256873 
L 720.993577 205.076051 
L 723.964261 207.483785 
L 726.813693 209.507583 
L 729.541872 211.176519 
L 732.209425 212.548952 
L 734.816352 213.63831 
L 737.362652 214.458884 
L 739.848327 215.025647 
L 742.273375 215.354078 
L 744.637797 215.46 
L 744.637797 215.46 
" clip-path="url(#p5c07e04280)" style="fill: none; stroke: #0000ff; stroke-opacity: 0.3; stroke-width: 2.5; stroke-linecap: square"/>
   </g>
   <g id="line2d_13">
    <path d="M 140.962203 143.08327 
L 146.013882 143.08327 
L 153.591399 136.540172 
L 156.117239 144.981807 
L 161.168917 145.016669 
L 163.694757 136.592464 
L 171.272275 147.733903 
L 178.849793 142.816433 
L 181.375632 148.025772 
L 183.901471 140.347685 
L 186.42731 130.136085 
L 188.95315 104.581093 
L 191.478989 91.913527 
L 194.004828 81.779475 
L 196.530668 86.846501 
L 201.582346 103.736589 
L 204.108186 111.008432 
L 209.159864 122.679806 
L 211.685704 128.19185 
L 214.211543 124.045172 
L 216.737382 109.764441 
L 219.263221 91.913527 
L 221.789061 81.779475 
L 226.840739 81.779475 
L 229.366579 88.679953 
L 234.418257 101.347519 
L 236.944097 100.780823 
L 244.521614 100.780823 
L 247.047454 103.654354 
L 249.573293 108.702774 
L 252.099132 110.302731 
L 254.624972 107.162509 
L 257.150811 98.59532 
L 259.67665 93.476595 
L 262.20249 87.409504 
L 267.254168 81.779475 
L 272.305847 81.779475 
L 274.831686 86.954834 
L 277.357525 93.964352 
L 279.883365 101.593971 
L 282.409204 103.428131 
L 284.935043 103.428131 
L 287.460883 102.808029 
L 295.038401 99.630388 
L 297.56424 103.520296 
L 302.615919 106.193365 
L 305.141758 103.639992 
L 307.667597 104.739458 
L 310.193436 109.027271 
L 312.719276 112.066814 
L 315.245115 114.00689 
L 317.770954 112.75862 
L 320.296794 113.368673 
L 325.348472 108.674084 
L 327.874312 105.716736 
L 330.400151 106.950424 
L 335.451829 104.811412 
L 337.977669 102.508219 
L 340.503508 103.271398 
L 343.029347 104.732102 
L 345.555187 102.045043 
L 348.081026 98.594803 
L 350.606865 94.44704 
L 358.184383 89.380014 
L 365.761901 81.779475 
L 370.81358 88.113258 
L 373.339419 93.180284 
L 378.391098 95.291545 
L 380.916937 94.44704 
L 383.442776 94.44704 
L 396.071973 115.55965 
L 398.597812 126.115954 
L 401.123651 132.449737 
L 403.649491 132.449737 
L 408.701169 119.782172 
L 413.752848 127.298346 
L 416.278687 127.298346 
L 421.330366 119.782172 
L 433.959562 119.782172 
L 436.485402 124.96552 
L 441.53708 124.96552 
L 444.06292 119.782172 
L 446.588759 119.782172 
L 449.114598 128.74278 
L 454.166277 139.117146 
L 456.692116 135.34372 
L 459.217955 135.51245 
L 464.269634 130.700346 
L 466.795473 128.125563 
L 469.321313 131.744868 
L 471.847152 138.156031 
L 474.372991 140.379292 
L 476.898831 138.983248 
L 479.42467 134.795346 
L 487.002188 131.832976 
L 489.528027 132.422894 
L 492.053866 130.372654 
L 494.579706 128.083502 
L 497.105545 120.525288 
L 502.157224 110.928084 
L 509.734742 92.637388 
L 522.363938 92.637388 
L 524.889777 93.240606 
L 529.941456 86.001997 
L 532.467295 81.779475 
L 537.518974 89.713214 
L 540.044813 98.638671 
L 542.570653 104.309889 
L 545.096492 105.518378 
L 547.622331 101.76828 
L 550.148171 97.305551 
L 552.67401 98.044888 
L 557.725688 87.694171 
L 560.251528 81.779475 
L 572.880724 81.779475 
L 575.406564 85.746345 
L 577.932403 92.58504 
L 580.458242 98.568899 
L 582.984081 100.585888 
L 585.509921 99.731051 
L 593.087439 81.779475 
L 600.664957 99.731051 
L 603.190796 99.731051 
L 605.716635 100.585888 
L 608.242475 102.73603 
L 610.768314 101.35249 
L 613.294153 99.114113 
L 615.819992 90.980113 
L 620.871671 81.779475 
L 623.39751 81.779475 
L 625.92335 84.312988 
L 630.975028 84.312988 
L 633.500868 81.779475 
L 641.078386 89.380014 
L 648.655903 81.779475 
L 681.491814 81.779475 
L 684.017654 85.543372 
L 689.069332 88.790155 
L 691.595172 86.649649 
L 694.121011 87.329451 
L 699.17269 87.329451 
L 701.698529 85.026258 
L 706.750207 81.779475 
L 709.276047 84.082669 
L 714.327725 100.972756 
L 716.853565 107.114606 
L 726.956922 107.114606 
L 734.53444 88.689056 
L 739.586118 100.972756 
L 742.111958 110.63728 
L 747.163636 117.682628 
L 747.163636 117.682628 
" clip-path="url(#p5c07e04280)" style="fill: none; stroke: #1f77b4; stroke-opacity: 0.7; stroke-width: 2.5; stroke-linecap: square"/>
   </g>
   <g id="patch_3">
    <path d="M 108 224.28 
L 108 30.24 
" style="fill: none; stroke: #000000; stroke-width: 0.8; stroke-linejoin: miter; stroke-linecap: square"/>
   </g>
   <g id="patch_4">
    <path d="M 777.6 224.28 
L 777.6 30.24 
" style="fill: none; stroke: #000000; stroke-width: 0.8; stroke-linejoin: miter; stroke-linecap: square"/>
   </g>
   <g id="patch_5">
    <path d="M 108 224.28 
L 777.6 224.28 
" style="fill: none; stroke: #000000; stroke-width: 0.8; stroke-linejoin: miter; stroke-linecap: square"/>
   </g>
   <g id="patch_6">
    <path d="M 108 30.24 
L 777.6 30.24 
" style="fill: none; stroke: #000000; stroke-width: 0.8; stroke-linejoin: miter; stroke-linecap: square"/>
   </g>
  </g>
  <g id="axes_2">
   <g id="matplotlib.axis_3">
    <g id="ytick_6">
     <g id="line2d_14">
      <defs>
       <path id="mab6a840d74" d="M 0 0 
L 3.5 0 
" style="stroke: #000000; stroke-width: 0.8"/>
      </defs>
      <g>
       <use xlink:href="#mab6a840d74" x="777.6" y="224.28" style="stroke: #000000; stroke-width: 0.8"/>
      </g>
     </g>
     <g id="text_14">
      <!-- 0 -->
      <g transform="translate(784.6 230.529375) scale(0.18 -0.18)">
       <use xlink:href="#TimesNewRomanPSMT-30"/>
      </g>
     </g>
    </g>
    <g id="ytick_7">
     <g id="line2d_15">
      <g>
       <use xlink:href="#mab6a840d74" x="777.6" y="168.84" style="stroke: #000000; stroke-width: 0.8"/>
      </g>
     </g>
     <g id="text_15">
      <!-- 20 -->
      <g transform="translate(784.6 175.089375) scale(0.18 -0.18)">
       <use xlink:href="#TimesNewRomanPSMT-32"/>
       <use xlink:href="#TimesNewRomanPSMT-30" x="50"/>
      </g>
     </g>
    </g>
    <g id="ytick_8">
     <g id="line2d_16">
      <g>
       <use xlink:href="#mab6a840d74" x="777.6" y="113.4" style="stroke: #000000; stroke-width: 0.8"/>
      </g>
     </g>
     <g id="text_16">
      <!-- 40 -->
      <g transform="translate(784.6 119.649375) scale(0.18 -0.18)">
       <use xlink:href="#TimesNewRomanPSMT-34"/>
       <use xlink:href="#TimesNewRomanPSMT-30" x="50"/>
      </g>
     </g>
    </g>
    <g id="ytick_9">
     <g id="line2d_17">
      <g>
       <use xlink:href="#mab6a840d74" x="777.6" y="57.96" style="stroke: #000000; stroke-width: 0.8"/>
      </g>
     </g>
     <g id="text_17">
      <!-- 60 -->
      <g transform="translate(784.6 64.209375) scale(0.18 -0.18)">
       <defs>
        <path id="TimesNewRomanPSMT-36" d="M 2869 4325 
L 2869 4209 
Q 2456 4169 2195 4045 
Q 1934 3922 1679 3669 
Q 1425 3416 1258 3105 
Q 1091 2794 978 2366 
Q 1428 2675 1881 2675 
Q 2316 2675 2634 2325 
Q 2953 1975 2953 1425 
Q 2953 894 2631 456 
Q 2244 -75 1606 -75 
Q 1172 -75 869 213 
Q 275 772 275 1663 
Q 275 2231 503 2743 
Q 731 3256 1154 3653 
Q 1578 4050 1965 4187 
Q 2353 4325 2688 4325 
L 2869 4325 
z
M 925 2138 
Q 869 1716 869 1456 
Q 869 1156 980 804 
Q 1091 453 1309 247 
Q 1469 100 1697 100 
Q 1969 100 2183 356 
Q 2397 613 2397 1088 
Q 2397 1622 2184 2012 
Q 1972 2403 1581 2403 
Q 1463 2403 1327 2353 
Q 1191 2303 925 2138 
z
" transform="scale(0.015625)"/>
       </defs>
       <use xlink:href="#TimesNewRomanPSMT-36"/>
       <use xlink:href="#TimesNewRomanPSMT-30" x="50"/>
      </g>
     </g>
    </g>
    <g id="text_18">
     <!-- Buffer (s) -->
     <g transform="translate(820.4875 166.235) rotate(-90) scale(0.2 -0.2)">
      <defs>
       <path id="TimesNewRomanPSMT-75" d="M 2709 2863 
L 2709 1128 
Q 2709 631 2732 520 
Q 2756 409 2807 365 
Q 2859 322 2928 322 
Q 3025 322 3147 375 
L 3191 266 
L 2334 -88 
L 2194 -88 
L 2194 519 
Q 1825 119 1631 15 
Q 1438 -88 1222 -88 
Q 981 -88 804 51 
Q 628 191 559 409 
Q 491 628 491 1028 
L 491 2306 
Q 491 2509 447 2587 
Q 403 2666 317 2708 
Q 231 2750 6 2747 
L 6 2863 
L 1009 2863 
L 1009 947 
Q 1009 547 1148 422 
Q 1288 297 1484 297 
Q 1619 297 1789 381 
Q 1959 466 2194 703 
L 2194 2325 
Q 2194 2569 2105 2655 
Q 2016 2741 1734 2747 
L 1734 2863 
L 2709 2863 
z
" transform="scale(0.015625)"/>
       <path id="TimesNewRomanPSMT-66" d="M 1319 2638 
L 1319 756 
Q 1319 356 1406 250 
Q 1522 113 1716 113 
L 1975 113 
L 1975 0 
L 266 0 
L 266 113 
L 394 113 
Q 519 113 622 175 
Q 725 238 764 344 
Q 803 450 803 756 
L 803 2638 
L 247 2638 
L 247 2863 
L 803 2863 
L 803 3050 
Q 803 3478 940 3775 
Q 1078 4072 1361 4255 
Q 1644 4438 1997 4438 
Q 2325 4438 2600 4225 
Q 2781 4084 2781 3909 
Q 2781 3816 2700 3733 
Q 2619 3650 2525 3650 
Q 2453 3650 2373 3701 
Q 2294 3753 2178 3923 
Q 2063 4094 1966 4153 
Q 1869 4213 1750 4213 
Q 1606 4213 1506 4136 
Q 1406 4059 1362 3898 
Q 1319 3738 1319 3069 
L 1319 2863 
L 2056 2863 
L 2056 2638 
L 1319 2638 
z
" transform="scale(0.015625)"/>
      </defs>
      <use xlink:href="#TimesNewRomanPSMT-42"/>
      <use xlink:href="#TimesNewRomanPSMT-75" x="66.699219"/>
      <use xlink:href="#TimesNewRomanPSMT-66" x="116.699219"/>
      <use xlink:href="#TimesNewRomanPSMT-66" x="148.25"/>
      <use xlink:href="#TimesNewRomanPSMT-65" x="181.550781"/>
      <use xlink:href="#TimesNewRomanPSMT-72" x="225.935547"/>
      <use xlink:href="#TimesNewRomanPSMT-20" x="259.236328"/>
      <use xlink:href="#TimesNewRomanPSMT-28" x="284.236328"/>
      <use xlink:href="#TimesNewRomanPSMT-73" x="317.537109"/>
      <use xlink:href="#TimesNewRomanPSMT-29" x="356.453125"/>
     </g>
    </g>
   </g>
   <g id="line2d_18">
    <path d="M 140.962203 219.824219 
L 146.013882 220.223062 
L 148.539721 224.28 
L 151.06556 224.28 
L 153.591399 220.381875 
L 156.117239 220.8843 
L 158.643078 217.869749 
L 161.168917 217.603966 
L 163.694757 220.242305 
L 166.220596 220.555837 
L 168.746435 224.28 
L 173.798114 212.614499 
L 176.323953 217.4655 
L 178.849793 217.3731 
L 181.375632 223.301647 
L 183.901471 216.021749 
L 186.42731 217.581 
L 188.95315 217.32747 
L 191.478989 217.6503 
L 194.004828 223.301647 
L 196.530668 212.903101 
L 199.056507 219.0825 
L 201.582346 215.887475 
L 204.108186 217.00464 
L 206.634025 214.360744 
L 209.159864 209.500113 
L 211.685704 209.481837 
L 214.211543 208.285107 
L 216.737382 216.443876 
L 219.263221 216.171145 
L 221.789061 221.577781 
L 224.3149 222.003101 
L 226.840739 223.301647 
L 229.366579 222.573166 
L 231.892418 217.268187 
L 234.418257 218.995581 
L 236.944097 217.855091 
L 239.469936 221.589665 
L 241.995775 221.742791 
L 244.521614 221.35785 
L 247.047454 222.83625 
L 249.573293 222.8555 
L 252.099132 222.714333 
L 254.624972 222.8835 
L 259.67665 222.042187 
L 262.20249 222.8555 
L 264.728329 222.714333 
L 267.254168 222.432 
L 269.780008 221.577781 
L 272.305847 222.003101 
L 274.831686 223.301647 
L 277.357525 222.573166 
L 279.883365 222.8555 
L 282.409204 222.714333 
L 284.935043 221.577781 
L 287.460883 222.003101 
L 289.986722 223.301647 
L 292.512561 222.573166 
L 295.038401 222.003101 
L 297.56424 223.301647 
L 300.090079 222.003101 
L 302.615919 223.301647 
L 305.141758 221.577781 
L 307.667597 222.003101 
L 310.193436 223.301647 
L 312.719276 222.573166 
L 315.245115 221.163906 
L 317.770954 218.545626 
L 320.296794 219.81675 
L 322.822633 224.28 
L 325.348472 224.28 
L 327.874312 213.67325 
L 330.400151 219.571154 
L 332.92599 224.28 
L 335.451829 219.061597 
L 337.977669 218.825123 
L 340.503508 213.75541 
L 343.029347 217.9695 
L 345.555187 218.363833 
L 348.081026 212.370666 
L 350.606865 211.59632 
L 353.132705 216.662625 
L 355.658544 215.806708 
L 358.184383 215.797166 
L 360.710223 224.28 
L 365.761901 224.28 
L 368.28774 216.426 
L 370.81358 209.807917 
L 373.339419 205.538587 
L 375.865258 211.780001 
L 378.391098 211.613002 
L 380.916937 213.192 
L 383.442776 212.133363 
L 385.968616 199.910023 
L 388.494455 206.146723 
L 391.020294 206.031 
L 393.546134 202.104 
L 396.071973 206.102779 
L 398.597812 206.3775 
L 401.123651 204.876 
L 403.649491 202.104 
L 406.17533 200.063499 
L 408.701169 197.464205 
L 411.227009 196.905412 
L 413.752848 196.56 
L 418.804527 202.104 
L 421.330366 202.104 
L 423.856205 196.56 
L 426.382045 193.788 
L 428.907884 188.244 
L 433.959562 182.7 
L 436.485402 185.472 
L 439.011241 185.472 
L 454.166277 202.104 
L 456.692116 196.56 
L 466.795473 207.648 
L 469.321313 212.007143 
L 471.847152 209.999248 
L 474.372991 218.273999 
L 476.898831 215.806708 
L 479.42467 215.797166 
L 481.950509 224.28 
L 487.002188 224.28 
L 489.528027 216.426 
L 492.053866 209.807917 
L 494.579706 216.89096 
L 497.105545 208.793138 
L 499.631384 212.892024 
L 502.157224 210.874939 
L 504.683063 208.260921 
L 507.208902 212.007143 
L 509.734742 209.999248 
L 512.260581 218.273999 
L 514.78642 219.804375 
L 517.31226 211.112733 
L 519.838099 211.698529 
L 522.363938 212.700828 
L 524.889777 205.712029 
L 527.415617 206.087881 
L 529.941456 204.340439 
L 532.467295 201.717065 
L 534.993135 197.698423 
L 537.518974 198.141943 
L 540.044813 200.039421 
L 542.570653 202.632669 
L 545.096492 198.253145 
L 547.622331 191.352726 
L 550.148171 196.159155 
L 552.67401 184.99981 
L 555.199849 190.54494 
L 557.725688 187.137139 
L 560.251528 189.788303 
L 562.777367 191.800435 
L 565.303206 187.717342 
L 567.829046 186.818406 
L 570.354885 190.649283 
L 572.880724 184.575928 
L 575.406564 177.75466 
L 577.932403 180.903005 
L 580.458242 174.367143 
L 582.984081 177.963356 
L 585.509921 176.620119 
L 588.03576 167.590926 
L 590.561599 168.756935 
L 593.087439 165.872171 
L 595.613278 163.832904 
L 598.139117 158.893914 
L 600.664957 156.957853 
L 603.190796 158.44332 
L 605.716635 153.990653 
L 608.242475 146.77643 
L 610.768314 150.731989 
L 613.294153 148.817386 
L 615.819992 146.173833 
L 618.345832 147.190238 
L 620.871671 144.93144 
L 623.39751 143.720858 
L 625.92335 142.910249 
L 628.449189 144.56674 
L 633.500868 143.93444 
L 636.026707 142.266243 
L 638.552546 143.244388 
L 641.078386 144.770547 
L 643.604225 144.535958 
L 648.655903 141.12 
L 651.181743 141.12 
L 653.707582 144.019926 
L 656.233421 145.998375 
L 658.759261 144.937128 
L 661.2851 144.209794 
L 666.336779 145.321312 
L 668.862618 144.52725 
L 671.388457 141.12 
L 673.914296 141.12 
L 676.440136 144.533666 
L 678.965975 148.769305 
L 681.491814 149.587746 
L 684.017654 146.302107 
L 686.543493 149.083736 
L 689.069332 146.459711 
L 691.595172 144.617484 
L 694.121011 149.005762 
L 696.64685 147.284642 
L 701.698529 152.707994 
L 704.224368 148.191463 
L 706.750207 150.657668 
L 709.276047 151.097372 
L 711.801886 153.06714 
L 714.327725 153.162367 
L 716.853565 150.638154 
L 719.379404 150.017572 
L 721.905243 146.719842 
L 724.431083 151.131943 
L 726.956922 153.947191 
L 729.482761 150.86472 
L 732.008601 149.165312 
L 734.53444 155.27231 
L 737.060279 162.107604 
L 739.586118 178.103812 
L 742.111958 164.981348 
L 744.637797 162.535256 
L 747.163636 160.719464 
L 747.163636 160.719464 
" clip-path="url(#p5c07e04280)" style="fill: none; stroke: #ffa500; stroke-opacity: 0.7; stroke-width: 2.5; stroke-linecap: square"/>
   </g>
   <g id="patch_7">
    <path d="M 108 224.28 
L 108 30.24 
" style="fill: none; stroke: #000000; stroke-width: 0.8; stroke-linejoin: miter; stroke-linecap: square"/>
   </g>
   <g id="patch_8">
    <path d="M 777.6 224.28 
L 777.6 30.24 
" style="fill: none; stroke: #000000; stroke-width: 0.8; stroke-linejoin: miter; stroke-linecap: square"/>
   </g>
   <g id="patch_9">
    <path d="M 108 224.28 
L 777.6 224.28 
" style="fill: none; stroke: #000000; stroke-width: 0.8; stroke-linejoin: miter; stroke-linecap: square"/>
   </g>
   <g id="patch_10">
    <path d="M 108 30.24 
L 777.6 30.24 
" style="fill: none; stroke: #000000; stroke-width: 0.8; stroke-linejoin: miter; stroke-linecap: square"/>
   </g>
  </g>
 </g>
 <defs>
  <clipPath id="p5c07e04280">
   <rect x="108" y="30.24" width="669.6" height="194.04"/>
  </clipPath>
 </defs>
</svg>
