<?xml version="1.0" encoding="utf-8" standalone="no"?>
<!DOCTYPE svg PUBLIC "-//W3C//DTD SVG 1.1//EN"
  "http://www.w3.org/Graphics/SVG/1.1/DTD/svg11.dtd">
<svg xmlns:xlink="http://www.w3.org/1999/xlink" width="820.045625pt" height="270.858125pt" viewBox="0 0 820.045625 270.858125" xmlns="http://www.w3.org/2000/svg" version="1.1">
 <metadata>
  <rdf:RDF xmlns:dc="http://purl.org/dc/elements/1.1/" xmlns:cc="http://creativecommons.org/ns#" xmlns:rdf="http://www.w3.org/1999/02/22-rdf-syntax-ns#">
   <cc:Work>
    <dc:type rdf:resource="http://purl.org/dc/dcmitype/StillImage"/>
    <dc:date>2024-04-13T14:15:44.831332</dc:date>
    <dc:format>image/svg+xml</dc:format>
    <dc:creator>
     <cc:Agent>
      <dc:title>Matplotlib v3.8.3, https://matplotlib.org/</dc:title>
     </cc:Agent>
    </dc:creator>
   </cc:Work>
  </rdf:RDF>
 </metadata>
 <defs>
  <style type="text/css">*{stroke-linejoin: round; stroke-linecap: butt}</style>
 </defs>
 <g id="figure_1">
  <g id="patch_1">
   <path d="M 0 270.858125 
L 820.045625 270.858125 
L 820.045625 0 
L 0 0 
z
" style="fill: #ffffff"/>
  </g>
  <g id="axes_1">
   <g id="patch_2">
    <path d="M 68.365625 219.96 
L 737.965625 219.96 
L 737.965625 25.92 
L 68.365625 25.92 
z
" style="fill: #ffffff"/>
   </g>
   <g id="PolyCollection_1">
    <path d="M 127.290425 141.443814 
L 127.290425 138.263988 
L 129.968825 130.219005 
L 132.647225 122.174021 
L 135.325625 118.941755 
L 138.004025 115.709489 
L 140.682425 108.569904 
L 143.360825 104.662584 
L 146.039225 100.755265 
L 146.039225 103.921095 
L 146.039225 103.921095 
L 143.360825 109.477075 
L 140.682425 114.992909 
L 138.004025 120.453389 
L 135.325625 125.843459 
L 132.647225 131.148258 
L 129.968825 136.35316 
L 127.290425 141.443814 
z
" clip-path="url(#p0f1602af26)" style="fill: #808080; fill-opacity: 0.3"/>
    <path d="M 285.316025 44.293073 
L 285.316025 42.201407 
L 287.994425 40.016989 
L 290.672825 42.565476 
L 293.351225 45.113964 
L 296.029625 45.113964 
L 298.708025 42.565476 
L 301.386425 40.016989 
L 304.064825 44.385825 
L 306.743225 49.482799 
L 309.421625 49.482799 
L 312.100025 45.113964 
L 314.778425 40.016989 
L 317.456825 40.016989 
L 320.135225 40.016989 
L 322.813625 40.016989 
L 325.492025 40.016989 
L 328.170425 55.307913 
L 330.848825 70.598838 
L 333.527225 85.889762 
L 336.205625 85.889762 
L 338.884025 101.180686 
L 341.562425 101.180686 
L 344.240825 101.180686 
L 346.919225 85.889762 
L 349.597625 101.180686 
L 352.276025 116.471611 
L 354.954425 131.762535 
L 357.632825 131.762535 
L 360.311225 131.762535 
L 362.989625 131.762535 
L 365.668025 131.762535 
L 368.346425 131.762535 
L 371.024825 131.762535 
L 373.703225 131.762535 
L 376.381625 131.762535 
L 379.060025 131.762535 
L 381.738425 131.762535 
L 384.416825 105.549522 
L 387.095225 79.336509 
L 389.773625 53.123496 
L 392.452025 78.350545 
L 395.130425 104.784718 
L 397.808825 125.404432 
L 400.487225 120.797096 
L 403.165625 107.709417 
L 405.844025 100.436199 
L 408.522425 93.16298 
L 411.200825 102.372638 
L 413.879225 110.0181 
L 416.557625 111.416425 
L 419.236025 98.08337 
L 421.914425 86.31451 
L 424.592825 80.792787 
L 427.271225 86.968133 
L 429.949625 93.143479 
L 432.628025 99.318825 
L 435.306425 94.84247 
L 437.984825 89.745496 
L 440.663225 84.648521 
L 443.341625 84.0279 
L 446.020025 79.551546 
L 448.698425 75.075192 
L 451.376825 70.598838 
L 454.055225 65.501863 
L 456.733625 60.404888 
L 459.412025 55.307913 
L 462.090425 65.501863 
L 464.768825 72.637628 
L 467.447225 79.773392 
L 470.125625 76.715207 
L 472.804025 81.472384 
L 475.482425 84.530569 
L 475.482425 85.19667 
L 475.482425 85.19667 
L 472.804025 90.775152 
L 470.125625 96.365052 
L 467.447225 101.950956 
L 464.768825 107.517465 
L 462.090425 113.04923 
L 459.412025 118.531 
L 456.733625 123.947661 
L 454.055225 129.284278 
L 451.376825 134.526137 
L 448.698425 139.658785 
L 446.020025 144.668072 
L 443.341625 149.540186 
L 440.663225 154.261694 
L 437.984825 158.819578 
L 435.306425 163.201272 
L 432.628025 167.394693 
L 429.949625 171.388281 
L 427.271225 175.171025 
L 424.592825 178.732495 
L 421.914425 182.062871 
L 419.236025 185.152972 
L 416.557625 187.994277 
L 413.879225 190.578952 
L 411.200825 192.899872 
L 408.522425 194.950637 
L 405.844025 196.725592 
L 403.165625 198.219845 
L 400.487225 199.429275 
L 397.808825 200.350547 
L 395.130425 200.981122 
L 392.452025 201.319261 
L 389.773625 201.364032 
L 387.095225 201.11531 
L 384.416825 200.573783 
L 381.738425 199.740943 
L 379.060025 198.619086 
L 376.381625 197.211305 
L 373.703225 195.521483 
L 371.024825 193.554277 
L 368.346425 191.315112 
L 365.668025 188.810162 
L 362.989625 186.046332 
L 360.311225 183.031244 
L 357.632825 179.77321 
L 354.954425 176.281213 
L 352.276025 172.564882 
L 349.597625 168.634462 
L 346.919225 164.50079 
L 344.240825 160.175264 
L 341.562425 155.669809 
L 338.884025 150.996847 
L 336.205625 146.169264 
L 333.527225 141.200368 
L 330.848825 136.103861 
L 328.170425 130.893793 
L 325.492025 125.584529 
L 322.813625 120.190709 
L 320.135225 114.727204 
L 317.456825 109.209076 
L 314.778425 103.651541 
L 312.100025 98.069922 
L 309.421625 92.479607 
L 306.743225 86.89601 
L 304.064825 81.334526 
L 301.386425 75.810489 
L 298.708025 70.339129 
L 296.029625 64.935531 
L 293.351225 59.614594 
L 290.672825 54.390988 
L 287.994425 49.279117 
L 285.316025 44.293073 
z
" clip-path="url(#p0f1602af26)" style="fill: #808080; fill-opacity: 0.3"/>
    <path d="M 638.864825 111.164398 
L 638.864825 107.437467 
L 641.543225 104.226968 
L 644.221625 101.016469 
L 646.900025 97.80597 
L 649.578425 105.511168 
L 652.256825 114.571487 
L 654.935225 126.185222 
L 657.613625 128.564496 
L 660.292025 129.588649 
L 662.970425 128.059385 
L 665.648825 132.222 
L 668.327225 139.713164 
L 671.005625 147.204328 
L 673.684025 150.532877 
L 676.362425 148.155146 
L 679.040825 145.777415 
L 681.719225 143.399684 
L 684.397625 148.391051 
L 687.076025 153.382417 
L 689.754425 165.019567 
L 692.432825 168.912675 
L 695.111225 172.805783 
L 697.789625 170.053108 
L 700.468025 171.429445 
L 703.146425 164.396987 
L 705.824825 157.364528 
L 705.824825 200.798529 
L 705.824825 200.798529 
L 703.146425 200.068414 
L 700.468025 199.048379 
L 697.789625 197.741237 
L 695.111225 196.150592 
L 692.432825 194.280829 
L 689.754425 192.137103 
L 687.076025 189.725326 
L 684.397625 187.052147 
L 681.719225 184.124936 
L 679.040825 180.951763 
L 676.362425 177.541379 
L 673.684025 173.903185 
L 671.005625 170.047212 
L 668.327225 165.984093 
L 665.648825 161.725029 
L 662.970425 157.281764 
L 660.292025 152.666549 
L 657.613625 147.892107 
L 654.935225 142.971603 
L 652.256825 137.918604 
L 649.578425 132.747041 
L 646.900025 127.471173 
L 644.221625 122.105546 
L 641.543225 116.664954 
L 638.864825 111.164398 
z
" clip-path="url(#p0f1602af26)" style="fill: #808080; fill-opacity: 0.3"/>
   </g>
   <g id="PolyCollection_2">
    <path d="M 71.044025 208.686222 
L 71.044025 201.368624 
L 73.722425 201.134093 
L 76.400825 200.606704 
L 79.079225 199.787911 
L 81.757625 198.679972 
L 84.436025 197.285941 
L 87.114425 195.609663 
L 89.792825 193.655758 
L 92.471225 191.429614 
L 95.149625 188.93737 
L 97.828025 186.185895 
L 100.506425 183.182777 
L 103.184825 179.936295 
L 105.863225 176.455401 
L 108.541625 172.749692 
L 111.220025 168.829385 
L 113.898425 164.705289 
L 116.576825 160.388774 
L 119.255225 155.891742 
L 121.933625 151.226591 
L 124.612025 146.406185 
L 124.612025 148.174323 
L 124.612025 148.174323 
L 121.933625 155.108729 
L 119.255225 165.776116 
L 116.576825 175.117509 
L 113.898425 179.389847 
L 111.220025 180.82636 
L 108.541625 182.714367 
L 105.863225 184.602373 
L 103.184825 185.593223 
L 100.506425 188.112651 
L 97.828025 190.632079 
L 95.149625 194.314473 
L 92.471225 201.054206 
L 89.792825 207.793939 
L 87.114425 211.14 
L 84.436025 208.909293 
L 81.757625 206.678586 
L 79.079225 207.347798 
L 76.400825 208.01701 
L 73.722425 208.686222 
L 71.044025 208.686222 
z
" clip-path="url(#p0f1602af26)" style="fill: #808080; fill-opacity: 0.3"/>
    <path d="M 148.717625 101.768341 
L 148.717625 98.340287 
L 151.396025 92.750038 
L 154.074425 87.165761 
L 156.752825 81.602854 
L 159.431225 76.076653 
L 162.109625 70.602396 
L 164.788025 65.195175 
L 167.466425 59.869899 
L 170.144825 54.641251 
L 172.823225 49.523646 
L 175.501625 44.531195 
L 178.180025 39.677663 
L 180.858425 34.976431 
L 183.536825 34.74 
L 186.215225 34.74 
L 188.893625 34.74 
L 191.572025 34.74 
L 194.250425 34.74 
L 196.928825 34.74 
L 199.607225 34.74 
L 202.285625 34.74 
L 204.964025 34.74 
L 207.642425 34.74 
L 210.320825 34.74 
L 212.999225 34.74 
L 215.677625 34.74 
L 218.356025 34.74 
L 221.034425 34.74 
L 223.712825 34.74 
L 226.391225 34.74 
L 229.069625 34.74 
L 231.748025 34.74 
L 234.426425 34.74 
L 237.104825 34.74 
L 239.783225 34.74 
L 242.461625 34.74 
L 245.140025 34.74 
L 247.818425 34.74 
L 250.496825 34.74 
L 253.175225 34.74 
L 255.853625 34.74 
L 258.532025 34.74 
L 261.210425 34.74 
L 263.888825 34.74 
L 266.567225 34.74 
L 269.245625 34.74 
L 271.924025 34.74 
L 274.602425 34.74 
L 277.280825 34.74 
L 279.959225 34.753073 
L 282.637625 39.446604 
L 282.637625 44.385825 
L 282.637625 44.385825 
L 279.959225 46.570242 
L 277.280825 47.252873 
L 274.602425 50.16543 
L 271.924025 53.077987 
L 269.245625 56.327308 
L 266.567225 55.935233 
L 263.888825 55.543158 
L 261.210425 54.131688 
L 258.532025 54.131688 
L 255.853625 54.131688 
L 253.175225 54.131688 
L 250.496825 55.543158 
L 247.818425 56.954628 
L 245.140025 55.307913 
L 242.461625 52.249728 
L 239.783225 47.523443 
L 237.104825 44.465258 
L 234.426425 41.407073 
L 231.748025 40.016989 
L 229.069625 40.016989 
L 226.391225 40.016989 
L 223.712825 40.016989 
L 221.034425 40.016989 
L 218.356025 40.016989 
L 215.677625 40.016989 
L 212.999225 40.016989 
L 210.320825 40.016989 
L 207.642425 47.662451 
L 204.964025 56.157409 
L 202.285625 64.652367 
L 199.607225 65.744576 
L 196.928825 65.987289 
L 194.250425 65.137793 
L 191.572025 64.045584 
L 188.893625 62.953375 
L 186.215225 67.540653 
L 183.536825 72.12793 
L 180.858425 70.598838 
L 178.180025 64.482468 
L 175.501625 58.366098 
L 172.823225 62.443678 
L 170.144825 71.618233 
L 167.466425 78.534251 
L 164.788025 81.37269 
L 162.109625 79.114154 
L 159.431225 86.933026 
L 156.752825 94.751898 
L 154.074425 102.978678 
L 151.396025 102.373509 
L 148.717625 101.768341 
z
" clip-path="url(#p0f1602af26)" style="fill: #808080; fill-opacity: 0.3"/>
    <path d="M 478.160825 87.588754 
L 478.160825 79.644987 
L 480.839225 74.135408 
L 483.517625 68.683124 
L 486.196025 63.303169 
L 488.874425 58.010376 
L 491.552825 52.819337 
L 494.231225 47.744365 
L 496.909625 42.799452 
L 499.588025 37.998233 
L 502.266425 34.74 
L 504.944825 34.74 
L 507.623225 34.74 
L 510.301625 34.74 
L 512.980025 34.74 
L 515.658425 34.74 
L 518.336825 34.74 
L 521.015225 34.74 
L 523.693625 34.74 
L 526.372025 34.74 
L 529.050425 34.74 
L 531.728825 34.74 
L 534.407225 34.74 
L 537.085625 34.74 
L 539.764025 34.74 
L 542.442425 34.74 
L 545.120825 34.74 
L 547.799225 34.74 
L 550.477625 34.74 
L 553.156025 34.74 
L 555.834425 34.74 
L 558.512825 34.74 
L 561.191225 34.74 
L 563.869625 34.74 
L 566.548025 34.74 
L 569.226425 34.74 
L 571.904825 34.74 
L 574.583225 34.74 
L 577.261625 34.74 
L 579.940025 34.74 
L 582.618425 34.74 
L 585.296825 34.74 
L 587.975225 34.74 
L 590.653625 34.74 
L 593.332025 34.74 
L 596.010425 34.74 
L 598.688825 34.74 
L 601.367225 36.39341 
L 604.045625 41.142488 
L 606.724025 46.039828 
L 609.402425 51.071927 
L 612.080825 56.224911 
L 614.759225 61.484572 
L 617.437625 66.836409 
L 620.116025 72.265666 
L 622.794425 77.757374 
L 625.472825 83.296391 
L 628.151225 88.867445 
L 630.829625 94.455176 
L 633.508025 100.044179 
L 636.186425 105.619043 
L 636.186425 110.324767 
L 636.186425 110.324767 
L 633.508025 113.212067 
L 630.829625 107.72849 
L 628.151225 97.658622 
L 625.472825 87.588754 
L 622.794425 85.889762 
L 620.116025 88.979149 
L 617.437625 90.543344 
L 614.759225 92.10754 
L 612.080825 90.582348 
L 609.402425 96.200721 
L 606.724025 102.009593 
L 604.045625 98.746406 
L 601.367225 89.864846 
L 598.688825 80.792787 
L 596.010425 82.491779 
L 593.332025 84.19077 
L 590.653625 79.336509 
L 587.975225 72.783255 
L 585.296825 66.230002 
L 582.618425 66.666886 
L 579.940025 67.103769 
L 577.261625 66.01156 
L 574.583225 64.482468 
L 571.904825 62.953375 
L 569.226425 62.953375 
L 566.548025 62.953375 
L 563.869625 62.953375 
L 561.191225 64.864741 
L 558.512825 68.141368 
L 555.834425 71.417994 
L 553.156025 71.417994 
L 550.477625 68.141368 
L 547.799225 64.864741 
L 545.120825 59.676749 
L 542.442425 56.400122 
L 539.764025 48.75466 
L 537.085625 44.385825 
L 534.407225 40.016989 
L 531.728825 40.016989 
L 529.050425 40.016989 
L 526.372025 40.016989 
L 523.693625 40.016989 
L 521.015225 43.83972 
L 518.336825 49.95609 
L 515.658425 60.150039 
L 512.980025 66.521258 
L 510.301625 70.598838 
L 507.623225 66.521258 
L 504.944825 62.443678 
L 502.266425 58.366098 
L 499.588025 72.637628 
L 496.909625 74.16672 
L 494.231225 75.695812 
L 491.552825 62.953375 
L 488.874425 73.657023 
L 486.196025 81.302485 
L 483.517625 88.947947 
L 480.839225 85.889762 
L 478.160825 87.588754 
z
" clip-path="url(#p0f1602af26)" style="fill: #808080; fill-opacity: 0.3"/>
   </g>
   <g id="matplotlib.axis_1">
    <g id="xtick_1">
     <g id="line2d_1">
      <defs>
       <path id="mc8961f5127" d="M 0 0 
L 0 3.5 
" style="stroke: #000000; stroke-width: 0.8"/>
      </defs>
      <g>
       <use xlink:href="#mc8961f5127" x="68.365625" y="219.96" style="stroke: #000000; stroke-width: 0.8"/>
      </g>
     </g>
     <g id="text_1">
      <!-- 0 -->
      <g transform="translate(64.365625 238.07) scale(0.16 -0.16)">
       <defs>
        <path id="TimesNewRomanPSMT-30" d="M 231 2094 
Q 231 2819 450 3342 
Q 669 3866 1031 4122 
Q 1313 4325 1613 4325 
Q 2100 4325 2488 3828 
Q 2972 3213 2972 2159 
Q 2972 1422 2759 906 
Q 2547 391 2217 158 
Q 1888 -75 1581 -75 
Q 975 -75 572 641 
Q 231 1244 231 2094 
z
M 844 2016 
Q 844 1141 1059 588 
Q 1238 122 1591 122 
Q 1759 122 1940 273 
Q 2122 425 2216 781 
Q 2359 1319 2359 2297 
Q 2359 3022 2209 3506 
Q 2097 3866 1919 4016 
Q 1791 4119 1609 4119 
Q 1397 4119 1231 3928 
Q 1006 3669 925 3112 
Q 844 2556 844 2016 
z
" transform="scale(0.015625)"/>
       </defs>
       <use xlink:href="#TimesNewRomanPSMT-30"/>
      </g>
     </g>
    </g>
    <g id="xtick_2">
     <g id="line2d_2">
      <g>
       <use xlink:href="#mc8961f5127" x="202.285625" y="219.96" style="stroke: #000000; stroke-width: 0.8"/>
      </g>
     </g>
     <g id="text_2">
      <!-- 50 -->
      <g transform="translate(194.285625 238.07) scale(0.16 -0.16)">
       <defs>
        <path id="TimesNewRomanPSMT-35" d="M 2778 4238 
L 2534 3706 
L 1259 3706 
L 981 3138 
Q 1809 3016 2294 2522 
Q 2709 2097 2709 1522 
Q 2709 1188 2573 903 
Q 2438 619 2231 419 
Q 2025 219 1772 97 
Q 1413 -75 1034 -75 
Q 653 -75 479 54 
Q 306 184 306 341 
Q 306 428 378 495 
Q 450 563 559 563 
Q 641 563 702 538 
Q 763 513 909 409 
Q 1144 247 1384 247 
Q 1750 247 2026 523 
Q 2303 800 2303 1197 
Q 2303 1581 2056 1914 
Q 1809 2247 1375 2428 
Q 1034 2569 447 2591 
L 1259 4238 
L 2778 4238 
z
" transform="scale(0.015625)"/>
       </defs>
       <use xlink:href="#TimesNewRomanPSMT-35"/>
       <use xlink:href="#TimesNewRomanPSMT-30" x="50"/>
      </g>
     </g>
    </g>
    <g id="xtick_3">
     <g id="line2d_3">
      <g>
       <use xlink:href="#mc8961f5127" x="336.205625" y="219.96" style="stroke: #000000; stroke-width: 0.8"/>
      </g>
     </g>
     <g id="text_3">
      <!-- 100 -->
      <g transform="translate(324.205625 238.07) scale(0.16 -0.16)">
       <defs>
        <path id="TimesNewRomanPSMT-31" d="M 750 3822 
L 1781 4325 
L 1884 4325 
L 1884 747 
Q 1884 391 1914 303 
Q 1944 216 2037 169 
Q 2131 122 2419 116 
L 2419 0 
L 825 0 
L 825 116 
Q 1125 122 1212 167 
Q 1300 213 1334 289 
Q 1369 366 1369 747 
L 1369 3034 
Q 1369 3497 1338 3628 
Q 1316 3728 1258 3775 
Q 1200 3822 1119 3822 
Q 1003 3822 797 3725 
L 750 3822 
z
" transform="scale(0.015625)"/>
       </defs>
       <use xlink:href="#TimesNewRomanPSMT-31"/>
       <use xlink:href="#TimesNewRomanPSMT-30" x="50"/>
       <use xlink:href="#TimesNewRomanPSMT-30" x="100"/>
      </g>
     </g>
    </g>
    <g id="xtick_4">
     <g id="line2d_4">
      <g>
       <use xlink:href="#mc8961f5127" x="470.125625" y="219.96" style="stroke: #000000; stroke-width: 0.8"/>
      </g>
     </g>
     <g id="text_4">
      <!-- 150 -->
      <g transform="translate(458.125625 238.07) scale(0.16 -0.16)">
       <use xlink:href="#TimesNewRomanPSMT-31"/>
       <use xlink:href="#TimesNewRomanPSMT-35" x="50"/>
       <use xlink:href="#TimesNewRomanPSMT-30" x="100"/>
      </g>
     </g>
    </g>
    <g id="xtick_5">
     <g id="line2d_5">
      <g>
       <use xlink:href="#mc8961f5127" x="604.045625" y="219.96" style="stroke: #000000; stroke-width: 0.8"/>
      </g>
     </g>
     <g id="text_5">
      <!-- 200 -->
      <g transform="translate(592.045625 238.07) scale(0.16 -0.16)">
       <defs>
        <path id="TimesNewRomanPSMT-32" d="M 2934 816 
L 2638 0 
L 138 0 
L 138 116 
Q 1241 1122 1691 1759 
Q 2141 2397 2141 2925 
Q 2141 3328 1894 3587 
Q 1647 3847 1303 3847 
Q 991 3847 742 3664 
Q 494 3481 375 3128 
L 259 3128 
Q 338 3706 661 4015 
Q 984 4325 1469 4325 
Q 1984 4325 2329 3994 
Q 2675 3663 2675 3213 
Q 2675 2891 2525 2569 
Q 2294 2063 1775 1497 
Q 997 647 803 472 
L 1909 472 
Q 2247 472 2383 497 
Q 2519 522 2628 598 
Q 2738 675 2819 816 
L 2934 816 
z
" transform="scale(0.015625)"/>
       </defs>
       <use xlink:href="#TimesNewRomanPSMT-32"/>
       <use xlink:href="#TimesNewRomanPSMT-30" x="50"/>
       <use xlink:href="#TimesNewRomanPSMT-30" x="100"/>
      </g>
     </g>
    </g>
    <g id="xtick_6">
     <g id="line2d_6">
      <g>
       <use xlink:href="#mc8961f5127" x="737.965625" y="219.96" style="stroke: #000000; stroke-width: 0.8"/>
      </g>
     </g>
     <g id="text_6">
      <!-- 250 -->
      <g transform="translate(725.965625 238.07) scale(0.16 -0.16)">
       <use xlink:href="#TimesNewRomanPSMT-32"/>
       <use xlink:href="#TimesNewRomanPSMT-35" x="50"/>
       <use xlink:href="#TimesNewRomanPSMT-30" x="100"/>
      </g>
     </g>
    </g>
    <g id="text_7">
     <!-- Time (s) -->
     <g transform="translate(369.360938 259.38) scale(0.2 -0.2)">
      <defs>
       <path id="TimesNewRomanPSMT-54" d="M 3703 4238 
L 3750 3244 
L 3631 3244 
Q 3597 3506 3538 3619 
Q 3441 3800 3280 3886 
Q 3119 3972 2856 3972 
L 2259 3972 
L 2259 734 
Q 2259 344 2344 247 
Q 2463 116 2709 116 
L 2856 116 
L 2856 0 
L 1059 0 
L 1059 116 
L 1209 116 
Q 1478 116 1591 278 
Q 1659 378 1659 734 
L 1659 3972 
L 1150 3972 
Q 853 3972 728 3928 
Q 566 3869 450 3700 
Q 334 3531 313 3244 
L 194 3244 
L 244 4238 
L 3703 4238 
z
" transform="scale(0.015625)"/>
       <path id="TimesNewRomanPSMT-69" d="M 928 4444 
Q 1059 4444 1151 4351 
Q 1244 4259 1244 4128 
Q 1244 3997 1151 3903 
Q 1059 3809 928 3809 
Q 797 3809 703 3903 
Q 609 3997 609 4128 
Q 609 4259 701 4351 
Q 794 4444 928 4444 
z
M 1188 2947 
L 1188 647 
Q 1188 378 1227 289 
Q 1266 200 1342 156 
Q 1419 113 1622 113 
L 1622 0 
L 231 0 
L 231 113 
Q 441 113 512 153 
Q 584 194 626 287 
Q 669 381 669 647 
L 669 1750 
Q 669 2216 641 2353 
Q 619 2453 572 2492 
Q 525 2531 444 2531 
Q 356 2531 231 2484 
L 188 2597 
L 1050 2947 
L 1188 2947 
z
" transform="scale(0.015625)"/>
       <path id="TimesNewRomanPSMT-6d" d="M 1050 2338 
Q 1363 2650 1419 2697 
Q 1559 2816 1721 2881 
Q 1884 2947 2044 2947 
Q 2313 2947 2506 2790 
Q 2700 2634 2766 2338 
Q 3088 2713 3309 2830 
Q 3531 2947 3766 2947 
Q 3994 2947 4170 2830 
Q 4347 2713 4450 2447 
Q 4519 2266 4519 1878 
L 4519 647 
Q 4519 378 4559 278 
Q 4591 209 4675 161 
Q 4759 113 4950 113 
L 4950 0 
L 3538 0 
L 3538 113 
L 3597 113 
Q 3781 113 3884 184 
Q 3956 234 3988 344 
Q 4000 397 4000 647 
L 4000 1878 
Q 4000 2228 3916 2372 
Q 3794 2572 3525 2572 
Q 3359 2572 3192 2489 
Q 3025 2406 2788 2181 
L 2781 2147 
L 2788 2013 
L 2788 647 
Q 2788 353 2820 281 
Q 2853 209 2943 161 
Q 3034 113 3253 113 
L 3253 0 
L 1806 0 
L 1806 113 
Q 2044 113 2133 169 
Q 2222 225 2256 338 
Q 2272 391 2272 647 
L 2272 1878 
Q 2272 2228 2169 2381 
Q 2031 2581 1784 2581 
Q 1616 2581 1450 2491 
Q 1191 2353 1050 2181 
L 1050 647 
Q 1050 366 1089 281 
Q 1128 197 1204 155 
Q 1281 113 1516 113 
L 1516 0 
L 100 0 
L 100 113 
Q 297 113 375 155 
Q 453 197 493 289 
Q 534 381 534 647 
L 534 1741 
Q 534 2213 506 2350 
Q 484 2453 437 2492 
Q 391 2531 309 2531 
Q 222 2531 100 2484 
L 53 2597 
L 916 2947 
L 1050 2947 
L 1050 2338 
z
" transform="scale(0.015625)"/>
       <path id="TimesNewRomanPSMT-65" d="M 681 1784 
Q 678 1147 991 784 
Q 1303 422 1725 422 
Q 2006 422 2214 576 
Q 2422 731 2563 1106 
L 2659 1044 
Q 2594 616 2278 264 
Q 1963 -88 1488 -88 
Q 972 -88 605 314 
Q 238 716 238 1394 
Q 238 2128 614 2539 
Q 991 2950 1559 2950 
Q 2041 2950 2350 2633 
Q 2659 2316 2659 1784 
L 681 1784 
z
M 681 1966 
L 2006 1966 
Q 1991 2241 1941 2353 
Q 1863 2528 1708 2628 
Q 1553 2728 1384 2728 
Q 1125 2728 920 2526 
Q 716 2325 681 1966 
z
" transform="scale(0.015625)"/>
       <path id="TimesNewRomanPSMT-20" transform="scale(0.015625)"/>
       <path id="TimesNewRomanPSMT-28" d="M 1988 -1253 
L 1988 -1369 
Q 1516 -1131 1200 -813 
Q 750 -359 506 256 
Q 263 872 263 1534 
Q 263 2503 741 3301 
Q 1219 4100 1988 4444 
L 1988 4313 
Q 1603 4100 1356 3731 
Q 1109 3363 987 2797 
Q 866 2231 866 1616 
Q 866 947 969 400 
Q 1050 -31 1165 -292 
Q 1281 -553 1476 -793 
Q 1672 -1034 1988 -1253 
z
" transform="scale(0.015625)"/>
       <path id="TimesNewRomanPSMT-73" d="M 2050 2947 
L 2050 1972 
L 1947 1972 
Q 1828 2431 1642 2597 
Q 1456 2763 1169 2763 
Q 950 2763 815 2647 
Q 681 2531 681 2391 
Q 681 2216 781 2091 
Q 878 1963 1175 1819 
L 1631 1597 
Q 2266 1288 2266 781 
Q 2266 391 1970 151 
Q 1675 -88 1309 -88 
Q 1047 -88 709 6 
Q 606 38 541 38 
Q 469 38 428 -44 
L 325 -44 
L 325 978 
L 428 978 
Q 516 541 762 319 
Q 1009 97 1316 97 
Q 1531 97 1667 223 
Q 1803 350 1803 528 
Q 1803 744 1651 891 
Q 1500 1038 1047 1263 
Q 594 1488 453 1669 
Q 313 1847 313 2119 
Q 313 2472 555 2709 
Q 797 2947 1181 2947 
Q 1350 2947 1591 2875 
Q 1750 2828 1803 2828 
Q 1853 2828 1881 2850 
Q 1909 2872 1947 2947 
L 2050 2947 
z
" transform="scale(0.015625)"/>
       <path id="TimesNewRomanPSMT-29" d="M 144 4313 
L 144 4444 
Q 619 4209 934 3891 
Q 1381 3434 1625 2820 
Q 1869 2206 1869 1541 
Q 1869 572 1392 -226 
Q 916 -1025 144 -1369 
L 144 -1253 
Q 528 -1038 776 -670 
Q 1025 -303 1145 264 
Q 1266 831 1266 1447 
Q 1266 2113 1163 2663 
Q 1084 3094 967 3353 
Q 850 3613 656 3853 
Q 463 4094 144 4313 
z
" transform="scale(0.015625)"/>
      </defs>
      <use xlink:href="#TimesNewRomanPSMT-54"/>
      <use xlink:href="#TimesNewRomanPSMT-69" x="57.583984"/>
      <use xlink:href="#TimesNewRomanPSMT-6d" x="85.367188"/>
      <use xlink:href="#TimesNewRomanPSMT-65" x="163.150391"/>
      <use xlink:href="#TimesNewRomanPSMT-20" x="207.535156"/>
      <use xlink:href="#TimesNewRomanPSMT-28" x="232.535156"/>
      <use xlink:href="#TimesNewRomanPSMT-73" x="265.835938"/>
      <use xlink:href="#TimesNewRomanPSMT-29" x="304.751953"/>
     </g>
    </g>
   </g>
   <g id="matplotlib.axis_2">
    <g id="ytick_1">
     <g id="line2d_7">
      <defs>
       <path id="m20695233da" d="M 0 0 
L -3.5 0 
" style="stroke: #000000; stroke-width: 0.8"/>
      </defs>
      <g>
       <use xlink:href="#m20695233da" x="68.365625" y="219.897509" style="stroke: #000000; stroke-width: 0.8"/>
      </g>
     </g>
     <g id="text_8">
      <!-- 0 -->
      <g transform="translate(53.365625 225.452509) scale(0.16 -0.16)">
       <use xlink:href="#TimesNewRomanPSMT-30"/>
      </g>
     </g>
    </g>
    <g id="ytick_2">
     <g id="line2d_8">
      <g>
       <use xlink:href="#m20695233da" x="68.365625" y="173.608132" style="stroke: #000000; stroke-width: 0.8"/>
      </g>
     </g>
     <g id="text_9">
      <!-- 1000 -->
      <g transform="translate(29.365625 179.163132) scale(0.16 -0.16)">
       <use xlink:href="#TimesNewRomanPSMT-31"/>
       <use xlink:href="#TimesNewRomanPSMT-30" x="50"/>
       <use xlink:href="#TimesNewRomanPSMT-30" x="100"/>
       <use xlink:href="#TimesNewRomanPSMT-30" x="150"/>
      </g>
     </g>
    </g>
    <g id="ytick_3">
     <g id="line2d_9">
      <g>
       <use xlink:href="#m20695233da" x="68.365625" y="127.318755" style="stroke: #000000; stroke-width: 0.8"/>
      </g>
     </g>
     <g id="text_10">
      <!-- 2000 -->
      <g transform="translate(29.365625 132.873755) scale(0.16 -0.16)">
       <use xlink:href="#TimesNewRomanPSMT-32"/>
       <use xlink:href="#TimesNewRomanPSMT-30" x="50"/>
       <use xlink:href="#TimesNewRomanPSMT-30" x="100"/>
       <use xlink:href="#TimesNewRomanPSMT-30" x="150"/>
      </g>
     </g>
    </g>
    <g id="ytick_4">
     <g id="line2d_10">
      <g>
       <use xlink:href="#m20695233da" x="68.365625" y="81.029377" style="stroke: #000000; stroke-width: 0.8"/>
      </g>
     </g>
     <g id="text_11">
      <!-- 3000 -->
      <g transform="translate(29.365625 86.584377) scale(0.16 -0.16)">
       <defs>
        <path id="TimesNewRomanPSMT-33" d="M 325 3431 
Q 506 3859 782 4092 
Q 1059 4325 1472 4325 
Q 1981 4325 2253 3994 
Q 2459 3747 2459 3466 
Q 2459 3003 1878 2509 
Q 2269 2356 2469 2072 
Q 2669 1788 2669 1403 
Q 2669 853 2319 450 
Q 1863 -75 997 -75 
Q 569 -75 414 31 
Q 259 138 259 259 
Q 259 350 332 419 
Q 406 488 509 488 
Q 588 488 669 463 
Q 722 447 909 348 
Q 1097 250 1169 231 
Q 1284 197 1416 197 
Q 1734 197 1970 444 
Q 2206 691 2206 1028 
Q 2206 1275 2097 1509 
Q 2016 1684 1919 1775 
Q 1784 1900 1550 2001 
Q 1316 2103 1072 2103 
L 972 2103 
L 972 2197 
Q 1219 2228 1467 2375 
Q 1716 2522 1828 2728 
Q 1941 2934 1941 3181 
Q 1941 3503 1739 3701 
Q 1538 3900 1238 3900 
Q 753 3900 428 3381 
L 325 3431 
z
" transform="scale(0.015625)"/>
       </defs>
       <use xlink:href="#TimesNewRomanPSMT-33"/>
       <use xlink:href="#TimesNewRomanPSMT-30" x="50"/>
       <use xlink:href="#TimesNewRomanPSMT-30" x="100"/>
       <use xlink:href="#TimesNewRomanPSMT-30" x="150"/>
      </g>
     </g>
    </g>
    <g id="ytick_5">
     <g id="line2d_11">
      <g>
       <use xlink:href="#m20695233da" x="68.365625" y="34.74" style="stroke: #000000; stroke-width: 0.8"/>
      </g>
     </g>
     <g id="text_12">
      <!-- 4000 -->
      <g transform="translate(29.365625 40.295) scale(0.16 -0.16)">
       <defs>
        <path id="TimesNewRomanPSMT-34" d="M 2978 1563 
L 2978 1119 
L 2409 1119 
L 2409 0 
L 1894 0 
L 1894 1119 
L 100 1119 
L 100 1519 
L 2066 4325 
L 2409 4325 
L 2409 1563 
L 2978 1563 
z
M 1894 1563 
L 1894 3666 
L 406 1563 
L 1894 1563 
z
" transform="scale(0.015625)"/>
       </defs>
       <use xlink:href="#TimesNewRomanPSMT-34"/>
       <use xlink:href="#TimesNewRomanPSMT-30" x="50"/>
       <use xlink:href="#TimesNewRomanPSMT-30" x="100"/>
       <use xlink:href="#TimesNewRomanPSMT-30" x="150"/>
      </g>
     </g>
    </g>
    <g id="text_13">
     <!-- Bitrate (kbps) -->
     <g transform="translate(21.0875 178.204062) rotate(-90) scale(0.2 -0.2)">
      <defs>
       <path id="TimesNewRomanPSMT-42" d="M 2956 2163 
Q 3397 2069 3616 1863 
Q 3919 1575 3919 1159 
Q 3919 844 3719 555 
Q 3519 266 3170 133 
Q 2822 0 2106 0 
L 106 0 
L 106 116 
L 266 116 
Q 531 116 647 284 
Q 719 394 719 750 
L 719 3488 
Q 719 3881 628 3984 
Q 506 4122 266 4122 
L 106 4122 
L 106 4238 
L 1938 4238 
Q 2450 4238 2759 4163 
Q 3228 4050 3475 3764 
Q 3722 3478 3722 3106 
Q 3722 2788 3528 2536 
Q 3334 2284 2956 2163 
z
M 1319 2331 
Q 1434 2309 1582 2298 
Q 1731 2288 1909 2288 
Q 2366 2288 2595 2386 
Q 2825 2484 2947 2687 
Q 3069 2891 3069 3131 
Q 3069 3503 2766 3765 
Q 2463 4028 1881 4028 
Q 1569 4028 1319 3959 
L 1319 2331 
z
M 1319 306 
Q 1681 222 2034 222 
Q 2600 222 2897 476 
Q 3194 731 3194 1106 
Q 3194 1353 3059 1581 
Q 2925 1809 2622 1940 
Q 2319 2072 1872 2072 
Q 1678 2072 1540 2065 
Q 1403 2059 1319 2044 
L 1319 306 
z
" transform="scale(0.015625)"/>
       <path id="TimesNewRomanPSMT-74" d="M 1031 3803 
L 1031 2863 
L 1700 2863 
L 1700 2644 
L 1031 2644 
L 1031 788 
Q 1031 509 1111 412 
Q 1191 316 1316 316 
Q 1419 316 1516 380 
Q 1613 444 1666 569 
L 1788 569 
Q 1678 263 1478 108 
Q 1278 -47 1066 -47 
Q 922 -47 784 33 
Q 647 113 581 261 
Q 516 409 516 719 
L 516 2644 
L 63 2644 
L 63 2747 
Q 234 2816 414 2980 
Q 594 3144 734 3369 
Q 806 3488 934 3803 
L 1031 3803 
z
" transform="scale(0.015625)"/>
       <path id="TimesNewRomanPSMT-72" d="M 1038 2947 
L 1038 2303 
Q 1397 2947 1775 2947 
Q 1947 2947 2059 2842 
Q 2172 2738 2172 2600 
Q 2172 2478 2090 2393 
Q 2009 2309 1897 2309 
Q 1788 2309 1652 2417 
Q 1516 2525 1450 2525 
Q 1394 2525 1328 2463 
Q 1188 2334 1038 2041 
L 1038 669 
Q 1038 431 1097 309 
Q 1138 225 1241 169 
Q 1344 113 1538 113 
L 1538 0 
L 72 0 
L 72 113 
Q 291 113 397 181 
Q 475 231 506 341 
Q 522 394 522 644 
L 522 1753 
Q 522 2253 501 2348 
Q 481 2444 426 2487 
Q 372 2531 291 2531 
Q 194 2531 72 2484 
L 41 2597 
L 906 2947 
L 1038 2947 
z
" transform="scale(0.015625)"/>
       <path id="TimesNewRomanPSMT-61" d="M 1822 413 
Q 1381 72 1269 19 
Q 1100 -59 909 -59 
Q 613 -59 420 144 
Q 228 347 228 678 
Q 228 888 322 1041 
Q 450 1253 767 1440 
Q 1084 1628 1822 1897 
L 1822 2009 
Q 1822 2438 1686 2597 
Q 1550 2756 1291 2756 
Q 1094 2756 978 2650 
Q 859 2544 859 2406 
L 866 2225 
Q 866 2081 792 2003 
Q 719 1925 600 1925 
Q 484 1925 411 2006 
Q 338 2088 338 2228 
Q 338 2497 613 2722 
Q 888 2947 1384 2947 
Q 1766 2947 2009 2819 
Q 2194 2722 2281 2516 
Q 2338 2381 2338 1966 
L 2338 994 
Q 2338 584 2353 492 
Q 2369 400 2405 369 
Q 2441 338 2488 338 
Q 2538 338 2575 359 
Q 2641 400 2828 588 
L 2828 413 
Q 2478 -56 2159 -56 
Q 2006 -56 1915 50 
Q 1825 156 1822 413 
z
M 1822 616 
L 1822 1706 
Q 1350 1519 1213 1441 
Q 966 1303 859 1153 
Q 753 1003 753 825 
Q 753 600 887 451 
Q 1022 303 1197 303 
Q 1434 303 1822 616 
z
" transform="scale(0.015625)"/>
       <path id="TimesNewRomanPSMT-6b" d="M 1047 4444 
L 1047 1597 
L 1775 2259 
Q 2006 2472 2044 2528 
Q 2069 2566 2069 2603 
Q 2069 2666 2017 2711 
Q 1966 2756 1847 2763 
L 1847 2863 
L 3091 2863 
L 3091 2763 
Q 2834 2756 2664 2684 
Q 2494 2613 2291 2428 
L 1556 1750 
L 2291 822 
Q 2597 438 2703 334 
Q 2853 188 2966 144 
Q 3044 113 3238 113 
L 3238 0 
L 1847 0 
L 1847 113 
Q 1966 116 2008 148 
Q 2050 181 2050 241 
Q 2050 313 1925 472 
L 1047 1594 
L 1047 644 
Q 1047 366 1086 278 
Q 1125 191 1197 153 
Q 1269 116 1509 113 
L 1509 0 
L 53 0 
L 53 113 
Q 272 113 381 166 
Q 447 200 481 272 
Q 528 375 528 628 
L 528 3234 
Q 528 3731 506 3842 
Q 484 3953 434 3995 
Q 384 4038 303 4038 
Q 238 4038 106 3984 
L 53 4094 
L 903 4444 
L 1047 4444 
z
" transform="scale(0.015625)"/>
       <path id="TimesNewRomanPSMT-62" d="M 984 2369 
Q 1400 2947 1881 2947 
Q 2322 2947 2650 2570 
Q 2978 2194 2978 1541 
Q 2978 778 2472 313 
Q 2038 -88 1503 -88 
Q 1253 -88 995 3 
Q 738 94 469 275 
L 469 3241 
Q 469 3728 445 3840 
Q 422 3953 372 3993 
Q 322 4034 247 4034 
Q 159 4034 28 3984 
L -16 4094 
L 844 4444 
L 984 4444 
L 984 2369 
z
M 984 2169 
L 984 456 
Q 1144 300 1314 220 
Q 1484 141 1663 141 
Q 1947 141 2192 453 
Q 2438 766 2438 1363 
Q 2438 1913 2192 2208 
Q 1947 2503 1634 2503 
Q 1469 2503 1303 2419 
Q 1178 2356 984 2169 
z
" transform="scale(0.015625)"/>
       <path id="TimesNewRomanPSMT-70" d="M -6 2578 
L 875 2934 
L 994 2934 
L 994 2266 
Q 1216 2644 1439 2795 
Q 1663 2947 1909 2947 
Q 2341 2947 2628 2609 
Q 2981 2197 2981 1534 
Q 2981 794 2556 309 
Q 2206 -88 1675 -88 
Q 1444 -88 1275 -22 
Q 1150 25 994 166 
L 994 -706 
Q 994 -1000 1030 -1079 
Q 1066 -1159 1155 -1206 
Q 1244 -1253 1478 -1253 
L 1478 -1369 
L -22 -1369 
L -22 -1253 
L 56 -1253 
Q 228 -1256 350 -1188 
Q 409 -1153 442 -1076 
Q 475 -1000 475 -688 
L 475 2019 
Q 475 2297 450 2372 
Q 425 2447 370 2484 
Q 316 2522 222 2522 
Q 147 2522 31 2478 
L -6 2578 
z
M 994 2081 
L 994 1013 
Q 994 666 1022 556 
Q 1066 375 1236 237 
Q 1406 100 1666 100 
Q 1978 100 2172 344 
Q 2425 663 2425 1241 
Q 2425 1897 2138 2250 
Q 1938 2494 1663 2494 
Q 1513 2494 1366 2419 
Q 1253 2363 994 2081 
z
" transform="scale(0.015625)"/>
      </defs>
      <use xlink:href="#TimesNewRomanPSMT-42"/>
      <use xlink:href="#TimesNewRomanPSMT-69" x="66.699219"/>
      <use xlink:href="#TimesNewRomanPSMT-74" x="94.482422"/>
      <use xlink:href="#TimesNewRomanPSMT-72" x="122.265625"/>
      <use xlink:href="#TimesNewRomanPSMT-61" x="155.566406"/>
      <use xlink:href="#TimesNewRomanPSMT-74" x="199.951172"/>
      <use xlink:href="#TimesNewRomanPSMT-65" x="227.734375"/>
      <use xlink:href="#TimesNewRomanPSMT-20" x="272.119141"/>
      <use xlink:href="#TimesNewRomanPSMT-28" x="297.119141"/>
      <use xlink:href="#TimesNewRomanPSMT-6b" x="330.419922"/>
      <use xlink:href="#TimesNewRomanPSMT-62" x="380.419922"/>
      <use xlink:href="#TimesNewRomanPSMT-70" x="430.419922"/>
      <use xlink:href="#TimesNewRomanPSMT-73" x="480.419922"/>
      <use xlink:href="#TimesNewRomanPSMT-29" x="519.335938"/>
     </g>
    </g>
   </g>
   <g id="line2d_12">
    <path d="M 68.365625 201.381758 
L 70.679994 201.272811 
L 72.994363 200.946192 
L 75.37302 200.384381 
L 77.751677 199.59456 
L 80.194622 198.547854 
L 82.701855 197.227906 
L 85.273377 195.618875 
L 87.909186 193.705603 
L 90.673571 191.417364 
L 93.502244 188.78431 
L 96.459494 185.724892 
L 99.545319 182.209143 
L 102.75972 178.209414 
L 106.166986 173.6111 
L 109.767116 168.373739 
L 113.624397 162.35941 
L 117.738831 155.522521 
L 122.174705 147.71385 
L 127.060595 138.656187 
L 132.653654 127.803135 
L 139.403897 114.193825 
L 149.947134 92.357474 
L 161.261827 69.068969 
L 167.819206 56.077786 
L 173.283688 45.729902 
L 178.10529 37.061399 
L 179.519627 34.74 
L 278.716055 34.77825 
L 283.216217 42.729673 
L 288.166395 51.939963 
L 293.823742 62.953222 
L 300.702561 76.857042 
L 312.14583 100.583369 
L 322.367627 121.573849 
L 328.860718 134.407797 
L 334.260912 144.606109 
L 339.082514 153.247523 
L 343.4541 160.63677 
L 347.504246 167.055734 
L 351.29724 172.658017 
L 354.833081 177.496308 
L 358.240347 181.785765 
L 361.454748 185.479554 
L 364.540574 188.68944 
L 367.497823 191.445604 
L 370.326496 193.780255 
L 373.026593 195.726939 
L 375.662403 197.356452 
L 378.233924 198.684192 
L 380.741157 199.726333 
L 383.184102 200.499628 
L 385.562759 201.021244 
L 387.941416 201.313473 
L 390.255785 201.377029 
L 392.570154 201.2227 
L 394.948811 200.837372 
L 397.327468 200.223055 
L 399.706125 199.381077 
L 402.149071 198.281285 
L 404.656304 196.907489 
L 407.227825 195.244028 
L 409.863634 193.275949 
L 412.628019 190.931459 
L 415.520981 188.177849 
L 418.542518 184.983625 
L 421.692631 181.319165 
L 424.971321 177.157463 
L 428.442874 172.383214 
L 432.107292 166.957273 
L 436.028862 160.741984 
L 440.207584 153.694513 
L 444.772034 145.550261 
L 449.850788 136.017789 
L 455.636711 124.670208 
L 462.901258 109.902252 
L 487.652149 59.147953 
L 493.373783 48.178625 
L 498.323962 39.154807 
L 500.895483 34.74 
L 600.156199 34.833468 
L 604.656361 42.787995 
L 609.606539 52.00118 
L 615.263886 63.017043 
L 622.142705 76.922977 
L 633.650262 100.783777 
L 643.807771 121.638614 
L 650.300862 134.469917 
L 655.701056 144.665267 
L 660.522658 153.303478 
L 664.894244 160.68939 
L 668.94439 167.104921 
L 672.737384 172.70371 
L 676.273225 177.538517 
L 679.680491 181.824426 
L 682.894892 185.514709 
L 685.980718 188.7211 
L 688.937967 191.473806 
L 691.76664 193.805061 
L 694.466738 195.748433 
L 697.102547 197.374654 
L 699.674068 198.699136 
L 702.181301 199.738064 
L 704.624246 200.508201 
L 707.002903 201.026724 
L 709.38156 201.315848 
L 711.181625 201.381758 
L 711.181625 201.381758 
" clip-path="url(#p0f1602af26)" style="fill: none; stroke: #0000ff; stroke-opacity: 0.3; stroke-width: 2.5; stroke-linecap: square"/>
   </g>
   <g id="line2d_13">
    <path d="M 71.044025 208.686222 
L 73.722425 208.686222 
L 81.757625 206.678586 
L 87.114425 211.14 
L 89.792825 207.793939 
L 95.149625 194.314473 
L 97.828025 190.632079 
L 103.184825 185.593223 
L 105.863225 184.602373 
L 111.220025 180.82636 
L 113.898425 179.389847 
L 116.576825 175.117509 
L 119.255225 165.776116 
L 121.933625 155.108729 
L 124.612025 148.174323 
L 127.290425 138.263988 
L 132.647225 122.174021 
L 138.004025 115.709489 
L 140.682425 108.569904 
L 146.039225 100.755265 
L 148.717625 101.768341 
L 154.074425 102.978678 
L 156.752825 94.751898 
L 162.109625 79.114154 
L 164.788025 81.37269 
L 167.466425 78.534251 
L 170.144825 71.618233 
L 172.823225 62.443678 
L 175.501625 58.366098 
L 180.858425 70.598838 
L 183.536825 72.12793 
L 188.893625 62.953375 
L 194.250425 65.137793 
L 196.928825 65.987289 
L 199.607225 65.744576 
L 202.285625 64.652367 
L 207.642425 47.662451 
L 210.320825 40.016989 
L 231.748025 40.016989 
L 234.426425 41.407073 
L 239.783225 47.523443 
L 242.461625 52.249728 
L 245.140025 55.307913 
L 247.818425 56.954628 
L 253.175225 54.131688 
L 261.210425 54.131688 
L 263.888825 55.543158 
L 269.245625 56.327308 
L 271.924025 53.077987 
L 277.280825 47.252873 
L 279.959225 46.570242 
L 287.994425 40.016989 
L 293.351225 45.113964 
L 296.029625 45.113964 
L 301.386425 40.016989 
L 304.064825 44.385825 
L 306.743225 49.482799 
L 309.421625 49.482799 
L 312.100025 45.113964 
L 314.778425 40.016989 
L 325.492025 40.016989 
L 333.527225 85.889762 
L 336.205625 85.889762 
L 338.884025 101.180686 
L 344.240825 101.180686 
L 346.919225 85.889762 
L 354.954425 131.762535 
L 381.738425 131.762535 
L 389.773625 53.123496 
L 392.452025 78.350545 
L 395.130425 104.784718 
L 397.808825 125.404432 
L 400.487225 120.797096 
L 403.165625 107.709417 
L 408.522425 93.16298 
L 411.200825 102.372638 
L 413.879225 110.0181 
L 416.557625 111.416425 
L 419.236025 98.08337 
L 421.914425 86.31451 
L 424.592825 80.792787 
L 432.628025 99.318825 
L 435.306425 94.84247 
L 440.663225 84.648521 
L 443.341625 84.0279 
L 451.376825 70.598838 
L 459.412025 55.307913 
L 462.090425 65.501863 
L 467.447225 79.773392 
L 470.125625 76.715207 
L 472.804025 81.472384 
L 478.160825 87.588754 
L 480.839225 85.889762 
L 483.517625 88.947947 
L 488.874425 73.657023 
L 491.552825 62.953375 
L 494.231225 75.695812 
L 499.588025 72.637628 
L 502.266425 58.366098 
L 510.301625 70.598838 
L 512.980025 66.521258 
L 515.658425 60.150039 
L 518.336825 49.95609 
L 521.015225 43.83972 
L 523.693625 40.016989 
L 534.407225 40.016989 
L 539.764025 48.75466 
L 542.442425 56.400122 
L 545.120825 59.676749 
L 547.799225 64.864741 
L 553.156025 71.417994 
L 555.834425 71.417994 
L 561.191225 64.864741 
L 563.869625 62.953375 
L 571.904825 62.953375 
L 577.261625 66.01156 
L 579.940025 67.103769 
L 585.296825 66.230002 
L 590.653625 79.336509 
L 593.332025 84.19077 
L 598.688825 80.792787 
L 604.045625 98.746406 
L 606.724025 102.009593 
L 612.080825 90.582348 
L 614.759225 92.10754 
L 620.116025 88.979149 
L 622.794425 85.889762 
L 625.472825 87.588754 
L 630.829625 107.72849 
L 633.508025 113.212067 
L 638.864825 107.437467 
L 646.900025 97.80597 
L 649.578425 105.511168 
L 652.256825 114.571487 
L 654.935225 126.185222 
L 657.613625 128.564496 
L 660.292025 129.588649 
L 662.970425 128.059385 
L 665.648825 132.222 
L 671.005625 147.204328 
L 673.684025 150.532877 
L 681.719225 143.399684 
L 687.076025 153.382417 
L 689.754425 165.019567 
L 695.111225 172.805783 
L 697.789625 170.053108 
L 700.468025 171.429445 
L 705.824825 157.364528 
L 705.824825 157.364528 
" clip-path="url(#p0f1602af26)" style="fill: none; stroke: #1f77b4; stroke-opacity: 0.7; stroke-width: 2.5; stroke-linecap: square"/>
   </g>
   <g id="patch_3">
    <path d="M 68.365625 219.96 
L 68.365625 25.92 
" style="fill: none; stroke: #000000; stroke-width: 0.8; stroke-linejoin: miter; stroke-linecap: square"/>
   </g>
   <g id="patch_4">
    <path d="M 737.965625 219.96 
L 737.965625 25.92 
" style="fill: none; stroke: #000000; stroke-width: 0.8; stroke-linejoin: miter; stroke-linecap: square"/>
   </g>
   <g id="patch_5">
    <path d="M 68.365625 219.96 
L 737.965625 219.96 
" style="fill: none; stroke: #000000; stroke-width: 0.8; stroke-linejoin: miter; stroke-linecap: square"/>
   </g>
   <g id="patch_6">
    <path d="M 68.365625 25.92 
L 737.965625 25.92 
" style="fill: none; stroke: #000000; stroke-width: 0.8; stroke-linejoin: miter; stroke-linecap: square"/>
   </g>
  </g>
  <g id="axes_2">
   <g id="matplotlib.axis_3">
    <g id="ytick_6">
     <g id="line2d_14">
      <defs>
       <path id="mefe4aed54a" d="M 0 0 
L 3.5 0 
" style="stroke: #000000; stroke-width: 0.8"/>
      </defs>
      <g>
       <use xlink:href="#mefe4aed54a" x="737.965625" y="219.96" style="stroke: #000000; stroke-width: 0.8"/>
      </g>
     </g>
     <g id="text_14">
      <!-- 0 -->
      <g transform="translate(744.965625 226.209375) scale(0.18 -0.18)">
       <use xlink:href="#TimesNewRomanPSMT-30"/>
      </g>
     </g>
    </g>
    <g id="ytick_7">
     <g id="line2d_15">
      <g>
       <use xlink:href="#mefe4aed54a" x="737.965625" y="164.52" style="stroke: #000000; stroke-width: 0.8"/>
      </g>
     </g>
     <g id="text_15">
      <!-- 20 -->
      <g transform="translate(744.965625 170.769375) scale(0.18 -0.18)">
       <use xlink:href="#TimesNewRomanPSMT-32"/>
       <use xlink:href="#TimesNewRomanPSMT-30" x="50"/>
      </g>
     </g>
    </g>
    <g id="ytick_8">
     <g id="line2d_16">
      <g>
       <use xlink:href="#mefe4aed54a" x="737.965625" y="109.08" style="stroke: #000000; stroke-width: 0.8"/>
      </g>
     </g>
     <g id="text_16">
      <!-- 40 -->
      <g transform="translate(744.965625 115.329375) scale(0.18 -0.18)">
       <use xlink:href="#TimesNewRomanPSMT-34"/>
       <use xlink:href="#TimesNewRomanPSMT-30" x="50"/>
      </g>
     </g>
    </g>
    <g id="ytick_9">
     <g id="line2d_17">
      <g>
       <use xlink:href="#mefe4aed54a" x="737.965625" y="53.64" style="stroke: #000000; stroke-width: 0.8"/>
      </g>
     </g>
     <g id="text_17">
      <!-- 60 -->
      <g transform="translate(744.965625 59.889375) scale(0.18 -0.18)">
       <defs>
        <path id="TimesNewRomanPSMT-36" d="M 2869 4325 
L 2869 4209 
Q 2456 4169 2195 4045 
Q 1934 3922 1679 3669 
Q 1425 3416 1258 3105 
Q 1091 2794 978 2366 
Q 1428 2675 1881 2675 
Q 2316 2675 2634 2325 
Q 2953 1975 2953 1425 
Q 2953 894 2631 456 
Q 2244 -75 1606 -75 
Q 1172 -75 869 213 
Q 275 772 275 1663 
Q 275 2231 503 2743 
Q 731 3256 1154 3653 
Q 1578 4050 1965 4187 
Q 2353 4325 2688 4325 
L 2869 4325 
z
M 925 2138 
Q 869 1716 869 1456 
Q 869 1156 980 804 
Q 1091 453 1309 247 
Q 1469 100 1697 100 
Q 1969 100 2183 356 
Q 2397 613 2397 1088 
Q 2397 1622 2184 2012 
Q 1972 2403 1581 2403 
Q 1463 2403 1327 2353 
Q 1191 2303 925 2138 
z
" transform="scale(0.015625)"/>
       </defs>
       <use xlink:href="#TimesNewRomanPSMT-36"/>
       <use xlink:href="#TimesNewRomanPSMT-30" x="50"/>
      </g>
     </g>
    </g>
    <g id="text_18">
     <!-- Buffer (s) -->
     <g transform="translate(780.853125 161.915) rotate(-90) scale(0.2 -0.2)">
      <defs>
       <path id="TimesNewRomanPSMT-75" d="M 2709 2863 
L 2709 1128 
Q 2709 631 2732 520 
Q 2756 409 2807 365 
Q 2859 322 2928 322 
Q 3025 322 3147 375 
L 3191 266 
L 2334 -88 
L 2194 -88 
L 2194 519 
Q 1825 119 1631 15 
Q 1438 -88 1222 -88 
Q 981 -88 804 51 
Q 628 191 559 409 
Q 491 628 491 1028 
L 491 2306 
Q 491 2509 447 2587 
Q 403 2666 317 2708 
Q 231 2750 6 2747 
L 6 2863 
L 1009 2863 
L 1009 947 
Q 1009 547 1148 422 
Q 1288 297 1484 297 
Q 1619 297 1789 381 
Q 1959 466 2194 703 
L 2194 2325 
Q 2194 2569 2105 2655 
Q 2016 2741 1734 2747 
L 1734 2863 
L 2709 2863 
z
" transform="scale(0.015625)"/>
       <path id="TimesNewRomanPSMT-66" d="M 1319 2638 
L 1319 756 
Q 1319 356 1406 250 
Q 1522 113 1716 113 
L 1975 113 
L 1975 0 
L 266 0 
L 266 113 
L 394 113 
Q 519 113 622 175 
Q 725 238 764 344 
Q 803 450 803 756 
L 803 2638 
L 247 2638 
L 247 2863 
L 803 2863 
L 803 3050 
Q 803 3478 940 3775 
Q 1078 4072 1361 4255 
Q 1644 4438 1997 4438 
Q 2325 4438 2600 4225 
Q 2781 4084 2781 3909 
Q 2781 3816 2700 3733 
Q 2619 3650 2525 3650 
Q 2453 3650 2373 3701 
Q 2294 3753 2178 3923 
Q 2063 4094 1966 4153 
Q 1869 4213 1750 4213 
Q 1606 4213 1506 4136 
Q 1406 4059 1362 3898 
Q 1319 3738 1319 3069 
L 1319 2863 
L 2056 2863 
L 2056 2638 
L 1319 2638 
z
" transform="scale(0.015625)"/>
      </defs>
      <use xlink:href="#TimesNewRomanPSMT-42"/>
      <use xlink:href="#TimesNewRomanPSMT-75" x="66.699219"/>
      <use xlink:href="#TimesNewRomanPSMT-66" x="116.699219"/>
      <use xlink:href="#TimesNewRomanPSMT-66" x="148.25"/>
      <use xlink:href="#TimesNewRomanPSMT-65" x="181.550781"/>
      <use xlink:href="#TimesNewRomanPSMT-72" x="225.935547"/>
      <use xlink:href="#TimesNewRomanPSMT-20" x="259.236328"/>
      <use xlink:href="#TimesNewRomanPSMT-28" x="284.236328"/>
      <use xlink:href="#TimesNewRomanPSMT-73" x="317.537109"/>
      <use xlink:href="#TimesNewRomanPSMT-29" x="356.453125"/>
     </g>
    </g>
   </g>
   <g id="line2d_18">
    <path d="M 71.044025 199.303727 
L 73.722425 207.180749 
L 76.400825 198.567419 
L 79.079225 200.439606 
L 81.757625 203.042449 
L 84.436025 198.943092 
L 87.114425 203.983875 
L 89.792825 193.341316 
L 92.471225 197.591503 
L 95.149625 202.328296 
L 97.828025 190.599345 
L 100.506425 189.550183 
L 103.184825 192.094457 
L 105.863225 189.071952 
L 108.541625 188.57463 
L 111.220025 186.318285 
L 113.898425 188.3162 
L 116.576825 184.408202 
L 119.255225 182.920676 
L 121.933625 175.656235 
L 124.612025 180.046941 
L 127.290425 179.42026 
L 129.968825 185.921423 
L 132.647225 180.501982 
L 135.325625 174.416357 
L 138.004025 176.376562 
L 140.682425 166.952294 
L 143.360825 164.368097 
L 146.039225 175.574516 
L 148.717625 168.527633 
L 151.396025 157.832711 
L 154.074425 160.000062 
L 156.752825 151.262961 
L 159.431225 158.588719 
L 162.109625 167.153397 
L 164.788025 152.755125 
L 167.466425 149.736421 
L 170.144825 144.487219 
L 172.823225 151.07505 
L 175.501625 151.03706 
L 178.180025 160.939497 
L 180.858425 151.238321 
L 183.536825 153.38285 
L 186.215225 147.668566 
L 188.893625 143.005604 
L 191.572025 145.568374 
L 194.250425 141.983061 
L 196.928825 144.583222 
L 199.607225 146.232562 
L 202.285625 139.284189 
L 204.964025 138.578699 
L 210.320825 138.923 
L 212.999225 138.360266 
L 215.677625 138.229208 
L 218.356025 137.794092 
L 221.034425 136.970808 
L 223.712825 136.692273 
L 226.391225 136.8 
L 229.069625 136.7055 
L 231.748025 139.133787 
L 234.426425 139.252698 
L 237.104825 138.190728 
L 239.783225 138.242135 
L 242.461625 137.813275 
L 247.818425 137.138188 
L 250.496825 136.677979 
L 253.175225 136.8 
L 282.637625 136.737808 
L 285.316025 136.6614 
L 287.994425 136.829085 
L 293.351225 136.785632 
L 296.029625 136.767 
L 298.708025 136.95675 
L 309.421625 136.8 
L 312.100025 137.415411 
L 314.778425 138.249772 
L 317.456825 137.009387 
L 320.135225 136.8 
L 322.813625 138.222105 
L 325.492025 137.839497 
L 328.170425 142.942666 
L 330.848825 140.828968 
L 333.527225 140.404843 
L 336.205625 138.604713 
L 338.884025 150.486276 
L 341.562425 147.540555 
L 344.240825 148.289422 
L 346.919225 145.80523 
L 349.597625 160.128586 
L 352.276025 157.954943 
L 354.954425 155.549095 
L 357.632825 156.719897 
L 360.311225 157.597697 
L 365.668025 153.755396 
L 368.346425 147.12525 
L 371.024825 143.312732 
L 373.703225 142.372464 
L 376.381625 145.299089 
L 379.060025 150.813886 
L 381.738425 151.92889 
L 384.416825 145.736278 
L 387.095225 147.010103 
L 389.773625 147.713263 
L 392.452025 147.466833 
L 395.130425 154.424809 
L 397.808825 157.349523 
L 400.487225 150.175946 
L 405.844025 149.062553 
L 408.522425 150.292321 
L 411.200825 147.349762 
L 413.879225 145.480412 
L 416.557625 147.749638 
L 419.236025 146.137293 
L 421.914425 144.861776 
L 424.592825 146.36541 
L 427.271225 145.952189 
L 429.949625 145.117507 
L 432.628025 144.444481 
L 435.306425 141.101719 
L 437.984825 142.261505 
L 440.663225 141.394511 
L 443.341625 138.775227 
L 446.020025 141.293068 
L 448.698425 140.10549 
L 451.376825 139.542951 
L 454.055225 138.140736 
L 456.733625 138.409267 
L 459.412025 138.312602 
L 462.090425 137.080207 
L 464.768825 137.119034 
L 467.447225 137.952011 
L 470.125625 137.559969 
L 472.804025 137.327503 
L 475.482425 136.958584 
L 478.160825 137.527499 
L 480.839225 137.656468 
L 483.517625 137.339352 
L 486.196025 138.968204 
L 488.874425 139.079028 
L 491.552825 138.494872 
L 494.231225 138.933296 
L 496.909625 140.971271 
L 499.588025 140.896747 
L 502.266425 140.438164 
L 504.944825 143.450872 
L 507.623225 143.7224 
L 510.301625 142.197785 
L 512.980025 142.719549 
L 515.658425 144.523905 
L 518.336825 147.640244 
L 521.015225 149.251099 
L 523.693625 144.355673 
L 529.050425 145.915257 
L 531.728825 144.577959 
L 534.407225 145.196689 
L 537.085625 145.36285 
L 539.764025 144.185928 
L 542.442425 147.046543 
L 545.120825 147.559035 
L 547.799225 145.9508 
L 550.477625 144.806001 
L 553.156025 144.159491 
L 555.834425 146.406538 
L 558.512825 145.679043 
L 561.191225 142.969334 
L 563.869625 143.365637 
L 566.548025 143.438083 
L 569.226425 142.352643 
L 571.904825 137.74284 
L 574.583225 143.078584 
L 577.261625 143.910938 
L 579.940025 143.893144 
L 582.618425 144.340629 
L 585.296825 143.695864 
L 587.975225 142.807378 
L 590.653625 142.322587 
L 593.332025 144.744674 
L 596.010425 148.331295 
L 598.688825 148.200999 
L 604.045625 150.464426 
L 606.724025 152.451572 
L 609.402425 148.537484 
L 612.080825 148.768451 
L 614.759225 153.972465 
L 617.437625 155.454573 
L 620.116025 152.466306 
L 622.794425 149.104748 
L 625.472825 149.18644 
L 628.151225 155.970109 
L 630.829625 155.725419 
L 633.508025 159.797292 
L 636.186425 155.616273 
L 638.864825 157.077306 
L 641.543225 155.707221 
L 644.221625 167.19471 
L 646.900025 169.245563 
L 649.578425 164.413521 
L 652.256825 165.260544 
L 654.935225 169.219518 
L 657.613625 165.61233 
L 660.292025 169.746158 
L 662.970425 170.559037 
L 665.648825 167.868121 
L 668.327225 179.488798 
L 671.005625 169.486942 
L 673.684025 176.776841 
L 676.362425 174.873786 
L 679.040825 170.722725 
L 681.719225 163.991547 
L 687.076025 160.258047 
L 689.754425 161.811433 
L 692.432825 164.421093 
L 695.111225 164.952445 
L 697.789625 165.614558 
L 700.468025 165.212997 
L 703.146425 175.937236 
L 705.824825 178.030028 
L 705.824825 178.030028 
" clip-path="url(#p0f1602af26)" style="fill: none; stroke: #ffa500; stroke-opacity: 0.7; stroke-width: 2.5; stroke-linecap: square"/>
   </g>
   <g id="patch_7">
    <path d="M 68.365625 219.96 
L 68.365625 25.92 
" style="fill: none; stroke: #000000; stroke-width: 0.8; stroke-linejoin: miter; stroke-linecap: square"/>
   </g>
   <g id="patch_8">
    <path d="M 737.965625 219.96 
L 737.965625 25.92 
" style="fill: none; stroke: #000000; stroke-width: 0.8; stroke-linejoin: miter; stroke-linecap: square"/>
   </g>
   <g id="patch_9">
    <path d="M 68.365625 219.96 
L 737.965625 219.96 
" style="fill: none; stroke: #000000; stroke-width: 0.8; stroke-linejoin: miter; stroke-linecap: square"/>
   </g>
   <g id="patch_10">
    <path d="M 68.365625 25.92 
L 737.965625 25.92 
" style="fill: none; stroke: #000000; stroke-width: 0.8; stroke-linejoin: miter; stroke-linecap: square"/>
   </g>
  </g>
  <g id="legend_1">
   <g id="patch_11">
    <path d="M 145.150025 51.0084 
L 803.917625 51.0084 
Q 808.525625 51.0084 808.525625 46.4004 
L 808.525625 16.128 
Q 808.525625 11.52 803.917625 11.52 
L 145.150025 11.52 
Q 140.542025 11.52 140.542025 16.128 
L 140.542025 46.4004 
Q 140.542025 51.0084 145.150025 51.0084 
z
" style="fill: #ffffff; opacity: 0.8; stroke: #cccccc; stroke-linejoin: miter"/>
   </g>
   <g id="line2d_19">
    <path d="M 149.758025 28.8 
L 172.798025 28.8 
L 195.838025 28.8 
" style="fill: none; stroke: #0000ff; stroke-opacity: 0.3; stroke-width: 2.5; stroke-linecap: square"/>
   </g>
   <g id="text_19">
    <!-- Available bandwidth -->
    <g transform="translate(214.270025 36.864) scale(0.2304 -0.2304)">
     <defs>
      <path id="TimesNewRomanPSMT-41" d="M 2928 1419 
L 1288 1419 
L 1000 750 
Q 894 503 894 381 
Q 894 284 986 211 
Q 1078 138 1384 116 
L 1384 0 
L 50 0 
L 50 116 
Q 316 163 394 238 
Q 553 388 747 847 
L 2238 4334 
L 2347 4334 
L 3822 809 
Q 4000 384 4145 257 
Q 4291 131 4550 116 
L 4550 0 
L 2878 0 
L 2878 116 
Q 3131 128 3220 200 
Q 3309 272 3309 375 
Q 3309 513 3184 809 
L 2928 1419 
z
M 2841 1650 
L 2122 3363 
L 1384 1650 
L 2841 1650 
z
" transform="scale(0.015625)"/>
      <path id="TimesNewRomanPSMT-76" d="M 53 2863 
L 1400 2863 
L 1400 2747 
L 1313 2747 
Q 1191 2747 1127 2687 
Q 1063 2628 1063 2528 
Q 1063 2419 1128 2269 
L 1794 688 
L 2463 2328 
Q 2534 2503 2534 2594 
Q 2534 2638 2509 2666 
Q 2475 2713 2422 2730 
Q 2369 2747 2206 2747 
L 2206 2863 
L 3141 2863 
L 3141 2747 
Q 2978 2734 2916 2681 
Q 2806 2588 2719 2369 
L 1703 -88 
L 1575 -88 
L 553 2328 
Q 484 2497 421 2570 
Q 359 2644 263 2694 
Q 209 2722 53 2747 
L 53 2863 
z
" transform="scale(0.015625)"/>
      <path id="TimesNewRomanPSMT-6c" d="M 1184 4444 
L 1184 647 
Q 1184 378 1223 290 
Q 1263 203 1344 158 
Q 1425 113 1647 113 
L 1647 0 
L 244 0 
L 244 113 
Q 441 113 512 153 
Q 584 194 625 287 
Q 666 381 666 647 
L 666 3247 
Q 666 3731 644 3842 
Q 622 3953 573 3993 
Q 525 4034 450 4034 
Q 369 4034 244 3984 
L 191 4094 
L 1044 4444 
L 1184 4444 
z
" transform="scale(0.015625)"/>
      <path id="TimesNewRomanPSMT-6e" d="M 1034 2341 
Q 1538 2947 1994 2947 
Q 2228 2947 2397 2830 
Q 2566 2713 2666 2444 
Q 2734 2256 2734 1869 
L 2734 647 
Q 2734 375 2778 278 
Q 2813 200 2889 156 
Q 2966 113 3172 113 
L 3172 0 
L 1756 0 
L 1756 113 
L 1816 113 
Q 2016 113 2095 173 
Q 2175 234 2206 353 
Q 2219 400 2219 647 
L 2219 1819 
Q 2219 2209 2117 2386 
Q 2016 2563 1775 2563 
Q 1403 2563 1034 2156 
L 1034 647 
Q 1034 356 1069 288 
Q 1113 197 1189 155 
Q 1266 113 1500 113 
L 1500 0 
L 84 0 
L 84 113 
L 147 113 
Q 366 113 442 223 
Q 519 334 519 647 
L 519 1709 
Q 519 2225 495 2337 
Q 472 2450 423 2490 
Q 375 2531 294 2531 
Q 206 2531 84 2484 
L 38 2597 
L 900 2947 
L 1034 2947 
L 1034 2341 
z
" transform="scale(0.015625)"/>
      <path id="TimesNewRomanPSMT-64" d="M 2222 322 
Q 2013 103 1813 7 
Q 1613 -88 1381 -88 
Q 913 -88 563 304 
Q 213 697 213 1313 
Q 213 1928 600 2439 
Q 988 2950 1597 2950 
Q 1975 2950 2222 2709 
L 2222 3238 
Q 2222 3728 2198 3840 
Q 2175 3953 2125 3993 
Q 2075 4034 2000 4034 
Q 1919 4034 1784 3984 
L 1744 4094 
L 2597 4444 
L 2738 4444 
L 2738 1134 
Q 2738 631 2761 520 
Q 2784 409 2836 365 
Q 2888 322 2956 322 
Q 3041 322 3181 375 
L 3216 266 
L 2366 -88 
L 2222 -88 
L 2222 322 
z
M 2222 541 
L 2222 2016 
Q 2203 2228 2109 2403 
Q 2016 2578 1861 2667 
Q 1706 2756 1559 2756 
Q 1284 2756 1069 2509 
Q 784 2184 784 1559 
Q 784 928 1059 592 
Q 1334 256 1672 256 
Q 1956 256 2222 541 
z
" transform="scale(0.015625)"/>
      <path id="TimesNewRomanPSMT-77" d="M 41 2863 
L 1241 2863 
L 1241 2747 
Q 1075 2734 1023 2687 
Q 972 2641 972 2553 
Q 972 2456 1025 2319 
L 1638 672 
L 2253 2013 
L 2091 2434 
Q 2016 2622 1894 2694 
Q 1825 2738 1638 2747 
L 1638 2863 
L 3000 2863 
L 3000 2747 
Q 2775 2738 2681 2666 
Q 2619 2616 2619 2506 
Q 2619 2444 2644 2378 
L 3294 734 
L 3897 2319 
Q 3959 2488 3959 2588 
Q 3959 2647 3898 2694 
Q 3838 2741 3659 2747 
L 3659 2863 
L 4563 2863 
L 4563 2747 
Q 4291 2706 4163 2378 
L 3206 -88 
L 3078 -88 
L 2363 1741 
L 1528 -88 
L 1413 -88 
L 494 2319 
Q 403 2547 315 2626 
Q 228 2706 41 2747 
L 41 2863 
z
" transform="scale(0.015625)"/>
      <path id="TimesNewRomanPSMT-68" d="M 1041 4444 
L 1041 2350 
Q 1388 2731 1591 2839 
Q 1794 2947 1997 2947 
Q 2241 2947 2416 2812 
Q 2591 2678 2675 2391 
Q 2734 2191 2734 1659 
L 2734 647 
Q 2734 375 2778 275 
Q 2809 200 2884 156 
Q 2959 113 3159 113 
L 3159 0 
L 1753 0 
L 1753 113 
L 1819 113 
Q 2019 113 2097 173 
Q 2175 234 2206 353 
Q 2216 403 2216 647 
L 2216 1659 
Q 2216 2128 2167 2275 
Q 2119 2422 2012 2495 
Q 1906 2569 1756 2569 
Q 1603 2569 1437 2487 
Q 1272 2406 1041 2159 
L 1041 647 
Q 1041 353 1073 281 
Q 1106 209 1195 161 
Q 1284 113 1503 113 
L 1503 0 
L 84 0 
L 84 113 
Q 275 113 384 172 
Q 447 203 484 290 
Q 522 378 522 647 
L 522 3238 
Q 522 3728 498 3840 
Q 475 3953 426 3993 
Q 378 4034 297 4034 
Q 231 4034 84 3984 
L 41 4094 
L 897 4444 
L 1041 4444 
z
" transform="scale(0.015625)"/>
     </defs>
     <use xlink:href="#TimesNewRomanPSMT-41"/>
     <use xlink:href="#TimesNewRomanPSMT-76" x="64.841797"/>
     <use xlink:href="#TimesNewRomanPSMT-61" x="114.841797"/>
     <use xlink:href="#TimesNewRomanPSMT-69" x="159.226562"/>
     <use xlink:href="#TimesNewRomanPSMT-6c" x="187.009766"/>
     <use xlink:href="#TimesNewRomanPSMT-61" x="214.792969"/>
     <use xlink:href="#TimesNewRomanPSMT-62" x="259.177734"/>
     <use xlink:href="#TimesNewRomanPSMT-6c" x="309.177734"/>
     <use xlink:href="#TimesNewRomanPSMT-65" x="336.960938"/>
     <use xlink:href="#TimesNewRomanPSMT-20" x="381.345703"/>
     <use xlink:href="#TimesNewRomanPSMT-62" x="406.345703"/>
     <use xlink:href="#TimesNewRomanPSMT-61" x="456.345703"/>
     <use xlink:href="#TimesNewRomanPSMT-6e" x="500.730469"/>
     <use xlink:href="#TimesNewRomanPSMT-64" x="550.730469"/>
     <use xlink:href="#TimesNewRomanPSMT-77" x="600.730469"/>
     <use xlink:href="#TimesNewRomanPSMT-69" x="672.947266"/>
     <use xlink:href="#TimesNewRomanPSMT-64" x="700.730469"/>
     <use xlink:href="#TimesNewRomanPSMT-74" x="750.730469"/>
     <use xlink:href="#TimesNewRomanPSMT-68" x="778.513672"/>
    </g>
   </g>
   <g id="line2d_20">
    <path d="M 451.243625 28.8 
L 474.283625 28.8 
L 497.323625 28.8 
" style="fill: none; stroke: #1f77b4; stroke-opacity: 0.7; stroke-width: 2.5; stroke-linecap: square"/>
   </g>
   <g id="text_20">
    <!-- Bitrate -->
    <g transform="translate(515.755625 36.864) scale(0.2304 -0.2304)">
     <use xlink:href="#TimesNewRomanPSMT-42"/>
     <use xlink:href="#TimesNewRomanPSMT-69" x="66.699219"/>
     <use xlink:href="#TimesNewRomanPSMT-74" x="94.482422"/>
     <use xlink:href="#TimesNewRomanPSMT-72" x="122.265625"/>
     <use xlink:href="#TimesNewRomanPSMT-61" x="155.566406"/>
     <use xlink:href="#TimesNewRomanPSMT-74" x="199.951172"/>
     <use xlink:href="#TimesNewRomanPSMT-65" x="227.734375"/>
    </g>
   </g>
   <g id="line2d_21">
    <path d="M 624.533225 28.8 
L 647.573225 28.8 
L 670.613225 28.8 
" style="fill: none; stroke: #ffa500; stroke-opacity: 0.7; stroke-width: 2.5; stroke-linecap: square"/>
   </g>
   <g id="text_21">
    <!-- Buffer level -->
    <g transform="translate(689.045225 36.864) scale(0.2304 -0.2304)">
     <use xlink:href="#TimesNewRomanPSMT-42"/>
     <use xlink:href="#TimesNewRomanPSMT-75" x="66.699219"/>
     <use xlink:href="#TimesNewRomanPSMT-66" x="116.699219"/>
     <use xlink:href="#TimesNewRomanPSMT-66" x="148.25"/>
     <use xlink:href="#TimesNewRomanPSMT-65" x="181.550781"/>
     <use xlink:href="#TimesNewRomanPSMT-72" x="225.935547"/>
     <use xlink:href="#TimesNewRomanPSMT-20" x="259.236328"/>
     <use xlink:href="#TimesNewRomanPSMT-6c" x="284.236328"/>
     <use xlink:href="#TimesNewRomanPSMT-65" x="312.019531"/>
     <use xlink:href="#TimesNewRomanPSMT-76" x="356.404297"/>
     <use xlink:href="#TimesNewRomanPSMT-65" x="406.404297"/>
     <use xlink:href="#TimesNewRomanPSMT-6c" x="450.789062"/>
    </g>
   </g>
  </g>
 </g>
 <defs>
  <clipPath id="p0f1602af26">
   <rect x="68.365625" y="25.92" width="669.6" height="194.04"/>
  </clipPath>
 </defs>
</svg>
