<?xml version="1.0" encoding="utf-8" standalone="no"?>
<!DOCTYPE svg PUBLIC "-//W3C//DTD SVG 1.1//EN"
  "http://www.w3.org/Graphics/SVG/1.1/DTD/svg11.dtd">
<svg xmlns:xlink="http://www.w3.org/1999/xlink" width="864pt" height="252pt" viewBox="0 0 864 252" xmlns="http://www.w3.org/2000/svg" version="1.1">
 <metadata>
  <rdf:RDF xmlns:dc="http://purl.org/dc/elements/1.1/" xmlns:cc="http://creativecommons.org/ns#" xmlns:rdf="http://www.w3.org/1999/02/22-rdf-syntax-ns#">
   <cc:Work>
    <dc:type rdf:resource="http://purl.org/dc/dcmitype/StillImage"/>
    <dc:date>2024-04-13T13:55:52.945993</dc:date>
    <dc:format>image/svg+xml</dc:format>
    <dc:creator>
     <cc:Agent>
      <dc:title>Matplotlib v3.8.3, https://matplotlib.org/</dc:title>
     </cc:Agent>
    </dc:creator>
   </cc:Work>
  </rdf:RDF>
 </metadata>
 <defs>
  <style type="text/css">*{stroke-linejoin: round; stroke-linecap: butt}</style>
 </defs>
 <g id="figure_1">
  <g id="patch_1">
   <path d="M 0 252 
L 864 252 
L 864 0 
L 0 0 
z
" style="fill: #ffffff"/>
  </g>
  <g id="axes_1">
   <g id="patch_2">
    <path d="M 108 224.28 
L 777.6 224.28 
L 777.6 30.24 
L 108 30.24 
z
" style="fill: #ffffff"/>
   </g>
   <g id="PolyCollection_1">
    <path d="M 148.539721 206.850711 
L 148.539721 204.711268 
L 148.539721 206.850711 
L 148.539721 206.850711 
z
" clip-path="url(#pa6dde025f3)" style="fill: #808080; fill-opacity: 0.3"/>
    <path d="M 348.081026 93.4846 
L 348.081026 90.701518 
L 350.606865 90.295438 
L 353.132705 86.234629 
L 355.658544 90.295438 
L 358.184383 90.701518 
L 360.710223 91.107599 
L 363.236062 87.452871 
L 365.761901 91.107599 
L 368.28774 102.141239 
L 370.81358 111.9929 
L 373.339419 118.189834 
L 375.865258 117.007856 
L 378.391098 120.594152 
L 380.916937 120.884444 
L 383.442776 121.174736 
L 385.968616 117.878732 
L 388.494455 124.124047 
L 391.020294 135.201934 
L 393.546134 146.27982 
L 396.071973 151.112391 
L 398.597812 154.203724 
L 401.123651 159.699376 
L 403.649491 166.108812 
L 406.17533 174.063355 
L 408.701169 179.613581 
L 411.227009 183.081407 
L 413.752848 181.912792 
L 416.278687 180.744177 
L 418.804527 183.441086 
L 421.330366 186.137995 
L 423.856205 189.306375 
L 426.382045 190.557431 
L 428.907884 192.306914 
L 431.433723 192.846312 
L 433.959562 192.606124 
L 436.485402 191.867509 
L 439.011241 196.334275 
L 441.53708 200.759022 
L 444.06292 202.085097 
L 446.588759 198.113599 
L 449.114598 194.184121 
L 451.640438 193.353315 
L 454.166277 195.013717 
L 456.692116 196.674118 
L 459.217955 197.538731 
L 461.743795 196.647962 
L 464.269634 195.366255 
L 466.795473 192.273525 
L 469.321313 189.275774 
L 471.847152 186.668961 
L 474.372991 189.273862 
L 474.372991 189.801322 
L 474.372991 189.801322 
L 471.847152 192.504691 
L 469.321313 195.019971 
L 466.795473 197.340266 
L 464.269634 199.459218 
L 461.743795 201.371019 
L 459.217955 203.070428 
L 456.692116 204.552787 
L 454.166277 205.814034 
L 451.640438 206.850711 
L 449.114598 207.659977 
L 446.588759 208.239614 
L 444.06292 208.588033 
L 441.53708 208.704278 
L 439.011241 208.588033 
L 436.485402 208.239614 
L 433.959562 207.659977 
L 431.433723 206.850711 
L 428.907884 205.814034 
L 426.382045 204.552787 
L 423.856205 203.070428 
L 421.330366 201.371019 
L 418.804527 199.459218 
L 416.278687 197.340266 
L 413.752848 195.019971 
L 411.227009 192.504691 
L 408.701169 189.801322 
L 406.17533 186.917273 
L 403.649491 183.860448 
L 401.123651 180.639228 
L 398.597812 177.26244 
L 396.071973 173.739341 
L 393.546134 170.079586 
L 391.020294 166.293208 
L 388.494455 162.390583 
L 385.968616 158.38241 
L 383.442776 154.279674 
L 380.916937 150.09362 
L 378.391098 145.835723 
L 375.865258 141.517652 
L 373.339419 137.151243 
L 370.81358 132.748465 
L 368.28774 128.321385 
L 365.761901 123.882137 
L 363.236062 119.442889 
L 360.710223 115.015809 
L 358.184383 110.613031 
L 355.658544 106.246622 
L 353.132705 101.928551 
L 350.606865 97.670654 
L 348.081026 93.4846 
z
" clip-path="url(#pa6dde025f3)" style="fill: #808080; fill-opacity: 0.3"/>
    <path d="M 499.631384 154.279674 
L 499.631384 152.833793 
L 502.157224 150.001732 
L 502.157224 150.09362 
L 502.157224 150.09362 
L 499.631384 154.279674 
z
" clip-path="url(#pa6dde025f3)" style="fill: #808080; fill-opacity: 0.3"/>
    <path d="M 522.363938 115.015809 
L 522.363938 114.893859 
L 524.889777 104.508268 
L 527.415617 105.800503 
L 527.415617 106.246622 
L 527.415617 106.246622 
L 524.889777 110.613031 
L 522.363938 115.015809 
z
" clip-path="url(#pa6dde025f3)" style="fill: #808080; fill-opacity: 0.3"/>
    <path d="M 661.2851 110.613031 
L 661.2851 104.065718 
L 663.810939 97.75323 
L 666.336779 100.743238 
L 668.862618 109.508193 
L 671.388457 118.740842 
L 673.914296 122.894129 
L 676.440136 121.272469 
L 678.965975 119.183113 
L 681.491814 119.349275 
L 684.017654 118.606569 
L 686.543493 117.863863 
L 689.069332 116.954996 
L 691.595172 121.212021 
L 694.121011 131.369165 
L 696.64685 142.256535 
L 699.17269 151.449856 
L 701.698529 160.325914 
L 704.224368 166.718651 
L 706.750207 170.548413 
L 709.276047 168.795319 
L 711.801886 173.123423 
L 714.327725 180.451102 
L 716.853565 188.263187 
L 719.379404 192.928792 
L 721.905243 195.218228 
L 724.431083 198.767851 
L 726.956922 201.135849 
L 729.482761 202.880439 
L 732.008601 203.720261 
L 734.53444 204.560082 
L 737.060279 205.399903 
L 739.586118 207.979882 
L 739.586118 208.239614 
L 739.586118 208.239614 
L 737.060279 207.659977 
L 734.53444 206.850711 
L 732.008601 205.814034 
L 729.482761 204.552787 
L 726.956922 203.070428 
L 724.431083 201.371019 
L 721.905243 199.459218 
L 719.379404 197.340266 
L 716.853565 195.019971 
L 714.327725 192.504691 
L 711.801886 189.801322 
L 709.276047 186.917273 
L 706.750207 183.860448 
L 704.224368 180.639228 
L 701.698529 177.26244 
L 699.17269 173.739341 
L 696.64685 170.079586 
L 694.121011 166.293208 
L 691.595172 162.390583 
L 689.069332 158.38241 
L 686.543493 154.279674 
L 684.017654 150.09362 
L 681.491814 145.835723 
L 678.965975 141.517652 
L 676.440136 137.151243 
L 673.914296 132.748465 
L 671.388457 128.321385 
L 668.862618 123.882137 
L 666.336779 119.442889 
L 663.810939 115.015809 
L 661.2851 110.613031 
z
" clip-path="url(#pa6dde025f3)" style="fill: #808080; fill-opacity: 0.3"/>
   </g>
   <g id="PolyCollection_2">
    <path d="M 140.962203 214.83293 
L 140.962203 208.588033 
L 143.488042 208.239614 
L 146.013882 207.659977 
L 146.013882 208.085155 
L 146.013882 208.085155 
L 143.488042 209.772099 
L 140.962203 214.83293 
z
" clip-path="url(#pa6dde025f3)" style="fill: #808080; fill-opacity: 0.3"/>
    <path d="M 151.06556 206.427044 
L 151.06556 205.814034 
L 153.591399 204.552787 
L 156.117239 203.070428 
L 158.643078 201.371019 
L 161.168917 199.459218 
L 163.694757 197.340266 
L 166.220596 195.019971 
L 168.746435 192.504691 
L 171.272275 189.801322 
L 173.798114 186.917273 
L 176.323953 183.860448 
L 178.849793 180.639228 
L 181.375632 177.26244 
L 183.901471 173.739341 
L 186.42731 170.079586 
L 188.95315 166.293208 
L 191.478989 162.390583 
L 194.004828 158.38241 
L 196.530668 154.279674 
L 199.056507 150.09362 
L 201.582346 145.835723 
L 204.108186 141.517652 
L 206.634025 137.151243 
L 209.159864 132.748465 
L 211.685704 128.321385 
L 214.211543 123.882137 
L 216.737382 119.442889 
L 219.263221 115.015809 
L 221.789061 110.613031 
L 224.3149 106.246622 
L 226.840739 101.928551 
L 229.366579 97.670654 
L 231.892418 93.4846 
L 234.418257 89.381864 
L 236.944097 85.373691 
L 239.469936 81.471066 
L 241.995775 77.684688 
L 244.521614 75.939188 
L 247.047454 75.939188 
L 249.573293 75.939188 
L 252.099132 75.939188 
L 254.624972 75.939188 
L 257.150811 75.939188 
L 259.67665 75.939188 
L 262.20249 75.939188 
L 264.728329 75.939188 
L 267.254168 75.939188 
L 269.780008 75.939188 
L 272.305847 75.939188 
L 274.831686 75.939188 
L 277.357525 75.939188 
L 279.883365 75.939188 
L 282.409204 75.939188 
L 284.935043 75.939188 
L 287.460883 75.939188 
L 289.986722 75.939188 
L 292.512561 75.939188 
L 295.038401 75.939188 
L 297.56424 75.939188 
L 300.090079 75.939188 
L 302.615919 75.939188 
L 305.141758 75.939188 
L 307.667597 75.939188 
L 310.193436 75.939188 
L 312.719276 75.939188 
L 315.245115 75.939188 
L 317.770954 75.939188 
L 320.296794 75.939188 
L 322.822633 75.939188 
L 325.348472 75.939188 
L 327.874312 75.939188 
L 330.400151 75.939188 
L 332.92599 75.939188 
L 335.451829 75.939188 
L 337.977669 77.684688 
L 340.503508 81.471066 
L 343.029347 85.373691 
L 345.555187 89.381864 
L 345.555187 91.107599 
L 345.555187 91.107599 
L 343.029347 87.452871 
L 340.503508 85.016386 
L 337.977669 82.579901 
L 335.451829 80.143416 
L 332.92599 80.143416 
L 330.400151 80.143416 
L 327.874312 80.143416 
L 325.348472 80.143416 
L 322.822633 80.143416 
L 320.296794 80.143416 
L 317.770954 80.143416 
L 315.245115 80.143416 
L 312.719276 80.143416 
L 310.193436 80.143416 
L 307.667597 80.143416 
L 305.141758 80.143416 
L 302.615919 80.143416 
L 300.090079 80.143416 
L 297.56424 80.143416 
L 295.038401 80.143416 
L 292.512561 80.143416 
L 289.986722 80.143416 
L 287.460883 82.17382 
L 284.935043 84.204224 
L 282.409204 84.204224 
L 279.883365 82.17382 
L 277.357525 80.143416 
L 274.831686 82.017635 
L 272.305847 84.232622 
L 269.780008 86.447608 
L 267.254168 86.788375 
L 264.728329 86.788375 
L 262.20249 86.788375 
L 259.67665 92.695006 
L 257.150811 98.601637 
L 254.624972 106.538673 
L 252.099132 111.706975 
L 249.573293 118.611872 
L 247.047454 123.486364 
L 244.521614 129.146886 
L 241.995775 135.712114 
L 239.469936 141.526813 
L 236.944097 143.417585 
L 234.418257 142.667056 
L 231.892418 143.57339 
L 229.366579 144.479725 
L 226.840739 145.386059 
L 224.3149 145.386059 
L 221.789061 147.40384 
L 219.263221 146.780505 
L 216.737382 146.157169 
L 214.211543 143.516051 
L 211.685704 150.679409 
L 209.159864 150.420917 
L 206.634025 150.162425 
L 204.108186 142.740575 
L 201.582346 148.993354 
L 199.056507 160.011452 
L 196.530668 171.02955 
L 194.004828 175.794868 
L 191.478989 176.344624 
L 188.95315 179.355227 
L 186.42731 182.36583 
L 183.901471 187.611616 
L 181.375632 191.757129 
L 178.849793 198.759929 
L 176.323953 205.412712 
L 173.798114 208.213897 
L 171.272275 206.538216 
L 168.746435 202.427614 
L 166.220596 200.808034 
L 163.694757 205.232171 
L 161.168917 209.656308 
L 158.643078 215.46 
L 156.117239 214.052717 
L 153.591399 210.929658 
L 151.06556 206.427044 
z
" clip-path="url(#pa6dde025f3)" style="fill: #808080; fill-opacity: 0.3"/>
    <path d="M 476.898831 191.878762 
L 476.898831 186.917273 
L 479.42467 183.860448 
L 481.950509 180.639228 
L 484.476349 177.26244 
L 487.002188 173.739341 
L 489.528027 170.079586 
L 492.053866 166.293208 
L 494.579706 162.390583 
L 497.105545 158.38241 
L 497.105545 162.948234 
L 497.105545 162.948234 
L 494.579706 170.230613 
L 492.053866 177.512993 
L 489.528027 182.016123 
L 487.002188 186.519252 
L 484.476349 191.320955 
L 481.950509 192.474715 
L 479.42467 193.628475 
L 476.898831 191.878762 
z
" clip-path="url(#pa6dde025f3)" style="fill: #808080; fill-opacity: 0.3"/>
    <path d="M 504.683063 147.16967 
L 504.683063 145.835723 
L 507.208902 141.517652 
L 509.734742 137.151243 
L 512.260581 132.748465 
L 514.78642 128.321385 
L 517.31226 123.882137 
L 519.838099 119.442889 
L 519.838099 126.918114 
L 519.838099 126.918114 
L 517.31226 138.94237 
L 514.78642 140.581035 
L 512.260581 141.981121 
L 509.734742 144.177332 
L 507.208902 146.373544 
L 504.683063 147.16967 
z
" clip-path="url(#pa6dde025f3)" style="fill: #808080; fill-opacity: 0.3"/>
    <path d="M 529.941456 107.092739 
L 529.941456 101.928551 
L 532.467295 97.670654 
L 534.993135 93.4846 
L 537.518974 89.381864 
L 540.044813 85.373691 
L 542.570653 81.471066 
L 545.096492 77.684688 
L 547.622331 75.939188 
L 550.148171 75.939188 
L 552.67401 75.939188 
L 555.199849 75.939188 
L 557.725688 75.939188 
L 560.251528 75.939188 
L 562.777367 75.939188 
L 565.303206 75.939188 
L 567.829046 75.939188 
L 570.354885 75.939188 
L 572.880724 75.939188 
L 575.406564 75.939188 
L 577.932403 75.939188 
L 580.458242 75.939188 
L 582.984081 75.939188 
L 585.509921 75.939188 
L 588.03576 75.939188 
L 590.561599 75.939188 
L 593.087439 75.939188 
L 595.613278 75.939188 
L 598.139117 75.939188 
L 600.664957 75.939188 
L 603.190796 75.939188 
L 605.716635 75.939188 
L 608.242475 75.939188 
L 610.768314 75.939188 
L 613.294153 75.939188 
L 615.819992 75.939188 
L 618.345832 75.939188 
L 620.871671 75.939188 
L 623.39751 75.939188 
L 625.92335 75.939188 
L 628.449189 75.939188 
L 630.975028 75.939188 
L 633.500868 75.939188 
L 636.026707 75.939188 
L 638.552546 75.939188 
L 641.078386 77.684688 
L 643.604225 81.471066 
L 646.130064 85.373691 
L 648.655903 89.381864 
L 651.181743 93.4846 
L 653.707582 97.670654 
L 656.233421 101.928551 
L 658.759261 106.246622 
L 658.759261 110.378206 
L 658.759261 110.378206 
L 656.233421 114.254209 
L 653.707582 111.817724 
L 651.181743 109.381239 
L 648.655903 106.280258 
L 646.130064 103.179276 
L 643.604225 100.078295 
L 641.078386 100.742791 
L 638.552546 101.407287 
L 636.026707 102.071783 
L 633.500868 106.944754 
L 630.975028 107.132176 
L 628.449189 107.319597 
L 625.92335 102.634049 
L 623.39751 103.258789 
L 620.871671 105.507852 
L 618.345832 107.756915 
L 615.819992 108.495244 
L 613.294153 105.71069 
L 610.768314 102.926135 
L 608.242475 96.281175 
L 605.716635 89.319789 
L 603.190796 82.358402 
L 600.664957 80.143416 
L 598.139117 80.143416 
L 595.613278 82.17382 
L 593.087439 86.603793 
L 590.561599 91.033766 
L 588.03576 97.12498 
L 585.509921 101.554953 
L 582.984081 105.984926 
L 580.458242 112.076139 
L 577.932403 117.429024 
L 575.406564 125.437052 
L 572.880724 128.279618 
L 570.354885 131.122184 
L 567.829046 130.497445 
L 565.303206 129.685283 
L 562.777367 124.812312 
L 560.251528 120.751503 
L 557.725688 116.690695 
L 555.199849 114.66029 
L 552.67401 106.538673 
L 550.148171 98.417055 
L 547.622331 92.325842 
L 545.096492 92.325842 
L 542.570653 92.325842 
L 540.044813 92.325842 
L 537.518974 97.678886 
L 534.993135 103.03193 
L 532.467295 108.384974 
L 529.941456 107.092739 
z
" clip-path="url(#pa6dde025f3)" style="fill: #808080; fill-opacity: 0.3"/>
    <path d="M 742.111958 210.244059 
L 742.111958 208.588033 
L 744.637797 208.704278 
L 747.163636 208.588033 
L 747.163636 209.859432 
L 747.163636 209.859432 
L 744.637797 211.341735 
L 742.111958 210.244059 
z
" clip-path="url(#pa6dde025f3)" style="fill: #808080; fill-opacity: 0.3"/>
   </g>
   <g id="matplotlib.axis_1">
    <g id="xtick_1">
     <g id="line2d_1">
      <defs>
       <path id="m85f5c9bc70" d="M 0 0 
L 0 3.5 
" style="stroke: #000000; stroke-width: 0.8"/>
      </defs>
      <g>
       <use xlink:href="#m85f5c9bc70" x="138.436364" y="224.28" style="stroke: #000000; stroke-width: 0.8"/>
      </g>
     </g>
     <g id="text_1">
      <!-- 0 -->
      <g transform="translate(134.436364 242.39) scale(0.16 -0.16)">
       <defs>
        <path id="TimesNewRomanPSMT-30" d="M 231 2094 
Q 231 2819 450 3342 
Q 669 3866 1031 4122 
Q 1313 4325 1613 4325 
Q 2100 4325 2488 3828 
Q 2972 3213 2972 2159 
Q 2972 1422 2759 906 
Q 2547 391 2217 158 
Q 1888 -75 1581 -75 
Q 975 -75 572 641 
Q 231 1244 231 2094 
z
M 844 2016 
Q 844 1141 1059 588 
Q 1238 122 1591 122 
Q 1759 122 1940 273 
Q 2122 425 2216 781 
Q 2359 1319 2359 2297 
Q 2359 3022 2209 3506 
Q 2097 3866 1919 4016 
Q 1791 4119 1609 4119 
Q 1397 4119 1231 3928 
Q 1006 3669 925 3112 
Q 844 2556 844 2016 
z
" transform="scale(0.015625)"/>
       </defs>
       <use xlink:href="#TimesNewRomanPSMT-30"/>
      </g>
     </g>
    </g>
    <g id="xtick_2">
     <g id="line2d_2">
      <g>
       <use xlink:href="#m85f5c9bc70" x="264.728329" y="224.28" style="stroke: #000000; stroke-width: 0.8"/>
      </g>
     </g>
     <g id="text_2">
      <!-- 50 -->
      <g transform="translate(256.728329 242.39) scale(0.16 -0.16)">
       <defs>
        <path id="TimesNewRomanPSMT-35" d="M 2778 4238 
L 2534 3706 
L 1259 3706 
L 981 3138 
Q 1809 3016 2294 2522 
Q 2709 2097 2709 1522 
Q 2709 1188 2573 903 
Q 2438 619 2231 419 
Q 2025 219 1772 97 
Q 1413 -75 1034 -75 
Q 653 -75 479 54 
Q 306 184 306 341 
Q 306 428 378 495 
Q 450 563 559 563 
Q 641 563 702 538 
Q 763 513 909 409 
Q 1144 247 1384 247 
Q 1750 247 2026 523 
Q 2303 800 2303 1197 
Q 2303 1581 2056 1914 
Q 1809 2247 1375 2428 
Q 1034 2569 447 2591 
L 1259 4238 
L 2778 4238 
z
" transform="scale(0.015625)"/>
       </defs>
       <use xlink:href="#TimesNewRomanPSMT-35"/>
       <use xlink:href="#TimesNewRomanPSMT-30" x="50"/>
      </g>
     </g>
    </g>
    <g id="xtick_3">
     <g id="line2d_3">
      <g>
       <use xlink:href="#m85f5c9bc70" x="391.020294" y="224.28" style="stroke: #000000; stroke-width: 0.8"/>
      </g>
     </g>
     <g id="text_3">
      <!-- 100 -->
      <g transform="translate(379.020294 242.39) scale(0.16 -0.16)">
       <defs>
        <path id="TimesNewRomanPSMT-31" d="M 750 3822 
L 1781 4325 
L 1884 4325 
L 1884 747 
Q 1884 391 1914 303 
Q 1944 216 2037 169 
Q 2131 122 2419 116 
L 2419 0 
L 825 0 
L 825 116 
Q 1125 122 1212 167 
Q 1300 213 1334 289 
Q 1369 366 1369 747 
L 1369 3034 
Q 1369 3497 1338 3628 
Q 1316 3728 1258 3775 
Q 1200 3822 1119 3822 
Q 1003 3822 797 3725 
L 750 3822 
z
" transform="scale(0.015625)"/>
       </defs>
       <use xlink:href="#TimesNewRomanPSMT-31"/>
       <use xlink:href="#TimesNewRomanPSMT-30" x="50"/>
       <use xlink:href="#TimesNewRomanPSMT-30" x="100"/>
      </g>
     </g>
    </g>
    <g id="xtick_4">
     <g id="line2d_4">
      <g>
       <use xlink:href="#m85f5c9bc70" x="517.31226" y="224.28" style="stroke: #000000; stroke-width: 0.8"/>
      </g>
     </g>
     <g id="text_4">
      <!-- 150 -->
      <g transform="translate(505.31226 242.39) scale(0.16 -0.16)">
       <use xlink:href="#TimesNewRomanPSMT-31"/>
       <use xlink:href="#TimesNewRomanPSMT-35" x="50"/>
       <use xlink:href="#TimesNewRomanPSMT-30" x="100"/>
      </g>
     </g>
    </g>
    <g id="xtick_5">
     <g id="line2d_5">
      <g>
       <use xlink:href="#m85f5c9bc70" x="643.604225" y="224.28" style="stroke: #000000; stroke-width: 0.8"/>
      </g>
     </g>
     <g id="text_5">
      <!-- 200 -->
      <g transform="translate(631.604225 242.39) scale(0.16 -0.16)">
       <defs>
        <path id="TimesNewRomanPSMT-32" d="M 2934 816 
L 2638 0 
L 138 0 
L 138 116 
Q 1241 1122 1691 1759 
Q 2141 2397 2141 2925 
Q 2141 3328 1894 3587 
Q 1647 3847 1303 3847 
Q 991 3847 742 3664 
Q 494 3481 375 3128 
L 259 3128 
Q 338 3706 661 4015 
Q 984 4325 1469 4325 
Q 1984 4325 2329 3994 
Q 2675 3663 2675 3213 
Q 2675 2891 2525 2569 
Q 2294 2063 1775 1497 
Q 997 647 803 472 
L 1909 472 
Q 2247 472 2383 497 
Q 2519 522 2628 598 
Q 2738 675 2819 816 
L 2934 816 
z
" transform="scale(0.015625)"/>
       </defs>
       <use xlink:href="#TimesNewRomanPSMT-32"/>
       <use xlink:href="#TimesNewRomanPSMT-30" x="50"/>
       <use xlink:href="#TimesNewRomanPSMT-30" x="100"/>
      </g>
     </g>
    </g>
    <g id="xtick_6">
     <g id="line2d_6">
      <g>
       <use xlink:href="#m85f5c9bc70" x="769.89619" y="224.28" style="stroke: #000000; stroke-width: 0.8"/>
      </g>
     </g>
     <g id="text_6">
      <!-- 250 -->
      <g transform="translate(757.89619 242.39) scale(0.16 -0.16)">
       <use xlink:href="#TimesNewRomanPSMT-32"/>
       <use xlink:href="#TimesNewRomanPSMT-35" x="50"/>
       <use xlink:href="#TimesNewRomanPSMT-30" x="100"/>
      </g>
     </g>
    </g>
    <g id="text_7">
     <!-- Time (s) -->
     <g transform="translate(408.995313 263.7) scale(0.2 -0.2)">
      <defs>
       <path id="TimesNewRomanPSMT-54" d="M 3703 4238 
L 3750 3244 
L 3631 3244 
Q 3597 3506 3538 3619 
Q 3441 3800 3280 3886 
Q 3119 3972 2856 3972 
L 2259 3972 
L 2259 734 
Q 2259 344 2344 247 
Q 2463 116 2709 116 
L 2856 116 
L 2856 0 
L 1059 0 
L 1059 116 
L 1209 116 
Q 1478 116 1591 278 
Q 1659 378 1659 734 
L 1659 3972 
L 1150 3972 
Q 853 3972 728 3928 
Q 566 3869 450 3700 
Q 334 3531 313 3244 
L 194 3244 
L 244 4238 
L 3703 4238 
z
" transform="scale(0.015625)"/>
       <path id="TimesNewRomanPSMT-69" d="M 928 4444 
Q 1059 4444 1151 4351 
Q 1244 4259 1244 4128 
Q 1244 3997 1151 3903 
Q 1059 3809 928 3809 
Q 797 3809 703 3903 
Q 609 3997 609 4128 
Q 609 4259 701 4351 
Q 794 4444 928 4444 
z
M 1188 2947 
L 1188 647 
Q 1188 378 1227 289 
Q 1266 200 1342 156 
Q 1419 113 1622 113 
L 1622 0 
L 231 0 
L 231 113 
Q 441 113 512 153 
Q 584 194 626 287 
Q 669 381 669 647 
L 669 1750 
Q 669 2216 641 2353 
Q 619 2453 572 2492 
Q 525 2531 444 2531 
Q 356 2531 231 2484 
L 188 2597 
L 1050 2947 
L 1188 2947 
z
" transform="scale(0.015625)"/>
       <path id="TimesNewRomanPSMT-6d" d="M 1050 2338 
Q 1363 2650 1419 2697 
Q 1559 2816 1721 2881 
Q 1884 2947 2044 2947 
Q 2313 2947 2506 2790 
Q 2700 2634 2766 2338 
Q 3088 2713 3309 2830 
Q 3531 2947 3766 2947 
Q 3994 2947 4170 2830 
Q 4347 2713 4450 2447 
Q 4519 2266 4519 1878 
L 4519 647 
Q 4519 378 4559 278 
Q 4591 209 4675 161 
Q 4759 113 4950 113 
L 4950 0 
L 3538 0 
L 3538 113 
L 3597 113 
Q 3781 113 3884 184 
Q 3956 234 3988 344 
Q 4000 397 4000 647 
L 4000 1878 
Q 4000 2228 3916 2372 
Q 3794 2572 3525 2572 
Q 3359 2572 3192 2489 
Q 3025 2406 2788 2181 
L 2781 2147 
L 2788 2013 
L 2788 647 
Q 2788 353 2820 281 
Q 2853 209 2943 161 
Q 3034 113 3253 113 
L 3253 0 
L 1806 0 
L 1806 113 
Q 2044 113 2133 169 
Q 2222 225 2256 338 
Q 2272 391 2272 647 
L 2272 1878 
Q 2272 2228 2169 2381 
Q 2031 2581 1784 2581 
Q 1616 2581 1450 2491 
Q 1191 2353 1050 2181 
L 1050 647 
Q 1050 366 1089 281 
Q 1128 197 1204 155 
Q 1281 113 1516 113 
L 1516 0 
L 100 0 
L 100 113 
Q 297 113 375 155 
Q 453 197 493 289 
Q 534 381 534 647 
L 534 1741 
Q 534 2213 506 2350 
Q 484 2453 437 2492 
Q 391 2531 309 2531 
Q 222 2531 100 2484 
L 53 2597 
L 916 2947 
L 1050 2947 
L 1050 2338 
z
" transform="scale(0.015625)"/>
       <path id="TimesNewRomanPSMT-65" d="M 681 1784 
Q 678 1147 991 784 
Q 1303 422 1725 422 
Q 2006 422 2214 576 
Q 2422 731 2563 1106 
L 2659 1044 
Q 2594 616 2278 264 
Q 1963 -88 1488 -88 
Q 972 -88 605 314 
Q 238 716 238 1394 
Q 238 2128 614 2539 
Q 991 2950 1559 2950 
Q 2041 2950 2350 2633 
Q 2659 2316 2659 1784 
L 681 1784 
z
M 681 1966 
L 2006 1966 
Q 1991 2241 1941 2353 
Q 1863 2528 1708 2628 
Q 1553 2728 1384 2728 
Q 1125 2728 920 2526 
Q 716 2325 681 1966 
z
" transform="scale(0.015625)"/>
       <path id="TimesNewRomanPSMT-20" transform="scale(0.015625)"/>
       <path id="TimesNewRomanPSMT-28" d="M 1988 -1253 
L 1988 -1369 
Q 1516 -1131 1200 -813 
Q 750 -359 506 256 
Q 263 872 263 1534 
Q 263 2503 741 3301 
Q 1219 4100 1988 4444 
L 1988 4313 
Q 1603 4100 1356 3731 
Q 1109 3363 987 2797 
Q 866 2231 866 1616 
Q 866 947 969 400 
Q 1050 -31 1165 -292 
Q 1281 -553 1476 -793 
Q 1672 -1034 1988 -1253 
z
" transform="scale(0.015625)"/>
       <path id="TimesNewRomanPSMT-73" d="M 2050 2947 
L 2050 1972 
L 1947 1972 
Q 1828 2431 1642 2597 
Q 1456 2763 1169 2763 
Q 950 2763 815 2647 
Q 681 2531 681 2391 
Q 681 2216 781 2091 
Q 878 1963 1175 1819 
L 1631 1597 
Q 2266 1288 2266 781 
Q 2266 391 1970 151 
Q 1675 -88 1309 -88 
Q 1047 -88 709 6 
Q 606 38 541 38 
Q 469 38 428 -44 
L 325 -44 
L 325 978 
L 428 978 
Q 516 541 762 319 
Q 1009 97 1316 97 
Q 1531 97 1667 223 
Q 1803 350 1803 528 
Q 1803 744 1651 891 
Q 1500 1038 1047 1263 
Q 594 1488 453 1669 
Q 313 1847 313 2119 
Q 313 2472 555 2709 
Q 797 2947 1181 2947 
Q 1350 2947 1591 2875 
Q 1750 2828 1803 2828 
Q 1853 2828 1881 2850 
Q 1909 2872 1947 2947 
L 2050 2947 
z
" transform="scale(0.015625)"/>
       <path id="TimesNewRomanPSMT-29" d="M 144 4313 
L 144 4444 
Q 619 4209 934 3891 
Q 1381 3434 1625 2820 
Q 1869 2206 1869 1541 
Q 1869 572 1392 -226 
Q 916 -1025 144 -1369 
L 144 -1253 
Q 528 -1038 776 -670 
Q 1025 -303 1145 264 
Q 1266 831 1266 1447 
Q 1266 2113 1163 2663 
Q 1084 3094 967 3353 
Q 850 3613 656 3853 
Q 463 4094 144 4313 
z
" transform="scale(0.015625)"/>
      </defs>
      <use xlink:href="#TimesNewRomanPSMT-54"/>
      <use xlink:href="#TimesNewRomanPSMT-69" x="57.583984"/>
      <use xlink:href="#TimesNewRomanPSMT-6d" x="85.367188"/>
      <use xlink:href="#TimesNewRomanPSMT-65" x="163.150391"/>
      <use xlink:href="#TimesNewRomanPSMT-20" x="207.535156"/>
      <use xlink:href="#TimesNewRomanPSMT-28" x="232.535156"/>
      <use xlink:href="#TimesNewRomanPSMT-73" x="265.835938"/>
      <use xlink:href="#TimesNewRomanPSMT-29" x="304.751953"/>
     </g>
    </g>
   </g>
   <g id="matplotlib.axis_2">
    <g id="ytick_1">
     <g id="line2d_7">
      <defs>
       <path id="md528468249" d="M 0 0 
L -3.5 0 
" style="stroke: #000000; stroke-width: 0.8"/>
      </defs>
      <g>
       <use xlink:href="#md528468249" x="108" y="223.455955" style="stroke: #000000; stroke-width: 0.8"/>
      </g>
     </g>
     <g id="text_8">
      <!-- 0 -->
      <g transform="translate(93 229.010955) scale(0.16 -0.16)">
       <use xlink:href="#TimesNewRomanPSMT-30"/>
      </g>
     </g>
    </g>
    <g id="ytick_2">
     <g id="line2d_8">
      <g>
       <use xlink:href="#md528468249" x="108" y="186.576763" style="stroke: #000000; stroke-width: 0.8"/>
      </g>
     </g>
     <g id="text_9">
      <!-- 1000 -->
      <g transform="translate(69 192.131763) scale(0.16 -0.16)">
       <use xlink:href="#TimesNewRomanPSMT-31"/>
       <use xlink:href="#TimesNewRomanPSMT-30" x="50"/>
       <use xlink:href="#TimesNewRomanPSMT-30" x="100"/>
       <use xlink:href="#TimesNewRomanPSMT-30" x="150"/>
      </g>
     </g>
    </g>
    <g id="ytick_3">
     <g id="line2d_9">
      <g>
       <use xlink:href="#md528468249" x="108" y="149.697571" style="stroke: #000000; stroke-width: 0.8"/>
      </g>
     </g>
     <g id="text_10">
      <!-- 2000 -->
      <g transform="translate(69 155.252571) scale(0.16 -0.16)">
       <use xlink:href="#TimesNewRomanPSMT-32"/>
       <use xlink:href="#TimesNewRomanPSMT-30" x="50"/>
       <use xlink:href="#TimesNewRomanPSMT-30" x="100"/>
       <use xlink:href="#TimesNewRomanPSMT-30" x="150"/>
      </g>
     </g>
    </g>
    <g id="ytick_4">
     <g id="line2d_10">
      <g>
       <use xlink:href="#md528468249" x="108" y="112.81838" style="stroke: #000000; stroke-width: 0.8"/>
      </g>
     </g>
     <g id="text_11">
      <!-- 3000 -->
      <g transform="translate(69 118.37338) scale(0.16 -0.16)">
       <defs>
        <path id="TimesNewRomanPSMT-33" d="M 325 3431 
Q 506 3859 782 4092 
Q 1059 4325 1472 4325 
Q 1981 4325 2253 3994 
Q 2459 3747 2459 3466 
Q 2459 3003 1878 2509 
Q 2269 2356 2469 2072 
Q 2669 1788 2669 1403 
Q 2669 853 2319 450 
Q 1863 -75 997 -75 
Q 569 -75 414 31 
Q 259 138 259 259 
Q 259 350 332 419 
Q 406 488 509 488 
Q 588 488 669 463 
Q 722 447 909 348 
Q 1097 250 1169 231 
Q 1284 197 1416 197 
Q 1734 197 1970 444 
Q 2206 691 2206 1028 
Q 2206 1275 2097 1509 
Q 2016 1684 1919 1775 
Q 1784 1900 1550 2001 
Q 1316 2103 1072 2103 
L 972 2103 
L 972 2197 
Q 1219 2228 1467 2375 
Q 1716 2522 1828 2728 
Q 1941 2934 1941 3181 
Q 1941 3503 1739 3701 
Q 1538 3900 1238 3900 
Q 753 3900 428 3381 
L 325 3431 
z
" transform="scale(0.015625)"/>
       </defs>
       <use xlink:href="#TimesNewRomanPSMT-33"/>
       <use xlink:href="#TimesNewRomanPSMT-30" x="50"/>
       <use xlink:href="#TimesNewRomanPSMT-30" x="100"/>
       <use xlink:href="#TimesNewRomanPSMT-30" x="150"/>
      </g>
     </g>
    </g>
    <g id="ytick_5">
     <g id="line2d_11">
      <g>
       <use xlink:href="#md528468249" x="108" y="75.939188" style="stroke: #000000; stroke-width: 0.8"/>
      </g>
     </g>
     <g id="text_12">
      <!-- 4000 -->
      <g transform="translate(69 81.494188) scale(0.16 -0.16)">
       <defs>
        <path id="TimesNewRomanPSMT-34" d="M 2978 1563 
L 2978 1119 
L 2409 1119 
L 2409 0 
L 1894 0 
L 1894 1119 
L 100 1119 
L 100 1519 
L 2066 4325 
L 2409 4325 
L 2409 1563 
L 2978 1563 
z
M 1894 1563 
L 1894 3666 
L 406 1563 
L 1894 1563 
z
" transform="scale(0.015625)"/>
       </defs>
       <use xlink:href="#TimesNewRomanPSMT-34"/>
       <use xlink:href="#TimesNewRomanPSMT-30" x="50"/>
       <use xlink:href="#TimesNewRomanPSMT-30" x="100"/>
       <use xlink:href="#TimesNewRomanPSMT-30" x="150"/>
      </g>
     </g>
    </g>
    <g id="ytick_6">
     <g id="line2d_12">
      <g>
       <use xlink:href="#md528468249" x="108" y="39.059996" style="stroke: #000000; stroke-width: 0.8"/>
      </g>
     </g>
     <g id="text_13">
      <!-- 5000 -->
      <g transform="translate(69 44.614996) scale(0.16 -0.16)">
       <use xlink:href="#TimesNewRomanPSMT-35"/>
       <use xlink:href="#TimesNewRomanPSMT-30" x="50"/>
       <use xlink:href="#TimesNewRomanPSMT-30" x="100"/>
       <use xlink:href="#TimesNewRomanPSMT-30" x="150"/>
      </g>
     </g>
    </g>
    <g id="text_14">
     <!-- Bitrate (kbps) -->
     <g transform="translate(60.721875 182.524063) rotate(-90) scale(0.2 -0.2)">
      <defs>
       <path id="TimesNewRomanPSMT-42" d="M 2956 2163 
Q 3397 2069 3616 1863 
Q 3919 1575 3919 1159 
Q 3919 844 3719 555 
Q 3519 266 3170 133 
Q 2822 0 2106 0 
L 106 0 
L 106 116 
L 266 116 
Q 531 116 647 284 
Q 719 394 719 750 
L 719 3488 
Q 719 3881 628 3984 
Q 506 4122 266 4122 
L 106 4122 
L 106 4238 
L 1938 4238 
Q 2450 4238 2759 4163 
Q 3228 4050 3475 3764 
Q 3722 3478 3722 3106 
Q 3722 2788 3528 2536 
Q 3334 2284 2956 2163 
z
M 1319 2331 
Q 1434 2309 1582 2298 
Q 1731 2288 1909 2288 
Q 2366 2288 2595 2386 
Q 2825 2484 2947 2687 
Q 3069 2891 3069 3131 
Q 3069 3503 2766 3765 
Q 2463 4028 1881 4028 
Q 1569 4028 1319 3959 
L 1319 2331 
z
M 1319 306 
Q 1681 222 2034 222 
Q 2600 222 2897 476 
Q 3194 731 3194 1106 
Q 3194 1353 3059 1581 
Q 2925 1809 2622 1940 
Q 2319 2072 1872 2072 
Q 1678 2072 1540 2065 
Q 1403 2059 1319 2044 
L 1319 306 
z
" transform="scale(0.015625)"/>
       <path id="TimesNewRomanPSMT-74" d="M 1031 3803 
L 1031 2863 
L 1700 2863 
L 1700 2644 
L 1031 2644 
L 1031 788 
Q 1031 509 1111 412 
Q 1191 316 1316 316 
Q 1419 316 1516 380 
Q 1613 444 1666 569 
L 1788 569 
Q 1678 263 1478 108 
Q 1278 -47 1066 -47 
Q 922 -47 784 33 
Q 647 113 581 261 
Q 516 409 516 719 
L 516 2644 
L 63 2644 
L 63 2747 
Q 234 2816 414 2980 
Q 594 3144 734 3369 
Q 806 3488 934 3803 
L 1031 3803 
z
" transform="scale(0.015625)"/>
       <path id="TimesNewRomanPSMT-72" d="M 1038 2947 
L 1038 2303 
Q 1397 2947 1775 2947 
Q 1947 2947 2059 2842 
Q 2172 2738 2172 2600 
Q 2172 2478 2090 2393 
Q 2009 2309 1897 2309 
Q 1788 2309 1652 2417 
Q 1516 2525 1450 2525 
Q 1394 2525 1328 2463 
Q 1188 2334 1038 2041 
L 1038 669 
Q 1038 431 1097 309 
Q 1138 225 1241 169 
Q 1344 113 1538 113 
L 1538 0 
L 72 0 
L 72 113 
Q 291 113 397 181 
Q 475 231 506 341 
Q 522 394 522 644 
L 522 1753 
Q 522 2253 501 2348 
Q 481 2444 426 2487 
Q 372 2531 291 2531 
Q 194 2531 72 2484 
L 41 2597 
L 906 2947 
L 1038 2947 
z
" transform="scale(0.015625)"/>
       <path id="TimesNewRomanPSMT-61" d="M 1822 413 
Q 1381 72 1269 19 
Q 1100 -59 909 -59 
Q 613 -59 420 144 
Q 228 347 228 678 
Q 228 888 322 1041 
Q 450 1253 767 1440 
Q 1084 1628 1822 1897 
L 1822 2009 
Q 1822 2438 1686 2597 
Q 1550 2756 1291 2756 
Q 1094 2756 978 2650 
Q 859 2544 859 2406 
L 866 2225 
Q 866 2081 792 2003 
Q 719 1925 600 1925 
Q 484 1925 411 2006 
Q 338 2088 338 2228 
Q 338 2497 613 2722 
Q 888 2947 1384 2947 
Q 1766 2947 2009 2819 
Q 2194 2722 2281 2516 
Q 2338 2381 2338 1966 
L 2338 994 
Q 2338 584 2353 492 
Q 2369 400 2405 369 
Q 2441 338 2488 338 
Q 2538 338 2575 359 
Q 2641 400 2828 588 
L 2828 413 
Q 2478 -56 2159 -56 
Q 2006 -56 1915 50 
Q 1825 156 1822 413 
z
M 1822 616 
L 1822 1706 
Q 1350 1519 1213 1441 
Q 966 1303 859 1153 
Q 753 1003 753 825 
Q 753 600 887 451 
Q 1022 303 1197 303 
Q 1434 303 1822 616 
z
" transform="scale(0.015625)"/>
       <path id="TimesNewRomanPSMT-6b" d="M 1047 4444 
L 1047 1597 
L 1775 2259 
Q 2006 2472 2044 2528 
Q 2069 2566 2069 2603 
Q 2069 2666 2017 2711 
Q 1966 2756 1847 2763 
L 1847 2863 
L 3091 2863 
L 3091 2763 
Q 2834 2756 2664 2684 
Q 2494 2613 2291 2428 
L 1556 1750 
L 2291 822 
Q 2597 438 2703 334 
Q 2853 188 2966 144 
Q 3044 113 3238 113 
L 3238 0 
L 1847 0 
L 1847 113 
Q 1966 116 2008 148 
Q 2050 181 2050 241 
Q 2050 313 1925 472 
L 1047 1594 
L 1047 644 
Q 1047 366 1086 278 
Q 1125 191 1197 153 
Q 1269 116 1509 113 
L 1509 0 
L 53 0 
L 53 113 
Q 272 113 381 166 
Q 447 200 481 272 
Q 528 375 528 628 
L 528 3234 
Q 528 3731 506 3842 
Q 484 3953 434 3995 
Q 384 4038 303 4038 
Q 238 4038 106 3984 
L 53 4094 
L 903 4444 
L 1047 4444 
z
" transform="scale(0.015625)"/>
       <path id="TimesNewRomanPSMT-62" d="M 984 2369 
Q 1400 2947 1881 2947 
Q 2322 2947 2650 2570 
Q 2978 2194 2978 1541 
Q 2978 778 2472 313 
Q 2038 -88 1503 -88 
Q 1253 -88 995 3 
Q 738 94 469 275 
L 469 3241 
Q 469 3728 445 3840 
Q 422 3953 372 3993 
Q 322 4034 247 4034 
Q 159 4034 28 3984 
L -16 4094 
L 844 4444 
L 984 4444 
L 984 2369 
z
M 984 2169 
L 984 456 
Q 1144 300 1314 220 
Q 1484 141 1663 141 
Q 1947 141 2192 453 
Q 2438 766 2438 1363 
Q 2438 1913 2192 2208 
Q 1947 2503 1634 2503 
Q 1469 2503 1303 2419 
Q 1178 2356 984 2169 
z
" transform="scale(0.015625)"/>
       <path id="TimesNewRomanPSMT-70" d="M -6 2578 
L 875 2934 
L 994 2934 
L 994 2266 
Q 1216 2644 1439 2795 
Q 1663 2947 1909 2947 
Q 2341 2947 2628 2609 
Q 2981 2197 2981 1534 
Q 2981 794 2556 309 
Q 2206 -88 1675 -88 
Q 1444 -88 1275 -22 
Q 1150 25 994 166 
L 994 -706 
Q 994 -1000 1030 -1079 
Q 1066 -1159 1155 -1206 
Q 1244 -1253 1478 -1253 
L 1478 -1369 
L -22 -1369 
L -22 -1253 
L 56 -1253 
Q 228 -1256 350 -1188 
Q 409 -1153 442 -1076 
Q 475 -1000 475 -688 
L 475 2019 
Q 475 2297 450 2372 
Q 425 2447 370 2484 
Q 316 2522 222 2522 
Q 147 2522 31 2478 
L -6 2578 
z
M 994 2081 
L 994 1013 
Q 994 666 1022 556 
Q 1066 375 1236 237 
Q 1406 100 1666 100 
Q 1978 100 2172 344 
Q 2425 663 2425 1241 
Q 2425 1897 2138 2250 
Q 1938 2494 1663 2494 
Q 1513 2494 1366 2419 
Q 1253 2363 994 2081 
z
" transform="scale(0.015625)"/>
      </defs>
      <use xlink:href="#TimesNewRomanPSMT-42"/>
      <use xlink:href="#TimesNewRomanPSMT-69" x="66.699219"/>
      <use xlink:href="#TimesNewRomanPSMT-74" x="94.482422"/>
      <use xlink:href="#TimesNewRomanPSMT-72" x="122.265625"/>
      <use xlink:href="#TimesNewRomanPSMT-61" x="155.566406"/>
      <use xlink:href="#TimesNewRomanPSMT-74" x="199.951172"/>
      <use xlink:href="#TimesNewRomanPSMT-65" x="227.734375"/>
      <use xlink:href="#TimesNewRomanPSMT-20" x="272.119141"/>
      <use xlink:href="#TimesNewRomanPSMT-28" x="297.119141"/>
      <use xlink:href="#TimesNewRomanPSMT-6b" x="330.419922"/>
      <use xlink:href="#TimesNewRomanPSMT-62" x="380.419922"/>
      <use xlink:href="#TimesNewRomanPSMT-70" x="430.419922"/>
      <use xlink:href="#TimesNewRomanPSMT-73" x="480.419922"/>
      <use xlink:href="#TimesNewRomanPSMT-29" x="519.335938"/>
     </g>
    </g>
   </g>
   <g id="line2d_13">
    <path d="M 138.436364 208.704278 
L 140.922038 208.591699 
L 143.407713 208.254261 
L 145.893387 207.692859 
L 148.439688 206.887103 
L 151.046614 205.82265 
L 153.714168 204.485819 
L 156.442347 202.86377 
L 159.231152 200.944693 
L 162.14121 198.66777 
L 165.17252 196.006802 
L 168.325083 192.937546 
L 171.598898 189.438386 
L 175.054592 185.417741 
L 178.752791 180.765865 
L 182.693494 175.441908 
L 186.937328 169.324912 
L 191.54492 162.287254 
L 196.758774 153.904888 
L 202.882021 143.620626 
L 211.187811 129.195396 
L 227.193129 101.330636 
L 233.437628 90.964088 
L 238.712108 82.630245 
L 243.380326 75.662245 
L 247.624161 69.717606 
L 251.564864 64.571764 
L 255.263063 60.101788 
L 258.718756 56.263054 
L 262.053198 52.887615 
L 265.20576 50.00787 
L 268.237071 47.536178 
L 271.147128 45.446764 
L 273.935934 43.712078 
L 276.664113 42.274259 
L 279.331666 41.120674 
L 281.938593 40.23773 
L 284.484894 39.611068 
L 286.970568 39.225737 
L 289.456243 39.065124 
L 291.941917 39.129656 
L 294.427592 39.419161 
L 296.913266 39.932871 
L 299.459567 40.690154 
L 302.005867 41.67917 
L 304.612794 42.928927 
L 307.280347 44.452382 
L 310.069153 46.304627 
L 312.918584 48.464802 
L 315.889268 50.996859 
L 318.981205 53.925576 
L 322.25502 57.339434 
L 325.710714 61.274973 
L 329.348286 65.764177 
L 333.228363 70.916068 
L 337.350945 76.764405 
L 341.897911 83.611835 
L 346.929886 91.603781 
L 352.750002 101.279258 
L 360.207025 114.136363 
L 380.941187 150.134171 
L 386.761303 159.651006 
L 391.793278 167.464786 
L 396.340244 174.12019 
L 400.462826 179.770429 
L 404.342903 184.716364 
L 407.980475 188.996506 
L 411.375543 192.657879 
L 414.649358 195.866188 
L 417.741295 198.592186 
L 420.711979 200.922406 
L 423.56141 202.883191 
L 426.350216 204.535475 
L 429.017769 205.863829 
L 431.624696 206.919876 
L 434.170996 207.71733 
L 436.717297 208.28126 
L 439.202971 208.605007 
L 441.688646 208.70386 
L 444.17432 208.577555 
L 446.659995 208.226429 
L 449.145669 207.651413 
L 451.69197 206.831825 
L 454.298897 205.75337 
L 456.96645 204.402423 
L 459.694629 202.7662 
L 462.483435 200.832956 
L 465.393492 198.54165 
L 468.424803 195.866188 
L 471.577365 192.782447 
L 474.911807 189.200992 
L 478.428127 185.086597 
L 482.126325 180.409113 
L 486.067029 175.060177 
L 490.310863 168.919133 
L 494.979081 161.763574 
L 500.253561 153.255841 
L 506.437434 142.842199 
L 514.985729 127.971377 
L 529.899776 101.999351 
L 536.204901 91.505225 
L 541.479381 83.143526 
L 546.147599 76.145746 
L 550.452059 70.087636 
L 554.392763 64.91565 
L 558.090961 60.419048 
L 561.607281 56.488963 
L 564.941723 53.092476 
L 568.094285 50.191929 
L 571.125596 47.699493 
L 574.035653 45.589558 
L 576.824459 43.834718 
L 579.552638 42.376785 
L 582.220191 41.203216 
L 584.827118 40.300498 
L 587.373419 39.654344 
L 589.859093 39.249869 
L 592.344768 39.070048 
L 594.830442 39.115358 
L 597.316117 39.38568 
L 599.801791 39.880295 
L 602.348092 40.618163 
L 604.894392 41.587964 
L 607.501319 42.818312 
L 610.168872 44.322243 
L 612.957678 46.154502 
L 615.807109 48.294774 
L 618.777793 50.806715 
L 621.86973 53.71526 
L 625.143545 57.108704 
L 628.538613 60.952322 
L 632.176185 65.4157 
L 635.995636 70.459387 
L 640.118218 76.278006 
L 644.604557 83.003346 
L 649.575906 90.865868 
L 655.335396 100.407216 
L 662.61054 112.919627 
L 684.860358 151.498785 
L 690.559221 160.758816 
L 695.53057 168.421225 
L 700.016909 174.932569 
L 704.139491 180.528232 
L 707.958942 185.344323 
L 711.535889 189.50598 
L 714.930956 193.122763 
L 718.144145 196.230302 
L 721.236082 198.917794 
L 724.206766 201.209755 
L 727.056197 203.132817 
L 729.845003 204.747337 
L 732.512556 206.038905 
L 735.119483 207.058484 
L 737.665783 207.819926 
L 740.212084 208.347559 
L 742.697758 208.635694 
L 744.637797 208.704278 
L 744.637797 208.704278 
" clip-path="url(#pa6dde025f3)" style="fill: none; stroke: #0000ff; stroke-opacity: 0.3; stroke-width: 2.5; stroke-linecap: square"/>
   </g>
   <g id="line2d_14">
    <path d="M 140.962203 214.83293 
L 143.488042 209.772099 
L 146.013882 208.085155 
L 148.539721 204.711268 
L 151.06556 206.427044 
L 153.591399 210.929658 
L 156.117239 214.052717 
L 158.643078 215.46 
L 161.168917 209.656308 
L 166.220596 200.808034 
L 168.746435 202.427614 
L 171.272275 206.538216 
L 173.798114 208.213897 
L 176.323953 205.412712 
L 178.849793 198.759929 
L 181.375632 191.757129 
L 183.901471 187.611616 
L 186.42731 182.36583 
L 191.478989 176.344624 
L 194.004828 175.794868 
L 196.530668 171.02955 
L 201.582346 148.993354 
L 204.108186 142.740575 
L 206.634025 150.162425 
L 211.685704 150.679409 
L 214.211543 143.516051 
L 216.737382 146.157169 
L 221.789061 147.40384 
L 224.3149 145.386059 
L 226.840739 145.386059 
L 234.418257 142.667056 
L 236.944097 143.417585 
L 239.469936 141.526813 
L 241.995775 135.712114 
L 244.521614 129.146886 
L 247.047454 123.486364 
L 249.573293 118.611872 
L 252.099132 111.706975 
L 254.624972 106.538673 
L 257.150811 98.601637 
L 262.20249 86.788375 
L 267.254168 86.788375 
L 269.780008 86.447608 
L 274.831686 82.017635 
L 277.357525 80.143416 
L 282.409204 84.204224 
L 284.935043 84.204224 
L 289.986722 80.143416 
L 335.451829 80.143416 
L 343.029347 87.452871 
L 345.555187 91.107599 
L 350.606865 90.295438 
L 353.132705 86.234629 
L 355.658544 90.295438 
L 360.710223 91.107599 
L 363.236062 87.452871 
L 365.761901 91.107599 
L 368.28774 102.141239 
L 370.81358 111.9929 
L 373.339419 118.189834 
L 375.865258 117.007856 
L 378.391098 120.594152 
L 383.442776 121.174736 
L 385.968616 117.878732 
L 388.494455 124.124047 
L 393.546134 146.27982 
L 396.071973 151.112391 
L 398.597812 154.203724 
L 401.123651 159.699376 
L 403.649491 166.108812 
L 406.17533 174.063355 
L 408.701169 179.613581 
L 411.227009 183.081407 
L 416.278687 180.744177 
L 421.330366 186.137995 
L 423.856205 189.306375 
L 426.382045 190.557431 
L 428.907884 192.306914 
L 431.433723 192.846312 
L 433.959562 192.606124 
L 436.485402 191.867509 
L 441.53708 200.759022 
L 444.06292 202.085097 
L 449.114598 194.184121 
L 451.640438 193.353315 
L 456.692116 196.674118 
L 459.217955 197.538731 
L 461.743795 196.647962 
L 464.269634 195.366255 
L 469.321313 189.275774 
L 471.847152 186.668961 
L 476.898831 191.878762 
L 479.42467 193.628475 
L 484.476349 191.320955 
L 487.002188 186.519252 
L 492.053866 177.512993 
L 497.105545 162.948234 
L 499.631384 152.833793 
L 504.683063 147.16967 
L 507.208902 146.373544 
L 512.260581 141.981121 
L 514.78642 140.581035 
L 517.31226 138.94237 
L 522.363938 114.893859 
L 524.889777 104.508268 
L 532.467295 108.384974 
L 540.044813 92.325842 
L 547.622331 92.325842 
L 550.148171 98.417055 
L 555.199849 114.66029 
L 557.725688 116.690695 
L 562.777367 124.812312 
L 565.303206 129.685283 
L 567.829046 130.497445 
L 570.354885 131.122184 
L 575.406564 125.437052 
L 577.932403 117.429024 
L 580.458242 112.076139 
L 582.984081 105.984926 
L 588.03576 97.12498 
L 590.561599 91.033766 
L 595.613278 82.17382 
L 598.139117 80.143416 
L 600.664957 80.143416 
L 603.190796 82.358402 
L 610.768314 102.926135 
L 615.819992 108.495244 
L 618.345832 107.756915 
L 623.39751 103.258789 
L 625.92335 102.634049 
L 628.449189 107.319597 
L 633.500868 106.944754 
L 636.026707 102.071783 
L 643.604225 100.078295 
L 651.181743 109.381239 
L 656.233421 114.254209 
L 658.759261 110.378206 
L 663.810939 97.75323 
L 666.336779 100.743238 
L 668.862618 109.508193 
L 671.388457 118.740842 
L 673.914296 122.894129 
L 676.440136 121.272469 
L 678.965975 119.183113 
L 681.491814 119.349275 
L 686.543493 117.863863 
L 689.069332 116.954996 
L 691.595172 121.212021 
L 694.121011 131.369165 
L 696.64685 142.256535 
L 701.698529 160.325914 
L 704.224368 166.718651 
L 706.750207 170.548413 
L 709.276047 168.795319 
L 711.801886 173.123423 
L 714.327725 180.451102 
L 716.853565 188.263187 
L 719.379404 192.928792 
L 721.905243 195.218228 
L 724.431083 198.767851 
L 726.956922 201.135849 
L 729.482761 202.880439 
L 737.060279 205.399903 
L 739.586118 207.979882 
L 742.111958 210.244059 
L 744.637797 211.341735 
L 747.163636 209.859432 
L 747.163636 209.859432 
" clip-path="url(#pa6dde025f3)" style="fill: none; stroke: #1f77b4; stroke-width: 2.5; stroke-linecap: square"/>
   </g>
   <g id="patch_3">
    <path d="M 108 224.28 
L 108 30.24 
" style="fill: none; stroke: #000000; stroke-width: 0.8; stroke-linejoin: miter; stroke-linecap: square"/>
   </g>
   <g id="patch_4">
    <path d="M 777.6 224.28 
L 777.6 30.24 
" style="fill: none; stroke: #000000; stroke-width: 0.8; stroke-linejoin: miter; stroke-linecap: square"/>
   </g>
   <g id="patch_5">
    <path d="M 108 224.28 
L 777.6 224.28 
" style="fill: none; stroke: #000000; stroke-width: 0.8; stroke-linejoin: miter; stroke-linecap: square"/>
   </g>
   <g id="patch_6">
    <path d="M 108 30.24 
L 777.6 30.24 
" style="fill: none; stroke: #000000; stroke-width: 0.8; stroke-linejoin: miter; stroke-linecap: square"/>
   </g>
  </g>
  <g id="axes_2">
   <g id="matplotlib.axis_3">
    <g id="ytick_7">
     <g id="line2d_15">
      <defs>
       <path id="mffa5a2c055" d="M 0 0 
L 3.5 0 
" style="stroke: #000000; stroke-width: 0.8"/>
      </defs>
      <g>
       <use xlink:href="#mffa5a2c055" x="777.6" y="224.28" style="stroke: #000000; stroke-width: 0.8"/>
      </g>
     </g>
     <g id="text_15">
      <!-- 0 -->
      <g transform="translate(784.6 230.529375) scale(0.18 -0.18)">
       <use xlink:href="#TimesNewRomanPSMT-30"/>
      </g>
     </g>
    </g>
    <g id="ytick_8">
     <g id="line2d_16">
      <g>
       <use xlink:href="#mffa5a2c055" x="777.6" y="168.84" style="stroke: #000000; stroke-width: 0.8"/>
      </g>
     </g>
     <g id="text_16">
      <!-- 20 -->
      <g transform="translate(784.6 175.089375) scale(0.18 -0.18)">
       <use xlink:href="#TimesNewRomanPSMT-32"/>
       <use xlink:href="#TimesNewRomanPSMT-30" x="50"/>
      </g>
     </g>
    </g>
    <g id="ytick_9">
     <g id="line2d_17">
      <g>
       <use xlink:href="#mffa5a2c055" x="777.6" y="113.4" style="stroke: #000000; stroke-width: 0.8"/>
      </g>
     </g>
     <g id="text_17">
      <!-- 40 -->
      <g transform="translate(784.6 119.649375) scale(0.18 -0.18)">
       <use xlink:href="#TimesNewRomanPSMT-34"/>
       <use xlink:href="#TimesNewRomanPSMT-30" x="50"/>
      </g>
     </g>
    </g>
    <g id="ytick_10">
     <g id="line2d_18">
      <g>
       <use xlink:href="#mffa5a2c055" x="777.6" y="57.96" style="stroke: #000000; stroke-width: 0.8"/>
      </g>
     </g>
     <g id="text_18">
      <!-- 60 -->
      <g transform="translate(784.6 64.209375) scale(0.18 -0.18)">
       <defs>
        <path id="TimesNewRomanPSMT-36" d="M 2869 4325 
L 2869 4209 
Q 2456 4169 2195 4045 
Q 1934 3922 1679 3669 
Q 1425 3416 1258 3105 
Q 1091 2794 978 2366 
Q 1428 2675 1881 2675 
Q 2316 2675 2634 2325 
Q 2953 1975 2953 1425 
Q 2953 894 2631 456 
Q 2244 -75 1606 -75 
Q 1172 -75 869 213 
Q 275 772 275 1663 
Q 275 2231 503 2743 
Q 731 3256 1154 3653 
Q 1578 4050 1965 4187 
Q 2353 4325 2688 4325 
L 2869 4325 
z
M 925 2138 
Q 869 1716 869 1456 
Q 869 1156 980 804 
Q 1091 453 1309 247 
Q 1469 100 1697 100 
Q 1969 100 2183 356 
Q 2397 613 2397 1088 
Q 2397 1622 2184 2012 
Q 1972 2403 1581 2403 
Q 1463 2403 1327 2353 
Q 1191 2303 925 2138 
z
" transform="scale(0.015625)"/>
       </defs>
       <use xlink:href="#TimesNewRomanPSMT-36"/>
       <use xlink:href="#TimesNewRomanPSMT-30" x="50"/>
      </g>
     </g>
    </g>
    <g id="text_19">
     <!-- Buffer (s) -->
     <g transform="translate(820.4875 166.235) rotate(-90) scale(0.2 -0.2)">
      <defs>
       <path id="TimesNewRomanPSMT-75" d="M 2709 2863 
L 2709 1128 
Q 2709 631 2732 520 
Q 2756 409 2807 365 
Q 2859 322 2928 322 
Q 3025 322 3147 375 
L 3191 266 
L 2334 -88 
L 2194 -88 
L 2194 519 
Q 1825 119 1631 15 
Q 1438 -88 1222 -88 
Q 981 -88 804 51 
Q 628 191 559 409 
Q 491 628 491 1028 
L 491 2306 
Q 491 2509 447 2587 
Q 403 2666 317 2708 
Q 231 2750 6 2747 
L 6 2863 
L 1009 2863 
L 1009 947 
Q 1009 547 1148 422 
Q 1288 297 1484 297 
Q 1619 297 1789 381 
Q 1959 466 2194 703 
L 2194 2325 
Q 2194 2569 2105 2655 
Q 2016 2741 1734 2747 
L 1734 2863 
L 2709 2863 
z
" transform="scale(0.015625)"/>
       <path id="TimesNewRomanPSMT-66" d="M 1319 2638 
L 1319 756 
Q 1319 356 1406 250 
Q 1522 113 1716 113 
L 1975 113 
L 1975 0 
L 266 0 
L 266 113 
L 394 113 
Q 519 113 622 175 
Q 725 238 764 344 
Q 803 450 803 756 
L 803 2638 
L 247 2638 
L 247 2863 
L 803 2863 
L 803 3050 
Q 803 3478 940 3775 
Q 1078 4072 1361 4255 
Q 1644 4438 1997 4438 
Q 2325 4438 2600 4225 
Q 2781 4084 2781 3909 
Q 2781 3816 2700 3733 
Q 2619 3650 2525 3650 
Q 2453 3650 2373 3701 
Q 2294 3753 2178 3923 
Q 2063 4094 1966 4153 
Q 1869 4213 1750 4213 
Q 1606 4213 1506 4136 
Q 1406 4059 1362 3898 
Q 1319 3738 1319 3069 
L 1319 2863 
L 2056 2863 
L 2056 2638 
L 1319 2638 
z
" transform="scale(0.015625)"/>
      </defs>
      <use xlink:href="#TimesNewRomanPSMT-42"/>
      <use xlink:href="#TimesNewRomanPSMT-75" x="66.699219"/>
      <use xlink:href="#TimesNewRomanPSMT-66" x="116.699219"/>
      <use xlink:href="#TimesNewRomanPSMT-66" x="148.25"/>
      <use xlink:href="#TimesNewRomanPSMT-65" x="181.550781"/>
      <use xlink:href="#TimesNewRomanPSMT-72" x="225.935547"/>
      <use xlink:href="#TimesNewRomanPSMT-20" x="259.236328"/>
      <use xlink:href="#TimesNewRomanPSMT-28" x="284.236328"/>
      <use xlink:href="#TimesNewRomanPSMT-73" x="317.537109"/>
      <use xlink:href="#TimesNewRomanPSMT-29" x="356.453125"/>
     </g>
    </g>
   </g>
   <g id="line2d_19">
    <path d="M 140.962203 208.16964 
L 143.488042 208.675404 
L 146.013882 210.36456 
L 148.539721 210.996884 
L 151.06556 211.392048 
L 153.591399 209.865292 
L 156.117239 206.952844 
L 158.643078 207.185908 
L 161.168917 202.954388 
L 163.694757 201.624444 
L 166.220596 202.1502 
L 168.746435 201.349764 
L 171.272275 189.011498 
L 173.798114 186.43721 
L 176.323953 193.790132 
L 178.849793 184.294908 
L 181.375632 172.271232 
L 183.901471 181.545185 
L 186.42731 179.729928 
L 188.95315 183.07521 
L 191.478989 173.272197 
L 194.004828 183.237768 
L 196.530668 177.817122 
L 199.056507 176.308956 
L 201.582346 184.631252 
L 204.108186 180.387648 
L 206.634025 182.291023 
L 209.159864 174.894261 
L 211.685704 164.236774 
L 214.211543 171.62082 
L 216.737382 166.226697 
L 219.263221 160.490484 
L 221.789061 161.463708 
L 226.840739 156.761543 
L 229.366579 155.553048 
L 231.892418 161.331408 
L 234.418257 159.786417 
L 236.944097 158.646432 
L 239.469936 155.382248 
L 241.995775 154.76715 
L 244.521614 156.923424 
L 247.047454 148.356432 
L 249.573293 152.774412 
L 252.099132 148.736532 
L 254.624972 152.985315 
L 257.150811 146.764548 
L 259.67665 149.203383 
L 262.20249 145.797876 
L 264.728329 144.069156 
L 267.254168 144.1755 
L 269.780008 143.238874 
L 272.305847 142.675344 
L 277.357525 142.247448 
L 279.883365 141.994566 
L 282.409204 142.940372 
L 284.935043 141.435504 
L 287.460883 142.40394 
L 289.986722 141.480637 
L 292.512561 142.335799 
L 295.038401 141.139681 
L 297.56424 141.666084 
L 300.090079 141.686874 
L 302.615919 141.328177 
L 305.141758 140.665392 
L 307.667597 140.678328 
L 310.193436 141.082116 
L 312.719276 141.724548 
L 315.245115 140.667332 
L 317.770954 140.534604 
L 320.296794 141.425676 
L 322.822633 142.151436 
L 325.348472 141.549383 
L 327.874312 141.232392 
L 330.400151 141.208704 
L 332.92599 141.392664 
L 335.451829 140.979182 
L 337.977669 141.212308 
L 340.503508 142.210782 
L 343.029347 142.501288 
L 345.555187 141.162134 
L 348.081026 142.21032 
L 350.606865 143.508078 
L 353.132705 143.700092 
L 355.658544 142.024134 
L 358.184383 142.953401 
L 360.710223 143.141943 
L 363.236062 143.766194 
L 365.761901 142.24882 
L 368.28774 142.620114 
L 370.81358 142.022563 
L 373.339419 142.755732 
L 375.865258 141.4791 
L 378.391098 142.521939 
L 380.916937 143.380566 
L 383.442776 142.487289 
L 385.968616 142.06248 
L 388.494455 144.024363 
L 391.020294 143.071992 
L 393.546134 143.622654 
L 396.071973 143.737692 
L 398.597812 143.177055 
L 401.123651 143.584308 
L 403.649491 144.362232 
L 406.17533 143.202465 
L 408.701169 142.966845 
L 411.227009 145.603603 
L 413.752848 144.547301 
L 416.278687 146.096166 
L 418.804527 145.312188 
L 421.330366 146.926836 
L 423.856205 147.67326 
L 426.382045 146.62178 
L 428.907884 147.567441 
L 431.433723 147.26595 
L 433.959562 147.735252 
L 436.485402 148.088808 
L 439.011241 147.128541 
L 441.53708 149.081369 
L 444.06292 147.569751 
L 446.588759 148.887375 
L 449.114598 148.892262 
L 451.640438 147.4659 
L 454.166277 147.7728 
L 456.692116 147.520944 
L 459.217955 147.870744 
L 461.743795 147.187908 
L 464.269634 143.981012 
L 466.795473 145.570446 
L 471.847152 143.858736 
L 474.372991 141.95659 
L 479.42467 141.072645 
L 481.950509 141.58116 
L 484.476349 141.389874 
L 487.002188 140.582658 
L 489.528027 142.199568 
L 492.053866 143.213713 
L 494.579706 141.566985 
L 497.105545 140.825742 
L 499.631384 141.581412 
L 502.157224 142.566753 
L 504.683063 141.872705 
L 507.208902 142.058215 
L 509.734742 140.649037 
L 512.260581 143.199 
L 514.78642 143.243352 
L 517.31226 141.375024 
L 519.838099 142.490985 
L 522.363938 142.737693 
L 524.889777 142.34199 
L 527.415617 143.972586 
L 529.941456 143.05578 
L 532.467295 142.695252 
L 534.993135 143.012121 
L 537.518974 142.35732 
L 540.044813 143.157651 
L 542.570653 142.960377 
L 545.096492 143.493294 
L 547.622331 145.110672 
L 550.148171 143.996412 
L 552.67401 144.249588 
L 555.199849 145.531407 
L 557.725688 144.318195 
L 560.251528 145.391652 
L 562.777367 146.324556 
L 565.303206 147.951871 
L 567.829046 147.450324 
L 570.354885 146.670397 
L 572.880724 145.315191 
L 575.406564 145.887609 
L 580.458242 144.666312 
L 582.984081 143.653377 
L 585.509921 144.107208 
L 588.03576 143.455872 
L 590.561599 145.364163 
L 593.087439 144.376869 
L 595.613278 145.283544 
L 598.139117 145.462464 
L 600.664957 146.258694 
L 603.190796 145.379178 
L 605.716635 146.855268 
L 608.242475 145.658358 
L 610.768314 145.249448 
L 613.294153 144.956448 
L 615.819992 145.19792 
L 618.345832 144.597012 
L 620.871671 144.736607 
L 623.39751 143.813691 
L 625.92335 144.303642 
L 628.449189 143.641241 
L 630.975028 144.140371 
L 633.500868 143.474688 
L 636.026707 143.560284 
L 638.552546 142.57404 
L 641.078386 144.118664 
L 643.604225 144.119808 
L 646.130064 145.069823 
L 648.655903 145.325817 
L 651.181743 143.958759 
L 653.707582 144.468576 
L 656.233421 143.958528 
L 658.759261 144.14841 
L 661.2851 145.971756 
L 663.810939 144.817848 
L 666.336779 144.360972 
L 668.862618 143.648896 
L 671.388457 144.376407 
L 673.914296 143.594703 
L 676.440136 143.791376 
L 678.965975 143.399592 
L 681.491814 142.583616 
L 684.017654 142.769571 
L 686.543493 144.106723 
L 689.069332 142.877217 
L 691.595172 143.723916 
L 694.121011 144.236368 
L 696.64685 143.735508 
L 699.17269 142.439976 
L 701.698529 143.097192 
L 704.224368 142.236476 
L 706.750207 143.877287 
L 709.276047 144.169002 
L 711.801886 143.00034 
L 714.327725 141.4854 
L 716.853565 143.221869 
L 719.379404 143.272656 
L 721.905243 143.119368 
L 726.956922 145.448016 
L 729.482761 145.49679 
L 732.008601 146.698096 
L 734.53444 147.035952 
L 737.060279 147.730968 
L 739.586118 146.988072 
L 742.111958 148.86312 
L 744.637797 148.540431 
L 747.163636 148.437156 
L 747.163636 148.437156 
" clip-path="url(#pa6dde025f3)" style="fill: none; stroke: #ffa500; stroke-width: 2.5; stroke-linecap: square"/>
   </g>
   <g id="patch_7">
    <path d="M 108 224.28 
L 108 30.24 
" style="fill: none; stroke: #000000; stroke-width: 0.8; stroke-linejoin: miter; stroke-linecap: square"/>
   </g>
   <g id="patch_8">
    <path d="M 777.6 224.28 
L 777.6 30.24 
" style="fill: none; stroke: #000000; stroke-width: 0.8; stroke-linejoin: miter; stroke-linecap: square"/>
   </g>
   <g id="patch_9">
    <path d="M 108 224.28 
L 777.6 224.28 
" style="fill: none; stroke: #000000; stroke-width: 0.8; stroke-linejoin: miter; stroke-linecap: square"/>
   </g>
   <g id="patch_10">
    <path d="M 108 30.24 
L 777.6 30.24 
" style="fill: none; stroke: #000000; stroke-width: 0.8; stroke-linejoin: miter; stroke-linecap: square"/>
   </g>
  </g>
 </g>
 <defs>
  <clipPath id="pa6dde025f3">
   <rect x="108" y="30.24" width="669.6" height="194.04"/>
  </clipPath>
 </defs>
</svg>
