<?xml version="1.0" encoding="utf-8" standalone="no"?>
<!DOCTYPE svg PUBLIC "-//W3C//DTD SVG 1.1//EN"
  "http://www.w3.org/Graphics/SVG/1.1/DTD/svg11.dtd">
<svg xmlns:xlink="http://www.w3.org/1999/xlink" width="460.8pt" height="345.6pt" viewBox="0 0 460.8 345.6" xmlns="http://www.w3.org/2000/svg" version="1.1">
 <metadata>
  <rdf:RDF xmlns:dc="http://purl.org/dc/elements/1.1/" xmlns:cc="http://creativecommons.org/ns#" xmlns:rdf="http://www.w3.org/1999/02/22-rdf-syntax-ns#">
   <cc:Work>
    <dc:type rdf:resource="http://purl.org/dc/dcmitype/StillImage"/>
    <dc:date>2024-04-10T17:27:12.583847</dc:date>
    <dc:format>image/svg+xml</dc:format>
    <dc:creator>
     <cc:Agent>
      <dc:title>Matplotlib v3.8.3, https://matplotlib.org/</dc:title>
     </cc:Agent>
    </dc:creator>
   </cc:Work>
  </rdf:RDF>
 </metadata>
 <defs>
  <style type="text/css">*{stroke-linejoin: round; stroke-linecap: butt}</style>
 </defs>
 <g id="figure_1">
  <g id="patch_1">
   <path d="M 0 345.6 
L 460.8 345.6 
L 460.8 0 
L 0 0 
z
" style="fill: #ffffff"/>
  </g>
  <g id="axes_1">
   <g id="patch_2">
    <path d="M 57.6 307.584 
L 414.72 307.584 
L 414.72 41.472 
L 57.6 41.472 
z
" style="fill: #ffffff"/>
   </g>
   <g id="PolyCollection_1">
    <defs>
     <path id="m1132e6cb58" d="M 57.6 -296.543808 
L 57.6 -47.462976 
L 60.576 -76.76856 
L 63.552 -93.04944 
L 69.504 -122.355024 
L 75.456 -134.077258 
L 78.432 -155.892528 
L 81.408 -183.242189 
L 87.36 -210.234816 
L 93.312 -213.831763 
L 99.264 -226.219277 
L 105.216 -235.009843 
L 111.168 -243.80041 
L 117.12 -252.590976 
L 123.072 -270.172109 
L 129.024 -287.753242 
L 134.976 -296.543808 
L 140.928 -296.543808 
L 146.88 -296.543808 
L 152.832 -296.543808 
L 158.784 -296.543808 
L 164.736 -296.543808 
L 170.688 -296.543808 
L 176.64 -296.543808 
L 182.592 -296.543808 
L 188.544 -296.543808 
L 194.496 -296.543808 
L 200.448 -296.543808 
L 206.4 -296.543808 
L 212.352 -296.543808 
L 218.304 -296.543808 
L 224.256 -296.543808 
L 230.208 -296.543808 
L 236.16 -296.543808 
L 242.112 -296.543808 
L 248.064 -296.543808 
L 254.016 -296.543808 
L 259.968 -296.543808 
L 265.92 -296.543808 
L 271.872 -296.543808 
L 277.824 -296.543808 
L 283.776 -296.543808 
L 289.728 -296.543808 
L 295.68 -296.543808 
L 301.632 -296.543808 
L 307.584 -296.543808 
L 313.536 -296.543808 
L 319.488 -296.543808 
L 325.44 -296.543808 
L 331.392 -296.543808 
L 337.344 -296.543808 
L 343.296 -296.543808 
L 349.248 -296.543808 
L 355.2 -296.543808 
L 361.152 -296.543808 
L 367.104 -296.543808 
L 373.056 -296.543808 
L 379.008 -296.543808 
L 384.96 -296.543808 
L 390.912 -296.543808 
L 396.864 -296.543808 
L 402.816 -296.543808 
L 408.768 -296.543808 
L 408.768 -296.543808 
L 408.768 -296.543808 
L 402.816 -296.543808 
L 396.864 -296.543808 
L 390.912 -296.543808 
L 384.96 -296.543808 
L 379.008 -296.543808 
L 373.056 -296.543808 
L 367.104 -296.543808 
L 361.152 -296.543808 
L 355.2 -296.543808 
L 349.248 -296.543808 
L 343.296 -296.543808 
L 337.344 -296.543808 
L 331.392 -296.543808 
L 325.44 -296.543808 
L 319.488 -296.543808 
L 313.536 -296.543808 
L 307.584 -296.543808 
L 301.632 -296.543808 
L 295.68 -296.543808 
L 289.728 -296.543808 
L 283.776 -296.543808 
L 277.824 -296.543808 
L 271.872 -296.543808 
L 265.92 -296.543808 
L 259.968 -296.543808 
L 254.016 -296.543808 
L 248.064 -296.543808 
L 242.112 -296.543808 
L 236.16 -296.543808 
L 230.208 -296.543808 
L 224.256 -296.543808 
L 218.304 -296.543808 
L 212.352 -296.543808 
L 206.4 -296.543808 
L 200.448 -296.543808 
L 194.496 -296.543808 
L 188.544 -296.543808 
L 182.592 -296.543808 
L 176.64 -296.543808 
L 170.688 -296.543808 
L 164.736 -296.543808 
L 158.784 -296.543808 
L 152.832 -296.543808 
L 146.88 -296.543808 
L 140.928 -296.543808 
L 134.976 -296.543808 
L 129.024 -296.543808 
L 123.072 -296.543808 
L 117.12 -296.543808 
L 111.168 -296.543808 
L 105.216 -296.543808 
L 99.264 -296.543808 
L 93.312 -296.543808 
L 87.36 -296.543808 
L 81.408 -296.543808 
L 78.432 -296.543808 
L 75.456 -296.543808 
L 69.504 -296.543808 
L 63.552 -296.543808 
L 60.576 -296.543808 
L 57.6 -296.543808 
z
" style="stroke: #ff0000; stroke-opacity: 0.3"/>
    </defs>
    <g clip-path="url(#pd4f00c9d21)">
     <use xlink:href="#m1132e6cb58" x="0" y="345.6" style="fill: #ff0000; fill-opacity: 0.3; stroke: #ff0000; stroke-opacity: 0.3"/>
    </g>
   </g>
   <g id="matplotlib.axis_1">
    <g id="xtick_1">
     <g id="line2d_1">
      <defs>
       <path id="ma65875895e" d="M 0 0 
L 0 3.5 
" style="stroke: #000000; stroke-width: 0.8"/>
      </defs>
      <g>
       <use xlink:href="#ma65875895e" x="57.6" y="307.584" style="stroke: #000000; stroke-width: 0.8"/>
      </g>
     </g>
     <g id="text_1">
      <!-- 0 -->
      <g transform="translate(54.41875 322.182437) scale(0.1 -0.1)">
       <defs>
        <path id="DejaVuSans-30" d="M 2034 4250 
Q 1547 4250 1301 3770 
Q 1056 3291 1056 2328 
Q 1056 1369 1301 889 
Q 1547 409 2034 409 
Q 2525 409 2770 889 
Q 3016 1369 3016 2328 
Q 3016 3291 2770 3770 
Q 2525 4250 2034 4250 
z
M 2034 4750 
Q 2819 4750 3233 4129 
Q 3647 3509 3647 2328 
Q 3647 1150 3233 529 
Q 2819 -91 2034 -91 
Q 1250 -91 836 529 
Q 422 1150 422 2328 
Q 422 3509 836 4129 
Q 1250 4750 2034 4750 
z
" transform="scale(0.015625)"/>
       </defs>
       <use xlink:href="#DejaVuSans-30"/>
      </g>
     </g>
    </g>
    <g id="xtick_2">
     <g id="line2d_2">
      <g>
       <use xlink:href="#ma65875895e" x="117.12" y="307.584" style="stroke: #000000; stroke-width: 0.8"/>
      </g>
     </g>
     <g id="text_2">
      <!-- 10 -->
      <g transform="translate(110.7575 322.182437) scale(0.1 -0.1)">
       <defs>
        <path id="DejaVuSans-31" d="M 794 531 
L 1825 531 
L 1825 4091 
L 703 3866 
L 703 4441 
L 1819 4666 
L 2450 4666 
L 2450 531 
L 3481 531 
L 3481 0 
L 794 0 
L 794 531 
z
" transform="scale(0.015625)"/>
       </defs>
       <use xlink:href="#DejaVuSans-31"/>
       <use xlink:href="#DejaVuSans-30" x="63.623047"/>
      </g>
     </g>
    </g>
    <g id="xtick_3">
     <g id="line2d_3">
      <g>
       <use xlink:href="#ma65875895e" x="176.64" y="307.584" style="stroke: #000000; stroke-width: 0.8"/>
      </g>
     </g>
     <g id="text_3">
      <!-- 20 -->
      <g transform="translate(170.2775 322.182437) scale(0.1 -0.1)">
       <defs>
        <path id="DejaVuSans-32" d="M 1228 531 
L 3431 531 
L 3431 0 
L 469 0 
L 469 531 
Q 828 903 1448 1529 
Q 2069 2156 2228 2338 
Q 2531 2678 2651 2914 
Q 2772 3150 2772 3378 
Q 2772 3750 2511 3984 
Q 2250 4219 1831 4219 
Q 1534 4219 1204 4116 
Q 875 4013 500 3803 
L 500 4441 
Q 881 4594 1212 4672 
Q 1544 4750 1819 4750 
Q 2544 4750 2975 4387 
Q 3406 4025 3406 3419 
Q 3406 3131 3298 2873 
Q 3191 2616 2906 2266 
Q 2828 2175 2409 1742 
Q 1991 1309 1228 531 
z
" transform="scale(0.015625)"/>
       </defs>
       <use xlink:href="#DejaVuSans-32"/>
       <use xlink:href="#DejaVuSans-30" x="63.623047"/>
      </g>
     </g>
    </g>
    <g id="xtick_4">
     <g id="line2d_4">
      <g>
       <use xlink:href="#ma65875895e" x="236.16" y="307.584" style="stroke: #000000; stroke-width: 0.8"/>
      </g>
     </g>
     <g id="text_4">
      <!-- 30 -->
      <g transform="translate(229.7975 322.182437) scale(0.1 -0.1)">
       <defs>
        <path id="DejaVuSans-33" d="M 2597 2516 
Q 3050 2419 3304 2112 
Q 3559 1806 3559 1356 
Q 3559 666 3084 287 
Q 2609 -91 1734 -91 
Q 1441 -91 1130 -33 
Q 819 25 488 141 
L 488 750 
Q 750 597 1062 519 
Q 1375 441 1716 441 
Q 2309 441 2620 675 
Q 2931 909 2931 1356 
Q 2931 1769 2642 2001 
Q 2353 2234 1838 2234 
L 1294 2234 
L 1294 2753 
L 1863 2753 
Q 2328 2753 2575 2939 
Q 2822 3125 2822 3475 
Q 2822 3834 2567 4026 
Q 2313 4219 1838 4219 
Q 1578 4219 1281 4162 
Q 984 4106 628 3988 
L 628 4550 
Q 988 4650 1302 4700 
Q 1616 4750 1894 4750 
Q 2613 4750 3031 4423 
Q 3450 4097 3450 3541 
Q 3450 3153 3228 2886 
Q 3006 2619 2597 2516 
z
" transform="scale(0.015625)"/>
       </defs>
       <use xlink:href="#DejaVuSans-33"/>
       <use xlink:href="#DejaVuSans-30" x="63.623047"/>
      </g>
     </g>
    </g>
    <g id="xtick_5">
     <g id="line2d_5">
      <g>
       <use xlink:href="#ma65875895e" x="295.68" y="307.584" style="stroke: #000000; stroke-width: 0.8"/>
      </g>
     </g>
     <g id="text_5">
      <!-- 40 -->
      <g transform="translate(289.3175 322.182437) scale(0.1 -0.1)">
       <defs>
        <path id="DejaVuSans-34" d="M 2419 4116 
L 825 1625 
L 2419 1625 
L 2419 4116 
z
M 2253 4666 
L 3047 4666 
L 3047 1625 
L 3713 1625 
L 3713 1100 
L 3047 1100 
L 3047 0 
L 2419 0 
L 2419 1100 
L 313 1100 
L 313 1709 
L 2253 4666 
z
" transform="scale(0.015625)"/>
       </defs>
       <use xlink:href="#DejaVuSans-34"/>
       <use xlink:href="#DejaVuSans-30" x="63.623047"/>
      </g>
     </g>
    </g>
    <g id="xtick_6">
     <g id="line2d_6">
      <g>
       <use xlink:href="#ma65875895e" x="355.2" y="307.584" style="stroke: #000000; stroke-width: 0.8"/>
      </g>
     </g>
     <g id="text_6">
      <!-- 50 -->
      <g transform="translate(348.8375 322.182437) scale(0.1 -0.1)">
       <defs>
        <path id="DejaVuSans-35" d="M 691 4666 
L 3169 4666 
L 3169 4134 
L 1269 4134 
L 1269 2991 
Q 1406 3038 1543 3061 
Q 1681 3084 1819 3084 
Q 2600 3084 3056 2656 
Q 3513 2228 3513 1497 
Q 3513 744 3044 326 
Q 2575 -91 1722 -91 
Q 1428 -91 1123 -41 
Q 819 9 494 109 
L 494 744 
Q 775 591 1075 516 
Q 1375 441 1709 441 
Q 2250 441 2565 725 
Q 2881 1009 2881 1497 
Q 2881 1984 2565 2268 
Q 2250 2553 1709 2553 
Q 1456 2553 1204 2497 
Q 953 2441 691 2322 
L 691 4666 
z
" transform="scale(0.015625)"/>
       </defs>
       <use xlink:href="#DejaVuSans-35"/>
       <use xlink:href="#DejaVuSans-30" x="63.623047"/>
      </g>
     </g>
    </g>
    <g id="xtick_7">
     <g id="line2d_7">
      <g>
       <use xlink:href="#ma65875895e" x="414.72" y="307.584" style="stroke: #000000; stroke-width: 0.8"/>
      </g>
     </g>
     <g id="text_7">
      <!-- 60 -->
      <g transform="translate(408.3575 322.182437) scale(0.1 -0.1)">
       <defs>
        <path id="DejaVuSans-36" d="M 2113 2584 
Q 1688 2584 1439 2293 
Q 1191 2003 1191 1497 
Q 1191 994 1439 701 
Q 1688 409 2113 409 
Q 2538 409 2786 701 
Q 3034 994 3034 1497 
Q 3034 2003 2786 2293 
Q 2538 2584 2113 2584 
z
M 3366 4563 
L 3366 3988 
Q 3128 4100 2886 4159 
Q 2644 4219 2406 4219 
Q 1781 4219 1451 3797 
Q 1122 3375 1075 2522 
Q 1259 2794 1537 2939 
Q 1816 3084 2150 3084 
Q 2853 3084 3261 2657 
Q 3669 2231 3669 1497 
Q 3669 778 3244 343 
Q 2819 -91 2113 -91 
Q 1303 -91 875 529 
Q 447 1150 447 2328 
Q 447 3434 972 4092 
Q 1497 4750 2381 4750 
Q 2619 4750 2861 4703 
Q 3103 4656 3366 4563 
z
" transform="scale(0.015625)"/>
       </defs>
       <use xlink:href="#DejaVuSans-36"/>
       <use xlink:href="#DejaVuSans-30" x="63.623047"/>
      </g>
     </g>
    </g>
    <g id="text_8">
     <!-- Time(s) -->
     <g transform="translate(217.420156 335.860562) scale(0.1 -0.1)">
      <defs>
       <path id="DejaVuSans-54" d="M -19 4666 
L 3928 4666 
L 3928 4134 
L 2272 4134 
L 2272 0 
L 1638 0 
L 1638 4134 
L -19 4134 
L -19 4666 
z
" transform="scale(0.015625)"/>
       <path id="DejaVuSans-69" d="M 603 3500 
L 1178 3500 
L 1178 0 
L 603 0 
L 603 3500 
z
M 603 4863 
L 1178 4863 
L 1178 4134 
L 603 4134 
L 603 4863 
z
" transform="scale(0.015625)"/>
       <path id="DejaVuSans-6d" d="M 3328 2828 
Q 3544 3216 3844 3400 
Q 4144 3584 4550 3584 
Q 5097 3584 5394 3201 
Q 5691 2819 5691 2113 
L 5691 0 
L 5113 0 
L 5113 2094 
Q 5113 2597 4934 2840 
Q 4756 3084 4391 3084 
Q 3944 3084 3684 2787 
Q 3425 2491 3425 1978 
L 3425 0 
L 2847 0 
L 2847 2094 
Q 2847 2600 2669 2842 
Q 2491 3084 2119 3084 
Q 1678 3084 1418 2786 
Q 1159 2488 1159 1978 
L 1159 0 
L 581 0 
L 581 3500 
L 1159 3500 
L 1159 2956 
Q 1356 3278 1631 3431 
Q 1906 3584 2284 3584 
Q 2666 3584 2933 3390 
Q 3200 3197 3328 2828 
z
" transform="scale(0.015625)"/>
       <path id="DejaVuSans-65" d="M 3597 1894 
L 3597 1613 
L 953 1613 
Q 991 1019 1311 708 
Q 1631 397 2203 397 
Q 2534 397 2845 478 
Q 3156 559 3463 722 
L 3463 178 
Q 3153 47 2828 -22 
Q 2503 -91 2169 -91 
Q 1331 -91 842 396 
Q 353 884 353 1716 
Q 353 2575 817 3079 
Q 1281 3584 2069 3584 
Q 2775 3584 3186 3129 
Q 3597 2675 3597 1894 
z
M 3022 2063 
Q 3016 2534 2758 2815 
Q 2500 3097 2075 3097 
Q 1594 3097 1305 2825 
Q 1016 2553 972 2059 
L 3022 2063 
z
" transform="scale(0.015625)"/>
       <path id="DejaVuSans-28" d="M 1984 4856 
Q 1566 4138 1362 3434 
Q 1159 2731 1159 2009 
Q 1159 1288 1364 580 
Q 1569 -128 1984 -844 
L 1484 -844 
Q 1016 -109 783 600 
Q 550 1309 550 2009 
Q 550 2706 781 3412 
Q 1013 4119 1484 4856 
L 1984 4856 
z
" transform="scale(0.015625)"/>
       <path id="DejaVuSans-73" d="M 2834 3397 
L 2834 2853 
Q 2591 2978 2328 3040 
Q 2066 3103 1784 3103 
Q 1356 3103 1142 2972 
Q 928 2841 928 2578 
Q 928 2378 1081 2264 
Q 1234 2150 1697 2047 
L 1894 2003 
Q 2506 1872 2764 1633 
Q 3022 1394 3022 966 
Q 3022 478 2636 193 
Q 2250 -91 1575 -91 
Q 1294 -91 989 -36 
Q 684 19 347 128 
L 347 722 
Q 666 556 975 473 
Q 1284 391 1588 391 
Q 1994 391 2212 530 
Q 2431 669 2431 922 
Q 2431 1156 2273 1281 
Q 2116 1406 1581 1522 
L 1381 1569 
Q 847 1681 609 1914 
Q 372 2147 372 2553 
Q 372 3047 722 3315 
Q 1072 3584 1716 3584 
Q 2034 3584 2315 3537 
Q 2597 3491 2834 3397 
z
" transform="scale(0.015625)"/>
       <path id="DejaVuSans-29" d="M 513 4856 
L 1013 4856 
Q 1481 4119 1714 3412 
Q 1947 2706 1947 2009 
Q 1947 1309 1714 600 
Q 1481 -109 1013 -844 
L 513 -844 
Q 928 -128 1133 580 
Q 1338 1288 1338 2009 
Q 1338 2731 1133 3434 
Q 928 4138 513 4856 
z
" transform="scale(0.015625)"/>
      </defs>
      <use xlink:href="#DejaVuSans-54"/>
      <use xlink:href="#DejaVuSans-69" x="57.958984"/>
      <use xlink:href="#DejaVuSans-6d" x="85.742188"/>
      <use xlink:href="#DejaVuSans-65" x="183.154297"/>
      <use xlink:href="#DejaVuSans-28" x="244.677734"/>
      <use xlink:href="#DejaVuSans-73" x="283.691406"/>
      <use xlink:href="#DejaVuSans-29" x="335.791016"/>
     </g>
    </g>
   </g>
   <g id="matplotlib.axis_2">
    <g id="ytick_1">
     <g id="line2d_8">
      <defs>
       <path id="m299b03ce53" d="M 0 0 
L -3.5 0 
" style="stroke: #000000; stroke-width: 0.8"/>
      </defs>
      <g>
       <use xlink:href="#m299b03ce53" x="57.6" y="307.584" style="stroke: #000000; stroke-width: 0.8"/>
      </g>
     </g>
     <g id="text_9">
      <!-- 0 -->
      <g transform="translate(44.2375 311.383219) scale(0.1 -0.1)">
       <use xlink:href="#DejaVuSans-30"/>
      </g>
     </g>
    </g>
    <g id="ytick_2">
     <g id="line2d_9">
      <g>
       <use xlink:href="#m299b03ce53" x="57.6" y="274.32" style="stroke: #000000; stroke-width: 0.8"/>
      </g>
     </g>
     <g id="text_10">
      <!-- 500 -->
      <g transform="translate(31.5125 278.119219) scale(0.1 -0.1)">
       <use xlink:href="#DejaVuSans-35"/>
       <use xlink:href="#DejaVuSans-30" x="63.623047"/>
       <use xlink:href="#DejaVuSans-30" x="127.246094"/>
      </g>
     </g>
    </g>
    <g id="ytick_3">
     <g id="line2d_10">
      <g>
       <use xlink:href="#m299b03ce53" x="57.6" y="241.056" style="stroke: #000000; stroke-width: 0.8"/>
      </g>
     </g>
     <g id="text_11">
      <!-- 1000 -->
      <g transform="translate(25.15 244.855219) scale(0.1 -0.1)">
       <use xlink:href="#DejaVuSans-31"/>
       <use xlink:href="#DejaVuSans-30" x="63.623047"/>
       <use xlink:href="#DejaVuSans-30" x="127.246094"/>
       <use xlink:href="#DejaVuSans-30" x="190.869141"/>
      </g>
     </g>
    </g>
    <g id="ytick_4">
     <g id="line2d_11">
      <g>
       <use xlink:href="#m299b03ce53" x="57.6" y="207.792" style="stroke: #000000; stroke-width: 0.8"/>
      </g>
     </g>
     <g id="text_12">
      <!-- 1500 -->
      <g transform="translate(25.15 211.591219) scale(0.1 -0.1)">
       <use xlink:href="#DejaVuSans-31"/>
       <use xlink:href="#DejaVuSans-35" x="63.623047"/>
       <use xlink:href="#DejaVuSans-30" x="127.246094"/>
       <use xlink:href="#DejaVuSans-30" x="190.869141"/>
      </g>
     </g>
    </g>
    <g id="ytick_5">
     <g id="line2d_12">
      <g>
       <use xlink:href="#m299b03ce53" x="57.6" y="174.528" style="stroke: #000000; stroke-width: 0.8"/>
      </g>
     </g>
     <g id="text_13">
      <!-- 2000 -->
      <g transform="translate(25.15 178.327219) scale(0.1 -0.1)">
       <use xlink:href="#DejaVuSans-32"/>
       <use xlink:href="#DejaVuSans-30" x="63.623047"/>
       <use xlink:href="#DejaVuSans-30" x="127.246094"/>
       <use xlink:href="#DejaVuSans-30" x="190.869141"/>
      </g>
     </g>
    </g>
    <g id="ytick_6">
     <g id="line2d_13">
      <g>
       <use xlink:href="#m299b03ce53" x="57.6" y="141.264" style="stroke: #000000; stroke-width: 0.8"/>
      </g>
     </g>
     <g id="text_14">
      <!-- 2500 -->
      <g transform="translate(25.15 145.063219) scale(0.1 -0.1)">
       <use xlink:href="#DejaVuSans-32"/>
       <use xlink:href="#DejaVuSans-35" x="63.623047"/>
       <use xlink:href="#DejaVuSans-30" x="127.246094"/>
       <use xlink:href="#DejaVuSans-30" x="190.869141"/>
      </g>
     </g>
    </g>
    <g id="ytick_7">
     <g id="line2d_14">
      <g>
       <use xlink:href="#m299b03ce53" x="57.6" y="108" style="stroke: #000000; stroke-width: 0.8"/>
      </g>
     </g>
     <g id="text_15">
      <!-- 3000 -->
      <g transform="translate(25.15 111.799219) scale(0.1 -0.1)">
       <use xlink:href="#DejaVuSans-33"/>
       <use xlink:href="#DejaVuSans-30" x="63.623047"/>
       <use xlink:href="#DejaVuSans-30" x="127.246094"/>
       <use xlink:href="#DejaVuSans-30" x="190.869141"/>
      </g>
     </g>
    </g>
    <g id="ytick_8">
     <g id="line2d_15">
      <g>
       <use xlink:href="#m299b03ce53" x="57.6" y="74.736" style="stroke: #000000; stroke-width: 0.8"/>
      </g>
     </g>
     <g id="text_16">
      <!-- 3500 -->
      <g transform="translate(25.15 78.535219) scale(0.1 -0.1)">
       <use xlink:href="#DejaVuSans-33"/>
       <use xlink:href="#DejaVuSans-35" x="63.623047"/>
       <use xlink:href="#DejaVuSans-30" x="127.246094"/>
       <use xlink:href="#DejaVuSans-30" x="190.869141"/>
      </g>
     </g>
    </g>
    <g id="ytick_9">
     <g id="line2d_16">
      <g>
       <use xlink:href="#m299b03ce53" x="57.6" y="41.472" style="stroke: #000000; stroke-width: 0.8"/>
      </g>
     </g>
     <g id="text_17">
      <!-- 4000 -->
      <g transform="translate(25.15 45.271219) scale(0.1 -0.1)">
       <use xlink:href="#DejaVuSans-34"/>
       <use xlink:href="#DejaVuSans-30" x="63.623047"/>
       <use xlink:href="#DejaVuSans-30" x="127.246094"/>
       <use xlink:href="#DejaVuSans-30" x="190.869141"/>
      </g>
     </g>
    </g>
    <g id="text_18">
     <!-- bitrate(kbps) -->
     <g transform="translate(19.070312 206.957687) rotate(-90) scale(0.1 -0.1)">
      <defs>
       <path id="DejaVuSans-62" d="M 3116 1747 
Q 3116 2381 2855 2742 
Q 2594 3103 2138 3103 
Q 1681 3103 1420 2742 
Q 1159 2381 1159 1747 
Q 1159 1113 1420 752 
Q 1681 391 2138 391 
Q 2594 391 2855 752 
Q 3116 1113 3116 1747 
z
M 1159 2969 
Q 1341 3281 1617 3432 
Q 1894 3584 2278 3584 
Q 2916 3584 3314 3078 
Q 3713 2572 3713 1747 
Q 3713 922 3314 415 
Q 2916 -91 2278 -91 
Q 1894 -91 1617 61 
Q 1341 213 1159 525 
L 1159 0 
L 581 0 
L 581 4863 
L 1159 4863 
L 1159 2969 
z
" transform="scale(0.015625)"/>
       <path id="DejaVuSans-74" d="M 1172 4494 
L 1172 3500 
L 2356 3500 
L 2356 3053 
L 1172 3053 
L 1172 1153 
Q 1172 725 1289 603 
Q 1406 481 1766 481 
L 2356 481 
L 2356 0 
L 1766 0 
Q 1100 0 847 248 
Q 594 497 594 1153 
L 594 3053 
L 172 3053 
L 172 3500 
L 594 3500 
L 594 4494 
L 1172 4494 
z
" transform="scale(0.015625)"/>
       <path id="DejaVuSans-72" d="M 2631 2963 
Q 2534 3019 2420 3045 
Q 2306 3072 2169 3072 
Q 1681 3072 1420 2755 
Q 1159 2438 1159 1844 
L 1159 0 
L 581 0 
L 581 3500 
L 1159 3500 
L 1159 2956 
Q 1341 3275 1631 3429 
Q 1922 3584 2338 3584 
Q 2397 3584 2469 3576 
Q 2541 3569 2628 3553 
L 2631 2963 
z
" transform="scale(0.015625)"/>
       <path id="DejaVuSans-61" d="M 2194 1759 
Q 1497 1759 1228 1600 
Q 959 1441 959 1056 
Q 959 750 1161 570 
Q 1363 391 1709 391 
Q 2188 391 2477 730 
Q 2766 1069 2766 1631 
L 2766 1759 
L 2194 1759 
z
M 3341 1997 
L 3341 0 
L 2766 0 
L 2766 531 
Q 2569 213 2275 61 
Q 1981 -91 1556 -91 
Q 1019 -91 701 211 
Q 384 513 384 1019 
Q 384 1609 779 1909 
Q 1175 2209 1959 2209 
L 2766 2209 
L 2766 2266 
Q 2766 2663 2505 2880 
Q 2244 3097 1772 3097 
Q 1472 3097 1187 3025 
Q 903 2953 641 2809 
L 641 3341 
Q 956 3463 1253 3523 
Q 1550 3584 1831 3584 
Q 2591 3584 2966 3190 
Q 3341 2797 3341 1997 
z
" transform="scale(0.015625)"/>
       <path id="DejaVuSans-6b" d="M 581 4863 
L 1159 4863 
L 1159 1991 
L 2875 3500 
L 3609 3500 
L 1753 1863 
L 3688 0 
L 2938 0 
L 1159 1709 
L 1159 0 
L 581 0 
L 581 4863 
z
" transform="scale(0.015625)"/>
       <path id="DejaVuSans-70" d="M 1159 525 
L 1159 -1331 
L 581 -1331 
L 581 3500 
L 1159 3500 
L 1159 2969 
Q 1341 3281 1617 3432 
Q 1894 3584 2278 3584 
Q 2916 3584 3314 3078 
Q 3713 2572 3713 1747 
Q 3713 922 3314 415 
Q 2916 -91 2278 -91 
Q 1894 -91 1617 61 
Q 1341 213 1159 525 
z
M 3116 1747 
Q 3116 2381 2855 2742 
Q 2594 3103 2138 3103 
Q 1681 3103 1420 2742 
Q 1159 2381 1159 1747 
Q 1159 1113 1420 752 
Q 1681 391 2138 391 
Q 2594 391 2855 752 
Q 3116 1113 3116 1747 
z
" transform="scale(0.015625)"/>
      </defs>
      <use xlink:href="#DejaVuSans-62"/>
      <use xlink:href="#DejaVuSans-69" x="63.476562"/>
      <use xlink:href="#DejaVuSans-74" x="91.259766"/>
      <use xlink:href="#DejaVuSans-72" x="130.46875"/>
      <use xlink:href="#DejaVuSans-61" x="171.582031"/>
      <use xlink:href="#DejaVuSans-74" x="232.861328"/>
      <use xlink:href="#DejaVuSans-65" x="272.070312"/>
      <use xlink:href="#DejaVuSans-28" x="333.59375"/>
      <use xlink:href="#DejaVuSans-6b" x="372.607422"/>
      <use xlink:href="#DejaVuSans-62" x="430.517578"/>
      <use xlink:href="#DejaVuSans-70" x="493.994141"/>
      <use xlink:href="#DejaVuSans-73" x="557.470703"/>
      <use xlink:href="#DejaVuSans-29" x="609.570312"/>
     </g>
    </g>
   </g>
   <g id="line2d_17">
    <path d="M 57.6 298.137024 
L 60.576 268.83144 
L 63.552 252.55056 
L 69.504 223.244976 
L 75.456 211.522742 
L 78.432 189.707472 
L 81.408 162.357811 
L 87.36 128.17129 
L 93.312 101.79959 
L 99.264 75.427891 
L 105.216 57.846758 
L 111.168 49.056192 
L 117.12 49.056192 
L 123.072 49.056192 
L 129.024 49.056192 
L 134.976 49.056192 
L 140.928 49.056192 
L 146.88 49.056192 
L 152.832 49.056192 
L 158.784 49.056192 
L 164.736 49.056192 
L 170.688 49.056192 
L 176.64 49.056192 
L 182.592 49.056192 
L 188.544 49.056192 
L 194.496 49.056192 
L 200.448 49.056192 
L 206.4 49.056192 
L 212.352 49.056192 
L 218.304 49.056192 
L 224.256 49.056192 
L 230.208 49.056192 
L 236.16 49.056192 
L 242.112 49.056192 
L 248.064 49.056192 
L 254.016 49.056192 
L 259.968 49.056192 
L 265.92 49.056192 
L 271.872 49.056192 
L 277.824 49.056192 
L 283.776 49.056192 
L 289.728 49.056192 
L 295.68 49.056192 
L 301.632 49.056192 
L 307.584 49.056192 
L 313.536 49.056192 
L 319.488 49.056192 
L 325.44 49.056192 
L 331.392 49.056192 
L 337.344 49.056192 
L 343.296 49.056192 
L 349.248 49.056192 
L 355.2 49.056192 
L 361.152 49.056192 
L 367.104 49.056192 
L 373.056 49.056192 
L 379.008 49.056192 
L 384.96 49.056192 
L 390.912 49.056192 
L 396.864 49.056192 
L 402.816 49.056192 
L 408.768 49.056192 
" clip-path="url(#pd4f00c9d21)" style="fill: none; stroke: #1f77b4; stroke-opacity: 0.1; stroke-width: 1.5; stroke-linecap: square"/>
   </g>
   <g id="line2d_18">
    <path d="M 57.6 264.540384 
L 60.576 210.669336 
L 63.552 180.740976 
L 69.504 126.869928 
L 75.456 105.321509 
L 78.432 90.169387 
L 81.408 89.793504 
L 87.36 93.009024 
L 93.312 101.79959 
L 99.264 101.79959 
L 105.216 93.009024 
L 111.168 75.427891 
L 117.12 57.846758 
L 123.072 49.056192 
L 129.024 49.056192 
L 134.976 49.056192 
L 140.928 49.056192 
L 146.88 49.056192 
L 152.832 49.056192 
L 158.784 49.056192 
L 164.736 49.056192 
L 170.688 49.056192 
L 176.64 49.056192 
L 182.592 49.056192 
L 188.544 49.056192 
L 194.496 49.056192 
L 200.448 49.056192 
L 206.4 49.056192 
L 212.352 49.056192 
L 218.304 49.056192 
L 224.256 49.056192 
L 230.208 49.056192 
L 236.16 49.056192 
L 242.112 49.056192 
L 248.064 49.056192 
L 254.016 49.056192 
L 259.968 49.056192 
L 265.92 49.056192 
L 271.872 49.056192 
L 277.824 49.056192 
L 283.776 49.056192 
L 289.728 49.056192 
L 295.68 49.056192 
L 301.632 49.056192 
L 307.584 49.056192 
L 313.536 49.056192 
L 319.488 49.056192 
L 325.44 49.056192 
L 331.392 49.056192 
L 337.344 49.056192 
L 343.296 49.056192 
L 349.248 49.056192 
L 355.2 49.056192 
L 361.152 49.056192 
L 367.104 49.056192 
L 373.056 49.056192 
L 379.008 49.056192 
L 384.96 49.056192 
L 390.912 49.056192 
L 396.864 49.056192 
L 402.816 49.056192 
L 408.768 49.056192 
" clip-path="url(#pd4f00c9d21)" style="fill: none; stroke: #ff7f0e; stroke-opacity: 0.1; stroke-width: 1.5; stroke-linecap: square"/>
   </g>
   <g id="line2d_19">
    <path d="M 57.6 49.056192 
L 60.576 49.056192 
L 63.552 49.056192 
L 69.504 67.013208 
L 75.456 90.169387 
L 78.432 113.325566 
L 81.408 118.52473 
L 87.36 118.52473 
L 93.312 112.949683 
L 99.264 98.58407 
L 105.216 84.218458 
L 111.168 75.427891 
L 117.12 75.427891 
L 123.072 66.637325 
L 129.024 57.846758 
L 134.976 49.056192 
L 140.928 49.056192 
L 146.88 49.056192 
L 152.832 49.056192 
L 158.784 49.056192 
L 164.736 49.056192 
L 170.688 49.056192 
L 176.64 49.056192 
L 182.592 49.056192 
L 188.544 49.056192 
L 194.496 49.056192 
L 200.448 49.056192 
L 206.4 49.056192 
L 212.352 49.056192 
L 218.304 49.056192 
L 224.256 49.056192 
L 230.208 49.056192 
L 236.16 49.056192 
L 242.112 49.056192 
L 248.064 49.056192 
L 254.016 49.056192 
L 259.968 49.056192 
L 265.92 49.056192 
L 271.872 49.056192 
L 277.824 49.056192 
L 283.776 49.056192 
L 289.728 49.056192 
L 295.68 49.056192 
L 301.632 49.056192 
L 307.584 49.056192 
L 313.536 49.056192 
L 319.488 49.056192 
L 325.44 49.056192 
L 331.392 49.056192 
L 337.344 49.056192 
L 343.296 49.056192 
L 349.248 49.056192 
L 355.2 49.056192 
L 361.152 49.056192 
L 367.104 49.056192 
L 373.056 49.056192 
L 379.008 49.056192 
L 384.96 49.056192 
L 390.912 49.056192 
L 396.864 49.056192 
L 402.816 49.056192 
L 408.768 49.056192 
" clip-path="url(#pd4f00c9d21)" style="fill: none; stroke: #2ca02c; stroke-opacity: 0.1; stroke-width: 1.5; stroke-linecap: square"/>
   </g>
   <g id="line2d_20">
    <path d="M 57.6 49.056192 
L 60.576 49.056192 
L 63.552 49.056192 
L 69.504 49.056192 
L 75.456 57.846758 
L 78.432 66.637325 
L 81.408 75.427891 
L 87.36 75.427891 
L 93.312 75.427891 
L 99.264 66.637325 
L 105.216 57.846758 
L 111.168 49.056192 
L 117.12 49.056192 
L 123.072 49.056192 
L 129.024 49.056192 
L 134.976 49.056192 
L 140.928 49.056192 
L 146.88 49.056192 
L 152.832 49.056192 
L 158.784 49.056192 
L 164.736 49.056192 
L 170.688 49.056192 
L 176.64 49.056192 
L 182.592 49.056192 
L 188.544 49.056192 
L 194.496 49.056192 
L 200.448 49.056192 
L 206.4 49.056192 
L 212.352 49.056192 
L 218.304 49.056192 
L 224.256 49.056192 
L 230.208 49.056192 
L 236.16 49.056192 
L 242.112 49.056192 
L 248.064 49.056192 
L 254.016 49.056192 
L 259.968 49.056192 
L 265.92 49.056192 
L 271.872 49.056192 
L 277.824 49.056192 
L 283.776 49.056192 
L 289.728 49.056192 
L 295.68 49.056192 
L 301.632 49.056192 
L 307.584 49.056192 
L 313.536 49.056192 
L 319.488 49.056192 
L 325.44 49.056192 
L 331.392 49.056192 
L 337.344 49.056192 
L 343.296 49.056192 
L 349.248 49.056192 
L 355.2 49.056192 
L 361.152 49.056192 
L 367.104 49.056192 
L 373.056 49.056192 
L 379.008 49.056192 
L 384.96 49.056192 
L 390.912 49.056192 
L 396.864 49.056192 
L 402.816 49.056192 
L 408.768 49.056192 
" clip-path="url(#pd4f00c9d21)" style="fill: none; stroke: #d62728; stroke-opacity: 0.1; stroke-width: 1.5; stroke-linecap: square"/>
   </g>
   <g id="line2d_21">
    <path d="M 57.6 264.540384 
L 60.576 243.63396 
L 63.552 232.01928 
L 69.504 200.124648 
L 75.456 174.180946 
L 78.432 138.517502 
L 81.408 107.374637 
L 87.36 75.427891 
L 93.312 57.846758 
L 99.264 49.056192 
L 105.216 49.056192 
L 111.168 49.056192 
L 117.12 49.056192 
L 123.072 49.056192 
L 129.024 49.056192 
L 134.976 49.056192 
L 140.928 49.056192 
L 146.88 49.056192 
L 152.832 49.056192 
L 158.784 49.056192 
L 164.736 49.056192 
L 170.688 49.056192 
L 176.64 49.056192 
L 182.592 49.056192 
L 188.544 49.056192 
L 194.496 49.056192 
L 200.448 49.056192 
L 206.4 49.056192 
L 212.352 49.056192 
L 218.304 49.056192 
L 224.256 49.056192 
L 230.208 49.056192 
L 236.16 49.056192 
L 242.112 49.056192 
L 248.064 49.056192 
L 254.016 49.056192 
L 259.968 49.056192 
L 265.92 49.056192 
L 271.872 49.056192 
L 277.824 49.056192 
L 283.776 49.056192 
L 289.728 49.056192 
L 295.68 49.056192 
L 301.632 49.056192 
L 307.584 49.056192 
L 313.536 49.056192 
L 319.488 49.056192 
L 325.44 49.056192 
L 331.392 49.056192 
L 337.344 49.056192 
L 343.296 49.056192 
L 349.248 49.056192 
L 355.2 49.056192 
L 361.152 49.056192 
L 367.104 49.056192 
L 373.056 49.056192 
L 379.008 49.056192 
L 384.96 49.056192 
L 390.912 49.056192 
L 396.864 49.056192 
L 402.816 49.056192 
L 408.768 49.056192 
" clip-path="url(#pd4f00c9d21)" style="fill: none; stroke: #9467bd; stroke-opacity: 0.1; stroke-width: 1.5; stroke-linecap: square"/>
   </g>
   <g id="line2d_22">
    <path d="M 57.6 49.056192 
L 60.576 49.056192 
L 63.552 69.702048 
L 69.504 96.174648 
L 75.456 126.143294 
L 78.432 135.466085 
L 81.408 138.962131 
L 87.36 135.365184 
L 93.312 131.768237 
L 99.264 119.380723 
L 105.216 110.590157 
L 111.168 101.79959 
L 117.12 93.009024 
L 123.072 75.427891 
L 129.024 57.846758 
L 134.976 49.056192 
L 140.928 49.056192 
L 146.88 49.056192 
L 152.832 49.056192 
L 158.784 49.056192 
L 164.736 49.056192 
L 170.688 49.056192 
L 176.64 49.056192 
L 182.592 49.056192 
L 188.544 49.056192 
L 194.496 49.056192 
L 200.448 49.056192 
L 206.4 49.056192 
L 212.352 49.056192 
L 218.304 49.056192 
L 224.256 49.056192 
L 230.208 49.056192 
L 236.16 49.056192 
L 242.112 49.056192 
L 248.064 49.056192 
L 254.016 49.056192 
L 259.968 49.056192 
L 265.92 49.056192 
L 271.872 49.056192 
L 277.824 49.056192 
L 283.776 49.056192 
L 289.728 49.056192 
L 295.68 49.056192 
L 301.632 49.056192 
L 307.584 49.056192 
L 313.536 49.056192 
L 319.488 49.056192 
L 325.44 49.056192 
L 331.392 49.056192 
L 337.344 49.056192 
L 343.296 49.056192 
L 349.248 49.056192 
L 355.2 49.056192 
L 361.152 49.056192 
L 367.104 49.056192 
L 373.056 49.056192 
L 379.008 49.056192 
L 384.96 49.056192 
L 390.912 49.056192 
L 396.864 49.056192 
L 402.816 49.056192 
L 408.768 49.056192 
" clip-path="url(#pd4f00c9d21)" style="fill: none; stroke: #8c564b; stroke-opacity: 0.1; stroke-width: 1.5; stroke-linecap: square"/>
   </g>
   <g id="line2d_23">
    <path d="M 57.6 264.540384 
L 60.576 210.669336 
L 63.552 180.740976 
L 69.504 126.869928 
L 75.456 114.112075 
L 78.432 98.959954 
L 81.408 89.793504 
L 87.36 75.427891 
L 93.312 75.427891 
L 99.264 66.637325 
L 105.216 57.846758 
L 111.168 49.056192 
L 117.12 49.056192 
L 123.072 49.056192 
L 129.024 49.056192 
L 134.976 49.056192 
L 140.928 49.056192 
L 146.88 49.056192 
L 152.832 49.056192 
L 158.784 49.056192 
L 164.736 49.056192 
L 170.688 49.056192 
L 176.64 49.056192 
L 182.592 49.056192 
L 188.544 49.056192 
L 194.496 49.056192 
L 200.448 49.056192 
L 206.4 49.056192 
L 212.352 49.056192 
L 218.304 49.056192 
L 224.256 49.056192 
L 230.208 49.056192 
L 236.16 49.056192 
L 242.112 49.056192 
L 248.064 49.056192 
L 254.016 49.056192 
L 259.968 49.056192 
L 265.92 49.056192 
L 271.872 49.056192 
L 277.824 49.056192 
L 283.776 49.056192 
L 289.728 49.056192 
L 295.68 49.056192 
L 301.632 49.056192 
L 307.584 49.056192 
L 313.536 49.056192 
L 319.488 49.056192 
L 325.44 49.056192 
L 331.392 49.056192 
L 337.344 49.056192 
L 343.296 49.056192 
L 349.248 49.056192 
L 355.2 49.056192 
L 361.152 49.056192 
L 367.104 49.056192 
L 373.056 49.056192 
L 379.008 49.056192 
L 384.96 49.056192 
L 390.912 49.056192 
L 396.864 49.056192 
L 402.816 49.056192 
L 408.768 49.056192 
" clip-path="url(#pd4f00c9d21)" style="fill: none; stroke: #e377c2; stroke-opacity: 0.1; stroke-width: 1.5; stroke-linecap: square"/>
   </g>
   <g id="line2d_24">
    <path d="M 57.6 49.056192 
L 60.576 49.056192 
L 63.552 63.707136 
L 69.504 74.695344 
L 75.456 83.48591 
L 78.432 77.625533 
L 81.408 75.427891 
L 87.36 66.637325 
L 93.312 57.846758 
L 99.264 49.056192 
L 105.216 49.056192 
L 111.168 49.056192 
L 117.12 49.056192 
L 123.072 49.056192 
L 129.024 49.056192 
L 134.976 49.056192 
L 140.928 49.056192 
L 146.88 49.056192 
L 152.832 49.056192 
L 158.784 49.056192 
L 164.736 49.056192 
L 170.688 49.056192 
L 176.64 49.056192 
L 182.592 49.056192 
L 188.544 49.056192 
L 194.496 49.056192 
L 200.448 49.056192 
L 206.4 49.056192 
L 212.352 49.056192 
L 218.304 49.056192 
L 224.256 49.056192 
L 230.208 49.056192 
L 236.16 49.056192 
L 242.112 49.056192 
L 248.064 49.056192 
L 254.016 49.056192 
L 259.968 49.056192 
L 265.92 49.056192 
L 271.872 49.056192 
L 277.824 49.056192 
L 283.776 49.056192 
L 289.728 49.056192 
L 295.68 49.056192 
L 301.632 49.056192 
L 307.584 49.056192 
L 313.536 49.056192 
L 319.488 49.056192 
L 325.44 49.056192 
L 331.392 49.056192 
L 337.344 49.056192 
L 343.296 49.056192 
L 349.248 49.056192 
L 355.2 49.056192 
L 361.152 49.056192 
L 367.104 49.056192 
L 373.056 49.056192 
L 379.008 49.056192 
L 384.96 49.056192 
L 390.912 49.056192 
L 396.864 49.056192 
L 402.816 49.056192 
L 408.768 49.056192 
" clip-path="url(#pd4f00c9d21)" style="fill: none; stroke: #7f7f7f; stroke-opacity: 0.1; stroke-width: 1.5; stroke-linecap: square"/>
   </g>
   <g id="line2d_25">
    <path d="M 57.6 49.056192 
L 60.576 49.056192 
L 63.552 49.056192 
L 69.504 49.056192 
L 75.456 49.056192 
L 78.432 49.056192 
L 81.408 49.056192 
L 87.36 49.056192 
L 93.312 49.056192 
L 99.264 49.056192 
L 105.216 49.056192 
L 111.168 49.056192 
L 117.12 49.056192 
L 123.072 49.056192 
L 129.024 49.056192 
L 134.976 49.056192 
L 140.928 49.056192 
L 146.88 49.056192 
L 152.832 49.056192 
L 158.784 49.056192 
L 164.736 49.056192 
L 170.688 49.056192 
L 176.64 49.056192 
L 182.592 49.056192 
L 188.544 49.056192 
L 194.496 49.056192 
L 200.448 49.056192 
L 206.4 49.056192 
L 212.352 49.056192 
L 218.304 49.056192 
L 224.256 49.056192 
L 230.208 49.056192 
L 236.16 49.056192 
L 242.112 49.056192 
L 248.064 49.056192 
L 254.016 49.056192 
L 259.968 49.056192 
L 265.92 49.056192 
L 271.872 49.056192 
L 277.824 49.056192 
L 283.776 49.056192 
L 289.728 49.056192 
L 295.68 49.056192 
L 301.632 49.056192 
L 307.584 49.056192 
L 313.536 49.056192 
L 319.488 49.056192 
L 325.44 49.056192 
L 331.392 49.056192 
L 337.344 49.056192 
L 343.296 49.056192 
L 349.248 49.056192 
L 355.2 49.056192 
L 361.152 49.056192 
L 367.104 49.056192 
L 373.056 49.056192 
L 379.008 49.056192 
L 384.96 49.056192 
L 390.912 49.056192 
L 396.864 49.056192 
L 402.816 49.056192 
L 408.768 49.056192 
" clip-path="url(#pd4f00c9d21)" style="fill: none; stroke: #bcbd22; stroke-opacity: 0.1; stroke-width: 1.5; stroke-linecap: square"/>
   </g>
   <g id="line2d_26">
    <path d="M 57.6 234.868896 
L 60.576 188.41572 
L 63.552 162.6084 
L 69.504 116.155224 
L 75.456 97.573954 
L 78.432 76.928098 
L 81.408 61.443706 
L 87.36 49.056192 
L 93.312 49.056192 
L 99.264 49.056192 
L 105.216 49.056192 
L 111.168 49.056192 
L 117.12 49.056192 
L 123.072 49.056192 
L 129.024 49.056192 
L 134.976 49.056192 
L 140.928 49.056192 
L 146.88 49.056192 
L 152.832 49.056192 
L 158.784 49.056192 
L 164.736 49.056192 
L 170.688 49.056192 
L 176.64 49.056192 
L 182.592 49.056192 
L 188.544 49.056192 
L 194.496 49.056192 
L 200.448 49.056192 
L 206.4 49.056192 
L 212.352 49.056192 
L 218.304 49.056192 
L 224.256 49.056192 
L 230.208 49.056192 
L 236.16 49.056192 
L 242.112 49.056192 
L 248.064 49.056192 
L 254.016 49.056192 
L 259.968 49.056192 
L 265.92 49.056192 
L 271.872 49.056192 
L 277.824 49.056192 
L 283.776 49.056192 
L 289.728 49.056192 
L 295.68 49.056192 
L 301.632 49.056192 
L 307.584 49.056192 
L 313.536 49.056192 
L 319.488 49.056192 
L 325.44 49.056192 
L 331.392 49.056192 
L 337.344 49.056192 
L 343.296 49.056192 
L 349.248 49.056192 
L 355.2 49.056192 
L 361.152 49.056192 
L 367.104 49.056192 
L 373.056 49.056192 
L 379.008 49.056192 
L 384.96 49.056192 
L 390.912 49.056192 
L 396.864 49.056192 
L 402.816 49.056192 
L 408.768 49.056192 
" clip-path="url(#pd4f00c9d21)" style="fill: none; stroke: #17becf; stroke-opacity: 0.1; stroke-width: 1.5; stroke-linecap: square"/>
   </g>
   <g id="line2d_27">
    <path d="M 57.6 264.540384 
L 60.576 210.669336 
L 63.552 180.740976 
L 69.504 126.869928 
L 75.456 105.321509 
L 78.432 81.378821 
L 81.408 63.421805 
L 87.36 49.056192 
L 93.312 49.056192 
L 99.264 49.056192 
L 105.216 49.056192 
L 111.168 49.056192 
L 117.12 49.056192 
L 123.072 49.056192 
L 129.024 49.056192 
L 134.976 49.056192 
L 140.928 49.056192 
L 146.88 49.056192 
L 152.832 49.056192 
L 158.784 49.056192 
L 164.736 49.056192 
L 170.688 49.056192 
L 176.64 49.056192 
L 182.592 49.056192 
L 188.544 49.056192 
L 194.496 49.056192 
L 200.448 49.056192 
L 206.4 49.056192 
L 212.352 49.056192 
L 218.304 49.056192 
L 224.256 49.056192 
L 230.208 49.056192 
L 236.16 49.056192 
L 242.112 49.056192 
L 248.064 49.056192 
L 254.016 49.056192 
L 259.968 49.056192 
L 265.92 49.056192 
L 271.872 49.056192 
L 277.824 49.056192 
L 283.776 49.056192 
L 289.728 49.056192 
L 295.68 49.056192 
L 301.632 49.056192 
L 307.584 49.056192 
L 313.536 49.056192 
L 319.488 49.056192 
L 325.44 49.056192 
L 331.392 49.056192 
L 337.344 49.056192 
L 343.296 49.056192 
L 349.248 49.056192 
L 355.2 49.056192 
L 361.152 49.056192 
L 367.104 49.056192 
L 373.056 49.056192 
L 379.008 49.056192 
L 384.96 49.056192 
L 390.912 49.056192 
L 396.864 49.056192 
L 402.816 49.056192 
L 408.768 49.056192 
" clip-path="url(#pd4f00c9d21)" style="fill: none; stroke: #1f77b4; stroke-opacity: 0.1; stroke-width: 1.5; stroke-linecap: square"/>
   </g>
   <g id="line2d_28">
    <path d="M 57.6 49.056192 
L 60.576 49.056192 
L 63.552 49.056192 
L 69.504 49.056192 
L 75.456 49.056192 
L 78.432 49.056192 
L 81.408 49.056192 
L 87.36 49.056192 
L 93.312 49.056192 
L 99.264 49.056192 
L 105.216 49.056192 
L 111.168 49.056192 
L 117.12 49.056192 
L 123.072 49.056192 
L 129.024 49.056192 
L 134.976 49.056192 
L 140.928 49.056192 
L 146.88 49.056192 
L 152.832 49.056192 
L 158.784 49.056192 
L 164.736 49.056192 
L 170.688 49.056192 
L 176.64 49.056192 
L 182.592 49.056192 
L 188.544 49.056192 
L 194.496 49.056192 
L 200.448 49.056192 
L 206.4 49.056192 
L 212.352 49.056192 
L 218.304 49.056192 
L 224.256 49.056192 
L 230.208 49.056192 
L 236.16 49.056192 
L 242.112 49.056192 
L 248.064 49.056192 
L 254.016 49.056192 
L 259.968 49.056192 
L 265.92 49.056192 
L 271.872 49.056192 
L 277.824 49.056192 
L 283.776 49.056192 
L 289.728 49.056192 
L 295.68 49.056192 
L 301.632 49.056192 
L 307.584 49.056192 
L 313.536 49.056192 
L 319.488 49.056192 
L 325.44 49.056192 
L 331.392 49.056192 
L 337.344 49.056192 
L 343.296 49.056192 
L 349.248 49.056192 
L 355.2 49.056192 
L 361.152 49.056192 
L 367.104 49.056192 
L 373.056 49.056192 
L 379.008 49.056192 
L 384.96 49.056192 
L 390.912 49.056192 
L 396.864 49.056192 
L 402.816 49.056192 
L 408.768 49.056192 
" clip-path="url(#pd4f00c9d21)" style="fill: none; stroke: #ffa500; stroke-opacity: 0.6; stroke-width: 1.5; stroke-linecap: square"/>
   </g>
   <g id="line2d_29">
    <path d="M 57.6 298.137024 
L 60.576 268.83144 
L 63.552 252.55056 
L 69.504 223.244976 
L 75.456 211.522742 
L 78.432 189.707472 
L 81.408 162.357811 
L 87.36 135.365184 
L 93.312 131.768237 
L 99.264 119.380723 
L 105.216 110.590157 
L 111.168 101.79959 
L 117.12 93.009024 
L 123.072 75.427891 
L 129.024 57.846758 
L 134.976 49.056192 
L 140.928 49.056192 
L 146.88 49.056192 
L 152.832 49.056192 
L 158.784 49.056192 
L 164.736 49.056192 
L 170.688 49.056192 
L 176.64 49.056192 
L 182.592 49.056192 
L 188.544 49.056192 
L 194.496 49.056192 
L 200.448 49.056192 
L 206.4 49.056192 
L 212.352 49.056192 
L 218.304 49.056192 
L 224.256 49.056192 
L 230.208 49.056192 
L 236.16 49.056192 
L 242.112 49.056192 
L 248.064 49.056192 
L 254.016 49.056192 
L 259.968 49.056192 
L 265.92 49.056192 
L 271.872 49.056192 
L 277.824 49.056192 
L 283.776 49.056192 
L 289.728 49.056192 
L 295.68 49.056192 
L 301.632 49.056192 
L 307.584 49.056192 
L 313.536 49.056192 
L 319.488 49.056192 
L 325.44 49.056192 
L 331.392 49.056192 
L 337.344 49.056192 
L 343.296 49.056192 
L 349.248 49.056192 
L 355.2 49.056192 
L 361.152 49.056192 
L 367.104 49.056192 
L 373.056 49.056192 
L 379.008 49.056192 
L 384.96 49.056192 
L 390.912 49.056192 
L 396.864 49.056192 
L 402.816 49.056192 
L 408.768 49.056192 
" clip-path="url(#pd4f00c9d21)" style="fill: none; stroke: #00ffff; stroke-opacity: 0.6; stroke-width: 1.5; stroke-linecap: square"/>
   </g>
   <g id="line2d_30">
    <path d="M 57.6 166.949856 
L 60.576 143.470008 
L 63.552 133.634448 
L 69.504 114.193656 
L 75.456 110.430389 
L 78.432 101.61563 
L 81.408 93.780346 
L 87.36 83.196346 
L 93.312 78.366816 
L 99.264 70.340717 
L 105.216 64.239898 
L 111.168 58.645901 
L 117.12 56.248474 
L 123.072 53.051904 
L 129.024 50.654477 
L 134.976 49.056192 
L 140.928 49.056192 
L 146.88 49.056192 
L 152.832 49.056192 
L 158.784 49.056192 
L 164.736 49.056192 
L 170.688 49.056192 
L 176.64 49.056192 
L 182.592 49.056192 
L 188.544 49.056192 
L 194.496 49.056192 
L 200.448 49.056192 
L 206.4 49.056192 
L 212.352 49.056192 
L 218.304 49.056192 
L 224.256 49.056192 
L 230.208 49.056192 
L 236.16 49.056192 
L 242.112 49.056192 
L 248.064 49.056192 
L 254.016 49.056192 
L 259.968 49.056192 
L 265.92 49.056192 
L 271.872 49.056192 
L 277.824 49.056192 
L 283.776 49.056192 
L 289.728 49.056192 
L 295.68 49.056192 
L 301.632 49.056192 
L 307.584 49.056192 
L 313.536 49.056192 
L 319.488 49.056192 
L 325.44 49.056192 
L 331.392 49.056192 
L 337.344 49.056192 
L 343.296 49.056192 
L 349.248 49.056192 
L 355.2 49.056192 
L 361.152 49.056192 
L 367.104 49.056192 
L 373.056 49.056192 
L 379.008 49.056192 
L 384.96 49.056192 
L 390.912 49.056192 
L 396.864 49.056192 
L 402.816 49.056192 
L 408.768 49.056192 
" clip-path="url(#pd4f00c9d21)" style="fill: none; stroke: #ff0000; stroke-width: 2; stroke-linecap: square"/>
   </g>
   <g id="patch_3">
    <path d="M 57.6 307.584 
L 57.6 41.472 
" style="fill: none; stroke: #000000; stroke-width: 0.8; stroke-linejoin: miter; stroke-linecap: square"/>
   </g>
   <g id="patch_4">
    <path d="M 414.72 307.584 
L 414.72 41.472 
" style="fill: none; stroke: #000000; stroke-width: 0.8; stroke-linejoin: miter; stroke-linecap: square"/>
   </g>
   <g id="patch_5">
    <path d="M 57.6 307.584 
L 414.72 307.584 
" style="fill: none; stroke: #000000; stroke-width: 0.8; stroke-linejoin: miter; stroke-linecap: square"/>
   </g>
   <g id="patch_6">
    <path d="M 57.6 41.472 
L 414.72 41.472 
" style="fill: none; stroke: #000000; stroke-width: 0.8; stroke-linejoin: miter; stroke-linecap: square"/>
   </g>
   <g id="text_19">
    <!-- withtcp -->
    <g transform="translate(213.97125 35.472) scale(0.12 -0.12)">
     <defs>
      <path id="DejaVuSans-77" d="M 269 3500 
L 844 3500 
L 1563 769 
L 2278 3500 
L 2956 3500 
L 3675 769 
L 4391 3500 
L 4966 3500 
L 4050 0 
L 3372 0 
L 2619 2869 
L 1863 0 
L 1184 0 
L 269 3500 
z
" transform="scale(0.015625)"/>
      <path id="DejaVuSans-68" d="M 3513 2113 
L 3513 0 
L 2938 0 
L 2938 2094 
Q 2938 2591 2744 2837 
Q 2550 3084 2163 3084 
Q 1697 3084 1428 2787 
Q 1159 2491 1159 1978 
L 1159 0 
L 581 0 
L 581 4863 
L 1159 4863 
L 1159 2956 
Q 1366 3272 1645 3428 
Q 1925 3584 2291 3584 
Q 2894 3584 3203 3211 
Q 3513 2838 3513 2113 
z
" transform="scale(0.015625)"/>
      <path id="DejaVuSans-63" d="M 3122 3366 
L 3122 2828 
Q 2878 2963 2633 3030 
Q 2388 3097 2138 3097 
Q 1578 3097 1268 2742 
Q 959 2388 959 1747 
Q 959 1106 1268 751 
Q 1578 397 2138 397 
Q 2388 397 2633 464 
Q 2878 531 3122 666 
L 3122 134 
Q 2881 22 2623 -34 
Q 2366 -91 2075 -91 
Q 1284 -91 818 406 
Q 353 903 353 1747 
Q 353 2603 823 3093 
Q 1294 3584 2113 3584 
Q 2378 3584 2631 3529 
Q 2884 3475 3122 3366 
z
" transform="scale(0.015625)"/>
     </defs>
     <use xlink:href="#DejaVuSans-77"/>
     <use xlink:href="#DejaVuSans-69" x="81.787109"/>
     <use xlink:href="#DejaVuSans-74" x="109.570312"/>
     <use xlink:href="#DejaVuSans-68" x="148.779297"/>
     <use xlink:href="#DejaVuSans-74" x="212.158203"/>
     <use xlink:href="#DejaVuSans-63" x="251.367188"/>
     <use xlink:href="#DejaVuSans-70" x="306.347656"/>
    </g>
   </g>
   <g id="legend_1">
    <g id="patch_7">
     <path d="M 310.259063 302.584 
L 407.72 302.584 
Q 409.72 302.584 409.72 300.584 
L 409.72 257.549625 
Q 409.72 255.549625 407.72 255.549625 
L 310.259063 255.549625 
Q 308.259063 255.549625 308.259063 257.549625 
L 308.259063 300.584 
Q 308.259063 302.584 310.259063 302.584 
z
" style="fill: #ffffff; opacity: 0.8; stroke: #cccccc; stroke-linejoin: miter"/>
    </g>
    <g id="line2d_31">
     <path d="M 312.259063 263.648062 
L 322.259063 263.648062 
L 332.259063 263.648062 
" style="fill: none; stroke: #ffa500; stroke-width: 1.5; stroke-linecap: square"/>
    </g>
    <g id="text_20">
     <!-- Upper Bound -->
     <g transform="translate(340.259063 267.148062) scale(0.1 -0.1)">
      <defs>
       <path id="DejaVuSans-55" d="M 556 4666 
L 1191 4666 
L 1191 1831 
Q 1191 1081 1462 751 
Q 1734 422 2344 422 
Q 2950 422 3222 751 
Q 3494 1081 3494 1831 
L 3494 4666 
L 4128 4666 
L 4128 1753 
Q 4128 841 3676 375 
Q 3225 -91 2344 -91 
Q 1459 -91 1007 375 
Q 556 841 556 1753 
L 556 4666 
z
" transform="scale(0.015625)"/>
       <path id="DejaVuSans-20" transform="scale(0.015625)"/>
       <path id="DejaVuSans-42" d="M 1259 2228 
L 1259 519 
L 2272 519 
Q 2781 519 3026 730 
Q 3272 941 3272 1375 
Q 3272 1813 3026 2020 
Q 2781 2228 2272 2228 
L 1259 2228 
z
M 1259 4147 
L 1259 2741 
L 2194 2741 
Q 2656 2741 2882 2914 
Q 3109 3088 3109 3444 
Q 3109 3797 2882 3972 
Q 2656 4147 2194 4147 
L 1259 4147 
z
M 628 4666 
L 2241 4666 
Q 2963 4666 3353 4366 
Q 3744 4066 3744 3513 
Q 3744 3084 3544 2831 
Q 3344 2578 2956 2516 
Q 3422 2416 3680 2098 
Q 3938 1781 3938 1306 
Q 3938 681 3513 340 
Q 3088 0 2303 0 
L 628 0 
L 628 4666 
z
" transform="scale(0.015625)"/>
       <path id="DejaVuSans-6f" d="M 1959 3097 
Q 1497 3097 1228 2736 
Q 959 2375 959 1747 
Q 959 1119 1226 758 
Q 1494 397 1959 397 
Q 2419 397 2687 759 
Q 2956 1122 2956 1747 
Q 2956 2369 2687 2733 
Q 2419 3097 1959 3097 
z
M 1959 3584 
Q 2709 3584 3137 3096 
Q 3566 2609 3566 1747 
Q 3566 888 3137 398 
Q 2709 -91 1959 -91 
Q 1206 -91 779 398 
Q 353 888 353 1747 
Q 353 2609 779 3096 
Q 1206 3584 1959 3584 
z
" transform="scale(0.015625)"/>
       <path id="DejaVuSans-75" d="M 544 1381 
L 544 3500 
L 1119 3500 
L 1119 1403 
Q 1119 906 1312 657 
Q 1506 409 1894 409 
Q 2359 409 2629 706 
Q 2900 1003 2900 1516 
L 2900 3500 
L 3475 3500 
L 3475 0 
L 2900 0 
L 2900 538 
Q 2691 219 2414 64 
Q 2138 -91 1772 -91 
Q 1169 -91 856 284 
Q 544 659 544 1381 
z
M 1991 3584 
L 1991 3584 
z
" transform="scale(0.015625)"/>
       <path id="DejaVuSans-6e" d="M 3513 2113 
L 3513 0 
L 2938 0 
L 2938 2094 
Q 2938 2591 2744 2837 
Q 2550 3084 2163 3084 
Q 1697 3084 1428 2787 
Q 1159 2491 1159 1978 
L 1159 0 
L 581 0 
L 581 3500 
L 1159 3500 
L 1159 2956 
Q 1366 3272 1645 3428 
Q 1925 3584 2291 3584 
Q 2894 3584 3203 3211 
Q 3513 2838 3513 2113 
z
" transform="scale(0.015625)"/>
       <path id="DejaVuSans-64" d="M 2906 2969 
L 2906 4863 
L 3481 4863 
L 3481 0 
L 2906 0 
L 2906 525 
Q 2725 213 2448 61 
Q 2172 -91 1784 -91 
Q 1150 -91 751 415 
Q 353 922 353 1747 
Q 353 2572 751 3078 
Q 1150 3584 1784 3584 
Q 2172 3584 2448 3432 
Q 2725 3281 2906 2969 
z
M 947 1747 
Q 947 1113 1208 752 
Q 1469 391 1925 391 
Q 2381 391 2643 752 
Q 2906 1113 2906 1747 
Q 2906 2381 2643 2742 
Q 2381 3103 1925 3103 
Q 1469 3103 1208 2742 
Q 947 2381 947 1747 
z
" transform="scale(0.015625)"/>
      </defs>
      <use xlink:href="#DejaVuSans-55"/>
      <use xlink:href="#DejaVuSans-70" x="73.193359"/>
      <use xlink:href="#DejaVuSans-70" x="136.669922"/>
      <use xlink:href="#DejaVuSans-65" x="200.146484"/>
      <use xlink:href="#DejaVuSans-72" x="261.669922"/>
      <use xlink:href="#DejaVuSans-20" x="302.783203"/>
      <use xlink:href="#DejaVuSans-42" x="334.570312"/>
      <use xlink:href="#DejaVuSans-6f" x="403.173828"/>
      <use xlink:href="#DejaVuSans-75" x="464.355469"/>
      <use xlink:href="#DejaVuSans-6e" x="527.734375"/>
      <use xlink:href="#DejaVuSans-64" x="591.113281"/>
     </g>
    </g>
    <g id="line2d_32">
     <path d="M 312.259063 278.326188 
L 322.259063 278.326188 
L 332.259063 278.326188 
" style="fill: none; stroke: #00ffff; stroke-width: 1.5; stroke-linecap: square"/>
    </g>
    <g id="text_21">
     <!-- Lower Bound -->
     <g transform="translate(340.259063 281.826188) scale(0.1 -0.1)">
      <defs>
       <path id="DejaVuSans-4c" d="M 628 4666 
L 1259 4666 
L 1259 531 
L 3531 531 
L 3531 0 
L 628 0 
L 628 4666 
z
" transform="scale(0.015625)"/>
      </defs>
      <use xlink:href="#DejaVuSans-4c"/>
      <use xlink:href="#DejaVuSans-6f" x="53.962891"/>
      <use xlink:href="#DejaVuSans-77" x="115.144531"/>
      <use xlink:href="#DejaVuSans-65" x="196.931641"/>
      <use xlink:href="#DejaVuSans-72" x="258.455078"/>
      <use xlink:href="#DejaVuSans-20" x="299.568359"/>
      <use xlink:href="#DejaVuSans-42" x="331.355469"/>
      <use xlink:href="#DejaVuSans-6f" x="399.958984"/>
      <use xlink:href="#DejaVuSans-75" x="461.140625"/>
      <use xlink:href="#DejaVuSans-6e" x="524.519531"/>
      <use xlink:href="#DejaVuSans-64" x="587.898438"/>
     </g>
    </g>
    <g id="line2d_33">
     <path d="M 312.259063 293.004312 
L 322.259063 293.004312 
L 332.259063 293.004312 
" style="fill: none; stroke: #ff0000; stroke-width: 1.5; stroke-linecap: square"/>
    </g>
    <g id="text_22">
     <!-- Average -->
     <g transform="translate(340.259063 296.504312) scale(0.1 -0.1)">
      <defs>
       <path id="DejaVuSans-41" d="M 2188 4044 
L 1331 1722 
L 3047 1722 
L 2188 4044 
z
M 1831 4666 
L 2547 4666 
L 4325 0 
L 3669 0 
L 3244 1197 
L 1141 1197 
L 716 0 
L 50 0 
L 1831 4666 
z
" transform="scale(0.015625)"/>
       <path id="DejaVuSans-76" d="M 191 3500 
L 800 3500 
L 1894 563 
L 2988 3500 
L 3597 3500 
L 2284 0 
L 1503 0 
L 191 3500 
z
" transform="scale(0.015625)"/>
       <path id="DejaVuSans-67" d="M 2906 1791 
Q 2906 2416 2648 2759 
Q 2391 3103 1925 3103 
Q 1463 3103 1205 2759 
Q 947 2416 947 1791 
Q 947 1169 1205 825 
Q 1463 481 1925 481 
Q 2391 481 2648 825 
Q 2906 1169 2906 1791 
z
M 3481 434 
Q 3481 -459 3084 -895 
Q 2688 -1331 1869 -1331 
Q 1566 -1331 1297 -1286 
Q 1028 -1241 775 -1147 
L 775 -588 
Q 1028 -725 1275 -790 
Q 1522 -856 1778 -856 
Q 2344 -856 2625 -561 
Q 2906 -266 2906 331 
L 2906 616 
Q 2728 306 2450 153 
Q 2172 0 1784 0 
Q 1141 0 747 490 
Q 353 981 353 1791 
Q 353 2603 747 3093 
Q 1141 3584 1784 3584 
Q 2172 3584 2450 3431 
Q 2728 3278 2906 2969 
L 2906 3500 
L 3481 3500 
L 3481 434 
z
" transform="scale(0.015625)"/>
      </defs>
      <use xlink:href="#DejaVuSans-41"/>
      <use xlink:href="#DejaVuSans-76" x="62.533203"/>
      <use xlink:href="#DejaVuSans-65" x="121.712891"/>
      <use xlink:href="#DejaVuSans-72" x="183.236328"/>
      <use xlink:href="#DejaVuSans-61" x="224.349609"/>
      <use xlink:href="#DejaVuSans-67" x="285.628906"/>
      <use xlink:href="#DejaVuSans-65" x="349.105469"/>
     </g>
    </g>
   </g>
  </g>
 </g>
 <defs>
  <clipPath id="pd4f00c9d21">
   <rect x="57.6" y="41.472" width="357.12" height="266.112"/>
  </clipPath>
 </defs>
</svg>
