<?xml version="1.0" encoding="utf-8" standalone="no"?>
<!DOCTYPE svg PUBLIC "-//W3C//DTD SVG 1.1//EN"
  "http://www.w3.org/Graphics/SVG/1.1/DTD/svg11.dtd">
<svg xmlns:xlink="http://www.w3.org/1999/xlink" width="460.8pt" height="345.6pt" viewBox="0 0 460.8 345.6" xmlns="http://www.w3.org/2000/svg" version="1.1">
 <metadata>
  <rdf:RDF xmlns:dc="http://purl.org/dc/elements/1.1/" xmlns:cc="http://creativecommons.org/ns#" xmlns:rdf="http://www.w3.org/1999/02/22-rdf-syntax-ns#">
   <cc:Work>
    <dc:type rdf:resource="http://purl.org/dc/dcmitype/StillImage"/>
    <dc:date>2024-04-10T23:52:43.623031</dc:date>
    <dc:format>image/svg+xml</dc:format>
    <dc:creator>
     <cc:Agent>
      <dc:title>Matplotlib v3.8.3, https://matplotlib.org/</dc:title>
     </cc:Agent>
    </dc:creator>
   </cc:Work>
  </rdf:RDF>
 </metadata>
 <defs>
  <style type="text/css">*{stroke-linejoin: round; stroke-linecap: butt}</style>
 </defs>
 <g id="figure_1">
  <g id="patch_1">
   <path d="M 0 345.6 
L 460.8 345.6 
L 460.8 0 
L 0 0 
z
" style="fill: #ffffff"/>
  </g>
  <g id="axes_1">
   <g id="patch_2">
    <path d="M 57.6 307.584 
L 414.72 307.584 
L 414.72 41.472 
L 57.6 41.472 
z
" style="fill: #ffffff"/>
   </g>
   <g id="PolyCollection_1">
    <defs>
     <path id="mdf7d002c34" d="M 57.6 -81.148954 
L 57.6 -38.016 
L 63.552 -44.205005 
L 69.504 -50.124518 
L 75.456 -61.89047 
L 81.408 -73.34089 
L 87.36 -88.661676 
L 93.312 -107.740892 
L 99.264 -130.58496 
L 105.216 -154.338877 
L 111.168 -178.219515 
L 117.12 -202.117386 
L 123.072 -223.979121 
L 129.024 -242.849756 
L 134.976 -255.716905 
L 140.928 -263.48332 
L 146.88 -263.715471 
L 152.832 -263.826478 
L 158.784 -263.936471 
L 164.736 -263.697224 
L 170.688 -264.079411 
L 176.64 -263.682524 
L 182.592 -264.242627 
L 188.544 -263.814313 
L 194.496 -264.217536 
L 200.448 -263.796572 
L 206.4 -264.351606 
L 212.352 -263.890852 
L 218.304 -264.158484 
L 224.256 -263.868549 
L 230.208 -264.287232 
L 236.16 -263.73676 
L 242.112 -264.143278 
L 248.064 -263.556311 
L 254.016 -264.119962 
L 259.968 -263.898455 
L 265.92 -264.303959 
L 271.872 -263.722568 
L 277.824 -264.083466 
L 283.776 -263.533501 
L 289.728 -263.988173 
L 295.68 -263.86348 
L 301.632 -264.017065 
L 307.584 -263.488896 
L 313.536 -264.022641 
L 319.488 -263.53857 
L 325.44 -264.077384 
L 331.392 -263.640453 
L 337.344 -263.670359 
L 343.296 -263.715471 
L 349.248 -263.663263 
L 355.2 -263.834588 
L 361.152 -264.118441 
L 367.104 -263.590272 
L 373.056 -263.747912 
L 379.008 -263.76768 
L 384.96 -263.654646 
L 390.912 -262.04885 
L 396.864 -261.46239 
L 402.816 -260.877957 
L 408.768 -260.298086 
L 408.768 -267.746688 
L 408.768 -267.746688 
L 402.816 -268.202373 
L 396.864 -268.650455 
L 390.912 -268.089846 
L 384.96 -267.628585 
L 379.008 -267.801431 
L 373.056 -268.205414 
L 367.104 -267.733509 
L 361.152 -267.687383 
L 355.2 -268.13952 
L 349.248 -268.60737 
L 343.296 -268.059433 
L 337.344 -268.000635 
L 331.392 -268.355451 
L 325.44 -268.345313 
L 319.488 -267.883039 
L 313.536 -267.682314 
L 307.584 -268.152699 
L 301.632 -267.668628 
L 295.68 -267.295058 
L 289.728 -267.805993 
L 283.776 -268.258637 
L 277.824 -269.085358 
L 271.872 -269.529892 
L 265.92 -269.12236 
L 259.968 -268.232279 
L 254.016 -267.716782 
L 248.064 -267.292017 
L 242.112 -267.82272 
L 236.16 -268.299694 
L 230.208 -267.768484 
L 224.256 -267.50592 
L 218.304 -267.84553 
L 212.352 -268.310339 
L 206.4 -269.393034 
L 200.448 -270.97602 
L 194.496 -271.569577 
L 188.544 -271.152922 
L 182.592 -269.735178 
L 176.64 -268.915046 
L 170.688 -268.515118 
L 164.736 -268.084777 
L 158.784 -267.662039 
L 152.832 -268.170947 
L 146.88 -269.419899 
L 140.928 -269.860884 
L 134.976 -267.522647 
L 129.024 -265.413012 
L 123.072 -258.639575 
L 117.12 -246.87337 
L 111.168 -229.043359 
L 105.216 -208.258237 
L 99.264 -184.386217 
L 93.312 -159.849677 
L 87.36 -138.850145 
L 81.408 -122.529792 
L 75.456 -109.807104 
L 69.504 -95.52576 
L 63.552 -88.74455 
L 57.6 -81.148954 
z
" style="stroke: #ff0000; stroke-opacity: 0.3"/>
    </defs>
    <g clip-path="url(#p0ef789561c)">
     <use xlink:href="#mdf7d002c34" x="0" y="345.6" style="fill: #ff0000; fill-opacity: 0.3; stroke: #ff0000; stroke-opacity: 0.3"/>
    </g>
   </g>
   <g id="matplotlib.axis_1">
    <g id="xtick_1">
     <g id="line2d_1">
      <defs>
       <path id="m33a02bc67e" d="M 0 0 
L 0 3.5 
" style="stroke: #000000; stroke-width: 0.8"/>
      </defs>
      <g>
       <use xlink:href="#m33a02bc67e" x="57.6" y="307.584" style="stroke: #000000; stroke-width: 0.8"/>
      </g>
     </g>
     <g id="text_1">
      <!-- 0 -->
      <g transform="translate(54.41875 322.182437) scale(0.1 -0.1)">
       <defs>
        <path id="DejaVuSans-30" d="M 2034 4250 
Q 1547 4250 1301 3770 
Q 1056 3291 1056 2328 
Q 1056 1369 1301 889 
Q 1547 409 2034 409 
Q 2525 409 2770 889 
Q 3016 1369 3016 2328 
Q 3016 3291 2770 3770 
Q 2525 4250 2034 4250 
z
M 2034 4750 
Q 2819 4750 3233 4129 
Q 3647 3509 3647 2328 
Q 3647 1150 3233 529 
Q 2819 -91 2034 -91 
Q 1250 -91 836 529 
Q 422 1150 422 2328 
Q 422 3509 836 4129 
Q 1250 4750 2034 4750 
z
" transform="scale(0.015625)"/>
       </defs>
       <use xlink:href="#DejaVuSans-30"/>
      </g>
     </g>
    </g>
    <g id="xtick_2">
     <g id="line2d_2">
      <g>
       <use xlink:href="#m33a02bc67e" x="117.12" y="307.584" style="stroke: #000000; stroke-width: 0.8"/>
      </g>
     </g>
     <g id="text_2">
      <!-- 10 -->
      <g transform="translate(110.7575 322.182437) scale(0.1 -0.1)">
       <defs>
        <path id="DejaVuSans-31" d="M 794 531 
L 1825 531 
L 1825 4091 
L 703 3866 
L 703 4441 
L 1819 4666 
L 2450 4666 
L 2450 531 
L 3481 531 
L 3481 0 
L 794 0 
L 794 531 
z
" transform="scale(0.015625)"/>
       </defs>
       <use xlink:href="#DejaVuSans-31"/>
       <use xlink:href="#DejaVuSans-30" x="63.623047"/>
      </g>
     </g>
    </g>
    <g id="xtick_3">
     <g id="line2d_3">
      <g>
       <use xlink:href="#m33a02bc67e" x="176.64" y="307.584" style="stroke: #000000; stroke-width: 0.8"/>
      </g>
     </g>
     <g id="text_3">
      <!-- 20 -->
      <g transform="translate(170.2775 322.182437) scale(0.1 -0.1)">
       <defs>
        <path id="DejaVuSans-32" d="M 1228 531 
L 3431 531 
L 3431 0 
L 469 0 
L 469 531 
Q 828 903 1448 1529 
Q 2069 2156 2228 2338 
Q 2531 2678 2651 2914 
Q 2772 3150 2772 3378 
Q 2772 3750 2511 3984 
Q 2250 4219 1831 4219 
Q 1534 4219 1204 4116 
Q 875 4013 500 3803 
L 500 4441 
Q 881 4594 1212 4672 
Q 1544 4750 1819 4750 
Q 2544 4750 2975 4387 
Q 3406 4025 3406 3419 
Q 3406 3131 3298 2873 
Q 3191 2616 2906 2266 
Q 2828 2175 2409 1742 
Q 1991 1309 1228 531 
z
" transform="scale(0.015625)"/>
       </defs>
       <use xlink:href="#DejaVuSans-32"/>
       <use xlink:href="#DejaVuSans-30" x="63.623047"/>
      </g>
     </g>
    </g>
    <g id="xtick_4">
     <g id="line2d_4">
      <g>
       <use xlink:href="#m33a02bc67e" x="236.16" y="307.584" style="stroke: #000000; stroke-width: 0.8"/>
      </g>
     </g>
     <g id="text_4">
      <!-- 30 -->
      <g transform="translate(229.7975 322.182437) scale(0.1 -0.1)">
       <defs>
        <path id="DejaVuSans-33" d="M 2597 2516 
Q 3050 2419 3304 2112 
Q 3559 1806 3559 1356 
Q 3559 666 3084 287 
Q 2609 -91 1734 -91 
Q 1441 -91 1130 -33 
Q 819 25 488 141 
L 488 750 
Q 750 597 1062 519 
Q 1375 441 1716 441 
Q 2309 441 2620 675 
Q 2931 909 2931 1356 
Q 2931 1769 2642 2001 
Q 2353 2234 1838 2234 
L 1294 2234 
L 1294 2753 
L 1863 2753 
Q 2328 2753 2575 2939 
Q 2822 3125 2822 3475 
Q 2822 3834 2567 4026 
Q 2313 4219 1838 4219 
Q 1578 4219 1281 4162 
Q 984 4106 628 3988 
L 628 4550 
Q 988 4650 1302 4700 
Q 1616 4750 1894 4750 
Q 2613 4750 3031 4423 
Q 3450 4097 3450 3541 
Q 3450 3153 3228 2886 
Q 3006 2619 2597 2516 
z
" transform="scale(0.015625)"/>
       </defs>
       <use xlink:href="#DejaVuSans-33"/>
       <use xlink:href="#DejaVuSans-30" x="63.623047"/>
      </g>
     </g>
    </g>
    <g id="xtick_5">
     <g id="line2d_5">
      <g>
       <use xlink:href="#m33a02bc67e" x="295.68" y="307.584" style="stroke: #000000; stroke-width: 0.8"/>
      </g>
     </g>
     <g id="text_5">
      <!-- 40 -->
      <g transform="translate(289.3175 322.182437) scale(0.1 -0.1)">
       <defs>
        <path id="DejaVuSans-34" d="M 2419 4116 
L 825 1625 
L 2419 1625 
L 2419 4116 
z
M 2253 4666 
L 3047 4666 
L 3047 1625 
L 3713 1625 
L 3713 1100 
L 3047 1100 
L 3047 0 
L 2419 0 
L 2419 1100 
L 313 1100 
L 313 1709 
L 2253 4666 
z
" transform="scale(0.015625)"/>
       </defs>
       <use xlink:href="#DejaVuSans-34"/>
       <use xlink:href="#DejaVuSans-30" x="63.623047"/>
      </g>
     </g>
    </g>
    <g id="xtick_6">
     <g id="line2d_6">
      <g>
       <use xlink:href="#m33a02bc67e" x="355.2" y="307.584" style="stroke: #000000; stroke-width: 0.8"/>
      </g>
     </g>
     <g id="text_6">
      <!-- 50 -->
      <g transform="translate(348.8375 322.182437) scale(0.1 -0.1)">
       <defs>
        <path id="DejaVuSans-35" d="M 691 4666 
L 3169 4666 
L 3169 4134 
L 1269 4134 
L 1269 2991 
Q 1406 3038 1543 3061 
Q 1681 3084 1819 3084 
Q 2600 3084 3056 2656 
Q 3513 2228 3513 1497 
Q 3513 744 3044 326 
Q 2575 -91 1722 -91 
Q 1428 -91 1123 -41 
Q 819 9 494 109 
L 494 744 
Q 775 591 1075 516 
Q 1375 441 1709 441 
Q 2250 441 2565 725 
Q 2881 1009 2881 1497 
Q 2881 1984 2565 2268 
Q 2250 2553 1709 2553 
Q 1456 2553 1204 2497 
Q 953 2441 691 2322 
L 691 4666 
z
" transform="scale(0.015625)"/>
       </defs>
       <use xlink:href="#DejaVuSans-35"/>
       <use xlink:href="#DejaVuSans-30" x="63.623047"/>
      </g>
     </g>
    </g>
    <g id="xtick_7">
     <g id="line2d_7">
      <g>
       <use xlink:href="#m33a02bc67e" x="414.72" y="307.584" style="stroke: #000000; stroke-width: 0.8"/>
      </g>
     </g>
     <g id="text_7">
      <!-- 60 -->
      <g transform="translate(408.3575 322.182437) scale(0.1 -0.1)">
       <defs>
        <path id="DejaVuSans-36" d="M 2113 2584 
Q 1688 2584 1439 2293 
Q 1191 2003 1191 1497 
Q 1191 994 1439 701 
Q 1688 409 2113 409 
Q 2538 409 2786 701 
Q 3034 994 3034 1497 
Q 3034 2003 2786 2293 
Q 2538 2584 2113 2584 
z
M 3366 4563 
L 3366 3988 
Q 3128 4100 2886 4159 
Q 2644 4219 2406 4219 
Q 1781 4219 1451 3797 
Q 1122 3375 1075 2522 
Q 1259 2794 1537 2939 
Q 1816 3084 2150 3084 
Q 2853 3084 3261 2657 
Q 3669 2231 3669 1497 
Q 3669 778 3244 343 
Q 2819 -91 2113 -91 
Q 1303 -91 875 529 
Q 447 1150 447 2328 
Q 447 3434 972 4092 
Q 1497 4750 2381 4750 
Q 2619 4750 2861 4703 
Q 3103 4656 3366 4563 
z
" transform="scale(0.015625)"/>
       </defs>
       <use xlink:href="#DejaVuSans-36"/>
       <use xlink:href="#DejaVuSans-30" x="63.623047"/>
      </g>
     </g>
    </g>
    <g id="text_8">
     <!-- Time(s) -->
     <g transform="translate(217.420156 335.860562) scale(0.1 -0.1)">
      <defs>
       <path id="DejaVuSans-54" d="M -19 4666 
L 3928 4666 
L 3928 4134 
L 2272 4134 
L 2272 0 
L 1638 0 
L 1638 4134 
L -19 4134 
L -19 4666 
z
" transform="scale(0.015625)"/>
       <path id="DejaVuSans-69" d="M 603 3500 
L 1178 3500 
L 1178 0 
L 603 0 
L 603 3500 
z
M 603 4863 
L 1178 4863 
L 1178 4134 
L 603 4134 
L 603 4863 
z
" transform="scale(0.015625)"/>
       <path id="DejaVuSans-6d" d="M 3328 2828 
Q 3544 3216 3844 3400 
Q 4144 3584 4550 3584 
Q 5097 3584 5394 3201 
Q 5691 2819 5691 2113 
L 5691 0 
L 5113 0 
L 5113 2094 
Q 5113 2597 4934 2840 
Q 4756 3084 4391 3084 
Q 3944 3084 3684 2787 
Q 3425 2491 3425 1978 
L 3425 0 
L 2847 0 
L 2847 2094 
Q 2847 2600 2669 2842 
Q 2491 3084 2119 3084 
Q 1678 3084 1418 2786 
Q 1159 2488 1159 1978 
L 1159 0 
L 581 0 
L 581 3500 
L 1159 3500 
L 1159 2956 
Q 1356 3278 1631 3431 
Q 1906 3584 2284 3584 
Q 2666 3584 2933 3390 
Q 3200 3197 3328 2828 
z
" transform="scale(0.015625)"/>
       <path id="DejaVuSans-65" d="M 3597 1894 
L 3597 1613 
L 953 1613 
Q 991 1019 1311 708 
Q 1631 397 2203 397 
Q 2534 397 2845 478 
Q 3156 559 3463 722 
L 3463 178 
Q 3153 47 2828 -22 
Q 2503 -91 2169 -91 
Q 1331 -91 842 396 
Q 353 884 353 1716 
Q 353 2575 817 3079 
Q 1281 3584 2069 3584 
Q 2775 3584 3186 3129 
Q 3597 2675 3597 1894 
z
M 3022 2063 
Q 3016 2534 2758 2815 
Q 2500 3097 2075 3097 
Q 1594 3097 1305 2825 
Q 1016 2553 972 2059 
L 3022 2063 
z
" transform="scale(0.015625)"/>
       <path id="DejaVuSans-28" d="M 1984 4856 
Q 1566 4138 1362 3434 
Q 1159 2731 1159 2009 
Q 1159 1288 1364 580 
Q 1569 -128 1984 -844 
L 1484 -844 
Q 1016 -109 783 600 
Q 550 1309 550 2009 
Q 550 2706 781 3412 
Q 1013 4119 1484 4856 
L 1984 4856 
z
" transform="scale(0.015625)"/>
       <path id="DejaVuSans-73" d="M 2834 3397 
L 2834 2853 
Q 2591 2978 2328 3040 
Q 2066 3103 1784 3103 
Q 1356 3103 1142 2972 
Q 928 2841 928 2578 
Q 928 2378 1081 2264 
Q 1234 2150 1697 2047 
L 1894 2003 
Q 2506 1872 2764 1633 
Q 3022 1394 3022 966 
Q 3022 478 2636 193 
Q 2250 -91 1575 -91 
Q 1294 -91 989 -36 
Q 684 19 347 128 
L 347 722 
Q 666 556 975 473 
Q 1284 391 1588 391 
Q 1994 391 2212 530 
Q 2431 669 2431 922 
Q 2431 1156 2273 1281 
Q 2116 1406 1581 1522 
L 1381 1569 
Q 847 1681 609 1914 
Q 372 2147 372 2553 
Q 372 3047 722 3315 
Q 1072 3584 1716 3584 
Q 2034 3584 2315 3537 
Q 2597 3491 2834 3397 
z
" transform="scale(0.015625)"/>
       <path id="DejaVuSans-29" d="M 513 4856 
L 1013 4856 
Q 1481 4119 1714 3412 
Q 1947 2706 1947 2009 
Q 1947 1309 1714 600 
Q 1481 -109 1013 -844 
L 513 -844 
Q 928 -128 1133 580 
Q 1338 1288 1338 2009 
Q 1338 2731 1133 3434 
Q 928 4138 513 4856 
z
" transform="scale(0.015625)"/>
      </defs>
      <use xlink:href="#DejaVuSans-54"/>
      <use xlink:href="#DejaVuSans-69" x="57.958984"/>
      <use xlink:href="#DejaVuSans-6d" x="85.742188"/>
      <use xlink:href="#DejaVuSans-65" x="183.154297"/>
      <use xlink:href="#DejaVuSans-28" x="244.677734"/>
      <use xlink:href="#DejaVuSans-73" x="283.691406"/>
      <use xlink:href="#DejaVuSans-29" x="335.791016"/>
     </g>
    </g>
   </g>
   <g id="matplotlib.axis_2">
    <g id="ytick_1">
     <g id="line2d_8">
      <defs>
       <path id="m2b0438b452" d="M 0 0 
L -3.5 0 
" style="stroke: #000000; stroke-width: 0.8"/>
      </defs>
      <g>
       <use xlink:href="#m2b0438b452" x="57.6" y="307.584" style="stroke: #000000; stroke-width: 0.8"/>
      </g>
     </g>
     <g id="text_9">
      <!-- 0 -->
      <g transform="translate(44.2375 311.383219) scale(0.1 -0.1)">
       <use xlink:href="#DejaVuSans-30"/>
      </g>
     </g>
    </g>
    <g id="ytick_2">
     <g id="line2d_9">
      <g>
       <use xlink:href="#m2b0438b452" x="57.6" y="269.568" style="stroke: #000000; stroke-width: 0.8"/>
      </g>
     </g>
     <g id="text_10">
      <!-- 5 -->
      <g transform="translate(44.2375 273.367219) scale(0.1 -0.1)">
       <use xlink:href="#DejaVuSans-35"/>
      </g>
     </g>
    </g>
    <g id="ytick_3">
     <g id="line2d_10">
      <g>
       <use xlink:href="#m2b0438b452" x="57.6" y="231.552" style="stroke: #000000; stroke-width: 0.8"/>
      </g>
     </g>
     <g id="text_11">
      <!-- 10 -->
      <g transform="translate(37.875 235.351219) scale(0.1 -0.1)">
       <use xlink:href="#DejaVuSans-31"/>
       <use xlink:href="#DejaVuSans-30" x="63.623047"/>
      </g>
     </g>
    </g>
    <g id="ytick_4">
     <g id="line2d_11">
      <g>
       <use xlink:href="#m2b0438b452" x="57.6" y="193.536" style="stroke: #000000; stroke-width: 0.8"/>
      </g>
     </g>
     <g id="text_12">
      <!-- 15 -->
      <g transform="translate(37.875 197.335219) scale(0.1 -0.1)">
       <use xlink:href="#DejaVuSans-31"/>
       <use xlink:href="#DejaVuSans-35" x="63.623047"/>
      </g>
     </g>
    </g>
    <g id="ytick_5">
     <g id="line2d_12">
      <g>
       <use xlink:href="#m2b0438b452" x="57.6" y="155.52" style="stroke: #000000; stroke-width: 0.8"/>
      </g>
     </g>
     <g id="text_13">
      <!-- 20 -->
      <g transform="translate(37.875 159.319219) scale(0.1 -0.1)">
       <use xlink:href="#DejaVuSans-32"/>
       <use xlink:href="#DejaVuSans-30" x="63.623047"/>
      </g>
     </g>
    </g>
    <g id="ytick_6">
     <g id="line2d_13">
      <g>
       <use xlink:href="#m2b0438b452" x="57.6" y="117.504" style="stroke: #000000; stroke-width: 0.8"/>
      </g>
     </g>
     <g id="text_14">
      <!-- 25 -->
      <g transform="translate(37.875 121.303219) scale(0.1 -0.1)">
       <use xlink:href="#DejaVuSans-32"/>
       <use xlink:href="#DejaVuSans-35" x="63.623047"/>
      </g>
     </g>
    </g>
    <g id="ytick_7">
     <g id="line2d_14">
      <g>
       <use xlink:href="#m2b0438b452" x="57.6" y="79.488" style="stroke: #000000; stroke-width: 0.8"/>
      </g>
     </g>
     <g id="text_15">
      <!-- 30 -->
      <g transform="translate(37.875 83.287219) scale(0.1 -0.1)">
       <use xlink:href="#DejaVuSans-33"/>
       <use xlink:href="#DejaVuSans-30" x="63.623047"/>
      </g>
     </g>
    </g>
    <g id="ytick_8">
     <g id="line2d_15">
      <g>
       <use xlink:href="#m2b0438b452" x="57.6" y="41.472" style="stroke: #000000; stroke-width: 0.8"/>
      </g>
     </g>
     <g id="text_16">
      <!-- 35 -->
      <g transform="translate(37.875 45.271219) scale(0.1 -0.1)">
       <use xlink:href="#DejaVuSans-33"/>
       <use xlink:href="#DejaVuSans-35" x="63.623047"/>
      </g>
     </g>
    </g>
    <g id="text_17">
     <!-- buffer(s) -->
     <g transform="translate(31.795312 196.029562) rotate(-90) scale(0.1 -0.1)">
      <defs>
       <path id="DejaVuSans-62" d="M 3116 1747 
Q 3116 2381 2855 2742 
Q 2594 3103 2138 3103 
Q 1681 3103 1420 2742 
Q 1159 2381 1159 1747 
Q 1159 1113 1420 752 
Q 1681 391 2138 391 
Q 2594 391 2855 752 
Q 3116 1113 3116 1747 
z
M 1159 2969 
Q 1341 3281 1617 3432 
Q 1894 3584 2278 3584 
Q 2916 3584 3314 3078 
Q 3713 2572 3713 1747 
Q 3713 922 3314 415 
Q 2916 -91 2278 -91 
Q 1894 -91 1617 61 
Q 1341 213 1159 525 
L 1159 0 
L 581 0 
L 581 4863 
L 1159 4863 
L 1159 2969 
z
" transform="scale(0.015625)"/>
       <path id="DejaVuSans-75" d="M 544 1381 
L 544 3500 
L 1119 3500 
L 1119 1403 
Q 1119 906 1312 657 
Q 1506 409 1894 409 
Q 2359 409 2629 706 
Q 2900 1003 2900 1516 
L 2900 3500 
L 3475 3500 
L 3475 0 
L 2900 0 
L 2900 538 
Q 2691 219 2414 64 
Q 2138 -91 1772 -91 
Q 1169 -91 856 284 
Q 544 659 544 1381 
z
M 1991 3584 
L 1991 3584 
z
" transform="scale(0.015625)"/>
       <path id="DejaVuSans-66" d="M 2375 4863 
L 2375 4384 
L 1825 4384 
Q 1516 4384 1395 4259 
Q 1275 4134 1275 3809 
L 1275 3500 
L 2222 3500 
L 2222 3053 
L 1275 3053 
L 1275 0 
L 697 0 
L 697 3053 
L 147 3053 
L 147 3500 
L 697 3500 
L 697 3744 
Q 697 4328 969 4595 
Q 1241 4863 1831 4863 
L 2375 4863 
z
" transform="scale(0.015625)"/>
       <path id="DejaVuSans-72" d="M 2631 2963 
Q 2534 3019 2420 3045 
Q 2306 3072 2169 3072 
Q 1681 3072 1420 2755 
Q 1159 2438 1159 1844 
L 1159 0 
L 581 0 
L 581 3500 
L 1159 3500 
L 1159 2956 
Q 1341 3275 1631 3429 
Q 1922 3584 2338 3584 
Q 2397 3584 2469 3576 
Q 2541 3569 2628 3553 
L 2631 2963 
z
" transform="scale(0.015625)"/>
      </defs>
      <use xlink:href="#DejaVuSans-62"/>
      <use xlink:href="#DejaVuSans-75" x="63.476562"/>
      <use xlink:href="#DejaVuSans-66" x="126.855469"/>
      <use xlink:href="#DejaVuSans-66" x="162.060547"/>
      <use xlink:href="#DejaVuSans-65" x="197.265625"/>
      <use xlink:href="#DejaVuSans-72" x="258.789062"/>
      <use xlink:href="#DejaVuSans-28" x="299.902344"/>
      <use xlink:href="#DejaVuSans-73" x="338.916016"/>
      <use xlink:href="#DejaVuSans-29" x="391.015625"/>
     </g>
    </g>
   </g>
   <g id="line2d_16">
    <path d="M 57.6 282.70633 
L 63.552 273.342989 
L 69.504 265.653197 
L 75.456 250.660954 
L 81.408 237.807491 
L 87.36 221.943836 
L 93.312 202.677581 
L 99.264 180.923812 
L 105.216 159.135068 
L 111.168 138.364646 
L 117.12 118.629274 
L 123.072 102.968709 
L 129.024 91.256233 
L 134.976 84.5421 
L 140.928 81.891625 
L 146.88 81.253463 
L 152.832 81.60169 
L 158.784 80.951363 
L 164.736 80.442455 
L 170.688 78.908129 
L 176.64 78.387057 
L 182.592 77.839119 
L 188.544 78.420004 
L 194.496 78.8544 
L 200.448 80.313708 
L 206.4 80.758241 
L 212.352 80.343107 
L 218.304 78.913198 
L 224.256 78.498063 
L 230.208 78.065188 
L 236.16 78.64151 
L 242.112 79.207188 
L 248.064 80.65129 
L 254.016 81.117619 
L 259.968 81.585469 
L 265.92 81.179459 
L 271.872 81.61943 
L 277.824 81.051218 
L 283.776 81.455201 
L 289.728 80.981775 
L 295.68 81.52363 
L 301.632 81.118633 
L 307.584 81.72993 
L 313.536 81.328988 
L 319.488 81.914941 
L 325.44 81.385252 
L 331.392 81.83232 
L 337.344 81.264614 
L 343.296 81.813059 
L 349.248 81.254984 
L 355.2 81.671132 
L 361.152 81.075548 
L 367.104 81.61943 
L 373.056 81.051725 
L 379.008 81.491697 
L 384.96 81.945354 
L 390.912 83.55115 
L 396.864 84.13761 
L 402.816 84.722043 
L 408.768 85.301914 
" clip-path="url(#p0ef789561c)" style="fill: none; stroke: #1f77b4; stroke-opacity: 0.1; stroke-width: 1.5; stroke-linecap: square"/>
   </g>
   <g id="line2d_17">
    <path d="M 57.6 283.907635 
L 63.552 274.323802 
L 69.504 268.173235 
L 75.456 254.185248 
L 81.408 243.30811 
L 87.36 226.723841 
L 93.312 207.189827 
L 99.264 182.295936 
L 105.216 158.384379 
L 111.168 134.400845 
L 117.12 114.515942 
L 123.072 98.651612 
L 129.024 88.871869 
L 134.976 83.151729 
L 140.928 81.621965 
L 146.88 81.192637 
L 152.832 81.773522 
L 158.784 81.334564 
L 164.736 81.902776 
L 170.688 81.464325 
L 176.64 81.907845 
L 182.592 81.339126 
L 188.544 81.785687 
L 194.496 81.356867 
L 200.448 81.803428 
L 206.4 81.248394 
L 212.352 81.709148 
L 218.304 81.291479 
L 224.256 81.731451 
L 230.208 81.191117 
L 236.16 81.65035 
L 242.112 81.225078 
L 248.064 80.768379 
L 254.016 79.318195 
L 259.968 77.901466 
L 265.92 76.47764 
L 271.872 76.070108 
L 277.824 76.514642 
L 283.776 78.056064 
L 289.728 79.531085 
L 295.68 81.140936 
L 301.632 81.582935 
L 307.584 82.086774 
L 313.536 81.491697 
L 319.488 81.985905 
L 325.44 81.406034 
L 331.392 81.877432 
L 337.344 81.337098 
L 343.296 81.884529 
L 349.248 81.337605 
L 355.2 81.748685 
L 361.152 81.138401 
L 367.104 81.680256 
L 373.056 81.216461 
L 379.008 81.773522 
L 384.96 81.301617 
L 390.912 81.889091 
L 396.864 81.445064 
L 402.816 82.043689 
L 408.768 81.623992 
" clip-path="url(#p0ef789561c)" style="fill: none; stroke: #ff7f0e; stroke-opacity: 0.1; stroke-width: 1.5; stroke-linecap: square"/>
   </g>
   <g id="line2d_18">
    <path d="M 57.6 295.122355 
L 63.552 282.672115 
L 69.504 274.505856 
L 75.456 258.272074 
L 81.408 245.651015 
L 87.36 228.639024 
L 93.312 208.971256 
L 99.264 185.628419 
L 105.216 163.277798 
L 111.168 141.953103 
L 117.12 122.420229 
L 123.072 105.620705 
L 129.024 92.766228 
L 134.976 84.988155 
L 140.928 81.402486 
L 146.88 79.949768 
L 152.832 79.617761 
L 158.784 79.292344 
L 164.736 78.969462 
L 170.688 78.541655 
L 176.64 78.99734 
L 182.592 79.342019 
L 188.544 80.698936 
L 194.496 81.168307 
L 200.448 80.694881 
L 206.4 79.207188 
L 212.352 78.737818 
L 218.304 78.304435 
L 224.256 78.744914 
L 230.208 79.086044 
L 236.16 80.439414 
L 242.112 80.92095 
L 248.064 81.4993 
L 254.016 81.094303 
L 259.968 81.701545 
L 265.92 81.296041 
L 271.872 81.877432 
L 277.824 81.332029 
L 283.776 81.771494 
L 289.728 81.191624 
L 295.68 81.73652 
L 301.632 81.222036 
L 307.584 81.702559 
L 313.536 81.173883 
L 319.488 80.719718 
L 325.44 79.138253 
L 331.392 78.510735 
L 337.344 77.891328 
L 343.296 78.433183 
L 349.248 78.957804 
L 355.2 80.495677 
L 361.152 81.008133 
L 367.104 80.577285 
L 373.056 79.118484 
L 379.008 78.619715 
L 384.96 78.122972 
L 390.912 78.651648 
L 396.864 79.233039 
L 402.816 80.69184 
L 408.768 81.13536 
" clip-path="url(#p0ef789561c)" style="fill: none; stroke: #2ca02c; stroke-opacity: 0.1; stroke-width: 1.5; stroke-linecap: square"/>
   </g>
   <g id="line2d_19">
    <path d="M 57.6 282.805171 
L 63.552 273.398112 
L 69.504 265.69079 
L 75.456 250.637722 
L 81.408 237.760689 
L 87.36 220.873812 
L 93.312 200.621676 
L 99.264 177.857188 
L 105.216 156.044621 
L 111.168 135.240745 
L 117.12 115.478508 
L 123.072 99.682606 
L 129.024 86.923423 
L 134.976 79.230505 
L 140.928 75.739116 
L 146.88 76.180101 
L 152.832 77.671849 
L 158.784 79.085537 
L 164.736 79.616241 
L 170.688 78.988216 
L 176.64 77.428547 
L 182.592 75.864822 
L 188.544 74.447078 
L 194.496 74.030423 
L 200.448 74.62398 
L 206.4 76.206966 
L 212.352 77.789952 
L 218.304 79.36128 
L 224.256 80.804367 
L 230.208 81.246874 
L 236.16 81.7056 
L 242.112 81.283876 
L 248.064 80.789161 
L 254.016 79.27511 
L 259.968 78.764175 
L 265.92 78.311532 
L 271.872 78.741366 
L 277.824 79.104292 
L 283.776 80.483512 
L 289.728 80.99242 
L 295.68 81.453681 
L 301.632 80.944773 
L 307.584 81.451146 
L 313.536 81.081124 
L 319.488 81.682284 
L 325.44 81.259039 
L 331.392 81.800387 
L 337.344 81.330002 
L 343.296 81.87135 
L 349.248 81.299589 
L 355.2 81.748178 
L 361.152 81.188076 
L 367.104 80.762803 
L 373.056 79.184886 
L 379.008 78.624276 
L 384.96 78.058092 
L 390.912 77.621161 
L 396.864 77.045345 
L 402.816 77.483796 
L 408.768 77.922248 
" clip-path="url(#p0ef789561c)" style="fill: none; stroke: #d62728; stroke-opacity: 0.1; stroke-width: 1.5; stroke-linecap: square"/>
   </g>
   <g id="line2d_20">
    <path d="M 57.6 283.42103 
L 63.552 273.873312 
L 69.504 266.077709 
L 75.456 250.820621 
L 81.408 237.887324 
L 87.36 221.94409 
L 93.312 203.706547 
L 99.264 182.873272 
L 105.216 162.105385 
L 111.168 141.290358 
L 117.12 120.538691 
L 123.072 102.675226 
L 129.024 88.867814 
L 134.976 81.08822 
L 140.928 77.495455 
L 146.88 76.920653 
L 152.832 77.429053 
L 158.784 77.937961 
L 164.736 77.515223 
L 170.688 77.084882 
L 176.64 76.684954 
L 182.592 76.281984 
L 188.544 75.880535 
L 194.496 76.459392 
L 200.448 77.914138 
L 206.4 79.291331 
L 212.352 80.672072 
L 218.304 81.174897 
L 224.256 81.622472 
L 230.208 81.056794 
L 236.16 81.508931 
L 242.112 81.078589 
L 248.064 81.524137 
L 254.016 80.946294 
L 259.968 81.386266 
L 265.92 80.946801 
L 271.872 81.524137 
L 277.824 81.084165 
L 283.776 81.736013 
L 289.728 81.3741 
L 295.68 81.011681 
L 301.632 79.426668 
L 307.584 78.854907 
L 313.536 78.212183 
L 319.488 78.721597 
L 325.44 79.094661 
L 331.392 80.546365 
L 337.344 80.991406 
L 343.296 81.573811 
L 349.248 81.007626 
L 355.2 81.451146 
L 361.152 80.923991 
L 367.104 80.536228 
L 373.056 79.005957 
L 379.008 78.464609 
L 384.96 77.971415 
L 390.912 77.5725 
L 396.864 77.039263 
L 402.816 77.478728 
L 408.768 77.944044 
" clip-path="url(#p0ef789561c)" style="fill: none; stroke: #9467bd; stroke-opacity: 0.1; stroke-width: 1.5; stroke-linecap: square"/>
   </g>
   <g id="line2d_21">
    <path d="M 57.6 282.820378 
L 63.552 273.48935 
L 69.504 265.801459 
L 75.456 250.794643 
L 81.408 238.915657 
L 87.36 223.043386 
L 93.312 203.782579 
L 99.264 180.006866 
L 105.216 157.131372 
L 111.168 134.275645 
L 117.12 114.468296 
L 123.072 98.676956 
L 129.024 88.852608 
L 134.976 83.107123 
L 140.928 81.552015 
L 146.88 81.11914 
L 152.832 81.692928 
L 158.784 81.254984 
L 164.736 81.829786 
L 170.688 81.391334 
L 176.64 80.814505 
L 182.592 79.235574 
L 188.544 78.670403 
L 194.496 78.255268 
L 200.448 78.708419 
L 206.4 79.164611 
L 212.352 80.611246 
L 218.304 81.192131 
L 224.256 81.621965 
L 230.208 81.134346 
L 236.16 80.678661 
L 242.112 79.378007 
L 248.064 78.996326 
L 254.016 78.57815 
L 259.968 79.071852 
L 265.92 79.568087 
L 271.872 81.0573 
L 277.824 81.516534 
L 283.776 81.977795 
L 289.728 81.438474 
L 295.68 80.962514 
L 301.632 79.335936 
L 307.584 78.692198 
L 313.536 78.080394 
L 319.488 78.619715 
L 325.44 79.097196 
L 331.392 80.597053 
L 337.344 81.079603 
L 343.296 81.660488 
L 349.248 81.222543 
L 355.2 81.758316 
L 361.152 81.280835 
L 367.104 80.804367 
L 373.056 79.360266 
L 379.008 78.796109 
L 384.96 78.231951 
L 390.912 78.675471 
L 396.864 79.256863 
L 402.816 80.837821 
L 408.768 81.402486 
" clip-path="url(#p0ef789561c)" style="fill: none; stroke: #8c564b; stroke-opacity: 0.1; stroke-width: 1.5; stroke-linecap: square"/>
   </g>
   <g id="line2d_22">
    <path d="M 57.6 282.736742 
L 63.552 273.388608 
L 69.504 265.707264 
L 75.456 250.709318 
L 81.408 237.848759 
L 87.36 220.966445 
L 93.312 200.704297 
L 99.264 177.931699 
L 105.216 156.07554 
L 111.168 135.230607 
L 117.12 115.442012 
L 123.072 99.663345 
L 129.024 87.843917 
L 134.976 81.095823 
L 140.928 78.537093 
L 146.88 79.113416 
L 152.832 80.694881 
L 158.784 81.272724 
L 164.736 81.850568 
L 170.688 81.420733 
L 176.64 81.863747 
L 182.592 81.302124 
L 188.544 81.743616 
L 194.496 81.305165 
L 200.448 81.740068 
L 206.4 81.189596 
L 212.352 81.650857 
L 218.304 81.240284 
L 224.256 81.683297 
L 230.208 81.112044 
L 236.16 80.551941 
L 242.112 79.113416 
L 248.064 78.689664 
L 254.016 78.296325 
L 259.968 78.918267 
L 265.92 79.499151 
L 271.872 81.04767 
L 277.824 81.515013 
L 283.776 82.066499 
L 289.728 81.602196 
L 295.68 81.208351 
L 301.632 79.62283 
L 307.584 78.98923 
L 313.536 78.277571 
L 319.488 78.730721 
L 325.44 79.123553 
L 331.392 80.618849 
L 337.344 81.087713 
L 343.296 81.679242 
L 349.248 81.21494 
L 355.2 81.765412 
L 361.152 81.307192 
L 367.104 80.891044 
L 373.056 79.331881 
L 379.008 78.683581 
L 384.96 78.032748 
L 390.912 77.510154 
L 396.864 76.949545 
L 402.816 77.397627 
L 408.768 77.853312 
" clip-path="url(#p0ef789561c)" style="fill: none; stroke: #e377c2; stroke-opacity: 0.1; stroke-width: 1.5; stroke-linecap: square"/>
   </g>
   <g id="line2d_23">
    <path d="M 57.6 264.451046 
L 63.552 256.85545 
L 69.504 250.07424 
L 75.456 235.792896 
L 81.408 223.070208 
L 87.36 206.749855 
L 93.312 187.011441 
L 99.264 163.379174 
L 105.216 140.981161 
L 111.168 121.422182 
L 117.12 104.717445 
L 123.072 93.050588 
L 129.024 85.432689 
L 134.976 82.89322 
L 140.928 81.441009 
L 146.88 81.884529 
L 152.832 81.318344 
L 158.784 81.502595 
L 164.736 80.798285 
L 170.688 80.967836 
L 176.64 80.395569 
L 182.592 80.842637 
L 188.544 80.673592 
L 194.496 81.382464 
L 200.448 81.083658 
L 206.4 80.565627 
L 212.352 79.170693 
L 218.304 78.654182 
L 224.256 78.09408 
L 230.208 78.534052 
L 236.16 79.058166 
L 242.112 80.586916 
L 248.064 81.110016 
L 254.016 80.734925 
L 259.968 79.360266 
L 265.92 79.002409 
L 271.872 78.459034 
L 277.824 78.924856 
L 283.776 79.370404 
L 289.728 79.928986 
L 295.68 79.339991 
L 301.632 78.754038 
L 307.584 78.176701 
L 313.536 78.695747 
L 319.488 79.229491 
L 325.44 80.773955 
L 331.392 81.352812 
L 337.344 81.929641 
L 343.296 81.490683 
L 349.248 81.936737 
L 355.2 81.36447 
L 361.152 80.791695 
L 367.104 79.33036 
L 373.056 78.75049 
L 379.008 78.171126 
L 384.96 78.614646 
L 390.912 79.194516 
L 396.864 80.781051 
L 402.816 81.357373 
L 408.768 81.935217 
" clip-path="url(#p0ef789561c)" style="fill: none; stroke: #7f7f7f; stroke-opacity: 0.1; stroke-width: 1.5; stroke-linecap: square"/>
   </g>
   <g id="line2d_24">
    <path d="M 57.6 295.186982 
L 63.552 282.714883 
L 69.504 274.541971 
L 75.456 257.374579 
L 81.408 244.026528 
L 87.36 225.278473 
L 93.312 203.783593 
L 99.264 179.451325 
L 105.216 156.847772 
L 111.168 135.264568 
L 117.12 115.457219 
L 123.072 99.680072 
L 129.024 87.839862 
L 134.976 81.075041 
L 140.928 78.496036 
L 146.88 79.073372 
L 152.832 79.695314 
L 158.784 79.306537 
L 164.736 78.919788 
L 170.688 78.487926 
L 176.64 78.933473 
L 182.592 79.333402 
L 188.544 80.746076 
L 194.496 81.283876 
L 200.448 81.733478 
L 206.4 81.178952 
L 212.352 81.641733 
L 218.304 81.237243 
L 224.256 81.702559 
L 230.208 81.150566 
L 236.16 81.598141 
L 242.112 81.162225 
L 248.064 81.596114 
L 254.016 81.067945 
L 259.968 81.55455 
L 265.92 81.169321 
L 271.872 81.615375 
L 277.824 81.116099 
L 283.776 81.579387 
L 289.728 81.159183 
L 295.68 80.672072 
L 301.632 79.220367 
L 307.584 78.716529 
L 313.536 78.214211 
L 319.488 77.716961 
L 325.44 77.254687 
L 331.392 77.802117 
L 337.344 78.343972 
L 343.296 78.94057 
L 349.248 79.508275 
L 355.2 81.003064 
L 361.152 81.481559 
L 367.104 82.009728 
L 373.056 81.46838 
L 379.008 81.83232 
L 384.96 81.169321 
L 390.912 81.66505 
L 396.864 81.100385 
L 402.816 81.640719 
L 408.768 81.164759 
" clip-path="url(#p0ef789561c)" style="fill: none; stroke: #bcbd22; stroke-opacity: 0.1; stroke-width: 1.5; stroke-linecap: square"/>
   </g>
   <g id="line2d_25">
    <path d="M 57.6 271.44599 
L 63.552 263.08057 
L 69.504 254.155046 
L 75.456 238.791514 
L 81.408 224.230118 
L 87.36 207.482296 
L 93.312 185.750323 
L 99.264 161.213783 
L 105.216 137.341763 
L 111.168 116.556641 
L 117.12 98.72663 
L 123.072 86.960425 
L 129.024 80.186988 
L 134.976 78.564972 
L 140.928 79.065262 
L 146.88 80.60415 
L 152.832 81.133839 
L 158.784 81.663529 
L 164.736 81.22964 
L 170.688 80.754186 
L 176.64 79.266493 
L 182.592 78.785971 
L 188.544 78.351068 
L 194.496 78.795602 
L 200.448 79.145856 
L 206.4 80.507843 
L 212.352 80.995968 
L 218.304 81.441516 
L 224.256 80.872289 
L 230.208 81.312768 
L 236.16 80.878372 
L 242.112 80.431811 
L 248.064 78.976051 
L 254.016 78.533038 
L 259.968 78.104724 
L 265.92 78.682061 
L 271.872 79.137746 
L 277.824 80.598574 
L 283.776 81.046149 
L 289.728 81.611827 
L 295.68 81.030436 
L 301.632 81.460777 
L 307.584 80.893071 
L 313.536 81.476997 
L 319.488 80.916388 
L 325.44 81.369539 
L 331.392 80.817546 
L 337.344 81.410089 
L 343.296 80.850493 
L 349.248 81.30263 
L 355.2 80.750131 
L 361.152 81.344701 
L 367.104 80.921964 
L 373.056 81.510451 
L 379.008 81.123195 
L 384.96 81.749699 
L 390.912 81.360415 
L 396.864 81.806469 
L 402.816 81.282355 
L 408.768 81.72993 
" clip-path="url(#p0ef789561c)" style="fill: none; stroke: #17becf; stroke-opacity: 0.1; stroke-width: 1.5; stroke-linecap: square"/>
   </g>
   <g id="line2d_26">
    <path d="M 57.6 307.584 
L 63.552 301.394995 
L 69.504 295.475482 
L 75.456 283.70953 
L 81.408 272.25911 
L 87.36 256.938324 
L 93.312 237.859108 
L 99.264 215.01504 
L 105.216 191.261123 
L 111.168 167.380485 
L 117.12 143.482614 
L 123.072 121.620879 
L 129.024 102.750244 
L 134.976 89.883095 
L 140.928 82.11668 
L 146.88 79.557949 
L 152.832 79.112402 
L 158.784 80.694881 
L 164.736 81.265121 
L 170.688 80.832246 
L 176.64 79.391186 
L 182.592 77.850778 
L 188.544 76.311383 
L 194.496 75.774597 
L 200.448 76.345344 
L 206.4 76.830428 
L 212.352 77.289661 
L 218.304 77.75447 
L 224.256 78.301901 
L 230.208 77.831516 
L 236.16 77.300306 
L 242.112 77.77728 
L 248.064 78.307983 
L 254.016 77.883218 
L 259.968 77.367721 
L 265.92 77.855846 
L 271.872 78.346506 
L 277.824 77.902986 
L 283.776 77.341363 
L 289.728 77.794007 
L 295.68 78.304942 
L 301.632 77.931372 
L 307.584 77.447301 
L 313.536 77.917686 
L 319.488 78.369823 
L 325.44 77.872067 
L 331.392 77.244549 
L 337.344 77.599365 
L 343.296 77.994225 
L 349.248 78.534559 
L 355.2 79.105812 
L 361.152 80.696909 
L 367.104 81.273231 
L 373.056 81.852088 
L 379.008 81.414144 
L 384.96 80.933115 
L 390.912 79.433257 
L 396.864 78.957297 
L 402.816 78.525942 
L 408.768 78.076846 
" clip-path="url(#p0ef789561c)" style="fill: none; stroke: #1f77b4; stroke-opacity: 0.1; stroke-width: 1.5; stroke-linecap: square"/>
   </g>
   <g id="line2d_27">
    <path d="M 57.6 283.25376 
L 63.552 281.337754 
L 69.504 279.491866 
L 75.456 273.238867 
L 81.408 264.452609 
L 87.36 250.294268 
L 93.312 232.331075 
L 99.264 208.544717 
L 105.216 183.721789 
L 111.168 157.841004 
L 117.12 135.013663 
L 123.072 114.108411 
L 129.024 98.290207 
L 134.976 86.471793 
L 140.928 80.867727 
L 146.88 78.324204 
L 152.832 78.899005 
L 158.784 79.390679 
L 164.736 80.892058 
L 170.688 81.371059 
L 176.64 81.803428 
L 182.592 81.224571 
L 188.544 81.66657 
L 194.496 81.251436 
L 200.448 81.718779 
L 206.4 81.16628 
L 212.352 81.611827 
L 218.304 81.168814 
L 224.256 81.7203 
L 230.208 81.278807 
L 236.16 81.86324 
L 242.112 81.456722 
L 248.064 82.043689 
L 254.016 81.480038 
L 259.968 80.943252 
L 265.92 79.384596 
L 271.872 78.967434 
L 277.824 78.386043 
L 283.776 78.910664 
L 289.728 79.39372 
L 295.68 81.026888 
L 301.632 81.546947 
L 307.584 82.111104 
L 313.536 81.577359 
L 319.488 82.06143 
L 325.44 81.522616 
L 331.392 81.959547 
L 337.344 81.399444 
L 343.296 80.888509 
L 349.248 79.490534 
L 355.2 78.977065 
L 361.152 78.4271 
L 367.104 77.866491 
L 373.056 77.394586 
L 379.008 77.798569 
L 384.96 78.2061 
L 390.912 78.645059 
L 396.864 79.221888 
L 402.816 80.670044 
L 408.768 81.11255 
" clip-path="url(#p0ef789561c)" style="fill: none; stroke: #ff7f0e; stroke-opacity: 0.1; stroke-width: 1.5; stroke-linecap: square"/>
   </g>
   <g id="line2d_28">
    <path d="M 57.6 282.858394 
L 63.552 277.270042 
L 69.504 271.685914 
L 75.456 260.435078 
L 81.408 249.149902 
L 87.36 232.999016 
L 93.312 211.046676 
L 99.264 182.178847 
L 105.216 153.239547 
L 111.168 126.246666 
L 117.12 104.367698 
L 123.072 88.505395 
L 129.024 80.752666 
L 134.976 78.077353 
L 140.928 77.584666 
L 146.88 77.176627 
L 152.832 77.779814 
L 158.784 78.358164 
L 164.736 78.928404 
L 170.688 79.482424 
L 176.64 79.995387 
L 182.592 79.499658 
L 188.544 79.02167 
L 194.496 78.589809 
L 200.448 79.031808 
L 206.4 79.383076 
L 212.352 80.744049 
L 218.304 81.230147 
L 224.256 81.670118 
L 230.208 81.098358 
L 236.16 81.53833 
L 242.112 81.100385 
L 248.064 81.539343 
L 254.016 80.991406 
L 259.968 81.459763 
L 265.92 81.048177 
L 271.872 81.630582 
L 277.824 81.277286 
L 283.776 81.915448 
L 289.728 81.527685 
L 295.68 81.06389 
L 301.632 79.475328 
L 307.584 78.832604 
L 313.536 78.199004 
L 319.488 78.724132 
L 325.44 79.293358 
L 331.392 80.868741 
L 337.344 81.422761 
L 343.296 81.015229 
L 349.248 79.45708 
L 355.2 78.816891 
L 361.152 78.153385 
L 367.104 78.642017 
L 373.056 79.066783 
L 379.008 80.505815 
L 384.96 80.924498 
L 390.912 80.504294 
L 396.864 79.069317 
L 402.816 78.644045 
L 408.768 78.202045 
" clip-path="url(#p0ef789561c)" style="fill: none; stroke: #2ca02c; stroke-opacity: 0.1; stroke-width: 1.5; stroke-linecap: square"/>
   </g>
   <g id="line2d_29">
    <path d="M 57.6 282.888806 
L 63.552 277.334669 
L 69.504 271.730688 
L 75.456 260.44247 
L 81.408 249.035643 
L 87.36 233.825357 
L 93.312 215.855447 
L 99.264 195.092122 
L 105.216 174.295342 
L 111.168 153.554826 
L 117.12 133.844291 
L 123.072 116.071557 
L 129.024 100.289848 
L 134.976 88.597647 
L 140.928 82.01429 
L 146.88 79.491041 
L 152.832 78.958817 
L 158.784 79.494083 
L 164.736 80.994447 
L 170.688 81.520589 
L 176.64 81.917476 
L 182.592 81.357373 
L 188.544 81.733478 
L 194.496 81.232174 
L 200.448 81.606252 
L 206.4 81.039053 
L 212.352 81.482573 
L 218.304 81.043615 
L 224.256 81.482066 
L 230.208 80.90625 
L 236.16 81.34825 
L 242.112 80.909798 
L 248.064 81.488148 
L 254.016 81.053752 
L 259.968 81.641226 
L 265.92 81.208351 
L 271.872 81.79177 
L 277.824 81.22305 
L 283.776 81.670625 
L 289.728 81.091768 
L 295.68 81.663022 
L 301.632 81.085686 
L 307.584 81.537316 
L 313.536 80.984817 
L 319.488 80.583368 
L 325.44 79.030287 
L 331.392 78.489446 
L 337.344 77.93644 
L 343.296 77.540567 
L 349.248 76.99263 
L 355.2 77.46048 
L 361.152 77.912617 
L 367.104 78.503132 
L 373.056 79.060193 
L 379.008 79.644119 
L 384.96 79.215805 
L 390.912 78.800671 
L 396.864 78.349548 
L 402.816 78.893937 
L 408.768 79.416023 
" clip-path="url(#p0ef789561c)" style="fill: none; stroke: #d62728; stroke-opacity: 0.1; stroke-width: 1.5; stroke-linecap: square"/>
   </g>
   <g id="line2d_30">
    <path d="M 57.6 264.451046 
L 63.552 256.85545 
L 69.504 250.07424 
L 75.456 235.792896 
L 81.408 223.070208 
L 87.36 206.749855 
L 93.312 185.750323 
L 99.264 161.213783 
L 105.216 137.341763 
L 111.168 116.556641 
L 117.12 98.72663 
L 123.072 86.960425 
L 129.024 80.186988 
L 134.976 78.077353 
L 140.928 75.739116 
L 146.88 76.180101 
L 152.832 77.429053 
L 158.784 77.937961 
L 164.736 77.515223 
L 170.688 77.084882 
L 176.64 76.684954 
L 182.592 75.864822 
L 188.544 74.447078 
L 194.496 74.030423 
L 200.448 74.62398 
L 206.4 76.206966 
L 212.352 77.289661 
L 218.304 77.75447 
L 224.256 78.09408 
L 230.208 77.831516 
L 236.16 77.300306 
L 242.112 77.77728 
L 248.064 78.307983 
L 254.016 77.883218 
L 259.968 77.367721 
L 265.92 76.47764 
L 271.872 76.070108 
L 277.824 76.514642 
L 283.776 77.341363 
L 289.728 77.794007 
L 295.68 78.304942 
L 301.632 77.931372 
L 307.584 77.447301 
L 313.536 77.917686 
L 319.488 77.716961 
L 325.44 77.254687 
L 331.392 77.244549 
L 337.344 77.599365 
L 343.296 77.540567 
L 349.248 76.99263 
L 355.2 77.46048 
L 361.152 77.912617 
L 367.104 77.866491 
L 373.056 77.394586 
L 379.008 77.798569 
L 384.96 77.971415 
L 390.912 77.510154 
L 396.864 76.949545 
L 402.816 77.397627 
L 408.768 77.853312 
" clip-path="url(#p0ef789561c)" style="fill: none; stroke: #ffa500; stroke-opacity: 0.6; stroke-width: 1.5; stroke-linecap: square"/>
   </g>
   <g id="line2d_31">
    <path d="M 57.6 307.584 
L 63.552 301.394995 
L 69.504 295.475482 
L 75.456 283.70953 
L 81.408 272.25911 
L 87.36 256.938324 
L 93.312 237.859108 
L 99.264 215.01504 
L 105.216 191.261123 
L 111.168 167.380485 
L 117.12 143.482614 
L 123.072 121.620879 
L 129.024 102.750244 
L 134.976 89.883095 
L 140.928 82.11668 
L 146.88 81.884529 
L 152.832 81.773522 
L 158.784 81.663529 
L 164.736 81.902776 
L 170.688 81.520589 
L 176.64 81.917476 
L 182.592 81.357373 
L 188.544 81.785687 
L 194.496 81.382464 
L 200.448 81.803428 
L 206.4 81.248394 
L 212.352 81.709148 
L 218.304 81.441516 
L 224.256 81.731451 
L 230.208 81.312768 
L 236.16 81.86324 
L 242.112 81.456722 
L 248.064 82.043689 
L 254.016 81.480038 
L 259.968 81.701545 
L 265.92 81.296041 
L 271.872 81.877432 
L 277.824 81.516534 
L 283.776 82.066499 
L 289.728 81.611827 
L 295.68 81.73652 
L 301.632 81.582935 
L 307.584 82.111104 
L 313.536 81.577359 
L 319.488 82.06143 
L 325.44 81.522616 
L 331.392 81.959547 
L 337.344 81.929641 
L 343.296 81.884529 
L 349.248 81.936737 
L 355.2 81.765412 
L 361.152 81.481559 
L 367.104 82.009728 
L 373.056 81.852088 
L 379.008 81.83232 
L 384.96 81.945354 
L 390.912 83.55115 
L 396.864 84.13761 
L 402.816 84.722043 
L 408.768 85.301914 
" clip-path="url(#p0ef789561c)" style="fill: none; stroke: #00ffff; stroke-opacity: 0.6; stroke-width: 1.5; stroke-linecap: square"/>
   </g>
   <g id="line2d_32">
    <path d="M 57.6 284.370616 
L 63.552 276.034046 
L 69.504 269.19748 
L 75.456 255.418965 
L 81.408 243.243083 
L 87.36 226.978716 
L 93.312 207.235102 
L 99.264 183.7423 
L 105.216 160.703047 
L 111.168 138.501595 
L 117.12 118.364465 
L 123.072 101.995463 
L 129.024 90.066043 
L 134.976 83.05477 
L 140.928 79.98753 
L 146.88 79.417218 
L 152.832 79.812801 
L 158.784 80.109996 
L 164.736 80.368161 
L 170.688 80.086824 
L 176.64 79.841929 
L 182.592 79.292797 
L 188.544 79.296436 
L 194.496 79.267127 
L 200.448 79.747414 
L 206.4 79.838399 
L 212.352 80.317907 
L 218.304 80.286264 
L 224.256 80.610703 
L 230.208 80.35748 
L 236.16 80.625801 
L 242.112 80.402303 
L 248.064 80.569972 
L 254.016 80.026451 
L 259.968 79.982896 
L 265.92 79.687819 
L 271.872 80.134706 
L 277.824 80.110485 
L 283.776 80.670044 
L 289.728 80.687061 
L 295.68 80.867039 
L 301.632 80.19488 
L 307.584 80.087241 
L 313.536 79.765119 
L 319.488 79.99832 
L 325.44 79.830035 
L 331.392 80.308421 
L 337.344 80.35882 
L 343.296 80.545424 
L 349.248 80.251253 
L 355.2 80.579747 
L 361.152 80.480724 
L 367.104 80.387024 
L 373.056 79.812331 
L 379.008 79.781628 
L 384.96 79.605524 
L 390.912 79.648174 
L 396.864 79.599477 
L 402.816 80.119283 
L 408.768 80.344338 
" clip-path="url(#p0ef789561c)" style="fill: none; stroke: #ff0000; stroke-width: 2; stroke-linecap: square"/>
   </g>
   <g id="patch_3">
    <path d="M 57.6 307.584 
L 57.6 41.472 
" style="fill: none; stroke: #000000; stroke-width: 0.8; stroke-linejoin: miter; stroke-linecap: square"/>
   </g>
   <g id="patch_4">
    <path d="M 414.72 307.584 
L 414.72 41.472 
" style="fill: none; stroke: #000000; stroke-width: 0.8; stroke-linejoin: miter; stroke-linecap: square"/>
   </g>
   <g id="patch_5">
    <path d="M 57.6 307.584 
L 414.72 307.584 
" style="fill: none; stroke: #000000; stroke-width: 0.8; stroke-linejoin: miter; stroke-linecap: square"/>
   </g>
   <g id="patch_6">
    <path d="M 57.6 41.472 
L 414.72 41.472 
" style="fill: none; stroke: #000000; stroke-width: 0.8; stroke-linejoin: miter; stroke-linecap: square"/>
   </g>
   <g id="text_18">
    <!-- . -->
    <g transform="translate(234.253125 35.472) scale(0.12 -0.12)">
     <defs>
      <path id="DejaVuSans-2e" d="M 684 794 
L 1344 794 
L 1344 0 
L 684 0 
L 684 794 
z
" transform="scale(0.015625)"/>
     </defs>
     <use xlink:href="#DejaVuSans-2e"/>
    </g>
   </g>
   <g id="legend_1">
    <g id="patch_7">
     <path d="M 310.259063 302.584 
L 407.72 302.584 
Q 409.72 302.584 409.72 300.584 
L 409.72 257.549625 
Q 409.72 255.549625 407.72 255.549625 
L 310.259063 255.549625 
Q 308.259063 255.549625 308.259063 257.549625 
L 308.259063 300.584 
Q 308.259063 302.584 310.259063 302.584 
z
" style="fill: #ffffff; opacity: 0.8; stroke: #cccccc; stroke-linejoin: miter"/>
    </g>
    <g id="line2d_33">
     <path d="M 312.259063 263.648062 
L 322.259063 263.648062 
L 332.259063 263.648062 
" style="fill: none; stroke: #ffa500; stroke-width: 1.5; stroke-linecap: square"/>
    </g>
    <g id="text_19">
     <!-- Upper Bound -->
     <g transform="translate(340.259063 267.148062) scale(0.1 -0.1)">
      <defs>
       <path id="DejaVuSans-55" d="M 556 4666 
L 1191 4666 
L 1191 1831 
Q 1191 1081 1462 751 
Q 1734 422 2344 422 
Q 2950 422 3222 751 
Q 3494 1081 3494 1831 
L 3494 4666 
L 4128 4666 
L 4128 1753 
Q 4128 841 3676 375 
Q 3225 -91 2344 -91 
Q 1459 -91 1007 375 
Q 556 841 556 1753 
L 556 4666 
z
" transform="scale(0.015625)"/>
       <path id="DejaVuSans-70" d="M 1159 525 
L 1159 -1331 
L 581 -1331 
L 581 3500 
L 1159 3500 
L 1159 2969 
Q 1341 3281 1617 3432 
Q 1894 3584 2278 3584 
Q 2916 3584 3314 3078 
Q 3713 2572 3713 1747 
Q 3713 922 3314 415 
Q 2916 -91 2278 -91 
Q 1894 -91 1617 61 
Q 1341 213 1159 525 
z
M 3116 1747 
Q 3116 2381 2855 2742 
Q 2594 3103 2138 3103 
Q 1681 3103 1420 2742 
Q 1159 2381 1159 1747 
Q 1159 1113 1420 752 
Q 1681 391 2138 391 
Q 2594 391 2855 752 
Q 3116 1113 3116 1747 
z
" transform="scale(0.015625)"/>
       <path id="DejaVuSans-20" transform="scale(0.015625)"/>
       <path id="DejaVuSans-42" d="M 1259 2228 
L 1259 519 
L 2272 519 
Q 2781 519 3026 730 
Q 3272 941 3272 1375 
Q 3272 1813 3026 2020 
Q 2781 2228 2272 2228 
L 1259 2228 
z
M 1259 4147 
L 1259 2741 
L 2194 2741 
Q 2656 2741 2882 2914 
Q 3109 3088 3109 3444 
Q 3109 3797 2882 3972 
Q 2656 4147 2194 4147 
L 1259 4147 
z
M 628 4666 
L 2241 4666 
Q 2963 4666 3353 4366 
Q 3744 4066 3744 3513 
Q 3744 3084 3544 2831 
Q 3344 2578 2956 2516 
Q 3422 2416 3680 2098 
Q 3938 1781 3938 1306 
Q 3938 681 3513 340 
Q 3088 0 2303 0 
L 628 0 
L 628 4666 
z
" transform="scale(0.015625)"/>
       <path id="DejaVuSans-6f" d="M 1959 3097 
Q 1497 3097 1228 2736 
Q 959 2375 959 1747 
Q 959 1119 1226 758 
Q 1494 397 1959 397 
Q 2419 397 2687 759 
Q 2956 1122 2956 1747 
Q 2956 2369 2687 2733 
Q 2419 3097 1959 3097 
z
M 1959 3584 
Q 2709 3584 3137 3096 
Q 3566 2609 3566 1747 
Q 3566 888 3137 398 
Q 2709 -91 1959 -91 
Q 1206 -91 779 398 
Q 353 888 353 1747 
Q 353 2609 779 3096 
Q 1206 3584 1959 3584 
z
" transform="scale(0.015625)"/>
       <path id="DejaVuSans-6e" d="M 3513 2113 
L 3513 0 
L 2938 0 
L 2938 2094 
Q 2938 2591 2744 2837 
Q 2550 3084 2163 3084 
Q 1697 3084 1428 2787 
Q 1159 2491 1159 1978 
L 1159 0 
L 581 0 
L 581 3500 
L 1159 3500 
L 1159 2956 
Q 1366 3272 1645 3428 
Q 1925 3584 2291 3584 
Q 2894 3584 3203 3211 
Q 3513 2838 3513 2113 
z
" transform="scale(0.015625)"/>
       <path id="DejaVuSans-64" d="M 2906 2969 
L 2906 4863 
L 3481 4863 
L 3481 0 
L 2906 0 
L 2906 525 
Q 2725 213 2448 61 
Q 2172 -91 1784 -91 
Q 1150 -91 751 415 
Q 353 922 353 1747 
Q 353 2572 751 3078 
Q 1150 3584 1784 3584 
Q 2172 3584 2448 3432 
Q 2725 3281 2906 2969 
z
M 947 1747 
Q 947 1113 1208 752 
Q 1469 391 1925 391 
Q 2381 391 2643 752 
Q 2906 1113 2906 1747 
Q 2906 2381 2643 2742 
Q 2381 3103 1925 3103 
Q 1469 3103 1208 2742 
Q 947 2381 947 1747 
z
" transform="scale(0.015625)"/>
      </defs>
      <use xlink:href="#DejaVuSans-55"/>
      <use xlink:href="#DejaVuSans-70" x="73.193359"/>
      <use xlink:href="#DejaVuSans-70" x="136.669922"/>
      <use xlink:href="#DejaVuSans-65" x="200.146484"/>
      <use xlink:href="#DejaVuSans-72" x="261.669922"/>
      <use xlink:href="#DejaVuSans-20" x="302.783203"/>
      <use xlink:href="#DejaVuSans-42" x="334.570312"/>
      <use xlink:href="#DejaVuSans-6f" x="403.173828"/>
      <use xlink:href="#DejaVuSans-75" x="464.355469"/>
      <use xlink:href="#DejaVuSans-6e" x="527.734375"/>
      <use xlink:href="#DejaVuSans-64" x="591.113281"/>
     </g>
    </g>
    <g id="line2d_34">
     <path d="M 312.259063 278.326188 
L 322.259063 278.326188 
L 332.259063 278.326188 
" style="fill: none; stroke: #00ffff; stroke-width: 1.5; stroke-linecap: square"/>
    </g>
    <g id="text_20">
     <!-- Lower Bound -->
     <g transform="translate(340.259063 281.826188) scale(0.1 -0.1)">
      <defs>
       <path id="DejaVuSans-4c" d="M 628 4666 
L 1259 4666 
L 1259 531 
L 3531 531 
L 3531 0 
L 628 0 
L 628 4666 
z
" transform="scale(0.015625)"/>
       <path id="DejaVuSans-77" d="M 269 3500 
L 844 3500 
L 1563 769 
L 2278 3500 
L 2956 3500 
L 3675 769 
L 4391 3500 
L 4966 3500 
L 4050 0 
L 3372 0 
L 2619 2869 
L 1863 0 
L 1184 0 
L 269 3500 
z
" transform="scale(0.015625)"/>
      </defs>
      <use xlink:href="#DejaVuSans-4c"/>
      <use xlink:href="#DejaVuSans-6f" x="53.962891"/>
      <use xlink:href="#DejaVuSans-77" x="115.144531"/>
      <use xlink:href="#DejaVuSans-65" x="196.931641"/>
      <use xlink:href="#DejaVuSans-72" x="258.455078"/>
      <use xlink:href="#DejaVuSans-20" x="299.568359"/>
      <use xlink:href="#DejaVuSans-42" x="331.355469"/>
      <use xlink:href="#DejaVuSans-6f" x="399.958984"/>
      <use xlink:href="#DejaVuSans-75" x="461.140625"/>
      <use xlink:href="#DejaVuSans-6e" x="524.519531"/>
      <use xlink:href="#DejaVuSans-64" x="587.898438"/>
     </g>
    </g>
    <g id="line2d_35">
     <path d="M 312.259063 293.004312 
L 322.259063 293.004312 
L 332.259063 293.004312 
" style="fill: none; stroke: #ff0000; stroke-width: 1.5; stroke-linecap: square"/>
    </g>
    <g id="text_21">
     <!-- Average -->
     <g transform="translate(340.259063 296.504312) scale(0.1 -0.1)">
      <defs>
       <path id="DejaVuSans-41" d="M 2188 4044 
L 1331 1722 
L 3047 1722 
L 2188 4044 
z
M 1831 4666 
L 2547 4666 
L 4325 0 
L 3669 0 
L 3244 1197 
L 1141 1197 
L 716 0 
L 50 0 
L 1831 4666 
z
" transform="scale(0.015625)"/>
       <path id="DejaVuSans-76" d="M 191 3500 
L 800 3500 
L 1894 563 
L 2988 3500 
L 3597 3500 
L 2284 0 
L 1503 0 
L 191 3500 
z
" transform="scale(0.015625)"/>
       <path id="DejaVuSans-61" d="M 2194 1759 
Q 1497 1759 1228 1600 
Q 959 1441 959 1056 
Q 959 750 1161 570 
Q 1363 391 1709 391 
Q 2188 391 2477 730 
Q 2766 1069 2766 1631 
L 2766 1759 
L 2194 1759 
z
M 3341 1997 
L 3341 0 
L 2766 0 
L 2766 531 
Q 2569 213 2275 61 
Q 1981 -91 1556 -91 
Q 1019 -91 701 211 
Q 384 513 384 1019 
Q 384 1609 779 1909 
Q 1175 2209 1959 2209 
L 2766 2209 
L 2766 2266 
Q 2766 2663 2505 2880 
Q 2244 3097 1772 3097 
Q 1472 3097 1187 3025 
Q 903 2953 641 2809 
L 641 3341 
Q 956 3463 1253 3523 
Q 1550 3584 1831 3584 
Q 2591 3584 2966 3190 
Q 3341 2797 3341 1997 
z
" transform="scale(0.015625)"/>
       <path id="DejaVuSans-67" d="M 2906 1791 
Q 2906 2416 2648 2759 
Q 2391 3103 1925 3103 
Q 1463 3103 1205 2759 
Q 947 2416 947 1791 
Q 947 1169 1205 825 
Q 1463 481 1925 481 
Q 2391 481 2648 825 
Q 2906 1169 2906 1791 
z
M 3481 434 
Q 3481 -459 3084 -895 
Q 2688 -1331 1869 -1331 
Q 1566 -1331 1297 -1286 
Q 1028 -1241 775 -1147 
L 775 -588 
Q 1028 -725 1275 -790 
Q 1522 -856 1778 -856 
Q 2344 -856 2625 -561 
Q 2906 -266 2906 331 
L 2906 616 
Q 2728 306 2450 153 
Q 2172 0 1784 0 
Q 1141 0 747 490 
Q 353 981 353 1791 
Q 353 2603 747 3093 
Q 1141 3584 1784 3584 
Q 2172 3584 2450 3431 
Q 2728 3278 2906 2969 
L 2906 3500 
L 3481 3500 
L 3481 434 
z
" transform="scale(0.015625)"/>
      </defs>
      <use xlink:href="#DejaVuSans-41"/>
      <use xlink:href="#DejaVuSans-76" x="62.533203"/>
      <use xlink:href="#DejaVuSans-65" x="121.712891"/>
      <use xlink:href="#DejaVuSans-72" x="183.236328"/>
      <use xlink:href="#DejaVuSans-61" x="224.349609"/>
      <use xlink:href="#DejaVuSans-67" x="285.628906"/>
      <use xlink:href="#DejaVuSans-65" x="349.105469"/>
     </g>
    </g>
   </g>
  </g>
 </g>
 <defs>
  <clipPath id="p0ef789561c">
   <rect x="57.6" y="41.472" width="357.12" height="266.112"/>
  </clipPath>
 </defs>
</svg>
