<?xml version="1.0" encoding="utf-8" standalone="no"?>
<!DOCTYPE svg PUBLIC "-//W3C//DTD SVG 1.1//EN"
  "http://www.w3.org/Graphics/SVG/1.1/DTD/svg11.dtd">
<svg xmlns:xlink="http://www.w3.org/1999/xlink" width="460.8pt" height="345.6pt" viewBox="0 0 460.8 345.6" xmlns="http://www.w3.org/2000/svg" version="1.1">
 <metadata>
  <rdf:RDF xmlns:dc="http://purl.org/dc/elements/1.1/" xmlns:cc="http://creativecommons.org/ns#" xmlns:rdf="http://www.w3.org/1999/02/22-rdf-syntax-ns#">
   <cc:Work>
    <dc:type rdf:resource="http://purl.org/dc/dcmitype/StillImage"/>
    <dc:date>2024-04-11T00:15:27.474351</dc:date>
    <dc:format>image/svg+xml</dc:format>
    <dc:creator>
     <cc:Agent>
      <dc:title>Matplotlib v3.8.3, https://matplotlib.org/</dc:title>
     </cc:Agent>
    </dc:creator>
   </cc:Work>
  </rdf:RDF>
 </metadata>
 <defs>
  <style type="text/css">*{stroke-linejoin: round; stroke-linecap: butt}</style>
 </defs>
 <g id="figure_1">
  <g id="patch_1">
   <path d="M 0 345.6 
L 460.8 345.6 
L 460.8 0 
L 0 0 
z
" style="fill: #ffffff"/>
  </g>
  <g id="axes_1">
   <g id="patch_2">
    <path d="M 57.6 307.584 
L 414.72 307.584 
L 414.72 41.472 
L 57.6 41.472 
z
" style="fill: #ffffff"/>
   </g>
   <g id="PolyCollection_1">
    <defs>
     <path id="m49e96e65ba" d="M 73.832727 -110.731104 
L 73.832727 -81.059616 
L 79.335347 -81.059616 
L 82.086656 -81.059616 
L 84.837966 -83.53224 
L 87.589276 -87.488438 
L 90.340586 -97.019683 
L 95.843205 -109.65335 
L 98.594515 -126.37849 
L 101.345824 -149.916096 
L 106.848444 -180.26617 
L 112.351063 -213.831763 
L 117.853683 -243.80041 
L 123.356302 -270.172109 
L 128.858921 -287.753242 
L 134.361541 -296.543808 
L 139.86416 -296.543808 
L 145.36678 -296.543808 
L 148.118089 -296.543808 
L 150.869399 -296.543808 
L 156.372018 -296.543808 
L 161.874638 -296.543808 
L 167.377257 -296.543808 
L 170.128567 -296.543808 
L 172.879877 -296.543808 
L 178.382496 -296.543808 
L 183.885116 -296.543808 
L 189.387735 -296.543808 
L 194.890354 -296.543808 
L 200.392974 -296.543808 
L 203.144284 -296.543808 
L 205.895593 -296.543808 
L 211.398213 -296.543808 
L 216.900832 -296.543808 
L 222.403451 -296.543808 
L 227.906071 -296.543808 
L 233.40869 -296.543808 
L 238.91131 -296.543808 
L 244.413929 -296.543808 
L 249.916549 -296.543808 
L 255.419168 -296.543808 
L 260.921787 -296.543808 
L 266.424407 -296.543808 
L 271.927026 -296.543808 
L 277.429646 -296.543808 
L 282.932265 -296.543808 
L 288.434884 -296.543808 
L 293.937504 -296.543808 
L 299.440123 -296.543808 
L 304.942743 -296.543808 
L 310.445362 -296.543808 
L 315.947982 -296.543808 
L 321.450601 -296.543808 
L 326.95322 -296.543808 
L 332.45584 -296.543808 
L 337.958459 -296.543808 
L 343.461079 -296.543808 
L 348.963698 -296.543808 
L 354.466317 -296.543808 
L 359.968937 -296.543808 
L 365.471556 -296.543808 
L 370.974176 -296.543808 
L 376.476795 -296.543808 
L 381.979414 -296.543808 
L 387.482034 -296.543808 
L 392.984653 -296.543808 
L 398.487273 -296.543808 
L 398.487273 -296.543808 
L 398.487273 -296.543808 
L 392.984653 -296.543808 
L 387.482034 -296.543808 
L 381.979414 -296.543808 
L 376.476795 -296.543808 
L 370.974176 -296.543808 
L 365.471556 -296.543808 
L 359.968937 -296.543808 
L 354.466317 -296.543808 
L 348.963698 -296.543808 
L 343.461079 -296.543808 
L 337.958459 -296.543808 
L 332.45584 -296.543808 
L 326.95322 -296.543808 
L 321.450601 -296.543808 
L 315.947982 -296.543808 
L 310.445362 -296.543808 
L 304.942743 -296.543808 
L 299.440123 -296.543808 
L 293.937504 -296.543808 
L 288.434884 -296.543808 
L 282.932265 -296.543808 
L 277.429646 -296.543808 
L 271.927026 -296.543808 
L 266.424407 -296.543808 
L 260.921787 -296.543808 
L 255.419168 -296.543808 
L 249.916549 -296.543808 
L 244.413929 -296.543808 
L 238.91131 -296.543808 
L 233.40869 -296.543808 
L 227.906071 -296.543808 
L 222.403451 -296.543808 
L 216.900832 -296.543808 
L 211.398213 -296.543808 
L 205.895593 -296.543808 
L 203.144284 -296.543808 
L 200.392974 -296.543808 
L 194.890354 -296.543808 
L 189.387735 -296.543808 
L 183.885116 -296.543808 
L 178.382496 -296.543808 
L 172.879877 -296.543808 
L 170.128567 -296.543808 
L 167.377257 -296.543808 
L 161.874638 -296.543808 
L 156.372018 -296.543808 
L 150.869399 -296.543808 
L 148.118089 -296.543808 
L 145.36678 -296.543808 
L 139.86416 -296.543808 
L 134.361541 -296.543808 
L 128.858921 -296.543808 
L 123.356302 -296.543808 
L 117.853683 -296.543808 
L 112.351063 -287.753242 
L 106.848444 -270.172109 
L 101.345824 -243.80041 
L 98.594515 -217.42871 
L 95.843205 -187.460064 
L 90.340586 -165.382747 
L 87.589276 -150.597269 
L 84.837966 -145.201848 
L 82.086656 -131.713296 
L 79.335347 -124.219656 
L 73.832727 -110.731104 
z
" style="stroke: #ff0000; stroke-opacity: 0.3"/>
    </defs>
    <g clip-path="url(#pf42599eee1)">
     <use xlink:href="#m49e96e65ba" x="0" y="345.6" style="fill: #ff0000; fill-opacity: 0.3; stroke: #ff0000; stroke-opacity: 0.3"/>
    </g>
   </g>
   <g id="matplotlib.axis_1">
    <g id="xtick_1">
     <g id="line2d_1">
      <defs>
       <path id="md44aa53854" d="M 0 0 
L 0 3.5 
" style="stroke: #000000; stroke-width: 0.8"/>
      </defs>
      <g>
       <use xlink:href="#md44aa53854" x="73.832727" y="307.584" style="stroke: #000000; stroke-width: 0.8"/>
      </g>
     </g>
     <g id="text_1">
      <!-- 0 -->
      <g transform="translate(70.651477 322.182437) scale(0.1 -0.1)">
       <defs>
        <path id="DejaVuSans-30" d="M 2034 4250 
Q 1547 4250 1301 3770 
Q 1056 3291 1056 2328 
Q 1056 1369 1301 889 
Q 1547 409 2034 409 
Q 2525 409 2770 889 
Q 3016 1369 3016 2328 
Q 3016 3291 2770 3770 
Q 2525 4250 2034 4250 
z
M 2034 4750 
Q 2819 4750 3233 4129 
Q 3647 3509 3647 2328 
Q 3647 1150 3233 529 
Q 2819 -91 2034 -91 
Q 1250 -91 836 529 
Q 422 1150 422 2328 
Q 422 3509 836 4129 
Q 1250 4750 2034 4750 
z
" transform="scale(0.015625)"/>
       </defs>
       <use xlink:href="#DejaVuSans-30"/>
      </g>
     </g>
    </g>
    <g id="xtick_2">
     <g id="line2d_2">
      <g>
       <use xlink:href="#md44aa53854" x="128.858921" y="307.584" style="stroke: #000000; stroke-width: 0.8"/>
      </g>
     </g>
     <g id="text_2">
      <!-- 10 -->
      <g transform="translate(122.496421 322.182437) scale(0.1 -0.1)">
       <defs>
        <path id="DejaVuSans-31" d="M 794 531 
L 1825 531 
L 1825 4091 
L 703 3866 
L 703 4441 
L 1819 4666 
L 2450 4666 
L 2450 531 
L 3481 531 
L 3481 0 
L 794 0 
L 794 531 
z
" transform="scale(0.015625)"/>
       </defs>
       <use xlink:href="#DejaVuSans-31"/>
       <use xlink:href="#DejaVuSans-30" x="63.623047"/>
      </g>
     </g>
    </g>
    <g id="xtick_3">
     <g id="line2d_3">
      <g>
       <use xlink:href="#md44aa53854" x="183.885116" y="307.584" style="stroke: #000000; stroke-width: 0.8"/>
      </g>
     </g>
     <g id="text_3">
      <!-- 20 -->
      <g transform="translate(177.522616 322.182437) scale(0.1 -0.1)">
       <defs>
        <path id="DejaVuSans-32" d="M 1228 531 
L 3431 531 
L 3431 0 
L 469 0 
L 469 531 
Q 828 903 1448 1529 
Q 2069 2156 2228 2338 
Q 2531 2678 2651 2914 
Q 2772 3150 2772 3378 
Q 2772 3750 2511 3984 
Q 2250 4219 1831 4219 
Q 1534 4219 1204 4116 
Q 875 4013 500 3803 
L 500 4441 
Q 881 4594 1212 4672 
Q 1544 4750 1819 4750 
Q 2544 4750 2975 4387 
Q 3406 4025 3406 3419 
Q 3406 3131 3298 2873 
Q 3191 2616 2906 2266 
Q 2828 2175 2409 1742 
Q 1991 1309 1228 531 
z
" transform="scale(0.015625)"/>
       </defs>
       <use xlink:href="#DejaVuSans-32"/>
       <use xlink:href="#DejaVuSans-30" x="63.623047"/>
      </g>
     </g>
    </g>
    <g id="xtick_4">
     <g id="line2d_4">
      <g>
       <use xlink:href="#md44aa53854" x="238.91131" y="307.584" style="stroke: #000000; stroke-width: 0.8"/>
      </g>
     </g>
     <g id="text_4">
      <!-- 30 -->
      <g transform="translate(232.54881 322.182437) scale(0.1 -0.1)">
       <defs>
        <path id="DejaVuSans-33" d="M 2597 2516 
Q 3050 2419 3304 2112 
Q 3559 1806 3559 1356 
Q 3559 666 3084 287 
Q 2609 -91 1734 -91 
Q 1441 -91 1130 -33 
Q 819 25 488 141 
L 488 750 
Q 750 597 1062 519 
Q 1375 441 1716 441 
Q 2309 441 2620 675 
Q 2931 909 2931 1356 
Q 2931 1769 2642 2001 
Q 2353 2234 1838 2234 
L 1294 2234 
L 1294 2753 
L 1863 2753 
Q 2328 2753 2575 2939 
Q 2822 3125 2822 3475 
Q 2822 3834 2567 4026 
Q 2313 4219 1838 4219 
Q 1578 4219 1281 4162 
Q 984 4106 628 3988 
L 628 4550 
Q 988 4650 1302 4700 
Q 1616 4750 1894 4750 
Q 2613 4750 3031 4423 
Q 3450 4097 3450 3541 
Q 3450 3153 3228 2886 
Q 3006 2619 2597 2516 
z
" transform="scale(0.015625)"/>
       </defs>
       <use xlink:href="#DejaVuSans-33"/>
       <use xlink:href="#DejaVuSans-30" x="63.623047"/>
      </g>
     </g>
    </g>
    <g id="xtick_5">
     <g id="line2d_5">
      <g>
       <use xlink:href="#md44aa53854" x="293.937504" y="307.584" style="stroke: #000000; stroke-width: 0.8"/>
      </g>
     </g>
     <g id="text_5">
      <!-- 40 -->
      <g transform="translate(287.575004 322.182437) scale(0.1 -0.1)">
       <defs>
        <path id="DejaVuSans-34" d="M 2419 4116 
L 825 1625 
L 2419 1625 
L 2419 4116 
z
M 2253 4666 
L 3047 4666 
L 3047 1625 
L 3713 1625 
L 3713 1100 
L 3047 1100 
L 3047 0 
L 2419 0 
L 2419 1100 
L 313 1100 
L 313 1709 
L 2253 4666 
z
" transform="scale(0.015625)"/>
       </defs>
       <use xlink:href="#DejaVuSans-34"/>
       <use xlink:href="#DejaVuSans-30" x="63.623047"/>
      </g>
     </g>
    </g>
    <g id="xtick_6">
     <g id="line2d_6">
      <g>
       <use xlink:href="#md44aa53854" x="348.963698" y="307.584" style="stroke: #000000; stroke-width: 0.8"/>
      </g>
     </g>
     <g id="text_6">
      <!-- 50 -->
      <g transform="translate(342.601198 322.182437) scale(0.1 -0.1)">
       <defs>
        <path id="DejaVuSans-35" d="M 691 4666 
L 3169 4666 
L 3169 4134 
L 1269 4134 
L 1269 2991 
Q 1406 3038 1543 3061 
Q 1681 3084 1819 3084 
Q 2600 3084 3056 2656 
Q 3513 2228 3513 1497 
Q 3513 744 3044 326 
Q 2575 -91 1722 -91 
Q 1428 -91 1123 -41 
Q 819 9 494 109 
L 494 744 
Q 775 591 1075 516 
Q 1375 441 1709 441 
Q 2250 441 2565 725 
Q 2881 1009 2881 1497 
Q 2881 1984 2565 2268 
Q 2250 2553 1709 2553 
Q 1456 2553 1204 2497 
Q 953 2441 691 2322 
L 691 4666 
z
" transform="scale(0.015625)"/>
       </defs>
       <use xlink:href="#DejaVuSans-35"/>
       <use xlink:href="#DejaVuSans-30" x="63.623047"/>
      </g>
     </g>
    </g>
    <g id="xtick_7">
     <g id="line2d_7">
      <g>
       <use xlink:href="#md44aa53854" x="403.989892" y="307.584" style="stroke: #000000; stroke-width: 0.8"/>
      </g>
     </g>
     <g id="text_7">
      <!-- 60 -->
      <g transform="translate(397.627392 322.182437) scale(0.1 -0.1)">
       <defs>
        <path id="DejaVuSans-36" d="M 2113 2584 
Q 1688 2584 1439 2293 
Q 1191 2003 1191 1497 
Q 1191 994 1439 701 
Q 1688 409 2113 409 
Q 2538 409 2786 701 
Q 3034 994 3034 1497 
Q 3034 2003 2786 2293 
Q 2538 2584 2113 2584 
z
M 3366 4563 
L 3366 3988 
Q 3128 4100 2886 4159 
Q 2644 4219 2406 4219 
Q 1781 4219 1451 3797 
Q 1122 3375 1075 2522 
Q 1259 2794 1537 2939 
Q 1816 3084 2150 3084 
Q 2853 3084 3261 2657 
Q 3669 2231 3669 1497 
Q 3669 778 3244 343 
Q 2819 -91 2113 -91 
Q 1303 -91 875 529 
Q 447 1150 447 2328 
Q 447 3434 972 4092 
Q 1497 4750 2381 4750 
Q 2619 4750 2861 4703 
Q 3103 4656 3366 4563 
z
" transform="scale(0.015625)"/>
       </defs>
       <use xlink:href="#DejaVuSans-36"/>
       <use xlink:href="#DejaVuSans-30" x="63.623047"/>
      </g>
     </g>
    </g>
   </g>
   <g id="matplotlib.axis_2">
    <g id="ytick_1">
     <g id="line2d_8">
      <defs>
       <path id="m9fcaffe8fd" d="M 0 0 
L -3.5 0 
" style="stroke: #000000; stroke-width: 0.8"/>
      </defs>
      <g>
       <use xlink:href="#m9fcaffe8fd" x="57.6" y="307.584" style="stroke: #000000; stroke-width: 0.8"/>
      </g>
     </g>
     <g id="text_8">
      <!-- 0 -->
      <g transform="translate(44.2375 311.383219) scale(0.1 -0.1)">
       <use xlink:href="#DejaVuSans-30"/>
      </g>
     </g>
    </g>
    <g id="ytick_2">
     <g id="line2d_9">
      <g>
       <use xlink:href="#m9fcaffe8fd" x="57.6" y="274.32" style="stroke: #000000; stroke-width: 0.8"/>
      </g>
     </g>
     <g id="text_9">
      <!-- 500 -->
      <g transform="translate(31.5125 278.119219) scale(0.1 -0.1)">
       <use xlink:href="#DejaVuSans-35"/>
       <use xlink:href="#DejaVuSans-30" x="63.623047"/>
       <use xlink:href="#DejaVuSans-30" x="127.246094"/>
      </g>
     </g>
    </g>
    <g id="ytick_3">
     <g id="line2d_10">
      <g>
       <use xlink:href="#m9fcaffe8fd" x="57.6" y="241.056" style="stroke: #000000; stroke-width: 0.8"/>
      </g>
     </g>
     <g id="text_10">
      <!-- 1000 -->
      <g transform="translate(25.15 244.855219) scale(0.1 -0.1)">
       <use xlink:href="#DejaVuSans-31"/>
       <use xlink:href="#DejaVuSans-30" x="63.623047"/>
       <use xlink:href="#DejaVuSans-30" x="127.246094"/>
       <use xlink:href="#DejaVuSans-30" x="190.869141"/>
      </g>
     </g>
    </g>
    <g id="ytick_4">
     <g id="line2d_11">
      <g>
       <use xlink:href="#m9fcaffe8fd" x="57.6" y="207.792" style="stroke: #000000; stroke-width: 0.8"/>
      </g>
     </g>
     <g id="text_11">
      <!-- 1500 -->
      <g transform="translate(25.15 211.591219) scale(0.1 -0.1)">
       <use xlink:href="#DejaVuSans-31"/>
       <use xlink:href="#DejaVuSans-35" x="63.623047"/>
       <use xlink:href="#DejaVuSans-30" x="127.246094"/>
       <use xlink:href="#DejaVuSans-30" x="190.869141"/>
      </g>
     </g>
    </g>
    <g id="ytick_5">
     <g id="line2d_12">
      <g>
       <use xlink:href="#m9fcaffe8fd" x="57.6" y="174.528" style="stroke: #000000; stroke-width: 0.8"/>
      </g>
     </g>
     <g id="text_12">
      <!-- 2000 -->
      <g transform="translate(25.15 178.327219) scale(0.1 -0.1)">
       <use xlink:href="#DejaVuSans-32"/>
       <use xlink:href="#DejaVuSans-30" x="63.623047"/>
       <use xlink:href="#DejaVuSans-30" x="127.246094"/>
       <use xlink:href="#DejaVuSans-30" x="190.869141"/>
      </g>
     </g>
    </g>
    <g id="ytick_6">
     <g id="line2d_13">
      <g>
       <use xlink:href="#m9fcaffe8fd" x="57.6" y="141.264" style="stroke: #000000; stroke-width: 0.8"/>
      </g>
     </g>
     <g id="text_13">
      <!-- 2500 -->
      <g transform="translate(25.15 145.063219) scale(0.1 -0.1)">
       <use xlink:href="#DejaVuSans-32"/>
       <use xlink:href="#DejaVuSans-35" x="63.623047"/>
       <use xlink:href="#DejaVuSans-30" x="127.246094"/>
       <use xlink:href="#DejaVuSans-30" x="190.869141"/>
      </g>
     </g>
    </g>
    <g id="ytick_7">
     <g id="line2d_14">
      <g>
       <use xlink:href="#m9fcaffe8fd" x="57.6" y="108" style="stroke: #000000; stroke-width: 0.8"/>
      </g>
     </g>
     <g id="text_14">
      <!-- 3000 -->
      <g transform="translate(25.15 111.799219) scale(0.1 -0.1)">
       <use xlink:href="#DejaVuSans-33"/>
       <use xlink:href="#DejaVuSans-30" x="63.623047"/>
       <use xlink:href="#DejaVuSans-30" x="127.246094"/>
       <use xlink:href="#DejaVuSans-30" x="190.869141"/>
      </g>
     </g>
    </g>
    <g id="ytick_8">
     <g id="line2d_15">
      <g>
       <use xlink:href="#m9fcaffe8fd" x="57.6" y="74.736" style="stroke: #000000; stroke-width: 0.8"/>
      </g>
     </g>
     <g id="text_15">
      <!-- 3500 -->
      <g transform="translate(25.15 78.535219) scale(0.1 -0.1)">
       <use xlink:href="#DejaVuSans-33"/>
       <use xlink:href="#DejaVuSans-35" x="63.623047"/>
       <use xlink:href="#DejaVuSans-30" x="127.246094"/>
       <use xlink:href="#DejaVuSans-30" x="190.869141"/>
      </g>
     </g>
    </g>
    <g id="ytick_9">
     <g id="line2d_16">
      <g>
       <use xlink:href="#m9fcaffe8fd" x="57.6" y="41.472" style="stroke: #000000; stroke-width: 0.8"/>
      </g>
     </g>
     <g id="text_16">
      <!-- 4000 -->
      <g transform="translate(25.15 45.271219) scale(0.1 -0.1)">
       <use xlink:href="#DejaVuSans-34"/>
       <use xlink:href="#DejaVuSans-30" x="63.623047"/>
       <use xlink:href="#DejaVuSans-30" x="127.246094"/>
       <use xlink:href="#DejaVuSans-30" x="190.869141"/>
      </g>
     </g>
    </g>
    <g id="text_17">
     <!-- bitrate(kbps) -->
     <g transform="translate(19.070312 206.957687) rotate(-90) scale(0.1 -0.1)">
      <defs>
       <path id="DejaVuSans-62" d="M 3116 1747 
Q 3116 2381 2855 2742 
Q 2594 3103 2138 3103 
Q 1681 3103 1420 2742 
Q 1159 2381 1159 1747 
Q 1159 1113 1420 752 
Q 1681 391 2138 391 
Q 2594 391 2855 752 
Q 3116 1113 3116 1747 
z
M 1159 2969 
Q 1341 3281 1617 3432 
Q 1894 3584 2278 3584 
Q 2916 3584 3314 3078 
Q 3713 2572 3713 1747 
Q 3713 922 3314 415 
Q 2916 -91 2278 -91 
Q 1894 -91 1617 61 
Q 1341 213 1159 525 
L 1159 0 
L 581 0 
L 581 4863 
L 1159 4863 
L 1159 2969 
z
" transform="scale(0.015625)"/>
       <path id="DejaVuSans-69" d="M 603 3500 
L 1178 3500 
L 1178 0 
L 603 0 
L 603 3500 
z
M 603 4863 
L 1178 4863 
L 1178 4134 
L 603 4134 
L 603 4863 
z
" transform="scale(0.015625)"/>
       <path id="DejaVuSans-74" d="M 1172 4494 
L 1172 3500 
L 2356 3500 
L 2356 3053 
L 1172 3053 
L 1172 1153 
Q 1172 725 1289 603 
Q 1406 481 1766 481 
L 2356 481 
L 2356 0 
L 1766 0 
Q 1100 0 847 248 
Q 594 497 594 1153 
L 594 3053 
L 172 3053 
L 172 3500 
L 594 3500 
L 594 4494 
L 1172 4494 
z
" transform="scale(0.015625)"/>
       <path id="DejaVuSans-72" d="M 2631 2963 
Q 2534 3019 2420 3045 
Q 2306 3072 2169 3072 
Q 1681 3072 1420 2755 
Q 1159 2438 1159 1844 
L 1159 0 
L 581 0 
L 581 3500 
L 1159 3500 
L 1159 2956 
Q 1341 3275 1631 3429 
Q 1922 3584 2338 3584 
Q 2397 3584 2469 3576 
Q 2541 3569 2628 3553 
L 2631 2963 
z
" transform="scale(0.015625)"/>
       <path id="DejaVuSans-61" d="M 2194 1759 
Q 1497 1759 1228 1600 
Q 959 1441 959 1056 
Q 959 750 1161 570 
Q 1363 391 1709 391 
Q 2188 391 2477 730 
Q 2766 1069 2766 1631 
L 2766 1759 
L 2194 1759 
z
M 3341 1997 
L 3341 0 
L 2766 0 
L 2766 531 
Q 2569 213 2275 61 
Q 1981 -91 1556 -91 
Q 1019 -91 701 211 
Q 384 513 384 1019 
Q 384 1609 779 1909 
Q 1175 2209 1959 2209 
L 2766 2209 
L 2766 2266 
Q 2766 2663 2505 2880 
Q 2244 3097 1772 3097 
Q 1472 3097 1187 3025 
Q 903 2953 641 2809 
L 641 3341 
Q 956 3463 1253 3523 
Q 1550 3584 1831 3584 
Q 2591 3584 2966 3190 
Q 3341 2797 3341 1997 
z
" transform="scale(0.015625)"/>
       <path id="DejaVuSans-65" d="M 3597 1894 
L 3597 1613 
L 953 1613 
Q 991 1019 1311 708 
Q 1631 397 2203 397 
Q 2534 397 2845 478 
Q 3156 559 3463 722 
L 3463 178 
Q 3153 47 2828 -22 
Q 2503 -91 2169 -91 
Q 1331 -91 842 396 
Q 353 884 353 1716 
Q 353 2575 817 3079 
Q 1281 3584 2069 3584 
Q 2775 3584 3186 3129 
Q 3597 2675 3597 1894 
z
M 3022 2063 
Q 3016 2534 2758 2815 
Q 2500 3097 2075 3097 
Q 1594 3097 1305 2825 
Q 1016 2553 972 2059 
L 3022 2063 
z
" transform="scale(0.015625)"/>
       <path id="DejaVuSans-28" d="M 1984 4856 
Q 1566 4138 1362 3434 
Q 1159 2731 1159 2009 
Q 1159 1288 1364 580 
Q 1569 -128 1984 -844 
L 1484 -844 
Q 1016 -109 783 600 
Q 550 1309 550 2009 
Q 550 2706 781 3412 
Q 1013 4119 1484 4856 
L 1984 4856 
z
" transform="scale(0.015625)"/>
       <path id="DejaVuSans-6b" d="M 581 4863 
L 1159 4863 
L 1159 1991 
L 2875 3500 
L 3609 3500 
L 1753 1863 
L 3688 0 
L 2938 0 
L 1159 1709 
L 1159 0 
L 581 0 
L 581 4863 
z
" transform="scale(0.015625)"/>
       <path id="DejaVuSans-70" d="M 1159 525 
L 1159 -1331 
L 581 -1331 
L 581 3500 
L 1159 3500 
L 1159 2969 
Q 1341 3281 1617 3432 
Q 1894 3584 2278 3584 
Q 2916 3584 3314 3078 
Q 3713 2572 3713 1747 
Q 3713 922 3314 415 
Q 2916 -91 2278 -91 
Q 1894 -91 1617 61 
Q 1341 213 1159 525 
z
M 3116 1747 
Q 3116 2381 2855 2742 
Q 2594 3103 2138 3103 
Q 1681 3103 1420 2742 
Q 1159 2381 1159 1747 
Q 1159 1113 1420 752 
Q 1681 391 2138 391 
Q 2594 391 2855 752 
Q 3116 1113 3116 1747 
z
" transform="scale(0.015625)"/>
       <path id="DejaVuSans-73" d="M 2834 3397 
L 2834 2853 
Q 2591 2978 2328 3040 
Q 2066 3103 1784 3103 
Q 1356 3103 1142 2972 
Q 928 2841 928 2578 
Q 928 2378 1081 2264 
Q 1234 2150 1697 2047 
L 1894 2003 
Q 2506 1872 2764 1633 
Q 3022 1394 3022 966 
Q 3022 478 2636 193 
Q 2250 -91 1575 -91 
Q 1294 -91 989 -36 
Q 684 19 347 128 
L 347 722 
Q 666 556 975 473 
Q 1284 391 1588 391 
Q 1994 391 2212 530 
Q 2431 669 2431 922 
Q 2431 1156 2273 1281 
Q 2116 1406 1581 1522 
L 1381 1569 
Q 847 1681 609 1914 
Q 372 2147 372 2553 
Q 372 3047 722 3315 
Q 1072 3584 1716 3584 
Q 2034 3584 2315 3537 
Q 2597 3491 2834 3397 
z
" transform="scale(0.015625)"/>
       <path id="DejaVuSans-29" d="M 513 4856 
L 1013 4856 
Q 1481 4119 1714 3412 
Q 1947 2706 1947 2009 
Q 1947 1309 1714 600 
Q 1481 -109 1013 -844 
L 513 -844 
Q 928 -128 1133 580 
Q 1338 1288 1338 2009 
Q 1338 2731 1133 3434 
Q 928 4138 513 4856 
z
" transform="scale(0.015625)"/>
      </defs>
      <use xlink:href="#DejaVuSans-62"/>
      <use xlink:href="#DejaVuSans-69" x="63.476562"/>
      <use xlink:href="#DejaVuSans-74" x="91.259766"/>
      <use xlink:href="#DejaVuSans-72" x="130.46875"/>
      <use xlink:href="#DejaVuSans-61" x="171.582031"/>
      <use xlink:href="#DejaVuSans-74" x="232.861328"/>
      <use xlink:href="#DejaVuSans-65" x="272.070312"/>
      <use xlink:href="#DejaVuSans-28" x="333.59375"/>
      <use xlink:href="#DejaVuSans-6b" x="372.607422"/>
      <use xlink:href="#DejaVuSans-62" x="430.517578"/>
      <use xlink:href="#DejaVuSans-70" x="493.994141"/>
      <use xlink:href="#DejaVuSans-73" x="557.470703"/>
      <use xlink:href="#DejaVuSans-29" x="609.570312"/>
     </g>
    </g>
   </g>
   <g id="line2d_17">
    <path d="M 73.832727 264.540384 
L 79.335347 264.540384 
L 82.086656 261.243552 
L 84.837966 256.298304 
L 87.589276 246.767059 
L 90.340586 234.9576 
L 95.843205 219.22151 
L 98.594515 195.683904 
L 101.345824 165.33383 
L 106.848444 131.768237 
L 112.351063 101.79959 
L 117.853683 75.427891 
L 123.356302 57.846758 
L 128.858921 49.056192 
L 134.361541 49.056192 
L 139.86416 49.056192 
L 145.36678 49.056192 
L 148.118089 49.056192 
L 150.869399 49.056192 
L 156.372018 49.056192 
L 161.874638 49.056192 
L 167.377257 49.056192 
L 170.128567 49.056192 
L 172.879877 49.056192 
L 178.382496 49.056192 
L 183.885116 49.056192 
L 189.387735 49.056192 
L 194.890354 49.056192 
L 200.392974 49.056192 
L 203.144284 49.056192 
L 205.895593 49.056192 
L 211.398213 49.056192 
L 216.900832 49.056192 
L 222.403451 49.056192 
L 227.906071 49.056192 
L 233.40869 49.056192 
L 238.91131 49.056192 
L 244.413929 49.056192 
L 249.916549 49.056192 
L 255.419168 49.056192 
L 260.921787 49.056192 
L 266.424407 49.056192 
L 271.927026 49.056192 
L 277.429646 49.056192 
L 282.932265 49.056192 
L 288.434884 49.056192 
L 293.937504 49.056192 
L 299.440123 49.056192 
L 304.942743 49.056192 
L 310.445362 49.056192 
L 315.947982 49.056192 
L 321.450601 49.056192 
L 326.95322 49.056192 
L 332.45584 49.056192 
L 337.958459 49.056192 
L 343.461079 49.056192 
L 348.963698 49.056192 
L 354.466317 49.056192 
L 359.968937 49.056192 
L 365.471556 49.056192 
L 370.974176 49.056192 
L 376.476795 49.056192 
L 381.979414 49.056192 
L 387.482034 49.056192 
L 392.984653 49.056192 
L 398.487273 49.056192 
" clip-path="url(#pf42599eee1)" style="fill: none; stroke: #1f77b4; stroke-opacity: 0.1; stroke-width: 1.5; stroke-linecap: square"/>
   </g>
   <g id="line2d_18">
    <path d="M 73.832727 234.868896 
L 79.335347 221.380344 
L 82.086656 213.886704 
L 84.837966 200.398152 
L 87.589276 195.002731 
L 90.340586 180.217253 
L 95.843205 158.139936 
L 98.594515 128.17129 
L 101.345824 101.79959 
L 106.848444 75.427891 
L 112.351063 57.846758 
L 117.853683 49.056192 
L 123.356302 49.056192 
L 128.858921 49.056192 
L 134.361541 49.056192 
L 139.86416 49.056192 
L 145.36678 49.056192 
L 148.118089 49.056192 
L 150.869399 49.056192 
L 156.372018 49.056192 
L 161.874638 49.056192 
L 167.377257 49.056192 
L 170.128567 49.056192 
L 172.879877 49.056192 
L 178.382496 49.056192 
L 183.885116 49.056192 
L 189.387735 49.056192 
L 194.890354 49.056192 
L 200.392974 49.056192 
L 203.144284 49.056192 
L 205.895593 49.056192 
L 211.398213 49.056192 
L 216.900832 49.056192 
L 222.403451 49.056192 
L 227.906071 49.056192 
L 233.40869 49.056192 
L 238.91131 49.056192 
L 244.413929 49.056192 
L 249.916549 49.056192 
L 255.419168 49.056192 
L 260.921787 49.056192 
L 266.424407 49.056192 
L 271.927026 49.056192 
L 277.429646 49.056192 
L 282.932265 49.056192 
L 288.434884 49.056192 
L 293.937504 49.056192 
L 299.440123 49.056192 
L 304.942743 49.056192 
L 310.445362 49.056192 
L 315.947982 49.056192 
L 321.450601 49.056192 
L 326.95322 49.056192 
L 332.45584 49.056192 
L 337.958459 49.056192 
L 343.461079 49.056192 
L 348.963698 49.056192 
L 354.466317 49.056192 
L 359.968937 49.056192 
L 365.471556 49.056192 
L 370.974176 49.056192 
L 376.476795 49.056192 
L 381.979414 49.056192 
L 387.482034 49.056192 
L 392.984653 49.056192 
L 398.487273 49.056192 
" clip-path="url(#pf42599eee1)" style="fill: none; stroke: #ff7f0e; stroke-opacity: 0.1; stroke-width: 1.5; stroke-linecap: square"/>
   </g>
   <g id="line2d_19">
    <path d="M 73.832727 264.540384 
L 79.335347 264.540384 
L 82.086656 264.540384 
L 84.837966 262.06776 
L 87.589276 258.111562 
L 90.340586 248.580317 
L 95.843205 235.94665 
L 98.594515 210.430944 
L 101.345824 178.102771 
L 106.848444 138.962131 
L 112.351063 105.396538 
L 117.853683 75.427891 
L 123.356302 57.846758 
L 128.858921 49.056192 
L 134.361541 49.056192 
L 139.86416 49.056192 
L 145.36678 49.056192 
L 148.118089 49.056192 
L 150.869399 49.056192 
L 156.372018 49.056192 
L 161.874638 49.056192 
L 167.377257 49.056192 
L 170.128567 49.056192 
L 172.879877 49.056192 
L 178.382496 49.056192 
L 183.885116 49.056192 
L 189.387735 49.056192 
L 194.890354 49.056192 
L 200.392974 49.056192 
L 203.144284 49.056192 
L 205.895593 49.056192 
L 211.398213 49.056192 
L 216.900832 49.056192 
L 222.403451 49.056192 
L 227.906071 49.056192 
L 233.40869 49.056192 
L 238.91131 49.056192 
L 244.413929 49.056192 
L 249.916549 49.056192 
L 255.419168 49.056192 
L 260.921787 49.056192 
L 266.424407 49.056192 
L 271.927026 49.056192 
L 277.429646 49.056192 
L 282.932265 49.056192 
L 288.434884 49.056192 
L 293.937504 49.056192 
L 299.440123 49.056192 
L 304.942743 49.056192 
L 310.445362 49.056192 
L 315.947982 49.056192 
L 321.450601 49.056192 
L 326.95322 49.056192 
L 332.45584 49.056192 
L 337.958459 49.056192 
L 343.461079 49.056192 
L 348.963698 49.056192 
L 354.466317 49.056192 
L 359.968937 49.056192 
L 365.471556 49.056192 
L 370.974176 49.056192 
L 376.476795 49.056192 
L 381.979414 49.056192 
L 387.482034 49.056192 
L 392.984653 49.056192 
L 398.487273 49.056192 
" clip-path="url(#pf42599eee1)" style="fill: none; stroke: #2ca02c; stroke-opacity: 0.1; stroke-width: 1.5; stroke-linecap: square"/>
   </g>
   <g id="line2d_20">
    <path d="M 73.832727 264.540384 
L 79.335347 264.540384 
L 82.086656 261.243552 
L 84.837966 256.298304 
L 87.589276 246.767059 
L 90.340586 234.9576 
L 95.843205 219.22151 
L 98.594515 195.683904 
L 101.345824 165.33383 
L 106.848444 131.768237 
L 112.351063 101.79959 
L 117.853683 75.427891 
L 123.356302 57.846758 
L 128.858921 49.056192 
L 134.361541 49.056192 
L 139.86416 49.056192 
L 145.36678 49.056192 
L 148.118089 49.056192 
L 150.869399 49.056192 
L 156.372018 49.056192 
L 161.874638 49.056192 
L 167.377257 49.056192 
L 170.128567 49.056192 
L 172.879877 49.056192 
L 178.382496 49.056192 
L 183.885116 49.056192 
L 189.387735 49.056192 
L 194.890354 49.056192 
L 200.392974 49.056192 
L 203.144284 49.056192 
L 205.895593 49.056192 
L 211.398213 49.056192 
L 216.900832 49.056192 
L 222.403451 49.056192 
L 227.906071 49.056192 
L 233.40869 49.056192 
L 238.91131 49.056192 
L 244.413929 49.056192 
L 249.916549 49.056192 
L 255.419168 49.056192 
L 260.921787 49.056192 
L 266.424407 49.056192 
L 271.927026 49.056192 
L 277.429646 49.056192 
L 282.932265 49.056192 
L 288.434884 49.056192 
L 293.937504 49.056192 
L 299.440123 49.056192 
L 304.942743 49.056192 
L 310.445362 49.056192 
L 315.947982 49.056192 
L 321.450601 49.056192 
L 326.95322 49.056192 
L 332.45584 49.056192 
L 337.958459 49.056192 
L 343.461079 49.056192 
L 348.963698 49.056192 
L 354.466317 49.056192 
L 359.968937 49.056192 
L 365.471556 49.056192 
L 370.974176 49.056192 
L 376.476795 49.056192 
L 381.979414 49.056192 
L 387.482034 49.056192 
L 392.984653 49.056192 
L 398.487273 49.056192 
" clip-path="url(#pf42599eee1)" style="fill: none; stroke: #d62728; stroke-opacity: 0.1; stroke-width: 1.5; stroke-linecap: square"/>
   </g>
   <g id="line2d_21">
    <path d="M 73.832727 264.540384 
L 79.335347 264.540384 
L 82.086656 261.243552 
L 84.837966 256.298304 
L 87.589276 246.767059 
L 90.340586 234.9576 
L 95.843205 219.22151 
L 98.594515 195.683904 
L 101.345824 165.33383 
L 106.848444 131.768237 
L 112.351063 101.79959 
L 117.853683 75.427891 
L 123.356302 57.846758 
L 128.858921 49.056192 
L 134.361541 49.056192 
L 139.86416 49.056192 
L 145.36678 49.056192 
L 148.118089 49.056192 
L 150.869399 49.056192 
L 156.372018 49.056192 
L 161.874638 49.056192 
L 167.377257 49.056192 
L 170.128567 49.056192 
L 172.879877 49.056192 
L 178.382496 49.056192 
L 183.885116 49.056192 
L 189.387735 49.056192 
L 194.890354 49.056192 
L 200.392974 49.056192 
L 203.144284 49.056192 
L 205.895593 49.056192 
L 211.398213 49.056192 
L 216.900832 49.056192 
L 222.403451 49.056192 
L 227.906071 49.056192 
L 233.40869 49.056192 
L 238.91131 49.056192 
L 244.413929 49.056192 
L 249.916549 49.056192 
L 255.419168 49.056192 
L 260.921787 49.056192 
L 266.424407 49.056192 
L 271.927026 49.056192 
L 277.429646 49.056192 
L 282.932265 49.056192 
L 288.434884 49.056192 
L 293.937504 49.056192 
L 299.440123 49.056192 
L 304.942743 49.056192 
L 310.445362 49.056192 
L 315.947982 49.056192 
L 321.450601 49.056192 
L 326.95322 49.056192 
L 332.45584 49.056192 
L 337.958459 49.056192 
L 343.461079 49.056192 
L 348.963698 49.056192 
L 354.466317 49.056192 
L 359.968937 49.056192 
L 365.471556 49.056192 
L 370.974176 49.056192 
L 376.476795 49.056192 
L 381.979414 49.056192 
L 387.482034 49.056192 
L 392.984653 49.056192 
L 398.487273 49.056192 
" clip-path="url(#pf42599eee1)" style="fill: none; stroke: #9467bd; stroke-opacity: 0.1; stroke-width: 1.5; stroke-linecap: square"/>
   </g>
   <g id="line2d_22">
    <path d="M 73.832727 234.868896 
L 79.335347 221.380344 
L 82.086656 213.886704 
L 84.837966 200.398152 
L 87.589276 195.002731 
L 90.340586 180.217253 
L 95.843205 158.139936 
L 98.594515 128.17129 
L 101.345824 101.79959 
L 106.848444 75.427891 
L 112.351063 57.846758 
L 117.853683 49.056192 
L 123.356302 49.056192 
L 128.858921 49.056192 
L 134.361541 49.056192 
L 139.86416 49.056192 
L 145.36678 49.056192 
L 148.118089 49.056192 
L 150.869399 49.056192 
L 156.372018 49.056192 
L 161.874638 49.056192 
L 167.377257 49.056192 
L 170.128567 49.056192 
L 172.879877 49.056192 
L 178.382496 49.056192 
L 183.885116 49.056192 
L 189.387735 49.056192 
L 194.890354 49.056192 
L 200.392974 49.056192 
L 203.144284 49.056192 
L 205.895593 49.056192 
L 211.398213 49.056192 
L 216.900832 49.056192 
L 222.403451 49.056192 
L 227.906071 49.056192 
L 233.40869 49.056192 
L 238.91131 49.056192 
L 244.413929 49.056192 
L 249.916549 49.056192 
L 255.419168 49.056192 
L 260.921787 49.056192 
L 266.424407 49.056192 
L 271.927026 49.056192 
L 277.429646 49.056192 
L 282.932265 49.056192 
L 288.434884 49.056192 
L 293.937504 49.056192 
L 299.440123 49.056192 
L 304.942743 49.056192 
L 310.445362 49.056192 
L 315.947982 49.056192 
L 321.450601 49.056192 
L 326.95322 49.056192 
L 332.45584 49.056192 
L 337.958459 49.056192 
L 343.461079 49.056192 
L 348.963698 49.056192 
L 354.466317 49.056192 
L 359.968937 49.056192 
L 365.471556 49.056192 
L 370.974176 49.056192 
L 376.476795 49.056192 
L 381.979414 49.056192 
L 387.482034 49.056192 
L 392.984653 49.056192 
L 398.487273 49.056192 
" clip-path="url(#pf42599eee1)" style="fill: none; stroke: #8c564b; stroke-opacity: 0.1; stroke-width: 1.5; stroke-linecap: square"/>
   </g>
   <g id="line2d_23">
    <path d="M 73.832727 264.540384 
L 79.335347 264.540384 
L 82.086656 261.243552 
L 84.837966 256.298304 
L 87.589276 246.767059 
L 90.340586 234.9576 
L 95.843205 219.22151 
L 98.594515 195.683904 
L 101.345824 165.33383 
L 106.848444 131.768237 
L 112.351063 101.79959 
L 117.853683 75.427891 
L 123.356302 57.846758 
L 128.858921 49.056192 
L 134.361541 49.056192 
L 139.86416 49.056192 
L 145.36678 49.056192 
L 148.118089 49.056192 
L 150.869399 49.056192 
L 156.372018 49.056192 
L 161.874638 49.056192 
L 167.377257 49.056192 
L 170.128567 49.056192 
L 172.879877 49.056192 
L 178.382496 49.056192 
L 183.885116 49.056192 
L 189.387735 49.056192 
L 194.890354 49.056192 
L 200.392974 49.056192 
L 203.144284 49.056192 
L 205.895593 49.056192 
L 211.398213 49.056192 
L 216.900832 49.056192 
L 222.403451 49.056192 
L 227.906071 49.056192 
L 233.40869 49.056192 
L 238.91131 49.056192 
L 244.413929 49.056192 
L 249.916549 49.056192 
L 255.419168 49.056192 
L 260.921787 49.056192 
L 266.424407 49.056192 
L 271.927026 49.056192 
L 277.429646 49.056192 
L 282.932265 49.056192 
L 288.434884 49.056192 
L 293.937504 49.056192 
L 299.440123 49.056192 
L 304.942743 49.056192 
L 310.445362 49.056192 
L 315.947982 49.056192 
L 321.450601 49.056192 
L 326.95322 49.056192 
L 332.45584 49.056192 
L 337.958459 49.056192 
L 343.461079 49.056192 
L 348.963698 49.056192 
L 354.466317 49.056192 
L 359.968937 49.056192 
L 365.471556 49.056192 
L 370.974176 49.056192 
L 376.476795 49.056192 
L 381.979414 49.056192 
L 387.482034 49.056192 
L 392.984653 49.056192 
L 398.487273 49.056192 
" clip-path="url(#pf42599eee1)" style="fill: none; stroke: #e377c2; stroke-opacity: 0.1; stroke-width: 1.5; stroke-linecap: square"/>
   </g>
   <g id="line2d_24">
    <path d="M 73.832727 264.540384 
L 79.335347 264.540384 
L 82.086656 261.243552 
L 84.837966 256.298304 
L 87.589276 246.767059 
L 90.340586 234.9576 
L 95.843205 210.430944 
L 98.594515 178.102771 
L 101.345824 138.962131 
L 106.848444 105.396538 
L 112.351063 75.427891 
L 117.853683 57.846758 
L 123.356302 49.056192 
L 128.858921 49.056192 
L 134.361541 49.056192 
L 139.86416 49.056192 
L 145.36678 49.056192 
L 148.118089 49.056192 
L 150.869399 49.056192 
L 156.372018 49.056192 
L 161.874638 49.056192 
L 167.377257 49.056192 
L 170.128567 49.056192 
L 172.879877 49.056192 
L 178.382496 49.056192 
L 183.885116 49.056192 
L 189.387735 49.056192 
L 194.890354 49.056192 
L 200.392974 49.056192 
L 203.144284 49.056192 
L 205.895593 49.056192 
L 211.398213 49.056192 
L 216.900832 49.056192 
L 222.403451 49.056192 
L 227.906071 49.056192 
L 233.40869 49.056192 
L 238.91131 49.056192 
L 244.413929 49.056192 
L 249.916549 49.056192 
L 255.419168 49.056192 
L 260.921787 49.056192 
L 266.424407 49.056192 
L 271.927026 49.056192 
L 277.429646 49.056192 
L 282.932265 49.056192 
L 288.434884 49.056192 
L 293.937504 49.056192 
L 299.440123 49.056192 
L 304.942743 49.056192 
L 310.445362 49.056192 
L 315.947982 49.056192 
L 321.450601 49.056192 
L 326.95322 49.056192 
L 332.45584 49.056192 
L 337.958459 49.056192 
L 343.461079 49.056192 
L 348.963698 49.056192 
L 354.466317 49.056192 
L 359.968937 49.056192 
L 365.471556 49.056192 
L 370.974176 49.056192 
L 376.476795 49.056192 
L 381.979414 49.056192 
L 387.482034 49.056192 
L 392.984653 49.056192 
L 398.487273 49.056192 
" clip-path="url(#pf42599eee1)" style="fill: none; stroke: #7f7f7f; stroke-opacity: 0.1; stroke-width: 1.5; stroke-linecap: square"/>
   </g>
   <g id="line2d_25">
    <path d="M 73.832727 264.540384 
L 79.335347 264.540384 
L 82.086656 264.540384 
L 84.837966 262.06776 
L 87.589276 254.514614 
L 90.340586 241.386422 
L 95.843205 216.365242 
L 98.594515 182.05897 
L 101.345824 140.94023 
L 106.848444 105.396538 
L 112.351063 75.427891 
L 117.853683 57.846758 
L 123.356302 49.056192 
L 128.858921 49.056192 
L 134.361541 49.056192 
L 139.86416 49.056192 
L 145.36678 49.056192 
L 148.118089 49.056192 
L 150.869399 49.056192 
L 156.372018 49.056192 
L 161.874638 49.056192 
L 167.377257 49.056192 
L 170.128567 49.056192 
L 172.879877 49.056192 
L 178.382496 49.056192 
L 183.885116 49.056192 
L 189.387735 49.056192 
L 194.890354 49.056192 
L 200.392974 49.056192 
L 203.144284 49.056192 
L 205.895593 49.056192 
L 211.398213 49.056192 
L 216.900832 49.056192 
L 222.403451 49.056192 
L 227.906071 49.056192 
L 233.40869 49.056192 
L 238.91131 49.056192 
L 244.413929 49.056192 
L 249.916549 49.056192 
L 255.419168 49.056192 
L 260.921787 49.056192 
L 266.424407 49.056192 
L 271.927026 49.056192 
L 277.429646 49.056192 
L 282.932265 49.056192 
L 288.434884 49.056192 
L 293.937504 49.056192 
L 299.440123 49.056192 
L 304.942743 49.056192 
L 310.445362 49.056192 
L 315.947982 49.056192 
L 321.450601 49.056192 
L 326.95322 49.056192 
L 332.45584 49.056192 
L 337.958459 49.056192 
L 343.461079 49.056192 
L 348.963698 49.056192 
L 354.466317 49.056192 
L 359.968937 49.056192 
L 365.471556 49.056192 
L 370.974176 49.056192 
L 376.476795 49.056192 
L 381.979414 49.056192 
L 387.482034 49.056192 
L 392.984653 49.056192 
L 398.487273 49.056192 
" clip-path="url(#pf42599eee1)" style="fill: none; stroke: #bcbd22; stroke-opacity: 0.1; stroke-width: 1.5; stroke-linecap: square"/>
   </g>
   <g id="line2d_26">
    <path d="M 73.832727 264.540384 
L 79.335347 257.122512 
L 82.086656 253.001472 
L 84.837966 241.087416 
L 87.589276 230.926373 
L 90.340586 216.838699 
L 95.843205 195.683904 
L 98.594515 165.33383 
L 101.345824 131.768237 
L 106.848444 101.79959 
L 112.351063 75.427891 
L 117.853683 57.846758 
L 123.356302 49.056192 
L 128.858921 49.056192 
L 134.361541 49.056192 
L 139.86416 49.056192 
L 145.36678 49.056192 
L 148.118089 49.056192 
L 150.869399 49.056192 
L 156.372018 49.056192 
L 161.874638 49.056192 
L 167.377257 49.056192 
L 170.128567 49.056192 
L 172.879877 49.056192 
L 178.382496 49.056192 
L 183.885116 49.056192 
L 189.387735 49.056192 
L 194.890354 49.056192 
L 200.392974 49.056192 
L 203.144284 49.056192 
L 205.895593 49.056192 
L 211.398213 49.056192 
L 216.900832 49.056192 
L 222.403451 49.056192 
L 227.906071 49.056192 
L 233.40869 49.056192 
L 238.91131 49.056192 
L 244.413929 49.056192 
L 249.916549 49.056192 
L 255.419168 49.056192 
L 260.921787 49.056192 
L 266.424407 49.056192 
L 271.927026 49.056192 
L 277.429646 49.056192 
L 282.932265 49.056192 
L 288.434884 49.056192 
L 293.937504 49.056192 
L 299.440123 49.056192 
L 304.942743 49.056192 
L 310.445362 49.056192 
L 315.947982 49.056192 
L 321.450601 49.056192 
L 326.95322 49.056192 
L 332.45584 49.056192 
L 337.958459 49.056192 
L 343.461079 49.056192 
L 348.963698 49.056192 
L 354.466317 49.056192 
L 359.968937 49.056192 
L 365.471556 49.056192 
L 370.974176 49.056192 
L 376.476795 49.056192 
L 381.979414 49.056192 
L 387.482034 49.056192 
L 392.984653 49.056192 
L 398.487273 49.056192 
" clip-path="url(#pf42599eee1)" style="fill: none; stroke: #17becf; stroke-opacity: 0.1; stroke-width: 1.5; stroke-linecap: square"/>
   </g>
   <g id="line2d_27">
    <path d="M 73.832727 264.540384 
L 79.335347 264.540384 
L 82.086656 264.540384 
L 84.837966 262.06776 
L 87.589276 258.111562 
L 90.340586 248.580317 
L 95.843205 235.94665 
L 98.594515 219.22151 
L 101.345824 195.683904 
L 106.848444 165.33383 
L 112.351063 131.768237 
L 117.853683 101.79959 
L 123.356302 75.427891 
L 128.858921 57.846758 
L 134.361541 49.056192 
L 139.86416 49.056192 
L 145.36678 49.056192 
L 148.118089 49.056192 
L 150.869399 49.056192 
L 156.372018 49.056192 
L 161.874638 49.056192 
L 167.377257 49.056192 
L 170.128567 49.056192 
L 172.879877 49.056192 
L 178.382496 49.056192 
L 183.885116 49.056192 
L 189.387735 49.056192 
L 194.890354 49.056192 
L 200.392974 49.056192 
L 203.144284 49.056192 
L 205.895593 49.056192 
L 211.398213 49.056192 
L 216.900832 49.056192 
L 222.403451 49.056192 
L 227.906071 49.056192 
L 233.40869 49.056192 
L 238.91131 49.056192 
L 244.413929 49.056192 
L 249.916549 49.056192 
L 255.419168 49.056192 
L 260.921787 49.056192 
L 266.424407 49.056192 
L 271.927026 49.056192 
L 277.429646 49.056192 
L 282.932265 49.056192 
L 288.434884 49.056192 
L 293.937504 49.056192 
L 299.440123 49.056192 
L 304.942743 49.056192 
L 310.445362 49.056192 
L 315.947982 49.056192 
L 321.450601 49.056192 
L 326.95322 49.056192 
L 332.45584 49.056192 
L 337.958459 49.056192 
L 343.461079 49.056192 
L 348.963698 49.056192 
L 354.466317 49.056192 
L 359.968937 49.056192 
L 365.471556 49.056192 
L 370.974176 49.056192 
L 376.476795 49.056192 
L 381.979414 49.056192 
L 387.482034 49.056192 
L 392.984653 49.056192 
L 398.487273 49.056192 
" clip-path="url(#pf42599eee1)" style="fill: none; stroke: #1f77b4; stroke-opacity: 0.1; stroke-width: 1.5; stroke-linecap: square"/>
   </g>
   <g id="line2d_28">
    <path d="M 73.832727 264.540384 
L 79.335347 257.122512 
L 82.086656 253.001472 
L 84.837966 241.087416 
L 87.589276 230.926373 
L 90.340586 216.838699 
L 95.843205 204.47447 
L 98.594515 182.914963 
L 101.345824 158.139936 
L 106.848444 128.17129 
L 112.351063 101.79959 
L 117.853683 75.427891 
L 123.356302 57.846758 
L 128.858921 49.056192 
L 134.361541 49.056192 
L 139.86416 49.056192 
L 145.36678 49.056192 
L 148.118089 49.056192 
L 150.869399 49.056192 
L 156.372018 49.056192 
L 161.874638 49.056192 
L 167.377257 49.056192 
L 170.128567 49.056192 
L 172.879877 49.056192 
L 178.382496 49.056192 
L 183.885116 49.056192 
L 189.387735 49.056192 
L 194.890354 49.056192 
L 200.392974 49.056192 
L 203.144284 49.056192 
L 205.895593 49.056192 
L 211.398213 49.056192 
L 216.900832 49.056192 
L 222.403451 49.056192 
L 227.906071 49.056192 
L 233.40869 49.056192 
L 238.91131 49.056192 
L 244.413929 49.056192 
L 249.916549 49.056192 
L 255.419168 49.056192 
L 260.921787 49.056192 
L 266.424407 49.056192 
L 271.927026 49.056192 
L 277.429646 49.056192 
L 282.932265 49.056192 
L 288.434884 49.056192 
L 293.937504 49.056192 
L 299.440123 49.056192 
L 304.942743 49.056192 
L 310.445362 49.056192 
L 315.947982 49.056192 
L 321.450601 49.056192 
L 326.95322 49.056192 
L 332.45584 49.056192 
L 337.958459 49.056192 
L 343.461079 49.056192 
L 348.963698 49.056192 
L 354.466317 49.056192 
L 359.968937 49.056192 
L 365.471556 49.056192 
L 370.974176 49.056192 
L 376.476795 49.056192 
L 381.979414 49.056192 
L 387.482034 49.056192 
L 392.984653 49.056192 
L 398.487273 49.056192 
" clip-path="url(#pf42599eee1)" style="fill: none; stroke: #ff7f0e; stroke-opacity: 0.1; stroke-width: 1.5; stroke-linecap: square"/>
   </g>
   <g id="line2d_29">
    <path d="M 73.832727 264.540384 
L 79.335347 257.122512 
L 82.086656 253.001472 
L 84.837966 241.087416 
L 87.589276 230.926373 
L 90.340586 216.838699 
L 95.843205 195.683904 
L 98.594515 165.33383 
L 101.345824 131.768237 
L 106.848444 101.79959 
L 112.351063 75.427891 
L 117.853683 57.846758 
L 123.356302 49.056192 
L 128.858921 49.056192 
L 134.361541 49.056192 
L 139.86416 49.056192 
L 145.36678 49.056192 
L 148.118089 49.056192 
L 150.869399 49.056192 
L 156.372018 49.056192 
L 161.874638 49.056192 
L 167.377257 49.056192 
L 170.128567 49.056192 
L 172.879877 49.056192 
L 178.382496 49.056192 
L 183.885116 49.056192 
L 189.387735 49.056192 
L 194.890354 49.056192 
L 200.392974 49.056192 
L 203.144284 49.056192 
L 205.895593 49.056192 
L 211.398213 49.056192 
L 216.900832 49.056192 
L 222.403451 49.056192 
L 227.906071 49.056192 
L 233.40869 49.056192 
L 238.91131 49.056192 
L 244.413929 49.056192 
L 249.916549 49.056192 
L 255.419168 49.056192 
L 260.921787 49.056192 
L 266.424407 49.056192 
L 271.927026 49.056192 
L 277.429646 49.056192 
L 282.932265 49.056192 
L 288.434884 49.056192 
L 293.937504 49.056192 
L 299.440123 49.056192 
L 304.942743 49.056192 
L 310.445362 49.056192 
L 315.947982 49.056192 
L 321.450601 49.056192 
L 326.95322 49.056192 
L 332.45584 49.056192 
L 337.958459 49.056192 
L 343.461079 49.056192 
L 348.963698 49.056192 
L 354.466317 49.056192 
L 359.968937 49.056192 
L 365.471556 49.056192 
L 370.974176 49.056192 
L 376.476795 49.056192 
L 381.979414 49.056192 
L 387.482034 49.056192 
L 392.984653 49.056192 
L 398.487273 49.056192 
" clip-path="url(#pf42599eee1)" style="fill: none; stroke: #2ca02c; stroke-opacity: 0.1; stroke-width: 1.5; stroke-linecap: square"/>
   </g>
   <g id="line2d_30">
    <path d="M 73.832727 234.868896 
L 79.335347 234.868896 
L 82.086656 228.873984 
L 84.837966 219.881616 
L 87.589276 209.090774 
L 90.340586 191.907331 
L 95.843205 165.33383 
L 98.594515 131.768237 
L 101.345824 101.79959 
L 106.848444 75.427891 
L 112.351063 57.846758 
L 117.853683 49.056192 
L 123.356302 49.056192 
L 128.858921 49.056192 
L 134.361541 49.056192 
L 139.86416 49.056192 
L 145.36678 49.056192 
L 148.118089 49.056192 
L 150.869399 49.056192 
L 156.372018 49.056192 
L 161.874638 49.056192 
L 167.377257 49.056192 
L 170.128567 49.056192 
L 172.879877 49.056192 
L 178.382496 49.056192 
L 183.885116 49.056192 
L 189.387735 49.056192 
L 194.890354 49.056192 
L 200.392974 49.056192 
L 203.144284 49.056192 
L 205.895593 49.056192 
L 211.398213 49.056192 
L 216.900832 49.056192 
L 222.403451 49.056192 
L 227.906071 49.056192 
L 233.40869 49.056192 
L 238.91131 49.056192 
L 244.413929 49.056192 
L 249.916549 49.056192 
L 255.419168 49.056192 
L 260.921787 49.056192 
L 266.424407 49.056192 
L 271.927026 49.056192 
L 277.429646 49.056192 
L 282.932265 49.056192 
L 288.434884 49.056192 
L 293.937504 49.056192 
L 299.440123 49.056192 
L 304.942743 49.056192 
L 310.445362 49.056192 
L 315.947982 49.056192 
L 321.450601 49.056192 
L 326.95322 49.056192 
L 332.45584 49.056192 
L 337.958459 49.056192 
L 343.461079 49.056192 
L 348.963698 49.056192 
L 354.466317 49.056192 
L 359.968937 49.056192 
L 365.471556 49.056192 
L 370.974176 49.056192 
L 376.476795 49.056192 
L 381.979414 49.056192 
L 387.482034 49.056192 
L 392.984653 49.056192 
L 398.487273 49.056192 
" clip-path="url(#pf42599eee1)" style="fill: none; stroke: #d62728; stroke-opacity: 0.1; stroke-width: 1.5; stroke-linecap: square"/>
   </g>
   <g id="line2d_31">
    <path d="M 73.832727 234.868896 
L 79.335347 221.380344 
L 82.086656 213.886704 
L 84.837966 200.398152 
L 87.589276 195.002731 
L 90.340586 180.217253 
L 95.843205 158.139936 
L 98.594515 128.17129 
L 101.345824 101.79959 
L 106.848444 75.427891 
L 112.351063 57.846758 
L 117.853683 49.056192 
L 123.356302 49.056192 
L 128.858921 49.056192 
L 134.361541 49.056192 
L 139.86416 49.056192 
L 145.36678 49.056192 
L 148.118089 49.056192 
L 150.869399 49.056192 
L 156.372018 49.056192 
L 161.874638 49.056192 
L 167.377257 49.056192 
L 170.128567 49.056192 
L 172.879877 49.056192 
L 178.382496 49.056192 
L 183.885116 49.056192 
L 189.387735 49.056192 
L 194.890354 49.056192 
L 200.392974 49.056192 
L 203.144284 49.056192 
L 205.895593 49.056192 
L 211.398213 49.056192 
L 216.900832 49.056192 
L 222.403451 49.056192 
L 227.906071 49.056192 
L 233.40869 49.056192 
L 238.91131 49.056192 
L 244.413929 49.056192 
L 249.916549 49.056192 
L 255.419168 49.056192 
L 260.921787 49.056192 
L 266.424407 49.056192 
L 271.927026 49.056192 
L 277.429646 49.056192 
L 282.932265 49.056192 
L 288.434884 49.056192 
L 293.937504 49.056192 
L 299.440123 49.056192 
L 304.942743 49.056192 
L 310.445362 49.056192 
L 315.947982 49.056192 
L 321.450601 49.056192 
L 326.95322 49.056192 
L 332.45584 49.056192 
L 337.958459 49.056192 
L 343.461079 49.056192 
L 348.963698 49.056192 
L 354.466317 49.056192 
L 359.968937 49.056192 
L 365.471556 49.056192 
L 370.974176 49.056192 
L 376.476795 49.056192 
L 381.979414 49.056192 
L 387.482034 49.056192 
L 392.984653 49.056192 
L 398.487273 49.056192 
" clip-path="url(#pf42599eee1)" style="fill: none; stroke: #ffa500; stroke-opacity: 0.6; stroke-width: 1.5; stroke-linecap: square"/>
   </g>
   <g id="line2d_32">
    <path d="M 73.832727 264.540384 
L 79.335347 264.540384 
L 82.086656 264.540384 
L 84.837966 262.06776 
L 87.589276 258.111562 
L 90.340586 248.580317 
L 95.843205 235.94665 
L 98.594515 219.22151 
L 101.345824 195.683904 
L 106.848444 165.33383 
L 112.351063 131.768237 
L 117.853683 101.79959 
L 123.356302 75.427891 
L 128.858921 57.846758 
L 134.361541 49.056192 
L 139.86416 49.056192 
L 145.36678 49.056192 
L 148.118089 49.056192 
L 150.869399 49.056192 
L 156.372018 49.056192 
L 161.874638 49.056192 
L 167.377257 49.056192 
L 170.128567 49.056192 
L 172.879877 49.056192 
L 178.382496 49.056192 
L 183.885116 49.056192 
L 189.387735 49.056192 
L 194.890354 49.056192 
L 200.392974 49.056192 
L 203.144284 49.056192 
L 205.895593 49.056192 
L 211.398213 49.056192 
L 216.900832 49.056192 
L 222.403451 49.056192 
L 227.906071 49.056192 
L 233.40869 49.056192 
L 238.91131 49.056192 
L 244.413929 49.056192 
L 249.916549 49.056192 
L 255.419168 49.056192 
L 260.921787 49.056192 
L 266.424407 49.056192 
L 271.927026 49.056192 
L 277.429646 49.056192 
L 282.932265 49.056192 
L 288.434884 49.056192 
L 293.937504 49.056192 
L 299.440123 49.056192 
L 304.942743 49.056192 
L 310.445362 49.056192 
L 315.947982 49.056192 
L 321.450601 49.056192 
L 326.95322 49.056192 
L 332.45584 49.056192 
L 337.958459 49.056192 
L 343.461079 49.056192 
L 348.963698 49.056192 
L 354.466317 49.056192 
L 359.968937 49.056192 
L 365.471556 49.056192 
L 370.974176 49.056192 
L 376.476795 49.056192 
L 381.979414 49.056192 
L 387.482034 49.056192 
L 392.984653 49.056192 
L 398.487273 49.056192 
" clip-path="url(#pf42599eee1)" style="fill: none; stroke: #00ffff; stroke-opacity: 0.6; stroke-width: 1.5; stroke-linecap: square"/>
   </g>
   <g id="line2d_33">
    <path d="M 73.832727 258.182208 
L 79.335347 254.665728 
L 82.086656 251.10648 
L 84.837966 243.688212 
L 87.589276 235.460599 
L 90.340586 222.585214 
L 95.843205 203.787965 
L 98.594515 176.731661 
L 101.345824 145.864253 
L 106.848444 114.301152 
L 112.351063 87.243898 
L 117.853683 66.637325 
L 123.356302 54.70727 
L 128.858921 49.68409 
L 134.361541 49.056192 
L 139.86416 49.056192 
L 145.36678 49.056192 
L 148.118089 49.056192 
L 150.869399 49.056192 
L 156.372018 49.056192 
L 161.874638 49.056192 
L 167.377257 49.056192 
L 170.128567 49.056192 
L 172.879877 49.056192 
L 178.382496 49.056192 
L 183.885116 49.056192 
L 189.387735 49.056192 
L 194.890354 49.056192 
L 200.392974 49.056192 
L 203.144284 49.056192 
L 205.895593 49.056192 
L 211.398213 49.056192 
L 216.900832 49.056192 
L 222.403451 49.056192 
L 227.906071 49.056192 
L 233.40869 49.056192 
L 238.91131 49.056192 
L 244.413929 49.056192 
L 249.916549 49.056192 
L 255.419168 49.056192 
L 260.921787 49.056192 
L 266.424407 49.056192 
L 271.927026 49.056192 
L 277.429646 49.056192 
L 282.932265 49.056192 
L 288.434884 49.056192 
L 293.937504 49.056192 
L 299.440123 49.056192 
L 304.942743 49.056192 
L 310.445362 49.056192 
L 315.947982 49.056192 
L 321.450601 49.056192 
L 326.95322 49.056192 
L 332.45584 49.056192 
L 337.958459 49.056192 
L 343.461079 49.056192 
L 348.963698 49.056192 
L 354.466317 49.056192 
L 359.968937 49.056192 
L 365.471556 49.056192 
L 370.974176 49.056192 
L 376.476795 49.056192 
L 381.979414 49.056192 
L 387.482034 49.056192 
L 392.984653 49.056192 
L 398.487273 49.056192 
" clip-path="url(#pf42599eee1)" style="fill: none; stroke: #ff0000; stroke-width: 2; stroke-linecap: square"/>
   </g>
   <g id="patch_3">
    <path d="M 57.6 307.584 
L 57.6 41.472 
" style="fill: none; stroke: #000000; stroke-width: 0.8; stroke-linejoin: miter; stroke-linecap: square"/>
   </g>
   <g id="patch_4">
    <path d="M 414.72 307.584 
L 414.72 41.472 
" style="fill: none; stroke: #000000; stroke-width: 0.8; stroke-linejoin: miter; stroke-linecap: square"/>
   </g>
   <g id="patch_5">
    <path d="M 57.6 307.584 
L 414.72 307.584 
" style="fill: none; stroke: #000000; stroke-width: 0.8; stroke-linejoin: miter; stroke-linecap: square"/>
   </g>
   <g id="patch_6">
    <path d="M 57.6 41.472 
L 414.72 41.472 
" style="fill: none; stroke: #000000; stroke-width: 0.8; stroke-linejoin: miter; stroke-linecap: square"/>
   </g>
  </g>
  <g id="axes_2">
   <g id="PolyCollection_2">
    <defs>
     <path id="me8792adce6" d="M 73.832727 -63.17689 
L 73.832727 -38.016 
L 79.335347 -41.626253 
L 84.837966 -45.079302 
L 90.340586 -51.942774 
L 95.843205 -58.622186 
L 101.345824 -67.559311 
L 106.848444 -78.688854 
L 112.351063 -92.01456 
L 117.853683 -105.871012 
L 123.356302 -119.801384 
L 128.858921 -133.741809 
L 134.361541 -146.494487 
L 139.86416 -157.502358 
L 145.36678 -165.008195 
L 150.869399 -169.538604 
L 156.372018 -169.674025 
L 161.874638 -169.738779 
L 167.377257 -169.802941 
L 172.879877 -169.66338 
L 178.382496 -169.886323 
L 183.885116 -169.654806 
L 189.387735 -169.981532 
L 194.890354 -169.731683 
L 200.392974 -169.966896 
L 205.895593 -169.721334 
L 211.398213 -170.045103 
L 216.900832 -169.77633 
L 222.403451 -169.932449 
L 227.906071 -169.76332 
L 233.40869 -170.007552 
L 238.91131 -169.686444 
L 244.413929 -169.923579 
L 249.916549 -169.581181 
L 255.419168 -169.909978 
L 260.921787 -169.780765 
L 266.424407 -170.017309 
L 271.927026 -169.678164 
L 277.429646 -169.888689 
L 282.932265 -169.567876 
L 288.434884 -169.833101 
L 293.937504 -169.760364 
L 299.440123 -169.849955 
L 304.942743 -169.541856 
L 310.445362 -169.853207 
L 315.947982 -169.570833 
L 321.450601 -169.88514 
L 326.95322 -169.630264 
L 332.45584 -169.647709 
L 337.958459 -169.674025 
L 343.461079 -169.64357 
L 348.963698 -169.74351 
L 354.466317 -169.909091 
L 359.968937 -169.600992 
L 365.471556 -169.692948 
L 370.974176 -169.70448 
L 376.476795 -169.638543 
L 381.979414 -168.701829 
L 387.482034 -168.359727 
L 392.984653 -168.018808 
L 398.487273 -167.68055 
L 398.487273 -172.025568 
L 398.487273 -172.025568 
L 392.984653 -172.291384 
L 387.482034 -172.552765 
L 381.979414 -172.225743 
L 376.476795 -171.956675 
L 370.974176 -172.057501 
L 365.471556 -172.293158 
L 359.968937 -172.01788 
L 354.466317 -171.990973 
L 348.963698 -172.25472 
L 343.461079 -172.527633 
L 337.958459 -172.208003 
L 332.45584 -172.173704 
L 326.95322 -172.38068 
L 321.450601 -172.374766 
L 315.947982 -172.105106 
L 310.445362 -171.988017 
L 304.942743 -172.262408 
L 299.440123 -171.980033 
L 293.937504 -171.762117 
L 288.434884 -172.060163 
L 282.932265 -172.324205 
L 277.429646 -172.806459 
L 271.927026 -173.06577 
L 266.424407 -172.828044 
L 260.921787 -172.308829 
L 255.419168 -172.008123 
L 249.916549 -171.760343 
L 244.413929 -172.06992 
L 238.91131 -172.348155 
L 233.40869 -172.038282 
L 227.906071 -171.88512 
L 222.403451 -172.083226 
L 216.900832 -172.354364 
L 211.398213 -172.985937 
L 205.895593 -173.909345 
L 200.392974 -174.255587 
L 194.890354 -174.012538 
L 189.387735 -173.185521 
L 183.885116 -172.70711 
L 178.382496 -172.473819 
L 172.879877 -172.222787 
L 167.377257 -171.976189 
L 161.874638 -172.273052 
L 156.372018 -173.001608 
L 150.869399 -173.258849 
L 145.36678 -171.894877 
L 139.86416 -170.664257 
L 134.361541 -166.713085 
L 128.858921 -159.849466 
L 123.356302 -149.448626 
L 117.853683 -137.323972 
L 112.351063 -123.398627 
L 106.848444 -109.085645 
L 101.345824 -96.835918 
L 95.843205 -87.315712 
L 90.340586 -79.894144 
L 84.837966 -71.56336 
L 79.335347 -67.607654 
L 73.832727 -63.17689 
z
" style="stroke: #ff0000; stroke-opacity: 0.3"/>
    </defs>
    <g clip-path="url(#pf42599eee1)">
     <use xlink:href="#me8792adce6" x="0" y="345.6" style="fill: #ff0000; fill-opacity: 0.3; stroke: #ff0000; stroke-opacity: 0.3"/>
    </g>
   </g>
   <g id="matplotlib.axis_3">
    <g id="ytick_10">
     <g id="line2d_34">
      <defs>
       <path id="mbdf857e9b2" d="M 0 0 
L 3.5 0 
" style="stroke: #000000; stroke-width: 0.8"/>
      </defs>
      <g>
       <use xlink:href="#mbdf857e9b2" x="414.72" y="307.584" style="stroke: #000000; stroke-width: 0.8"/>
      </g>
     </g>
     <g id="text_18">
      <!-- 0 -->
      <g transform="translate(421.72 311.383219) scale(0.1 -0.1)">
       <use xlink:href="#DejaVuSans-30"/>
      </g>
     </g>
    </g>
    <g id="ytick_11">
     <g id="line2d_35">
      <g>
       <use xlink:href="#mbdf857e9b2" x="414.72" y="263.232" style="stroke: #000000; stroke-width: 0.8"/>
      </g>
     </g>
     <g id="text_19">
      <!-- 10 -->
      <g transform="translate(421.72 267.031219) scale(0.1 -0.1)">
       <use xlink:href="#DejaVuSans-31"/>
       <use xlink:href="#DejaVuSans-30" x="63.623047"/>
      </g>
     </g>
    </g>
    <g id="ytick_12">
     <g id="line2d_36">
      <g>
       <use xlink:href="#mbdf857e9b2" x="414.72" y="218.88" style="stroke: #000000; stroke-width: 0.8"/>
      </g>
     </g>
     <g id="text_20">
      <!-- 20 -->
      <g transform="translate(421.72 222.679219) scale(0.1 -0.1)">
       <use xlink:href="#DejaVuSans-32"/>
       <use xlink:href="#DejaVuSans-30" x="63.623047"/>
      </g>
     </g>
    </g>
    <g id="ytick_13">
     <g id="line2d_37">
      <g>
       <use xlink:href="#mbdf857e9b2" x="414.72" y="174.528" style="stroke: #000000; stroke-width: 0.8"/>
      </g>
     </g>
     <g id="text_21">
      <!-- 30 -->
      <g transform="translate(421.72 178.327219) scale(0.1 -0.1)">
       <use xlink:href="#DejaVuSans-33"/>
       <use xlink:href="#DejaVuSans-30" x="63.623047"/>
      </g>
     </g>
    </g>
    <g id="ytick_14">
     <g id="line2d_38">
      <g>
       <use xlink:href="#mbdf857e9b2" x="414.72" y="130.176" style="stroke: #000000; stroke-width: 0.8"/>
      </g>
     </g>
     <g id="text_22">
      <!-- 40 -->
      <g transform="translate(421.72 133.975219) scale(0.1 -0.1)">
       <use xlink:href="#DejaVuSans-34"/>
       <use xlink:href="#DejaVuSans-30" x="63.623047"/>
      </g>
     </g>
    </g>
    <g id="ytick_15">
     <g id="line2d_39">
      <g>
       <use xlink:href="#mbdf857e9b2" x="414.72" y="85.824" style="stroke: #000000; stroke-width: 0.8"/>
      </g>
     </g>
     <g id="text_23">
      <!-- 50 -->
      <g transform="translate(421.72 89.623219) scale(0.1 -0.1)">
       <use xlink:href="#DejaVuSans-35"/>
       <use xlink:href="#DejaVuSans-30" x="63.623047"/>
      </g>
     </g>
    </g>
    <g id="ytick_16">
     <g id="line2d_40">
      <g>
       <use xlink:href="#mbdf857e9b2" x="414.72" y="41.472" style="stroke: #000000; stroke-width: 0.8"/>
      </g>
     </g>
     <g id="text_24">
      <!-- 60 -->
      <g transform="translate(421.72 45.271219) scale(0.1 -0.1)">
       <use xlink:href="#DejaVuSans-36"/>
       <use xlink:href="#DejaVuSans-30" x="63.623047"/>
      </g>
     </g>
    </g>
    <g id="text_25">
     <!-- buffer(s) -->
     <g transform="translate(446.043438 196.029562) rotate(-90) scale(0.1 -0.1)">
      <defs>
       <path id="DejaVuSans-75" d="M 544 1381 
L 544 3500 
L 1119 3500 
L 1119 1403 
Q 1119 906 1312 657 
Q 1506 409 1894 409 
Q 2359 409 2629 706 
Q 2900 1003 2900 1516 
L 2900 3500 
L 3475 3500 
L 3475 0 
L 2900 0 
L 2900 538 
Q 2691 219 2414 64 
Q 2138 -91 1772 -91 
Q 1169 -91 856 284 
Q 544 659 544 1381 
z
M 1991 3584 
L 1991 3584 
z
" transform="scale(0.015625)"/>
       <path id="DejaVuSans-66" d="M 2375 4863 
L 2375 4384 
L 1825 4384 
Q 1516 4384 1395 4259 
Q 1275 4134 1275 3809 
L 1275 3500 
L 2222 3500 
L 2222 3053 
L 1275 3053 
L 1275 0 
L 697 0 
L 697 3053 
L 147 3053 
L 147 3500 
L 697 3500 
L 697 3744 
Q 697 4328 969 4595 
Q 1241 4863 1831 4863 
L 2375 4863 
z
" transform="scale(0.015625)"/>
      </defs>
      <use xlink:href="#DejaVuSans-62"/>
      <use xlink:href="#DejaVuSans-75" x="63.476562"/>
      <use xlink:href="#DejaVuSans-66" x="126.855469"/>
      <use xlink:href="#DejaVuSans-66" x="162.060547"/>
      <use xlink:href="#DejaVuSans-65" x="197.265625"/>
      <use xlink:href="#DejaVuSans-72" x="258.789062"/>
      <use xlink:href="#DejaVuSans-28" x="299.902344"/>
      <use xlink:href="#DejaVuSans-73" x="338.916016"/>
      <use xlink:href="#DejaVuSans-29" x="391.015625"/>
     </g>
    </g>
   </g>
   <g id="line2d_41">
    <path d="M 73.832727 293.072026 
L 79.335347 287.610077 
L 84.837966 283.124365 
L 90.340586 274.37889 
L 95.843205 266.881036 
L 101.345824 257.627238 
L 106.848444 246.388589 
L 112.351063 233.69889 
L 117.853683 220.98879 
L 123.356302 208.87271 
L 128.858921 197.36041 
L 134.361541 188.22508 
L 139.86416 181.392803 
L 145.36678 177.476225 
L 150.869399 175.930115 
L 156.372018 175.557853 
L 161.874638 175.760986 
L 167.377257 175.381628 
L 172.879877 175.084765 
L 178.382496 174.189742 
L 183.885116 173.885783 
L 189.387735 173.566153 
L 194.890354 173.905002 
L 200.392974 174.1584 
L 205.895593 175.009663 
L 211.398213 175.268974 
L 216.900832 175.026812 
L 222.403451 174.192699 
L 227.906071 173.950537 
L 233.40869 173.698026 
L 238.91131 174.034214 
L 244.413929 174.364193 
L 249.916549 175.206586 
L 255.419168 175.478611 
L 260.921787 175.751524 
L 266.424407 175.514684 
L 271.927026 175.771334 
L 277.429646 175.439877 
L 282.932265 175.675534 
L 288.434884 175.399369 
L 293.937504 175.715451 
L 299.440123 175.479203 
L 304.942743 175.835793 
L 310.445362 175.60191 
L 315.947982 175.943716 
L 321.450601 175.63473 
L 326.95322 175.89552 
L 332.45584 175.564358 
L 337.958459 175.884284 
L 343.461079 175.55874 
L 348.963698 175.801494 
L 354.466317 175.45407 
L 359.968937 175.771334 
L 365.471556 175.440173 
L 370.974176 175.696823 
L 376.476795 175.961457 
L 381.979414 176.898171 
L 387.482034 177.240273 
L 392.984653 177.581192 
L 398.487273 177.91945 
" clip-path="url(#pf42599eee1)" style="fill: none; stroke: #1f77b4; stroke-opacity: 0.1; stroke-width: 1.5; stroke-linecap: square"/>
   </g>
   <g id="line2d_42">
    <path d="M 73.832727 293.772787 
L 79.335347 288.182218 
L 84.837966 284.594387 
L 90.340586 276.434728 
L 95.843205 270.089731 
L 101.345824 260.415574 
L 106.848444 249.020732 
L 112.351063 234.499296 
L 117.853683 220.550888 
L 123.356302 206.560493 
L 128.858921 194.960966 
L 134.361541 185.706774 
L 139.86416 180.001924 
L 145.36678 176.665175 
L 150.869399 175.772813 
L 156.372018 175.522372 
L 161.874638 175.861221 
L 167.377257 175.605162 
L 172.879877 175.93662 
L 178.382496 175.680856 
L 183.885116 175.939576 
L 189.387735 175.607823 
L 194.890354 175.868317 
L 200.392974 175.618172 
L 205.895593 175.878666 
L 211.398213 175.554897 
L 216.900832 175.82367 
L 222.403451 175.580029 
L 227.906071 175.83668 
L 233.40869 175.521485 
L 238.91131 175.789371 
L 244.413929 175.541295 
L 249.916549 175.274888 
L 255.419168 174.428947 
L 260.921787 173.602522 
L 266.424407 172.771956 
L 271.927026 172.53423 
L 277.429646 172.793541 
L 282.932265 173.692704 
L 288.434884 174.553133 
L 293.937504 175.492212 
L 299.440123 175.750045 
L 304.942743 176.043951 
L 310.445362 175.696823 
L 315.947982 175.985111 
L 321.450601 175.646853 
L 326.95322 175.921836 
L 332.45584 175.606641 
L 337.958459 175.925975 
L 343.461079 175.606936 
L 348.963698 175.846733 
L 354.466317 175.490734 
L 359.968937 175.806816 
L 365.471556 175.536269 
L 370.974176 175.861221 
L 376.476795 175.585943 
L 381.979414 175.928636 
L 387.482034 175.66962 
L 392.984653 176.018819 
L 398.487273 175.773996 
" clip-path="url(#pf42599eee1)" style="fill: none; stroke: #ff7f0e; stroke-opacity: 0.1; stroke-width: 1.5; stroke-linecap: square"/>
   </g>
   <g id="line2d_43">
    <path d="M 73.832727 300.314707 
L 79.335347 293.052067 
L 84.837966 288.288416 
L 90.340586 278.81871 
L 95.843205 271.456425 
L 101.345824 261.532764 
L 106.848444 250.0599 
L 112.351063 236.443244 
L 117.853683 223.405382 
L 123.356302 210.965977 
L 128.858921 199.5718 
L 134.361541 189.772078 
L 139.86416 182.273633 
L 145.36678 177.736424 
L 150.869399 175.644783 
L 156.372018 174.797364 
L 161.874638 174.603694 
L 167.377257 174.413868 
L 172.879877 174.225519 
L 178.382496 173.975965 
L 183.885116 174.241782 
L 189.387735 174.442844 
L 194.890354 175.23438 
L 200.392974 175.508179 
L 205.895593 175.232014 
L 211.398213 174.364193 
L 216.900832 174.090394 
L 222.403451 173.837587 
L 227.906071 174.094533 
L 233.40869 174.293526 
L 238.91131 175.082991 
L 244.413929 175.363887 
L 249.916549 175.701258 
L 255.419168 175.46501 
L 260.921787 175.819235 
L 266.424407 175.582691 
L 271.927026 175.921836 
L 277.429646 175.603684 
L 282.932265 175.860038 
L 288.434884 175.52178 
L 293.937504 175.839636 
L 299.440123 175.539521 
L 304.942743 175.819826 
L 310.445362 175.511432 
L 315.947982 175.246502 
L 321.450601 174.323981 
L 326.95322 173.957929 
L 332.45584 173.596608 
L 337.958459 173.91269 
L 343.461079 174.218719 
L 348.963698 175.115812 
L 354.466317 175.414744 
L 359.968937 175.163416 
L 365.471556 174.312449 
L 370.974176 174.0215 
L 376.476795 173.731734 
L 381.979414 174.040128 
L 387.482034 174.379273 
L 392.984653 175.23024 
L 398.487273 175.48896 
" clip-path="url(#pf42599eee1)" style="fill: none; stroke: #2ca02c; stroke-opacity: 0.1; stroke-width: 1.5; stroke-linecap: square"/>
   </g>
   <g id="line2d_44">
    <path d="M 73.832727 293.129683 
L 79.335347 287.642232 
L 84.837966 283.146294 
L 90.340586 274.365338 
L 95.843205 266.853735 
L 101.345824 257.003057 
L 106.848444 245.189311 
L 112.351063 231.910026 
L 117.853683 219.186029 
L 123.356302 207.050435 
L 128.858921 195.522463 
L 134.361541 186.308187 
L 139.86416 178.86533 
L 145.36678 174.377795 
L 150.869399 172.341151 
L 156.372018 172.598392 
L 161.874638 173.468579 
L 167.377257 174.29323 
L 172.879877 174.602807 
L 178.382496 174.23646 
L 183.885116 173.326652 
L 189.387735 172.414479 
L 194.890354 171.587462 
L 200.392974 171.344413 
L 205.895593 171.690655 
L 211.398213 172.614063 
L 216.900832 173.537472 
L 222.403451 174.45408 
L 227.906071 175.295881 
L 233.40869 175.55401 
L 238.91131 175.8216 
L 244.413929 175.575594 
L 249.916549 175.287011 
L 255.419168 174.403814 
L 260.921787 174.105769 
L 266.424407 173.841727 
L 271.927026 174.092463 
L 277.429646 174.30417 
L 282.932265 175.108716 
L 288.434884 175.405578 
L 293.937504 175.674647 
L 299.440123 175.377784 
L 304.942743 175.673169 
L 310.445362 175.457322 
L 315.947982 175.807999 
L 321.450601 175.561106 
L 326.95322 175.876892 
L 332.45584 175.602501 
L 337.958459 175.918287 
L 343.461079 175.58476 
L 348.963698 175.846437 
L 354.466317 175.519711 
L 359.968937 175.271635 
L 365.471556 174.351183 
L 370.974176 174.024161 
L 376.476795 173.693887 
L 381.979414 173.439011 
L 387.482034 173.103118 
L 392.984653 173.358881 
L 398.487273 173.614644 
" clip-path="url(#pf42599eee1)" style="fill: none; stroke: #d62728; stroke-opacity: 0.1; stroke-width: 1.5; stroke-linecap: square"/>
   </g>
   <g id="line2d_45">
    <path d="M 73.832727 293.488934 
L 79.335347 287.919432 
L 84.837966 283.371997 
L 90.340586 274.472029 
L 95.843205 266.927606 
L 101.345824 257.627386 
L 106.848444 246.988819 
L 112.351063 234.836076 
L 117.853683 222.721475 
L 123.356302 210.579375 
L 128.858921 198.474236 
L 134.361541 188.053882 
L 139.86416 179.999558 
L 145.36678 175.461462 
L 150.869399 173.365682 
L 156.372018 173.030381 
L 161.874638 173.326948 
L 167.377257 173.623811 
L 172.879877 173.377213 
L 178.382496 173.126181 
L 183.885116 172.89289 
L 189.387735 172.657824 
L 194.890354 172.423645 
L 200.392974 172.761312 
L 205.895593 173.609914 
L 211.398213 174.413276 
L 216.900832 175.218708 
L 222.403451 175.512023 
L 227.906071 175.773108 
L 233.40869 175.44313 
L 238.91131 175.706876 
L 244.413929 175.455844 
L 249.916549 175.715747 
L 255.419168 175.378671 
L 260.921787 175.635322 
L 266.424407 175.378967 
L 271.927026 175.715747 
L 277.429646 175.459096 
L 282.932265 175.839341 
L 288.434884 175.628225 
L 293.937504 175.416814 
L 299.440123 174.492223 
L 304.942743 174.158696 
L 310.445362 173.783773 
L 315.947982 174.080932 
L 321.450601 174.298552 
L 326.95322 175.14538 
L 332.45584 175.404987 
L 337.958459 175.744723 
L 343.461079 175.414449 
L 348.963698 175.673169 
L 354.466317 175.365661 
L 359.968937 175.139466 
L 365.471556 174.246808 
L 370.974176 173.931022 
L 376.476795 173.643325 
L 381.979414 173.410625 
L 387.482034 173.09957 
L 392.984653 173.355924 
L 398.487273 173.627359 
" clip-path="url(#pf42599eee1)" style="fill: none; stroke: #9467bd; stroke-opacity: 0.1; stroke-width: 1.5; stroke-linecap: square"/>
   </g>
   <g id="line2d_46">
    <path d="M 73.832727 293.138554 
L 79.335347 287.695454 
L 84.837966 283.210851 
L 90.340586 274.456875 
L 95.843205 267.527467 
L 101.345824 258.268642 
L 106.848444 247.033171 
L 112.351063 233.164005 
L 117.853683 219.819967 
L 123.356302 206.48746 
L 128.858921 194.933172 
L 134.361541 185.721558 
L 139.86416 179.990688 
L 145.36678 176.639155 
L 150.869399 175.732009 
L 156.372018 175.479498 
L 161.874638 175.814208 
L 167.377257 175.55874 
L 172.879877 175.894042 
L 178.382496 175.638278 
L 183.885116 175.301795 
L 189.387735 174.380751 
L 194.890354 174.051068 
L 200.392974 173.808906 
L 205.895593 174.073244 
L 211.398213 174.339356 
L 216.900832 175.183227 
L 222.403451 175.522076 
L 227.906071 175.772813 
L 233.40869 175.488369 
L 238.91131 175.222552 
L 244.413929 174.463837 
L 249.916549 174.24119 
L 255.419168 173.997254 
L 260.921787 174.285247 
L 266.424407 174.574717 
L 271.927026 175.443425 
L 277.429646 175.711311 
L 282.932265 175.98038 
L 288.434884 175.665777 
L 293.937504 175.388133 
L 299.440123 174.439296 
L 304.942743 174.063782 
L 310.445362 173.706897 
L 315.947982 174.0215 
L 321.450601 174.300031 
L 326.95322 175.174948 
L 332.45584 175.456435 
L 337.958459 175.795284 
L 343.461079 175.539817 
L 348.963698 175.852351 
L 354.466317 175.57382 
L 359.968937 175.295881 
L 365.471556 174.453489 
L 370.974176 174.124397 
L 376.476795 173.795305 
L 381.979414 174.054025 
L 387.482034 174.39317 
L 392.984653 175.315396 
L 398.487273 175.644783 
" clip-path="url(#pf42599eee1)" style="fill: none; stroke: #8c564b; stroke-opacity: 0.1; stroke-width: 1.5; stroke-linecap: square"/>
   </g>
   <g id="line2d_47">
    <path d="M 73.832727 293.089766 
L 79.335347 287.636688 
L 84.837966 283.155904 
L 90.340586 274.407102 
L 95.843205 266.905109 
L 101.345824 257.057093 
L 106.848444 245.237507 
L 112.351063 231.953491 
L 117.853683 219.204065 
L 123.356302 207.044521 
L 128.858921 195.501174 
L 134.361541 186.296951 
L 139.86416 179.402285 
L 145.36678 175.465897 
L 150.869399 173.973304 
L 156.372018 174.309492 
L 161.874638 175.232014 
L 167.377257 175.569089 
L 172.879877 175.906164 
L 178.382496 175.655428 
L 183.885116 175.913852 
L 189.387735 175.586239 
L 194.890354 175.843776 
L 200.392974 175.588013 
L 205.895593 175.841706 
L 211.398213 175.520598 
L 216.900832 175.789667 
L 222.403451 175.550166 
L 227.906071 175.80859 
L 233.40869 175.475359 
L 238.91131 175.148632 
L 244.413929 174.309492 
L 249.916549 174.062304 
L 255.419168 173.832856 
L 260.921787 174.195656 
L 266.424407 174.534505 
L 271.927026 175.437807 
L 277.429646 175.710424 
L 282.932265 176.032124 
L 288.434884 175.761281 
L 293.937504 175.531538 
L 299.440123 174.606651 
L 304.942743 174.237051 
L 310.445362 173.821916 
L 315.947982 174.086254 
L 321.450601 174.315406 
L 326.95322 175.187662 
L 332.45584 175.461166 
L 337.958459 175.806225 
L 343.461079 175.535382 
L 348.963698 175.85649 
L 354.466317 175.589196 
L 359.968937 175.346442 
L 365.471556 174.436931 
L 370.974176 174.058756 
L 376.476795 173.679103 
L 381.979414 173.374257 
L 387.482034 173.047235 
L 392.984653 173.308616 
L 398.487273 173.574432 
" clip-path="url(#pf42599eee1)" style="fill: none; stroke: #e377c2; stroke-opacity: 0.1; stroke-width: 1.5; stroke-linecap: square"/>
   </g>
   <g id="line2d_48">
    <path d="M 73.832727 282.42311 
L 79.335347 277.992346 
L 84.837966 274.03664 
L 90.340586 265.705856 
L 95.843205 258.284288 
L 101.345824 248.764082 
L 106.848444 237.250007 
L 112.351063 223.464518 
L 117.853683 210.399011 
L 123.356302 198.989606 
L 128.858921 189.245176 
L 134.361541 182.43951 
L 139.86416 177.995735 
L 145.36678 176.514378 
L 150.869399 175.667255 
L 156.372018 175.925975 
L 161.874638 175.5957 
L 167.377257 175.70318 
L 172.879877 175.292333 
L 178.382496 175.391238 
L 183.885116 175.057415 
L 189.387735 175.318205 
L 194.890354 175.219596 
L 200.392974 175.633104 
L 205.895593 175.458801 
L 211.398213 175.156616 
L 216.900832 174.342904 
L 222.403451 174.041606 
L 227.906071 173.71488 
L 233.40869 173.97153 
L 238.91131 174.277263 
L 244.413929 175.169034 
L 249.916549 175.474176 
L 255.419168 175.255373 
L 260.921787 174.453489 
L 266.424407 174.244739 
L 271.927026 173.92777 
L 277.429646 174.1995 
L 282.932265 174.459402 
L 288.434884 174.785242 
L 293.937504 174.441661 
L 299.440123 174.099855 
L 304.942743 173.763076 
L 310.445362 174.065852 
L 315.947982 174.377203 
L 321.450601 175.27814 
L 326.95322 175.615807 
L 332.45584 175.952291 
L 337.958459 175.696232 
L 343.461079 175.95643 
L 348.963698 175.622607 
L 354.466317 175.288489 
L 359.968937 174.436044 
L 365.471556 174.097786 
L 370.974176 173.759823 
L 376.476795 174.018543 
L 381.979414 174.356801 
L 387.482034 175.28228 
L 392.984653 175.618468 
L 398.487273 175.955543 
" clip-path="url(#pf42599eee1)" style="fill: none; stroke: #7f7f7f; stroke-opacity: 0.1; stroke-width: 1.5; stroke-linecap: square"/>
   </g>
   <g id="line2d_49">
    <path d="M 73.832727 300.352406 
L 79.335347 293.077015 
L 84.837966 288.309483 
L 90.340586 278.295171 
L 95.843205 270.508808 
L 101.345824 259.572443 
L 106.848444 247.033763 
L 112.351063 232.83994 
L 117.853683 219.654534 
L 123.356302 207.064332 
L 128.858921 195.510044 
L 134.361541 186.306708 
L 139.86416 179.399919 
L 145.36678 175.453774 
L 150.869399 173.949354 
L 156.372018 174.286134 
L 161.874638 174.648933 
L 167.377257 174.422147 
L 172.879877 174.196543 
L 178.382496 173.944623 
L 183.885116 174.204526 
L 189.387735 174.437818 
L 194.890354 175.261878 
L 200.392974 175.575594 
L 205.895593 175.837862 
L 211.398213 175.514388 
L 216.900832 175.784344 
L 222.403451 175.548392 
L 227.906071 175.819826 
L 233.40869 175.49783 
L 238.91131 175.758916 
L 244.413929 175.504631 
L 249.916549 175.757733 
L 255.419168 175.449635 
L 260.921787 175.733487 
L 266.424407 175.508771 
L 271.927026 175.768969 
L 277.429646 175.477724 
L 282.932265 175.747976 
L 288.434884 175.502857 
L 293.937504 175.218708 
L 299.440123 174.371881 
L 304.942743 174.077975 
L 310.445362 173.784956 
L 315.947982 173.494894 
L 321.450601 173.225234 
L 326.95322 173.544568 
L 332.45584 173.86065 
L 337.958459 174.208666 
L 343.461079 174.539827 
L 348.963698 175.411788 
L 354.466317 175.690909 
L 359.968937 175.999008 
L 365.471556 175.683222 
L 370.974176 175.89552 
L 376.476795 175.508771 
L 381.979414 175.797946 
L 387.482034 175.468558 
L 392.984653 175.783753 
L 398.487273 175.506109 
" clip-path="url(#pf42599eee1)" style="fill: none; stroke: #bcbd22; stroke-opacity: 0.1; stroke-width: 1.5; stroke-linecap: square"/>
   </g>
   <g id="line2d_50">
    <path d="M 73.832727 286.503494 
L 79.335347 281.623666 
L 84.837966 276.41711 
L 90.340586 267.45505 
L 95.843205 258.960902 
L 101.345824 249.19134 
L 106.848444 236.514355 
L 112.351063 222.201373 
L 117.853683 208.276028 
L 123.356302 196.151374 
L 128.858921 185.750534 
L 134.361541 178.886915 
L 139.86416 174.935743 
L 145.36678 173.989567 
L 150.869399 174.281403 
L 156.372018 175.179087 
L 161.874638 175.488073 
L 167.377257 175.797059 
L 172.879877 175.543956 
L 178.382496 175.266609 
L 183.885116 174.398788 
L 189.387735 174.118483 
L 194.890354 173.86479 
L 200.392974 174.124101 
L 205.895593 174.328416 
L 211.398213 175.122908 
L 216.900832 175.407648 
L 222.403451 175.667551 
L 227.906071 175.335502 
L 233.40869 175.592448 
L 238.91131 175.33905 
L 244.413929 175.078556 
L 249.916549 174.229363 
L 255.419168 173.970939 
L 260.921787 173.721089 
L 266.424407 174.057869 
L 271.927026 174.323685 
L 277.429646 175.175835 
L 282.932265 175.43692 
L 288.434884 175.766899 
L 293.937504 175.427754 
L 299.440123 175.678787 
L 304.942743 175.347625 
L 310.445362 175.688248 
L 315.947982 175.361226 
L 321.450601 175.625564 
L 326.95322 175.303569 
L 332.45584 175.649219 
L 337.958459 175.322788 
L 343.461079 175.586534 
L 348.963698 175.264243 
L 354.466317 175.611076 
L 359.968937 175.364479 
L 365.471556 175.707763 
L 370.974176 175.481864 
L 376.476795 175.847324 
L 381.979414 175.620242 
L 387.482034 175.88044 
L 392.984653 175.574707 
L 398.487273 175.835793 
" clip-path="url(#pf42599eee1)" style="fill: none; stroke: #17becf; stroke-opacity: 0.1; stroke-width: 1.5; stroke-linecap: square"/>
   </g>
   <g id="line2d_51">
    <path d="M 73.832727 307.584 
L 79.335347 303.973747 
L 84.837966 300.520698 
L 90.340586 293.657226 
L 95.843205 286.977814 
L 101.345824 278.040689 
L 106.848444 266.911146 
L 112.351063 253.58544 
L 117.853683 239.728988 
L 123.356302 225.798616 
L 128.858921 211.858191 
L 134.361541 199.105513 
L 139.86416 188.097642 
L 145.36678 180.591805 
L 150.869399 176.061396 
L 156.372018 174.568804 
L 161.874638 174.308901 
L 167.377257 175.232014 
L 172.879877 175.564654 
L 178.382496 175.312143 
L 183.885116 174.471525 
L 189.387735 173.572954 
L 194.890354 172.674973 
L 200.392974 172.361848 
L 205.895593 172.694784 
L 211.398213 172.97775 
L 216.900832 173.245636 
L 222.403451 173.516774 
L 227.906071 173.836109 
L 233.40869 173.561718 
L 238.91131 173.251845 
L 244.413929 173.53008 
L 249.916549 173.839657 
L 255.419168 173.591877 
L 260.921787 173.291171 
L 266.424407 173.57591 
L 271.927026 173.862129 
L 277.429646 173.603409 
L 282.932265 173.275795 
L 288.434884 173.539837 
L 293.937504 173.837883 
L 299.440123 173.619967 
L 304.942743 173.337592 
L 310.445362 173.611983 
L 315.947982 173.87573 
L 321.450601 173.585372 
L 326.95322 173.21932 
L 332.45584 173.426296 
L 337.958459 173.656631 
L 343.461079 173.971826 
L 348.963698 174.305057 
L 354.466317 175.233197 
L 359.968937 175.569385 
L 365.471556 175.907052 
L 370.974176 175.651584 
L 376.476795 175.370984 
L 381.979414 174.496067 
L 387.482034 174.218423 
L 392.984653 173.966799 
L 398.487273 173.704827 
" clip-path="url(#pf42599eee1)" style="fill: none; stroke: #1f77b4; stroke-opacity: 0.1; stroke-width: 1.5; stroke-linecap: square"/>
   </g>
   <g id="line2d_52">
    <path d="M 73.832727 293.39136 
L 79.335347 292.27369 
L 84.837966 291.196922 
L 90.340586 287.549339 
L 95.843205 282.424022 
L 101.345824 274.16499 
L 106.848444 263.68646 
L 112.351063 249.811085 
L 117.853683 235.331044 
L 123.356302 220.233919 
L 128.858921 206.91797 
L 134.361541 194.72324 
L 139.86416 185.495954 
L 145.36678 178.601879 
L 150.869399 175.332841 
L 156.372018 173.849119 
L 161.874638 174.18442 
L 167.377257 174.471229 
L 172.879877 175.347034 
L 178.382496 175.626451 
L 183.885116 175.878666 
L 189.387735 175.541 
L 194.890354 175.798833 
L 200.392974 175.556671 
L 205.895593 175.829288 
L 211.398213 175.506996 
L 216.900832 175.766899 
L 222.403451 175.508475 
L 227.906071 175.830175 
L 233.40869 175.572637 
L 238.91131 175.913556 
L 244.413929 175.676421 
L 249.916549 176.018819 
L 255.419168 175.690022 
L 260.921787 175.376897 
L 266.424407 174.467681 
L 271.927026 174.224337 
L 277.429646 173.885192 
L 282.932265 174.19122 
L 288.434884 174.473004 
L 293.937504 175.425684 
L 299.440123 175.729052 
L 304.942743 176.058144 
L 310.445362 175.746793 
L 315.947982 176.029167 
L 321.450601 175.71486 
L 326.95322 175.969736 
L 332.45584 175.643009 
L 337.958459 175.344964 
L 343.461079 174.529478 
L 348.963698 174.229955 
L 354.466317 173.909142 
L 359.968937 173.58212 
L 365.471556 173.306842 
L 370.974176 173.542499 
L 376.476795 173.780225 
L 381.979414 174.036284 
L 387.482034 174.372768 
L 392.984653 175.217526 
L 398.487273 175.475654 
" clip-path="url(#pf42599eee1)" style="fill: none; stroke: #ff7f0e; stroke-opacity: 0.1; stroke-width: 1.5; stroke-linecap: square"/>
   </g>
   <g id="line2d_53">
    <path d="M 73.832727 293.16073 
L 79.335347 289.900858 
L 84.837966 286.64345 
L 90.340586 280.080462 
L 95.843205 273.497443 
L 101.345824 264.076092 
L 106.848444 251.270561 
L 112.351063 234.430994 
L 117.853683 217.549736 
L 123.356302 201.803889 
L 128.858921 189.041157 
L 134.361541 179.788147 
L 139.86416 175.265722 
L 145.36678 173.705123 
L 150.869399 173.417722 
L 156.372018 173.179699 
L 161.874638 173.531558 
L 167.377257 173.868929 
L 172.879877 174.201569 
L 178.382496 174.524748 
L 183.885116 174.823976 
L 189.387735 174.534801 
L 194.890354 174.255974 
L 200.392974 174.004055 
L 205.895593 174.261888 
L 211.398213 174.466794 
L 216.900832 175.260695 
L 222.403451 175.544252 
L 227.906071 175.800902 
L 233.40869 175.467375 
L 238.91131 175.724026 
L 244.413929 175.468558 
L 249.916549 175.724617 
L 255.419168 175.404987 
L 260.921787 175.678195 
L 266.424407 175.438103 
L 271.927026 175.777839 
L 277.429646 175.57175 
L 282.932265 175.944012 
L 288.434884 175.717816 
L 293.937504 175.447269 
L 299.440123 174.520608 
L 304.942743 174.145686 
L 310.445362 173.776086 
L 315.947982 174.08241 
L 321.450601 174.414459 
L 326.95322 175.333432 
L 332.45584 175.656611 
L 337.958459 175.418884 
L 343.461079 174.509964 
L 348.963698 174.13652 
L 354.466317 173.749475 
L 359.968937 174.03451 
L 365.471556 174.28229 
L 370.974176 175.121725 
L 376.476795 175.365957 
L 381.979414 175.120838 
L 387.482034 174.283768 
L 392.984653 174.035693 
L 398.487273 173.77786 
" clip-path="url(#pf42599eee1)" style="fill: none; stroke: #2ca02c; stroke-opacity: 0.1; stroke-width: 1.5; stroke-linecap: square"/>
   </g>
   <g id="line2d_54">
    <path d="M 73.832727 293.17847 
L 79.335347 289.938557 
L 84.837966 286.669568 
L 90.340586 280.084774 
L 95.843205 273.430792 
L 101.345824 264.558125 
L 106.848444 254.075677 
L 112.351063 241.963738 
L 117.853683 229.832283 
L 123.356302 217.733649 
L 128.858921 206.235836 
L 134.361541 195.868408 
L 139.86416 186.662412 
L 145.36678 179.841961 
L 150.869399 176.001669 
L 156.372018 174.529774 
L 161.874638 174.21931 
L 167.377257 174.531548 
L 172.879877 175.406761 
L 178.382496 175.713677 
L 183.885116 175.945194 
L 189.387735 175.618468 
L 194.890354 175.837862 
L 200.392974 175.545435 
L 205.895593 175.763647 
L 211.398213 175.432781 
L 216.900832 175.691501 
L 222.403451 175.435442 
L 227.906071 175.691205 
L 233.40869 175.355313 
L 238.91131 175.613146 
L 244.413929 175.357382 
L 249.916549 175.694753 
L 255.419168 175.441356 
L 260.921787 175.784049 
L 266.424407 175.531538 
L 271.927026 175.871866 
L 277.429646 175.540113 
L 282.932265 175.801198 
L 288.434884 175.463532 
L 293.937504 175.796763 
L 299.440123 175.459983 
L 304.942743 175.723434 
L 310.445362 175.401143 
L 315.947982 175.166964 
L 321.450601 174.261001 
L 326.95322 173.94551 
L 332.45584 173.622924 
L 337.958459 173.391997 
L 343.461079 173.072367 
L 348.963698 173.34528 
L 354.466317 173.609027 
L 359.968937 173.953494 
L 365.471556 174.278446 
L 370.974176 174.619069 
L 376.476795 174.36922 
L 381.979414 174.127058 
L 387.482034 173.863903 
L 392.984653 174.181463 
L 398.487273 174.486013 
" clip-path="url(#pf42599eee1)" style="fill: none; stroke: #d62728; stroke-opacity: 0.1; stroke-width: 1.5; stroke-linecap: square"/>
   </g>
   <g id="line2d_55">
    <path d="M 73.832727 282.42311 
L 79.335347 277.992346 
L 84.837966 274.03664 
L 90.340586 265.705856 
L 95.843205 258.284288 
L 101.345824 248.764082 
L 106.848444 236.514355 
L 112.351063 222.201373 
L 117.853683 208.276028 
L 123.356302 196.151374 
L 128.858921 185.750534 
L 134.361541 178.886915 
L 139.86416 174.935743 
L 145.36678 173.705123 
L 150.869399 172.341151 
L 156.372018 172.598392 
L 161.874638 173.326948 
L 167.377257 173.623811 
L 172.879877 173.377213 
L 178.382496 173.126181 
L 183.885116 172.89289 
L 189.387735 172.414479 
L 194.890354 171.587462 
L 200.392974 171.344413 
L 205.895593 171.690655 
L 211.398213 172.614063 
L 216.900832 173.245636 
L 222.403451 173.516774 
L 227.906071 173.71488 
L 233.40869 173.561718 
L 238.91131 173.251845 
L 244.413929 173.53008 
L 249.916549 173.839657 
L 255.419168 173.591877 
L 260.921787 173.291171 
L 266.424407 172.771956 
L 271.927026 172.53423 
L 277.429646 172.793541 
L 282.932265 173.275795 
L 288.434884 173.539837 
L 293.937504 173.837883 
L 299.440123 173.619967 
L 304.942743 173.337592 
L 310.445362 173.611983 
L 315.947982 173.494894 
L 321.450601 173.225234 
L 326.95322 173.21932 
L 332.45584 173.426296 
L 337.958459 173.391997 
L 343.461079 173.072367 
L 348.963698 173.34528 
L 354.466317 173.609027 
L 359.968937 173.58212 
L 365.471556 173.306842 
L 370.974176 173.542499 
L 376.476795 173.643325 
L 381.979414 173.374257 
L 387.482034 173.047235 
L 392.984653 173.308616 
L 398.487273 173.574432 
" clip-path="url(#pf42599eee1)" style="fill: none; stroke: #ffa500; stroke-opacity: 0.6; stroke-width: 1.5; stroke-linecap: square"/>
   </g>
   <g id="line2d_56">
    <path d="M 73.832727 307.584 
L 79.335347 303.973747 
L 84.837966 300.520698 
L 90.340586 293.657226 
L 95.843205 286.977814 
L 101.345824 278.040689 
L 106.848444 266.911146 
L 112.351063 253.58544 
L 117.853683 239.728988 
L 123.356302 225.798616 
L 128.858921 211.858191 
L 134.361541 199.105513 
L 139.86416 188.097642 
L 145.36678 180.591805 
L 150.869399 176.061396 
L 156.372018 175.925975 
L 161.874638 175.861221 
L 167.377257 175.797059 
L 172.879877 175.93662 
L 178.382496 175.713677 
L 183.885116 175.945194 
L 189.387735 175.618468 
L 194.890354 175.868317 
L 200.392974 175.633104 
L 205.895593 175.878666 
L 211.398213 175.554897 
L 216.900832 175.82367 
L 222.403451 175.667551 
L 227.906071 175.83668 
L 233.40869 175.592448 
L 238.91131 175.913556 
L 244.413929 175.676421 
L 249.916549 176.018819 
L 255.419168 175.690022 
L 260.921787 175.819235 
L 266.424407 175.582691 
L 271.927026 175.921836 
L 277.429646 175.711311 
L 282.932265 176.032124 
L 288.434884 175.766899 
L 293.937504 175.839636 
L 299.440123 175.750045 
L 304.942743 176.058144 
L 310.445362 175.746793 
L 315.947982 176.029167 
L 321.450601 175.71486 
L 326.95322 175.969736 
L 332.45584 175.952291 
L 337.958459 175.925975 
L 343.461079 175.95643 
L 348.963698 175.85649 
L 354.466317 175.690909 
L 359.968937 175.999008 
L 365.471556 175.907052 
L 370.974176 175.89552 
L 376.476795 175.961457 
L 381.979414 176.898171 
L 387.482034 177.240273 
L 392.984653 177.581192 
L 398.487273 177.91945 
" clip-path="url(#pf42599eee1)" style="fill: none; stroke: #00ffff; stroke-opacity: 0.6; stroke-width: 1.5; stroke-linecap: square"/>
   </g>
   <g id="line2d_57">
    <path d="M 73.832727 294.042859 
L 79.335347 289.17986 
L 84.837966 285.191863 
L 90.340586 277.154396 
L 95.843205 270.051798 
L 101.345824 260.564251 
L 106.848444 249.047143 
L 112.351063 235.343008 
L 117.853683 221.903444 
L 123.356302 208.952597 
L 128.858921 197.205938 
L 134.361541 187.657354 
L 139.86416 180.698525 
L 145.36678 176.608616 
L 150.869399 174.819393 
L 156.372018 174.48671 
L 161.874638 174.717468 
L 167.377257 174.890831 
L 172.879877 175.041427 
L 178.382496 174.877314 
L 183.885116 174.734459 
L 189.387735 174.414132 
L 194.890354 174.416254 
L 200.392974 174.399157 
L 205.895593 174.679325 
L 211.398213 174.732399 
L 216.900832 175.012113 
L 222.403451 174.993654 
L 227.906071 175.18291 
L 233.40869 175.035197 
L 238.91131 175.191717 
L 244.413929 175.061343 
L 249.916549 175.15915 
L 255.419168 174.842097 
L 260.921787 174.816689 
L 266.424407 174.644561 
L 271.927026 174.905245 
L 277.429646 174.891116 
L 282.932265 175.217526 
L 288.434884 175.227452 
L 293.937504 175.33244 
L 299.440123 174.940347 
L 304.942743 174.877557 
L 310.445362 174.689652 
L 315.947982 174.825686 
L 321.450601 174.727521 
L 326.95322 175.006579 
L 332.45584 175.035978 
L 337.958459 175.144831 
L 343.461079 174.973231 
L 348.963698 175.164852 
L 354.466317 175.107089 
L 359.968937 175.052431 
L 365.471556 174.717193 
L 370.974176 174.699283 
L 376.476795 174.596556 
L 381.979414 174.621435 
L 387.482034 174.593028 
L 392.984653 174.896248 
L 398.487273 175.02753 
" clip-path="url(#pf42599eee1)" style="fill: none; stroke: #0000ff; stroke-width: 2; stroke-linecap: square"/>
   </g>
   <g id="line2d_58">
    <path d="M 150.869399 307.584 
L 150.869399 41.472 
" clip-path="url(#pf42599eee1)" style="fill: none; stroke-dasharray: 5.55,2.4; stroke-dashoffset: 0; stroke: #ff0000; stroke-width: 1.5"/>
   </g>
   <g id="line2d_59">
    <path d="M 145.36678 307.584 
L 145.36678 41.472 
" clip-path="url(#pf42599eee1)" style="fill: none; stroke-dasharray: 5.55,2.4; stroke-dashoffset: 0; stroke: #0000ff; stroke-width: 1.5"/>
   </g>
   <g id="patch_7">
    <path d="M 57.6 307.584 
L 57.6 41.472 
" style="fill: none; stroke: #000000; stroke-width: 0.8; stroke-linejoin: miter; stroke-linecap: square"/>
   </g>
   <g id="patch_8">
    <path d="M 414.72 307.584 
L 414.72 41.472 
" style="fill: none; stroke: #000000; stroke-width: 0.8; stroke-linejoin: miter; stroke-linecap: square"/>
   </g>
   <g id="patch_9">
    <path d="M 57.6 307.584 
L 414.72 307.584 
" style="fill: none; stroke: #000000; stroke-width: 0.8; stroke-linejoin: miter; stroke-linecap: square"/>
   </g>
   <g id="patch_10">
    <path d="M 57.6 41.472 
L 414.72 41.472 
" style="fill: none; stroke: #000000; stroke-width: 0.8; stroke-linejoin: miter; stroke-linecap: square"/>
   </g>
   <g id="text_26">
    <!-- . -->
    <g transform="translate(234.253125 35.472) scale(0.12 -0.12)">
     <defs>
      <path id="DejaVuSans-2e" d="M 684 794 
L 1344 794 
L 1344 0 
L 684 0 
L 684 794 
z
" transform="scale(0.015625)"/>
     </defs>
     <use xlink:href="#DejaVuSans-2e"/>
    </g>
   </g>
   <g id="legend_1">
    <g id="patch_11">
     <path d="M 297.604375 108.1845 
L 407.72 108.1845 
Q 409.72 108.1845 409.72 106.1845 
L 409.72 48.472 
Q 409.72 46.472 407.72 46.472 
L 297.604375 46.472 
Q 295.604375 46.472 295.604375 48.472 
L 295.604375 106.1845 
Q 295.604375 108.1845 297.604375 108.1845 
z
" style="fill: #ffffff; opacity: 0.8; stroke: #cccccc; stroke-linejoin: miter"/>
    </g>
    <g id="line2d_60">
     <path d="M 299.604375 54.570438 
L 309.604375 54.570438 
L 319.604375 54.570438 
" style="fill: none; stroke: #ffa500; stroke-width: 1.5; stroke-linecap: square"/>
    </g>
    <g id="text_27">
     <!-- Upper Bound -->
     <g transform="translate(327.604375 58.070438) scale(0.1 -0.1)">
      <defs>
       <path id="DejaVuSans-55" d="M 556 4666 
L 1191 4666 
L 1191 1831 
Q 1191 1081 1462 751 
Q 1734 422 2344 422 
Q 2950 422 3222 751 
Q 3494 1081 3494 1831 
L 3494 4666 
L 4128 4666 
L 4128 1753 
Q 4128 841 3676 375 
Q 3225 -91 2344 -91 
Q 1459 -91 1007 375 
Q 556 841 556 1753 
L 556 4666 
z
" transform="scale(0.015625)"/>
       <path id="DejaVuSans-20" transform="scale(0.015625)"/>
       <path id="DejaVuSans-42" d="M 1259 2228 
L 1259 519 
L 2272 519 
Q 2781 519 3026 730 
Q 3272 941 3272 1375 
Q 3272 1813 3026 2020 
Q 2781 2228 2272 2228 
L 1259 2228 
z
M 1259 4147 
L 1259 2741 
L 2194 2741 
Q 2656 2741 2882 2914 
Q 3109 3088 3109 3444 
Q 3109 3797 2882 3972 
Q 2656 4147 2194 4147 
L 1259 4147 
z
M 628 4666 
L 2241 4666 
Q 2963 4666 3353 4366 
Q 3744 4066 3744 3513 
Q 3744 3084 3544 2831 
Q 3344 2578 2956 2516 
Q 3422 2416 3680 2098 
Q 3938 1781 3938 1306 
Q 3938 681 3513 340 
Q 3088 0 2303 0 
L 628 0 
L 628 4666 
z
" transform="scale(0.015625)"/>
       <path id="DejaVuSans-6f" d="M 1959 3097 
Q 1497 3097 1228 2736 
Q 959 2375 959 1747 
Q 959 1119 1226 758 
Q 1494 397 1959 397 
Q 2419 397 2687 759 
Q 2956 1122 2956 1747 
Q 2956 2369 2687 2733 
Q 2419 3097 1959 3097 
z
M 1959 3584 
Q 2709 3584 3137 3096 
Q 3566 2609 3566 1747 
Q 3566 888 3137 398 
Q 2709 -91 1959 -91 
Q 1206 -91 779 398 
Q 353 888 353 1747 
Q 353 2609 779 3096 
Q 1206 3584 1959 3584 
z
" transform="scale(0.015625)"/>
       <path id="DejaVuSans-6e" d="M 3513 2113 
L 3513 0 
L 2938 0 
L 2938 2094 
Q 2938 2591 2744 2837 
Q 2550 3084 2163 3084 
Q 1697 3084 1428 2787 
Q 1159 2491 1159 1978 
L 1159 0 
L 581 0 
L 581 3500 
L 1159 3500 
L 1159 2956 
Q 1366 3272 1645 3428 
Q 1925 3584 2291 3584 
Q 2894 3584 3203 3211 
Q 3513 2838 3513 2113 
z
" transform="scale(0.015625)"/>
       <path id="DejaVuSans-64" d="M 2906 2969 
L 2906 4863 
L 3481 4863 
L 3481 0 
L 2906 0 
L 2906 525 
Q 2725 213 2448 61 
Q 2172 -91 1784 -91 
Q 1150 -91 751 415 
Q 353 922 353 1747 
Q 353 2572 751 3078 
Q 1150 3584 1784 3584 
Q 2172 3584 2448 3432 
Q 2725 3281 2906 2969 
z
M 947 1747 
Q 947 1113 1208 752 
Q 1469 391 1925 391 
Q 2381 391 2643 752 
Q 2906 1113 2906 1747 
Q 2906 2381 2643 2742 
Q 2381 3103 1925 3103 
Q 1469 3103 1208 2742 
Q 947 2381 947 1747 
z
" transform="scale(0.015625)"/>
      </defs>
      <use xlink:href="#DejaVuSans-55"/>
      <use xlink:href="#DejaVuSans-70" x="73.193359"/>
      <use xlink:href="#DejaVuSans-70" x="136.669922"/>
      <use xlink:href="#DejaVuSans-65" x="200.146484"/>
      <use xlink:href="#DejaVuSans-72" x="261.669922"/>
      <use xlink:href="#DejaVuSans-20" x="302.783203"/>
      <use xlink:href="#DejaVuSans-42" x="334.570312"/>
      <use xlink:href="#DejaVuSans-6f" x="403.173828"/>
      <use xlink:href="#DejaVuSans-75" x="464.355469"/>
      <use xlink:href="#DejaVuSans-6e" x="527.734375"/>
      <use xlink:href="#DejaVuSans-64" x="591.113281"/>
     </g>
    </g>
    <g id="line2d_61">
     <path d="M 299.604375 69.248563 
L 309.604375 69.248563 
L 319.604375 69.248563 
" style="fill: none; stroke: #00ffff; stroke-width: 1.5; stroke-linecap: square"/>
    </g>
    <g id="text_28">
     <!-- Lower Bound -->
     <g transform="translate(327.604375 72.748563) scale(0.1 -0.1)">
      <defs>
       <path id="DejaVuSans-4c" d="M 628 4666 
L 1259 4666 
L 1259 531 
L 3531 531 
L 3531 0 
L 628 0 
L 628 4666 
z
" transform="scale(0.015625)"/>
       <path id="DejaVuSans-77" d="M 269 3500 
L 844 3500 
L 1563 769 
L 2278 3500 
L 2956 3500 
L 3675 769 
L 4391 3500 
L 4966 3500 
L 4050 0 
L 3372 0 
L 2619 2869 
L 1863 0 
L 1184 0 
L 269 3500 
z
" transform="scale(0.015625)"/>
      </defs>
      <use xlink:href="#DejaVuSans-4c"/>
      <use xlink:href="#DejaVuSans-6f" x="53.962891"/>
      <use xlink:href="#DejaVuSans-77" x="115.144531"/>
      <use xlink:href="#DejaVuSans-65" x="196.931641"/>
      <use xlink:href="#DejaVuSans-72" x="258.455078"/>
      <use xlink:href="#DejaVuSans-20" x="299.568359"/>
      <use xlink:href="#DejaVuSans-42" x="331.355469"/>
      <use xlink:href="#DejaVuSans-6f" x="399.958984"/>
      <use xlink:href="#DejaVuSans-75" x="461.140625"/>
      <use xlink:href="#DejaVuSans-6e" x="524.519531"/>
      <use xlink:href="#DejaVuSans-64" x="587.898438"/>
     </g>
    </g>
    <g id="line2d_62">
     <path d="M 299.604375 83.926688 
L 309.604375 83.926688 
L 319.604375 83.926688 
" style="fill: none; stroke: #ff0000; stroke-width: 1.5; stroke-linecap: square"/>
    </g>
    <g id="text_29">
     <!-- Bitrate Average -->
     <g transform="translate(327.604375 87.426688) scale(0.1 -0.1)">
      <defs>
       <path id="DejaVuSans-41" d="M 2188 4044 
L 1331 1722 
L 3047 1722 
L 2188 4044 
z
M 1831 4666 
L 2547 4666 
L 4325 0 
L 3669 0 
L 3244 1197 
L 1141 1197 
L 716 0 
L 50 0 
L 1831 4666 
z
" transform="scale(0.015625)"/>
       <path id="DejaVuSans-76" d="M 191 3500 
L 800 3500 
L 1894 563 
L 2988 3500 
L 3597 3500 
L 2284 0 
L 1503 0 
L 191 3500 
z
" transform="scale(0.015625)"/>
       <path id="DejaVuSans-67" d="M 2906 1791 
Q 2906 2416 2648 2759 
Q 2391 3103 1925 3103 
Q 1463 3103 1205 2759 
Q 947 2416 947 1791 
Q 947 1169 1205 825 
Q 1463 481 1925 481 
Q 2391 481 2648 825 
Q 2906 1169 2906 1791 
z
M 3481 434 
Q 3481 -459 3084 -895 
Q 2688 -1331 1869 -1331 
Q 1566 -1331 1297 -1286 
Q 1028 -1241 775 -1147 
L 775 -588 
Q 1028 -725 1275 -790 
Q 1522 -856 1778 -856 
Q 2344 -856 2625 -561 
Q 2906 -266 2906 331 
L 2906 616 
Q 2728 306 2450 153 
Q 2172 0 1784 0 
Q 1141 0 747 490 
Q 353 981 353 1791 
Q 353 2603 747 3093 
Q 1141 3584 1784 3584 
Q 2172 3584 2450 3431 
Q 2728 3278 2906 2969 
L 2906 3500 
L 3481 3500 
L 3481 434 
z
" transform="scale(0.015625)"/>
      </defs>
      <use xlink:href="#DejaVuSans-42"/>
      <use xlink:href="#DejaVuSans-69" x="68.603516"/>
      <use xlink:href="#DejaVuSans-74" x="96.386719"/>
      <use xlink:href="#DejaVuSans-72" x="135.595703"/>
      <use xlink:href="#DejaVuSans-61" x="176.708984"/>
      <use xlink:href="#DejaVuSans-74" x="237.988281"/>
      <use xlink:href="#DejaVuSans-65" x="277.197266"/>
      <use xlink:href="#DejaVuSans-20" x="338.720703"/>
      <use xlink:href="#DejaVuSans-41" x="370.507812"/>
      <use xlink:href="#DejaVuSans-76" x="433.041016"/>
      <use xlink:href="#DejaVuSans-65" x="492.220703"/>
      <use xlink:href="#DejaVuSans-72" x="553.744141"/>
      <use xlink:href="#DejaVuSans-61" x="594.857422"/>
      <use xlink:href="#DejaVuSans-67" x="656.136719"/>
      <use xlink:href="#DejaVuSans-65" x="719.613281"/>
     </g>
    </g>
    <g id="line2d_63">
     <path d="M 299.604375 98.604813 
L 309.604375 98.604813 
L 319.604375 98.604813 
" style="fill: none; stroke: #0000ff; stroke-width: 1.5; stroke-linecap: square"/>
    </g>
    <g id="text_30">
     <!-- Buffer Average -->
     <g transform="translate(327.604375 102.104813) scale(0.1 -0.1)">
      <use xlink:href="#DejaVuSans-42"/>
      <use xlink:href="#DejaVuSans-75" x="68.603516"/>
      <use xlink:href="#DejaVuSans-66" x="131.982422"/>
      <use xlink:href="#DejaVuSans-66" x="167.1875"/>
      <use xlink:href="#DejaVuSans-65" x="202.392578"/>
      <use xlink:href="#DejaVuSans-72" x="263.916016"/>
      <use xlink:href="#DejaVuSans-20" x="305.029297"/>
      <use xlink:href="#DejaVuSans-41" x="336.816406"/>
      <use xlink:href="#DejaVuSans-76" x="399.349609"/>
      <use xlink:href="#DejaVuSans-65" x="458.529297"/>
      <use xlink:href="#DejaVuSans-72" x="520.052734"/>
      <use xlink:href="#DejaVuSans-61" x="561.166016"/>
      <use xlink:href="#DejaVuSans-67" x="622.445312"/>
      <use xlink:href="#DejaVuSans-65" x="685.921875"/>
     </g>
    </g>
   </g>
  </g>
 </g>
 <defs>
  <clipPath id="pf42599eee1">
   <rect x="57.6" y="41.472" width="357.12" height="266.112"/>
  </clipPath>
 </defs>
</svg>
