<?xml version="1.0" encoding="utf-8" standalone="no"?>
<!DOCTYPE svg PUBLIC "-//W3C//DTD SVG 1.1//EN"
  "http://www.w3.org/Graphics/SVG/1.1/DTD/svg11.dtd">
<svg xmlns:xlink="http://www.w3.org/1999/xlink" width="433.365625pt" height="340.853125pt" viewBox="0 0 433.365625 340.853125" xmlns="http://www.w3.org/2000/svg" version="1.1">
 <metadata>
  <rdf:RDF xmlns:dc="http://purl.org/dc/elements/1.1/" xmlns:cc="http://creativecommons.org/ns#" xmlns:rdf="http://www.w3.org/1999/02/22-rdf-syntax-ns#">
   <cc:Work>
    <dc:type rdf:resource="http://purl.org/dc/dcmitype/StillImage"/>
    <dc:date>2024-04-13T13:27:29.856578</dc:date>
    <dc:format>image/svg+xml</dc:format>
    <dc:creator>
     <cc:Agent>
      <dc:title>Matplotlib v3.8.3, https://matplotlib.org/</dc:title>
     </cc:Agent>
    </dc:creator>
   </cc:Work>
  </rdf:RDF>
 </metadata>
 <defs>
  <style type="text/css">*{stroke-linejoin: round; stroke-linecap: butt}</style>
 </defs>
 <g id="figure_1">
  <g id="patch_1">
   <path d="M 0 340.853125 
L 433.365625 340.853125 
L 433.365625 0 
L 0 0 
z
" style="fill: #ffffff"/>
  </g>
  <g id="axes_1">
   <g id="patch_2">
    <path d="M 68.365625 289.955 
L 403.165625 289.955 
L 403.165625 12.755 
L 68.365625 12.755 
z
" style="fill: #ffffff"/>
   </g>
   <g id="PolyCollection_1">
    <defs>
     <path id="m73afe8f8b3" d="M 68.365625 -126.643025 
L 68.365625 -95.735225 
L 73.945625 -95.735225 
L 76.735625 -95.735225 
L 79.525625 -98.310875 
L 82.315625 -102.431915 
L 85.105625 -112.360295 
L 90.685625 -125.520365 
L 93.475625 -142.942385 
L 96.265625 -167.460725 
L 101.845625 -199.075385 
L 107.425625 -234.039545 
L 113.005625 -265.256885 
L 118.585625 -292.727405 
L 124.165625 -311.041085 
L 129.745625 -320.197925 
L 135.325625 -320.197925 
L 140.905625 -320.197925 
L 143.695625 -320.197925 
L 146.485625 -320.197925 
L 152.065625 -320.197925 
L 157.645625 -320.197925 
L 163.225625 -320.197925 
L 166.015625 -320.197925 
L 168.805625 -320.197925 
L 174.385625 -320.197925 
L 179.965625 -320.197925 
L 185.545625 -320.197925 
L 191.125625 -320.197925 
L 196.705625 -320.197925 
L 199.495625 -320.197925 
L 202.285625 -320.197925 
L 207.865625 -320.197925 
L 213.445625 -320.197925 
L 219.025625 -320.197925 
L 224.605625 -320.197925 
L 230.185625 -320.197925 
L 235.765625 -320.197925 
L 241.345625 -320.197925 
L 246.925625 -320.197925 
L 252.505625 -320.197925 
L 258.085625 -320.197925 
L 263.665625 -320.197925 
L 269.245625 -320.197925 
L 274.825625 -320.197925 
L 280.405625 -320.197925 
L 285.985625 -320.197925 
L 291.565625 -320.197925 
L 297.145625 -320.197925 
L 302.725625 -320.197925 
L 308.305625 -320.197925 
L 313.885625 -320.197925 
L 319.465625 -320.197925 
L 325.045625 -320.197925 
L 330.625625 -320.197925 
L 336.205625 -320.197925 
L 341.785625 -320.197925 
L 347.365625 -320.197925 
L 352.945625 -320.197925 
L 358.525625 -320.197925 
L 364.105625 -320.197925 
L 369.685625 -320.197925 
L 375.265625 -320.197925 
L 380.845625 -320.197925 
L 386.425625 -320.197925 
L 392.005625 -320.197925 
L 397.585625 -320.197925 
L 397.585625 -320.197925 
L 397.585625 -320.197925 
L 392.005625 -320.197925 
L 386.425625 -320.197925 
L 380.845625 -320.197925 
L 375.265625 -320.197925 
L 369.685625 -320.197925 
L 364.105625 -320.197925 
L 358.525625 -320.197925 
L 352.945625 -320.197925 
L 347.365625 -320.197925 
L 341.785625 -320.197925 
L 336.205625 -320.197925 
L 330.625625 -320.197925 
L 325.045625 -320.197925 
L 319.465625 -320.197925 
L 313.885625 -320.197925 
L 308.305625 -320.197925 
L 302.725625 -320.197925 
L 297.145625 -320.197925 
L 291.565625 -320.197925 
L 285.985625 -320.197925 
L 280.405625 -320.197925 
L 274.825625 -320.197925 
L 269.245625 -320.197925 
L 263.665625 -320.197925 
L 258.085625 -320.197925 
L 252.505625 -320.197925 
L 246.925625 -320.197925 
L 241.345625 -320.197925 
L 235.765625 -320.197925 
L 230.185625 -320.197925 
L 224.605625 -320.197925 
L 219.025625 -320.197925 
L 213.445625 -320.197925 
L 207.865625 -320.197925 
L 202.285625 -320.197925 
L 199.495625 -320.197925 
L 196.705625 -320.197925 
L 191.125625 -320.197925 
L 185.545625 -320.197925 
L 179.965625 -320.197925 
L 174.385625 -320.197925 
L 168.805625 -320.197925 
L 166.015625 -320.197925 
L 163.225625 -320.197925 
L 157.645625 -320.197925 
L 152.065625 -320.197925 
L 146.485625 -320.197925 
L 143.695625 -320.197925 
L 140.905625 -320.197925 
L 135.325625 -320.197925 
L 129.745625 -320.197925 
L 124.165625 -320.197925 
L 118.585625 -320.197925 
L 113.005625 -320.197925 
L 107.425625 -311.041085 
L 101.845625 -292.727405 
L 96.265625 -265.256885 
L 93.475625 -237.786365 
L 90.685625 -206.569025 
L 85.105625 -183.57182 
L 82.315625 -168.17028 
L 79.525625 -162.55005 
L 76.735625 -148.499475 
L 73.945625 -140.6936 
L 68.365625 -126.643025 
z
" style="stroke: #ff0000; stroke-opacity: 0.3"/>
    </defs>
    <g clip-path="url(#pb48846756a)">
     <use xlink:href="#m73afe8f8b3" x="0" y="340.853125" style="fill: #ff0000; fill-opacity: 0.3; stroke: #ff0000; stroke-opacity: 0.3"/>
    </g>
   </g>
   <g id="matplotlib.axis_1">
    <g id="xtick_1">
     <g id="line2d_1">
      <defs>
       <path id="me4c2d7180c" d="M 0 0 
L 0 3.5 
" style="stroke: #000000; stroke-width: 0.8"/>
      </defs>
      <g>
       <use xlink:href="#me4c2d7180c" x="68.365625" y="289.955" style="stroke: #000000; stroke-width: 0.8"/>
      </g>
     </g>
     <g id="text_1">
      <!-- 0 -->
      <g transform="translate(64.365625 308.065) scale(0.16 -0.16)">
       <defs>
        <path id="TimesNewRomanPSMT-30" d="M 231 2094 
Q 231 2819 450 3342 
Q 669 3866 1031 4122 
Q 1313 4325 1613 4325 
Q 2100 4325 2488 3828 
Q 2972 3213 2972 2159 
Q 2972 1422 2759 906 
Q 2547 391 2217 158 
Q 1888 -75 1581 -75 
Q 975 -75 572 641 
Q 231 1244 231 2094 
z
M 844 2016 
Q 844 1141 1059 588 
Q 1238 122 1591 122 
Q 1759 122 1940 273 
Q 2122 425 2216 781 
Q 2359 1319 2359 2297 
Q 2359 3022 2209 3506 
Q 2097 3866 1919 4016 
Q 1791 4119 1609 4119 
Q 1397 4119 1231 3928 
Q 1006 3669 925 3112 
Q 844 2556 844 2016 
z
" transform="scale(0.015625)"/>
       </defs>
       <use xlink:href="#TimesNewRomanPSMT-30"/>
      </g>
     </g>
    </g>
    <g id="xtick_2">
     <g id="line2d_2">
      <g>
       <use xlink:href="#me4c2d7180c" x="124.165625" y="289.955" style="stroke: #000000; stroke-width: 0.8"/>
      </g>
     </g>
     <g id="text_2">
      <!-- 10 -->
      <g transform="translate(116.165625 308.065) scale(0.16 -0.16)">
       <defs>
        <path id="TimesNewRomanPSMT-31" d="M 750 3822 
L 1781 4325 
L 1884 4325 
L 1884 747 
Q 1884 391 1914 303 
Q 1944 216 2037 169 
Q 2131 122 2419 116 
L 2419 0 
L 825 0 
L 825 116 
Q 1125 122 1212 167 
Q 1300 213 1334 289 
Q 1369 366 1369 747 
L 1369 3034 
Q 1369 3497 1338 3628 
Q 1316 3728 1258 3775 
Q 1200 3822 1119 3822 
Q 1003 3822 797 3725 
L 750 3822 
z
" transform="scale(0.015625)"/>
       </defs>
       <use xlink:href="#TimesNewRomanPSMT-31"/>
       <use xlink:href="#TimesNewRomanPSMT-30" x="50"/>
      </g>
     </g>
    </g>
    <g id="xtick_3">
     <g id="line2d_3">
      <g>
       <use xlink:href="#me4c2d7180c" x="179.965625" y="289.955" style="stroke: #000000; stroke-width: 0.8"/>
      </g>
     </g>
     <g id="text_3">
      <!-- 20 -->
      <g transform="translate(171.965625 308.065) scale(0.16 -0.16)">
       <defs>
        <path id="TimesNewRomanPSMT-32" d="M 2934 816 
L 2638 0 
L 138 0 
L 138 116 
Q 1241 1122 1691 1759 
Q 2141 2397 2141 2925 
Q 2141 3328 1894 3587 
Q 1647 3847 1303 3847 
Q 991 3847 742 3664 
Q 494 3481 375 3128 
L 259 3128 
Q 338 3706 661 4015 
Q 984 4325 1469 4325 
Q 1984 4325 2329 3994 
Q 2675 3663 2675 3213 
Q 2675 2891 2525 2569 
Q 2294 2063 1775 1497 
Q 997 647 803 472 
L 1909 472 
Q 2247 472 2383 497 
Q 2519 522 2628 598 
Q 2738 675 2819 816 
L 2934 816 
z
" transform="scale(0.015625)"/>
       </defs>
       <use xlink:href="#TimesNewRomanPSMT-32"/>
       <use xlink:href="#TimesNewRomanPSMT-30" x="50"/>
      </g>
     </g>
    </g>
    <g id="xtick_4">
     <g id="line2d_4">
      <g>
       <use xlink:href="#me4c2d7180c" x="235.765625" y="289.955" style="stroke: #000000; stroke-width: 0.8"/>
      </g>
     </g>
     <g id="text_4">
      <!-- 30 -->
      <g transform="translate(227.765625 308.065) scale(0.16 -0.16)">
       <defs>
        <path id="TimesNewRomanPSMT-33" d="M 325 3431 
Q 506 3859 782 4092 
Q 1059 4325 1472 4325 
Q 1981 4325 2253 3994 
Q 2459 3747 2459 3466 
Q 2459 3003 1878 2509 
Q 2269 2356 2469 2072 
Q 2669 1788 2669 1403 
Q 2669 853 2319 450 
Q 1863 -75 997 -75 
Q 569 -75 414 31 
Q 259 138 259 259 
Q 259 350 332 419 
Q 406 488 509 488 
Q 588 488 669 463 
Q 722 447 909 348 
Q 1097 250 1169 231 
Q 1284 197 1416 197 
Q 1734 197 1970 444 
Q 2206 691 2206 1028 
Q 2206 1275 2097 1509 
Q 2016 1684 1919 1775 
Q 1784 1900 1550 2001 
Q 1316 2103 1072 2103 
L 972 2103 
L 972 2197 
Q 1219 2228 1467 2375 
Q 1716 2522 1828 2728 
Q 1941 2934 1941 3181 
Q 1941 3503 1739 3701 
Q 1538 3900 1238 3900 
Q 753 3900 428 3381 
L 325 3431 
z
" transform="scale(0.015625)"/>
       </defs>
       <use xlink:href="#TimesNewRomanPSMT-33"/>
       <use xlink:href="#TimesNewRomanPSMT-30" x="50"/>
      </g>
     </g>
    </g>
    <g id="xtick_5">
     <g id="line2d_5">
      <g>
       <use xlink:href="#me4c2d7180c" x="291.565625" y="289.955" style="stroke: #000000; stroke-width: 0.8"/>
      </g>
     </g>
     <g id="text_5">
      <!-- 40 -->
      <g transform="translate(283.565625 308.065) scale(0.16 -0.16)">
       <defs>
        <path id="TimesNewRomanPSMT-34" d="M 2978 1563 
L 2978 1119 
L 2409 1119 
L 2409 0 
L 1894 0 
L 1894 1119 
L 100 1119 
L 100 1519 
L 2066 4325 
L 2409 4325 
L 2409 1563 
L 2978 1563 
z
M 1894 1563 
L 1894 3666 
L 406 1563 
L 1894 1563 
z
" transform="scale(0.015625)"/>
       </defs>
       <use xlink:href="#TimesNewRomanPSMT-34"/>
       <use xlink:href="#TimesNewRomanPSMT-30" x="50"/>
      </g>
     </g>
    </g>
    <g id="xtick_6">
     <g id="line2d_6">
      <g>
       <use xlink:href="#me4c2d7180c" x="347.365625" y="289.955" style="stroke: #000000; stroke-width: 0.8"/>
      </g>
     </g>
     <g id="text_6">
      <!-- 50 -->
      <g transform="translate(339.365625 308.065) scale(0.16 -0.16)">
       <defs>
        <path id="TimesNewRomanPSMT-35" d="M 2778 4238 
L 2534 3706 
L 1259 3706 
L 981 3138 
Q 1809 3016 2294 2522 
Q 2709 2097 2709 1522 
Q 2709 1188 2573 903 
Q 2438 619 2231 419 
Q 2025 219 1772 97 
Q 1413 -75 1034 -75 
Q 653 -75 479 54 
Q 306 184 306 341 
Q 306 428 378 495 
Q 450 563 559 563 
Q 641 563 702 538 
Q 763 513 909 409 
Q 1144 247 1384 247 
Q 1750 247 2026 523 
Q 2303 800 2303 1197 
Q 2303 1581 2056 1914 
Q 1809 2247 1375 2428 
Q 1034 2569 447 2591 
L 1259 4238 
L 2778 4238 
z
" transform="scale(0.015625)"/>
       </defs>
       <use xlink:href="#TimesNewRomanPSMT-35"/>
       <use xlink:href="#TimesNewRomanPSMT-30" x="50"/>
      </g>
     </g>
    </g>
    <g id="xtick_7">
     <g id="line2d_7">
      <g>
       <use xlink:href="#me4c2d7180c" x="403.165625" y="289.955" style="stroke: #000000; stroke-width: 0.8"/>
      </g>
     </g>
     <g id="text_7">
      <!-- 60 -->
      <g transform="translate(395.165625 308.065) scale(0.16 -0.16)">
       <defs>
        <path id="TimesNewRomanPSMT-36" d="M 2869 4325 
L 2869 4209 
Q 2456 4169 2195 4045 
Q 1934 3922 1679 3669 
Q 1425 3416 1258 3105 
Q 1091 2794 978 2366 
Q 1428 2675 1881 2675 
Q 2316 2675 2634 2325 
Q 2953 1975 2953 1425 
Q 2953 894 2631 456 
Q 2244 -75 1606 -75 
Q 1172 -75 869 213 
Q 275 772 275 1663 
Q 275 2231 503 2743 
Q 731 3256 1154 3653 
Q 1578 4050 1965 4187 
Q 2353 4325 2688 4325 
L 2869 4325 
z
M 925 2138 
Q 869 1716 869 1456 
Q 869 1156 980 804 
Q 1091 453 1309 247 
Q 1469 100 1697 100 
Q 1969 100 2183 356 
Q 2397 613 2397 1088 
Q 2397 1622 2184 2012 
Q 1972 2403 1581 2403 
Q 1463 2403 1327 2353 
Q 1191 2303 925 2138 
z
" transform="scale(0.015625)"/>
       </defs>
       <use xlink:href="#TimesNewRomanPSMT-36"/>
       <use xlink:href="#TimesNewRomanPSMT-30" x="50"/>
      </g>
     </g>
    </g>
    <g id="text_8">
     <!-- Time (s) -->
     <g transform="translate(201.960938 329.375) scale(0.2 -0.2)">
      <defs>
       <path id="TimesNewRomanPSMT-54" d="M 3703 4238 
L 3750 3244 
L 3631 3244 
Q 3597 3506 3538 3619 
Q 3441 3800 3280 3886 
Q 3119 3972 2856 3972 
L 2259 3972 
L 2259 734 
Q 2259 344 2344 247 
Q 2463 116 2709 116 
L 2856 116 
L 2856 0 
L 1059 0 
L 1059 116 
L 1209 116 
Q 1478 116 1591 278 
Q 1659 378 1659 734 
L 1659 3972 
L 1150 3972 
Q 853 3972 728 3928 
Q 566 3869 450 3700 
Q 334 3531 313 3244 
L 194 3244 
L 244 4238 
L 3703 4238 
z
" transform="scale(0.015625)"/>
       <path id="TimesNewRomanPSMT-69" d="M 928 4444 
Q 1059 4444 1151 4351 
Q 1244 4259 1244 4128 
Q 1244 3997 1151 3903 
Q 1059 3809 928 3809 
Q 797 3809 703 3903 
Q 609 3997 609 4128 
Q 609 4259 701 4351 
Q 794 4444 928 4444 
z
M 1188 2947 
L 1188 647 
Q 1188 378 1227 289 
Q 1266 200 1342 156 
Q 1419 113 1622 113 
L 1622 0 
L 231 0 
L 231 113 
Q 441 113 512 153 
Q 584 194 626 287 
Q 669 381 669 647 
L 669 1750 
Q 669 2216 641 2353 
Q 619 2453 572 2492 
Q 525 2531 444 2531 
Q 356 2531 231 2484 
L 188 2597 
L 1050 2947 
L 1188 2947 
z
" transform="scale(0.015625)"/>
       <path id="TimesNewRomanPSMT-6d" d="M 1050 2338 
Q 1363 2650 1419 2697 
Q 1559 2816 1721 2881 
Q 1884 2947 2044 2947 
Q 2313 2947 2506 2790 
Q 2700 2634 2766 2338 
Q 3088 2713 3309 2830 
Q 3531 2947 3766 2947 
Q 3994 2947 4170 2830 
Q 4347 2713 4450 2447 
Q 4519 2266 4519 1878 
L 4519 647 
Q 4519 378 4559 278 
Q 4591 209 4675 161 
Q 4759 113 4950 113 
L 4950 0 
L 3538 0 
L 3538 113 
L 3597 113 
Q 3781 113 3884 184 
Q 3956 234 3988 344 
Q 4000 397 4000 647 
L 4000 1878 
Q 4000 2228 3916 2372 
Q 3794 2572 3525 2572 
Q 3359 2572 3192 2489 
Q 3025 2406 2788 2181 
L 2781 2147 
L 2788 2013 
L 2788 647 
Q 2788 353 2820 281 
Q 2853 209 2943 161 
Q 3034 113 3253 113 
L 3253 0 
L 1806 0 
L 1806 113 
Q 2044 113 2133 169 
Q 2222 225 2256 338 
Q 2272 391 2272 647 
L 2272 1878 
Q 2272 2228 2169 2381 
Q 2031 2581 1784 2581 
Q 1616 2581 1450 2491 
Q 1191 2353 1050 2181 
L 1050 647 
Q 1050 366 1089 281 
Q 1128 197 1204 155 
Q 1281 113 1516 113 
L 1516 0 
L 100 0 
L 100 113 
Q 297 113 375 155 
Q 453 197 493 289 
Q 534 381 534 647 
L 534 1741 
Q 534 2213 506 2350 
Q 484 2453 437 2492 
Q 391 2531 309 2531 
Q 222 2531 100 2484 
L 53 2597 
L 916 2947 
L 1050 2947 
L 1050 2338 
z
" transform="scale(0.015625)"/>
       <path id="TimesNewRomanPSMT-65" d="M 681 1784 
Q 678 1147 991 784 
Q 1303 422 1725 422 
Q 2006 422 2214 576 
Q 2422 731 2563 1106 
L 2659 1044 
Q 2594 616 2278 264 
Q 1963 -88 1488 -88 
Q 972 -88 605 314 
Q 238 716 238 1394 
Q 238 2128 614 2539 
Q 991 2950 1559 2950 
Q 2041 2950 2350 2633 
Q 2659 2316 2659 1784 
L 681 1784 
z
M 681 1966 
L 2006 1966 
Q 1991 2241 1941 2353 
Q 1863 2528 1708 2628 
Q 1553 2728 1384 2728 
Q 1125 2728 920 2526 
Q 716 2325 681 1966 
z
" transform="scale(0.015625)"/>
       <path id="TimesNewRomanPSMT-20" transform="scale(0.015625)"/>
       <path id="TimesNewRomanPSMT-28" d="M 1988 -1253 
L 1988 -1369 
Q 1516 -1131 1200 -813 
Q 750 -359 506 256 
Q 263 872 263 1534 
Q 263 2503 741 3301 
Q 1219 4100 1988 4444 
L 1988 4313 
Q 1603 4100 1356 3731 
Q 1109 3363 987 2797 
Q 866 2231 866 1616 
Q 866 947 969 400 
Q 1050 -31 1165 -292 
Q 1281 -553 1476 -793 
Q 1672 -1034 1988 -1253 
z
" transform="scale(0.015625)"/>
       <path id="TimesNewRomanPSMT-73" d="M 2050 2947 
L 2050 1972 
L 1947 1972 
Q 1828 2431 1642 2597 
Q 1456 2763 1169 2763 
Q 950 2763 815 2647 
Q 681 2531 681 2391 
Q 681 2216 781 2091 
Q 878 1963 1175 1819 
L 1631 1597 
Q 2266 1288 2266 781 
Q 2266 391 1970 151 
Q 1675 -88 1309 -88 
Q 1047 -88 709 6 
Q 606 38 541 38 
Q 469 38 428 -44 
L 325 -44 
L 325 978 
L 428 978 
Q 516 541 762 319 
Q 1009 97 1316 97 
Q 1531 97 1667 223 
Q 1803 350 1803 528 
Q 1803 744 1651 891 
Q 1500 1038 1047 1263 
Q 594 1488 453 1669 
Q 313 1847 313 2119 
Q 313 2472 555 2709 
Q 797 2947 1181 2947 
Q 1350 2947 1591 2875 
Q 1750 2828 1803 2828 
Q 1853 2828 1881 2850 
Q 1909 2872 1947 2947 
L 2050 2947 
z
" transform="scale(0.015625)"/>
       <path id="TimesNewRomanPSMT-29" d="M 144 4313 
L 144 4444 
Q 619 4209 934 3891 
Q 1381 3434 1625 2820 
Q 1869 2206 1869 1541 
Q 1869 572 1392 -226 
Q 916 -1025 144 -1369 
L 144 -1253 
Q 528 -1038 776 -670 
Q 1025 -303 1145 264 
Q 1266 831 1266 1447 
Q 1266 2113 1163 2663 
Q 1084 3094 967 3353 
Q 850 3613 656 3853 
Q 463 4094 144 4313 
z
" transform="scale(0.015625)"/>
      </defs>
      <use xlink:href="#TimesNewRomanPSMT-54"/>
      <use xlink:href="#TimesNewRomanPSMT-69" x="57.583984"/>
      <use xlink:href="#TimesNewRomanPSMT-6d" x="85.367188"/>
      <use xlink:href="#TimesNewRomanPSMT-65" x="163.150391"/>
      <use xlink:href="#TimesNewRomanPSMT-20" x="207.535156"/>
      <use xlink:href="#TimesNewRomanPSMT-28" x="232.535156"/>
      <use xlink:href="#TimesNewRomanPSMT-73" x="265.835938"/>
      <use xlink:href="#TimesNewRomanPSMT-29" x="304.751953"/>
     </g>
    </g>
   </g>
   <g id="matplotlib.axis_2">
    <g id="ytick_1">
     <g id="line2d_8">
      <defs>
       <path id="m9634043605" d="M 0 0 
L -3.5 0 
" style="stroke: #000000; stroke-width: 0.8"/>
      </defs>
      <g>
       <use xlink:href="#m9634043605" x="68.365625" y="289.955" style="stroke: #000000; stroke-width: 0.8"/>
      </g>
     </g>
     <g id="text_9">
      <!-- 0 -->
      <g transform="translate(53.365625 295.51) scale(0.16 -0.16)">
       <use xlink:href="#TimesNewRomanPSMT-30"/>
      </g>
     </g>
    </g>
    <g id="ytick_2">
     <g id="line2d_9">
      <g>
       <use xlink:href="#m9634043605" x="68.365625" y="255.305" style="stroke: #000000; stroke-width: 0.8"/>
      </g>
     </g>
     <g id="text_10">
      <!-- 500 -->
      <g transform="translate(37.365625 260.86) scale(0.16 -0.16)">
       <use xlink:href="#TimesNewRomanPSMT-35"/>
       <use xlink:href="#TimesNewRomanPSMT-30" x="50"/>
       <use xlink:href="#TimesNewRomanPSMT-30" x="100"/>
      </g>
     </g>
    </g>
    <g id="ytick_3">
     <g id="line2d_10">
      <g>
       <use xlink:href="#m9634043605" x="68.365625" y="220.655" style="stroke: #000000; stroke-width: 0.8"/>
      </g>
     </g>
     <g id="text_11">
      <!-- 1000 -->
      <g transform="translate(29.365625 226.21) scale(0.16 -0.16)">
       <use xlink:href="#TimesNewRomanPSMT-31"/>
       <use xlink:href="#TimesNewRomanPSMT-30" x="50"/>
       <use xlink:href="#TimesNewRomanPSMT-30" x="100"/>
       <use xlink:href="#TimesNewRomanPSMT-30" x="150"/>
      </g>
     </g>
    </g>
    <g id="ytick_4">
     <g id="line2d_11">
      <g>
       <use xlink:href="#m9634043605" x="68.365625" y="186.005" style="stroke: #000000; stroke-width: 0.8"/>
      </g>
     </g>
     <g id="text_12">
      <!-- 1500 -->
      <g transform="translate(29.365625 191.56) scale(0.16 -0.16)">
       <use xlink:href="#TimesNewRomanPSMT-31"/>
       <use xlink:href="#TimesNewRomanPSMT-35" x="50"/>
       <use xlink:href="#TimesNewRomanPSMT-30" x="100"/>
       <use xlink:href="#TimesNewRomanPSMT-30" x="150"/>
      </g>
     </g>
    </g>
    <g id="ytick_5">
     <g id="line2d_12">
      <g>
       <use xlink:href="#m9634043605" x="68.365625" y="151.355" style="stroke: #000000; stroke-width: 0.8"/>
      </g>
     </g>
     <g id="text_13">
      <!-- 2000 -->
      <g transform="translate(29.365625 156.91) scale(0.16 -0.16)">
       <use xlink:href="#TimesNewRomanPSMT-32"/>
       <use xlink:href="#TimesNewRomanPSMT-30" x="50"/>
       <use xlink:href="#TimesNewRomanPSMT-30" x="100"/>
       <use xlink:href="#TimesNewRomanPSMT-30" x="150"/>
      </g>
     </g>
    </g>
    <g id="ytick_6">
     <g id="line2d_13">
      <g>
       <use xlink:href="#m9634043605" x="68.365625" y="116.705" style="stroke: #000000; stroke-width: 0.8"/>
      </g>
     </g>
     <g id="text_14">
      <!-- 2500 -->
      <g transform="translate(29.365625 122.26) scale(0.16 -0.16)">
       <use xlink:href="#TimesNewRomanPSMT-32"/>
       <use xlink:href="#TimesNewRomanPSMT-35" x="50"/>
       <use xlink:href="#TimesNewRomanPSMT-30" x="100"/>
       <use xlink:href="#TimesNewRomanPSMT-30" x="150"/>
      </g>
     </g>
    </g>
    <g id="ytick_7">
     <g id="line2d_14">
      <g>
       <use xlink:href="#m9634043605" x="68.365625" y="82.055" style="stroke: #000000; stroke-width: 0.8"/>
      </g>
     </g>
     <g id="text_15">
      <!-- 3000 -->
      <g transform="translate(29.365625 87.61) scale(0.16 -0.16)">
       <use xlink:href="#TimesNewRomanPSMT-33"/>
       <use xlink:href="#TimesNewRomanPSMT-30" x="50"/>
       <use xlink:href="#TimesNewRomanPSMT-30" x="100"/>
       <use xlink:href="#TimesNewRomanPSMT-30" x="150"/>
      </g>
     </g>
    </g>
    <g id="ytick_8">
     <g id="line2d_15">
      <g>
       <use xlink:href="#m9634043605" x="68.365625" y="47.405" style="stroke: #000000; stroke-width: 0.8"/>
      </g>
     </g>
     <g id="text_16">
      <!-- 3500 -->
      <g transform="translate(29.365625 52.96) scale(0.16 -0.16)">
       <use xlink:href="#TimesNewRomanPSMT-33"/>
       <use xlink:href="#TimesNewRomanPSMT-35" x="50"/>
       <use xlink:href="#TimesNewRomanPSMT-30" x="100"/>
       <use xlink:href="#TimesNewRomanPSMT-30" x="150"/>
      </g>
     </g>
    </g>
    <g id="ytick_9">
     <g id="line2d_16">
      <g>
       <use xlink:href="#m9634043605" x="68.365625" y="12.755" style="stroke: #000000; stroke-width: 0.8"/>
      </g>
     </g>
     <g id="text_17">
      <!-- 4000 -->
      <g transform="translate(29.365625 18.31) scale(0.16 -0.16)">
       <use xlink:href="#TimesNewRomanPSMT-34"/>
       <use xlink:href="#TimesNewRomanPSMT-30" x="50"/>
       <use xlink:href="#TimesNewRomanPSMT-30" x="100"/>
       <use xlink:href="#TimesNewRomanPSMT-30" x="150"/>
      </g>
     </g>
    </g>
    <g id="text_18">
     <!-- bitrate(kbps) -->
     <g transform="translate(21.0875 202.44875) rotate(-90) scale(0.2 -0.2)">
      <defs>
       <path id="TimesNewRomanPSMT-62" d="M 984 2369 
Q 1400 2947 1881 2947 
Q 2322 2947 2650 2570 
Q 2978 2194 2978 1541 
Q 2978 778 2472 313 
Q 2038 -88 1503 -88 
Q 1253 -88 995 3 
Q 738 94 469 275 
L 469 3241 
Q 469 3728 445 3840 
Q 422 3953 372 3993 
Q 322 4034 247 4034 
Q 159 4034 28 3984 
L -16 4094 
L 844 4444 
L 984 4444 
L 984 2369 
z
M 984 2169 
L 984 456 
Q 1144 300 1314 220 
Q 1484 141 1663 141 
Q 1947 141 2192 453 
Q 2438 766 2438 1363 
Q 2438 1913 2192 2208 
Q 1947 2503 1634 2503 
Q 1469 2503 1303 2419 
Q 1178 2356 984 2169 
z
" transform="scale(0.015625)"/>
       <path id="TimesNewRomanPSMT-74" d="M 1031 3803 
L 1031 2863 
L 1700 2863 
L 1700 2644 
L 1031 2644 
L 1031 788 
Q 1031 509 1111 412 
Q 1191 316 1316 316 
Q 1419 316 1516 380 
Q 1613 444 1666 569 
L 1788 569 
Q 1678 263 1478 108 
Q 1278 -47 1066 -47 
Q 922 -47 784 33 
Q 647 113 581 261 
Q 516 409 516 719 
L 516 2644 
L 63 2644 
L 63 2747 
Q 234 2816 414 2980 
Q 594 3144 734 3369 
Q 806 3488 934 3803 
L 1031 3803 
z
" transform="scale(0.015625)"/>
       <path id="TimesNewRomanPSMT-72" d="M 1038 2947 
L 1038 2303 
Q 1397 2947 1775 2947 
Q 1947 2947 2059 2842 
Q 2172 2738 2172 2600 
Q 2172 2478 2090 2393 
Q 2009 2309 1897 2309 
Q 1788 2309 1652 2417 
Q 1516 2525 1450 2525 
Q 1394 2525 1328 2463 
Q 1188 2334 1038 2041 
L 1038 669 
Q 1038 431 1097 309 
Q 1138 225 1241 169 
Q 1344 113 1538 113 
L 1538 0 
L 72 0 
L 72 113 
Q 291 113 397 181 
Q 475 231 506 341 
Q 522 394 522 644 
L 522 1753 
Q 522 2253 501 2348 
Q 481 2444 426 2487 
Q 372 2531 291 2531 
Q 194 2531 72 2484 
L 41 2597 
L 906 2947 
L 1038 2947 
z
" transform="scale(0.015625)"/>
       <path id="TimesNewRomanPSMT-61" d="M 1822 413 
Q 1381 72 1269 19 
Q 1100 -59 909 -59 
Q 613 -59 420 144 
Q 228 347 228 678 
Q 228 888 322 1041 
Q 450 1253 767 1440 
Q 1084 1628 1822 1897 
L 1822 2009 
Q 1822 2438 1686 2597 
Q 1550 2756 1291 2756 
Q 1094 2756 978 2650 
Q 859 2544 859 2406 
L 866 2225 
Q 866 2081 792 2003 
Q 719 1925 600 1925 
Q 484 1925 411 2006 
Q 338 2088 338 2228 
Q 338 2497 613 2722 
Q 888 2947 1384 2947 
Q 1766 2947 2009 2819 
Q 2194 2722 2281 2516 
Q 2338 2381 2338 1966 
L 2338 994 
Q 2338 584 2353 492 
Q 2369 400 2405 369 
Q 2441 338 2488 338 
Q 2538 338 2575 359 
Q 2641 400 2828 588 
L 2828 413 
Q 2478 -56 2159 -56 
Q 2006 -56 1915 50 
Q 1825 156 1822 413 
z
M 1822 616 
L 1822 1706 
Q 1350 1519 1213 1441 
Q 966 1303 859 1153 
Q 753 1003 753 825 
Q 753 600 887 451 
Q 1022 303 1197 303 
Q 1434 303 1822 616 
z
" transform="scale(0.015625)"/>
       <path id="TimesNewRomanPSMT-6b" d="M 1047 4444 
L 1047 1597 
L 1775 2259 
Q 2006 2472 2044 2528 
Q 2069 2566 2069 2603 
Q 2069 2666 2017 2711 
Q 1966 2756 1847 2763 
L 1847 2863 
L 3091 2863 
L 3091 2763 
Q 2834 2756 2664 2684 
Q 2494 2613 2291 2428 
L 1556 1750 
L 2291 822 
Q 2597 438 2703 334 
Q 2853 188 2966 144 
Q 3044 113 3238 113 
L 3238 0 
L 1847 0 
L 1847 113 
Q 1966 116 2008 148 
Q 2050 181 2050 241 
Q 2050 313 1925 472 
L 1047 1594 
L 1047 644 
Q 1047 366 1086 278 
Q 1125 191 1197 153 
Q 1269 116 1509 113 
L 1509 0 
L 53 0 
L 53 113 
Q 272 113 381 166 
Q 447 200 481 272 
Q 528 375 528 628 
L 528 3234 
Q 528 3731 506 3842 
Q 484 3953 434 3995 
Q 384 4038 303 4038 
Q 238 4038 106 3984 
L 53 4094 
L 903 4444 
L 1047 4444 
z
" transform="scale(0.015625)"/>
       <path id="TimesNewRomanPSMT-70" d="M -6 2578 
L 875 2934 
L 994 2934 
L 994 2266 
Q 1216 2644 1439 2795 
Q 1663 2947 1909 2947 
Q 2341 2947 2628 2609 
Q 2981 2197 2981 1534 
Q 2981 794 2556 309 
Q 2206 -88 1675 -88 
Q 1444 -88 1275 -22 
Q 1150 25 994 166 
L 994 -706 
Q 994 -1000 1030 -1079 
Q 1066 -1159 1155 -1206 
Q 1244 -1253 1478 -1253 
L 1478 -1369 
L -22 -1369 
L -22 -1253 
L 56 -1253 
Q 228 -1256 350 -1188 
Q 409 -1153 442 -1076 
Q 475 -1000 475 -688 
L 475 2019 
Q 475 2297 450 2372 
Q 425 2447 370 2484 
Q 316 2522 222 2522 
Q 147 2522 31 2478 
L -6 2578 
z
M 994 2081 
L 994 1013 
Q 994 666 1022 556 
Q 1066 375 1236 237 
Q 1406 100 1666 100 
Q 1978 100 2172 344 
Q 2425 663 2425 1241 
Q 2425 1897 2138 2250 
Q 1938 2494 1663 2494 
Q 1513 2494 1366 2419 
Q 1253 2363 994 2081 
z
" transform="scale(0.015625)"/>
      </defs>
      <use xlink:href="#TimesNewRomanPSMT-62"/>
      <use xlink:href="#TimesNewRomanPSMT-69" x="50"/>
      <use xlink:href="#TimesNewRomanPSMT-74" x="77.783203"/>
      <use xlink:href="#TimesNewRomanPSMT-72" x="105.566406"/>
      <use xlink:href="#TimesNewRomanPSMT-61" x="138.867188"/>
      <use xlink:href="#TimesNewRomanPSMT-74" x="183.251953"/>
      <use xlink:href="#TimesNewRomanPSMT-65" x="211.035156"/>
      <use xlink:href="#TimesNewRomanPSMT-28" x="255.419922"/>
      <use xlink:href="#TimesNewRomanPSMT-6b" x="288.720703"/>
      <use xlink:href="#TimesNewRomanPSMT-62" x="338.720703"/>
      <use xlink:href="#TimesNewRomanPSMT-70" x="388.720703"/>
      <use xlink:href="#TimesNewRomanPSMT-73" x="438.720703"/>
      <use xlink:href="#TimesNewRomanPSMT-29" x="477.636719"/>
     </g>
    </g>
   </g>
   <g id="line2d_17">
    <path d="M 68.365625 245.1179 
L 73.945625 245.1179 
L 76.735625 241.6837 
L 79.525625 236.5324 
L 82.315625 226.60402 
L 85.105625 214.3025 
L 90.685625 197.91074 
L 93.475625 173.3924 
L 96.265625 141.77774 
L 101.845625 106.81358 
L 107.425625 75.59624 
L 113.005625 48.12572 
L 118.585625 29.81204 
L 124.165625 20.6552 
L 129.745625 20.6552 
L 135.325625 20.6552 
L 140.905625 20.6552 
L 143.695625 20.6552 
L 146.485625 20.6552 
L 152.065625 20.6552 
L 157.645625 20.6552 
L 163.225625 20.6552 
L 166.015625 20.6552 
L 168.805625 20.6552 
L 174.385625 20.6552 
L 179.965625 20.6552 
L 185.545625 20.6552 
L 191.125625 20.6552 
L 196.705625 20.6552 
L 199.495625 20.6552 
L 202.285625 20.6552 
L 207.865625 20.6552 
L 213.445625 20.6552 
L 219.025625 20.6552 
L 224.605625 20.6552 
L 230.185625 20.6552 
L 235.765625 20.6552 
L 241.345625 20.6552 
L 246.925625 20.6552 
L 252.505625 20.6552 
L 258.085625 20.6552 
L 263.665625 20.6552 
L 269.245625 20.6552 
L 274.825625 20.6552 
L 280.405625 20.6552 
L 285.985625 20.6552 
L 291.565625 20.6552 
L 297.145625 20.6552 
L 302.725625 20.6552 
L 308.305625 20.6552 
L 313.885625 20.6552 
L 319.465625 20.6552 
L 325.045625 20.6552 
L 330.625625 20.6552 
L 336.205625 20.6552 
L 341.785625 20.6552 
L 347.365625 20.6552 
L 352.945625 20.6552 
L 358.525625 20.6552 
L 364.105625 20.6552 
L 369.685625 20.6552 
L 375.265625 20.6552 
L 380.845625 20.6552 
L 386.425625 20.6552 
L 392.005625 20.6552 
L 397.585625 20.6552 
" clip-path="url(#pb48846756a)" style="fill: none; stroke: #1f77b4; stroke-opacity: 0.1; stroke-width: 1.5; stroke-linecap: square"/>
   </g>
   <g id="line2d_18">
    <path d="M 68.365625 214.2101 
L 73.945625 200.159525 
L 76.735625 192.35365 
L 79.525625 178.303075 
L 82.315625 172.682845 
L 85.105625 157.281305 
L 90.685625 134.2841 
L 93.475625 103.06676 
L 96.265625 75.59624 
L 101.845625 48.12572 
L 107.425625 29.81204 
L 113.005625 20.6552 
L 118.585625 20.6552 
L 124.165625 20.6552 
L 129.745625 20.6552 
L 135.325625 20.6552 
L 140.905625 20.6552 
L 143.695625 20.6552 
L 146.485625 20.6552 
L 152.065625 20.6552 
L 157.645625 20.6552 
L 163.225625 20.6552 
L 166.015625 20.6552 
L 168.805625 20.6552 
L 174.385625 20.6552 
L 179.965625 20.6552 
L 185.545625 20.6552 
L 191.125625 20.6552 
L 196.705625 20.6552 
L 199.495625 20.6552 
L 202.285625 20.6552 
L 207.865625 20.6552 
L 213.445625 20.6552 
L 219.025625 20.6552 
L 224.605625 20.6552 
L 230.185625 20.6552 
L 235.765625 20.6552 
L 241.345625 20.6552 
L 246.925625 20.6552 
L 252.505625 20.6552 
L 258.085625 20.6552 
L 263.665625 20.6552 
L 269.245625 20.6552 
L 274.825625 20.6552 
L 280.405625 20.6552 
L 285.985625 20.6552 
L 291.565625 20.6552 
L 297.145625 20.6552 
L 302.725625 20.6552 
L 308.305625 20.6552 
L 313.885625 20.6552 
L 319.465625 20.6552 
L 325.045625 20.6552 
L 330.625625 20.6552 
L 336.205625 20.6552 
L 341.785625 20.6552 
L 347.365625 20.6552 
L 352.945625 20.6552 
L 358.525625 20.6552 
L 364.105625 20.6552 
L 369.685625 20.6552 
L 375.265625 20.6552 
L 380.845625 20.6552 
L 386.425625 20.6552 
L 392.005625 20.6552 
L 397.585625 20.6552 
" clip-path="url(#pb48846756a)" style="fill: none; stroke: #ff7f0e; stroke-opacity: 0.1; stroke-width: 1.5; stroke-linecap: square"/>
   </g>
   <g id="line2d_19">
    <path d="M 68.365625 245.1179 
L 73.945625 245.1179 
L 76.735625 245.1179 
L 79.525625 242.54225 
L 82.315625 238.42121 
L 85.105625 228.49283 
L 90.685625 215.33276 
L 93.475625 188.7539 
L 96.265625 155.07872 
L 101.845625 114.30722 
L 107.425625 79.34306 
L 113.005625 48.12572 
L 118.585625 29.81204 
L 124.165625 20.6552 
L 129.745625 20.6552 
L 135.325625 20.6552 
L 140.905625 20.6552 
L 143.695625 20.6552 
L 146.485625 20.6552 
L 152.065625 20.6552 
L 157.645625 20.6552 
L 163.225625 20.6552 
L 166.015625 20.6552 
L 168.805625 20.6552 
L 174.385625 20.6552 
L 179.965625 20.6552 
L 185.545625 20.6552 
L 191.125625 20.6552 
L 196.705625 20.6552 
L 199.495625 20.6552 
L 202.285625 20.6552 
L 207.865625 20.6552 
L 213.445625 20.6552 
L 219.025625 20.6552 
L 224.605625 20.6552 
L 230.185625 20.6552 
L 235.765625 20.6552 
L 241.345625 20.6552 
L 246.925625 20.6552 
L 252.505625 20.6552 
L 258.085625 20.6552 
L 263.665625 20.6552 
L 269.245625 20.6552 
L 274.825625 20.6552 
L 280.405625 20.6552 
L 285.985625 20.6552 
L 291.565625 20.6552 
L 297.145625 20.6552 
L 302.725625 20.6552 
L 308.305625 20.6552 
L 313.885625 20.6552 
L 319.465625 20.6552 
L 325.045625 20.6552 
L 330.625625 20.6552 
L 336.205625 20.6552 
L 341.785625 20.6552 
L 347.365625 20.6552 
L 352.945625 20.6552 
L 358.525625 20.6552 
L 364.105625 20.6552 
L 369.685625 20.6552 
L 375.265625 20.6552 
L 380.845625 20.6552 
L 386.425625 20.6552 
L 392.005625 20.6552 
L 397.585625 20.6552 
" clip-path="url(#pb48846756a)" style="fill: none; stroke: #2ca02c; stroke-opacity: 0.1; stroke-width: 1.5; stroke-linecap: square"/>
   </g>
   <g id="line2d_20">
    <path d="M 68.365625 245.1179 
L 73.945625 245.1179 
L 76.735625 241.6837 
L 79.525625 236.5324 
L 82.315625 226.60402 
L 85.105625 214.3025 
L 90.685625 197.91074 
L 93.475625 173.3924 
L 96.265625 141.77774 
L 101.845625 106.81358 
L 107.425625 75.59624 
L 113.005625 48.12572 
L 118.585625 29.81204 
L 124.165625 20.6552 
L 129.745625 20.6552 
L 135.325625 20.6552 
L 140.905625 20.6552 
L 143.695625 20.6552 
L 146.485625 20.6552 
L 152.065625 20.6552 
L 157.645625 20.6552 
L 163.225625 20.6552 
L 166.015625 20.6552 
L 168.805625 20.6552 
L 174.385625 20.6552 
L 179.965625 20.6552 
L 185.545625 20.6552 
L 191.125625 20.6552 
L 196.705625 20.6552 
L 199.495625 20.6552 
L 202.285625 20.6552 
L 207.865625 20.6552 
L 213.445625 20.6552 
L 219.025625 20.6552 
L 224.605625 20.6552 
L 230.185625 20.6552 
L 235.765625 20.6552 
L 241.345625 20.6552 
L 246.925625 20.6552 
L 252.505625 20.6552 
L 258.085625 20.6552 
L 263.665625 20.6552 
L 269.245625 20.6552 
L 274.825625 20.6552 
L 280.405625 20.6552 
L 285.985625 20.6552 
L 291.565625 20.6552 
L 297.145625 20.6552 
L 302.725625 20.6552 
L 308.305625 20.6552 
L 313.885625 20.6552 
L 319.465625 20.6552 
L 325.045625 20.6552 
L 330.625625 20.6552 
L 336.205625 20.6552 
L 341.785625 20.6552 
L 347.365625 20.6552 
L 352.945625 20.6552 
L 358.525625 20.6552 
L 364.105625 20.6552 
L 369.685625 20.6552 
L 375.265625 20.6552 
L 380.845625 20.6552 
L 386.425625 20.6552 
L 392.005625 20.6552 
L 397.585625 20.6552 
" clip-path="url(#pb48846756a)" style="fill: none; stroke: #d62728; stroke-opacity: 0.1; stroke-width: 1.5; stroke-linecap: square"/>
   </g>
   <g id="line2d_21">
    <path d="M 68.365625 245.1179 
L 73.945625 245.1179 
L 76.735625 241.6837 
L 79.525625 236.5324 
L 82.315625 226.60402 
L 85.105625 214.3025 
L 90.685625 197.91074 
L 93.475625 173.3924 
L 96.265625 141.77774 
L 101.845625 106.81358 
L 107.425625 75.59624 
L 113.005625 48.12572 
L 118.585625 29.81204 
L 124.165625 20.6552 
L 129.745625 20.6552 
L 135.325625 20.6552 
L 140.905625 20.6552 
L 143.695625 20.6552 
L 146.485625 20.6552 
L 152.065625 20.6552 
L 157.645625 20.6552 
L 163.225625 20.6552 
L 166.015625 20.6552 
L 168.805625 20.6552 
L 174.385625 20.6552 
L 179.965625 20.6552 
L 185.545625 20.6552 
L 191.125625 20.6552 
L 196.705625 20.6552 
L 199.495625 20.6552 
L 202.285625 20.6552 
L 207.865625 20.6552 
L 213.445625 20.6552 
L 219.025625 20.6552 
L 224.605625 20.6552 
L 230.185625 20.6552 
L 235.765625 20.6552 
L 241.345625 20.6552 
L 246.925625 20.6552 
L 252.505625 20.6552 
L 258.085625 20.6552 
L 263.665625 20.6552 
L 269.245625 20.6552 
L 274.825625 20.6552 
L 280.405625 20.6552 
L 285.985625 20.6552 
L 291.565625 20.6552 
L 297.145625 20.6552 
L 302.725625 20.6552 
L 308.305625 20.6552 
L 313.885625 20.6552 
L 319.465625 20.6552 
L 325.045625 20.6552 
L 330.625625 20.6552 
L 336.205625 20.6552 
L 341.785625 20.6552 
L 347.365625 20.6552 
L 352.945625 20.6552 
L 358.525625 20.6552 
L 364.105625 20.6552 
L 369.685625 20.6552 
L 375.265625 20.6552 
L 380.845625 20.6552 
L 386.425625 20.6552 
L 392.005625 20.6552 
L 397.585625 20.6552 
" clip-path="url(#pb48846756a)" style="fill: none; stroke: #9467bd; stroke-opacity: 0.1; stroke-width: 1.5; stroke-linecap: square"/>
   </g>
   <g id="line2d_22">
    <path d="M 68.365625 214.2101 
L 73.945625 200.159525 
L 76.735625 192.35365 
L 79.525625 178.303075 
L 82.315625 172.682845 
L 85.105625 157.281305 
L 90.685625 134.2841 
L 93.475625 103.06676 
L 96.265625 75.59624 
L 101.845625 48.12572 
L 107.425625 29.81204 
L 113.005625 20.6552 
L 118.585625 20.6552 
L 124.165625 20.6552 
L 129.745625 20.6552 
L 135.325625 20.6552 
L 140.905625 20.6552 
L 143.695625 20.6552 
L 146.485625 20.6552 
L 152.065625 20.6552 
L 157.645625 20.6552 
L 163.225625 20.6552 
L 166.015625 20.6552 
L 168.805625 20.6552 
L 174.385625 20.6552 
L 179.965625 20.6552 
L 185.545625 20.6552 
L 191.125625 20.6552 
L 196.705625 20.6552 
L 199.495625 20.6552 
L 202.285625 20.6552 
L 207.865625 20.6552 
L 213.445625 20.6552 
L 219.025625 20.6552 
L 224.605625 20.6552 
L 230.185625 20.6552 
L 235.765625 20.6552 
L 241.345625 20.6552 
L 246.925625 20.6552 
L 252.505625 20.6552 
L 258.085625 20.6552 
L 263.665625 20.6552 
L 269.245625 20.6552 
L 274.825625 20.6552 
L 280.405625 20.6552 
L 285.985625 20.6552 
L 291.565625 20.6552 
L 297.145625 20.6552 
L 302.725625 20.6552 
L 308.305625 20.6552 
L 313.885625 20.6552 
L 319.465625 20.6552 
L 325.045625 20.6552 
L 330.625625 20.6552 
L 336.205625 20.6552 
L 341.785625 20.6552 
L 347.365625 20.6552 
L 352.945625 20.6552 
L 358.525625 20.6552 
L 364.105625 20.6552 
L 369.685625 20.6552 
L 375.265625 20.6552 
L 380.845625 20.6552 
L 386.425625 20.6552 
L 392.005625 20.6552 
L 397.585625 20.6552 
" clip-path="url(#pb48846756a)" style="fill: none; stroke: #8c564b; stroke-opacity: 0.1; stroke-width: 1.5; stroke-linecap: square"/>
   </g>
   <g id="line2d_23">
    <path d="M 68.365625 245.1179 
L 73.945625 245.1179 
L 76.735625 241.6837 
L 79.525625 236.5324 
L 82.315625 226.60402 
L 85.105625 214.3025 
L 90.685625 197.91074 
L 93.475625 173.3924 
L 96.265625 141.77774 
L 101.845625 106.81358 
L 107.425625 75.59624 
L 113.005625 48.12572 
L 118.585625 29.81204 
L 124.165625 20.6552 
L 129.745625 20.6552 
L 135.325625 20.6552 
L 140.905625 20.6552 
L 143.695625 20.6552 
L 146.485625 20.6552 
L 152.065625 20.6552 
L 157.645625 20.6552 
L 163.225625 20.6552 
L 166.015625 20.6552 
L 168.805625 20.6552 
L 174.385625 20.6552 
L 179.965625 20.6552 
L 185.545625 20.6552 
L 191.125625 20.6552 
L 196.705625 20.6552 
L 199.495625 20.6552 
L 202.285625 20.6552 
L 207.865625 20.6552 
L 213.445625 20.6552 
L 219.025625 20.6552 
L 224.605625 20.6552 
L 230.185625 20.6552 
L 235.765625 20.6552 
L 241.345625 20.6552 
L 246.925625 20.6552 
L 252.505625 20.6552 
L 258.085625 20.6552 
L 263.665625 20.6552 
L 269.245625 20.6552 
L 274.825625 20.6552 
L 280.405625 20.6552 
L 285.985625 20.6552 
L 291.565625 20.6552 
L 297.145625 20.6552 
L 302.725625 20.6552 
L 308.305625 20.6552 
L 313.885625 20.6552 
L 319.465625 20.6552 
L 325.045625 20.6552 
L 330.625625 20.6552 
L 336.205625 20.6552 
L 341.785625 20.6552 
L 347.365625 20.6552 
L 352.945625 20.6552 
L 358.525625 20.6552 
L 364.105625 20.6552 
L 369.685625 20.6552 
L 375.265625 20.6552 
L 380.845625 20.6552 
L 386.425625 20.6552 
L 392.005625 20.6552 
L 397.585625 20.6552 
" clip-path="url(#pb48846756a)" style="fill: none; stroke: #e377c2; stroke-opacity: 0.1; stroke-width: 1.5; stroke-linecap: square"/>
   </g>
   <g id="line2d_24">
    <path d="M 68.365625 245.1179 
L 73.945625 245.1179 
L 76.735625 241.6837 
L 79.525625 236.5324 
L 82.315625 226.60402 
L 85.105625 214.3025 
L 90.685625 188.7539 
L 93.475625 155.07872 
L 96.265625 114.30722 
L 101.845625 79.34306 
L 107.425625 48.12572 
L 113.005625 29.81204 
L 118.585625 20.6552 
L 124.165625 20.6552 
L 129.745625 20.6552 
L 135.325625 20.6552 
L 140.905625 20.6552 
L 143.695625 20.6552 
L 146.485625 20.6552 
L 152.065625 20.6552 
L 157.645625 20.6552 
L 163.225625 20.6552 
L 166.015625 20.6552 
L 168.805625 20.6552 
L 174.385625 20.6552 
L 179.965625 20.6552 
L 185.545625 20.6552 
L 191.125625 20.6552 
L 196.705625 20.6552 
L 199.495625 20.6552 
L 202.285625 20.6552 
L 207.865625 20.6552 
L 213.445625 20.6552 
L 219.025625 20.6552 
L 224.605625 20.6552 
L 230.185625 20.6552 
L 235.765625 20.6552 
L 241.345625 20.6552 
L 246.925625 20.6552 
L 252.505625 20.6552 
L 258.085625 20.6552 
L 263.665625 20.6552 
L 269.245625 20.6552 
L 274.825625 20.6552 
L 280.405625 20.6552 
L 285.985625 20.6552 
L 291.565625 20.6552 
L 297.145625 20.6552 
L 302.725625 20.6552 
L 308.305625 20.6552 
L 313.885625 20.6552 
L 319.465625 20.6552 
L 325.045625 20.6552 
L 330.625625 20.6552 
L 336.205625 20.6552 
L 341.785625 20.6552 
L 347.365625 20.6552 
L 352.945625 20.6552 
L 358.525625 20.6552 
L 364.105625 20.6552 
L 369.685625 20.6552 
L 375.265625 20.6552 
L 380.845625 20.6552 
L 386.425625 20.6552 
L 392.005625 20.6552 
L 397.585625 20.6552 
" clip-path="url(#pb48846756a)" style="fill: none; stroke: #7f7f7f; stroke-opacity: 0.1; stroke-width: 1.5; stroke-linecap: square"/>
   </g>
   <g id="line2d_25">
    <path d="M 68.365625 245.1179 
L 73.945625 245.1179 
L 76.735625 245.1179 
L 79.525625 242.54225 
L 82.315625 234.67439 
L 85.105625 220.99919 
L 90.685625 194.93546 
L 93.475625 159.19976 
L 96.265625 116.36774 
L 101.845625 79.34306 
L 107.425625 48.12572 
L 113.005625 29.81204 
L 118.585625 20.6552 
L 124.165625 20.6552 
L 129.745625 20.6552 
L 135.325625 20.6552 
L 140.905625 20.6552 
L 143.695625 20.6552 
L 146.485625 20.6552 
L 152.065625 20.6552 
L 157.645625 20.6552 
L 163.225625 20.6552 
L 166.015625 20.6552 
L 168.805625 20.6552 
L 174.385625 20.6552 
L 179.965625 20.6552 
L 185.545625 20.6552 
L 191.125625 20.6552 
L 196.705625 20.6552 
L 199.495625 20.6552 
L 202.285625 20.6552 
L 207.865625 20.6552 
L 213.445625 20.6552 
L 219.025625 20.6552 
L 224.605625 20.6552 
L 230.185625 20.6552 
L 235.765625 20.6552 
L 241.345625 20.6552 
L 246.925625 20.6552 
L 252.505625 20.6552 
L 258.085625 20.6552 
L 263.665625 20.6552 
L 269.245625 20.6552 
L 274.825625 20.6552 
L 280.405625 20.6552 
L 285.985625 20.6552 
L 291.565625 20.6552 
L 297.145625 20.6552 
L 302.725625 20.6552 
L 308.305625 20.6552 
L 313.885625 20.6552 
L 319.465625 20.6552 
L 325.045625 20.6552 
L 330.625625 20.6552 
L 336.205625 20.6552 
L 341.785625 20.6552 
L 347.365625 20.6552 
L 352.945625 20.6552 
L 358.525625 20.6552 
L 364.105625 20.6552 
L 369.685625 20.6552 
L 375.265625 20.6552 
L 380.845625 20.6552 
L 386.425625 20.6552 
L 392.005625 20.6552 
L 397.585625 20.6552 
" clip-path="url(#pb48846756a)" style="fill: none; stroke: #bcbd22; stroke-opacity: 0.1; stroke-width: 1.5; stroke-linecap: square"/>
   </g>
   <g id="line2d_26">
    <path d="M 68.365625 245.1179 
L 73.945625 237.39095 
L 76.735625 233.0982 
L 79.525625 220.687725 
L 82.315625 210.103305 
L 85.105625 195.428645 
L 90.685625 173.3924 
L 93.475625 141.77774 
L 96.265625 106.81358 
L 101.845625 75.59624 
L 107.425625 48.12572 
L 113.005625 29.81204 
L 118.585625 20.6552 
L 124.165625 20.6552 
L 129.745625 20.6552 
L 135.325625 20.6552 
L 140.905625 20.6552 
L 143.695625 20.6552 
L 146.485625 20.6552 
L 152.065625 20.6552 
L 157.645625 20.6552 
L 163.225625 20.6552 
L 166.015625 20.6552 
L 168.805625 20.6552 
L 174.385625 20.6552 
L 179.965625 20.6552 
L 185.545625 20.6552 
L 191.125625 20.6552 
L 196.705625 20.6552 
L 199.495625 20.6552 
L 202.285625 20.6552 
L 207.865625 20.6552 
L 213.445625 20.6552 
L 219.025625 20.6552 
L 224.605625 20.6552 
L 230.185625 20.6552 
L 235.765625 20.6552 
L 241.345625 20.6552 
L 246.925625 20.6552 
L 252.505625 20.6552 
L 258.085625 20.6552 
L 263.665625 20.6552 
L 269.245625 20.6552 
L 274.825625 20.6552 
L 280.405625 20.6552 
L 285.985625 20.6552 
L 291.565625 20.6552 
L 297.145625 20.6552 
L 302.725625 20.6552 
L 308.305625 20.6552 
L 313.885625 20.6552 
L 319.465625 20.6552 
L 325.045625 20.6552 
L 330.625625 20.6552 
L 336.205625 20.6552 
L 341.785625 20.6552 
L 347.365625 20.6552 
L 352.945625 20.6552 
L 358.525625 20.6552 
L 364.105625 20.6552 
L 369.685625 20.6552 
L 375.265625 20.6552 
L 380.845625 20.6552 
L 386.425625 20.6552 
L 392.005625 20.6552 
L 397.585625 20.6552 
" clip-path="url(#pb48846756a)" style="fill: none; stroke: #17becf; stroke-opacity: 0.1; stroke-width: 1.5; stroke-linecap: square"/>
   </g>
   <g id="line2d_27">
    <path d="M 68.365625 245.1179 
L 73.945625 245.1179 
L 76.735625 245.1179 
L 79.525625 242.54225 
L 82.315625 238.42121 
L 85.105625 228.49283 
L 90.685625 215.33276 
L 93.475625 197.91074 
L 96.265625 173.3924 
L 101.845625 141.77774 
L 107.425625 106.81358 
L 113.005625 75.59624 
L 118.585625 48.12572 
L 124.165625 29.81204 
L 129.745625 20.6552 
L 135.325625 20.6552 
L 140.905625 20.6552 
L 143.695625 20.6552 
L 146.485625 20.6552 
L 152.065625 20.6552 
L 157.645625 20.6552 
L 163.225625 20.6552 
L 166.015625 20.6552 
L 168.805625 20.6552 
L 174.385625 20.6552 
L 179.965625 20.6552 
L 185.545625 20.6552 
L 191.125625 20.6552 
L 196.705625 20.6552 
L 199.495625 20.6552 
L 202.285625 20.6552 
L 207.865625 20.6552 
L 213.445625 20.6552 
L 219.025625 20.6552 
L 224.605625 20.6552 
L 230.185625 20.6552 
L 235.765625 20.6552 
L 241.345625 20.6552 
L 246.925625 20.6552 
L 252.505625 20.6552 
L 258.085625 20.6552 
L 263.665625 20.6552 
L 269.245625 20.6552 
L 274.825625 20.6552 
L 280.405625 20.6552 
L 285.985625 20.6552 
L 291.565625 20.6552 
L 297.145625 20.6552 
L 302.725625 20.6552 
L 308.305625 20.6552 
L 313.885625 20.6552 
L 319.465625 20.6552 
L 325.045625 20.6552 
L 330.625625 20.6552 
L 336.205625 20.6552 
L 341.785625 20.6552 
L 347.365625 20.6552 
L 352.945625 20.6552 
L 358.525625 20.6552 
L 364.105625 20.6552 
L 369.685625 20.6552 
L 375.265625 20.6552 
L 380.845625 20.6552 
L 386.425625 20.6552 
L 392.005625 20.6552 
L 397.585625 20.6552 
" clip-path="url(#pb48846756a)" style="fill: none; stroke: #1f77b4; stroke-opacity: 0.1; stroke-width: 1.5; stroke-linecap: square"/>
   </g>
   <g id="line2d_28">
    <path d="M 68.365625 245.1179 
L 73.945625 237.39095 
L 76.735625 233.0982 
L 79.525625 220.687725 
L 82.315625 210.103305 
L 85.105625 195.428645 
L 90.685625 182.54924 
L 93.475625 160.09142 
L 96.265625 134.2841 
L 101.845625 103.06676 
L 107.425625 75.59624 
L 113.005625 48.12572 
L 118.585625 29.81204 
L 124.165625 20.6552 
L 129.745625 20.6552 
L 135.325625 20.6552 
L 140.905625 20.6552 
L 143.695625 20.6552 
L 146.485625 20.6552 
L 152.065625 20.6552 
L 157.645625 20.6552 
L 163.225625 20.6552 
L 166.015625 20.6552 
L 168.805625 20.6552 
L 174.385625 20.6552 
L 179.965625 20.6552 
L 185.545625 20.6552 
L 191.125625 20.6552 
L 196.705625 20.6552 
L 199.495625 20.6552 
L 202.285625 20.6552 
L 207.865625 20.6552 
L 213.445625 20.6552 
L 219.025625 20.6552 
L 224.605625 20.6552 
L 230.185625 20.6552 
L 235.765625 20.6552 
L 241.345625 20.6552 
L 246.925625 20.6552 
L 252.505625 20.6552 
L 258.085625 20.6552 
L 263.665625 20.6552 
L 269.245625 20.6552 
L 274.825625 20.6552 
L 280.405625 20.6552 
L 285.985625 20.6552 
L 291.565625 20.6552 
L 297.145625 20.6552 
L 302.725625 20.6552 
L 308.305625 20.6552 
L 313.885625 20.6552 
L 319.465625 20.6552 
L 325.045625 20.6552 
L 330.625625 20.6552 
L 336.205625 20.6552 
L 341.785625 20.6552 
L 347.365625 20.6552 
L 352.945625 20.6552 
L 358.525625 20.6552 
L 364.105625 20.6552 
L 369.685625 20.6552 
L 375.265625 20.6552 
L 380.845625 20.6552 
L 386.425625 20.6552 
L 392.005625 20.6552 
L 397.585625 20.6552 
" clip-path="url(#pb48846756a)" style="fill: none; stroke: #ff7f0e; stroke-opacity: 0.1; stroke-width: 1.5; stroke-linecap: square"/>
   </g>
   <g id="line2d_29">
    <path d="M 68.365625 245.1179 
L 73.945625 237.39095 
L 76.735625 233.0982 
L 79.525625 220.687725 
L 82.315625 210.103305 
L 85.105625 195.428645 
L 90.685625 173.3924 
L 93.475625 141.77774 
L 96.265625 106.81358 
L 101.845625 75.59624 
L 107.425625 48.12572 
L 113.005625 29.81204 
L 118.585625 20.6552 
L 124.165625 20.6552 
L 129.745625 20.6552 
L 135.325625 20.6552 
L 140.905625 20.6552 
L 143.695625 20.6552 
L 146.485625 20.6552 
L 152.065625 20.6552 
L 157.645625 20.6552 
L 163.225625 20.6552 
L 166.015625 20.6552 
L 168.805625 20.6552 
L 174.385625 20.6552 
L 179.965625 20.6552 
L 185.545625 20.6552 
L 191.125625 20.6552 
L 196.705625 20.6552 
L 199.495625 20.6552 
L 202.285625 20.6552 
L 207.865625 20.6552 
L 213.445625 20.6552 
L 219.025625 20.6552 
L 224.605625 20.6552 
L 230.185625 20.6552 
L 235.765625 20.6552 
L 241.345625 20.6552 
L 246.925625 20.6552 
L 252.505625 20.6552 
L 258.085625 20.6552 
L 263.665625 20.6552 
L 269.245625 20.6552 
L 274.825625 20.6552 
L 280.405625 20.6552 
L 285.985625 20.6552 
L 291.565625 20.6552 
L 297.145625 20.6552 
L 302.725625 20.6552 
L 308.305625 20.6552 
L 313.885625 20.6552 
L 319.465625 20.6552 
L 325.045625 20.6552 
L 330.625625 20.6552 
L 336.205625 20.6552 
L 341.785625 20.6552 
L 347.365625 20.6552 
L 352.945625 20.6552 
L 358.525625 20.6552 
L 364.105625 20.6552 
L 369.685625 20.6552 
L 375.265625 20.6552 
L 380.845625 20.6552 
L 386.425625 20.6552 
L 392.005625 20.6552 
L 397.585625 20.6552 
" clip-path="url(#pb48846756a)" style="fill: none; stroke: #2ca02c; stroke-opacity: 0.1; stroke-width: 1.5; stroke-linecap: square"/>
   </g>
   <g id="line2d_30">
    <path d="M 68.365625 214.2101 
L 73.945625 214.2101 
L 76.735625 207.9654 
L 79.525625 198.59835 
L 82.315625 187.35789 
L 85.105625 169.45847 
L 90.685625 141.77774 
L 93.475625 106.81358 
L 96.265625 75.59624 
L 101.845625 48.12572 
L 107.425625 29.81204 
L 113.005625 20.6552 
L 118.585625 20.6552 
L 124.165625 20.6552 
L 129.745625 20.6552 
L 135.325625 20.6552 
L 140.905625 20.6552 
L 143.695625 20.6552 
L 146.485625 20.6552 
L 152.065625 20.6552 
L 157.645625 20.6552 
L 163.225625 20.6552 
L 166.015625 20.6552 
L 168.805625 20.6552 
L 174.385625 20.6552 
L 179.965625 20.6552 
L 185.545625 20.6552 
L 191.125625 20.6552 
L 196.705625 20.6552 
L 199.495625 20.6552 
L 202.285625 20.6552 
L 207.865625 20.6552 
L 213.445625 20.6552 
L 219.025625 20.6552 
L 224.605625 20.6552 
L 230.185625 20.6552 
L 235.765625 20.6552 
L 241.345625 20.6552 
L 246.925625 20.6552 
L 252.505625 20.6552 
L 258.085625 20.6552 
L 263.665625 20.6552 
L 269.245625 20.6552 
L 274.825625 20.6552 
L 280.405625 20.6552 
L 285.985625 20.6552 
L 291.565625 20.6552 
L 297.145625 20.6552 
L 302.725625 20.6552 
L 308.305625 20.6552 
L 313.885625 20.6552 
L 319.465625 20.6552 
L 325.045625 20.6552 
L 330.625625 20.6552 
L 336.205625 20.6552 
L 341.785625 20.6552 
L 347.365625 20.6552 
L 352.945625 20.6552 
L 358.525625 20.6552 
L 364.105625 20.6552 
L 369.685625 20.6552 
L 375.265625 20.6552 
L 380.845625 20.6552 
L 386.425625 20.6552 
L 392.005625 20.6552 
L 397.585625 20.6552 
" clip-path="url(#pb48846756a)" style="fill: none; stroke: #d62728; stroke-opacity: 0.1; stroke-width: 1.5; stroke-linecap: square"/>
   </g>
   <g id="line2d_31">
    <path d="M 68.365625 214.2101 
L 73.945625 200.159525 
L 76.735625 192.35365 
L 79.525625 178.303075 
L 82.315625 172.682845 
L 85.105625 157.281305 
L 90.685625 134.2841 
L 93.475625 103.06676 
L 96.265625 75.59624 
L 101.845625 48.12572 
L 107.425625 29.81204 
L 113.005625 20.6552 
L 118.585625 20.6552 
L 124.165625 20.6552 
L 129.745625 20.6552 
L 135.325625 20.6552 
L 140.905625 20.6552 
L 143.695625 20.6552 
L 146.485625 20.6552 
L 152.065625 20.6552 
L 157.645625 20.6552 
L 163.225625 20.6552 
L 166.015625 20.6552 
L 168.805625 20.6552 
L 174.385625 20.6552 
L 179.965625 20.6552 
L 185.545625 20.6552 
L 191.125625 20.6552 
L 196.705625 20.6552 
L 199.495625 20.6552 
L 202.285625 20.6552 
L 207.865625 20.6552 
L 213.445625 20.6552 
L 219.025625 20.6552 
L 224.605625 20.6552 
L 230.185625 20.6552 
L 235.765625 20.6552 
L 241.345625 20.6552 
L 246.925625 20.6552 
L 252.505625 20.6552 
L 258.085625 20.6552 
L 263.665625 20.6552 
L 269.245625 20.6552 
L 274.825625 20.6552 
L 280.405625 20.6552 
L 285.985625 20.6552 
L 291.565625 20.6552 
L 297.145625 20.6552 
L 302.725625 20.6552 
L 308.305625 20.6552 
L 313.885625 20.6552 
L 319.465625 20.6552 
L 325.045625 20.6552 
L 330.625625 20.6552 
L 336.205625 20.6552 
L 341.785625 20.6552 
L 347.365625 20.6552 
L 352.945625 20.6552 
L 358.525625 20.6552 
L 364.105625 20.6552 
L 369.685625 20.6552 
L 375.265625 20.6552 
L 380.845625 20.6552 
L 386.425625 20.6552 
L 392.005625 20.6552 
L 397.585625 20.6552 
" clip-path="url(#pb48846756a)" style="fill: none; stroke: #ffa500; stroke-opacity: 0.6; stroke-width: 1.5; stroke-linecap: square"/>
   </g>
   <g id="line2d_32">
    <path d="M 68.365625 245.1179 
L 73.945625 245.1179 
L 76.735625 245.1179 
L 79.525625 242.54225 
L 82.315625 238.42121 
L 85.105625 228.49283 
L 90.685625 215.33276 
L 93.475625 197.91074 
L 96.265625 173.3924 
L 101.845625 141.77774 
L 107.425625 106.81358 
L 113.005625 75.59624 
L 118.585625 48.12572 
L 124.165625 29.81204 
L 129.745625 20.6552 
L 135.325625 20.6552 
L 140.905625 20.6552 
L 143.695625 20.6552 
L 146.485625 20.6552 
L 152.065625 20.6552 
L 157.645625 20.6552 
L 163.225625 20.6552 
L 166.015625 20.6552 
L 168.805625 20.6552 
L 174.385625 20.6552 
L 179.965625 20.6552 
L 185.545625 20.6552 
L 191.125625 20.6552 
L 196.705625 20.6552 
L 199.495625 20.6552 
L 202.285625 20.6552 
L 207.865625 20.6552 
L 213.445625 20.6552 
L 219.025625 20.6552 
L 224.605625 20.6552 
L 230.185625 20.6552 
L 235.765625 20.6552 
L 241.345625 20.6552 
L 246.925625 20.6552 
L 252.505625 20.6552 
L 258.085625 20.6552 
L 263.665625 20.6552 
L 269.245625 20.6552 
L 274.825625 20.6552 
L 280.405625 20.6552 
L 285.985625 20.6552 
L 291.565625 20.6552 
L 297.145625 20.6552 
L 302.725625 20.6552 
L 308.305625 20.6552 
L 313.885625 20.6552 
L 319.465625 20.6552 
L 325.045625 20.6552 
L 330.625625 20.6552 
L 336.205625 20.6552 
L 341.785625 20.6552 
L 347.365625 20.6552 
L 352.945625 20.6552 
L 358.525625 20.6552 
L 364.105625 20.6552 
L 369.685625 20.6552 
L 375.265625 20.6552 
L 380.845625 20.6552 
L 386.425625 20.6552 
L 392.005625 20.6552 
L 397.585625 20.6552 
" clip-path="url(#pb48846756a)" style="fill: none; stroke: #00ffff; stroke-opacity: 0.6; stroke-width: 1.5; stroke-linecap: square"/>
   </g>
   <g id="line2d_33">
    <path d="M 68.365625 238.4948 
L 73.945625 234.8318 
L 76.735625 231.12425 
L 79.525625 223.396887 
L 82.315625 214.826457 
L 85.105625 201.414597 
L 90.685625 181.83413 
L 93.475625 153.65048 
L 96.265625 121.49693 
L 101.845625 88.6187 
L 107.425625 60.43406 
L 113.005625 38.96888 
L 118.585625 26.54174 
L 124.165625 21.30926 
L 129.745625 20.6552 
L 135.325625 20.6552 
L 140.905625 20.6552 
L 143.695625 20.6552 
L 146.485625 20.6552 
L 152.065625 20.6552 
L 157.645625 20.6552 
L 163.225625 20.6552 
L 166.015625 20.6552 
L 168.805625 20.6552 
L 174.385625 20.6552 
L 179.965625 20.6552 
L 185.545625 20.6552 
L 191.125625 20.6552 
L 196.705625 20.6552 
L 199.495625 20.6552 
L 202.285625 20.6552 
L 207.865625 20.6552 
L 213.445625 20.6552 
L 219.025625 20.6552 
L 224.605625 20.6552 
L 230.185625 20.6552 
L 235.765625 20.6552 
L 241.345625 20.6552 
L 246.925625 20.6552 
L 252.505625 20.6552 
L 258.085625 20.6552 
L 263.665625 20.6552 
L 269.245625 20.6552 
L 274.825625 20.6552 
L 280.405625 20.6552 
L 285.985625 20.6552 
L 291.565625 20.6552 
L 297.145625 20.6552 
L 302.725625 20.6552 
L 308.305625 20.6552 
L 313.885625 20.6552 
L 319.465625 20.6552 
L 325.045625 20.6552 
L 330.625625 20.6552 
L 336.205625 20.6552 
L 341.785625 20.6552 
L 347.365625 20.6552 
L 352.945625 20.6552 
L 358.525625 20.6552 
L 364.105625 20.6552 
L 369.685625 20.6552 
L 375.265625 20.6552 
L 380.845625 20.6552 
L 386.425625 20.6552 
L 392.005625 20.6552 
L 397.585625 20.6552 
" clip-path="url(#pb48846756a)" style="fill: none; stroke: #ff0000; stroke-width: 2; stroke-linecap: square"/>
   </g>
   <g id="patch_3">
    <path d="M 68.365625 289.955 
L 68.365625 12.755 
" style="fill: none; stroke: #000000; stroke-width: 0.8; stroke-linejoin: miter; stroke-linecap: square"/>
   </g>
   <g id="patch_4">
    <path d="M 403.165625 289.955 
L 403.165625 12.755 
" style="fill: none; stroke: #000000; stroke-width: 0.8; stroke-linejoin: miter; stroke-linecap: square"/>
   </g>
   <g id="patch_5">
    <path d="M 68.365625 289.955 
L 403.165625 289.955 
" style="fill: none; stroke: #000000; stroke-width: 0.8; stroke-linejoin: miter; stroke-linecap: square"/>
   </g>
   <g id="patch_6">
    <path d="M 68.365625 12.755 
L 403.165625 12.755 
" style="fill: none; stroke: #000000; stroke-width: 0.8; stroke-linejoin: miter; stroke-linecap: square"/>
   </g>
  </g>
  <g id="axes_2">
   <g id="PolyCollection_2">
    <defs>
     <path id="m235e54f7c5" d="M 68.365625 -77.107385 
L 68.365625 -50.898125 
L 73.945625 -54.658805 
L 79.525625 -58.255732 
L 85.105625 -65.405182 
L 90.685625 -72.362902 
L 96.265625 -81.672407 
L 101.845625 -93.265681 
L 107.425625 -107.146625 
L 113.005625 -121.580429 
L 118.585625 -136.091233 
L 124.165625 -150.612509 
L 129.745625 -163.896549 
L 135.325625 -175.363081 
L 140.905625 -183.181661 
L 146.485625 -187.900837 
L 152.065625 -188.041901 
L 157.645625 -188.109353 
L 163.225625 -188.176189 
L 168.805625 -188.030813 
L 174.385625 -188.263045 
L 179.965625 -188.021881 
L 185.545625 -188.362221 
L 191.125625 -188.101961 
L 196.705625 -188.346975 
L 202.285625 -188.091181 
L 207.865625 -188.428441 
L 213.445625 -188.148469 
L 219.025625 -188.311093 
L 224.605625 -188.134917 
L 230.185625 -188.389325 
L 235.765625 -188.054837 
L 241.345625 -188.301853 
L 246.925625 -187.945189 
L 252.505625 -188.287685 
L 258.085625 -188.153089 
L 263.665625 -188.399489 
L 269.245625 -188.046213 
L 274.825625 -188.265509 
L 280.405625 -187.931329 
L 285.985625 -188.207605 
L 291.565625 -188.131837 
L 297.145625 -188.225161 
L 302.725625 -187.904225 
L 308.305625 -188.228549 
L 313.885625 -187.934409 
L 319.465625 -188.261813 
L 325.045625 -187.996317 
L 330.625625 -188.014489 
L 336.205625 -188.041901 
L 341.785625 -188.010177 
L 347.365625 -188.114281 
L 352.945625 -188.286761 
L 358.525625 -187.965825 
L 364.105625 -188.061613 
L 369.685625 -188.073625 
L 375.265625 -188.004941 
L 380.845625 -187.029197 
L 386.425625 -186.672841 
L 392.005625 -186.317717 
L 397.585625 -185.965365 
L 397.585625 -190.491425 
L 397.585625 -190.491425 
L 392.005625 -190.768317 
L 386.425625 -191.040589 
L 380.845625 -190.699941 
L 375.265625 -190.419661 
L 369.685625 -190.524689 
L 364.105625 -190.770165 
L 358.525625 -190.483417 
L 352.945625 -190.455389 
L 347.365625 -190.730125 
L 341.785625 -191.014409 
L 336.205625 -190.681461 
L 330.625625 -190.645733 
L 325.045625 -190.861333 
L 319.465625 -190.855173 
L 313.885625 -190.574277 
L 308.305625 -190.452309 
L 302.725625 -190.738133 
L 297.145625 -190.443993 
L 291.565625 -190.216997 
L 285.985625 -190.527461 
L 280.405625 -190.802505 
L 274.825625 -191.304853 
L 269.245625 -191.574969 
L 263.665625 -191.327337 
L 258.085625 -190.786489 
L 252.505625 -190.473253 
L 246.925625 -190.215149 
L 241.345625 -190.537625 
L 235.765625 -190.827453 
L 230.185625 -190.504669 
L 224.605625 -190.345125 
L 219.025625 -190.551485 
L 213.445625 -190.833921 
L 207.865625 -191.491809 
L 202.285625 -192.453693 
L 196.705625 -192.814361 
L 191.125625 -192.561185 
L 185.545625 -191.699709 
L 179.965625 -191.201365 
L 174.385625 -190.958353 
L 168.805625 -190.696861 
L 163.225625 -190.439989 
L 157.645625 -190.749221 
L 152.065625 -191.508133 
L 146.485625 -191.776093 
L 140.905625 -190.355289 
L 135.325625 -189.073393 
L 129.745625 -184.957589 
L 124.165625 -177.807985 
L 118.585625 -166.973777 
L 113.005625 -154.343929 
L 107.425625 -139.838361 
L 101.845625 -124.929005 
L 96.265625 -112.168873 
L 90.685625 -102.251992 
L 85.105625 -94.521192 
L 79.525625 -85.843292 
L 73.945625 -81.722765 
L 68.365625 -77.107385 
z
" style="stroke: #ff0000; stroke-opacity: 0.3"/>
    </defs>
    <g clip-path="url(#pb48846756a)">
     <use xlink:href="#m235e54f7c5" x="0" y="340.853125" style="fill: #ff0000; fill-opacity: 0.3; stroke: #ff0000; stroke-opacity: 0.3"/>
    </g>
   </g>
   <g id="matplotlib.axis_3">
    <g id="ytick_10">
     <g id="line2d_34">
      <defs>
       <path id="m647cddafa8" d="M 0 0 
L 3.5 0 
" style="stroke: #000000; stroke-width: 0.8"/>
      </defs>
      <g>
       <use xlink:href="#m647cddafa8" x="403.165625" y="289.955" style="stroke: #000000; stroke-width: 0.8"/>
      </g>
     </g>
     <g id="text_19">
      <!-- 0 -->
      <g transform="translate(410.165625 295.51) scale(0.16 -0.16)">
       <use xlink:href="#TimesNewRomanPSMT-30"/>
      </g>
     </g>
    </g>
    <g id="ytick_11">
     <g id="line2d_35">
      <g>
       <use xlink:href="#m647cddafa8" x="403.165625" y="243.755" style="stroke: #000000; stroke-width: 0.8"/>
      </g>
     </g>
     <g id="text_20">
      <!-- 10 -->
      <g transform="translate(410.165625 249.31) scale(0.16 -0.16)">
       <use xlink:href="#TimesNewRomanPSMT-31"/>
       <use xlink:href="#TimesNewRomanPSMT-30" x="50"/>
      </g>
     </g>
    </g>
    <g id="ytick_12">
     <g id="line2d_36">
      <g>
       <use xlink:href="#m647cddafa8" x="403.165625" y="197.555" style="stroke: #000000; stroke-width: 0.8"/>
      </g>
     </g>
     <g id="text_21">
      <!-- 20 -->
      <g transform="translate(410.165625 203.11) scale(0.16 -0.16)">
       <use xlink:href="#TimesNewRomanPSMT-32"/>
       <use xlink:href="#TimesNewRomanPSMT-30" x="50"/>
      </g>
     </g>
    </g>
    <g id="ytick_13">
     <g id="line2d_37">
      <g>
       <use xlink:href="#m647cddafa8" x="403.165625" y="151.355" style="stroke: #000000; stroke-width: 0.8"/>
      </g>
     </g>
     <g id="text_22">
      <!-- 30 -->
      <g transform="translate(410.165625 156.91) scale(0.16 -0.16)">
       <use xlink:href="#TimesNewRomanPSMT-33"/>
       <use xlink:href="#TimesNewRomanPSMT-30" x="50"/>
      </g>
     </g>
    </g>
    <g id="ytick_14">
     <g id="line2d_38">
      <g>
       <use xlink:href="#m647cddafa8" x="403.165625" y="105.155" style="stroke: #000000; stroke-width: 0.8"/>
      </g>
     </g>
     <g id="text_23">
      <!-- 40 -->
      <g transform="translate(410.165625 110.71) scale(0.16 -0.16)">
       <use xlink:href="#TimesNewRomanPSMT-34"/>
       <use xlink:href="#TimesNewRomanPSMT-30" x="50"/>
      </g>
     </g>
    </g>
    <g id="ytick_15">
     <g id="line2d_39">
      <g>
       <use xlink:href="#m647cddafa8" x="403.165625" y="58.955" style="stroke: #000000; stroke-width: 0.8"/>
      </g>
     </g>
     <g id="text_24">
      <!-- 50 -->
      <g transform="translate(410.165625 64.51) scale(0.16 -0.16)">
       <use xlink:href="#TimesNewRomanPSMT-35"/>
       <use xlink:href="#TimesNewRomanPSMT-30" x="50"/>
      </g>
     </g>
    </g>
    <g id="ytick_16">
     <g id="line2d_40">
      <g>
       <use xlink:href="#m647cddafa8" x="403.165625" y="12.755" style="stroke: #000000; stroke-width: 0.8"/>
      </g>
     </g>
     <g id="text_25">
      <!-- 60 -->
      <g transform="translate(410.165625 18.31) scale(0.16 -0.16)">
       <use xlink:href="#TimesNewRomanPSMT-36"/>
       <use xlink:href="#TimesNewRomanPSMT-30" x="50"/>
      </g>
     </g>
    </g>
   </g>
   <g id="line2d_41">
    <path d="M 68.365625 274.83836 
L 73.945625 269.14883 
L 79.525625 264.476213 
L 85.105625 255.366343 
L 90.685625 247.556079 
L 96.265625 237.916706 
L 101.845625 226.20978 
L 107.425625 212.991344 
L 113.005625 199.751656 
L 118.585625 187.13074 
L 124.165625 175.13876 
L 129.745625 165.622792 
L 135.325625 158.505836 
L 140.905625 154.426068 
L 146.485625 152.815536 
L 152.065625 152.427764 
L 157.645625 152.63936 
L 163.225625 152.244196 
L 168.805625 151.934964 
L 174.385625 151.002648 
L 179.965625 150.686024 
L 185.545625 150.353076 
L 191.125625 150.706044 
L 196.705625 150.97 
L 202.285625 151.856732 
L 207.865625 152.126848 
L 213.445625 151.874596 
L 219.025625 151.005728 
L 224.605625 150.753476 
L 230.185625 150.490444 
L 235.765625 150.84064 
L 241.345625 151.184368 
L 246.925625 152.06186 
L 252.505625 152.34522 
L 258.085625 152.629504 
L 263.665625 152.382796 
L 269.245625 152.65014 
L 274.825625 152.304872 
L 280.405625 152.550348 
L 285.985625 152.262676 
L 291.565625 152.591928 
L 297.145625 152.345836 
L 302.725625 152.717284 
L 308.305625 152.473656 
L 313.885625 152.829704 
L 319.465625 152.507844 
L 325.045625 152.7795 
L 330.625625 152.43454 
L 336.205625 152.767796 
L 341.785625 152.428688 
L 347.365625 152.681556 
L 352.945625 152.319656 
L 358.525625 152.65014 
L 364.105625 152.30518 
L 369.685625 152.572524 
L 375.265625 152.848184 
L 380.845625 153.823928 
L 386.425625 154.180284 
L 392.005625 154.535408 
L 397.585625 154.88776 
" clip-path="url(#pb48846756a)" style="fill: none; stroke: #1f77b4; stroke-opacity: 0.1; stroke-width: 1.5; stroke-linecap: square"/>
   </g>
   <g id="line2d_42">
    <path d="M 68.365625 275.56832 
L 73.945625 269.74481 
L 79.525625 266.007487 
L 85.105625 257.507842 
L 90.685625 250.89847 
L 96.265625 240.821223 
L 101.845625 228.951596 
L 107.425625 213.8251 
L 113.005625 199.295508 
L 118.585625 184.72218 
L 124.165625 172.63934 
L 129.745625 162.999556 
L 135.325625 157.057004 
L 140.905625 153.581224 
L 146.485625 152.65168 
L 152.065625 152.390804 
L 157.645625 152.743772 
L 163.225625 152.477044 
L 168.805625 152.822312 
L 174.385625 152.555892 
L 179.965625 152.825392 
L 185.545625 152.479816 
L 191.125625 152.751164 
L 196.705625 152.490596 
L 202.285625 152.761944 
L 207.865625 152.424684 
L 213.445625 152.704656 
L 219.025625 152.450864 
L 224.605625 152.718208 
L 230.185625 152.38988 
L 235.765625 152.668928 
L 241.345625 152.410516 
L 246.925625 152.133008 
L 252.505625 151.25182 
L 258.085625 150.39096 
L 263.665625 149.525788 
L 269.245625 149.278156 
L 274.825625 149.548272 
L 280.405625 150.4849 
L 285.985625 151.38118 
L 291.565625 152.359388 
L 297.145625 152.627964 
L 302.725625 152.934116 
L 308.305625 152.572524 
L 313.885625 152.872824 
L 319.465625 152.520472 
L 325.045625 152.806912 
L 330.625625 152.478584 
L 336.205625 152.811224 
L 341.785625 152.478892 
L 347.365625 152.72868 
L 352.945625 152.357848 
L 358.525625 152.6871 
L 364.105625 152.40528 
L 369.685625 152.743772 
L 375.265625 152.457024 
L 380.845625 152.813996 
L 386.425625 152.544188 
L 392.005625 152.907936 
L 397.585625 152.652912 
" clip-path="url(#pb48846756a)" style="fill: none; stroke: #ff7f0e; stroke-opacity: 0.1; stroke-width: 1.5; stroke-linecap: square"/>
   </g>
   <g id="line2d_43">
    <path d="M 68.365625 282.38282 
L 73.945625 274.81757 
L 79.525625 269.855433 
L 85.105625 259.991156 
L 90.685625 252.32211 
L 96.265625 241.984962 
L 101.845625 230.034062 
L 107.425625 215.850046 
L 113.005625 202.26894 
L 118.585625 189.311226 
L 124.165625 177.442292 
L 129.745625 167.234248 
L 135.325625 159.423368 
L 140.905625 154.697108 
L 146.485625 152.518316 
L 152.065625 151.635588 
L 157.645625 151.433848 
L 163.225625 151.236112 
L 168.805625 151.039916 
L 174.385625 150.779964 
L 179.965625 151.056856 
L 185.545625 151.266296 
L 191.125625 152.090812 
L 196.705625 152.37602 
L 202.285625 152.088348 
L 207.865625 151.184368 
L 213.445625 150.89916 
L 219.025625 150.63582 
L 224.605625 150.903472 
L 230.185625 151.110756 
L 235.765625 151.933116 
L 241.345625 152.225716 
L 246.925625 152.577144 
L 252.505625 152.331052 
L 258.085625 152.700036 
L 263.665625 152.453636 
L 269.245625 152.806912 
L 274.825625 152.475504 
L 280.405625 152.74254 
L 285.985625 152.390188 
L 291.565625 152.721288 
L 297.145625 152.408668 
L 302.725625 152.700652 
L 308.305625 152.379408 
L 313.885625 152.10344 
L 319.465625 151.14248 
L 325.045625 150.761176 
L 330.625625 150.3848 
L 336.205625 150.714052 
L 341.785625 151.032832 
L 347.365625 151.967304 
L 352.945625 152.278692 
L 358.525625 152.016892 
L 364.105625 151.130468 
L 369.685625 150.827396 
L 375.265625 150.525556 
L 380.845625 150.8468 
L 386.425625 151.200076 
L 392.005625 152.0865 
L 397.585625 152.356 
" clip-path="url(#pb48846756a)" style="fill: none; stroke: #2ca02c; stroke-opacity: 0.1; stroke-width: 1.5; stroke-linecap: square"/>
   </g>
   <g id="line2d_44">
    <path d="M 68.365625 274.89842 
L 73.945625 269.182325 
L 79.525625 264.499057 
L 85.105625 255.352227 
L 90.685625 247.527641 
L 96.265625 237.266518 
L 101.845625 224.960532 
L 107.425625 211.127944 
L 113.005625 197.87378 
L 118.585625 185.232536 
L 124.165625 173.224232 
L 129.745625 163.626028 
L 135.325625 155.873052 
L 140.905625 151.198536 
L 146.485625 149.077032 
L 152.065625 149.344992 
L 157.645625 150.251436 
L 163.225625 151.110448 
L 168.805625 151.432924 
L 174.385625 151.051312 
L 179.965625 150.103596 
L 185.545625 149.153416 
L 191.125625 148.29194 
L 196.705625 148.038764 
L 202.285625 148.399432 
L 207.865625 149.361316 
L 213.445625 150.3232 
L 219.025625 151.278 
L 224.605625 152.154876 
L 230.185625 152.42376 
L 235.765625 152.7025 
L 241.345625 152.446244 
L 246.925625 152.145636 
L 252.505625 151.22564 
L 258.085625 150.915176 
L 263.665625 150.640132 
L 269.245625 150.901316 
L 274.825625 151.121844 
L 280.405625 151.959912 
L 285.985625 152.269144 
L 291.565625 152.549424 
L 297.145625 152.240192 
L 302.725625 152.547884 
L 308.305625 152.323044 
L 313.885625 152.688332 
L 319.465625 152.431152 
L 325.045625 152.760096 
L 330.625625 152.474272 
L 336.205625 152.803216 
L 341.785625 152.455792 
L 347.365625 152.728372 
L 352.945625 152.388032 
L 358.525625 152.12962 
L 364.105625 151.170816 
L 369.685625 150.830168 
L 375.265625 150.486132 
L 380.845625 150.220636 
L 386.425625 149.870748 
L 392.005625 150.137168 
L 397.585625 150.403588 
" clip-path="url(#pb48846756a)" style="fill: none; stroke: #d62728; stroke-opacity: 0.1; stroke-width: 1.5; stroke-linecap: square"/>
   </g>
   <g id="line2d_45">
    <path d="M 68.365625 275.27264 
L 73.945625 269.471075 
L 79.525625 264.734163 
L 85.105625 255.463363 
L 90.685625 247.604589 
L 96.265625 237.91686 
L 101.845625 226.83502 
L 107.425625 214.175912 
L 113.005625 201.556536 
L 118.585625 188.908516 
L 124.165625 176.298996 
L 129.745625 165.44446 
L 135.325625 157.05454 
L 140.905625 152.327356 
L 146.485625 150.144252 
L 152.065625 149.79498 
L 157.645625 150.103904 
L 163.225625 150.413136 
L 168.805625 150.156264 
L 174.385625 149.894772 
L 179.965625 149.65176 
L 185.545625 149.4069 
L 191.125625 149.162964 
L 196.705625 149.5147 
L 202.285625 150.39866 
L 207.865625 151.235496 
L 213.445625 152.074488 
L 219.025625 152.380024 
L 224.605625 152.651988 
L 230.185625 152.30826 
L 235.765625 152.582996 
L 241.345625 152.321504 
L 246.925625 152.592236 
L 252.505625 152.241116 
L 258.085625 152.50846 
L 263.665625 152.241424 
L 269.245625 152.592236 
L 274.825625 152.324892 
L 280.405625 152.72098 
L 285.985625 152.501068 
L 291.565625 152.280848 
L 297.145625 151.317732 
L 302.725625 150.970308 
L 308.305625 150.579764 
L 313.885625 150.889304 
L 319.465625 151.115992 
L 325.045625 151.998104 
L 330.625625 152.268528 
L 336.205625 152.62242 
L 341.785625 152.278384 
L 347.365625 152.547884 
L 352.945625 152.227564 
L 358.525625 151.991944 
L 364.105625 151.062092 
L 369.685625 150.733148 
L 375.265625 150.433464 
L 380.845625 150.191068 
L 386.425625 149.867052 
L 392.005625 150.134088 
L 397.585625 150.416832 
" clip-path="url(#pb48846756a)" style="fill: none; stroke: #9467bd; stroke-opacity: 0.1; stroke-width: 1.5; stroke-linecap: square"/>
   </g>
   <g id="line2d_46">
    <path d="M 68.365625 274.90766 
L 73.945625 269.237765 
L 79.525625 264.566303 
L 85.105625 255.447578 
L 90.685625 248.229444 
L 96.265625 238.584835 
L 101.845625 226.88122 
L 107.425625 212.434172 
L 113.005625 198.534132 
L 118.585625 184.646104 
L 124.165625 172.610388 
L 129.745625 163.014956 
L 135.325625 157.0453 
L 140.905625 153.55412 
L 146.485625 152.609176 
L 152.065625 152.346144 
L 157.645625 152.6948 
L 163.225625 152.428688 
L 168.805625 152.77796 
L 174.385625 152.51154 
L 179.965625 152.161036 
L 185.545625 151.201616 
L 191.125625 150.858196 
L 196.705625 150.605944 
L 202.285625 150.881296 
L 207.865625 151.158496 
L 213.445625 152.037528 
L 219.025625 152.390496 
L 224.605625 152.65168 
L 230.185625 152.355384 
L 235.765625 152.078492 
L 241.345625 151.288164 
L 246.925625 151.05624 
L 252.505625 150.80214 
L 258.085625 151.102132 
L 263.665625 151.403664 
L 269.245625 152.308568 
L 274.825625 152.587616 
L 280.405625 152.867896 
L 285.985625 152.540184 
L 291.565625 152.250972 
L 297.145625 151.2626 
L 302.725625 150.87144 
L 308.305625 150.499684 
L 313.885625 150.827396 
L 319.465625 151.117532 
L 325.045625 152.028904 
L 330.625625 152.32212 
L 336.205625 152.675088 
L 341.785625 152.408976 
L 347.365625 152.734532 
L 352.945625 152.444396 
L 358.525625 152.154876 
L 364.105625 151.277384 
L 369.685625 150.93458 
L 375.265625 150.591776 
L 380.845625 150.861276 
L 386.425625 151.214552 
L 392.005625 152.175204 
L 397.585625 152.518316 
" clip-path="url(#pb48846756a)" style="fill: none; stroke: #8c564b; stroke-opacity: 0.1; stroke-width: 1.5; stroke-linecap: square"/>
   </g>
   <g id="line2d_47">
    <path d="M 68.365625 274.85684 
L 73.945625 269.17655 
L 79.525625 264.509067 
L 85.105625 255.395732 
L 90.685625 247.581156 
L 96.265625 237.322805 
L 101.845625 225.010736 
L 107.425625 211.17322 
L 113.005625 197.892568 
L 118.585625 185.226376 
L 124.165625 173.202056 
L 129.745625 163.614324 
L 135.325625 156.43238 
L 140.905625 152.331976 
L 146.485625 150.777192 
L 152.065625 151.127388 
L 157.645625 152.088348 
L 163.225625 152.439468 
L 168.805625 152.790588 
L 174.385625 152.529404 
L 179.965625 152.798596 
L 185.545625 152.457332 
L 191.125625 152.7256 
L 196.705625 152.45918 
L 202.285625 152.723444 
L 207.865625 152.388956 
L 213.445625 152.669236 
L 219.025625 152.419756 
L 224.605625 152.688948 
L 230.185625 152.341832 
L 235.765625 152.001492 
L 241.345625 151.127388 
L 246.925625 150.8699 
L 252.505625 150.630892 
L 258.085625 151.008808 
L 263.665625 151.361776 
L 269.245625 152.302716 
L 274.825625 152.586692 
L 280.405625 152.921796 
L 285.985625 152.639668 
L 291.565625 152.400352 
L 297.145625 151.436928 
L 302.725625 151.051928 
L 308.305625 150.619496 
L 313.885625 150.894848 
L 319.465625 151.133548 
L 325.045625 152.042148 
L 330.625625 152.327048 
L 336.205625 152.686484 
L 341.785625 152.404356 
L 347.365625 152.738844 
L 352.945625 152.460412 
L 358.525625 152.207544 
L 364.105625 151.260136 
L 369.685625 150.866204 
L 375.265625 150.470732 
L 380.845625 150.153184 
L 386.425625 149.812536 
L 392.005625 150.084808 
L 397.585625 150.3617 
" clip-path="url(#pb48846756a)" style="fill: none; stroke: #e377c2; stroke-opacity: 0.1; stroke-width: 1.5; stroke-linecap: square"/>
   </g>
   <g id="line2d_48">
    <path d="M 68.365625 263.74574 
L 73.945625 259.13036 
L 79.525625 255.009833 
L 85.105625 246.331933 
L 90.685625 238.601133 
L 96.265625 228.684252 
L 101.845625 216.690424 
L 107.425625 202.33054 
L 113.005625 188.720636 
L 118.585625 176.83584 
L 124.165625 166.685392 
L 129.745625 159.596156 
L 135.325625 154.967224 
L 140.905625 153.424144 
L 146.485625 152.541724 
L 152.065625 152.811224 
L 157.645625 152.467188 
L 163.225625 152.579146 
L 168.805625 152.15118 
L 174.385625 152.254206 
L 179.965625 151.906474 
L 185.545625 152.17813 
L 191.125625 152.075412 
L 196.705625 152.50615 
L 202.285625 152.324584 
L 207.865625 152.009808 
L 213.445625 151.162192 
L 219.025625 150.84834 
L 224.605625 150.508 
L 230.185625 150.775344 
L 235.765625 151.093816 
L 241.345625 152.022744 
L 246.925625 152.3406 
L 252.505625 152.11268 
L 258.085625 151.277384 
L 263.665625 151.059936 
L 269.245625 150.72976 
L 274.825625 151.012812 
L 280.405625 151.283544 
L 285.985625 151.62296 
L 291.565625 151.265064 
L 297.145625 150.909016 
L 302.725625 150.558204 
L 308.305625 150.873596 
L 313.885625 151.19792 
L 319.465625 152.136396 
L 325.045625 152.488132 
L 330.625625 152.838636 
L 336.205625 152.571908 
L 341.785625 152.842948 
L 347.365625 152.495216 
L 352.945625 152.147176 
L 358.525625 151.259212 
L 364.105625 150.90686 
L 369.685625 150.554816 
L 375.265625 150.824316 
L 380.845625 151.176668 
L 386.425625 152.140708 
L 392.005625 152.490904 
L 397.585625 152.842024 
" clip-path="url(#pb48846756a)" style="fill: none; stroke: #7f7f7f; stroke-opacity: 0.1; stroke-width: 1.5; stroke-linecap: square"/>
   </g>
   <g id="line2d_49">
    <path d="M 68.365625 282.42209 
L 73.945625 274.843557 
L 79.525625 269.877378 
L 85.105625 259.445803 
L 90.685625 251.335008 
L 96.265625 239.942961 
L 101.845625 226.881836 
L 107.425625 212.096604 
L 113.005625 198.361806 
L 118.585625 185.247012 
L 124.165625 173.211296 
L 129.745625 163.624488 
L 135.325625 156.429916 
L 140.905625 152.319348 
L 146.485625 150.752244 
L 152.065625 151.103056 
L 157.645625 151.480972 
L 163.225625 151.244736 
L 168.805625 151.009732 
L 174.385625 150.747316 
L 179.965625 151.018048 
L 185.545625 151.26106 
L 191.125625 152.119456 
L 196.705625 152.446244 
L 202.285625 152.71944 
L 207.865625 152.382488 
L 213.445625 152.663692 
L 219.025625 152.417908 
L 224.605625 152.700652 
L 230.185625 152.36524 
L 235.765625 152.637204 
L 241.345625 152.372324 
L 246.925625 152.635972 
L 252.505625 152.315036 
L 258.085625 152.610716 
L 263.665625 152.376636 
L 269.245625 152.647676 
L 274.825625 152.344296 
L 280.405625 152.625808 
L 285.985625 152.370476 
L 291.565625 152.074488 
L 297.145625 151.192376 
L 302.725625 150.886224 
L 308.305625 150.580996 
L 313.885625 150.278848 
L 319.465625 149.997952 
L 325.045625 150.330592 
L 330.625625 150.659844 
L 336.205625 151.02236 
L 341.785625 151.36732 
L 347.365625 152.275612 
L 352.945625 152.566364 
L 358.525625 152.8873 
L 364.105625 152.558356 
L 369.685625 152.7795 
L 375.265625 152.376636 
L 380.845625 152.67786 
L 386.425625 152.334748 
L 392.005625 152.663076 
L 397.585625 152.373864 
" clip-path="url(#pb48846756a)" style="fill: none; stroke: #bcbd22; stroke-opacity: 0.1; stroke-width: 1.5; stroke-linecap: square"/>
   </g>
   <g id="line2d_50">
    <path d="M 68.365625 267.99614 
L 73.945625 262.912985 
L 79.525625 257.48949 
L 85.105625 248.15401 
L 90.685625 239.30594 
L 96.265625 229.129312 
L 101.845625 215.92412 
L 107.425625 201.014764 
L 113.005625 186.509196 
L 118.585625 173.879348 
L 124.165625 163.04514 
L 129.745625 155.895536 
L 135.325625 151.779732 
L 140.905625 150.794132 
L 146.485625 151.098128 
L 152.065625 152.033216 
L 157.645625 152.355076 
L 163.225625 152.676936 
L 168.805625 152.413288 
L 174.385625 152.124384 
L 179.965625 151.220404 
L 185.545625 150.92842 
L 191.125625 150.664156 
L 196.705625 150.934272 
L 202.285625 151.1471 
L 207.865625 151.974696 
L 213.445625 152.2713 
L 219.025625 152.542032 
L 224.605625 152.196148 
L 230.185625 152.4638 
L 235.765625 152.199844 
L 241.345625 151.928496 
L 246.925625 151.04392 
L 252.505625 150.774728 
L 258.085625 150.514468 
L 263.665625 150.86528 
L 269.245625 151.142172 
L 274.825625 152.029828 
L 280.405625 152.301792 
L 285.985625 152.64552 
L 291.565625 152.292244 
L 297.145625 152.553736 
L 302.725625 152.208776 
L 308.305625 152.563592 
L 313.885625 152.222944 
L 319.465625 152.498296 
L 325.045625 152.162884 
L 330.625625 152.522936 
L 336.205625 152.182904 
L 341.785625 152.45764 
L 347.365625 152.12192 
L 352.945625 152.483204 
L 358.525625 152.226332 
L 364.105625 152.58392 
L 369.685625 152.348608 
L 375.265625 152.729296 
L 380.845625 152.492752 
L 386.425625 152.763792 
L 392.005625 152.44532 
L 397.585625 152.717284 
" clip-path="url(#pb48846756a)" style="fill: none; stroke: #17becf; stroke-opacity: 0.1; stroke-width: 1.5; stroke-linecap: square"/>
   </g>
   <g id="line2d_51">
    <path d="M 68.365625 289.955 
L 73.945625 286.19432 
L 79.525625 282.597393 
L 85.105625 275.447943 
L 90.685625 268.490223 
L 96.265625 259.180718 
L 101.845625 247.587444 
L 107.425625 233.7065 
L 113.005625 219.272696 
L 118.585625 204.761892 
L 124.165625 190.240616 
L 129.745625 176.956576 
L 135.325625 165.490044 
L 140.905625 157.671464 
L 146.485625 152.952288 
L 152.065625 151.397504 
L 157.645625 151.126772 
L 163.225625 152.088348 
L 168.805625 152.434848 
L 174.385625 152.171816 
L 179.965625 151.296172 
L 185.545625 150.36016 
L 191.125625 149.424764 
L 196.705625 149.098592 
L 202.285625 149.4454 
L 207.865625 149.740156 
L 213.445625 150.019204 
L 219.025625 150.30164 
L 224.605625 150.63428 
L 230.185625 150.348456 
L 235.765625 150.025672 
L 241.345625 150.3155 
L 246.925625 150.637976 
L 252.505625 150.379872 
L 258.085625 150.066636 
L 263.665625 150.36324 
L 269.245625 150.661384 
L 274.825625 150.391884 
L 280.405625 150.05062 
L 285.985625 150.325664 
L 291.565625 150.636128 
L 297.145625 150.409132 
L 302.725625 150.114992 
L 308.305625 150.400816 
L 313.885625 150.675552 
L 319.465625 150.373096 
L 325.045625 149.991792 
L 330.625625 150.207392 
L 336.205625 150.447324 
L 341.785625 150.775652 
L 347.365625 151.122768 
L 352.945625 152.08958 
L 358.525625 152.439776 
L 364.105625 152.791512 
L 369.685625 152.5254 
L 375.265625 152.233108 
L 380.845625 151.321736 
L 386.425625 151.032524 
L 392.005625 150.770416 
L 397.585625 150.497528 
" clip-path="url(#pb48846756a)" style="fill: none; stroke: #1f77b4; stroke-opacity: 0.1; stroke-width: 1.5; stroke-linecap: square"/>
   </g>
   <g id="line2d_52">
    <path d="M 68.365625 275.171 
L 73.945625 274.00676 
L 79.525625 272.885127 
L 85.105625 269.085562 
L 90.685625 263.74669 
L 96.265625 255.143531 
L 101.845625 244.228396 
L 107.425625 229.77488 
L 113.005625 214.691504 
L 118.585625 198.965332 
L 124.165625 185.094552 
L 129.745625 172.391708 
L 135.325625 162.779952 
L 140.905625 155.598624 
L 146.485625 152.193376 
L 152.065625 150.647832 
L 157.645625 150.997104 
L 163.225625 151.295864 
L 168.805625 152.20816 
L 174.385625 152.49922 
L 179.965625 152.761944 
L 185.545625 152.410208 
L 191.125625 152.678784 
L 196.705625 152.426532 
L 202.285625 152.710508 
L 207.865625 152.374788 
L 213.445625 152.64552 
L 219.025625 152.376328 
L 224.605625 152.711432 
L 230.185625 152.443164 
L 235.765625 152.798288 
L 241.345625 152.551272 
L 246.925625 152.907936 
L 252.505625 152.56544 
L 258.085625 152.239268 
L 263.665625 151.292168 
L 269.245625 151.038684 
L 274.825625 150.685408 
L 280.405625 151.004188 
L 285.985625 151.297712 
L 291.565625 152.290088 
L 297.145625 152.606096 
L 302.725625 152.9489 
L 308.305625 152.624576 
L 313.885625 152.918716 
L 319.465625 152.591312 
L 325.045625 152.856808 
L 330.625625 152.516468 
L 336.205625 152.206004 
L 341.785625 151.35654 
L 347.365625 151.044536 
L 352.945625 150.710356 
L 358.525625 150.369708 
L 364.105625 150.08296 
L 369.685625 150.328436 
L 375.265625 150.576068 
L 380.845625 150.842796 
L 386.425625 151.1933 
L 392.005625 152.073256 
L 397.585625 152.34214 
" clip-path="url(#pb48846756a)" style="fill: none; stroke: #ff7f0e; stroke-opacity: 0.1; stroke-width: 1.5; stroke-linecap: square"/>
   </g>
   <g id="line2d_53">
    <path d="M 68.365625 274.93076 
L 73.945625 271.53506 
L 79.525625 268.141927 
L 85.105625 261.305482 
L 90.685625 254.44817 
L 96.265625 244.634263 
L 101.845625 231.295168 
L 107.425625 213.753952 
L 113.005625 196.169308 
L 118.585625 179.767384 
L 124.165625 166.472872 
L 129.745625 156.83432 
L 135.325625 152.12346 
L 140.905625 150.497836 
L 146.485625 150.19846 
L 152.065625 149.95052 
L 157.645625 150.31704 
L 163.225625 150.668468 
L 168.805625 151.014968 
L 174.385625 151.351612 
L 179.965625 151.663308 
L 185.545625 151.362084 
L 191.125625 151.07164 
L 196.705625 150.809224 
L 202.285625 151.0778 
L 207.865625 151.291244 
L 213.445625 152.118224 
L 219.025625 152.413596 
L 224.605625 152.68094 
L 230.185625 152.333516 
L 235.765625 152.60086 
L 241.345625 152.334748 
L 246.925625 152.601476 
L 252.505625 152.268528 
L 258.085625 152.55312 
L 263.665625 152.303024 
L 269.245625 152.656916 
L 274.825625 152.44224 
L 280.405625 152.830012 
L 285.985625 152.594392 
L 291.565625 152.312572 
L 297.145625 151.3473 
L 302.725625 150.956756 
L 308.305625 150.571756 
L 313.885625 150.890844 
L 319.465625 151.236728 
L 325.045625 152.193992 
L 330.625625 152.530636 
L 336.205625 152.283004 
L 341.785625 151.336212 
L 347.365625 150.947208 
L 352.945625 150.544036 
L 358.525625 150.840948 
L 364.105625 151.099052 
L 369.685625 151.973464 
L 375.265625 152.227872 
L 380.845625 151.97254 
L 386.425625 151.100592 
L 392.005625 150.84218 
L 397.585625 150.573604 
" clip-path="url(#pb48846756a)" style="fill: none; stroke: #2ca02c; stroke-opacity: 0.1; stroke-width: 1.5; stroke-linecap: square"/>
   </g>
   <g id="line2d_54">
    <path d="M 68.365625 274.94924 
L 73.945625 271.57433 
L 79.525625 268.169133 
L 85.105625 261.309973 
L 90.685625 254.378741 
L 96.265625 245.13638 
L 101.845625 234.217164 
L 107.425625 221.60056 
L 113.005625 208.963628 
L 118.585625 196.360884 
L 124.165625 184.383996 
L 129.745625 173.584592 
L 135.325625 163.995012 
L 140.905625 156.890376 
L 146.485625 152.890072 
L 152.065625 151.356848 
L 157.645625 151.033448 
L 163.225625 151.358696 
L 168.805625 152.270376 
L 174.385625 152.59008 
L 179.965625 152.831244 
L 185.545625 152.490904 
L 191.125625 152.71944 
L 196.705625 152.414828 
L 202.285625 152.642132 
L 207.865625 152.29748 
L 213.445625 152.56698 
L 219.025625 152.300252 
L 224.605625 152.566672 
L 230.185625 152.216784 
L 235.765625 152.48536 
L 241.345625 152.21894 
L 246.925625 152.570368 
L 252.505625 152.306412 
L 258.085625 152.663384 
L 263.665625 152.400352 
L 269.245625 152.75486 
L 274.825625 152.409284 
L 280.405625 152.681248 
L 285.985625 152.329512 
L 291.565625 152.676628 
L 297.145625 152.325816 
L 302.725625 152.600244 
L 308.305625 152.264524 
L 313.885625 152.020588 
L 319.465625 151.076876 
L 325.045625 150.74824 
L 330.625625 150.412212 
L 336.205625 150.171664 
L 341.785625 149.838716 
L 347.365625 150.123 
L 352.945625 150.397736 
L 358.525625 150.756556 
L 364.105625 151.095048 
L 369.685625 151.449864 
L 375.265625 151.189604 
L 380.845625 150.937352 
L 386.425625 150.663232 
L 392.005625 150.994024 
L 397.585625 151.311264 
" clip-path="url(#pb48846756a)" style="fill: none; stroke: #d62728; stroke-opacity: 0.1; stroke-width: 1.5; stroke-linecap: square"/>
   </g>
   <g id="line2d_55">
    <path d="M 68.365625 263.74574 
L 73.945625 259.13036 
L 79.525625 255.009833 
L 85.105625 246.331933 
L 90.685625 238.601133 
L 96.265625 228.684252 
L 101.845625 215.92412 
L 107.425625 201.014764 
L 113.005625 186.509196 
L 118.585625 173.879348 
L 124.165625 163.04514 
L 129.745625 155.895536 
L 135.325625 151.779732 
L 140.905625 150.497836 
L 146.485625 149.077032 
L 152.065625 149.344992 
L 157.645625 150.103904 
L 163.225625 150.413136 
L 168.805625 150.156264 
L 174.385625 149.894772 
L 179.965625 149.65176 
L 185.545625 149.153416 
L 191.125625 148.29194 
L 196.705625 148.038764 
L 202.285625 148.399432 
L 207.865625 149.361316 
L 213.445625 150.019204 
L 219.025625 150.30164 
L 224.605625 150.508 
L 230.185625 150.348456 
L 235.765625 150.025672 
L 241.345625 150.3155 
L 246.925625 150.637976 
L 252.505625 150.379872 
L 258.085625 150.066636 
L 263.665625 149.525788 
L 269.245625 149.278156 
L 274.825625 149.548272 
L 280.405625 150.05062 
L 285.985625 150.325664 
L 291.565625 150.636128 
L 297.145625 150.409132 
L 302.725625 150.114992 
L 308.305625 150.400816 
L 313.885625 150.278848 
L 319.465625 149.997952 
L 325.045625 149.991792 
L 330.625625 150.207392 
L 336.205625 150.171664 
L 341.785625 149.838716 
L 347.365625 150.123 
L 352.945625 150.397736 
L 358.525625 150.369708 
L 364.105625 150.08296 
L 369.685625 150.328436 
L 375.265625 150.433464 
L 380.845625 150.153184 
L 386.425625 149.812536 
L 392.005625 150.084808 
L 397.585625 150.3617 
" clip-path="url(#pb48846756a)" style="fill: none; stroke: #ffa500; stroke-opacity: 0.6; stroke-width: 1.5; stroke-linecap: square"/>
   </g>
   <g id="line2d_56">
    <path d="M 68.365625 289.955 
L 73.945625 286.19432 
L 79.525625 282.597393 
L 85.105625 275.447943 
L 90.685625 268.490223 
L 96.265625 259.180718 
L 101.845625 247.587444 
L 107.425625 233.7065 
L 113.005625 219.272696 
L 118.585625 204.761892 
L 124.165625 190.240616 
L 129.745625 176.956576 
L 135.325625 165.490044 
L 140.905625 157.671464 
L 146.485625 152.952288 
L 152.065625 152.811224 
L 157.645625 152.743772 
L 163.225625 152.676936 
L 168.805625 152.822312 
L 174.385625 152.59008 
L 179.965625 152.831244 
L 185.545625 152.490904 
L 191.125625 152.751164 
L 196.705625 152.50615 
L 202.285625 152.761944 
L 207.865625 152.424684 
L 213.445625 152.704656 
L 219.025625 152.542032 
L 224.605625 152.718208 
L 230.185625 152.4638 
L 235.765625 152.798288 
L 241.345625 152.551272 
L 246.925625 152.907936 
L 252.505625 152.56544 
L 258.085625 152.700036 
L 263.665625 152.453636 
L 269.245625 152.806912 
L 274.825625 152.587616 
L 280.405625 152.921796 
L 285.985625 152.64552 
L 291.565625 152.721288 
L 297.145625 152.627964 
L 302.725625 152.9489 
L 308.305625 152.624576 
L 313.885625 152.918716 
L 319.465625 152.591312 
L 325.045625 152.856808 
L 330.625625 152.838636 
L 336.205625 152.811224 
L 341.785625 152.842948 
L 347.365625 152.738844 
L 352.945625 152.566364 
L 358.525625 152.8873 
L 364.105625 152.791512 
L 369.685625 152.7795 
L 375.265625 152.848184 
L 380.845625 153.823928 
L 386.425625 154.180284 
L 392.005625 154.535408 
L 397.585625 154.88776 
" clip-path="url(#pb48846756a)" style="fill: none; stroke: #00ffff; stroke-opacity: 0.6; stroke-width: 1.5; stroke-linecap: square"/>
   </g>
   <g id="line2d_57">
    <path d="M 68.365625 275.849645 
L 73.945625 270.784021 
L 79.525625 266.629857 
L 85.105625 258.257496 
L 90.685625 250.858957 
L 96.265625 240.976095 
L 101.845625 228.979107 
L 107.425625 214.703967 
L 113.005625 200.704421 
L 118.585625 187.213955 
L 124.165625 174.977852 
L 129.745625 165.03141 
L 135.325625 157.78263 
L 140.905625 153.522308 
L 146.485625 151.658534 
L 152.065625 151.31199 
L 157.645625 151.552362 
L 163.225625 151.732949 
L 168.805625 151.88982 
L 174.385625 151.718869 
L 179.965625 151.570061 
L 185.545625 151.236387 
L 191.125625 151.238598 
L 196.705625 151.220789 
L 202.285625 151.51263 
L 207.865625 151.567916 
L 213.445625 151.859284 
L 219.025625 151.840056 
L 224.605625 152.037198 
L 230.185625 151.88333 
L 235.765625 152.046372 
L 241.345625 151.910566 
L 246.925625 152.012448 
L 252.505625 151.682184 
L 258.085625 151.655718 
L 263.665625 151.476418 
L 269.245625 151.747964 
L 274.825625 151.733246 
L 280.405625 152.073256 
L 285.985625 152.083596 
L 291.565625 152.192958 
L 297.145625 151.784528 
L 302.725625 151.719122 
L 308.305625 151.523388 
L 313.885625 151.66509 
L 319.465625 151.562834 
L 325.045625 151.85352 
L 330.625625 151.884144 
L 336.205625 151.997532 
L 341.785625 151.818782 
L 347.365625 152.018388 
L 352.945625 151.958218 
L 358.525625 151.901282 
L 364.105625 151.552076 
L 369.685625 151.53342 
L 375.265625 151.426412 
L 380.845625 151.452328 
L 386.425625 151.422738 
L 392.005625 151.738592 
L 397.585625 151.875344 
" clip-path="url(#pb48846756a)" style="fill: none; stroke: #0000ff; stroke-width: 2; stroke-linecap: square"/>
   </g>
   <g id="line2d_58">
    <path d="M 146.485625 289.955 
L 146.485625 12.755 
" clip-path="url(#pb48846756a)" style="fill: none; stroke-dasharray: 5.55,2.4; stroke-dashoffset: 0; stroke: #ff0000; stroke-width: 1.5"/>
   </g>
   <g id="line2d_59">
    <path d="M 140.905625 289.955 
L 140.905625 12.755 
" clip-path="url(#pb48846756a)" style="fill: none; stroke-dasharray: 5.55,2.4; stroke-dashoffset: 0; stroke: #0000ff; stroke-width: 1.5"/>
   </g>
   <g id="patch_7">
    <path d="M 68.365625 289.955 
L 68.365625 12.755 
" style="fill: none; stroke: #000000; stroke-width: 0.8; stroke-linejoin: miter; stroke-linecap: square"/>
   </g>
   <g id="patch_8">
    <path d="M 403.165625 289.955 
L 403.165625 12.755 
" style="fill: none; stroke: #000000; stroke-width: 0.8; stroke-linejoin: miter; stroke-linecap: square"/>
   </g>
   <g id="patch_9">
    <path d="M 68.365625 289.955 
L 403.165625 289.955 
" style="fill: none; stroke: #000000; stroke-width: 0.8; stroke-linejoin: miter; stroke-linecap: square"/>
   </g>
   <g id="patch_10">
    <path d="M 68.365625 12.755 
L 403.165625 12.755 
" style="fill: none; stroke: #000000; stroke-width: 0.8; stroke-linejoin: miter; stroke-linecap: square"/>
   </g>
  </g>
 </g>
 <defs>
  <clipPath id="pb48846756a">
   <rect x="68.365625" y="12.755" width="334.8" height="277.2"/>
  </clipPath>
 </defs>
</svg>
