<?xml version="1.0" encoding="utf-8" standalone="no"?>
<!DOCTYPE svg PUBLIC "-//W3C//DTD SVG 1.1//EN"
  "http://www.w3.org/Graphics/SVG/1.1/DTD/svg11.dtd">
<svg xmlns:xlink="http://www.w3.org/1999/xlink" width="1080pt" height="432pt" viewBox="0 0 1080 432" xmlns="http://www.w3.org/2000/svg" version="1.1">
 <metadata>
  <rdf:RDF xmlns:dc="http://purl.org/dc/elements/1.1/" xmlns:cc="http://creativecommons.org/ns#" xmlns:rdf="http://www.w3.org/1999/02/22-rdf-syntax-ns#">
   <cc:Work>
    <dc:type rdf:resource="http://purl.org/dc/dcmitype/StillImage"/>
    <dc:date>2024-04-11T03:28:34.006732</dc:date>
    <dc:format>image/svg+xml</dc:format>
    <dc:creator>
     <cc:Agent>
      <dc:title>Matplotlib v3.8.3, https://matplotlib.org/</dc:title>
     </cc:Agent>
    </dc:creator>
   </cc:Work>
  </rdf:RDF>
 </metadata>
 <defs>
  <style type="text/css">*{stroke-linejoin: round; stroke-linecap: butt}</style>
 </defs>
 <g id="figure_1">
  <g id="patch_1">
   <path d="M 0 432 
L 1080 432 
L 1080 0 
L 0 0 
z
" style="fill: #ffffff"/>
  </g>
  <g id="axes_1">
   <g id="patch_2">
    <path d="M 135 384.48 
L 972 384.48 
L 972 51.84 
L 135 51.84 
z
" style="fill: #ffffff"/>
   </g>
   <g id="matplotlib.axis_1">
    <g id="xtick_1">
     <g id="line2d_1">
      <path d="M 173.045455 384.48 
L 173.045455 51.84 
" clip-path="url(#pee2857234e)" style="fill: none; stroke: #b0b0b0; stroke-width: 0.8; stroke-linecap: square"/>
     </g>
     <g id="line2d_2">
      <defs>
       <path id="mdcf3015d16" d="M 0 0 
L 0 3.5 
" style="stroke: #000000; stroke-width: 0.8"/>
      </defs>
      <g>
       <use xlink:href="#mdcf3015d16" x="173.045455" y="384.48" style="stroke: #000000; stroke-width: 0.8"/>
      </g>
     </g>
     <g id="text_1">
      <!-- 0 -->
      <g transform="translate(170.545455 398.628438) scale(0.1 -0.1)">
       <defs>
        <path id="Times New Roman-30" d="M 1600 4225
Q 1250 4225 1012 3687 
Q 775 3150 775 2250 
Q 775 1300 1012 775 
Q 1250 250 1600 250 
Q 1975 250 2187 775 
Q 2400 1300 2400 2250 
Q 2400 3150 2200 3687 
Q 2000 4225 1600 4225 
z
M 1600 50 
Q 1050 50 675 625 
Q 300 1200 300 2250 
Q 300 3225 662 3825 
Q 1025 4425 1600 4425 
Q 2150 4425 2512 3850 
Q 2875 3275 2875 2250 
Q 2875 1225 2512 637 
Q 2150 50 1600 50 
z
" transform="scale(0.015625)"/>
       </defs>
       <use xlink:href="#Times New Roman-30"/>
      </g>
     </g>
    </g>
    <g id="xtick_2">
     <g id="line2d_3">
      <path d="M 299.863636 384.48 
L 299.863636 51.84 
" clip-path="url(#pee2857234e)" style="fill: none; stroke: #b0b0b0; stroke-width: 0.8; stroke-linecap: square"/>
     </g>
     <g id="line2d_4">
      <g>
       <use xlink:href="#mdcf3015d16" x="299.863636" y="384.48" style="stroke: #000000; stroke-width: 0.8"/>
      </g>
     </g>
     <g id="text_2">
      <!-- 100 -->
      <g transform="translate(292.363636 398.628438) scale(0.1 -0.1)">
       <defs>
        <path id="Times New Roman-31" d="M 1825 4450
L 1825 650 
Q 1825 450 1950 350 
Q 2075 250 2300 250 
L 2550 250 
L 2550 100 
L 725 100 
L 725 250 
L 950 250 
Q 1200 250 1312 350 
Q 1425 450 1425 650 
L 1425 3675 
Q 1425 3775 1362 3837 
Q 1300 3900 1175 3900 
L 725 3900 
L 725 4050 
L 950 4050 
Q 1250 4050 1437 4150 
Q 1625 4250 1725 4450 
L 1825 4450 
z
" transform="scale(0.015625)"/>
       </defs>
       <use xlink:href="#Times New Roman-31"/>
       <use xlink:href="#Times New Roman-30" x="50"/>
       <use xlink:href="#Times New Roman-30" x="100"/>
      </g>
     </g>
    </g>
    <g id="xtick_3">
     <g id="line2d_5">
      <path d="M 426.681818 384.48 
L 426.681818 51.84 
" clip-path="url(#pee2857234e)" style="fill: none; stroke: #b0b0b0; stroke-width: 0.8; stroke-linecap: square"/>
     </g>
     <g id="line2d_6">
      <g>
       <use xlink:href="#mdcf3015d16" x="426.681818" y="384.48" style="stroke: #000000; stroke-width: 0.8"/>
      </g>
     </g>
     <g id="text_3">
      <!-- 200 -->
      <g transform="translate(419.181818 398.628438) scale(0.1 -0.1)">
       <defs>
        <path id="Times New Roman-32" d="M 2325 3325
Q 2325 3775 2125 4012 
Q 1925 4250 1525 4250 
Q 1225 4250 1012 4087 
Q 800 3925 800 3675 
Q 800 3525 900 3425 
Q 975 3325 975 3225 
Q 975 3100 912 3037 
Q 850 2975 725 2975 
Q 575 2975 487 3062 
Q 400 3150 400 3350 
Q 400 3875 775 4150 
Q 1150 4425 1575 4425 
Q 2175 4425 2462 4125 
Q 2750 3825 2750 3375 
Q 2750 3075 2612 2775 
Q 2475 2475 2175 2200 
Q 1450 1500 1062 1062 
Q 675 625 600 475 
L 2075 475 
Q 2300 475 2450 650 
Q 2600 825 2650 1175 
L 2800 1175 
L 2650 100 
L 325 100 
L 325 425 
Q 450 650 737 1000 
Q 1025 1350 1500 1825 
Q 1925 2250 2125 2625 
Q 2325 3000 2325 3325 
z
" transform="scale(0.015625)"/>
       </defs>
       <use xlink:href="#Times New Roman-32"/>
       <use xlink:href="#Times New Roman-30" x="50"/>
       <use xlink:href="#Times New Roman-30" x="100"/>
      </g>
     </g>
    </g>
    <g id="xtick_4">
     <g id="line2d_7">
      <path d="M 553.5 384.48 
L 553.5 51.84 
" clip-path="url(#pee2857234e)" style="fill: none; stroke: #b0b0b0; stroke-width: 0.8; stroke-linecap: square"/>
     </g>
     <g id="line2d_8">
      <g>
       <use xlink:href="#mdcf3015d16" x="553.5" y="384.48" style="stroke: #000000; stroke-width: 0.8"/>
      </g>
     </g>
     <g id="text_4">
      <!-- 300 -->
      <g transform="translate(546 398.628438) scale(0.1 -0.1)">
       <defs>
        <path id="Times New Roman-33" d="M 2800 1250
Q 2800 775 2450 412 
Q 2100 50 1475 50 
Q 1025 50 700 300 
Q 375 550 375 875 
Q 375 1025 475 1137 
Q 575 1250 675 1250 
Q 825 1250 887 1137 
Q 950 1025 950 950 
Q 950 825 900 750 
Q 850 650 850 575 
Q 850 425 1037 325 
Q 1225 225 1450 225 
Q 1900 225 2125 487 
Q 2350 750 2350 1300 
Q 2350 1750 2112 2025 
Q 1875 2300 1225 2300 
L 1225 2475 
Q 1725 2475 1962 2712 
Q 2200 2950 2200 3375 
Q 2200 3725 2012 3987 
Q 1825 4250 1425 4250 
Q 1250 4250 1050 4162 
Q 850 4075 850 3875 
Q 850 3675 900 3625 
Q 950 3575 950 3500 
Q 950 3375 900 3300 
Q 850 3225 725 3225 
Q 625 3225 537 3300 
Q 450 3375 450 3575 
Q 450 3950 775 4187 
Q 1100 4425 1525 4425 
Q 2025 4425 2325 4112 
Q 2625 3800 2625 3450 
Q 2625 3075 2437 2812 
Q 2250 2550 1850 2425 
Q 2400 2225 2600 1900 
Q 2800 1575 2800 1250 
z
" transform="scale(0.015625)"/>
       </defs>
       <use xlink:href="#Times New Roman-33"/>
       <use xlink:href="#Times New Roman-30" x="50"/>
       <use xlink:href="#Times New Roman-30" x="100"/>
      </g>
     </g>
    </g>
    <g id="xtick_5">
     <g id="line2d_9">
      <path d="M 680.318182 384.48 
L 680.318182 51.84 
" clip-path="url(#pee2857234e)" style="fill: none; stroke: #b0b0b0; stroke-width: 0.8; stroke-linecap: square"/>
     </g>
     <g id="line2d_10">
      <g>
       <use xlink:href="#mdcf3015d16" x="680.318182" y="384.48" style="stroke: #000000; stroke-width: 0.8"/>
      </g>
     </g>
     <g id="text_5">
      <!-- 400 -->
      <g transform="translate(672.818182 398.628438) scale(0.1 -0.1)">
       <defs>
        <path id="Times New Roman-34" d="M 2300 575
Q 2300 400 2400 325 
Q 2500 250 2675 250 
L 2900 250 
L 2900 100 
L 1250 100 
L 1250 250 
L 1525 250 
Q 1725 250 1812 325 
Q 1900 400 1900 575 
L 1900 1400 
L 225 1400 
L 225 1525 
L 2050 4425 
L 2300 4425 
L 2300 1550 
L 2975 1550 
L 2975 1400 
L 2300 1400 
L 2300 575 
z
M 1875 3800 
L 450 1550 
L 1900 1550 
L 1900 3800 
L 1875 3800 
z
" transform="scale(0.015625)"/>
       </defs>
       <use xlink:href="#Times New Roman-34"/>
       <use xlink:href="#Times New Roman-30" x="50"/>
       <use xlink:href="#Times New Roman-30" x="100"/>
      </g>
     </g>
    </g>
    <g id="xtick_6">
     <g id="line2d_11">
      <path d="M 807.136364 384.48 
L 807.136364 51.84 
" clip-path="url(#pee2857234e)" style="fill: none; stroke: #b0b0b0; stroke-width: 0.8; stroke-linecap: square"/>
     </g>
     <g id="line2d_12">
      <g>
       <use xlink:href="#mdcf3015d16" x="807.136364" y="384.48" style="stroke: #000000; stroke-width: 0.8"/>
      </g>
     </g>
     <g id="text_6">
      <!-- 500 -->
      <g transform="translate(799.636364 398.628438) scale(0.1 -0.1)">
       <defs>
        <path id="Times New Roman-35" d="M 1725 2850
Q 2200 2850 2500 2487 
Q 2800 2125 2800 1525 
Q 2800 850 2487 450 
Q 2175 50 1525 50 
Q 1075 50 725 312 
Q 375 575 375 950 
Q 375 1100 462 1212 
Q 550 1325 700 1325 
Q 850 1325 900 1225 
Q 950 1125 950 1050 
Q 950 900 875 825 
Q 800 725 800 625 
Q 800 425 1037 325 
Q 1275 225 1550 225 
Q 1950 225 2162 550 
Q 2375 875 2375 1475 
Q 2375 1975 2187 2287 
Q 2000 2600 1625 2600 
Q 1350 2600 1150 2500 
Q 950 2400 775 2075 
L 550 2100 
L 675 4375 
L 2725 4375 
L 2650 4000 
L 850 4000 
L 750 2350 
Q 1000 2700 1237 2775 
Q 1475 2850 1725 2850 
z
" transform="scale(0.015625)"/>
       </defs>
       <use xlink:href="#Times New Roman-35"/>
       <use xlink:href="#Times New Roman-30" x="50"/>
       <use xlink:href="#Times New Roman-30" x="100"/>
      </g>
     </g>
    </g>
    <g id="xtick_7">
     <g id="line2d_13">
      <path d="M 933.954545 384.48 
L 933.954545 51.84 
" clip-path="url(#pee2857234e)" style="fill: none; stroke: #b0b0b0; stroke-width: 0.8; stroke-linecap: square"/>
     </g>
     <g id="line2d_14">
      <g>
       <use xlink:href="#mdcf3015d16" x="933.954545" y="384.48" style="stroke: #000000; stroke-width: 0.8"/>
      </g>
     </g>
     <g id="text_7">
      <!-- 600 -->
      <g transform="translate(926.454545 398.628438) scale(0.1 -0.1)">
       <defs>
        <path id="Times New Roman-36" d="M 775 1800
Q 775 1050 1037 637 
Q 1300 225 1675 225 
Q 2050 225 2250 500 
Q 2450 775 2450 1525 
Q 2450 2025 2237 2300 
Q 2025 2575 1725 2575 
Q 1450 2575 1212 2412 
Q 975 2250 775 1800 
z
M 1750 2825 
Q 2350 2825 2612 2425 
Q 2875 2025 2875 1525 
Q 2875 775 2512 412 
Q 2150 50 1675 50 
Q 1000 50 650 562 
Q 300 1075 300 2050 
Q 300 3200 725 3812 
Q 1150 4425 1875 4425 
Q 2225 4425 2437 4225 
Q 2650 4025 2650 3875 
Q 2650 3725 2587 3650 
Q 2525 3575 2375 3575 
Q 2250 3575 2187 3637 
Q 2125 3700 2125 3825 
Q 2125 3875 2150 3925 
Q 2150 3975 2150 4025 
Q 2150 4125 2075 4187 
Q 2000 4250 1800 4250 
Q 1375 4250 1075 3862 
Q 775 3475 775 2175 
Q 925 2500 1187 2662 
Q 1450 2825 1750 2825 
z
" transform="scale(0.015625)"/>
       </defs>
       <use xlink:href="#Times New Roman-36"/>
       <use xlink:href="#Times New Roman-30" x="50"/>
       <use xlink:href="#Times New Roman-30" x="100"/>
      </g>
     </g>
    </g>
    <g id="text_8">
     <!-- Time (s) -->
     <g transform="translate(533.5 411.534688) scale(0.1 -0.1)">
      <defs>
       <path id="Times New Roman-54" d="M 2225 100
L 925 100 
L 925 250 
L 1150 250 
Q 1275 250 1325 300 
Q 1375 350 1375 450 
L 1375 3950 
Q 1375 4150 1350 4175 
Q 1325 4200 1150 4200 
Q 800 4200 662 4075 
Q 525 3950 325 3400 
L 175 3425 
L 400 4375 
L 2775 4375 
L 2975 3425 
L 2850 3400 
Q 2650 3925 2537 4062 
Q 2425 4200 2075 4200 
Q 1825 4200 1800 4175 
Q 1775 4150 1775 3925 
L 1775 450 
Q 1775 350 1837 300 
Q 1900 250 2000 250 
L 2225 250 
L 2225 100 
z
" transform="scale(0.015625)"/>
       <path id="Times New Roman-69" d="M 1425 2525
Q 1425 2625 1375 2687 
Q 1325 2750 1200 2750 
L 675 2750 
L 675 2900 
L 925 2900 
Q 1150 2900 1350 2937 
Q 1550 2975 1725 3075 
L 1775 3075 
L 1775 450 
Q 1775 350 1837 300 
Q 1900 250 2000 250 
L 2525 250 
L 2525 100 
L 675 100 
L 675 250 
L 1200 250 
Q 1325 250 1375 300 
Q 1425 350 1425 450 
L 1425 2525 
z
M 1725 3025 
L 1725 3025 
z
M 1625 4425 
Q 1750 4425 1850 4337 
Q 1950 4250 1950 4125 
Q 1950 4000 1850 3900 
Q 1750 3800 1625 3800 
Q 1500 3800 1400 3900 
Q 1300 4000 1300 4125 
Q 1300 4250 1400 4337 
Q 1500 4425 1625 4425 
z
" transform="scale(0.015625)"/>
       <path id="Times New Roman-6d" d="M 175 2900
Q 300 2900 425 2925 
Q 550 2950 625 3000 
L 675 3000 
L 675 2575 
Q 800 2775 950 2862 
Q 1100 2950 1275 2950 
Q 1500 2950 1625 2862 
Q 1750 2775 1775 2575 
Q 1900 2775 2062 2862 
Q 2225 2950 2400 2950 
Q 2700 2950 2812 2775 
Q 2925 2600 2925 2325 
L 2925 425 
Q 2925 325 2975 287 
Q 3025 250 3125 250 
L 3175 250 
L 3175 100 
L 2325 100 
L 2325 250 
L 2375 250 
Q 2475 250 2525 287 
Q 2575 325 2575 425 
L 2575 2300 
Q 2575 2575 2512 2662 
Q 2450 2750 2325 2750 
Q 2150 2750 2012 2625 
Q 1875 2500 1800 2275 
L 1800 425 
Q 1800 325 1850 287 
Q 1900 250 2000 250 
L 2050 250 
L 2050 100 
L 1200 100 
L 1200 250 
L 1250 250 
Q 1350 250 1400 287 
Q 1450 325 1450 425 
L 1450 2300 
Q 1450 2525 1400 2637 
Q 1350 2750 1200 2750 
Q 1025 2750 887 2625 
Q 750 2500 675 2250 
L 675 425 
Q 675 325 725 287 
Q 775 250 875 250 
L 925 250 
L 925 100 
L 75 100 
L 75 250 
L 125 250 
Q 225 250 275 287 
Q 325 325 325 425 
L 325 2600 
Q 325 2675 300 2712 
Q 275 2750 200 2750 
L 100 2750 
L 100 2900 
L 175 2900 
z
" transform="scale(0.015625)"/>
       <path id="Times New Roman-65" d="M 2400 1650
Q 2425 2200 2212 2487 
Q 2000 2775 1650 2775 
Q 1275 2775 1037 2475 
Q 800 2175 800 1650 
L 2400 1650 
z
M 800 1500 
Q 800 825 1062 537 
Q 1325 250 1750 250 
Q 2075 250 2300 437 
Q 2525 625 2625 900 
L 2750 850 
Q 2675 575 2412 312 
Q 2150 50 1700 50 
Q 1125 50 762 425 
Q 400 800 400 1500 
Q 400 2125 762 2537 
Q 1125 2950 1650 2950 
Q 2125 2950 2475 2625 
Q 2825 2300 2825 1500 
L 800 1500 
z
" transform="scale(0.015625)"/>
       <path id="Times New Roman-20" d="M 0 0
Q 0 0 0 0 
z
" transform="scale(0.015625)"/>
       <path id="Times New Roman-28" d="M 2900 5025
Q 2325 4425 2037 3737 
Q 1750 3050 1750 2300 
Q 1750 1525 2037 850 
Q 2325 175 2900 -425 
L 2775 -550 
Q 2075 75 1725 787 
Q 1375 1500 1375 2300 
Q 1375 3075 1725 3787 
Q 2075 4500 2775 5150 
L 2900 5025 
z
" transform="scale(0.015625)"/>
       <path id="Times New Roman-73" d="M 625 2175
Q 625 2550 912 2750 
Q 1200 2950 1600 2950 
Q 1825 2950 2025 2900 
Q 2225 2825 2300 2825 
Q 2375 2825 2425 2850 
Q 2475 2875 2550 2950 
L 2650 2125 
L 2500 2100 
Q 2400 2425 2162 2612 
Q 1925 2800 1625 2800 
Q 1300 2800 1112 2675 
Q 925 2550 925 2325 
Q 925 2125 1012 2012 
Q 1100 1900 1325 1850 
Q 1500 1775 1775 1700 
Q 2025 1600 2250 1500 
Q 2450 1400 2587 1237 
Q 2725 1075 2725 875 
Q 2725 500 2462 287 
Q 2200 75 1700 75 
Q 1375 75 1225 150 
Q 1050 200 950 200 
Q 875 200 787 162 
Q 700 125 600 75 
L 525 1000 
L 675 1025 
Q 750 625 1000 425 
Q 1250 225 1700 225 
Q 2050 225 2237 350 
Q 2425 475 2425 725 
Q 2425 900 2325 1012 
Q 2225 1125 2125 1175 
Q 1875 1275 1575 1400 
Q 1275 1500 1050 1600 
Q 825 1700 725 1850 
Q 625 2000 625 2175 
z
" transform="scale(0.015625)"/>
       <path id="Times New Roman-29" d="M 275 5025
L 400 5150 
Q 1100 4500 1450 3787 
Q 1800 3075 1800 2300 
Q 1800 1500 1450 787 
Q 1100 75 400 -550 
L 275 -425 
Q 850 175 1137 850 
Q 1425 1525 1425 2300 
Q 1425 3050 1137 3737 
Q 850 4425 275 5025 
z
" transform="scale(0.015625)"/>
      </defs>
      <use xlink:href="#Times New Roman-54"/>
      <use xlink:href="#Times New Roman-69" x="50"/>
      <use xlink:href="#Times New Roman-6d" x="100"/>
      <use xlink:href="#Times New Roman-65" x="150"/>
      <use xlink:href="#Times New Roman-20" x="200"/>
      <use xlink:href="#Times New Roman-28" x="250"/>
      <use xlink:href="#Times New Roman-73" x="300"/>
      <use xlink:href="#Times New Roman-29" x="350"/>
     </g>
    </g>
   </g>
   <g id="matplotlib.axis_2">
    <g id="ytick_1">
     <g id="line2d_15">
      <path d="M 135 349.456472 
L 972 349.456472 
" clip-path="url(#pee2857234e)" style="fill: none; stroke: #b0b0b0; stroke-width: 0.8; stroke-linecap: square"/>
     </g>
     <g id="line2d_16">
      <defs>
       <path id="mfb5f388bf7" d="M 0 0 
L -3.5 0 
" style="stroke: #000000; stroke-width: 0.8"/>
      </defs>
      <g>
       <use xlink:href="#mfb5f388bf7" x="135" y="349.456472" style="stroke: #000000; stroke-width: 0.8"/>
      </g>
     </g>
     <g id="text_9">
      <!-- 500 -->
      <g transform="translate(113 353.030691) scale(0.1 -0.1)">
       <use xlink:href="#Times New Roman-35"/>
       <use xlink:href="#Times New Roman-30" x="50"/>
       <use xlink:href="#Times New Roman-30" x="100"/>
      </g>
     </g>
    </g>
    <g id="ytick_2">
     <g id="line2d_17">
      <path d="M 135 307.741104 
L 972 307.741104 
" clip-path="url(#pee2857234e)" style="fill: none; stroke: #b0b0b0; stroke-width: 0.8; stroke-linecap: square"/>
     </g>
     <g id="line2d_18">
      <g>
       <use xlink:href="#mfb5f388bf7" x="135" y="307.741104" style="stroke: #000000; stroke-width: 0.8"/>
      </g>
     </g>
     <g id="text_10">
      <!-- 1000 -->
      <g transform="translate(108 311.315323) scale(0.1 -0.1)">
       <use xlink:href="#Times New Roman-31"/>
       <use xlink:href="#Times New Roman-30" x="50"/>
       <use xlink:href="#Times New Roman-30" x="100"/>
       <use xlink:href="#Times New Roman-30" x="150"/>
      </g>
     </g>
    </g>
    <g id="ytick_3">
     <g id="line2d_19">
      <path d="M 135 266.025736 
L 972 266.025736 
" clip-path="url(#pee2857234e)" style="fill: none; stroke: #b0b0b0; stroke-width: 0.8; stroke-linecap: square"/>
     </g>
     <g id="line2d_20">
      <g>
       <use xlink:href="#mfb5f388bf7" x="135" y="266.025736" style="stroke: #000000; stroke-width: 0.8"/>
      </g>
     </g>
     <g id="text_11">
      <!-- 1500 -->
      <g transform="translate(108 269.599955) scale(0.1 -0.1)">
       <use xlink:href="#Times New Roman-31"/>
       <use xlink:href="#Times New Roman-35" x="50"/>
       <use xlink:href="#Times New Roman-30" x="100"/>
       <use xlink:href="#Times New Roman-30" x="150"/>
      </g>
     </g>
    </g>
    <g id="ytick_4">
     <g id="line2d_21">
      <path d="M 135 224.310368 
L 972 224.310368 
" clip-path="url(#pee2857234e)" style="fill: none; stroke: #b0b0b0; stroke-width: 0.8; stroke-linecap: square"/>
     </g>
     <g id="line2d_22">
      <g>
       <use xlink:href="#mfb5f388bf7" x="135" y="224.310368" style="stroke: #000000; stroke-width: 0.8"/>
      </g>
     </g>
     <g id="text_12">
      <!-- 2000 -->
      <g transform="translate(108 227.884587) scale(0.1 -0.1)">
       <use xlink:href="#Times New Roman-32"/>
       <use xlink:href="#Times New Roman-30" x="50"/>
       <use xlink:href="#Times New Roman-30" x="100"/>
       <use xlink:href="#Times New Roman-30" x="150"/>
      </g>
     </g>
    </g>
    <g id="ytick_5">
     <g id="line2d_23">
      <path d="M 135 182.595 
L 972 182.595 
" clip-path="url(#pee2857234e)" style="fill: none; stroke: #b0b0b0; stroke-width: 0.8; stroke-linecap: square"/>
     </g>
     <g id="line2d_24">
      <g>
       <use xlink:href="#mfb5f388bf7" x="135" y="182.595" style="stroke: #000000; stroke-width: 0.8"/>
      </g>
     </g>
     <g id="text_13">
      <!-- 2500 -->
      <g transform="translate(108 186.169219) scale(0.1 -0.1)">
       <use xlink:href="#Times New Roman-32"/>
       <use xlink:href="#Times New Roman-35" x="50"/>
       <use xlink:href="#Times New Roman-30" x="100"/>
       <use xlink:href="#Times New Roman-30" x="150"/>
      </g>
     </g>
    </g>
    <g id="ytick_6">
     <g id="line2d_25">
      <path d="M 135 140.879632 
L 972 140.879632 
" clip-path="url(#pee2857234e)" style="fill: none; stroke: #b0b0b0; stroke-width: 0.8; stroke-linecap: square"/>
     </g>
     <g id="line2d_26">
      <g>
       <use xlink:href="#mfb5f388bf7" x="135" y="140.879632" style="stroke: #000000; stroke-width: 0.8"/>
      </g>
     </g>
     <g id="text_14">
      <!-- 3000 -->
      <g transform="translate(108 144.453851) scale(0.1 -0.1)">
       <use xlink:href="#Times New Roman-33"/>
       <use xlink:href="#Times New Roman-30" x="50"/>
       <use xlink:href="#Times New Roman-30" x="100"/>
       <use xlink:href="#Times New Roman-30" x="150"/>
      </g>
     </g>
    </g>
    <g id="ytick_7">
     <g id="line2d_27">
      <path d="M 135 99.164264 
L 972 99.164264 
" clip-path="url(#pee2857234e)" style="fill: none; stroke: #b0b0b0; stroke-width: 0.8; stroke-linecap: square"/>
     </g>
     <g id="line2d_28">
      <g>
       <use xlink:href="#mfb5f388bf7" x="135" y="99.164264" style="stroke: #000000; stroke-width: 0.8"/>
      </g>
     </g>
     <g id="text_15">
      <!-- 3500 -->
      <g transform="translate(108 102.738483) scale(0.1 -0.1)">
       <use xlink:href="#Times New Roman-33"/>
       <use xlink:href="#Times New Roman-35" x="50"/>
       <use xlink:href="#Times New Roman-30" x="100"/>
       <use xlink:href="#Times New Roman-30" x="150"/>
      </g>
     </g>
    </g>
    <g id="ytick_8">
     <g id="line2d_29">
      <path d="M 135 57.448896 
L 972 57.448896 
" clip-path="url(#pee2857234e)" style="fill: none; stroke: #b0b0b0; stroke-width: 0.8; stroke-linecap: square"/>
     </g>
     <g id="line2d_30">
      <g>
       <use xlink:href="#mfb5f388bf7" x="135" y="57.448896" style="stroke: #000000; stroke-width: 0.8"/>
      </g>
     </g>
     <g id="text_16">
      <!-- 4000 -->
      <g transform="translate(108 61.023115) scale(0.1 -0.1)">
       <use xlink:href="#Times New Roman-34"/>
       <use xlink:href="#Times New Roman-30" x="50"/>
       <use xlink:href="#Times New Roman-30" x="100"/>
       <use xlink:href="#Times New Roman-30" x="150"/>
      </g>
     </g>
    </g>
    <g id="text_17">
     <!-- Bite Rate (kbps) -->
     <g transform="translate(102.710938 258.16) rotate(-90) scale(0.1 -0.1)">
      <defs>
       <path id="Times New Roman-42" d="M 100 100
L 100 250 
L 300 250 
Q 425 250 475 300 
Q 525 350 525 450 
L 525 4025 
Q 525 4125 475 4175 
Q 425 4225 300 4225 
L 150 4225 
L 150 4375 
L 1600 4375 
Q 2200 4375 2487 4137 
Q 2775 3900 2775 3400 
Q 2775 3050 2625 2825 
Q 2475 2600 2000 2425 
Q 2575 2250 2775 1925 
Q 2975 1600 2975 1200 
Q 2975 700 2625 400 
Q 2275 100 1675 100 
L 100 100 
z
M 1600 250 
Q 2025 250 2262 512 
Q 2500 775 2500 1250 
Q 2500 1800 2250 2062 
Q 2000 2325 1500 2325 
L 925 2325 
L 925 450 
Q 925 350 987 300 
Q 1050 250 1150 250 
L 1600 250 
z
M 2350 3400 
Q 2350 3850 2100 4037 
Q 1850 4225 1450 4225 
L 1150 4225 
Q 1050 4225 987 4175 
Q 925 4125 925 4025 
L 925 2475 
L 1575 2475 
Q 1850 2475 2100 2700 
Q 2350 2925 2350 3400 
z
" transform="scale(0.015625)"/>
       <path id="Times New Roman-74" d="M 1500 900
Q 1500 550 1625 425 
Q 1750 300 2000 300 
Q 2250 300 2400 462 
Q 2550 625 2600 925 
L 2725 875 
Q 2675 525 2462 300 
Q 2250 75 1900 75 
Q 1525 75 1337 300 
Q 1150 525 1150 1000 
L 1150 2750 
L 400 2750 
L 400 2900 
L 600 2900 
Q 900 2900 1087 3087 
Q 1275 3275 1325 3675 
L 1350 3875 
L 1500 3875 
L 1500 2900 
L 2500 2900 
L 2500 2750 
L 1500 2750 
L 1500 900 
z
" transform="scale(0.015625)"/>
       <path id="Times New Roman-52" d="M 2825 3375
Q 2825 2875 2550 2600 
Q 2275 2325 1925 2275 
L 2675 425 
Q 2725 325 2787 287 
Q 2850 250 2925 250 
L 3075 250 
L 3075 100 
L 2375 100 
L 1550 2250 
L 975 2250 
L 975 450 
Q 975 350 1037 300 
Q 1100 250 1200 250 
L 1350 250 
L 1350 100 
L 200 100 
L 200 250 
L 350 250 
Q 475 250 525 300 
Q 575 350 575 450 
L 575 4025 
Q 575 4125 525 4175 
Q 475 4225 350 4225 
L 200 4225 
L 200 4375 
L 1625 4375 
Q 2200 4375 2512 4125 
Q 2825 3875 2825 3375 
z
M 2750 250 
L 2750 250 
z
M 975 2400 
L 1525 2400 
Q 1900 2400 2150 2625 
Q 2400 2850 2400 3325 
Q 2400 3750 2175 3987 
Q 1950 4225 1475 4225 
L 1200 4225 
Q 1100 4225 1037 4175 
Q 975 4125 975 4025 
L 975 2400 
z
" transform="scale(0.015625)"/>
       <path id="Times New Roman-61" d="M 1225 75
Q 775 75 525 287 
Q 275 500 275 775 
Q 275 1225 662 1512 
Q 1050 1800 2200 1925 
L 2200 2225 
Q 2200 2475 2087 2637 
Q 1975 2800 1575 2800 
Q 1150 2800 975 2662 
Q 800 2525 850 2375 
Q 875 2325 875 2275 
Q 875 2225 837 2150 
Q 800 2075 650 2075 
Q 550 2075 487 2137 
Q 425 2200 425 2325 
Q 425 2550 750 2750 
Q 1075 2950 1550 2950 
Q 2050 2950 2300 2762 
Q 2550 2575 2550 2225 
L 2550 575 
Q 2550 375 2587 337 
Q 2625 300 2725 300 
Q 2850 300 2900 412 
Q 2950 525 2950 725 
L 3075 725 
Q 3075 375 2950 237 
Q 2825 100 2625 100 
Q 2450 100 2350 175 
Q 2250 250 2200 425 
Q 1950 250 1737 162 
Q 1525 75 1225 75 
z
M 700 850 
Q 700 625 837 437 
Q 975 250 1275 250 
Q 1500 250 1725 337 
Q 1950 425 2200 600 
L 2200 1775 
Q 1350 1675 1025 1437 
Q 700 1200 700 850 
z
" transform="scale(0.015625)"/>
       <path id="Times New Roman-6b" d="M 1675 1900
L 2625 425 
Q 2700 325 2762 287 
Q 2825 250 2900 250 
L 3000 250 
L 3000 100 
L 1975 100 
L 1975 250 
L 2050 250 
Q 2175 250 2225 287 
Q 2275 325 2200 425 
L 1425 1650 
L 925 1125 
L 925 450 
Q 925 350 987 300 
Q 1050 250 1150 250 
L 1275 250 
L 1275 100 
L 225 100 
L 225 250 
L 350 250 
Q 475 250 525 300 
Q 575 350 575 450 
L 575 4025 
Q 575 4125 525 4175 
Q 475 4225 350 4225 
L 200 4225 
L 200 4375 
L 425 4375 
Q 575 4375 687 4425 
Q 800 4475 875 4575 
L 925 4575 
L 925 1400 
L 1975 2525 
Q 2025 2625 2012 2687 
Q 2000 2750 1900 2750 
L 1750 2750 
L 1750 2900 
L 2800 2900 
L 2800 2750 
L 2675 2750 
Q 2600 2750 2487 2712 
Q 2375 2675 2275 2575 
L 1675 1900 
z
M 2450 2750 
L 2450 2750 
z
M 2175 2750 
L 2175 2750 
z
M 2300 250 
L 2300 250 
z
M 2750 250 
L 2750 250 
z
" transform="scale(0.015625)"/>
       <path id="Times New Roman-62" d="M 875 2325
Q 1000 2600 1275 2762 
Q 1550 2925 1800 2925 
Q 2325 2925 2587 2562 
Q 2850 2200 2850 1500 
Q 2850 800 2512 437 
Q 2175 75 1675 75 
Q 1425 75 1212 162 
Q 1000 250 850 400 
L 625 100 
L 525 100 
L 525 4025 
Q 525 4125 475 4175 
Q 425 4225 300 4225 
L 150 4225 
L 150 4375 
L 375 4375 
Q 500 4375 625 4425 
Q 750 4475 875 4575 
L 875 2325 
z
M 875 925 
Q 875 650 1062 450 
Q 1250 250 1625 250 
Q 2075 250 2262 562 
Q 2450 875 2450 1500 
Q 2450 2100 2287 2412 
Q 2125 2725 1775 2725 
Q 1475 2725 1250 2550 
Q 1025 2375 875 1925 
L 875 925 
z
" transform="scale(0.015625)"/>
       <path id="Times New Roman-70" d="M 1150 -675
L 1325 -675 
L 1325 -825 
L 175 -825 
L 175 -675 
L 325 -675 
Q 450 -675 500 -625 
Q 550 -575 550 -450 
L 550 2500 
Q 550 2600 500 2662 
Q 450 2725 325 2725 
L 175 2725 
L 175 2875 
L 400 2875 
Q 525 2875 637 2900 
Q 750 2925 850 3000 
L 900 3000 
L 900 2425 
Q 1075 2675 1287 2800 
Q 1500 2925 1750 2925 
Q 2250 2925 2575 2587 
Q 2900 2250 2900 1525 
Q 2900 825 2550 450 
Q 2200 75 1725 75 
Q 1450 75 1262 162 
Q 1075 250 900 425 
L 900 -450 
Q 900 -575 975 -625 
Q 1050 -675 1150 -675 
z
M 900 750 
Q 1025 500 1212 375 
Q 1400 250 1650 250 
Q 2000 250 2250 562 
Q 2500 875 2500 1525 
Q 2500 2125 2312 2425 
Q 2125 2725 1750 2725 
Q 1525 2725 1300 2587 
Q 1075 2450 900 2150 
L 900 750 
z
" transform="scale(0.015625)"/>
      </defs>
      <use xlink:href="#Times New Roman-42"/>
      <use xlink:href="#Times New Roman-69" x="50"/>
      <use xlink:href="#Times New Roman-74" x="100"/>
      <use xlink:href="#Times New Roman-65" x="150"/>
      <use xlink:href="#Times New Roman-20" x="200"/>
      <use xlink:href="#Times New Roman-52" x="250"/>
      <use xlink:href="#Times New Roman-61" x="300"/>
      <use xlink:href="#Times New Roman-74" x="350"/>
      <use xlink:href="#Times New Roman-65" x="400"/>
      <use xlink:href="#Times New Roman-20" x="450"/>
      <use xlink:href="#Times New Roman-28" x="500"/>
      <use xlink:href="#Times New Roman-6b" x="550"/>
      <use xlink:href="#Times New Roman-62" x="600"/>
      <use xlink:href="#Times New Roman-70" x="650"/>
      <use xlink:href="#Times New Roman-73" x="700"/>
      <use xlink:href="#Times New Roman-29" x="750"/>
     </g>
    </g>
   </g>
   <g id="line2d_31">
    <path d="M 173.045455 359.242898 
L 174.313636 359.140794 
L 174.314905 359.013165 
L 174.947727 356.420873 
L 175.581818 352.647301 
L 176.215909 348.198711 
L 176.85 344.862269 
L 177.484091 342.267259 
L 178.752273 337.933544 
L 180.654545 330.898923 
L 181.288636 329.042666 
L 183.825 314.227116 
L 184.459091 311.592823 
L 185.093182 309.902225 
L 186.361364 308.109656 
L 187.629545 306.018326 
L 188.263636 305.382707 
L 188.897727 305.157135 
L 189.531818 305.34161 
L 190.165909 305.759426 
L 190.8 306.410583 
L 192.702273 309.140357 
L 193.336364 310.177414 
L 193.970455 310.853115 
L 194.604545 311.091179 
L 195.872727 310.990798 
L 196.506818 310.056868 
L 197.140909 308.089818 
L 199.677273 295.8558 
L 202.847727 278.0596 
L 205.384091 261.272347 
L 207.286364 247.294424 
L 212.359091 208.722911 
L 214.261364 197.286288 
L 214.895455 194.465772 
L 215.529545 192.301023 
L 216.163636 190.719671 
L 216.164905 189.427792 
L 218.7 186.420578 
L 219.968182 185.362552 
L 220.602273 184.750109 
L 221.236364 183.346989 
L 221.870455 181.331426 
L 224.406818 170.852897 
L 225.675 166.927635 
L 226.943182 162.990499 
L 228.211364 158.00346 
L 228.845455 155.128101 
L 229.479545 151.596553 
L 232.015909 135.466169 
L 233.284091 129.035514 
L 236.454545 110.924687 
L 241.527273 86.986899 
L 242.795455 82.393574 
L 246.6 71.247104 
L 247.234091 69.164796 
L 247.868182 67.694932 
L 248.502273 66.96 
L 261.184091 66.96 
L 261.818182 67.484951 
L 262.452273 68.534854 
L 263.086364 70.109709 
L 263.720455 72.209515 
L 264.354545 74.834272 
L 265.622727 81.658642 
L 266.890909 90.845293 
L 268.159091 105.176468 
L 271.329545 150.532277 
L 273.865909 186.75393 
L 275.768182 208.7144 
L 276.402273 214.838834 
L 277.036364 219.248427 
L 277.670455 222.555621 
L 279.572727 228.960029 
L 280.206818 230.744864 
L 280.840909 231.794767 
L 281.475 232.319719 
L 287.181818 232.319719 
L 287.815909 232.57032 
L 288.45 233.071522 
L 294.790909 240.589559 
L 295.425 241.735164 
L 296.059091 243.274572 
L 299.863636 256.296653 
L 301.765909 264.303223 
L 303.034091 271.144543 
L 304.936364 283.268132 
L 305.570455 286.652992 
L 310.009091 305.606575 
L 311.277273 310.376959 
L 311.911364 312.260949 
L 312.545455 313.643736 
L 315.715909 318.05166 
L 316.984091 319.308189 
L 317.618182 319.741905 
L 318.886364 321.115978 
L 320.788636 323.898548 
L 321.422727 325.055763 
L 322.690909 328.432721 
L 325.227273 336.760433 
L 327.129545 343.786127 
L 327.763636 344.985428 
L 329.031818 346.323595 
L 330.3 347.367901 
L 330.934091 347.683331 
L 331.568182 347.598646 
L 332.202273 347.251663 
L 332.836364 347.295735 
L 333.470455 347.946349 
L 334.738636 350.413847 
L 335.372727 351.220741 
L 336.006818 350.593108 
L 336.640909 348.827096 
L 337.909091 344.121355 
L 339.177273 339.711762 
L 339.178541 337.506966 
L 339.811364 335.720807 
L 340.445455 334.573912 
L 341.079545 334.066282 
L 341.713636 333.125925 
L 342.347727 331.579027 
L 342.981818 329.425587 
L 343.615909 326.829191 
L 344.25 323.743027 
L 344.884091 321.508566 
L 345.518182 320.588873 
L 346.152273 320.362519 
L 346.786364 319.488033 
L 348.054545 316.496206 
L 348.688636 314.680197 
L 349.322727 312.125456 
L 349.956818 308.251091 
L 351.225 297.922419 
L 355.029545 264.747268 
L 356.297727 251.868454 
L 358.834091 230.187229 
L 360.102273 222.381926 
L 362.638636 210.282351 
L 363.272727 207.819687 
L 363.906818 206.018431 
L 364.540909 204.890235 
L 365.175 204.435101 
L 367.711364 203.946276 
L 368.345455 204.124792 
L 368.979545 204.432664 
L 369.613636 204.869894 
L 370.247727 204.957527 
L 370.881818 204.866928 
L 372.784091 204.060431 
L 373.418182 204.003698 
L 374.686364 204.404042 
L 375.320455 204.342797 
L 375.954545 203.515999 
L 376.588636 201.975219 
L 377.222727 199.90419 
L 377.856818 197.073107 
L 378.490909 193.552886 
L 379.759091 182.005207 
L 381.661364 159.096574 
L 384.197727 122.99741 
L 385.465909 106.247083 
L 386.734091 92.220523 
L 388.002273 80.031292 
L 388.636364 75.6217 
L 389.270455 72.314505 
L 390.538636 68.534854 
L 391.172727 67.484951 
L 391.806818 66.96 
L 438.095455 66.96 
L 438.729545 67.694932 
L 439.363636 69.164796 
L 439.997727 71.369593 
L 441.265909 77.177484 
L 445.704545 102.452905 
L 446.338636 105.068757 
L 447.606818 108.218466 
L 448.240909 109.058388 
L 448.875 109.163378 
L 449.509091 108.533436 
L 450.143182 109.441851 
L 450.777273 111.888623 
L 452.045455 121.185509 
L 455.215909 147.770157 
L 455.85 154.095696 
L 457.118182 170.319002 
L 458.386364 188.761565 
L 459.654545 208.954054 
L 460.288636 217.556293 
L 461.556818 229.327893 
L 467.897727 280.53593 
L 468.531818 283.772646 
L 469.165909 286.106164 
L 469.8 287.536484 
L 471.068182 291.378192 
L 473.604545 301.783196 
L 474.872727 306.711172 
L 476.140909 310.732357 
L 478.043182 318.846629 
L 478.677273 320.300889 
L 479.311364 321.178896 
L 479.945455 321.288468 
L 480.579545 321.109185 
L 481.847727 319.908312 
L 482.481818 319.175578 
L 483.115909 318.785683 
L 483.75 318.738626 
L 485.018182 319.262342 
L 485.652273 318.856241 
L 486.286364 317.750104 
L 487.554545 314.798358 
L 488.188636 314.055935 
L 488.822727 313.784509 
L 489.456818 313.671281 
L 490.090909 313.245255 
L 491.993182 311.028778 
L 492.627273 309.947114 
L 495.163636 304.179208 
L 497.7 296.855777 
L 498.968182 291.910056 
L 500.870455 284.808379 
L 501.504545 282.259371 
L 501.505814 279.710363 
L 502.772727 274.205921 
L 503.406818 270.059811 
L 504.675 258.60199 
L 505.943182 246.871628 
L 507.211364 237.188101 
L 508.479545 229.310452 
L 509.747727 222.894032 
L 511.015909 213.999322 
L 512.284091 204.464911 
L 512.918182 200.965985 
L 513.552273 198.709647 
L 514.186364 197.752974 
L 514.820455 196.248573 
L 515.454545 193.474633 
L 516.088636 188.863363 
L 517.356818 176.483169 
L 519.893182 149.853005 
L 521.795455 134.135687 
L 523.697727 116.078866 
L 524.965909 103.076662 
L 525.6 98.680194 
L 526.868182 92.708871 
L 527.502273 89.952875 
L 528.136364 87.721831 
L 528.770455 86.015739 
L 531.306818 81.448661 
L 531.940909 80.818719 
L 532.575 80.888713 
L 533.209091 82.393574 
L 533.843182 85.333302 
L 536.379545 100.644387 
L 538.281818 116.095459 
L 540.184091 132.683926 
L 541.452273 143.773527 
L 542.086364 147.929392 
L 542.720455 150.925991 
L 544.622727 156.437981 
L 545.256818 157.050425 
L 545.890909 155.825538 
L 546.525 152.763321 
L 547.793182 144.311602 
L 549.061364 133.410109 
L 552.231818 100.031944 
L 554.134091 83.495972 
L 554.768182 79.208868 
L 555.402273 76.146651 
L 556.036364 74.309321 
L 556.037632 72.471991 
L 557.304545 68.79733 
L 557.938636 67.572443 
L 558.572727 66.96 
L 559.840909 66.96 
L 560.475 67.694932 
L 561.109091 69.164796 
L 564.279545 80.372511 
L 565.547727 85.700768 
L 567.45 94.756181 
L 569.352273 104.205308 
L 569.986364 106.620085 
L 570.620455 108.474914 
L 571.254545 109.15735 
L 571.888636 109.402328 
L 573.156818 108.667396 
L 573.790909 108.116197 
L 574.425 107.381265 
L 575.693182 105.718918 
L 576.327273 105.150221 
L 577.595455 104.362794 
L 578.229545 103.785347 
L 578.863636 103.024167 
L 580.765909 100.276921 
L 581.4 100.031944 
L 582.034091 100.39941 
L 582.668182 101.256831 
L 583.302273 102.954174 
L 585.204545 110.959684 
L 585.838636 111.659619 
L 586.472727 110.478478 
L 587.740909 105.150221 
L 589.643182 98.352099 
L 590.277273 96.882235 
L 590.911364 96.147303 
L 591.545455 97.182956 
L 592.813636 100.541392 
L 593.447727 101.478553 
L 594.081818 101.520048 
L 594.715909 101.015844 
L 595.35 101.540795 
L 595.984091 103.640601 
L 599.788636 125.192535 
L 600.422727 127.516783 
L 601.056818 128.070445 
L 601.690909 127.588454 
L 602.325 126.894036 
L 602.959091 127.022846 
L 603.593182 128.520583 
L 604.227273 130.564018 
L 606.763636 140.920553 
L 607.397727 145.624192 
L 608.031818 152.40252 
L 613.104545 222.003177 
L 614.372727 239.704266 
L 616.275 270.242696 
L 616.909091 278.355872 
L 617.543182 284.354542 
L 619.445455 296.282665 
L 621.347727 310.140201 
L 622.615909 319.335836 
L 623.25 322.816442 
L 623.884091 325.293077 
L 627.054545 333.857441 
L 628.956818 341.265671 
L 629.590909 342.607449 
L 630.225 343.042569 
L 634.029545 343.454315 
L 634.663636 343.812913 
L 636.565909 345.328968 
L 637.2 345.621837 
L 637.834091 345.532208 
L 638.468182 345.116697 
L 639.102273 344.873856 
L 639.736364 345.011442 
L 642.272727 347.08349 
L 642.273995 347.601502 
L 642.906818 348.141145 
L 643.540909 348.403982 
L 644.175 347.847839 
L 644.809091 346.451085 
L 646.077273 341.692567 
L 647.345455 335.415821 
L 649.881818 320.900674 
L 651.784091 308.462767 
L 653.686364 295.776245 
L 655.588636 285.673913 
L 656.222727 282.909416 
L 656.856818 280.683325 
L 658.759091 275.765202 
L 661.295455 270.835796 
L 661.929545 268.977608 
L 662.563636 266.66128 
L 667.002273 246.747754 
L 667.636364 242.708576 
L 668.270455 237.382005 
L 670.172727 216.925777 
L 672.075 195.120271 
L 673.343182 183.302307 
L 674.611364 173.391478 
L 675.245455 168.899938 
L 675.879545 163.600973 
L 680.318182 116.458899 
L 684.122727 84.609865 
L 685.390909 73.353575 
L 686.025 69.715995 
L 686.659091 68.79733 
L 687.293182 69.715995 
L 689.195455 78.771408 
L 694.268182 103.575366 
L 695.536364 109.087357 
L 696.170455 110.924687 
L 696.804545 111.843352 
L 698.072727 111.580877 
L 698.706818 111.134668 
L 699.340909 110.504726 
L 702.511364 105.780163 
L 703.145455 104.231556 
L 703.779545 102.079255 
L 706.95 88.299278 
L 708.218182 84.178409 
L 708.852273 82.393574 
L 712.022727 71.369593 
L 712.656818 69.899728 
L 713.290909 69.164796 
L 715.827273 69.164796 
L 717.095455 70.267194 
L 717.729545 71.492081 
L 718.363636 73.154428 
L 720.9 83.705952 
L 724.070455 94.729934 
L 725.972727 104.196559 
L 726.606818 106.121381 
L 727.240909 107.311271 
L 727.875 108.063702 
L 728.509091 108.50991 
L 729.143182 108.772386 
L 729.777273 109.524817 
L 731.679545 112.525789 
L 734.215909 116.30544 
L 734.85 118.230262 
L 736.752273 128.116848 
L 737.386364 130.47913 
L 738.020455 132.31646 
L 739.288636 135.011211 
L 741.825 139.980752 
L 743.093182 142.500519 
L 743.727273 143.077966 
L 744.361364 143.486052 
L 744.995455 144.074747 
L 745.629545 145.526486 
L 746.263636 147.590668 
L 746.897727 150.179802 
L 747.531818 153.906331 
L 748.8 163.82666 
L 751.970455 191.847275 
L 753.872727 210.318769 
L 754.506818 214.463025 
L 755.140909 217.744237 
L 755.775 222.274261 
L 757.043182 234.468303 
L 762.115909 283.593971 
L 764.652273 302.066331 
L 765.286364 305.435608 
L 765.920455 307.970358 
L 767.188636 311.374111 
L 767.822727 312.666669 
L 769.090909 314.788159 
L 769.725 316.321925 
L 770.359091 318.149552 
L 771.627273 322.864051 
L 772.895455 328.821403 
L 776.065909 346.138269 
L 778.602273 357.677048 
L 780.504545 364.386734 
L 781.138636 366.516689 
L 781.772727 368.196737 
L 782.406818 369.114784 
L 783.040909 369.36 
L 783.675 369.226246 
L 784.309091 368.936446 
L 784.943182 368.323406 
L 785.577273 367.262291 
L 787.479545 362.752551 
L 789.381818 357.964553 
L 790.015909 355.806447 
L 790.65 352.882169 
L 792.552273 342.313782 
L 794.454545 333.545675 
L 795.088636 331.390278 
L 795.722727 329.84614 
L 796.990909 327.748011 
L 798.259091 325.885652 
L 799.527273 323.527003 
L 800.161364 322.961961 
L 800.795455 323.259345 
L 801.429545 324.019121 
L 802.063636 324.451477 
L 802.697727 324.170779 
L 803.331818 323.177026 
L 803.965909 321.797638 
L 804.6 320.041061 
L 805.234091 317.6964 
L 806.502273 311.384246 
L 808.404545 301.448542 
L 809.038636 298.474174 
L 810.306818 293.411716 
L 810.940909 290.542176 
L 812.843182 279.88288 
L 813.477273 274.947488 
L 814.111364 268.674424 
L 816.647727 240.129524 
L 817.281818 233.15147 
L 817.283086 226.898646 
L 818.55 215.463492 
L 819.184091 207.565431 
L 820.452273 186.533487 
L 821.720455 166.53514 
L 822.988636 152.073627 
L 824.256818 143.829928 
L 826.159091 134.771575 
L 826.793182 131.026895 
L 827.427273 125.950165 
L 828.061364 119.541387 
L 828.695455 114.741833 
L 829.329545 112.158323 
L 832.5 110.320993 
L 833.134091 109.218595 
L 833.768182 107.687486 
L 835.670455 101.501808 
L 836.938636 94.458709 
L 837.572727 91.763958 
L 843.279545 74.921764 
L 845.181818 67.878665 
L 845.815909 66.96 
L 886.397727 66.96 
L 887.031818 67.572443 
L 887.665909 68.79733 
L 895.909091 92.682623 
L 896.543182 94.029998 
L 897.177273 94.887419 
L 897.811364 95.254885 
L 898.445455 96.112306 
L 899.079545 97.459681 
L 902.884091 108.72864 
L 903.518182 111.375716 
L 904.786364 118.119198 
L 906.688636 128.34664 
L 907.956818 134.900888 
L 909.225 142.659488 
L 911.127273 156.590938 
L 913.029545 170.202596 
L 914.931818 181.726076 
L 916.2 192.614687 
L 917.468182 204.798488 
L 918.102273 209.613581 
L 919.370455 216.909876 
L 920.004545 220.106942 
L 920.005814 223.304008 
L 921.272727 231.371822 
L 922.540909 241.361386 
L 923.175 247.056615 
L 924.443182 259.699132 
L 925.077273 265.023517 
L 927.613636 282.77424 
L 932.052273 314.000643 
L 932.686364 317.870505 
L 933.954545 323.043814 
L 933.954545 323.043814 
" clip-path="url(#pee2857234e)" style="fill: none; stroke: #1f77b4; stroke-width: 1.5; stroke-linecap: square"/>
   </g>
   <g id="patch_3">
    <path d="M 135 384.48 
L 135 51.84 
" style="fill: none; stroke: #000000; stroke-width: 0.8; stroke-linejoin: miter; stroke-linecap: square"/>
   </g>
   <g id="patch_4">
    <path d="M 972 384.48 
L 972 51.84 
" style="fill: none; stroke: #000000; stroke-width: 0.8; stroke-linejoin: miter; stroke-linecap: square"/>
   </g>
   <g id="patch_5">
    <path d="M 135 384.48 
L 972 384.48 
" style="fill: none; stroke: #000000; stroke-width: 0.8; stroke-linejoin: miter; stroke-linecap: square"/>
   </g>
   <g id="patch_6">
    <path d="M 135 51.84 
L 972 51.84 
" style="fill: none; stroke: #000000; stroke-width: 0.8; stroke-linejoin: miter; stroke-linecap: square"/>
   </g>
   <g id="text_18">
    <!-- ./avg_resbitrate_fig -->
    <g transform="translate(493.5 45.84) scale(0.12 -0.12)">
     <defs>
      <path id="Times New Roman-2e" d="M 800 25
Q 650 25 537 125 
Q 425 225 425 400 
Q 425 575 537 675 
Q 650 775 800 775 
Q 950 775 1062 662 
Q 1175 550 1175 400 
Q 1175 225 1062 125 
Q 950 25 800 25 
z
" transform="scale(0.015625)"/>
      <path id="Times New Roman-2f" d="M 400 -475
L 225 -375 
L 2775 4975 
L 2950 4875 
L 400 -475 
z
" transform="scale(0.015625)"/>
      <path id="Times New Roman-76" d="M 1625 75
L 1475 75 
L 625 2525 
Q 600 2625 525 2687 
Q 450 2750 350 2750 
L 225 2750 
L 225 2900 
L 1300 2900 
L 1300 2750 
L 1200 2750 
Q 1050 2750 1025 2700 
Q 1000 2650 1000 2600 
Q 1000 2500 1025 2425 
L 1625 675 
L 1675 675 
L 2275 2400 
Q 2325 2525 2325 2575 
Q 2325 2600 2275 2675 
Q 2225 2750 2075 2750 
L 2025 2750 
L 2025 2900 
L 2925 2900 
L 2925 2750 
L 2875 2750 
Q 2725 2750 2637 2662 
Q 2550 2575 2475 2400 
L 1625 75 
z
M 2600 2750 
L 2600 2750 
z
M 2400 2750 
L 2400 2750 
z
M 925 2750 
L 925 2750 
z
M 550 2750 
L 550 2750 
z
" transform="scale(0.015625)"/>
      <path id="Times New Roman-67" d="M 875 1975
Q 875 1675 1050 1462 
Q 1225 1250 1525 1250 
Q 1850 1250 2012 1437 
Q 2175 1625 2175 1975 
Q 2175 2400 1987 2587 
Q 1800 2775 1525 2775 
Q 1250 2775 1062 2587 
Q 875 2400 875 1975 
z
M 2100 625 
Q 2475 575 2650 412 
Q 2825 250 2825 -25 
Q 2825 -400 2512 -625 
Q 2200 -850 1525 -850 
Q 1000 -850 675 -637 
Q 350 -425 350 -150 
Q 350 25 475 200 
Q 600 375 875 475 
Q 725 550 637 637 
Q 550 725 550 850 
Q 550 1000 650 1112 
Q 750 1225 900 1300 
Q 750 1425 637 1600 
Q 525 1775 525 1975 
Q 525 2350 787 2637 
Q 1050 2925 1525 2925 
Q 1725 2925 1912 2875 
Q 2100 2825 2225 2700 
Q 2400 2825 2537 2887 
Q 2675 2950 2775 2950 
Q 2900 2950 2950 2862 
Q 3000 2775 3000 2700 
Q 3000 2600 2962 2537 
Q 2925 2475 2825 2475 
Q 2750 2475 2700 2512 
Q 2650 2550 2625 2625 
Q 2600 2700 2512 2687 
Q 2425 2675 2325 2600 
Q 2425 2500 2475 2325 
Q 2525 2150 2525 1975 
Q 2525 1675 2287 1387 
Q 2050 1100 1525 1100 
Q 1375 1100 1250 1137 
Q 1125 1175 1050 1225 
Q 950 1175 900 1100 
Q 850 1025 850 975 
Q 850 875 900 825 
Q 950 775 1050 775 
Q 1375 725 1637 687 
Q 1900 650 2100 625 
z
M 1075 425 
Q 850 325 762 187 
Q 675 50 675 -150 
Q 675 -350 900 -525 
Q 1125 -700 1575 -700 
Q 2000 -700 2250 -562 
Q 2500 -425 2500 -150 
Q 2500 25 2437 125 
Q 2375 225 2250 250 
Q 2000 300 1700 350 
Q 1400 375 1075 425 
z
" transform="scale(0.015625)"/>
      <path id="Times New Roman-5f" d="M 0 -875
L 0 -725 
L 3175 -725 
L 3175 -875 
L 0 -875 
z
" transform="scale(0.015625)"/>
      <path id="Times New Roman-72" d="M 1275 2125
Q 1525 2525 1812 2737 
Q 2100 2950 2400 2950 
Q 2650 2950 2787 2837 
Q 2925 2725 2925 2575 
Q 2925 2450 2862 2375 
Q 2800 2300 2675 2300 
Q 2550 2300 2487 2375 
Q 2425 2450 2450 2575 
Q 2450 2650 2425 2700 
Q 2400 2750 2275 2750 
Q 2075 2750 1787 2500 
Q 1500 2250 1275 1800 
L 1275 450 
Q 1275 350 1337 300 
Q 1400 250 1500 250 
L 2050 250 
L 2050 100 
L 200 100 
L 200 250 
L 700 250 
Q 825 250 875 300 
Q 925 350 925 450 
L 925 2525 
Q 925 2625 875 2687 
Q 825 2750 700 2750 
L 225 2750 
L 225 2900 
L 425 2900 
Q 600 2900 837 2937 
Q 1075 2975 1200 3025 
L 1275 3025 
L 1275 2125 
z
" transform="scale(0.015625)"/>
      <path id="Times New Roman-66" d="M 1125 3325
Q 1125 3850 1450 4112 
Q 1775 4375 2175 4375 
Q 2600 4375 2812 4225 
Q 3025 4075 3025 3875 
Q 3025 3775 2975 3700 
Q 2925 3625 2775 3625 
Q 2675 3625 2612 3675 
Q 2550 3725 2550 3850 
Q 2550 3875 2575 3925 
Q 2575 3975 2575 4000 
Q 2575 4100 2500 4162 
Q 2425 4225 2150 4225 
Q 1850 4225 1662 4037 
Q 1475 3850 1475 3400 
L 1475 2900 
L 2525 2900 
L 2525 2750 
L 1475 2750 
L 1475 450 
Q 1475 350 1537 300 
Q 1600 250 1700 250 
L 2300 250 
L 2300 100 
L 475 100 
L 475 250 
L 900 250 
Q 1025 250 1075 300 
Q 1125 350 1125 450 
L 1125 2750 
L 350 2750 
L 350 2900 
L 1125 2900 
L 1125 3325 
z
" transform="scale(0.015625)"/>
     </defs>
     <use xlink:href="#Times New Roman-2e"/>
     <use xlink:href="#Times New Roman-2f" x="50"/>
     <use xlink:href="#Times New Roman-61" x="100"/>
     <use xlink:href="#Times New Roman-76" x="150"/>
     <use xlink:href="#Times New Roman-67" x="200"/>
     <use xlink:href="#Times New Roman-5f" x="250"/>
     <use xlink:href="#Times New Roman-72" x="300"/>
     <use xlink:href="#Times New Roman-65" x="350"/>
     <use xlink:href="#Times New Roman-73" x="400"/>
     <use xlink:href="#Times New Roman-62" x="450"/>
     <use xlink:href="#Times New Roman-69" x="500"/>
     <use xlink:href="#Times New Roman-74" x="550"/>
     <use xlink:href="#Times New Roman-72" x="600"/>
     <use xlink:href="#Times New Roman-61" x="650"/>
     <use xlink:href="#Times New Roman-74" x="700"/>
     <use xlink:href="#Times New Roman-65" x="750"/>
     <use xlink:href="#Times New Roman-5f" x="800"/>
     <use xlink:href="#Times New Roman-66" x="850"/>
     <use xlink:href="#Times New Roman-69" x="900"/>
     <use xlink:href="#Times New Roman-67" x="950"/>
    </g>
   </g>
   <g id="legend_1">
    <g id="patch_7">
     <path d="M 898 73.2775 
L 965 73.2775 
Q 967 73.2775 967 71.2775 
L 967 58.84 
Q 967 56.84 965 56.84 
L 898 56.84 
Q 896 56.84 896 58.84 
L 896 71.2775 
Q 896 73.2775 898 73.2775 
z
" style="fill: #ffffff; opacity: 0.8; stroke: #cccccc; stroke-linejoin: miter"/>
    </g>
    <g id="line2d_32">
     <path d="M 900 64.488437 
L 910 64.488437 
L 920 64.488437 
" style="fill: none; stroke: #1f77b4; stroke-width: 1.5; stroke-linecap: square"/>
    </g>
    <g id="text_19">
     <!-- bitrate -->
     <g transform="translate(928 67.988437) scale(0.1 -0.1)">
      <use xlink:href="#Times New Roman-62"/>
      <use xlink:href="#Times New Roman-69" x="50"/>
      <use xlink:href="#Times New Roman-74" x="100"/>
      <use xlink:href="#Times New Roman-72" x="150"/>
      <use xlink:href="#Times New Roman-61" x="200"/>
      <use xlink:href="#Times New Roman-74" x="250"/>
      <use xlink:href="#Times New Roman-65" x="300"/>
     </g>
    </g>
   </g>
  </g>
 </g>
 <defs>
  <clipPath id="pee2857234e">
   <rect x="135" y="51.84" width="837" height="332.64"/>
  </clipPath>
 </defs>
</svg>
