<?xml version="1.0" encoding="utf-8" standalone="no"?>
<!DOCTYPE svg PUBLIC "-//W3C//DTD SVG 1.1//EN"
  "http://www.w3.org/Graphics/SVG/1.1/DTD/svg11.dtd">
<svg xmlns:xlink="http://www.w3.org/1999/xlink" width="1080pt" height="432pt" viewBox="0 0 1080 432" xmlns="http://www.w3.org/2000/svg" version="1.1">
 <metadata>
  <rdf:RDF xmlns:dc="http://purl.org/dc/elements/1.1/" xmlns:cc="http://creativecommons.org/ns#" xmlns:rdf="http://www.w3.org/1999/02/22-rdf-syntax-ns#">
   <cc:Work>
    <dc:type rdf:resource="http://purl.org/dc/dcmitype/StillImage"/>
    <dc:date>2024-04-10T20:34:54.035343</dc:date>
    <dc:format>image/svg+xml</dc:format>
    <dc:creator>
     <cc:Agent>
      <dc:title>Matplotlib v3.8.3, https://matplotlib.org/</dc:title>
     </cc:Agent>
    </dc:creator>
   </cc:Work>
  </rdf:RDF>
 </metadata>
 <defs>
  <style type="text/css">*{stroke-linejoin: round; stroke-linecap: butt}</style>
 </defs>
 <g id="figure_1">
  <g id="patch_1">
   <path d="M 0 432 
L 1080 432 
L 1080 0 
L 0 0 
z
" style="fill: #ffffff"/>
  </g>
  <g id="axes_1">
   <g id="patch_2">
    <path d="M 135 384.48 
L 972 384.48 
L 972 51.84 
L 135 51.84 
z
" style="fill: #ffffff"/>
   </g>
   <g id="matplotlib.axis_1">
    <g id="xtick_1">
     <g id="line2d_1">
      <path d="M 173.045455 384.48 
L 173.045455 51.84 
" clip-path="url(#pa60bce7724)" style="fill: none; stroke: #b0b0b0; stroke-width: 0.8; stroke-linecap: square"/>
     </g>
     <g id="line2d_2">
      <defs>
       <path id="mb126fa555e" d="M 0 0 
L 0 3.5 
" style="stroke: #000000; stroke-width: 0.8"/>
      </defs>
      <g>
       <use xlink:href="#mb126fa555e" x="173.045455" y="384.48" style="stroke: #000000; stroke-width: 0.8"/>
      </g>
     </g>
     <g id="text_1">
      <!-- 0 -->
      <g transform="translate(170.545455 398.628438) scale(0.1 -0.1)">
       <defs>
        <path id="Times New Roman-30" d="M 1600 4225
Q 1250 4225 1012 3687 
Q 775 3150 775 2250 
Q 775 1300 1012 775 
Q 1250 250 1600 250 
Q 1975 250 2187 775 
Q 2400 1300 2400 2250 
Q 2400 3150 2200 3687 
Q 2000 4225 1600 4225 
z
M 1600 50 
Q 1050 50 675 625 
Q 300 1200 300 2250 
Q 300 3225 662 3825 
Q 1025 4425 1600 4425 
Q 2150 4425 2512 3850 
Q 2875 3275 2875 2250 
Q 2875 1225 2512 637 
Q 2150 50 1600 50 
z
" transform="scale(0.015625)"/>
       </defs>
       <use xlink:href="#Times New Roman-30"/>
      </g>
     </g>
    </g>
    <g id="xtick_2">
     <g id="line2d_3">
      <path d="M 299.863636 384.48 
L 299.863636 51.84 
" clip-path="url(#pa60bce7724)" style="fill: none; stroke: #b0b0b0; stroke-width: 0.8; stroke-linecap: square"/>
     </g>
     <g id="line2d_4">
      <g>
       <use xlink:href="#mb126fa555e" x="299.863636" y="384.48" style="stroke: #000000; stroke-width: 0.8"/>
      </g>
     </g>
     <g id="text_2">
      <!-- 100000 -->
      <g transform="translate(284.863636 398.628438) scale(0.1 -0.1)">
       <defs>
        <path id="Times New Roman-31" d="M 1825 4450
L 1825 650 
Q 1825 450 1950 350 
Q 2075 250 2300 250 
L 2550 250 
L 2550 100 
L 725 100 
L 725 250 
L 950 250 
Q 1200 250 1312 350 
Q 1425 450 1425 650 
L 1425 3675 
Q 1425 3775 1362 3837 
Q 1300 3900 1175 3900 
L 725 3900 
L 725 4050 
L 950 4050 
Q 1250 4050 1437 4150 
Q 1625 4250 1725 4450 
L 1825 4450 
z
" transform="scale(0.015625)"/>
       </defs>
       <use xlink:href="#Times New Roman-31"/>
       <use xlink:href="#Times New Roman-30" x="50"/>
       <use xlink:href="#Times New Roman-30" x="100"/>
       <use xlink:href="#Times New Roman-30" x="150"/>
       <use xlink:href="#Times New Roman-30" x="200"/>
       <use xlink:href="#Times New Roman-30" x="250"/>
      </g>
     </g>
    </g>
    <g id="xtick_3">
     <g id="line2d_5">
      <path d="M 426.681818 384.48 
L 426.681818 51.84 
" clip-path="url(#pa60bce7724)" style="fill: none; stroke: #b0b0b0; stroke-width: 0.8; stroke-linecap: square"/>
     </g>
     <g id="line2d_6">
      <g>
       <use xlink:href="#mb126fa555e" x="426.681818" y="384.48" style="stroke: #000000; stroke-width: 0.8"/>
      </g>
     </g>
     <g id="text_3">
      <!-- 200000 -->
      <g transform="translate(411.681818 398.628438) scale(0.1 -0.1)">
       <defs>
        <path id="Times New Roman-32" d="M 2325 3325
Q 2325 3775 2125 4012 
Q 1925 4250 1525 4250 
Q 1225 4250 1012 4087 
Q 800 3925 800 3675 
Q 800 3525 900 3425 
Q 975 3325 975 3225 
Q 975 3100 912 3037 
Q 850 2975 725 2975 
Q 575 2975 487 3062 
Q 400 3150 400 3350 
Q 400 3875 775 4150 
Q 1150 4425 1575 4425 
Q 2175 4425 2462 4125 
Q 2750 3825 2750 3375 
Q 2750 3075 2612 2775 
Q 2475 2475 2175 2200 
Q 1450 1500 1062 1062 
Q 675 625 600 475 
L 2075 475 
Q 2300 475 2450 650 
Q 2600 825 2650 1175 
L 2800 1175 
L 2650 100 
L 325 100 
L 325 425 
Q 450 650 737 1000 
Q 1025 1350 1500 1825 
Q 1925 2250 2125 2625 
Q 2325 3000 2325 3325 
z
" transform="scale(0.015625)"/>
       </defs>
       <use xlink:href="#Times New Roman-32"/>
       <use xlink:href="#Times New Roman-30" x="50"/>
       <use xlink:href="#Times New Roman-30" x="100"/>
       <use xlink:href="#Times New Roman-30" x="150"/>
       <use xlink:href="#Times New Roman-30" x="200"/>
       <use xlink:href="#Times New Roman-30" x="250"/>
      </g>
     </g>
    </g>
    <g id="xtick_4">
     <g id="line2d_7">
      <path d="M 553.5 384.48 
L 553.5 51.84 
" clip-path="url(#pa60bce7724)" style="fill: none; stroke: #b0b0b0; stroke-width: 0.8; stroke-linecap: square"/>
     </g>
     <g id="line2d_8">
      <g>
       <use xlink:href="#mb126fa555e" x="553.5" y="384.48" style="stroke: #000000; stroke-width: 0.8"/>
      </g>
     </g>
     <g id="text_4">
      <!-- 300000 -->
      <g transform="translate(538.5 398.628438) scale(0.1 -0.1)">
       <defs>
        <path id="Times New Roman-33" d="M 2800 1250
Q 2800 775 2450 412 
Q 2100 50 1475 50 
Q 1025 50 700 300 
Q 375 550 375 875 
Q 375 1025 475 1137 
Q 575 1250 675 1250 
Q 825 1250 887 1137 
Q 950 1025 950 950 
Q 950 825 900 750 
Q 850 650 850 575 
Q 850 425 1037 325 
Q 1225 225 1450 225 
Q 1900 225 2125 487 
Q 2350 750 2350 1300 
Q 2350 1750 2112 2025 
Q 1875 2300 1225 2300 
L 1225 2475 
Q 1725 2475 1962 2712 
Q 2200 2950 2200 3375 
Q 2200 3725 2012 3987 
Q 1825 4250 1425 4250 
Q 1250 4250 1050 4162 
Q 850 4075 850 3875 
Q 850 3675 900 3625 
Q 950 3575 950 3500 
Q 950 3375 900 3300 
Q 850 3225 725 3225 
Q 625 3225 537 3300 
Q 450 3375 450 3575 
Q 450 3950 775 4187 
Q 1100 4425 1525 4425 
Q 2025 4425 2325 4112 
Q 2625 3800 2625 3450 
Q 2625 3075 2437 2812 
Q 2250 2550 1850 2425 
Q 2400 2225 2600 1900 
Q 2800 1575 2800 1250 
z
" transform="scale(0.015625)"/>
       </defs>
       <use xlink:href="#Times New Roman-33"/>
       <use xlink:href="#Times New Roman-30" x="50"/>
       <use xlink:href="#Times New Roman-30" x="100"/>
       <use xlink:href="#Times New Roman-30" x="150"/>
       <use xlink:href="#Times New Roman-30" x="200"/>
       <use xlink:href="#Times New Roman-30" x="250"/>
      </g>
     </g>
    </g>
    <g id="xtick_5">
     <g id="line2d_9">
      <path d="M 680.318182 384.48 
L 680.318182 51.84 
" clip-path="url(#pa60bce7724)" style="fill: none; stroke: #b0b0b0; stroke-width: 0.8; stroke-linecap: square"/>
     </g>
     <g id="line2d_10">
      <g>
       <use xlink:href="#mb126fa555e" x="680.318182" y="384.48" style="stroke: #000000; stroke-width: 0.8"/>
      </g>
     </g>
     <g id="text_5">
      <!-- 400000 -->
      <g transform="translate(665.318182 398.628438) scale(0.1 -0.1)">
       <defs>
        <path id="Times New Roman-34" d="M 2300 575
Q 2300 400 2400 325 
Q 2500 250 2675 250 
L 2900 250 
L 2900 100 
L 1250 100 
L 1250 250 
L 1525 250 
Q 1725 250 1812 325 
Q 1900 400 1900 575 
L 1900 1400 
L 225 1400 
L 225 1525 
L 2050 4425 
L 2300 4425 
L 2300 1550 
L 2975 1550 
L 2975 1400 
L 2300 1400 
L 2300 575 
z
M 1875 3800 
L 450 1550 
L 1900 1550 
L 1900 3800 
L 1875 3800 
z
" transform="scale(0.015625)"/>
       </defs>
       <use xlink:href="#Times New Roman-34"/>
       <use xlink:href="#Times New Roman-30" x="50"/>
       <use xlink:href="#Times New Roman-30" x="100"/>
       <use xlink:href="#Times New Roman-30" x="150"/>
       <use xlink:href="#Times New Roman-30" x="200"/>
       <use xlink:href="#Times New Roman-30" x="250"/>
      </g>
     </g>
    </g>
    <g id="xtick_6">
     <g id="line2d_11">
      <path d="M 807.136364 384.48 
L 807.136364 51.84 
" clip-path="url(#pa60bce7724)" style="fill: none; stroke: #b0b0b0; stroke-width: 0.8; stroke-linecap: square"/>
     </g>
     <g id="line2d_12">
      <g>
       <use xlink:href="#mb126fa555e" x="807.136364" y="384.48" style="stroke: #000000; stroke-width: 0.8"/>
      </g>
     </g>
     <g id="text_6">
      <!-- 500000 -->
      <g transform="translate(792.136364 398.628438) scale(0.1 -0.1)">
       <defs>
        <path id="Times New Roman-35" d="M 1725 2850
Q 2200 2850 2500 2487 
Q 2800 2125 2800 1525 
Q 2800 850 2487 450 
Q 2175 50 1525 50 
Q 1075 50 725 312 
Q 375 575 375 950 
Q 375 1100 462 1212 
Q 550 1325 700 1325 
Q 850 1325 900 1225 
Q 950 1125 950 1050 
Q 950 900 875 825 
Q 800 725 800 625 
Q 800 425 1037 325 
Q 1275 225 1550 225 
Q 1950 225 2162 550 
Q 2375 875 2375 1475 
Q 2375 1975 2187 2287 
Q 2000 2600 1625 2600 
Q 1350 2600 1150 2500 
Q 950 2400 775 2075 
L 550 2100 
L 675 4375 
L 2725 4375 
L 2650 4000 
L 850 4000 
L 750 2350 
Q 1000 2700 1237 2775 
Q 1475 2850 1725 2850 
z
" transform="scale(0.015625)"/>
       </defs>
       <use xlink:href="#Times New Roman-35"/>
       <use xlink:href="#Times New Roman-30" x="50"/>
       <use xlink:href="#Times New Roman-30" x="100"/>
       <use xlink:href="#Times New Roman-30" x="150"/>
       <use xlink:href="#Times New Roman-30" x="200"/>
       <use xlink:href="#Times New Roman-30" x="250"/>
      </g>
     </g>
    </g>
    <g id="xtick_7">
     <g id="line2d_13">
      <path d="M 933.954545 384.48 
L 933.954545 51.84 
" clip-path="url(#pa60bce7724)" style="fill: none; stroke: #b0b0b0; stroke-width: 0.8; stroke-linecap: square"/>
     </g>
     <g id="line2d_14">
      <g>
       <use xlink:href="#mb126fa555e" x="933.954545" y="384.48" style="stroke: #000000; stroke-width: 0.8"/>
      </g>
     </g>
     <g id="text_7">
      <!-- 600000 -->
      <g transform="translate(918.954545 398.628438) scale(0.1 -0.1)">
       <defs>
        <path id="Times New Roman-36" d="M 775 1800
Q 775 1050 1037 637 
Q 1300 225 1675 225 
Q 2050 225 2250 500 
Q 2450 775 2450 1525 
Q 2450 2025 2237 2300 
Q 2025 2575 1725 2575 
Q 1450 2575 1212 2412 
Q 975 2250 775 1800 
z
M 1750 2825 
Q 2350 2825 2612 2425 
Q 2875 2025 2875 1525 
Q 2875 775 2512 412 
Q 2150 50 1675 50 
Q 1000 50 650 562 
Q 300 1075 300 2050 
Q 300 3200 725 3812 
Q 1150 4425 1875 4425 
Q 2225 4425 2437 4225 
Q 2650 4025 2650 3875 
Q 2650 3725 2587 3650 
Q 2525 3575 2375 3575 
Q 2250 3575 2187 3637 
Q 2125 3700 2125 3825 
Q 2125 3875 2150 3925 
Q 2150 3975 2150 4025 
Q 2150 4125 2075 4187 
Q 2000 4250 1800 4250 
Q 1375 4250 1075 3862 
Q 775 3475 775 2175 
Q 925 2500 1187 2662 
Q 1450 2825 1750 2825 
z
" transform="scale(0.015625)"/>
       </defs>
       <use xlink:href="#Times New Roman-36"/>
       <use xlink:href="#Times New Roman-30" x="50"/>
       <use xlink:href="#Times New Roman-30" x="100"/>
       <use xlink:href="#Times New Roman-30" x="150"/>
       <use xlink:href="#Times New Roman-30" x="200"/>
       <use xlink:href="#Times New Roman-30" x="250"/>
      </g>
     </g>
    </g>
    <g id="text_8">
     <!-- Time (s) -->
     <g transform="translate(533.5 411.534688) scale(0.1 -0.1)">
      <defs>
       <path id="Times New Roman-54" d="M 2225 100
L 925 100 
L 925 250 
L 1150 250 
Q 1275 250 1325 300 
Q 1375 350 1375 450 
L 1375 3950 
Q 1375 4150 1350 4175 
Q 1325 4200 1150 4200 
Q 800 4200 662 4075 
Q 525 3950 325 3400 
L 175 3425 
L 400 4375 
L 2775 4375 
L 2975 3425 
L 2850 3400 
Q 2650 3925 2537 4062 
Q 2425 4200 2075 4200 
Q 1825 4200 1800 4175 
Q 1775 4150 1775 3925 
L 1775 450 
Q 1775 350 1837 300 
Q 1900 250 2000 250 
L 2225 250 
L 2225 100 
z
" transform="scale(0.015625)"/>
       <path id="Times New Roman-69" d="M 1425 2525
Q 1425 2625 1375 2687 
Q 1325 2750 1200 2750 
L 675 2750 
L 675 2900 
L 925 2900 
Q 1150 2900 1350 2937 
Q 1550 2975 1725 3075 
L 1775 3075 
L 1775 450 
Q 1775 350 1837 300 
Q 1900 250 2000 250 
L 2525 250 
L 2525 100 
L 675 100 
L 675 250 
L 1200 250 
Q 1325 250 1375 300 
Q 1425 350 1425 450 
L 1425 2525 
z
M 1725 3025 
L 1725 3025 
z
M 1625 4425 
Q 1750 4425 1850 4337 
Q 1950 4250 1950 4125 
Q 1950 4000 1850 3900 
Q 1750 3800 1625 3800 
Q 1500 3800 1400 3900 
Q 1300 4000 1300 4125 
Q 1300 4250 1400 4337 
Q 1500 4425 1625 4425 
z
" transform="scale(0.015625)"/>
       <path id="Times New Roman-6d" d="M 175 2900
Q 300 2900 425 2925 
Q 550 2950 625 3000 
L 675 3000 
L 675 2575 
Q 800 2775 950 2862 
Q 1100 2950 1275 2950 
Q 1500 2950 1625 2862 
Q 1750 2775 1775 2575 
Q 1900 2775 2062 2862 
Q 2225 2950 2400 2950 
Q 2700 2950 2812 2775 
Q 2925 2600 2925 2325 
L 2925 425 
Q 2925 325 2975 287 
Q 3025 250 3125 250 
L 3175 250 
L 3175 100 
L 2325 100 
L 2325 250 
L 2375 250 
Q 2475 250 2525 287 
Q 2575 325 2575 425 
L 2575 2300 
Q 2575 2575 2512 2662 
Q 2450 2750 2325 2750 
Q 2150 2750 2012 2625 
Q 1875 2500 1800 2275 
L 1800 425 
Q 1800 325 1850 287 
Q 1900 250 2000 250 
L 2050 250 
L 2050 100 
L 1200 100 
L 1200 250 
L 1250 250 
Q 1350 250 1400 287 
Q 1450 325 1450 425 
L 1450 2300 
Q 1450 2525 1400 2637 
Q 1350 2750 1200 2750 
Q 1025 2750 887 2625 
Q 750 2500 675 2250 
L 675 425 
Q 675 325 725 287 
Q 775 250 875 250 
L 925 250 
L 925 100 
L 75 100 
L 75 250 
L 125 250 
Q 225 250 275 287 
Q 325 325 325 425 
L 325 2600 
Q 325 2675 300 2712 
Q 275 2750 200 2750 
L 100 2750 
L 100 2900 
L 175 2900 
z
" transform="scale(0.015625)"/>
       <path id="Times New Roman-65" d="M 2400 1650
Q 2425 2200 2212 2487 
Q 2000 2775 1650 2775 
Q 1275 2775 1037 2475 
Q 800 2175 800 1650 
L 2400 1650 
z
M 800 1500 
Q 800 825 1062 537 
Q 1325 250 1750 250 
Q 2075 250 2300 437 
Q 2525 625 2625 900 
L 2750 850 
Q 2675 575 2412 312 
Q 2150 50 1700 50 
Q 1125 50 762 425 
Q 400 800 400 1500 
Q 400 2125 762 2537 
Q 1125 2950 1650 2950 
Q 2125 2950 2475 2625 
Q 2825 2300 2825 1500 
L 800 1500 
z
" transform="scale(0.015625)"/>
       <path id="Times New Roman-20" d="M 0 0
Q 0 0 0 0 
z
" transform="scale(0.015625)"/>
       <path id="Times New Roman-28" d="M 2900 5025
Q 2325 4425 2037 3737 
Q 1750 3050 1750 2300 
Q 1750 1525 2037 850 
Q 2325 175 2900 -425 
L 2775 -550 
Q 2075 75 1725 787 
Q 1375 1500 1375 2300 
Q 1375 3075 1725 3787 
Q 2075 4500 2775 5150 
L 2900 5025 
z
" transform="scale(0.015625)"/>
       <path id="Times New Roman-73" d="M 625 2175
Q 625 2550 912 2750 
Q 1200 2950 1600 2950 
Q 1825 2950 2025 2900 
Q 2225 2825 2300 2825 
Q 2375 2825 2425 2850 
Q 2475 2875 2550 2950 
L 2650 2125 
L 2500 2100 
Q 2400 2425 2162 2612 
Q 1925 2800 1625 2800 
Q 1300 2800 1112 2675 
Q 925 2550 925 2325 
Q 925 2125 1012 2012 
Q 1100 1900 1325 1850 
Q 1500 1775 1775 1700 
Q 2025 1600 2250 1500 
Q 2450 1400 2587 1237 
Q 2725 1075 2725 875 
Q 2725 500 2462 287 
Q 2200 75 1700 75 
Q 1375 75 1225 150 
Q 1050 200 950 200 
Q 875 200 787 162 
Q 700 125 600 75 
L 525 1000 
L 675 1025 
Q 750 625 1000 425 
Q 1250 225 1700 225 
Q 2050 225 2237 350 
Q 2425 475 2425 725 
Q 2425 900 2325 1012 
Q 2225 1125 2125 1175 
Q 1875 1275 1575 1400 
Q 1275 1500 1050 1600 
Q 825 1700 725 1850 
Q 625 2000 625 2175 
z
" transform="scale(0.015625)"/>
       <path id="Times New Roman-29" d="M 275 5025
L 400 5150 
Q 1100 4500 1450 3787 
Q 1800 3075 1800 2300 
Q 1800 1500 1450 787 
Q 1100 75 400 -550 
L 275 -425 
Q 850 175 1137 850 
Q 1425 1525 1425 2300 
Q 1425 3050 1137 3737 
Q 850 4425 275 5025 
z
" transform="scale(0.015625)"/>
      </defs>
      <use xlink:href="#Times New Roman-54"/>
      <use xlink:href="#Times New Roman-69" x="50"/>
      <use xlink:href="#Times New Roman-6d" x="100"/>
      <use xlink:href="#Times New Roman-65" x="150"/>
      <use xlink:href="#Times New Roman-20" x="200"/>
      <use xlink:href="#Times New Roman-28" x="250"/>
      <use xlink:href="#Times New Roman-73" x="300"/>
      <use xlink:href="#Times New Roman-29" x="350"/>
     </g>
    </g>
   </g>
   <g id="matplotlib.axis_2">
    <g id="ytick_1">
     <g id="line2d_15">
      <path d="M 135 369.36 
L 972 369.36 
" clip-path="url(#pa60bce7724)" style="fill: none; stroke: #b0b0b0; stroke-width: 0.8; stroke-linecap: square"/>
     </g>
     <g id="line2d_16">
      <defs>
       <path id="m27874f8a9d" d="M 0 0 
L -3.5 0 
" style="stroke: #000000; stroke-width: 0.8"/>
      </defs>
      <g>
       <use xlink:href="#m27874f8a9d" x="135" y="369.36" style="stroke: #000000; stroke-width: 0.8"/>
      </g>
     </g>
     <g id="text_9">
      <!-- 0 -->
      <g transform="translate(123 372.934219) scale(0.1 -0.1)">
       <use xlink:href="#Times New Roman-30"/>
      </g>
     </g>
    </g>
    <g id="ytick_2">
     <g id="line2d_17">
      <path d="M 135 320.218354 
L 972 320.218354 
" clip-path="url(#pa60bce7724)" style="fill: none; stroke: #b0b0b0; stroke-width: 0.8; stroke-linecap: square"/>
     </g>
     <g id="line2d_18">
      <g>
       <use xlink:href="#m27874f8a9d" x="135" y="320.218354" style="stroke: #000000; stroke-width: 0.8"/>
      </g>
     </g>
     <g id="text_10">
      <!-- 5 -->
      <g transform="translate(123 323.792573) scale(0.1 -0.1)">
       <use xlink:href="#Times New Roman-35"/>
      </g>
     </g>
    </g>
    <g id="ytick_3">
     <g id="line2d_19">
      <path d="M 135 271.076708 
L 972 271.076708 
" clip-path="url(#pa60bce7724)" style="fill: none; stroke: #b0b0b0; stroke-width: 0.8; stroke-linecap: square"/>
     </g>
     <g id="line2d_20">
      <g>
       <use xlink:href="#m27874f8a9d" x="135" y="271.076708" style="stroke: #000000; stroke-width: 0.8"/>
      </g>
     </g>
     <g id="text_11">
      <!-- 10 -->
      <g transform="translate(118 274.650926) scale(0.1 -0.1)">
       <use xlink:href="#Times New Roman-31"/>
       <use xlink:href="#Times New Roman-30" x="50"/>
      </g>
     </g>
    </g>
    <g id="ytick_4">
     <g id="line2d_21">
      <path d="M 135 221.935061 
L 972 221.935061 
" clip-path="url(#pa60bce7724)" style="fill: none; stroke: #b0b0b0; stroke-width: 0.8; stroke-linecap: square"/>
     </g>
     <g id="line2d_22">
      <g>
       <use xlink:href="#m27874f8a9d" x="135" y="221.935061" style="stroke: #000000; stroke-width: 0.8"/>
      </g>
     </g>
     <g id="text_12">
      <!-- 15 -->
      <g transform="translate(118 225.50928) scale(0.1 -0.1)">
       <use xlink:href="#Times New Roman-31"/>
       <use xlink:href="#Times New Roman-35" x="50"/>
      </g>
     </g>
    </g>
    <g id="ytick_5">
     <g id="line2d_23">
      <path d="M 135 172.793415 
L 972 172.793415 
" clip-path="url(#pa60bce7724)" style="fill: none; stroke: #b0b0b0; stroke-width: 0.8; stroke-linecap: square"/>
     </g>
     <g id="line2d_24">
      <g>
       <use xlink:href="#m27874f8a9d" x="135" y="172.793415" style="stroke: #000000; stroke-width: 0.8"/>
      </g>
     </g>
     <g id="text_13">
      <!-- 20 -->
      <g transform="translate(118 176.367634) scale(0.1 -0.1)">
       <use xlink:href="#Times New Roman-32"/>
       <use xlink:href="#Times New Roman-30" x="50"/>
      </g>
     </g>
    </g>
    <g id="ytick_6">
     <g id="line2d_25">
      <path d="M 135 123.651769 
L 972 123.651769 
" clip-path="url(#pa60bce7724)" style="fill: none; stroke: #b0b0b0; stroke-width: 0.8; stroke-linecap: square"/>
     </g>
     <g id="line2d_26">
      <g>
       <use xlink:href="#m27874f8a9d" x="135" y="123.651769" style="stroke: #000000; stroke-width: 0.8"/>
      </g>
     </g>
     <g id="text_14">
      <!-- 25 -->
      <g transform="translate(118 127.225988) scale(0.1 -0.1)">
       <use xlink:href="#Times New Roman-32"/>
       <use xlink:href="#Times New Roman-35" x="50"/>
      </g>
     </g>
    </g>
    <g id="ytick_7">
     <g id="line2d_27">
      <path d="M 135 74.510123 
L 972 74.510123 
" clip-path="url(#pa60bce7724)" style="fill: none; stroke: #b0b0b0; stroke-width: 0.8; stroke-linecap: square"/>
     </g>
     <g id="line2d_28">
      <g>
       <use xlink:href="#m27874f8a9d" x="135" y="74.510123" style="stroke: #000000; stroke-width: 0.8"/>
      </g>
     </g>
     <g id="text_15">
      <!-- 30 -->
      <g transform="translate(118 78.084341) scale(0.1 -0.1)">
       <use xlink:href="#Times New Roman-33"/>
       <use xlink:href="#Times New Roman-30" x="50"/>
      </g>
     </g>
    </g>
    <g id="text_16">
     <!-- Bite Rate (kbps) -->
     <g transform="translate(112.710938 258.16) rotate(-90) scale(0.1 -0.1)">
      <defs>
       <path id="Times New Roman-42" d="M 100 100
L 100 250 
L 300 250 
Q 425 250 475 300 
Q 525 350 525 450 
L 525 4025 
Q 525 4125 475 4175 
Q 425 4225 300 4225 
L 150 4225 
L 150 4375 
L 1600 4375 
Q 2200 4375 2487 4137 
Q 2775 3900 2775 3400 
Q 2775 3050 2625 2825 
Q 2475 2600 2000 2425 
Q 2575 2250 2775 1925 
Q 2975 1600 2975 1200 
Q 2975 700 2625 400 
Q 2275 100 1675 100 
L 100 100 
z
M 1600 250 
Q 2025 250 2262 512 
Q 2500 775 2500 1250 
Q 2500 1800 2250 2062 
Q 2000 2325 1500 2325 
L 925 2325 
L 925 450 
Q 925 350 987 300 
Q 1050 250 1150 250 
L 1600 250 
z
M 2350 3400 
Q 2350 3850 2100 4037 
Q 1850 4225 1450 4225 
L 1150 4225 
Q 1050 4225 987 4175 
Q 925 4125 925 4025 
L 925 2475 
L 1575 2475 
Q 1850 2475 2100 2700 
Q 2350 2925 2350 3400 
z
" transform="scale(0.015625)"/>
       <path id="Times New Roman-74" d="M 1500 900
Q 1500 550 1625 425 
Q 1750 300 2000 300 
Q 2250 300 2400 462 
Q 2550 625 2600 925 
L 2725 875 
Q 2675 525 2462 300 
Q 2250 75 1900 75 
Q 1525 75 1337 300 
Q 1150 525 1150 1000 
L 1150 2750 
L 400 2750 
L 400 2900 
L 600 2900 
Q 900 2900 1087 3087 
Q 1275 3275 1325 3675 
L 1350 3875 
L 1500 3875 
L 1500 2900 
L 2500 2900 
L 2500 2750 
L 1500 2750 
L 1500 900 
z
" transform="scale(0.015625)"/>
       <path id="Times New Roman-52" d="M 2825 3375
Q 2825 2875 2550 2600 
Q 2275 2325 1925 2275 
L 2675 425 
Q 2725 325 2787 287 
Q 2850 250 2925 250 
L 3075 250 
L 3075 100 
L 2375 100 
L 1550 2250 
L 975 2250 
L 975 450 
Q 975 350 1037 300 
Q 1100 250 1200 250 
L 1350 250 
L 1350 100 
L 200 100 
L 200 250 
L 350 250 
Q 475 250 525 300 
Q 575 350 575 450 
L 575 4025 
Q 575 4125 525 4175 
Q 475 4225 350 4225 
L 200 4225 
L 200 4375 
L 1625 4375 
Q 2200 4375 2512 4125 
Q 2825 3875 2825 3375 
z
M 2750 250 
L 2750 250 
z
M 975 2400 
L 1525 2400 
Q 1900 2400 2150 2625 
Q 2400 2850 2400 3325 
Q 2400 3750 2175 3987 
Q 1950 4225 1475 4225 
L 1200 4225 
Q 1100 4225 1037 4175 
Q 975 4125 975 4025 
L 975 2400 
z
" transform="scale(0.015625)"/>
       <path id="Times New Roman-61" d="M 1225 75
Q 775 75 525 287 
Q 275 500 275 775 
Q 275 1225 662 1512 
Q 1050 1800 2200 1925 
L 2200 2225 
Q 2200 2475 2087 2637 
Q 1975 2800 1575 2800 
Q 1150 2800 975 2662 
Q 800 2525 850 2375 
Q 875 2325 875 2275 
Q 875 2225 837 2150 
Q 800 2075 650 2075 
Q 550 2075 487 2137 
Q 425 2200 425 2325 
Q 425 2550 750 2750 
Q 1075 2950 1550 2950 
Q 2050 2950 2300 2762 
Q 2550 2575 2550 2225 
L 2550 575 
Q 2550 375 2587 337 
Q 2625 300 2725 300 
Q 2850 300 2900 412 
Q 2950 525 2950 725 
L 3075 725 
Q 3075 375 2950 237 
Q 2825 100 2625 100 
Q 2450 100 2350 175 
Q 2250 250 2200 425 
Q 1950 250 1737 162 
Q 1525 75 1225 75 
z
M 700 850 
Q 700 625 837 437 
Q 975 250 1275 250 
Q 1500 250 1725 337 
Q 1950 425 2200 600 
L 2200 1775 
Q 1350 1675 1025 1437 
Q 700 1200 700 850 
z
" transform="scale(0.015625)"/>
       <path id="Times New Roman-6b" d="M 1675 1900
L 2625 425 
Q 2700 325 2762 287 
Q 2825 250 2900 250 
L 3000 250 
L 3000 100 
L 1975 100 
L 1975 250 
L 2050 250 
Q 2175 250 2225 287 
Q 2275 325 2200 425 
L 1425 1650 
L 925 1125 
L 925 450 
Q 925 350 987 300 
Q 1050 250 1150 250 
L 1275 250 
L 1275 100 
L 225 100 
L 225 250 
L 350 250 
Q 475 250 525 300 
Q 575 350 575 450 
L 575 4025 
Q 575 4125 525 4175 
Q 475 4225 350 4225 
L 200 4225 
L 200 4375 
L 425 4375 
Q 575 4375 687 4425 
Q 800 4475 875 4575 
L 925 4575 
L 925 1400 
L 1975 2525 
Q 2025 2625 2012 2687 
Q 2000 2750 1900 2750 
L 1750 2750 
L 1750 2900 
L 2800 2900 
L 2800 2750 
L 2675 2750 
Q 2600 2750 2487 2712 
Q 2375 2675 2275 2575 
L 1675 1900 
z
M 2450 2750 
L 2450 2750 
z
M 2175 2750 
L 2175 2750 
z
M 2300 250 
L 2300 250 
z
M 2750 250 
L 2750 250 
z
" transform="scale(0.015625)"/>
       <path id="Times New Roman-62" d="M 875 2325
Q 1000 2600 1275 2762 
Q 1550 2925 1800 2925 
Q 2325 2925 2587 2562 
Q 2850 2200 2850 1500 
Q 2850 800 2512 437 
Q 2175 75 1675 75 
Q 1425 75 1212 162 
Q 1000 250 850 400 
L 625 100 
L 525 100 
L 525 4025 
Q 525 4125 475 4175 
Q 425 4225 300 4225 
L 150 4225 
L 150 4375 
L 375 4375 
Q 500 4375 625 4425 
Q 750 4475 875 4575 
L 875 2325 
z
M 875 925 
Q 875 650 1062 450 
Q 1250 250 1625 250 
Q 2075 250 2262 562 
Q 2450 875 2450 1500 
Q 2450 2100 2287 2412 
Q 2125 2725 1775 2725 
Q 1475 2725 1250 2550 
Q 1025 2375 875 1925 
L 875 925 
z
" transform="scale(0.015625)"/>
       <path id="Times New Roman-70" d="M 1150 -675
L 1325 -675 
L 1325 -825 
L 175 -825 
L 175 -675 
L 325 -675 
Q 450 -675 500 -625 
Q 550 -575 550 -450 
L 550 2500 
Q 550 2600 500 2662 
Q 450 2725 325 2725 
L 175 2725 
L 175 2875 
L 400 2875 
Q 525 2875 637 2900 
Q 750 2925 850 3000 
L 900 3000 
L 900 2425 
Q 1075 2675 1287 2800 
Q 1500 2925 1750 2925 
Q 2250 2925 2575 2587 
Q 2900 2250 2900 1525 
Q 2900 825 2550 450 
Q 2200 75 1725 75 
Q 1450 75 1262 162 
Q 1075 250 900 425 
L 900 -450 
Q 900 -575 975 -625 
Q 1050 -675 1150 -675 
z
M 900 750 
Q 1025 500 1212 375 
Q 1400 250 1650 250 
Q 2000 250 2250 562 
Q 2500 875 2500 1525 
Q 2500 2125 2312 2425 
Q 2125 2725 1750 2725 
Q 1525 2725 1300 2587 
Q 1075 2450 900 2150 
L 900 750 
z
" transform="scale(0.015625)"/>
      </defs>
      <use xlink:href="#Times New Roman-42"/>
      <use xlink:href="#Times New Roman-69" x="50"/>
      <use xlink:href="#Times New Roman-74" x="100"/>
      <use xlink:href="#Times New Roman-65" x="150"/>
      <use xlink:href="#Times New Roman-20" x="200"/>
      <use xlink:href="#Times New Roman-52" x="250"/>
      <use xlink:href="#Times New Roman-61" x="300"/>
      <use xlink:href="#Times New Roman-74" x="350"/>
      <use xlink:href="#Times New Roman-65" x="400"/>
      <use xlink:href="#Times New Roman-20" x="450"/>
      <use xlink:href="#Times New Roman-28" x="500"/>
      <use xlink:href="#Times New Roman-6b" x="550"/>
      <use xlink:href="#Times New Roman-62" x="600"/>
      <use xlink:href="#Times New Roman-70" x="650"/>
      <use xlink:href="#Times New Roman-73" x="700"/>
      <use xlink:href="#Times New Roman-29" x="750"/>
     </g>
    </g>
   </g>
   <g id="line2d_29">
    <path d="M 173.045455 221.188108 
L 175.581818 218.881727 
L 178.118182 216.340449 
L 180.654545 214.391468 
L 180.654545 213.616998 
L 181.922727 213.011794 
L 183.190909 212.656578 
L 184.459091 212.602303 
L 185.727273 212.940051 
L 186.995455 213.632026 
L 188.263636 214.639621 
L 189.531818 215.899408 
L 190.167177 217.063082 
L 190.8 218.686853 
L 192.068182 220.724331 
L 193.336364 223.231724 
L 194.604545 226.154876 
L 195.872727 229.47933 
L 197.140909 233.246988 
L 198.409091 237.45692 
L 200.945455 246.95707 
L 204.75 261.74342 
L 208.554545 276.070285 
L 211.090909 286.713186 
L 211.090909 292.435676 
L 213.627273 303.950372 
L 213.627273 309.469831 
L 214.895455 314.751837 
L 222.504545 319.901663 
L 222.504545 324.768477 
L 223.772727 329.282782 
L 225.040909 333.262207 
L 225.040909 336.624762 
L 226.309091 339.201138 
L 227.577273 341.114692 
L 228.845455 342.568804 
L 230.113636 343.768996 
L 233.918182 346.829669 
L 233.918182 347.807479 
L 235.186364 348.529795 
L 236.454545 348.842642 
L 237.722727 348.738636 
L 238.990909 348.326851 
L 238.990909 347.963116 
L 240.259091 347.904364 
L 241.527273 348.293348 
L 242.795455 349.831241 
L 244.063636 350.461914 
L 245.331818 350.685213 
L 246.6 350.335849 
L 247.868182 349.512585 
L 250.404545 346.794986 
L 251.672727 345.418714 
L 252.940909 344.338078 
L 254.209091 343.480174 
L 255.477273 342.788216 
L 256.745455 341.851336 
L 256.745455 340.443658 
L 258.013636 338.297413 
L 259.281818 335.18703 
L 260.55 330.900437 
L 261.818182 325.357041 
L 261.818182 318.772366 
L 263.086364 311.197476 
L 265.622727 293.657884 
L 266.890909 283.990259 
L 266.890909 273.749358 
L 268.159091 263.016779 
L 268.159091 251.870274 
L 270.695455 229.800302 
L 273.231818 209.671228 
L 274.5 201.124863 
L 275.768182 193.935287 
L 277.036364 188.270238 
L 278.304545 183.788782 
L 279.572727 180.486551 
L 280.840909 177.975784 
L 282.109091 176.124694 
L 283.377273 174.5436 
L 283.377273 173.181743 
L 284.645455 171.649223 
L 285.279545 169.763232 
L 285.913636 167.091455 
L 287.181818 163.584969 
L 288.45 159.215687 
L 289.718182 154.316287 
L 290.986364 143.48656 
L 294.790909 125.602889 
L 296.059091 112.84017 
L 298.595455 100.873677 
L 299.863636 95.886127 
L 299.863636 91.781555 
L 301.131818 88.517064 
L 302.4 86.03836 
L 303.668182 84.30722 
L 304.936364 83.151539 
L 304.936364 82.454033 
L 306.204545 82.125549 
L 307.472727 82.200812 
L 308.740909 82.527156 
L 310.009091 83.096064 
L 311.277273 83.896483 
L 312.545455 84.895434 
L 315.081818 87.176218 
L 316.35 88.111351 
L 318.886364 89.599316 
L 320.154545 90.557207 
L 321.422727 91.907532 
L 322.690909 93.694584 
L 323.959091 96.033334 
L 325.227273 98.834539 
L 326.495455 102.04814 
L 327.763636 105.732759 
L 329.031818 109.991745 
L 330.3 114.927052 
L 332.836364 126.548112 
L 335.372727 139.986976 
L 336.640909 147.264919 
L 336.640909 154.707018 
L 337.909091 162.135575 
L 337.909091 169.303616 
L 339.177273 181.826349 
L 340.445455 186.939613 
L 341.713636 191.333532 
L 342.981818 194.917334 
L 344.25 197.423558 
L 345.518182 198.451426 
L 346.786364 197.67988 
L 348.054545 195.150374 
L 349.322727 191.030339 
L 350.590909 185.766897 
L 351.859091 179.849238 
L 351.859091 173.680629 
L 356.931818 149.03083 
L 358.2 142.907562 
L 358.2 136.478263 
L 362.004545 116.833354 
L 363.272727 111.498581 
L 364.540909 107.248244 
L 365.809091 104.050062 
L 368.345455 99.106543 
L 372.15 91.500465 
L 374.686364 86.335918 
L 375.954545 84.192599 
L 377.222727 82.569353 
L 378.490909 81.425859 
L 379.759091 80.756834 
L 381.027273 80.398602 
L 384.831818 79.786931 
L 386.1 79.530084 
L 386.734091 79.279352 
L 387.368182 79.158223 
L 388.636364 79.119522 
L 393.709091 79.781383 
L 394.977273 79.76675 
L 396.245455 79.547687 
L 396.245455 79.170454 
L 401.318182 77.230342 
L 402.586364 76.986206 
L 405.122727 76.88373 
L 414 77.384843 
L 415.268182 77.746133 
L 420.340909 79.631512 
L 424.145455 80.825763 
L 424.145455 81.343258 
L 425.413636 81.992539 
L 427.95 83.683361 
L 430.486364 86.012063 
L 434.290909 90.107201 
L 435.559091 91.695633 
L 436.827273 93.549431 
L 438.095455 95.643913 
L 439.363636 98.027698 
L 439.363636 100.566989 
L 441.9 105.684971 
L 443.168182 107.932121 
L 444.436364 109.722798 
L 445.704545 111.015682 
L 446.972727 111.795266 
L 448.240909 112.180492 
L 452.045455 112.813044 
L 454.581818 113.593762 
L 459.654545 115.336172 
L 460.922727 115.939501 
L 462.190909 116.833617 
L 463.459091 118.231161 
L 464.727273 120.173108 
L 465.995455 122.62425 
L 468.531818 128.585153 
L 472.336364 137.622062 
L 473.604545 143.205077 
L 473.604545 145.855799 
L 476.140909 150.613584 
L 481.213636 159.061186 
L 482.481818 161.631098 
L 482.481818 164.541506 
L 485.018182 171.400413 
L 493.895455 197.440681 
L 497.7 208.949261 
L 498.968182 212.280366 
L 500.236364 214.994383 
L 501.504545 216.84521 
L 501.504545 217.77628 
L 502.772727 217.846651 
L 502.772727 217.090481 
L 504.040909 215.56377 
L 504.040909 213.29133 
L 505.309091 210.270538 
L 506.577273 206.445178 
L 507.845455 201.965294 
L 507.845455 197.052746 
L 509.113636 191.791619 
L 510.381818 185.998103 
L 511.65 179.464798 
L 512.918182 172.017807 
L 515.454545 155.171352 
L 517.990909 138.293009 
L 520.527273 123.792904 
L 520.527273 117.570392 
L 521.795455 111.882192 
L 524.331818 102.024465 
L 525.6 97.645311 
L 525.6 93.503347 
L 526.868182 89.850354 
L 528.136364 86.897618 
L 529.404545 84.823753 
L 530.672727 83.496797 
L 531.940909 82.908015 
L 533.209091 82.71206 
L 535.745455 82.84127 
L 538.281818 83.320062 
L 539.55 83.816502 
L 540.818182 84.515886 
L 543.354545 86.418738 
L 547.159091 89.939857 
L 548.427273 91.214482 
L 550.963636 94.288521 
L 553.5 98.197881 
L 559.840909 109.067096 
L 568.718182 122.899661 
L 575.059091 132.853094 
L 577.595455 137.325639 
L 580.131818 142.455023 
L 580.131818 145.178343 
L 582.668182 150.378447 
L 583.936364 152.512068 
L 585.204545 154.095958 
L 586.472727 155.040832 
L 587.740909 155.382814 
L 589.009091 155.069137 
L 590.277273 154.217611 
L 591.545455 152.918699 
L 592.813636 151.262691 
L 594.081818 149.260245 
L 596.618182 144.5485 
L 601.690909 134.570518 
L 602.959091 132.610094 
L 604.227273 131.209142 
L 605.495455 130.431263 
L 606.763636 130.328874 
L 607.397727 130.850998 
L 608.031818 131.844009 
L 609.3 133.189878 
L 610.568182 134.85471 
L 611.836364 136.827845 
L 614.372727 141.408109 
L 620.713636 153.860384 
L 625.786364 162.442219 
L 627.054545 165.118669 
L 628.322727 168.277363 
L 628.322727 171.7313 
L 629.590909 175.358085 
L 630.859091 182.639042 
L 633.395455 189.406305 
L 635.931818 195.416132 
L 638.468182 200.602607 
L 639.736364 202.835167 
L 641.004545 204.804895 
L 642.272727 206.344667 
L 643.540909 207.365764 
L 644.809091 207.734611 
L 645.443182 207.664764 
L 646.077273 207.24219 
L 647.345455 206.641832 
L 648.613636 205.777812 
L 649.881818 204.649345 
L 651.15 203.128269 
L 652.418182 201.306228 
L 656.222727 194.867144 
L 657.490909 193.095161 
L 658.759091 191.586098 
L 660.027273 190.425219 
L 661.295455 189.537175 
L 663.831818 188.586099 
L 666.368182 187.8526 
L 667.636364 187.708276 
L 668.904545 187.866665 
L 670.172727 188.572339 
L 671.440909 189.864611 
L 672.709091 191.801447 
L 676.513636 198.646813 
L 677.781818 200.448193 
L 679.05 201.813414 
L 680.318182 202.784584 
L 680.318182 203.405035 
L 682.854545 204.333397 
L 684.122727 204.561152 
L 685.390909 204.357771 
L 686.659091 203.663018 
L 687.927273 202.48589 
L 687.927273 200.872471 
L 691.731818 195.164047 
L 693 193.511184 
L 694.268182 192.082145 
L 696.804545 189.68709 
L 699.340909 187.254819 
L 703.145455 182.779172 
L 703.145455 181.569764 
L 704.413636 180.625414 
L 705.681818 180.030647 
L 705.681818 179.703604 
L 708.218182 179.210571 
L 708.218182 178.815691 
L 709.486364 178.194672 
L 709.486364 177.350047 
L 713.290909 174.681372 
L 715.827273 173.213238 
L 717.095455 172.347165 
L 718.363636 171.220533 
L 719.631818 169.782102 
L 720.9 167.953858 
L 720.9 165.823295 
L 722.168182 163.342013 
L 723.436364 160.511978 
L 723.436364 157.246745 
L 724.704545 153.514426 
L 725.972727 149.220145 
L 727.240909 144.272565 
L 729.777273 132.988638 
L 731.045455 127.088408 
L 732.313636 115.91897 
L 734.85 106.241779 
L 736.118182 101.834407 
L 737.386364 93.631989 
L 738.654545 90.088155 
L 739.922727 87.056443 
L 741.190909 84.525539 
L 741.825 82.551356 
L 742.459091 81.097287 
L 743.727273 80.040982 
L 744.995455 79.252881 
L 746.263636 78.642214 
L 746.263636 78.003198 
L 748.8 76.491645 
L 751.336364 74.953883 
L 751.336364 74.206536 
L 753.872727 72.445081 
L 756.409091 70.625399 
L 756.409091 69.925797 
L 757.677273 69.414025 
L 760.213636 68.92453 
L 761.481818 68.845729 
L 762.75 68.924617 
L 766.554545 69.872156 
L 769.090909 70.699832 
L 770.359091 71.292895 
L 771.627273 72.026569 
L 774.163636 73.885478 
L 777.968182 76.906706 
L 780.504545 78.750719 
L 781.772727 79.53419 
L 783.040909 80.933176 
L 786.845455 82.919285 
L 788.113636 83.582107 
L 789.381818 84.415593 
L 790.65 85.461371 
L 791.918182 86.853412 
L 793.186364 88.579179 
L 795.722727 92.868262 
L 800.795455 102.446471 
L 803.331818 106.629583 
L 804.6 108.503693 
L 805.868182 110.05932 
L 805.868182 111.210502 
L 807.136364 111.739703 
L 807.136364 111.602674 
L 808.404545 110.759753 
L 809.672727 109.39759 
L 812.209091 106.182372 
L 813.477273 104.759405 
L 814.745455 103.68139 
L 816.013636 102.93435 
L 818.55 101.999392 
L 821.086364 101.133276 
L 822.354545 100.896391 
L 823.622727 100.986025 
L 823.622727 101.526933 
L 824.890909 102.469535 
L 828.695455 106.104444 
L 829.963636 106.853669 
L 829.963636 107.241429 
L 831.231818 107.23313 
L 833.768182 106.830343 
L 835.036364 106.913032 
L 836.304545 107.379725 
L 837.572727 108.286115 
L 838.840909 109.54021 
L 838.840909 110.940769 
L 841.377273 113.944525 
L 841.377273 115.593238 
L 842.645455 117.344078 
L 842.645455 119.178132 
L 845.181818 123.257194 
L 847.718182 127.762719 
L 847.718182 130.061587 
L 848.986364 132.227008 
L 850.254545 134.139994 
L 851.522727 135.570955 
L 852.790909 136.127107 
L 854.059091 135.575148 
L 855.327273 133.844751 
L 856.595455 131.015502 
L 857.863636 127.342372 
L 861.668182 115.199537 
L 864.204545 107.870967 
L 865.472727 104.624473 
L 866.740909 101.787711 
L 868.009091 99.526497 
L 869.277273 97.925003 
L 870.545455 97.158219 
L 871.813636 97.618927 
L 873.081818 99.613073 
L 874.35 103.254535 
L 875.618182 108.457434 
L 876.886364 122.400513 
L 879.422727 138.672339 
L 883.227273 165.244647 
L 890.836364 220.176577 
L 890.836364 229.179457 
L 898.445455 282.938409 
L 903.518182 292.055517 
L 903.518182 292.055517 
" clip-path="url(#pa60bce7724)" style="fill: none; stroke: #1f77b4; stroke-width: 1.5; stroke-linecap: square"/>
   </g>
   <g id="line2d_30">
    <path d="M 173.045455 174.021956 
L 173.679545 174.021956 
L 174.313636 173.681241 
L 175.581818 172.565791 
L 176.85 171.900628 
L 178.118182 171.477511 
L 181.922727 171.240626 
L 183.190909 170.757466 
L 184.459091 170.646122 
L 186.361364 170.816086 
L 187.629545 170.936385 
L 188.897727 170.862956 
L 190.165909 170.876105 
L 190.8 170.728112 
L 191.434091 170.445274 
L 192.068182 170.026587 
L 193.336364 168.771881 
L 194.604545 167.265613 
L 195.238636 166.369881 
L 196.506818 164.05887 
L 198.409091 160.149641 
L 199.677273 156.868988 
L 202.213636 148.74891 
L 204.115909 142.867812 
L 204.75 141.209446 
L 205.384091 139.865716 
L 206.018182 138.919576 
L 206.652273 138.359405 
L 207.286364 138.090851 
L 207.920455 138.025941 
L 208.554545 138.16891 
L 209.188636 138.612058 
L 209.822727 139.456115 
L 210.456818 140.722266 
L 211.725 144.16205 
L 212.993182 147.807967 
L 214.261364 150.654121 
L 214.895455 151.740959 
L 215.529545 152.531157 
L 216.163636 152.948271 
L 216.797727 152.994748 
L 217.431818 152.751355 
L 219.968182 150.790014 
L 221.870455 149.148683 
L 222.504545 148.888516 
L 223.138636 148.956178 
L 223.772727 149.335552 
L 225.040909 150.598601 
L 225.675 151.384344 
L 226.309091 152.369186 
L 226.943182 153.656566 
L 230.747727 162.962683 
L 232.65 166.5329 
L 233.918182 168.8198 
L 235.186364 171.859243 
L 237.088636 176.785289 
L 238.356818 179.61528 
L 239.625 181.973817 
L 240.259091 182.849805 
L 240.893182 183.391193 
L 241.527273 183.507648 
L 242.161364 183.220093 
L 242.795455 182.471349 
L 243.429545 181.191919 
L 244.063636 179.374552 
L 245.331818 174.72348 
L 246.6 169.323884 
L 250.404545 151.83138 
L 253.575 140.421694 
L 255.477273 134.350582 
L 256.745455 130.782811 
L 258.013636 127.683699 
L 259.915909 123.84388 
L 260.55 122.806489 
L 261.184091 122.10361 
L 261.818182 121.720873 
L 263.086364 121.482504 
L 263.720455 121.529155 
L 264.354545 121.704274 
L 264.988636 122.021489 
L 266.256818 123.068184 
L 268.793182 125.748741 
L 269.427273 126.209712 
L 270.061364 126.369717 
L 270.695455 125.959592 
L 271.329545 124.965751 
L 271.963636 123.382516 
L 272.597727 121.300177 
L 273.865909 115.772288 
L 275.134091 108.820034 
L 279.572727 82.168357 
L 280.206818 79.237724 
L 280.840909 76.893689 
L 281.475 75.152677 
L 282.109091 73.921821 
L 282.743182 73.181857 
L 283.377273 72.824804 
L 284.011364 72.835463 
L 284.645455 73.12376 
L 285.913636 74.233313 
L 287.815909 76.198018 
L 289.084091 77.222479 
L 289.718182 77.433068 
L 290.986364 77.513704 
L 292.888636 77.369467 
L 296.693182 76.679737 
L 297.327273 76.790994 
L 297.961364 77.128783 
L 298.595455 77.781995 
L 299.229545 78.753602 
L 300.497727 81.273717 
L 301.765909 84.30106 
L 303.034091 88.155906 
L 305.570455 96.648543 
L 307.472727 102.992621 
L 308.740909 107.974186 
L 310.643182 116.849517 
L 311.911364 122.576943 
L 316.35 140.175505 
L 316.984091 142.255966 
L 317.618182 143.933946 
L 318.252273 145.140428 
L 318.886364 145.881091 
L 319.520455 146.237663 
L 320.788636 146.729166 
L 322.690909 147.74808 
L 323.325 147.695881 
L 323.959091 147.266143 
L 324.593182 146.458254 
L 325.861364 144.122693 
L 327.763636 140.47717 
L 329.031818 138.843439 
L 330.3 137.151394 
L 331.568182 134.911015 
L 333.470455 131.372992 
L 334.738636 129.69475 
L 336.640909 127.779754 
L 337.909091 126.581878 
L 339.177273 125.2613 
L 342.981818 121.952735 
L 343.615909 121.658016 
L 344.25 121.485823 
L 346.786364 121.277419 
L 347.420455 120.98139 
L 348.688636 120.002488 
L 353.761364 114.484777 
L 354.395455 113.299568 
L 355.029545 111.812345 
L 356.297727 108.053948 
L 359.468182 97.787581 
L 362.638636 88.094577 
L 363.906818 85.027265 
L 364.540909 83.879229 
L 365.175 83.100039 
L 365.809091 82.608491 
L 368.345455 81.523444 
L 368.979545 81.053082 
L 371.515909 78.462989 
L 376.588636 72.836729 
L 377.222727 72.40935 
L 377.856818 72.124984 
L 378.490909 71.987125 
L 384.197727 72.093315 
L 385.465909 72.217239 
L 388.636364 72.051118 
L 395.611364 71.978301 
L 397.513636 71.923263 
L 399.415909 71.910857 
L 401.952273 72.25131 
L 403.220455 72.366804 
L 404.488636 72.383753 
L 405.756818 72.527683 
L 408.293182 72.497193 
L 409.561364 72.333169 
L 410.829545 72.265682 
L 412.097727 72.123804 
L 419.706818 72.189982 
L 422.877273 72.439883 
L 424.145455 72.352215 
L 426.047727 72.293332 
L 427.315909 72.30434 
L 428.584091 72.691794 
L 429.852273 73.492344 
L 431.754545 75.359771 
L 433.022727 76.657722 
L 434.290909 78.057232 
L 435.559091 79.212301 
L 436.193182 79.626969 
L 436.827273 79.846949 
L 437.461364 79.883161 
L 438.095455 79.736085 
L 439.363636 78.928939 
L 441.265909 77.462378 
L 441.9 77.24847 
L 443.168182 77.064265 
L 444.436364 76.532618 
L 445.704545 75.892553 
L 446.338636 75.899237 
L 446.972727 76.182424 
L 448.240909 77.270442 
L 450.143182 79.323514 
L 453.313636 83.316699 
L 453.947727 84.595823 
L 457.118182 92.413582 
L 459.654545 97.364439 
L 460.922727 99.794657 
L 462.190909 102.954312 
L 464.093182 107.971041 
L 465.361364 110.832613 
L 467.263636 114.923208 
L 468.531818 118.254312 
L 469.8 122.531689 
L 472.336364 132.022448 
L 473.604545 137.821337 
L 474.872727 144.981296 
L 476.140909 153.487693 
L 480.579545 185.752963 
L 481.847727 193.066987 
L 483.115909 199.033219 
L 484.384091 203.589415 
L 485.652273 206.887365 
L 486.286364 208.123201 
L 486.920455 208.98211 
L 487.554545 209.534025 
L 488.188636 209.845561 
L 488.822727 209.998097 
L 492.627273 209.93454 
L 493.261364 209.713905 
L 493.895455 209.272242 
L 494.529545 208.510481 
L 495.163636 207.337197 
L 495.797727 205.848096 
L 497.065909 201.946686 
L 498.334091 197.009239 
L 499.602273 191.066551 
L 500.870455 182.70867 
L 502.138636 171.693734 
L 504.675 148.190967 
L 509.113636 108.666755 
L 509.747727 104.746475 
L 510.381818 101.809639 
L 511.015909 99.944353 
L 511.65 98.987249 
L 512.284091 98.606609 
L 513.552273 98.22361 
L 514.186364 98.132752 
L 514.820455 98.275066 
L 515.454545 98.725772 
L 516.088636 99.553142 
L 517.356818 101.539557 
L 517.990909 102.195347 
L 518.625 102.455601 
L 519.259091 102.320014 
L 519.893182 101.791555 
L 520.527273 100.864503 
L 521.161364 99.533092 
L 522.429545 95.765129 
L 524.331818 89.317047 
L 525.6 87.217715 
L 525.601268 85.150752 
L 526.868182 81.465697 
L 528.136364 78.800691 
L 531.940909 72.692449 
L 533.209091 71.550136 
L 537.013636 69.399086 
L 538.915909 67.421145 
L 539.55 67.05741 
L 540.184091 67.012855 
L 540.818182 67.267954 
L 542.086364 68.330986 
L 547.159091 73.386242 
L 547.793182 73.873509 
L 548.427273 74.123673 
L 549.061364 74.14049 
L 551.597727 73.776361 
L 554.768182 73.743425 
L 556.036364 73.717129 
L 556.670455 73.784399 
L 557.304545 73.994943 
L 557.938636 74.428919 
L 559.206818 75.850357 
L 560.475 77.415202 
L 561.109091 78.060858 
L 561.743182 78.516499 
L 562.377273 78.775661 
L 563.645455 78.993763 
L 564.913636 78.955105 
L 565.547727 78.925576 
L 566.181818 79.026087 
L 566.815909 79.272057 
L 569.352273 80.77601 
L 571.254545 81.132232 
L 571.888636 81.548124 
L 573.156818 82.72927 
L 575.693182 85.224312 
L 576.327273 85.490769 
L 576.961364 85.46124 
L 577.595455 85.141492 
L 578.863636 83.957812 
L 580.765909 81.963491 
L 582.034091 80.904827 
L 582.668182 80.682139 
L 583.936364 80.600148 
L 584.570455 80.637409 
L 585.204545 80.797414 
L 585.838636 81.154248 
L 586.472727 81.792478 
L 587.106818 82.729401 
L 588.375 85.189716 
L 590.277273 89.070072 
L 595.35 98.47207 
L 596.618182 100.078718 
L 597.886364 101.495919 
L 598.520455 102.396893 
L 599.788636 104.860964 
L 601.690909 108.75176 
L 602.959091 111.155813 
L 604.227273 114.309527 
L 606.129545 120.104485 
L 611.202273 136.131825 
L 612.470455 139.307948 
L 616.275 146.747163 
L 620.079545 154.034105 
L 621.347727 157.100281 
L 623.884091 163.732045 
L 625.786364 167.730078 
L 627.054545 170.098793 
L 628.322727 171.768124 
L 630.225 174.015055 
L 632.127273 176.373897 
L 633.395455 177.791754 
L 634.029545 178.63533 
L 635.297727 180.878504 
L 636.565909 183.115563 
L 637.834091 184.874485 
L 642.272727 190.086688 
L 642.906818 190.673199 
L 643.540909 191.033222 
L 644.175 191.061964 
L 644.809091 190.753005 
L 646.077273 189.856749 
L 647.979545 189.011818 
L 648.613636 188.397002 
L 649.247727 187.482006 
L 650.515909 185.042964 
L 653.052273 179.828708 
L 654.954545 176.13129 
L 655.588636 174.355289 
L 656.222727 172.003436 
L 657.490909 165.861604 
L 659.393182 154.574969 
L 664.465909 123.788885 
L 665.734091 117.440833 
L 667.002273 112.031713 
L 668.270455 107.580528 
L 669.538636 103.891847 
L 672.709091 96.186219 
L 673.977273 92.6886 
L 675.245455 89.925005 
L 676.513636 87.936013 
L 679.05 84.599711 
L 680.318182 82.450146 
L 681.586364 80.244013 
L 682.220455 79.394758 
L 682.854545 78.732242 
L 683.488636 78.274154 
L 684.122727 78.048671 
L 684.756818 78.072695 
L 685.390909 78.339676 
L 686.025 78.833408 
L 686.659091 79.537116 
L 687.927273 81.518289 
L 689.829545 85.212474 
L 692.365909 90.457045 
L 693 91.584857 
L 694.268182 93.203605 
L 695.536364 94.534229 
L 696.804545 95.505793 
L 699.340909 96.700393 
L 700.609091 97.804136 
L 705.047727 102.196919 
L 706.315909 103.189231 
L 706.95 103.414496 
L 707.584091 103.43044 
L 710.754545 102.841002 
L 713.290909 102.884072 
L 713.925 102.633909 
L 714.559091 102.140264 
L 715.827273 100.547769 
L 718.363636 97.292539 
L 719.631818 95.090382 
L 722.168182 89.836856 
L 722.802273 88.844763 
L 723.436364 88.156343 
L 724.070455 87.857518 
L 724.704545 87.947021 
L 725.338636 88.337708 
L 726.606818 89.437782 
L 730.411364 93.234313 
L 731.045455 93.490199 
L 731.679545 93.521082 
L 734.215909 93.260784 
L 737.386364 93.311891 
L 738.654545 93.298874 
L 739.288636 93.362955 
L 739.922727 93.550086 
L 740.556818 93.943001 
L 741.825 95.260609 
L 745.629545 99.859699 
L 748.8 105.34146 
L 750.068182 106.84668 
L 751.336364 107.860439 
L 751.970455 108.145854 
L 752.604545 108.273185 
L 753.872727 108.166734 
L 755.140909 107.82414 
L 756.409091 106.861182 
L 757.043182 106.376099 
L 757.677273 106.106017 
L 758.311364 106.12349 
L 758.945455 106.424586 
L 760.213636 107.583324 
L 761.481818 109.015028 
L 762.115909 109.880794 
L 763.384091 112.147688 
L 765.286364 116.061197 
L 767.188636 120.974401 
L 768.456818 124.148471 
L 770.359091 128.859342 
L 772.261364 134.024937 
L 774.797727 140.621624 
L 778.602273 150.948272 
L 779.870455 155.50154 
L 781.138636 160.809537 
L 782.406818 167.216209 
L 785.577273 183.973205 
L 787.479545 192.884049 
L 788.747727 197.454746 
L 790.015909 200.678482 
L 790.65 201.814811 
L 791.284091 202.566613 
L 791.918182 203.039028 
L 793.186364 203.503755 
L 793.820455 203.558444 
L 794.454545 203.471824 
L 795.088636 203.227688 
L 795.722727 202.73352 
L 796.356818 201.921176 
L 796.990909 200.64476 
L 797.625 198.921308 
L 798.259091 196.569279 
L 798.893182 193.484451 
L 799.527273 189.474186 
L 800.795455 179.317154 
L 805.868182 133.868252 
L 807.136364 125.050711 
L 807.770455 121.541779 
L 808.404545 118.789279 
L 809.038636 116.962433 
L 809.672727 115.880443 
L 810.306818 115.363211 
L 810.940909 115.142139 
L 819.184091 114.959988 
L 820.452273 115.139737 
L 828.695455 115.271786 
L 829.963636 115.161927 
L 830.597727 114.892456 
L 831.231818 114.246014 
L 831.865909 113.216879 
L 832.5 111.706461 
L 833.134091 109.702443 
L 834.402273 104.406502 
L 836.304545 94.992492 
L 839.475 78.998873 
L 840.109091 76.420575 
L 840.743182 74.336532 
L 841.377273 72.744867 
L 842.011364 71.724119 
L 842.645455 71.175916 
L 843.279545 70.999749 
L 843.913636 71.015212 
L 845.815909 71.362786 
L 847.718182 71.497194 
L 848.352273 71.443509 
L 848.986364 71.231305 
L 849.620455 70.778939 
L 852.156818 68.530611 
L 852.790909 68.317358 
L 853.425 68.333345 
L 854.059091 68.572763 
L 855.327273 69.594647 
L 857.229545 71.566647 
L 860.4 74.906532 
L 861.668182 75.792086 
L 862.936364 76.239341 
L 866.106818 76.389649 
L 867.375 76.317793 
L 868.009091 76.43962 
L 868.643182 76.700661 
L 869.911364 77.611375 
L 871.179545 78.583987 
L 871.813636 78.782912 
L 873.081818 78.965894 
L 874.35 79.536854 
L 875.618182 80.58237 
L 876.886364 81.807591 
L 878.154545 82.659555 
L 878.788636 82.909631 
L 880.690909 83.301847 
L 881.959091 84.187707 
L 882.593182 84.654487 
L 883.227273 84.934049 
L 883.861364 84.950211 
L 884.495455 84.696421 
L 885.129545 84.237722 
L 886.397727 82.967378 
L 887.665909 81.324824 
L 890.202273 76.923174 
L 891.470455 75.307397 
L 892.738636 73.749148 
L 894.640909 71.313644 
L 895.909091 69.988043 
L 897.177273 69.10559 
L 898.445455 68.676332 
L 899.713636 68.3423 
L 901.615909 67.107993 
L 902.25 66.96 
L 902.884091 67.109565 
L 903.518182 67.629375 
L 904.152273 68.524321 
L 904.786364 69.819214 
L 905.420455 71.444776 
L 906.688636 75.669691 
L 907.956818 81.278085 
L 909.225 88.011495 
L 910.493182 96.038182 
L 912.395455 109.993711 
L 933.954545 276.834754 
L 933.954545 276.834754 
" clip-path="url(#pa60bce7724)" style="fill: none; stroke: #ff7f0e; stroke-width: 1.5; stroke-linecap: square"/>
   </g>
   <g id="line2d_31">
    <path d="M 173.045455 369.36 
L 173.679545 369.36 
L 175.581818 365.307043 
L 176.85 361.061221 
L 178.118182 355.342673 
L 179.386364 347.772449 
L 180.654545 338.221437 
L 183.190909 315.38488 
L 185.727273 292.131419 
L 186.995455 281.632812 
L 188.263636 272.202683 
L 189.531818 263.804115 
L 194.604545 204.980756 
L 195.872727 192.036432 
L 197.140909 180.468423 
L 198.409091 170.747113 
L 199.677273 163.217696 
L 200.945455 157.984482 
L 201.579545 154.807136 
L 202.213636 153.301436 
L 203.481818 152.991734 
L 204.75 153.514426 
L 205.384091 154.561122 
L 206.018182 155.957225 
L 208.554545 159.397053 
L 211.090909 162.839371 
L 211.725 164.199349 
L 212.359091 165.204503 
L 213.627273 165.897029 
L 214.895455 166.297588 
L 216.163636 166.405088 
L 216.797727 166.177814 
L 217.431818 165.728419 
L 218.7 165.101109 
L 219.334091 164.254781 
L 219.968182 163.203849 
L 221.236364 162.033884 
L 222.504545 160.706536 
L 223.772727 159.21014 
L 226.309091 155.661895 
L 228.845455 151.5198 
L 230.113636 147.13785 
L 231.381818 145.04695 
L 232.65 141.416408 
L 233.918182 139.745112 
L 235.186364 136.477869 
L 237.722727 132.657576 
L 238.990909 130.480361 
L 242.795455 116.324378 
L 249.136364 104.176257 
L 252.940909 97.740929 
L 255.477273 94.032985 
L 256.745455 92.576688 
L 257.379545 91.428608 
L 258.013636 90.594249 
L 259.281818 90.106327 
L 260.55 89.971089 
L 261.818182 90.19072 
L 263.086364 90.730884 
L 264.354545 91.573893 
L 265.622727 92.587128 
L 266.890909 93.797323 
L 268.159091 95.344826 
L 269.427273 97.391434 
L 270.695455 100.043336 
L 271.963636 103.398334 
L 273.231818 107.477528 
L 274.5 112.089853 
L 275.768182 122.169569 
L 277.036364 127.371245 
L 278.304545 137.914247 
L 282.109091 154.212544 
L 283.377273 165.188996 
L 285.913636 175.310996 
L 287.181818 179.914236 
L 289.718182 187.926509 
L 290.986364 195.231971 
L 293.522727 201.995347 
L 294.790909 205.141723 
L 296.059091 210.820488 
L 297.327273 213.43692 
L 298.595455 218.641129 
L 299.863636 221.447401 
L 302.4 227.875697 
L 303.668182 231.372092 
L 304.936364 238.488894 
L 307.472727 245.903299 
L 308.740909 253.864901 
L 312.545455 266.027087 
L 313.813636 273.924914 
L 315.081818 277.68449 
L 316.35 284.213252 
L 317.618182 287.011487 
L 318.886364 291.824223 
L 319.520455 293.753328 
L 320.154545 295.279209 
L 321.422727 296.548242 
L 325.227273 299.618481 
L 326.495455 300.521596 
L 327.763636 301.19892 
L 329.031818 301.552172 
L 330.3 301.588952 
L 331.568182 301.363949 
L 332.836364 300.843441 
L 333.470455 300.07539 
L 334.104545 299.012969 
L 336.640909 296.430827 
L 339.177273 293.823043 
L 340.445455 291.468438 
L 342.981818 289.450572 
L 344.25 288.607389 
L 345.518182 287.393263 
L 346.786364 286.649717 
L 348.054545 286.541431 
L 348.688636 286.772637 
L 349.322727 287.319791 
L 350.590909 288.223997 
L 353.127273 292.837065 
L 355.663636 294.669503 
L 356.931818 297.027035 
L 358.2 297.996327 
L 359.468182 298.209012 
L 360.736364 297.125668 
L 362.004545 294.235484 
L 363.272727 289.23448 
L 364.540909 282.149303 
L 365.809091 273.187308 
L 367.077273 262.602984 
L 369.613636 238.435516 
L 373.418182 199.783143 
L 375.954545 172.039866 
L 378.490909 143.607077 
L 379.759091 130.527886 
L 381.027273 118.999256 
L 382.295455 109.407069 
L 383.563636 101.800772 
L 384.831818 96.018089 
L 386.1 91.8165 
L 387.368182 88.843103 
L 388.636364 86.573807 
L 391.172727 82.646145 
L 393.709091 79.170148 
L 394.343182 77.819954 
L 394.977273 76.910681 
L 396.245455 76.406335 
L 397.513636 76.132015 
L 400.05 75.95314 
L 401.318182 75.888797 
L 401.952273 75.707606 
L 402.586364 75.345531 
L 405.122727 74.579969 
L 407.659091 74.190505 
L 415.268182 73.566734 
L 417.804545 73.926713 
L 419.072727 74.186399 
L 420.340909 74.696773 
L 424.145455 75.300451 
L 425.413636 75.607838 
L 427.315909 75.681921 
L 427.95 75.600456 
L 430.486364 75.615176 
L 431.754545 75.713459 
L 432.388636 75.93226 
L 433.022727 76.317487 
L 435.559091 77.084009 
L 436.827273 77.29748 
L 438.095455 77.392138 
L 439.997727 77.193038 
L 440.631818 77.090692 
L 441.9 77.147129 
L 443.168182 77.367021 
L 444.436364 77.757665 
L 445.704545 78.739886 
L 446.972727 79.160189 
L 448.240909 79.408649 
L 450.143182 79.562714 
L 454.581818 80.679387 
L 455.85 81.626707 
L 457.118182 82.11524 
L 458.386364 83.136338 
L 460.922727 83.66152 
L 462.190909 83.630943 
L 463.459091 83.479019 
L 464.727273 83.161367 
L 465.361364 82.678425 
L 465.995455 82.006036 
L 468.531818 80.695855 
L 469.8 80.237767 
L 471.068182 79.90439 
L 474.238636 79.45482 
L 475.506818 79.176744 
L 476.140909 79.080339 
L 482.481818 78.754825 
L 483.115909 78.583113 
L 483.75 78.247115 
L 485.018182 77.794051 
L 487.554545 76.496755 
L 488.822727 75.148178 
L 491.359091 73.704462 
L 492.627273 73.117033 
L 493.895455 72.802003 
L 495.163636 72.797547 
L 496.431818 73.10026 
L 497.7 73.664144 
L 498.968182 75.189631 
L 501.504545 76.491295 
L 503.406818 77.151147 
L 504.040909 77.21466 
L 509.113636 77.105107 
L 510.381818 76.932216 
L 511.015909 76.588967 
L 511.65 76.068546 
L 515.454545 74.471989 
L 516.722727 74.241525 
L 517.990909 74.278174 
L 519.259091 74.542753 
L 520.527273 75.034824 
L 521.795455 75.66755 
L 525.6 77.870188 
L 526.868182 79.275377 
L 528.136364 79.989918 
L 530.672727 81.787061 
L 533.209091 84.052032 
L 535.745455 86.86739 
L 538.281818 90.242351 
L 540.818182 94.090775 
L 542.086364 98.03342 
L 543.354545 100.057052 
L 544.622727 104.445466 
L 545.890909 106.807934 
L 547.159091 111.307344 
L 548.427273 112.930547 
L 549.695455 113.768488 
L 550.963636 113.772507 
L 552.231818 113.06561 
L 553.5 111.956013 
L 554.768182 109.600316 
L 556.036364 108.734462 
L 559.840909 106.622201 
L 561.109091 105.776877 
L 562.377273 103.895385 
L 564.279545 102.800466 
L 564.913636 103.154242 
L 566.181818 104.132794 
L 567.45 107.153979 
L 568.718182 108.349191 
L 569.986364 108.932776 
L 571.254545 108.906698 
L 572.522727 108.497009 
L 573.790909 107.835279 
L 575.059091 107.008694 
L 576.327273 105.954093 
L 577.595455 104.679686 
L 578.863636 103.144021 
L 580.131818 99.316651 
L 583.936364 92.757966 
L 584.570455 90.887308 
L 585.204545 89.371605 
L 586.472727 88.251656 
L 587.740909 86.774436 
L 590.277273 85.6862 
L 591.545455 85.22951 
L 592.813636 84.178796 
L 595.35 82.853238 
L 596.618182 82.071078 
L 597.886364 80.238946 
L 602.959091 76.189151 
L 604.227273 75.384232 
L 606.763636 74.263366 
L 608.031818 73.889715 
L 609.3 73.745216 
L 610.568182 73.822489 
L 611.836364 74.121489 
L 613.104545 74.551664 
L 615.640909 75.872023 
L 616.909091 77.159403 
L 619.445455 78.308532 
L 621.981818 79.036789 
L 624.518182 79.352562 
L 627.054545 79.272014 
L 627.688636 79.036833 
L 628.322727 78.616005 
L 629.590909 78.065881 
L 630.859091 76.638895 
L 632.127273 76.014643 
L 633.395455 75.646714 
L 634.663636 75.540262 
L 635.297727 75.780205 
L 635.931818 76.362872 
L 637.2 77.241655 
L 639.736364 79.462203 
L 642.272727 82.053212 
L 643.540909 84.638281 
L 644.809091 85.801344 
L 646.077273 87.915352 
L 648.613636 89.765131 
L 649.881818 90.470936 
L 651.15 91.044736 
L 653.052273 91.408952 
L 657.490909 90.215618 
L 660.027273 89.328098 
L 663.831818 88.386937 
L 665.1 88.104711 
L 667.636364 87.173859 
L 668.904545 86.037879 
L 673.977273 83.964669 
L 677.781818 82.428829 
L 679.05 81.227196 
L 680.318182 80.635181 
L 680.952273 80.129262 
L 681.586364 79.822138 
L 682.854545 79.630726 
L 684.122727 79.634089 
L 685.390909 79.753951 
L 687.927273 80.335002 
L 690.463636 81.40843 
L 693 82.757183 
L 695.536364 84.435294 
L 696.804545 86.391131 
L 698.072727 87.197971 
L 699.340909 87.837031 
L 700.609091 88.306257 
L 704.413636 89.335568 
L 706.95 90.476265 
L 708.218182 91.244273 
L 712.022727 94.008043 
L 713.290909 94.496663 
L 714.559091 94.529119 
L 715.827273 94.229114 
L 717.095455 93.302106 
L 718.363636 93.028442 
L 720.9 93.024773 
L 722.168182 93.215967 
L 724.070455 93.208017 
L 724.704545 93.096105 
L 725.972727 93.015469 
L 726.606818 93.151056 
L 728.509091 94.595471 
L 729.777273 96.894339 
L 731.045455 97.848997 
L 731.679545 98.466741 
L 732.313636 98.729747 
L 734.215909 98.753597 
L 736.118182 98.492906 
L 738.654545 97.893815 
L 739.922727 97.517761 
L 742.459091 95.862321 
L 743.727273 95.438523 
L 746.263636 95.244621 
L 747.531818 95.026563 
L 748.165909 94.674141 
L 748.8 94.183293 
L 750.068182 93.712974 
L 751.970455 93.252091 
L 752.604545 93.385189 
L 753.872727 93.766965 
L 755.140909 94.452196 
L 756.409091 95.435334 
L 757.043182 96.771114 
L 757.677273 98.369724 
L 758.945455 100.234136 
L 762.115909 110.990609 
L 762.75 113.099332 
L 765.286364 117.050844 
L 766.554545 118.796487 
L 767.822727 120.299653 
L 769.090909 121.462017 
L 770.359091 122.242124 
L 771.627273 122.713141 
L 772.895455 122.970687 
L 774.797727 123.109463 
L 776.7 123.128989 
L 777.968182 123.389986 
L 779.236364 123.325294 
L 779.870455 122.992091 
L 780.504545 122.404794 
L 783.040909 120.741404 
L 784.309091 119.858864 
L 785.577273 118.273358 
L 786.845455 117.301882 
L 788.113636 115.924605 
L 789.381818 114.108723 
L 790.65 111.773206 
L 791.918182 109.008082 
L 793.186364 102.513916 
L 794.454545 99.265194 
L 795.722727 96.364395 
L 796.990909 93.881279 
L 798.259091 91.860138 
L 799.527273 90.217846 
L 804.6 84.615392 
L 806.502273 83.432542 
L 807.136364 83.73473 
L 808.404545 84.487012 
L 810.940909 86.559523 
L 812.209091 87.380123 
L 813.477273 87.748969 
L 814.745455 87.713413 
L 816.013636 87.318838 
L 823.622727 83.554719 
L 824.890909 82.738531 
L 827.427273 80.747617 
L 831.231818 78.073001 
L 832.5 77.729315 
L 833.768182 76.80768 
L 837.572727 75.259609 
L 840.109091 74.453337 
L 842.645455 73.835506 
L 843.913636 73.05802 
L 846.45 72.410049 
L 848.986364 71.978607 
L 852.790909 71.948423 
L 854.059091 71.853503 
L 856.595455 71.391179 
L 858.497727 70.809997 
L 859.131818 70.592419 
L 864.204545 70.182163 
L 865.472727 69.960829 
L 866.740909 69.373881 
L 869.277273 68.995556 
L 871.179545 68.857916 
L 873.081818 68.242925 
L 875.618182 67.57569 
L 878.154545 67.358462 
L 879.422727 67.51078 
L 880.690909 67.788026 
L 884.495455 69.070601 
L 886.397727 69.434293 
L 887.031818 69.67524 
L 888.3 69.991363 
L 890.836364 70.819214 
L 892.104545 71.168272 
L 894.640909 71.580538 
L 897.177273 71.911075 
L 898.445455 72.130182 
L 899.713636 72.644444 
L 902.25 72.96192 
L 906.054545 73.064616 
L 906.688636 73.254761 
L 907.322727 73.612731 
L 908.590909 74.005689 
L 909.225 74.358417 
L 909.859091 74.490728 
L 912.395455 74.577741 
L 913.663636 74.844766 
L 914.931818 75.673185 
L 916.2 76.030893 
L 917.468182 76.739624 
L 918.736364 77.000883 
L 920.004545 77.05483 
L 921.272727 76.935929 
L 921.906818 76.729971 
L 922.540909 76.682533 
L 923.175 77.014687 
L 923.809091 77.76758 
L 925.077273 79.580055 
L 926.345455 80.21929 
L 927.613636 80.608492 
L 931.418182 81.25074 
L 933.954545 81.754868 
L 933.954545 81.754868 
" clip-path="url(#pa60bce7724)" style="fill: none; stroke: #2ca02c; stroke-width: 1.5; stroke-linecap: square"/>
   </g>
   <g id="line2d_32">
    <path d="M 173.045455 77.792784 
L 174.313636 76.609699 
L 175.581818 76.077832 
L 176.85 75.367781 
L 180.654545 74.28145 
L 181.922727 73.980457 
L 185.727273 73.515913 
L 186.995455 73.483444 
L 188.263636 73.605009 
L 189.531818 73.856024 
L 192.068182 74.669604 
L 193.336364 75.424299 
L 194.604545 76.344966 
L 199.677273 80.974586 
L 200.945455 81.960695 
L 204.75 84.503655 
L 206.018182 85.588266 
L 207.286364 86.83939 
L 208.554545 88.24838 
L 211.090909 91.524009 
L 213.627273 95.267248 
L 216.163636 99.742938 
L 217.431818 102.336656 
L 218.7 105.357142 
L 219.968182 108.896826 
L 221.236364 117.55139 
L 227.577273 141.448165 
L 230.113636 151.818756 
L 235.186364 174.231234 
L 238.990909 190.810839 
L 245.331818 217.069339 
L 247.868182 226.861588 
L 251.672727 240.002413 
L 254.209091 249.037007 
L 256.745455 259.029797 
L 261.818182 280.144149 
L 265.622727 296.779143 
L 269.427273 314.699987 
L 270.695455 326.634418 
L 271.963636 332.008155 
L 273.231818 336.7237 
L 274.5 340.70745 
L 275.768182 344.006361 
L 277.036364 346.592697 
L 278.304545 348.586843 
L 279.572727 350.070615 
L 280.840909 351.125959 
L 282.109091 351.659922 
L 283.377273 351.758118 
L 284.645455 351.434831 
L 285.913636 350.694867 
L 287.181818 349.364592 
L 288.45 347.39613 
L 289.718182 344.748772 
L 290.986364 341.447938 
L 292.254545 337.478385 
L 293.522727 332.826528 
L 294.790909 327.533339 
L 296.059091 321.642107 
L 297.327273 315.125881 
L 299.863636 300.252736 
L 302.4 283.210501 
L 308.740909 236.938508 
L 310.009091 229.310108 
L 312.545455 216.063617 
L 313.813636 209.494449 
L 315.081818 202.314309 
L 317.618182 185.682068 
L 321.422727 159.165366 
L 331.568182 93.551571 
L 332.836364 86.562493 
L 334.104545 81.058848 
L 335.372727 77.292894 
L 336.640909 75.002325 
L 337.909091 73.838214 
L 339.177273 73.204003 
L 341.713636 72.494354 
L 344.25 72.008922 
L 349.322727 71.945627 
L 353.127273 72.031505 
L 356.931818 72.023118 
L 360.736364 72.037096 
L 364.540909 71.950258 
L 368.345455 71.998613 
L 370.881818 71.997215 
L 374.686364 72.000841 
L 378.490909 72.065533 
L 382.295455 72.000317 
L 386.1 72.043736 
L 389.904545 72.054482 
L 393.709091 72.113845 
L 397.513636 72.146606 
L 401.318182 72.272845 
L 405.122727 72.26175 
L 408.927273 72.287653 
L 412.731818 72.203523 
L 416.536364 72.187841 
L 420.340909 72.090301 
L 422.877273 72.048847 
L 426.681818 72.00403 
L 430.486364 71.948554 
L 436.827273 72.360165 
L 438.095455 72.677991 
L 440.631818 73.719837 
L 441.9 74.473474 
L 443.168182 76.434903 
L 446.972727 79.700485 
L 448.240909 80.504748 
L 450.777273 81.378072 
L 454.581818 82.309142 
L 455.85 82.802699 
L 457.118182 83.489284 
L 458.386364 84.349066 
L 459.654545 85.369116 
L 460.922727 86.593507 
L 462.190909 87.997561 
L 463.459091 89.627316 
L 464.727273 91.487841 
L 465.995455 93.666803 
L 467.263636 96.12987 
L 469.8 101.870619 
L 472.336364 107.77893 
L 473.604545 110.225266 
L 474.872727 111.884813 
L 476.140909 112.663653 
L 477.409091 112.570611 
L 478.677273 111.789587 
L 479.945455 110.396803 
L 481.213636 108.560478 
L 482.481818 106.275632 
L 483.75 103.634301 
L 486.286364 97.454073 
L 492.627273 81.25109 
L 493.895455 78.842843 
L 495.163636 77.136165 
L 496.431818 76.123934 
L 497.7 75.61688 
L 498.968182 75.45338 
L 501.504545 75.57001 
L 504.040909 75.876872 
L 506.577273 76.581148 
L 510.381818 78.088726 
L 511.65 78.417342 
L 512.918182 78.560224 
L 514.186364 78.423326 
L 515.454545 78.105587 
L 517.990909 77.068371 
L 520.527273 75.851362 
L 523.063636 74.975898 
L 525.6 74.115242 
L 529.404545 72.535633 
L 530.672727 72.195791 
L 531.940909 72.049371 
L 533.209091 72.183298 
L 534.477273 72.49846 
L 538.281818 73.945714 
L 540.818182 74.47129 
L 543.354545 74.827425 
L 545.890909 75.393449 
L 550.963636 76.671088 
L 553.5 76.842975 
L 556.036364 76.790339 
L 557.304545 76.931648 
L 558.572727 77.251527 
L 562.377273 78.751112 
L 566.181818 79.810213 
L 575.059091 81.676591 
L 578.863636 81.69913 
L 589.009091 81.91662 
L 591.545455 82.428218 
L 594.081818 83.447044 
L 601.690909 87.346969 
L 602.959091 87.737656 
L 604.227273 87.856819 
L 605.495455 87.705681 
L 606.763636 87.299312 
L 609.3 86.09069 
L 616.909091 82.150753 
L 618.177273 81.658769 
L 620.079545 81.293985 
L 625.786364 83.822486 
L 627.054545 83.950298 
L 629.590909 83.586126 
L 632.127273 82.928152 
L 634.663636 81.972795 
L 635.931818 81.181767 
L 637.2 80.204263 
L 639.736364 77.707081 
L 641.004545 76.369642 
L 642.272727 75.237768 
L 643.540909 74.322991 
L 645.443182 73.484613 
L 647.345455 73.535807 
L 651.15 73.802876 
L 653.686364 73.916885 
L 654.954545 74.078681 
L 657.490909 74.835637 
L 663.831818 77.869795 
L 665.1 78.165125 
L 666.368182 78.244145 
L 667.636364 78.108514 
L 671.440909 77.334784 
L 672.709091 77.461766 
L 673.977273 77.718875 
L 675.245455 78.106243 
L 676.513636 78.6672 
L 677.781818 79.450977 
L 679.05 80.398777 
L 680.318182 81.520648 
L 681.586364 82.820652 
L 682.854545 84.311937 
L 685.390909 87.828732 
L 687.927273 92.225402 
L 691.731818 99.427427 
L 694.268182 103.686108 
L 695.536364 105.445553 
L 696.804545 106.89189 
L 698.072727 108.075702 
L 700.609091 109.996201 
L 705.681818 113.80221 
L 706.95 114.253309 
L 708.218182 114.292709 
L 709.486364 114.011576 
L 710.754545 113.394269 
L 713.290909 111.698861 
L 718.363636 107.977156 
L 719.631818 106.827154 
L 720.9 105.434152 
L 725.972727 98.799855 
L 728.509091 96.201376 
L 731.045455 94.212603 
L 737.386364 89.95366 
L 739.922727 88.191244 
L 742.459091 86.736084 
L 744.995455 85.517808 
L 746.263636 85.0488 
L 747.531818 84.197361 
L 748.8 83.719005 
L 750.068182 83.105586 
L 752.604545 81.528642 
L 756.409091 79.23554 
L 758.945455 77.954013 
L 762.75 76.046793 
L 769.090909 73.190724 
L 770.359091 72.832798 
L 771.627273 72.735301 
L 772.895455 72.767451 
L 776.7 73.403365 
L 780.504545 73.366105 
L 781.772727 73.293769 
L 788.113636 72.097158 
L 790.65 71.706515 
L 791.918182 71.37755 
L 794.454545 70.301719 
L 798.259091 68.39035 
L 799.527273 67.847651 
L 800.795455 67.474917 
L 802.063636 67.360777 
L 803.331818 67.415292 
L 807.136364 67.99097 
L 809.672727 67.679434 
L 812.209091 67.313558 
L 814.745455 67.288179 
L 823.622727 68.058501 
L 826.159091 67.844069 
L 828.695455 67.496234 
L 831.231818 67.188323 
L 832.5 67.233926 
L 833.768182 67.43971 
L 836.304545 68.230694 
L 837.572727 68.658117 
L 838.840909 68.930121 
L 840.109091 69.043518 
L 842.645455 68.69114 
L 845.181818 68.356627 
L 846.45 68.320197 
L 848.986364 68.668863 
L 851.522727 69.066801 
L 854.059091 69.326924 
L 859.131818 69.689524 
L 860.4 70.108123 
L 861.668182 70.695377 
L 862.936364 71.436782 
L 865.472727 73.317488 
L 868.009091 75.178231 
L 870.545455 76.839 
L 873.081818 78.159054 
L 875.618182 79.137431 
L 876.886364 79.420662 
L 878.154545 79.528467 
L 879.422727 79.371214 
L 880.690909 79.039934 
L 883.227273 77.998218 
L 890.836364 74.179235 
L 892.104545 73.662222 
L 893.372727 73.422105 
L 894.640909 73.634047 
L 895.909091 74.464563 
L 897.177273 76.014862 
L 898.445455 78.362959 
L 899.713636 81.420879 
L 900.981818 85.175825 
L 902.25 89.552228 
L 903.518182 94.636968 
L 904.786364 100.331764 
L 906.054545 106.712534 
L 907.322727 113.70515 
L 909.859091 129.688241 
L 912.395455 147.823387 
L 918.736364 196.660224 
L 928.881818 275.081162 
L 932.686364 284.813043 
L 933.954545 294.35635 
L 933.954545 294.35635 
" clip-path="url(#pa60bce7724)" style="fill: none; stroke: #d62728; stroke-width: 1.5; stroke-linecap: square"/>
   </g>
   <g id="patch_3">
    <path d="M 135 384.48 
L 135 51.84 
" style="fill: none; stroke: #000000; stroke-width: 0.8; stroke-linejoin: miter; stroke-linecap: square"/>
   </g>
   <g id="patch_4">
    <path d="M 972 384.48 
L 972 51.84 
" style="fill: none; stroke: #000000; stroke-width: 0.8; stroke-linejoin: miter; stroke-linecap: square"/>
   </g>
   <g id="patch_5">
    <path d="M 135 384.48 
L 972 384.48 
" style="fill: none; stroke: #000000; stroke-width: 0.8; stroke-linejoin: miter; stroke-linecap: square"/>
   </g>
   <g id="patch_6">
    <path d="M 135 51.84 
L 972 51.84 
" style="fill: none; stroke: #000000; stroke-width: 0.8; stroke-linejoin: miter; stroke-linecap: square"/>
   </g>
   <g id="text_17">
    <!-- ../case2/bitrate_fig -->
    <g transform="translate(493.5 45.84) scale(0.12 -0.12)">
     <defs>
      <path id="Times New Roman-2e" d="M 800 25
Q 650 25 537 125 
Q 425 225 425 400 
Q 425 575 537 675 
Q 650 775 800 775 
Q 950 775 1062 662 
Q 1175 550 1175 400 
Q 1175 225 1062 125 
Q 950 25 800 25 
z
" transform="scale(0.015625)"/>
      <path id="Times New Roman-2f" d="M 400 -475
L 225 -375 
L 2775 4975 
L 2950 4875 
L 400 -475 
z
" transform="scale(0.015625)"/>
      <path id="Times New Roman-63" d="M 2150 2225
Q 2150 2300 2175 2325 
Q 2175 2350 2200 2425 
Q 2225 2525 2100 2662 
Q 1975 2800 1675 2800 
Q 1300 2800 1037 2437 
Q 775 2075 775 1475 
Q 775 925 1000 587 
Q 1225 250 1750 250 
Q 2100 250 2337 475 
Q 2575 700 2675 1000 
L 2800 950 
Q 2700 575 2425 312 
Q 2150 50 1675 50 
Q 1075 50 725 425 
Q 375 800 375 1500 
Q 375 2125 750 2537 
Q 1125 2950 1725 2950 
Q 2150 2950 2387 2725 
Q 2625 2500 2625 2275 
Q 2625 2125 2562 2062 
Q 2500 2000 2375 2000 
Q 2275 2000 2212 2062 
Q 2150 2125 2150 2225 
z
" transform="scale(0.015625)"/>
      <path id="Times New Roman-72" d="M 1275 2125
Q 1525 2525 1812 2737 
Q 2100 2950 2400 2950 
Q 2650 2950 2787 2837 
Q 2925 2725 2925 2575 
Q 2925 2450 2862 2375 
Q 2800 2300 2675 2300 
Q 2550 2300 2487 2375 
Q 2425 2450 2450 2575 
Q 2450 2650 2425 2700 
Q 2400 2750 2275 2750 
Q 2075 2750 1787 2500 
Q 1500 2250 1275 1800 
L 1275 450 
Q 1275 350 1337 300 
Q 1400 250 1500 250 
L 2050 250 
L 2050 100 
L 200 100 
L 200 250 
L 700 250 
Q 825 250 875 300 
Q 925 350 925 450 
L 925 2525 
Q 925 2625 875 2687 
Q 825 2750 700 2750 
L 225 2750 
L 225 2900 
L 425 2900 
Q 600 2900 837 2937 
Q 1075 2975 1200 3025 
L 1275 3025 
L 1275 2125 
z
" transform="scale(0.015625)"/>
      <path id="Times New Roman-5f" d="M 0 -875
L 0 -725 
L 3175 -725 
L 3175 -875 
L 0 -875 
z
" transform="scale(0.015625)"/>
      <path id="Times New Roman-66" d="M 1125 3325
Q 1125 3850 1450 4112 
Q 1775 4375 2175 4375 
Q 2600 4375 2812 4225 
Q 3025 4075 3025 3875 
Q 3025 3775 2975 3700 
Q 2925 3625 2775 3625 
Q 2675 3625 2612 3675 
Q 2550 3725 2550 3850 
Q 2550 3875 2575 3925 
Q 2575 3975 2575 4000 
Q 2575 4100 2500 4162 
Q 2425 4225 2150 4225 
Q 1850 4225 1662 4037 
Q 1475 3850 1475 3400 
L 1475 2900 
L 2525 2900 
L 2525 2750 
L 1475 2750 
L 1475 450 
Q 1475 350 1537 300 
Q 1600 250 1700 250 
L 2300 250 
L 2300 100 
L 475 100 
L 475 250 
L 900 250 
Q 1025 250 1075 300 
Q 1125 350 1125 450 
L 1125 2750 
L 350 2750 
L 350 2900 
L 1125 2900 
L 1125 3325 
z
" transform="scale(0.015625)"/>
      <path id="Times New Roman-67" d="M 875 1975
Q 875 1675 1050 1462 
Q 1225 1250 1525 1250 
Q 1850 1250 2012 1437 
Q 2175 1625 2175 1975 
Q 2175 2400 1987 2587 
Q 1800 2775 1525 2775 
Q 1250 2775 1062 2587 
Q 875 2400 875 1975 
z
M 2100 625 
Q 2475 575 2650 412 
Q 2825 250 2825 -25 
Q 2825 -400 2512 -625 
Q 2200 -850 1525 -850 
Q 1000 -850 675 -637 
Q 350 -425 350 -150 
Q 350 25 475 200 
Q 600 375 875 475 
Q 725 550 637 637 
Q 550 725 550 850 
Q 550 1000 650 1112 
Q 750 1225 900 1300 
Q 750 1425 637 1600 
Q 525 1775 525 1975 
Q 525 2350 787 2637 
Q 1050 2925 1525 2925 
Q 1725 2925 1912 2875 
Q 2100 2825 2225 2700 
Q 2400 2825 2537 2887 
Q 2675 2950 2775 2950 
Q 2900 2950 2950 2862 
Q 3000 2775 3000 2700 
Q 3000 2600 2962 2537 
Q 2925 2475 2825 2475 
Q 2750 2475 2700 2512 
Q 2650 2550 2625 2625 
Q 2600 2700 2512 2687 
Q 2425 2675 2325 2600 
Q 2425 2500 2475 2325 
Q 2525 2150 2525 1975 
Q 2525 1675 2287 1387 
Q 2050 1100 1525 1100 
Q 1375 1100 1250 1137 
Q 1125 1175 1050 1225 
Q 950 1175 900 1100 
Q 850 1025 850 975 
Q 850 875 900 825 
Q 950 775 1050 775 
Q 1375 725 1637 687 
Q 1900 650 2100 625 
z
M 1075 425 
Q 850 325 762 187 
Q 675 50 675 -150 
Q 675 -350 900 -525 
Q 1125 -700 1575 -700 
Q 2000 -700 2250 -562 
Q 2500 -425 2500 -150 
Q 2500 25 2437 125 
Q 2375 225 2250 250 
Q 2000 300 1700 350 
Q 1400 375 1075 425 
z
" transform="scale(0.015625)"/>
     </defs>
     <use xlink:href="#Times New Roman-2e"/>
     <use xlink:href="#Times New Roman-2e" x="50"/>
     <use xlink:href="#Times New Roman-2f" x="100"/>
     <use xlink:href="#Times New Roman-63" x="150"/>
     <use xlink:href="#Times New Roman-61" x="200"/>
     <use xlink:href="#Times New Roman-73" x="250"/>
     <use xlink:href="#Times New Roman-65" x="300"/>
     <use xlink:href="#Times New Roman-32" x="350"/>
     <use xlink:href="#Times New Roman-2f" x="400"/>
     <use xlink:href="#Times New Roman-62" x="450"/>
     <use xlink:href="#Times New Roman-69" x="500"/>
     <use xlink:href="#Times New Roman-74" x="550"/>
     <use xlink:href="#Times New Roman-72" x="600"/>
     <use xlink:href="#Times New Roman-61" x="650"/>
     <use xlink:href="#Times New Roman-74" x="700"/>
     <use xlink:href="#Times New Roman-65" x="750"/>
     <use xlink:href="#Times New Roman-5f" x="800"/>
     <use xlink:href="#Times New Roman-66" x="850"/>
     <use xlink:href="#Times New Roman-69" x="900"/>
     <use xlink:href="#Times New Roman-67" x="950"/>
    </g>
   </g>
   <g id="legend_1">
    <g id="patch_7">
     <path d="M 903 379.48 
L 965 379.48 
Q 967 379.48 967 377.48 
L 967 324.73 
Q 967 322.73 965 322.73 
L 903 322.73 
Q 901 322.73 901 324.73 
L 901 377.48 
Q 901 379.48 903 379.48 
z
" style="fill: #ffffff; opacity: 0.8; stroke: #cccccc; stroke-linejoin: miter"/>
    </g>
    <g id="line2d_33">
     <path d="M 905 330.378438 
L 915 330.378438 
L 925 330.378438 
" style="fill: none; stroke: #1f77b4; stroke-width: 1.5; stroke-linecap: square"/>
    </g>
    <g id="text_18">
     <!-- buffer -->
     <g transform="translate(933 333.878438) scale(0.1 -0.1)">
      <defs>
       <path id="Times New Roman-75" d="M 1450 325
Q 1750 325 1962 475 
Q 2175 625 2275 950 
L 2275 2525 
Q 2275 2625 2225 2687 
Q 2175 2750 2050 2750 
L 1900 2750 
L 1900 2900 
L 2050 2900 
Q 2200 2900 2325 2925 
Q 2450 2950 2575 3050 
L 2625 3050 
L 2625 600 
Q 2625 500 2687 450 
Q 2750 400 2850 400 
L 3000 400 
L 3000 250 
L 2850 250 
Q 2725 250 2600 212 
Q 2475 175 2325 100 
L 2275 100 
L 2275 625 
Q 2150 350 1900 212 
Q 1650 75 1325 75 
Q 925 75 725 300 
Q 525 525 525 1025 
L 525 2525 
Q 525 2625 475 2687 
Q 425 2750 300 2750 
L 150 2750 
L 150 2900 
L 300 2900 
Q 450 2900 575 2925 
Q 700 2950 825 3050 
L 875 3050 
L 875 975 
Q 875 625 1025 475 
Q 1175 325 1450 325 
z
" transform="scale(0.015625)"/>
      </defs>
      <use xlink:href="#Times New Roman-62"/>
      <use xlink:href="#Times New Roman-75" x="50"/>
      <use xlink:href="#Times New Roman-66" x="100"/>
      <use xlink:href="#Times New Roman-66" x="150"/>
      <use xlink:href="#Times New Roman-65" x="200"/>
      <use xlink:href="#Times New Roman-72" x="250"/>
     </g>
    </g>
    <g id="line2d_34">
     <path d="M 905 343.815938 
L 915 343.815938 
L 925 343.815938 
" style="fill: none; stroke: #ff7f0e; stroke-width: 1.5; stroke-linecap: square"/>
    </g>
    <g id="text_19">
     <!-- buffer -->
     <g transform="translate(933 347.315938) scale(0.1 -0.1)">
      <use xlink:href="#Times New Roman-62"/>
      <use xlink:href="#Times New Roman-75" x="50"/>
      <use xlink:href="#Times New Roman-66" x="100"/>
      <use xlink:href="#Times New Roman-66" x="150"/>
      <use xlink:href="#Times New Roman-65" x="200"/>
      <use xlink:href="#Times New Roman-72" x="250"/>
     </g>
    </g>
    <g id="line2d_35">
     <path d="M 905 357.253438 
L 915 357.253438 
L 925 357.253438 
" style="fill: none; stroke: #2ca02c; stroke-width: 1.5; stroke-linecap: square"/>
    </g>
    <g id="text_20">
     <!-- buffer -->
     <g transform="translate(933 360.753438) scale(0.1 -0.1)">
      <use xlink:href="#Times New Roman-62"/>
      <use xlink:href="#Times New Roman-75" x="50"/>
      <use xlink:href="#Times New Roman-66" x="100"/>
      <use xlink:href="#Times New Roman-66" x="150"/>
      <use xlink:href="#Times New Roman-65" x="200"/>
      <use xlink:href="#Times New Roman-72" x="250"/>
     </g>
    </g>
    <g id="line2d_36">
     <path d="M 905 370.690938 
L 915 370.690938 
L 925 370.690938 
" style="fill: none; stroke: #d62728; stroke-width: 1.5; stroke-linecap: square"/>
    </g>
    <g id="text_21">
     <!-- buffer -->
     <g transform="translate(933 374.190938) scale(0.1 -0.1)">
      <use xlink:href="#Times New Roman-62"/>
      <use xlink:href="#Times New Roman-75" x="50"/>
      <use xlink:href="#Times New Roman-66" x="100"/>
      <use xlink:href="#Times New Roman-66" x="150"/>
      <use xlink:href="#Times New Roman-65" x="200"/>
      <use xlink:href="#Times New Roman-72" x="250"/>
     </g>
    </g>
   </g>
  </g>
 </g>
 <defs>
  <clipPath id="pa60bce7724">
   <rect x="135" y="51.84" width="837" height="332.64"/>
  </clipPath>
 </defs>
</svg>
