<?xml version="1.0" encoding="utf-8" standalone="no"?>
<!DOCTYPE svg PUBLIC "-//W3C//DTD SVG 1.1//EN"
  "http://www.w3.org/Graphics/SVG/1.1/DTD/svg11.dtd">
<svg xmlns:xlink="http://www.w3.org/1999/xlink" width="1080pt" height="432pt" viewBox="0 0 1080 432" xmlns="http://www.w3.org/2000/svg" version="1.1">
 <metadata>
  <rdf:RDF xmlns:dc="http://purl.org/dc/elements/1.1/" xmlns:cc="http://creativecommons.org/ns#" xmlns:rdf="http://www.w3.org/1999/02/22-rdf-syntax-ns#">
   <cc:Work>
    <dc:type rdf:resource="http://purl.org/dc/dcmitype/StillImage"/>
    <dc:date>2024-04-10T16:38:02.369920</dc:date>
    <dc:format>image/svg+xml</dc:format>
    <dc:creator>
     <cc:Agent>
      <dc:title>Matplotlib v3.8.3, https://matplotlib.org/</dc:title>
     </cc:Agent>
    </dc:creator>
   </cc:Work>
  </rdf:RDF>
 </metadata>
 <defs>
  <style type="text/css">*{stroke-linejoin: round; stroke-linecap: butt}</style>
 </defs>
 <g id="figure_1">
  <g id="patch_1">
   <path d="M 0 432 
L 1080 432 
L 1080 0 
L 0 0 
z
" style="fill: #ffffff"/>
  </g>
  <g id="axes_1">
   <g id="patch_2">
    <path d="M 135 384.48 
L 972 384.48 
L 972 51.84 
L 135 51.84 
z
" style="fill: #ffffff"/>
   </g>
   <g id="matplotlib.axis_1">
    <g id="xtick_1">
     <g id="line2d_1">
      <defs>
       <path id="m2e9e556247" d="M 0 0 
L 0 3.5 
" style="stroke: #000000; stroke-width: 0.8"/>
      </defs>
      <g>
       <use xlink:href="#m2e9e556247" x="173.045455" y="384.48" style="stroke: #000000; stroke-width: 0.8"/>
      </g>
     </g>
     <g id="text_1">
      <!-- 0 -->
      <g transform="translate(170.545455 398.628438) scale(0.1 -0.1)">
       <defs>
        <path id="Times New Roman-30" d="M 1600 4225
Q 1250 4225 1012 3687 
Q 775 3150 775 2250 
Q 775 1300 1012 775 
Q 1250 250 1600 250 
Q 1975 250 2187 775 
Q 2400 1300 2400 2250 
Q 2400 3150 2200 3687 
Q 2000 4225 1600 4225 
z
M 1600 50 
Q 1050 50 675 625 
Q 300 1200 300 2250 
Q 300 3225 662 3825 
Q 1025 4425 1600 4425 
Q 2150 4425 2512 3850 
Q 2875 3275 2875 2250 
Q 2875 1225 2512 637 
Q 2150 50 1600 50 
z
" transform="scale(0.015625)"/>
       </defs>
       <use xlink:href="#Times New Roman-30"/>
      </g>
     </g>
    </g>
    <g id="xtick_2">
     <g id="line2d_2">
      <g>
       <use xlink:href="#m2e9e556247" x="299.863636" y="384.48" style="stroke: #000000; stroke-width: 0.8"/>
      </g>
     </g>
     <g id="text_2">
      <!-- 100 -->
      <g transform="translate(292.363636 398.628438) scale(0.1 -0.1)">
       <defs>
        <path id="Times New Roman-31" d="M 1825 4450
L 1825 650 
Q 1825 450 1950 350 
Q 2075 250 2300 250 
L 2550 250 
L 2550 100 
L 725 100 
L 725 250 
L 950 250 
Q 1200 250 1312 350 
Q 1425 450 1425 650 
L 1425 3675 
Q 1425 3775 1362 3837 
Q 1300 3900 1175 3900 
L 725 3900 
L 725 4050 
L 950 4050 
Q 1250 4050 1437 4150 
Q 1625 4250 1725 4450 
L 1825 4450 
z
" transform="scale(0.015625)"/>
       </defs>
       <use xlink:href="#Times New Roman-31"/>
       <use xlink:href="#Times New Roman-30" x="50"/>
       <use xlink:href="#Times New Roman-30" x="100"/>
      </g>
     </g>
    </g>
    <g id="xtick_3">
     <g id="line2d_3">
      <g>
       <use xlink:href="#m2e9e556247" x="426.681818" y="384.48" style="stroke: #000000; stroke-width: 0.8"/>
      </g>
     </g>
     <g id="text_3">
      <!-- 200 -->
      <g transform="translate(419.181818 398.628438) scale(0.1 -0.1)">
       <defs>
        <path id="Times New Roman-32" d="M 2325 3325
Q 2325 3775 2125 4012 
Q 1925 4250 1525 4250 
Q 1225 4250 1012 4087 
Q 800 3925 800 3675 
Q 800 3525 900 3425 
Q 975 3325 975 3225 
Q 975 3100 912 3037 
Q 850 2975 725 2975 
Q 575 2975 487 3062 
Q 400 3150 400 3350 
Q 400 3875 775 4150 
Q 1150 4425 1575 4425 
Q 2175 4425 2462 4125 
Q 2750 3825 2750 3375 
Q 2750 3075 2612 2775 
Q 2475 2475 2175 2200 
Q 1450 1500 1062 1062 
Q 675 625 600 475 
L 2075 475 
Q 2300 475 2450 650 
Q 2600 825 2650 1175 
L 2800 1175 
L 2650 100 
L 325 100 
L 325 425 
Q 450 650 737 1000 
Q 1025 1350 1500 1825 
Q 1925 2250 2125 2625 
Q 2325 3000 2325 3325 
z
" transform="scale(0.015625)"/>
       </defs>
       <use xlink:href="#Times New Roman-32"/>
       <use xlink:href="#Times New Roman-30" x="50"/>
       <use xlink:href="#Times New Roman-30" x="100"/>
      </g>
     </g>
    </g>
    <g id="xtick_4">
     <g id="line2d_4">
      <g>
       <use xlink:href="#m2e9e556247" x="553.5" y="384.48" style="stroke: #000000; stroke-width: 0.8"/>
      </g>
     </g>
     <g id="text_4">
      <!-- 300 -->
      <g transform="translate(546 398.628438) scale(0.1 -0.1)">
       <defs>
        <path id="Times New Roman-33" d="M 2800 1250
Q 2800 775 2450 412 
Q 2100 50 1475 50 
Q 1025 50 700 300 
Q 375 550 375 875 
Q 375 1025 475 1137 
Q 575 1250 675 1250 
Q 825 1250 887 1137 
Q 950 1025 950 950 
Q 950 825 900 750 
Q 850 650 850 575 
Q 850 425 1037 325 
Q 1225 225 1450 225 
Q 1900 225 2125 487 
Q 2350 750 2350 1300 
Q 2350 1750 2112 2025 
Q 1875 2300 1225 2300 
L 1225 2475 
Q 1725 2475 1962 2712 
Q 2200 2950 2200 3375 
Q 2200 3725 2012 3987 
Q 1825 4250 1425 4250 
Q 1250 4250 1050 4162 
Q 850 4075 850 3875 
Q 850 3675 900 3625 
Q 950 3575 950 3500 
Q 950 3375 900 3300 
Q 850 3225 725 3225 
Q 625 3225 537 3300 
Q 450 3375 450 3575 
Q 450 3950 775 4187 
Q 1100 4425 1525 4425 
Q 2025 4425 2325 4112 
Q 2625 3800 2625 3450 
Q 2625 3075 2437 2812 
Q 2250 2550 1850 2425 
Q 2400 2225 2600 1900 
Q 2800 1575 2800 1250 
z
" transform="scale(0.015625)"/>
       </defs>
       <use xlink:href="#Times New Roman-33"/>
       <use xlink:href="#Times New Roman-30" x="50"/>
       <use xlink:href="#Times New Roman-30" x="100"/>
      </g>
     </g>
    </g>
    <g id="xtick_5">
     <g id="line2d_5">
      <g>
       <use xlink:href="#m2e9e556247" x="680.318182" y="384.48" style="stroke: #000000; stroke-width: 0.8"/>
      </g>
     </g>
     <g id="text_5">
      <!-- 400 -->
      <g transform="translate(672.818182 398.628438) scale(0.1 -0.1)">
       <defs>
        <path id="Times New Roman-34" d="M 2300 575
Q 2300 400 2400 325 
Q 2500 250 2675 250 
L 2900 250 
L 2900 100 
L 1250 100 
L 1250 250 
L 1525 250 
Q 1725 250 1812 325 
Q 1900 400 1900 575 
L 1900 1400 
L 225 1400 
L 225 1525 
L 2050 4425 
L 2300 4425 
L 2300 1550 
L 2975 1550 
L 2975 1400 
L 2300 1400 
L 2300 575 
z
M 1875 3800 
L 450 1550 
L 1900 1550 
L 1900 3800 
L 1875 3800 
z
" transform="scale(0.015625)"/>
       </defs>
       <use xlink:href="#Times New Roman-34"/>
       <use xlink:href="#Times New Roman-30" x="50"/>
       <use xlink:href="#Times New Roman-30" x="100"/>
      </g>
     </g>
    </g>
    <g id="xtick_6">
     <g id="line2d_6">
      <g>
       <use xlink:href="#m2e9e556247" x="807.136364" y="384.48" style="stroke: #000000; stroke-width: 0.8"/>
      </g>
     </g>
     <g id="text_6">
      <!-- 500 -->
      <g transform="translate(799.636364 398.628438) scale(0.1 -0.1)">
       <defs>
        <path id="Times New Roman-35" d="M 1725 2850
Q 2200 2850 2500 2487 
Q 2800 2125 2800 1525 
Q 2800 850 2487 450 
Q 2175 50 1525 50 
Q 1075 50 725 312 
Q 375 575 375 950 
Q 375 1100 462 1212 
Q 550 1325 700 1325 
Q 850 1325 900 1225 
Q 950 1125 950 1050 
Q 950 900 875 825 
Q 800 725 800 625 
Q 800 425 1037 325 
Q 1275 225 1550 225 
Q 1950 225 2162 550 
Q 2375 875 2375 1475 
Q 2375 1975 2187 2287 
Q 2000 2600 1625 2600 
Q 1350 2600 1150 2500 
Q 950 2400 775 2075 
L 550 2100 
L 675 4375 
L 2725 4375 
L 2650 4000 
L 850 4000 
L 750 2350 
Q 1000 2700 1237 2775 
Q 1475 2850 1725 2850 
z
" transform="scale(0.015625)"/>
       </defs>
       <use xlink:href="#Times New Roman-35"/>
       <use xlink:href="#Times New Roman-30" x="50"/>
       <use xlink:href="#Times New Roman-30" x="100"/>
      </g>
     </g>
    </g>
    <g id="xtick_7">
     <g id="line2d_7">
      <g>
       <use xlink:href="#m2e9e556247" x="933.954545" y="384.48" style="stroke: #000000; stroke-width: 0.8"/>
      </g>
     </g>
     <g id="text_7">
      <!-- 600 -->
      <g transform="translate(926.454545 398.628438) scale(0.1 -0.1)">
       <defs>
        <path id="Times New Roman-36" d="M 775 1800
Q 775 1050 1037 637 
Q 1300 225 1675 225 
Q 2050 225 2250 500 
Q 2450 775 2450 1525 
Q 2450 2025 2237 2300 
Q 2025 2575 1725 2575 
Q 1450 2575 1212 2412 
Q 975 2250 775 1800 
z
M 1750 2825 
Q 2350 2825 2612 2425 
Q 2875 2025 2875 1525 
Q 2875 775 2512 412 
Q 2150 50 1675 50 
Q 1000 50 650 562 
Q 300 1075 300 2050 
Q 300 3200 725 3812 
Q 1150 4425 1875 4425 
Q 2225 4425 2437 4225 
Q 2650 4025 2650 3875 
Q 2650 3725 2587 3650 
Q 2525 3575 2375 3575 
Q 2250 3575 2187 3637 
Q 2125 3700 2125 3825 
Q 2125 3875 2150 3925 
Q 2150 3975 2150 4025 
Q 2150 4125 2075 4187 
Q 2000 4250 1800 4250 
Q 1375 4250 1075 3862 
Q 775 3475 775 2175 
Q 925 2500 1187 2662 
Q 1450 2825 1750 2825 
z
" transform="scale(0.015625)"/>
       </defs>
       <use xlink:href="#Times New Roman-36"/>
       <use xlink:href="#Times New Roman-30" x="50"/>
       <use xlink:href="#Times New Roman-30" x="100"/>
      </g>
     </g>
    </g>
    <g id="text_8">
     <!-- Time (s) -->
     <g transform="translate(533.5 411.534688) scale(0.1 -0.1)">
      <defs>
       <path id="Times New Roman-54" d="M 2225 100
L 925 100 
L 925 250 
L 1150 250 
Q 1275 250 1325 300 
Q 1375 350 1375 450 
L 1375 3950 
Q 1375 4150 1350 4175 
Q 1325 4200 1150 4200 
Q 800 4200 662 4075 
Q 525 3950 325 3400 
L 175 3425 
L 400 4375 
L 2775 4375 
L 2975 3425 
L 2850 3400 
Q 2650 3925 2537 4062 
Q 2425 4200 2075 4200 
Q 1825 4200 1800 4175 
Q 1775 4150 1775 3925 
L 1775 450 
Q 1775 350 1837 300 
Q 1900 250 2000 250 
L 2225 250 
L 2225 100 
z
" transform="scale(0.015625)"/>
       <path id="Times New Roman-69" d="M 1425 2525
Q 1425 2625 1375 2687 
Q 1325 2750 1200 2750 
L 675 2750 
L 675 2900 
L 925 2900 
Q 1150 2900 1350 2937 
Q 1550 2975 1725 3075 
L 1775 3075 
L 1775 450 
Q 1775 350 1837 300 
Q 1900 250 2000 250 
L 2525 250 
L 2525 100 
L 675 100 
L 675 250 
L 1200 250 
Q 1325 250 1375 300 
Q 1425 350 1425 450 
L 1425 2525 
z
M 1725 3025 
L 1725 3025 
z
M 1625 4425 
Q 1750 4425 1850 4337 
Q 1950 4250 1950 4125 
Q 1950 4000 1850 3900 
Q 1750 3800 1625 3800 
Q 1500 3800 1400 3900 
Q 1300 4000 1300 4125 
Q 1300 4250 1400 4337 
Q 1500 4425 1625 4425 
z
" transform="scale(0.015625)"/>
       <path id="Times New Roman-6d" d="M 175 2900
Q 300 2900 425 2925 
Q 550 2950 625 3000 
L 675 3000 
L 675 2575 
Q 800 2775 950 2862 
Q 1100 2950 1275 2950 
Q 1500 2950 1625 2862 
Q 1750 2775 1775 2575 
Q 1900 2775 2062 2862 
Q 2225 2950 2400 2950 
Q 2700 2950 2812 2775 
Q 2925 2600 2925 2325 
L 2925 425 
Q 2925 325 2975 287 
Q 3025 250 3125 250 
L 3175 250 
L 3175 100 
L 2325 100 
L 2325 250 
L 2375 250 
Q 2475 250 2525 287 
Q 2575 325 2575 425 
L 2575 2300 
Q 2575 2575 2512 2662 
Q 2450 2750 2325 2750 
Q 2150 2750 2012 2625 
Q 1875 2500 1800 2275 
L 1800 425 
Q 1800 325 1850 287 
Q 1900 250 2000 250 
L 2050 250 
L 2050 100 
L 1200 100 
L 1200 250 
L 1250 250 
Q 1350 250 1400 287 
Q 1450 325 1450 425 
L 1450 2300 
Q 1450 2525 1400 2637 
Q 1350 2750 1200 2750 
Q 1025 2750 887 2625 
Q 750 2500 675 2250 
L 675 425 
Q 675 325 725 287 
Q 775 250 875 250 
L 925 250 
L 925 100 
L 75 100 
L 75 250 
L 125 250 
Q 225 250 275 287 
Q 325 325 325 425 
L 325 2600 
Q 325 2675 300 2712 
Q 275 2750 200 2750 
L 100 2750 
L 100 2900 
L 175 2900 
z
" transform="scale(0.015625)"/>
       <path id="Times New Roman-65" d="M 2400 1650
Q 2425 2200 2212 2487 
Q 2000 2775 1650 2775 
Q 1275 2775 1037 2475 
Q 800 2175 800 1650 
L 2400 1650 
z
M 800 1500 
Q 800 825 1062 537 
Q 1325 250 1750 250 
Q 2075 250 2300 437 
Q 2525 625 2625 900 
L 2750 850 
Q 2675 575 2412 312 
Q 2150 50 1700 50 
Q 1125 50 762 425 
Q 400 800 400 1500 
Q 400 2125 762 2537 
Q 1125 2950 1650 2950 
Q 2125 2950 2475 2625 
Q 2825 2300 2825 1500 
L 800 1500 
z
" transform="scale(0.015625)"/>
       <path id="Times New Roman-20" d="M 0 0
Q 0 0 0 0 
z
" transform="scale(0.015625)"/>
       <path id="Times New Roman-28" d="M 2900 5025
Q 2325 4425 2037 3737 
Q 1750 3050 1750 2300 
Q 1750 1525 2037 850 
Q 2325 175 2900 -425 
L 2775 -550 
Q 2075 75 1725 787 
Q 1375 1500 1375 2300 
Q 1375 3075 1725 3787 
Q 2075 4500 2775 5150 
L 2900 5025 
z
" transform="scale(0.015625)"/>
       <path id="Times New Roman-73" d="M 625 2175
Q 625 2550 912 2750 
Q 1200 2950 1600 2950 
Q 1825 2950 2025 2900 
Q 2225 2825 2300 2825 
Q 2375 2825 2425 2850 
Q 2475 2875 2550 2950 
L 2650 2125 
L 2500 2100 
Q 2400 2425 2162 2612 
Q 1925 2800 1625 2800 
Q 1300 2800 1112 2675 
Q 925 2550 925 2325 
Q 925 2125 1012 2012 
Q 1100 1900 1325 1850 
Q 1500 1775 1775 1700 
Q 2025 1600 2250 1500 
Q 2450 1400 2587 1237 
Q 2725 1075 2725 875 
Q 2725 500 2462 287 
Q 2200 75 1700 75 
Q 1375 75 1225 150 
Q 1050 200 950 200 
Q 875 200 787 162 
Q 700 125 600 75 
L 525 1000 
L 675 1025 
Q 750 625 1000 425 
Q 1250 225 1700 225 
Q 2050 225 2237 350 
Q 2425 475 2425 725 
Q 2425 900 2325 1012 
Q 2225 1125 2125 1175 
Q 1875 1275 1575 1400 
Q 1275 1500 1050 1600 
Q 825 1700 725 1850 
Q 625 2000 625 2175 
z
" transform="scale(0.015625)"/>
       <path id="Times New Roman-29" d="M 275 5025
L 400 5150 
Q 1100 4500 1450 3787 
Q 1800 3075 1800 2300 
Q 1800 1500 1450 787 
Q 1100 75 400 -550 
L 275 -425 
Q 850 175 1137 850 
Q 1425 1525 1425 2300 
Q 1425 3050 1137 3737 
Q 850 4425 275 5025 
z
" transform="scale(0.015625)"/>
      </defs>
      <use xlink:href="#Times New Roman-54"/>
      <use xlink:href="#Times New Roman-69" x="50"/>
      <use xlink:href="#Times New Roman-6d" x="100"/>
      <use xlink:href="#Times New Roman-65" x="150"/>
      <use xlink:href="#Times New Roman-20" x="200"/>
      <use xlink:href="#Times New Roman-28" x="250"/>
      <use xlink:href="#Times New Roman-73" x="300"/>
      <use xlink:href="#Times New Roman-29" x="350"/>
     </g>
    </g>
   </g>
   <g id="matplotlib.axis_2">
    <g id="ytick_1">
     <g id="line2d_8">
      <defs>
       <path id="m25feaa5fe9" d="M 0 0 
L -3.5 0 
" style="stroke: #000000; stroke-width: 0.8"/>
      </defs>
      <g>
       <use xlink:href="#m25feaa5fe9" x="135" y="370.178926" style="stroke: #000000; stroke-width: 0.8"/>
      </g>
     </g>
     <g id="text_9">
      <!-- 0 -->
      <g transform="translate(123 373.753145) scale(0.1 -0.1)">
       <use xlink:href="#Times New Roman-30"/>
      </g>
     </g>
    </g>
    <g id="ytick_2">
     <g id="line2d_9">
      <g>
       <use xlink:href="#m25feaa5fe9" x="135" y="332.487172" style="stroke: #000000; stroke-width: 0.8"/>
      </g>
     </g>
     <g id="text_10">
      <!-- 500 -->
      <g transform="translate(113 336.061391) scale(0.1 -0.1)">
       <use xlink:href="#Times New Roman-35"/>
       <use xlink:href="#Times New Roman-30" x="50"/>
       <use xlink:href="#Times New Roman-30" x="100"/>
      </g>
     </g>
    </g>
    <g id="ytick_3">
     <g id="line2d_10">
      <g>
       <use xlink:href="#m25feaa5fe9" x="135" y="294.795418" style="stroke: #000000; stroke-width: 0.8"/>
      </g>
     </g>
     <g id="text_11">
      <!-- 1000 -->
      <g transform="translate(108 298.369636) scale(0.1 -0.1)">
       <use xlink:href="#Times New Roman-31"/>
       <use xlink:href="#Times New Roman-30" x="50"/>
       <use xlink:href="#Times New Roman-30" x="100"/>
       <use xlink:href="#Times New Roman-30" x="150"/>
      </g>
     </g>
    </g>
    <g id="ytick_4">
     <g id="line2d_11">
      <g>
       <use xlink:href="#m25feaa5fe9" x="135" y="257.103663" style="stroke: #000000; stroke-width: 0.8"/>
      </g>
     </g>
     <g id="text_12">
      <!-- 1500 -->
      <g transform="translate(108 260.677882) scale(0.1 -0.1)">
       <use xlink:href="#Times New Roman-31"/>
       <use xlink:href="#Times New Roman-35" x="50"/>
       <use xlink:href="#Times New Roman-30" x="100"/>
       <use xlink:href="#Times New Roman-30" x="150"/>
      </g>
     </g>
    </g>
    <g id="ytick_5">
     <g id="line2d_12">
      <g>
       <use xlink:href="#m25feaa5fe9" x="135" y="219.411909" style="stroke: #000000; stroke-width: 0.8"/>
      </g>
     </g>
     <g id="text_13">
      <!-- 2000 -->
      <g transform="translate(108 222.986128) scale(0.1 -0.1)">
       <use xlink:href="#Times New Roman-32"/>
       <use xlink:href="#Times New Roman-30" x="50"/>
       <use xlink:href="#Times New Roman-30" x="100"/>
       <use xlink:href="#Times New Roman-30" x="150"/>
      </g>
     </g>
    </g>
    <g id="ytick_6">
     <g id="line2d_13">
      <g>
       <use xlink:href="#m25feaa5fe9" x="135" y="181.720155" style="stroke: #000000; stroke-width: 0.8"/>
      </g>
     </g>
     <g id="text_14">
      <!-- 2500 -->
      <g transform="translate(108 185.294373) scale(0.1 -0.1)">
       <use xlink:href="#Times New Roman-32"/>
       <use xlink:href="#Times New Roman-35" x="50"/>
       <use xlink:href="#Times New Roman-30" x="100"/>
       <use xlink:href="#Times New Roman-30" x="150"/>
      </g>
     </g>
    </g>
    <g id="ytick_7">
     <g id="line2d_14">
      <g>
       <use xlink:href="#m25feaa5fe9" x="135" y="144.0284" style="stroke: #000000; stroke-width: 0.8"/>
      </g>
     </g>
     <g id="text_15">
      <!-- 3000 -->
      <g transform="translate(108 147.602619) scale(0.1 -0.1)">
       <use xlink:href="#Times New Roman-33"/>
       <use xlink:href="#Times New Roman-30" x="50"/>
       <use xlink:href="#Times New Roman-30" x="100"/>
       <use xlink:href="#Times New Roman-30" x="150"/>
      </g>
     </g>
    </g>
    <g id="ytick_8">
     <g id="line2d_15">
      <g>
       <use xlink:href="#m25feaa5fe9" x="135" y="106.336646" style="stroke: #000000; stroke-width: 0.8"/>
      </g>
     </g>
     <g id="text_16">
      <!-- 3500 -->
      <g transform="translate(108 109.910865) scale(0.1 -0.1)">
       <use xlink:href="#Times New Roman-33"/>
       <use xlink:href="#Times New Roman-35" x="50"/>
       <use xlink:href="#Times New Roman-30" x="100"/>
       <use xlink:href="#Times New Roman-30" x="150"/>
      </g>
     </g>
    </g>
    <g id="ytick_9">
     <g id="line2d_16">
      <g>
       <use xlink:href="#m25feaa5fe9" x="135" y="68.644892" style="stroke: #000000; stroke-width: 0.8"/>
      </g>
     </g>
     <g id="text_17">
      <!-- 4000 -->
      <g transform="translate(108 72.219111) scale(0.1 -0.1)">
       <use xlink:href="#Times New Roman-34"/>
       <use xlink:href="#Times New Roman-30" x="50"/>
       <use xlink:href="#Times New Roman-30" x="100"/>
       <use xlink:href="#Times New Roman-30" x="150"/>
      </g>
     </g>
    </g>
    <g id="text_18">
     <!-- Bite Rate (kbps) -->
     <g transform="translate(102.710938 258.16) rotate(-90) scale(0.1 -0.1)">
      <defs>
       <path id="Times New Roman-42" d="M 100 100
L 100 250 
L 300 250 
Q 425 250 475 300 
Q 525 350 525 450 
L 525 4025 
Q 525 4125 475 4175 
Q 425 4225 300 4225 
L 150 4225 
L 150 4375 
L 1600 4375 
Q 2200 4375 2487 4137 
Q 2775 3900 2775 3400 
Q 2775 3050 2625 2825 
Q 2475 2600 2000 2425 
Q 2575 2250 2775 1925 
Q 2975 1600 2975 1200 
Q 2975 700 2625 400 
Q 2275 100 1675 100 
L 100 100 
z
M 1600 250 
Q 2025 250 2262 512 
Q 2500 775 2500 1250 
Q 2500 1800 2250 2062 
Q 2000 2325 1500 2325 
L 925 2325 
L 925 450 
Q 925 350 987 300 
Q 1050 250 1150 250 
L 1600 250 
z
M 2350 3400 
Q 2350 3850 2100 4037 
Q 1850 4225 1450 4225 
L 1150 4225 
Q 1050 4225 987 4175 
Q 925 4125 925 4025 
L 925 2475 
L 1575 2475 
Q 1850 2475 2100 2700 
Q 2350 2925 2350 3400 
z
" transform="scale(0.015625)"/>
       <path id="Times New Roman-74" d="M 1500 900
Q 1500 550 1625 425 
Q 1750 300 2000 300 
Q 2250 300 2400 462 
Q 2550 625 2600 925 
L 2725 875 
Q 2675 525 2462 300 
Q 2250 75 1900 75 
Q 1525 75 1337 300 
Q 1150 525 1150 1000 
L 1150 2750 
L 400 2750 
L 400 2900 
L 600 2900 
Q 900 2900 1087 3087 
Q 1275 3275 1325 3675 
L 1350 3875 
L 1500 3875 
L 1500 2900 
L 2500 2900 
L 2500 2750 
L 1500 2750 
L 1500 900 
z
" transform="scale(0.015625)"/>
       <path id="Times New Roman-52" d="M 2825 3375
Q 2825 2875 2550 2600 
Q 2275 2325 1925 2275 
L 2675 425 
Q 2725 325 2787 287 
Q 2850 250 2925 250 
L 3075 250 
L 3075 100 
L 2375 100 
L 1550 2250 
L 975 2250 
L 975 450 
Q 975 350 1037 300 
Q 1100 250 1200 250 
L 1350 250 
L 1350 100 
L 200 100 
L 200 250 
L 350 250 
Q 475 250 525 300 
Q 575 350 575 450 
L 575 4025 
Q 575 4125 525 4175 
Q 475 4225 350 4225 
L 200 4225 
L 200 4375 
L 1625 4375 
Q 2200 4375 2512 4125 
Q 2825 3875 2825 3375 
z
M 2750 250 
L 2750 250 
z
M 975 2400 
L 1525 2400 
Q 1900 2400 2150 2625 
Q 2400 2850 2400 3325 
Q 2400 3750 2175 3987 
Q 1950 4225 1475 4225 
L 1200 4225 
Q 1100 4225 1037 4175 
Q 975 4125 975 4025 
L 975 2400 
z
" transform="scale(0.015625)"/>
       <path id="Times New Roman-61" d="M 1225 75
Q 775 75 525 287 
Q 275 500 275 775 
Q 275 1225 662 1512 
Q 1050 1800 2200 1925 
L 2200 2225 
Q 2200 2475 2087 2637 
Q 1975 2800 1575 2800 
Q 1150 2800 975 2662 
Q 800 2525 850 2375 
Q 875 2325 875 2275 
Q 875 2225 837 2150 
Q 800 2075 650 2075 
Q 550 2075 487 2137 
Q 425 2200 425 2325 
Q 425 2550 750 2750 
Q 1075 2950 1550 2950 
Q 2050 2950 2300 2762 
Q 2550 2575 2550 2225 
L 2550 575 
Q 2550 375 2587 337 
Q 2625 300 2725 300 
Q 2850 300 2900 412 
Q 2950 525 2950 725 
L 3075 725 
Q 3075 375 2950 237 
Q 2825 100 2625 100 
Q 2450 100 2350 175 
Q 2250 250 2200 425 
Q 1950 250 1737 162 
Q 1525 75 1225 75 
z
M 700 850 
Q 700 625 837 437 
Q 975 250 1275 250 
Q 1500 250 1725 337 
Q 1950 425 2200 600 
L 2200 1775 
Q 1350 1675 1025 1437 
Q 700 1200 700 850 
z
" transform="scale(0.015625)"/>
       <path id="Times New Roman-6b" d="M 1675 1900
L 2625 425 
Q 2700 325 2762 287 
Q 2825 250 2900 250 
L 3000 250 
L 3000 100 
L 1975 100 
L 1975 250 
L 2050 250 
Q 2175 250 2225 287 
Q 2275 325 2200 425 
L 1425 1650 
L 925 1125 
L 925 450 
Q 925 350 987 300 
Q 1050 250 1150 250 
L 1275 250 
L 1275 100 
L 225 100 
L 225 250 
L 350 250 
Q 475 250 525 300 
Q 575 350 575 450 
L 575 4025 
Q 575 4125 525 4175 
Q 475 4225 350 4225 
L 200 4225 
L 200 4375 
L 425 4375 
Q 575 4375 687 4425 
Q 800 4475 875 4575 
L 925 4575 
L 925 1400 
L 1975 2525 
Q 2025 2625 2012 2687 
Q 2000 2750 1900 2750 
L 1750 2750 
L 1750 2900 
L 2800 2900 
L 2800 2750 
L 2675 2750 
Q 2600 2750 2487 2712 
Q 2375 2675 2275 2575 
L 1675 1900 
z
M 2450 2750 
L 2450 2750 
z
M 2175 2750 
L 2175 2750 
z
M 2300 250 
L 2300 250 
z
M 2750 250 
L 2750 250 
z
" transform="scale(0.015625)"/>
       <path id="Times New Roman-62" d="M 875 2325
Q 1000 2600 1275 2762 
Q 1550 2925 1800 2925 
Q 2325 2925 2587 2562 
Q 2850 2200 2850 1500 
Q 2850 800 2512 437 
Q 2175 75 1675 75 
Q 1425 75 1212 162 
Q 1000 250 850 400 
L 625 100 
L 525 100 
L 525 4025 
Q 525 4125 475 4175 
Q 425 4225 300 4225 
L 150 4225 
L 150 4375 
L 375 4375 
Q 500 4375 625 4425 
Q 750 4475 875 4575 
L 875 2325 
z
M 875 925 
Q 875 650 1062 450 
Q 1250 250 1625 250 
Q 2075 250 2262 562 
Q 2450 875 2450 1500 
Q 2450 2100 2287 2412 
Q 2125 2725 1775 2725 
Q 1475 2725 1250 2550 
Q 1025 2375 875 1925 
L 875 925 
z
" transform="scale(0.015625)"/>
       <path id="Times New Roman-70" d="M 1150 -675
L 1325 -675 
L 1325 -825 
L 175 -825 
L 175 -675 
L 325 -675 
Q 450 -675 500 -625 
Q 550 -575 550 -450 
L 550 2500 
Q 550 2600 500 2662 
Q 450 2725 325 2725 
L 175 2725 
L 175 2875 
L 400 2875 
Q 525 2875 637 2900 
Q 750 2925 850 3000 
L 900 3000 
L 900 2425 
Q 1075 2675 1287 2800 
Q 1500 2925 1750 2925 
Q 2250 2925 2575 2587 
Q 2900 2250 2900 1525 
Q 2900 825 2550 450 
Q 2200 75 1725 75 
Q 1450 75 1262 162 
Q 1075 250 900 425 
L 900 -450 
Q 900 -575 975 -625 
Q 1050 -675 1150 -675 
z
M 900 750 
Q 1025 500 1212 375 
Q 1400 250 1650 250 
Q 2000 250 2250 562 
Q 2500 875 2500 1525 
Q 2500 2125 2312 2425 
Q 2125 2725 1750 2725 
Q 1525 2725 1300 2587 
Q 1075 2450 900 2150 
L 900 750 
z
" transform="scale(0.015625)"/>
      </defs>
      <use xlink:href="#Times New Roman-42"/>
      <use xlink:href="#Times New Roman-69" x="50"/>
      <use xlink:href="#Times New Roman-74" x="100"/>
      <use xlink:href="#Times New Roman-65" x="150"/>
      <use xlink:href="#Times New Roman-20" x="200"/>
      <use xlink:href="#Times New Roman-52" x="250"/>
      <use xlink:href="#Times New Roman-61" x="300"/>
      <use xlink:href="#Times New Roman-74" x="350"/>
      <use xlink:href="#Times New Roman-65" x="400"/>
      <use xlink:href="#Times New Roman-20" x="450"/>
      <use xlink:href="#Times New Roman-28" x="500"/>
      <use xlink:href="#Times New Roman-6b" x="550"/>
      <use xlink:href="#Times New Roman-62" x="600"/>
      <use xlink:href="#Times New Roman-70" x="650"/>
      <use xlink:href="#Times New Roman-73" x="700"/>
      <use xlink:href="#Times New Roman-29" x="750"/>
     </g>
    </g>
   </g>
   <g id="line2d_17">
    <path d="M 173.045455 359.474468 
L 186.995455 359.474468 
L 188.263636 321.405796 
L 199.677273 321.405796 
L 200.945455 287.784751 
L 219.968182 287.784751 
L 220.602273 226.648726 
L 266.890909 226.648726 
L 268.159091 321.405796 
L 269.427273 287.784751 
L 284.645455 287.784751 
L 285.913636 226.648726 
L 287.181818 287.784751 
L 294.790909 287.784751 
L 296.059091 321.405796 
L 306.204545 321.405796 
L 307.472727 359.474468 
L 339.177273 359.474468 
L 340.445455 321.405796 
L 349.322727 321.405796 
L 350.590909 287.784751 
L 364.540909 287.784751 
L 365.809091 226.648726 
L 441.9 226.648726 
L 442.534091 287.784751 
L 455.85 287.784751 
L 457.118182 321.405796 
L 460.922727 321.405796 
L 462.190909 359.474468 
L 491.359091 359.474468 
L 492.627273 321.405796 
L 504.040909 321.405796 
L 505.309091 287.784751 
L 516.722727 287.784751 
L 517.990909 226.648726 
L 591.545455 226.648726 
L 592.813636 287.784751 
L 600.422727 287.784751 
L 601.690909 321.405796 
L 619.445455 321.405796 
L 620.079545 359.474468 
L 644.809091 359.474468 
L 645.443182 321.405796 
L 653.686364 321.405796 
L 654.954545 287.784751 
L 670.172727 287.784751 
L 670.806818 226.648726 
L 746.263636 226.648726 
L 746.897727 287.784751 
L 760.213636 287.784751 
L 761.481818 321.405796 
L 770.359091 321.405796 
L 771.627273 359.474468 
L 854.059091 359.474468 
L 855.327273 287.784751 
L 859.131818 287.784751 
L 860.4 226.648726 
L 933.954545 226.648726 
L 933.954545 226.648726 
" clip-path="url(#p80685dd1e8)" style="fill: none; stroke: #ff0000; stroke-width: 1.5; stroke-linecap: square"/>
   </g>
   <g id="line2d_18">
    <path d="M 173.045455 384.48 
L 173.045455 51.84 
" clip-path="url(#p80685dd1e8)" style="fill: none; stroke-dasharray: 5.55,2.4; stroke-dashoffset: 0; stroke: #ff0000; stroke-width: 1.5"/>
   </g>
   <g id="line2d_19">
    <path d="M 173.045455 332.28635 
L 178.118182 331.393528 
L 179.386364 331.918318 
L 180.654545 333.50298 
L 181.922727 335.868454 
L 183.190909 338.538839 
L 184.459091 342.849811 
L 185.727273 345.236513 
L 186.995455 345.9179 
L 188.263636 344.894976 
L 189.531818 345.844848 
L 190.8 343.6654 
L 192.068182 340.759818 
L 193.336364 333.771425 
L 194.604545 325.501151 
L 197.140909 297.93885 
L 198.409091 285.089238 
L 199.677273 275.836365 
L 200.945455 267.494164 
L 203.481818 262.502208 
L 204.75 263.183474 
L 207.286364 256.766709 
L 209.822727 236.006774 
L 211.090909 222.173157 
L 213.627273 201.909426 
L 219.968182 168.475895 
L 221.236364 156.332919 
L 223.772727 145.872542 
L 226.309091 136.690992 
L 227.577273 131.693005 
L 232.65 108.633974 
L 233.918182 103.20021 
L 236.454545 94.285979 
L 238.990909 86.500009 
L 241.527273 79.890744 
L 244.063636 74.652495 
L 245.331818 72.489169 
L 246.6 70.626131 
L 247.868182 69.133699 
L 249.136364 67.986301 
L 250.404545 67.190372 
L 251.672727 66.978936 
L 252.940909 67.187316 
L 254.209091 67.780534 
L 255.477273 68.520177 
L 256.745455 69.575506 
L 258.013636 70.992354 
L 259.281818 72.758781 
L 260.55 74.876032 
L 261.818182 77.398947 
L 263.086364 80.27707 
L 265.622727 86.950983 
L 268.159091 94.850411 
L 269.427273 99.201426 
L 270.695455 107.249168 
L 271.963636 111.546752 
L 274.5 121.181569 
L 277.036364 131.781093 
L 280.840909 149.030006 
L 284.645455 169.019581 
L 289.718182 196.720267 
L 293.522727 218.400684 
L 297.327273 238.192373 
L 304.936364 275.161612 
L 307.472727 285.993519 
L 311.277273 300.531198 
L 313.813636 308.880796 
L 316.35 316.045526 
L 318.886364 321.906986 
L 320.154545 324.34909 
L 321.422727 326.485479 
L 322.690909 328.245553 
L 326.495455 332.499997 
L 327.763636 335.129294 
L 331.568182 347.204043 
L 332.836364 349.604777 
L 334.104545 351.02275 
L 335.372727 350.310326 
L 336.640909 350.187099 
L 337.909091 349.413081 
L 339.177273 349.453648 
L 340.445455 348.715894 
L 341.713636 349.643695 
L 342.981818 349.753775 
L 344.25 348.967133 
L 345.518182 347.2389 
L 346.786364 345.014544 
L 348.054545 342.197935 
L 349.322727 338.892157 
L 350.590909 337.989766 
L 351.859091 340.189678 
L 353.127273 341.006554 
L 354.395455 337.665999 
L 355.663636 331.092074 
L 356.931818 325.983847 
L 359.468182 310.486083 
L 360.736364 303.466411 
L 362.004545 304.902557 
L 364.540909 300.187489 
L 365.809091 298.662049 
L 368.345455 304.176785 
L 369.613636 304.326506 
L 370.881818 308.527519 
L 372.15 309.157082 
L 373.418182 309.43192 
L 374.686364 304.092677 
L 375.954545 300.752202 
L 377.222727 290.118544 
L 378.490909 281.592408 
L 379.759091 276.396575 
L 382.295455 263.922112 
L 383.563636 259.7055 
L 384.831818 264.992477 
L 386.1 262.245542 
L 387.368182 258.825945 
L 388.636364 258.642251 
L 389.904545 264.17926 
L 391.172727 267.631101 
L 392.440909 270.383383 
L 393.709091 279.964888 
L 394.977273 284.412234 
L 396.245455 291.080197 
L 397.513636 287.390586 
L 398.781818 294.003469 
L 400.05 298.090863 
L 401.318182 306.444321 
L 402.586364 307.946523 
L 403.854545 303.776629 
L 405.122727 302.38121 
L 406.390909 290.217327 
L 407.659091 279.249569 
L 408.927273 264.721056 
L 410.195455 266.601101 
L 411.463636 262.895489 
L 412.731818 268.530396 
L 414 269.649087 
L 415.268182 280.6905 
L 416.536364 280.72005 
L 417.804545 286.873757 
L 419.072727 283.060879 
L 420.340909 284.144833 
L 421.609091 268.807486 
L 422.877273 262.852591 
L 424.145455 246.057869 
L 425.413636 242.839857 
L 426.681818 235.153232 
L 427.95 241.20112 
L 429.218182 243.321749 
L 430.486364 255.694012 
L 431.754545 262.965204 
L 433.022727 280.068254 
L 434.290909 286.624207 
L 435.559091 297.026769 
L 436.827273 293.552575 
L 438.095455 298.574001 
L 439.363636 289.718027 
L 440.631818 287.587186 
L 442.534091 266.262579 
L 443.168182 256.706764 
L 444.436364 254.216817 
L 445.704545 254.226225 
L 446.972727 256.413231 
L 448.240909 264.438298 
L 449.509091 268.83382 
L 450.777273 275.188187 
L 452.045455 277.852743 
L 453.313636 293.146871 
L 454.581818 300.473505 
L 455.85 305.386821 
L 457.118182 303.044343 
L 458.386364 304.222618 
L 459.654545 299.67255 
L 460.922727 297.024639 
L 462.190909 296.251465 
L 463.459091 301.076452 
L 465.995455 309.41427 
L 468.531818 316.189458 
L 471.068182 321.90771 
L 472.336364 324.343059 
L 473.604545 326.521422 
L 474.872727 328.279847 
L 476.140909 329.657335 
L 477.409091 330.656297 
L 478.677273 331.341905 
L 479.945455 331.616985 
L 481.213636 331.576821 
L 482.481818 331.195883 
L 485.018182 330.154263 
L 486.286364 330.503601 
L 487.554545 331.353525 
L 488.822727 334.022623 
L 490.090909 336.992211 
L 491.359091 341.113257 
L 492.627273 344.073798 
L 493.895455 347.849808 
L 495.163636 348.454404 
L 496.431818 349.247479 
L 497.7 343.794417 
L 498.968182 335.412535 
L 500.236364 320.481856 
L 501.504545 308.990796 
L 502.772727 296.447543 
L 504.040909 290.780874 
L 505.309091 287.620033 
L 506.577273 295.668057 
L 507.845455 298.45974 
L 509.113636 304.420746 
L 510.381818 299.650558 
L 511.65 297.156188 
L 512.918182 283.866497 
L 514.186364 278.614699 
L 515.454545 273.838802 
L 516.722727 281.393878 
L 517.990909 287.85334 
L 519.259091 300.222106 
L 520.527273 306.04324 
L 521.795455 310.078248 
L 523.063636 309.084191 
L 524.331818 309.15668 
L 525.6 306.693549 
L 526.868182 306.88452 
L 528.136364 303.470914 
L 529.404545 304.147476 
L 530.672727 299.642839 
L 531.940909 300.796066 
L 533.209091 293.420262 
L 534.477273 295.569516 
L 535.745455 282.983566 
L 537.013636 279.900883 
L 538.281818 254.136528 
L 539.55 231.892724 
L 540.818182 188.035484 
L 542.086364 171.952583 
L 543.354545 160.957004 
L 544.622727 185.239499 
L 545.890909 197.158737 
L 547.159091 220.349881 
L 548.427273 216.833592 
L 549.695455 215.077458 
L 550.963636 187.707374 
L 552.231818 179.343102 
L 553.5 168.295699 
L 554.768182 180.07 
L 556.036364 174.175773 
L 557.304545 185.570302 
L 558.572727 183.28198 
L 559.840909 183.385266 
L 561.109091 156.895179 
L 562.377273 144.092888 
L 563.645455 123.447496 
L 564.913636 122.708095 
L 566.181818 117.789874 
L 567.45 145.630149 
L 568.718182 158.034053 
L 569.986364 178.0769 
L 571.254545 176.735636 
L 572.522727 196.340012 
L 573.790909 191.892546 
L 575.059091 191.905894 
L 576.327273 172.060452 
L 577.595455 172.940609 
L 578.863636 161.712487 
L 580.131818 157.942186 
L 581.4 150.973413 
L 582.668182 162.907969 
L 583.936364 168.270209 
L 585.204545 179.041608 
L 586.472727 184.035976 
L 587.740909 196.009531 
L 589.009091 196.877748 
L 590.277273 197.90232 
L 591.545455 193.610164 
L 594.081818 196.976289 
L 597.886364 218.051749 
L 600.422727 231.910254 
L 602.959091 244.943158 
L 605.495455 257.284544 
L 606.763636 264.942704 
L 609.3 289.796828 
L 610.568182 303.520807 
L 613.104545 321.286871 
L 614.372727 322.546318 
L 615.640909 323.057077 
L 616.909091 319.714793 
L 618.177273 320.494399 
L 619.445455 318.988217 
L 620.079545 319.64343 
L 620.713636 319.59233 
L 621.981818 321.487532 
L 623.25 323.09109 
L 624.518182 324.955374 
L 625.786364 326.619239 
L 628.322727 330.831469 
L 629.590909 332.91527 
L 630.859091 336.04254 
L 632.127273 338.774961 
L 633.395455 340.954931 
L 634.663636 341.346161 
L 635.931818 342.487488 
L 637.2 342.661935 
L 638.468182 343.721003 
L 639.736364 343.732904 
L 641.004545 345.723591 
L 643.540909 346.012662 
L 644.809091 344.823331 
L 645.443182 344.95472 
L 646.077273 344.100574 
L 647.345455 344.332876 
L 648.613636 345.690744 
L 649.881818 344.153202 
L 651.15 337.669939 
L 652.418182 325.444503 
L 654.954545 306.533776 
L 656.222727 305.868511 
L 657.490909 306.303444 
L 658.759091 313.334253 
L 660.027273 309.792313 
L 661.295455 300.898708 
L 662.563636 282.012867 
L 663.831818 272.282726 
L 665.1 260.689305 
L 666.368182 259.212834 
L 667.636364 255.776833 
L 668.904545 263.235378 
L 670.172727 266.245733 
L 671.440909 281.781691 
L 672.709091 293.558364 
L 673.977273 302.476937 
L 675.245455 298.492748 
L 676.513636 281.930649 
L 679.05 217.406225 
L 680.318182 180.686938 
L 681.586364 154.455367 
L 682.854545 136.036703 
L 685.390909 124.248853 
L 689.195455 108.589306 
L 691.731818 98.982955 
L 694.268182 90.192353 
L 695.536364 86.28612 
L 696.804545 82.841114 
L 698.072727 79.74838 
L 699.340909 76.969161 
L 700.609091 74.613657 
L 701.877273 72.499984 
L 704.413636 69.237185 
L 705.681818 68.12372 
L 706.95 67.305679 
L 708.218182 66.982273 
L 709.486364 66.96 
L 710.754545 67.385846 
L 712.022727 68.102975 
L 713.290909 69.235979 
L 714.559091 70.663401 
L 715.827273 72.49528 
L 717.095455 74.625478 
L 718.363636 77.23825 
L 719.631818 80.148576 
L 722.168182 87.011571 
L 724.704545 94.877066 
L 727.240909 103.748559 
L 728.509091 109.093873 
L 732.313636 144.615306 
L 734.85 156.315993 
L 736.118182 157.157313 
L 737.386364 168.892736 
L 738.654545 183.175479 
L 739.922727 211.684034 
L 742.459091 248.659343 
L 743.727273 250.535569 
L 744.995455 257.173338 
L 746.263636 251.610598 
L 746.897727 253.594209 
L 747.531818 249.467897 
L 748.8 251.474385 
L 750.068182 253.992154 
L 751.336364 259.575358 
L 752.604545 272.720392 
L 753.872727 283.991855 
L 755.140909 297.20584 
L 756.409091 301.501575 
L 757.677273 310.288558 
L 758.945455 311.674609 
L 760.213636 318.666339 
L 761.481818 320.235804 
L 762.75 323.985078 
L 764.018182 321.662382 
L 765.286364 322.846124 
L 766.554545 322.005045 
L 767.822727 325.828094 
L 769.090909 327.379105 
L 770.359091 330.753311 
L 771.627273 331.570066 
L 772.895455 333.167393 
L 774.163636 333.28491 
L 775.431818 333.95902 
L 776.7 334.830091 
L 779.236364 342.819698 
L 780.504545 347.267044 
L 781.772727 350.085945 
L 783.040909 354.000339 
L 785.577273 354.914107 
L 786.845455 353.847119 
L 788.113636 355.532855 
L 789.381818 355.226979 
L 790.65 356.041604 
L 791.918182 355.585202 
L 793.186364 357.111567 
L 794.454545 356.318251 
L 795.722727 356.9097 
L 796.990909 355.867116 
L 798.259091 355.899561 
L 799.527273 354.662226 
L 800.795455 355.822931 
L 802.063636 355.858995 
L 804.6 356.643465 
L 805.868182 358.13425 
L 808.404545 357.869985 
L 809.672727 357.637683 
L 810.940909 357.095887 
L 812.209091 355.520432 
L 813.477273 355.358006 
L 814.745455 355.579935 
L 816.013636 355.311047 
L 817.281818 355.626813 
L 818.55 355.222718 
L 819.818182 355.345743 
L 821.086364 353.857371 
L 822.354545 355.102988 
L 823.622727 355.379596 
L 824.890909 355.982583 
L 826.159091 354.669986 
L 827.427273 354.178043 
L 828.695455 351.864151 
L 829.963636 351.422343 
L 831.231818 350.064274 
L 832.5 351.063478 
L 833.768182 350.427442 
L 835.036364 352.896563 
L 836.304545 353.647343 
L 837.572727 356.05262 
L 838.840909 355.628623 
L 840.109091 356.381171 
L 841.377273 355.670516 
L 842.645455 354.745248 
L 843.913636 352.577138 
L 845.181818 351.654806 
L 846.45 352.977817 
L 848.986364 354.08123 
L 850.254545 353.960938 
L 851.522727 354.247999 
L 854.059091 350.891402 
L 855.327273 349.696604 
L 856.595455 349.734798 
L 857.863636 348.582697 
L 859.131818 339.40782 
L 861.668182 305.924556 
L 862.936364 284.678147 
L 864.204545 266.842368 
L 865.472727 240.044556 
L 866.740909 220.356354 
L 868.009091 187.673321 
L 869.277273 168.173195 
L 870.545455 141.253483 
L 871.813636 140.390694 
L 873.081818 133.410905 
L 874.35 148.147717 
L 875.618182 150.888581 
L 876.886364 170.417453 
L 878.154545 181.668653 
L 879.422727 213.330169 
L 880.690909 239.358184 
L 881.959091 276.99132 
L 884.495455 325.865324 
L 885.763636 338.012562 
L 887.031818 346.819406 
L 889.568182 351.456397 
L 890.836364 353.272596 
L 892.104545 351.759257 
L 893.372727 351.216456 
L 894.640909 351.167527 
L 895.909091 353.483831 
L 897.177273 357.197725 
L 899.713636 366.73384 
L 900.981818 369.199825 
L 904.786364 369.355899 
L 909.859091 369.266806 
L 916.2 368.814304 
L 918.736364 368.846789 
L 921.272727 369.063934 
L 926.345455 368.528007 
L 927.613636 368.525997 
L 928.881818 368.787849 
L 932.686364 369.000612 
L 933.954545 367.716358 
L 933.954545 367.716358 
" clip-path="url(#p80685dd1e8)" style="fill: none; stroke: #008000; stroke-width: 1.5; stroke-linecap: square"/>
   </g>
   <g id="patch_3">
    <path d="M 135 384.48 
L 135 51.84 
" style="fill: none; stroke: #000000; stroke-width: 0.8; stroke-linejoin: miter; stroke-linecap: square"/>
   </g>
   <g id="patch_4">
    <path d="M 972 384.48 
L 972 51.84 
" style="fill: none; stroke: #000000; stroke-width: 0.8; stroke-linejoin: miter; stroke-linecap: square"/>
   </g>
   <g id="patch_5">
    <path d="M 135 384.48 
L 972 384.48 
" style="fill: none; stroke: #000000; stroke-width: 0.8; stroke-linejoin: miter; stroke-linecap: square"/>
   </g>
   <g id="patch_6">
    <path d="M 135 51.84 
L 972 51.84 
" style="fill: none; stroke: #000000; stroke-width: 0.8; stroke-linejoin: miter; stroke-linecap: square"/>
   </g>
  </g>
  <g id="axes_2">
   <g id="matplotlib.axis_3">
    <g id="ytick_10">
     <g id="line2d_20">
      <path d="M 135 369.36 
L 972 369.36 
" clip-path="url(#p80685dd1e8)" style="fill: none; stroke: #b0b0b0; stroke-width: 0.8; stroke-linecap: square"/>
     </g>
     <g id="line2d_21">
      <defs>
       <path id="m33dd59f804" d="M 0 0 
L 3.5 0 
" style="stroke: #000000; stroke-width: 0.8"/>
      </defs>
      <g>
       <use xlink:href="#m33dd59f804" x="972" y="369.36" style="stroke: #000000; stroke-width: 0.8"/>
      </g>
     </g>
     <g id="text_19">
      <!-- 0 -->
      <g transform="translate(979 372.934219) scale(0.1 -0.1)">
       <use xlink:href="#Times New Roman-30"/>
      </g>
     </g>
    </g>
    <g id="ytick_11">
     <g id="line2d_22">
      <path d="M 135 320.751494 
L 972 320.751494 
" clip-path="url(#p80685dd1e8)" style="fill: none; stroke: #b0b0b0; stroke-width: 0.8; stroke-linecap: square"/>
     </g>
     <g id="line2d_23">
      <g>
       <use xlink:href="#m33dd59f804" x="972" y="320.751494" style="stroke: #000000; stroke-width: 0.8"/>
      </g>
     </g>
     <g id="text_20">
      <!-- 5 -->
      <g transform="translate(979 324.325712) scale(0.1 -0.1)">
       <use xlink:href="#Times New Roman-35"/>
      </g>
     </g>
    </g>
    <g id="ytick_12">
     <g id="line2d_24">
      <path d="M 135 272.142987 
L 972 272.142987 
" clip-path="url(#p80685dd1e8)" style="fill: none; stroke: #b0b0b0; stroke-width: 0.8; stroke-linecap: square"/>
     </g>
     <g id="line2d_25">
      <g>
       <use xlink:href="#m33dd59f804" x="972" y="272.142987" style="stroke: #000000; stroke-width: 0.8"/>
      </g>
     </g>
     <g id="text_21">
      <!-- 10 -->
      <g transform="translate(979 275.717206) scale(0.1 -0.1)">
       <use xlink:href="#Times New Roman-31"/>
       <use xlink:href="#Times New Roman-30" x="50"/>
      </g>
     </g>
    </g>
    <g id="ytick_13">
     <g id="line2d_26">
      <path d="M 135 223.534481 
L 972 223.534481 
" clip-path="url(#p80685dd1e8)" style="fill: none; stroke: #b0b0b0; stroke-width: 0.8; stroke-linecap: square"/>
     </g>
     <g id="line2d_27">
      <g>
       <use xlink:href="#m33dd59f804" x="972" y="223.534481" style="stroke: #000000; stroke-width: 0.8"/>
      </g>
     </g>
     <g id="text_22">
      <!-- 15 -->
      <g transform="translate(979 227.108699) scale(0.1 -0.1)">
       <use xlink:href="#Times New Roman-31"/>
       <use xlink:href="#Times New Roman-35" x="50"/>
      </g>
     </g>
    </g>
    <g id="ytick_14">
     <g id="line2d_28">
      <path d="M 135 174.925974 
L 972 174.925974 
" clip-path="url(#p80685dd1e8)" style="fill: none; stroke: #b0b0b0; stroke-width: 0.8; stroke-linecap: square"/>
     </g>
     <g id="line2d_29">
      <g>
       <use xlink:href="#m33dd59f804" x="972" y="174.925974" style="stroke: #000000; stroke-width: 0.8"/>
      </g>
     </g>
     <g id="text_23">
      <!-- 20 -->
      <g transform="translate(979 178.500193) scale(0.1 -0.1)">
       <use xlink:href="#Times New Roman-32"/>
       <use xlink:href="#Times New Roman-30" x="50"/>
      </g>
     </g>
    </g>
    <g id="ytick_15">
     <g id="line2d_30">
      <path d="M 135 126.317468 
L 972 126.317468 
" clip-path="url(#p80685dd1e8)" style="fill: none; stroke: #b0b0b0; stroke-width: 0.8; stroke-linecap: square"/>
     </g>
     <g id="line2d_31">
      <g>
       <use xlink:href="#m33dd59f804" x="972" y="126.317468" style="stroke: #000000; stroke-width: 0.8"/>
      </g>
     </g>
     <g id="text_24">
      <!-- 25 -->
      <g transform="translate(979 129.891686) scale(0.1 -0.1)">
       <use xlink:href="#Times New Roman-32"/>
       <use xlink:href="#Times New Roman-35" x="50"/>
      </g>
     </g>
    </g>
    <g id="ytick_16">
     <g id="line2d_32">
      <path d="M 135 77.708961 
L 972 77.708961 
" clip-path="url(#p80685dd1e8)" style="fill: none; stroke: #b0b0b0; stroke-width: 0.8; stroke-linecap: square"/>
     </g>
     <g id="line2d_33">
      <g>
       <use xlink:href="#m33dd59f804" x="972" y="77.708961" style="stroke: #000000; stroke-width: 0.8"/>
      </g>
     </g>
     <g id="text_25">
      <!-- 30 -->
      <g transform="translate(979 81.28318) scale(0.1 -0.1)">
       <use xlink:href="#Times New Roman-33"/>
       <use xlink:href="#Times New Roman-30" x="50"/>
      </g>
     </g>
    </g>
    <g id="text_26">
     <!-- Buffer Length (s) -->
     <g transform="translate(1001.046875 260.66) rotate(-90) scale(0.1 -0.1)">
      <defs>
       <path id="Times New Roman-75" d="M 1450 325
Q 1750 325 1962 475 
Q 2175 625 2275 950 
L 2275 2525 
Q 2275 2625 2225 2687 
Q 2175 2750 2050 2750 
L 1900 2750 
L 1900 2900 
L 2050 2900 
Q 2200 2900 2325 2925 
Q 2450 2950 2575 3050 
L 2625 3050 
L 2625 600 
Q 2625 500 2687 450 
Q 2750 400 2850 400 
L 3000 400 
L 3000 250 
L 2850 250 
Q 2725 250 2600 212 
Q 2475 175 2325 100 
L 2275 100 
L 2275 625 
Q 2150 350 1900 212 
Q 1650 75 1325 75 
Q 925 75 725 300 
Q 525 525 525 1025 
L 525 2525 
Q 525 2625 475 2687 
Q 425 2750 300 2750 
L 150 2750 
L 150 2900 
L 300 2900 
Q 450 2900 575 2925 
Q 700 2950 825 3050 
L 875 3050 
L 875 975 
Q 875 625 1025 475 
Q 1175 325 1450 325 
z
" transform="scale(0.015625)"/>
       <path id="Times New Roman-66" d="M 1125 3325
Q 1125 3850 1450 4112 
Q 1775 4375 2175 4375 
Q 2600 4375 2812 4225 
Q 3025 4075 3025 3875 
Q 3025 3775 2975 3700 
Q 2925 3625 2775 3625 
Q 2675 3625 2612 3675 
Q 2550 3725 2550 3850 
Q 2550 3875 2575 3925 
Q 2575 3975 2575 4000 
Q 2575 4100 2500 4162 
Q 2425 4225 2150 4225 
Q 1850 4225 1662 4037 
Q 1475 3850 1475 3400 
L 1475 2900 
L 2525 2900 
L 2525 2750 
L 1475 2750 
L 1475 450 
Q 1475 350 1537 300 
Q 1600 250 1700 250 
L 2300 250 
L 2300 100 
L 475 100 
L 475 250 
L 900 250 
Q 1025 250 1075 300 
Q 1125 350 1125 450 
L 1125 2750 
L 350 2750 
L 350 2900 
L 1125 2900 
L 1125 3325 
z
" transform="scale(0.015625)"/>
       <path id="Times New Roman-72" d="M 1275 2125
Q 1525 2525 1812 2737 
Q 2100 2950 2400 2950 
Q 2650 2950 2787 2837 
Q 2925 2725 2925 2575 
Q 2925 2450 2862 2375 
Q 2800 2300 2675 2300 
Q 2550 2300 2487 2375 
Q 2425 2450 2450 2575 
Q 2450 2650 2425 2700 
Q 2400 2750 2275 2750 
Q 2075 2750 1787 2500 
Q 1500 2250 1275 1800 
L 1275 450 
Q 1275 350 1337 300 
Q 1400 250 1500 250 
L 2050 250 
L 2050 100 
L 200 100 
L 200 250 
L 700 250 
Q 825 250 875 300 
Q 925 350 925 450 
L 925 2525 
Q 925 2625 875 2687 
Q 825 2750 700 2750 
L 225 2750 
L 225 2900 
L 425 2900 
Q 600 2900 837 2937 
Q 1075 2975 1200 3025 
L 1275 3025 
L 1275 2125 
z
" transform="scale(0.015625)"/>
       <path id="Times New Roman-4c" d="M 1000 450
Q 1000 350 1062 300 
Q 1125 250 1225 250 
L 1900 250 
Q 2250 250 2500 462 
Q 2750 675 2875 1125 
L 3000 1075 
L 2775 100 
L 200 100 
L 200 250 
L 375 250 
Q 500 250 550 300 
Q 600 350 600 450 
L 600 4025 
Q 600 4125 550 4175 
Q 500 4225 375 4225 
L 225 4225 
L 225 4375 
L 1400 4375 
L 1400 4225 
L 1225 4225 
Q 1125 4225 1062 4175 
Q 1000 4125 1000 4025 
L 1000 450 
z
" transform="scale(0.015625)"/>
       <path id="Times New Roman-6e" d="M 200 100
L 200 250 
L 325 250 
Q 450 250 500 300 
Q 550 350 550 450 
L 550 2600 
Q 550 2675 525 2712 
Q 500 2750 425 2750 
L 225 2750 
L 225 2900 
L 400 2900 
Q 525 2900 637 2925 
Q 750 2950 850 3025 
L 900 3025 
L 900 2450 
Q 1125 2700 1350 2825 
Q 1575 2950 1825 2950 
Q 2250 2950 2450 2725 
Q 2650 2500 2650 2050 
L 2650 450 
Q 2650 350 2712 300 
Q 2775 250 2875 250 
L 3000 250 
L 3000 100 
L 1950 100 
L 1950 250 
L 2075 250 
Q 2200 250 2250 300 
Q 2300 350 2300 450 
L 2300 2125 
Q 2300 2425 2175 2587 
Q 2050 2750 1800 2750 
Q 1575 2750 1337 2600 
Q 1100 2450 900 2175 
L 900 450 
Q 900 350 962 300 
Q 1025 250 1125 250 
L 1250 250 
L 1250 100 
L 200 100 
z
" transform="scale(0.015625)"/>
       <path id="Times New Roman-67" d="M 875 1975
Q 875 1675 1050 1462 
Q 1225 1250 1525 1250 
Q 1850 1250 2012 1437 
Q 2175 1625 2175 1975 
Q 2175 2400 1987 2587 
Q 1800 2775 1525 2775 
Q 1250 2775 1062 2587 
Q 875 2400 875 1975 
z
M 2100 625 
Q 2475 575 2650 412 
Q 2825 250 2825 -25 
Q 2825 -400 2512 -625 
Q 2200 -850 1525 -850 
Q 1000 -850 675 -637 
Q 350 -425 350 -150 
Q 350 25 475 200 
Q 600 375 875 475 
Q 725 550 637 637 
Q 550 725 550 850 
Q 550 1000 650 1112 
Q 750 1225 900 1300 
Q 750 1425 637 1600 
Q 525 1775 525 1975 
Q 525 2350 787 2637 
Q 1050 2925 1525 2925 
Q 1725 2925 1912 2875 
Q 2100 2825 2225 2700 
Q 2400 2825 2537 2887 
Q 2675 2950 2775 2950 
Q 2900 2950 2950 2862 
Q 3000 2775 3000 2700 
Q 3000 2600 2962 2537 
Q 2925 2475 2825 2475 
Q 2750 2475 2700 2512 
Q 2650 2550 2625 2625 
Q 2600 2700 2512 2687 
Q 2425 2675 2325 2600 
Q 2425 2500 2475 2325 
Q 2525 2150 2525 1975 
Q 2525 1675 2287 1387 
Q 2050 1100 1525 1100 
Q 1375 1100 1250 1137 
Q 1125 1175 1050 1225 
Q 950 1175 900 1100 
Q 850 1025 850 975 
Q 850 875 900 825 
Q 950 775 1050 775 
Q 1375 725 1637 687 
Q 1900 650 2100 625 
z
M 1075 425 
Q 850 325 762 187 
Q 675 50 675 -150 
Q 675 -350 900 -525 
Q 1125 -700 1575 -700 
Q 2000 -700 2250 -562 
Q 2500 -425 2500 -150 
Q 2500 25 2437 125 
Q 2375 225 2250 250 
Q 2000 300 1700 350 
Q 1400 375 1075 425 
z
" transform="scale(0.015625)"/>
       <path id="Times New Roman-68" d="M 200 100
L 200 250 
L 325 250 
Q 450 250 500 300 
Q 550 350 550 450 
L 550 4025 
Q 550 4125 500 4175 
Q 450 4225 325 4225 
L 175 4225 
L 175 4375 
L 450 4375 
Q 550 4375 650 4425 
Q 750 4475 850 4575 
L 900 4575 
L 900 2450 
Q 1125 2725 1362 2837 
Q 1600 2950 1875 2950 
Q 2250 2950 2450 2737 
Q 2650 2525 2650 2075 
L 2650 450 
Q 2650 350 2712 300 
Q 2775 250 2875 250 
L 3000 250 
L 3000 100 
L 1950 100 
L 1950 250 
L 2075 250 
Q 2200 250 2250 300 
Q 2300 350 2300 450 
L 2300 2025 
Q 2300 2450 2162 2587 
Q 2025 2725 1800 2725 
Q 1600 2725 1362 2600 
Q 1125 2475 900 2175 
L 900 450 
Q 900 350 962 300 
Q 1025 250 1125 250 
L 1250 250 
L 1250 100 
L 200 100 
z
" transform="scale(0.015625)"/>
      </defs>
      <use xlink:href="#Times New Roman-42"/>
      <use xlink:href="#Times New Roman-75" x="50"/>
      <use xlink:href="#Times New Roman-66" x="100"/>
      <use xlink:href="#Times New Roman-66" x="150"/>
      <use xlink:href="#Times New Roman-65" x="200"/>
      <use xlink:href="#Times New Roman-72" x="250"/>
      <use xlink:href="#Times New Roman-20" x="300"/>
      <use xlink:href="#Times New Roman-4c" x="350"/>
      <use xlink:href="#Times New Roman-65" x="400"/>
      <use xlink:href="#Times New Roman-6e" x="450"/>
      <use xlink:href="#Times New Roman-67" x="500"/>
      <use xlink:href="#Times New Roman-74" x="550"/>
      <use xlink:href="#Times New Roman-68" x="600"/>
      <use xlink:href="#Times New Roman-20" x="650"/>
      <use xlink:href="#Times New Roman-28" x="700"/>
      <use xlink:href="#Times New Roman-73" x="750"/>
      <use xlink:href="#Times New Roman-29" x="800"/>
     </g>
    </g>
   </g>
   <g id="line2d_34">
    <path d="M 173.045455 80.956009 
L 175.581818 80.956009 
L 176.85 77.391385 
L 178.118182 77.391385 
L 179.386364 76.992796 
L 183.190909 77.01872 
L 184.459091 76.808083 
L 185.727273 77.093253 
L 188.263636 83.117468 
L 189.531818 86.973742 
L 193.336364 96.008443 
L 194.604545 96.008443 
L 195.872727 96.303335 
L 198.409091 96.303335 
L 200.945455 89.297229 
L 202.213636 86.659407 
L 203.481818 89.715262 
L 204.75 99.605473 
L 208.554545 108.536476 
L 209.822727 118.890088 
L 211.090909 122.756084 
L 214.895455 131.690328 
L 216.163636 135.553084 
L 217.431818 138.537646 
L 219.968182 157.465799 
L 220.602273 164.32932 
L 221.236364 164.744112 
L 222.504545 164.744112 
L 223.772727 167.291198 
L 225.040909 176.73097 
L 227.577273 196.56 
L 228.845455 206.025696 
L 230.113636 208.997297 
L 233.918182 220.352244 
L 236.454545 226.347293 
L 237.722727 236.088437 
L 241.527273 244.967591 
L 242.795455 248.810904 
L 245.331818 254.760585 
L 246.6 264.203598 
L 247.868182 268.053391 
L 250.404545 274.064643 
L 252.940909 293.87423 
L 254.209091 304.237564 
L 255.477273 307.789225 
L 258.013636 313.742147 
L 259.281818 323.499494 
L 260.55 326.944217 
L 263.086364 332.890658 
L 265.622727 352.230362 
L 266.890909 361.096554 
L 269.427273 366.949018 
L 271.963636 366.949018 
L 273.231818 366.479136 
L 274.5 360.963691 
L 275.768182 352.010004 
L 277.036364 349.375423 
L 279.572727 343.241029 
L 280.840909 339.737976 
L 283.377273 339.70233 
L 284.645455 342.622081 
L 287.181818 342.622081 
L 288.45 339.556504 
L 289.718182 329.967666 
L 290.986364 313.512067 
L 293.522727 294.010334 
L 297.327273 245.314332 
L 301.131818 216.457082 
L 303.668182 196.861373 
L 304.936364 194.236513 
L 306.204545 196.994236 
L 307.472727 206.686772 
L 308.740909 210.011594 
L 311.277273 210.011594 
L 312.545455 206.933055 
L 313.813636 190.490418 
L 315.081818 161.59104 
L 316.35 126.106831 
L 317.618182 97.081071 
L 318.886364 80.897679 
L 320.154545 84.203058 
L 322.690909 84.203058 
L 325.227273 77.235838 
L 326.495455 76.940947 
L 327.763636 76.940947 
L 329.031818 76.44838 
L 330.3 76.772437 
L 332.836364 76.772437 
L 334.104545 76.325239 
L 335.372727 76.688182 
L 337.909091 76.688182 
L 339.177273 76.140527 
L 340.445455 77.572857 
L 342.981818 77.572857 
L 344.25 76.882616 
L 345.518182 77.333055 
L 348.054545 77.333055 
L 349.322727 76.681701 
L 350.590909 77.19047 
L 353.127273 77.19047 
L 354.395455 76.529395 
L 355.663636 76.979833 
L 358.2 76.979833 
L 359.468182 76.364126 
L 360.736364 76.950668 
L 365.809091 77.060848 
L 367.077273 76.5618 
L 368.345455 76.976593 
L 370.881818 76.976593 
L 372.15 76.837249 
L 375.954545 76.798362 
L 377.222727 76.296074 
L 378.490909 76.636333 
L 381.027273 76.636333 
L 382.295455 76.477546 
L 383.563636 77.323334 
L 386.1 77.323334 
L 387.368182 77.183989 
L 393.709091 77.083532 
L 394.977273 77.044645 
L 397.513636 77.141862 
L 398.781818 77.141862 
L 400.05 76.879376 
L 401.318182 77.064088 
L 402.586364 77.064088 
L 403.854545 77.196951 
L 406.390909 77.196951 
L 407.659091 76.927984 
L 408.927273 76.927984 
L 410.195455 76.607168 
L 411.463636 76.924744 
L 414 76.924744 
L 415.268182 76.428937 
L 416.536364 76.879376 
L 419.072727 76.879376 
L 420.340909 76.467824 
L 421.609091 76.688182 
L 424.145455 76.688182 
L 425.413636 76.441899 
L 426.681818 76.67522 
L 430.486364 76.752994 
L 431.754545 77.478881 
L 434.290909 77.478881 
L 435.559091 79.81533 
L 436.827273 83.648921 
L 438.095455 86.601077 
L 440.631818 86.601077 
L 441.9 90.292083 
L 442.534091 97.184769 
L 444.436364 97.184769 
L 445.704545 96.39083 
L 446.972727 89.47546 
L 448.240909 86.008053 
L 449.509091 83.383194 
L 450.777273 79.870419 
L 452.045455 83.30218 
L 454.581818 89.498144 
L 455.85 98.950878 
L 457.118182 102.79095 
L 459.654545 108.753594 
L 460.922727 118.193366 
L 463.459091 125.909156 
L 465.995455 125.909156 
L 467.263636 125.468439 
L 468.531818 125.779533 
L 469.8 128.751133 
L 472.336364 128.751133 
L 473.604545 125.795736 
L 474.872727 115.824511 
L 476.140909 100.234143 
L 477.409091 89.98747 
L 478.677273 87.151974 
L 481.213636 87.151974 
L 483.75 80.200957 
L 485.018182 77.310371 
L 487.554545 77.310371 
L 488.822727 76.830767 
L 490.090909 77.200192 
L 492.627273 77.200192 
L 493.895455 80.097259 
L 495.163636 83.496614 
L 496.431818 86.487657 
L 498.968182 86.487657 
L 500.236364 85.93028 
L 501.504545 85.93028 
L 502.772727 83.308661 
L 504.040909 80.256047 
L 505.309091 83.652161 
L 506.577273 87.466309 
L 509.113636 87.466309 
L 512.918182 77.054367 
L 515.454545 76.953909 
L 516.722727 76.409494 
L 517.990909 76.90206 
L 520.527273 76.90206 
L 521.795455 76.257187 
L 523.063636 76.633093 
L 525.6 76.633093 
L 526.868182 76.114602 
L 528.136364 77.320093 
L 530.672727 77.320093 
L 531.940909 79.951434 
L 533.209091 83.681326 
L 534.477273 86.636723 
L 537.013636 86.636723 
L 539.55 79.633858 
L 540.818182 77.021961 
L 542.086364 79.513957 
L 543.354545 83.428562 
L 545.890909 83.428562 
L 547.159091 80.576863 
L 548.427273 83.347548 
L 550.963636 83.347548 
L 552.231818 80.677321 
L 553.5 83.224406 
L 554.768182 87.109846 
L 557.304545 87.109846 
L 558.572727 86.578393 
L 559.840909 86.954299 
L 562.377273 86.954299 
L 563.645455 86.179803 
L 564.913636 86.523304 
L 567.45 86.523304 
L 568.718182 86.050181 
L 569.986364 86.507101 
L 571.254545 86.507101 
L 572.522727 86.766346 
L 575.059091 86.766346 
L 576.327273 86.302945 
L 577.595455 86.597837 
L 580.131818 86.597837 
L 581.4 86.439049 
L 582.668182 86.811714 
L 585.204545 86.811714 
L 586.472727 86.27702 
L 587.740909 86.416365 
L 590.277273 92.268829 
L 591.545455 96.115382 
L 592.813636 96.115382 
L 594.081818 96.497769 
L 599.154545 96.416755 
L 600.422727 96.293613 
L 601.690909 96.293613 
L 604.227273 89.306951 
L 605.495455 80.294934 
L 606.763636 76.804843 
L 608.031818 80.285212 
L 610.568182 86.033978 
L 611.836364 86.033978 
L 613.104545 86.367756 
L 614.372727 86.367756 
L 615.640909 86.73394 
L 616.909091 90.062003 
L 618.177273 93.043325 
L 619.445455 96.919043 
L 620.713636 97.0195 
L 621.981818 97.0195 
L 623.25 96.857472 
L 624.518182 90.33097 
L 625.786364 80.625471 
L 627.054545 77.738126 
L 628.322727 79.740797 
L 629.590909 83.276255 
L 632.127273 83.276255 
L 633.395455 80.304655 
L 634.663636 76.830767 
L 635.931818 76.720588 
L 637.2 77.021961 
L 639.736364 77.021961 
L 641.004545 76.490508 
L 642.272727 76.892338 
L 644.809091 76.924744 
L 645.443182 77.323334 
L 646.077273 83.684567 
L 647.345455 83.866039 
L 649.881818 83.866039 
L 652.418182 77.183989 
L 653.686364 79.614415 
L 654.954545 82.683232 
L 656.222727 86.704775 
L 658.759091 86.704775 
L 660.027273 86.439049 
L 663.831818 86.377478 
L 665.1 83.739656 
L 666.368182 80.635193 
L 667.636364 77.180749 
L 670.172727 77.180749 
L 670.806818 76.613649 
L 671.440909 83.020251 
L 672.709091 89.899974 
L 676.513636 98.860143 
L 677.781818 102.735861 
L 679.05 105.76255 
L 680.318182 105.76255 
L 681.586364 106.232433 
L 682.854545 106.232433 
L 684.122727 106.993966 
L 685.390909 109.534571 
L 687.927273 115.383794 
L 689.195455 115.383794 
L 690.463636 115.711091 
L 693 121.715862 
L 695.536364 121.715862 
L 696.804545 119.217385 
L 698.072727 115.737016 
L 700.609091 121.890853 
L 701.877273 124.865693 
L 704.413636 124.865693 
L 705.681818 121.382084 
L 706.95 118.763706 
L 708.218182 109.657712 
L 709.486364 106.838419 
L 710.754545 106.319928 
L 712.022727 106.319928 
L 713.290909 105.976428 
L 714.559091 105.976428 
L 715.827273 105.513027 
L 717.095455 105.513027 
L 719.631818 100.068874 
L 720.9 96.61443 
L 723.436364 96.61443 
L 724.704545 95.723274 
L 725.972727 95.723274 
L 727.240909 92.242905 
L 728.509091 89.92914 
L 731.045455 95.914467 
L 733.581818 95.914467 
L 734.85 93.377103 
L 736.118182 90.492998 
L 737.386364 86.996426 
L 738.654545 86.688573 
L 739.922727 86.688573 
L 741.190909 86.166841 
L 742.459091 86.50062 
L 743.727273 86.50062 
L 744.995455 86.727459 
L 746.897727 86.727459 
L 747.531818 83.292458 
L 748.8 83.726694 
L 751.336364 83.726694 
L 753.872727 77.096494 
L 756.409091 77.096494 
L 757.677273 76.853451 
L 758.945455 77.258522 
L 760.213636 77.258522 
L 761.481818 77.423791 
L 764.018182 77.423791 
L 765.286364 77.30389 
L 766.554545 77.30389 
L 767.822727 76.539116 
L 769.090909 76.834008 
L 770.359091 80.687042 
L 771.627273 83.464208 
L 774.163636 83.464208 
L 775.431818 79.961155 
L 776.7 76.840489 
L 779.236364 76.840489 
L 780.504545 76.334961 
L 781.772727 76.334961 
L 784.309091 70.942657 
L 786.845455 76.509951 
L 789.381818 76.509951 
L 790.65 76.036828 
L 791.918182 76.036828 
L 794.454545 70.748223 
L 795.722727 67.261373 
L 796.990909 66.96 
L 798.259091 67.721533 
L 802.063636 76.95715 
L 803.331818 76.95715 
L 804.6 77.096494 
L 807.136364 77.096494 
L 809.672727 70.297784 
L 810.940909 72.793021 
L 813.477273 72.793021 
L 816.013636 67.553024 
L 819.818182 76.817805 
L 822.354545 76.817805 
L 823.622727 76.364126 
L 824.890909 76.364126 
L 826.159091 73.716582 
L 828.695455 67.322944 
L 832.5 76.040069 
L 833.768182 76.040069 
L 835.036364 76.50347 
L 837.572727 76.50347 
L 838.840909 76.39005 
L 840.109091 76.39005 
L 841.377273 73.81704 
L 842.645455 70.485737 
L 843.913636 73.541592 
L 846.45 73.541592 
L 847.718182 70.738501 
L 848.986364 73.405488 
L 850.254545 77.206673 
L 851.522727 77.206673 
L 852.790909 77.333055 
L 855.327273 77.333055 
L 856.595455 77.070569 
L 857.863636 77.248801 
L 861.668182 86.325629 
L 864.204545 86.325629 
L 865.472727 85.826582 
L 866.740909 86.192766 
L 869.277273 86.192766 
L 870.545455 85.709921 
L 871.813636 86.934856 
L 874.35 86.934856 
L 878.154545 76.785399 
L 880.690909 76.785399 
L 881.959091 76.344682 
L 883.227273 76.811324 
L 885.763636 76.811324 
L 887.031818 76.302555 
L 888.3 76.636333 
L 889.568182 76.636333 
L 890.836364 77.4724 
L 892.104545 82.012434 
L 897.177273 120.721008 
L 899.713636 140.494949 
L 907.322727 198.199727 
L 909.859091 218.051441 
L 917.468182 275.665483 
L 920.004545 295.478311 
L 923.809091 324.760075 
L 926.345455 344.543737 
L 927.613636 354.009434 
L 928.881818 362.003913 
L 933.954545 369.36 
L 933.954545 369.36 
" clip-path="url(#p80685dd1e8)" style="fill: none; stroke: #1f77b4; stroke-width: 1.5; stroke-linecap: square"/>
   </g>
   <g id="patch_7">
    <path d="M 135 384.48 
L 135 51.84 
" style="fill: none; stroke: #000000; stroke-width: 0.8; stroke-linejoin: miter; stroke-linecap: square"/>
   </g>
   <g id="patch_8">
    <path d="M 972 384.48 
L 972 51.84 
" style="fill: none; stroke: #000000; stroke-width: 0.8; stroke-linejoin: miter; stroke-linecap: square"/>
   </g>
   <g id="patch_9">
    <path d="M 135 384.48 
L 972 384.48 
" style="fill: none; stroke: #000000; stroke-width: 0.8; stroke-linejoin: miter; stroke-linecap: square"/>
   </g>
   <g id="patch_10">
    <path d="M 135 51.84 
L 972 51.84 
" style="fill: none; stroke: #000000; stroke-width: 0.8; stroke-linejoin: miter; stroke-linecap: square"/>
   </g>
   <g id="text_27">
    <!-- ../case2/default________QoE:1009 -->
    <g transform="translate(457.5 45.84) scale(0.12 -0.12)">
     <defs>
      <path id="Times New Roman-2e" d="M 800 25
Q 650 25 537 125 
Q 425 225 425 400 
Q 425 575 537 675 
Q 650 775 800 775 
Q 950 775 1062 662 
Q 1175 550 1175 400 
Q 1175 225 1062 125 
Q 950 25 800 25 
z
" transform="scale(0.015625)"/>
      <path id="Times New Roman-2f" d="M 400 -475
L 225 -375 
L 2775 4975 
L 2950 4875 
L 400 -475 
z
" transform="scale(0.015625)"/>
      <path id="Times New Roman-63" d="M 2150 2225
Q 2150 2300 2175 2325 
Q 2175 2350 2200 2425 
Q 2225 2525 2100 2662 
Q 1975 2800 1675 2800 
Q 1300 2800 1037 2437 
Q 775 2075 775 1475 
Q 775 925 1000 587 
Q 1225 250 1750 250 
Q 2100 250 2337 475 
Q 2575 700 2675 1000 
L 2800 950 
Q 2700 575 2425 312 
Q 2150 50 1675 50 
Q 1075 50 725 425 
Q 375 800 375 1500 
Q 375 2125 750 2537 
Q 1125 2950 1725 2950 
Q 2150 2950 2387 2725 
Q 2625 2500 2625 2275 
Q 2625 2125 2562 2062 
Q 2500 2000 2375 2000 
Q 2275 2000 2212 2062 
Q 2150 2125 2150 2225 
z
" transform="scale(0.015625)"/>
      <path id="Times New Roman-64" d="M 2300 2350
Q 2175 2550 1975 2637 
Q 1775 2725 1575 2725 
Q 1200 2725 987 2375 
Q 775 2025 775 1450 
Q 775 850 975 562 
Q 1175 275 1550 275 
Q 1825 275 2012 450 
Q 2200 625 2300 975 
L 2300 2350 
z
M 1475 75 
Q 1025 75 700 437 
Q 375 800 375 1500 
Q 375 2150 725 2537 
Q 1075 2925 1550 2925 
Q 1750 2925 1962 2837 
Q 2175 2750 2300 2575 
L 2300 3925 
Q 2300 4075 2250 4150 
Q 2200 4225 2075 4225 
L 1875 4225 
L 1875 4375 
L 2150 4375 
Q 2275 4375 2400 4425 
Q 2525 4475 2650 4575 
L 2650 625 
Q 2650 500 2700 450 
Q 2750 400 2850 400 
L 3025 400 
L 3025 250 
L 2875 250 
Q 2775 250 2637 212 
Q 2500 175 2350 100 
L 2300 100 
L 2300 575 
Q 2175 350 1962 212 
Q 1750 75 1475 75 
z
" transform="scale(0.015625)"/>
      <path id="Times New Roman-6c" d="M 925 4375
Q 1150 4375 1350 4425 
Q 1550 4475 1725 4575 
L 1775 4575 
L 1775 450 
Q 1775 350 1837 300 
Q 1900 250 2000 250 
L 2575 250 
L 2575 100 
L 625 100 
L 625 250 
L 1200 250 
Q 1325 250 1375 300 
Q 1425 350 1425 450 
L 1425 4025 
Q 1425 4125 1375 4175 
Q 1325 4225 1200 4225 
L 650 4225 
L 650 4375 
L 925 4375 
z
" transform="scale(0.015625)"/>
      <path id="Times New Roman-5f" d="M 0 -875
L 0 -725 
L 3175 -725 
L 3175 -875 
L 0 -875 
z
" transform="scale(0.015625)"/>
      <path id="Times New Roman-51" d="M 1850 275
Q 1775 650 1675 887 
Q 1575 1125 1375 1125 
Q 1275 1125 1137 1025 
Q 1000 925 1000 700 
Q 1000 525 1175 387 
Q 1350 250 1600 250 
Q 1700 250 1762 250 
Q 1825 250 1850 275 
z
M 1425 1375 
Q 1725 1375 1887 1162 
Q 2050 950 2175 525 
Q 2350 650 2437 1087 
Q 2525 1525 2525 2250 
Q 2525 3225 2312 3737 
Q 2100 4250 1600 4250 
Q 1175 4250 925 3750 
Q 675 3250 675 2250 
Q 675 1750 712 1412 
Q 750 1075 825 925 
Q 925 1150 1050 1262 
Q 1175 1375 1425 1375 
z
M 1600 75 
Q 1050 75 625 575 
Q 200 1075 200 2250 
Q 200 3250 575 3837 
Q 950 4425 1600 4425 
Q 2200 4425 2600 3862 
Q 3000 3300 3000 2250 
Q 3000 1375 2787 925 
Q 2575 475 2275 250 
Q 2325 75 2400 0 
Q 2475 -75 2550 -75 
Q 2650 -75 2725 -25 
Q 2800 25 2825 150 
L 2925 100 
Q 2850 -200 2725 -337 
Q 2600 -475 2425 -475 
Q 2300 -475 2187 -400 
Q 2075 -325 1900 100 
Q 1875 75 1800 75 
Q 1725 75 1600 75 
z
" transform="scale(0.015625)"/>
      <path id="Times New Roman-6f" d="M 2900 1500
Q 2900 875 2525 462 
Q 2150 50 1600 50 
Q 1025 50 662 475 
Q 300 900 300 1500 
Q 300 2050 662 2500 
Q 1025 2950 1600 2950 
Q 2200 2950 2550 2500 
Q 2900 2050 2900 1500 
z
M 700 1475 
Q 700 825 962 512 
Q 1225 200 1600 200 
Q 2025 200 2262 537 
Q 2500 875 2500 1475 
Q 2500 2125 2237 2462 
Q 1975 2800 1600 2800 
Q 1250 2800 975 2462 
Q 700 2125 700 1475 
z
" transform="scale(0.015625)"/>
      <path id="Times New Roman-45" d="M 200 4225
L 200 4375 
L 2650 4375 
L 2925 3525 
L 2800 3475 
Q 2600 3850 2375 4037 
Q 2150 4225 1875 4225 
L 1175 4225 
Q 1075 4225 1012 4175 
Q 950 4125 950 4025 
L 950 2475 
L 1675 2475 
Q 1925 2475 2037 2600 
Q 2150 2725 2150 2975 
L 2150 3125 
L 2300 3125 
L 2300 1650 
L 2150 1650 
L 2150 1750 
Q 2150 2025 2037 2175 
Q 1925 2325 1675 2325 
L 950 2325 
L 950 450 
Q 950 350 1012 300 
Q 1075 250 1175 250 
L 1825 250 
Q 2200 250 2462 462 
Q 2725 675 2875 1125 
L 3000 1075 
L 2725 100 
L 175 100 
L 175 250 
L 325 250 
Q 450 250 500 300 
Q 550 350 550 450 
L 550 4025 
Q 550 4125 500 4175 
Q 450 4225 325 4225 
L 200 4225 
z
" transform="scale(0.015625)"/>
      <path id="Times New Roman-3a" d="M 1900 2725
Q 1900 2575 1800 2475 
Q 1700 2375 1550 2375 
Q 1400 2375 1300 2475 
Q 1200 2575 1200 2725 
Q 1200 2875 1300 2975 
Q 1400 3075 1550 3075 
Q 1700 3075 1800 2975 
Q 1900 2875 1900 2725 
z
M 1900 375 
Q 1900 225 1800 125 
Q 1700 25 1550 25 
Q 1400 25 1300 125 
Q 1200 225 1200 375 
Q 1200 525 1300 625 
Q 1400 725 1550 725 
Q 1700 725 1800 625 
Q 1900 525 1900 375 
z
" transform="scale(0.015625)"/>
      <path id="Times New Roman-39" d="M 700 3050
Q 700 2500 912 2212 
Q 1125 1925 1450 1925 
Q 1825 1925 2100 2275 
Q 2375 2625 2375 2925 
Q 2375 3525 2175 3887 
Q 1975 4250 1525 4250 
Q 1100 4250 900 3912 
Q 700 3575 700 3050 
z
M 1375 1700 
Q 875 1700 575 2012 
Q 275 2325 275 3025 
Q 275 3625 600 4025 
Q 925 4425 1525 4425 
Q 2150 4425 2500 3925 
Q 2850 3425 2850 2475 
Q 2850 1425 2437 737 
Q 2025 50 1300 50 
Q 975 50 737 200 
Q 500 350 500 600 
Q 500 700 562 800 
Q 625 900 775 900 
Q 925 900 975 787 
Q 1025 675 1025 525 
Q 1025 425 1050 362 
Q 1075 300 1100 275 
Q 1125 250 1187 237 
Q 1250 225 1325 225 
Q 1775 225 2050 725 
Q 2325 1225 2375 2400 
Q 2250 2100 2000 1900 
Q 1750 1700 1375 1700 
z
" transform="scale(0.015625)"/>
     </defs>
     <use xlink:href="#Times New Roman-2e"/>
     <use xlink:href="#Times New Roman-2e" x="50"/>
     <use xlink:href="#Times New Roman-2f" x="100"/>
     <use xlink:href="#Times New Roman-63" x="150"/>
     <use xlink:href="#Times New Roman-61" x="200"/>
     <use xlink:href="#Times New Roman-73" x="250"/>
     <use xlink:href="#Times New Roman-65" x="300"/>
     <use xlink:href="#Times New Roman-32" x="350"/>
     <use xlink:href="#Times New Roman-2f" x="400"/>
     <use xlink:href="#Times New Roman-64" x="450"/>
     <use xlink:href="#Times New Roman-65" x="500"/>
     <use xlink:href="#Times New Roman-66" x="550"/>
     <use xlink:href="#Times New Roman-61" x="600"/>
     <use xlink:href="#Times New Roman-75" x="650"/>
     <use xlink:href="#Times New Roman-6c" x="700"/>
     <use xlink:href="#Times New Roman-74" x="750"/>
     <use xlink:href="#Times New Roman-5f" x="800"/>
     <use xlink:href="#Times New Roman-5f" x="850"/>
     <use xlink:href="#Times New Roman-5f" x="900"/>
     <use xlink:href="#Times New Roman-5f" x="950"/>
     <use xlink:href="#Times New Roman-5f" x="1000"/>
     <use xlink:href="#Times New Roman-5f" x="1050"/>
     <use xlink:href="#Times New Roman-5f" x="1100"/>
     <use xlink:href="#Times New Roman-5f" x="1150"/>
     <use xlink:href="#Times New Roman-51" x="1200"/>
     <use xlink:href="#Times New Roman-6f" x="1250"/>
     <use xlink:href="#Times New Roman-45" x="1300"/>
     <use xlink:href="#Times New Roman-3a" x="1350"/>
     <use xlink:href="#Times New Roman-31" x="1400"/>
     <use xlink:href="#Times New Roman-30" x="1450"/>
     <use xlink:href="#Times New Roman-30" x="1500"/>
     <use xlink:href="#Times New Roman-39" x="1550"/>
    </g>
   </g>
  </g>
  <g id="legend_1">
   <g id="patch_11">
    <path d="M 991 48.351562 
L 1073 48.351562 
Q 1075 48.351562 1075 46.351562 
L 1075 7 
Q 1075 5 1073 5 
L 991 5 
Q 989 5 989 7 
L 989 46.351562 
Q 989 48.351562 991 48.351562 
z
" style="fill: #ffffff; opacity: 0.8; stroke: #cccccc; stroke-linejoin: miter"/>
   </g>
   <g id="line2d_35">
    <path d="M 993 12.648438 
L 1003 12.648438 
L 1013 12.648438 
" style="fill: none; stroke: #ff0000; stroke-width: 1.5; stroke-linecap: square"/>
   </g>
   <g id="text_28">
    <!-- Bitrate -->
    <g transform="translate(1021 16.148438) scale(0.1 -0.1)">
     <use xlink:href="#Times New Roman-42"/>
     <use xlink:href="#Times New Roman-69" x="50"/>
     <use xlink:href="#Times New Roman-74" x="100"/>
     <use xlink:href="#Times New Roman-72" x="150"/>
     <use xlink:href="#Times New Roman-61" x="200"/>
     <use xlink:href="#Times New Roman-74" x="250"/>
     <use xlink:href="#Times New Roman-65" x="300"/>
    </g>
   </g>
   <g id="line2d_36">
    <path d="M 993 26.085938 
L 1003 26.085938 
L 1013 26.085938 
" style="fill: none; stroke: #008000; stroke-width: 1.5; stroke-linecap: square"/>
   </g>
   <g id="text_29">
    <!-- Throughput -->
    <g transform="translate(1021 29.585938) scale(0.1 -0.1)">
     <use xlink:href="#Times New Roman-54"/>
     <use xlink:href="#Times New Roman-68" x="50"/>
     <use xlink:href="#Times New Roman-72" x="100"/>
     <use xlink:href="#Times New Roman-6f" x="150"/>
     <use xlink:href="#Times New Roman-75" x="200"/>
     <use xlink:href="#Times New Roman-67" x="250"/>
     <use xlink:href="#Times New Roman-68" x="300"/>
     <use xlink:href="#Times New Roman-70" x="350"/>
     <use xlink:href="#Times New Roman-75" x="400"/>
     <use xlink:href="#Times New Roman-74" x="450"/>
    </g>
   </g>
   <g id="line2d_37">
    <path d="M 993 39.5625 
L 1003 39.5625 
L 1013 39.5625 
" style="fill: none; stroke: #1f77b4; stroke-width: 1.5; stroke-linecap: square"/>
   </g>
   <g id="text_30">
    <!-- buffer -->
    <g transform="translate(1021 43.0625) scale(0.1 -0.1)">
     <use xlink:href="#Times New Roman-62"/>
     <use xlink:href="#Times New Roman-75" x="50"/>
     <use xlink:href="#Times New Roman-66" x="100"/>
     <use xlink:href="#Times New Roman-66" x="150"/>
     <use xlink:href="#Times New Roman-65" x="200"/>
     <use xlink:href="#Times New Roman-72" x="250"/>
    </g>
   </g>
  </g>
 </g>
 <defs>
  <clipPath id="p80685dd1e8">
   <rect x="135" y="51.84" width="837" height="332.64"/>
  </clipPath>
 </defs>
</svg>
